%FSLAX23Y23*%
%MOIN*%
%SFA1B1*%

%IPPOS*%
%ADD36R,0.043430X0.047370*%
%ADD37R,0.047370X0.043430*%
%ADD46R,0.045400X0.041470*%
%ADD47R,0.041470X0.045400*%
%ADD48R,0.043000X0.024540*%
%ADD49R,0.065090X0.031620*%
%ADD50O,0.065090X0.031620*%
%ADD56C,0.137920*%
%ADD57C,0.094610*%
%ADD58C,0.038000*%
%ADD68R,0.086740X0.067060*%
%ADD69R,0.086740X0.157610*%
%ADD70R,0.043430X0.019810*%
%LNpedalboxrev2-1*%
%LPD*%
G36*
X3967Y500D02*
Y333D01*
X3945Y312*
X3727*
X3707Y331*
Y503*
X3728Y524*
X3942*
X3967Y500*
G37*
G54D36*
X3145Y376D03*
X3198D03*
X3506Y82D03*
X3560D03*
X3744Y636D03*
X3797D03*
X2703Y753D03*
X2650D03*
X2476D03*
X2529D03*
X3114Y1429D03*
X3061D03*
X2886D03*
X2939D03*
X2703Y1017D03*
X2650D03*
X2476D03*
X2529D03*
X3116Y1145D03*
X3062D03*
X2888D03*
X2941D03*
X2702Y1279D03*
X2649D03*
X2475D03*
X2528D03*
X2701Y1562D03*
X2648D03*
X2474D03*
X2527D03*
X3112Y883D03*
X3059D03*
X2884D03*
X2937D03*
X2885Y620D03*
X2938D03*
X3113D03*
X3060D03*
G54D37*
X2393Y382D03*
Y329D03*
X2374Y170D03*
Y223D03*
G54D46*
X2336Y1116D03*
Y1064D03*
Y911D03*
Y962D03*
X2273Y1227D03*
Y1278D03*
X1822Y1227D03*
Y1278D03*
X2251Y171D03*
Y222D03*
G54D47*
X3313Y1366D03*
X3365D03*
X3550D03*
X3499D03*
X2651Y664D03*
X2702D03*
X2477D03*
X2528D03*
X3062Y1339D03*
X3113D03*
X2887D03*
X2938D03*
X2651Y928D03*
X2702D03*
X2477D03*
X2528D03*
X3063Y1056D03*
X3115D03*
X2889D03*
X2940D03*
X2650Y1189D03*
X2701D03*
X2476D03*
X2527D03*
X2649Y1473D03*
X2700D03*
X2475D03*
X2526D03*
X3060Y794D03*
X3111D03*
X2885D03*
X2937D03*
X2886Y530D03*
X2937D03*
X3061D03*
X3112D03*
G54D48*
X1318Y1143D03*
Y1093D03*
Y1043D03*
Y993D03*
Y943D03*
Y893D03*
Y843D03*
X1114Y1143D03*
Y1093D03*
Y1043D03*
Y993D03*
Y943D03*
Y893D03*
Y843D03*
G54D49*
X2159Y1434D03*
Y1384D03*
Y1334D03*
Y1284D03*
Y1234D03*
Y1184D03*
Y1134D03*
X1938Y1434D03*
Y1384D03*
Y1334D03*
Y1284D03*
Y1234D03*
Y1184D03*
Y1134D03*
G54D50*
X3338Y1466D03*
Y1516D03*
Y1566D03*
Y1616D03*
X3553Y1466D03*
Y1516D03*
Y1566D03*
Y1616D03*
G54D56*
X3858Y235D03*
Y1514D03*
G54D57*
X3287Y1229D03*
Y1111D03*
Y993D03*
Y875D03*
Y756D03*
Y638D03*
Y520D03*
X3385Y1170D03*
Y1052D03*
Y934D03*
Y815D03*
Y697D03*
Y579D03*
X3503Y1170D03*
Y1052D03*
Y934D03*
Y815D03*
Y697D03*
Y579D03*
X3602Y1229D03*
Y1111D03*
Y993D03*
Y875D03*
Y756D03*
Y638D03*
Y520D03*
G54D58*
X1920Y257D03*
X1887Y302D03*
X1673Y678D03*
X1735Y245D03*
X1687Y277D03*
X1984Y771D03*
X1625Y664D03*
X1040Y168D03*
X1133Y133D03*
X1691Y1464D03*
X1834Y1136D03*
X2026Y1362D03*
X983Y1208D03*
X2273Y1149D03*
X1849Y1472D03*
X1247Y1263D03*
X1527Y1452D03*
X1476Y1254D03*
X736Y1096D03*
X661Y689D03*
X2354Y1507D03*
X2822Y1462D03*
X3638Y1539D03*
X1476Y1579D03*
X1221Y1507D03*
X1158Y1212D03*
X1061Y1213D03*
X653Y515D03*
X1145Y669D03*
X1514Y674D03*
X2275Y118D03*
X2200Y359D03*
X2327Y356D03*
X2118Y362D03*
X1318Y1460D03*
X1031Y1039D03*
X1251Y1095D03*
X1051Y1122D03*
X1055Y665D03*
X1389Y898D03*
X1388Y1029D03*
X2271Y983D03*
X2243Y886D03*
X1780Y1167D03*
X1752Y1119D03*
X1562Y941D03*
Y992D03*
X1533Y1107D03*
X1599Y1076D03*
X2018Y738D03*
X1875Y1042D03*
Y1095D03*
X2254Y1434D03*
X2238Y1384D03*
X2019Y854D03*
X2098Y1632D03*
X2062Y1523D03*
X2039Y1161D03*
X2082Y1184D03*
X2019Y1281D03*
X2360Y454D03*
X2185Y422D03*
X2159Y449D03*
X2132Y476D03*
X2105Y502D03*
X2085Y317D03*
X3212Y624D03*
X3291Y376D03*
X3940Y482D03*
X3921Y442D03*
X3940Y403D03*
X3921Y364D03*
X3901Y482D03*
X3881Y442D03*
X3901Y403D03*
X3881Y364D03*
X3862Y482D03*
X3842Y442D03*
X3862Y403D03*
X3842Y364D03*
X3822Y482D03*
X3803Y442D03*
X3822Y403D03*
X3803Y364D03*
X3783Y482D03*
X3763Y442D03*
X3783Y403D03*
X3763Y364D03*
X3744Y482D03*
X3724Y442D03*
X3744Y403D03*
X3724Y364D03*
G54D68*
X3402Y209D03*
Y300D03*
Y390D03*
G54D69*
X3650Y300D03*
G54D70*
X2116Y227D03*
Y207D03*
Y187D03*
Y168D03*
X1994Y227D03*
Y207D03*
Y187D03*
Y168D03*
M02*