G04*
G04 #@! TF.GenerationSoftware,Altium Limited,Altium Designer,20.0.11 (256)*
G04*
G04 Layer_Color=16711935*
%FSLAX25Y25*%
%MOIN*%
G70*
G01*
G75*
%ADD73C,0.00394*%
D73*
X127953Y113091D02*
G03*
X127953Y113091I-1969J0D01*
G01*
X211221Y142224D02*
G03*
X211221Y142224I-1969J0D01*
G01*
X208268Y20768D02*
G03*
X208268Y20768I-1575J0D01*
G01*
X350886Y160433D02*
G03*
X350886Y160433I-1969J0D01*
G01*
X153642Y113091D02*
G03*
X153642Y113091I-1969J0D01*
G01*
X104158D02*
G03*
X104158Y113091I-1969J0D01*
G01*
X287894Y63583D02*
G03*
X287894Y63583I-1969J0D01*
G01*
X222244Y18504D02*
G03*
X222244Y18504I-1969J0D01*
G01*
X202756Y113091D02*
G03*
X202756Y113091I-1969J0D01*
G01*
X330512Y134744D02*
Y138484D01*
X337402Y134744D02*
Y138484D01*
X330512Y134744D02*
X337402D01*
X330512Y138484D02*
X337402D01*
X355906Y134744D02*
Y138484D01*
X349016Y134744D02*
Y138484D01*
X355906D01*
X349016Y134744D02*
X355906D01*
X237500Y39075D02*
X241240D01*
X237500Y32185D02*
X241240D01*
X237500D02*
Y39075D01*
X241240Y32185D02*
Y39075D01*
X313779Y35827D02*
Y39567D01*
X320669Y35827D02*
Y39567D01*
X313779Y35827D02*
X320669D01*
X313779Y39567D02*
X320669D01*
X349902Y6398D02*
Y10138D01*
X356791Y6398D02*
Y10138D01*
X349902Y6398D02*
X356791D01*
X349902Y10138D02*
X356791D01*
X235551Y16240D02*
X239291D01*
X235551Y23130D02*
X239291D01*
Y16240D02*
Y23130D01*
X235551Y16240D02*
Y23130D01*
X373622Y61811D02*
X380512D01*
X373622Y65551D02*
X380512D01*
X373622Y61811D02*
Y65551D01*
X380512Y61811D02*
Y65551D01*
X231791Y112500D02*
X235531D01*
X231791Y105610D02*
X235531D01*
X231791D02*
Y112500D01*
X235531Y105610D02*
Y112500D01*
X231791Y90256D02*
X235531D01*
X231791Y97146D02*
X235531D01*
Y90256D02*
Y97146D01*
X231791Y90256D02*
Y97146D01*
X225492Y121850D02*
X229232D01*
X225492Y128740D02*
X229232D01*
Y121850D02*
Y128740D01*
X225492Y121850D02*
Y128740D01*
X180413Y121850D02*
X184153D01*
X180413Y128740D02*
X184153D01*
Y121850D02*
Y128740D01*
X180413Y121850D02*
Y128740D01*
X223327Y16240D02*
X227067D01*
X223327Y23130D02*
X227067D01*
Y16240D02*
Y23130D01*
X223327Y16240D02*
Y23130D01*
X129528Y81988D02*
Y116634D01*
X113779Y81988D02*
Y116634D01*
X129528D01*
X113779Y81988D02*
X129528D01*
X212795Y111122D02*
Y145768D01*
X197047Y111122D02*
Y145768D01*
X212795D01*
X197047Y111122D02*
X212795D01*
X345374Y16831D02*
Y43209D01*
X359941Y16831D02*
Y43209D01*
X345374Y16831D02*
X359941D01*
X345374Y43209D02*
X359941D01*
X209842Y15650D02*
Y23917D01*
X201181Y15650D02*
Y23917D01*
X209842D01*
X201181Y15650D02*
X209842D01*
X336713Y144291D02*
X352461D01*
X336713Y163976D02*
X352461D01*
X336713Y144291D02*
Y163976D01*
X352461Y144291D02*
Y163976D01*
X55413Y110925D02*
X62303D01*
X55413Y107185D02*
X62303D01*
X55413D02*
Y110925D01*
X62303Y107185D02*
Y110925D01*
X288976Y35138D02*
Y42028D01*
X285236Y35138D02*
Y42028D01*
X288976D01*
X285236Y35138D02*
X288976D01*
X301575Y38583D02*
X308465D01*
X301575Y42323D02*
X308465D01*
Y38583D02*
Y42323D01*
X301575Y38583D02*
Y42323D01*
X166920Y32776D02*
Y39665D01*
X170660Y32776D02*
Y39665D01*
X166920Y32776D02*
X170660D01*
X166920Y39665D02*
X170660D01*
X108563Y21949D02*
Y28839D01*
X104823Y21949D02*
Y28839D01*
X108563D01*
X104823Y21949D02*
X108563D01*
X236811Y32185D02*
Y39075D01*
X240551Y32185D02*
Y39075D01*
X236811Y32185D02*
X240551D01*
X236811Y39075D02*
X240551D01*
X378248Y6496D02*
X385138D01*
X378248Y2756D02*
X385138D01*
X378248D02*
Y6496D01*
X385138Y2756D02*
Y6496D01*
X106987Y127854D02*
Y134744D01*
X103247Y127854D02*
Y134744D01*
X106987D01*
X103247Y127854D02*
X106987D01*
X219582Y151870D02*
Y158760D01*
X215842Y151870D02*
Y158760D01*
X219582D01*
X215842Y151870D02*
X219582D01*
X144387D02*
Y158760D01*
X140647Y151870D02*
Y158760D01*
X144387D01*
X140647Y151870D02*
X144387D01*
X106987Y152362D02*
Y159252D01*
X103247Y152362D02*
Y159252D01*
X106987D01*
X103247Y152362D02*
X106987D01*
X181958Y151845D02*
Y158735D01*
X178218Y151845D02*
Y158735D01*
X181958D01*
X178218Y151845D02*
X181958D01*
X281791Y4528D02*
Y11417D01*
X278051Y4528D02*
Y11417D01*
X281791D01*
X278051Y4528D02*
X281791D01*
X280315Y29331D02*
Y36220D01*
X276575Y29331D02*
Y36220D01*
X280315D01*
X276575Y29331D02*
X280315D01*
X287992Y20768D02*
X295472D01*
X287992Y9744D02*
X295472D01*
Y20768D01*
X287992Y9744D02*
Y20768D01*
X347756Y34508D02*
X369173D01*
X347756Y3091D02*
X369173D01*
Y34508D01*
X347756Y3091D02*
Y34508D01*
X128839Y60335D02*
X132579D01*
X128839Y67224D02*
X132579D01*
X128839Y60335D02*
Y67224D01*
X132579Y60335D02*
Y67224D01*
X261811Y126102D02*
Y138071D01*
X267323Y126102D02*
Y138071D01*
X261811D02*
X267323D01*
X261811Y126102D02*
X267323D01*
X293307Y82402D02*
Y94370D01*
X298819Y82402D02*
Y94370D01*
X293307D02*
X298819D01*
X293307Y82402D02*
X298819D01*
X293307Y104350D02*
Y116319D01*
X298819Y104350D02*
Y116319D01*
X293307D02*
X298819D01*
X293307Y104350D02*
X298819D01*
X261426Y82402D02*
Y94370D01*
X266938Y82402D02*
Y94370D01*
X261426D02*
X266938D01*
X261426Y82402D02*
X266938D01*
X261417Y104350D02*
Y116319D01*
X266929Y104350D02*
Y116319D01*
X261417D02*
X266929D01*
X261417Y104350D02*
X266929D01*
X71575Y62697D02*
X83543D01*
X71575Y68209D02*
X83543D01*
X71575Y62697D02*
Y68209D01*
X83543Y62697D02*
Y68209D01*
X71575Y92522D02*
X83543D01*
X71575Y98033D02*
X83543D01*
X71575Y92522D02*
Y98033D01*
X83543Y92522D02*
Y98033D01*
X281791Y84941D02*
Y91831D01*
X278051Y84941D02*
Y91831D01*
X281791D01*
X278051Y84941D02*
X281791D01*
Y106890D02*
Y113779D01*
X278051Y106890D02*
Y113779D01*
X281791D01*
X278051Y106890D02*
X281791D01*
X249902Y84941D02*
Y91831D01*
X246161Y84941D02*
Y91831D01*
X249902D01*
X246161Y84941D02*
X249902D01*
Y106890D02*
Y113779D01*
X246161Y106890D02*
Y113779D01*
X249902D01*
X246161Y106890D02*
X249902D01*
X312894Y87500D02*
Y94390D01*
X309154Y87500D02*
Y94390D01*
X312894D01*
X309154Y87500D02*
X312894D01*
X309154Y104331D02*
Y111221D01*
X312894Y104331D02*
Y111221D01*
X309154Y104331D02*
X312894D01*
X309154Y111221D02*
X312894D01*
X55413Y87500D02*
X62303D01*
X55413Y91240D02*
X62303D01*
Y87500D02*
Y91240D01*
X55413Y87500D02*
Y91240D01*
X55413Y101083D02*
X62303D01*
X55413Y97342D02*
X62303D01*
X55413D02*
Y101083D01*
X62303Y97342D02*
Y101083D01*
X94784Y54999D02*
Y61889D01*
X91043Y54999D02*
Y61889D01*
X94784D01*
X91043Y54999D02*
X94784D01*
X74114Y81791D02*
X81004D01*
X74114Y78051D02*
X81004D01*
X74114D02*
Y81791D01*
X81004Y78051D02*
Y81791D01*
X312394Y48311D02*
Y55200D01*
X308653Y48311D02*
Y55200D01*
X312394D01*
X308653Y48311D02*
X312394D01*
X308653Y59184D02*
Y66074D01*
X312394Y59184D02*
Y66074D01*
X308653Y59184D02*
X312394D01*
X308653Y66074D02*
X312394D01*
X286713Y74705D02*
X293602D01*
X286713Y70965D02*
X293602D01*
X286713D02*
Y74705D01*
X293602Y70965D02*
Y74705D01*
X155020Y26969D02*
Y33858D01*
X151279Y26969D02*
Y33858D01*
X155020D01*
X151279Y26969D02*
X155020D01*
X108563Y5217D02*
Y12106D01*
X104823Y5217D02*
Y12106D01*
X108563D01*
X104823Y5217D02*
X108563D01*
X277953Y128642D02*
Y135531D01*
X281693Y128642D02*
Y135531D01*
X277953Y128642D02*
X281693D01*
X277953Y135531D02*
X281693D01*
X246161Y128642D02*
Y135531D01*
X249902Y128642D02*
Y135531D01*
X246161Y128642D02*
X249902D01*
X246161Y135531D02*
X249902D01*
X277535Y70768D02*
Y77658D01*
X273795Y70768D02*
Y77658D01*
X277535D01*
X273795Y70768D02*
X277535D01*
X348917Y149902D02*
X355807D01*
X348917Y146161D02*
X355807D01*
X348917D02*
Y149902D01*
X355807Y146161D02*
Y149902D01*
X293307Y29626D02*
Y36516D01*
X297047Y29626D02*
Y36516D01*
X293307Y29626D02*
X297047D01*
X293307Y36516D02*
X297047D01*
X122932Y132972D02*
Y139862D01*
X126672Y132972D02*
Y139862D01*
X122932Y132972D02*
X126672D01*
X122932Y139862D02*
X126672D01*
X235527Y156988D02*
Y163878D01*
X239267Y156988D02*
Y163878D01*
X235527Y156988D02*
X239267D01*
X235527Y163878D02*
X239267D01*
X113089Y127854D02*
Y134744D01*
X116829Y127854D02*
Y134744D01*
X113089Y127854D02*
X116829D01*
X113089Y134744D02*
X116829D01*
X225684Y151870D02*
Y158760D01*
X229425Y151870D02*
Y158760D01*
X225684Y151870D02*
X229425D01*
X225684Y158760D02*
X229425D01*
X160332Y156988D02*
Y163878D01*
X164072Y156988D02*
Y163878D01*
X160332Y156988D02*
X164072D01*
X160332Y163878D02*
X164072D01*
X150489Y151870D02*
Y158760D01*
X154229Y151870D02*
Y158760D01*
X150489Y151870D02*
X154229D01*
X150489Y158760D02*
X154229D01*
X122932Y157480D02*
Y164370D01*
X126672Y157480D02*
Y164370D01*
X122932Y157480D02*
X126672D01*
X122932Y164370D02*
X126672D01*
X197903Y156963D02*
Y163853D01*
X201643Y156963D02*
Y163853D01*
X197903Y156963D02*
X201643D01*
X197903Y163853D02*
X201643D01*
X113089Y152362D02*
Y159252D01*
X116829Y152362D02*
Y159252D01*
X113089Y152362D02*
X116829D01*
X113089Y159252D02*
X116829D01*
X188060Y151845D02*
Y158735D01*
X191800Y151845D02*
Y158735D01*
X188060Y151845D02*
X191800D01*
X188060Y158735D02*
X191800D01*
X148130Y81988D02*
X163878D01*
X148130Y116634D02*
X163878D01*
Y81988D02*
Y116634D01*
X148130Y81988D02*
Y116634D01*
X98646Y81988D02*
X114394D01*
X98646Y116634D02*
X114394D01*
Y81988D02*
Y116634D01*
X98646Y81988D02*
Y116634D01*
X282382Y47441D02*
Y67126D01*
X298130Y47441D02*
Y67126D01*
X282382D02*
X298130D01*
X282382Y47441D02*
X298130D01*
X184449Y54331D02*
X223819D01*
X184449Y14961D02*
X223819D01*
X184449D02*
Y54331D01*
X223819Y14961D02*
Y54331D01*
X197244Y81988D02*
X212992D01*
X197244Y116634D02*
X212992D01*
Y81988D02*
Y116634D01*
X197244Y81988D02*
Y116634D01*
X273622Y13386D02*
Y27953D01*
X247244Y13386D02*
Y27953D01*
X273622D01*
X247244Y13386D02*
X273622D01*
X123366Y29528D02*
X136870D01*
Y4528D02*
Y29528D01*
X123366Y4528D02*
Y29528D01*
Y4528D02*
X136870D01*
X264272Y77264D02*
X271161D01*
X264272Y73524D02*
X271161D01*
Y77264D01*
X264272Y73524D02*
Y77264D01*
X246850Y73524D02*
X253740D01*
X246850Y77264D02*
X253740D01*
X246850Y73524D02*
Y77264D01*
X253740Y73524D02*
Y77264D01*
X264272Y64567D02*
X271161D01*
X264272Y68307D02*
X271161D01*
X264272Y64567D02*
Y68307D01*
X271161Y64567D02*
Y68307D01*
X246850Y64567D02*
X253740D01*
X246850Y68307D02*
X253740D01*
X246850Y64567D02*
Y68307D01*
X253740Y64567D02*
Y68307D01*
X305315Y144783D02*
X312205D01*
X305315Y141043D02*
X312205D01*
Y144783D01*
X305315Y141043D02*
Y144783D01*
X287894Y141043D02*
X294783D01*
X287894Y144783D02*
X294783D01*
X287894Y141043D02*
Y144783D01*
X294783Y141043D02*
Y144783D01*
X305315Y132087D02*
X312205D01*
X305315Y135827D02*
X312205D01*
X305315Y132087D02*
Y135827D01*
X312205Y132087D02*
Y135827D01*
X287894Y132087D02*
X294783D01*
X287894Y135827D02*
X294783D01*
X287894Y132087D02*
Y135827D01*
X294783Y132087D02*
Y135827D01*
X264272Y103642D02*
X271161D01*
X264272Y99902D02*
X271161D01*
Y103642D01*
X264272Y99902D02*
Y103642D01*
X246850Y99902D02*
X253740D01*
X246850Y103642D02*
X253740D01*
X246850Y99902D02*
Y103642D01*
X253740Y99902D02*
Y103642D01*
X264272Y90945D02*
X271161D01*
X264272Y94685D02*
X271161D01*
X264272Y90945D02*
Y94685D01*
X271161Y90945D02*
Y94685D01*
X246850Y90945D02*
X253740D01*
X246850Y94685D02*
X253740D01*
X246850Y90945D02*
Y94685D01*
X253740Y90945D02*
Y94685D01*
X305512Y116437D02*
X312402D01*
X305512Y112697D02*
X312402D01*
Y116437D01*
X305512Y112697D02*
Y116437D01*
X288090Y112697D02*
X294980D01*
X288090Y116437D02*
X294980D01*
X288090Y112697D02*
Y116437D01*
X294980Y112697D02*
Y116437D01*
X305512Y103740D02*
X312402D01*
X305512Y107480D02*
X312402D01*
X305512Y103740D02*
Y107480D01*
X312402Y103740D02*
Y107480D01*
X288090Y103740D02*
X294980D01*
X288090Y107480D02*
X294980D01*
X288090Y103740D02*
Y107480D01*
X294980Y103740D02*
Y107480D01*
X264173Y129823D02*
X271063D01*
X264173Y126083D02*
X271063D01*
Y129823D01*
X264173Y126083D02*
Y129823D01*
X246752Y126083D02*
X253642D01*
X246752Y129823D02*
X253642D01*
X246752Y126083D02*
Y129823D01*
X253642Y126083D02*
Y129823D01*
X264173Y117126D02*
X271063D01*
X264173Y120866D02*
X271063D01*
X264173Y117126D02*
Y120866D01*
X271063Y117126D02*
Y120866D01*
X246752Y117126D02*
X253642D01*
X246752Y120866D02*
X253642D01*
X246752Y117126D02*
Y120866D01*
X253642Y117126D02*
Y120866D01*
X264075Y158169D02*
X270965D01*
X264075Y154429D02*
X270965D01*
Y158169D01*
X264075Y154429D02*
Y158169D01*
X246654Y154429D02*
X253543D01*
X246654Y158169D02*
X253543D01*
X246654Y154429D02*
Y158169D01*
X253543Y154429D02*
Y158169D01*
X264075Y145473D02*
X270965D01*
X264075Y149213D02*
X270965D01*
X264075Y145473D02*
Y149213D01*
X270965Y145473D02*
Y149213D01*
X246654Y145473D02*
X253543D01*
X246654Y149213D02*
X253543D01*
X246654Y145473D02*
Y149213D01*
X253543Y145473D02*
Y149213D01*
X305118Y90256D02*
X312008D01*
X305118Y86516D02*
X312008D01*
Y90256D01*
X305118Y86516D02*
Y90256D01*
X287697Y86516D02*
X294587D01*
X287697Y90256D02*
X294587D01*
X287697Y86516D02*
Y90256D01*
X294587Y86516D02*
Y90256D01*
X305118Y77559D02*
X312008D01*
X305118Y81299D02*
X312008D01*
X305118Y77559D02*
Y81299D01*
X312008Y77559D02*
Y81299D01*
X287697Y77559D02*
X294587D01*
X287697Y81299D02*
X294587D01*
X287697Y77559D02*
Y81299D01*
X294587Y77559D02*
Y81299D01*
X287795Y51181D02*
X294685D01*
X287795Y54921D02*
X294685D01*
X287795Y51181D02*
Y54921D01*
X294685Y51181D02*
Y54921D01*
X287795Y60138D02*
X294685D01*
X287795Y63878D02*
X294685D01*
X287795Y60138D02*
Y63878D01*
X294685Y60138D02*
Y63878D01*
X305217Y63878D02*
X312106D01*
X305217Y60138D02*
X312106D01*
Y63878D01*
X305217Y60138D02*
Y63878D01*
Y51181D02*
X312106D01*
X305217Y54921D02*
X312106D01*
X305217Y51181D02*
Y54921D01*
X312106Y51181D02*
Y54921D01*
M02*
