%TF.GenerationSoftware,Altium Limited,Altium Designer,19.1.8 (144)*%
G04 Layer_Color=16711935*
%FSLAX26Y26*%
%MOIN*%
%TF.FileFunction,Soldermask,Bot*%
%TF.Part,Single*%
G01*
G75*
%TA.AperFunction,SMDPad,CuDef*%
%ADD47R,0.047370X0.043433*%
%ADD48R,0.043433X0.047370*%
%ADD49R,0.045402X0.041465*%
%ADD50R,0.043000X0.024535*%
%ADD51R,0.065087X0.031622*%
%ADD52R,0.086740X0.067055*%
%ADD53R,0.086740X0.157606*%
%ADD54R,0.043433X0.019811*%
%ADD55O,0.065087X0.031622*%
%ADD56R,0.041465X0.045402*%
%TA.AperFunction,ComponentPad*%
%ADD57C,0.137921*%
%ADD58C,0.094614*%
%TA.AperFunction,ViaPad*%
%ADD59C,0.038000*%
G36*
X3967519Y500000D02*
X3967519Y333661D01*
X3945866Y312008D01*
X3727362Y312008D01*
X3707677Y331693D01*
X3707677Y503431D01*
X3728852Y524606D01*
X3942913Y524606D01*
X3967519Y500000D01*
D02*
G37*
D47*
X2393701Y382874D02*
D03*
Y329724D02*
D03*
X2374213Y170276D02*
D03*
Y223425D02*
D03*
D48*
X3145669Y376969D02*
D03*
X3198819D02*
D03*
X3506890Y82677D02*
D03*
X3560039D02*
D03*
X3744095Y636811D02*
D03*
X3797244D02*
D03*
X2703740Y753937D02*
D03*
X2650591D02*
D03*
X2476378D02*
D03*
X2529528D02*
D03*
X3114173Y1429134D02*
D03*
X3061024D02*
D03*
X2886811D02*
D03*
X2939961D02*
D03*
X2703740Y1017716D02*
D03*
X2650591D02*
D03*
X2476378D02*
D03*
X2529528D02*
D03*
X3116142Y1145669D02*
D03*
X3062992D02*
D03*
X2888779D02*
D03*
X2941929D02*
D03*
X2702756Y1279527D02*
D03*
X2649606D02*
D03*
X2475394D02*
D03*
X2528543D02*
D03*
X2701772Y1562992D02*
D03*
X2648622D02*
D03*
X2474409D02*
D03*
X2527559D02*
D03*
X3112205Y883858D02*
D03*
X3059055D02*
D03*
X2884843D02*
D03*
X2937992D02*
D03*
X2885827Y620079D02*
D03*
X2938976D02*
D03*
X3113189D02*
D03*
X3060039D02*
D03*
D49*
X2336614Y1116142D02*
D03*
Y1064961D02*
D03*
Y911417D02*
D03*
Y962598D02*
D03*
X2273622Y1227362D02*
D03*
Y1278543D02*
D03*
X1822835Y1227362D02*
D03*
Y1278543D02*
D03*
X2251968Y171260D02*
D03*
Y222441D02*
D03*
D50*
X1318898Y1143110D02*
D03*
Y1093110D02*
D03*
Y1043110D02*
D03*
Y993110D02*
D03*
Y943110D02*
D03*
Y893110D02*
D03*
Y843110D02*
D03*
X1114173Y1143110D02*
D03*
Y1093110D02*
D03*
Y1043110D02*
D03*
Y993110D02*
D03*
Y943110D02*
D03*
Y893110D02*
D03*
Y843110D02*
D03*
D51*
X2159449Y1434449D02*
D03*
Y1384449D02*
D03*
Y1334449D02*
D03*
Y1284449D02*
D03*
Y1234449D02*
D03*
Y1184449D02*
D03*
Y1134449D02*
D03*
X1938976Y1434449D02*
D03*
Y1384449D02*
D03*
Y1334449D02*
D03*
Y1284449D02*
D03*
Y1234449D02*
D03*
Y1184449D02*
D03*
Y1134449D02*
D03*
D52*
X3402559Y209646D02*
D03*
Y300197D02*
D03*
Y390748D02*
D03*
D53*
X3650591Y300197D02*
D03*
D54*
X2116142Y227362D02*
D03*
Y207677D02*
D03*
Y187992D02*
D03*
Y168307D02*
D03*
X1994094Y227362D02*
D03*
Y207677D02*
D03*
Y187992D02*
D03*
Y168307D02*
D03*
D55*
X3338583Y1466339D02*
D03*
Y1516339D02*
D03*
Y1566339D02*
D03*
Y1616339D02*
D03*
X3553150Y1466339D02*
D03*
Y1516339D02*
D03*
Y1566339D02*
D03*
Y1616339D02*
D03*
D56*
X2651575Y664370D02*
D03*
X2702756D02*
D03*
X2477362D02*
D03*
X2528543D02*
D03*
X3062008Y1339567D02*
D03*
X3113189D02*
D03*
X2887796D02*
D03*
X2938977D02*
D03*
X2651575Y928150D02*
D03*
X2702756D02*
D03*
X2477362D02*
D03*
X2528543D02*
D03*
X3063976Y1056102D02*
D03*
X3115157D02*
D03*
X2889764D02*
D03*
X2940945D02*
D03*
X2650591Y1189961D02*
D03*
X2701772D02*
D03*
X2476378D02*
D03*
X2527559D02*
D03*
X2649606Y1473425D02*
D03*
X2700787D02*
D03*
X2475394D02*
D03*
X2526575D02*
D03*
X3060039Y794291D02*
D03*
X3111220D02*
D03*
X2885827D02*
D03*
X2937008D02*
D03*
X2886811Y530512D02*
D03*
X2937992D02*
D03*
X3061024D02*
D03*
X3112205D02*
D03*
D57*
X3858268Y235236D02*
D03*
Y1514764D02*
D03*
D58*
X3287402Y1229331D02*
D03*
Y1111220D02*
D03*
Y993110D02*
D03*
Y875000D02*
D03*
Y756890D02*
D03*
Y638779D02*
D03*
Y520669D02*
D03*
X3385827Y1170276D02*
D03*
Y1052165D02*
D03*
Y934055D02*
D03*
Y815945D02*
D03*
Y697835D02*
D03*
Y579724D02*
D03*
X3503937Y1170276D02*
D03*
Y1052165D02*
D03*
Y934055D02*
D03*
Y815945D02*
D03*
Y697835D02*
D03*
Y579724D02*
D03*
X3602362Y1229331D02*
D03*
Y1111220D02*
D03*
Y993110D02*
D03*
Y875000D02*
D03*
Y756890D02*
D03*
Y638779D02*
D03*
Y520669D02*
D03*
D59*
X1984252Y771520D02*
D03*
X1625984Y664370D02*
D03*
X1040624Y168037D02*
D03*
X1133858Y133858D02*
D03*
X1691493Y1464567D02*
D03*
X1834646Y1136752D02*
D03*
X2026115Y1362205D02*
D03*
X983005Y1208661D02*
D03*
X2273622Y1149606D02*
D03*
X1849535Y1472441D02*
D03*
X1247524Y1263112D02*
D03*
X1527559Y1452756D02*
D03*
X1476378Y1254260D02*
D03*
X736221Y1096460D02*
D03*
X661417Y689961D02*
D03*
X2354331Y1507874D02*
D03*
X2822222Y1462923D02*
D03*
X3638955Y1539370D02*
D03*
X1476378Y1579232D02*
D03*
X1221306Y1507874D02*
D03*
X1158704Y1212598D02*
D03*
X1061012Y1213699D02*
D03*
X653543Y515748D02*
D03*
X1145669Y669291D02*
D03*
X1514659Y674328D02*
D03*
X2275591Y118110D02*
D03*
X2200787Y359048D02*
D03*
X2327756Y356299D02*
D03*
X2118110Y362205D02*
D03*
X1673228Y678150D02*
D03*
X1318898Y1460630D02*
D03*
X1031496Y1039370D02*
D03*
X1251968Y1095472D02*
D03*
X1051658Y1122047D02*
D03*
X1055118Y665354D02*
D03*
X1389764Y898622D02*
D03*
X1388780Y1029528D02*
D03*
X2197835Y677165D02*
D03*
X2271653Y983268D02*
D03*
X2243110Y886811D02*
D03*
X1780512Y1167323D02*
D03*
X1752512Y1119094D02*
D03*
X1562008Y941929D02*
D03*
Y992126D02*
D03*
X1533465Y1107284D02*
D03*
X1599409Y1076772D02*
D03*
X2018701Y738189D02*
D03*
X1875000Y1042323D02*
D03*
Y1095472D02*
D03*
X2254528Y1434449D02*
D03*
X2238780Y1384449D02*
D03*
X2112533Y677165D02*
D03*
X2069882D02*
D03*
X2155184D02*
D03*
X2019685Y854331D02*
D03*
X2098425Y1632382D02*
D03*
X2062992Y1523622D02*
D03*
X2039370Y1161417D02*
D03*
X2082677Y1184449D02*
D03*
X2019685Y1281988D02*
D03*
X2360236Y454724D02*
D03*
X2185925Y422342D02*
D03*
X2159055Y449213D02*
D03*
X2132185Y476083D02*
D03*
X2105315Y502953D02*
D03*
X2085630Y317913D02*
D03*
X3212598Y624016D02*
D03*
X3291339Y376969D02*
D03*
X3940962Y482284D02*
D03*
X3921277Y442914D02*
D03*
X3940962Y403544D02*
D03*
X3921277Y364174D02*
D03*
X3901592Y482284D02*
D03*
X3881907Y442914D02*
D03*
X3901592Y403544D02*
D03*
X3881907Y364174D02*
D03*
X3862222Y482284D02*
D03*
X3842537Y442914D02*
D03*
X3862222Y403544D02*
D03*
X3842537Y364174D02*
D03*
X3822852Y482284D02*
D03*
X3803167Y442914D02*
D03*
X3822852Y403544D02*
D03*
X3803167Y364174D02*
D03*
X3783482Y482284D02*
D03*
X3763797Y442914D02*
D03*
X3783482Y403544D02*
D03*
X3763797Y364174D02*
D03*
X3744111Y482284D02*
D03*
X3724427Y442914D02*
D03*
X3744111Y403544D02*
D03*
X3724427Y364174D02*
D03*
%TF.MD5,694f0d9aef4c535ea7af59b031e0dd3e*%
M02*
