G04*
G04 #@! TF.GenerationSoftware,Altium Limited,Altium Designer,19.0.10 (269)*
G04*
G04 Layer_Color=8421504*
%FSLAX25Y25*%
%MOIN*%
G70*
G01*
G75*
%ADD16R,0.25197X0.21850*%
%ADD17R,0.11811X0.03937*%
%ADD18R,0.03937X0.03543*%
%ADD19R,0.03500X0.01654*%
%ADD20O,0.05709X0.02362*%
%ADD21R,0.03543X0.03937*%
%ADD22R,0.03543X0.03150*%
%ADD23R,0.03150X0.03543*%
%ADD24R,0.05118X0.04331*%
%ADD25R,0.09449X0.02992*%
%ADD26R,0.08071X0.04528*%
%ADD27R,0.04528X0.08071*%
%ADD28R,0.05315X0.01181*%
%ADD29R,0.01181X0.05315*%
%ADD30R,0.02362X0.08268*%
%ADD31R,0.12598X0.08268*%
%ADD32R,0.05315X0.05709*%
%ADD33R,0.21457X0.13780*%
%ADD34R,0.02362X0.03937*%
D16*
X179330Y23819D02*
D03*
D17*
X204724Y14803D02*
D03*
Y32835D02*
D03*
D18*
X377755Y150886D02*
D03*
Y156201D02*
D03*
Y127264D02*
D03*
Y132579D02*
D03*
X387598Y156791D02*
D03*
Y162106D02*
D03*
Y133169D02*
D03*
Y138484D02*
D03*
X367913Y156201D02*
D03*
Y150886D02*
D03*
Y132579D02*
D03*
Y127264D02*
D03*
X198326Y91240D02*
D03*
Y85925D02*
D03*
Y107677D02*
D03*
Y102362D02*
D03*
X198228Y118996D02*
D03*
Y124311D02*
D03*
X253740Y16831D02*
D03*
Y11516D02*
D03*
X247834Y60925D02*
D03*
Y55610D02*
D03*
X211220Y66929D02*
D03*
Y61614D02*
D03*
Y55118D02*
D03*
Y49803D02*
D03*
X395078Y9958D02*
D03*
Y15273D02*
D03*
X332480Y17028D02*
D03*
Y22343D02*
D03*
X332086Y33169D02*
D03*
Y38484D02*
D03*
X399409Y45177D02*
D03*
Y39862D02*
D03*
X324212Y32579D02*
D03*
Y27264D02*
D03*
X263189Y34646D02*
D03*
Y29331D02*
D03*
X215157Y17815D02*
D03*
Y23130D02*
D03*
X243253Y94291D02*
D03*
Y99606D02*
D03*
D19*
X308070Y84008D02*
D03*
Y89008D02*
D03*
Y94008D02*
D03*
Y99008D02*
D03*
Y104008D02*
D03*
Y109008D02*
D03*
Y114008D02*
D03*
X328543Y84008D02*
D03*
Y89008D02*
D03*
Y94008D02*
D03*
Y99008D02*
D03*
Y104008D02*
D03*
Y109008D02*
D03*
Y114008D02*
D03*
X441535Y102795D02*
D03*
Y97795D02*
D03*
Y92795D02*
D03*
Y87795D02*
D03*
Y82795D02*
D03*
Y77795D02*
D03*
Y72795D02*
D03*
X421063Y102795D02*
D03*
Y97795D02*
D03*
Y92795D02*
D03*
Y87795D02*
D03*
Y82795D02*
D03*
Y77795D02*
D03*
Y72795D02*
D03*
D20*
X261122Y113366D02*
D03*
Y118366D02*
D03*
Y123366D02*
D03*
Y128366D02*
D03*
X282578Y113366D02*
D03*
Y118366D02*
D03*
Y123366D02*
D03*
Y128366D02*
D03*
X261122Y69621D02*
D03*
Y74621D02*
D03*
Y79621D02*
D03*
Y84621D02*
D03*
X282578Y69621D02*
D03*
Y74621D02*
D03*
Y79621D02*
D03*
Y84621D02*
D03*
X389271Y113799D02*
D03*
Y108799D02*
D03*
Y103799D02*
D03*
Y98799D02*
D03*
X367814Y113799D02*
D03*
Y108799D02*
D03*
Y103799D02*
D03*
Y98799D02*
D03*
X388878Y84665D02*
D03*
Y79665D02*
D03*
Y74665D02*
D03*
Y69665D02*
D03*
X367421Y84665D02*
D03*
Y79665D02*
D03*
Y74665D02*
D03*
Y69665D02*
D03*
X218208Y50768D02*
D03*
Y55768D02*
D03*
Y60768D02*
D03*
Y65768D02*
D03*
X239665Y50768D02*
D03*
Y55768D02*
D03*
Y60768D02*
D03*
Y65768D02*
D03*
D21*
X269193Y93110D02*
D03*
X274507D02*
D03*
X269193Y104331D02*
D03*
X274507D02*
D03*
X217618Y82677D02*
D03*
X222933D02*
D03*
X359153Y54991D02*
D03*
X353838D02*
D03*
X232578Y38583D02*
D03*
X237893D02*
D03*
X219586Y72441D02*
D03*
X224901D02*
D03*
X207972Y40157D02*
D03*
X202657D02*
D03*
X402460Y25591D02*
D03*
X397145D02*
D03*
X375492Y31102D02*
D03*
X380807D02*
D03*
X346161Y23071D02*
D03*
X340846D02*
D03*
X188976Y6299D02*
D03*
X194291D02*
D03*
X126574Y4724D02*
D03*
X131889D02*
D03*
X223228Y135039D02*
D03*
X217913D02*
D03*
D22*
X233267Y100591D02*
D03*
Y93110D02*
D03*
X225393Y96850D02*
D03*
X214370Y100591D02*
D03*
Y93110D02*
D03*
X206496Y96850D02*
D03*
X233267Y126181D02*
D03*
Y118701D02*
D03*
X225393Y122441D02*
D03*
X214370Y126181D02*
D03*
Y118701D02*
D03*
X206496Y122441D02*
D03*
D23*
X368897Y52362D02*
D03*
X376378D02*
D03*
X372637Y44488D02*
D03*
X343503Y40945D02*
D03*
X339763Y33071D02*
D03*
X347244D02*
D03*
D24*
X387992Y52165D02*
D03*
Y43110D02*
D03*
X252559Y39764D02*
D03*
Y30709D02*
D03*
X357283Y32228D02*
D03*
Y41283D02*
D03*
D25*
X385433Y25354D02*
D03*
X370078D02*
D03*
X385433Y20354D02*
D03*
X370078D02*
D03*
X385433Y15354D02*
D03*
X370078D02*
D03*
X385433Y10354D02*
D03*
X370078D02*
D03*
X385433Y5354D02*
D03*
X370078D02*
D03*
D26*
X220275Y38583D02*
D03*
D27*
X199015Y62992D02*
D03*
Y53543D02*
D03*
X262401Y9843D02*
D03*
D28*
X270866Y15551D02*
D03*
Y17520D02*
D03*
Y19488D02*
D03*
Y21457D02*
D03*
Y23425D02*
D03*
Y25394D02*
D03*
Y27362D02*
D03*
Y29331D02*
D03*
Y31299D02*
D03*
Y33268D02*
D03*
Y35236D02*
D03*
Y37205D02*
D03*
Y39173D02*
D03*
Y41142D02*
D03*
Y43110D02*
D03*
Y45079D02*
D03*
X316141D02*
D03*
Y43110D02*
D03*
Y41142D02*
D03*
Y39173D02*
D03*
Y37205D02*
D03*
Y35236D02*
D03*
Y33268D02*
D03*
Y31299D02*
D03*
Y29331D02*
D03*
Y27362D02*
D03*
Y25394D02*
D03*
Y23425D02*
D03*
Y21457D02*
D03*
Y19488D02*
D03*
Y17520D02*
D03*
Y15551D02*
D03*
D29*
X278740Y52953D02*
D03*
X280708D02*
D03*
X282677D02*
D03*
X284645D02*
D03*
X286614D02*
D03*
X288582D02*
D03*
X290551D02*
D03*
X292519D02*
D03*
X294488D02*
D03*
X296456D02*
D03*
X298425D02*
D03*
X300393D02*
D03*
X302362D02*
D03*
X304330D02*
D03*
X306299D02*
D03*
X308267D02*
D03*
Y7677D02*
D03*
X306299D02*
D03*
X304330D02*
D03*
X302362D02*
D03*
X300393D02*
D03*
X298425D02*
D03*
X296456D02*
D03*
X294488D02*
D03*
X292519D02*
D03*
X290551D02*
D03*
X288582D02*
D03*
X286614D02*
D03*
X284645D02*
D03*
X282677D02*
D03*
X280708D02*
D03*
X278740D02*
D03*
D30*
X223169Y30020D02*
D03*
X228169D02*
D03*
X233169D02*
D03*
X238169D02*
D03*
X243169D02*
D03*
D31*
X233169Y6594D02*
D03*
D32*
X218405Y6299D02*
D03*
X206791D02*
D03*
D33*
X150590Y8366D02*
D03*
Y29035D02*
D03*
D34*
X399409Y111221D02*
D03*
X403149D02*
D03*
X406889D02*
D03*
Y100394D02*
D03*
X399409D02*
D03*
X399606Y81791D02*
D03*
X403346D02*
D03*
X407086D02*
D03*
Y70965D02*
D03*
X399606D02*
D03*
M02*
