G04*
G04 #@! TF.GenerationSoftware,Altium Limited,Altium Designer,20.0.11 (256)*
G04*
G04 Layer_Color=255*
%FSLAX25Y25*%
%MOIN*%
G70*
G01*
G75*
%ADD16R,0.03543X0.03937*%
%ADD17R,0.03937X0.03543*%
%ADD26R,0.03740X0.03347*%
%ADD27R,0.03347X0.03740*%
%ADD28R,0.03500X0.01654*%
%ADD29R,0.05709X0.02362*%
%ADD30O,0.05709X0.02362*%
%ADD61C,0.12992*%
%ADD62C,0.08661*%
%ADD64R,0.07874X0.05906*%
%ADD65R,0.07874X0.14961*%
%ADD66R,0.03543X0.01181*%
D16*
X314567Y37697D02*
D03*
X319882D02*
D03*
X350689Y8268D02*
D03*
X356004D02*
D03*
X374410Y63681D02*
D03*
X379724D02*
D03*
X270374Y75394D02*
D03*
X265059D02*
D03*
X247638D02*
D03*
X252953D02*
D03*
X311417Y142913D02*
D03*
X306102D02*
D03*
X288681D02*
D03*
X293996D02*
D03*
X270374Y101772D02*
D03*
X265059D02*
D03*
X247638D02*
D03*
X252953D02*
D03*
X311614Y114567D02*
D03*
X306299D02*
D03*
X288878D02*
D03*
X294193D02*
D03*
X270276Y127953D02*
D03*
X264961D02*
D03*
X247539D02*
D03*
X252854D02*
D03*
X270177Y156299D02*
D03*
X264862D02*
D03*
X247441D02*
D03*
X252756D02*
D03*
X311221Y88386D02*
D03*
X305906D02*
D03*
X288484D02*
D03*
X293799D02*
D03*
X288583Y62008D02*
D03*
X293898D02*
D03*
X311319D02*
D03*
X306004D02*
D03*
D17*
X239370Y38287D02*
D03*
Y32972D02*
D03*
X237421Y17028D02*
D03*
Y22343D02*
D03*
D26*
X233661Y111614D02*
D03*
Y106496D02*
D03*
Y91142D02*
D03*
Y96260D02*
D03*
X227362Y122736D02*
D03*
Y127854D02*
D03*
X182283Y122736D02*
D03*
Y127854D02*
D03*
X225197Y17126D02*
D03*
Y22244D02*
D03*
D27*
X331398Y136614D02*
D03*
X336516D02*
D03*
X355020Y136614D02*
D03*
X349902D02*
D03*
X265158Y66437D02*
D03*
X270276D02*
D03*
X247736D02*
D03*
X252854D02*
D03*
X306201Y133957D02*
D03*
X311319D02*
D03*
X288780D02*
D03*
X293898D02*
D03*
X265158Y92815D02*
D03*
X270276D02*
D03*
X247736D02*
D03*
X252854D02*
D03*
X306398Y105610D02*
D03*
X311516D02*
D03*
X288976D02*
D03*
X294094D02*
D03*
X265059Y118996D02*
D03*
X270177D02*
D03*
X247638D02*
D03*
X252756D02*
D03*
X264961Y147343D02*
D03*
X270079D02*
D03*
X247539D02*
D03*
X252658D02*
D03*
X306004Y79429D02*
D03*
X311122D02*
D03*
X288583D02*
D03*
X293701D02*
D03*
X288681Y53051D02*
D03*
X293799D02*
D03*
X306102D02*
D03*
X311221D02*
D03*
D28*
X131890Y114311D02*
D03*
Y109311D02*
D03*
Y104311D02*
D03*
Y99311D02*
D03*
Y94311D02*
D03*
Y89311D02*
D03*
Y84311D02*
D03*
X111417Y114311D02*
D03*
Y109311D02*
D03*
Y104311D02*
D03*
Y99311D02*
D03*
Y94311D02*
D03*
Y89311D02*
D03*
Y84311D02*
D03*
D29*
X215945Y143445D02*
D03*
Y138445D02*
D03*
Y133445D02*
D03*
Y128445D02*
D03*
Y123445D02*
D03*
Y118445D02*
D03*
Y113445D02*
D03*
X193898Y143445D02*
D03*
Y138445D02*
D03*
Y133445D02*
D03*
Y128445D02*
D03*
Y123445D02*
D03*
Y118445D02*
D03*
Y113445D02*
D03*
D30*
X333858Y146634D02*
D03*
Y151634D02*
D03*
Y156634D02*
D03*
Y161634D02*
D03*
X355315Y146634D02*
D03*
Y151634D02*
D03*
Y156634D02*
D03*
Y161634D02*
D03*
D61*
X385827Y23524D02*
D03*
Y151476D02*
D03*
D62*
X328740Y122933D02*
D03*
Y111122D02*
D03*
Y99311D02*
D03*
Y87500D02*
D03*
Y75689D02*
D03*
Y63878D02*
D03*
Y52067D02*
D03*
X338583Y117028D02*
D03*
Y105217D02*
D03*
Y93405D02*
D03*
Y81595D02*
D03*
Y69784D02*
D03*
Y57972D02*
D03*
X350394Y117028D02*
D03*
Y105217D02*
D03*
Y93405D02*
D03*
Y81595D02*
D03*
Y69784D02*
D03*
Y57972D02*
D03*
X360236Y122933D02*
D03*
Y111122D02*
D03*
Y99311D02*
D03*
Y87500D02*
D03*
Y75689D02*
D03*
Y63878D02*
D03*
Y52067D02*
D03*
D64*
X340256Y20965D02*
D03*
Y30020D02*
D03*
Y39075D02*
D03*
D65*
X365059Y30020D02*
D03*
D66*
X211614Y22736D02*
D03*
Y20768D02*
D03*
Y18799D02*
D03*
Y16831D02*
D03*
X199409Y22736D02*
D03*
Y20768D02*
D03*
Y18799D02*
D03*
Y16831D02*
D03*
M02*
