G04*
G04 #@! TF.GenerationSoftware,Altium Limited,Altium Designer,19.0.10 (269)*
G04*
G04 Layer_Color=8388736*
%FSLAX25Y25*%
%MOIN*%
G70*
G01*
G75*
%ADD35R,0.25997X0.22650*%
%ADD36R,0.12611X0.04737*%
%ADD37R,0.04737X0.04343*%
%ADD38R,0.04300X0.02454*%
%ADD39O,0.06509X0.03162*%
%ADD40R,0.04343X0.04737*%
%ADD41R,0.04343X0.03950*%
%ADD42R,0.03950X0.04343*%
%ADD43R,0.05918X0.05131*%
%ADD44R,0.10249X0.03792*%
%ADD45R,0.08871X0.05328*%
%ADD46R,0.05328X0.08871*%
%ADD47R,0.06115X0.01981*%
%ADD48R,0.01981X0.06115*%
%ADD49R,0.03162X0.09068*%
%ADD50R,0.13398X0.09068*%
%ADD51R,0.06115X0.06509*%
%ADD52R,0.22257X0.14580*%
%ADD53R,0.03162X0.04737*%
%ADD54C,0.13792*%
%ADD55C,0.09461*%
%ADD56C,0.03000*%
%ADD57C,0.02165*%
%ADD58C,0.02362*%
D35*
X179330Y23819D02*
D03*
D36*
X204724Y14803D02*
D03*
Y32835D02*
D03*
D37*
X377755Y150886D02*
D03*
Y156201D02*
D03*
Y127264D02*
D03*
Y132579D02*
D03*
X387598Y156791D02*
D03*
Y162106D02*
D03*
Y133169D02*
D03*
Y138484D02*
D03*
X367913Y156201D02*
D03*
Y150886D02*
D03*
Y132579D02*
D03*
Y127264D02*
D03*
X198326Y91240D02*
D03*
Y85925D02*
D03*
Y107677D02*
D03*
Y102362D02*
D03*
X198228Y118996D02*
D03*
Y124311D02*
D03*
X253740Y16831D02*
D03*
Y11516D02*
D03*
X247834Y60925D02*
D03*
Y55610D02*
D03*
X211220Y66929D02*
D03*
Y61614D02*
D03*
Y55118D02*
D03*
Y49803D02*
D03*
X395078Y9958D02*
D03*
Y15273D02*
D03*
X332480Y17028D02*
D03*
Y22343D02*
D03*
X332086Y33169D02*
D03*
Y38484D02*
D03*
X399409Y45177D02*
D03*
Y39862D02*
D03*
X324212Y32579D02*
D03*
Y27264D02*
D03*
X263189Y34646D02*
D03*
Y29331D02*
D03*
X215157Y17815D02*
D03*
Y23130D02*
D03*
X243253Y94291D02*
D03*
Y99606D02*
D03*
D38*
X308070Y84008D02*
D03*
Y89008D02*
D03*
Y94008D02*
D03*
Y99008D02*
D03*
Y104008D02*
D03*
Y109008D02*
D03*
Y114008D02*
D03*
X328543Y84008D02*
D03*
Y89008D02*
D03*
Y94008D02*
D03*
Y99008D02*
D03*
Y104008D02*
D03*
Y109008D02*
D03*
Y114008D02*
D03*
X441535Y102795D02*
D03*
Y97795D02*
D03*
Y92795D02*
D03*
Y87795D02*
D03*
Y82795D02*
D03*
Y77795D02*
D03*
Y72795D02*
D03*
X421063Y102795D02*
D03*
Y97795D02*
D03*
Y92795D02*
D03*
Y87795D02*
D03*
Y82795D02*
D03*
Y77795D02*
D03*
Y72795D02*
D03*
D39*
X261122Y113366D02*
D03*
Y118366D02*
D03*
Y123366D02*
D03*
Y128366D02*
D03*
X282578Y113366D02*
D03*
Y118366D02*
D03*
Y123366D02*
D03*
Y128366D02*
D03*
X261122Y69621D02*
D03*
Y74621D02*
D03*
Y79621D02*
D03*
Y84621D02*
D03*
X282578Y69621D02*
D03*
Y74621D02*
D03*
Y79621D02*
D03*
Y84621D02*
D03*
X389271Y113799D02*
D03*
Y108799D02*
D03*
Y103799D02*
D03*
Y98799D02*
D03*
X367814Y113799D02*
D03*
Y108799D02*
D03*
Y103799D02*
D03*
Y98799D02*
D03*
X388878Y84665D02*
D03*
Y79665D02*
D03*
Y74665D02*
D03*
Y69665D02*
D03*
X367421Y84665D02*
D03*
Y79665D02*
D03*
Y74665D02*
D03*
Y69665D02*
D03*
X218208Y50768D02*
D03*
Y55768D02*
D03*
Y60768D02*
D03*
Y65768D02*
D03*
X239665Y50768D02*
D03*
Y55768D02*
D03*
Y60768D02*
D03*
Y65768D02*
D03*
D40*
X269193Y93110D02*
D03*
X274507D02*
D03*
X269193Y104331D02*
D03*
X274507D02*
D03*
X217618Y82677D02*
D03*
X222933D02*
D03*
X359153Y54991D02*
D03*
X353838D02*
D03*
X232578Y38583D02*
D03*
X237893D02*
D03*
X219586Y72441D02*
D03*
X224901D02*
D03*
X207972Y40157D02*
D03*
X202657D02*
D03*
X402460Y25591D02*
D03*
X397145D02*
D03*
X375492Y31102D02*
D03*
X380807D02*
D03*
X346161Y23071D02*
D03*
X340846D02*
D03*
X188976Y6299D02*
D03*
X194291D02*
D03*
X126574Y4724D02*
D03*
X131889D02*
D03*
X223228Y135039D02*
D03*
X217913D02*
D03*
D41*
X233267Y100591D02*
D03*
Y93110D02*
D03*
X225393Y96850D02*
D03*
X214370Y100591D02*
D03*
Y93110D02*
D03*
X206496Y96850D02*
D03*
X233267Y126181D02*
D03*
Y118701D02*
D03*
X225393Y122441D02*
D03*
X214370Y126181D02*
D03*
Y118701D02*
D03*
X206496Y122441D02*
D03*
D42*
X368897Y52362D02*
D03*
X376378D02*
D03*
X372637Y44488D02*
D03*
X343503Y40945D02*
D03*
X339763Y33071D02*
D03*
X347244D02*
D03*
D43*
X387992Y52165D02*
D03*
Y43110D02*
D03*
X252559Y39764D02*
D03*
Y30709D02*
D03*
X357283Y32228D02*
D03*
Y41283D02*
D03*
D44*
X385433Y25354D02*
D03*
X370078D02*
D03*
X385433Y20354D02*
D03*
X370078D02*
D03*
X385433Y15354D02*
D03*
X370078D02*
D03*
X385433Y10354D02*
D03*
X370078D02*
D03*
X385433Y5354D02*
D03*
X370078D02*
D03*
D45*
X220275Y38583D02*
D03*
D46*
X199015Y62992D02*
D03*
Y53543D02*
D03*
X262401Y9843D02*
D03*
D47*
X270866Y15551D02*
D03*
Y17520D02*
D03*
Y19488D02*
D03*
Y21457D02*
D03*
Y23425D02*
D03*
Y25394D02*
D03*
Y27362D02*
D03*
Y29331D02*
D03*
Y31299D02*
D03*
Y33268D02*
D03*
Y35236D02*
D03*
Y37205D02*
D03*
Y39173D02*
D03*
Y41142D02*
D03*
Y43110D02*
D03*
Y45079D02*
D03*
X316141D02*
D03*
Y43110D02*
D03*
Y41142D02*
D03*
Y39173D02*
D03*
Y37205D02*
D03*
Y35236D02*
D03*
Y33268D02*
D03*
Y31299D02*
D03*
Y29331D02*
D03*
Y27362D02*
D03*
Y25394D02*
D03*
Y23425D02*
D03*
Y21457D02*
D03*
Y19488D02*
D03*
Y17520D02*
D03*
Y15551D02*
D03*
D48*
X278740Y52953D02*
D03*
X280708D02*
D03*
X282677D02*
D03*
X284645D02*
D03*
X286614D02*
D03*
X288582D02*
D03*
X290551D02*
D03*
X292519D02*
D03*
X294488D02*
D03*
X296456D02*
D03*
X298425D02*
D03*
X300393D02*
D03*
X302362D02*
D03*
X304330D02*
D03*
X306299D02*
D03*
X308267D02*
D03*
Y7677D02*
D03*
X306299D02*
D03*
X304330D02*
D03*
X302362D02*
D03*
X300393D02*
D03*
X298425D02*
D03*
X296456D02*
D03*
X294488D02*
D03*
X292519D02*
D03*
X290551D02*
D03*
X288582D02*
D03*
X286614D02*
D03*
X284645D02*
D03*
X282677D02*
D03*
X280708D02*
D03*
X278740D02*
D03*
D49*
X223169Y30020D02*
D03*
X228169D02*
D03*
X233169D02*
D03*
X238169D02*
D03*
X243169D02*
D03*
D50*
X233169Y6594D02*
D03*
D51*
X218405Y6299D02*
D03*
X206791D02*
D03*
D52*
X150590Y8366D02*
D03*
Y29035D02*
D03*
D53*
X399409Y111221D02*
D03*
X403149D02*
D03*
X406889D02*
D03*
Y100394D02*
D03*
X399409D02*
D03*
X399606Y81791D02*
D03*
X403346D02*
D03*
X407086D02*
D03*
Y70965D02*
D03*
X399606D02*
D03*
D54*
X123819Y23524D02*
D03*
Y151476D02*
D03*
D55*
X180905Y122933D02*
D03*
Y111122D02*
D03*
Y99311D02*
D03*
Y87500D02*
D03*
Y75689D02*
D03*
Y63878D02*
D03*
Y52067D02*
D03*
X171063Y117028D02*
D03*
Y105217D02*
D03*
Y93405D02*
D03*
Y81595D02*
D03*
Y69784D02*
D03*
Y57972D02*
D03*
X159251Y117028D02*
D03*
Y105217D02*
D03*
Y93405D02*
D03*
Y81595D02*
D03*
Y69784D02*
D03*
Y57972D02*
D03*
X149409Y122933D02*
D03*
Y111122D02*
D03*
Y99311D02*
D03*
Y87500D02*
D03*
Y75689D02*
D03*
Y63878D02*
D03*
Y52067D02*
D03*
D56*
X185072Y23310D02*
D03*
Y27542D02*
D03*
X189665D02*
D03*
Y23310D02*
D03*
Y19077D02*
D03*
Y14845D02*
D03*
X185072D02*
D03*
X180479D02*
D03*
Y19077D02*
D03*
X185072D02*
D03*
X180479Y23310D02*
D03*
Y27542D02*
D03*
X200590Y6791D02*
D03*
X204822Y25689D02*
D03*
X269204Y98425D02*
D03*
X287124Y65008D02*
D03*
X279724Y62205D02*
D03*
X293846Y61024D02*
D03*
X236417Y21654D02*
D03*
X339945Y130315D02*
D03*
X247047Y68405D02*
D03*
X250787Y93799D02*
D03*
X283366Y94193D02*
D03*
X341929Y62992D02*
D03*
Y67854D02*
D03*
X335236Y62598D02*
D03*
X290354Y113779D02*
D03*
X297646Y61024D02*
D03*
X301446D02*
D03*
X309046D02*
D03*
X291929Y72834D02*
D03*
X269882Y70079D02*
D03*
X275393Y73622D02*
D03*
X305246Y61024D02*
D03*
X275393Y61811D02*
D03*
X434448Y81890D02*
D03*
X431693Y74016D02*
D03*
X378149Y106299D02*
D03*
X382874Y104911D02*
D03*
X392716Y64961D02*
D03*
X428937Y118898D02*
D03*
X413649Y98260D02*
D03*
Y70965D02*
D03*
X379724Y74016D02*
D03*
X380905Y82896D02*
D03*
X360595Y82677D02*
D03*
X361712Y145276D02*
D03*
Y132579D02*
D03*
X393897Y162106D02*
D03*
X374699Y113686D02*
D03*
X300196Y45276D02*
D03*
X296260Y34252D02*
D03*
X347834Y93701D02*
D03*
X351801Y98425D02*
D03*
X334055Y91339D02*
D03*
X341141Y104911D02*
D03*
X318701Y87795D02*
D03*
X341929Y58268D02*
D03*
X341141Y109843D02*
D03*
Y114567D02*
D03*
X321435Y71653D02*
D03*
X318700Y78740D02*
D03*
X286811Y45669D02*
D03*
X291141Y45945D02*
D03*
X304921Y45669D02*
D03*
X317913Y96457D02*
D03*
X252185Y140157D02*
D03*
X257283Y144882D02*
D03*
X312846Y61024D02*
D03*
X260028Y98808D02*
D03*
X306102Y162205D02*
D03*
X289960Y138976D02*
D03*
X280467Y141732D02*
D03*
X267126Y139764D02*
D03*
X262401Y142126D02*
D03*
X273425Y116535D02*
D03*
X192716Y96457D02*
D03*
X208464Y110236D02*
D03*
X234055Y110630D02*
D03*
X189960Y69291D02*
D03*
X192716Y90158D02*
D03*
X369094Y37402D02*
D03*
X268307Y50000D02*
D03*
X270994Y52687D02*
D03*
X276673Y30610D02*
D03*
X386023D02*
D03*
X324212Y20472D02*
D03*
X199803Y72441D02*
D03*
X193863Y72338D02*
D03*
X273681Y55374D02*
D03*
X185236Y152756D02*
D03*
X153740Y162205D02*
D03*
X253740Y5512D02*
D03*
X215157Y31496D02*
D03*
X395078Y4586D02*
D03*
X359645Y5354D02*
D03*
X357283Y22461D02*
D03*
X351378Y16535D02*
D03*
X274419Y7677D02*
D03*
X283358Y16535D02*
D03*
X230118Y21654D02*
D03*
D57*
X226574Y45871D02*
D03*
X204219Y50984D02*
D03*
X455708Y61516D02*
D03*
X225984Y58760D02*
D03*
X234759Y58472D02*
D03*
X220871Y19882D02*
D03*
X205421Y20374D02*
D03*
X212795Y36562D02*
D03*
X213971Y44287D02*
D03*
X246259Y10873D02*
D03*
X247265Y43801D02*
D03*
X360595Y47934D02*
D03*
X375337Y58857D02*
D03*
X395866Y53150D02*
D03*
X410826Y41732D02*
D03*
Y28265D02*
D03*
Y15748D02*
D03*
Y3543D02*
D03*
D58*
X367951Y143307D02*
D03*
X279626Y88500D02*
D03*
X406004Y164961D02*
D03*
X403615Y138583D02*
D03*
X312696Y144587D02*
D03*
X302854Y119705D02*
D03*
X457283Y84558D02*
D03*
X436614Y112697D02*
D03*
X278839Y107087D02*
D03*
X255276Y120276D02*
D03*
X263722Y157988D02*
D03*
X204527Y156890D02*
D03*
X347244Y83957D02*
D03*
X248130Y77843D02*
D03*
X255905Y76938D02*
D03*
X291936Y104357D02*
D03*
X383172Y144980D02*
D03*
X333366Y144645D02*
D03*
X416732Y81085D02*
D03*
X420669Y68997D02*
D03*
X249507Y134218D02*
D03*
X232874Y146653D02*
D03*
X275196Y98260D02*
D03*
X276574Y35236D02*
D03*
M02*
