M48
;Layer_Color=9474304
;FILE_FORMAT=2:5
INCH,TZ
;TYPE=PLATED
T1F00S00C0.01500
T2F00S00C0.05118
;TYPE=NON_PLATED
T3F00S00C0.03937
T4F00S00C0.12992
%
T01
X98819Y3543
Y15748
Y28265
X114370Y4528
X150000Y5354
X161221Y13484
X168405Y14665
X237598Y4429
X255906Y5512
X263386Y10873
X273228Y21654
X279528
X288774Y19882
X304224Y20374
X304823Y25689
X232972Y30610
X319980Y27542
Y23310
Y19077
Y14845
X324573
Y19077
Y23310
Y27542
X329167
Y23310
Y19077
Y14845
X309055Y6791
X309842Y72441
X315782Y72338
X319685Y69291
X316929Y90158
Y96457
X324410Y152756
X355906Y162205
X305118Y156890
X276772Y146653
X257461Y140157
X260138Y134218
X252362Y144882
X247244Y142126
X242902Y139381
X229178Y141732
X219685Y138976
X219291Y113779
X217709Y104357
X230806Y107087
X234449Y98260
X240441Y98425
X249618Y98808
X258858Y93799
X261516Y77843
X253150Y76968
X262598Y68405
X275098Y58760
X283661
X283846Y44284
X295674Y44287
X296850Y36562
X294488Y31496
X305426Y50984
X272638Y45079
X262381Y43801
X242138Y48034
X239527Y52037
Y55905
X234252Y61811
X229921Y62205
X222521Y65008
X215799Y61024
X211999
X208199
X204399
X200599
X196799
X191010Y66502
X188169Y72854
X190945Y78740
X190560Y88489
X191732Y96457
X175591Y91339
X161811Y93701
X157844Y98425
X168504Y104911
Y109843
Y114567
X169700Y130315
X176279Y144645
X196949Y144587
X212106Y162402
X245923Y157988
X253937Y120079
X236221Y116535
X226279Y94193
X229331Y88489
X234252Y73622
X239763Y70079
X217716Y72834
X218504Y45945
X222835Y45669
X209449Y45276
X204724Y45669
X233071Y35236
X167717Y58268
Y62992
Y67854
X162402Y83957
X206791Y119705
X275590Y110630
X301181Y110236
X135335Y117224
X131496Y106299
X126772Y104911
X128740Y82896
X129921Y74016
X130237Y68209
X122864Y64844
X134308Y58857
X149050Y47934
X140551Y37402
X113779Y53150
X98819Y41732
X96358Y74016
X92913Y81085
X88976Y68997
X77165Y73228
X75197Y81890
X52362Y84558
X53937Y61516
X96949Y95669
X87106Y116634
X77776Y117779
X106030Y138583
X103642Y164961
X115748Y162106
X130807Y144095
X141695Y143307
X147933Y145276
Y132579
X149902Y83465
T02
X328740Y52067
Y63878
Y75689
Y87500
Y99311
Y111122
Y122933
X338583Y117028
X350394
Y105217
X338583
Y93405
Y81595
X350394
Y93405
X360236Y99311
Y87500
Y75689
Y63878
Y52067
X350394Y57972
X338583
Y69784
X350394
X360236Y111122
Y122933
T03
X131890Y7854
Y22854
T04
X385827Y23524
Y151476
M30
