M48
;Layer_Color=9474304
;FILE_FORMAT=2:5
INCH,TZ
;TYPE=PLATED
T1F00S00C0.01500
T2F00S00C0.05118
;TYPE=NON_PLATED
T3F00S00C0.03937
T4F00S00C0.12992
%
T01
X98819Y3543
Y15748
Y28265
X123622Y30610
X114567Y4586
X150000Y5354
X158268Y16535
X152362Y22461
X185433Y20472
X226287Y16535
X235226Y7677
X255906Y5512
X263386Y10873
X273228Y21654
X279528
X288774Y19882
X304224Y20374
X304823Y25689
X232972Y30610
X319980Y27542
Y23310
Y19077
Y14845
X324573
Y19077
Y23310
Y27542
X329167
Y23310
Y19077
Y14845
X309055Y6791
X309842Y72441
X315782Y72338
X319685Y69291
X316929Y90158
Y96457
X324410Y152756
X355906Y162205
X305118Y156890
X276772Y146653
X257461Y140157
X260138Y134218
X252362Y144882
X247244Y142126
X242520Y139764
X229178Y141732
X219685Y138976
X219291Y113779
X217709Y104357
X230806Y107087
X234449Y98260
X240441Y98425
X249618Y98808
X258858Y93799
X261516Y77843
X253740Y76938
X262598Y68405
X274887Y58472
X283661Y58760
X283071Y45871
X295674Y44287
X296850Y36562
X294488Y31496
X305426Y50984
X262381Y43801
X241339Y50000
X238652Y52687
X235965Y55374
X234252Y61811
X229921Y62205
X222521Y65008
X215799Y61024
X211999
X208199
X204399
X200599
X196799
X188210Y71653
X190945Y78740
X190945Y87795
X191732Y96457
X175591Y91339
X161811Y93701
X157844Y98425
X168504Y104911
Y109843
Y114567
X169700Y130315
X176279Y144645
X196949Y144587
X203543Y162205
X206791Y119705
X236221Y116535
X254369Y120276
X275590Y110630
X301181Y110236
X226279Y94193
X230020Y88500
X234252Y73622
X239763Y70079
X217716Y72834
X218504Y45945
X222835Y45669
X209449Y45276
X204724Y45669
X213385Y34252
X233071Y35236
X174409Y62598
X167717Y62992
Y58268
Y67854
X162402Y83957
X245923Y157988
X147933Y145276
X141695Y143307
X126473Y144980
X106030Y138583
X103642Y164961
X115748Y162106
X147933Y132579
X134946Y113686
X131496Y106299
X126772Y104911
X128740Y82896
X129921Y74016
X134308Y58857
X116929Y64961
X113779Y53150
X98819Y41732
X95996Y70965
X88976Y68997
X92913Y81085
X75197Y81890
X77953Y74016
X52362Y84558
X53937Y61516
X73032Y112697
X80709Y118898
X95996Y98260
X149050Y82677
Y47934
X140551Y37402
T02
X328740Y52067
Y63878
Y75689
Y87500
Y99311
Y111122
Y122933
X338583Y117028
X350394
Y105217
X338583
Y93405
Y81595
X350394
Y93405
X360236Y99311
Y87500
Y75689
Y63878
Y52067
X350394Y57972
X338583
Y69784
X350394
X360236Y111122
Y122933
T03
X131890Y7854
Y22854
T04
X385827Y23524
Y151476
M30
