G04*
G04 #@! TF.GenerationSoftware,Altium Limited,Altium Designer,19.0.10 (269)*
G04*
G04 Layer_Color=32768*
%FSLAX25Y25*%
%MOIN*%
G70*
G01*
G75*
%ADD15C,0.01000*%
%ADD66C,0.00394*%
%ADD67C,0.00197*%
D15*
X204132Y47244D02*
X204130D01*
D66*
X339173Y97035D02*
X335433D01*
X337303Y95165D02*
Y98905D01*
X340255Y82677D02*
X336515D01*
X338385Y80807D02*
Y84547D01*
X428937Y103937D02*
Y107874D01*
X430905Y105905D02*
X426968D01*
X338385Y110236D02*
Y114173D01*
X340354Y112205D02*
X336417D01*
X413877Y105118D02*
X410137D01*
X412007Y103248D02*
Y106988D01*
X397834Y92126D02*
Y96063D01*
X399803Y94095D02*
X395866D01*
X448228Y100694D02*
Y104631D01*
X450196Y102662D02*
X446259D01*
X450098Y114473D02*
X446358D01*
X448228Y112603D02*
Y116343D01*
X450098Y91639D02*
X446358D01*
X448228Y89769D02*
Y93509D01*
X436811Y67716D02*
Y71653D01*
X438779Y69685D02*
X434842D01*
X415519Y64567D02*
X411779D01*
X413649Y62697D02*
Y66437D01*
X338385Y63386D02*
Y67323D01*
X340354Y65354D02*
X336417D01*
X462400Y175002D02*
X415156D01*
X462401Y175000D02*
X462400Y175002D01*
X462401Y47243D02*
Y175000D01*
X379626Y153543D02*
X375885D01*
X377755Y151673D02*
Y155413D01*
X379626Y129921D02*
X375885D01*
X377755Y128051D02*
Y131791D01*
X389468Y159449D02*
X385728D01*
X387598Y157579D02*
Y161319D01*
X389468Y135827D02*
X385728D01*
X387598Y133957D02*
Y137697D01*
X389566Y151673D02*
Y155413D01*
X391437Y153543D02*
X387696D01*
X394291Y125295D02*
Y129035D01*
X396161Y127165D02*
X392421D01*
X358070Y151673D02*
Y155413D01*
X359941Y153543D02*
X356200D01*
X327755Y151673D02*
Y155413D01*
X329626Y153543D02*
X325885D01*
X379724Y157579D02*
Y161319D01*
X381594Y159449D02*
X377854D01*
X384448Y131201D02*
Y134941D01*
X386318Y133071D02*
X382578D01*
X348228Y157579D02*
Y161319D01*
X350098Y159449D02*
X346358D01*
X317913Y157579D02*
Y161319D01*
X319783Y159449D02*
X316043D01*
X369783Y153543D02*
X366043D01*
X367913Y151673D02*
Y155413D01*
X369783Y129921D02*
X366043D01*
X367913Y128051D02*
Y131791D01*
X399409Y151673D02*
Y155413D01*
X401279Y153543D02*
X397539D01*
X404133Y125295D02*
Y129035D01*
X406004Y127165D02*
X402263D01*
X367913Y151673D02*
Y155413D01*
X369783Y153543D02*
X366043D01*
X337598Y151673D02*
Y155413D01*
X339468Y153543D02*
X335728D01*
X318307Y97039D02*
Y100976D01*
X320275Y99008D02*
X316338D01*
X395767Y109182D02*
X392027D01*
X393897Y107312D02*
Y111052D01*
X134842Y45768D02*
Y49508D01*
X136712Y47638D02*
X132972D01*
X203740Y45669D02*
X199999D01*
X201870Y43799D02*
Y47539D01*
X273818Y120866D02*
X269881D01*
X271850Y118898D02*
Y122835D01*
X273818Y77121D02*
X269881D01*
X271850Y75153D02*
Y79090D01*
X271850Y91240D02*
Y94980D01*
X273720Y93110D02*
X269980D01*
X271850Y102461D02*
Y106201D01*
X273720Y104331D02*
X269980D01*
X231299Y96850D02*
X227362D01*
X229330Y94882D02*
Y98819D01*
X220275Y80807D02*
Y84547D01*
X222145Y82677D02*
X218405D01*
X212401Y96850D02*
X208464D01*
X210433Y94882D02*
Y98819D01*
X200196Y88583D02*
X196456D01*
X198326Y86713D02*
Y90453D01*
X200196Y105020D02*
X196456D01*
X198326Y103150D02*
Y106890D01*
X231299Y122441D02*
X227362D01*
X229330Y120473D02*
Y124409D01*
X200098Y121653D02*
X196358D01*
X198228Y119783D02*
Y123524D01*
X212401Y122441D02*
X208464D01*
X210433Y120473D02*
Y124409D01*
X356496Y53121D02*
Y56861D01*
X358366Y54991D02*
X354626D01*
X372637Y46457D02*
Y50394D01*
X374606Y48425D02*
X370669D01*
X379724Y15354D02*
X375787D01*
X377755Y13386D02*
Y17323D01*
X177362Y139469D02*
Y143209D01*
X179232Y141339D02*
X175492D01*
X177362Y155217D02*
Y158957D01*
X179232Y157087D02*
X175492D01*
X177362Y147343D02*
Y151083D01*
X179232Y149213D02*
X175492D01*
X193799Y134744D02*
Y138484D01*
X195669Y136614D02*
X191929D01*
X193733Y150886D02*
Y154626D01*
X195603Y152756D02*
X191863D01*
X193733Y142618D02*
Y146358D01*
X195603Y144488D02*
X191863D01*
X161614Y160335D02*
Y164075D01*
X163484Y162205D02*
X159744D01*
X161614Y144193D02*
Y147933D01*
X163484Y146063D02*
X159744D01*
X161614Y152067D02*
Y155807D01*
X163484Y153937D02*
X159744D01*
X224311Y143405D02*
Y147146D01*
X226181Y145276D02*
X222441D01*
X240354Y140945D02*
X236614D01*
X238484Y139075D02*
Y142815D01*
X212401Y141339D02*
X208661D01*
X210531Y139469D02*
Y143209D01*
X224311Y135138D02*
Y138878D01*
X226181Y137008D02*
X222441D01*
X224311Y74803D02*
Y78543D01*
X226181Y76673D02*
X222441D01*
X240354Y72342D02*
X236614D01*
X238484Y70472D02*
Y74213D01*
X212401Y72736D02*
X208661D01*
X210531Y70866D02*
Y74606D01*
X224311Y66535D02*
Y70276D01*
X226181Y68405D02*
X222441D01*
X224212Y120571D02*
Y124311D01*
X226082Y122441D02*
X222342D01*
X240255Y118110D02*
X236515D01*
X238385Y116240D02*
Y119980D01*
X212303Y118504D02*
X208563D01*
X210433Y116634D02*
Y120374D01*
X224212Y112303D02*
Y116043D01*
X226082Y114173D02*
X222342D01*
X271850Y85827D02*
Y89567D01*
X273720Y87697D02*
X269980D01*
X287893Y83366D02*
X284153D01*
X286023Y81496D02*
Y85236D01*
X259941Y83760D02*
X256200D01*
X258070Y81890D02*
Y85630D01*
X271850Y77559D02*
Y81299D01*
X273720Y79429D02*
X269980D01*
X271850Y155020D02*
Y158760D01*
X273720Y156890D02*
X269980D01*
X287893Y152559D02*
X284153D01*
X286023Y150689D02*
Y154429D01*
X259941Y152953D02*
X256200D01*
X258070Y151083D02*
Y154823D01*
X271850Y146752D02*
Y150492D01*
X273720Y148622D02*
X269980D01*
X271850Y132087D02*
Y135827D01*
X273720Y133957D02*
X269980D01*
X287893Y129626D02*
X284153D01*
X286023Y127756D02*
Y131496D01*
X259941Y130020D02*
X256200D01*
X258070Y128150D02*
Y131890D01*
X271850Y123819D02*
Y127559D01*
X273720Y125689D02*
X269980D01*
X224311Y97736D02*
Y101476D01*
X226181Y99606D02*
X222441D01*
X240354Y95276D02*
X236614D01*
X238484Y93405D02*
Y97146D01*
X212401Y95669D02*
X208661D01*
X210531Y93799D02*
Y97539D01*
X224311Y89468D02*
Y93209D01*
X226181Y91339D02*
X222441D01*
X145374Y164665D02*
Y168405D01*
X147244Y166535D02*
X143503D01*
X145374Y148917D02*
Y152657D01*
X147244Y150787D02*
X143503D01*
X145374Y156791D02*
Y160531D01*
X147244Y158661D02*
X143503D01*
X287893Y106890D02*
X284153D01*
X286023Y105020D02*
Y108760D01*
X271850Y109350D02*
Y113091D01*
X273720Y111221D02*
X269980D01*
X271850Y101083D02*
Y104823D01*
X273720Y102953D02*
X269980D01*
X259941Y107283D02*
X256200D01*
X258070Y105413D02*
Y109153D01*
X255610Y14173D02*
X251870D01*
X253740Y12303D02*
Y16043D01*
X247834Y56398D02*
Y60138D01*
X249704Y58268D02*
X245964D01*
X144291Y37106D02*
Y40846D01*
X146161Y38976D02*
X142421D01*
X146161Y9449D02*
X142421D01*
X144291Y7579D02*
Y11319D01*
X146161Y18898D02*
X142421D01*
X144291Y17028D02*
Y20768D01*
X146161Y28346D02*
X142421D01*
X144291Y26476D02*
Y30217D01*
X192224Y37795D02*
X188484D01*
X190354Y35925D02*
Y39665D01*
X165944Y22441D02*
Y26378D01*
X167913Y24409D02*
X163976D01*
X237106Y38583D02*
X233366D01*
X235236Y36713D02*
Y40453D01*
X224114Y72441D02*
X220374D01*
X222244Y70571D02*
Y74311D01*
X211220Y62402D02*
Y66142D01*
X213090Y64272D02*
X209350D01*
X211220Y50590D02*
Y54331D01*
X213090Y52461D02*
X209350D01*
X207185Y40157D02*
X203444D01*
X205314Y38287D02*
Y42028D01*
X401673Y25591D02*
X397933D01*
X399803Y23720D02*
Y27461D01*
X380019Y31102D02*
X376279D01*
X378149Y29232D02*
Y32972D01*
X395078Y10746D02*
Y14486D01*
X396948Y12616D02*
X393208D01*
X345374Y23071D02*
X341633D01*
X343503Y21201D02*
Y24941D01*
X332480Y17815D02*
Y21555D01*
X334350Y19685D02*
X330610D01*
X345472Y37008D02*
X341535D01*
X343503Y35039D02*
Y38976D01*
X332086Y33957D02*
Y37697D01*
X333956Y35827D02*
X330216D01*
X399409Y40650D02*
Y44390D01*
X401279Y42520D02*
X397539D01*
X295472Y30315D02*
X291535D01*
X293503Y28346D02*
Y32283D01*
X324212Y28051D02*
Y31791D01*
X326082Y29921D02*
X322342D01*
X282086Y31398D02*
Y35138D01*
X283956Y33268D02*
X280216D01*
X263189Y30118D02*
Y33858D01*
X265059Y31988D02*
X261318D01*
X215157Y18602D02*
Y22343D01*
X217027Y20472D02*
X213287D01*
X235137Y9449D02*
X231397D01*
X233267Y7579D02*
Y11319D01*
X235137Y15748D02*
X231397D01*
X233267Y13878D02*
Y17618D01*
X233169Y16339D02*
Y20276D01*
X235137Y18307D02*
X231200D01*
X193503Y6299D02*
X189763D01*
X191633Y4429D02*
Y8169D01*
X212598Y4331D02*
Y8268D01*
X214566Y6299D02*
X210630D01*
X131102Y4724D02*
X127362D01*
X129232Y2854D02*
Y6594D01*
X152559Y18701D02*
X148622D01*
X150590Y16732D02*
Y20669D01*
X415157Y175000D02*
X109642D01*
X462400Y0D02*
X109642D01*
X462401Y47243D02*
X462400Y47241D01*
Y0D02*
Y47241D01*
X109642Y0D02*
Y175000D01*
X109644Y127757D02*
X109642Y127756D01*
X156888Y175002D02*
X156886Y175000D01*
X415157D02*
X415156Y175002D01*
X378543Y104331D02*
Y108268D01*
X380511Y106299D02*
X376574D01*
X403149Y103839D02*
Y107776D01*
X405118Y105807D02*
X401181D01*
X378149Y75197D02*
Y79134D01*
X380118Y77165D02*
X376181D01*
X403346Y74410D02*
Y78347D01*
X405314Y76378D02*
X401377D01*
X228937Y56299D02*
Y60236D01*
X230905Y58268D02*
X226968D01*
X433267Y87795D02*
X429330D01*
X431299Y85827D02*
Y89764D01*
X222441Y135039D02*
X218700D01*
X220570Y133169D02*
Y136909D01*
X243253Y95079D02*
Y98819D01*
X245124Y96949D02*
X241383D01*
D67*
X342618Y94082D02*
Y99988D01*
X331988Y94082D02*
Y99988D01*
X342618Y94082D02*
X331988D01*
X342618Y99988D02*
X331988D01*
X343700Y79724D02*
Y85630D01*
X333070Y79724D02*
Y85630D01*
X343700Y79724D02*
X333070D01*
X343700Y85630D02*
X333070D01*
X436515Y99016D02*
X421358D01*
X436515Y112795D02*
X421358D01*
X436515Y99016D02*
Y112795D01*
X421358Y99016D02*
Y112795D01*
X352952Y101378D02*
X323818D01*
X352952Y123031D02*
X323818D01*
X352952Y101378D02*
Y123031D01*
X323818Y101378D02*
Y123031D01*
X406693Y102165D02*
Y108071D01*
X417322Y102165D02*
Y108071D01*
X406693D01*
X417322Y102165D02*
X406693D01*
X405413Y87205D02*
X390255D01*
X405413Y100984D02*
X390255D01*
X405413Y87205D02*
Y100984D01*
X390255Y87205D02*
Y100984D01*
X457480Y98135D02*
X438976D01*
X457480Y107190D02*
X438976D01*
X457480Y98135D02*
Y107190D01*
X438976Y98135D02*
Y107190D01*
X453543Y111521D02*
Y117426D01*
X442913Y111521D02*
Y117426D01*
X453543Y111521D02*
X442913D01*
X453543Y117426D02*
X442913D01*
Y88686D02*
Y94591D01*
X453543Y88686D02*
Y94591D01*
X442913D01*
X453543Y88686D02*
X442913D01*
X451377Y58858D02*
X422244D01*
X451377Y80512D02*
X422244D01*
X451377Y58858D02*
Y80512D01*
X422244Y58858D02*
Y80512D01*
X418964Y61614D02*
Y67520D01*
X408334Y61614D02*
Y67520D01*
X418964Y61614D02*
X408334D01*
X418964Y67520D02*
X408334D01*
X352952Y54528D02*
X323818D01*
X352952Y76181D02*
X323818D01*
X352952Y54528D02*
Y76181D01*
X323818Y54528D02*
Y76181D01*
X380708Y148228D02*
Y158858D01*
X374803Y148228D02*
Y158858D01*
X380708Y148228D02*
X374803D01*
X380708Y158858D02*
X374803D01*
X380708Y124606D02*
Y135236D01*
X374803Y124606D02*
Y135236D01*
X380708Y124606D02*
X374803D01*
X380708Y135236D02*
X374803D01*
X390551Y154134D02*
Y164764D01*
X384645Y154134D02*
Y164764D01*
X390551Y154134D02*
X384645D01*
X390551Y164764D02*
X384645D01*
X390551Y130512D02*
Y141142D01*
X384645Y130512D02*
Y141142D01*
X390551Y130512D02*
X384645D01*
X390551Y141142D02*
X384645D01*
X392519Y158858D02*
X386614D01*
X392519Y148228D02*
X386614D01*
X392519D02*
Y158858D01*
X386614Y148228D02*
Y158858D01*
X397244Y132480D02*
X391338D01*
X397244Y121850D02*
X391338D01*
X397244D02*
Y132480D01*
X391338Y121850D02*
Y132480D01*
X361023Y158858D02*
X355118D01*
X361023Y148228D02*
X355118D01*
X361023D02*
Y158858D01*
X355118Y148228D02*
Y158858D01*
X330708Y158858D02*
X324803D01*
X330708Y148228D02*
X324803D01*
X330708D02*
Y158858D01*
X324803Y148228D02*
Y158858D01*
X382677Y164764D02*
X376771D01*
X382677Y154134D02*
X376771D01*
X382677D02*
Y164764D01*
X376771Y154134D02*
Y164764D01*
X387401Y138386D02*
X381496D01*
X387401Y127756D02*
X381496D01*
X387401D02*
Y138386D01*
X381496Y127756D02*
Y138386D01*
X351181Y164764D02*
X345275D01*
X351181Y154134D02*
X345275D01*
X351181D02*
Y164764D01*
X345275Y154134D02*
Y164764D01*
X320866Y164764D02*
X314960D01*
X320866Y154134D02*
X314960D01*
X320866D02*
Y164764D01*
X314960Y154134D02*
Y164764D01*
X364960Y148228D02*
Y158858D01*
X370866Y148228D02*
Y158858D01*
X364960D01*
X370866Y148228D02*
X364960D01*
Y124606D02*
Y135236D01*
X370866Y124606D02*
Y135236D01*
X364960D01*
X370866Y124606D02*
X364960D01*
X402362Y148228D02*
X396456D01*
X402362Y158858D02*
X396456D01*
Y148228D02*
Y158858D01*
X402362Y148228D02*
Y158858D01*
X407086Y121850D02*
X401181D01*
X407086Y132480D02*
X401181D01*
Y121850D02*
Y132480D01*
X407086Y121850D02*
Y132480D01*
X370866Y148228D02*
X364960D01*
X370866Y158858D02*
X364960D01*
Y148228D02*
Y158858D01*
X370866Y148228D02*
Y158858D01*
X340551Y148228D02*
X334645D01*
X340551Y158858D02*
X334645D01*
Y148228D02*
Y158858D01*
X340551Y148228D02*
Y158858D01*
X332874Y80701D02*
X303740D01*
X332874Y117315D02*
X303740D01*
Y80701D02*
Y117315D01*
X332874Y80701D02*
Y117315D01*
X390944Y103867D02*
Y114497D01*
X396850Y103867D02*
Y114497D01*
Y103867D02*
X390944D01*
X396850Y114497D02*
X390944D01*
X140157Y50591D02*
X129527D01*
X140157Y44685D02*
X129527D01*
Y50591D01*
X140157Y44685D02*
Y50591D01*
X207185Y42717D02*
Y48622D01*
X196555Y42717D02*
Y48622D01*
X207185Y42717D02*
X196555D01*
X207185Y48622D02*
X196555D01*
X257283Y110039D02*
Y131693D01*
X286417Y110039D02*
Y131693D01*
Y110039D02*
X257283D01*
X286417Y131693D02*
X257283D01*
X257283Y66294D02*
Y87948D01*
X286417Y66294D02*
Y87948D01*
Y66294D02*
X257283D01*
X286417Y87948D02*
X257283D01*
X277165Y90158D02*
X266535D01*
X277165Y96063D02*
X266535D01*
Y90158D02*
Y96063D01*
X277165Y90158D02*
Y96063D01*
Y101378D02*
X266535D01*
X277165Y107283D02*
X266535D01*
Y101378D02*
Y107283D01*
X277165Y101378D02*
Y107283D01*
X236909Y89961D02*
Y103740D01*
X221751Y89961D02*
Y103740D01*
X236909D02*
X221751D01*
X236909Y89961D02*
X221751D01*
X225590Y79724D02*
X214960D01*
X225590Y85630D02*
X214960D01*
Y79724D02*
Y85630D01*
X225590Y79724D02*
Y85630D01*
X218011Y89961D02*
Y103740D01*
X202854Y89961D02*
Y103740D01*
X218011D02*
X202854D01*
X218011Y89961D02*
X202854D01*
X195374Y83268D02*
Y93898D01*
X201279Y83268D02*
Y93898D01*
X195374D01*
X201279Y83268D02*
X195374D01*
Y99705D02*
Y110335D01*
X201279Y99705D02*
Y110335D01*
X195374D01*
X201279Y99705D02*
X195374D01*
X236909Y115551D02*
Y129331D01*
X221751Y115551D02*
Y129331D01*
X236909D02*
X221751D01*
X236909Y115551D02*
X221751D01*
X201181Y116339D02*
Y126969D01*
X195275Y116339D02*
Y126969D01*
X201181Y116339D02*
X195275D01*
X201181Y126969D02*
X195275D01*
X218011Y115551D02*
Y129331D01*
X202854Y115551D02*
Y129331D01*
X218011D02*
X202854D01*
X218011Y115551D02*
X202854D01*
X361811Y57944D02*
X351181D01*
X361811Y52039D02*
X351181D01*
X361811D02*
Y57944D01*
X351181Y52039D02*
Y57944D01*
X379527Y56004D02*
X365748D01*
X379527Y40846D02*
X365748D01*
Y56004D01*
X379527Y40846D02*
Y56004D01*
X364960Y2461D02*
Y28248D01*
X390551Y2461D02*
X364960D01*
X390551D02*
Y28248D01*
X364960D01*
X182677Y138386D02*
X172047D01*
X182677Y144291D02*
X172047D01*
X182677Y138386D02*
Y144291D01*
X172047Y138386D02*
Y144291D01*
X182677Y154134D02*
X172047D01*
X182677Y160039D02*
X172047D01*
X182677Y154134D02*
Y160039D01*
X172047Y154134D02*
Y160039D01*
X182677Y146260D02*
X172047D01*
X182677Y152165D02*
X172047D01*
X182677Y146260D02*
Y152165D01*
X172047Y146260D02*
Y152165D01*
X199114Y133661D02*
X188484D01*
X199114Y139567D02*
X188484D01*
X199114Y133661D02*
Y139567D01*
X188484Y133661D02*
Y139567D01*
X199048Y155709D02*
X188418D01*
X199048Y149803D02*
X188418D01*
Y155709D01*
X199048Y149803D02*
Y155709D01*
Y141535D02*
X188418D01*
X199048Y147441D02*
X188418D01*
X199048Y141535D02*
Y147441D01*
X188418Y141535D02*
Y147441D01*
X166929Y165157D02*
X156299D01*
X166929Y159252D02*
X156299D01*
Y165157D01*
X166929Y159252D02*
Y165157D01*
Y143110D02*
X156299D01*
X166929Y149016D02*
X156299D01*
X166929Y143110D02*
Y149016D01*
X156299Y143110D02*
Y149016D01*
X166929Y150984D02*
X156299D01*
X166929Y156890D02*
X156299D01*
X166929Y150984D02*
Y156890D01*
X156299Y150984D02*
Y156890D01*
X229626Y148228D02*
X218996D01*
X229626Y142323D02*
X218996D01*
Y148228D01*
X229626Y142323D02*
Y148228D01*
X235531Y135630D02*
Y146260D01*
X241437Y135630D02*
Y146260D01*
Y135630D02*
X235531D01*
X241437Y146260D02*
X235531D01*
X207578Y136024D02*
Y146653D01*
X213484Y136024D02*
Y146653D01*
Y136024D02*
X207578D01*
X213484Y146653D02*
X207578D01*
X229626Y134055D02*
X218996D01*
X229626Y139961D02*
X218996D01*
X229626Y134055D02*
Y139961D01*
X218996Y134055D02*
Y139961D01*
X229626Y79626D02*
X218996D01*
X229626Y73721D02*
X218996D01*
Y79626D01*
X229626Y73721D02*
Y79626D01*
X235531Y67028D02*
Y77658D01*
X241437Y67028D02*
Y77658D01*
Y67028D02*
X235531D01*
X241437Y77658D02*
X235531D01*
X207578Y67421D02*
Y78051D01*
X213484Y67421D02*
Y78051D01*
Y67421D02*
X207578D01*
X213484Y78051D02*
X207578D01*
X229626Y65453D02*
X218996D01*
X229626Y71358D02*
X218996D01*
X229626Y65453D02*
Y71358D01*
X218996Y65453D02*
Y71358D01*
X229527Y125394D02*
X218897D01*
X229527Y119488D02*
X218897D01*
Y125394D01*
X229527Y119488D02*
Y125394D01*
X235433Y112795D02*
Y123425D01*
X241338Y112795D02*
Y123425D01*
Y112795D02*
X235433D01*
X241338Y123425D02*
X235433D01*
X207480Y113189D02*
Y123819D01*
X213385Y113189D02*
Y123819D01*
Y113189D02*
X207480D01*
X213385Y123819D02*
X207480D01*
X229527Y111221D02*
X218897D01*
X229527Y117126D02*
X218897D01*
X229527Y111221D02*
Y117126D01*
X218897Y111221D02*
Y117126D01*
X277165Y90650D02*
X266535D01*
X277165Y84744D02*
X266535D01*
Y90650D01*
X277165Y84744D02*
Y90650D01*
X283070Y78051D02*
Y88681D01*
X288976Y78051D02*
Y88681D01*
Y78051D02*
X283070D01*
X288976Y88681D02*
X283070D01*
X255118Y78445D02*
Y89075D01*
X261023Y78445D02*
Y89075D01*
Y78445D02*
X255118D01*
X261023Y89075D02*
X255118D01*
X277165Y76476D02*
X266535D01*
X277165Y82382D02*
X266535D01*
X277165Y76476D02*
Y82382D01*
X266535Y76476D02*
Y82382D01*
X277165Y159843D02*
X266535D01*
X277165Y153937D02*
X266535D01*
Y159843D01*
X277165Y153937D02*
Y159843D01*
X283070Y147244D02*
Y157874D01*
X288976Y147244D02*
Y157874D01*
Y147244D02*
X283070D01*
X288976Y157874D02*
X283070D01*
X255118Y147638D02*
Y158268D01*
X261023Y147638D02*
Y158268D01*
Y147638D02*
X255118D01*
X261023Y158268D02*
X255118D01*
X277165Y145669D02*
X266535D01*
X277165Y151575D02*
X266535D01*
X277165Y145669D02*
Y151575D01*
X266535Y145669D02*
Y151575D01*
X277165Y136909D02*
X266535D01*
X277165Y131004D02*
X266535D01*
Y136909D01*
X277165Y131004D02*
Y136909D01*
X283070Y124311D02*
Y134941D01*
X288976Y124311D02*
Y134941D01*
Y124311D02*
X283070D01*
X288976Y134941D02*
X283070D01*
X255118Y124705D02*
Y135335D01*
X261023Y124705D02*
Y135335D01*
Y124705D02*
X255118D01*
X261023Y135335D02*
X255118D01*
X277165Y122736D02*
X266535D01*
X277165Y128642D02*
X266535D01*
X277165Y122736D02*
Y128642D01*
X266535Y122736D02*
Y128642D01*
X229626Y102559D02*
X218996D01*
X229626Y96653D02*
X218996D01*
Y102559D01*
X229626Y96653D02*
Y102559D01*
X235531Y89961D02*
Y100591D01*
X241437Y89961D02*
Y100591D01*
Y89961D02*
X235531D01*
X241437Y100591D02*
X235531D01*
X207578Y90354D02*
Y100984D01*
X213484Y90354D02*
Y100984D01*
Y90354D02*
X207578D01*
X213484Y100984D02*
X207578D01*
X229626Y88386D02*
X218996D01*
X229626Y94291D02*
X218996D01*
X229626Y88386D02*
Y94291D01*
X218996Y88386D02*
Y94291D01*
X150689Y163583D02*
X140059D01*
X150689Y169488D02*
X140059D01*
X150689Y163583D02*
Y169488D01*
X140059Y163583D02*
Y169488D01*
X150689Y147835D02*
X140059D01*
X150689Y153740D02*
X140059D01*
X150689Y147835D02*
Y153740D01*
X140059Y147835D02*
Y153740D01*
X150689Y155709D02*
X140059D01*
X150689Y161614D02*
X140059D01*
X150689Y155709D02*
Y161614D01*
X140059Y155709D02*
Y161614D01*
X283070Y101575D02*
Y112205D01*
X288976Y101575D02*
Y112205D01*
Y101575D02*
X283070D01*
X288976Y112205D02*
X283070D01*
X277165Y114173D02*
X266535D01*
X277165Y108268D02*
X266535D01*
Y114173D01*
X277165Y108268D02*
Y114173D01*
Y100000D02*
X266535D01*
X277165Y105905D02*
X266535D01*
X277165Y100000D02*
Y105905D01*
X266535Y100000D02*
Y105905D01*
X255118Y101969D02*
Y112598D01*
X261023Y101969D02*
Y112598D01*
Y101969D02*
X255118D01*
X261023Y112598D02*
X255118D01*
X250787Y8858D02*
Y19488D01*
X256693Y8858D02*
Y19488D01*
X250787D01*
X256693Y8858D02*
X250787D01*
X250787Y63583D02*
X244881D01*
X250787Y52953D02*
X244881D01*
Y63583D01*
X250787Y52953D02*
Y63583D01*
X149606Y36024D02*
X138976D01*
X149606Y41929D02*
X138976D01*
X149606Y36024D02*
Y41929D01*
X138976Y36024D02*
Y41929D01*
X149606Y6496D02*
Y12402D01*
X138976Y6496D02*
Y12402D01*
X149606Y6496D02*
X138976D01*
X149606Y12402D02*
X138976D01*
X149606Y15945D02*
Y21850D01*
X138976Y15945D02*
Y21850D01*
X149606Y15945D02*
X138976D01*
X149606Y21850D02*
X138976D01*
X149606Y25394D02*
Y31299D01*
X138976Y25394D02*
Y31299D01*
X149606Y25394D02*
X138976D01*
X149606Y31299D02*
X138976D01*
X195669Y34843D02*
Y40748D01*
X185039Y34843D02*
Y40748D01*
X195669Y34843D02*
X185039D01*
X195669Y40748D02*
X185039D01*
X179921Y41142D02*
X151968D01*
X179921Y7677D02*
X151968D01*
X179921D02*
Y41142D01*
X151968Y7677D02*
Y41142D01*
X229921Y35630D02*
Y41535D01*
X240551Y35630D02*
Y41535D01*
Y35630D02*
X229921D01*
X240551Y41535D02*
X229921D01*
X216929Y69488D02*
Y75394D01*
X227559Y69488D02*
Y75394D01*
Y69488D02*
X216929D01*
X227559Y75394D02*
X216929D01*
X214173Y69587D02*
X208267D01*
X214173Y58957D02*
X208267D01*
Y69587D01*
X214173Y58957D02*
Y69587D01*
Y57776D02*
X208267D01*
X214173Y47146D02*
X208267D01*
Y57776D01*
X214173Y47146D02*
Y57776D01*
X210630Y37205D02*
Y43110D01*
X199999Y37205D02*
Y43110D01*
X210630D02*
X199999D01*
X210630Y37205D02*
X199999D01*
X405118Y22638D02*
Y28543D01*
X394488Y22638D02*
Y28543D01*
X405118D02*
X394488D01*
X405118Y22638D02*
X394488D01*
X372834Y28150D02*
Y34055D01*
X383464Y28150D02*
Y34055D01*
Y28150D02*
X372834D01*
X383464Y34055D02*
X372834D01*
X398031Y7301D02*
X392126D01*
X398031Y17931D02*
X392126D01*
X398031Y7301D02*
Y17931D01*
X392126Y7301D02*
Y17931D01*
X348818Y20118D02*
Y26024D01*
X338189Y20118D02*
Y26024D01*
X348818D02*
X338189D01*
X348818Y20118D02*
X338189D01*
X335433Y14370D02*
X329527D01*
X335433Y25000D02*
X329527D01*
X335433Y14370D02*
Y25000D01*
X329527Y14370D02*
Y25000D01*
X336614Y29429D02*
Y44587D01*
X350393Y29429D02*
Y44587D01*
X336614D01*
X350393Y29429D02*
X336614D01*
X335039Y30512D02*
X329133D01*
X335039Y41142D02*
X329133D01*
X335039Y30512D02*
Y41142D01*
X329133Y30512D02*
Y41142D01*
X402362Y47835D02*
X396456D01*
X402362Y37205D02*
X396456D01*
Y47835D01*
X402362Y37205D02*
Y47835D01*
X267322Y4134D02*
Y56496D01*
X319685Y4134D02*
Y56496D01*
Y4134D02*
X267322D01*
X319685Y56496D02*
X267322D01*
X327165Y35236D02*
X321259D01*
X327165Y24606D02*
X321259D01*
Y35236D01*
X327165Y24606D02*
Y35236D01*
X285039Y38583D02*
X279133D01*
X285039Y27953D02*
X279133D01*
X285039D02*
Y38583D01*
X279133Y27953D02*
Y38583D01*
X266141Y37303D02*
X260236D01*
X266141Y26673D02*
X260236D01*
Y37303D01*
X266141Y26673D02*
Y37303D01*
X218110Y15157D02*
X212204D01*
X218110Y25787D02*
X212204D01*
X218110Y15157D02*
Y25787D01*
X212204Y15157D02*
Y25787D01*
X238582Y6496D02*
Y12402D01*
X227952Y6496D02*
Y12402D01*
X238582Y6496D02*
X227952D01*
X238582Y12402D02*
X227952D01*
X238582Y12795D02*
Y18701D01*
X227952Y12795D02*
Y18701D01*
X238582Y12795D02*
X227952D01*
X238582Y18701D02*
X227952D01*
X247145Y35039D02*
X219193D01*
X247145Y1575D02*
X219193D01*
Y35039D01*
X247145Y1575D02*
Y35039D01*
X186319Y3347D02*
Y9252D01*
X196948Y3347D02*
Y9252D01*
Y3347D02*
X186319D01*
X196948Y9252D02*
X186319D01*
X221850Y10827D02*
X203346D01*
X221850Y1772D02*
X203346D01*
X221850D02*
Y10827D01*
X203346Y1772D02*
Y10827D01*
X123917Y1772D02*
Y7677D01*
X134547Y1772D02*
Y7677D01*
Y1772D02*
X123917D01*
X134547Y7677D02*
X123917D01*
X162401Y591D02*
Y36811D01*
X138779Y591D02*
Y36811D01*
X162401Y591D02*
X138779D01*
X162401Y36811D02*
X138779D01*
X393110Y117126D02*
X363976D01*
X393110Y95472D02*
X363976D01*
X393110D02*
Y117126D01*
X363976Y95472D02*
Y117126D01*
X410236Y114075D02*
X396062D01*
X410236Y97539D02*
X396062D01*
Y114075D01*
X410236Y97539D02*
Y114075D01*
X392716Y87992D02*
X363582D01*
X392716Y66339D02*
X363582D01*
X392716D02*
Y87992D01*
X363582Y66339D02*
Y87992D01*
X410433Y84646D02*
X396259D01*
X410433Y68110D02*
X396259D01*
Y84646D01*
X410433Y68110D02*
Y84646D01*
X243503Y47441D02*
X214370D01*
X243503Y69095D02*
X214370D01*
Y47441D02*
Y69095D01*
X243503Y47441D02*
Y69095D01*
X445866Y69488D02*
Y106102D01*
X416732Y69488D02*
Y106102D01*
X445866D02*
X416732D01*
X445866Y69488D02*
X416732D01*
X225885Y132087D02*
Y137992D01*
X215255Y132087D02*
Y137992D01*
X225885D02*
X215255D01*
X225885Y132087D02*
X215255D01*
X246206Y91634D02*
X240301D01*
X246206Y102264D02*
X240301D01*
X246206Y91634D02*
Y102264D01*
X240301Y91634D02*
Y102264D01*
M02*
