G04*
G04 #@! TF.GenerationSoftware,Altium Limited,Altium Designer,19.1.8 (144)*
G04*
G04 Layer_Color=8421504*
%FSLAX25Y25*%
%MOIN*%
G70*
G01*
G75*
%ADD16R,0.05315X0.05709*%
%ADD17R,0.05118X0.04331*%
%ADD18R,0.03937X0.03543*%
%ADD19R,0.03740X0.03347*%
%ADD20R,0.11811X0.03937*%
%ADD21R,0.25197X0.21850*%
%ADD22R,0.03500X0.01654*%
%ADD23O,0.05709X0.02362*%
%ADD24R,0.03543X0.03937*%
%ADD25R,0.03543X0.03150*%
%ADD26R,0.03150X0.03543*%
%ADD27R,0.09449X0.02992*%
%ADD28R,0.08071X0.04528*%
%ADD29R,0.04528X0.08071*%
%ADD30R,0.05315X0.01181*%
%ADD31R,0.01181X0.05315*%
%ADD32R,0.02362X0.08268*%
%ADD33R,0.12598X0.08268*%
%ADD34R,0.21457X0.13780*%
%ADD35R,0.02362X0.03937*%
D16*
X291240Y6299D02*
D03*
X302854D02*
D03*
D17*
X257087Y39764D02*
D03*
Y30709D02*
D03*
X121653Y52165D02*
D03*
Y43110D02*
D03*
X152362Y41283D02*
D03*
Y32228D02*
D03*
D18*
X122047Y162106D02*
D03*
Y156791D02*
D03*
X131890Y156201D02*
D03*
Y150886D02*
D03*
X141732D02*
D03*
Y156201D02*
D03*
Y127264D02*
D03*
Y132579D02*
D03*
X122047Y138484D02*
D03*
Y133169D02*
D03*
X131890Y132579D02*
D03*
Y127264D02*
D03*
X311319Y91240D02*
D03*
Y85925D02*
D03*
Y107677D02*
D03*
Y102362D02*
D03*
X311417Y118996D02*
D03*
Y124311D02*
D03*
X255906Y16831D02*
D03*
Y11516D02*
D03*
X261811Y60925D02*
D03*
Y55610D02*
D03*
X298425Y66929D02*
D03*
Y61614D02*
D03*
X114567Y9958D02*
D03*
Y15273D02*
D03*
X177165Y17028D02*
D03*
Y22343D02*
D03*
X177559Y33169D02*
D03*
Y38484D02*
D03*
X110236Y45177D02*
D03*
Y39862D02*
D03*
X185433Y32579D02*
D03*
Y27264D02*
D03*
X246457Y34646D02*
D03*
Y29331D02*
D03*
X294488Y17815D02*
D03*
Y23130D02*
D03*
X266392Y94291D02*
D03*
Y99606D02*
D03*
D19*
X298425Y49902D02*
D03*
Y55020D02*
D03*
D20*
X304921Y32835D02*
D03*
Y14803D02*
D03*
D21*
X330315Y23819D02*
D03*
D22*
X201575Y84008D02*
D03*
Y89008D02*
D03*
Y94008D02*
D03*
Y99008D02*
D03*
Y104008D02*
D03*
Y109008D02*
D03*
Y114008D02*
D03*
X181102Y84008D02*
D03*
Y89008D02*
D03*
Y94008D02*
D03*
Y99008D02*
D03*
Y104008D02*
D03*
Y109008D02*
D03*
Y114008D02*
D03*
X68110Y102795D02*
D03*
Y97795D02*
D03*
Y92795D02*
D03*
Y87795D02*
D03*
Y82795D02*
D03*
Y77795D02*
D03*
Y72795D02*
D03*
X88583Y102795D02*
D03*
Y97795D02*
D03*
Y92795D02*
D03*
Y87795D02*
D03*
Y82795D02*
D03*
Y77795D02*
D03*
Y72795D02*
D03*
D23*
X248524Y113366D02*
D03*
Y118366D02*
D03*
Y123366D02*
D03*
Y128366D02*
D03*
X227067Y113366D02*
D03*
Y118366D02*
D03*
Y123366D02*
D03*
Y128366D02*
D03*
X248524Y69621D02*
D03*
Y74621D02*
D03*
Y79621D02*
D03*
Y84621D02*
D03*
X227067Y69621D02*
D03*
Y74621D02*
D03*
Y79621D02*
D03*
Y84621D02*
D03*
X120374Y113799D02*
D03*
Y108799D02*
D03*
Y103799D02*
D03*
Y98799D02*
D03*
X141831Y113799D02*
D03*
Y108799D02*
D03*
Y103799D02*
D03*
Y98799D02*
D03*
X120768Y84665D02*
D03*
Y79665D02*
D03*
Y74665D02*
D03*
Y69665D02*
D03*
X142224Y84665D02*
D03*
Y79665D02*
D03*
Y74665D02*
D03*
Y69665D02*
D03*
X291437Y50768D02*
D03*
Y55768D02*
D03*
Y60768D02*
D03*
Y65768D02*
D03*
X269980Y50768D02*
D03*
Y55768D02*
D03*
Y60768D02*
D03*
Y65768D02*
D03*
D24*
X240453Y93110D02*
D03*
X235138D02*
D03*
X240453Y104331D02*
D03*
X235138D02*
D03*
X292028Y82677D02*
D03*
X286713D02*
D03*
X150492Y54991D02*
D03*
X155807D02*
D03*
X277067Y38583D02*
D03*
X271752D02*
D03*
X290059Y72441D02*
D03*
X284744D02*
D03*
X301673Y40157D02*
D03*
X306988D02*
D03*
X107185Y25591D02*
D03*
X112500D02*
D03*
X134153Y31102D02*
D03*
X128839D02*
D03*
X163484Y23071D02*
D03*
X168799D02*
D03*
X320669Y6299D02*
D03*
X315354D02*
D03*
X383071Y4724D02*
D03*
X377756D02*
D03*
X286417Y135039D02*
D03*
X291732D02*
D03*
D25*
X276378Y100591D02*
D03*
Y93110D02*
D03*
X284252Y96850D02*
D03*
X295276Y100591D02*
D03*
Y93110D02*
D03*
X303150Y96850D02*
D03*
X276378Y126181D02*
D03*
Y118701D02*
D03*
X284252Y122441D02*
D03*
X295276Y126181D02*
D03*
Y118701D02*
D03*
X303150Y122441D02*
D03*
D26*
X140748Y52362D02*
D03*
X133268D02*
D03*
X137008Y44488D02*
D03*
X166142Y40945D02*
D03*
X169882Y33071D02*
D03*
X162402D02*
D03*
D27*
X124213Y25354D02*
D03*
X139567D02*
D03*
X124213Y20354D02*
D03*
X139567D02*
D03*
X124213Y15354D02*
D03*
X139567D02*
D03*
X124213Y10354D02*
D03*
X139567D02*
D03*
X124213Y5354D02*
D03*
X139567D02*
D03*
D28*
X289370Y38583D02*
D03*
D29*
X310630Y62992D02*
D03*
Y53543D02*
D03*
X247244Y9843D02*
D03*
D30*
X238779Y15551D02*
D03*
Y17520D02*
D03*
Y19488D02*
D03*
Y21457D02*
D03*
Y23425D02*
D03*
Y25394D02*
D03*
Y27362D02*
D03*
Y29331D02*
D03*
Y31299D02*
D03*
Y33268D02*
D03*
Y35236D02*
D03*
Y37205D02*
D03*
Y39173D02*
D03*
Y41142D02*
D03*
Y43110D02*
D03*
Y45079D02*
D03*
X193504D02*
D03*
Y43110D02*
D03*
Y41142D02*
D03*
Y39173D02*
D03*
Y37205D02*
D03*
Y35236D02*
D03*
Y33268D02*
D03*
Y31299D02*
D03*
Y29331D02*
D03*
Y27362D02*
D03*
Y25394D02*
D03*
Y23425D02*
D03*
Y21457D02*
D03*
Y19488D02*
D03*
Y17520D02*
D03*
Y15551D02*
D03*
D31*
X230906Y52953D02*
D03*
X228937D02*
D03*
X226969D02*
D03*
X225000D02*
D03*
X223031D02*
D03*
X221063D02*
D03*
X219094D02*
D03*
X217126D02*
D03*
X215158D02*
D03*
X213189D02*
D03*
X211221D02*
D03*
X209252D02*
D03*
X207283D02*
D03*
X205315D02*
D03*
X203346D02*
D03*
X201378D02*
D03*
Y7677D02*
D03*
X203346D02*
D03*
X205315D02*
D03*
X207283D02*
D03*
X209252D02*
D03*
X211221D02*
D03*
X213189D02*
D03*
X215158D02*
D03*
X217126D02*
D03*
X219094D02*
D03*
X221063D02*
D03*
X223031D02*
D03*
X225000D02*
D03*
X226969D02*
D03*
X228937D02*
D03*
X230906D02*
D03*
D32*
X286476Y30020D02*
D03*
X281476D02*
D03*
X276476D02*
D03*
X271476D02*
D03*
X266476D02*
D03*
D33*
X276476Y6594D02*
D03*
D34*
X359055Y8366D02*
D03*
Y29035D02*
D03*
D35*
X110236Y111221D02*
D03*
X106496D02*
D03*
X102756D02*
D03*
Y100394D02*
D03*
X110236D02*
D03*
X110039Y81791D02*
D03*
X106299D02*
D03*
X102559D02*
D03*
Y70965D02*
D03*
X110039D02*
D03*
M02*
