%TF.GenerationSoftware,Altium Limited,Altium Designer,19.0.10 (269)*%
G04 Layer_Color=8421504*
%FSLAX26Y26*%
%MOIN*%
%TF.FileFunction,Paste,Top*%
%TF.Part,Single*%
G01*
G75*
%TA.AperFunction,SMDPad,CuDef*%
%ADD10R,0.039370X0.035433*%
%ADD11R,0.037402X0.033465*%
%ADD12R,0.118110X0.039370*%
%ADD13R,0.251969X0.218504*%
%ADD14R,0.035000X0.016535*%
%ADD15O,0.057087X0.023622*%
%ADD16R,0.035433X0.039370*%
%ADD17R,0.035433X0.031496*%
%ADD18R,0.031496X0.035433*%
%ADD19R,0.051181X0.043307*%
%ADD20R,0.094488X0.029921*%
%ADD21R,0.080709X0.045276*%
%ADD22R,0.045276X0.080709*%
%ADD23R,0.053150X0.011811*%
%ADD24R,0.011811X0.053150*%
%ADD25R,0.023622X0.082677*%
%ADD26R,0.125984X0.082677*%
%TA.AperFunction,ConnectorPad*%
%ADD27R,0.053150X0.057087*%
%TA.AperFunction,SMDPad,CuDef*%
%ADD28R,0.214567X0.137795*%
%ADD29R,0.023622X0.039370*%
D10*
X1220472Y1621063D02*
D03*
Y1567913D02*
D03*
X1318898Y1562008D02*
D03*
Y1508858D02*
D03*
X1417323D02*
D03*
Y1562008D02*
D03*
Y1272638D02*
D03*
Y1325787D02*
D03*
X1220472Y1384842D02*
D03*
Y1331693D02*
D03*
X1318898Y1325787D02*
D03*
Y1272638D02*
D03*
X3113189Y912402D02*
D03*
Y859252D02*
D03*
Y1076772D02*
D03*
Y1023622D02*
D03*
X3114173Y1189961D02*
D03*
Y1243110D02*
D03*
X2559055Y168307D02*
D03*
Y115157D02*
D03*
X2618110Y609252D02*
D03*
Y556102D02*
D03*
X2984252Y669291D02*
D03*
Y616142D02*
D03*
X1145669Y99582D02*
D03*
Y152732D02*
D03*
X1771653Y170276D02*
D03*
Y223425D02*
D03*
X1775591Y331693D02*
D03*
Y384843D02*
D03*
X1102362Y451772D02*
D03*
Y398622D02*
D03*
X1854331Y325788D02*
D03*
Y272638D02*
D03*
X2464567Y346457D02*
D03*
Y293307D02*
D03*
X2944882Y178150D02*
D03*
Y231299D02*
D03*
X2663917Y942913D02*
D03*
Y996063D02*
D03*
D11*
X2984252Y499016D02*
D03*
Y550197D02*
D03*
D12*
X3049213Y328346D02*
D03*
Y148031D02*
D03*
D13*
X3303150Y238189D02*
D03*
D14*
X2015748Y840077D02*
D03*
Y890077D02*
D03*
Y940077D02*
D03*
Y990077D02*
D03*
Y1040077D02*
D03*
Y1090077D02*
D03*
Y1140077D02*
D03*
X1811024Y840077D02*
D03*
Y890077D02*
D03*
Y940077D02*
D03*
Y990077D02*
D03*
Y1040077D02*
D03*
Y1090077D02*
D03*
Y1140077D02*
D03*
X681102Y1027953D02*
D03*
Y977953D02*
D03*
Y927953D02*
D03*
Y877953D02*
D03*
Y827953D02*
D03*
Y777953D02*
D03*
Y727953D02*
D03*
X885827Y1027953D02*
D03*
Y977953D02*
D03*
Y927953D02*
D03*
Y877953D02*
D03*
Y827953D02*
D03*
Y777953D02*
D03*
Y727953D02*
D03*
D15*
X2485236Y1133661D02*
D03*
Y1183661D02*
D03*
Y1233661D02*
D03*
Y1283661D02*
D03*
X2270669Y1133661D02*
D03*
Y1183661D02*
D03*
Y1233661D02*
D03*
Y1283661D02*
D03*
X2485236Y696213D02*
D03*
Y746213D02*
D03*
Y796213D02*
D03*
Y846213D02*
D03*
X2270669Y696213D02*
D03*
Y746213D02*
D03*
Y796213D02*
D03*
Y846213D02*
D03*
X1203740Y1137992D02*
D03*
Y1087992D02*
D03*
Y1037992D02*
D03*
Y987992D02*
D03*
X1418307Y1137992D02*
D03*
Y1087992D02*
D03*
Y1037992D02*
D03*
Y987992D02*
D03*
X1207677Y846654D02*
D03*
Y796654D02*
D03*
Y746654D02*
D03*
Y696654D02*
D03*
X1422244Y846654D02*
D03*
Y796654D02*
D03*
Y746654D02*
D03*
Y696654D02*
D03*
X2914370Y507677D02*
D03*
Y557677D02*
D03*
Y607677D02*
D03*
Y657677D02*
D03*
X2699803Y507677D02*
D03*
Y557677D02*
D03*
Y607677D02*
D03*
Y657677D02*
D03*
D16*
X2404528Y931102D02*
D03*
X2351378D02*
D03*
X2404528Y1043307D02*
D03*
X2351378D02*
D03*
X2920276Y826772D02*
D03*
X2867126D02*
D03*
X1504921Y549913D02*
D03*
X1558071D02*
D03*
X2770669Y385827D02*
D03*
X2717520D02*
D03*
X2900590Y724409D02*
D03*
X2847441D02*
D03*
X3016732Y401575D02*
D03*
X3069882D02*
D03*
X1071850Y255905D02*
D03*
X1125000D02*
D03*
X1341535Y311024D02*
D03*
X1288386D02*
D03*
X1634842Y230709D02*
D03*
X1687992D02*
D03*
X3206693Y62992D02*
D03*
X3153543D02*
D03*
X3830709Y47244D02*
D03*
X3777559D02*
D03*
X2864173Y1350394D02*
D03*
X2917323D02*
D03*
D17*
X2763780Y1005906D02*
D03*
Y931102D02*
D03*
X2842520Y968504D02*
D03*
X2952756Y1005906D02*
D03*
Y931102D02*
D03*
X3031496Y968504D02*
D03*
X2763780Y1261811D02*
D03*
Y1187008D02*
D03*
X2842520Y1224409D02*
D03*
X2952756Y1261811D02*
D03*
Y1187008D02*
D03*
X3031496Y1224409D02*
D03*
D18*
X1407480Y523622D02*
D03*
X1332677D02*
D03*
X1370079Y444882D02*
D03*
X1661417Y409449D02*
D03*
X1698819Y330709D02*
D03*
X1624016D02*
D03*
D19*
X1216535Y521654D02*
D03*
Y431102D02*
D03*
X2570866Y397638D02*
D03*
Y307087D02*
D03*
X1523622Y322277D02*
D03*
Y412829D02*
D03*
D20*
X1242126Y253543D02*
D03*
X1395669D02*
D03*
X1242126Y203543D02*
D03*
X1395669D02*
D03*
X1242126Y153543D02*
D03*
X1395669D02*
D03*
X1242126Y103543D02*
D03*
X1395669D02*
D03*
X1242126Y53543D02*
D03*
X1395669D02*
D03*
D21*
X2893701Y385827D02*
D03*
D22*
X3106299Y629921D02*
D03*
Y535433D02*
D03*
X2472441Y98425D02*
D03*
D23*
X2387795Y155512D02*
D03*
Y175197D02*
D03*
Y194882D02*
D03*
Y214567D02*
D03*
Y234252D02*
D03*
Y253937D02*
D03*
Y273622D02*
D03*
Y293307D02*
D03*
Y312992D02*
D03*
Y332677D02*
D03*
Y352362D02*
D03*
Y372047D02*
D03*
Y391732D02*
D03*
Y411417D02*
D03*
Y431102D02*
D03*
Y450787D02*
D03*
X1935039D02*
D03*
Y431102D02*
D03*
Y411417D02*
D03*
Y391732D02*
D03*
Y372047D02*
D03*
Y352362D02*
D03*
Y332677D02*
D03*
Y312992D02*
D03*
Y293307D02*
D03*
Y273622D02*
D03*
Y253937D02*
D03*
Y234252D02*
D03*
Y214567D02*
D03*
Y194882D02*
D03*
Y175197D02*
D03*
Y155512D02*
D03*
D24*
X2309055Y529528D02*
D03*
X2289370D02*
D03*
X2269685D02*
D03*
X2250000D02*
D03*
X2230315D02*
D03*
X2210630D02*
D03*
X2190945D02*
D03*
X2171260D02*
D03*
X2151575D02*
D03*
X2131890D02*
D03*
X2112205D02*
D03*
X2092520D02*
D03*
X2072835D02*
D03*
X2053150D02*
D03*
X2033465D02*
D03*
X2013780D02*
D03*
Y76772D02*
D03*
X2033465D02*
D03*
X2053150D02*
D03*
X2072835D02*
D03*
X2092520D02*
D03*
X2112205D02*
D03*
X2131890D02*
D03*
X2151575D02*
D03*
X2171260D02*
D03*
X2190945D02*
D03*
X2210630D02*
D03*
X2230315D02*
D03*
X2250000D02*
D03*
X2269685D02*
D03*
X2289370D02*
D03*
X2309055D02*
D03*
D25*
X2864764Y300197D02*
D03*
X2814764D02*
D03*
X2764764D02*
D03*
X2714764D02*
D03*
X2664764D02*
D03*
D26*
X2764764Y65945D02*
D03*
D27*
X2912402Y62992D02*
D03*
X3028543D02*
D03*
D28*
X3590551Y83662D02*
D03*
Y290354D02*
D03*
D29*
X1102362Y1112205D02*
D03*
X1064961D02*
D03*
X1027559D02*
D03*
Y1003937D02*
D03*
X1102362D02*
D03*
X1100394Y817913D02*
D03*
X1062992D02*
D03*
X1025591D02*
D03*
Y709646D02*
D03*
X1100394D02*
D03*
%TF.MD5,f03ea359ae4c630b9ff977076ab18a78*%
M02*
