%TF.GenerationSoftware,Altium Limited,Altium Designer,19.0.10 (269)*%
G04 Layer_Color=16711935*
%FSLAX26Y26*%
%MOIN*%
%TF.FileFunction,Soldermask,Bot*%
%TF.Part,Single*%
G01*
G75*
%TA.AperFunction,ViaPad*%
%ADD36C,0.030000*%
%TA.AperFunction,SMDPad,CuDef*%
%ADD44R,0.047370X0.043433*%
%ADD45R,0.045402X0.041465*%
%ADD46R,0.043433X0.019811*%
%ADD47R,0.043433X0.047370*%
%ADD48R,0.043433X0.039496*%
%ADD49O,0.065087X0.031622*%
%ADD50R,0.053276X0.088709*%
%ADD51R,0.059181X0.051307*%
%ADD52R,0.031622X0.090677*%
%ADD53R,0.133984X0.090677*%
%ADD54R,0.088709X0.053276*%
%TA.AperFunction,ComponentPad*%
%ADD55C,0.137921*%
%ADD56C,0.094614*%
G36*
X3312008Y288373D02*
Y129921D01*
X3181102D01*
X3181102Y293272D01*
X3307057Y293322D01*
X3312008Y288373D01*
D02*
G37*
D36*
X2375984Y44291D02*
D03*
X2421378Y480338D02*
D03*
X1612205Y134843D02*
D03*
X1228642Y648441D02*
D03*
X1684055Y146654D02*
D03*
X1500000Y53543D02*
D03*
X2330709Y352362D02*
D03*
X2329724Y306102D02*
D03*
X2395274Y520371D02*
D03*
Y559055D02*
D03*
X1302370Y682094D02*
D03*
X2726378Y450787D02*
D03*
X1881693Y728543D02*
D03*
X1905605Y884886D02*
D03*
X1909449Y787402D02*
D03*
X2121063Y1624016D02*
D03*
X1353347Y1172244D02*
D03*
X969488Y956693D02*
D03*
X963583Y740158D02*
D03*
X1499016Y834646D02*
D03*
X1143701Y45276D02*
D03*
X771654Y732284D02*
D03*
X751968Y818898D02*
D03*
X871063Y1166339D02*
D03*
X1910101Y665023D02*
D03*
X2157992Y610236D02*
D03*
X1618110Y937008D02*
D03*
X2496175Y988077D02*
D03*
X2429024Y1393811D02*
D03*
X3245735Y233096D02*
D03*
Y275418D02*
D03*
X3199803D02*
D03*
Y233096D02*
D03*
Y190773D02*
D03*
Y148450D02*
D03*
X3245735D02*
D03*
X3291666D02*
D03*
Y190773D02*
D03*
X3245735D02*
D03*
X3291666Y233096D02*
D03*
Y275418D02*
D03*
X2838457Y442841D02*
D03*
X3090551Y67913D02*
D03*
X3048228Y256890D02*
D03*
X2404412Y984250D02*
D03*
X2225208Y650078D02*
D03*
X2299208Y622046D02*
D03*
X1416947Y1433071D02*
D03*
X2732284Y216535D02*
D03*
X1696998Y1303150D02*
D03*
X2293307Y884886D02*
D03*
X1036417Y1649606D02*
D03*
X1060305Y1385827D02*
D03*
X3054260Y509842D02*
D03*
X1969488Y1445866D02*
D03*
X2067913Y1197047D02*
D03*
X539370Y615158D02*
D03*
X523622Y845577D02*
D03*
X777758Y1177790D02*
D03*
X2308059Y1070866D02*
D03*
X2539370Y1200787D02*
D03*
X2459235Y1579882D02*
D03*
X3051181Y1568898D02*
D03*
X1624016Y839567D02*
D03*
X2615157Y778427D02*
D03*
X2625984Y684055D02*
D03*
X2531496Y769685D02*
D03*
X2588583Y937992D02*
D03*
X2262795Y941929D02*
D03*
X2836614Y587598D02*
D03*
X2750984D02*
D03*
X2177092Y1043565D02*
D03*
X1677165Y629920D02*
D03*
Y678543D02*
D03*
X1308071Y1440945D02*
D03*
X1762795Y1446454D02*
D03*
X929134Y810852D02*
D03*
X889764Y689968D02*
D03*
X2601378Y1342183D02*
D03*
X2767716Y1466535D02*
D03*
X2192913Y1137795D02*
D03*
X2344488Y982599D02*
D03*
X2119992Y610236D02*
D03*
X2081992D02*
D03*
X2005992D02*
D03*
X2177161Y728345D02*
D03*
X2397633Y700786D02*
D03*
X2342520Y736221D02*
D03*
X2043992Y610236D02*
D03*
X2342520Y618110D02*
D03*
X1314961Y1062992D02*
D03*
X1267716Y1049114D02*
D03*
X1299213Y740158D02*
D03*
X1287402Y828963D02*
D03*
X1479331Y1452756D02*
D03*
Y1325787D02*
D03*
X1157480Y1621063D02*
D03*
X2094488Y452756D02*
D03*
X1578445Y984252D02*
D03*
X1755906Y913386D02*
D03*
X1685039Y1049114D02*
D03*
X1677165Y582677D02*
D03*
X2887739Y198819D02*
D03*
X3042244Y203740D02*
D03*
X2968504Y365617D02*
D03*
X2956737Y442867D02*
D03*
X2633858Y108731D02*
D03*
X2623805Y438011D02*
D03*
X1490505Y479336D02*
D03*
X1343080Y588571D02*
D03*
X1137795Y531496D02*
D03*
X988189Y417323D02*
D03*
Y282652D02*
D03*
Y157480D02*
D03*
Y35433D02*
D03*
X1685039Y1098425D02*
D03*
Y1145669D02*
D03*
X2228347Y456693D02*
D03*
X2185039Y459449D02*
D03*
X2047244Y456693D02*
D03*
X1917323Y964567D02*
D03*
X2574606Y1401575D02*
D03*
X2523622Y1448819D02*
D03*
X1967992Y610236D02*
D03*
X2196850Y1389764D02*
D03*
X2291780Y1417323D02*
D03*
X2472441Y1421260D02*
D03*
X2362205Y1165354D02*
D03*
X3169291Y964567D02*
D03*
X3011811Y1102362D02*
D03*
X2755905Y1106299D02*
D03*
X3196850Y692913D02*
D03*
X3169291Y901575D02*
D03*
X1405512Y374016D02*
D03*
X3098425Y724409D02*
D03*
X3157825Y723376D02*
D03*
X3244095Y1527559D02*
D03*
X3559055Y1622047D02*
D03*
X2559055Y55118D02*
D03*
X2944882Y314961D02*
D03*
X2795276Y216535D02*
D03*
D44*
X1157480Y1118393D02*
D03*
Y1065244D02*
D03*
X1832677Y191437D02*
D03*
Y138287D02*
D03*
X652559Y1205709D02*
D03*
Y1152559D02*
D03*
X1200787Y1562008D02*
D03*
Y1508858D02*
D03*
X1153543Y1298228D02*
D03*
Y1245079D02*
D03*
X1515748Y1562008D02*
D03*
Y1508858D02*
D03*
X1818898Y1562008D02*
D03*
Y1508858D02*
D03*
X1299213Y1621063D02*
D03*
Y1567913D02*
D03*
X1251968Y1357284D02*
D03*
Y1304134D02*
D03*
X1614173Y1621063D02*
D03*
Y1567913D02*
D03*
X1917323Y1621063D02*
D03*
Y1567913D02*
D03*
X1102362Y1508858D02*
D03*
Y1562008D02*
D03*
X1055118Y1245079D02*
D03*
Y1298228D02*
D03*
X1417323Y1508858D02*
D03*
Y1562008D02*
D03*
X1720472Y1508858D02*
D03*
Y1562008D02*
D03*
X1139764Y583719D02*
D03*
Y636869D02*
D03*
X2711614Y1382874D02*
D03*
Y1436024D02*
D03*
X2991142Y1386811D02*
D03*
Y1439961D02*
D03*
X2711614Y696850D02*
D03*
Y750000D02*
D03*
X2991142Y700787D02*
D03*
Y753937D02*
D03*
X2712598Y1154527D02*
D03*
Y1207677D02*
D03*
X2992126Y1158465D02*
D03*
Y1211614D02*
D03*
X2236220Y807087D02*
D03*
Y860236D02*
D03*
X2515748Y811024D02*
D03*
Y864173D02*
D03*
X2236220Y1499016D02*
D03*
Y1552165D02*
D03*
X2515748Y1502953D02*
D03*
Y1556102D02*
D03*
X2236220Y1269685D02*
D03*
Y1322835D02*
D03*
X2515748Y1273622D02*
D03*
Y1326772D02*
D03*
X2711614Y926181D02*
D03*
Y979331D02*
D03*
X2991142Y930118D02*
D03*
Y983268D02*
D03*
X2236220Y1042323D02*
D03*
Y1095472D02*
D03*
X2515748Y1046260D02*
D03*
Y1099409D02*
D03*
X2275591Y359252D02*
D03*
Y306102D02*
D03*
D45*
X1951772Y139272D02*
D03*
Y190453D02*
D03*
D46*
X2081693Y134843D02*
D03*
Y154528D02*
D03*
Y174213D02*
D03*
Y193898D02*
D03*
X2203740Y134843D02*
D03*
Y154528D02*
D03*
Y174213D02*
D03*
Y193898D02*
D03*
D47*
X1696850Y970351D02*
D03*
X1750000D02*
D03*
X1686024Y826771D02*
D03*
X1739173D02*
D03*
X1002953Y1051181D02*
D03*
X949803D02*
D03*
X599409Y1022431D02*
D03*
X652559D02*
D03*
X599409Y913186D02*
D03*
X652559D02*
D03*
X933387Y645669D02*
D03*
X986536D02*
D03*
X3774606Y476378D02*
D03*
X3721457D02*
D03*
X3296260Y1413386D02*
D03*
X3349409D02*
D03*
X3296260Y1570866D02*
D03*
X3349409D02*
D03*
X3296260Y1492126D02*
D03*
X3349409D02*
D03*
X3131890Y1366142D02*
D03*
X3185039D02*
D03*
X3185695Y1527559D02*
D03*
X3132546D02*
D03*
Y1444882D02*
D03*
X3185695D02*
D03*
X3506890Y1622047D02*
D03*
X3453740D02*
D03*
Y1460630D02*
D03*
X3506890D02*
D03*
X3453740Y1539370D02*
D03*
X3506890D02*
D03*
X2879921Y1452756D02*
D03*
X2826772D02*
D03*
Y1370079D02*
D03*
X2879921D02*
D03*
Y766732D02*
D03*
X2826772D02*
D03*
Y684055D02*
D03*
X2879921D02*
D03*
X2880905Y1224409D02*
D03*
X2827756D02*
D03*
Y1141732D02*
D03*
X2880905D02*
D03*
X2404528Y876968D02*
D03*
X2351378D02*
D03*
Y794291D02*
D03*
X2404528D02*
D03*
Y1568898D02*
D03*
X2351378D02*
D03*
Y1486220D02*
D03*
X2404528D02*
D03*
Y1339567D02*
D03*
X2351378D02*
D03*
Y1256890D02*
D03*
X2404528D02*
D03*
X2879921Y996063D02*
D03*
X2826772D02*
D03*
Y913386D02*
D03*
X2879921D02*
D03*
X3616141Y1665354D02*
D03*
X3669291D02*
D03*
X3616141Y1507874D02*
D03*
X3669291D02*
D03*
X3616141Y1586614D02*
D03*
X3669291D02*
D03*
X2404528Y1112205D02*
D03*
X2351378D02*
D03*
Y1029527D02*
D03*
X2404528D02*
D03*
X3626968Y389764D02*
D03*
X3680118D02*
D03*
X3626968Y94488D02*
D03*
X3680118D02*
D03*
X3626968Y188976D02*
D03*
X3680118D02*
D03*
X3626968Y283465D02*
D03*
X3680118D02*
D03*
X3166339Y377953D02*
D03*
X3219488D02*
D03*
X2737205Y94488D02*
D03*
X2790354D02*
D03*
X2737205Y157480D02*
D03*
X2790354D02*
D03*
D48*
X767716Y1059055D02*
D03*
X846457Y1021654D02*
D03*
Y1096457D02*
D03*
X1078740Y940945D02*
D03*
X1157480Y903543D02*
D03*
Y978346D02*
D03*
D49*
X1605315Y1047047D02*
D03*
Y1097047D02*
D03*
Y1147047D02*
D03*
Y1197047D02*
D03*
X1819882Y1047047D02*
D03*
Y1097047D02*
D03*
Y1147047D02*
D03*
Y1197047D02*
D03*
X621063Y621850D02*
D03*
Y671850D02*
D03*
Y721850D02*
D03*
Y771850D02*
D03*
X835630Y621850D02*
D03*
Y671850D02*
D03*
Y721850D02*
D03*
Y771850D02*
D03*
X1605315Y578543D02*
D03*
Y628543D02*
D03*
Y678543D02*
D03*
Y728543D02*
D03*
X1819882Y578543D02*
D03*
Y628543D02*
D03*
Y678543D02*
D03*
Y728543D02*
D03*
D50*
X3061024Y370079D02*
D03*
D51*
X3755905Y698819D02*
D03*
Y608268D02*
D03*
D52*
X3337008Y361221D02*
D03*
X3387008D02*
D03*
X3437008D02*
D03*
X3487008D02*
D03*
X3537008D02*
D03*
D53*
X3437008Y126969D02*
D03*
D54*
X3235236Y49213D02*
D03*
D55*
X3858268Y235236D02*
D03*
Y1514764D02*
D03*
D56*
X3287402Y1229331D02*
D03*
Y1111220D02*
D03*
Y993110D02*
D03*
Y875000D02*
D03*
Y756890D02*
D03*
Y638779D02*
D03*
Y520669D02*
D03*
X3385827Y1170276D02*
D03*
Y1052165D02*
D03*
Y934055D02*
D03*
Y815945D02*
D03*
Y697835D02*
D03*
Y579724D02*
D03*
X3503937Y1170276D02*
D03*
Y1052165D02*
D03*
Y934055D02*
D03*
Y815945D02*
D03*
Y697835D02*
D03*
Y579724D02*
D03*
X3602362Y1229331D02*
D03*
Y1111220D02*
D03*
Y993110D02*
D03*
Y875000D02*
D03*
Y756890D02*
D03*
Y638779D02*
D03*
Y520669D02*
D03*
%TF.MD5,09c68ff27ca8fc400e3ff21f850be78c*%
M02*
