%TF.GenerationSoftware,Altium Limited,Altium Designer,19.0.10 (269)*%
G04 Layer_Color=2752767*
%FSLAX26Y26*%
%MOIN*%
%TF.FileFunction,Drawing*%
%TF.Part,Single*%
G01*
G75*
%TA.AperFunction,NonConductor*%
%ADD74C,0.005000*%
%ADD75C,0.006667*%
D74*
X1298898Y58543D02*
Y98543D01*
X1338898D01*
Y58543D01*
X1298898D01*
Y208543D02*
Y248543D01*
X1338898D01*
Y208543D01*
X1298898D01*
X3287402Y1209331D02*
X3267402Y1249331D01*
X3307402D01*
X3287402Y1209331D01*
Y1091220D02*
X3267402Y1131220D01*
X3307402D01*
X3287402Y1091220D01*
Y973110D02*
X3267402Y1013110D01*
X3307402D01*
X3287402Y973110D01*
Y855000D02*
X3267402Y895000D01*
X3307402D01*
X3287402Y855000D01*
Y736890D02*
X3267402Y776890D01*
X3307402D01*
X3287402Y736890D01*
Y618779D02*
X3267402Y658779D01*
X3307402D01*
X3287402Y618779D01*
Y500669D02*
X3267402Y540669D01*
X3307402D01*
X3287402Y500669D01*
X3385827Y1150276D02*
X3365827Y1190276D01*
X3405827D01*
X3385827Y1150276D01*
Y1032165D02*
X3365827Y1072165D01*
X3405827D01*
X3385827Y1032165D01*
Y914055D02*
X3365827Y954055D01*
X3405827D01*
X3385827Y914055D01*
Y795945D02*
X3365827Y835945D01*
X3405827D01*
X3385827Y795945D01*
Y677835D02*
X3365827Y717835D01*
X3405827D01*
X3385827Y677835D01*
Y559724D02*
X3365827Y599724D01*
X3405827D01*
X3385827Y559724D01*
X3503937Y1150276D02*
X3483937Y1190276D01*
X3523937D01*
X3503937Y1150276D01*
Y1032165D02*
X3483937Y1072165D01*
X3523937D01*
X3503937Y1032165D01*
Y914055D02*
X3483937Y954055D01*
X3523937D01*
X3503937Y914055D01*
Y795945D02*
X3483937Y835945D01*
X3523937D01*
X3503937Y795945D01*
Y677835D02*
X3483937Y717835D01*
X3523937D01*
X3503937Y677835D01*
Y559724D02*
X3483937Y599724D01*
X3523937D01*
X3503937Y559724D01*
X3602362Y1209331D02*
X3582362Y1249331D01*
X3622362D01*
X3602362Y1209331D01*
Y1091220D02*
X3582362Y1131220D01*
X3622362D01*
X3602362Y1091220D01*
Y973110D02*
X3582362Y1013110D01*
X3622362D01*
X3602362Y973110D01*
Y855000D02*
X3582362Y895000D01*
X3622362D01*
X3602362Y855000D01*
Y736890D02*
X3582362Y776890D01*
X3622362D01*
X3602362Y736890D01*
Y618779D02*
X3582362Y658779D01*
X3622362D01*
X3602362Y618779D01*
Y500669D02*
X3582362Y540669D01*
X3622362D01*
X3602362Y500669D01*
X2375984Y24291D02*
X2385984Y34291D01*
X2395984D01*
X2385984Y44291D01*
X2395984Y54291D01*
X2385984D01*
X2375984Y64291D01*
X2365984Y54291D01*
X2355984D01*
X2365984Y44291D01*
X2355984Y34291D01*
X2365984D01*
X2375984Y24291D01*
X2421378Y460338D02*
X2431378Y470338D01*
X2441378D01*
X2431378Y480338D01*
X2441378Y490338D01*
X2431378D01*
X2421378Y500338D01*
X2411378Y490338D01*
X2401378D01*
X2411378Y480338D01*
X2401378Y470338D01*
X2411378D01*
X2421378Y460338D01*
X1612205Y114843D02*
X1622205Y124843D01*
X1632205D01*
X1622205Y134843D01*
X1632205Y144843D01*
X1622205D01*
X1612205Y154843D01*
X1602205Y144843D01*
X1592205D01*
X1602205Y134843D01*
X1592205Y124843D01*
X1602205D01*
X1612205Y114843D01*
X1228642Y628441D02*
X1238642Y638441D01*
X1248642D01*
X1238642Y648441D01*
X1248642Y658441D01*
X1238642D01*
X1228642Y668441D01*
X1218642Y658441D01*
X1208642D01*
X1218642Y648441D01*
X1208642Y638441D01*
X1218642D01*
X1228642Y628441D01*
X1684055Y126653D02*
X1694055Y136654D01*
X1704055D01*
X1694055Y146654D01*
X1704055Y156654D01*
X1694055D01*
X1684055Y166654D01*
X1674055Y156654D01*
X1664055D01*
X1674055Y146654D01*
X1664055Y136654D01*
X1674055D01*
X1684055Y126653D01*
X1500000Y33543D02*
X1510000Y43543D01*
X1520000D01*
X1510000Y53543D01*
X1520000Y63543D01*
X1510000D01*
X1500000Y73543D01*
X1490000Y63543D01*
X1480000D01*
X1490000Y53543D01*
X1480000Y43543D01*
X1490000D01*
X1500000Y33543D01*
X2330709Y332362D02*
X2340709Y342362D01*
X2350709D01*
X2340709Y352362D01*
X2350709Y362362D01*
X2340709D01*
X2330709Y372362D01*
X2320709Y362362D01*
X2310709D01*
X2320709Y352362D01*
X2310709Y342362D01*
X2320709D01*
X2330709Y332362D01*
X2329724Y286102D02*
X2339724Y296102D01*
X2349724D01*
X2339724Y306102D01*
X2349724Y316102D01*
X2339724D01*
X2329724Y326102D01*
X2319724Y316102D01*
X2309724D01*
X2319724Y306102D01*
X2309724Y296102D01*
X2319724D01*
X2329724Y286102D01*
X2395274Y500371D02*
X2405274Y510371D01*
X2415274D01*
X2405274Y520371D01*
X2415274Y530371D01*
X2405274D01*
X2395274Y540371D01*
X2385274Y530371D01*
X2375274D01*
X2385274Y520371D01*
X2375274Y510371D01*
X2385274D01*
X2395274Y500371D01*
Y539055D02*
X2405274Y549055D01*
X2415274D01*
X2405274Y559055D01*
X2415274Y569055D01*
X2405274D01*
X2395274Y579055D01*
X2385274Y569055D01*
X2375274D01*
X2385274Y559055D01*
X2375274Y549055D01*
X2385274D01*
X2395274Y539055D01*
X1302370Y662094D02*
X1312370Y672094D01*
X1322370D01*
X1312370Y682094D01*
X1322370Y692094D01*
X1312370D01*
X1302370Y702094D01*
X1292370Y692094D01*
X1282370D01*
X1292370Y682094D01*
X1282370Y672094D01*
X1292370D01*
X1302370Y662094D01*
X2726378Y430787D02*
X2736378Y440787D01*
X2746378D01*
X2736378Y450787D01*
X2746378Y460787D01*
X2736378D01*
X2726378Y470787D01*
X2716378Y460787D01*
X2706378D01*
X2716378Y450787D01*
X2706378Y440787D01*
X2716378D01*
X2726378Y430787D01*
X1881693Y708543D02*
X1891693Y718543D01*
X1901693D01*
X1891693Y728543D01*
X1901693Y738543D01*
X1891693D01*
X1881693Y748543D01*
X1871693Y738543D01*
X1861693D01*
X1871693Y728543D01*
X1861693Y718543D01*
X1871693D01*
X1881693Y708543D01*
X1905605Y864886D02*
X1915605Y874886D01*
X1925605D01*
X1915605Y884886D01*
X1925605Y894886D01*
X1915605D01*
X1905605Y904886D01*
X1895605Y894886D01*
X1885605D01*
X1895605Y884886D01*
X1885605Y874886D01*
X1895605D01*
X1905605Y864886D01*
X1909449Y767402D02*
X1919449Y777402D01*
X1929449D01*
X1919449Y787402D01*
X1929449Y797402D01*
X1919449D01*
X1909449Y807402D01*
X1899449Y797402D01*
X1889449D01*
X1899449Y787402D01*
X1889449Y777402D01*
X1899449D01*
X1909449Y767402D01*
X2121063Y1604016D02*
X2131063Y1614016D01*
X2141063D01*
X2131063Y1624016D01*
X2141063Y1634016D01*
X2131063D01*
X2121063Y1644016D01*
X2111063Y1634016D01*
X2101063D01*
X2111063Y1624016D01*
X2101063Y1614016D01*
X2111063D01*
X2121063Y1604016D01*
X1353347Y1152244D02*
X1363347Y1162244D01*
X1373347D01*
X1363347Y1172244D01*
X1373347Y1182244D01*
X1363347D01*
X1353347Y1192244D01*
X1343347Y1182244D01*
X1333347D01*
X1343347Y1172244D01*
X1333347Y1162244D01*
X1343347D01*
X1353347Y1152244D01*
X969488Y936693D02*
X979488Y946693D01*
X989488D01*
X979488Y956693D01*
X989488Y966693D01*
X979488D01*
X969488Y976693D01*
X959488Y966693D01*
X949488D01*
X959488Y956693D01*
X949488Y946693D01*
X959488D01*
X969488Y936693D01*
X963583Y720158D02*
X973583Y730158D01*
X983583D01*
X973583Y740158D01*
X983583Y750158D01*
X973583D01*
X963583Y760158D01*
X953583Y750158D01*
X943583D01*
X953583Y740158D01*
X943583Y730158D01*
X953583D01*
X963583Y720158D01*
X1499016Y814646D02*
X1509016Y824646D01*
X1519016D01*
X1509016Y834646D01*
X1519016Y844646D01*
X1509016D01*
X1499016Y854646D01*
X1489016Y844646D01*
X1479016D01*
X1489016Y834646D01*
X1479016Y824646D01*
X1489016D01*
X1499016Y814646D01*
X1143701Y25276D02*
X1153701Y35276D01*
X1163701D01*
X1153701Y45276D01*
X1163701Y55276D01*
X1153701D01*
X1143701Y65276D01*
X1133701Y55276D01*
X1123701D01*
X1133701Y45276D01*
X1123701Y35276D01*
X1133701D01*
X1143701Y25276D01*
X771654Y712284D02*
X781654Y722284D01*
X791654D01*
X781654Y732284D01*
X791654Y742284D01*
X781654D01*
X771654Y752284D01*
X761654Y742284D01*
X751654D01*
X761654Y732284D01*
X751654Y722284D01*
X761654D01*
X771654Y712284D01*
X751968Y798898D02*
X761968Y808898D01*
X771968D01*
X761968Y818898D01*
X771968Y828898D01*
X761968D01*
X751968Y838898D01*
X741968Y828898D01*
X731968D01*
X741968Y818898D01*
X731968Y808898D01*
X741968D01*
X751968Y798898D01*
X871063Y1146339D02*
X881063Y1156339D01*
X891063D01*
X881063Y1166339D01*
X891063Y1176339D01*
X881063D01*
X871063Y1186339D01*
X861063Y1176339D01*
X851063D01*
X861063Y1166339D01*
X851063Y1156339D01*
X861063D01*
X871063Y1146339D01*
X1910101Y645023D02*
X1920101Y655023D01*
X1930101D01*
X1920101Y665023D01*
X1930101Y675023D01*
X1920101D01*
X1910101Y685023D01*
X1900101Y675023D01*
X1890101D01*
X1900101Y665023D01*
X1890101Y655023D01*
X1900101D01*
X1910101Y645023D01*
X2157992Y590236D02*
X2167992Y600236D01*
X2177992D01*
X2167992Y610236D01*
X2177992Y620236D01*
X2167992D01*
X2157992Y630236D01*
X2147992Y620236D01*
X2137992D01*
X2147992Y610236D01*
X2137992Y600236D01*
X2147992D01*
X2157992Y590236D01*
X1618110Y917008D02*
X1628110Y927008D01*
X1638110D01*
X1628110Y937008D01*
X1638110Y947008D01*
X1628110D01*
X1618110Y957008D01*
X1608110Y947008D01*
X1598110D01*
X1608110Y937008D01*
X1598110Y927008D01*
X1608110D01*
X1618110Y917008D01*
X2496175Y968077D02*
X2506175Y978077D01*
X2516175D01*
X2506175Y988077D01*
X2516175Y998077D01*
X2506175D01*
X2496175Y1008077D01*
X2486175Y998077D01*
X2476175D01*
X2486175Y988077D01*
X2476175Y978077D01*
X2486175D01*
X2496175Y968077D01*
X2429024Y1373811D02*
X2439024Y1383811D01*
X2449024D01*
X2439024Y1393811D01*
X2449024Y1403811D01*
X2439024D01*
X2429024Y1413811D01*
X2419024Y1403811D01*
X2409024D01*
X2419024Y1393811D01*
X2409024Y1383811D01*
X2419024D01*
X2429024Y1373811D01*
X3245735Y213096D02*
X3255735Y223096D01*
X3265735D01*
X3255735Y233096D01*
X3265735Y243096D01*
X3255735D01*
X3245735Y253096D01*
X3235735Y243096D01*
X3225735D01*
X3235735Y233096D01*
X3225735Y223096D01*
X3235735D01*
X3245735Y213096D01*
Y255418D02*
X3255735Y265418D01*
X3265735D01*
X3255735Y275418D01*
X3265735Y285418D01*
X3255735D01*
X3245735Y295418D01*
X3235735Y285418D01*
X3225735D01*
X3235735Y275418D01*
X3225735Y265418D01*
X3235735D01*
X3245735Y255418D01*
X3199803D02*
X3209803Y265418D01*
X3219803D01*
X3209803Y275418D01*
X3219803Y285418D01*
X3209803D01*
X3199803Y295418D01*
X3189803Y285418D01*
X3179803D01*
X3189803Y275418D01*
X3179803Y265418D01*
X3189803D01*
X3199803Y255418D01*
Y213096D02*
X3209803Y223096D01*
X3219803D01*
X3209803Y233096D01*
X3219803Y243096D01*
X3209803D01*
X3199803Y253096D01*
X3189803Y243096D01*
X3179803D01*
X3189803Y233096D01*
X3179803Y223096D01*
X3189803D01*
X3199803Y213096D01*
Y170773D02*
X3209803Y180773D01*
X3219803D01*
X3209803Y190773D01*
X3219803Y200773D01*
X3209803D01*
X3199803Y210773D01*
X3189803Y200773D01*
X3179803D01*
X3189803Y190773D01*
X3179803Y180773D01*
X3189803D01*
X3199803Y170773D01*
Y128450D02*
X3209803Y138450D01*
X3219803D01*
X3209803Y148450D01*
X3219803Y158450D01*
X3209803D01*
X3199803Y168450D01*
X3189803Y158450D01*
X3179803D01*
X3189803Y148450D01*
X3179803Y138450D01*
X3189803D01*
X3199803Y128450D01*
X3245735D02*
X3255735Y138450D01*
X3265735D01*
X3255735Y148450D01*
X3265735Y158450D01*
X3255735D01*
X3245735Y168450D01*
X3235735Y158450D01*
X3225735D01*
X3235735Y148450D01*
X3225735Y138450D01*
X3235735D01*
X3245735Y128450D01*
X3291666D02*
X3301666Y138450D01*
X3311666D01*
X3301666Y148450D01*
X3311666Y158450D01*
X3301666D01*
X3291666Y168450D01*
X3281666Y158450D01*
X3271666D01*
X3281666Y148450D01*
X3271666Y138450D01*
X3281666D01*
X3291666Y128450D01*
Y170773D02*
X3301666Y180773D01*
X3311666D01*
X3301666Y190773D01*
X3311666Y200773D01*
X3301666D01*
X3291666Y210773D01*
X3281666Y200773D01*
X3271666D01*
X3281666Y190773D01*
X3271666Y180773D01*
X3281666D01*
X3291666Y170773D01*
X3245735D02*
X3255735Y180773D01*
X3265735D01*
X3255735Y190773D01*
X3265735Y200773D01*
X3255735D01*
X3245735Y210773D01*
X3235735Y200773D01*
X3225735D01*
X3235735Y190773D01*
X3225735Y180773D01*
X3235735D01*
X3245735Y170773D01*
X3291666Y213096D02*
X3301666Y223096D01*
X3311666D01*
X3301666Y233096D01*
X3311666Y243096D01*
X3301666D01*
X3291666Y253096D01*
X3281666Y243096D01*
X3271666D01*
X3281666Y233096D01*
X3271666Y223096D01*
X3281666D01*
X3291666Y213096D01*
Y255418D02*
X3301666Y265418D01*
X3311666D01*
X3301666Y275418D01*
X3311666Y285418D01*
X3301666D01*
X3291666Y295418D01*
X3281666Y285418D01*
X3271666D01*
X3281666Y275418D01*
X3271666Y265418D01*
X3281666D01*
X3291666Y255418D01*
X2838457Y422841D02*
X2848457Y432841D01*
X2858457D01*
X2848457Y442841D01*
X2858457Y452841D01*
X2848457D01*
X2838457Y462841D01*
X2828457Y452841D01*
X2818457D01*
X2828457Y442841D01*
X2818457Y432841D01*
X2828457D01*
X2838457Y422841D01*
X3090551Y47913D02*
X3100551Y57913D01*
X3110551D01*
X3100551Y67913D01*
X3110551Y77913D01*
X3100551D01*
X3090551Y87913D01*
X3080551Y77913D01*
X3070551D01*
X3080551Y67913D01*
X3070551Y57913D01*
X3080551D01*
X3090551Y47913D01*
X3048228Y236890D02*
X3058228Y246890D01*
X3068228D01*
X3058228Y256890D01*
X3068228Y266890D01*
X3058228D01*
X3048228Y276890D01*
X3038228Y266890D01*
X3028228D01*
X3038228Y256890D01*
X3028228Y246890D01*
X3038228D01*
X3048228Y236890D01*
X2404412Y964250D02*
X2414412Y974250D01*
X2424412D01*
X2414412Y984250D01*
X2424412Y994250D01*
X2414412D01*
X2404412Y1004250D01*
X2394412Y994250D01*
X2384412D01*
X2394412Y984250D01*
X2384412Y974250D01*
X2394412D01*
X2404412Y964250D01*
X2225208Y630078D02*
X2235208Y640078D01*
X2245208D01*
X2235208Y650078D01*
X2245208Y660078D01*
X2235208D01*
X2225208Y670078D01*
X2215208Y660078D01*
X2205208D01*
X2215208Y650078D01*
X2205208Y640078D01*
X2215208D01*
X2225208Y630078D01*
X2299208Y602046D02*
X2309208Y612046D01*
X2319208D01*
X2309208Y622046D01*
X2319208Y632046D01*
X2309208D01*
X2299208Y642046D01*
X2289208Y632046D01*
X2279208D01*
X2289208Y622046D01*
X2279208Y612046D01*
X2289208D01*
X2299208Y602046D01*
X1416947Y1413071D02*
X1426947Y1423071D01*
X1436947D01*
X1426947Y1433071D01*
X1436947Y1443071D01*
X1426947D01*
X1416947Y1453071D01*
X1406947Y1443071D01*
X1396947D01*
X1406947Y1433071D01*
X1396947Y1423071D01*
X1406947D01*
X1416947Y1413071D01*
X2732284Y196535D02*
X2742284Y206535D01*
X2752284D01*
X2742284Y216535D01*
X2752284Y226535D01*
X2742284D01*
X2732284Y236535D01*
X2722284Y226535D01*
X2712284D01*
X2722284Y216535D01*
X2712284Y206535D01*
X2722284D01*
X2732284Y196535D01*
X1696998Y1283150D02*
X1706998Y1293150D01*
X1716998D01*
X1706998Y1303150D01*
X1716998Y1313150D01*
X1706998D01*
X1696998Y1323150D01*
X1686998Y1313150D01*
X1676998D01*
X1686998Y1303150D01*
X1676998Y1293150D01*
X1686998D01*
X1696998Y1283150D01*
X2293307Y864886D02*
X2303307Y874886D01*
X2313307D01*
X2303307Y884886D01*
X2313307Y894886D01*
X2303307D01*
X2293307Y904886D01*
X2283307Y894886D01*
X2273307D01*
X2283307Y884886D01*
X2273307Y874886D01*
X2283307D01*
X2293307Y864886D01*
X1036417Y1629606D02*
X1046417Y1639606D01*
X1056417D01*
X1046417Y1649606D01*
X1056417Y1659606D01*
X1046417D01*
X1036417Y1669606D01*
X1026417Y1659606D01*
X1016417D01*
X1026417Y1649606D01*
X1016417Y1639606D01*
X1026417D01*
X1036417Y1629606D01*
X1060305Y1365827D02*
X1070305Y1375827D01*
X1080305D01*
X1070305Y1385827D01*
X1080305Y1395827D01*
X1070305D01*
X1060305Y1405827D01*
X1050305Y1395827D01*
X1040305D01*
X1050305Y1385827D01*
X1040305Y1375827D01*
X1050305D01*
X1060305Y1365827D01*
X3054260Y489842D02*
X3064260Y499842D01*
X3074260D01*
X3064260Y509842D01*
X3074260Y519842D01*
X3064260D01*
X3054260Y529842D01*
X3044260Y519842D01*
X3034260D01*
X3044260Y509842D01*
X3034260Y499842D01*
X3044260D01*
X3054260Y489842D01*
X1969488Y1425866D02*
X1979488Y1435866D01*
X1989488D01*
X1979488Y1445866D01*
X1989488Y1455866D01*
X1979488D01*
X1969488Y1465866D01*
X1959488Y1455866D01*
X1949488D01*
X1959488Y1445866D01*
X1949488Y1435866D01*
X1959488D01*
X1969488Y1425866D01*
X2067913Y1177047D02*
X2077913Y1187047D01*
X2087913D01*
X2077913Y1197047D01*
X2087913Y1207047D01*
X2077913D01*
X2067913Y1217047D01*
X2057913Y1207047D01*
X2047913D01*
X2057913Y1197047D01*
X2047913Y1187047D01*
X2057913D01*
X2067913Y1177047D01*
X539370Y595158D02*
X549370Y605158D01*
X559370D01*
X549370Y615158D01*
X559370Y625158D01*
X549370D01*
X539370Y635158D01*
X529370Y625158D01*
X519370D01*
X529370Y615158D01*
X519370Y605158D01*
X529370D01*
X539370Y595158D01*
X523622Y825577D02*
X533622Y835577D01*
X543622D01*
X533622Y845577D01*
X543622Y855577D01*
X533622D01*
X523622Y865577D01*
X513622Y855577D01*
X503622D01*
X513622Y845577D01*
X503622Y835577D01*
X513622D01*
X523622Y825577D01*
X777758Y1157790D02*
X787758Y1167790D01*
X797758D01*
X787758Y1177790D01*
X797758Y1187790D01*
X787758D01*
X777758Y1197790D01*
X767758Y1187790D01*
X757758D01*
X767758Y1177790D01*
X757758Y1167790D01*
X767758D01*
X777758Y1157790D01*
X2308059Y1050866D02*
X2318059Y1060866D01*
X2328059D01*
X2318059Y1070866D01*
X2328059Y1080866D01*
X2318059D01*
X2308059Y1090866D01*
X2298059Y1080866D01*
X2288059D01*
X2298059Y1070866D01*
X2288059Y1060866D01*
X2298059D01*
X2308059Y1050866D01*
X2539370Y1180787D02*
X2549370Y1190787D01*
X2559370D01*
X2549370Y1200787D01*
X2559370Y1210787D01*
X2549370D01*
X2539370Y1220787D01*
X2529370Y1210787D01*
X2519370D01*
X2529370Y1200787D01*
X2519370Y1190787D01*
X2529370D01*
X2539370Y1180787D01*
X2459235Y1559882D02*
X2469235Y1569882D01*
X2479235D01*
X2469235Y1579882D01*
X2479235Y1589882D01*
X2469235D01*
X2459235Y1599882D01*
X2449235Y1589882D01*
X2439235D01*
X2449235Y1579882D01*
X2439235Y1569882D01*
X2449235D01*
X2459235Y1559882D01*
X3051181Y1548898D02*
X3061181Y1558898D01*
X3071181D01*
X3061181Y1568898D01*
X3071181Y1578898D01*
X3061181D01*
X3051181Y1588898D01*
X3041181Y1578898D01*
X3031181D01*
X3041181Y1568898D01*
X3031181Y1558898D01*
X3041181D01*
X3051181Y1548898D01*
X1624016Y819567D02*
X1634016Y829567D01*
X1644016D01*
X1634016Y839567D01*
X1644016Y849567D01*
X1634016D01*
X1624016Y859567D01*
X1614016Y849567D01*
X1604016D01*
X1614016Y839567D01*
X1604016Y829567D01*
X1614016D01*
X1624016Y819567D01*
X2615157Y758427D02*
X2625157Y768427D01*
X2635157D01*
X2625157Y778427D01*
X2635157Y788427D01*
X2625157D01*
X2615157Y798427D01*
X2605157Y788427D01*
X2595157D01*
X2605157Y778427D01*
X2595157Y768427D01*
X2605157D01*
X2615157Y758427D01*
X2625984Y664055D02*
X2635984Y674055D01*
X2645984D01*
X2635984Y684055D01*
X2645984Y694055D01*
X2635984D01*
X2625984Y704055D01*
X2615984Y694055D01*
X2605984D01*
X2615984Y684055D01*
X2605984Y674055D01*
X2615984D01*
X2625984Y664055D01*
X2531496Y749685D02*
X2541496Y759685D01*
X2551496D01*
X2541496Y769685D01*
X2551496Y779685D01*
X2541496D01*
X2531496Y789685D01*
X2521496Y779685D01*
X2511496D01*
X2521496Y769685D01*
X2511496Y759685D01*
X2521496D01*
X2531496Y749685D01*
X2588583Y917992D02*
X2598583Y927992D01*
X2608583D01*
X2598583Y937992D01*
X2608583Y947992D01*
X2598583D01*
X2588583Y957992D01*
X2578583Y947992D01*
X2568583D01*
X2578583Y937992D01*
X2568583Y927992D01*
X2578583D01*
X2588583Y917992D01*
X2262795Y921929D02*
X2272795Y931929D01*
X2282795D01*
X2272795Y941929D01*
X2282795Y951929D01*
X2272795D01*
X2262795Y961929D01*
X2252795Y951929D01*
X2242795D01*
X2252795Y941929D01*
X2242795Y931929D01*
X2252795D01*
X2262795Y921929D01*
X2836614Y567598D02*
X2846614Y577598D01*
X2856614D01*
X2846614Y587598D01*
X2856614Y597598D01*
X2846614D01*
X2836614Y607598D01*
X2826614Y597598D01*
X2816614D01*
X2826614Y587598D01*
X2816614Y577598D01*
X2826614D01*
X2836614Y567598D01*
X2750984D02*
X2760984Y577598D01*
X2770984D01*
X2760984Y587598D01*
X2770984Y597598D01*
X2760984D01*
X2750984Y607598D01*
X2740984Y597598D01*
X2730984D01*
X2740984Y587598D01*
X2730984Y577598D01*
X2740984D01*
X2750984Y567598D01*
X2177092Y1023566D02*
X2187092Y1033565D01*
X2197092D01*
X2187092Y1043565D01*
X2197092Y1053565D01*
X2187092D01*
X2177092Y1063565D01*
X2167092Y1053565D01*
X2157092D01*
X2167092Y1043565D01*
X2157092Y1033565D01*
X2167092D01*
X2177092Y1023566D01*
X1677165Y609920D02*
X1687165Y619920D01*
X1697165D01*
X1687165Y629920D01*
X1697165Y639920D01*
X1687165D01*
X1677165Y649920D01*
X1667165Y639920D01*
X1657165D01*
X1667165Y629920D01*
X1657165Y619920D01*
X1667165D01*
X1677165Y609920D01*
Y658543D02*
X1687165Y668543D01*
X1697165D01*
X1687165Y678543D01*
X1697165Y688543D01*
X1687165D01*
X1677165Y698543D01*
X1667165Y688543D01*
X1657165D01*
X1667165Y678543D01*
X1657165Y668543D01*
X1667165D01*
X1677165Y658543D01*
X1308071Y1420945D02*
X1318071Y1430945D01*
X1328071D01*
X1318071Y1440945D01*
X1328071Y1450945D01*
X1318071D01*
X1308071Y1460945D01*
X1298071Y1450945D01*
X1288071D01*
X1298071Y1440945D01*
X1288071Y1430945D01*
X1298071D01*
X1308071Y1420945D01*
X1762795Y1426454D02*
X1772795Y1436454D01*
X1782795D01*
X1772795Y1446454D01*
X1782795Y1456454D01*
X1772795D01*
X1762795Y1466454D01*
X1752795Y1456454D01*
X1742795D01*
X1752795Y1446454D01*
X1742795Y1436454D01*
X1752795D01*
X1762795Y1426454D01*
X929134Y790852D02*
X939134Y800852D01*
X949134D01*
X939134Y810852D01*
X949134Y820852D01*
X939134D01*
X929134Y830852D01*
X919134Y820852D01*
X909134D01*
X919134Y810852D01*
X909134Y800852D01*
X919134D01*
X929134Y790852D01*
X889764Y669968D02*
X899764Y679968D01*
X909764D01*
X899764Y689968D01*
X909764Y699968D01*
X899764D01*
X889764Y709968D01*
X879764Y699968D01*
X869764D01*
X879764Y689968D01*
X869764Y679968D01*
X879764D01*
X889764Y669968D01*
X2601378Y1322183D02*
X2611378Y1332183D01*
X2621378D01*
X2611378Y1342183D01*
X2621378Y1352183D01*
X2611378D01*
X2601378Y1362183D01*
X2591378Y1352183D01*
X2581378D01*
X2591378Y1342183D01*
X2581378Y1332183D01*
X2591378D01*
X2601378Y1322183D01*
X2767716Y1446535D02*
X2777716Y1456535D01*
X2787716D01*
X2777716Y1466535D01*
X2787716Y1476535D01*
X2777716D01*
X2767716Y1486535D01*
X2757716Y1476535D01*
X2747716D01*
X2757716Y1466535D01*
X2747716Y1456535D01*
X2757716D01*
X2767716Y1446535D01*
X2192913Y1117795D02*
X2202913Y1127795D01*
X2212913D01*
X2202913Y1137795D01*
X2212913Y1147795D01*
X2202913D01*
X2192913Y1157795D01*
X2182913Y1147795D01*
X2172913D01*
X2182913Y1137795D01*
X2172913Y1127795D01*
X2182913D01*
X2192913Y1117795D01*
X2344488Y962599D02*
X2354488Y972599D01*
X2364488D01*
X2354488Y982599D01*
X2364488Y992599D01*
X2354488D01*
X2344488Y1002599D01*
X2334488Y992599D01*
X2324488D01*
X2334488Y982599D01*
X2324488Y972599D01*
X2334488D01*
X2344488Y962599D01*
X2119992Y590236D02*
X2129992Y600236D01*
X2139992D01*
X2129992Y610236D01*
X2139992Y620236D01*
X2129992D01*
X2119992Y630236D01*
X2109992Y620236D01*
X2099992D01*
X2109992Y610236D01*
X2099992Y600236D01*
X2109992D01*
X2119992Y590236D01*
X2081992D02*
X2091992Y600236D01*
X2101992D01*
X2091992Y610236D01*
X2101992Y620236D01*
X2091992D01*
X2081992Y630236D01*
X2071992Y620236D01*
X2061992D01*
X2071992Y610236D01*
X2061992Y600236D01*
X2071992D01*
X2081992Y590236D01*
X2005992D02*
X2015992Y600236D01*
X2025992D01*
X2015992Y610236D01*
X2025992Y620236D01*
X2015992D01*
X2005992Y630236D01*
X1995992Y620236D01*
X1985992D01*
X1995992Y610236D01*
X1985992Y600236D01*
X1995992D01*
X2005992Y590236D01*
X2177161Y708345D02*
X2187161Y718345D01*
X2197161D01*
X2187161Y728345D01*
X2197161Y738345D01*
X2187161D01*
X2177161Y748345D01*
X2167161Y738345D01*
X2157161D01*
X2167161Y728345D01*
X2157161Y718345D01*
X2167161D01*
X2177161Y708345D01*
X2397633Y680786D02*
X2407633Y690786D01*
X2417633D01*
X2407633Y700786D01*
X2417633Y710786D01*
X2407633D01*
X2397633Y720786D01*
X2387633Y710786D01*
X2377633D01*
X2387633Y700786D01*
X2377633Y690786D01*
X2387633D01*
X2397633Y680786D01*
X2342520Y716221D02*
X2352520Y726221D01*
X2362520D01*
X2352520Y736221D01*
X2362520Y746221D01*
X2352520D01*
X2342520Y756221D01*
X2332520Y746221D01*
X2322520D01*
X2332520Y736221D01*
X2322520Y726221D01*
X2332520D01*
X2342520Y716221D01*
X2043992Y590236D02*
X2053992Y600236D01*
X2063992D01*
X2053992Y610236D01*
X2063992Y620236D01*
X2053992D01*
X2043992Y630236D01*
X2033992Y620236D01*
X2023992D01*
X2033992Y610236D01*
X2023992Y600236D01*
X2033992D01*
X2043992Y590236D01*
X2342520Y598110D02*
X2352520Y608110D01*
X2362520D01*
X2352520Y618110D01*
X2362520Y628110D01*
X2352520D01*
X2342520Y638110D01*
X2332520Y628110D01*
X2322520D01*
X2332520Y618110D01*
X2322520Y608110D01*
X2332520D01*
X2342520Y598110D01*
X1314961Y1042992D02*
X1324961Y1052992D01*
X1334961D01*
X1324961Y1062992D01*
X1334961Y1072992D01*
X1324961D01*
X1314961Y1082992D01*
X1304961Y1072992D01*
X1294961D01*
X1304961Y1062992D01*
X1294961Y1052992D01*
X1304961D01*
X1314961Y1042992D01*
X1267716Y1029114D02*
X1277716Y1039114D01*
X1287716D01*
X1277716Y1049114D01*
X1287716Y1059114D01*
X1277716D01*
X1267716Y1069114D01*
X1257716Y1059114D01*
X1247716D01*
X1257716Y1049114D01*
X1247716Y1039114D01*
X1257716D01*
X1267716Y1029114D01*
X1299213Y720158D02*
X1309213Y730158D01*
X1319213D01*
X1309213Y740158D01*
X1319213Y750158D01*
X1309213D01*
X1299213Y760158D01*
X1289213Y750158D01*
X1279213D01*
X1289213Y740158D01*
X1279213Y730158D01*
X1289213D01*
X1299213Y720158D01*
X1287402Y808963D02*
X1297402Y818963D01*
X1307402D01*
X1297402Y828963D01*
X1307402Y838963D01*
X1297402D01*
X1287402Y848963D01*
X1277402Y838963D01*
X1267402D01*
X1277402Y828963D01*
X1267402Y818963D01*
X1277402D01*
X1287402Y808963D01*
X1479331Y1432756D02*
X1489331Y1442756D01*
X1499331D01*
X1489331Y1452756D01*
X1499331Y1462756D01*
X1489331D01*
X1479331Y1472756D01*
X1469331Y1462756D01*
X1459331D01*
X1469331Y1452756D01*
X1459331Y1442756D01*
X1469331D01*
X1479331Y1432756D01*
Y1305787D02*
X1489331Y1315787D01*
X1499331D01*
X1489331Y1325787D01*
X1499331Y1335787D01*
X1489331D01*
X1479331Y1345787D01*
X1469331Y1335787D01*
X1459331D01*
X1469331Y1325787D01*
X1459331Y1315787D01*
X1469331D01*
X1479331Y1305787D01*
X1157480Y1601063D02*
X1167480Y1611063D01*
X1177480D01*
X1167480Y1621063D01*
X1177480Y1631063D01*
X1167480D01*
X1157480Y1641063D01*
X1147480Y1631063D01*
X1137480D01*
X1147480Y1621063D01*
X1137480Y1611063D01*
X1147480D01*
X1157480Y1601063D01*
X2094488Y432756D02*
X2104488Y442756D01*
X2114488D01*
X2104488Y452756D01*
X2114488Y462756D01*
X2104488D01*
X2094488Y472756D01*
X2084488Y462756D01*
X2074488D01*
X2084488Y452756D01*
X2074488Y442756D01*
X2084488D01*
X2094488Y432756D01*
X1578445Y964252D02*
X1588445Y974252D01*
X1598445D01*
X1588445Y984252D01*
X1598445Y994252D01*
X1588445D01*
X1578445Y1004252D01*
X1568445Y994252D01*
X1558445D01*
X1568445Y984252D01*
X1558445Y974252D01*
X1568445D01*
X1578445Y964252D01*
X1755906Y893386D02*
X1765906Y903386D01*
X1775906D01*
X1765906Y913386D01*
X1775906Y923386D01*
X1765906D01*
X1755906Y933386D01*
X1745906Y923386D01*
X1735906D01*
X1745906Y913386D01*
X1735906Y903386D01*
X1745906D01*
X1755906Y893386D01*
X1685039Y1029114D02*
X1695039Y1039114D01*
X1705039D01*
X1695039Y1049114D01*
X1705039Y1059114D01*
X1695039D01*
X1685039Y1069114D01*
X1675039Y1059114D01*
X1665039D01*
X1675039Y1049114D01*
X1665039Y1039114D01*
X1675039D01*
X1685039Y1029114D01*
X1677165Y562677D02*
X1687165Y572677D01*
X1697165D01*
X1687165Y582677D01*
X1697165Y592677D01*
X1687165D01*
X1677165Y602677D01*
X1667165Y592677D01*
X1657165D01*
X1667165Y582677D01*
X1657165Y572677D01*
X1667165D01*
X1677165Y562677D01*
X2887739Y178819D02*
X2897739Y188819D01*
X2907739D01*
X2897739Y198819D01*
X2907739Y208819D01*
X2897739D01*
X2887739Y218819D01*
X2877739Y208819D01*
X2867739D01*
X2877739Y198819D01*
X2867739Y188819D01*
X2877739D01*
X2887739Y178819D01*
X3042244Y183740D02*
X3052244Y193740D01*
X3062244D01*
X3052244Y203740D01*
X3062244Y213740D01*
X3052244D01*
X3042244Y223740D01*
X3032244Y213740D01*
X3022244D01*
X3032244Y203740D01*
X3022244Y193740D01*
X3032244D01*
X3042244Y183740D01*
X2968504Y345617D02*
X2978504Y355617D01*
X2988504D01*
X2978504Y365617D01*
X2988504Y375617D01*
X2978504D01*
X2968504Y385617D01*
X2958504Y375617D01*
X2948504D01*
X2958504Y365617D01*
X2948504Y355617D01*
X2958504D01*
X2968504Y345617D01*
X2956737Y422867D02*
X2966737Y432867D01*
X2976737D01*
X2966737Y442867D01*
X2976737Y452867D01*
X2966737D01*
X2956737Y462867D01*
X2946737Y452867D01*
X2936737D01*
X2946737Y442867D01*
X2936737Y432867D01*
X2946737D01*
X2956737Y422867D01*
X2633858Y88731D02*
X2643858Y98731D01*
X2653858D01*
X2643858Y108731D01*
X2653858Y118731D01*
X2643858D01*
X2633858Y128731D01*
X2623858Y118731D01*
X2613858D01*
X2623858Y108731D01*
X2613858Y98731D01*
X2623858D01*
X2633858Y88731D01*
X2623805Y418011D02*
X2633805Y428011D01*
X2643805D01*
X2633805Y438011D01*
X2643805Y448011D01*
X2633805D01*
X2623805Y458011D01*
X2613805Y448011D01*
X2603805D01*
X2613805Y438011D01*
X2603805Y428011D01*
X2613805D01*
X2623805Y418011D01*
X1490505Y459336D02*
X1500505Y469336D01*
X1510505D01*
X1500505Y479336D01*
X1510505Y489336D01*
X1500505D01*
X1490505Y499336D01*
X1480505Y489336D01*
X1470505D01*
X1480505Y479336D01*
X1470505Y469336D01*
X1480505D01*
X1490505Y459336D01*
X1343080Y568571D02*
X1353080Y578571D01*
X1363080D01*
X1353080Y588571D01*
X1363080Y598571D01*
X1353080D01*
X1343080Y608571D01*
X1333080Y598571D01*
X1323080D01*
X1333080Y588571D01*
X1323080Y578571D01*
X1333080D01*
X1343080Y568571D01*
X1137795Y511496D02*
X1147795Y521496D01*
X1157795D01*
X1147795Y531496D01*
X1157795Y541496D01*
X1147795D01*
X1137795Y551496D01*
X1127795Y541496D01*
X1117795D01*
X1127795Y531496D01*
X1117795Y521496D01*
X1127795D01*
X1137795Y511496D01*
X988189Y397323D02*
X998189Y407323D01*
X1008189D01*
X998189Y417323D01*
X1008189Y427323D01*
X998189D01*
X988189Y437323D01*
X978189Y427323D01*
X968189D01*
X978189Y417323D01*
X968189Y407323D01*
X978189D01*
X988189Y397323D01*
Y262652D02*
X998189Y272652D01*
X1008189D01*
X998189Y282652D01*
X1008189Y292652D01*
X998189D01*
X988189Y302652D01*
X978189Y292652D01*
X968189D01*
X978189Y282652D01*
X968189Y272652D01*
X978189D01*
X988189Y262652D01*
Y137480D02*
X998189Y147480D01*
X1008189D01*
X998189Y157480D01*
X1008189Y167480D01*
X998189D01*
X988189Y177480D01*
X978189Y167480D01*
X968189D01*
X978189Y157480D01*
X968189Y147480D01*
X978189D01*
X988189Y137480D01*
Y15433D02*
X998189Y25433D01*
X1008189D01*
X998189Y35433D01*
X1008189Y45433D01*
X998189D01*
X988189Y55433D01*
X978189Y45433D01*
X968189D01*
X978189Y35433D01*
X968189Y25433D01*
X978189D01*
X988189Y15433D01*
X1685039Y1078425D02*
X1695039Y1088425D01*
X1705039D01*
X1695039Y1098425D01*
X1705039Y1108425D01*
X1695039D01*
X1685039Y1118425D01*
X1675039Y1108425D01*
X1665039D01*
X1675039Y1098425D01*
X1665039Y1088425D01*
X1675039D01*
X1685039Y1078425D01*
Y1125669D02*
X1695039Y1135669D01*
X1705039D01*
X1695039Y1145669D01*
X1705039Y1155669D01*
X1695039D01*
X1685039Y1165669D01*
X1675039Y1155669D01*
X1665039D01*
X1675039Y1145669D01*
X1665039Y1135669D01*
X1675039D01*
X1685039Y1125669D01*
X2228347Y436693D02*
X2238347Y446693D01*
X2248347D01*
X2238347Y456693D01*
X2248347Y466693D01*
X2238347D01*
X2228347Y476693D01*
X2218347Y466693D01*
X2208347D01*
X2218347Y456693D01*
X2208347Y446693D01*
X2218347D01*
X2228347Y436693D01*
X2185039Y439449D02*
X2195039Y449449D01*
X2205039D01*
X2195039Y459449D01*
X2205039Y469449D01*
X2195039D01*
X2185039Y479449D01*
X2175039Y469449D01*
X2165039D01*
X2175039Y459449D01*
X2165039Y449449D01*
X2175039D01*
X2185039Y439449D01*
X2047244Y436693D02*
X2057244Y446693D01*
X2067244D01*
X2057244Y456693D01*
X2067244Y466693D01*
X2057244D01*
X2047244Y476693D01*
X2037244Y466693D01*
X2027244D01*
X2037244Y456693D01*
X2027244Y446693D01*
X2037244D01*
X2047244Y436693D01*
X1917323Y944567D02*
X1927323Y954567D01*
X1937323D01*
X1927323Y964567D01*
X1937323Y974567D01*
X1927323D01*
X1917323Y984567D01*
X1907323Y974567D01*
X1897323D01*
X1907323Y964567D01*
X1897323Y954567D01*
X1907323D01*
X1917323Y944567D01*
X2574606Y1381575D02*
X2584606Y1391575D01*
X2594606D01*
X2584606Y1401575D01*
X2594606Y1411575D01*
X2584606D01*
X2574606Y1421575D01*
X2564606Y1411575D01*
X2554606D01*
X2564606Y1401575D01*
X2554606Y1391575D01*
X2564606D01*
X2574606Y1381575D01*
X2523622Y1428819D02*
X2533622Y1438819D01*
X2543622D01*
X2533622Y1448819D01*
X2543622Y1458819D01*
X2533622D01*
X2523622Y1468819D01*
X2513622Y1458819D01*
X2503622D01*
X2513622Y1448819D01*
X2503622Y1438819D01*
X2513622D01*
X2523622Y1428819D01*
X1967992Y590236D02*
X1977992Y600236D01*
X1987992D01*
X1977992Y610236D01*
X1987992Y620236D01*
X1977992D01*
X1967992Y630236D01*
X1957992Y620236D01*
X1947992D01*
X1957992Y610236D01*
X1947992Y600236D01*
X1957992D01*
X1967992Y590236D01*
X2196850Y1369764D02*
X2206850Y1379764D01*
X2216850D01*
X2206850Y1389764D01*
X2216850Y1399764D01*
X2206850D01*
X2196850Y1409764D01*
X2186850Y1399764D01*
X2176850D01*
X2186850Y1389764D01*
X2176850Y1379764D01*
X2186850D01*
X2196850Y1369764D01*
X2291780Y1397323D02*
X2301780Y1407323D01*
X2311780D01*
X2301780Y1417323D01*
X2311780Y1427323D01*
X2301780D01*
X2291780Y1437323D01*
X2281780Y1427323D01*
X2271780D01*
X2281780Y1417323D01*
X2271780Y1407323D01*
X2281780D01*
X2291780Y1397323D01*
X2472441Y1401260D02*
X2482441Y1411260D01*
X2492441D01*
X2482441Y1421260D01*
X2492441Y1431260D01*
X2482441D01*
X2472441Y1441260D01*
X2462441Y1431260D01*
X2452441D01*
X2462441Y1421260D01*
X2452441Y1411260D01*
X2462441D01*
X2472441Y1401260D01*
X2362205Y1145354D02*
X2372205Y1155354D01*
X2382205D01*
X2372205Y1165354D01*
X2382205Y1175354D01*
X2372205D01*
X2362205Y1185354D01*
X2352205Y1175354D01*
X2342205D01*
X2352205Y1165354D01*
X2342205Y1155354D01*
X2352205D01*
X2362205Y1145354D01*
X3169291Y944567D02*
X3179291Y954567D01*
X3189291D01*
X3179291Y964567D01*
X3189291Y974567D01*
X3179291D01*
X3169291Y984567D01*
X3159291Y974567D01*
X3149291D01*
X3159291Y964567D01*
X3149291Y954567D01*
X3159291D01*
X3169291Y944567D01*
X3011811Y1082362D02*
X3021811Y1092362D01*
X3031811D01*
X3021811Y1102362D01*
X3031811Y1112362D01*
X3021811D01*
X3011811Y1122362D01*
X3001811Y1112362D01*
X2991811D01*
X3001811Y1102362D01*
X2991811Y1092362D01*
X3001811D01*
X3011811Y1082362D01*
X2755905Y1086299D02*
X2765905Y1096299D01*
X2775905D01*
X2765905Y1106299D01*
X2775905Y1116299D01*
X2765905D01*
X2755905Y1126299D01*
X2745905Y1116299D01*
X2735905D01*
X2745905Y1106299D01*
X2735905Y1096299D01*
X2745905D01*
X2755905Y1086299D01*
X3196850Y672913D02*
X3206850Y682913D01*
X3216850D01*
X3206850Y692913D01*
X3216850Y702913D01*
X3206850D01*
X3196850Y712913D01*
X3186850Y702913D01*
X3176850D01*
X3186850Y692913D01*
X3176850Y682913D01*
X3186850D01*
X3196850Y672913D01*
X3169291Y881575D02*
X3179291Y891575D01*
X3189291D01*
X3179291Y901575D01*
X3189291Y911575D01*
X3179291D01*
X3169291Y921575D01*
X3159291Y911575D01*
X3149291D01*
X3159291Y901575D01*
X3149291Y891575D01*
X3159291D01*
X3169291Y881575D01*
X1405512Y354016D02*
X1415512Y364016D01*
X1425512D01*
X1415512Y374016D01*
X1425512Y384016D01*
X1415512D01*
X1405512Y394016D01*
X1395512Y384016D01*
X1385512D01*
X1395512Y374016D01*
X1385512Y364016D01*
X1395512D01*
X1405512Y354016D01*
X3098425Y704409D02*
X3108425Y714409D01*
X3118425D01*
X3108425Y724409D01*
X3118425Y734409D01*
X3108425D01*
X3098425Y744409D01*
X3088425Y734409D01*
X3078425D01*
X3088425Y724409D01*
X3078425Y714409D01*
X3088425D01*
X3098425Y704409D01*
X3157825Y703376D02*
X3167825Y713376D01*
X3177825D01*
X3167825Y723376D01*
X3177825Y733376D01*
X3167825D01*
X3157825Y743376D01*
X3147825Y733376D01*
X3137825D01*
X3147825Y723376D01*
X3137825Y713376D01*
X3147825D01*
X3157825Y703376D01*
X3244095Y1507559D02*
X3254095Y1517559D01*
X3264095D01*
X3254095Y1527559D01*
X3264095Y1537559D01*
X3254095D01*
X3244095Y1547559D01*
X3234095Y1537559D01*
X3224095D01*
X3234095Y1527559D01*
X3224095Y1517559D01*
X3234095D01*
X3244095Y1507559D01*
X3559055Y1602047D02*
X3569055Y1612047D01*
X3579055D01*
X3569055Y1622047D01*
X3579055Y1632047D01*
X3569055D01*
X3559055Y1642047D01*
X3549055Y1632047D01*
X3539055D01*
X3549055Y1622047D01*
X3539055Y1612047D01*
X3549055D01*
X3559055Y1602047D01*
X2559055Y35118D02*
X2569055Y45118D01*
X2579055D01*
X2569055Y55118D01*
X2579055Y65118D01*
X2569055D01*
X2559055Y75118D01*
X2549055Y65118D01*
X2539055D01*
X2549055Y55118D01*
X2539055Y45118D01*
X2549055D01*
X2559055Y35118D01*
X2944882Y294961D02*
X2954882Y304961D01*
X2964882D01*
X2954882Y314961D01*
X2964882Y324961D01*
X2954882D01*
X2944882Y334961D01*
X2934882Y324961D01*
X2924882D01*
X2934882Y314961D01*
X2924882Y304961D01*
X2934882D01*
X2944882Y294961D01*
X2795276Y196535D02*
X2805276Y206535D01*
X2815276D01*
X2805276Y216535D01*
X2815276Y226535D01*
X2805276D01*
X2795276Y236535D01*
X2785276Y226535D01*
X2775276D01*
X2785276Y216535D01*
X2775276Y206535D01*
X2785276D01*
X2795276Y196535D01*
D75*
X3878268Y235236D02*
G03*
X3878268Y235236I-20000J0D01*
G01*
Y1514764D02*
G03*
X3878268Y1514764I-20000J0D01*
G01*
%TF.MD5,e4cbe1684edf46a5a45d5a9bb987a523*%
M02*
