%TF.GenerationSoftware,Altium Limited,Altium Designer,19.1.8 (144)*%
G04 Layer_Color=32768*
%FSLAX26Y26*%
%MOIN*%
%TF.FileFunction,Other,Mechanical_15*%
%TF.Part,Single*%
G01*
G75*
%TA.AperFunction,NonConductor*%
%ADD10C,0.010000*%
%ADD75C,0.003937*%
%ADD76C,0.001968*%
D10*
X3055133Y472441D02*
X3055148D01*
D75*
X2393701Y337598D02*
Y375000D01*
X2375000Y356299D02*
X2412402D01*
X3153543Y376969D02*
X3190945D01*
X3172244Y358268D02*
Y395669D01*
X3514764Y82677D02*
X3552165D01*
X3533465Y63977D02*
Y101378D01*
X2374213Y178150D02*
Y215551D01*
X2355512Y196850D02*
X2392914D01*
X3770669Y618110D02*
Y655512D01*
X3751968Y636811D02*
X3789370D01*
X2336614Y1071851D02*
Y1109252D01*
X2317913Y1090551D02*
X2355315D01*
X2336614Y918307D02*
Y955709D01*
X2317913Y937008D02*
X2355315D01*
X2273622Y1234252D02*
Y1271653D01*
X2254921Y1252953D02*
X2292323D01*
X1822835Y1234252D02*
Y1271653D01*
X1804134Y1252953D02*
X1841535D01*
X2251968Y178150D02*
Y215551D01*
X2233268Y196850D02*
X2270669D01*
X1196850Y993110D02*
X1236220D01*
X1216535Y973425D02*
Y1012795D01*
X2029527Y1284449D02*
X2068898D01*
X2049213Y1264764D02*
Y1304134D01*
X3506890Y300197D02*
X3546260D01*
X3526575Y280512D02*
Y319882D01*
X2035433Y197835D02*
X2074803D01*
X2055118Y178150D02*
Y217520D01*
X3445866Y1521654D02*
Y1561024D01*
X3426181Y1541339D02*
X3465551D01*
X588583Y1071851D02*
Y1109252D01*
X569882Y1090551D02*
X607283D01*
X2668307Y570866D02*
X2705709D01*
X2687008Y552165D02*
Y589567D01*
X3050197Y385827D02*
Y423228D01*
X3031496Y404528D02*
X3068898D01*
X1669201Y362205D02*
X1706602D01*
X1687902Y343504D02*
Y380906D01*
X1048228Y253937D02*
X1085630D01*
X1066929Y235236D02*
Y272638D01*
X2368110Y356299D02*
X2405512D01*
X2386811Y337598D02*
Y375000D01*
X3816929Y27559D02*
Y64961D01*
X3798228Y46260D02*
X3835630D01*
X1032466Y1312992D02*
X1069867D01*
X1051166Y1294291D02*
Y1331693D01*
X2158420Y1553150D02*
X2195821D01*
X2177120Y1534449D02*
Y1571850D01*
X1406466Y1553150D02*
X1443868D01*
X1425167Y1534449D02*
Y1571850D01*
X1032466Y1558071D02*
X1069867D01*
X1051166Y1539370D02*
Y1576772D01*
X1782178Y1552900D02*
X1819579D01*
X1800878Y1534199D02*
Y1571601D01*
X2780512Y79724D02*
X2817913D01*
X2799213Y61024D02*
Y98425D01*
X2779528Y329724D02*
X2816929D01*
X2798228Y311024D02*
Y348425D01*
X2917323Y132874D02*
Y172244D01*
X2897638Y152559D02*
X2937008D01*
X3584646Y168307D02*
Y207677D01*
X3564961Y187992D02*
X3604331D01*
X1307087Y619095D02*
Y656496D01*
X1288386Y637795D02*
X1325787D01*
X2625984Y1320866D02*
X2665354D01*
X2645669Y1301181D02*
Y1340551D01*
X2940945Y883858D02*
X2980315D01*
X2960630Y864173D02*
Y903543D01*
X2940945Y1103346D02*
X2980315D01*
X2960630Y1083661D02*
Y1123032D01*
X2622137Y883858D02*
X2661507D01*
X2641822Y864173D02*
Y903543D01*
X2622047Y1103346D02*
X2661417D01*
X2641732Y1083661D02*
Y1123032D01*
X775591Y634842D02*
Y674213D01*
X755905Y654528D02*
X795276D01*
X775591Y933091D02*
Y972461D01*
X755905Y952776D02*
X795276D01*
X2780512Y883858D02*
X2817913D01*
X2799213Y865157D02*
Y902559D01*
X2780512Y1103346D02*
X2817913D01*
X2799213Y1084646D02*
Y1122047D01*
X2461614Y883858D02*
X2499016D01*
X2480315Y865157D02*
Y902559D01*
X2461614Y1103346D02*
X2499016D01*
X2480315Y1084646D02*
Y1122047D01*
X3091535Y909449D02*
X3128937D01*
X3110236Y890748D02*
Y928149D01*
X3091535Y1077756D02*
X3128937D01*
X3110236Y1059055D02*
Y1096457D01*
X588583Y875000D02*
Y912402D01*
X569882Y893701D02*
X607283D01*
X588583Y973425D02*
Y1010827D01*
X569882Y992126D02*
X607283D01*
X910433Y584441D02*
X947835D01*
X929134Y565740D02*
Y603142D01*
X775591Y780512D02*
Y817913D01*
X756890Y799213D02*
X794291D01*
X3086535Y517557D02*
X3123937D01*
X3105236Y498856D02*
Y536257D01*
X3086535Y626288D02*
X3123937D01*
X3105236Y607587D02*
Y644989D01*
X2901575Y709646D02*
Y747047D01*
X2882874Y728346D02*
X2920276D01*
X1512795Y304134D02*
X1550197D01*
X1531496Y285433D02*
Y322834D01*
X1048228Y86614D02*
X1085630D01*
X1066929Y67913D02*
Y105315D01*
X2779528Y1320866D02*
X2816929D01*
X2798228Y1302166D02*
Y1339567D01*
X2461614Y1320866D02*
X2499016D01*
X2480315Y1302166D02*
Y1339567D01*
X2737953Y742126D02*
X2775354D01*
X2756654Y723425D02*
Y760827D01*
X3523622Y1461614D02*
Y1499016D01*
X3504921Y1480315D02*
X3542323D01*
X2894685Y330709D02*
X2932087D01*
X2913386Y312008D02*
Y349409D01*
X1229316Y1364173D02*
X1266717D01*
X1248016Y1345473D02*
Y1382874D01*
X2355270Y1604331D02*
X2392672D01*
X2373971Y1585630D02*
Y1623032D01*
X1130890Y1312992D02*
X1168292D01*
X1149591Y1294291D02*
Y1331693D01*
X2256845Y1553150D02*
X2294246D01*
X2275546Y1534449D02*
Y1571850D01*
X1603316Y1604331D02*
X1640718D01*
X1622017Y1585630D02*
Y1623032D01*
X1504891Y1553150D02*
X1542293D01*
X1523592Y1534449D02*
Y1571850D01*
X1229316Y1609252D02*
X1266717D01*
X1248016Y1590551D02*
Y1627953D01*
X1979028Y1604081D02*
X2016429D01*
X1997728Y1585380D02*
Y1622782D01*
X1130890Y1558071D02*
X1168292D01*
X1149591Y1539370D02*
Y1576772D01*
X1880602Y1552900D02*
X1918004D01*
X1899303Y1534199D02*
Y1571601D01*
X1560039Y973425D02*
Y1012795D01*
X1540354Y993110D02*
X1579724D01*
X1065200Y973425D02*
Y1012795D01*
X1045515Y993110D02*
X1084886D01*
X2882874Y572835D02*
X2922244D01*
X2902559Y553150D02*
Y592520D01*
X2041339Y326772D02*
Y366142D01*
X2021654Y346457D02*
X2061024D01*
X2051181Y973425D02*
Y1012795D01*
X2031496Y993110D02*
X2070866D01*
X2584646Y206693D02*
X2624016D01*
X2604331Y187008D02*
Y226378D01*
X1281496Y170275D02*
X1320866D01*
X1301181Y150590D02*
Y189960D01*
X2677165Y735236D02*
Y772638D01*
X2658465Y753937D02*
X2695866D01*
X2502953Y735236D02*
Y772638D01*
X2484252Y753937D02*
X2521654D01*
X2677165Y645669D02*
Y683071D01*
X2658465Y664370D02*
X2695866D01*
X2502953Y645669D02*
Y683071D01*
X2484252Y664370D02*
X2521654D01*
X3087599Y1410433D02*
Y1447835D01*
X3068898Y1429134D02*
X3106299D01*
X2913386Y1410433D02*
Y1447834D01*
X2894685Y1429134D02*
X2932087D01*
X3087599Y1320866D02*
Y1358268D01*
X3068898Y1339567D02*
X3106299D01*
X2913386Y1320866D02*
Y1358268D01*
X2894685Y1339567D02*
X2932087D01*
X2677165Y999016D02*
Y1036417D01*
X2658465Y1017716D02*
X2695866D01*
X2502953Y999016D02*
Y1036417D01*
X2484252Y1017716D02*
X2521654D01*
X2677165Y909449D02*
Y946850D01*
X2658465Y928150D02*
X2695866D01*
X2502953Y909449D02*
Y946850D01*
X2484252Y928150D02*
X2521654D01*
X3089567Y1126969D02*
Y1164370D01*
X3070866Y1145669D02*
X3108268D01*
X2915354Y1126968D02*
Y1164370D01*
X2896653Y1145669D02*
X2934055D01*
X3089567Y1037402D02*
Y1074803D01*
X3070866Y1056102D02*
X3108268D01*
X2915354Y1037402D02*
Y1074803D01*
X2896653Y1056102D02*
X2934055D01*
X2676181Y1260827D02*
Y1298228D01*
X2657480Y1279527D02*
X2694882D01*
X2501968Y1260827D02*
Y1298228D01*
X2483268Y1279527D02*
X2520669D01*
X2676181Y1171260D02*
Y1208661D01*
X2657480Y1189961D02*
X2694882D01*
X2501968Y1171260D02*
Y1208661D01*
X2483268Y1189961D02*
X2520669D01*
X2675197Y1544292D02*
Y1581693D01*
X2656496Y1562992D02*
X2693898D01*
X2500984Y1544291D02*
Y1581693D01*
X2482283Y1562992D02*
X2519685D01*
X2675197Y1454725D02*
Y1492126D01*
X2656496Y1473425D02*
X2693898D01*
X2500984Y1454725D02*
Y1492126D01*
X2482284Y1473425D02*
X2519685D01*
X3085630Y865158D02*
Y902559D01*
X3066929Y883858D02*
X3104331D01*
X2911417Y865157D02*
Y902559D01*
X2892716Y883858D02*
X2930118D01*
X3085630Y775591D02*
Y812992D01*
X3066929Y794291D02*
X3104331D01*
X2911417Y775591D02*
Y812992D01*
X2892717Y794291D02*
X2930118D01*
X2912402Y511811D02*
Y549213D01*
X2893701Y530512D02*
X2931102D01*
X2912402Y601378D02*
Y638779D01*
X2893701Y620079D02*
X2931102D01*
X3086614Y601378D02*
Y638779D01*
X3067913Y620079D02*
X3105315D01*
X3086614Y511811D02*
Y549213D01*
X3067914Y530512D02*
X3105315D01*
X472456Y1750015D02*
X944897D01*
X472441Y1750000D02*
X472456Y1750015D01*
X472441Y472426D02*
Y1750000D01*
X944882Y1750000D02*
X4000030D01*
X472456Y0D02*
X4000030D01*
X472441Y472426D02*
X472456Y472411D01*
Y0D02*
Y472411D01*
X4000030Y0D02*
Y1750000D01*
X4000015Y1277574D02*
X4000030Y1277559D01*
X3527574Y1750015D02*
X3527589Y1750000D01*
X944882D02*
X944897Y1750015D01*
D76*
X2364173Y409449D02*
X2423228D01*
X2364173Y303150D02*
X2423228D01*
X2364173D02*
Y409449D01*
X2423228Y303150D02*
Y409449D01*
X3119095Y347441D02*
Y406496D01*
X3225394Y347441D02*
Y406496D01*
X3119095Y347441D02*
X3225394D01*
X3119095Y406496D02*
X3225394D01*
X3480315Y53150D02*
Y112205D01*
X3586614Y53150D02*
Y112205D01*
X3480315Y53150D02*
X3586614D01*
X3480315Y112205D02*
X3586614D01*
X2344685Y143701D02*
X2403740D01*
X2344685Y250000D02*
X2403740D01*
Y143701D02*
Y250000D01*
X2344685Y143701D02*
Y250000D01*
X3717520Y607283D02*
X3823819D01*
X3717520Y666338D02*
X3823819D01*
X3717520Y607283D02*
Y666338D01*
X3823819Y607283D02*
Y666338D01*
X2307087Y1143701D02*
X2366142D01*
X2307087Y1037402D02*
X2366142D01*
X2307087D02*
Y1143701D01*
X2366142Y1037402D02*
Y1143701D01*
X2307087Y883858D02*
X2366142D01*
X2307087Y990158D02*
X2366142D01*
Y883858D02*
Y990158D01*
X2307087Y883858D02*
Y990158D01*
X2244095Y1199803D02*
X2303150D01*
X2244095Y1306102D02*
X2303150D01*
Y1199803D02*
Y1306102D01*
X2244095Y1199803D02*
Y1306102D01*
X1793307Y1199803D02*
X1852362D01*
X1793307Y1306102D02*
X1852362D01*
Y1199803D02*
Y1306102D01*
X1793307Y1199803D02*
Y1306102D01*
X2222441Y143701D02*
X2281496D01*
X2222441Y250000D02*
X2281496D01*
Y143701D02*
Y250000D01*
X2222441Y143701D02*
Y250000D01*
X1362205Y810039D02*
Y1176181D01*
X1070866Y810039D02*
Y1176181D01*
X1362205D01*
X1070866Y810039D02*
X1362205D01*
X2193898Y1101378D02*
Y1467520D01*
X1904527Y1101378D02*
Y1467520D01*
X2193898D01*
X1904527Y1101378D02*
X2193898D01*
X3359252Y158465D02*
Y441929D01*
X3693898Y158465D02*
Y441929D01*
X3359252Y158465D02*
X3693898D01*
X3359252Y441929D02*
X3693898D01*
X2142716Y146654D02*
Y249016D01*
X1967520Y146654D02*
Y249016D01*
X2142716D01*
X1967520Y146654D02*
X2142716D01*
X3300197Y1433071D02*
X3591535D01*
X3300197Y1649606D02*
X3591535D01*
X3300197Y1433071D02*
Y1649606D01*
X3591535Y1433071D02*
Y1649606D01*
X535433Y1120079D02*
X641732D01*
X535433Y1061024D02*
X641732D01*
X535433D02*
Y1120079D01*
X641732Y1061024D02*
Y1120079D01*
X2657480Y517716D02*
Y624016D01*
X2716535Y517716D02*
Y624016D01*
X2657480Y517716D02*
X2716535D01*
X2657480Y624016D02*
X2716535D01*
X2997047Y375000D02*
X3103347D01*
X2997047Y434055D02*
X3103347D01*
Y375000D02*
Y434055D01*
X2997047Y375000D02*
Y434055D01*
X1658374Y309055D02*
Y415354D01*
X1717429Y309055D02*
Y415354D01*
X1658374Y309055D02*
X1717429D01*
X1658374Y415354D02*
X1717429D01*
X1096457Y200787D02*
Y307087D01*
X1037402Y200787D02*
Y307087D01*
X1096457D01*
X1037402Y200787D02*
X1096457D01*
X2357283Y303150D02*
Y409449D01*
X2416338Y303150D02*
Y409449D01*
X2357283Y303150D02*
X2416338D01*
X2357283Y409449D02*
X2416338D01*
X3763780Y75787D02*
X3870079D01*
X3763780Y16732D02*
X3870079D01*
X3763780D02*
Y75787D01*
X3870079Y16732D02*
Y75787D01*
X1080694Y1259842D02*
Y1366142D01*
X1021639Y1259842D02*
Y1366142D01*
X1080694D01*
X1021639Y1259842D02*
X1080694D01*
X2206648Y1500000D02*
Y1606299D01*
X2147593Y1500000D02*
Y1606299D01*
X2206648D01*
X2147593Y1500000D02*
X2206648D01*
X1454695D02*
Y1606299D01*
X1395639Y1500000D02*
Y1606299D01*
X1454695D01*
X1395639Y1500000D02*
X1454695D01*
X1080694Y1504921D02*
Y1611220D01*
X1021639Y1504921D02*
Y1611220D01*
X1080694D01*
X1021639Y1504921D02*
X1080694D01*
X1830406Y1499750D02*
Y1606049D01*
X1771351Y1499750D02*
Y1606049D01*
X1830406D01*
X1771351Y1499750D02*
X1830406D01*
X2828740Y26575D02*
Y132874D01*
X2769685Y26575D02*
Y132874D01*
X2828740D01*
X2769685Y26575D02*
X2828740D01*
X2827756Y276575D02*
Y382874D01*
X2768701Y276575D02*
Y382874D01*
X2827756D01*
X2768701Y276575D02*
X2827756D01*
X2872047Y245079D02*
X2962598D01*
X2872047Y60039D02*
X2962598D01*
Y245079D01*
X2872047Y60039D02*
Y245079D01*
X3466535Y369094D02*
X3702756D01*
X3466535Y6890D02*
X3702756D01*
Y369094D01*
X3466535Y6890D02*
Y369094D01*
X1277559Y584646D02*
X1336614D01*
X1277559Y690945D02*
X1336614D01*
X1277559Y584646D02*
Y690945D01*
X1336614Y584646D02*
Y690945D01*
X2569882Y1251969D02*
Y1389764D01*
X2721457Y1251969D02*
Y1389764D01*
X2569882D02*
X2721457D01*
X2569882Y1251969D02*
X2721457D01*
X2884843Y814961D02*
Y952756D01*
X3036417Y814961D02*
Y952756D01*
X2884843D02*
X3036417D01*
X2884843Y814961D02*
X3036417D01*
X2884843Y1034449D02*
Y1172244D01*
X3036417Y1034449D02*
Y1172244D01*
X2884843D02*
X3036417D01*
X2884843Y1034449D02*
X3036417D01*
X2566035Y814961D02*
Y952756D01*
X2717610Y814961D02*
Y952756D01*
X2566035D02*
X2717610D01*
X2566035Y814961D02*
X2717610D01*
X2565945Y1034449D02*
Y1172244D01*
X2717520Y1034449D02*
Y1172244D01*
X2565945D02*
X2717520D01*
X2565945Y1034449D02*
X2717520D01*
X706693Y578740D02*
X844488D01*
X706693Y730315D02*
X844488D01*
X706693Y578740D02*
Y730315D01*
X844488Y578740D02*
Y730315D01*
X706693Y876988D02*
X844488D01*
X706693Y1028563D02*
X844488D01*
X706693Y876988D02*
Y1028563D01*
X844488Y876988D02*
Y1028563D01*
X2828740Y830708D02*
Y937008D01*
X2769685Y830708D02*
Y937008D01*
X2828740D01*
X2769685Y830708D02*
X2828740D01*
Y1050197D02*
Y1156496D01*
X2769685Y1050197D02*
Y1156496D01*
X2828740D01*
X2769685Y1050197D02*
X2828740D01*
X2509843Y830708D02*
Y937008D01*
X2450787Y830708D02*
Y937008D01*
X2509843D01*
X2450787Y830708D02*
X2509843D01*
Y1050197D02*
Y1156496D01*
X2450787Y1050197D02*
Y1156496D01*
X2509843D01*
X2450787Y1050197D02*
X2509843D01*
X3139764Y856299D02*
Y962598D01*
X3080709Y856299D02*
Y962598D01*
X3139764D01*
X3080709Y856299D02*
X3139764D01*
X3080709Y1024606D02*
Y1130906D01*
X3139764Y1024606D02*
Y1130906D01*
X3080709Y1024606D02*
X3139764D01*
X3080709Y1130906D02*
X3139764D01*
X535433Y864173D02*
X641732D01*
X535433Y923228D02*
X641732D01*
Y864173D02*
Y923228D01*
X535433Y864173D02*
Y923228D01*
X535433Y1021654D02*
X641732D01*
X535433Y962598D02*
X641732D01*
X535433D02*
Y1021654D01*
X641732Y962598D02*
Y1021654D01*
X958661Y531291D02*
Y637591D01*
X899606Y531291D02*
Y637591D01*
X958661D01*
X899606Y531291D02*
X958661D01*
X722441Y828740D02*
X828740D01*
X722441Y769685D02*
X828740D01*
X722441D02*
Y828740D01*
X828740Y769685D02*
Y828740D01*
X3134764Y464407D02*
Y570706D01*
X3075708Y464407D02*
Y570706D01*
X3134764D01*
X3075708Y464407D02*
X3134764D01*
X3075709Y573139D02*
Y679438D01*
X3134764Y573139D02*
Y679438D01*
X3075709Y573139D02*
X3134764D01*
X3075709Y679438D02*
X3134764D01*
X2848425Y757874D02*
X2954724D01*
X2848425Y698819D02*
X2954724D01*
X2848425D02*
Y757874D01*
X2954724Y698819D02*
Y757874D01*
X1561024Y250984D02*
Y357283D01*
X1501968Y250984D02*
Y357283D01*
X1561024D01*
X1501968Y250984D02*
X1561024D01*
X1096457Y33464D02*
Y139764D01*
X1037401Y33464D02*
Y139764D01*
X1096457D01*
X1037401Y33464D02*
X1096457D01*
X2768701Y1267717D02*
Y1374016D01*
X2827756Y1267717D02*
Y1374016D01*
X2768701Y1267717D02*
X2827756D01*
X2768701Y1374016D02*
X2827756D01*
X2450787Y1267717D02*
Y1374016D01*
X2509842Y1267717D02*
Y1374016D01*
X2450787Y1267717D02*
X2509842D01*
X2450787Y1374016D02*
X2509842D01*
X2786181Y688976D02*
Y795276D01*
X2727126Y688976D02*
Y795276D01*
X2786181D01*
X2727126Y688976D02*
X2786181D01*
X3470472Y1509842D02*
X3576772D01*
X3470472Y1450787D02*
X3576772D01*
X3470472D02*
Y1509842D01*
X3576772Y1450787D02*
Y1509842D01*
X2883858Y277559D02*
Y383858D01*
X2942914Y277559D02*
Y383858D01*
X2883858Y277559D02*
X2942914D01*
X2883858Y383858D02*
X2942914D01*
X1218489Y1311024D02*
Y1417323D01*
X1277544Y1311024D02*
Y1417323D01*
X1218489Y1311024D02*
X1277544D01*
X1218489Y1417323D02*
X1277544D01*
X2344443Y1551181D02*
Y1657480D01*
X2403498Y1551181D02*
Y1657480D01*
X2344443Y1551181D02*
X2403498D01*
X2344443Y1657480D02*
X2403498D01*
X1120064Y1259842D02*
Y1366142D01*
X1179119Y1259842D02*
Y1366142D01*
X1120064Y1259842D02*
X1179119D01*
X1120064Y1366142D02*
X1179119D01*
X2246018Y1500000D02*
Y1606299D01*
X2305073Y1500000D02*
Y1606299D01*
X2246018Y1500000D02*
X2305073D01*
X2246018Y1606299D02*
X2305073D01*
X1592490Y1551181D02*
Y1657480D01*
X1651545Y1551181D02*
Y1657480D01*
X1592490Y1551181D02*
X1651545D01*
X1592490Y1657480D02*
X1651545D01*
X1494064Y1500000D02*
Y1606299D01*
X1553120Y1500000D02*
Y1606299D01*
X1494064Y1500000D02*
X1553120D01*
X1494064Y1606299D02*
X1553120D01*
X1218489Y1556102D02*
Y1662402D01*
X1277544Y1556102D02*
Y1662402D01*
X1218489Y1556102D02*
X1277544D01*
X1218489Y1662402D02*
X1277544D01*
X1968201Y1550931D02*
Y1657230D01*
X2027256Y1550931D02*
Y1657230D01*
X1968201Y1550931D02*
X2027256D01*
X1968201Y1657230D02*
X2027256D01*
X1120064Y1504921D02*
Y1611220D01*
X1179119Y1504921D02*
Y1611220D01*
X1120064Y1504921D02*
X1179119D01*
X1120064Y1611220D02*
X1179119D01*
X1869776Y1499750D02*
Y1606049D01*
X1928831Y1499750D02*
Y1606049D01*
X1869776Y1499750D02*
X1928831D01*
X1869776Y1606049D02*
X1928831D01*
X1414370Y810039D02*
X1705709D01*
X1414370Y1176181D02*
X1705709D01*
Y810039D02*
Y1176181D01*
X1414370Y810039D02*
Y1176181D01*
X920515Y810039D02*
X1209886D01*
X920515Y1176181D02*
X1209886D01*
Y810039D02*
Y1176181D01*
X920515Y810039D02*
Y1176181D01*
X2756890Y464567D02*
Y681102D01*
X3048228Y464567D02*
Y681102D01*
X2756890D02*
X3048228D01*
X2756890Y464567D02*
X3048228D01*
X1779528Y608268D02*
X2303150D01*
X1779528Y84645D02*
X2303150D01*
X1779528D02*
Y608268D01*
X2303150Y84645D02*
Y608268D01*
X1906496Y810039D02*
X2195866D01*
X1906496Y1176181D02*
X2195866D01*
Y810039D02*
Y1176181D01*
X1906496Y810039D02*
Y1176181D01*
X2746063Y39370D02*
Y374016D01*
X2462598Y39370D02*
Y374016D01*
X2746063D01*
X2462598Y39370D02*
X2746063D01*
X1429134Y41339D02*
Y299212D01*
X1173228Y41339D02*
X1429134D01*
X1173228D02*
Y299212D01*
X1429134D01*
X2624016Y783465D02*
X2730315D01*
X2624016Y724409D02*
X2730315D01*
Y783465D01*
X2624016Y724409D02*
Y783465D01*
X2449803Y724409D02*
X2556102D01*
X2449803Y783465D02*
X2556102D01*
X2449803Y724409D02*
Y783465D01*
X2556102Y724409D02*
Y783465D01*
X2624016Y634843D02*
X2730315D01*
X2624016Y693898D02*
X2730315D01*
X2624016Y634843D02*
Y693898D01*
X2730315Y634843D02*
Y693898D01*
X2449803Y634843D02*
X2556102D01*
X2449803Y693898D02*
X2556102D01*
X2449803Y634843D02*
Y693898D01*
X2556102Y634843D02*
Y693898D01*
X3034449Y1458661D02*
X3140748D01*
X3034449Y1399606D02*
X3140748D01*
Y1458661D01*
X3034449Y1399606D02*
Y1458661D01*
X2860236Y1399606D02*
X2966536D01*
X2860236Y1458661D02*
X2966536D01*
X2860236Y1399606D02*
Y1458661D01*
X2966536Y1399606D02*
Y1458661D01*
X3034449Y1310039D02*
X3140748D01*
X3034449Y1369094D02*
X3140748D01*
X3034449Y1310039D02*
Y1369094D01*
X3140748Y1310039D02*
Y1369094D01*
X2860236Y1310039D02*
X2966536D01*
X2860236Y1369094D02*
X2966536D01*
X2860236Y1310039D02*
Y1369094D01*
X2966536Y1310039D02*
Y1369094D01*
X2624016Y1047244D02*
X2730315D01*
X2624016Y988189D02*
X2730315D01*
Y1047244D01*
X2624016Y988189D02*
Y1047244D01*
X2449803Y988189D02*
X2556102D01*
X2449803Y1047244D02*
X2556102D01*
X2449803Y988189D02*
Y1047244D01*
X2556102Y988189D02*
Y1047244D01*
X2624016Y898622D02*
X2730315D01*
X2624016Y957677D02*
X2730315D01*
X2624016Y898622D02*
Y957677D01*
X2730315Y898622D02*
Y957677D01*
X2449803Y898622D02*
X2556102D01*
X2449803Y957677D02*
X2556102D01*
X2449803Y898622D02*
Y957677D01*
X2556102Y898622D02*
Y957677D01*
X3036417Y1175197D02*
X3142716D01*
X3036417Y1116142D02*
X3142716D01*
Y1175197D01*
X3036417Y1116142D02*
Y1175197D01*
X2862205Y1116142D02*
X2968504D01*
X2862205Y1175197D02*
X2968504D01*
X2862205Y1116142D02*
Y1175197D01*
X2968504Y1116142D02*
Y1175197D01*
X3036417Y1026575D02*
X3142716D01*
X3036417Y1085630D02*
X3142716D01*
X3036417Y1026575D02*
Y1085630D01*
X3142716Y1026575D02*
Y1085630D01*
X2862205Y1026575D02*
X2968504D01*
X2862205Y1085630D02*
X2968504D01*
X2862205Y1026575D02*
Y1085630D01*
X2968504Y1026575D02*
Y1085630D01*
X2623032Y1309055D02*
X2729331D01*
X2623032Y1250000D02*
X2729331D01*
Y1309055D01*
X2623032Y1250000D02*
Y1309055D01*
X2448819Y1250000D02*
X2555118D01*
X2448819Y1309055D02*
X2555118D01*
X2448819Y1250000D02*
Y1309055D01*
X2555118Y1250000D02*
Y1309055D01*
X2623032Y1160433D02*
X2729331D01*
X2623032Y1219488D02*
X2729331D01*
X2623032Y1160433D02*
Y1219488D01*
X2729331Y1160433D02*
Y1219488D01*
X2448819Y1160433D02*
X2555118D01*
X2448819Y1219488D02*
X2555118D01*
X2448819Y1160433D02*
Y1219488D01*
X2555118Y1160433D02*
Y1219488D01*
X2622047Y1592520D02*
X2728346D01*
X2622047Y1533465D02*
X2728346D01*
Y1592520D01*
X2622047Y1533465D02*
Y1592520D01*
X2447835Y1533465D02*
X2554134D01*
X2447835Y1592520D02*
X2554134D01*
X2447835Y1533465D02*
Y1592520D01*
X2554134Y1533465D02*
Y1592520D01*
X2622047Y1443898D02*
X2728347D01*
X2622047Y1502953D02*
X2728347D01*
X2622047Y1443898D02*
Y1502953D01*
X2728347Y1443898D02*
Y1502953D01*
X2447835Y1443898D02*
X2554134D01*
X2447835Y1502953D02*
X2554134D01*
X2447835Y1443898D02*
Y1502953D01*
X2554134Y1443898D02*
Y1502953D01*
X3032480Y913386D02*
X3138780D01*
X3032480Y854331D02*
X3138780D01*
Y913386D01*
X3032480Y854331D02*
Y913386D01*
X2858268Y854331D02*
X2964567D01*
X2858268Y913386D02*
X2964567D01*
X2858268Y854331D02*
Y913386D01*
X2964567Y854331D02*
Y913386D01*
X3032480Y764764D02*
X3138780D01*
X3032480Y823819D02*
X3138780D01*
X3032480Y764764D02*
Y823819D01*
X3138780Y764764D02*
Y823819D01*
X2858268Y764764D02*
X2964567D01*
X2858268Y823819D02*
X2964567D01*
X2858268Y764764D02*
Y823819D01*
X2964567Y764764D02*
Y823819D01*
X2859252Y500984D02*
X2965551D01*
X2859252Y560039D02*
X2965551D01*
X2859252Y500984D02*
Y560039D01*
X2965551Y500984D02*
Y560039D01*
X2859252Y590551D02*
X2965551D01*
X2859252Y649606D02*
X2965551D01*
X2859252Y590551D02*
Y649606D01*
X2965551Y590551D02*
Y649606D01*
X3033465Y649606D02*
X3139764D01*
X3033465Y590551D02*
X3139764D01*
Y649606D01*
X3033465Y590551D02*
Y649606D01*
Y500984D02*
X3139764D01*
X3033465Y560039D02*
X3139764D01*
X3033465Y500984D02*
Y560039D01*
X3139764Y500984D02*
Y560039D01*
%TF.MD5,7322a241d09a958d68832e9da1e06a8a*%
M02*
