G04*
G04 #@! TF.GenerationSoftware,Altium Limited,Altium Designer,20.0.11 (256)*
G04*
G04 Layer_Physical_Order=1*
G04 Layer_Color=255*
%FSLAX25Y25*%
%MOIN*%
G70*
G01*
G75*
%ADD13C,0.01000*%
%ADD16R,0.03543X0.03937*%
%ADD17R,0.03937X0.03543*%
%ADD18R,0.05118X0.04331*%
%ADD19R,0.04331X0.05118*%
%ADD20R,0.05709X0.05315*%
%ADD21R,0.21457X0.13780*%
%ADD22R,0.03543X0.03150*%
%ADD23R,0.03150X0.03543*%
%ADD24R,0.25197X0.21850*%
%ADD25R,0.11811X0.03937*%
%ADD26R,0.03740X0.03347*%
%ADD27R,0.03347X0.03740*%
%ADD28R,0.03500X0.01654*%
%ADD29R,0.05709X0.02362*%
%ADD30O,0.05709X0.02362*%
%ADD31R,0.01181X0.05315*%
%ADD32R,0.05315X0.01181*%
%ADD33R,0.14961X0.07874*%
%ADD34R,0.05906X0.07874*%
%ADD35R,0.09449X0.02992*%
%ADD59C,0.01500*%
%ADD60C,0.03000*%
%ADD61C,0.12992*%
%ADD62C,0.08661*%
%ADD63C,0.03000*%
G36*
X234727Y161040D02*
X234727Y160519D01*
X234727Y159949D01*
X234232Y159454D01*
X230225D01*
Y160347D01*
X224885D01*
Y159504D01*
X220480D01*
Y160544D01*
X214944D01*
Y158026D01*
X211819D01*
X211312Y157925D01*
X210882Y157638D01*
X207542Y154298D01*
X207197Y154529D01*
X206299Y154707D01*
X205402Y154529D01*
X204641Y154020D01*
X204133Y153260D01*
X203954Y152362D01*
X204133Y151465D01*
X204641Y150704D01*
X205402Y150196D01*
X206299Y150017D01*
X207197Y150196D01*
X207957Y150704D01*
X208466Y151465D01*
X208468Y151475D01*
X212368Y155375D01*
X214744D01*
Y153157D01*
X217712D01*
X220680D01*
Y155429D01*
X220480D01*
Y156343D01*
X224885D01*
Y155429D01*
X224685D01*
Y153256D01*
X230425D01*
Y155429D01*
X230225D01*
Y156294D01*
X234727D01*
Y155401D01*
X240067D01*
Y159819D01*
X240067Y160347D01*
X240067Y160917D01*
X240562Y161412D01*
X327839D01*
X344088Y145163D01*
X343820Y144517D01*
X247244Y144516D01*
X247244Y144516D01*
X246932Y144454D01*
X246667Y144278D01*
X246667Y144278D01*
X238793Y136404D01*
X238616Y136139D01*
X238554Y135827D01*
X238554Y135827D01*
Y133208D01*
X237854Y132918D01*
X227720Y143052D01*
X227798Y143445D01*
X227619Y144342D01*
X227111Y145103D01*
X226350Y145611D01*
X225453Y145790D01*
X224555Y145611D01*
X223795Y145103D01*
X223286Y144342D01*
X223108Y143445D01*
X223286Y142548D01*
X223795Y141787D01*
X224362Y141407D01*
X224089Y140748D01*
X223878Y140790D01*
X222980Y140611D01*
X222220Y140103D01*
X221711Y139342D01*
X221533Y138445D01*
X221711Y137548D01*
X222220Y136787D01*
X222980Y136278D01*
X223878Y136100D01*
X224270Y136178D01*
X234473Y125975D01*
Y105226D01*
X233826Y104958D01*
X223536Y115248D01*
X223106Y115536D01*
X222598Y115637D01*
X219796D01*
Y116292D01*
X212487D01*
Y112330D01*
X219796D01*
Y112986D01*
X222049D01*
X232375Y102660D01*
X232337Y102437D01*
X231585Y102199D01*
X223536Y110248D01*
X223106Y110536D01*
X222598Y110636D01*
X219796D01*
Y111292D01*
X212487D01*
Y107330D01*
X219796D01*
Y107985D01*
X222049D01*
X230873Y99162D01*
Y89302D01*
X229191Y87619D01*
X228491Y87909D01*
Y96446D01*
X228824Y96669D01*
X229332Y97429D01*
X229510Y98327D01*
X229332Y99224D01*
X228824Y99985D01*
X228063Y100493D01*
X227165Y100672D01*
X226268Y100493D01*
X225507Y99985D01*
X224999Y99224D01*
X224820Y98327D01*
X224999Y97429D01*
X225507Y96669D01*
X225840Y96446D01*
Y94127D01*
X225567Y93954D01*
X225140Y93861D01*
X219796Y99204D01*
Y101292D01*
X212487D01*
Y100636D01*
X205768D01*
X205260Y100536D01*
X204831Y100248D01*
X198837Y94254D01*
X198085Y94493D01*
X198047Y94715D01*
X204874Y101543D01*
X205162Y101973D01*
X205262Y102480D01*
Y114261D01*
X205595Y114483D01*
X206104Y115244D01*
X206282Y116142D01*
X206277Y116167D01*
X206907Y116588D01*
X207370Y116278D01*
X208268Y116100D01*
X209165Y116278D01*
X209926Y116787D01*
X210434Y117548D01*
X210613Y118445D01*
X210434Y119342D01*
X209926Y120103D01*
X209593Y120325D01*
Y121900D01*
X209492Y122407D01*
X209205Y122837D01*
X204236Y127806D01*
X204314Y128199D01*
X204135Y129096D01*
X203627Y129857D01*
X202866Y130365D01*
X201969Y130544D01*
X201194Y130390D01*
X200494Y130757D01*
Y155376D01*
X202443D01*
Y160322D01*
X202443D01*
Y160494D01*
X202443D01*
Y161522D01*
X208271D01*
X208945Y161072D01*
X209842Y160893D01*
X210740Y161072D01*
X211433Y161535D01*
X234232D01*
X234727Y161040D01*
D02*
G37*
G36*
X159532Y160958D02*
X159532Y160519D01*
Y160347D01*
X159532Y160347D01*
Y159504D01*
X155029D01*
Y160347D01*
X149689D01*
Y160157D01*
X148989Y159786D01*
X148535Y160090D01*
X147638Y160268D01*
X146740Y160090D01*
X145980Y159581D01*
X145285Y159589D01*
Y160544D01*
X139748D01*
Y155429D01*
X139548D01*
Y153157D01*
X142517D01*
X145485D01*
Y155429D01*
X145285D01*
Y156257D01*
X145980Y156265D01*
X146740Y155757D01*
X147638Y155578D01*
X148535Y155757D01*
X149419Y155539D01*
X149489Y155429D01*
Y153256D01*
X155229D01*
Y155429D01*
X155029D01*
Y156343D01*
X159532D01*
Y155401D01*
X164046D01*
Y115938D01*
X163690D01*
Y112684D01*
X167747D01*
X168015Y112038D01*
X166916Y110938D01*
X163690D01*
Y107684D01*
X168161D01*
X168451Y106984D01*
X167405Y105938D01*
X163690D01*
Y102684D01*
X168790D01*
Y103574D01*
X173279Y108063D01*
X173926Y107795D01*
Y87344D01*
X173226Y87054D01*
X170032Y90248D01*
X169602Y90536D01*
X169095Y90636D01*
X168790D01*
Y90938D01*
X164522D01*
X164518Y91638D01*
X165565Y92684D01*
X168790D01*
Y95938D01*
X163690D01*
Y94559D01*
X162253Y93121D01*
X161966Y92691D01*
X161865Y92184D01*
Y87946D01*
X161966Y87438D01*
X162253Y87009D01*
X162978Y86283D01*
X162710Y85637D01*
X158856D01*
X157118Y87375D01*
X156688Y87662D01*
X156180Y87763D01*
X148318D01*
Y90938D01*
X145092D01*
X143992Y92037D01*
X144260Y92684D01*
X148318D01*
Y92927D01*
X154281D01*
X154543Y92535D01*
X155303Y92026D01*
X156201Y91848D01*
X157098Y92026D01*
X157859Y92535D01*
X158367Y93296D01*
X158546Y94193D01*
X158367Y95090D01*
X157859Y95851D01*
X157130Y96339D01*
X157098Y96556D01*
Y96849D01*
X157130Y97067D01*
X157859Y97554D01*
X158367Y98315D01*
X158546Y99213D01*
X158367Y100110D01*
X157859Y100871D01*
X157098Y101379D01*
X156201Y101558D01*
X155303Y101379D01*
X154543Y100871D01*
X154353Y100587D01*
X148318D01*
Y100938D01*
X143218D01*
Y97684D01*
X148318D01*
Y97936D01*
X154287D01*
X154543Y97554D01*
X155272Y97067D01*
X155303Y96849D01*
Y96556D01*
X155272Y96339D01*
X154543Y95851D01*
X154360Y95577D01*
X148318D01*
Y95938D01*
X143218D01*
Y93727D01*
X142571Y93459D01*
X140203Y95827D01*
Y101072D01*
X140536Y101295D01*
X141044Y102055D01*
X141223Y102953D01*
X141044Y103850D01*
X140536Y104611D01*
X139775Y105119D01*
X138878Y105298D01*
X137980Y105119D01*
X137220Y104611D01*
X136711Y103850D01*
X136533Y102953D01*
X136711Y102055D01*
X137220Y101295D01*
X137552Y101072D01*
Y95278D01*
X137653Y94770D01*
X137941Y94340D01*
X139455Y92826D01*
X139111Y92181D01*
X138976Y92207D01*
X138079Y92029D01*
X137318Y91520D01*
X136810Y90760D01*
X136631Y89862D01*
X136810Y88965D01*
X137318Y88204D01*
X138079Y87696D01*
X138976Y87517D01*
X139369Y87595D01*
X141463Y85501D01*
X141894Y85213D01*
X142401Y85112D01*
X143018D01*
Y84811D01*
X145768D01*
X148518D01*
Y85112D01*
X155631D01*
X157370Y83374D01*
X157800Y83086D01*
X158307Y82986D01*
X163690D01*
Y82684D01*
X168790D01*
Y83174D01*
X169457Y83468D01*
X169849Y83153D01*
Y69434D01*
X169149Y69221D01*
X168981Y69473D01*
X168220Y69981D01*
X167323Y70160D01*
X166930Y70082D01*
X157661Y79351D01*
X157231Y79638D01*
X156724Y79739D01*
X130663D01*
X121198Y89204D01*
Y91292D01*
X114715D01*
Y92330D01*
X121198D01*
Y96292D01*
X114715D01*
Y97330D01*
X121198D01*
Y101292D01*
X114715D01*
Y102130D01*
X117044D01*
Y104311D01*
Y106492D01*
X114715D01*
Y107330D01*
X121198D01*
Y111292D01*
X114715D01*
Y112330D01*
X121198D01*
Y112330D01*
X121823Y112149D01*
X123229Y110743D01*
X123030Y110445D01*
X122852Y109547D01*
X123030Y108650D01*
X123539Y107889D01*
X124299Y107381D01*
X125197Y107202D01*
X126094Y107381D01*
X126855Y107889D01*
X127363Y108650D01*
X127542Y109547D01*
X127363Y110445D01*
X126855Y111205D01*
X126094Y111714D01*
X125986Y111735D01*
X122835Y114886D01*
X122405Y115173D01*
X121898Y115274D01*
X121198D01*
Y116292D01*
X116440D01*
X116172Y116939D01*
X116808Y117574D01*
X117095Y118005D01*
X117196Y118512D01*
X117196Y118512D01*
Y119379D01*
X117529Y119602D01*
X118037Y120362D01*
X118216Y121260D01*
X118037Y122157D01*
X117529Y122918D01*
X116768Y123426D01*
X115870Y123605D01*
X114973Y123426D01*
X114212Y122918D01*
X113704Y122157D01*
X113525Y121260D01*
X113704Y120362D01*
X114212Y119602D01*
X114261Y118776D01*
X112655Y117171D01*
X111955Y117459D01*
Y125422D01*
X112089Y126067D01*
X114459D01*
Y128740D01*
X114959D01*
Y129240D01*
X117829D01*
Y131413D01*
X117629D01*
Y132327D01*
X122132D01*
Y131385D01*
X127472D01*
Y136331D01*
X127472Y136331D01*
Y136503D01*
X127472D01*
X127472Y137031D01*
Y139215D01*
X131996Y143739D01*
X132787Y143896D01*
X133548Y144405D01*
X134056Y145166D01*
X134214Y145957D01*
X135763Y147506D01*
X136106Y148019D01*
X136226Y148624D01*
Y161658D01*
X159316D01*
X159532Y160958D01*
D02*
G37*
G36*
X197103Y160494D02*
X197103D01*
Y160322D01*
X197103D01*
Y159479D01*
X192600D01*
Y160322D01*
X187260D01*
Y159479D01*
X182856D01*
Y160519D01*
X177319D01*
Y155404D01*
X177119D01*
Y153132D01*
X180088D01*
X183056D01*
Y155404D01*
X182856D01*
Y156318D01*
X187260D01*
Y155404D01*
X187060D01*
Y153231D01*
X192800D01*
Y155404D01*
X192600D01*
Y156318D01*
X197103D01*
Y155376D01*
X197843D01*
Y122479D01*
X197196Y122211D01*
X174948Y144460D01*
Y161658D01*
X197103D01*
Y160494D01*
D02*
G37*
G36*
X398984Y144517D02*
X389768D01*
X389593Y145217D01*
X389900Y145381D01*
X391011Y146292D01*
X391923Y147403D01*
X392600Y148671D01*
X393017Y150046D01*
X393158Y151476D01*
X393017Y152907D01*
X392600Y154282D01*
X391923Y155550D01*
X391011Y156660D01*
X389900Y157572D01*
X388632Y158250D01*
X387257Y158667D01*
X385827Y158808D01*
X384397Y158667D01*
X383021Y158250D01*
X381754Y157572D01*
X380643Y156660D01*
X379731Y155550D01*
X379053Y154282D01*
X378636Y152907D01*
X378495Y151476D01*
X378636Y150046D01*
X379053Y148671D01*
X379731Y147403D01*
X380643Y146292D01*
X381754Y145381D01*
X382061Y145217D01*
X381885Y144517D01*
X361844Y144517D01*
X361532Y144454D01*
X361267Y144278D01*
X360462Y144168D01*
X357395Y147236D01*
Y150702D01*
X352448D01*
Y150702D01*
X352276D01*
Y150702D01*
X349204D01*
X347282Y152624D01*
Y155421D01*
X347257Y155549D01*
Y160446D01*
X341326D01*
Y153728D01*
X344631D01*
Y152075D01*
X344732Y151568D01*
X345020Y151138D01*
X347330Y148827D01*
Y147306D01*
X346683Y147038D01*
X329611Y164110D01*
X329099Y164452D01*
X328494Y164573D01*
X240067D01*
Y165465D01*
X234727D01*
Y164696D01*
X211635D01*
X211501Y164896D01*
X210740Y165405D01*
X209842Y165583D01*
X208945Y165405D01*
X208184Y164896D01*
X208042Y164683D01*
X202443D01*
Y165440D01*
X197103D01*
Y164819D01*
X164872D01*
Y165465D01*
X159532D01*
Y164819D01*
X127472D01*
Y165957D01*
X122132D01*
Y161539D01*
X122132Y161011D01*
X122132Y160491D01*
X121637Y159996D01*
X117629D01*
Y160839D01*
X112289D01*
Y159996D01*
X107885D01*
Y161036D01*
X102348D01*
Y155921D01*
X102148D01*
Y153650D01*
X105117D01*
X108085D01*
Y155921D01*
X107885D01*
Y156835D01*
X112289D01*
Y155921D01*
X112089D01*
Y153748D01*
X117829D01*
Y155921D01*
X117629D01*
Y156835D01*
X122132D01*
Y155893D01*
X123476D01*
Y154007D01*
X122523Y153054D01*
X122131Y153132D01*
X121233Y152954D01*
X120472Y152446D01*
X119964Y151685D01*
X119786Y150787D01*
X119964Y149890D01*
X120472Y149129D01*
X121233Y148621D01*
X122131Y148442D01*
X123028Y148621D01*
X123789Y149129D01*
X124297Y149890D01*
X124476Y150787D01*
X124398Y151180D01*
X125739Y152521D01*
X126026Y152951D01*
X126127Y153458D01*
Y155893D01*
X127472D01*
X127472Y161163D01*
X127967Y161658D01*
X133065D01*
Y149278D01*
X132144Y148357D01*
X131890Y148408D01*
X130992Y148230D01*
X130231Y147721D01*
X129723Y146960D01*
X129545Y146063D01*
X129595Y145808D01*
X125237Y141450D01*
X122132D01*
Y139129D01*
X103384D01*
X102877Y139028D01*
X102447Y138740D01*
X96426Y132719D01*
X96139Y132289D01*
X96038Y131782D01*
Y129976D01*
X96004Y129953D01*
X95304Y130327D01*
Y173980D01*
X398984D01*
Y144517D01*
D02*
G37*
G36*
X236273Y130750D02*
Y128839D01*
X235626Y128571D01*
X226145Y138052D01*
X226223Y138445D01*
X226045Y139342D01*
X225536Y140103D01*
X225083Y140406D01*
X225357Y141064D01*
X225888Y141135D01*
X236273Y130750D01*
D02*
G37*
G36*
X201969Y125854D02*
X202361Y125932D01*
X206942Y121351D01*
Y120325D01*
X206610Y120103D01*
X206101Y119342D01*
X205923Y118445D01*
X205928Y118420D01*
X205298Y117999D01*
X204834Y118308D01*
X203937Y118487D01*
X203544Y118409D01*
X200494Y121459D01*
Y125640D01*
X201194Y126008D01*
X201969Y125854D01*
D02*
G37*
G36*
X102348Y133978D02*
Y131413D01*
X102148D01*
Y129142D01*
X105117D01*
X108085D01*
Y131413D01*
X107885D01*
Y132327D01*
X110375D01*
X110643Y131680D01*
X109693Y130730D01*
X109405Y130300D01*
X109304Y129793D01*
Y114890D01*
X108604Y114600D01*
X107427Y115778D01*
Y119489D01*
X107759Y119712D01*
X108268Y120472D01*
X108446Y121370D01*
X108268Y122267D01*
X107759Y123028D01*
X106999Y123536D01*
X106101Y123715D01*
X105204Y123536D01*
X104443Y123028D01*
X103935Y122267D01*
X103756Y121370D01*
X103935Y120472D01*
X104443Y119712D01*
X104776Y119489D01*
Y115459D01*
X104172Y115154D01*
X104100Y115145D01*
X103997Y115248D01*
X103567Y115536D01*
X103059Y115637D01*
X99151D01*
Y116292D01*
X92668D01*
Y122222D01*
X98300Y127855D01*
X98588Y128285D01*
X98689Y128793D01*
Y131233D01*
X101701Y134246D01*
X102348Y133978D01*
D02*
G37*
G36*
X172297Y143911D02*
X172397Y143404D01*
X172685Y142974D01*
X196923Y118735D01*
Y116292D01*
X190440D01*
Y114204D01*
X188024Y111788D01*
X187500Y111892D01*
X186603Y111714D01*
X185842Y111205D01*
X185333Y110445D01*
X185155Y109547D01*
X185259Y109023D01*
X181641Y105406D01*
X181354Y104976D01*
X181253Y104469D01*
Y81562D01*
X180606Y81294D01*
X179377Y82524D01*
Y114852D01*
X179709Y115074D01*
X180218Y115835D01*
X180396Y116732D01*
X180218Y117630D01*
X179709Y118391D01*
X178949Y118899D01*
X178051Y119077D01*
X177154Y118899D01*
X176393Y118391D01*
X176171Y118058D01*
X174585D01*
X174077Y117957D01*
X173647Y117669D01*
X169437Y113459D01*
X168790Y113727D01*
Y115938D01*
X166697D01*
Y160086D01*
X166596Y160593D01*
X166353Y160958D01*
X166453Y161371D01*
X166572Y161658D01*
X172297D01*
Y143911D01*
D02*
G37*
G36*
X102866Y112433D02*
X102821Y112205D01*
X102999Y111307D01*
X103508Y110547D01*
X104268Y110038D01*
X105166Y109860D01*
X105940Y110014D01*
X106640Y109646D01*
Y103910D01*
X106094Y103364D01*
X105449Y103709D01*
X105495Y103937D01*
X105316Y104834D01*
X104808Y105595D01*
X104451Y105834D01*
Y106937D01*
X104350Y107444D01*
X104062Y107874D01*
X101688Y110248D01*
X101258Y110536D01*
X100751Y110636D01*
X99151D01*
Y111292D01*
X92668D01*
Y112330D01*
X99151D01*
Y112986D01*
X102381D01*
X102866Y112433D01*
D02*
G37*
G36*
X201670Y116534D02*
X201592Y116142D01*
X201770Y115244D01*
X202279Y114483D01*
X202611Y114261D01*
Y103029D01*
X198396Y98813D01*
X197749Y99081D01*
Y101292D01*
X190440D01*
Y99204D01*
X187203Y95967D01*
X186916Y95537D01*
X186815Y95030D01*
Y84391D01*
X186916Y83884D01*
X187203Y83454D01*
X190984Y79673D01*
X191414Y79386D01*
X191921Y79285D01*
X196313D01*
X196616Y78585D01*
X196259Y78049D01*
X196080Y77152D01*
X196169Y76703D01*
X196019Y76478D01*
X195919Y75971D01*
Y71987D01*
X195272Y71720D01*
X185704Y81287D01*
Y100719D01*
X186976Y101991D01*
X187500Y101887D01*
X188397Y102066D01*
X189158Y102574D01*
X189667Y103335D01*
X189740Y103705D01*
X190440Y103636D01*
Y102330D01*
X197749D01*
Y104418D01*
X199186Y105855D01*
X199473Y106285D01*
X199574Y106792D01*
X199574Y106792D01*
Y117715D01*
X200221Y117983D01*
X201670Y116534D01*
D02*
G37*
G36*
X92990Y126294D02*
X90405Y123709D01*
X90118Y123279D01*
X90017Y122771D01*
Y106792D01*
X90118Y106285D01*
X90405Y105855D01*
X91842Y104418D01*
Y102330D01*
X97144D01*
X97417Y101985D01*
X97108Y101292D01*
X91842D01*
Y100636D01*
X79934D01*
Y101786D01*
X77059D01*
X74391Y104454D01*
X73961Y104742D01*
X73453Y104843D01*
X62024D01*
X61427Y105440D01*
X61695Y106087D01*
X64287D01*
Y108555D01*
X61516D01*
Y109055D01*
X61016D01*
Y112024D01*
X58744D01*
Y111824D01*
X53629D01*
Y106287D01*
X54974D01*
Y101883D01*
X53826D01*
Y96543D01*
X58244D01*
X58772Y96543D01*
X59597Y96543D01*
X60092Y96048D01*
Y92535D01*
X59597Y92040D01*
X58944Y92040D01*
X58244Y92040D01*
X53826D01*
Y86700D01*
X54974D01*
Y63386D01*
X55075Y62879D01*
X55362Y62449D01*
X62252Y55559D01*
X62682Y55272D01*
X63189Y55171D01*
X90243D01*
Y53412D01*
X95583D01*
Y54811D01*
X95819Y54968D01*
X105119Y64268D01*
X105512Y64190D01*
X106409Y64369D01*
X107170Y64877D01*
X107678Y65638D01*
X107857Y66535D01*
X107678Y67433D01*
X107170Y68194D01*
X106409Y68702D01*
X105512Y68880D01*
X104614Y68702D01*
X103854Y68194D01*
X103345Y67433D01*
X103167Y66535D01*
X103245Y66143D01*
X96284Y59182D01*
X95583Y59472D01*
Y63476D01*
X90243D01*
Y60819D01*
X89194Y59770D01*
X83674D01*
Y62213D01*
X89520Y68059D01*
X89807Y68489D01*
X89908Y68996D01*
Y92722D01*
X91195Y94009D01*
X91842Y93742D01*
Y92330D01*
X97108D01*
X97417Y91637D01*
X97144Y91292D01*
X91842D01*
Y87330D01*
X99151D01*
Y89418D01*
X111364Y101631D01*
X112064Y101343D01*
Y86792D01*
X112165Y86285D01*
X112452Y85855D01*
X113889Y84418D01*
Y82330D01*
X121198D01*
Y84541D01*
X121845Y84809D01*
X128644Y78010D01*
X128354Y77310D01*
X106045D01*
X99151Y84204D01*
Y86292D01*
X91842D01*
Y82330D01*
X97276D01*
X104559Y75047D01*
X104989Y74760D01*
X105496Y74659D01*
X152502D01*
X160331Y66830D01*
X160253Y66437D01*
X160432Y65540D01*
X160595Y65295D01*
X160221Y64595D01*
X133677Y64595D01*
Y65937D01*
X130709D01*
X127740D01*
Y64595D01*
X112205Y64595D01*
X111893Y64533D01*
X111628Y64356D01*
X111628Y64356D01*
X95331Y48060D01*
X95304D01*
X94992Y47998D01*
X94896Y47934D01*
X94800Y47998D01*
X94488Y48060D01*
X48759D01*
X48264Y48555D01*
X48265Y126940D01*
X92722D01*
X92990Y126294D01*
D02*
G37*
G36*
X75184Y99912D02*
Y96643D01*
X79934D01*
Y97986D01*
X90433D01*
X90723Y97286D01*
X87645Y94208D01*
X87358Y93778D01*
X87257Y93271D01*
Y69545D01*
X81800Y64087D01*
X78924D01*
Y59770D01*
X77636D01*
X76194Y61212D01*
Y64087D01*
X71444D01*
Y58944D01*
X74713D01*
X75189Y58468D01*
X74921Y57822D01*
X63738D01*
X57625Y63935D01*
Y86205D01*
X58120Y86700D01*
X58772Y86700D01*
X59472Y86700D01*
X63890D01*
Y92040D01*
X62743D01*
Y96543D01*
X63890D01*
Y101492D01*
X63891Y101883D01*
X64463Y102192D01*
X72904D01*
X75184Y99912D01*
D02*
G37*
G36*
X212487Y97330D02*
X217789D01*
X218062Y96985D01*
X217753Y96292D01*
X212487D01*
Y94204D01*
X205042Y86759D01*
X203849D01*
X203627Y87091D01*
X202866Y87600D01*
X201969Y87778D01*
X201071Y87600D01*
X200310Y87091D01*
X199802Y86330D01*
X199623Y85433D01*
X199802Y84536D01*
X200310Y83775D01*
X201071Y83267D01*
X201969Y83088D01*
X202866Y83267D01*
X203627Y83775D01*
X203849Y84108D01*
X205591D01*
X206098Y84209D01*
X206528Y84496D01*
X211400Y89368D01*
X212151Y89129D01*
X212190Y88907D01*
X208708Y85425D01*
X208421Y84995D01*
X208320Y84488D01*
Y81936D01*
X198285D01*
X197749Y82330D01*
Y86292D01*
X192447D01*
X192174Y86637D01*
X192483Y87330D01*
X197749D01*
Y89418D01*
X206317Y97986D01*
X212487D01*
Y97330D01*
D02*
G37*
G36*
X238554Y84607D02*
X238554Y72385D01*
X230765Y64595D01*
X204475Y64595D01*
Y67289D01*
X208794Y71608D01*
X224016D01*
X224523Y71709D01*
X224953Y71996D01*
X237854Y84897D01*
X238554Y84607D01*
D02*
G37*
G36*
X188045Y67561D02*
Y64595D01*
X180577D01*
X180264Y64533D01*
X180000Y64356D01*
X179195Y64247D01*
X174300Y69141D01*
Y80316D01*
X175000Y80606D01*
X188045Y67561D01*
D02*
G37*
G36*
Y63779D02*
Y60741D01*
X187979D01*
Y56377D01*
X187333Y56109D01*
X180309Y63133D01*
X180577Y63779D01*
X188045D01*
D02*
G37*
G36*
X398984Y1020D02*
X387272D01*
X387122Y1657D01*
X387122D01*
Y4126D01*
X384350D01*
Y4626D01*
X383850D01*
Y7594D01*
X381579D01*
Y7395D01*
X376464D01*
Y5951D01*
X369993D01*
Y16154D01*
X353301D01*
X353075Y16199D01*
X345091D01*
Y32335D01*
X320873D01*
X320605Y32982D01*
X322975Y35352D01*
X329134D01*
X330031Y35530D01*
X330792Y36039D01*
X331300Y36799D01*
X331479Y37697D01*
X331300Y38594D01*
X330792Y39355D01*
X330031Y39863D01*
X329134Y40042D01*
X322003D01*
X321106Y39863D01*
X320345Y39355D01*
X320345Y39355D01*
X313611Y32621D01*
X313005Y32394D01*
X313005Y32394D01*
Y32394D01*
X313005Y32394D01*
X299594D01*
Y31739D01*
X297847D01*
Y32957D01*
X298047D01*
Y35130D01*
X292307D01*
Y32957D01*
X292507D01*
Y28039D01*
X293852D01*
Y27025D01*
X291347Y24521D01*
X288078D01*
Y17605D01*
X295387D01*
Y24521D01*
X295387Y24521D01*
X295387D01*
X295677Y25101D01*
X296114Y25539D01*
X296402Y25969D01*
X296503Y26476D01*
Y28039D01*
X297847D01*
Y29088D01*
X299594D01*
Y26858D01*
X312812D01*
Y17487D01*
X309688Y14363D01*
X299594D01*
Y13939D01*
X276555D01*
X275658Y13761D01*
X274897Y13253D01*
X274694Y13050D01*
X270941D01*
X270714Y13005D01*
X265735D01*
Y3531D01*
X273241D01*
Y8360D01*
X275665D01*
X276429Y8512D01*
X276837Y8129D01*
X276953Y7957D01*
Y5815D01*
X279921D01*
X282890D01*
Y8087D01*
X282690D01*
Y9249D01*
X288078D01*
Y5991D01*
X295387D01*
Y9249D01*
X299594D01*
Y8826D01*
X313005D01*
Y11047D01*
X316816Y14857D01*
X317324Y15618D01*
X317503Y16516D01*
X317502Y16516D01*
Y29327D01*
X317595Y29389D01*
X318295Y29015D01*
Y8885D01*
X345091D01*
Y11509D01*
X346936D01*
Y1020D01*
X95304D01*
Y47244D01*
X95669D01*
X112205Y63779D01*
X127740Y63779D01*
Y61622D01*
X130709D01*
X133677D01*
Y63779D01*
X173367Y63779D01*
X185527Y51620D01*
X185284Y50881D01*
X184953Y50800D01*
X184953Y50800D01*
X184953Y50800D01*
X178039D01*
Y46050D01*
Y42113D01*
Y37220D01*
X177839D01*
Y36130D01*
X181496D01*
X185153D01*
Y37220D01*
X184953D01*
Y42178D01*
X194485D01*
X195479Y41184D01*
X195909Y40897D01*
X196416Y40796D01*
X216788D01*
X216934Y40576D01*
X217551Y40164D01*
X217694Y39582D01*
X217694Y39354D01*
X215886Y37546D01*
X213692D01*
X213469Y37879D01*
X212708Y38387D01*
X211811Y38565D01*
X210914Y38387D01*
X210153Y37879D01*
X209645Y37118D01*
X209466Y36220D01*
X209645Y35323D01*
X210153Y34562D01*
X210914Y34054D01*
X211811Y33875D01*
X212708Y34054D01*
X213469Y34562D01*
X213692Y34895D01*
X216435D01*
X216942Y34996D01*
X217170Y35149D01*
X217772Y35034D01*
X217982Y34903D01*
X218421Y34247D01*
X219137Y33768D01*
X219145Y33716D01*
X218762Y33068D01*
X210476D01*
X210221Y33450D01*
X209460Y33958D01*
X208563Y34136D01*
X207751Y33975D01*
X207128Y34599D01*
X206698Y34886D01*
X206190Y34987D01*
X185153D01*
Y35130D01*
X181496D01*
X177839D01*
Y34987D01*
X171559D01*
Y36106D01*
X171759D01*
Y38378D01*
X165822D01*
Y36106D01*
X166022D01*
Y34593D01*
X155820D01*
Y35446D01*
X150479D01*
Y33125D01*
X130441D01*
X129934Y33024D01*
X129504Y32737D01*
X126091Y29324D01*
X116917D01*
Y28353D01*
X109461D01*
Y30623D01*
X103924D01*
Y25508D01*
X103724D01*
Y23236D01*
X106693D01*
Y22736D01*
X107193D01*
Y19965D01*
X109455D01*
X109803Y19323D01*
X107126Y16646D01*
X106838Y16216D01*
X106737Y15709D01*
Y13694D01*
X104023D01*
Y8747D01*
X104023D01*
Y8576D01*
X104023D01*
Y3629D01*
X107292D01*
X108708Y2212D01*
X109138Y1925D01*
X109646Y1824D01*
X130689D01*
X131196Y1925D01*
X131626Y2212D01*
X134145Y4732D01*
X143320D01*
Y5702D01*
X159845D01*
X163334Y2212D01*
X163764Y1925D01*
X164272Y1824D01*
X211189D01*
X211696Y1925D01*
X212126Y2212D01*
X217788Y7875D01*
X218076Y8305D01*
X218125Y8550D01*
X220288D01*
Y15465D01*
X220093D01*
X220044Y15711D01*
X219757Y16141D01*
X213634Y22264D01*
X213204Y22551D01*
X212697Y22652D01*
X192284D01*
X191953Y23352D01*
X192027Y23442D01*
X192028Y23442D01*
X192925Y23621D01*
X193686Y24129D01*
X194194Y24890D01*
X194373Y25787D01*
X194194Y26685D01*
X193686Y27446D01*
X192925Y27954D01*
X192028Y28133D01*
X191130Y27954D01*
X190800Y27734D01*
X190098Y28106D01*
X190097Y28330D01*
X190438Y28558D01*
X190946Y29319D01*
X191125Y30217D01*
X190946Y31114D01*
X190597Y31636D01*
X190912Y32336D01*
X205641D01*
X206226Y31751D01*
X206396Y30894D01*
X206905Y30133D01*
X207666Y29625D01*
X208055Y29547D01*
X220548Y17054D01*
X220978Y16767D01*
X221485Y16666D01*
X251145D01*
X253959Y13851D01*
X253691Y13205D01*
X252378D01*
Y9268D01*
X255331D01*
Y11565D01*
X255977Y11833D01*
X256680Y11130D01*
Y3531D01*
X264186D01*
Y13005D01*
X262778D01*
Y17491D01*
X271260D01*
X271260Y17491D01*
X271572Y17553D01*
X271837Y17730D01*
X271837Y17730D01*
X274199Y20092D01*
X274376Y20357D01*
X274438Y20669D01*
X274438Y20669D01*
X274438Y34049D01*
X275676D01*
Y32890D01*
X275476D01*
Y30618D01*
X278445D01*
X281413D01*
Y32890D01*
X281213D01*
Y34589D01*
X282159Y35534D01*
X282501Y36047D01*
X282508Y36080D01*
X283491Y37063D01*
X284138Y36795D01*
Y36425D01*
X287106D01*
X290075D01*
Y38697D01*
X289875D01*
Y43812D01*
X288194D01*
Y52362D01*
X288074Y52967D01*
X287732Y53480D01*
X285310Y55901D01*
X284954Y56139D01*
X284789Y56736D01*
X284785Y56960D01*
X287732Y59906D01*
X288074Y60419D01*
X288194Y61024D01*
Y67021D01*
X288074Y67626D01*
X287732Y68139D01*
X286553Y69318D01*
X286820Y69965D01*
X287098D01*
Y72335D01*
X284925D01*
Y71860D01*
X284278Y71592D01*
X283099Y72771D01*
X282587Y73114D01*
X281982Y73234D01*
X280355D01*
X279981Y73934D01*
X280060Y74053D01*
X280161Y74560D01*
Y80528D01*
X280060Y81035D01*
X279773Y81465D01*
X278755Y82482D01*
X278499Y82653D01*
X278706Y83354D01*
X282591D01*
Y88300D01*
X282591D01*
Y88472D01*
X282591D01*
Y90793D01*
X288846D01*
X288886Y90800D01*
X289554D01*
Y89751D01*
X294089D01*
Y88647D01*
X292463Y87020D01*
X289554D01*
Y82271D01*
X291381D01*
X297751Y75901D01*
X298512Y75393D01*
X299409Y75214D01*
X311233D01*
X318915Y67533D01*
Y62402D01*
X319093Y61504D01*
X319555Y60814D01*
X319474Y60490D01*
X319284Y60114D01*
X313194D01*
Y62543D01*
X313194D01*
Y62715D01*
X313194D01*
Y67661D01*
X307854D01*
Y65605D01*
X305662D01*
X305244Y65522D01*
X304524Y65557D01*
X304086Y66212D01*
X303431Y66650D01*
X302658Y66803D01*
X300276D01*
X300275Y66811D01*
X299988Y67241D01*
X295190Y72039D01*
Y75505D01*
X290272D01*
Y75705D01*
X288098D01*
Y72835D01*
Y69965D01*
X290272D01*
Y70165D01*
X293315D01*
X297637Y65843D01*
X297445Y65556D01*
X297291Y64784D01*
X297445Y64011D01*
X297782Y63506D01*
X297384Y63240D01*
X295893Y61748D01*
X295605Y61318D01*
X295504Y60811D01*
Y52265D01*
X295605Y51757D01*
X295893Y51327D01*
X297315Y49905D01*
X297291Y49784D01*
X297445Y49011D01*
X297883Y48355D01*
X298538Y47917D01*
X299311Y47763D01*
X299765D01*
Y41724D01*
X299791Y41596D01*
Y37684D01*
X304906D01*
Y37484D01*
X307177D01*
Y40453D01*
Y43421D01*
X304906D01*
Y43221D01*
X302416D01*
Y47763D01*
X302658D01*
X303431Y47917D01*
X304086Y48355D01*
X304154Y48458D01*
X307854D01*
Y46723D01*
X313194D01*
Y51670D01*
X313194D01*
Y51841D01*
X313194D01*
Y54227D01*
X323451D01*
X323840Y53645D01*
X323742Y53406D01*
X323565Y52067D01*
X323742Y50728D01*
X324258Y49479D01*
X325081Y48408D01*
X326153Y47585D01*
X327401Y47068D01*
X328740Y46892D01*
X330080Y47068D01*
X331328Y47585D01*
X332399Y48408D01*
X333222Y49479D01*
X333739Y50728D01*
X333915Y52067D01*
X333739Y53406D01*
X333222Y54654D01*
X332399Y55726D01*
X331328Y56549D01*
X330080Y57066D01*
X328740Y57242D01*
X327401Y57066D01*
X326921Y56867D01*
X326722Y56981D01*
X326620Y57752D01*
X327708Y58839D01*
X328740Y58703D01*
X330080Y58879D01*
X331328Y59396D01*
X332399Y60219D01*
X333222Y61291D01*
X333739Y62539D01*
X333915Y63878D01*
X333739Y65217D01*
X333222Y66465D01*
X332399Y67537D01*
X331328Y68360D01*
X330080Y68877D01*
X328740Y69053D01*
X327401Y68877D01*
X326153Y68360D01*
X325081Y67537D01*
X324688Y67025D01*
X323739Y66911D01*
X323605Y67017D01*
Y68504D01*
X323426Y69401D01*
X322918Y70162D01*
X313863Y79217D01*
X313102Y79726D01*
X312205Y79904D01*
X300381D01*
X295098Y85186D01*
X296728Y86816D01*
X296974Y86787D01*
X297428Y86575D01*
Y86011D01*
X302572D01*
Y88526D01*
X305970Y91924D01*
X308353D01*
Y91059D01*
X308154D01*
Y88886D01*
X311024D01*
X313894D01*
Y91059D01*
X313694D01*
Y91850D01*
X324892D01*
X325040Y91416D01*
X325074Y91150D01*
X324258Y90087D01*
X323742Y88839D01*
X323565Y87500D01*
X323742Y86161D01*
X324258Y84913D01*
X325081Y83841D01*
X326153Y83018D01*
X327401Y82501D01*
X328740Y82325D01*
X330080Y82501D01*
X331328Y83018D01*
X332399Y83841D01*
X333222Y84913D01*
X333739Y86161D01*
X333915Y87500D01*
X333739Y88839D01*
X333222Y90087D01*
X332407Y91150D01*
X332441Y91416D01*
X332588Y91850D01*
X333674D01*
X334101Y90818D01*
X334923Y89746D01*
X335995Y88924D01*
X337243Y88407D01*
X338583Y88231D01*
X339922Y88407D01*
X341170Y88924D01*
X342242Y89746D01*
X343064Y90818D01*
X343581Y92066D01*
X343758Y93405D01*
X343581Y94745D01*
X343064Y95993D01*
X342242Y97065D01*
X341170Y97887D01*
X339922Y98404D01*
X338583Y98580D01*
X337243Y98404D01*
X335995Y97887D01*
X334923Y97065D01*
X334101Y95993D01*
X333694Y95011D01*
X332617D01*
X332535Y95253D01*
X332445Y95711D01*
X333222Y96724D01*
X333739Y97972D01*
X333915Y99311D01*
X333739Y100650D01*
X333222Y101899D01*
X332426Y102936D01*
X332465Y103178D01*
X332621Y103636D01*
X333684D01*
X334101Y102629D01*
X334923Y101557D01*
X335995Y100735D01*
X337243Y100218D01*
X338583Y100041D01*
X339922Y100218D01*
X341170Y100735D01*
X342242Y101557D01*
X343064Y102629D01*
X343581Y103877D01*
X343758Y105217D01*
X343581Y106556D01*
X343064Y107804D01*
X342242Y108876D01*
X341170Y109698D01*
X339922Y110215D01*
X338583Y110391D01*
X337243Y110215D01*
X335995Y109698D01*
X334923Y108876D01*
X334101Y107804D01*
X333684Y106797D01*
X332621D01*
X332465Y107255D01*
X332426Y107497D01*
X333222Y108535D01*
X333739Y109783D01*
X333915Y111122D01*
X333739Y112461D01*
X333222Y113709D01*
X332399Y114781D01*
X331328Y115604D01*
X330080Y116121D01*
X328740Y116297D01*
X327401Y116121D01*
X326153Y115604D01*
X325081Y114781D01*
X324258Y113709D01*
X323742Y112461D01*
X323565Y111122D01*
X323742Y109783D01*
X324258Y108535D01*
X325055Y107497D01*
X325015Y107255D01*
X324860Y106797D01*
X313694D01*
Y107661D01*
X313894D01*
Y109835D01*
X308154D01*
Y107661D01*
X308353D01*
Y106797D01*
X305970D01*
X302572Y110195D01*
Y112709D01*
X297428D01*
Y107960D01*
X300337D01*
X304198Y104099D01*
X304710Y103756D01*
X305315Y103636D01*
X308353D01*
Y102743D01*
X313694D01*
Y103636D01*
X324860D01*
X325015Y103178D01*
X325055Y102936D01*
X324258Y101899D01*
X323742Y100650D01*
X323565Y99311D01*
X323742Y97972D01*
X324258Y96724D01*
X325036Y95711D01*
X324946Y95253D01*
X324863Y95011D01*
X313694D01*
Y95977D01*
X308353D01*
Y95084D01*
X305315D01*
X304710Y94964D01*
X304198Y94621D01*
X300337Y90761D01*
X297428Y90761D01*
X297250Y91387D01*
Y103051D01*
X297129Y103656D01*
X296787Y104169D01*
X294698Y106258D01*
Y108969D01*
X289554D01*
Y104220D01*
X292266D01*
X294089Y102397D01*
Y94501D01*
X289554D01*
Y93451D01*
X288854D01*
X288815Y93444D01*
X281095D01*
X280966Y93418D01*
X277251D01*
Y88472D01*
X277251D01*
Y88300D01*
X277251D01*
Y87152D01*
X271424D01*
X270691Y87885D01*
Y90761D01*
X266364D01*
Y107960D01*
X268807D01*
X269929Y106838D01*
X270359Y106551D01*
X270866Y106450D01*
X277251D01*
Y105302D01*
X282591D01*
Y109721D01*
X282591Y110249D01*
X282591Y110949D01*
Y112741D01*
X288846D01*
X288886Y112749D01*
X289554D01*
Y111700D01*
X294698D01*
Y116450D01*
X289554D01*
Y115400D01*
X288854D01*
X288815Y115392D01*
X281095D01*
X280966Y115367D01*
X277251D01*
Y110949D01*
X277251Y110421D01*
X277251Y109596D01*
X276756Y109101D01*
X271415D01*
X270682Y109834D01*
Y112709D01*
X266364D01*
Y114194D01*
X279224Y127054D01*
X282493D01*
Y131472D01*
X282493Y132001D01*
X282493Y132825D01*
X282988Y133320D01*
X287640D01*
X292310Y128650D01*
Y124594D01*
X299028D01*
Y130524D01*
X294185D01*
X289126Y135583D01*
X289110Y135593D01*
X289323Y136293D01*
X292310D01*
Y133649D01*
X299028D01*
Y139579D01*
X292310D01*
Y138944D01*
X274233D01*
X273726Y138844D01*
X273296Y138556D01*
X269201Y134461D01*
X265932D01*
Y129712D01*
X271076D01*
Y132587D01*
X274782Y136293D01*
X277153D01*
Y132701D01*
X277153Y132173D01*
X277153Y131472D01*
Y128732D01*
X264101Y115681D01*
X263814Y115251D01*
X263713Y114743D01*
Y87230D01*
X263017Y87221D01*
X263013Y87221D01*
X260745D01*
Y84646D01*
Y82071D01*
X263017D01*
Y84589D01*
X263713Y84598D01*
X263814Y84091D01*
X264101Y83661D01*
X267154Y80608D01*
X267584Y80321D01*
X268092Y80220D01*
X277269D01*
X277510Y79979D01*
Y79245D01*
X272995D01*
Y77400D01*
X268123D01*
Y77768D01*
X262192D01*
Y71050D01*
X268123D01*
Y74749D01*
X272808D01*
X272995Y74127D01*
X272995Y74127D01*
X272995D01*
X272995Y74127D01*
Y69180D01*
X278335D01*
Y70073D01*
X281327D01*
X285034Y66367D01*
Y61678D01*
X283927Y60572D01*
X283153Y60787D01*
X282773Y61356D01*
X282052Y61838D01*
X281201Y62007D01*
X280028D01*
Y59784D01*
X279528D01*
Y59284D01*
X275730D01*
X275800Y58932D01*
X276282Y58211D01*
X277003Y57729D01*
X277854Y57560D01*
X279220D01*
X279594Y56860D01*
X279556Y56803D01*
X277854D01*
X277081Y56650D01*
X276426Y56212D01*
X275988Y55556D01*
X275834Y54783D01*
X275901Y54447D01*
X275464Y53840D01*
X274854Y53792D01*
X273373Y55273D01*
Y61754D01*
X275077Y63458D01*
X276357D01*
X276426Y63355D01*
X277081Y62917D01*
X277854Y62764D01*
X281201D01*
X281974Y62917D01*
X282629Y63355D01*
X283067Y64011D01*
X283221Y64784D01*
X283067Y65556D01*
X282629Y66212D01*
X281974Y66650D01*
X281201Y66803D01*
X277854D01*
X277081Y66650D01*
X276426Y66212D01*
X276357Y66109D01*
X274528D01*
X274020Y66008D01*
X273590Y65721D01*
X271110Y63240D01*
X270823Y62810D01*
X270722Y62303D01*
Y54724D01*
X270823Y54217D01*
X271110Y53787D01*
X273088Y51809D01*
X272798Y51109D01*
X261344D01*
X260837Y51008D01*
X260407Y50721D01*
X242096Y32410D01*
X241450Y32678D01*
Y35516D01*
X241650D01*
Y37787D01*
X235713D01*
Y36242D01*
X235013Y36173D01*
X234942Y36527D01*
X234434Y37288D01*
X233673Y37797D01*
X232776Y37975D01*
X231878Y37797D01*
X231117Y37288D01*
X230895Y36955D01*
X230229D01*
Y40145D01*
Y44147D01*
X234143D01*
X234365Y43814D01*
X235126Y43306D01*
X236024Y43127D01*
X236921Y43306D01*
X237682Y43814D01*
X238190Y44575D01*
X238369Y45472D01*
X238291Y45865D01*
X248969Y56543D01*
X249256Y56973D01*
X249357Y57480D01*
Y83354D01*
X250702D01*
Y87772D01*
X250702Y88300D01*
X250702Y89000D01*
Y89726D01*
X259170D01*
X259298Y89751D01*
X262817D01*
Y94501D01*
X257674D01*
Y92377D01*
X250702D01*
Y93418D01*
X245361D01*
Y89000D01*
X245361Y88472D01*
X245361Y87772D01*
Y83354D01*
X246706D01*
Y58029D01*
X236416Y47739D01*
X236024Y47818D01*
X235126Y47639D01*
X234365Y47131D01*
X234143Y46798D01*
X230229D01*
Y48084D01*
X230929D01*
X231436Y48185D01*
X231866Y48472D01*
X243063Y59669D01*
X243351Y60099D01*
X243451Y60606D01*
Y101321D01*
X247433Y105302D01*
X250702D01*
Y109721D01*
X250702Y110249D01*
X250702D01*
Y110421D01*
X250702D01*
Y111674D01*
X259161D01*
X259290Y111700D01*
X262808D01*
Y116450D01*
X257665D01*
Y114325D01*
X250702D01*
Y115367D01*
X245361D01*
Y113675D01*
X244661Y113301D01*
X244534Y113386D01*
Y124156D01*
X247433Y127054D01*
X250702D01*
Y128202D01*
X254134D01*
X254641Y128303D01*
X255071Y128590D01*
X257158Y130677D01*
X257858Y130387D01*
Y128847D01*
X260130D01*
Y130921D01*
X258392D01*
X258102Y131621D01*
X259933Y133452D01*
X263202D01*
Y138202D01*
X258058D01*
Y135327D01*
X253585Y130853D01*
X250702D01*
Y131973D01*
X250902D01*
Y134146D01*
X245161D01*
Y131973D01*
X245361D01*
Y128732D01*
X242271Y125642D01*
X241984Y125212D01*
X241883Y124705D01*
Y112335D01*
X241984Y111828D01*
X242271Y111398D01*
X244686Y108983D01*
X244887Y108849D01*
X245361Y108374D01*
Y106980D01*
X241189Y102807D01*
X240901Y102377D01*
X240800Y101870D01*
Y61155D01*
X230787Y51142D01*
X230229Y50800D01*
X223314D01*
Y46668D01*
X223068Y46619D01*
X222639Y46332D01*
X220686Y44379D01*
X220455Y44149D01*
X219692Y44266D01*
X219490Y44401D01*
X218885Y44521D01*
X218460Y44789D01*
X218193Y45213D01*
X218072Y45819D01*
X217564Y46580D01*
X216803Y47088D01*
X216198Y47208D01*
X215773Y47476D01*
X215506Y47901D01*
X215385Y48506D01*
X214877Y49266D01*
X214116Y49775D01*
X213511Y49895D01*
X213086Y50163D01*
X212818Y50587D01*
X212698Y51193D01*
X212190Y51954D01*
X211429Y52462D01*
X210531Y52640D01*
X209634Y52462D01*
X208873Y51954D01*
X208365Y51193D01*
X208274Y50735D01*
X203085D01*
X202817Y51382D01*
X204009Y52573D01*
X204296Y53003D01*
X204397Y53510D01*
Y53826D01*
X220288D01*
Y60741D01*
X204475D01*
Y63779D01*
X231102Y63779D01*
X239370Y72047D01*
X239370Y135827D01*
X247244Y143701D01*
X345550Y143701D01*
X360536Y128715D01*
X360422Y128486D01*
X360163Y128098D01*
X358897Y127932D01*
X357649Y127415D01*
X356577Y126592D01*
X355755Y125521D01*
X355238Y124273D01*
X355061Y122933D01*
X355238Y121594D01*
X355755Y120346D01*
X356577Y119274D01*
X357649Y118451D01*
X358897Y117934D01*
X360236Y117758D01*
X361576Y117934D01*
X362824Y118451D01*
X363837Y119229D01*
X364294Y119139D01*
X364537Y119056D01*
Y117657D01*
X362583Y115703D01*
X361576Y116121D01*
X360236Y116297D01*
X358897Y116121D01*
X357649Y115604D01*
X356577Y114781D01*
X355755Y113709D01*
X355238Y112461D01*
X355061Y111122D01*
X355238Y109783D01*
X355755Y108535D01*
X356577Y107463D01*
X357649Y106640D01*
X357891Y106540D01*
Y103893D01*
X357649Y103793D01*
X356577Y102970D01*
X355755Y101899D01*
X355238Y100650D01*
X355061Y99311D01*
X355238Y97972D01*
X355755Y96724D01*
X356577Y95652D01*
X357649Y94829D01*
X358897Y94312D01*
X360236Y94136D01*
X361576Y94312D01*
X362824Y94829D01*
X363896Y95652D01*
X364718Y96724D01*
X365235Y97972D01*
X365411Y99311D01*
X365235Y100650D01*
X364718Y101899D01*
X363896Y102970D01*
X362824Y103793D01*
X362581Y103893D01*
Y106540D01*
X362824Y106640D01*
X363896Y107463D01*
X364718Y108535D01*
X365235Y109783D01*
X365411Y111122D01*
X365235Y112461D01*
X364818Y113469D01*
X367234Y115885D01*
X367577Y116398D01*
X367697Y117003D01*
Y125369D01*
X367577Y125974D01*
X367234Y126486D01*
X350667Y143054D01*
X350935Y143701D01*
X357181D01*
X384897Y115985D01*
Y53276D01*
X372885Y53276D01*
X372885Y53276D01*
X372573Y53214D01*
X372308Y53037D01*
X372308Y53037D01*
X370191Y50920D01*
X370191Y50920D01*
X370014Y50655D01*
X369952Y50343D01*
X369952Y50343D01*
X369952Y36824D01*
X352739D01*
Y53390D01*
X352981Y53491D01*
X354053Y54313D01*
X354875Y55385D01*
X355392Y56633D01*
X355569Y57972D01*
X355392Y59312D01*
X354875Y60560D01*
X354053Y61632D01*
X352981Y62454D01*
X351733Y62971D01*
X350394Y63147D01*
X349054Y62971D01*
X347806Y62454D01*
X346734Y61632D01*
X345912Y60560D01*
X345395Y59312D01*
X345219Y57972D01*
X345395Y56633D01*
X345912Y55385D01*
X346734Y54313D01*
X347806Y53491D01*
X348049Y53390D01*
Y36824D01*
X346936D01*
Y21444D01*
X369993D01*
Y31801D01*
X370693Y32091D01*
X372159Y30624D01*
X372424Y30447D01*
X372736Y30385D01*
X372736Y30385D01*
X381701D01*
X381877Y29685D01*
X381754Y29619D01*
X380643Y28708D01*
X379731Y27597D01*
X379053Y26329D01*
X378636Y24954D01*
X378495Y23524D01*
X378636Y22093D01*
X379053Y20718D01*
X379731Y19451D01*
X380643Y18340D01*
X381754Y17428D01*
X383021Y16750D01*
X384397Y16333D01*
X385827Y16192D01*
X387257Y16333D01*
X388632Y16750D01*
X389900Y17428D01*
X391011Y18340D01*
X391923Y19451D01*
X392600Y20718D01*
X393017Y22093D01*
X393158Y23524D01*
X393017Y24954D01*
X392600Y26329D01*
X391923Y27597D01*
X391011Y28708D01*
X389900Y29619D01*
X389777Y29685D01*
X389952Y30385D01*
X394587D01*
X394587Y30385D01*
X394899Y30447D01*
X395163Y30624D01*
X395163Y30624D01*
X397329Y32789D01*
X397329Y32789D01*
X397505Y33054D01*
X397568Y33366D01*
X397568Y33366D01*
X397568Y50000D01*
X397568Y50000D01*
X397505Y50312D01*
X397329Y50577D01*
X397329Y50577D01*
X394868Y53037D01*
X394868Y53037D01*
X394603Y53214D01*
X394291Y53276D01*
X394291Y53276D01*
X387548Y53276D01*
Y116534D01*
X387447Y117041D01*
X387159Y117471D01*
X361576Y143054D01*
X361844Y143701D01*
X398984Y143701D01*
Y1020D01*
D02*
G37*
G36*
X276426Y48355D02*
X277081Y47917D01*
X277854Y47763D01*
X279901D01*
X280169Y47117D01*
X272685Y39633D01*
X253983D01*
X253715Y40280D01*
X261893Y48458D01*
X276357D01*
X276426Y48355D01*
D02*
G37*
G36*
X285034Y47243D02*
Y43812D01*
X284338D01*
Y42380D01*
X279963Y38005D01*
X275795D01*
X275384Y38584D01*
X284334Y47533D01*
X285034Y47243D01*
D02*
G37*
G36*
X396752Y50000D02*
X396752Y33366D01*
X394587Y31201D01*
X372736Y31201D01*
X370768Y33169D01*
X370768Y50343D01*
X372885Y52461D01*
X394291Y52461D01*
X396752Y50000D01*
D02*
G37*
G36*
X178039Y29081D02*
X170581D01*
X170359Y29414D01*
X169598Y29923D01*
X168701Y30101D01*
X167803Y29923D01*
X167043Y29414D01*
X166534Y28653D01*
X166356Y27756D01*
X166534Y26858D01*
X167043Y26098D01*
X167803Y25589D01*
X168701Y25411D01*
X169598Y25589D01*
X170359Y26098D01*
X170554Y26390D01*
X171230Y26375D01*
X171574Y25730D01*
X171357Y25405D01*
X171179Y24508D01*
X171357Y23610D01*
X171865Y22850D01*
X172626Y22341D01*
X173524Y22163D01*
X174421Y22341D01*
X175182Y22850D01*
X175690Y23610D01*
X175851Y24420D01*
X175893Y24462D01*
X178039D01*
Y19317D01*
X162873D01*
X155820Y26370D01*
Y30327D01*
X155820Y30327D01*
Y30499D01*
X155820D01*
X155820Y31028D01*
Y31942D01*
X166022D01*
Y30991D01*
X171559D01*
Y32336D01*
X178039D01*
Y29081D01*
D02*
G37*
G36*
X150479Y30327D02*
Y28353D01*
X143320D01*
Y29324D01*
X132271D01*
Y27248D01*
X131571Y26902D01*
X131514Y26946D01*
X130841Y27225D01*
X130118Y27320D01*
X129395Y27225D01*
X129179Y27135D01*
X128402Y27541D01*
X128353Y27837D01*
X130990Y30474D01*
X149840D01*
X150479Y30327D01*
D02*
G37*
G36*
X132271Y21808D02*
Y19732D01*
X132271Y19732D01*
Y19324D01*
X132271D01*
X132271Y19031D01*
Y14731D01*
X132271D01*
Y14324D01*
X132271D01*
Y12248D01*
X131571Y11902D01*
X131514Y11946D01*
X130841Y12225D01*
X130118Y12320D01*
X129395Y12225D01*
X128722Y11946D01*
X128665Y11902D01*
X127965Y12248D01*
Y13914D01*
X128165Y14532D01*
X128165Y14941D01*
Y16527D01*
X122441D01*
X116717D01*
Y14941D01*
X116717Y14532D01*
X116917Y13914D01*
Y9731D01*
X116917D01*
Y9324D01*
X116917D01*
Y4732D01*
X116323Y4475D01*
X110195D01*
X109363Y5307D01*
Y8576D01*
X109363D01*
Y8747D01*
X109363D01*
Y12266D01*
X109388Y12394D01*
Y15159D01*
X116070Y21841D01*
X116717Y21573D01*
X116717Y19532D01*
X116717Y18832D01*
Y17527D01*
X122441D01*
X128165D01*
Y18832D01*
X128165Y19524D01*
X128165Y20224D01*
Y21751D01*
X128865Y22050D01*
X129395Y21830D01*
X130118Y21735D01*
X130841Y21830D01*
X131514Y22109D01*
X131571Y22153D01*
X132271Y21808D01*
D02*
G37*
G36*
X246428Y29533D02*
X246428Y20965D01*
X246428Y20965D01*
X246491Y20652D01*
X246667Y20388D01*
X246667Y20388D01*
X247092Y19963D01*
X246824Y19317D01*
X230229D01*
Y22428D01*
Y26430D01*
X241862D01*
X242370Y26531D01*
X242799Y26819D01*
X245782Y29801D01*
X246428Y29533D01*
D02*
G37*
G36*
X223314Y28334D02*
Y24397D01*
Y19317D01*
X222034D01*
X211581Y29770D01*
X211849Y30417D01*
X223314D01*
Y28334D01*
D02*
G37*
G36*
X273622Y36122D02*
X273622Y20669D01*
X271260Y18307D01*
X249902Y18307D01*
X247244Y20965D01*
X247244Y31263D01*
X252963Y36982D01*
X272762D01*
X273622Y36122D01*
D02*
G37*
G36*
X150479Y25381D02*
X153059D01*
X160277Y18164D01*
X160009Y17517D01*
X158570D01*
X153122Y22965D01*
X152692Y23252D01*
X152185Y23353D01*
X143320D01*
Y24324D01*
X143320D01*
Y24732D01*
X143320D01*
Y25702D01*
X150479D01*
Y25381D01*
D02*
G37*
G36*
X212100Y16112D02*
X211832Y15465D01*
X191286D01*
X191018Y16112D01*
X192675Y17769D01*
X210443D01*
X212100Y16112D01*
D02*
G37*
G36*
X156632Y15707D02*
X156342Y15007D01*
X153847D01*
X150888Y17965D01*
X150458Y18252D01*
X149951Y18353D01*
X143372D01*
X143320Y19053D01*
X143320Y19324D01*
X143320D01*
Y19732D01*
X143320D01*
Y20702D01*
X151636D01*
X156632Y15707D01*
D02*
G37*
G36*
X187979Y8550D02*
X187378Y8314D01*
X174044D01*
X168192Y14166D01*
X168482Y14866D01*
X187979D01*
Y8550D01*
D02*
G37*
G36*
X167315Y5122D02*
X167047Y4475D01*
X164821D01*
X161331Y7965D01*
X160901Y8252D01*
X160394Y8353D01*
X143320D01*
Y9324D01*
X143824Y9797D01*
X162640D01*
X167315Y5122D01*
D02*
G37*
%LPC*%
G36*
X230425Y152256D02*
X228055D01*
Y150083D01*
X230425D01*
Y152256D01*
D02*
G37*
G36*
X227055D02*
X224685D01*
Y150083D01*
X227055D01*
Y152256D01*
D02*
G37*
G36*
X220680Y152157D02*
X218212D01*
Y149886D01*
X220680D01*
Y152157D01*
D02*
G37*
G36*
X217212D02*
X214744D01*
Y149886D01*
X217212D01*
Y152157D01*
D02*
G37*
G36*
X219996Y106492D02*
X216642D01*
Y104811D01*
X219996D01*
Y106492D01*
D02*
G37*
G36*
X215642D02*
X212287D01*
Y104811D01*
X215642D01*
Y106492D01*
D02*
G37*
G36*
X219996Y103811D02*
X216642D01*
Y102130D01*
X219996D01*
Y103811D01*
D02*
G37*
G36*
X215642D02*
X212287D01*
Y102130D01*
X215642D01*
Y103811D01*
D02*
G37*
G36*
X155229Y152256D02*
X152859D01*
Y150083D01*
X155229D01*
Y152256D01*
D02*
G37*
G36*
X151859D02*
X149489D01*
Y150083D01*
X151859D01*
Y152256D01*
D02*
G37*
G36*
X145485Y152157D02*
X143017D01*
Y149886D01*
X145485D01*
Y152157D01*
D02*
G37*
G36*
X142017D02*
X139548D01*
Y149886D01*
X142017D01*
Y152157D01*
D02*
G37*
G36*
X117829Y128240D02*
X115459D01*
Y126067D01*
X117829D01*
Y128240D01*
D02*
G37*
G36*
X148318Y115938D02*
X143218D01*
Y112684D01*
X147618D01*
X147690Y112684D01*
X147740Y112173D01*
X147740D01*
X147743Y112146D01*
X147743Y112146D01*
X147746Y112111D01*
X147236Y111709D01*
X147171Y111666D01*
X146443Y110938D01*
X143218D01*
Y107684D01*
X148318D01*
Y109063D01*
X148657Y109403D01*
X151466D01*
X151688Y109070D01*
X152449Y108562D01*
X153347Y108383D01*
X154244Y108562D01*
X155005Y109070D01*
X155443Y109727D01*
X156198Y109962D01*
X157743Y108417D01*
X157596Y107677D01*
X157774Y106780D01*
X158283Y106019D01*
X159044Y105511D01*
X159941Y105332D01*
X160838Y105511D01*
X161599Y106019D01*
X162108Y106780D01*
X162286Y107677D01*
X162108Y108575D01*
X161599Y109335D01*
X160838Y109844D01*
X159941Y110022D01*
X159896Y110013D01*
X154661Y115248D01*
X154231Y115536D01*
X153724Y115637D01*
X148318D01*
Y115938D01*
D02*
G37*
G36*
X121398Y106492D02*
X118044D01*
Y104811D01*
X121398D01*
Y106492D01*
D02*
G37*
G36*
X148318Y105938D02*
X143218D01*
Y102684D01*
X148318D01*
Y105938D01*
D02*
G37*
G36*
X121398Y103811D02*
X118044D01*
Y102130D01*
X121398D01*
Y103811D01*
D02*
G37*
G36*
X168790Y100938D02*
X163690D01*
Y97684D01*
X168790D01*
Y100938D01*
D02*
G37*
G36*
X148518Y83811D02*
X146268D01*
Y82484D01*
X148518D01*
Y83811D01*
D02*
G37*
G36*
X145268D02*
X143018D01*
Y82484D01*
X145268D01*
Y83811D01*
D02*
G37*
G36*
X192800Y152231D02*
X190430D01*
Y150058D01*
X192800D01*
Y152231D01*
D02*
G37*
G36*
X189430D02*
X187060D01*
Y150058D01*
X189430D01*
Y152231D01*
D02*
G37*
G36*
X183056Y152132D02*
X180588D01*
Y149861D01*
X183056D01*
Y152132D01*
D02*
G37*
G36*
X179588D02*
X177119D01*
Y149861D01*
X179588D01*
Y152132D01*
D02*
G37*
G36*
X356512Y160646D02*
X353847D01*
Y157587D01*
X356512D01*
Y160646D01*
D02*
G37*
G36*
X352847D02*
X350181D01*
Y157587D01*
X352847D01*
Y160646D01*
D02*
G37*
G36*
X356512Y156587D02*
X353847D01*
Y153528D01*
X356512D01*
Y156587D01*
D02*
G37*
G36*
X352847D02*
X350181D01*
Y153528D01*
X352847D01*
Y156587D01*
D02*
G37*
G36*
X117829Y152748D02*
X115459D01*
Y150575D01*
X117829D01*
Y152748D01*
D02*
G37*
G36*
X114459D02*
X112089D01*
Y150575D01*
X114459D01*
Y152748D01*
D02*
G37*
G36*
X108085Y152650D02*
X105617D01*
Y150378D01*
X108085D01*
Y152650D01*
D02*
G37*
G36*
X104617D02*
X102148D01*
Y150378D01*
X104617D01*
Y152650D01*
D02*
G37*
G36*
X108085Y128142D02*
X105617D01*
Y125870D01*
X108085D01*
Y128142D01*
D02*
G37*
G36*
X104617D02*
X102148D01*
Y125870D01*
X104617D01*
Y128142D01*
D02*
G37*
G36*
X64287Y112024D02*
X62016D01*
Y109555D01*
X64287D01*
Y112024D01*
D02*
G37*
G36*
X133677Y69209D02*
X131209D01*
Y66937D01*
X133677D01*
Y69209D01*
D02*
G37*
G36*
X130209D02*
X127740D01*
Y66937D01*
X130209D01*
Y69209D01*
D02*
G37*
G36*
X83874Y94112D02*
X81799D01*
Y91841D01*
X83874D01*
Y94112D01*
D02*
G37*
G36*
X80799D02*
X78724D01*
Y91841D01*
X80799D01*
Y94112D01*
D02*
G37*
G36*
X83874Y90841D02*
X81799D01*
Y88569D01*
X83874D01*
Y90841D01*
D02*
G37*
G36*
X80799D02*
X78724D01*
Y88569D01*
X80799D01*
Y90841D01*
D02*
G37*
G36*
X76194Y93912D02*
X71444D01*
Y88769D01*
X73568D01*
Y82591D01*
X72527D01*
Y77251D01*
X76945D01*
X77473Y77251D01*
X78298Y77251D01*
X78793Y76756D01*
Y72498D01*
X78256Y71961D01*
X75184D01*
Y66818D01*
X79934D01*
Y69890D01*
X81055Y71012D01*
X81343Y71442D01*
X81444Y71949D01*
Y77251D01*
X82591D01*
Y82591D01*
X78173D01*
X77645Y82591D01*
X76945Y82591D01*
X76219D01*
Y90266D01*
X76194Y90394D01*
Y93912D01*
D02*
G37*
G36*
X250902Y137319D02*
X248532D01*
Y135146D01*
X250902D01*
Y137319D01*
D02*
G37*
G36*
X247532D02*
X245161D01*
Y135146D01*
X247532D01*
Y137319D01*
D02*
G37*
G36*
X263402Y130921D02*
X261130D01*
Y128847D01*
X263402D01*
Y130921D01*
D02*
G37*
G36*
Y127847D02*
X261130D01*
Y125772D01*
X263402D01*
Y127847D01*
D02*
G37*
G36*
X260130D02*
X257858D01*
Y125772D01*
X260130D01*
Y127847D01*
D02*
G37*
G36*
X328740Y128108D02*
X327401Y127932D01*
X326153Y127415D01*
X325081Y126592D01*
X324258Y125521D01*
X323742Y124273D01*
X323565Y122933D01*
X323742Y121594D01*
X324258Y120346D01*
X325081Y119274D01*
X326153Y118451D01*
X327401Y117934D01*
X328740Y117758D01*
X330080Y117934D01*
X331328Y118451D01*
X332399Y119274D01*
X333222Y120346D01*
X333739Y121594D01*
X333915Y122933D01*
X333739Y124273D01*
X333222Y125521D01*
X332399Y126592D01*
X331328Y127415D01*
X330080Y127932D01*
X328740Y128108D01*
D02*
G37*
G36*
X350394Y122203D02*
X349054Y122026D01*
X347806Y121509D01*
X346734Y120687D01*
X345912Y119615D01*
X345395Y118367D01*
X345219Y117028D01*
X345395Y115688D01*
X345912Y114440D01*
X346734Y113368D01*
X347806Y112546D01*
X349054Y112029D01*
X350394Y111853D01*
X351733Y112029D01*
X352981Y112546D01*
X354053Y113368D01*
X354875Y114440D01*
X355392Y115688D01*
X355569Y117028D01*
X355392Y118367D01*
X354875Y119615D01*
X354053Y120687D01*
X352981Y121509D01*
X351733Y122026D01*
X350394Y122203D01*
D02*
G37*
G36*
X338583D02*
X337243Y122026D01*
X335995Y121509D01*
X334923Y120687D01*
X334101Y119615D01*
X333584Y118367D01*
X333408Y117028D01*
X333584Y115688D01*
X334101Y114440D01*
X334923Y113368D01*
X335995Y112546D01*
X337243Y112029D01*
X338583Y111853D01*
X339922Y112029D01*
X341170Y112546D01*
X342242Y113368D01*
X343064Y114440D01*
X343581Y115688D01*
X343758Y117028D01*
X343581Y118367D01*
X343064Y119615D01*
X342242Y120687D01*
X341170Y121509D01*
X339922Y122026D01*
X338583Y122203D01*
D02*
G37*
G36*
X313894Y113008D02*
X311524D01*
Y110835D01*
X313894D01*
Y113008D01*
D02*
G37*
G36*
X310524D02*
X308154D01*
Y110835D01*
X310524D01*
Y113008D01*
D02*
G37*
G36*
X263008Y109169D02*
X260736D01*
Y107095D01*
X263008D01*
Y109169D01*
D02*
G37*
G36*
X259736D02*
X257465D01*
Y107095D01*
X259736D01*
Y109169D01*
D02*
G37*
G36*
X350894Y110527D02*
Y105717D01*
X355705D01*
X355587Y106608D01*
X355050Y107905D01*
X354196Y109018D01*
X353082Y109873D01*
X351785Y110410D01*
X350894Y110527D01*
D02*
G37*
G36*
X349894Y110527D02*
X349002Y110410D01*
X347705Y109873D01*
X346592Y109018D01*
X345737Y107905D01*
X345200Y106608D01*
X345083Y105717D01*
X349894D01*
Y110527D01*
D02*
G37*
G36*
X263008Y106095D02*
X260736D01*
Y104020D01*
X263008D01*
Y106095D01*
D02*
G37*
G36*
X259736D02*
X257465D01*
Y104020D01*
X259736D01*
Y106095D01*
D02*
G37*
G36*
X349894Y104717D02*
X345083D01*
X345200Y103825D01*
X345737Y102528D01*
X346592Y101415D01*
X347705Y100560D01*
X349002Y100023D01*
X349894Y99906D01*
Y104717D01*
D02*
G37*
G36*
X355705D02*
X350894D01*
Y99906D01*
X351785Y100023D01*
X353082Y100560D01*
X354196Y101415D01*
X355050Y102528D01*
X355587Y103825D01*
X355705Y104717D01*
D02*
G37*
G36*
X350894Y98716D02*
Y93906D01*
X355705D01*
X355587Y94797D01*
X355050Y96094D01*
X354196Y97207D01*
X353082Y98062D01*
X351785Y98599D01*
X350894Y98716D01*
D02*
G37*
G36*
X349894D02*
X349002Y98599D01*
X347705Y98062D01*
X346592Y97207D01*
X345737Y96094D01*
X345200Y94797D01*
X345083Y93906D01*
X349894D01*
Y98716D01*
D02*
G37*
G36*
X355705Y92905D02*
X350894D01*
Y88095D01*
X351785Y88212D01*
X353082Y88749D01*
X354196Y89604D01*
X355050Y90717D01*
X355587Y92014D01*
X355705Y92905D01*
D02*
G37*
G36*
X349894D02*
X345083D01*
X345200Y92014D01*
X345737Y90717D01*
X346592Y89604D01*
X347705Y88749D01*
X349002Y88212D01*
X349894Y88095D01*
Y92905D01*
D02*
G37*
G36*
X313894Y87886D02*
X311524D01*
Y85713D01*
X313894D01*
Y87886D01*
D02*
G37*
G36*
X310524D02*
X308154D01*
Y85713D01*
X310524D01*
Y87886D01*
D02*
G37*
G36*
X259745Y87221D02*
X257474D01*
Y85146D01*
X259745D01*
Y87221D01*
D02*
G37*
G36*
X350894Y86905D02*
Y82095D01*
X355705D01*
X355587Y82986D01*
X355050Y84283D01*
X354196Y85396D01*
X353082Y86251D01*
X351785Y86788D01*
X350894Y86905D01*
D02*
G37*
G36*
X349894Y86905D02*
X349002Y86788D01*
X347705Y86251D01*
X346592Y85396D01*
X345737Y84283D01*
X345200Y82986D01*
X345083Y82095D01*
X349894D01*
Y86905D01*
D02*
G37*
G36*
X339083D02*
Y82095D01*
X343894D01*
X343776Y82986D01*
X343239Y84283D01*
X342385Y85396D01*
X341271Y86251D01*
X339974Y86788D01*
X339083Y86905D01*
D02*
G37*
G36*
X338083D02*
X337191Y86788D01*
X335894Y86251D01*
X334781Y85396D01*
X333926Y84283D01*
X333389Y82986D01*
X333272Y82095D01*
X338083D01*
Y86905D01*
D02*
G37*
G36*
X259745Y84146D02*
X257474D01*
Y82071D01*
X259745D01*
Y84146D01*
D02*
G37*
G36*
X349894Y81094D02*
X345083D01*
X345200Y80203D01*
X345737Y78906D01*
X346592Y77793D01*
X347705Y76938D01*
X349002Y76401D01*
X349894Y76284D01*
Y81094D01*
D02*
G37*
G36*
X343894Y81094D02*
X339083D01*
Y76284D01*
X339974Y76401D01*
X341271Y76938D01*
X342385Y77793D01*
X343239Y78906D01*
X343776Y80203D01*
X343894Y81094D01*
D02*
G37*
G36*
X338083D02*
X333272D01*
X333389Y80203D01*
X333926Y78906D01*
X334781Y77793D01*
X335894Y76938D01*
X337191Y76401D01*
X338083Y76284D01*
Y81094D01*
D02*
G37*
G36*
X355705Y81094D02*
X350894D01*
Y76284D01*
X351785Y76401D01*
X353082Y76938D01*
X354196Y77793D01*
X355050Y78906D01*
X355587Y80203D01*
X355705Y81094D01*
D02*
G37*
G36*
X259268Y77969D02*
X256602D01*
Y74909D01*
X259268D01*
Y77969D01*
D02*
G37*
G36*
X255602D02*
X252937D01*
Y74909D01*
X255602D01*
Y77969D01*
D02*
G37*
G36*
X287098Y75705D02*
X284925D01*
Y73335D01*
X287098D01*
Y75705D01*
D02*
G37*
G36*
X259268Y73909D02*
X256602D01*
Y70850D01*
X259268D01*
Y73909D01*
D02*
G37*
G36*
X255602D02*
X252937D01*
Y70850D01*
X255602D01*
Y73909D01*
D02*
G37*
G36*
X360236Y92675D02*
X358897Y92499D01*
X357649Y91982D01*
X356577Y91159D01*
X355755Y90087D01*
X355238Y88839D01*
X355061Y87500D01*
X355238Y86161D01*
X355755Y84913D01*
X356577Y83841D01*
X357649Y83018D01*
X357891Y82918D01*
Y80271D01*
X357649Y80171D01*
X356577Y79348D01*
X355755Y78276D01*
X355238Y77028D01*
X355061Y75689D01*
X355238Y74350D01*
X355755Y73102D01*
X356577Y72030D01*
X357649Y71207D01*
X358897Y70690D01*
X360236Y70514D01*
X361576Y70690D01*
X362824Y71207D01*
X363896Y72030D01*
X364718Y73102D01*
X365235Y74350D01*
X365411Y75689D01*
X365235Y77028D01*
X364718Y78276D01*
X363896Y79348D01*
X362824Y80171D01*
X362581Y80271D01*
Y82918D01*
X362824Y83018D01*
X363896Y83841D01*
X364718Y84913D01*
X365235Y86161D01*
X365411Y87500D01*
X365235Y88839D01*
X364718Y90087D01*
X363896Y91159D01*
X362824Y91982D01*
X361576Y92499D01*
X360236Y92675D01*
D02*
G37*
G36*
X328740Y80864D02*
X327401Y80688D01*
X326153Y80171D01*
X325081Y79348D01*
X324258Y78276D01*
X323742Y77028D01*
X323565Y75689D01*
X323742Y74350D01*
X324258Y73102D01*
X325081Y72030D01*
X326153Y71207D01*
X327401Y70690D01*
X328740Y70514D01*
X330080Y70690D01*
X331328Y71207D01*
X332399Y72030D01*
X333222Y73102D01*
X333739Y74350D01*
X333915Y75689D01*
X333739Y77028D01*
X333222Y78276D01*
X332399Y79348D01*
X331328Y80171D01*
X330080Y80688D01*
X328740Y80864D01*
D02*
G37*
G36*
X350894Y75094D02*
Y70284D01*
X355705D01*
X355587Y71175D01*
X355050Y72472D01*
X354196Y73585D01*
X353082Y74440D01*
X351785Y74977D01*
X350894Y75094D01*
D02*
G37*
G36*
X349894D02*
X349002Y74977D01*
X347705Y74440D01*
X346592Y73585D01*
X345737Y72472D01*
X345200Y71175D01*
X345083Y70284D01*
X349894D01*
Y75094D01*
D02*
G37*
G36*
X339083D02*
Y70284D01*
X343894D01*
X343776Y71175D01*
X343239Y72472D01*
X342385Y73585D01*
X341271Y74440D01*
X339974Y74977D01*
X339083Y75094D01*
D02*
G37*
G36*
X338083D02*
X337191Y74977D01*
X335894Y74440D01*
X334781Y73585D01*
X333926Y72472D01*
X333389Y71175D01*
X333272Y70284D01*
X338083D01*
Y75094D01*
D02*
G37*
G36*
X343894Y69283D02*
X339083D01*
Y64473D01*
X339974Y64590D01*
X341271Y65127D01*
X342385Y65982D01*
X343239Y67095D01*
X343776Y68392D01*
X343894Y69283D01*
D02*
G37*
G36*
X349894Y69283D02*
X345083D01*
X345200Y68392D01*
X345737Y67095D01*
X346592Y65982D01*
X347705Y65127D01*
X349002Y64590D01*
X349894Y64473D01*
Y69283D01*
D02*
G37*
G36*
X355705D02*
X350894D01*
Y64473D01*
X351785Y64590D01*
X353082Y65127D01*
X354196Y65982D01*
X355050Y67095D01*
X355587Y68392D01*
X355705Y69283D01*
D02*
G37*
G36*
X338083Y69283D02*
X333272D01*
X333389Y68392D01*
X333926Y67095D01*
X334781Y65982D01*
X335894Y65127D01*
X337191Y64590D01*
X338083Y64473D01*
Y69283D01*
D02*
G37*
G36*
X279028Y62007D02*
X277854D01*
X277003Y61838D01*
X276282Y61356D01*
X275800Y60634D01*
X275730Y60283D01*
X279028D01*
Y62007D01*
D02*
G37*
G36*
X339083Y63283D02*
Y58472D01*
X343894D01*
X343776Y59364D01*
X343239Y60661D01*
X342385Y61774D01*
X341271Y62629D01*
X339974Y63166D01*
X339083Y63283D01*
D02*
G37*
G36*
X338083D02*
X337191Y63166D01*
X335894Y62629D01*
X334781Y61774D01*
X333926Y60661D01*
X333389Y59364D01*
X333272Y58472D01*
X338083D01*
Y63283D01*
D02*
G37*
G36*
X133677Y60622D02*
X131209D01*
Y58350D01*
X133677D01*
Y60622D01*
D02*
G37*
G36*
X130209D02*
X127740D01*
Y58350D01*
X130209D01*
Y60622D01*
D02*
G37*
G36*
X343894Y57472D02*
X339083D01*
Y52662D01*
X339974Y52779D01*
X341271Y53316D01*
X342385Y54171D01*
X343239Y55284D01*
X343776Y56581D01*
X343894Y57472D01*
D02*
G37*
G36*
X338083D02*
X333272D01*
X333389Y56581D01*
X333926Y55284D01*
X334781Y54171D01*
X335894Y53316D01*
X337191Y52779D01*
X338083Y52662D01*
Y57472D01*
D02*
G37*
G36*
X360236Y69053D02*
X358897Y68877D01*
X357649Y68360D01*
X356577Y67537D01*
X355755Y66465D01*
X355238Y65217D01*
X355061Y63878D01*
X355238Y62539D01*
X355755Y61291D01*
X356577Y60219D01*
X357649Y59396D01*
X357891Y59296D01*
Y56649D01*
X357649Y56549D01*
X356577Y55726D01*
X355755Y54654D01*
X355238Y53406D01*
X355061Y52067D01*
X355238Y50728D01*
X355755Y49479D01*
X356577Y48408D01*
X357649Y47585D01*
X358897Y47068D01*
X360236Y46892D01*
X361576Y47068D01*
X362824Y47585D01*
X363896Y48408D01*
X364718Y49479D01*
X365235Y50728D01*
X365411Y52067D01*
X365235Y53406D01*
X364718Y54654D01*
X363896Y55726D01*
X362824Y56549D01*
X362581Y56649D01*
Y59296D01*
X362824Y59396D01*
X363896Y60219D01*
X364718Y61291D01*
X365235Y62539D01*
X365411Y63878D01*
X365235Y65217D01*
X364718Y66465D01*
X363896Y67537D01*
X362824Y68360D01*
X361576Y68877D01*
X360236Y69053D01*
D02*
G37*
G36*
X310449Y43421D02*
X308177D01*
Y40953D01*
X310449D01*
Y43421D01*
D02*
G37*
G36*
X171759Y41650D02*
X169290D01*
Y39378D01*
X171759D01*
Y41650D01*
D02*
G37*
G36*
X168290D02*
X165822D01*
Y39378D01*
X168290D01*
Y41650D01*
D02*
G37*
G36*
X241650Y41059D02*
X239181D01*
Y38787D01*
X241650D01*
Y41059D01*
D02*
G37*
G36*
X238181D02*
X235713D01*
Y38787D01*
X238181D01*
Y41059D01*
D02*
G37*
G36*
X310449Y39953D02*
X308177D01*
Y37484D01*
X310449D01*
Y39953D01*
D02*
G37*
G36*
X298047Y38303D02*
X295677D01*
Y36130D01*
X298047D01*
Y38303D01*
D02*
G37*
G36*
X294677D02*
X292307D01*
Y36130D01*
X294677D01*
Y38303D01*
D02*
G37*
G36*
X290075Y35425D02*
X287606D01*
Y33154D01*
X290075D01*
Y35425D01*
D02*
G37*
G36*
X286606D02*
X284138D01*
Y33154D01*
X286606D01*
Y35425D01*
D02*
G37*
G36*
X281413Y29618D02*
X278945D01*
Y27347D01*
X281413D01*
Y29618D01*
D02*
G37*
G36*
X277945D02*
X275476D01*
Y27347D01*
X277945D01*
Y29618D01*
D02*
G37*
G36*
X106193Y22236D02*
X103724D01*
Y19965D01*
X106193D01*
Y22236D01*
D02*
G37*
G36*
X250378Y13205D02*
X247425D01*
Y9268D01*
X250378D01*
Y13205D01*
D02*
G37*
G36*
X387122Y7594D02*
X384850D01*
Y5126D01*
X387122D01*
Y7594D01*
D02*
G37*
G36*
X255331Y7268D02*
X252378D01*
Y3331D01*
X255331D01*
Y7268D01*
D02*
G37*
G36*
X250378D02*
X247425D01*
Y3331D01*
X250378D01*
Y7268D01*
D02*
G37*
G36*
X282890Y4815D02*
X280421D01*
Y2543D01*
X282890D01*
Y4815D01*
D02*
G37*
G36*
X279421D02*
X276953D01*
Y2543D01*
X279421D01*
Y4815D01*
D02*
G37*
%LPD*%
D13*
X59055Y29528D02*
G03*
X59055Y29528I-1969J0D01*
G01*
X68898Y25591D02*
G03*
X68898Y25591I-3937J0D01*
G01*
X84646Y29528D02*
G03*
X84646Y29528I-1969J0D01*
G01*
X78740Y25591D02*
G03*
X78740Y25591I-3937J0D01*
G01*
X173622Y143911D02*
X198249Y119284D01*
X173622Y143911D02*
Y163238D01*
X198249Y106792D02*
Y119284D01*
X216142Y99311D02*
X217815D01*
X205768D02*
X216142D01*
X272047Y62303D02*
X274528Y64784D01*
X272047Y54724D02*
Y62303D01*
Y54724D02*
X274488Y52284D01*
X282210D01*
X274528Y64784D02*
X279528D01*
X282210Y52284D02*
X283682Y50811D01*
Y48756D02*
Y50811D01*
X252414Y38308D02*
X273234D01*
X241862Y27756D02*
X252414Y38308D01*
X226772Y29724D02*
X241285D01*
X261344Y49784D01*
X279528D01*
X273234Y38308D02*
X283682Y48756D01*
X226772Y27756D02*
X241862D01*
X295177Y30413D02*
X305512D01*
X291535Y22835D02*
X293012D01*
X295177Y26476D02*
Y30413D01*
X291535Y22835D02*
X295177Y26476D01*
X187421Y104311D02*
X192421Y109311D01*
X181496Y21850D02*
X188006D01*
X191943Y25787D02*
X192028D01*
X188006Y21850D02*
X191943Y25787D01*
X188397Y29834D02*
X188779Y30217D01*
X188397Y27602D02*
Y29834D01*
X184692Y23897D02*
X188397Y27602D01*
X181574Y23897D02*
X184692D01*
X181496Y23819D02*
X181574Y23897D01*
X192126Y19094D02*
X210992D01*
X189223Y16191D02*
X192126Y19094D01*
X190027Y21327D02*
X212697D01*
X210992Y19094D02*
X214883Y15204D01*
X186692Y17991D02*
X190027Y21327D01*
X212697D02*
X218820Y15204D01*
X181496Y33661D02*
X206190D01*
X208061Y31791D01*
X208563D01*
X156724Y78414D02*
X167323Y67815D01*
X130114Y78414D02*
X156724D01*
X168701Y27756D02*
X168701Y27756D01*
X181496D01*
X181496Y27756D01*
X173524Y24508D02*
X174065D01*
X175344Y25787D01*
X181496D01*
X199574Y44808D02*
X215792D01*
X198910Y45472D02*
X199574Y44808D01*
X181496Y45472D02*
X198910D01*
X195034Y43504D02*
X196416Y42121D01*
X218480D01*
X218593Y42234D01*
X181496Y43504D02*
X195034D01*
X215792Y44808D02*
X215905Y44921D01*
X213106Y47495D02*
X213218Y47608D01*
X181550Y47495D02*
X213106D01*
X181496Y47441D02*
X181550Y47495D01*
X209990Y50295D02*
X210531D01*
X209104Y49409D02*
X209990Y50295D01*
X181496Y49409D02*
X209104D01*
X197244Y75971D02*
X198425Y77152D01*
X197244Y57284D02*
Y75971D01*
X199606Y78333D02*
X221779D01*
X198425Y77152D02*
X199606Y78333D01*
X153051Y75984D02*
X162598Y66437D01*
X105496Y75984D02*
X153051D01*
X259425Y10260D02*
X260433D01*
X168799Y33268D02*
X169193Y33661D01*
X153248Y33268D02*
X168799D01*
X151779Y31799D02*
X153248Y33268D01*
X265039Y84598D02*
Y114743D01*
Y84598D02*
X268092Y81545D01*
X265039Y114743D02*
X278453Y128157D01*
X277818Y81545D02*
X278835Y80528D01*
Y74560D02*
Y80528D01*
X278074Y73798D02*
X278835Y74560D01*
X278007Y73798D02*
X278074D01*
X275862Y71653D02*
X278007Y73798D01*
X268092Y81545D02*
X277818D01*
X266823Y76075D02*
X274969D01*
X122441Y17028D02*
Y22027D01*
X108063Y15709D02*
X117448Y25093D01*
X108063Y12394D02*
Y15709D01*
X106890Y11220D02*
X108063Y12394D01*
X113386Y13386D02*
X116217Y16217D01*
X121630D01*
X122441Y17028D01*
X162202Y162992D02*
X163375Y161819D01*
X163639D01*
X165372Y160086D01*
Y114638D02*
Y160086D01*
Y114638D02*
X165699Y114311D01*
X166240D01*
X122131Y150787D02*
X124802Y153458D01*
Y158366D01*
X113389Y116031D02*
X115870Y118512D01*
X113389Y86792D02*
Y116031D01*
Y86792D02*
X115870Y84311D01*
Y118512D02*
Y121260D01*
X106101Y115229D02*
X107966Y113365D01*
Y103361D02*
Y113365D01*
X99597Y94992D02*
X107966Y103361D01*
X106101Y115229D02*
Y121370D01*
X110630Y102771D02*
Y129793D01*
X112551Y131713D01*
X97170Y89311D02*
X110630Y102771D01*
X112551Y131713D02*
X112617D01*
X114762Y133858D01*
X114959D01*
X243209Y112335D02*
Y124705D01*
Y112335D02*
X245623Y109921D01*
X245690D01*
X247835Y107776D01*
X243209Y124705D02*
X246661Y128157D01*
Y128354D01*
X247835Y129528D01*
X248031D01*
X254134D02*
X260433Y135827D01*
X260630D01*
X248031Y129528D02*
X254134D01*
X268504Y132087D02*
X268701D01*
X274233Y137619D01*
X294665D01*
X295669Y136614D01*
X279823Y134646D02*
X288189D01*
X295276Y127559D01*
X295669D01*
X278453Y128157D02*
Y128354D01*
X279626Y129528D01*
X279823D01*
X220079Y35905D02*
X221772Y37598D01*
X221392Y41074D02*
Y43211D01*
X216435Y36220D02*
X218919Y38705D01*
X211811Y36220D02*
X216435D01*
X219023Y38705D02*
X221392Y41074D01*
X218919Y38705D02*
X219023D01*
X221772Y37598D02*
X226772D01*
Y35630D02*
X232776D01*
X226772Y33661D02*
Y35630D01*
X299680Y64784D02*
X300984D01*
X265158Y74410D02*
X266823Y76075D01*
X274969D02*
X275665Y76772D01*
X386222Y48228D02*
Y116534D01*
X354872Y147884D02*
Y148277D01*
X345957Y152075D02*
Y155421D01*
Y152075D02*
X349803Y148228D01*
X354872Y147884D02*
X386222Y116534D01*
X221392Y43211D02*
X223576Y45395D01*
X226694D01*
X226772Y45472D01*
X169193Y33661D02*
X181496D01*
X122441Y27028D02*
X125669D01*
X119213D02*
X122441D01*
X88583Y93271D02*
X92104Y96792D01*
X88583Y68996D02*
Y93271D01*
X81299Y61713D02*
X88583Y68996D01*
X97170Y84311D02*
X105496Y75984D01*
X95496Y84311D02*
X97170D01*
X119217Y89311D02*
X130114Y78414D01*
X117544Y89311D02*
X119217D01*
X95496Y109311D02*
X100751D01*
X103125Y106937D01*
Y103962D02*
Y106937D01*
Y103962D02*
X103150Y103937D01*
X95496Y104311D02*
X97170D01*
X93823D02*
X95496D01*
X97170D02*
X100394Y101087D01*
Y98334D02*
Y101087D01*
X98851Y96792D02*
X100394Y98334D01*
X97363Y131782D02*
X103384Y137803D01*
X91342Y106792D02*
Y122771D01*
X103384Y137803D02*
X123628D01*
X124802Y138976D01*
X97363Y128793D02*
Y131782D01*
X91342Y122771D02*
X97363Y128793D01*
X91342Y106792D02*
X93823Y104311D01*
X125334Y109684D02*
Y110513D01*
X125197Y109547D02*
X125334Y109684D01*
X121898Y113949D02*
X125334Y110513D01*
X117906Y113949D02*
X121898D01*
X117544Y114311D02*
X117906Y113949D01*
X115870Y84311D02*
X117544D01*
X95496Y89311D02*
X97170D01*
X96178Y94992D02*
X99597D01*
X95496Y94311D02*
X96178Y94992D01*
X103059Y114311D02*
X105166Y112205D01*
X95496Y114311D02*
X103059D01*
X92104Y96792D02*
X98851D01*
X81299Y61516D02*
Y61713D01*
X89743Y58444D02*
X92913Y61614D01*
X73819Y61713D02*
X77087Y58444D01*
X89743D01*
X63189Y56496D02*
X92913D01*
X93504Y55905D01*
X94882D02*
X105512Y66535D01*
X93504Y55905D02*
X94882D01*
X77656Y99311D02*
X95496D01*
X77559Y99215D02*
X77656Y99311D01*
X56299Y108760D02*
X58444Y106615D01*
X56201Y108858D02*
X56299Y108760D01*
Y99213D02*
Y108760D01*
X77559Y99215D02*
Y99411D01*
X73453Y103517D02*
X77559Y99411D01*
X61475Y103517D02*
X73453D01*
X58444Y106548D02*
X61475Y103517D01*
X58444Y106548D02*
Y106615D01*
X56201Y108858D02*
Y109055D01*
X61417Y99213D02*
X61417Y99213D01*
X61417Y89370D02*
Y99213D01*
X80118Y71949D02*
Y79921D01*
X77559Y69390D02*
X80118Y71949D01*
X73819Y91341D02*
X74894Y90266D01*
Y80028D02*
Y90266D01*
Y80028D02*
X75000Y79921D01*
X73819Y61516D02*
Y61713D01*
X56299Y63386D02*
X63189Y56496D01*
X56299Y63386D02*
Y89370D01*
X208612Y31742D02*
X226567D01*
X221485Y17991D02*
X251694D01*
X142401Y86438D02*
X156180D01*
X138976Y89862D02*
X142401Y86438D01*
X158307Y84311D02*
X166240D01*
X156180Y86438D02*
X158307Y84311D01*
X138878Y95278D02*
Y102953D01*
Y95278D02*
X144844Y89311D01*
X145768D01*
X209646Y80610D02*
X220200D01*
X191921D02*
X209646D01*
Y84488D01*
X214469Y89311D01*
X216142D01*
X188140Y84391D02*
Y95030D01*
X192421Y99311D01*
X194095D01*
X188140Y84391D02*
X191921Y80610D01*
X220200D02*
X227165Y87576D01*
Y98327D01*
X224311Y88681D02*
Y92815D01*
X167653Y104311D02*
X175251Y111909D01*
X166240Y104311D02*
X167653D01*
X174585Y116732D02*
X178051D01*
X167163Y109311D02*
X174585Y116732D01*
X166240Y109311D02*
X167163D01*
X178051Y81975D02*
Y116732D01*
Y81975D02*
X191339Y68687D01*
X175251Y82229D02*
X189370Y68110D01*
X175251Y82229D02*
Y111909D01*
X172975Y68592D02*
Y85431D01*
Y68592D02*
X188241Y53326D01*
X171175Y67847D02*
X187496Y51526D01*
X171175Y67847D02*
Y83792D01*
X168529Y86438D02*
X171175Y83792D01*
X169095Y89311D02*
X172975Y85431D01*
X182579Y79993D02*
Y104469D01*
X187579Y109468D01*
X184379Y80738D02*
Y101268D01*
X187421Y104311D01*
X182579Y79993D02*
X193307Y69264D01*
X187579Y109468D02*
X192421Y114311D01*
X184379Y80738D02*
X195276Y69841D01*
X166240Y89311D02*
X169095D01*
X156142Y94252D02*
X156201Y94193D01*
X145827Y94252D02*
X156142D01*
X145768Y94311D02*
X145827Y94252D01*
X199213Y71457D02*
X201722Y73966D01*
X204289Y76533D01*
X156152Y99262D02*
X156201Y99213D01*
X145817Y99262D02*
X156152D01*
X145768Y99311D02*
X145817Y99262D01*
X148108Y110728D02*
X153347D01*
X146691Y109311D02*
X148108Y110728D01*
X159941Y107677D02*
Y108094D01*
X153724Y114311D02*
X159941Y108094D01*
X145768Y114311D02*
X153724D01*
X145768Y109311D02*
X146691D01*
X163190Y92184D02*
X165317Y94311D01*
X163190Y87946D02*
X164698Y86438D01*
X168529D01*
X165317Y94311D02*
X166240D01*
X204289Y76533D02*
X222525D01*
X199213Y57284D02*
Y71457D01*
X187496Y51526D02*
X201087D01*
X163190Y87946D02*
Y92184D01*
X201087Y51526D02*
X203072Y53510D01*
Y57205D01*
X203150Y57284D01*
X188241Y53326D02*
X200342D01*
X201103Y54088D01*
Y57205D01*
X201181Y57284D01*
X216142Y114311D02*
X222598D01*
X233998Y88007D02*
Y102911D01*
X222598Y114311D02*
X233998Y102911D01*
X208268Y118445D02*
Y121900D01*
X201969Y128199D02*
X208268Y121900D01*
X189370Y57284D02*
Y68110D01*
X191339Y57284D02*
Y68687D01*
X195276Y57284D02*
Y69841D01*
X192421Y114311D02*
X194095D01*
X193307Y57284D02*
Y69264D01*
X192421Y109311D02*
X194095D01*
X203150Y67838D02*
X208245Y72933D01*
X203150Y57284D02*
Y67838D01*
X223270Y74733D02*
X235798Y87261D01*
X207499Y74733D02*
X223270D01*
X201181Y57284D02*
Y68415D01*
X216142Y109311D02*
X222598D01*
X225453Y143445D02*
X237598Y131299D01*
Y86516D02*
Y131299D01*
X223878Y138445D02*
X235798Y126524D01*
X222525Y76533D02*
X233998Y88007D01*
X222598Y109311D02*
X232198Y99711D01*
Y88753D02*
Y99711D01*
X221779Y78333D02*
X232198Y88753D01*
X235798Y87261D02*
Y126524D01*
X201181Y68415D02*
X207499Y74733D01*
X224016Y72933D02*
X237598Y86516D01*
X208245Y72933D02*
X224016D01*
X201969Y85433D02*
X205591D01*
X214469Y94311D01*
X217815D01*
X195768Y104311D02*
X198249Y106792D01*
X194095Y104311D02*
X195768D01*
X242126Y101870D02*
X246661Y106405D01*
X242126Y60606D02*
Y101870D01*
X230929Y49409D02*
X242126Y60606D01*
X216142Y84311D02*
X217815D01*
Y99311D02*
X224311Y92815D01*
X217815Y84311D02*
X220296Y86792D01*
X217815Y94311D02*
X220296Y91830D01*
Y86792D02*
Y91830D01*
X189940D02*
X192421Y94311D01*
X189940Y86792D02*
X192421Y84311D01*
X194095D01*
X189940Y86792D02*
Y91830D01*
X192421Y94311D02*
X195768D01*
X203937Y102480D02*
Y116142D01*
X195768Y94311D02*
X203937Y102480D01*
X194095Y89311D02*
X195768D01*
X205768Y99311D01*
X206299Y152362D02*
X207480D01*
X211819Y156701D01*
X199169Y120910D02*
X203937Y116142D01*
X199169Y120910D02*
Y157245D01*
X199773Y157849D01*
X211819Y156701D02*
X216440D01*
X217712Y157972D01*
X248031Y57480D02*
Y85827D01*
X236024Y45472D02*
X248031Y57480D01*
X226772Y45472D02*
X236024D01*
X292126Y84646D02*
X292323D01*
X288854Y92126D02*
X292126D01*
X288846Y92118D02*
X288854Y92126D01*
X281095Y92118D02*
X288846D01*
X279921Y90945D02*
X281095Y92118D01*
X288846Y114067D02*
X288854Y114075D01*
X281095Y114067D02*
X288846D01*
X279921Y112894D02*
X281095Y114067D01*
X288854Y114075D02*
X292126D01*
X268316Y88386D02*
X270875Y85827D01*
X268119Y88386D02*
X268316D01*
X270875Y85827D02*
X279921D01*
X268307Y110335D02*
X270866Y107776D01*
X268110Y110335D02*
X268307D01*
X270866Y107776D02*
X279921D01*
X259170Y91051D02*
X260245Y92126D01*
X248138Y91051D02*
X259170D01*
X248031Y90945D02*
X248138Y91051D01*
X259161Y113000D02*
X260236Y114075D01*
X248138Y113000D02*
X259161D01*
X248031Y112894D02*
X248138Y113000D01*
X246661Y106405D02*
Y106602D01*
X247835Y107776D01*
X226772Y49409D02*
X230929D01*
X358465Y8465D02*
X362303Y4626D01*
X379035D01*
X226567Y31742D02*
X226616Y31693D01*
X226780Y31701D02*
X237894D01*
X251694Y17991D02*
X259425Y10260D01*
X208946Y30531D02*
X221485Y17991D01*
X226772Y31693D02*
X226780Y31701D01*
X300984Y49784D02*
X309567D01*
X300984D02*
X301091Y49677D01*
Y41724D02*
Y49677D01*
Y41724D02*
X302362Y40453D01*
X299311Y49784D02*
X300984D01*
X293602Y71752D02*
X299050Y66304D01*
Y65413D02*
Y66304D01*
X293012Y71752D02*
X293602D01*
X299050Y65413D02*
X299680Y64784D01*
X298321Y62302D02*
X303685D01*
X296830Y52265D02*
Y60811D01*
X298321Y62302D01*
X296830Y52265D02*
X299311Y49784D01*
X303685Y62302D02*
X305662Y64280D01*
X309358D01*
X310531Y65453D01*
X309567Y49784D02*
X310531Y48819D01*
X117448Y25093D02*
Y25263D01*
X119213Y27028D01*
X125669D02*
X130441Y31799D01*
X130689Y3150D02*
X134567Y7028D01*
X109646Y3150D02*
X130689D01*
X106693Y6102D02*
X109646Y3150D01*
X160394Y7028D02*
X164272Y3150D01*
X134567Y7028D02*
X137795D01*
X107638Y27028D02*
X119213D01*
X106693Y11220D02*
X106890D01*
X147933Y27028D02*
X153287D01*
X130441Y31799D02*
X151779D01*
X158021Y16191D02*
X189223D01*
X162324Y17991D02*
X186692D01*
X153287Y27028D02*
X162324Y17991D01*
X173495Y6988D02*
X205185D01*
X166802Y13681D02*
X173495Y6988D01*
X153298Y13681D02*
X166802D01*
X169361Y4950D02*
X209052D01*
X163189Y11122D02*
X169361Y4950D01*
X138701Y11122D02*
X163189D01*
X164272Y3150D02*
X211189D01*
X137795Y7028D02*
X160394D01*
X149951Y17028D02*
X153298Y13681D01*
X137795Y17028D02*
X149951D01*
X152185Y22027D02*
X158021Y16191D01*
X137795Y22027D02*
X152185D01*
X137795Y27028D02*
X147933D01*
X211189Y3150D02*
X216851Y8812D01*
X137795Y12027D02*
X138701Y11122D01*
X218820Y12086D02*
Y15204D01*
Y12086D02*
X218898Y12008D01*
X207009Y12086D02*
X207087Y12008D01*
X214883Y12086D02*
Y15204D01*
Y12086D02*
X214961Y12008D01*
X205185Y6988D02*
X207009Y8812D01*
Y11930D01*
X207087Y12008D01*
X209052Y4950D02*
X212914Y8812D01*
X135531Y18024D02*
X136904Y16651D01*
X216851Y8812D02*
Y11930D01*
X216929Y12008D01*
X212914Y8812D02*
Y11930D01*
X212992Y12008D01*
X305512Y30413D02*
X306299Y29626D01*
D16*
X56201Y109055D02*
D03*
X61516D02*
D03*
X307677Y40453D02*
D03*
X302362D02*
D03*
X379035Y4626D02*
D03*
X384350D02*
D03*
D17*
X287106Y41240D02*
D03*
Y35925D02*
D03*
X168790Y33563D02*
D03*
Y38878D02*
D03*
X106693Y28051D02*
D03*
Y22736D02*
D03*
X238681Y32972D02*
D03*
Y38287D02*
D03*
X105117Y133957D02*
D03*
Y128642D02*
D03*
X217712Y157972D02*
D03*
Y152657D02*
D03*
X142517Y157972D02*
D03*
Y152657D02*
D03*
X105117Y158465D02*
D03*
Y153150D02*
D03*
X180088Y157948D02*
D03*
Y152632D02*
D03*
X279921Y10630D02*
D03*
Y5315D02*
D03*
X278445Y35433D02*
D03*
Y30118D02*
D03*
X130709Y61122D02*
D03*
Y66437D02*
D03*
D18*
X295669Y127559D02*
D03*
Y136614D02*
D03*
D19*
X265158Y74410D02*
D03*
X256102D02*
D03*
X344291Y157087D02*
D03*
X353346D02*
D03*
D20*
X291732Y21063D02*
D03*
Y9449D02*
D03*
D21*
X358465Y29134D02*
D03*
Y8465D02*
D03*
D22*
X260630Y135827D02*
D03*
Y128347D02*
D03*
X268504Y132087D02*
D03*
X292126Y92126D02*
D03*
Y84646D02*
D03*
X300000Y88386D02*
D03*
X292126Y114075D02*
D03*
Y106595D02*
D03*
X300000Y110335D02*
D03*
X260245Y92126D02*
D03*
Y84646D02*
D03*
X268119Y88386D02*
D03*
X260236Y114075D02*
D03*
Y106595D02*
D03*
X268110Y110335D02*
D03*
D23*
X73819Y61516D02*
D03*
X81299D02*
D03*
X77559Y69390D02*
D03*
X73819Y91341D02*
D03*
X81299D02*
D03*
X77559Y99215D02*
D03*
D24*
X331693Y20610D02*
D03*
D25*
X306299Y11594D02*
D03*
Y29626D02*
D03*
D26*
X279921Y90945D02*
D03*
Y85827D02*
D03*
Y112894D02*
D03*
Y107776D02*
D03*
X248031Y90945D02*
D03*
Y85827D02*
D03*
Y112894D02*
D03*
Y107776D02*
D03*
X311024Y93504D02*
D03*
Y88386D02*
D03*
Y105217D02*
D03*
Y110335D02*
D03*
X92913Y61003D02*
D03*
Y55885D02*
D03*
X310524Y54315D02*
D03*
Y49197D02*
D03*
Y60070D02*
D03*
Y65188D02*
D03*
X153150Y32972D02*
D03*
Y27854D02*
D03*
X106693Y11220D02*
D03*
Y6102D02*
D03*
X279823Y129528D02*
D03*
Y134646D02*
D03*
X248031Y129528D02*
D03*
Y134646D02*
D03*
X275665Y76772D02*
D03*
Y71653D02*
D03*
X295177Y30512D02*
D03*
Y35630D02*
D03*
X124802Y133858D02*
D03*
Y138976D02*
D03*
X237397Y157874D02*
D03*
Y162992D02*
D03*
X114959Y128740D02*
D03*
Y133858D02*
D03*
X227555Y152756D02*
D03*
Y157874D02*
D03*
X162202D02*
D03*
Y162992D02*
D03*
X152359Y152756D02*
D03*
Y157874D02*
D03*
X124802Y158366D02*
D03*
Y163484D02*
D03*
X199773Y157849D02*
D03*
Y162967D02*
D03*
X114959Y153248D02*
D03*
Y158366D02*
D03*
X189930Y152731D02*
D03*
Y157849D02*
D03*
D27*
X61417Y89370D02*
D03*
X56299D02*
D03*
X56299Y99213D02*
D03*
X61417D02*
D03*
X75000Y79921D02*
D03*
X80118D02*
D03*
X287598Y72835D02*
D03*
X292717D02*
D03*
X349803Y148031D02*
D03*
X354921D02*
D03*
D28*
X166240Y84311D02*
D03*
Y89311D02*
D03*
Y94311D02*
D03*
Y99311D02*
D03*
Y104311D02*
D03*
Y109311D02*
D03*
Y114311D02*
D03*
X145768Y84311D02*
D03*
Y89311D02*
D03*
Y94311D02*
D03*
Y99311D02*
D03*
Y104311D02*
D03*
Y109311D02*
D03*
Y114311D02*
D03*
D29*
X117544Y84311D02*
D03*
Y89311D02*
D03*
Y94311D02*
D03*
Y99311D02*
D03*
Y104311D02*
D03*
Y109311D02*
D03*
Y114311D02*
D03*
X95496Y84311D02*
D03*
Y89311D02*
D03*
Y94311D02*
D03*
Y99311D02*
D03*
Y104311D02*
D03*
Y109311D02*
D03*
Y114311D02*
D03*
X216142Y84311D02*
D03*
Y89311D02*
D03*
Y94311D02*
D03*
Y99311D02*
D03*
Y104311D02*
D03*
Y109311D02*
D03*
Y114311D02*
D03*
X194095Y84311D02*
D03*
Y89311D02*
D03*
Y94311D02*
D03*
Y99311D02*
D03*
Y104311D02*
D03*
Y109311D02*
D03*
Y114311D02*
D03*
D30*
X279528Y64784D02*
D03*
Y59784D02*
D03*
Y54783D02*
D03*
Y49784D02*
D03*
X300984Y64784D02*
D03*
Y49784D02*
D03*
Y59784D02*
D03*
Y54783D02*
D03*
D31*
X218898Y12008D02*
D03*
X216929D02*
D03*
X214961D02*
D03*
X212992D02*
D03*
X211024D02*
D03*
X209055D02*
D03*
X207087D02*
D03*
X205118D02*
D03*
X203150D02*
D03*
X201181D02*
D03*
X199213D02*
D03*
X197244D02*
D03*
X195276D02*
D03*
X193307D02*
D03*
X191339D02*
D03*
X189370D02*
D03*
Y57284D02*
D03*
X191339D02*
D03*
X193307D02*
D03*
X195276D02*
D03*
X197244D02*
D03*
X199213D02*
D03*
X201181D02*
D03*
X203150D02*
D03*
X205118D02*
D03*
X207087D02*
D03*
X209055D02*
D03*
X211024D02*
D03*
X212992D02*
D03*
X214961D02*
D03*
X216929D02*
D03*
X218898D02*
D03*
D32*
X181496Y19882D02*
D03*
Y21850D02*
D03*
Y23819D02*
D03*
Y25787D02*
D03*
Y27756D02*
D03*
Y29724D02*
D03*
Y31693D02*
D03*
Y33661D02*
D03*
Y35630D02*
D03*
Y37598D02*
D03*
Y39567D02*
D03*
Y41535D02*
D03*
Y43504D02*
D03*
Y45472D02*
D03*
Y47441D02*
D03*
Y49409D02*
D03*
X226772D02*
D03*
Y47441D02*
D03*
Y45472D02*
D03*
Y43504D02*
D03*
Y41535D02*
D03*
Y39567D02*
D03*
Y37598D02*
D03*
Y35630D02*
D03*
Y33661D02*
D03*
Y31693D02*
D03*
Y29724D02*
D03*
Y27756D02*
D03*
Y25787D02*
D03*
Y23819D02*
D03*
Y21850D02*
D03*
Y19882D02*
D03*
D33*
X260433Y33071D02*
D03*
D34*
X269488Y8268D02*
D03*
X260433D02*
D03*
X251378D02*
D03*
D35*
X122441Y27028D02*
D03*
X137795D02*
D03*
X122441Y22027D02*
D03*
X137795D02*
D03*
X122441Y17028D02*
D03*
X137795D02*
D03*
X122441Y12027D02*
D03*
X137795D02*
D03*
X122441Y7028D02*
D03*
X137795D02*
D03*
D59*
X280787Y55197D02*
X286614Y61024D01*
X269004Y35630D02*
X279823D01*
X281201Y54783D02*
X284193D01*
X280374D02*
X280787Y55197D01*
X281041Y36848D02*
X286614Y42421D01*
X279528Y54783D02*
X280374D01*
X286614Y61024D02*
Y67021D01*
X303741Y55807D02*
X325000D01*
X328740Y52067D01*
X302717Y54783D02*
X303741Y55807D01*
X281982Y71653D02*
X286614Y67021D01*
X275862Y71653D02*
X281982D01*
X286614Y42421D02*
Y52362D01*
X281041Y36652D02*
Y36848D01*
X280020Y35630D02*
X281041Y36652D01*
X279823Y35630D02*
X280020D01*
X284193Y54783D02*
X286614Y52362D01*
X134646Y163238D02*
X173622D01*
X147638Y157923D02*
X162153D01*
X142566D02*
X147638D01*
X134646Y148624D02*
Y163238D01*
X105166Y158415D02*
X124752D01*
X105166Y133907D02*
X124752D01*
X199773Y163238D02*
X199908Y163103D01*
X173622Y163238D02*
X199773D01*
X124998Y138976D02*
X134646Y148624D01*
X209842Y163238D02*
X209965Y163115D01*
X209707Y163103D02*
X209842Y163238D01*
X199908Y163103D02*
X209707D01*
X180137Y157898D02*
X199724D01*
X180088Y157948D02*
X180137Y157898D01*
X199724D02*
X199773Y157849D01*
X209965Y163115D02*
X237274D01*
X105117Y133957D02*
X105166Y133907D01*
X124752D02*
X124802Y133858D01*
X105117Y158465D02*
X105166Y158415D01*
X124752D02*
X124802Y158366D01*
X142517Y157972D02*
X142566Y157923D01*
X162153D02*
X162202Y157874D01*
X227505Y157923D02*
X227555Y157874D01*
X217761Y157923D02*
X227505D01*
X217712Y157972D02*
X217761Y157923D01*
X227555Y157874D02*
X237397D01*
X125048Y163238D02*
X134646D01*
X124802Y138976D02*
X124998D01*
X124802Y163484D02*
X125048Y163238D01*
X237274Y163115D02*
X237397Y162992D01*
X328494D02*
X366117Y125369D01*
X237397Y162992D02*
X328494D01*
X366117Y117003D02*
Y125369D01*
X360236Y111122D02*
X366117Y117003D01*
X311024Y105217D02*
X338583D01*
X300197Y110335D02*
X305315Y105217D01*
X300000Y110335D02*
X300197D01*
X305315Y105217D02*
X311024D01*
X295669Y87992D02*
Y103051D01*
X292323Y84646D02*
X295669Y87992D01*
X293148Y105573D02*
X295669Y103051D01*
X293148Y105573D02*
Y105770D01*
X292323Y106595D02*
X293148Y105770D01*
X292126Y106595D02*
X292323D01*
X300197Y88386D02*
X305315Y93504D01*
X300000Y88386D02*
X300197D01*
X305315Y93504D02*
X311024D01*
X338558Y93430D02*
X338583Y93405D01*
X311097Y93430D02*
X338558D01*
X311024Y93504D02*
X311097Y93430D01*
X300984Y54783D02*
X302717D01*
X303967Y58534D02*
X325167D01*
X302717Y59784D02*
X303967Y58534D01*
X325167D02*
X328740Y62106D01*
Y63878D01*
X300984Y59784D02*
X302717D01*
D60*
X260433Y32874D02*
X260531Y32972D01*
X260433Y10260D02*
Y32874D01*
Y10260D02*
Y10260D01*
X276555Y11594D02*
X306299D01*
X275665Y10705D02*
X276555Y11594D01*
X270941Y10705D02*
X275665D01*
X269488Y9252D02*
X270941Y10705D01*
X269488Y8268D02*
Y9252D01*
X360236Y99311D02*
Y111122D01*
Y75689D02*
Y87500D01*
Y52067D02*
Y63878D01*
X312205Y77559D02*
X321260Y68504D01*
X299409Y77559D02*
X312205D01*
X292323Y84646D02*
X299409Y77559D01*
X321260Y62402D02*
Y68504D01*
X315158Y30851D02*
X322003Y37697D01*
X315158Y16516D02*
Y30851D01*
X310236Y11594D02*
X315158Y16516D01*
X322003Y37697D02*
X329134D01*
X306299Y11594D02*
X310236D01*
X332579Y23287D02*
X334252D01*
X343685Y13854D01*
X353075D01*
X358465Y8465D01*
X355784Y29134D02*
X358465D01*
X350394Y34524D02*
X355784Y29134D01*
X350394Y34524D02*
Y57972D01*
D61*
X385827Y23524D02*
D03*
Y151476D02*
D03*
D62*
X328740Y122933D02*
D03*
Y111122D02*
D03*
Y99311D02*
D03*
Y87500D02*
D03*
Y75689D02*
D03*
Y63878D02*
D03*
Y52067D02*
D03*
X338583Y117028D02*
D03*
Y105217D02*
D03*
Y93405D02*
D03*
Y81595D02*
D03*
Y69784D02*
D03*
Y57972D02*
D03*
X350394Y117028D02*
D03*
Y105217D02*
D03*
Y93405D02*
D03*
Y81595D02*
D03*
Y69784D02*
D03*
Y57972D02*
D03*
X360236Y122933D02*
D03*
Y111122D02*
D03*
Y99311D02*
D03*
Y87500D02*
D03*
Y75689D02*
D03*
Y63878D02*
D03*
Y52067D02*
D03*
D63*
X192028Y25787D02*
D03*
X188779Y30217D02*
D03*
X167323Y67815D02*
D03*
X173524Y24508D02*
D03*
X168701Y27756D02*
D03*
X198425Y77152D02*
D03*
X162598Y66437D02*
D03*
X104062Y16804D02*
D03*
X113386Y13386D02*
D03*
X169149Y146457D02*
D03*
X183465Y113675D02*
D03*
X202611Y136221D02*
D03*
X98300Y120866D02*
D03*
X227362Y114961D02*
D03*
X184953Y147244D02*
D03*
X124752Y126311D02*
D03*
X152756Y145276D02*
D03*
X147638Y125426D02*
D03*
X73622Y109646D02*
D03*
X66142Y68996D02*
D03*
X235433Y150787D02*
D03*
X282222Y146292D02*
D03*
X363896Y153937D02*
D03*
X147638Y157923D02*
D03*
X122131Y150787D02*
D03*
X115870Y121260D02*
D03*
X106101Y121370D02*
D03*
X65354Y51575D02*
D03*
X114567Y66929D02*
D03*
X151466Y67433D02*
D03*
X227559Y11811D02*
D03*
X220079Y35905D02*
D03*
X232776Y35630D02*
D03*
X211811Y36220D02*
D03*
X131890Y146063D02*
D03*
X103150Y103937D02*
D03*
X125197Y109547D02*
D03*
X105166Y112205D02*
D03*
X105512Y66535D02*
D03*
X138976Y89862D02*
D03*
X138878Y102953D02*
D03*
X227165Y98327D02*
D03*
X224311Y88681D02*
D03*
X178051Y116732D02*
D03*
X175251Y111909D02*
D03*
X156201Y94193D02*
D03*
Y99213D02*
D03*
X153347Y110728D02*
D03*
X159941Y107677D02*
D03*
X201870Y73819D02*
D03*
X187500Y104232D02*
D03*
Y109547D02*
D03*
X225453Y143445D02*
D03*
X223878Y138445D02*
D03*
X201969Y85433D02*
D03*
X209842Y163238D02*
D03*
X206299Y152362D02*
D03*
X203937Y116142D02*
D03*
X208268Y118445D02*
D03*
X201969Y128199D02*
D03*
X236024Y45472D02*
D03*
X218593Y42234D02*
D03*
X215905Y44921D02*
D03*
X213218Y47608D02*
D03*
X210531Y50295D02*
D03*
X208563Y31791D02*
D03*
X321260Y62402D02*
D03*
X329134Y37697D02*
D03*
X394096Y48228D02*
D03*
X392128Y44291D02*
D03*
X394096Y40354D02*
D03*
X392128Y36417D02*
D03*
X390159Y48228D02*
D03*
X388191Y44291D02*
D03*
X390159Y40354D02*
D03*
X388191Y36417D02*
D03*
X386222Y48228D02*
D03*
X384254Y44291D02*
D03*
X386222Y40354D02*
D03*
X384254Y36417D02*
D03*
X382285Y48228D02*
D03*
X380317Y44291D02*
D03*
X382285Y40354D02*
D03*
X380317Y36417D02*
D03*
X378348Y48228D02*
D03*
X376380Y44291D02*
D03*
X378348Y40354D02*
D03*
X376380Y36417D02*
D03*
X374411Y48228D02*
D03*
X372443Y44291D02*
D03*
X374411Y40354D02*
D03*
X372443Y36417D02*
D03*
M02*
