%TF.GenerationSoftware,Altium Limited,Altium Designer,19.1.8 (144)*%
G04 Layer_Color=16711935*
%FSLAX26Y26*%
%MOIN*%
%TF.FileFunction,Other,Mechanical_13*%
%TF.Part,Single*%
G01*
G75*
%TA.AperFunction,NonConductor*%
%ADD75C,0.003937*%
D75*
X1279527Y1130906D02*
G03*
X1279527Y1130906I-19685J0D01*
G01*
X2112205Y1422244D02*
G03*
X2112205Y1422244I-19685J0D01*
G01*
X2082677Y207677D02*
G03*
X2082677Y207677I-15748J0D01*
G01*
X3508858Y1604331D02*
G03*
X3508858Y1604331I-19685J0D01*
G01*
X1536417Y1130906D02*
G03*
X1536417Y1130906I-19685J0D01*
G01*
X1041578D02*
G03*
X1041578Y1130906I-19685J0D01*
G01*
X2878937Y635827D02*
G03*
X2878937Y635827I-19685J0D01*
G01*
X2222441Y185039D02*
G03*
X2222441Y185039I-19685J0D01*
G01*
X2027559Y1130906D02*
G03*
X2027559Y1130906I-19685J0D01*
G01*
X2375000Y390748D02*
X2412402D01*
X2375000Y321850D02*
X2412402D01*
X2375000D02*
Y390748D01*
X2412402Y321850D02*
Y390748D01*
X3137795Y358268D02*
Y395669D01*
X3206693Y358268D02*
Y395669D01*
X3137795Y358268D02*
X3206693D01*
X3137795Y395669D02*
X3206693D01*
X3499016Y63977D02*
Y101378D01*
X3567913Y63977D02*
Y101378D01*
X3499016Y63977D02*
X3567913D01*
X3499016Y101378D02*
X3567913D01*
X2355512Y162402D02*
X2392914D01*
X2355512Y231299D02*
X2392914D01*
Y162402D02*
Y231299D01*
X2355512Y162402D02*
Y231299D01*
X3736220Y618110D02*
X3805118D01*
X3736220Y655512D02*
X3805118D01*
X3736220Y618110D02*
Y655512D01*
X3805118Y618110D02*
Y655512D01*
X2317913Y1125000D02*
X2355315D01*
X2317913Y1056102D02*
X2355315D01*
X2317913D02*
Y1125000D01*
X2355315Y1056102D02*
Y1125000D01*
X2317913Y902559D02*
X2355315D01*
X2317913Y971457D02*
X2355315D01*
Y902559D02*
Y971457D01*
X2317913Y902559D02*
Y971457D01*
X2254921Y1218504D02*
X2292323D01*
X2254921Y1287402D02*
X2292323D01*
Y1218504D02*
Y1287402D01*
X2254921Y1218504D02*
Y1287402D01*
X1804134Y1218504D02*
X1841535D01*
X1804134Y1287402D02*
X1841535D01*
Y1218504D02*
Y1287402D01*
X1804134Y1218504D02*
Y1287402D01*
X2233268Y162401D02*
X2270669D01*
X2233268Y231299D02*
X2270669D01*
Y162401D02*
Y231299D01*
X2233268Y162401D02*
Y231299D01*
X1295276Y819882D02*
Y1166339D01*
X1137795Y819882D02*
Y1166339D01*
X1295276D01*
X1137795Y819882D02*
X1295276D01*
X2127953Y1111220D02*
Y1457677D01*
X1970472Y1111220D02*
Y1457677D01*
X2127953D01*
X1970472Y1111220D02*
X2127953D01*
X3453740Y168307D02*
Y432087D01*
X3599410Y168307D02*
Y432087D01*
X3453740Y168307D02*
X3599410D01*
X3453740Y432087D02*
X3599410D01*
X2098425Y156496D02*
Y239173D01*
X2011811Y156496D02*
Y239173D01*
X2098425D01*
X2011811Y156496D02*
X2098425D01*
X3367126Y1442913D02*
X3524606D01*
X3367126Y1639764D02*
X3524606D01*
X3367126Y1442913D02*
Y1639764D01*
X3524606Y1442913D02*
Y1639764D01*
X554134Y1109252D02*
X623031D01*
X554134Y1071851D02*
X623031D01*
X554134D02*
Y1109252D01*
X623031Y1071851D02*
Y1109252D01*
X2668307Y536417D02*
Y605315D01*
X2705709Y536417D02*
Y605315D01*
X2668307Y536417D02*
X2705709D01*
X2668307Y605315D02*
X2705709D01*
X3015748Y385827D02*
X3084646D01*
X3015748Y423228D02*
X3084646D01*
Y385827D02*
Y423228D01*
X3015748Y385827D02*
Y423228D01*
X1669201Y327756D02*
Y396654D01*
X1706602Y327756D02*
Y396654D01*
X1669201Y327756D02*
X1706602D01*
X1669201Y396654D02*
X1706602D01*
X1085630Y219488D02*
Y288386D01*
X1048228Y219488D02*
Y288386D01*
X1085630D01*
X1048228Y219488D02*
X1085630D01*
X2368110Y321850D02*
Y390748D01*
X2405512Y321850D02*
Y390748D01*
X2368110Y321850D02*
X2405512D01*
X2368110Y390748D02*
X2405512D01*
X3782480Y64961D02*
X3851378D01*
X3782480Y27559D02*
X3851378D01*
X3782480D02*
Y64961D01*
X3851378Y27559D02*
Y64961D01*
X1069867Y1278543D02*
Y1347441D01*
X1032466Y1278543D02*
Y1347441D01*
X1069867D01*
X1032466Y1278543D02*
X1069867D01*
X2195821Y1518701D02*
Y1587598D01*
X2158420Y1518701D02*
Y1587598D01*
X2195821D01*
X2158420Y1518701D02*
X2195821D01*
X1443868D02*
Y1587598D01*
X1406466Y1518701D02*
Y1587598D01*
X1443868D01*
X1406466Y1518701D02*
X1443868D01*
X1069867Y1523622D02*
Y1592520D01*
X1032466Y1523622D02*
Y1592520D01*
X1069867D01*
X1032466Y1523622D02*
X1069867D01*
X1819579Y1518451D02*
Y1587349D01*
X1782178Y1518451D02*
Y1587349D01*
X1819579D01*
X1782178Y1518451D02*
X1819579D01*
X2817913Y45276D02*
Y114173D01*
X2780512Y45276D02*
Y114173D01*
X2817913D01*
X2780512Y45276D02*
X2817913D01*
X2816929Y295276D02*
Y364173D01*
X2779528Y295276D02*
Y364173D01*
X2816929D01*
X2779528Y295276D02*
X2816929D01*
X2879921Y207677D02*
X2954724D01*
X2879921Y97441D02*
X2954724D01*
Y207677D01*
X2879921Y97441D02*
Y207677D01*
X3477559Y345079D02*
X3691732D01*
X3477559Y30906D02*
X3691732D01*
Y345079D01*
X3477559Y30906D02*
Y345079D01*
X1288386Y603346D02*
X1325787D01*
X1288386Y672244D02*
X1325787D01*
X1288386Y603346D02*
Y672244D01*
X1325787Y603346D02*
Y672244D01*
X2618110Y1261024D02*
Y1380709D01*
X2673228Y1261024D02*
Y1380709D01*
X2618110D02*
X2673228D01*
X2618110Y1261024D02*
X2673228D01*
X2933071Y824016D02*
Y943701D01*
X2988189Y824016D02*
Y943701D01*
X2933071D02*
X2988189D01*
X2933071Y824016D02*
X2988189D01*
X2933071Y1043504D02*
Y1163189D01*
X2988189Y1043504D02*
Y1163189D01*
X2933071D02*
X2988189D01*
X2933071Y1043504D02*
X2988189D01*
X2614263Y824016D02*
Y943701D01*
X2669381Y824016D02*
Y943701D01*
X2614263D02*
X2669381D01*
X2614263Y824016D02*
X2669381D01*
X2614173Y1043504D02*
Y1163189D01*
X2669291Y1043504D02*
Y1163189D01*
X2614173D02*
X2669291D01*
X2614173Y1043504D02*
X2669291D01*
X715748Y626968D02*
X835433D01*
X715748Y682087D02*
X835433D01*
X715748Y626968D02*
Y682087D01*
X835433Y626968D02*
Y682087D01*
X715748Y925216D02*
X835433D01*
X715748Y980335D02*
X835433D01*
X715748Y925216D02*
Y980335D01*
X835433Y925216D02*
Y980335D01*
X2817913Y849409D02*
Y918307D01*
X2780512Y849409D02*
Y918307D01*
X2817913D01*
X2780512Y849409D02*
X2817913D01*
Y1068898D02*
Y1137795D01*
X2780512Y1068898D02*
Y1137795D01*
X2817913D01*
X2780512Y1068898D02*
X2817913D01*
X2499016Y849409D02*
Y918307D01*
X2461614Y849409D02*
Y918307D01*
X2499016D01*
X2461614Y849409D02*
X2499016D01*
Y1068898D02*
Y1137795D01*
X2461614Y1068898D02*
Y1137795D01*
X2499016D01*
X2461614Y1068898D02*
X2499016D01*
X3128937Y875000D02*
Y943898D01*
X3091535Y875000D02*
Y943898D01*
X3128937D01*
X3091535Y875000D02*
X3128937D01*
X3091535Y1043307D02*
Y1112205D01*
X3128937Y1043307D02*
Y1112205D01*
X3091535Y1043307D02*
X3128937D01*
X3091535Y1112205D02*
X3128937D01*
X554134Y875000D02*
X623031D01*
X554134Y912402D02*
X623031D01*
Y875000D02*
Y912402D01*
X554134Y875000D02*
Y912402D01*
X554134Y1010827D02*
X623032D01*
X554134Y973425D02*
X623032D01*
X554134D02*
Y1010827D01*
X623032Y973425D02*
Y1010827D01*
X947835Y549992D02*
Y618890D01*
X910433Y549992D02*
Y618890D01*
X947835D01*
X910433Y549992D02*
X947835D01*
X741142Y817913D02*
X810039D01*
X741142Y780512D02*
X810039D01*
X741142D02*
Y817913D01*
X810039Y780512D02*
Y817913D01*
X3123937Y483108D02*
Y552005D01*
X3086535Y483108D02*
Y552005D01*
X3123937D01*
X3086535Y483108D02*
X3123937D01*
X3086535Y591839D02*
Y660737D01*
X3123937Y591839D02*
Y660737D01*
X3086535Y591839D02*
X3123937D01*
X3086535Y660737D02*
X3123937D01*
X2867126Y747047D02*
X2936024D01*
X2867126Y709646D02*
X2936024D01*
X2867126D02*
Y747047D01*
X2936024Y709646D02*
Y747047D01*
X1550197Y269685D02*
Y338583D01*
X1512795Y269685D02*
Y338583D01*
X1550197D01*
X1512795Y269685D02*
X1550197D01*
X1085630Y52165D02*
Y121063D01*
X1048228Y52165D02*
Y121063D01*
X1085630D01*
X1048228Y52165D02*
X1085630D01*
X2779528Y1286417D02*
Y1355315D01*
X2816929Y1286417D02*
Y1355315D01*
X2779528Y1286417D02*
X2816929D01*
X2779528Y1355315D02*
X2816929D01*
X2461614Y1286417D02*
Y1355315D01*
X2499016Y1286417D02*
Y1355315D01*
X2461614Y1286417D02*
X2499016D01*
X2461614Y1355315D02*
X2499016D01*
X2775354Y707677D02*
Y776575D01*
X2737953Y707677D02*
Y776575D01*
X2775354D01*
X2737953Y707677D02*
X2775354D01*
X3489173Y1499016D02*
X3558071D01*
X3489173Y1461614D02*
X3558071D01*
X3489173D02*
Y1499016D01*
X3558071Y1461614D02*
Y1499016D01*
X2894685Y296260D02*
Y365158D01*
X2932087Y296260D02*
Y365158D01*
X2894685Y296260D02*
X2932087D01*
X2894685Y365158D02*
X2932087D01*
X1229316Y1329724D02*
Y1398622D01*
X1266717Y1329724D02*
Y1398622D01*
X1229316Y1329724D02*
X1266717D01*
X1229316Y1398622D02*
X1266717D01*
X2355270Y1569882D02*
Y1638780D01*
X2392672Y1569882D02*
Y1638780D01*
X2355270Y1569882D02*
X2392672D01*
X2355270Y1638780D02*
X2392672D01*
X1130890Y1278543D02*
Y1347441D01*
X1168292Y1278543D02*
Y1347441D01*
X1130890Y1278543D02*
X1168292D01*
X1130890Y1347441D02*
X1168292D01*
X2256845Y1518701D02*
Y1587599D01*
X2294246Y1518701D02*
Y1587599D01*
X2256845Y1518701D02*
X2294246D01*
X2256845Y1587599D02*
X2294246D01*
X1603316Y1569882D02*
Y1638780D01*
X1640718Y1569882D02*
Y1638780D01*
X1603316Y1569882D02*
X1640718D01*
X1603316Y1638780D02*
X1640718D01*
X1504891Y1518701D02*
Y1587599D01*
X1542293Y1518701D02*
Y1587599D01*
X1504891Y1518701D02*
X1542293D01*
X1504891Y1587599D02*
X1542293D01*
X1229316Y1574803D02*
Y1643701D01*
X1266717Y1574803D02*
Y1643701D01*
X1229316Y1574803D02*
X1266717D01*
X1229316Y1643701D02*
X1266717D01*
X1979028Y1569632D02*
Y1638530D01*
X2016429Y1569632D02*
Y1638530D01*
X1979028Y1569632D02*
X2016429D01*
X1979028Y1638530D02*
X2016429D01*
X1130890Y1523622D02*
Y1592520D01*
X1168292Y1523622D02*
Y1592520D01*
X1130890Y1523622D02*
X1168292D01*
X1130890Y1592520D02*
X1168292D01*
X1880602Y1518451D02*
Y1587349D01*
X1918004Y1518451D02*
Y1587349D01*
X1880602Y1518451D02*
X1918004D01*
X1880602Y1587349D02*
X1918004D01*
X1481299Y819882D02*
X1638780D01*
X1481299Y1166339D02*
X1638780D01*
Y819882D02*
Y1166339D01*
X1481299Y819882D02*
Y1166339D01*
X986460Y819882D02*
X1143941D01*
X986460Y1166339D02*
X1143941D01*
Y819882D02*
Y1166339D01*
X986460Y819882D02*
Y1166339D01*
X2823819Y474409D02*
Y671260D01*
X2981299Y474409D02*
Y671260D01*
X2823819D02*
X2981299D01*
X2823819Y474409D02*
X2981299D01*
X1844488Y543307D02*
X2238189D01*
X1844488Y149606D02*
X2238189D01*
X1844488D02*
Y543307D01*
X2238189Y149606D02*
Y543307D01*
X1972441Y819882D02*
X2129921D01*
X1972441Y1166339D02*
X2129921D01*
Y819882D02*
Y1166339D01*
X1972441Y819882D02*
Y1166339D01*
X2736220Y133858D02*
Y279528D01*
X2472441Y133858D02*
Y279528D01*
X2736220D01*
X2472441Y133858D02*
X2736220D01*
X1233661Y295276D02*
X1368701D01*
Y45276D02*
Y295276D01*
X1233661Y45276D02*
Y295276D01*
Y45276D02*
X1368701D01*
X2642717Y772638D02*
X2711614D01*
X2642717Y735236D02*
X2711614D01*
Y772638D01*
X2642717Y735236D02*
Y772638D01*
X2468504Y735236D02*
X2537402D01*
X2468504Y772638D02*
X2537402D01*
X2468504Y735236D02*
Y772638D01*
X2537402Y735236D02*
Y772638D01*
X2642717Y645669D02*
X2711614D01*
X2642717Y683071D02*
X2711614D01*
X2642717Y645669D02*
Y683071D01*
X2711614Y645669D02*
Y683071D01*
X2468504Y645669D02*
X2537402D01*
X2468504Y683071D02*
X2537402D01*
X2468504Y645669D02*
Y683071D01*
X2537402Y645669D02*
Y683071D01*
X3053150Y1447835D02*
X3122047D01*
X3053150Y1410433D02*
X3122047D01*
Y1447835D01*
X3053150Y1410433D02*
Y1447835D01*
X2878937Y1410433D02*
X2947835D01*
X2878937Y1447834D02*
X2947835D01*
X2878937Y1410433D02*
Y1447834D01*
X2947835Y1410433D02*
Y1447834D01*
X3053150Y1320866D02*
X3122048D01*
X3053150Y1358268D02*
X3122048D01*
X3053150Y1320866D02*
Y1358268D01*
X3122048Y1320866D02*
Y1358268D01*
X2878937Y1320866D02*
X2947835D01*
X2878937Y1358268D02*
X2947835D01*
X2878937Y1320866D02*
Y1358268D01*
X2947835Y1320866D02*
Y1358268D01*
X2642717Y1036417D02*
X2711614D01*
X2642717Y999016D02*
X2711614D01*
Y1036417D01*
X2642717Y999016D02*
Y1036417D01*
X2468504Y999016D02*
X2537402D01*
X2468504Y1036417D02*
X2537402D01*
X2468504Y999016D02*
Y1036417D01*
X2537402Y999016D02*
Y1036417D01*
X2642717Y909449D02*
X2711614D01*
X2642717Y946850D02*
X2711614D01*
X2642717Y909449D02*
Y946850D01*
X2711614Y909449D02*
Y946850D01*
X2468504Y909449D02*
X2537402D01*
X2468504Y946850D02*
X2537402D01*
X2468504Y909449D02*
Y946850D01*
X2537402Y909449D02*
Y946850D01*
X3055118Y1164370D02*
X3124016D01*
X3055118Y1126969D02*
X3124016D01*
Y1164370D01*
X3055118Y1126969D02*
Y1164370D01*
X2880905Y1126968D02*
X2949803D01*
X2880905Y1164370D02*
X2949803D01*
X2880905Y1126968D02*
Y1164370D01*
X2949803Y1126968D02*
Y1164370D01*
X3055118Y1037402D02*
X3124016D01*
X3055118Y1074803D02*
X3124016D01*
X3055118Y1037402D02*
Y1074803D01*
X3124016Y1037402D02*
Y1074803D01*
X2880905Y1037402D02*
X2949803D01*
X2880905Y1074803D02*
X2949803D01*
X2880905Y1037402D02*
Y1074803D01*
X2949803Y1037402D02*
Y1074803D01*
X2641732Y1298228D02*
X2710630D01*
X2641732Y1260827D02*
X2710630D01*
Y1298228D01*
X2641732Y1260827D02*
Y1298228D01*
X2467520Y1260827D02*
X2536417D01*
X2467520Y1298228D02*
X2536417D01*
X2467520Y1260827D02*
Y1298228D01*
X2536417Y1260827D02*
Y1298228D01*
X2641732Y1171260D02*
X2710630D01*
X2641732Y1208661D02*
X2710630D01*
X2641732Y1171260D02*
Y1208661D01*
X2710630Y1171260D02*
Y1208661D01*
X2467520Y1171260D02*
X2536417D01*
X2467520Y1208661D02*
X2536417D01*
X2467520Y1171260D02*
Y1208661D01*
X2536417Y1171260D02*
Y1208661D01*
X2640748Y1581693D02*
X2709646D01*
X2640748Y1544292D02*
X2709646D01*
Y1581693D01*
X2640748Y1544292D02*
Y1581693D01*
X2466535Y1544291D02*
X2535433D01*
X2466535Y1581693D02*
X2535433D01*
X2466535Y1544291D02*
Y1581693D01*
X2535433Y1544291D02*
Y1581693D01*
X2640748Y1454725D02*
X2709646D01*
X2640748Y1492126D02*
X2709646D01*
X2640748Y1454725D02*
Y1492126D01*
X2709646Y1454725D02*
Y1492126D01*
X2466535Y1454725D02*
X2535433D01*
X2466535Y1492126D02*
X2535433D01*
X2466535Y1454725D02*
Y1492126D01*
X2535433Y1454725D02*
Y1492126D01*
X3051181Y902559D02*
X3120079D01*
X3051181Y865158D02*
X3120079D01*
Y902559D01*
X3051181Y865158D02*
Y902559D01*
X2876968Y865157D02*
X2945866D01*
X2876968Y902559D02*
X2945866D01*
X2876968Y865157D02*
Y902559D01*
X2945866Y865157D02*
Y902559D01*
X3051181Y775591D02*
X3120079D01*
X3051181Y812992D02*
X3120079D01*
X3051181Y775591D02*
Y812992D01*
X3120079Y775591D02*
Y812992D01*
X2876968Y775591D02*
X2945866D01*
X2876968Y812992D02*
X2945866D01*
X2876968Y775591D02*
Y812992D01*
X2945866Y775591D02*
Y812992D01*
X2877953Y511811D02*
X2946851D01*
X2877953Y549213D02*
X2946851D01*
X2877953Y511811D02*
Y549213D01*
X2946851Y511811D02*
Y549213D01*
X2877953Y601378D02*
X2946850D01*
X2877953Y638779D02*
X2946850D01*
X2877953Y601378D02*
Y638779D01*
X2946850Y601378D02*
Y638779D01*
X3052165Y638779D02*
X3121063D01*
X3052165Y601378D02*
X3121063D01*
Y638779D01*
X3052165Y601378D02*
Y638779D01*
Y511811D02*
X3121063D01*
X3052165Y549213D02*
X3121063D01*
X3052165Y511811D02*
Y549213D01*
X3121063Y511811D02*
Y549213D01*
%TF.MD5,4812ab5c484879ca4919eb17ab6aa877*%
M02*
