M48
;Layer_Color=9474304
;FILE_FORMAT=2:5
INCH,TZ
;TYPE=PLATED
T1F00S00C0.01500
T2F00S00C0.05118
;TYPE=NON_PLATED
T3F00S00C0.03937
T4F00S00C0.12992
%
T01
X104062Y16804
X113386Y13386
X168701Y27756
X173524Y24508
X192028Y25787
X188779Y30217
X227559Y11811
X329134Y37697
X321260Y62402
X374411Y48228
X378348
X382285
X386222
X390159
X394096
X392128Y44291
X388191
X384254
X380317
X376380
X372443
X374411Y40354
X378348
X382285
X386222
X390159
X394096
X392128Y36417
X388191
X384254
X380317
X376380
X372443
X363896Y153937
X282222Y146292
X235433Y150787
X225453Y143445
X223878Y138445
X202611Y136221
X201969Y128199
X203937Y116142
X208268Y118445
X227362Y114961
X227165Y98327
X224311Y88681
X201969Y85433
X201870Y73819
X198425Y77152
X187500Y104232
Y109547
X183465Y113675
X178051Y116732
X175251Y111909
X159941Y107677
X153347Y110728
X156201Y99213
Y94193
X151466Y67433
X162598Y66437
X167323Y67815
X210531Y50295
X213218Y47608
X215905Y44921
X218593Y42234
X220079Y35905
X211811Y36220
X208563Y31791
X232776Y35630
X236024Y45472
X206299Y152362
X209842Y163238
X184953Y147244
X169149Y146457
X152756Y145276
X147638Y157923
X131890Y146063
X122131Y150787
X124752Y126311
X115870Y121260
X106101Y121370
X98300Y120866
X105166Y112205
X103150Y103937
X125197Y109547
X138878Y102953
X138976Y89862
X147638Y125426
X73622Y109646
X66142Y68996
X65354Y51575
X105512Y66535
X114567Y66929
T02
X328740Y52067
Y63878
Y75689
Y87500
Y99311
Y111122
Y122933
X338583Y117028
X350394
Y105217
X338583
Y93405
Y81595
X350394
Y93405
X360236Y99311
Y87500
Y75689
Y63878
Y52067
X350394Y57972
X338583
Y69784
X350394
X360236Y111122
Y122933
T03
X130118Y9527
Y24528
T04
X385827Y23524
Y151476
M30
