G04*
G04 #@! TF.GenerationSoftware,Altium Limited,Altium Designer,19.0.10 (269)*
G04*
G04 Layer_Physical_Order=2*
G04 Layer_Color=16711680*
%FSLAX25Y25*%
%MOIN*%
G70*
G01*
G75*
%ADD15C,0.01000*%
%ADD18R,0.03937X0.03543*%
%ADD20O,0.05709X0.02362*%
%ADD21R,0.03543X0.03937*%
%ADD22R,0.03543X0.03150*%
%ADD24R,0.05118X0.04331*%
%ADD26R,0.08071X0.04528*%
%ADD27R,0.04528X0.08071*%
%ADD30R,0.02362X0.08268*%
%ADD31R,0.12598X0.08268*%
%ADD56C,0.03000*%
%ADD57C,0.02165*%
%ADD58C,0.02362*%
%ADD61C,0.12992*%
%ADD62C,0.08661*%
%ADD63R,0.05118X0.07087*%
%ADD64C,0.01500*%
G36*
X382492Y159535D02*
X382492D01*
Y159363D01*
X382492D01*
Y158117D01*
X386798D01*
Y158772D01*
X392335D01*
Y157526D01*
X396640D01*
Y158772D01*
X399888D01*
X400080Y159234D01*
X398533Y160781D01*
X395778D01*
X395555Y160448D01*
X394795Y159940D01*
X393897Y159761D01*
X393000Y159940D01*
X392239Y160448D01*
X392017Y160781D01*
X382492D01*
Y159535D01*
D02*
G37*
G36*
X350996D02*
X350996D01*
Y159363D01*
X350996D01*
Y158117D01*
X355302D01*
Y158772D01*
X360839D01*
Y157526D01*
X365144D01*
Y158772D01*
X370681D01*
Y153657D01*
X370881D01*
Y151386D01*
X364944D01*
Y153657D01*
X365144D01*
Y154875D01*
X360839D01*
Y153657D01*
X361039D01*
Y151386D01*
X358070D01*
X355102D01*
Y153657D01*
X355302D01*
Y155466D01*
X350996D01*
Y154220D01*
X348085D01*
Y137129D01*
X347984Y136622D01*
X347697Y136192D01*
X342212Y130707D01*
X342290Y130315D01*
X342112Y129418D01*
X341604Y128657D01*
X340843Y128148D01*
X339945Y127970D01*
X339553Y128048D01*
X331327Y119822D01*
X331350Y119705D01*
X331196Y118932D01*
X330759Y118276D01*
X330103Y117839D01*
X329330Y117685D01*
X325984D01*
X325863Y117709D01*
X325495Y117341D01*
X325741Y116880D01*
X325984Y116929D01*
X327157D01*
Y114705D01*
Y112481D01*
X325984D01*
X325741Y112529D01*
X325495Y112068D01*
X325863Y111700D01*
X325984Y111725D01*
X329330D01*
X330103Y111571D01*
X330759Y111133D01*
X331196Y110478D01*
X331350Y109705D01*
X331196Y108932D01*
X330759Y108276D01*
X330103Y107839D01*
X329330Y107685D01*
X325984D01*
X325863Y107709D01*
X325240Y107087D01*
X325486Y106626D01*
X325984Y106725D01*
X329330D01*
X330103Y106571D01*
X330759Y106133D01*
X331196Y105478D01*
X331350Y104705D01*
X331196Y103932D01*
X331005Y103645D01*
X334846Y99804D01*
X337189D01*
Y100004D01*
X339522D01*
X339639Y100180D01*
X339715Y100504D01*
X337404Y102814D01*
X337117Y103244D01*
X337016Y103752D01*
Y115727D01*
X337117Y116234D01*
X337404Y116664D01*
X341382Y120642D01*
X341812Y120929D01*
X342319Y121030D01*
X345943D01*
X346012Y121133D01*
X346668Y121571D01*
X347441Y121725D01*
X350787D01*
X351560Y121571D01*
X352215Y121133D01*
X352653Y120478D01*
X352807Y119705D01*
X352653Y118932D01*
X352215Y118276D01*
X351560Y117839D01*
X350787Y117685D01*
X347441D01*
X346668Y117839D01*
X346012Y118276D01*
X345943Y118379D01*
X342868D01*
X341733Y117244D01*
X341878Y116765D01*
X342039Y116734D01*
X342799Y116225D01*
X342976Y115961D01*
X345898D01*
X346012Y116133D01*
X346668Y116571D01*
X347441Y116725D01*
X350787D01*
X351560Y116571D01*
X352215Y116133D01*
X352653Y115478D01*
X352807Y114705D01*
X352783Y114583D01*
X357125Y110241D01*
X357587Y110433D01*
Y142476D01*
X357688Y142983D01*
X357975Y143413D01*
X359445Y144883D01*
X359367Y145276D01*
X359546Y146173D01*
X360054Y146934D01*
X360815Y147442D01*
X361712Y147621D01*
X362610Y147442D01*
X363370Y146934D01*
X363879Y146173D01*
X364057Y145276D01*
X363879Y144378D01*
X363370Y143617D01*
X362610Y143109D01*
X361712Y142930D01*
X361320Y143009D01*
X360238Y141927D01*
Y134890D01*
X360679Y134654D01*
X360815Y134745D01*
X361712Y134924D01*
X362610Y134745D01*
X363370Y134237D01*
X363879Y133476D01*
X364057Y132579D01*
X363879Y131681D01*
X363370Y130921D01*
X363038Y130698D01*
Y92577D01*
X379331Y76283D01*
X379724Y76361D01*
X380621Y76182D01*
X381382Y75674D01*
X381891Y74913D01*
X382069Y74016D01*
X381891Y73118D01*
X381382Y72357D01*
X380621Y71849D01*
X379724Y71671D01*
X378826Y71849D01*
X378066Y72357D01*
X377557Y73118D01*
X377379Y74016D01*
X377457Y74408D01*
X362382Y89483D01*
X361920Y89292D01*
Y84558D01*
X362253Y84335D01*
X362761Y83575D01*
X362940Y82677D01*
X362761Y81780D01*
X362253Y81019D01*
X361492Y80511D01*
X360595Y80332D01*
X359697Y80511D01*
X358937Y81019D01*
X358694Y81383D01*
X358193Y81231D01*
Y56643D01*
X358656Y56452D01*
X368102Y65898D01*
X368532Y66185D01*
X369039Y66286D01*
X390836D01*
X391058Y66619D01*
X391819Y67127D01*
X392716Y67306D01*
X393614Y67127D01*
X394374Y66619D01*
X394883Y65858D01*
X395061Y64961D01*
X394883Y64063D01*
X394374Y63302D01*
X393614Y62794D01*
X392716Y62616D01*
X391819Y62794D01*
X391058Y63302D01*
X390836Y63635D01*
X369588D01*
X367790Y61838D01*
X367982Y61376D01*
X406076D01*
X406268Y61838D01*
X394232Y73874D01*
X393944Y74304D01*
X393843Y74811D01*
Y87980D01*
X392951D01*
X392822Y87954D01*
X387837D01*
X383172Y83289D01*
X383250Y82896D01*
X383072Y81999D01*
X382563Y81238D01*
X381803Y80730D01*
X380905Y80551D01*
X380008Y80730D01*
X379247Y81238D01*
X378738Y81999D01*
X378560Y82896D01*
X378638Y83289D01*
X377212Y84715D01*
X376925Y85145D01*
X376824Y85652D01*
Y104419D01*
X376491Y104641D01*
X375983Y105402D01*
X375804Y106299D01*
X375983Y107197D01*
X376491Y107957D01*
X376824Y108180D01*
Y111886D01*
X376731Y111915D01*
X376324Y112005D01*
X375597Y111520D01*
X374699Y111341D01*
X373802Y111520D01*
X373041Y112028D01*
X372533Y112789D01*
X372354Y113686D01*
X372533Y114583D01*
X373041Y115344D01*
X373374Y115567D01*
Y151964D01*
X373475Y152471D01*
X373762Y152901D01*
X376956Y156094D01*
Y159363D01*
X376955D01*
Y159535D01*
X376956D01*
Y160781D01*
X350996D01*
Y159535D01*
D02*
G37*
G36*
X320681Y159535D02*
X320682D01*
Y159363D01*
X320681D01*
Y156845D01*
X322636D01*
X323144Y156744D01*
X323573Y156457D01*
X323777Y156254D01*
X324987D01*
Y158772D01*
X330524D01*
Y157526D01*
X334829D01*
Y158772D01*
X340367D01*
Y153657D01*
X340566D01*
Y151386D01*
X334630D01*
Y153657D01*
X334829D01*
Y154875D01*
X330524D01*
Y153657D01*
X330724D01*
Y151386D01*
X327755D01*
X324787D01*
Y153603D01*
X323228D01*
X322721Y153703D01*
X322291Y153991D01*
X322087Y154194D01*
X319238D01*
Y105467D01*
X319738Y105315D01*
X319776Y105371D01*
X323988Y109583D01*
X323964Y109705D01*
X323988Y109826D01*
X322566Y111249D01*
X322278Y111679D01*
X322177Y112186D01*
X322177Y112186D01*
Y117224D01*
X322177Y117224D01*
X322278Y117731D01*
X322566Y118161D01*
X323988Y119583D01*
X323964Y119705D01*
X324118Y120478D01*
X324555Y121133D01*
X325211Y121571D01*
X325984Y121725D01*
X329330D01*
X329456Y121700D01*
X337678Y129922D01*
X337600Y130315D01*
X337779Y131212D01*
X338287Y131973D01*
X339048Y132482D01*
X339945Y132660D01*
X340338Y132582D01*
X345434Y137678D01*
Y155520D01*
X345459Y155648D01*
Y159363D01*
X345459D01*
Y159535D01*
X345459D01*
Y160781D01*
X320681D01*
Y159535D01*
D02*
G37*
G36*
X382492Y154220D02*
X378830D01*
X376025Y151415D01*
Y115721D01*
X376324Y115495D01*
X376824Y115679D01*
Y129693D01*
X376925Y130200D01*
X377212Y130630D01*
X381004Y134422D01*
X381206Y134557D01*
X381680Y135031D01*
Y138300D01*
X385592D01*
X385720Y138326D01*
X390553D01*
X399880Y147652D01*
X399688Y148114D01*
X396441D01*
Y150386D01*
X399409D01*
Y151386D01*
X396441D01*
Y153657D01*
X396640D01*
Y154875D01*
X392335D01*
Y153657D01*
X392535D01*
Y151386D01*
X389566D01*
X386598D01*
Y153657D01*
X386798D01*
Y155466D01*
X382492D01*
Y154220D01*
D02*
G37*
G36*
X166843Y162062D02*
X235566D01*
X236073Y161961D01*
X236503Y161673D01*
X255166Y143010D01*
X255554Y143329D01*
X255117Y143984D01*
X254938Y144882D01*
X255117Y145779D01*
X255625Y146540D01*
X256386Y147048D01*
X257283Y147227D01*
X258180Y147048D01*
X258941Y146540D01*
X259134Y146251D01*
X266621D01*
Y147698D01*
X259342D01*
X259214Y147724D01*
X255302D01*
Y152539D01*
X255302Y152867D01*
X255302Y153367D01*
Y156307D01*
X247462Y164148D01*
X166843D01*
Y162062D01*
D02*
G37*
G36*
X258941Y143224D02*
X258180Y142715D01*
X257283Y142537D01*
X256386Y142715D01*
X255730Y143153D01*
X255412Y142765D01*
X257539Y140637D01*
X257826Y140207D01*
X257927Y139700D01*
Y135249D01*
X260839D01*
Y130434D01*
X260839Y130105D01*
X260839Y129605D01*
Y128286D01*
X266621D01*
Y128457D01*
X267867D01*
Y131188D01*
X266621D01*
Y136725D01*
X271736D01*
Y136925D01*
X274007D01*
Y133957D01*
Y130988D01*
X271736D01*
Y131188D01*
X270518D01*
Y128811D01*
X270871Y128457D01*
X271764Y128457D01*
X272264Y128457D01*
X277079D01*
Y127022D01*
X283255D01*
Y129512D01*
X283055D01*
Y131783D01*
X286023D01*
X288992D01*
Y129512D01*
X288792D01*
Y126271D01*
X306183Y108880D01*
X306471Y108450D01*
X306572Y107942D01*
Y62904D01*
X306823Y62736D01*
X307146Y62688D01*
X307469Y62736D01*
X307720Y62904D01*
Y123301D01*
X292637Y138385D01*
X292159Y138240D01*
X292127Y138079D01*
X291618Y137318D01*
X290858Y136810D01*
X289960Y136631D01*
X289063Y136810D01*
X288302Y137318D01*
X288109Y137607D01*
X268498D01*
X268143Y137678D01*
X268023Y137597D01*
X267126Y137419D01*
X266228Y137597D01*
X265467Y138106D01*
X264959Y138866D01*
X264780Y139764D01*
X264915Y140440D01*
X264634Y140901D01*
X264556Y140958D01*
X264393Y140966D01*
X264059Y140468D01*
X263299Y139959D01*
X262401Y139781D01*
X261504Y139959D01*
X260743Y140468D01*
X260235Y141229D01*
X260056Y142126D01*
X260235Y143023D01*
X260326Y143159D01*
X260090Y143600D01*
X259193D01*
X258941Y143224D01*
D02*
G37*
G36*
X182591Y157350D02*
X198701D01*
X199208Y157249D01*
X199638Y156962D01*
X204819Y151781D01*
X205106Y151351D01*
X205169Y151036D01*
X209637Y146568D01*
X213299D01*
Y141753D01*
X213299Y141424D01*
X213299Y140924D01*
Y139605D01*
X219081D01*
Y139776D01*
X220328D01*
Y142507D01*
X219081D01*
Y148044D01*
X224196D01*
Y148244D01*
X226468D01*
Y145276D01*
Y142307D01*
X224196D01*
Y142507D01*
X222979D01*
Y140130D01*
X223332Y139776D01*
X224225Y139776D01*
X224725Y139776D01*
X229540D01*
Y138341D01*
X235715D01*
Y140831D01*
X235515D01*
Y143102D01*
X238484D01*
X241452D01*
Y140884D01*
X249984D01*
X250018Y141055D01*
X250526Y141816D01*
X251287Y142324D01*
X251448Y142356D01*
X251593Y142834D01*
X235017Y159411D01*
X182591D01*
Y157350D01*
D02*
G37*
G36*
X198962Y153235D02*
Y149987D01*
X197716D01*
Y147257D01*
X198962D01*
Y141720D01*
X197782D01*
Y139383D01*
X199028D01*
Y135471D01*
X199053Y135343D01*
Y134218D01*
X209539Y123733D01*
X213201D01*
Y118918D01*
X213201Y118590D01*
X213201Y118090D01*
Y116770D01*
X218983D01*
Y116942D01*
X220229D01*
Y119672D01*
X218983D01*
Y125209D01*
X224098D01*
Y125409D01*
X226370D01*
Y122441D01*
Y119472D01*
X224098D01*
Y119672D01*
X222880D01*
Y116942D01*
X224126D01*
Y116942D01*
X224298D01*
Y116942D01*
X229441D01*
Y115507D01*
X235617D01*
Y117996D01*
X235417D01*
Y120268D01*
X238385D01*
X241354D01*
Y118050D01*
X262451D01*
X264674Y120273D01*
X265104Y120560D01*
X265611Y120661D01*
X288758D01*
X289265Y120560D01*
X289695Y120273D01*
X302383Y107584D01*
X302671Y107154D01*
X302771Y106647D01*
Y62904D01*
X303023Y62736D01*
X303346Y62688D01*
X303669Y62736D01*
X303921Y62904D01*
Y107394D01*
X286917Y124397D01*
X284880D01*
X284752Y124371D01*
X277079D01*
Y122921D01*
X272264D01*
X271936Y122921D01*
X271436Y122921D01*
X266621D01*
Y125635D01*
X260839D01*
Y124791D01*
X255302D01*
Y129605D01*
X255302Y129934D01*
X255302Y130434D01*
Y133821D01*
X255276Y133949D01*
Y139151D01*
X254862Y139566D01*
X254383Y139421D01*
X254351Y139260D01*
X253843Y138499D01*
X253082Y137991D01*
X252185Y137812D01*
X251287Y137991D01*
X250924Y138234D01*
X241252D01*
Y135716D01*
X237537D01*
X237409Y135690D01*
X229540D01*
Y134239D01*
X224725D01*
X224396Y134239D01*
X223896Y134239D01*
X219081D01*
Y136954D01*
X213299D01*
Y136109D01*
X207763D01*
Y140924D01*
X207763Y141253D01*
X207763Y141753D01*
Y144693D01*
X202944Y149511D01*
X202657Y149941D01*
X202594Y150256D01*
X199424Y153427D01*
X198962Y153235D01*
D02*
G37*
G36*
X415157Y173980D02*
X110662D01*
Y1020D01*
X201349D01*
Y4203D01*
X200963Y4520D01*
X200590Y4446D01*
X199693Y4625D01*
X198932Y5133D01*
X198424Y5894D01*
X198245Y6791D01*
X198424Y7689D01*
X198932Y8450D01*
X199265Y8672D01*
Y21457D01*
X199365Y21964D01*
X199653Y22394D01*
X202555Y25297D01*
X202477Y25689D01*
X202399Y25805D01*
X202010Y25880D01*
X201934Y25912D01*
X201853Y25928D01*
X201788Y25971D01*
X201715Y26001D01*
X201657Y26059D01*
X201588Y26105D01*
X201545Y26169D01*
X201489Y26224D01*
X201457Y26301D01*
X201411Y26369D01*
X201396Y26446D01*
X201366Y26518D01*
X201365Y26600D01*
X201349Y26681D01*
Y32172D01*
X200479D01*
Y32179D01*
X177926D01*
Y31188D01*
X173963D01*
Y41056D01*
X177926D01*
Y35340D01*
X185125D01*
Y40564D01*
X190240D01*
Y40764D01*
X192511D01*
Y37795D01*
X193011D01*
Y37295D01*
X195783D01*
Y35340D01*
X200479D01*
Y41843D01*
X201349D01*
Y42701D01*
X199962D01*
Y45669D01*
Y48638D01*
X201349D01*
Y54559D01*
X201383Y54729D01*
X201411Y54871D01*
X201588Y55136D01*
X201664Y55614D01*
X201637Y55740D01*
X190353Y67024D01*
X189960Y66946D01*
X189063Y67125D01*
X188302Y67633D01*
X187794Y68394D01*
X187615Y69291D01*
X187794Y70189D01*
X188302Y70950D01*
X189063Y71458D01*
X189960Y71636D01*
X190858Y71458D01*
X191278Y71177D01*
X191530Y71336D01*
X191683Y71508D01*
X191518Y72338D01*
X191696Y73235D01*
X192116Y73864D01*
X191923Y74363D01*
X185906D01*
X185904Y74350D01*
X185387Y73102D01*
X184564Y72030D01*
X183493Y71207D01*
X182244Y70690D01*
X180905Y70514D01*
X179566Y70690D01*
X178318Y71207D01*
X177246Y72030D01*
X176423Y73102D01*
X175906Y74350D01*
X175730Y75689D01*
X175906Y77028D01*
X176423Y78276D01*
X177246Y79348D01*
X178318Y80171D01*
X179566Y80688D01*
X180905Y80864D01*
X182244Y80688D01*
X183493Y80171D01*
X184564Y79348D01*
X185387Y78276D01*
X185904Y77028D01*
X185906Y77014D01*
X207763D01*
Y77965D01*
X213299D01*
Y73150D01*
X213299Y72822D01*
X213299Y72322D01*
Y71003D01*
X219081D01*
Y71174D01*
X220328D01*
Y73905D01*
X219081D01*
Y79442D01*
X224196D01*
Y79642D01*
X226468D01*
Y76673D01*
Y73705D01*
X224196D01*
Y73905D01*
X222979D01*
Y71528D01*
X223332Y71174D01*
X224225Y71174D01*
X224725Y71174D01*
X229540D01*
Y69739D01*
X235715D01*
Y72228D01*
X235515D01*
Y74500D01*
X238484D01*
X241452D01*
Y72282D01*
X244006D01*
X244391Y72539D01*
X244898Y72640D01*
X249486D01*
X249993Y72539D01*
X250423Y72252D01*
X251035Y71640D01*
X268159D01*
X268224Y71737D01*
X268985Y72245D01*
X269882Y72424D01*
X270779Y72245D01*
X271540Y71737D01*
X271762Y71404D01*
X273673D01*
X273825Y71904D01*
X273735Y71964D01*
X273227Y72725D01*
X273048Y73622D01*
X273227Y74519D01*
X273735Y75280D01*
X274068Y75503D01*
Y76661D01*
X271936D01*
Y76661D01*
X271764D01*
Y76661D01*
X266621D01*
Y78505D01*
X259342D01*
X259214Y78531D01*
X255302D01*
Y83674D01*
X255302D01*
Y83846D01*
X255302D01*
Y86032D01*
X185850D01*
X185387Y84913D01*
X184564Y83841D01*
X183493Y83018D01*
X182244Y82501D01*
X180905Y82325D01*
X179566Y82501D01*
X178318Y83018D01*
X177246Y83841D01*
X176423Y84913D01*
X175906Y86161D01*
X175730Y87500D01*
X175906Y88839D01*
X176423Y90087D01*
X177246Y91159D01*
X178318Y91982D01*
X179566Y92499D01*
X180905Y92675D01*
X182244Y92499D01*
X183493Y91982D01*
X184564Y91159D01*
X185387Y90087D01*
X185904Y88839D01*
X185924Y88683D01*
X190405D01*
X190640Y89124D01*
X190550Y89260D01*
X190371Y90158D01*
X190550Y91055D01*
X191058Y91816D01*
X191391Y92038D01*
Y94576D01*
X191058Y94798D01*
X190550Y95559D01*
X190371Y96457D01*
X190550Y97354D01*
X190677Y97545D01*
X190441Y97986D01*
X185906D01*
X185904Y97972D01*
X185387Y96724D01*
X184564Y95652D01*
X183493Y94829D01*
X182244Y94312D01*
X180905Y94136D01*
X179566Y94312D01*
X178318Y94829D01*
X177246Y95652D01*
X176423Y96724D01*
X175906Y97972D01*
X175730Y99311D01*
X175906Y100650D01*
X176423Y101899D01*
X177246Y102970D01*
X178318Y103793D01*
X179566Y104310D01*
X180905Y104486D01*
X182244Y104310D01*
X183493Y103793D01*
X184564Y102970D01*
X185387Y101899D01*
X185904Y100650D01*
X185906Y100636D01*
X207763D01*
Y100898D01*
X213299D01*
Y95755D01*
X213300D01*
Y95583D01*
X213299D01*
Y93936D01*
X219081D01*
Y94107D01*
X220328D01*
Y96838D01*
X219081D01*
Y102375D01*
X224196D01*
Y102575D01*
X226468D01*
Y99606D01*
Y96638D01*
X224196D01*
Y96838D01*
X222979D01*
Y94107D01*
X224225D01*
Y94107D01*
X224396D01*
Y94107D01*
X229540D01*
Y92672D01*
X235715D01*
Y95161D01*
X235515D01*
Y97433D01*
X238484D01*
X241452D01*
Y95161D01*
X241252D01*
Y92672D01*
X248218D01*
X248567Y93172D01*
X248442Y93799D01*
X248620Y94697D01*
X249129Y95457D01*
X249889Y95966D01*
X250787Y96144D01*
X251684Y95966D01*
X252445Y95457D01*
X252536Y95322D01*
X281354D01*
X281708Y95851D01*
X282468Y96359D01*
X283366Y96538D01*
X284263Y96359D01*
X285024Y95851D01*
X285532Y95090D01*
X285711Y94193D01*
X285532Y93296D01*
X285410Y93113D01*
X285646Y92672D01*
X286279D01*
X286786Y92571D01*
X287216Y92284D01*
X295666Y83834D01*
X295820Y83603D01*
X296321Y83754D01*
Y92257D01*
X286917Y101661D01*
X284880D01*
X284752Y101635D01*
X277079D01*
Y100184D01*
X272264D01*
X271936Y100184D01*
X271396Y100184D01*
X271129Y99684D01*
X271371Y99322D01*
X271549Y98425D01*
X271371Y97528D01*
X270862Y96767D01*
X270101Y96258D01*
X269204Y96080D01*
X268307Y96258D01*
X267546Y96767D01*
X267196Y97291D01*
X261780D01*
X261686Y97149D01*
X260925Y96641D01*
X260028Y96463D01*
X259130Y96641D01*
X258369Y97149D01*
X257861Y97910D01*
X257683Y98808D01*
X257861Y99705D01*
X258369Y100466D01*
X259130Y100974D01*
X260028Y101153D01*
X260925Y100974D01*
X261686Y100466D01*
X262036Y99942D01*
X266221D01*
X266621Y100184D01*
Y102899D01*
X260839D01*
Y102054D01*
X255302D01*
X255302Y107198D01*
X254862Y107344D01*
X236603D01*
X235758Y106499D01*
X235328Y106212D01*
X234821Y106111D01*
X185465D01*
X184958Y106212D01*
X184528Y106499D01*
X183998Y107028D01*
X183493Y106640D01*
X182244Y106123D01*
X180905Y105947D01*
X179566Y106123D01*
X178318Y106640D01*
X177246Y107463D01*
X176423Y108535D01*
X175906Y109783D01*
X175730Y111122D01*
X175906Y112461D01*
X176423Y113709D01*
X177246Y114781D01*
X178318Y115604D01*
X179566Y116121D01*
X180905Y116297D01*
X182244Y116121D01*
X183493Y115604D01*
X184564Y114781D01*
X185387Y113709D01*
X185904Y112461D01*
X186080Y111122D01*
X185904Y109783D01*
X185637Y109139D01*
X186014Y108762D01*
X206153D01*
X206388Y109203D01*
X206298Y109339D01*
X206119Y110236D01*
X206298Y111134D01*
X206806Y111894D01*
X207567Y112403D01*
X208464Y112581D01*
X209362Y112403D01*
X210122Y111894D01*
X210213Y111758D01*
X218983D01*
Y114119D01*
X213201D01*
Y113275D01*
X207664D01*
Y118090D01*
X207664Y118418D01*
X207664Y118918D01*
Y121859D01*
X196791Y132732D01*
X196503Y133162D01*
X196402Y133669D01*
Y133846D01*
X194213D01*
X193885Y133846D01*
X193385Y133846D01*
X190444D01*
X184055Y127457D01*
X184088Y126958D01*
X184564Y126592D01*
X185387Y125521D01*
X185904Y124273D01*
X186080Y122933D01*
X185904Y121594D01*
X185387Y120346D01*
X184564Y119274D01*
X183493Y118451D01*
X182244Y117934D01*
X180905Y117758D01*
X179566Y117934D01*
X178318Y118451D01*
X177246Y119274D01*
X176423Y120346D01*
X175906Y121594D01*
X175730Y122933D01*
X175906Y124273D01*
X176423Y125521D01*
X177246Y126592D01*
X178318Y127415D01*
X179566Y127932D01*
X180905Y128108D01*
X181131Y128078D01*
X181146Y128154D01*
X181434Y128584D01*
X188570Y135720D01*
Y139383D01*
X193385D01*
X193713Y139383D01*
X194213Y139383D01*
X195131D01*
Y141720D01*
X193847D01*
Y141520D01*
X191576D01*
Y144488D01*
Y147457D01*
X193847D01*
Y147257D01*
X195065D01*
Y149987D01*
X193819D01*
Y149987D01*
X193647D01*
Y149987D01*
X188504D01*
Y151430D01*
X187116D01*
X186894Y151098D01*
X186133Y150589D01*
X185236Y150411D01*
X184338Y150589D01*
X183652Y151048D01*
X183532D01*
X182591Y150107D01*
Y146444D01*
X177857D01*
X177650Y145944D01*
X178713Y144881D01*
X179000Y144451D01*
X179006Y144423D01*
X179322Y144107D01*
X182591D01*
Y138570D01*
X177776D01*
X177448Y138570D01*
Y138570D01*
X177276D01*
Y138570D01*
X174758D01*
Y121471D01*
X174657Y120964D01*
X174557Y120813D01*
X174722Y120687D01*
X175544Y119615D01*
X176061Y118367D01*
X176237Y117028D01*
X176061Y115688D01*
X175544Y114440D01*
X174722Y113368D01*
X173650Y112546D01*
X172402Y112029D01*
X171063Y111853D01*
X169723Y112029D01*
X168475Y112546D01*
X167403Y113368D01*
X166581Y114440D01*
X166064Y115688D01*
X165888Y117028D01*
X166064Y118367D01*
X166581Y119615D01*
X167403Y120687D01*
X168475Y121509D01*
X169723Y122026D01*
X171063Y122203D01*
X171731Y122115D01*
X172107Y122444D01*
Y140067D01*
X172133Y140195D01*
Y144107D01*
X175085D01*
X175277Y144569D01*
X175039Y144807D01*
X174751Y145237D01*
X174651Y145744D01*
Y146444D01*
X172133D01*
Y151981D01*
X174651D01*
Y152681D01*
X174751Y153188D01*
X175039Y153618D01*
X175076Y153656D01*
X174885Y154118D01*
X171933D01*
Y156587D01*
X174704D01*
Y157587D01*
X171933D01*
Y159411D01*
X165597D01*
Y156705D01*
X166843D01*
Y151169D01*
X165597D01*
Y148831D01*
X166843D01*
Y143295D01*
X162028D01*
X161699Y143295D01*
X161199Y143295D01*
X160577D01*
Y122028D01*
X160591Y122026D01*
X161839Y121509D01*
X162911Y120687D01*
X163733Y119615D01*
X164250Y118367D01*
X164427Y117028D01*
X164250Y115688D01*
X163733Y114440D01*
X162911Y113368D01*
X161839Y112546D01*
X160591Y112029D01*
X159251Y111853D01*
X157912Y112029D01*
X156664Y112546D01*
X155592Y113368D01*
X154770Y114440D01*
X154253Y115688D01*
X154077Y117028D01*
X154253Y118367D01*
X154770Y119615D01*
X155592Y120687D01*
X156664Y121509D01*
X157912Y122026D01*
X157926Y122028D01*
Y143295D01*
X156385D01*
Y148831D01*
X161199D01*
X161528Y148831D01*
X162028Y148831D01*
X162946D01*
Y151169D01*
X161728D01*
Y150969D01*
X159456D01*
Y153937D01*
Y156905D01*
X161728D01*
Y156705D01*
X162946D01*
Y159436D01*
X161700D01*
Y159436D01*
X161528D01*
Y159436D01*
X156385D01*
Y160879D01*
X155620D01*
X155398Y160547D01*
X154637Y160038D01*
X153740Y159860D01*
X152842Y160038D01*
X152156Y160497D01*
X151544D01*
X150603Y159555D01*
Y155893D01*
X145869D01*
X145662Y155393D01*
X146725Y154330D01*
X147012Y153900D01*
X147018Y153872D01*
X147334Y153556D01*
X150603D01*
Y148019D01*
X145459D01*
X145313Y147579D01*
Y128903D01*
X146810Y127406D01*
X146821Y127415D01*
X148070Y127932D01*
X149409Y128108D01*
X150748Y127932D01*
X151997Y127415D01*
X153068Y126592D01*
X153891Y125521D01*
X154408Y124273D01*
X154584Y122933D01*
X154408Y121594D01*
X153891Y120346D01*
X153068Y119274D01*
X151997Y118451D01*
X150748Y117934D01*
X149409Y117758D01*
X148070Y117934D01*
X146821Y118451D01*
X145750Y119274D01*
X144927Y120346D01*
X144410Y121594D01*
X144234Y122933D01*
X144410Y124273D01*
X144927Y125521D01*
X144936Y125532D01*
X143051Y127417D01*
X142763Y127847D01*
X142662Y128354D01*
Y148019D01*
X140145D01*
Y153556D01*
X143097D01*
X143288Y154018D01*
X143051Y154256D01*
X142763Y154686D01*
X142662Y155193D01*
Y155893D01*
X140145D01*
Y161430D01*
X142662D01*
Y162130D01*
X142763Y162637D01*
X143051Y163067D01*
X143088Y163105D01*
X142897Y163567D01*
X139945D01*
Y166035D01*
X142716D01*
Y166535D01*
X143216D01*
Y169504D01*
X145488D01*
Y169304D01*
X150603D01*
Y166799D01*
X248011D01*
X248518Y166698D01*
X248948Y166411D01*
X257176Y158182D01*
X260839D01*
Y153367D01*
X260839Y153039D01*
X260839Y152539D01*
Y150349D01*
X266621D01*
Y151391D01*
X267867D01*
Y154121D01*
X266621D01*
Y159658D01*
X271736D01*
Y159858D01*
X274007D01*
Y156890D01*
Y153921D01*
X271736D01*
Y154121D01*
X270518D01*
Y151391D01*
X271764D01*
Y151391D01*
X271936D01*
Y151391D01*
X277079D01*
Y149955D01*
X283255D01*
Y152445D01*
X283055D01*
Y154717D01*
X286023D01*
X288992D01*
Y152445D01*
X288792D01*
Y149204D01*
X311783Y126213D01*
X312071Y125783D01*
X312172Y125276D01*
Y63815D01*
X312656Y63331D01*
X312846Y63369D01*
X313743Y63190D01*
X314504Y62682D01*
X315013Y61921D01*
X315121Y61376D01*
X319935D01*
X320126Y61838D01*
X313163Y68800D01*
X312876Y69230D01*
X312775Y69737D01*
Y92645D01*
X312876Y93152D01*
X313163Y93582D01*
X315646Y96064D01*
X315568Y96457D01*
X315746Y97354D01*
X316255Y98115D01*
X316587Y98337D01*
Y154220D01*
X315144D01*
Y159363D01*
X315144D01*
Y159535D01*
X315144D01*
Y160879D01*
X307982D01*
X307760Y160547D01*
X306999Y160038D01*
X306102Y159860D01*
X305205Y160038D01*
X304444Y160547D01*
X303935Y161307D01*
X303757Y162205D01*
X303935Y163102D01*
X304444Y163863D01*
X305205Y164371D01*
X306102Y164550D01*
X306999Y164371D01*
X307760Y163863D01*
X307982Y163530D01*
X315144D01*
Y164678D01*
X320681D01*
Y163432D01*
X345459D01*
Y164678D01*
X350996D01*
Y163432D01*
X376956D01*
Y164678D01*
X382492D01*
Y163432D01*
X392017D01*
X392239Y163765D01*
X393000Y164273D01*
X393897Y164451D01*
X394795Y164273D01*
X395555Y163765D01*
X395778Y163432D01*
X399082D01*
X399082Y163432D01*
X399589Y163331D01*
X400019Y163044D01*
X403615Y159448D01*
X403902Y159018D01*
X404003Y158511D01*
Y148576D01*
X403902Y148068D01*
X403615Y147638D01*
X392039Y136063D01*
X391609Y135775D01*
X391102Y135675D01*
X387217D01*
Y133485D01*
X387217Y133157D01*
X387217D01*
Y132985D01*
X387217D01*
Y131739D01*
X391522D01*
Y132395D01*
X397059D01*
Y131148D01*
X401365D01*
Y132395D01*
X406902D01*
Y127279D01*
X407102D01*
Y125008D01*
X401165D01*
Y127279D01*
X401365D01*
Y128497D01*
X397059D01*
Y127279D01*
X397259D01*
Y125008D01*
X394291D01*
X391322D01*
Y127279D01*
X391522D01*
Y129088D01*
X387217D01*
Y127842D01*
X384305D01*
Y106721D01*
X384532Y106570D01*
X385040Y105809D01*
X385219Y104911D01*
X385040Y104014D01*
X384532Y103253D01*
X383771Y102745D01*
X382874Y102566D01*
X381976Y102745D01*
X381215Y103253D01*
X380707Y104014D01*
X380542Y104841D01*
X380327Y104945D01*
X380042Y104991D01*
X379807Y104641D01*
X379475Y104419D01*
Y86201D01*
X380513Y85163D01*
X380905Y85241D01*
X381298Y85163D01*
X386351Y90217D01*
X386781Y90504D01*
X387288Y90605D01*
X391325D01*
Y92729D01*
X394180D01*
X394371Y93191D01*
X394232Y93330D01*
X393944Y93760D01*
X393843Y94268D01*
Y95460D01*
X391325D01*
Y100209D01*
X392572D01*
Y103953D01*
X391129D01*
Y109068D01*
X390929D01*
Y111339D01*
X393897D01*
X396866D01*
Y109068D01*
X396666D01*
Y103953D01*
X395223D01*
Y100209D01*
X396469D01*
Y96888D01*
X396494Y96760D01*
Y94817D01*
X398738Y92573D01*
X399200Y92765D01*
Y96469D01*
X401717D01*
Y98614D01*
X401818Y99121D01*
X402106Y99551D01*
X406778Y104224D01*
Y107887D01*
X411593D01*
X411922Y107887D01*
X412422Y107887D01*
X415362D01*
X416984Y109508D01*
X417414Y109795D01*
X417921Y109896D01*
X422428D01*
Y112021D01*
X427571Y112021D01*
X427611Y112504D01*
Y117017D01*
X427278Y117239D01*
X426770Y118000D01*
X426591Y118898D01*
X426770Y119795D01*
X427278Y120556D01*
X428039Y121064D01*
X428937Y121243D01*
X429834Y121064D01*
X430595Y120556D01*
X431103Y119795D01*
X431282Y118898D01*
X431103Y118000D01*
X430595Y117239D01*
X430262Y117017D01*
Y108764D01*
X430302Y108280D01*
X430762Y108280D01*
X435445D01*
Y106156D01*
X439160D01*
Y107006D01*
X443253D01*
Y111705D01*
X442999D01*
Y117242D01*
X447814D01*
X448142Y117242D01*
X448642Y117242D01*
X453457D01*
Y111705D01*
X450939D01*
Y107206D01*
X453437D01*
Y102662D01*
Y98119D01*
X450939D01*
Y94407D01*
X453457D01*
Y88870D01*
X448314Y88870D01*
X448168Y88431D01*
Y83638D01*
X452631Y79176D01*
X452918Y78746D01*
X453019Y78238D01*
Y71157D01*
X452918Y70650D01*
X452631Y70220D01*
X451177Y68767D01*
X451151Y68749D01*
X451010Y68061D01*
X451078Y67958D01*
X451232Y67185D01*
X451078Y66412D01*
X450640Y65757D01*
X449985Y65319D01*
X449212Y65165D01*
X445866D01*
X445744Y65189D01*
X445122Y64567D01*
X445368Y64106D01*
X445866Y64205D01*
X449212D01*
X449985Y64051D01*
X450640Y63613D01*
X451078Y62958D01*
X451232Y62185D01*
X451078Y61412D01*
X450874Y61106D01*
X450875Y61105D01*
X460920Y51060D01*
X461381Y51252D01*
X461380Y173628D01*
X461026Y173982D01*
X415157Y173980D01*
D02*
G37*
G36*
X275083Y114877D02*
X274801Y114689D01*
X274953Y114189D01*
X277279D01*
Y111721D01*
X274507D01*
Y111221D01*
X274007D01*
Y108252D01*
X271736D01*
Y108452D01*
X270518D01*
Y106075D01*
X270871Y105721D01*
X271764Y105721D01*
X272264Y105721D01*
X277079D01*
Y104286D01*
X283255D01*
Y106776D01*
X283055D01*
Y109047D01*
X286023D01*
X288992D01*
Y106776D01*
X288792D01*
Y103535D01*
X298583Y93744D01*
X298871Y93313D01*
X298972Y92806D01*
Y62904D01*
X299223Y62736D01*
X299546Y62688D01*
X299869Y62736D01*
X300120Y62904D01*
Y106098D01*
X293031Y113188D01*
X292552Y113043D01*
X292520Y112882D01*
X292012Y112121D01*
X291251Y111613D01*
X290354Y111434D01*
X289492Y111606D01*
X289380Y111601D01*
X288992Y111393D01*
Y110047D01*
X286523D01*
Y112319D01*
X288033D01*
X288269Y112760D01*
X288187Y112882D01*
X288009Y113779D01*
X288087Y114172D01*
X287049Y115210D01*
X275305D01*
X275083Y114877D01*
D02*
G37*
G36*
X263938Y115787D02*
X263508Y115500D01*
X263000Y115399D01*
X241154D01*
Y112881D01*
X237242D01*
X237114Y112856D01*
X235764D01*
X235612Y112356D01*
X235713Y112288D01*
X236221Y111527D01*
X236400Y110630D01*
X236350Y110381D01*
X236667Y109995D01*
X255302D01*
Y112513D01*
X260839D01*
Y107698D01*
X260839Y107369D01*
X260839Y106869D01*
Y105550D01*
X266621D01*
Y105721D01*
X267867D01*
Y108452D01*
X266621D01*
Y113989D01*
X271736D01*
Y114189D01*
X271897D01*
X272048Y114689D01*
X271766Y114877D01*
X271258Y115638D01*
X271080Y116535D01*
X271258Y117433D01*
X271349Y117569D01*
X271113Y118010D01*
X266160D01*
X263938Y115787D01*
D02*
G37*
G36*
X379475Y129144D02*
Y108180D01*
X379807Y107957D01*
X380316Y107197D01*
X380480Y106369D01*
X380696Y106266D01*
X380981Y106219D01*
X381215Y106570D01*
X381654Y106863D01*
Y129142D01*
X381680Y129270D01*
Y130696D01*
X381218Y130887D01*
X379475Y129144D01*
D02*
G37*
G36*
X352708Y110202D02*
X352807Y109705D01*
X352653Y108932D01*
X352215Y108276D01*
X351560Y107839D01*
X350787Y107685D01*
X347441D01*
X346668Y107839D01*
X346012Y108276D01*
X345898Y108448D01*
X342976D01*
X342799Y108184D01*
X342039Y107676D01*
X341817Y107632D01*
Y107122D01*
X342039Y107078D01*
X342799Y106570D01*
X343091Y106133D01*
X346013D01*
X346668Y106571D01*
X347441Y106725D01*
X350787D01*
X351560Y106571D01*
X352215Y106133D01*
X352653Y105478D01*
X352807Y104705D01*
X352783Y104583D01*
X355081Y102286D01*
X355543Y102477D01*
Y108075D01*
X353169Y110449D01*
X352708Y110202D01*
D02*
G37*
G36*
X342799Y103253D02*
X342573Y103102D01*
X342603Y102774D01*
X342658Y102558D01*
X343052Y102295D01*
X345445Y99901D01*
X345733Y99471D01*
X345834Y98964D01*
Y95686D01*
X345848Y95672D01*
X346334Y95464D01*
X346937Y95867D01*
X347834Y96046D01*
X348732Y95867D01*
X349492Y95359D01*
X349975Y94636D01*
X350011Y94632D01*
X350475Y94942D01*
Y96545D01*
X350143Y96767D01*
X349634Y97528D01*
X349456Y98425D01*
X349634Y99323D01*
X350143Y100083D01*
X350903Y100592D01*
X351801Y100770D01*
X352224Y100686D01*
X352470Y101147D01*
X350908Y102709D01*
X350787Y102685D01*
X347441D01*
X346668Y102839D01*
X346012Y103276D01*
X345874Y103483D01*
X342953D01*
X342799Y103253D01*
D02*
G37*
G36*
X445904Y104721D02*
X445878Y104593D01*
Y98319D01*
X443824D01*
Y94407D01*
X448142Y94407D01*
X448288Y94847D01*
Y111266D01*
X448142Y111705D01*
X447788Y111705D01*
X445904D01*
Y104721D01*
D02*
G37*
G36*
X194755Y97545D02*
X194883Y97354D01*
X195061Y96457D01*
X194883Y95559D01*
X194374Y94798D01*
X194042Y94576D01*
Y92038D01*
X194374Y91816D01*
X194883Y91055D01*
X195061Y90158D01*
X194883Y89260D01*
X194792Y89124D01*
X195027Y88683D01*
X219081D01*
Y91285D01*
X213299D01*
Y90440D01*
X207763D01*
Y95583D01*
X207763D01*
Y95755D01*
X207763D01*
Y97986D01*
X194991D01*
X194755Y97545D01*
D02*
G37*
G36*
X322038Y103885D02*
Y95297D01*
X321937Y94790D01*
X321650Y94360D01*
X317752Y90461D01*
X317998Y90000D01*
X318701Y90140D01*
X319093Y90062D01*
X321307Y92276D01*
X321737Y92563D01*
X322244Y92664D01*
X332174D01*
X332397Y92997D01*
X333157Y93505D01*
X334055Y93684D01*
X334952Y93505D01*
X335088Y93414D01*
X335529Y93650D01*
Y94267D01*
X332074D01*
Y98827D01*
X328654Y102247D01*
X328366Y102677D01*
X328365Y102685D01*
X325984D01*
X325211Y102839D01*
X324555Y103276D01*
X324118Y103932D01*
X323964Y104705D01*
X324063Y105202D01*
X323602Y105448D01*
X322038Y103885D01*
D02*
G37*
G36*
X237212Y90021D02*
X229540D01*
Y88683D01*
X255302D01*
Y88989D01*
X260839D01*
Y83846D01*
X260839D01*
Y83674D01*
X260839D01*
Y81156D01*
X266621D01*
Y82198D01*
X267867D01*
Y84928D01*
X266621D01*
Y90021D01*
X252823D01*
X252454Y89775D01*
X251947Y89674D01*
X249627D01*
X249120Y89775D01*
X248751Y90021D01*
X239756D01*
X239627Y90047D01*
X237340D01*
X237212Y90021D01*
D02*
G37*
G36*
X277279Y88197D02*
X274507D01*
Y87697D01*
X274007D01*
Y84728D01*
X271736D01*
Y84928D01*
X270518D01*
Y82198D01*
X271764D01*
Y82198D01*
X271936D01*
Y82198D01*
X277079D01*
Y80762D01*
X283255D01*
Y83252D01*
X283055D01*
Y85524D01*
X286023D01*
Y86524D01*
X283055D01*
Y88795D01*
X286302D01*
X286494Y89257D01*
X285730Y90021D01*
X277279D01*
Y88197D01*
D02*
G37*
G36*
X320968Y88188D02*
X321046Y87795D01*
X320867Y86898D01*
X320359Y86137D01*
X319598Y85628D01*
X318701Y85450D01*
X317803Y85628D01*
X317667Y85720D01*
X317226Y85484D01*
Y82089D01*
X318308Y81007D01*
X318700Y81085D01*
X319598Y80907D01*
X320359Y80398D01*
X320867Y79638D01*
X321045Y78740D01*
X320867Y77843D01*
X320432Y77192D01*
X320820Y76873D01*
X326381Y82433D01*
X326811Y82721D01*
X327318Y82822D01*
X327623D01*
X333463Y88662D01*
X333318Y89140D01*
X333157Y89172D01*
X332397Y89680D01*
X332174Y90013D01*
X322793D01*
X320968Y88188D01*
D02*
G37*
G36*
X315426Y79487D02*
Y70286D01*
X323602Y62111D01*
X324063Y62357D01*
X323964Y62854D01*
X323988Y62976D01*
X317698Y69266D01*
X317410Y69696D01*
X317310Y70203D01*
Y72813D01*
X317410Y73321D01*
X317698Y73751D01*
X320567Y76620D01*
X320249Y77008D01*
X319598Y76574D01*
X318700Y76395D01*
X317803Y76574D01*
X317042Y77082D01*
X316534Y77843D01*
X316355Y78740D01*
X316433Y79133D01*
X315888Y79678D01*
X315426Y79487D01*
D02*
G37*
G36*
X423925Y107245D02*
X418470D01*
X417237Y106012D01*
Y102350D01*
X412422D01*
X412093Y102350D01*
X411593Y102350D01*
X408653D01*
X404368Y98065D01*
Y95169D01*
X404343Y95041D01*
Y91720D01*
X400245D01*
X400053Y91258D01*
X410657Y80654D01*
X410945Y80224D01*
X411045Y79716D01*
Y72039D01*
X411073Y72028D01*
X411545Y71956D01*
X411991Y72623D01*
X412324Y72845D01*
Y96379D01*
X411991Y96602D01*
X411482Y97363D01*
X411304Y98260D01*
X411482Y99157D01*
X411991Y99918D01*
X412752Y100426D01*
X413649Y100605D01*
X414546Y100426D01*
X415307Y99918D01*
X415816Y99157D01*
X415994Y98260D01*
X415816Y97363D01*
X415307Y96602D01*
X414974Y96379D01*
Y72845D01*
X415307Y72623D01*
X415816Y71862D01*
X415994Y70965D01*
X415816Y70067D01*
X415307Y69306D01*
X414546Y68798D01*
X413649Y68620D01*
X412752Y68798D01*
X411991Y69306D01*
X411545Y69973D01*
X411073Y69901D01*
X411045Y69890D01*
Y67335D01*
X413563D01*
Y67335D01*
X413735D01*
Y67335D01*
X418878D01*
Y66029D01*
X422243D01*
X422519Y66529D01*
X422389Y67185D01*
X422543Y67958D01*
X422981Y68613D01*
X423636Y69051D01*
X424409Y69205D01*
X427755D01*
X428528Y69051D01*
X429184Y68613D01*
X429622Y67958D01*
X429775Y67185D01*
X429645Y66529D01*
X429921Y66029D01*
X431869D01*
X435544Y69704D01*
X434905Y70343D01*
X434040D01*
X433532Y70444D01*
X433103Y70731D01*
X432085Y71749D01*
X431693Y71671D01*
X430795Y71849D01*
X430466Y72069D01*
X429910Y71839D01*
X429810Y71334D01*
X429328Y70613D01*
X428607Y70130D01*
X427755Y69961D01*
X426582D01*
Y72185D01*
Y74409D01*
X427755D01*
X428607Y74240D01*
X428866Y74066D01*
X429405Y74307D01*
X429526Y74913D01*
X430034Y75674D01*
X430795Y76182D01*
X431693Y76361D01*
X432590Y76182D01*
X433351Y75674D01*
X433859Y74913D01*
X434037Y74016D01*
X433959Y73623D01*
X434589Y72994D01*
X435454D01*
X435961Y72893D01*
X436391Y72606D01*
X437967Y71029D01*
X443700D01*
X443976Y71529D01*
X443846Y72185D01*
X443870Y72306D01*
X436010Y80167D01*
X435346Y79723D01*
X434448Y79545D01*
X433551Y79723D01*
X432790Y80232D01*
X432282Y80992D01*
X432103Y81890D01*
X432282Y82787D01*
X432790Y83548D01*
X433551Y84056D01*
X434448Y84235D01*
X435346Y84056D01*
X436107Y83548D01*
X436591Y82823D01*
X437051Y82732D01*
X437481Y82444D01*
X443484Y76441D01*
X443945Y76688D01*
X443846Y77185D01*
X443870Y77306D01*
X441562Y79615D01*
X441274Y80045D01*
X441173Y80552D01*
Y98319D01*
X439160D01*
Y103505D01*
X433948D01*
X433820Y103531D01*
X430302Y103531D01*
X430262Y103047D01*
Y98546D01*
X430161Y98038D01*
X429874Y97608D01*
X428581Y96315D01*
Y79016D01*
X429184Y78613D01*
X429622Y77958D01*
X429775Y77185D01*
X429622Y76412D01*
X429184Y75757D01*
X428528Y75319D01*
X427755Y75165D01*
X424409D01*
X423636Y75319D01*
X422981Y75757D01*
X422543Y76412D01*
X422389Y77185D01*
X422543Y77958D01*
X422981Y78613D01*
X423636Y79051D01*
X424409Y79205D01*
X425930D01*
Y96864D01*
X426031Y97372D01*
X426318Y97802D01*
X427607Y99091D01*
X427601Y99591D01*
X425499D01*
Y102165D01*
Y104740D01*
X427611D01*
Y106787D01*
X427571Y107271D01*
X427111Y107271D01*
X424053D01*
X423925Y107245D01*
D02*
G37*
G36*
X353126Y96119D02*
Y83494D01*
X353025Y82986D01*
X352738Y82556D01*
X344861Y74680D01*
X344878Y74524D01*
X345031Y74180D01*
X345943D01*
X346012Y74283D01*
X346668Y74721D01*
X347441Y74874D01*
X350787D01*
X351560Y74721D01*
X352215Y74283D01*
X352653Y73627D01*
X352807Y72854D01*
X352653Y72081D01*
X352215Y71426D01*
X351560Y70988D01*
X350787Y70834D01*
X347441D01*
X346668Y70988D01*
X346012Y71426D01*
X345943Y71529D01*
X343518D01*
X342520Y70531D01*
X342666Y70053D01*
X342826Y70021D01*
X343587Y69512D01*
X343809Y69180D01*
X345943D01*
X346012Y69283D01*
X346668Y69721D01*
X347441Y69874D01*
X350787D01*
X351560Y69721D01*
X352215Y69283D01*
X352653Y68627D01*
X352807Y67854D01*
X352783Y67733D01*
X353281Y67235D01*
X353743Y67427D01*
Y95907D01*
X353243Y96189D01*
X353126Y96119D01*
D02*
G37*
G36*
X329109Y80559D02*
X328679Y80272D01*
X328172Y80171D01*
X327867D01*
X322374Y74678D01*
X322504Y74101D01*
X322633Y74054D01*
X322670Y74079D01*
X323177Y74180D01*
X324487D01*
X324555Y74283D01*
X325211Y74721D01*
X325984Y74874D01*
X327505D01*
Y75583D01*
X327606Y76090D01*
X327893Y76520D01*
X333156Y81783D01*
Y83953D01*
X332694Y84144D01*
X329109Y80559D01*
D02*
G37*
G36*
X195609Y73864D02*
X196029Y73235D01*
X196208Y72338D01*
X196130Y71945D01*
X213949Y54125D01*
X215554D01*
X215680Y54326D01*
X215744Y54625D01*
X200195Y70174D01*
X199803Y70096D01*
X198905Y70274D01*
X198144Y70783D01*
X197636Y71544D01*
X197458Y72441D01*
X197636Y73338D01*
X197987Y73864D01*
X197720Y74363D01*
X195802D01*
X195609Y73864D01*
D02*
G37*
G36*
X192293Y70293D02*
X192140Y70121D01*
X192305Y69291D01*
X192227Y68899D01*
X200887Y60239D01*
X201349Y60430D01*
Y60560D01*
X201411Y60872D01*
X201588Y61137D01*
X201853Y61313D01*
X202165Y61376D01*
X202297D01*
X202488Y61838D01*
X194255Y70071D01*
X193863Y69993D01*
X192965Y70171D01*
X192545Y70452D01*
X192293Y70293D01*
D02*
G37*
G36*
X266362Y68527D02*
X272678Y62211D01*
X273157Y62356D01*
X273227Y62708D01*
X273735Y63469D01*
X274496Y63978D01*
X275393Y64156D01*
X276291Y63978D01*
X277051Y63469D01*
X277135Y63344D01*
X277728Y63357D01*
X278066Y63863D01*
X278827Y64371D01*
X278988Y64403D01*
X279133Y64882D01*
X275261Y68753D01*
X271762D01*
X271540Y68420D01*
X270779Y67912D01*
X269882Y67734D01*
X268985Y67912D01*
X268224Y68420D01*
X267844Y68989D01*
X266553D01*
X266362Y68527D01*
D02*
G37*
G36*
X201618Y73864D02*
X201969Y73338D01*
X202148Y72441D01*
X202070Y72048D01*
X213030Y61088D01*
X213156Y61060D01*
X213635Y61137D01*
X213899Y61313D01*
X214212Y61376D01*
X269111D01*
X269302Y61838D01*
X264060Y67080D01*
X248927D01*
X248705Y66747D01*
X247944Y66239D01*
X247047Y66061D01*
X246149Y66239D01*
X245389Y66747D01*
X244880Y67508D01*
X244702Y68405D01*
X244857Y69184D01*
X244615Y69531D01*
X244498Y69631D01*
X241252D01*
Y67113D01*
X237340D01*
X237212Y67088D01*
X229540D01*
Y65637D01*
X224725D01*
X224396Y65637D01*
X223896Y65637D01*
X219081D01*
Y68352D01*
X213299D01*
Y67507D01*
X207763D01*
Y72322D01*
X207763Y72650D01*
X207763Y73150D01*
Y74363D01*
X201886D01*
X201618Y73864D01*
D02*
G37*
G36*
X349975Y92765D02*
X349492Y92043D01*
X348732Y91534D01*
X347834Y91356D01*
X346937Y91534D01*
X346176Y92043D01*
X345787Y92624D01*
X345057D01*
X338579Y86146D01*
X338786Y85646D01*
X340543D01*
Y82677D01*
Y79709D01*
X338271D01*
Y79909D01*
X335031D01*
X330258Y75136D01*
X330296Y74592D01*
X330759Y74283D01*
X331196Y73627D01*
X331350Y72854D01*
X331196Y72081D01*
X330759Y71426D01*
X330103Y70988D01*
X329330Y70834D01*
X325984D01*
X325211Y70988D01*
X324555Y71426D01*
X324487Y71529D01*
X323755D01*
X323602Y70756D01*
X323093Y69995D01*
X322333Y69487D01*
X321999Y69421D01*
X321834Y68878D01*
X323347Y67365D01*
X323808Y67611D01*
X323760Y67854D01*
X323929Y68705D01*
X324411Y69427D01*
X325133Y69909D01*
X325984Y70078D01*
X327157D01*
Y67854D01*
Y65631D01*
X325984D01*
X325741Y65679D01*
X325495Y65218D01*
X325863Y64850D01*
X325984Y64874D01*
X329330D01*
X330103Y64720D01*
X330759Y64283D01*
X330913Y64052D01*
X333441D01*
X333578Y64257D01*
X333910Y64479D01*
Y67667D01*
X334011Y68174D01*
X334298Y68604D01*
X342212Y76517D01*
X342642Y76805D01*
X343149Y76906D01*
X343338D01*
X350475Y84043D01*
Y92460D01*
X350011Y92769D01*
X349975Y92765D01*
D02*
G37*
G36*
X288992Y86106D02*
Y83252D01*
X288792D01*
Y78137D01*
X284880D01*
X284752Y78111D01*
X277079D01*
Y76661D01*
X276719D01*
Y75503D01*
X277051Y75280D01*
X277560Y74519D01*
X277738Y73622D01*
X277660Y73230D01*
X284690Y66200D01*
X285188Y66249D01*
X285466Y66666D01*
X286227Y67174D01*
X287124Y67353D01*
X287517Y67275D01*
X290604Y70362D01*
Y70954D01*
X290271Y71176D01*
X289763Y71937D01*
X289584Y72834D01*
X289763Y73732D01*
X290271Y74493D01*
X291032Y75001D01*
X291929Y75180D01*
X292827Y75001D01*
X292963Y74910D01*
X293404Y75146D01*
Y82347D01*
X289454Y86297D01*
X288992Y86106D01*
D02*
G37*
G36*
X396469Y90440D02*
Y89408D01*
X396494Y89280D01*
Y75360D01*
X407958Y63896D01*
X408420Y64088D01*
Y65711D01*
X408394Y65839D01*
Y79167D01*
X396931Y90631D01*
X396469Y90440D01*
D02*
G37*
G36*
X433356Y63767D02*
X432926Y63479D01*
X432418Y63379D01*
X429876D01*
X429637Y62879D01*
X429775Y62185D01*
X429645Y61529D01*
X429921Y61029D01*
X437836D01*
X443870Y67064D01*
X443846Y67185D01*
X443984Y67879D01*
X443745Y68379D01*
X437967D01*
X433356Y63767D01*
D02*
G37*
G36*
X292866Y68875D02*
X289391Y65400D01*
X289470Y65008D01*
X289291Y64110D01*
X288783Y63349D01*
X288022Y62841D01*
X287861Y62809D01*
X287716Y62331D01*
X289076Y60971D01*
X290944D01*
X291017Y60957D01*
X291059Y60963D01*
X291566Y61350D01*
X291679Y61921D01*
X292188Y62682D01*
X292949Y63190D01*
X293404Y63281D01*
Y68779D01*
X292904Y68931D01*
X292866Y68875D01*
D02*
G37*
G36*
X340150Y34198D02*
X340342Y33736D01*
X363554D01*
X366827Y37009D01*
X366749Y37402D01*
X366928Y38299D01*
X367436Y39060D01*
X368197Y39568D01*
X369094Y39747D01*
X369991Y39568D01*
X370752Y39060D01*
X371261Y38299D01*
X371439Y37402D01*
X371261Y36504D01*
X370752Y35743D01*
X369991Y35235D01*
X369094Y35056D01*
X368702Y35135D01*
X365965Y32398D01*
X366156Y31936D01*
X384143D01*
X384365Y32269D01*
X385126Y32777D01*
X386023Y32955D01*
X386921Y32777D01*
X387681Y32269D01*
X388190Y31508D01*
X388368Y30610D01*
X388190Y29713D01*
X387681Y28952D01*
X386921Y28444D01*
X386023Y28265D01*
X385126Y28444D01*
X384365Y28952D01*
X384143Y29285D01*
X334899D01*
X326479Y20865D01*
X326557Y20472D01*
X326379Y19575D01*
X325870Y18814D01*
X325192Y18361D01*
X325228Y17987D01*
X325275Y17861D01*
X349497D01*
X349719Y18194D01*
X350480Y18702D01*
X351378Y18880D01*
X352275Y18702D01*
X353036Y18194D01*
X353544Y17433D01*
X353576Y17272D01*
X354054Y17127D01*
X355958Y19030D01*
Y20580D01*
X355625Y20802D01*
X355117Y21563D01*
X354938Y22461D01*
X355117Y23358D01*
X355625Y24119D01*
X356386Y24627D01*
X357283Y24806D01*
X358180Y24627D01*
X358941Y24119D01*
X359450Y23358D01*
X359628Y22461D01*
X359450Y21563D01*
X358941Y20802D01*
X358609Y20580D01*
Y18481D01*
X358508Y17974D01*
X358220Y17544D01*
X347416Y6740D01*
X346986Y6453D01*
X346479Y6352D01*
X276300D01*
X276077Y6019D01*
X275317Y5511D01*
X274419Y5332D01*
X273522Y5511D01*
X272761Y6019D01*
X272253Y6780D01*
X272074Y7677D01*
X272253Y8575D01*
X272761Y9335D01*
X273522Y9844D01*
X274419Y10022D01*
X275317Y9844D01*
X276077Y9335D01*
X276300Y9003D01*
X345930D01*
X350786Y13859D01*
X350641Y14337D01*
X350480Y14369D01*
X349719Y14877D01*
X349497Y15210D01*
X285238D01*
X285016Y14877D01*
X284255Y14369D01*
X283358Y14190D01*
X282460Y14369D01*
X281700Y14877D01*
X281191Y15638D01*
X281013Y16535D01*
X281191Y17433D01*
X281700Y18194D01*
X282460Y18702D01*
X283358Y18880D01*
X284255Y18702D01*
X285016Y18194D01*
X285238Y17861D01*
X323149D01*
X323196Y17987D01*
X323232Y18361D01*
X322554Y18814D01*
X322046Y19575D01*
X321867Y20472D01*
X322046Y21370D01*
X322554Y22131D01*
X323315Y22639D01*
X324212Y22817D01*
X324605Y22739D01*
X332488Y30623D01*
X332297Y31085D01*
X322658D01*
X318175Y26601D01*
X317744Y26314D01*
X317237Y26213D01*
X275785D01*
X275277Y26314D01*
X274847Y26601D01*
X272837Y28612D01*
X272550Y29042D01*
X272449Y29549D01*
Y41990D01*
X272468Y42087D01*
Y50376D01*
X272027Y50611D01*
X271891Y50520D01*
X271090Y50361D01*
X270827Y50166D01*
X270633Y49904D01*
X270473Y49103D01*
X269965Y48342D01*
X269204Y47833D01*
X268307Y47655D01*
X267409Y47833D01*
X266648Y48342D01*
X266426Y48674D01*
X209251D01*
X208744Y48775D01*
X208314Y49063D01*
X202627Y54750D01*
X202165Y54559D01*
Y48638D01*
X203777D01*
Y45669D01*
X204527D01*
D01*
X203777D01*
Y42701D01*
X202165D01*
Y41843D01*
X206607D01*
Y35303D01*
X208791D01*
X209396Y35182D01*
X209908Y34840D01*
X211672Y33076D01*
X213447D01*
X213499Y33154D01*
X214260Y33663D01*
X215157Y33841D01*
X216054Y33663D01*
X216815Y33154D01*
X217324Y32394D01*
X217502Y31496D01*
X217324Y30599D01*
X216815Y29838D01*
X216054Y29329D01*
X215157Y29151D01*
X214260Y29329D01*
X213499Y29838D01*
X213447Y29916D01*
X211017D01*
X210412Y30036D01*
X209900Y30379D01*
X208136Y32142D01*
X203580D01*
X203428Y32172D01*
X202165D01*
Y26681D01*
X202656Y26586D01*
X203164Y27347D01*
X203925Y27856D01*
X204822Y28034D01*
X205720Y27856D01*
X206481Y27347D01*
X206989Y26586D01*
X207167Y25689D01*
X206989Y24792D01*
X206481Y24031D01*
X205720Y23522D01*
X204822Y23344D01*
X204430Y23422D01*
X202165Y21157D01*
Y8505D01*
X202248Y8450D01*
X202757Y7689D01*
X202935Y6791D01*
X202757Y5894D01*
X202248Y5133D01*
X202165Y5077D01*
Y1020D01*
X461380D01*
X461382Y47243D01*
X461381Y49445D01*
X450298Y60528D01*
X449985Y60319D01*
X449212Y60165D01*
X445866D01*
X445093Y60319D01*
X444732Y60560D01*
X441115D01*
X439322Y58767D01*
X438892Y58479D01*
X438385Y58378D01*
X410276D01*
X409769Y58479D01*
X409339Y58767D01*
X407545Y60560D01*
X366513D01*
X340150Y34198D01*
D02*
G37*
G36*
X214020Y60098D02*
X217306Y56813D01*
X271876D01*
X272022Y57032D01*
X272783Y57541D01*
X272944Y57573D01*
X273089Y58051D01*
X270580Y60560D01*
X214212D01*
X214020Y60098D01*
D02*
G37*
G36*
X315013Y60126D02*
X314504Y59365D01*
X313743Y58857D01*
X312846Y58679D01*
X311949Y58857D01*
X311188Y59365D01*
X310704D01*
X309943Y58857D01*
X309046Y58679D01*
X308149Y58857D01*
X307388Y59365D01*
X306904D01*
X306143Y58857D01*
X305246Y58679D01*
X304349Y58857D01*
X303588Y59365D01*
X303104D01*
X302343Y58857D01*
X301446Y58679D01*
X300549Y58857D01*
X299788Y59365D01*
X299304D01*
X298543Y58857D01*
X297646Y58679D01*
X296749Y58857D01*
X295988Y59365D01*
X295504D01*
X294743Y58857D01*
X294386Y58786D01*
X294221Y58243D01*
X304528Y47936D01*
X304921Y48014D01*
X305818Y47836D01*
X306579Y47328D01*
X307087Y46567D01*
X307266Y45669D01*
X307087Y44772D01*
X306773Y44301D01*
X307040Y43801D01*
X325588D01*
X339662Y57875D01*
X339584Y58268D01*
X339762Y59165D01*
X340270Y59926D01*
X340471Y60060D01*
X340319Y60560D01*
X339032D01*
X335389Y56917D01*
X334959Y56630D01*
X334452Y56529D01*
X330827D01*
X330759Y56426D01*
X330103Y55988D01*
X329330Y55834D01*
X325984D01*
X325211Y55988D01*
X324555Y56426D01*
X324118Y57081D01*
X323964Y57854D01*
X323988Y57976D01*
X321404Y60560D01*
X315099D01*
X315013Y60126D01*
D02*
G37*
G36*
X202165Y58961D02*
X209801Y51326D01*
X212367D01*
X212519Y51825D01*
X212463Y51863D01*
X203766Y60560D01*
X202165D01*
Y58961D01*
D02*
G37*
G36*
X281406Y48989D02*
X284134Y46261D01*
X284612Y46406D01*
X284644Y46567D01*
X285152Y47328D01*
X285913Y47836D01*
X286811Y48014D01*
X287708Y47836D01*
X288469Y47328D01*
X288583Y47156D01*
X289184D01*
X289483Y47603D01*
X290244Y48111D01*
X291141Y48290D01*
X292039Y48111D01*
X292799Y47603D01*
X293308Y46842D01*
X293486Y45945D01*
X293408Y45552D01*
X295160Y43801D01*
X297885D01*
X298121Y44242D01*
X298030Y44378D01*
X297851Y45276D01*
X297955Y45797D01*
X283192Y60560D01*
X281406D01*
Y48989D01*
D02*
G37*
G36*
X343587Y56609D02*
X342826Y56101D01*
X341929Y55923D01*
X341536Y56001D01*
X327998Y42463D01*
X328190Y42001D01*
X336568D01*
X349939Y55373D01*
X349748Y55834D01*
X347441D01*
X346668Y55988D01*
X346012Y56426D01*
X345805Y56736D01*
X343671D01*
X343587Y56609D01*
D02*
G37*
G36*
X275319Y45871D02*
X275119Y45746D01*
Y42009D01*
X275100Y41912D01*
Y37235D01*
X275600Y36968D01*
X275801Y37102D01*
X276574Y37256D01*
X277347Y37102D01*
X278003Y36665D01*
X278071Y36562D01*
X279318D01*
Y38497D01*
X282404D01*
X282596Y38959D01*
X275619Y45935D01*
X275319Y45871D01*
D02*
G37*
G36*
X286680Y36928D02*
Y33615D01*
X286579Y33108D01*
X286292Y32678D01*
X285530Y31916D01*
X285329Y31782D01*
X284855Y31307D01*
Y28864D01*
X316688D01*
X320289Y32465D01*
X320097Y32926D01*
X298140D01*
X297918Y32594D01*
X297157Y32085D01*
X296260Y31907D01*
X295362Y32085D01*
X294602Y32594D01*
X294093Y33354D01*
X293915Y34252D01*
X294093Y35149D01*
X294200Y35309D01*
X293964Y35750D01*
X289060D01*
X288553Y35851D01*
X288123Y36138D01*
X287142Y37119D01*
X286680Y36928D01*
D02*
G37*
%LPC*%
G36*
X355102Y150386D02*
X357570D01*
Y148114D01*
X355102D01*
Y150386D01*
D02*
G37*
G36*
X358570D02*
X361039D01*
Y148114D01*
X358570D01*
Y150386D01*
D02*
G37*
G36*
X364944Y150386D02*
X367413D01*
Y148114D01*
X364944D01*
Y150386D01*
D02*
G37*
G36*
X368413D02*
X370881D01*
Y148114D01*
X368413D01*
Y150386D01*
D02*
G37*
G36*
X328157Y116929D02*
X329330D01*
X330181Y116759D01*
X330903Y116277D01*
X331385Y115556D01*
X331455Y115205D01*
X328157D01*
Y116929D01*
D02*
G37*
G36*
Y114205D02*
X331455D01*
X331385Y113854D01*
X330903Y113132D01*
X330181Y112650D01*
X329330Y112481D01*
X328157D01*
Y114205D01*
D02*
G37*
G36*
X324787Y150386D02*
X327255D01*
Y148114D01*
X324787D01*
Y150386D01*
D02*
G37*
G36*
X328255D02*
X330724D01*
Y148114D01*
X328255D01*
Y150386D01*
D02*
G37*
G36*
X334630D02*
X337098D01*
Y148114D01*
X334630D01*
Y150386D01*
D02*
G37*
G36*
X338098D02*
X340566D01*
Y148114D01*
X338098D01*
Y150386D01*
D02*
G37*
G36*
X386598Y150386D02*
X389067D01*
Y148114D01*
X386598D01*
Y150386D01*
D02*
G37*
G36*
X390067D02*
X392535D01*
Y148114D01*
X390067D01*
Y150386D01*
D02*
G37*
G36*
X275007Y136925D02*
X277279D01*
Y134457D01*
X275007D01*
Y136925D01*
D02*
G37*
G36*
X283055Y135055D02*
X285523D01*
Y132783D01*
X283055D01*
Y135055D01*
D02*
G37*
G36*
X286523D02*
X288992D01*
Y132783D01*
X286523D01*
Y135055D01*
D02*
G37*
G36*
X275007Y133457D02*
X277279D01*
Y130988D01*
X275007D01*
Y133457D01*
D02*
G37*
G36*
X227468Y148244D02*
X229740D01*
Y145776D01*
X227468D01*
Y148244D01*
D02*
G37*
G36*
X235515Y146374D02*
X237984D01*
Y144102D01*
X235515D01*
Y146374D01*
D02*
G37*
G36*
X238984D02*
X241452D01*
Y144102D01*
X238984D01*
Y146374D01*
D02*
G37*
G36*
X227468Y144776D02*
X229740D01*
Y142307D01*
X227468D01*
Y144776D01*
D02*
G37*
G36*
X227370Y125409D02*
X229641D01*
Y122941D01*
X227370D01*
Y125409D01*
D02*
G37*
G36*
X235417Y123539D02*
X237885D01*
Y121268D01*
X235417D01*
Y123539D01*
D02*
G37*
G36*
X238885D02*
X241354D01*
Y121268D01*
X238885D01*
Y123539D01*
D02*
G37*
G36*
X227370Y121941D02*
X229641D01*
Y119472D01*
X227370D01*
Y121941D01*
D02*
G37*
G36*
X139945Y169504D02*
X142216D01*
Y167035D01*
X139945D01*
Y169504D01*
D02*
G37*
G36*
X275007Y159858D02*
X277279D01*
Y157390D01*
X275007D01*
Y159858D01*
D02*
G37*
G36*
X283055Y157988D02*
X285523D01*
Y155717D01*
X283055D01*
Y157988D01*
D02*
G37*
G36*
X286523D02*
X288992D01*
Y155717D01*
X286523D01*
Y157988D01*
D02*
G37*
G36*
X156185Y156905D02*
X158456D01*
Y154437D01*
X156185D01*
Y156905D01*
D02*
G37*
G36*
X275007Y156390D02*
X277279D01*
Y153921D01*
X275007D01*
Y156390D01*
D02*
G37*
G36*
X156185Y153437D02*
X158456D01*
Y150969D01*
X156185D01*
Y153437D01*
D02*
G37*
G36*
X188304Y147457D02*
X190576D01*
Y144988D01*
X188304D01*
Y147457D01*
D02*
G37*
G36*
X123819Y158808D02*
X125249Y158667D01*
X126624Y158250D01*
X127892Y157572D01*
X129002Y156660D01*
X129914Y155550D01*
X130592Y154282D01*
X131009Y152907D01*
X131150Y151476D01*
X131009Y150046D01*
X130592Y148671D01*
X129914Y147403D01*
X129002Y146292D01*
X127892Y145381D01*
X126624Y144703D01*
X125249Y144286D01*
X123819Y144145D01*
X122388Y144286D01*
X121013Y144703D01*
X119745Y145381D01*
X118634Y146292D01*
X117723Y147403D01*
X117045Y148671D01*
X116628Y150046D01*
X116487Y151476D01*
X116628Y152907D01*
X117045Y154282D01*
X117723Y155550D01*
X118634Y156660D01*
X119745Y157572D01*
X121013Y158250D01*
X122388Y158667D01*
X123819Y158808D01*
D02*
G37*
G36*
X188304Y143988D02*
X190576D01*
Y141520D01*
X188304D01*
Y143988D01*
D02*
G37*
G36*
X391322Y124008D02*
X393791D01*
Y121736D01*
X391322D01*
Y124008D01*
D02*
G37*
G36*
X394791D02*
X397259D01*
Y121736D01*
X394791D01*
Y124008D01*
D02*
G37*
G36*
X401165D02*
X403633D01*
Y121736D01*
X401165D01*
Y124008D01*
D02*
G37*
G36*
X404633D02*
X407102D01*
Y121736D01*
X404633D01*
Y124008D01*
D02*
G37*
G36*
X390929Y114611D02*
X393397D01*
Y112339D01*
X390929D01*
Y114611D01*
D02*
G37*
G36*
X394397D02*
X396866D01*
Y112339D01*
X394397D01*
Y114611D01*
D02*
G37*
G36*
X454436Y107206D02*
X457496D01*
Y103162D01*
X454436D01*
Y107206D01*
D02*
G37*
G36*
X227468Y102575D02*
X229740D01*
Y100106D01*
X227468D01*
Y102575D01*
D02*
G37*
G36*
X159251Y110391D02*
X160591Y110215D01*
X161839Y109698D01*
X162911Y108876D01*
X163733Y107804D01*
X164250Y106556D01*
X164427Y105217D01*
X164250Y103877D01*
X163733Y102629D01*
X162911Y101557D01*
X161839Y100735D01*
X160591Y100218D01*
X159251Y100041D01*
X157912Y100218D01*
X156664Y100735D01*
X155592Y101557D01*
X154770Y102629D01*
X154253Y103877D01*
X154077Y105217D01*
X154253Y106556D01*
X154770Y107804D01*
X155592Y108876D01*
X156664Y109698D01*
X157912Y110215D01*
X159251Y110391D01*
D02*
G37*
G36*
X171063D02*
X172402Y110215D01*
X173650Y109698D01*
X174722Y108876D01*
X175544Y107804D01*
X176061Y106556D01*
X176237Y105217D01*
X176061Y103877D01*
X175544Y102629D01*
X174722Y101557D01*
X173650Y100735D01*
X172402Y100218D01*
X171063Y100041D01*
X169723Y100218D01*
X168475Y100735D01*
X167403Y101557D01*
X166581Y102629D01*
X166064Y103877D01*
X165888Y105217D01*
X166064Y106556D01*
X166581Y107804D01*
X167403Y108876D01*
X168475Y109698D01*
X169723Y110215D01*
X171063Y110391D01*
D02*
G37*
G36*
X235515Y100705D02*
X237984D01*
Y98433D01*
X235515D01*
Y100705D01*
D02*
G37*
G36*
X238984D02*
X241452D01*
Y98433D01*
X238984D01*
Y100705D01*
D02*
G37*
G36*
X454436Y102162D02*
X457496D01*
Y98119D01*
X454436D01*
Y102162D01*
D02*
G37*
G36*
X227468Y99106D02*
X229740D01*
Y96638D01*
X227468D01*
Y99106D01*
D02*
G37*
G36*
X159251Y98580D02*
X160591Y98404D01*
X161839Y97887D01*
X162911Y97065D01*
X163733Y95993D01*
X164250Y94745D01*
X164427Y93405D01*
X164250Y92066D01*
X163733Y90818D01*
X162911Y89746D01*
X161839Y88924D01*
X160591Y88407D01*
X159251Y88231D01*
X157912Y88407D01*
X156664Y88924D01*
X155592Y89746D01*
X154770Y90818D01*
X154253Y92066D01*
X154077Y93405D01*
X154253Y94745D01*
X154770Y95993D01*
X155592Y97065D01*
X156664Y97887D01*
X157912Y98404D01*
X159251Y98580D01*
D02*
G37*
G36*
X171063D02*
X172402Y98404D01*
X173650Y97887D01*
X174722Y97065D01*
X175544Y95993D01*
X176061Y94745D01*
X176237Y93405D01*
X176061Y92066D01*
X175544Y90818D01*
X174722Y89746D01*
X173650Y88924D01*
X172402Y88407D01*
X171063Y88231D01*
X169723Y88407D01*
X168475Y88924D01*
X167403Y89746D01*
X166581Y90818D01*
X166064Y92066D01*
X165888Y93405D01*
X166064Y94745D01*
X166581Y95993D01*
X167403Y97065D01*
X168475Y97887D01*
X169723Y98404D01*
X171063Y98580D01*
D02*
G37*
G36*
X227468Y79642D02*
X229740D01*
Y77173D01*
X227468D01*
Y79642D01*
D02*
G37*
G36*
X159251Y86769D02*
X160591Y86593D01*
X161839Y86076D01*
X162911Y85254D01*
X163733Y84182D01*
X164250Y82934D01*
X164427Y81595D01*
X164250Y80255D01*
X163733Y79007D01*
X162911Y77935D01*
X161839Y77113D01*
X160591Y76596D01*
X159251Y76420D01*
X157912Y76596D01*
X156664Y77113D01*
X155592Y77935D01*
X154770Y79007D01*
X154253Y80255D01*
X154077Y81595D01*
X154253Y82934D01*
X154770Y84182D01*
X155592Y85254D01*
X156664Y86076D01*
X157912Y86593D01*
X159251Y86769D01*
D02*
G37*
G36*
X171063D02*
X172402Y86593D01*
X173650Y86076D01*
X174722Y85254D01*
X175544Y84182D01*
X176061Y82934D01*
X176237Y81595D01*
X176061Y80255D01*
X175544Y79007D01*
X174722Y77935D01*
X173650Y77113D01*
X172402Y76596D01*
X171063Y76420D01*
X169723Y76596D01*
X168475Y77113D01*
X167403Y77935D01*
X166581Y79007D01*
X166064Y80255D01*
X165888Y81595D01*
X166064Y82934D01*
X166581Y84182D01*
X167403Y85254D01*
X168475Y86076D01*
X169723Y86593D01*
X171063Y86769D01*
D02*
G37*
G36*
X235515Y77772D02*
X237984D01*
Y75500D01*
X235515D01*
Y77772D01*
D02*
G37*
G36*
X238984D02*
X241452D01*
Y75500D01*
X238984D01*
Y77772D01*
D02*
G37*
G36*
X227468Y76173D02*
X229740D01*
Y73705D01*
X227468D01*
Y76173D01*
D02*
G37*
G36*
X130496Y73047D02*
X133555D01*
Y70382D01*
X130496D01*
Y73047D01*
D02*
G37*
G36*
X134555D02*
X137614D01*
Y70382D01*
X134555D01*
Y73047D01*
D02*
G37*
G36*
X130496Y69382D02*
X133555D01*
Y66716D01*
X130496D01*
Y69382D01*
D02*
G37*
G36*
X134555D02*
X137614D01*
Y66716D01*
X134555D01*
Y69382D01*
D02*
G37*
G36*
X159251Y74958D02*
X160591Y74782D01*
X161839Y74265D01*
X162911Y73443D01*
X163733Y72371D01*
X164250Y71123D01*
X164427Y69784D01*
X164250Y68444D01*
X163733Y67196D01*
X162911Y66124D01*
X161839Y65302D01*
X160591Y64785D01*
X159251Y64609D01*
X157912Y64785D01*
X156664Y65302D01*
X155592Y66124D01*
X154770Y67196D01*
X154253Y68444D01*
X154077Y69784D01*
X154253Y71123D01*
X154770Y72371D01*
X155592Y73443D01*
X156664Y74265D01*
X157912Y74782D01*
X159251Y74958D01*
D02*
G37*
G36*
X171063D02*
X172402Y74782D01*
X173650Y74265D01*
X174722Y73443D01*
X175544Y72371D01*
X176061Y71123D01*
X176237Y69784D01*
X176061Y68444D01*
X175544Y67196D01*
X174722Y66124D01*
X173650Y65302D01*
X172402Y64785D01*
X171063Y64609D01*
X169723Y64785D01*
X168475Y65302D01*
X167403Y66124D01*
X166581Y67196D01*
X166064Y68444D01*
X165888Y69784D01*
X166064Y71123D01*
X166581Y72371D01*
X167403Y73443D01*
X168475Y74265D01*
X169723Y74782D01*
X171063Y74958D01*
D02*
G37*
G36*
X149409Y116297D02*
X150748Y116121D01*
X151997Y115604D01*
X153068Y114781D01*
X153891Y113709D01*
X154408Y112461D01*
X154584Y111122D01*
X154408Y109783D01*
X153891Y108535D01*
X153068Y107463D01*
X151997Y106640D01*
X150989Y106223D01*
Y104210D01*
X151997Y103793D01*
X153068Y102970D01*
X153891Y101899D01*
X154408Y100650D01*
X154584Y99311D01*
X154408Y97972D01*
X153891Y96724D01*
X153068Y95652D01*
X151997Y94829D01*
X150989Y94412D01*
Y92399D01*
X151997Y91982D01*
X153068Y91159D01*
X153891Y90087D01*
X154408Y88839D01*
X154584Y87500D01*
X154408Y86161D01*
X153891Y84913D01*
X153068Y83841D01*
X151997Y83018D01*
X150989Y82601D01*
Y80588D01*
X151997Y80171D01*
X153068Y79348D01*
X153891Y78276D01*
X154408Y77028D01*
X154584Y75689D01*
X154408Y74350D01*
X153891Y73102D01*
X153068Y72030D01*
X151997Y71207D01*
X150989Y70790D01*
Y68777D01*
X151997Y68360D01*
X153068Y67537D01*
X153891Y66465D01*
X154408Y65217D01*
X154584Y63878D01*
X154408Y62539D01*
X153891Y61291D01*
X153068Y60219D01*
X151997Y59396D01*
X150748Y58879D01*
X149409Y58703D01*
X148070Y58879D01*
X146821Y59396D01*
X145750Y60219D01*
X144927Y61291D01*
X144410Y62539D01*
X144234Y63878D01*
X144410Y65217D01*
X144927Y66465D01*
X145750Y67537D01*
X146821Y68360D01*
X147829Y68777D01*
Y70790D01*
X146821Y71207D01*
X145750Y72030D01*
X144927Y73102D01*
X144410Y74350D01*
X144234Y75689D01*
X144410Y77028D01*
X144927Y78276D01*
X145750Y79348D01*
X146821Y80171D01*
X147829Y80588D01*
Y82601D01*
X146821Y83018D01*
X145750Y83841D01*
X144927Y84913D01*
X144410Y86161D01*
X144234Y87500D01*
X144410Y88839D01*
X144927Y90087D01*
X145750Y91159D01*
X146821Y91982D01*
X147829Y92399D01*
Y94412D01*
X146821Y94829D01*
X145750Y95652D01*
X144927Y96724D01*
X144410Y97972D01*
X144234Y99311D01*
X144410Y100650D01*
X144927Y101899D01*
X145750Y102970D01*
X146821Y103793D01*
X147829Y104210D01*
Y106223D01*
X146821Y106640D01*
X145750Y107463D01*
X144927Y108535D01*
X144410Y109783D01*
X144234Y111122D01*
X144410Y112461D01*
X144927Y113709D01*
X145750Y114781D01*
X146821Y115604D01*
X148070Y116121D01*
X149409Y116297D01*
D02*
G37*
G36*
X180905Y69053D02*
X182244Y68877D01*
X183493Y68360D01*
X184564Y67537D01*
X185387Y66465D01*
X185904Y65217D01*
X186080Y63878D01*
X185904Y62539D01*
X185387Y61291D01*
X184564Y60219D01*
X183493Y59396D01*
X182244Y58879D01*
X180905Y58703D01*
X179566Y58879D01*
X178318Y59396D01*
X177246Y60219D01*
X176423Y61291D01*
X175906Y62539D01*
X175730Y63878D01*
X175906Y65217D01*
X176423Y66465D01*
X177246Y67537D01*
X178318Y68360D01*
X179566Y68877D01*
X180905Y69053D01*
D02*
G37*
G36*
X159251Y63147D02*
X160591Y62971D01*
X161839Y62454D01*
X162911Y61632D01*
X163733Y60560D01*
X164250Y59312D01*
X164427Y57972D01*
X164250Y56633D01*
X163733Y55385D01*
X162911Y54313D01*
X161839Y53491D01*
X160591Y52974D01*
X159251Y52798D01*
X157912Y52974D01*
X156664Y53491D01*
X155592Y54313D01*
X154770Y55385D01*
X154253Y56633D01*
X154077Y57972D01*
X154253Y59312D01*
X154770Y60560D01*
X155592Y61632D01*
X156664Y62454D01*
X157912Y62971D01*
X159251Y63147D01*
D02*
G37*
G36*
X171063D02*
X172402Y62971D01*
X173650Y62454D01*
X174722Y61632D01*
X175544Y60560D01*
X176061Y59312D01*
X176237Y57972D01*
X176061Y56633D01*
X175544Y55385D01*
X174722Y54313D01*
X173650Y53491D01*
X172402Y52974D01*
X171063Y52798D01*
X169723Y52974D01*
X168475Y53491D01*
X167403Y54313D01*
X166581Y55385D01*
X166064Y56633D01*
X165888Y57972D01*
X166064Y59312D01*
X166581Y60560D01*
X167403Y61632D01*
X168475Y62454D01*
X169723Y62971D01*
X171063Y63147D01*
D02*
G37*
G36*
X130696Y63792D02*
X137414D01*
Y57861D01*
X133715D01*
Y50760D01*
X134068Y50406D01*
X134756Y50406D01*
X135256Y50406D01*
X140071D01*
Y46744D01*
X141299Y45516D01*
X141586Y45086D01*
X141687Y44579D01*
Y41745D01*
X143877D01*
X144205Y41745D01*
X144705Y41745D01*
X145368D01*
Y47668D01*
X145488Y48273D01*
X145658Y48527D01*
X144927Y49479D01*
X144410Y50728D01*
X144234Y52067D01*
X144410Y53406D01*
X144927Y54654D01*
X145750Y55726D01*
X146821Y56549D01*
X148070Y57066D01*
X149409Y57242D01*
X150748Y57066D01*
X151997Y56549D01*
X153068Y55726D01*
X153891Y54654D01*
X154408Y53406D01*
X154584Y52067D01*
X154408Y50728D01*
X153891Y49479D01*
X153068Y48408D01*
X151997Y47585D01*
X150748Y47068D01*
X149409Y46892D01*
X148905Y46958D01*
X148529Y46629D01*
Y41745D01*
X149520D01*
Y36208D01*
X144705D01*
X144377Y36208D01*
X143877Y36208D01*
X143214D01*
Y31115D01*
X144205D01*
Y31115D01*
X144377D01*
Y31115D01*
X148092D01*
X148220Y31140D01*
X153483D01*
X153963Y31188D01*
Y41056D01*
X157925D01*
Y32678D01*
X158387Y32487D01*
X158963Y33063D01*
Y41056D01*
X162926D01*
Y31188D01*
X160838D01*
X158527Y28878D01*
X158097Y28590D01*
X157590Y28490D01*
X149520D01*
Y25578D01*
X148274D01*
Y21666D01*
X149520D01*
Y16129D01*
X147002D01*
Y15689D01*
X146901Y15182D01*
X146614Y14752D01*
X144741Y12879D01*
X144933Y12417D01*
X146448D01*
Y9449D01*
X147448D01*
Y12417D01*
X149720D01*
Y9177D01*
X150182Y8985D01*
X151976Y10779D01*
Y15781D01*
X152096Y16386D01*
X152439Y16899D01*
X166266Y30726D01*
X166075Y31188D01*
X163963D01*
Y35372D01*
X165944D01*
X167926D01*
Y33039D01*
X168387Y32847D01*
X168963Y33423D01*
Y41056D01*
X172925D01*
Y31188D01*
X171198D01*
X155137Y15126D01*
Y10419D01*
X157545Y8010D01*
X158845D01*
Y17631D01*
X173044D01*
Y8010D01*
X184358D01*
X184486Y7985D01*
X190957D01*
Y1857D01*
X181286D01*
Y5360D01*
X156996D01*
X156488Y5460D01*
X156058Y5748D01*
X153736Y8070D01*
X150479Y4813D01*
X149967Y4470D01*
X149362Y4350D01*
X139220D01*
X138615Y4470D01*
X138102Y4813D01*
X137194Y5721D01*
X136852Y6233D01*
X136731Y6838D01*
Y15379D01*
X136852Y15984D01*
X137194Y16497D01*
X139062Y18364D01*
Y21666D01*
X140053D01*
Y25578D01*
X139062D01*
Y31115D01*
X140053D01*
Y36208D01*
X139062D01*
Y40120D01*
X139036Y40248D01*
Y44030D01*
X138197Y44869D01*
X135256D01*
X134928Y44869D01*
X134428Y44869D01*
X129613D01*
Y50406D01*
X131064D01*
Y57861D01*
X130696D01*
Y63792D01*
D02*
G37*
G36*
X180905Y57242D02*
X182244Y57066D01*
X183493Y56549D01*
X184564Y55726D01*
X185387Y54654D01*
X185904Y53406D01*
X186080Y52067D01*
X185904Y50728D01*
X185387Y49479D01*
X184564Y48408D01*
X183493Y47585D01*
X182244Y47068D01*
X180905Y46892D01*
X179566Y47068D01*
X178318Y47585D01*
X177246Y48408D01*
X176423Y49479D01*
X175906Y50728D01*
X175730Y52067D01*
X175906Y53406D01*
X176423Y54654D01*
X177246Y55726D01*
X178318Y56549D01*
X179566Y57066D01*
X180905Y57242D01*
D02*
G37*
G36*
X196440Y48638D02*
X198462D01*
Y46419D01*
X196440D01*
Y48638D01*
D02*
G37*
G36*
Y44919D02*
X198462D01*
Y42701D01*
X196440D01*
Y44919D01*
D02*
G37*
G36*
X193511Y40764D02*
X195783D01*
Y38295D01*
X193511D01*
Y40764D01*
D02*
G37*
G36*
X163963Y41056D02*
X165194D01*
Y36872D01*
X163963D01*
Y41056D01*
D02*
G37*
G36*
X166694D02*
X167926D01*
Y36872D01*
X166694D01*
Y41056D01*
D02*
G37*
G36*
X178798Y30148D02*
X178798Y30148D01*
X178798Y30148D01*
X191535Y30143D01*
X191696Y30111D01*
X191847Y30081D01*
X191847Y30081D01*
X191847Y30081D01*
X191983Y29990D01*
X192112Y29904D01*
X192112Y29904D01*
X192112Y29904D01*
X192198Y29775D01*
X192289Y29639D01*
X192289Y29639D01*
X192289Y29639D01*
X192319Y29487D01*
X192351Y29327D01*
X192351Y12992D01*
X192289Y12680D01*
X192112Y12415D01*
X191847Y12239D01*
X191535Y12176D01*
X178444D01*
X178132Y12239D01*
X177868Y12415D01*
X177691Y12680D01*
X177629Y12992D01*
Y28979D01*
X177629Y28979D01*
X177629Y28979D01*
X177665Y29160D01*
X177691Y29291D01*
X177691Y29291D01*
X177691Y29291D01*
X177773Y29414D01*
X177868Y29555D01*
X177868Y29556D01*
X177868Y29556D01*
X178221Y29909D01*
X178221Y29909D01*
X178221Y29909D01*
X178353Y29997D01*
X178486Y30086D01*
X178486Y30086D01*
X178486Y30086D01*
X178612Y30111D01*
X178798Y30148D01*
D02*
G37*
G36*
X123819Y30855D02*
X125249Y30714D01*
X126624Y30297D01*
X127892Y29619D01*
X129002Y28708D01*
X129914Y27597D01*
X130592Y26329D01*
X131009Y24954D01*
X131150Y23524D01*
X131009Y22093D01*
X130592Y20718D01*
X129914Y19451D01*
X129002Y18340D01*
X127892Y17428D01*
X126624Y16750D01*
X125249Y16333D01*
X123819Y16192D01*
X122388Y16333D01*
X121013Y16750D01*
X119745Y17428D01*
X118634Y18340D01*
X117723Y19451D01*
X117045Y20718D01*
X116628Y22093D01*
X116487Y23524D01*
X116628Y24954D01*
X117045Y26329D01*
X117723Y27597D01*
X118634Y28708D01*
X119745Y29619D01*
X121013Y30297D01*
X122388Y30714D01*
X123819Y30855D01*
D02*
G37*
%LPD*%
G36*
X178444Y28979D02*
Y12992D01*
X191535D01*
X191535Y29327D01*
X178798Y29332D01*
X178444Y28979D01*
D02*
G37*
%LPC*%
G36*
X283055Y112319D02*
X285523D01*
Y110047D01*
X283055D01*
Y112319D01*
D02*
G37*
G36*
X275007Y110721D02*
X277279D01*
Y108252D01*
X275007D01*
Y110721D01*
D02*
G37*
G36*
Y87197D02*
X277279D01*
Y84728D01*
X275007D01*
Y87197D01*
D02*
G37*
G36*
X422228Y104740D02*
X424500D01*
Y102665D01*
X422228D01*
Y104740D01*
D02*
G37*
G36*
Y101665D02*
X424500D01*
Y99591D01*
X422228D01*
Y101665D01*
D02*
G37*
G36*
X424409Y74409D02*
X425582D01*
Y72685D01*
X422285D01*
X422354Y73036D01*
X422836Y73757D01*
X423558Y74240D01*
X424409Y74409D01*
D02*
G37*
G36*
X422285Y71685D02*
X425582D01*
Y69961D01*
X424409D01*
X423558Y70130D01*
X422836Y70613D01*
X422354Y71334D01*
X422285Y71685D01*
D02*
G37*
G36*
X341543Y85646D02*
X343814D01*
Y83177D01*
X341543D01*
Y85646D01*
D02*
G37*
G36*
Y82177D02*
X343814D01*
Y79709D01*
X341543D01*
Y82177D01*
D02*
G37*
G36*
X328157Y70078D02*
X329330D01*
X330181Y69909D01*
X330903Y69427D01*
X331385Y68705D01*
X331455Y68354D01*
X328157D01*
Y70078D01*
D02*
G37*
G36*
Y67354D02*
X331455D01*
X331385Y67003D01*
X330903Y66282D01*
X330181Y65800D01*
X329330Y65631D01*
X328157D01*
Y67354D01*
D02*
G37*
G36*
X205277Y48638D02*
X207299D01*
Y46419D01*
X205277D01*
Y48638D01*
D02*
G37*
G36*
Y44919D02*
X207299D01*
Y42701D01*
X205277D01*
Y44919D01*
D02*
G37*
G36*
X377755Y25647D02*
X378478Y25552D01*
X379152Y25273D01*
X379730Y24829D01*
X380174Y24250D01*
X380453Y23577D01*
X380548Y22854D01*
X380453Y22132D01*
X380174Y21458D01*
X379730Y20880D01*
X379152Y20436D01*
X378478Y20157D01*
X377755Y20062D01*
X377033Y20157D01*
X376359Y20436D01*
X375781Y20880D01*
X375337Y21458D01*
X375058Y22132D01*
X374963Y22854D01*
X375058Y23577D01*
X375337Y24250D01*
X375781Y24829D01*
X376359Y25273D01*
X377033Y25552D01*
X377755Y25647D01*
D02*
G37*
G36*
X230118Y23999D02*
X231015Y23820D01*
X231776Y23312D01*
X232284Y22551D01*
X232463Y21654D01*
X232284Y20756D01*
X231776Y19995D01*
X231443Y19773D01*
Y18517D01*
X233181D01*
Y18517D01*
X233353D01*
Y18517D01*
X235091D01*
Y19773D01*
X234759Y19995D01*
X234250Y20756D01*
X234072Y21654D01*
X234250Y22551D01*
X234759Y23312D01*
X235520Y23820D01*
X236417Y23999D01*
X237314Y23820D01*
X238075Y23312D01*
X238583Y22551D01*
X238762Y21654D01*
X238583Y20756D01*
X238075Y19995D01*
X237742Y19773D01*
Y18517D01*
X238496D01*
Y12979D01*
X237250D01*
Y12217D01*
X238496D01*
Y6837D01*
X251859D01*
X252081Y7170D01*
X252842Y7678D01*
X253740Y7857D01*
X254637Y7678D01*
X255398Y7170D01*
X255906Y6409D01*
X256085Y5512D01*
X255906Y4614D01*
X255398Y3854D01*
X254637Y3345D01*
X253740Y3167D01*
X252842Y3345D01*
X252081Y3854D01*
X251859Y4186D01*
X234283D01*
X233776Y4287D01*
X233346Y4575D01*
X231916Y6005D01*
X231781Y6206D01*
X231307Y6680D01*
X228038D01*
Y12217D01*
X229284D01*
Y12979D01*
X228038D01*
Y18517D01*
X228792D01*
Y19773D01*
X228460Y19995D01*
X227951Y20756D01*
X227773Y21654D01*
X227951Y22551D01*
X228460Y23312D01*
X229220Y23820D01*
X230118Y23999D01*
D02*
G37*
G36*
X377755Y10647D02*
X378478Y10552D01*
X379152Y10273D01*
X379730Y9829D01*
X380174Y9251D01*
X380453Y8577D01*
X380548Y7854D01*
X380453Y7132D01*
X380174Y6458D01*
X380098Y6360D01*
X380319Y5911D01*
X393198D01*
X393420Y6244D01*
X394181Y6752D01*
X395078Y6931D01*
X395976Y6752D01*
X396737Y6244D01*
X397245Y5483D01*
X397423Y4586D01*
X397245Y3688D01*
X396737Y2928D01*
X395976Y2419D01*
X395078Y2241D01*
X394181Y2419D01*
X393420Y2928D01*
X393198Y3260D01*
X360955D01*
X360721Y3307D01*
X360543Y3188D01*
X359645Y3009D01*
X358748Y3188D01*
X357987Y3696D01*
X357479Y4457D01*
X357300Y5354D01*
X357479Y6252D01*
X357987Y7012D01*
X358748Y7521D01*
X359645Y7699D01*
X360543Y7521D01*
X361303Y7012D01*
X361812Y6252D01*
X361879Y5911D01*
X375191D01*
X375413Y6360D01*
X375337Y6458D01*
X375058Y7132D01*
X374963Y7854D01*
X375058Y8577D01*
X375337Y9251D01*
X375781Y9829D01*
X376359Y10273D01*
X377033Y10552D01*
X377755Y10647D01*
D02*
G37*
%LPD*%
D15*
X204822Y25689D02*
X200590Y21457D01*
Y6791D02*
Y21457D01*
X379724Y162106D02*
X317913D01*
X260219Y98616D02*
X260028Y98808D01*
X269204Y98425D02*
X269013Y98616D01*
X260219D01*
X291929Y69813D02*
X287124Y65008D01*
X291929Y69813D02*
Y72834D01*
X288527Y59646D02*
X284324Y63848D01*
X290944Y59646D02*
X288527D01*
X300196Y45430D02*
X282524Y63102D01*
X300196Y45276D02*
Y45430D01*
X282524Y63364D02*
X275810Y70079D01*
X282524Y63102D02*
Y63364D01*
X284324Y64691D02*
X275779Y73236D01*
X284324Y63848D02*
Y64691D01*
X304921Y45669D02*
X290944Y59646D01*
X275779Y73236D02*
Y74001D01*
X275393Y74387D01*
Y78543D01*
X275810Y70079D02*
X270118D01*
X269882Y70315D01*
X250486D01*
X293846Y61024D02*
Y61565D01*
X294729Y62448D02*
X293846Y61565D01*
X278281Y58924D02*
X275393Y61811D01*
X278281Y47694D02*
Y58924D01*
X230610Y9449D02*
Y15748D01*
Y9252D02*
Y9449D01*
X236417Y16240D02*
Y21654D01*
X156996Y6685D02*
X153556Y10125D01*
X184358Y6685D02*
X156996D01*
X186122Y4921D02*
X184358Y6685D01*
X346759Y137129D02*
X339945Y130315D01*
X346759Y137129D02*
Y155520D01*
X339945Y130315D02*
X329335Y119705D01*
X348031Y156791D02*
X346759Y155520D01*
X329335Y119705D02*
X325984D01*
X323503Y117224D01*
X326483Y154928D02*
X323228D01*
X337000Y83752D02*
X328830Y75583D01*
X249627Y90999D02*
X249280Y91347D01*
X251947Y90999D02*
X249627D01*
X252294Y91347D02*
X251947Y90999D01*
X286279Y91347D02*
X252294D01*
X294729Y82896D02*
X286279Y91347D01*
X336692Y100787D02*
X336269D01*
X338688Y98791D02*
X336692Y100787D01*
X338688Y98307D02*
Y98791D01*
X339960Y97035D02*
X338688Y98307D01*
X323228Y154928D02*
X322636Y155520D01*
X317913Y96239D02*
X317695D01*
X317913Y96457D02*
Y156791D01*
X334452Y57854D02*
X325984D01*
X357480Y156791D02*
X348031D01*
X337598Y156201D02*
X327755D01*
X322636Y155520D02*
X319185D01*
X317913Y156791D01*
X367913Y156201D02*
X358070D01*
X357480Y156791D01*
X327657Y72854D02*
X323177D01*
X328201D02*
X327657D01*
X344508Y98964D02*
X342114Y101358D01*
X344508Y93950D02*
Y98964D01*
X347585Y93950D02*
X344508D01*
X249486Y71315D02*
X244898D01*
X244540Y70957D01*
X239883D01*
X238548Y69621D01*
X264609Y68405D02*
X247047D01*
X250486Y70315D02*
X249486Y71315D01*
X276481Y56534D02*
X264609Y68405D01*
X273568Y55487D02*
X216757D01*
X270881Y52800D02*
X213400D01*
X193863Y72338D01*
X216757Y55487D02*
X199803Y72441D01*
X268307Y50000D02*
X209251D01*
X189960Y69291D01*
X273794Y55261D02*
X273568Y55487D01*
X273794Y42009D02*
Y55261D01*
X270994Y52687D02*
X270881Y52800D01*
X282086Y30610D02*
X276673D01*
X282283D02*
X282086D01*
X393897Y162106D02*
X379724D01*
X399082D02*
X393897D01*
X378149Y106299D02*
Y129693D01*
Y85652D02*
Y106299D01*
X250984Y93996D02*
X250787Y93799D01*
X182371Y124399D02*
X180905Y122933D01*
X208661Y110433D02*
X208464Y110236D01*
X235566Y160736D02*
X165543D01*
X256602Y139700D02*
X235566Y160736D01*
X403043Y95169D02*
X401968Y94095D01*
X434831Y81507D02*
X434448Y81890D01*
X252185Y140157D02*
X251643D01*
X301446Y61024D02*
Y106647D01*
X437419Y69704D02*
X435454Y71668D01*
X140362Y44579D02*
X137499Y47441D01*
X143988Y149516D02*
X142716Y150787D01*
X149093Y165473D02*
X148031Y166535D01*
X269193Y79831D02*
Y87697D01*
Y149024D02*
Y156890D01*
X283366Y94193D02*
X283169Y93996D01*
X250984D01*
X342114Y101358D02*
X340735D01*
X335740Y97035D02*
X329591Y103184D01*
X336855Y94988D02*
X335740Y96103D01*
X335236Y62598D02*
Y67667D01*
X343149Y75580D02*
X335236Y67667D01*
X351801Y83494D02*
X343887Y75580D01*
X351801Y83494D02*
Y98425D01*
X349114Y72854D02*
X342969D01*
X341515Y57854D02*
X326136Y42476D01*
X342135Y57854D02*
X341515D01*
X342969Y72854D02*
X338710Y68596D01*
Y62113D02*
Y68596D01*
X341998Y62923D02*
X341929Y62992D01*
X350787Y67854D02*
X341929D01*
X335236Y62598D02*
X335108Y62726D01*
X343887Y75580D02*
X343149D01*
X157590Y29815D02*
X148220D01*
X146948Y28543D01*
X160944Y33169D02*
X157590Y29815D01*
X160944Y33169D02*
Y36122D01*
X237212Y68413D02*
X226976D01*
X284752Y79437D02*
X274515D01*
X286023Y80709D02*
X284752Y79437D01*
X274515D02*
X274507Y79429D01*
X290354Y113779D02*
X287598Y116535D01*
X249280Y91347D02*
X239756D01*
X297646Y61024D02*
Y92806D01*
X265611Y119335D02*
X263000Y116724D01*
X305246Y61024D02*
Y107942D01*
X309046Y61024D02*
Y123850D01*
X294729Y62448D02*
Y82896D01*
X280081Y48439D02*
Y62279D01*
X364103Y32410D02*
X322109D01*
X310846Y63266D02*
Y125276D01*
X297646Y92806D02*
X286220Y104232D01*
X276481Y46948D02*
Y56534D01*
X284905Y41069D02*
X278281Y47694D01*
X285651Y42869D02*
X280081Y48439D01*
X285355Y33615D02*
X284593Y32853D01*
X284160Y39269D02*
X276481Y46948D01*
X284321Y39269D02*
X284160D01*
X285355Y38235D02*
X284321Y39269D01*
X285355Y33615D02*
Y38235D01*
X284593Y32853D02*
X284526D01*
X289060Y37076D02*
X285066Y41069D01*
X284905D01*
X289806Y38876D02*
X285812Y42869D01*
X285651D01*
X337863Y38876D02*
X289806D01*
X338608Y37076D02*
X289060D01*
X284526Y32853D02*
X282283Y30610D01*
X317237Y27539D02*
X275785D01*
X273774Y29549D01*
Y41990D01*
X281397Y35236D02*
X276574D01*
X282086Y35925D02*
X281397Y35236D01*
X445866Y67185D02*
X438385Y59704D01*
X447539Y67185D02*
X445866D01*
X450240Y69704D02*
X437419D01*
X451693Y71157D02*
X450240Y69704D01*
X446842Y83089D02*
Y90367D01*
X436544Y81507D02*
X434831D01*
X445866Y72185D02*
X436544Y81507D01*
X447539Y72185D02*
X445866D01*
X434040Y71668D02*
X431693Y74016D01*
X435454Y71668D02*
X434040D01*
X185236Y152756D02*
X184853Y152373D01*
X382980Y105018D02*
X382874Y104911D01*
X382980Y105018D02*
Y129142D01*
X384251Y130413D02*
X382980Y129142D01*
X451693Y71157D02*
Y78238D01*
X446842Y83089D01*
Y90367D02*
X445570Y91639D01*
X437419Y69704D02*
X432418Y64704D01*
X416444D02*
X416306Y64567D01*
X432418Y64704D02*
X416444D01*
X410276Y59704D02*
X395169Y74811D01*
X438385Y59704D02*
X410276D01*
X395169Y74811D02*
Y89280D01*
X394094Y90354D01*
X393897D01*
X445866Y77185D02*
X442499Y80552D01*
Y102642D01*
X442519Y102662D02*
X442499Y102642D01*
X447539Y77185D02*
X445866D01*
X401968Y94095D02*
X401771D01*
X403043Y95169D02*
Y98614D01*
X409350Y104921D02*
X403043Y98614D01*
X409350Y104921D02*
Y105118D01*
X423925Y108571D02*
X417921D01*
X414665Y105315D01*
Y105118D02*
Y105315D01*
X425000Y109646D02*
X423925Y108571D01*
X442519Y102662D02*
Y102772D01*
X440460Y104831D01*
X433948D01*
X432874Y105905D01*
X444578Y104721D02*
X442519Y102662D01*
X444578Y104721D02*
Y113481D01*
X445570Y114473D02*
X444578Y113481D01*
X449614Y92910D02*
Y113202D01*
X450885Y114473D02*
X449614Y113202D01*
X450885Y91639D02*
X449614Y92910D01*
X410992Y64567D02*
X409720Y65839D01*
Y79716D01*
X395169Y94268D01*
Y96760D01*
X394094Y97835D01*
X393897D01*
Y106524D01*
X387288Y89280D02*
X380905Y82896D01*
X393897Y90354D02*
X392822Y89280D01*
X387288D01*
X428937Y98546D02*
Y118898D01*
Y98546D02*
X427255Y96864D01*
Y77814D02*
Y96864D01*
Y77814D02*
X426626Y77185D01*
X426082D01*
X413649Y70965D02*
Y98260D01*
X379724Y74016D02*
X361712Y92028D01*
Y132579D01*
X380905Y82896D02*
X378149Y85652D01*
X360595Y82677D02*
Y90600D01*
X358912Y92282D01*
Y142476D01*
X361712Y145276D02*
X358912Y142476D01*
X385720Y137000D02*
X384448Y135728D01*
X381941Y133485D02*
X378149Y129693D01*
X382008Y133485D02*
X381941D01*
X384251Y135728D02*
X382008Y133485D01*
X384448Y135728D02*
X384251D01*
X379527Y156791D02*
X374699Y151964D01*
Y113686D02*
Y151964D01*
X388976Y156791D02*
X379527D01*
X404133Y129823D02*
X394291D01*
X393700Y130413D01*
X384251D01*
X402677Y158511D02*
X399082Y162106D01*
X402677Y148576D02*
Y158511D01*
Y148576D02*
X391102Y137000D01*
X385720D01*
X399409Y156201D02*
X389566D01*
X388976Y156791D01*
X379724Y162106D02*
X379724Y162106D01*
X392716Y64961D02*
X369039D01*
X338330Y34252D01*
X296260D01*
X337117Y40676D02*
X291804D01*
X326136Y42476D02*
X294611D01*
X355068Y56081D02*
X337863Y38876D01*
X291804Y40676D02*
X286811Y45669D01*
X353268Y56827D02*
X337117Y40676D01*
X294611Y42476D02*
X291141Y45945D01*
X347834Y93701D02*
X347585Y93950D01*
X335740Y96103D02*
Y97035D01*
X328172Y81496D02*
X327318D01*
X336855Y90179D02*
Y94988D01*
Y90179D02*
X328172Y81496D01*
X327318D02*
X318635Y72813D01*
X322244Y91339D02*
X318701Y87795D01*
X334055Y91339D02*
X322244D01*
X344508Y93950D02*
X337000Y86441D01*
X340735Y101358D02*
X338341Y103752D01*
X341245Y104808D02*
X341141Y104911D01*
X337000Y83752D02*
Y86441D01*
X328962Y104705D02*
X327657D01*
X329591Y104076D02*
X328962Y104705D01*
X329591Y103184D02*
Y104076D01*
X312846Y61266D02*
X310846Y63266D01*
X318635Y70203D02*
Y72813D01*
X320713Y95297D02*
X315901Y90485D01*
X318700Y78740D02*
X315901Y81540D01*
X317695Y96239D02*
X314101Y92645D01*
X315901Y81540D02*
Y90485D01*
X312846Y61024D02*
Y61266D01*
X286220Y149902D02*
X286023D01*
X325984Y57854D02*
X314101Y69737D01*
X325984Y109705D02*
X320713Y104434D01*
Y95297D02*
Y104434D01*
X314101Y69737D02*
Y92645D01*
X309046Y123850D02*
X287970Y144926D01*
X342135Y58061D02*
X341929Y58268D01*
X338710Y62113D02*
X334452Y57854D01*
X335108Y62726D02*
X327785D01*
X134055Y60827D02*
X132389Y59161D01*
Y47842D02*
Y59161D01*
Y47842D02*
X132185Y47638D01*
X140362Y40248D02*
Y44579D01*
X137499Y47441D02*
Y47638D01*
X141633Y38976D02*
X140362Y40248D01*
X341210Y109774D02*
X341141Y109843D01*
X341210Y114636D02*
X341141Y114567D01*
X349045Y114636D02*
X341210D01*
X327785Y62726D02*
X327657Y62854D01*
X349045Y62923D02*
X341998D01*
X349114Y62854D02*
X349045Y62923D01*
X338341Y103752D02*
Y115727D01*
X349114Y119705D02*
X342319D01*
X349010Y104808D02*
X341245D01*
X323177Y72854D02*
X321976Y71653D01*
X321435D01*
X325984Y62854D02*
X318635Y70203D01*
X305246Y107942D02*
X286220Y126969D01*
X301446Y106647D02*
X288758Y119335D01*
X327657Y62854D02*
X325984D01*
X328830Y73484D02*
Y75583D01*
X275393Y78543D02*
X274507Y79429D01*
X239756Y91347D02*
X238484Y92618D01*
X273794Y42009D02*
X273774Y41990D01*
X286220Y104232D02*
X286023D01*
X327657Y109705D02*
X325984D01*
X349114Y114705D02*
X349045Y114636D01*
X349114Y104705D02*
X349010Y104808D01*
X323503Y112186D02*
Y117224D01*
X325984Y109705D02*
X323503Y112186D01*
X349114Y109705D02*
X349045Y109774D01*
X341210D01*
X356868Y55335D02*
X338608Y37076D01*
X356868Y55335D02*
Y108624D01*
X355068Y100424D02*
X350787Y104705D01*
X355068Y56081D02*
Y100424D01*
X353268Y56827D02*
Y65373D01*
X350787Y67854D01*
X342319Y119705D02*
X338341Y115727D01*
X356868Y108624D02*
X350787Y114705D01*
X349114D01*
X348907Y58061D02*
X342135D01*
X349114Y57854D02*
X348907Y58061D01*
X328830Y73484D02*
X328201Y72854D01*
X317913Y162106D02*
X317814Y162205D01*
X286220Y126969D02*
X286023D01*
X284752Y125697D01*
X288758Y119335D02*
X265611D01*
X263000Y116724D02*
X239657D01*
X238681Y138287D02*
X237409Y137016D01*
X226976Y91347D02*
X226968Y91339D01*
X237212Y91347D02*
X226976D01*
X238484Y92618D02*
X237212Y91347D01*
X274515Y102961D02*
X274507Y102953D01*
X286023Y104232D02*
X284752Y102961D01*
X274515D01*
X237114Y114181D02*
X226877D01*
X239657Y116724D02*
X237114Y114181D01*
X226877D02*
X226870Y114173D01*
X286023Y149902D02*
X284752Y148630D01*
X274515D01*
X274507Y148622D01*
X310846Y125276D02*
X286220Y149902D01*
X239756Y139559D02*
X238484Y138287D01*
X251045Y139559D02*
X239756D01*
X237409Y137016D02*
X226976D01*
X251643Y140157D02*
X251045Y139559D01*
X226976Y137016D02*
X226968Y137008D01*
X257327Y144926D02*
X257283Y144882D01*
X287970Y144926D02*
X257327D01*
X284752Y125697D02*
X274515D01*
X274507Y125689D01*
X238484Y69685D02*
X237212Y68413D01*
X226976D02*
X226968Y68405D01*
X317814Y162205D02*
X306102D01*
X271237Y142564D02*
X263380D01*
X272069Y141732D02*
X271237Y142564D01*
X280467Y141732D02*
X272069D01*
X289916Y138932D02*
X268498D01*
X289960Y138976D02*
X289916Y138932D01*
X268498D02*
X267667Y139764D01*
X267126D01*
X263380Y142564D02*
X262942Y142126D01*
X262401D01*
X257874Y132677D02*
X256602Y133949D01*
Y139700D01*
X165543Y160736D02*
X164271Y162008D01*
Y162205D01*
X258070Y132677D02*
X257874D01*
X287598Y116535D02*
X273425D01*
X259342Y149024D02*
X258070Y150295D01*
X268791Y149024D02*
X259342D01*
X269193Y148622D02*
X268791Y149024D01*
X269193Y125689D02*
X267921Y126961D01*
X258472D01*
X258070Y127362D01*
X259342Y79831D02*
X258070Y81102D01*
X268791Y79831D02*
X259342D01*
X269193Y79429D02*
X268791Y79831D01*
X269193Y125689D02*
Y133957D01*
Y102953D02*
Y111221D01*
Y102953D02*
X267921Y104224D01*
X258472D01*
X258070Y104626D01*
X221653Y91339D02*
Y99606D01*
Y91339D02*
X220381Y92610D01*
X210933D01*
X210531Y93012D01*
X221555Y114173D02*
Y122441D01*
Y114173D02*
X220283Y115445D01*
X210834D01*
X210433Y115847D01*
X221653Y137008D02*
X220381Y138279D01*
X210933D01*
X210531Y138681D01*
X221653Y137008D02*
Y145276D01*
Y68405D02*
Y76673D01*
Y68405D02*
X220381Y69677D01*
X210933D01*
X210531Y70079D01*
X233858Y110433D02*
X208661D01*
X234055Y110630D02*
X233858Y110433D01*
X256799Y108669D02*
X236054D01*
X234821Y107436D02*
X185465D01*
X181779Y111122D02*
X180905D01*
X192716Y90158D02*
Y96457D01*
X181048Y87357D02*
X180905Y87500D01*
X209547Y99311D02*
X180905D01*
X210531Y98327D02*
X209547Y99311D01*
X210236Y75689D02*
X180905D01*
X210531Y75394D02*
X210236Y75689D01*
X146948Y18898D02*
X145677Y17626D01*
Y15689D02*
Y17626D01*
Y15689D02*
X142905Y12917D01*
Y10721D02*
Y12917D01*
Y10721D02*
X141633Y9449D01*
X369094Y37402D02*
X364103Y32410D01*
X322109D02*
X317237Y27539D01*
X386023Y30610D02*
X334350D01*
X324212Y20472D01*
X185465Y107436D02*
X181779Y111122D01*
X257130Y87357D02*
X181048D01*
X258070Y86417D02*
X257130Y87357D01*
X258070Y109941D02*
X256799Y108669D01*
X236054D02*
X234821Y107436D01*
X210433Y121161D02*
X210236D01*
X197728Y133669D01*
Y135343D02*
X196456Y136614D01*
X197728Y133669D02*
Y135343D01*
X210531Y143996D02*
X210334D01*
X203882Y150449D02*
Y150844D01*
X210334Y143996D02*
X203882Y150449D01*
Y150844D02*
X198701Y156024D01*
X181081D01*
X180019Y157087D01*
X191076Y152756D02*
X185236D01*
X184853Y152373D02*
X182983D01*
X257874Y155610D02*
X248011Y165473D01*
X258070Y155610D02*
X257874D01*
X248011Y165473D02*
X149093D01*
X146948Y18898D02*
Y28543D01*
X196391Y144488D02*
Y152756D01*
X196456Y144423D02*
X196391Y144488D01*
X196456Y136614D02*
Y144423D01*
X177776Y143779D02*
Y143944D01*
X180019Y141535D02*
X177776Y143779D01*
X175976Y145744D02*
Y147941D01*
X177776Y143944D02*
X175976Y145744D01*
Y147941D02*
X174704Y149213D01*
X180019Y141339D02*
Y141535D01*
X175976Y150484D02*
X174704Y149213D01*
X175976Y150484D02*
Y152681D01*
X177776Y154481D02*
X175976Y152681D01*
X177776Y154481D02*
Y154647D01*
X180019Y156890D02*
X177776Y154647D01*
X180019Y156890D02*
Y157087D01*
X182983Y152373D02*
X180019Y149409D01*
Y149213D02*
Y149409D01*
X164271Y146063D02*
Y162205D01*
X148031Y150787D02*
Y150984D01*
X145788Y153227D02*
Y153393D01*
X143988Y155193D01*
X148031Y150984D02*
X145788Y153227D01*
X143988Y155193D02*
Y157390D01*
X142716Y158661D01*
X148031Y166339D02*
X145788Y164095D01*
Y163930D02*
X143988Y162130D01*
X148031Y166339D02*
Y166535D01*
X143988Y159933D02*
Y162130D01*
Y159933D02*
X142716Y158661D01*
X145788Y163930D02*
Y164095D01*
X158956Y162205D02*
X153740D01*
X150995Y161822D02*
X148031Y158858D01*
X153357Y161822D02*
X150995D01*
X148031Y158661D02*
Y158858D01*
X153740Y162205D02*
X153357Y161822D01*
X191141Y136417D02*
Y136614D01*
Y136417D02*
X182371Y127647D01*
Y124399D02*
Y127647D01*
X171063Y117028D02*
Y119101D01*
X173433Y121471D02*
X171063Y119101D01*
X173433Y121471D02*
Y140067D01*
X174704Y141339D02*
X173433Y140067D01*
X159251Y117028D02*
Y145768D01*
X158956Y146063D01*
X149409Y122933D02*
X143988Y128354D01*
Y149516D01*
X253740Y5512D02*
X234283D01*
X232853Y6942D01*
Y7009D01*
X230610Y9252D01*
X187204Y33760D02*
Y37106D01*
X395078Y4586D02*
X360955D01*
X360186Y5354D02*
X359645D01*
X360955Y4586D02*
X360186Y5354D01*
X357283Y18481D02*
Y22461D01*
Y18481D02*
X346479Y7677D01*
X274419D01*
X351378Y16535D02*
X283358D01*
X236417Y16240D02*
X235925Y15748D01*
X230118Y16240D02*
Y21654D01*
X230610Y15748D02*
X230118Y16240D01*
X235925Y9174D02*
Y15748D01*
D18*
X389566Y156201D02*
D03*
Y150886D02*
D03*
X394291Y129823D02*
D03*
Y124508D02*
D03*
X358070Y156201D02*
D03*
Y150886D02*
D03*
X327755Y156201D02*
D03*
Y150886D02*
D03*
X379724Y162106D02*
D03*
Y156791D02*
D03*
X384448Y135728D02*
D03*
Y130413D02*
D03*
X348228Y162106D02*
D03*
Y156791D02*
D03*
X317913Y162106D02*
D03*
Y156791D02*
D03*
X399409Y150886D02*
D03*
Y156201D02*
D03*
X404133Y124508D02*
D03*
Y129823D02*
D03*
X367913Y150886D02*
D03*
Y156201D02*
D03*
X337598Y150886D02*
D03*
Y156201D02*
D03*
X393897Y106524D02*
D03*
Y111839D02*
D03*
X238484Y138287D02*
D03*
Y143602D02*
D03*
X210531Y138681D02*
D03*
Y143996D02*
D03*
X238484Y69685D02*
D03*
Y75000D02*
D03*
X210531Y70079D02*
D03*
Y75394D02*
D03*
X238385Y115453D02*
D03*
Y120768D02*
D03*
X210433Y115847D02*
D03*
Y121161D02*
D03*
X286023Y80709D02*
D03*
Y86024D02*
D03*
X258070Y81102D02*
D03*
Y86417D02*
D03*
X286023Y149902D02*
D03*
Y155217D02*
D03*
X258070Y150295D02*
D03*
Y155610D02*
D03*
X286023Y126969D02*
D03*
Y132283D02*
D03*
X258070Y127362D02*
D03*
Y132677D02*
D03*
X238484Y92618D02*
D03*
Y97933D02*
D03*
X210531Y93012D02*
D03*
Y98327D02*
D03*
X286023Y104232D02*
D03*
Y109547D02*
D03*
X258070Y104626D02*
D03*
Y109941D02*
D03*
X282086Y35925D02*
D03*
Y30610D02*
D03*
D20*
X349114Y104705D02*
D03*
Y109705D02*
D03*
Y114705D02*
D03*
Y119705D02*
D03*
X327657Y104705D02*
D03*
Y109705D02*
D03*
Y114705D02*
D03*
Y119705D02*
D03*
X447539Y62185D02*
D03*
Y67185D02*
D03*
Y72185D02*
D03*
Y77185D02*
D03*
X426082Y62185D02*
D03*
Y67185D02*
D03*
Y72185D02*
D03*
Y77185D02*
D03*
X349114Y57854D02*
D03*
Y62854D02*
D03*
Y67854D02*
D03*
Y72854D02*
D03*
X327657Y57854D02*
D03*
Y62854D02*
D03*
Y67854D02*
D03*
Y72854D02*
D03*
D21*
X339960Y97035D02*
D03*
X334645D02*
D03*
X341043Y82677D02*
D03*
X335728D02*
D03*
X409350Y105118D02*
D03*
X414665D02*
D03*
X450885Y114473D02*
D03*
X445570D02*
D03*
Y91639D02*
D03*
X450885D02*
D03*
X416306Y64567D02*
D03*
X410992D02*
D03*
X132185Y47638D02*
D03*
X137499D02*
D03*
X204527Y45669D02*
D03*
X199212D02*
D03*
X180019Y141339D02*
D03*
X174704D02*
D03*
X180019Y157087D02*
D03*
X174704D02*
D03*
X180019Y149213D02*
D03*
X174704D02*
D03*
X196456Y136614D02*
D03*
X191141D02*
D03*
X191076Y152756D02*
D03*
X196391D02*
D03*
Y144488D02*
D03*
X191076D02*
D03*
X158956Y162205D02*
D03*
X164271D02*
D03*
Y146063D02*
D03*
X158956D02*
D03*
X164271Y153937D02*
D03*
X158956D02*
D03*
X221653Y145276D02*
D03*
X226968D02*
D03*
Y137008D02*
D03*
X221653D02*
D03*
Y76673D02*
D03*
X226968D02*
D03*
Y68405D02*
D03*
X221653D02*
D03*
X221555Y122441D02*
D03*
X226870D02*
D03*
Y114173D02*
D03*
X221555D02*
D03*
X269193Y87697D02*
D03*
X274507D02*
D03*
Y79429D02*
D03*
X269193D02*
D03*
Y156890D02*
D03*
X274507D02*
D03*
Y148622D02*
D03*
X269193D02*
D03*
Y133957D02*
D03*
X274507D02*
D03*
Y125689D02*
D03*
X269193D02*
D03*
X221653Y99606D02*
D03*
X226968D02*
D03*
Y91339D02*
D03*
X221653D02*
D03*
X148031Y166535D02*
D03*
X142716D02*
D03*
X148031Y150787D02*
D03*
X142716D02*
D03*
X148031Y158661D02*
D03*
X142716D02*
D03*
X269193Y111221D02*
D03*
X274507D02*
D03*
Y102953D02*
D03*
X269193D02*
D03*
X146948Y38976D02*
D03*
X141633D02*
D03*
X146948Y9449D02*
D03*
X141633D02*
D03*
X146948Y18898D02*
D03*
X141633D02*
D03*
X146948Y28346D02*
D03*
X141633D02*
D03*
X193011Y37795D02*
D03*
X187696D02*
D03*
X235925Y9449D02*
D03*
X230610D02*
D03*
X235925Y15748D02*
D03*
X230610D02*
D03*
D22*
X432874Y105905D02*
D03*
X425000Y102165D02*
D03*
Y109646D02*
D03*
X401771Y94095D02*
D03*
X393897Y90354D02*
D03*
Y97835D02*
D03*
D24*
X134055Y69882D02*
D03*
Y60827D02*
D03*
D26*
X186122Y4921D02*
D03*
D27*
X203543Y37008D02*
D03*
D30*
X175944Y36122D02*
D03*
X170944D02*
D03*
X165944D02*
D03*
X160944D02*
D03*
X155944D02*
D03*
D31*
X165944Y12697D02*
D03*
D56*
X185072Y23310D02*
D03*
Y27542D02*
D03*
X189665D02*
D03*
Y23310D02*
D03*
Y19077D02*
D03*
Y14845D02*
D03*
X185072D02*
D03*
X180479D02*
D03*
Y19077D02*
D03*
X185072D02*
D03*
X180479Y23310D02*
D03*
Y27542D02*
D03*
X200590Y6791D02*
D03*
X204822Y25689D02*
D03*
X269204Y98425D02*
D03*
X287124Y65008D02*
D03*
X279724Y62205D02*
D03*
X293846Y61024D02*
D03*
X236417Y21654D02*
D03*
X339945Y130315D02*
D03*
X247047Y68405D02*
D03*
X250787Y93799D02*
D03*
X283366Y94193D02*
D03*
X341929Y62992D02*
D03*
Y67854D02*
D03*
X335236Y62598D02*
D03*
X290354Y113779D02*
D03*
X297646Y61024D02*
D03*
X301446D02*
D03*
X309046D02*
D03*
X291929Y72834D02*
D03*
X269882Y70079D02*
D03*
X275393Y73622D02*
D03*
X305246Y61024D02*
D03*
X275393Y61811D02*
D03*
X434448Y81890D02*
D03*
X431693Y74016D02*
D03*
X378149Y106299D02*
D03*
X382874Y104911D02*
D03*
X392716Y64961D02*
D03*
X428937Y118898D02*
D03*
X413649Y98260D02*
D03*
Y70965D02*
D03*
X379724Y74016D02*
D03*
X380905Y82896D02*
D03*
X360595Y82677D02*
D03*
X361712Y145276D02*
D03*
Y132579D02*
D03*
X393897Y162106D02*
D03*
X374699Y113686D02*
D03*
X300196Y45276D02*
D03*
X296260Y34252D02*
D03*
X347834Y93701D02*
D03*
X351801Y98425D02*
D03*
X334055Y91339D02*
D03*
X341141Y104911D02*
D03*
X318701Y87795D02*
D03*
X341929Y58268D02*
D03*
X341141Y109843D02*
D03*
Y114567D02*
D03*
X321435Y71653D02*
D03*
X318700Y78740D02*
D03*
X286811Y45669D02*
D03*
X291141Y45945D02*
D03*
X304921Y45669D02*
D03*
X317913Y96457D02*
D03*
X252185Y140157D02*
D03*
X257283Y144882D02*
D03*
X312846Y61024D02*
D03*
X260028Y98808D02*
D03*
X306102Y162205D02*
D03*
X289960Y138976D02*
D03*
X280467Y141732D02*
D03*
X267126Y139764D02*
D03*
X262401Y142126D02*
D03*
X273425Y116535D02*
D03*
X192716Y96457D02*
D03*
X208464Y110236D02*
D03*
X234055Y110630D02*
D03*
X189960Y69291D02*
D03*
X192716Y90158D02*
D03*
X369094Y37402D02*
D03*
X268307Y50000D02*
D03*
X270994Y52687D02*
D03*
X276673Y30610D02*
D03*
X386023D02*
D03*
X324212Y20472D02*
D03*
X199803Y72441D02*
D03*
X193863Y72338D02*
D03*
X273681Y55374D02*
D03*
X185236Y152756D02*
D03*
X153740Y162205D02*
D03*
X253740Y5512D02*
D03*
X215157Y31496D02*
D03*
X395078Y4586D02*
D03*
X359645Y5354D02*
D03*
X357283Y22461D02*
D03*
X351378Y16535D02*
D03*
X274419Y7677D02*
D03*
X283358Y16535D02*
D03*
X230118Y21654D02*
D03*
D57*
X226574Y45871D02*
D03*
X204219Y50984D02*
D03*
X455708Y61516D02*
D03*
X225984Y58760D02*
D03*
X234759Y58472D02*
D03*
X220871Y19882D02*
D03*
X205421Y20374D02*
D03*
X212795Y36562D02*
D03*
X213971Y44287D02*
D03*
X246259Y10873D02*
D03*
X247265Y43801D02*
D03*
X360595Y47934D02*
D03*
X375337Y58857D02*
D03*
X395866Y53150D02*
D03*
X410826Y41732D02*
D03*
Y28265D02*
D03*
Y15748D02*
D03*
Y3543D02*
D03*
D58*
X367951Y143307D02*
D03*
X279626Y88500D02*
D03*
X406004Y164961D02*
D03*
X403615Y138583D02*
D03*
X312696Y144587D02*
D03*
X302854Y119705D02*
D03*
X457283Y84558D02*
D03*
X436614Y112697D02*
D03*
X278839Y107087D02*
D03*
X255276Y120276D02*
D03*
X263722Y157988D02*
D03*
X204527Y156890D02*
D03*
X347244Y83957D02*
D03*
X248130Y77843D02*
D03*
X255905Y76938D02*
D03*
X291936Y104357D02*
D03*
X383172Y144980D02*
D03*
X333366Y144645D02*
D03*
X416732Y81085D02*
D03*
X420669Y68997D02*
D03*
X249507Y134218D02*
D03*
X232874Y146653D02*
D03*
X275196Y98260D02*
D03*
X276574Y35236D02*
D03*
D61*
X123819Y23524D02*
D03*
Y151476D02*
D03*
D62*
X180905Y122933D02*
D03*
Y111122D02*
D03*
Y99311D02*
D03*
Y87500D02*
D03*
Y75689D02*
D03*
Y63878D02*
D03*
Y52067D02*
D03*
X171063Y117028D02*
D03*
Y105217D02*
D03*
Y93405D02*
D03*
Y81595D02*
D03*
Y69784D02*
D03*
Y57972D02*
D03*
X159251Y117028D02*
D03*
Y105217D02*
D03*
Y93405D02*
D03*
Y81595D02*
D03*
Y69784D02*
D03*
Y57972D02*
D03*
X149409Y122933D02*
D03*
Y111122D02*
D03*
Y99311D02*
D03*
Y87500D02*
D03*
Y75689D02*
D03*
Y63878D02*
D03*
Y52067D02*
D03*
D63*
X453936Y102662D02*
D03*
X442519D02*
D03*
D64*
X187204Y33760D02*
X175944D01*
X203543D02*
X187204D01*
X153556Y10125D02*
X149362Y5930D01*
X141633Y18898D02*
Y38976D01*
Y17717D02*
X140649D01*
X170944Y33169D02*
X153556Y15781D01*
Y10125D02*
Y15781D01*
X149409Y99311D02*
Y111122D01*
Y87500D02*
Y99311D01*
Y75689D02*
Y87500D01*
Y63878D02*
Y75689D01*
Y50129D02*
Y52067D01*
X215157Y31496D02*
X211017D01*
X208791Y33722D02*
X203580D01*
X149362Y5930D02*
X139220D01*
X138312Y6838D01*
X140649Y17717D02*
X138312Y15379D01*
Y6838D02*
Y15379D01*
X170944Y33169D02*
Y36122D01*
X149409Y50129D02*
X146948Y47668D01*
Y38976D02*
Y47668D01*
X203580Y33722D02*
X203543Y33760D01*
X211017Y31496D02*
X208791Y33722D01*
M02*
