%TF.GenerationSoftware,Altium Limited,Altium Designer,19.0.15 (446)*%
G04 Layer_Color=2752767*
%FSLAX26Y26*%
%MOIN*%
%TF.FileFunction,Drawing*%
%TF.Part,Single*%
G01*
G75*
%TA.AperFunction,NonConductor*%
%ADD80C,0.005000*%
%ADD81C,0.006667*%
D80*
X1281181Y75275D02*
Y115275D01*
X1321181D01*
Y75275D01*
X1281181D01*
Y225275D02*
Y265276D01*
X1321181D01*
Y225275D01*
X1281181D01*
X3287402Y1209331D02*
X3267402Y1249331D01*
X3307402D01*
X3287402Y1209331D01*
Y1091220D02*
X3267402Y1131220D01*
X3307402D01*
X3287402Y1091220D01*
Y973110D02*
X3267402Y1013110D01*
X3307402D01*
X3287402Y973110D01*
Y855000D02*
X3267402Y895000D01*
X3307402D01*
X3287402Y855000D01*
Y736890D02*
X3267402Y776890D01*
X3307402D01*
X3287402Y736890D01*
Y618779D02*
X3267402Y658779D01*
X3307402D01*
X3287402Y618779D01*
Y500669D02*
X3267402Y540669D01*
X3307402D01*
X3287402Y500669D01*
X3385827Y1150276D02*
X3365827Y1190276D01*
X3405827D01*
X3385827Y1150276D01*
Y1032165D02*
X3365827Y1072165D01*
X3405827D01*
X3385827Y1032165D01*
Y914055D02*
X3365827Y954055D01*
X3405827D01*
X3385827Y914055D01*
Y795945D02*
X3365827Y835945D01*
X3405827D01*
X3385827Y795945D01*
Y677835D02*
X3365827Y717835D01*
X3405827D01*
X3385827Y677835D01*
Y559724D02*
X3365827Y599724D01*
X3405827D01*
X3385827Y559724D01*
X3503937Y1150276D02*
X3483937Y1190276D01*
X3523937D01*
X3503937Y1150276D01*
Y1032165D02*
X3483937Y1072165D01*
X3523937D01*
X3503937Y1032165D01*
Y914055D02*
X3483937Y954055D01*
X3523937D01*
X3503937Y914055D01*
Y795945D02*
X3483937Y835945D01*
X3523937D01*
X3503937Y795945D01*
Y677835D02*
X3483937Y717835D01*
X3523937D01*
X3503937Y677835D01*
Y559724D02*
X3483937Y599724D01*
X3523937D01*
X3503937Y559724D01*
X3602362Y1209331D02*
X3582362Y1249331D01*
X3622362D01*
X3602362Y1209331D01*
Y1091220D02*
X3582362Y1131220D01*
X3622362D01*
X3602362Y1091220D01*
Y973110D02*
X3582362Y1013110D01*
X3622362D01*
X3602362Y973110D01*
Y855000D02*
X3582362Y895000D01*
X3622362D01*
X3602362Y855000D01*
Y736890D02*
X3582362Y776890D01*
X3622362D01*
X3602362Y736890D01*
Y618779D02*
X3582362Y658779D01*
X3622362D01*
X3602362Y618779D01*
Y500669D02*
X3582362Y540669D01*
X3622362D01*
X3602362Y500669D01*
X1984252Y751520D02*
X1994252Y761520D01*
X2004252D01*
X1994252Y771520D01*
X2004252Y781520D01*
X1994252D01*
X1984252Y791520D01*
X1974252Y781520D01*
X1964252D01*
X1974252Y771520D01*
X1964252Y761520D01*
X1974252D01*
X1984252Y751520D01*
X1625984Y644370D02*
X1635984Y654370D01*
X1645984D01*
X1635984Y664370D01*
X1645984Y674370D01*
X1635984D01*
X1625984Y684370D01*
X1615984Y674370D01*
X1605984D01*
X1615984Y664370D01*
X1605984Y654370D01*
X1615984D01*
X1625984Y644370D01*
X1040624Y148037D02*
X1050624Y158037D01*
X1060624D01*
X1050624Y168037D01*
X1060624Y178037D01*
X1050624D01*
X1040624Y188037D01*
X1030624Y178037D01*
X1020624D01*
X1030624Y168037D01*
X1020624Y158037D01*
X1030624D01*
X1040624Y148037D01*
X1133858Y113858D02*
X1143858Y123858D01*
X1153858D01*
X1143858Y133858D01*
X1153858Y143858D01*
X1143858D01*
X1133858Y153858D01*
X1123858Y143858D01*
X1113858D01*
X1123858Y133858D01*
X1113858Y123858D01*
X1123858D01*
X1133858Y113858D01*
X1691493Y1444567D02*
X1701493Y1454567D01*
X1711493D01*
X1701493Y1464567D01*
X1711493Y1474567D01*
X1701493D01*
X1691493Y1484567D01*
X1681493Y1474567D01*
X1671493D01*
X1681493Y1464567D01*
X1671493Y1454567D01*
X1681493D01*
X1691493Y1444567D01*
X1834646Y1116752D02*
X1844646Y1126752D01*
X1854646D01*
X1844646Y1136752D01*
X1854646Y1146752D01*
X1844646D01*
X1834646Y1156752D01*
X1824646Y1146752D01*
X1814646D01*
X1824646Y1136752D01*
X1814646Y1126752D01*
X1824646D01*
X1834646Y1116752D01*
X2026115Y1342205D02*
X2036115Y1352205D01*
X2046115D01*
X2036115Y1362205D01*
X2046115Y1372205D01*
X2036115D01*
X2026115Y1382205D01*
X2016115Y1372205D01*
X2006115D01*
X2016115Y1362205D01*
X2006115Y1352205D01*
X2016115D01*
X2026115Y1342205D01*
X983005Y1188661D02*
X993005Y1198661D01*
X1003005D01*
X993005Y1208661D01*
X1003005Y1218661D01*
X993005D01*
X983005Y1228661D01*
X973005Y1218661D01*
X963005D01*
X973005Y1208661D01*
X963005Y1198661D01*
X973005D01*
X983005Y1188661D01*
X2273622Y1129606D02*
X2283622Y1139606D01*
X2293622D01*
X2283622Y1149606D01*
X2293622Y1159606D01*
X2283622D01*
X2273622Y1169606D01*
X2263622Y1159606D01*
X2253622D01*
X2263622Y1149606D01*
X2253622Y1139606D01*
X2263622D01*
X2273622Y1129606D01*
X1849535Y1452441D02*
X1859535Y1462441D01*
X1869535D01*
X1859535Y1472441D01*
X1869535Y1482441D01*
X1859535D01*
X1849535Y1492441D01*
X1839535Y1482441D01*
X1829535D01*
X1839535Y1472441D01*
X1829535Y1462441D01*
X1839535D01*
X1849535Y1452441D01*
X1247524Y1243112D02*
X1257524Y1253112D01*
X1267524D01*
X1257524Y1263112D01*
X1267524Y1273112D01*
X1257524D01*
X1247524Y1283112D01*
X1237524Y1273112D01*
X1227524D01*
X1237524Y1263112D01*
X1227524Y1253112D01*
X1237524D01*
X1247524Y1243112D01*
X1527559Y1432756D02*
X1537559Y1442756D01*
X1547559D01*
X1537559Y1452756D01*
X1547559Y1462756D01*
X1537559D01*
X1527559Y1472756D01*
X1517559Y1462756D01*
X1507559D01*
X1517559Y1452756D01*
X1507559Y1442756D01*
X1517559D01*
X1527559Y1432756D01*
X1476378Y1234260D02*
X1486378Y1244260D01*
X1496378D01*
X1486378Y1254260D01*
X1496378Y1264260D01*
X1486378D01*
X1476378Y1274260D01*
X1466378Y1264260D01*
X1456378D01*
X1466378Y1254260D01*
X1456378Y1244260D01*
X1466378D01*
X1476378Y1234260D01*
X736221Y1076460D02*
X746221Y1086460D01*
X756221D01*
X746221Y1096460D01*
X756221Y1106460D01*
X746221D01*
X736221Y1116460D01*
X726221Y1106460D01*
X716221D01*
X726221Y1096460D01*
X716221Y1086460D01*
X726221D01*
X736221Y1076460D01*
X661417Y669961D02*
X671417Y679961D01*
X681417D01*
X671417Y689961D01*
X681417Y699961D01*
X671417D01*
X661417Y709961D01*
X651417Y699961D01*
X641417D01*
X651417Y689961D01*
X641417Y679961D01*
X651417D01*
X661417Y669961D01*
X2354331Y1487874D02*
X2364331Y1497874D01*
X2374331D01*
X2364331Y1507874D01*
X2374331Y1517874D01*
X2364331D01*
X2354331Y1527874D01*
X2344331Y1517874D01*
X2334331D01*
X2344331Y1507874D01*
X2334331Y1497874D01*
X2344331D01*
X2354331Y1487874D01*
X2822222Y1442923D02*
X2832222Y1452923D01*
X2842222D01*
X2832222Y1462923D01*
X2842222Y1472923D01*
X2832222D01*
X2822222Y1482923D01*
X2812222Y1472923D01*
X2802222D01*
X2812222Y1462923D01*
X2802222Y1452923D01*
X2812222D01*
X2822222Y1442923D01*
X3638955Y1519370D02*
X3648955Y1529370D01*
X3658955D01*
X3648955Y1539370D01*
X3658955Y1549370D01*
X3648955D01*
X3638955Y1559370D01*
X3628955Y1549370D01*
X3618955D01*
X3628955Y1539370D01*
X3618955Y1529370D01*
X3628955D01*
X3638955Y1519370D01*
X1476378Y1559232D02*
X1486378Y1569232D01*
X1496378D01*
X1486378Y1579232D01*
X1496378Y1589232D01*
X1486378D01*
X1476378Y1599232D01*
X1466378Y1589232D01*
X1456378D01*
X1466378Y1579232D01*
X1456378Y1569232D01*
X1466378D01*
X1476378Y1559232D01*
X1221306Y1487874D02*
X1231306Y1497874D01*
X1241306D01*
X1231306Y1507874D01*
X1241306Y1517874D01*
X1231306D01*
X1221306Y1527874D01*
X1211306Y1517874D01*
X1201306D01*
X1211306Y1507874D01*
X1201306Y1497874D01*
X1211306D01*
X1221306Y1487874D01*
X1158704Y1192598D02*
X1168704Y1202598D01*
X1178704D01*
X1168704Y1212598D01*
X1178704Y1222598D01*
X1168704D01*
X1158704Y1232598D01*
X1148704Y1222598D01*
X1138704D01*
X1148704Y1212598D01*
X1138704Y1202598D01*
X1148704D01*
X1158704Y1192598D01*
X1061012Y1193699D02*
X1071012Y1203699D01*
X1081012D01*
X1071012Y1213699D01*
X1081012Y1223699D01*
X1071012D01*
X1061012Y1233699D01*
X1051012Y1223699D01*
X1041012D01*
X1051012Y1213699D01*
X1041012Y1203699D01*
X1051012D01*
X1061012Y1193699D01*
X653543Y495748D02*
X663543Y505748D01*
X673543D01*
X663543Y515748D01*
X673543Y525748D01*
X663543D01*
X653543Y535748D01*
X643543Y525748D01*
X633543D01*
X643543Y515748D01*
X633543Y505748D01*
X643543D01*
X653543Y495748D01*
X1145669Y649291D02*
X1155669Y659291D01*
X1165669D01*
X1155669Y669291D01*
X1165669Y679291D01*
X1155669D01*
X1145669Y689291D01*
X1135669Y679291D01*
X1125669D01*
X1135669Y669291D01*
X1125669Y659291D01*
X1135669D01*
X1145669Y649291D01*
X1514659Y654328D02*
X1524659Y664328D01*
X1534659D01*
X1524659Y674328D01*
X1534659Y684328D01*
X1524659D01*
X1514659Y694328D01*
X1504659Y684328D01*
X1494659D01*
X1504659Y674328D01*
X1494659Y664328D01*
X1504659D01*
X1514659Y654328D01*
X2275591Y98110D02*
X2285591Y108110D01*
X2295591D01*
X2285591Y118110D01*
X2295591Y128110D01*
X2285591D01*
X2275591Y138110D01*
X2265591Y128110D01*
X2255591D01*
X2265591Y118110D01*
X2255591Y108110D01*
X2265591D01*
X2275591Y98110D01*
X2200787Y339048D02*
X2210787Y349048D01*
X2220787D01*
X2210787Y359048D01*
X2220787Y369048D01*
X2210787D01*
X2200787Y379048D01*
X2190787Y369048D01*
X2180787D01*
X2190787Y359048D01*
X2180787Y349048D01*
X2190787D01*
X2200787Y339048D01*
X2327756Y336299D02*
X2337756Y346299D01*
X2347756D01*
X2337756Y356299D01*
X2347756Y366299D01*
X2337756D01*
X2327756Y376299D01*
X2317756Y366299D01*
X2307756D01*
X2317756Y356299D01*
X2307756Y346299D01*
X2317756D01*
X2327756Y336299D01*
X2118110Y342205D02*
X2128110Y352205D01*
X2138110D01*
X2128110Y362205D01*
X2138110Y372205D01*
X2128110D01*
X2118110Y382205D01*
X2108110Y372205D01*
X2098110D01*
X2108110Y362205D01*
X2098110Y352205D01*
X2108110D01*
X2118110Y342205D01*
X1673228Y658150D02*
X1683228Y668150D01*
X1693228D01*
X1683228Y678150D01*
X1693228Y688150D01*
X1683228D01*
X1673228Y698150D01*
X1663228Y688150D01*
X1653228D01*
X1663228Y678150D01*
X1653228Y668150D01*
X1663228D01*
X1673228Y658150D01*
X1318898Y1440630D02*
X1328898Y1450630D01*
X1338898D01*
X1328898Y1460630D01*
X1338898Y1470630D01*
X1328898D01*
X1318898Y1480630D01*
X1308898Y1470630D01*
X1298898D01*
X1308898Y1460630D01*
X1298898Y1450630D01*
X1308898D01*
X1318898Y1440630D01*
X1031496Y1019370D02*
X1041496Y1029370D01*
X1051496D01*
X1041496Y1039370D01*
X1051496Y1049370D01*
X1041496D01*
X1031496Y1059370D01*
X1021496Y1049370D01*
X1011496D01*
X1021496Y1039370D01*
X1011496Y1029370D01*
X1021496D01*
X1031496Y1019370D01*
X1251968Y1075472D02*
X1261968Y1085472D01*
X1271968D01*
X1261968Y1095472D01*
X1271968Y1105472D01*
X1261968D01*
X1251968Y1115472D01*
X1241968Y1105472D01*
X1231968D01*
X1241968Y1095472D01*
X1231968Y1085472D01*
X1241968D01*
X1251968Y1075472D01*
X1051658Y1102047D02*
X1061658Y1112047D01*
X1071658D01*
X1061658Y1122047D01*
X1071658Y1132047D01*
X1061658D01*
X1051658Y1142047D01*
X1041658Y1132047D01*
X1031658D01*
X1041658Y1122047D01*
X1031658Y1112047D01*
X1041658D01*
X1051658Y1102047D01*
X1055118Y645354D02*
X1065118Y655354D01*
X1075118D01*
X1065118Y665354D01*
X1075118Y675354D01*
X1065118D01*
X1055118Y685354D01*
X1045118Y675354D01*
X1035118D01*
X1045118Y665354D01*
X1035118Y655354D01*
X1045118D01*
X1055118Y645354D01*
X1389764Y878622D02*
X1399764Y888622D01*
X1409764D01*
X1399764Y898622D01*
X1409764Y908622D01*
X1399764D01*
X1389764Y918622D01*
X1379764Y908622D01*
X1369764D01*
X1379764Y898622D01*
X1369764Y888622D01*
X1379764D01*
X1389764Y878622D01*
X1388780Y1009528D02*
X1398780Y1019528D01*
X1408780D01*
X1398780Y1029528D01*
X1408780Y1039528D01*
X1398780D01*
X1388780Y1049528D01*
X1378780Y1039528D01*
X1368780D01*
X1378780Y1029528D01*
X1368780Y1019528D01*
X1378780D01*
X1388780Y1009528D01*
X2197835Y657165D02*
X2207835Y667165D01*
X2217835D01*
X2207835Y677165D01*
X2217835Y687165D01*
X2207835D01*
X2197835Y697165D01*
X2187835Y687165D01*
X2177835D01*
X2187835Y677165D01*
X2177835Y667165D01*
X2187835D01*
X2197835Y657165D01*
X2271653Y963268D02*
X2281653Y973268D01*
X2291653D01*
X2281653Y983268D01*
X2291653Y993268D01*
X2281653D01*
X2271653Y1003268D01*
X2261653Y993268D01*
X2251653D01*
X2261653Y983268D01*
X2251653Y973268D01*
X2261653D01*
X2271653Y963268D01*
X2243110Y866811D02*
X2253110Y876811D01*
X2263110D01*
X2253110Y886811D01*
X2263110Y896811D01*
X2253110D01*
X2243110Y906811D01*
X2233110Y896811D01*
X2223110D01*
X2233110Y886811D01*
X2223110Y876811D01*
X2233110D01*
X2243110Y866811D01*
X1780512Y1147323D02*
X1790512Y1157323D01*
X1800512D01*
X1790512Y1167323D01*
X1800512Y1177323D01*
X1790512D01*
X1780512Y1187323D01*
X1770512Y1177323D01*
X1760512D01*
X1770512Y1167323D01*
X1760512Y1157323D01*
X1770512D01*
X1780512Y1147323D01*
X1752512Y1099094D02*
X1762512Y1109094D01*
X1772512D01*
X1762512Y1119094D01*
X1772512Y1129094D01*
X1762512D01*
X1752512Y1139094D01*
X1742512Y1129094D01*
X1732512D01*
X1742512Y1119094D01*
X1732512Y1109094D01*
X1742512D01*
X1752512Y1099094D01*
X1562008Y921929D02*
X1572008Y931929D01*
X1582008D01*
X1572008Y941929D01*
X1582008Y951929D01*
X1572008D01*
X1562008Y961929D01*
X1552008Y951929D01*
X1542008D01*
X1552008Y941929D01*
X1542008Y931929D01*
X1552008D01*
X1562008Y921929D01*
Y972126D02*
X1572008Y982126D01*
X1582008D01*
X1572008Y992126D01*
X1582008Y1002126D01*
X1572008D01*
X1562008Y1012126D01*
X1552008Y1002126D01*
X1542008D01*
X1552008Y992126D01*
X1542008Y982126D01*
X1552008D01*
X1562008Y972126D01*
X1533465Y1087284D02*
X1543465Y1097284D01*
X1553465D01*
X1543465Y1107284D01*
X1553465Y1117284D01*
X1543465D01*
X1533465Y1127284D01*
X1523465Y1117284D01*
X1513465D01*
X1523465Y1107284D01*
X1513465Y1097284D01*
X1523465D01*
X1533465Y1087284D01*
X1599409Y1056772D02*
X1609409Y1066772D01*
X1619409D01*
X1609409Y1076772D01*
X1619409Y1086772D01*
X1609409D01*
X1599409Y1096772D01*
X1589409Y1086772D01*
X1579409D01*
X1589409Y1076772D01*
X1579409Y1066772D01*
X1589409D01*
X1599409Y1056772D01*
X2018701Y718189D02*
X2028701Y728189D01*
X2038701D01*
X2028701Y738189D01*
X2038701Y748189D01*
X2028701D01*
X2018701Y758189D01*
X2008701Y748189D01*
X1998701D01*
X2008701Y738189D01*
X1998701Y728189D01*
X2008701D01*
X2018701Y718189D01*
X1875000Y1022323D02*
X1885000Y1032323D01*
X1895000D01*
X1885000Y1042323D01*
X1895000Y1052323D01*
X1885000D01*
X1875000Y1062323D01*
X1865000Y1052323D01*
X1855000D01*
X1865000Y1042323D01*
X1855000Y1032323D01*
X1865000D01*
X1875000Y1022323D01*
Y1075472D02*
X1885000Y1085472D01*
X1895000D01*
X1885000Y1095472D01*
X1895000Y1105472D01*
X1885000D01*
X1875000Y1115472D01*
X1865000Y1105472D01*
X1855000D01*
X1865000Y1095472D01*
X1855000Y1085472D01*
X1865000D01*
X1875000Y1075472D01*
X2254528Y1414449D02*
X2264528Y1424449D01*
X2274528D01*
X2264528Y1434449D01*
X2274528Y1444449D01*
X2264528D01*
X2254528Y1454449D01*
X2244528Y1444449D01*
X2234528D01*
X2244528Y1434449D01*
X2234528Y1424449D01*
X2244528D01*
X2254528Y1414449D01*
X2238780Y1364449D02*
X2248780Y1374449D01*
X2258780D01*
X2248780Y1384449D01*
X2258780Y1394449D01*
X2248780D01*
X2238780Y1404449D01*
X2228780Y1394449D01*
X2218780D01*
X2228780Y1384449D01*
X2218780Y1374449D01*
X2228780D01*
X2238780Y1364449D01*
X2112533Y657165D02*
X2122533Y667165D01*
X2132533D01*
X2122533Y677165D01*
X2132533Y687165D01*
X2122533D01*
X2112533Y697165D01*
X2102533Y687165D01*
X2092533D01*
X2102533Y677165D01*
X2092533Y667165D01*
X2102533D01*
X2112533Y657165D01*
X2069882D02*
X2079882Y667165D01*
X2089882D01*
X2079882Y677165D01*
X2089882Y687165D01*
X2079882D01*
X2069882Y697165D01*
X2059882Y687165D01*
X2049882D01*
X2059882Y677165D01*
X2049882Y667165D01*
X2059882D01*
X2069882Y657165D01*
X2155184D02*
X2165184Y667165D01*
X2175184D01*
X2165184Y677165D01*
X2175184Y687165D01*
X2165184D01*
X2155184Y697165D01*
X2145184Y687165D01*
X2135184D01*
X2145184Y677165D01*
X2135184Y667165D01*
X2145184D01*
X2155184Y657165D01*
X2019685Y834331D02*
X2029685Y844331D01*
X2039685D01*
X2029685Y854331D01*
X2039685Y864331D01*
X2029685D01*
X2019685Y874331D01*
X2009685Y864331D01*
X1999685D01*
X2009685Y854331D01*
X1999685Y844331D01*
X2009685D01*
X2019685Y834331D01*
X2098425Y1612382D02*
X2108425Y1622382D01*
X2118425D01*
X2108425Y1632382D01*
X2118425Y1642382D01*
X2108425D01*
X2098425Y1652382D01*
X2088425Y1642382D01*
X2078425D01*
X2088425Y1632382D01*
X2078425Y1622382D01*
X2088425D01*
X2098425Y1612382D01*
X2062992Y1503622D02*
X2072992Y1513622D01*
X2082992D01*
X2072992Y1523622D01*
X2082992Y1533622D01*
X2072992D01*
X2062992Y1543622D01*
X2052992Y1533622D01*
X2042992D01*
X2052992Y1523622D01*
X2042992Y1513622D01*
X2052992D01*
X2062992Y1503622D01*
X2039370Y1141417D02*
X2049370Y1151417D01*
X2059370D01*
X2049370Y1161417D01*
X2059370Y1171417D01*
X2049370D01*
X2039370Y1181417D01*
X2029370Y1171417D01*
X2019370D01*
X2029370Y1161417D01*
X2019370Y1151417D01*
X2029370D01*
X2039370Y1141417D01*
X2082677Y1164449D02*
X2092677Y1174449D01*
X2102677D01*
X2092677Y1184449D01*
X2102677Y1194449D01*
X2092677D01*
X2082677Y1204449D01*
X2072677Y1194449D01*
X2062677D01*
X2072677Y1184449D01*
X2062677Y1174449D01*
X2072677D01*
X2082677Y1164449D01*
X2019685Y1261988D02*
X2029685Y1271988D01*
X2039685D01*
X2029685Y1281988D01*
X2039685Y1291988D01*
X2029685D01*
X2019685Y1301988D01*
X2009685Y1291988D01*
X1999685D01*
X2009685Y1281988D01*
X1999685Y1271988D01*
X2009685D01*
X2019685Y1261988D01*
X2360236Y434724D02*
X2370236Y444724D01*
X2380236D01*
X2370236Y454724D01*
X2380236Y464724D01*
X2370236D01*
X2360236Y474724D01*
X2350236Y464724D01*
X2340236D01*
X2350236Y454724D01*
X2340236Y444724D01*
X2350236D01*
X2360236Y434724D01*
X2185925Y402342D02*
X2195925Y412342D01*
X2205925D01*
X2195925Y422342D01*
X2205925Y432342D01*
X2195925D01*
X2185925Y442342D01*
X2175925Y432342D01*
X2165925D01*
X2175925Y422342D01*
X2165925Y412342D01*
X2175925D01*
X2185925Y402342D01*
X2159055Y429213D02*
X2169055Y439213D01*
X2179055D01*
X2169055Y449213D01*
X2179055Y459213D01*
X2169055D01*
X2159055Y469213D01*
X2149055Y459213D01*
X2139055D01*
X2149055Y449213D01*
X2139055Y439213D01*
X2149055D01*
X2159055Y429213D01*
X2132185Y456083D02*
X2142185Y466083D01*
X2152185D01*
X2142185Y476083D01*
X2152185Y486083D01*
X2142185D01*
X2132185Y496083D01*
X2122185Y486083D01*
X2112185D01*
X2122185Y476083D01*
X2112185Y466083D01*
X2122185D01*
X2132185Y456083D01*
X2105315Y482953D02*
X2115315Y492953D01*
X2125315D01*
X2115315Y502953D01*
X2125315Y512953D01*
X2115315D01*
X2105315Y522953D01*
X2095315Y512953D01*
X2085315D01*
X2095315Y502953D01*
X2085315Y492953D01*
X2095315D01*
X2105315Y482953D01*
X2085630Y297913D02*
X2095630Y307913D01*
X2105630D01*
X2095630Y317913D01*
X2105630Y327913D01*
X2095630D01*
X2085630Y337913D01*
X2075630Y327913D01*
X2065630D01*
X2075630Y317913D01*
X2065630Y307913D01*
X2075630D01*
X2085630Y297913D01*
X3212598Y604016D02*
X3222598Y614016D01*
X3232598D01*
X3222598Y624016D01*
X3232598Y634016D01*
X3222598D01*
X3212598Y644016D01*
X3202598Y634016D01*
X3192598D01*
X3202598Y624016D01*
X3192598Y614016D01*
X3202598D01*
X3212598Y604016D01*
X3291339Y356969D02*
X3301339Y366969D01*
X3311339D01*
X3301339Y376969D01*
X3311339Y386969D01*
X3301339D01*
X3291339Y396969D01*
X3281339Y386969D01*
X3271339D01*
X3281339Y376969D01*
X3271339Y366969D01*
X3281339D01*
X3291339Y356969D01*
X3940962Y462284D02*
X3950962Y472284D01*
X3960962D01*
X3950962Y482284D01*
X3960962Y492284D01*
X3950962D01*
X3940962Y502284D01*
X3930962Y492284D01*
X3920962D01*
X3930962Y482284D01*
X3920962Y472284D01*
X3930962D01*
X3940962Y462284D01*
X3921277Y422914D02*
X3931277Y432914D01*
X3941277D01*
X3931277Y442914D01*
X3941277Y452914D01*
X3931277D01*
X3921277Y462914D01*
X3911277Y452914D01*
X3901277D01*
X3911277Y442914D01*
X3901277Y432914D01*
X3911277D01*
X3921277Y422914D01*
X3940962Y383544D02*
X3950962Y393544D01*
X3960962D01*
X3950962Y403544D01*
X3960962Y413544D01*
X3950962D01*
X3940962Y423544D01*
X3930962Y413544D01*
X3920962D01*
X3930962Y403544D01*
X3920962Y393544D01*
X3930962D01*
X3940962Y383544D01*
X3921277Y344174D02*
X3931277Y354174D01*
X3941277D01*
X3931277Y364174D01*
X3941277Y374174D01*
X3931277D01*
X3921277Y384174D01*
X3911277Y374174D01*
X3901277D01*
X3911277Y364174D01*
X3901277Y354174D01*
X3911277D01*
X3921277Y344174D01*
X3901592Y462284D02*
X3911592Y472284D01*
X3921592D01*
X3911592Y482284D01*
X3921592Y492284D01*
X3911592D01*
X3901592Y502284D01*
X3891592Y492284D01*
X3881592D01*
X3891592Y482284D01*
X3881592Y472284D01*
X3891592D01*
X3901592Y462284D01*
X3881907Y422914D02*
X3891907Y432914D01*
X3901907D01*
X3891907Y442914D01*
X3901907Y452914D01*
X3891907D01*
X3881907Y462914D01*
X3871907Y452914D01*
X3861907D01*
X3871907Y442914D01*
X3861907Y432914D01*
X3871907D01*
X3881907Y422914D01*
X3901592Y383544D02*
X3911592Y393544D01*
X3921592D01*
X3911592Y403544D01*
X3921592Y413544D01*
X3911592D01*
X3901592Y423544D01*
X3891592Y413544D01*
X3881592D01*
X3891592Y403544D01*
X3881592Y393544D01*
X3891592D01*
X3901592Y383544D01*
X3881907Y344174D02*
X3891907Y354174D01*
X3901907D01*
X3891907Y364174D01*
X3901907Y374174D01*
X3891907D01*
X3881907Y384174D01*
X3871907Y374174D01*
X3861907D01*
X3871907Y364174D01*
X3861907Y354174D01*
X3871907D01*
X3881907Y344174D01*
X3862222Y462284D02*
X3872222Y472284D01*
X3882222D01*
X3872222Y482284D01*
X3882222Y492284D01*
X3872222D01*
X3862222Y502284D01*
X3852222Y492284D01*
X3842222D01*
X3852222Y482284D01*
X3842222Y472284D01*
X3852222D01*
X3862222Y462284D01*
X3842537Y422914D02*
X3852537Y432914D01*
X3862537D01*
X3852537Y442914D01*
X3862537Y452914D01*
X3852537D01*
X3842537Y462914D01*
X3832537Y452914D01*
X3822537D01*
X3832537Y442914D01*
X3822537Y432914D01*
X3832537D01*
X3842537Y422914D01*
X3862222Y383544D02*
X3872222Y393544D01*
X3882222D01*
X3872222Y403544D01*
X3882222Y413544D01*
X3872222D01*
X3862222Y423544D01*
X3852222Y413544D01*
X3842222D01*
X3852222Y403544D01*
X3842222Y393544D01*
X3852222D01*
X3862222Y383544D01*
X3842537Y344174D02*
X3852537Y354174D01*
X3862537D01*
X3852537Y364174D01*
X3862537Y374174D01*
X3852537D01*
X3842537Y384174D01*
X3832537Y374174D01*
X3822537D01*
X3832537Y364174D01*
X3822537Y354174D01*
X3832537D01*
X3842537Y344174D01*
X3822852Y462284D02*
X3832852Y472284D01*
X3842852D01*
X3832852Y482284D01*
X3842852Y492284D01*
X3832852D01*
X3822852Y502284D01*
X3812852Y492284D01*
X3802852D01*
X3812852Y482284D01*
X3802852Y472284D01*
X3812852D01*
X3822852Y462284D01*
X3803167Y422914D02*
X3813167Y432914D01*
X3823167D01*
X3813167Y442914D01*
X3823167Y452914D01*
X3813167D01*
X3803167Y462914D01*
X3793167Y452914D01*
X3783167D01*
X3793167Y442914D01*
X3783167Y432914D01*
X3793167D01*
X3803167Y422914D01*
X3822852Y383544D02*
X3832852Y393544D01*
X3842852D01*
X3832852Y403544D01*
X3842852Y413544D01*
X3832852D01*
X3822852Y423544D01*
X3812852Y413544D01*
X3802852D01*
X3812852Y403544D01*
X3802852Y393544D01*
X3812852D01*
X3822852Y383544D01*
X3803167Y344174D02*
X3813167Y354174D01*
X3823167D01*
X3813167Y364174D01*
X3823167Y374174D01*
X3813167D01*
X3803167Y384174D01*
X3793167Y374174D01*
X3783167D01*
X3793167Y364174D01*
X3783167Y354174D01*
X3793167D01*
X3803167Y344174D01*
X3783482Y462284D02*
X3793482Y472284D01*
X3803482D01*
X3793482Y482284D01*
X3803482Y492284D01*
X3793482D01*
X3783482Y502284D01*
X3773482Y492284D01*
X3763482D01*
X3773482Y482284D01*
X3763482Y472284D01*
X3773482D01*
X3783482Y462284D01*
X3763797Y422914D02*
X3773797Y432914D01*
X3783797D01*
X3773797Y442914D01*
X3783797Y452914D01*
X3773797D01*
X3763797Y462914D01*
X3753797Y452914D01*
X3743797D01*
X3753797Y442914D01*
X3743797Y432914D01*
X3753797D01*
X3763797Y422914D01*
X3783482Y383544D02*
X3793482Y393544D01*
X3803482D01*
X3793482Y403544D01*
X3803482Y413544D01*
X3793482D01*
X3783482Y423544D01*
X3773482Y413544D01*
X3763482D01*
X3773482Y403544D01*
X3763482Y393544D01*
X3773482D01*
X3783482Y383544D01*
X3763797Y344174D02*
X3773797Y354174D01*
X3783797D01*
X3773797Y364174D01*
X3783797Y374174D01*
X3773797D01*
X3763797Y384174D01*
X3753797Y374174D01*
X3743797D01*
X3753797Y364174D01*
X3743797Y354174D01*
X3753797D01*
X3763797Y344174D01*
X3744111Y462284D02*
X3754111Y472284D01*
X3764111D01*
X3754111Y482284D01*
X3764111Y492284D01*
X3754111D01*
X3744111Y502284D01*
X3734111Y492284D01*
X3724111D01*
X3734111Y482284D01*
X3724111Y472284D01*
X3734111D01*
X3744111Y462284D01*
X3724427Y422914D02*
X3734427Y432914D01*
X3744427D01*
X3734427Y442914D01*
X3744427Y452914D01*
X3734427D01*
X3724427Y462914D01*
X3714427Y452914D01*
X3704427D01*
X3714427Y442914D01*
X3704427Y432914D01*
X3714427D01*
X3724427Y422914D01*
X3744111Y383544D02*
X3754111Y393544D01*
X3764111D01*
X3754111Y403544D01*
X3764111Y413544D01*
X3754111D01*
X3744111Y423544D01*
X3734111Y413544D01*
X3724111D01*
X3734111Y403544D01*
X3724111Y393544D01*
X3734111D01*
X3744111Y383544D01*
X3724427Y344174D02*
X3734427Y354174D01*
X3744427D01*
X3734427Y364174D01*
X3744427Y374174D01*
X3734427D01*
X3724427Y384174D01*
X3714427Y374174D01*
X3704427D01*
X3714427Y364174D01*
X3704427Y354174D01*
X3714427D01*
X3724427Y344174D01*
D81*
X3878268Y235236D02*
G03*
X3878268Y235236I-20000J0D01*
G01*
Y1514764D02*
G03*
X3878268Y1514764I-20000J0D01*
G01*
%TF.MD5,c0700bd06579126e87c729e5e5c7db34*%
M02*
