G04*
G04 #@! TF.GenerationSoftware,Altium Limited,Altium Designer,19.0.10 (269)*
G04*
G04 Layer_Color=16711935*
%FSLAX25Y25*%
%MOIN*%
G70*
G01*
G75*
%ADD37R,0.04737X0.04343*%
%ADD39O,0.06509X0.03162*%
%ADD40R,0.04343X0.04737*%
%ADD41R,0.04343X0.03950*%
%ADD43R,0.05918X0.05131*%
%ADD45R,0.08871X0.05328*%
%ADD46R,0.05328X0.08871*%
%ADD49R,0.03162X0.09068*%
%ADD50R,0.13398X0.09068*%
%ADD54C,0.13792*%
%ADD55C,0.09461*%
%ADD56C,0.03000*%
%ADD57C,0.02165*%
%ADD58C,0.02362*%
%ADD65R,0.05918X0.07887*%
G36*
X178444Y28979D02*
Y12992D01*
X191535D01*
X191535Y29327D01*
X178798Y29332D01*
X178444Y28979D01*
D02*
G37*
D37*
X389566Y156201D02*
D03*
Y150886D02*
D03*
X394291Y129823D02*
D03*
Y124508D02*
D03*
X358070Y156201D02*
D03*
Y150886D02*
D03*
X327755Y156201D02*
D03*
Y150886D02*
D03*
X379724Y162106D02*
D03*
Y156791D02*
D03*
X384448Y135728D02*
D03*
Y130413D02*
D03*
X348228Y162106D02*
D03*
Y156791D02*
D03*
X317913Y162106D02*
D03*
Y156791D02*
D03*
X399409Y150886D02*
D03*
Y156201D02*
D03*
X404133Y124508D02*
D03*
Y129823D02*
D03*
X367913Y150886D02*
D03*
Y156201D02*
D03*
X337598Y150886D02*
D03*
Y156201D02*
D03*
X393897Y106524D02*
D03*
Y111839D02*
D03*
X238484Y138287D02*
D03*
Y143602D02*
D03*
X210531Y138681D02*
D03*
Y143996D02*
D03*
X238484Y69685D02*
D03*
Y75000D02*
D03*
X210531Y70079D02*
D03*
Y75394D02*
D03*
X238385Y115453D02*
D03*
Y120768D02*
D03*
X210433Y115847D02*
D03*
Y121161D02*
D03*
X286023Y80709D02*
D03*
Y86024D02*
D03*
X258070Y81102D02*
D03*
Y86417D02*
D03*
X286023Y149902D02*
D03*
Y155217D02*
D03*
X258070Y150295D02*
D03*
Y155610D02*
D03*
X286023Y126969D02*
D03*
Y132283D02*
D03*
X258070Y127362D02*
D03*
Y132677D02*
D03*
X238484Y92618D02*
D03*
Y97933D02*
D03*
X210531Y93012D02*
D03*
Y98327D02*
D03*
X286023Y104232D02*
D03*
Y109547D02*
D03*
X258070Y104626D02*
D03*
Y109941D02*
D03*
X282086Y35925D02*
D03*
Y30610D02*
D03*
D39*
X349114Y104705D02*
D03*
Y109705D02*
D03*
Y114705D02*
D03*
Y119705D02*
D03*
X327657Y104705D02*
D03*
Y109705D02*
D03*
Y114705D02*
D03*
Y119705D02*
D03*
X447539Y62185D02*
D03*
Y67185D02*
D03*
Y72185D02*
D03*
Y77185D02*
D03*
X426082Y62185D02*
D03*
Y67185D02*
D03*
Y72185D02*
D03*
Y77185D02*
D03*
X349114Y57854D02*
D03*
Y62854D02*
D03*
Y67854D02*
D03*
Y72854D02*
D03*
X327657Y57854D02*
D03*
Y62854D02*
D03*
Y67854D02*
D03*
Y72854D02*
D03*
D40*
X339960Y97035D02*
D03*
X334645D02*
D03*
X341043Y82677D02*
D03*
X335728D02*
D03*
X409350Y105118D02*
D03*
X414665D02*
D03*
X450885Y114473D02*
D03*
X445570D02*
D03*
Y91639D02*
D03*
X450885D02*
D03*
X416306Y64567D02*
D03*
X410992D02*
D03*
X132185Y47638D02*
D03*
X137499D02*
D03*
X204527Y45669D02*
D03*
X199212D02*
D03*
X180019Y141339D02*
D03*
X174704D02*
D03*
X180019Y157087D02*
D03*
X174704D02*
D03*
X180019Y149213D02*
D03*
X174704D02*
D03*
X196456Y136614D02*
D03*
X191141D02*
D03*
X191076Y152756D02*
D03*
X196391D02*
D03*
Y144488D02*
D03*
X191076D02*
D03*
X158956Y162205D02*
D03*
X164271D02*
D03*
Y146063D02*
D03*
X158956D02*
D03*
X164271Y153937D02*
D03*
X158956D02*
D03*
X221653Y145276D02*
D03*
X226968D02*
D03*
Y137008D02*
D03*
X221653D02*
D03*
Y76673D02*
D03*
X226968D02*
D03*
Y68405D02*
D03*
X221653D02*
D03*
X221555Y122441D02*
D03*
X226870D02*
D03*
Y114173D02*
D03*
X221555D02*
D03*
X269193Y87697D02*
D03*
X274507D02*
D03*
Y79429D02*
D03*
X269193D02*
D03*
Y156890D02*
D03*
X274507D02*
D03*
Y148622D02*
D03*
X269193D02*
D03*
Y133957D02*
D03*
X274507D02*
D03*
Y125689D02*
D03*
X269193D02*
D03*
X221653Y99606D02*
D03*
X226968D02*
D03*
Y91339D02*
D03*
X221653D02*
D03*
X148031Y166535D02*
D03*
X142716D02*
D03*
X148031Y150787D02*
D03*
X142716D02*
D03*
X148031Y158661D02*
D03*
X142716D02*
D03*
X269193Y111221D02*
D03*
X274507D02*
D03*
Y102953D02*
D03*
X269193D02*
D03*
X146948Y38976D02*
D03*
X141633D02*
D03*
X146948Y9449D02*
D03*
X141633D02*
D03*
X146948Y18898D02*
D03*
X141633D02*
D03*
X146948Y28346D02*
D03*
X141633D02*
D03*
X193011Y37795D02*
D03*
X187696D02*
D03*
X235925Y9449D02*
D03*
X230610D02*
D03*
X235925Y15748D02*
D03*
X230610D02*
D03*
D41*
X432874Y105905D02*
D03*
X425000Y102165D02*
D03*
Y109646D02*
D03*
X401771Y94095D02*
D03*
X393897Y90354D02*
D03*
Y97835D02*
D03*
D43*
X134055Y69882D02*
D03*
Y60827D02*
D03*
D45*
X186122Y4921D02*
D03*
D46*
X203543Y37008D02*
D03*
D49*
X175944Y36122D02*
D03*
X170944D02*
D03*
X165944D02*
D03*
X160944D02*
D03*
X155944D02*
D03*
D50*
X165944Y12697D02*
D03*
D54*
X123819Y23524D02*
D03*
Y151476D02*
D03*
D55*
X180905Y122933D02*
D03*
Y111122D02*
D03*
Y99311D02*
D03*
Y87500D02*
D03*
Y75689D02*
D03*
Y63878D02*
D03*
Y52067D02*
D03*
X171063Y117028D02*
D03*
Y105217D02*
D03*
Y93405D02*
D03*
Y81595D02*
D03*
Y69784D02*
D03*
Y57972D02*
D03*
X159251Y117028D02*
D03*
Y105217D02*
D03*
Y93405D02*
D03*
Y81595D02*
D03*
Y69784D02*
D03*
Y57972D02*
D03*
X149409Y122933D02*
D03*
Y111122D02*
D03*
Y99311D02*
D03*
Y87500D02*
D03*
Y75689D02*
D03*
Y63878D02*
D03*
Y52067D02*
D03*
D56*
X185072Y23310D02*
D03*
Y27542D02*
D03*
X189665D02*
D03*
Y23310D02*
D03*
Y19077D02*
D03*
Y14845D02*
D03*
X185072D02*
D03*
X180479D02*
D03*
Y19077D02*
D03*
X185072D02*
D03*
X180479Y23310D02*
D03*
Y27542D02*
D03*
X200590Y6791D02*
D03*
X204822Y25689D02*
D03*
X269204Y98425D02*
D03*
X287124Y65008D02*
D03*
X279724Y62205D02*
D03*
X293846Y61024D02*
D03*
X236417Y21654D02*
D03*
X339945Y130315D02*
D03*
X247047Y68405D02*
D03*
X250787Y93799D02*
D03*
X283366Y94193D02*
D03*
X341929Y62992D02*
D03*
Y67854D02*
D03*
X335236Y62598D02*
D03*
X290354Y113779D02*
D03*
X297646Y61024D02*
D03*
X301446D02*
D03*
X309046D02*
D03*
X291929Y72834D02*
D03*
X269882Y70079D02*
D03*
X275393Y73622D02*
D03*
X305246Y61024D02*
D03*
X275393Y61811D02*
D03*
X434448Y81890D02*
D03*
X431693Y74016D02*
D03*
X378149Y106299D02*
D03*
X382874Y104911D02*
D03*
X392716Y64961D02*
D03*
X428937Y118898D02*
D03*
X413649Y98260D02*
D03*
Y70965D02*
D03*
X379724Y74016D02*
D03*
X380905Y82896D02*
D03*
X360595Y82677D02*
D03*
X361712Y145276D02*
D03*
Y132579D02*
D03*
X393897Y162106D02*
D03*
X374699Y113686D02*
D03*
X300196Y45276D02*
D03*
X296260Y34252D02*
D03*
X347834Y93701D02*
D03*
X351801Y98425D02*
D03*
X334055Y91339D02*
D03*
X341141Y104911D02*
D03*
X318701Y87795D02*
D03*
X341929Y58268D02*
D03*
X341141Y109843D02*
D03*
Y114567D02*
D03*
X321435Y71653D02*
D03*
X318700Y78740D02*
D03*
X286811Y45669D02*
D03*
X291141Y45945D02*
D03*
X304921Y45669D02*
D03*
X317913Y96457D02*
D03*
X252185Y140157D02*
D03*
X257283Y144882D02*
D03*
X312846Y61024D02*
D03*
X260028Y98808D02*
D03*
X306102Y162205D02*
D03*
X289960Y138976D02*
D03*
X280467Y141732D02*
D03*
X267126Y139764D02*
D03*
X262401Y142126D02*
D03*
X273425Y116535D02*
D03*
X192716Y96457D02*
D03*
X208464Y110236D02*
D03*
X234055Y110630D02*
D03*
X189960Y69291D02*
D03*
X192716Y90158D02*
D03*
X369094Y37402D02*
D03*
X268307Y50000D02*
D03*
X270994Y52687D02*
D03*
X276673Y30610D02*
D03*
X386023D02*
D03*
X324212Y20472D02*
D03*
X199803Y72441D02*
D03*
X193863Y72338D02*
D03*
X273681Y55374D02*
D03*
X185236Y152756D02*
D03*
X153740Y162205D02*
D03*
X253740Y5512D02*
D03*
X215157Y31496D02*
D03*
X395078Y4586D02*
D03*
X359645Y5354D02*
D03*
X357283Y22461D02*
D03*
X351378Y16535D02*
D03*
X274419Y7677D02*
D03*
X283358Y16535D02*
D03*
X230118Y21654D02*
D03*
D57*
X226574Y45871D02*
D03*
X204219Y50984D02*
D03*
X455708Y61516D02*
D03*
X225984Y58760D02*
D03*
X234759Y58472D02*
D03*
X220871Y19882D02*
D03*
X205421Y20374D02*
D03*
X212795Y36562D02*
D03*
X213971Y44287D02*
D03*
X246259Y10873D02*
D03*
X247265Y43801D02*
D03*
X360595Y47934D02*
D03*
X375337Y58857D02*
D03*
X395866Y53150D02*
D03*
X410826Y41732D02*
D03*
Y28265D02*
D03*
Y15748D02*
D03*
Y3543D02*
D03*
D58*
X367951Y143307D02*
D03*
X279626Y88500D02*
D03*
X406004Y164961D02*
D03*
X403615Y138583D02*
D03*
X312696Y144587D02*
D03*
X302854Y119705D02*
D03*
X457283Y84558D02*
D03*
X436614Y112697D02*
D03*
X278839Y107087D02*
D03*
X255276Y120276D02*
D03*
X263722Y157988D02*
D03*
X204527Y156890D02*
D03*
X347244Y83957D02*
D03*
X248130Y77843D02*
D03*
X255905Y76938D02*
D03*
X291936Y104357D02*
D03*
X383172Y144980D02*
D03*
X333366Y144645D02*
D03*
X416732Y81085D02*
D03*
X420669Y68997D02*
D03*
X249507Y134218D02*
D03*
X232874Y146653D02*
D03*
X275196Y98260D02*
D03*
X276574Y35236D02*
D03*
D65*
X453936Y102662D02*
D03*
X442519D02*
D03*
M02*
