%FSLAX23Y23*%
%MOIN*%
%SFA1B1*%

%IPPOS*%
%AMD17*
4,1,8,0.049200,0.098400,-0.049200,0.098400,-0.098400,0.049200,-0.098400,-0.049200,-0.049200,-0.098400,0.049200,-0.098400,0.098400,-0.049200,0.098400,0.049200,0.049200,0.098400,0.0*
1,1,0.098420,0.049200,0.049200*
1,1,0.098420,-0.049200,0.049200*
1,1,0.098420,-0.049200,-0.049200*
1,1,0.098420,0.049200,-0.049200*
%
%ADD13C,0.010000*%
%ADD14R,0.039370X0.057090*%
%ADD15R,0.043310X0.019680*%
%ADD16R,0.037400X0.033470*%
G04~CAMADD=17~8~0.0~0.0~1968.5~1968.5~492.1~0.0~15~0.0~0.0~0.0~0.0~0~0.0~0.0~0.0~0.0~0~0.0~0.0~0.0~0.0~1968.5~1968.5*
%ADD17D17*%
%ADD25C,0.019680*%
%ADD26C,0.051180*%
%ADD27C,0.062990*%
%ADD28C,0.022840*%
%LNbms_sub-1*%
%LPD*%
G54D13*
X3670Y1353D02*
X3886Y1569D01*
X3670Y1093D02*
X3908Y855D01*
X3670Y1136D02*
Y1353D01*
Y1093D02*
Y1136D01*
X3323Y1569D02*
X3886D01*
X3258Y1634D02*
X3323Y1569D01*
X3865Y1699D02*
X3940Y1775D01*
X3410Y1699D02*
X3865D01*
X3951*
X4070Y1818*
X3399Y1688D02*
X3410Y1699D01*
X4349Y1484D02*
Y1578D01*
X4070Y1818D02*
X4428D01*
X4012Y1639D02*
X4049Y1602D01*
X4171Y1484D02*
Y1547D01*
X3998Y1639D02*
X4012D01*
X3996Y1640D02*
X3998Y1639D01*
X804Y2324D02*
Y2403D01*
Y2324D02*
X876Y2251D01*
X728Y2327D02*
X804Y2403D01*
X627Y2327D02*
X728D01*
X606Y2349D02*
X627Y2327D01*
X664Y2429D02*
X689Y2403D01*
X606Y2429D02*
X664D01*
X689Y2403D02*
X704D01*
X606Y2349D02*
Y2377D01*
X3984Y1483D02*
D01*
X4077Y1389D02*
X4171D01*
X3984Y1483D02*
X4077Y1389D01*
X4349Y1578D02*
X4415D01*
X4460Y1624D02*
Y1786D01*
X4415Y1578D02*
X4460Y1624D01*
X4428Y1818D02*
X4460Y1786D01*
X4169Y1580D02*
X4171Y1578D01*
X4070Y1580D02*
X4169D01*
X3919Y1602D02*
X4049D01*
X4070Y1580*
X3875Y1645D02*
X3919Y1602D01*
X4171Y1547D02*
Y1578D01*
X4050Y1547D02*
X4171D01*
X4027Y1569D02*
X4050Y1547D01*
X3886Y1569D02*
X4027D01*
X3756Y812D02*
X4049D01*
X4114Y747D02*
X4363D01*
X4049Y812D02*
X4114Y747D01*
X4363D02*
X4493Y876D01*
X4623*
X3713Y855D02*
X3756Y812D01*
X4349Y1484D02*
X4513D01*
X4623Y876D02*
Y1375D01*
X4513Y1484D02*
X4623Y1375D01*
X3735Y2429D02*
Y2468D01*
X3421Y2479D02*
X3724D01*
X3735Y2468*
X3410Y2429D02*
Y2468D01*
X3421Y2479*
X3572Y2429D02*
X3659D01*
X3486D02*
X3572D01*
Y2295D02*
Y2429D01*
Y2295D02*
X3583Y2284D01*
X5191Y2433D02*
X5261D01*
X5121D02*
X5191D01*
X4774Y2273D02*
X5121D01*
X5191Y2344D02*
Y2433D01*
X5121Y2273D02*
X5191Y2344D01*
X5045Y2433D02*
Y2468D01*
X5056Y2479*
X5326*
X5337Y2433D02*
Y2468D01*
X5326Y2479D02*
X5337Y2468D01*
X1986Y2429D02*
X2100D01*
X1873D02*
X1986D01*
Y2268D02*
Y2429D01*
X1970Y2251D02*
X1986Y2268D01*
X476Y2338D02*
X562Y2251D01*
X476Y2338D02*
Y2429D01*
X530*
X422D02*
X476D01*
X1797D02*
Y2468D01*
X1808Y2479*
X2154*
X2176Y2429D02*
Y2457D01*
X2154Y2479D02*
X2176Y2457D01*
X346Y2429D02*
Y2457D01*
X368Y2479D02*
X584D01*
X346Y2457D02*
X368Y2479D01*
X606Y2429D02*
Y2457D01*
X584Y2479D02*
X606Y2457D01*
X1266Y108D02*
Y162D01*
X1245Y86D02*
X1266Y108D01*
X876Y86D02*
X1245D01*
X866Y97D02*
X876Y86D01*
X866Y97D02*
Y136D01*
X2879Y109D02*
Y136D01*
X2598Y97D02*
X2868D01*
X2879Y109*
X2590Y105D02*
Y136D01*
Y105D02*
X2598Y97D01*
X4222D02*
Y136D01*
X4233Y86D02*
X4514D01*
X4222Y97D02*
X4233Y86D01*
X4525Y97D02*
Y136D01*
X4514Y86D02*
X4525Y97D01*
X4374Y136D02*
X4449D01*
X4298D02*
X4374D01*
X4070Y378D02*
X4287D01*
X4374Y136D02*
Y292D01*
X4287Y378D02*
X4374Y292D01*
X2735Y136D02*
X2804D01*
X2666D02*
X2735D01*
Y396*
X2999Y660*
X2804Y136D02*
D01*
X1017D02*
X1093D01*
X941D02*
X1017D01*
Y313*
X1039Y335*
X4167Y136D02*
X4222D01*
X4141Y162D02*
X4167Y136D01*
X4127Y162D02*
X4141D01*
X4525Y136D02*
X4580D01*
X4606Y162*
X4620*
X4449Y187D02*
X4525D01*
Y227*
X4536Y238*
X4644D02*
X4720Y162D01*
X4536Y238D02*
X4644D01*
X4222Y187D02*
Y227D01*
X4211Y238D02*
X4222Y227D01*
X4103Y238D02*
X4211D01*
X4027Y162D02*
X4103Y238D01*
X4222Y187D02*
X4298D01*
X2879Y136D02*
X2940D01*
X2966Y162D02*
X2969D01*
X2940Y136D02*
X2966Y162D01*
X2804Y187D02*
X2879D01*
Y227*
X2890Y238*
X2994D02*
X3069Y162D01*
X2890Y238D02*
X2994D01*
X2490Y162D02*
X2504D01*
X2530Y136*
X2590*
Y187D02*
Y224D01*
X2576Y238D02*
X2590Y224D01*
X2465Y238D02*
X2576D01*
X2390Y162D02*
X2465Y238D01*
X2590Y187D02*
X2666D01*
X1169D02*
Y227D01*
X1180Y238*
X1290*
X1366Y162*
X1093Y187D02*
X1169D01*
Y136D02*
X1226D01*
X1252Y162*
X1266*
X811Y136D02*
X866D01*
X785Y162D02*
X811Y136D01*
X771Y162D02*
X785D01*
X866Y187D02*
Y216D01*
X844Y238D02*
X866Y216D01*
X671Y162D02*
X747Y238D01*
X844*
X866Y187D02*
X941D01*
X5337Y2349D02*
Y2381D01*
Y2349D02*
X5348Y2338D01*
X5471D02*
X5536Y2403D01*
X5348Y2338D02*
X5471D01*
X5261Y2381D02*
X5337D01*
Y2433D02*
X5400D01*
X5430Y2403*
X5436*
X4945D02*
X4952D01*
X4982Y2433*
X5045*
Y2349D02*
Y2381D01*
X5034Y2338D02*
X5045Y2349D01*
X4845Y2403D02*
X4910Y2338D01*
X5034*
X5045Y2381D02*
X5121D01*
X3735Y2338D02*
Y2377D01*
Y2338D02*
X3746Y2327D01*
X3856D02*
X3932Y2403D01*
X3746Y2327D02*
X3856D01*
X3659Y2377D02*
X3735D01*
Y2429D02*
X3792D01*
X3818Y2403*
X3832*
X3410Y2377D02*
X3486D01*
X3387Y2327D02*
X3410Y2350D01*
Y2377*
X3280Y2327D02*
X3387D01*
X3204Y2403D02*
X3280Y2327D01*
X3304Y2403D02*
X3319D01*
X3344Y2429*
X3410*
X2176D02*
X2231D01*
X2256Y2403*
X2271*
X2176Y2349D02*
Y2377D01*
Y2349D02*
X2197Y2327D01*
X2295D02*
X2371Y2403D01*
X2197Y2327D02*
X2295D01*
X2100Y2377D02*
X2176D01*
X1797D02*
X1873D01*
X1797Y2349D02*
Y2377D01*
X1775Y2327D02*
X1797Y2349D01*
X1602Y2403D02*
X1678Y2327D01*
X1775*
X1702Y2403D02*
X1716D01*
X1742Y2429*
X1797*
X530Y2377D02*
X606D01*
X249Y2403D02*
X263D01*
X288Y2429*
X346*
Y2377D02*
X422D01*
X346Y2338D02*
Y2377D01*
X335Y2327D02*
X346Y2338D01*
X224Y2327D02*
X335D01*
X149Y2403D02*
X224Y2327D01*
X3973Y1429D02*
X4075Y1326D01*
X4171*
X3930Y1364D02*
X4030Y1263D01*
X4171*
X4097Y1011D02*
X4171D01*
X3984Y898D02*
X4097Y1011D01*
X3897Y1082D02*
X3984D01*
X4102Y1200*
X3919Y1017D02*
X3973D01*
X4093Y1137*
X4171*
X3962Y963D02*
X3984D01*
X4095Y1074*
X4171*
X4102Y1200D02*
X4171D01*
X4349Y980D02*
X4430D01*
X4435Y985*
X4438*
X4349Y1043D02*
X4432D01*
X4438Y1050*
X4430Y1106D02*
X4438Y1115D01*
X4349Y1106D02*
X4430D01*
X4438Y1169D02*
D01*
X4349D02*
X4438D01*
X4437Y1232D02*
X4438Y1234D01*
X4349Y1232D02*
X4437D01*
X4349Y1295D02*
X4435D01*
X4438Y1299*
X4349Y1358D02*
X4429D01*
X4435Y1364*
X4438*
G54D14*
X2024Y1277D03*
X2089D03*
X2024Y1147D03*
X2089D03*
X2024Y1028D03*
X2089D03*
X2024Y909D03*
X2089D03*
X2706Y1375D03*
X2641D03*
X2706Y1245D03*
X2641D03*
X2706Y1125D03*
X2641D03*
X2706Y1006D03*
X2641D03*
X2706Y887D03*
X2641D03*
G54D15*
X4171Y1578D03*
X4349D03*
X4171Y1547D03*
X4349D03*
X4171Y1515D03*
X4349D03*
X4171Y1484D03*
X4349D03*
X4171Y1452D03*
X4349D03*
X4171Y1421D03*
X4349D03*
X4171Y1389D03*
X4349D03*
X4171Y1358D03*
X4349D03*
X4171Y1326D03*
X4349D03*
X4171Y1295D03*
X4349D03*
X4171Y1263D03*
X4349D03*
X4171Y1232D03*
X4349D03*
X4171Y1200D03*
X4349D03*
X4171Y1169D03*
X4349D03*
X4171Y1137D03*
X4349D03*
X4171Y1106D03*
X4349D03*
X4171Y1074D03*
X4349D03*
X4171Y1043D03*
X4349D03*
X4171Y1011D03*
X4349D03*
X4171Y980D03*
X4349D03*
X2257Y1578D03*
X2435D03*
X2257Y1547D03*
X2435D03*
X2257Y1515D03*
X2435D03*
X2257Y1484D03*
X2435D03*
X2257Y1452D03*
X2435D03*
X2257Y1421D03*
X2435D03*
X2257Y1389D03*
X2435D03*
X2257Y1358D03*
X2435D03*
X2257Y1326D03*
X2435D03*
X2257Y1295D03*
X2435D03*
X2257Y1263D03*
X2435D03*
X2257Y1232D03*
X2435D03*
X2257Y1200D03*
X2435D03*
X2257Y1169D03*
X2435D03*
X2257Y1137D03*
X2435D03*
X2257Y1106D03*
X2435D03*
X2257Y1074D03*
X2435D03*
X2257Y1043D03*
X2435D03*
X2257Y1011D03*
X2435D03*
X2257Y980D03*
X2435D03*
G54D16*
X2804Y136D03*
Y187D03*
X4449Y136D03*
Y187D03*
X2666Y136D03*
Y187D03*
X422Y2429D03*
Y2377D03*
X5121Y2433D03*
Y2381D03*
X1093Y136D03*
Y187D03*
X530Y2429D03*
Y2377D03*
X2100Y2429D03*
Y2377D03*
X5261Y2433D03*
Y2381D03*
X4298Y136D03*
Y187D03*
X3659Y2429D03*
Y2377D03*
X3486Y2429D03*
Y2377D03*
X1873Y2429D03*
Y2377D03*
X941Y136D03*
Y187D03*
X2879Y136D03*
Y187D03*
X4525Y136D03*
Y187D03*
X2590Y136D03*
Y187D03*
X346Y2429D03*
Y2377D03*
X5045Y2433D03*
Y2381D03*
X1169Y136D03*
Y187D03*
X606Y2429D03*
Y2377D03*
X2176Y2429D03*
Y2377D03*
X5337Y2433D03*
Y2381D03*
X4222Y136D03*
Y187D03*
X3735Y2429D03*
Y2377D03*
X3410Y2429D03*
Y2377D03*
X1797Y2429D03*
Y2377D03*
X866Y136D03*
Y187D03*
G54D17*
X5909Y196D03*
Y2417D03*
X5082Y196D03*
X4305Y2417D03*
X3487Y196D03*
X2720Y2417D03*
X1893Y196D03*
X1125Y2417D03*
X299Y196D03*
G54D25*
X2089Y909D02*
X2094Y914D01*
X2127*
X2224Y1011*
X2257*
X2435Y1389D02*
X2540D01*
X2555Y1375D02*
X2641D01*
X2540Y1389D02*
X2555Y1375D01*
X2257Y1326D02*
Y1358D01*
Y1263D02*
X2281D01*
X2285Y1326D02*
X2295Y1316D01*
Y1277D02*
Y1316D01*
X2281Y1263D02*
X2295Y1277D01*
X2257Y1358D02*
X2413D01*
X2257Y1326D02*
X2285D01*
X3756Y627D02*
X4817D01*
X2706Y1375D02*
X3009D01*
X3756Y627*
X4817D02*
X5034Y411D01*
X5694D02*
X5909Y196D01*
X5034Y411D02*
X5694D01*
X2706Y1245D02*
X2955D01*
X3681Y519*
X3487Y196D02*
Y539D01*
X2901Y1125D02*
X3487Y539D01*
X2706Y1125D02*
X2901D01*
X2706Y1006D02*
X2814D01*
X2879Y736D02*
Y941D01*
X2814Y1006D02*
X2879Y941D01*
X2728Y584D02*
X2879Y736D01*
X2281Y584D02*
X2728D01*
X1893Y196D02*
X2281Y584D01*
X2706Y887D02*
X2750D01*
X2782Y855*
Y768D02*
Y855D01*
X2706Y692D02*
X2782Y768D01*
X1829Y422D02*
X2100Y692D01*
X2706*
X2089Y1277D02*
X2138D01*
X2215Y1200*
X2257*
X2089Y1147D02*
X2167D01*
X2177Y1137*
X2257*
X2089Y1028D02*
X2149D01*
X2195Y1074*
X2257*
X2435Y980D02*
X2495D01*
X2587Y887*
X2641*
X2557Y1006D02*
X2641D01*
X2521Y1043D02*
X2557Y1006D01*
X2435Y1043D02*
X2521D01*
X2549Y1125D02*
X2641D01*
X2529Y1106D02*
X2549Y1125D01*
X2435Y1106D02*
X2529D01*
X2577Y1245D02*
X2641D01*
X2501Y1169D02*
X2577Y1245D01*
X2435Y1169D02*
X2501D01*
X2398Y1243D02*
Y1280D01*
X2409Y1232D02*
X2435D01*
X2398Y1243D02*
X2409Y1232D01*
X2413Y1295D02*
X2435D01*
X2398Y1280D02*
X2413Y1295D01*
X2398Y1310D02*
X2413Y1295D01*
X2398Y1310D02*
Y1343D01*
X2413Y1358*
X2435*
Y1389*
Y980D02*
Y1011D01*
X2257Y980D02*
X2435D01*
X1797Y909D02*
X2024D01*
X1624Y1082D02*
X1797Y909D01*
X1873Y1028D02*
X2024D01*
X1753Y1147D02*
X1873Y1028D01*
X1753Y1147D02*
Y1992D01*
X1921Y2159*
X2635*
X2720Y2243*
Y2417*
X1125D02*
X1624Y1918D01*
Y1082D02*
Y1918D01*
X1937Y1147D02*
X2024D01*
X1883Y1201D02*
X1937Y1147D01*
X1883Y1201D02*
Y1862D01*
X2057Y2035D02*
X3923D01*
X1883Y1862D02*
X2057Y2035D01*
X2024Y1277D02*
Y1840D01*
X2111Y1927*
X524Y422D02*
X1829D01*
X3923Y2035D02*
X4305Y2417D01*
X2111Y1927D02*
X4709D01*
X4759Y519D02*
X4911Y368D01*
X3681Y519D02*
X4759D01*
X299Y196D02*
X524Y422D01*
X4911Y368D02*
X5082Y196D01*
X4958Y2176D02*
X5835D01*
X4709Y1927D02*
X4958Y2176D01*
X5909Y2249D02*
Y2417D01*
X5835Y2176D02*
X5909Y2249D01*
G54D26*
X4260Y846D03*
Y1712D03*
X2346Y846D03*
Y1712D03*
G54D27*
X2969Y162D03*
X3069D03*
X4620D03*
X4720D03*
X2490D03*
X2390D03*
X249Y2403D03*
X149D03*
X4945D03*
X4845D03*
X1266Y162D03*
X1366D03*
X704Y2403D03*
X804D03*
X2271D03*
X2371D03*
X5436D03*
X5536D03*
X4127Y162D03*
X4027D03*
X3832Y2403D03*
X3932D03*
X3304D03*
X3204D03*
X1702D03*
X1602D03*
X771Y162D03*
X671D03*
G54D28*
X3670Y1136D03*
X3258Y1634D03*
X3865Y1699D03*
X3940Y1775D03*
X3996Y1640D03*
X3399Y1688D03*
X3984Y1483D03*
X3875Y1645D03*
X3713Y855D03*
X3908D03*
X4623Y876D03*
X3583Y2284D03*
X4774Y2273D03*
X1970Y2251D03*
X876D03*
X562D03*
X4070Y378D03*
X2999Y660D03*
X1039Y335D03*
X3930Y1364D03*
X3973Y1429D03*
X3984Y898D03*
X3897Y1082D03*
X3919Y1017D03*
X3962Y963D03*
X4438Y985D03*
Y1050D03*
Y1115D03*
Y1169D03*
Y1234D03*
Y1299D03*
Y1364D03*
M02*