%FSLAX23Y23*%
%MOIN*%
%SFA1B1*%

%IPPOS*%
%ADD9500C,0.015000*%
%ADD9501C,0.028000*%
%ADD9502C,0.031500*%
%ADD9503C,0.043310*%
%ADD9504C,0.051180*%
%ADD9505C,0.055120*%
%ADD9506C,0.039370*%
%ADD9507C,0.129920*%
%LNvcu-1*%
%LPD*%
G54D9500*
X2265Y2110D03*
X2019Y1802D03*
X2005Y1707D03*
X1860Y1635D03*
X1775Y1600D03*
X1690Y1798D03*
X1505Y1734D03*
X1524Y1894D03*
X1313Y1897D03*
X1262Y1819D03*
X1180Y1816D03*
X1160Y1773D03*
X1100Y1730D03*
X1223Y1717D03*
X1224Y1559D03*
X1515Y1525D03*
X1568Y2130D03*
X1653Y2062D03*
X1335Y2044D03*
X892Y1724D03*
X780Y1687D03*
X771Y1634D03*
X2065Y815D03*
X1664Y2262D03*
X1491Y2251D03*
X1431Y2438D03*
X1391Y2473D03*
X1317Y2552D03*
X1504Y2580D03*
X1507Y2522D03*
X1512Y2747D03*
X1545Y2880D03*
X1515Y2925D03*
X1355Y2730D03*
X1151Y2856D03*
X1150Y2915D03*
X871Y2861D03*
X860Y2700D03*
X821Y3261D03*
X824Y3627D03*
X1176Y3408D03*
X1500Y3631D03*
X2016Y3626D03*
X2063Y3058D03*
X2007Y2946D03*
X2105Y2880D03*
X2055Y2765D03*
X1723Y2750D03*
X1700Y2697D03*
X1230Y2210D03*
X2151Y2287D03*
X2145Y2406D03*
X2250Y2490D03*
X2326Y2460D03*
X2337Y2581D03*
X2430Y2710D03*
X2485Y2745D03*
X2534Y2790D03*
X2684Y2792D03*
X2671Y2844D03*
X2641Y2895D03*
X2652Y2687D03*
X2612Y2550D03*
X2940Y2579D03*
X2788Y2750D03*
X2787Y2350D03*
X2388Y2211D03*
X2342Y2212D03*
X2417Y3257D03*
X2447Y3622D03*
X2870Y3635D03*
G54D9501*
X940Y1000D03*
G54D9502*
X2179Y945D03*
X2279D03*
X2379D03*
X1946D03*
X1846D03*
X1746D03*
X1591D03*
X1491D03*
X1391D03*
X1198D03*
X1098D03*
X998D03*
G54D9503*
X2222Y752D03*
X2392D03*
X1973Y748D03*
X1804D03*
X1579D03*
X1410D03*
X1186D03*
X1016D03*
G54D9504*
X324Y175D03*
X620D03*
Y765D03*
Y962D03*
Y1159D03*
X324D03*
Y962D03*
Y765D03*
X628Y1857D03*
Y1975D03*
Y2093D03*
X726Y2034D03*
Y1916D03*
Y1798D03*
X510Y1857D03*
Y1975D03*
Y2093D03*
X411Y2034D03*
Y1916D03*
Y1798D03*
Y2152D03*
Y2270D03*
Y2388D03*
Y2506D03*
Y2624D03*
Y2742D03*
X510Y2683D03*
Y2565D03*
Y2447D03*
Y2329D03*
Y2211D03*
X628D03*
Y2329D03*
Y2447D03*
Y2565D03*
Y2683D03*
X726Y2624D03*
Y2506D03*
Y2388D03*
Y2270D03*
Y2152D03*
Y2742D03*
G54D9505*
X1016Y158D03*
X1140Y394D03*
X991Y532D03*
X1384D03*
X1534Y394D03*
X1410Y158D03*
X1804D03*
X1928Y394D03*
X1778Y532D03*
X2197Y535D03*
X2346Y398D03*
X2222Y161D03*
G54D9506*
X2527Y3112D03*
X2677D03*
G54D9507*
X155Y1512D03*
Y3028D03*
M02*