%FSLAX23Y23*%
%MOIN*%
%SFA1B1*%

%IPPOS*%
%ADD13C,0.010000*%
%ADD18R,0.029920X0.094490*%
%ADD19R,0.053150X0.011810*%
%ADD20R,0.011810X0.053150*%
%ADD21O,0.057090X0.023620*%
%ADD22O,0.039370X0.019680*%
%ADD23R,0.023620X0.082680*%
%ADD24R,0.125980X0.082680*%
%ADD25R,0.080710X0.045280*%
%ADD26R,0.037400X0.033470*%
%ADD27R,0.033470X0.037400*%
%ADD28R,0.039370X0.118110*%
%ADD29R,0.218500X0.251970*%
%ADD30R,0.031500X0.035430*%
%ADD31R,0.051180X0.043310*%
%ADD32R,0.035430X0.031500*%
%ADD33R,0.053150X0.057090*%
%ADD34R,0.035430X0.039370*%
%ADD35R,0.039370X0.035430*%
%ADD62C,0.020000*%
%ADD63C,0.050000*%
%ADD64C,0.015000*%
%ADD65C,0.011810*%
%ADD66C,0.008000*%
%ADD67C,0.055120*%
%ADD68C,0.086610*%
%ADD69C,0.129920*%
%ADD70C,0.098430*%
%ADD71C,0.078740*%
%ADD72C,0.090550*%
%ADD73C,0.050000*%
%ADD74C,0.030750*%
%LNvcu-1*%
%LPD*%
G36*
X3184Y55D02*
X2172D01*
X2168Y64*
X2210Y106*
X2222Y104*
X2237Y106*
X2251Y112*
X2263Y121*
X2272Y133*
X2278Y147*
X2280Y161*
X2278Y176*
X2272Y190*
X2263Y202*
X2251Y211*
X2237Y217*
X2222Y219*
X2207Y217*
X2194Y211*
X2182Y202*
X2173Y190*
X2167Y176*
X2165Y161*
X2166Y155*
X2119Y109*
X1849*
X1846Y119*
X1854Y129*
X1859Y143*
X1861Y158*
X1860Y164*
X2058Y361*
X2303*
X2306Y357*
X2318Y348*
X2331Y342*
X2346Y340*
X2361Y342*
X2375Y348*
X2387Y357*
X2396Y369*
X2402Y383*
X2404Y398*
X2402Y413*
X2396Y426*
X2387Y438*
X2375Y448*
X2361Y453*
X2346Y455*
X2331Y453*
X2318Y448*
X2306Y438*
X2297Y427*
X2044*
X2035Y426*
X2027Y422*
X2020Y417*
X1994Y391*
X1985Y396*
X1983Y409*
X1978Y423*
X1968Y434*
X1956Y444*
X1943Y449*
X1928Y451*
X1913Y449*
X1899Y444*
X1887Y434*
X1881Y427*
X1650*
X1642Y426*
X1634Y422*
X1627Y417*
X1600Y391*
X1591Y396*
X1590Y409*
X1584Y423*
X1575Y434*
X1563Y444*
X1549Y449*
X1534Y451*
X1519Y449*
X1505Y444*
X1493Y434*
X1484Y423*
X1478Y409*
X1477Y395*
X1427Y345*
X1185*
X1182Y355*
X1190Y365*
X1196Y379*
X1198Y394*
X1196Y409*
X1190Y423*
X1181Y434*
X1172Y441*
Y518*
X1171Y527*
X1168Y535*
X1163Y541*
X1013Y691*
X1015Y697*
X1018Y701*
X1029Y702*
X1040Y707*
X1050Y714*
X1058Y724*
X1062Y736*
X1064Y748*
X1062Y760*
X1058Y772*
X1050Y782*
X1040Y789*
X1029Y794*
X1016Y796*
X1016Y796*
Y914*
X1023Y920*
X1029Y927*
X1032Y936*
X1034Y945*
X1032Y954*
X1029Y963*
X1023Y970*
X1016Y976*
X1007Y979*
X998Y981*
X989Y979*
X980Y976*
X973Y970*
X971Y969*
X969Y969*
X969Y969*
X966Y980*
X968Y983*
X972Y991*
X972Y991*
X1070*
X1076Y993*
X1082Y997*
X1152Y1067*
X1186*
X1188Y1067*
X1231*
Y1126*
X1164*
Y1103*
X1145*
X1138Y1102*
X1132Y1098*
X1062Y1028*
X957*
X956Y1028*
X948Y1032*
X940Y1033*
X931Y1032*
X923Y1028*
X916Y1023*
X911Y1016*
X907Y1008*
X906Y1000*
X907Y992*
X907Y991*
X898Y987*
X878Y1007*
Y1092*
X909Y1124*
X962*
Y1114*
X1013*
X1015*
X1066*
Y1131*
X1124*
X1129Y1132*
X1133Y1134*
X1159Y1160*
X1164Y1158*
X1231*
Y1187*
X1240Y1191*
X1419Y1013*
Y981*
X1409Y976*
X1401Y979*
X1391Y981*
X1382Y979*
X1374Y976*
X1366Y970*
X1361Y963*
X1357Y954*
X1356Y945*
X1357Y936*
X1361Y927*
X1366Y920*
X1374Y914*
X1382Y910*
X1391Y909*
X1401Y910*
X1409Y914*
X1415Y918*
X1418Y920*
X1428Y918*
X1460Y887*
X1466Y883*
X1473Y881*
X1546*
X1553Y883*
X1559Y887*
X1583Y910*
X1591Y909*
X1601Y910*
X1609Y914*
X1617Y920*
X1622Y927*
X1626Y936*
X1627Y945*
X1626Y954*
X1622Y963*
X1617Y970*
X1609Y976*
X1601Y979*
X1591Y981*
X1582Y979*
X1574Y976*
X1566Y970*
X1561Y963*
X1557Y954*
X1556Y945*
X1557Y936*
X1538Y918*
X1528*
X1522Y927*
X1526Y936*
X1527Y945*
X1526Y954*
X1522Y963*
X1517Y970*
X1509Y976*
X1505Y978*
Y1018*
X1504Y1023*
X1501Y1027*
X1455Y1073*
Y1106*
X1457Y1115*
X1465*
X1508*
Y1152*
X1519Y1163*
X1575*
X1576Y1163*
X1625*
Y1222*
X1558*
Y1189*
X1514*
X1509Y1188*
X1505Y1186*
X1489Y1170*
X1457*
X1447*
X1403*
Y1115*
X1429*
Y1069*
X1426Y1066*
X1419Y1064*
X1068Y1416*
X1062Y1419*
X1055Y1421*
X814*
X458Y1777*
X461Y1784*
X463Y1798*
X461Y1811*
X456Y1823*
X448Y1834*
X437Y1842*
X425Y1847*
X411Y1849*
X405Y1848*
X400Y1858*
X407Y1865*
X411Y1864*
X425Y1866*
X437Y1871*
X448Y1879*
X456Y1890*
X461Y1902*
X463Y1916*
X461Y1929*
X456Y1941*
X448Y1952*
X437Y1960*
X425Y1966*
X411Y1967*
X398Y1966*
X386Y1960*
X375Y1952*
X367Y1941*
X361Y1929*
X360Y1916*
X360Y1912*
X320Y1872*
X310Y1876*
Y2240*
X351Y2281*
X361Y2276*
X360Y2270*
X361Y2257*
X367Y2244*
X375Y2234*
X386Y2225*
X398Y2220*
X411Y2218*
X425Y2220*
X437Y2225*
X448Y2234*
X456Y2244*
X461Y2257*
X463Y2270*
X461Y2283*
X456Y2296*
X448Y2307*
X437Y2315*
X425Y2320*
X411Y2322*
X405Y2321*
X400Y2330*
X407Y2337*
X411Y2337*
X425Y2338*
X437Y2343*
X448Y2352*
X456Y2362*
X461Y2375*
X463Y2388*
X461Y2401*
X456Y2414*
X448Y2425*
X437Y2433*
X425Y2438*
X411Y2440*
X398Y2438*
X386Y2433*
X375Y2425*
X367Y2414*
X361Y2401*
X360Y2388*
X360Y2384*
X254Y2278*
X249Y2271*
X245Y2263*
X244Y2254*
Y1714*
X245Y1706*
X249Y1698*
X254Y1691*
X286Y1658*
Y1515*
X165Y1394*
X160Y1387*
X156Y1379*
X155Y1370*
Y791*
X156Y782*
X160Y774*
X165Y767*
X868Y64*
X864Y55*
X15*
Y3954*
X753*
Y3862*
X894*
Y3954*
X3184*
Y55*
G37*
G36*
X386Y1753D02*
X398Y1748D01*
X411Y1746*
X425Y1748*
X432Y1751*
X793Y1390*
X799Y1386*
X806Y1384*
X1047*
X1206Y1226*
X1202Y1217*
X1164*
Y1200*
X1162Y1199*
X1158Y1196*
X1118Y1157*
X1066*
Y1169*
X1015*
X1013*
X962*
Y1160*
X902*
X895Y1159*
X889Y1155*
X847Y1112*
X843Y1106*
X841Y1100*
Y1000*
X842Y998*
X832Y993*
X672Y1153*
X673Y1159*
X671Y1173*
X666Y1186*
X657Y1197*
X646Y1205*
X633Y1211*
X620Y1212*
X606Y1211*
X593Y1205*
X582Y1197*
X573Y1186*
X568Y1173*
X566Y1159*
X568Y1145*
X573Y1132*
X582Y1121*
X593Y1112*
X606Y1107*
X620Y1105*
X626Y1106*
X911Y821*
Y713*
X912Y705*
X915Y697*
X921Y690*
X1017Y593*
X1012Y585*
X1006Y587*
X991Y589*
X976Y587*
X962Y581*
X950Y572*
X941Y560*
X935Y546*
X933Y532*
X935Y517*
X941Y503*
X950Y491*
X962Y482*
X976Y476*
X991Y474*
X1006Y476*
X1019Y482*
X1031Y491*
X1041Y503*
X1046Y517*
X1048Y532*
X1046Y546*
X1044Y552*
X1052Y558*
X1106Y504*
Y440*
X1100Y434*
X1090Y423*
X1085Y409*
X1083Y394*
X1085Y379*
X1090Y365*
X1098Y355*
X1095Y345*
X976*
X619Y702*
X623Y712*
X633Y713*
X646Y719*
X657Y727*
X666Y738*
X671Y751*
X673Y765*
X671Y779*
X666Y792*
X657Y803*
X646Y812*
X633Y817*
X620Y819*
X606Y817*
X593Y812*
X582Y803*
X573Y792*
X568Y779*
X557Y776*
X377Y956*
X378Y962*
X376Y976*
X371Y989*
X362Y1000*
X351Y1008*
X338Y1014*
X329Y1015*
X279Y1065*
Y1115*
X289Y1119*
X298Y1112*
X310Y1107*
X324Y1105*
X338Y1107*
X351Y1112*
X362Y1121*
X371Y1132*
X376Y1145*
X378Y1159*
X376Y1173*
X371Y1186*
X362Y1197*
X351Y1205*
X338Y1211*
X324Y1212*
X310Y1211*
X298Y1205*
X289Y1199*
X279Y1203*
Y1332*
X403Y1456*
X408Y1463*
X412Y1471*
X413Y1480*
Y1694*
X412Y1703*
X408Y1711*
X403Y1717*
X375Y1746*
X375Y1748*
X385Y1753*
X386Y1753*
G37*
G36*
X914Y927D02*
X967D01*
X973Y920*
X980Y914*
Y858*
X970Y855*
X967Y858*
X907Y918*
X912Y927*
X914Y927*
G37*
G36*
X1887Y353D02*
X1899Y344D01*
X1913Y338*
X1925Y336*
X1931Y327*
X1817Y213*
X1804Y215*
X1789Y213*
X1775Y207*
X1763Y198*
X1754Y186*
X1748Y172*
X1746Y158*
X1748Y143*
X1754Y129*
X1762Y119*
X1759Y109*
X1455*
X1452Y119*
X1460Y129*
X1466Y143*
X1468Y158*
X1467Y164*
X1664Y361*
X1881*
X1887Y353*
G37*
G36*
X273Y977D02*
X273Y976D01*
X271Y962*
X273Y948*
X278Y935*
X286Y924*
X298Y916*
X310Y910*
X324Y908*
X330Y909*
X509Y731*
X509Y724*
X513Y716*
X518Y709*
X939Y288*
X946Y283*
X954Y280*
X962Y279*
X1440*
X1449Y280*
X1457Y283*
X1464Y288*
X1515Y340*
X1519Y338*
X1532Y336*
X1537Y327*
X1423Y213*
X1410Y215*
X1395Y213*
X1381Y207*
X1369Y198*
X1360Y186*
X1354Y172*
X1352Y158*
X1354Y143*
X1360Y129*
X1368Y119*
X1365Y109*
X1061*
X1058Y119*
X1066Y129*
X1072Y143*
X1074Y158*
X1072Y172*
X1066Y186*
X1057Y198*
X1045Y207*
X1031Y213*
X1016Y215*
X1001Y213*
X987Y207*
X976Y198*
X966Y186*
X961Y172*
X959Y158*
X961Y143*
X966Y129*
X974Y119*
X971Y109*
X917*
X324Y702*
X328Y712*
X338Y713*
X351Y719*
X362Y727*
X371Y738*
X376Y751*
X378Y765*
X376Y779*
X371Y792*
X362Y803*
X351Y812*
X338Y817*
X324Y819*
X310Y817*
X298Y812*
X286Y803*
X278Y792*
X273Y779*
X271Y769*
X261Y764*
X221Y804*
Y1015*
X231Y1019*
X273Y977*
G37*
%LNvcu-2*%
%LPC*%
G36*
X894Y3755D02*
D01*
X753*
X746Y3753*
X740Y3749*
X724Y3733*
X712Y3744*
X706Y3748*
X699Y3750*
X389*
X382Y3748*
X376Y3744*
X353Y3722*
X245*
X243Y3721*
X208*
Y3588*
X263*
Y3685*
X361*
X368Y3687*
X374Y3691*
X379Y3696*
X388Y3692*
Y3588*
X443*
Y3641*
X509*
Y3629*
X535*
Y3557*
X536Y3552*
X538Y3548*
X542Y3545*
Y3490*
X611*
Y3563*
X561*
Y3627*
X583*
Y3657*
Y3686*
X560*
Y3684*
X509*
Y3668*
X443*
Y3713*
X691*
X704Y3701*
Y3654*
X680Y3630*
X676Y3624*
X674Y3617*
Y3563*
X658*
Y3490*
X727*
Y3563*
X711*
Y3609*
X730Y3628*
X743*
Y3692*
X744Y3692*
X754Y3687*
Y3628*
X755*
Y3603*
X757Y3596*
X761Y3590*
X779Y3572*
Y3557*
X774*
Y3502*
X781*
Y3401*
X774*
Y3346*
X781*
Y3286*
X783Y3279*
X786Y3273*
X798Y3262*
X797Y3261*
X799Y3252*
X804Y3244*
X812Y3239*
X821Y3237*
X830Y3239*
X836Y3243*
X878*
X885Y3244*
X891Y3248*
X985Y3342*
X1018*
Y3403*
X922*
Y3342*
X925Y3334*
X871Y3279*
X836*
X830Y3283*
X827Y3283*
X818Y3293*
Y3344*
X827Y3346*
X878*
Y3391*
X954Y3466*
X957Y3470*
X958Y3475*
Y3500*
X983*
Y3497*
X1005*
Y3527*
Y3557*
X983*
Y3555*
X932*
Y3543*
X879*
Y3628*
X893*
Y3687*
X903Y3692*
X904Y3692*
Y3628*
X943*
Y3662*
X1079*
Y3651*
X1135*
X1137Y3648*
X1150Y3635*
Y3562*
X1142Y3555*
X1120*
Y3526*
Y3496*
X1142*
Y3498*
X1155*
Y3419*
X1154Y3417*
X1152Y3408*
X1154Y3398*
X1159Y3391*
X1166Y3386*
X1176Y3384*
X1185Y3386*
X1192Y3391*
X1197Y3398*
X1199Y3408*
X1197Y3417*
X1192Y3424*
X1192Y3425*
Y3498*
X1193*
Y3516*
X1194Y3518*
X1193Y3519*
Y3553*
X1186*
Y3643*
X1185Y3650*
X1181Y3656*
X1176Y3661*
Y3712*
X1079*
Y3699*
X943*
Y3727*
X930*
X907Y3749*
X901Y3753*
X894Y3755*
G37*
G36*
X2966Y3730D02*
X2609D01*
X2604Y3729*
X2600Y3726*
X2585Y3712*
X2574*
X2559Y3726*
X2555Y3729*
X2550Y3730*
X2223*
X2218Y3729*
X2214Y3726*
X2199Y3712*
X2188*
X2174Y3726*
X2169Y3729*
X2164Y3730*
X1801*
X1796Y3729*
X1791Y3726*
X1776Y3711*
X1746*
X1736*
X1694*
Y3658*
X1706*
Y3593*
X1685*
Y3534*
X1752*
Y3593*
X1732*
Y3651*
X1739Y3658*
X1744*
X1754*
X1795*
Y3693*
X1806Y3704*
X1940*
Y3659*
X1952*
Y3591*
X1942*
Y3540*
X1990*
Y3591*
X1978*
Y3659*
X1990*
X1992*
X2003*
Y3646*
X1999Y3643*
X1994Y3636*
X1993Y3626*
X1994Y3617*
X1999Y3610*
X2007Y3605*
X2016Y3603*
X2025Y3605*
X2033Y3610*
X2038Y3617*
X2040Y3626*
X2038Y3636*
X2033Y3643*
X2029Y3646*
Y3659*
X2041*
Y3704*
X2118*
Y3659*
X2128*
Y3608*
X2108*
Y3549*
X2175*
Y3608*
X2154*
Y3659*
X2167*
X2169*
X2177*
X2218*
Y3693*
X2228Y3704*
X2327*
Y3659*
X2339*
Y3589*
X2328*
Y3537*
X2375*
Y3589*
X2365*
Y3659*
X2376*
X2378*
X2409*
X2430Y3638*
X2425Y3631*
X2424Y3622*
X2425Y3612*
X2431Y3605*
X2438Y3600*
X2447Y3598*
X2456Y3600*
X2464Y3605*
X2469Y3612*
X2471Y3622*
X2469Y3631*
X2464Y3638*
X2456Y3643*
X2455Y3648*
X2453Y3652*
X2428Y3677*
Y3704*
X2503*
Y3659*
X2515*
Y3601*
X2494*
Y3542*
X2561*
Y3601*
X2541*
Y3659*
X2553*
X2555*
X2563*
X2604*
Y3693*
X2614Y3704*
X2746*
Y3659*
X2757*
Y3591*
X2746*
Y3540*
X2793*
Y3591*
X2783*
Y3659*
X2795*
X2797*
X2827*
X2847Y3640*
X2846Y3635*
X2848Y3626*
X2853Y3618*
X2861Y3613*
X2870Y3612*
X2879Y3613*
X2886Y3618*
X2892Y3626*
X2893Y3635*
X2892Y3644*
X2886Y3652*
X2879Y3657*
X2870Y3659*
X2865Y3658*
X2846Y3677*
Y3704*
X2920*
Y3659*
X2931*
Y3601*
X2911*
Y3542*
X2978*
Y3601*
X2958*
Y3659*
X2969*
X2971*
X2979*
X3020*
Y3712*
X2990*
X2976Y3726*
X2971Y3729*
X2966Y3730*
G37*
G36*
X1290Y3714D02*
X1268D01*
Y3690*
X1290*
Y3714*
G37*
G36*
X616Y3686D02*
X593D01*
Y3662*
X616*
Y3686*
G37*
G36*
X1290Y3680D02*
X1268D01*
Y3657*
X1290*
Y3680*
G37*
G36*
X616Y3652D02*
X593D01*
Y3627*
X616*
Y3652*
G37*
G36*
X2720Y3593D02*
X2699D01*
Y3570*
X2720*
Y3593*
G37*
G36*
X2689D02*
X2669D01*
Y3570*
X2689*
Y3593*
G37*
G36*
X1917D02*
X1896D01*
Y3570*
X1917*
Y3593*
G37*
G36*
X1886D02*
X1865D01*
Y3570*
X1886*
Y3593*
G37*
G36*
X2303Y3591D02*
X2282D01*
Y3568*
X2303*
Y3591*
G37*
G36*
X2272D02*
X2251D01*
Y3568*
X2272*
Y3591*
G37*
G36*
X1492Y3590D02*
X1471D01*
Y3567*
X1492*
Y3590*
G37*
G36*
X1461D02*
X1440D01*
Y3567*
X1461*
Y3590*
G37*
G36*
X2720Y3560D02*
X2699D01*
Y3538*
X2720*
Y3560*
G37*
G36*
X2689D02*
X2669D01*
Y3538*
X2689*
Y3560*
G37*
G36*
X1917D02*
X1896D01*
Y3538*
X1917*
Y3560*
G37*
G36*
X1886D02*
X1865D01*
Y3538*
X1886*
Y3560*
G37*
G36*
X1322Y3714D02*
X1300D01*
Y3685*
Y3657*
X1322*
Y3659*
X1371*
Y3667*
X1446*
Y3666*
X1446Y3665*
Y3659*
X1449*
X1450Y3657*
X1465Y3642*
X1470Y3639*
X1471Y3639*
X1477Y3632*
X1477Y3631*
X1479Y3622*
X1484Y3615*
X1491Y3609*
X1500Y3608*
X1507Y3609*
X1517Y3603*
Y3573*
X1517Y3572*
Y3537*
X1564*
Y3588*
X1543*
Y3659*
X1547*
Y3712*
X1498*
X1496*
X1446*
Y3694*
X1371*
Y3712*
X1322*
Y3714*
G37*
G36*
X2303Y3558D02*
X2282D01*
Y3535*
X2303*
Y3558*
G37*
G36*
X2272D02*
X2251D01*
Y3535*
X2272*
Y3558*
G37*
G36*
X1492Y3557D02*
X1471D01*
Y3535*
X1492*
Y3557*
G37*
G36*
X1461D02*
X1440D01*
Y3535*
X1461*
Y3557*
G37*
G36*
X1038Y3557D02*
X1015D01*
Y3532*
X1038*
Y3557*
G37*
G36*
X1110Y3555D02*
X1087D01*
Y3531*
X1110*
Y3555*
G37*
G36*
X2175Y3517D02*
X2108D01*
Y3501*
X1952*
Y3512*
X1905*
Y3461*
X1952*
Y3475*
X2108*
Y3458*
X2175*
Y3517*
G37*
G36*
X1038Y3522D02*
X1015D01*
Y3497*
X1038*
Y3522*
G37*
G36*
X1110Y3521D02*
X1087D01*
Y3496*
X1110*
Y3521*
G37*
G36*
X2561Y3511D02*
X2494D01*
Y3494*
X2338*
Y3510*
X2291*
Y3459*
X2338*
Y3468*
X2494*
Y3452*
X2561*
Y3511*
G37*
G36*
X2755Y3512D02*
X2708D01*
Y3461*
X2755*
Y3474*
X2911*
Y3452*
X2978*
Y3511*
X2911*
Y3500*
X2755*
Y3512*
G37*
G36*
X1527Y3509D02*
X1480D01*
Y3458*
X1527*
Y3471*
X1685*
Y3444*
X1752*
Y3503*
X1685*
Y3497*
X1527*
Y3509*
G37*
G36*
X616Y3406D02*
X593D01*
Y3381*
X616*
Y3406*
G37*
G36*
Y3371D02*
X593D01*
Y3346*
X616*
Y3371*
G37*
G36*
X443Y3534D02*
X208D01*
Y3267*
X302*
Y2592*
X303Y2584*
X306Y2576*
X312Y2569*
X361Y2519*
X360Y2506*
X361Y2493*
X367Y2480*
X375Y2470*
X386Y2462*
X398Y2456*
X411Y2455*
X425Y2456*
X437Y2462*
X448Y2470*
X456Y2480*
X461Y2493*
X463Y2506*
X461Y2520*
X456Y2532*
X448Y2543*
X437Y2551*
X425Y2556*
X418Y2557*
X413Y2564*
X417Y2573*
X425Y2574*
X437Y2580*
X448Y2588*
X456Y2598*
X461Y2611*
X462Y2619*
X411*
Y2624*
X406*
Y2675*
X398Y2674*
X385Y2669*
X378Y2664*
X368Y2668*
Y2699*
X378Y2703*
X386Y2698*
X398Y2693*
X411Y2691*
X425Y2693*
X437Y2698*
X448Y2706*
X456Y2717*
X459Y2724*
X464Y2725*
X469Y2715*
X465Y2709*
X460Y2697*
X458Y2683*
X460Y2670*
X465Y2658*
X473Y2647*
X484Y2639*
X496Y2634*
X510Y2632*
X523Y2634*
X536Y2639*
X546Y2647*
X554Y2658*
X560Y2670*
X561Y2683*
X560Y2697*
X554Y2709*
X546Y2720*
X536Y2728*
X528Y2731*
X525Y2743*
X659Y2877*
X749*
X753Y2867*
X661Y2775*
X658Y2771*
X657Y2766*
Y2738*
X647Y2731*
X641Y2733*
X628Y2735*
X614Y2733*
X602Y2728*
X591Y2720*
X583Y2709*
X578Y2697*
X576Y2683*
X578Y2670*
X583Y2658*
X591Y2647*
X602Y2639*
X614Y2634*
X628Y2632*
X641Y2634*
X654Y2639*
X664Y2647*
X673Y2658*
X678Y2670*
X679Y2683*
X678Y2697*
X676Y2700*
X679Y2704*
X687Y2705*
X691Y2705*
X700Y2698*
X713Y2693*
X726Y2691*
X740Y2693*
X752Y2698*
X752Y2698*
X816Y2634*
X821Y2631*
X826Y2630*
X1228*
X1233Y2631*
X1237Y2634*
X1375Y2771*
X1490*
X1492Y2769*
X1494Y2761*
X1490Y2756*
X1489Y2749*
X1418Y2678*
X1414Y2672*
X1412Y2665*
Y2498*
X1402Y2493*
X1400Y2494*
X1391Y2496*
X1382Y2494*
X1374Y2489*
X1369Y2482*
X1367Y2473*
X1369Y2463*
X1374Y2456*
X1380Y2452*
Y2288*
X1333*
Y2277*
X1301*
X1296Y2279*
Y2288*
X1303Y2290*
X1310Y2294*
X1314Y2301*
X1316Y2309*
X1314Y2316*
X1310Y2323*
X1304Y2327*
Y2519*
X1313Y2529*
X1317Y2528*
X1326Y2530*
X1334Y2535*
X1339Y2543*
X1341Y2552*
X1339Y2561*
X1334Y2568*
X1326Y2574*
X1317Y2575*
X1308Y2574*
X1301Y2568*
X1296Y2561*
X1294Y2552*
X1295Y2547*
X1281Y2534*
X1278Y2530*
X1277Y2525*
Y2329*
X1262*
X1254Y2327*
X1248Y2323*
X1244Y2316*
X1242Y2309*
X1244Y2301*
X1248Y2294*
X1254Y2290*
X1262Y2288*
Y2279*
X1254Y2277*
X1253Y2276*
X1231*
X1224Y2275*
X1218Y2271*
X1183Y2236*
X1179Y2230*
X1178Y2223*
Y2182*
X1179Y2175*
X1183Y2169*
X1269Y2084*
X1274Y2080*
X1281Y2079*
X1281*
X1610*
X1629Y2060*
X1631Y2053*
X1636Y2045*
X1644Y2040*
X1653Y2038*
X1662Y2040*
X1667Y2044*
X1922*
X1929Y2045*
X1935Y2049*
X2064Y2178*
X2070Y2177*
X2075Y2175*
X2078Y2171*
X2084Y2167*
X2091Y2166*
X2110*
X2204Y2072*
X2208Y2069*
X2213Y2068*
X2328*
X2333Y2069*
X2337Y2072*
X2458Y2192*
X2480*
Y2150*
X2193Y1863*
X1659*
X1658Y1864*
X1651Y1868*
X1644Y1870*
Y1879*
X1651Y1881*
X1658Y1885*
X1662Y1892*
X1664Y1900*
X1664Y1901*
X1679Y1917*
X1813*
X1814Y1917*
X1851*
Y1915*
X1873*
Y1944*
Y1974*
X1851*
Y1972*
X1800*
Y1943*
X1675*
X1673Y1943*
X1668Y1948*
X1666Y1951*
X1664Y1958*
X1660Y1965*
X1652Y1970*
X1644Y1972*
X1632*
Y1950*
X1622*
Y1972*
X1610*
X1602Y1970*
X1595Y1965*
X1590Y1958*
X1589Y1952*
X1581Y1949*
X1578Y1948*
X1475Y2052*
X1471Y2055*
X1466Y2056*
X1354*
X1351Y2060*
X1344Y2065*
X1335Y2067*
X1325Y2065*
X1318Y2060*
X1313Y2053*
X1311Y2044*
X1313Y2034*
X1318Y2027*
X1325Y2022*
X1335Y2020*
X1344Y2022*
X1351Y2027*
X1354Y2031*
X1461*
X1591Y1902*
X1590Y1900*
X1592Y1892*
X1596Y1885*
X1603Y1881*
X1610Y1879*
Y1870*
X1603Y1868*
X1596Y1864*
X1592Y1857*
X1590Y1850*
X1592Y1842*
X1596Y1835*
X1603Y1831*
X1610Y1829*
Y1820*
X1603Y1818*
X1596Y1814*
X1592Y1807*
X1590Y1800*
X1592Y1792*
X1596Y1785*
X1603Y1781*
X1610Y1779*
Y1770*
X1603Y1768*
X1596Y1764*
X1592Y1757*
X1591Y1752*
X1584Y1748*
X1581Y1748*
X1545Y1783*
X1541Y1786*
X1536Y1787*
X1456*
X1449Y1797*
X1449Y1800*
X1448Y1807*
X1443Y1814*
X1437Y1818*
X1429Y1820*
Y1829*
X1437Y1831*
X1443Y1835*
X1448Y1842*
X1449Y1850*
X1448Y1857*
X1443Y1864*
X1437Y1868*
X1429Y1870*
Y1879*
X1437Y1881*
X1443Y1885*
X1448Y1892*
X1449Y1900*
X1448Y1907*
X1443Y1914*
X1437Y1918*
X1429Y1920*
Y1929*
X1437Y1931*
X1443Y1935*
X1448Y1942*
X1449Y1950*
X1448Y1957*
X1443Y1964*
X1437Y1968*
X1429Y1970*
X1396*
X1388Y1968*
X1388Y1968*
X1077*
X1070Y1966*
X1065Y1962*
X1065*
X1028Y1926*
X1003*
Y1928*
X980*
Y1898*
X975*
Y1893*
X947*
Y1868*
X969*
X973Y1859*
X912Y1798*
X873*
X866Y1797*
X860Y1793*
X778Y1711*
X771Y1709*
X769Y1708*
X755*
X727Y1736*
X731Y1746*
X740Y1748*
X752Y1753*
X763Y1761*
X771Y1772*
X776Y1784*
X777Y1793*
X726*
Y1798*
X721*
Y1849*
X713Y1848*
X700Y1842*
X690Y1834*
X686Y1829*
X674Y1829*
X673Y1830*
X673Y1831*
X678Y1843*
X679Y1857*
X678Y1870*
X673Y1882*
X664Y1893*
X654Y1901*
X641Y1906*
X628Y1908*
X614Y1906*
X602Y1901*
X591Y1893*
X583Y1882*
X578Y1870*
X576Y1857*
X578Y1843*
X583Y1831*
X591Y1820*
X602Y1812*
X614Y1807*
X628Y1805*
X635Y1806*
X647Y1794*
Y1772*
X648Y1765*
X652Y1759*
X735Y1677*
X741Y1673*
X748Y1671*
X760*
X764Y1667*
X763Y1659*
X761Y1656*
X760Y1655*
X738*
X556Y1836*
X560Y1843*
X561Y1857*
X560Y1870*
X554Y1882*
X546Y1893*
X536Y1901*
X523Y1906*
X510Y1908*
X496Y1906*
X484Y1901*
X473Y1893*
X465Y1882*
X460Y1870*
X458Y1857*
X460Y1843*
X465Y1831*
X473Y1820*
X484Y1812*
X496Y1807*
X510Y1805*
X523Y1807*
X531Y1810*
X717Y1624*
X723Y1620*
X730Y1618*
X754*
X754Y1618*
X762Y1612*
X771Y1611*
X780Y1612*
X783Y1614*
X977*
X980Y1606*
Y1583*
X1010*
X1039*
Y1606*
X1046Y1613*
X1090*
X1097Y1614*
X1103Y1618*
X1192Y1707*
X1203Y1705*
X1205Y1702*
Y1572*
X1202Y1568*
X1200Y1559*
X1202Y1549*
X1207Y1542*
X1215Y1537*
X1224Y1535*
X1233Y1537*
X1241Y1542*
X1246Y1549*
X1248Y1559*
X1246Y1568*
X1242Y1574*
Y1703*
X1245Y1708*
X1247Y1717*
X1246Y1722*
X1252Y1732*
X1337*
X1377Y1692*
X1377Y1692*
X1382Y1685*
X1388Y1681*
X1396Y1679*
Y1670*
X1388Y1668*
X1382Y1664*
X1377Y1657*
X1376Y1650*
X1376Y1648*
X1362Y1634*
X1359Y1630*
X1358Y1625*
Y1437*
X1359Y1432*
X1362Y1427*
X1383Y1406*
X1387Y1404*
X1392Y1403*
X1845*
X1850Y1404*
X1854Y1406*
X2563Y2115*
X2565Y2119*
X2566Y2124*
Y2132*
X2803*
Y2168*
X2931*
Y2155*
X2960*
X2988*
Y2176*
X2986*
Y2225*
X2933*
Y2195*
X2933Y2194*
X2803*
Y2201*
X2802*
Y2332*
X2804Y2333*
X2809Y2341*
X2811Y2350*
X2809Y2359*
X2804Y2367*
X2796Y2372*
X2787Y2374*
X2778Y2372*
X2770Y2367*
X2765Y2359*
X2763Y2350*
X2765Y2341*
X2770Y2333*
X2775Y2330*
Y2201*
X2585*
X2584Y2203*
X2581Y2207*
X2574Y2215*
X2570Y2218*
X2564Y2219*
X2452*
X2447Y2218*
X2443Y2215*
X2323Y2094*
X2219*
X2129Y2184*
X2128Y2191*
X2124Y2196*
X2124Y2196*
X2124Y2198*
X2133Y2208*
X2157*
X2191Y2174*
Y2137*
X2242*
Y2135*
X2265*
Y2165*
Y2195*
X2242*
Y2192*
X2210*
X2172Y2230*
X2168Y2233*
X2163Y2234*
X2135*
X2131Y2244*
X2132Y2245*
X2177*
X2181Y2241*
X2185Y2238*
X2190Y2237*
X2289*
X2294Y2238*
X2299Y2241*
X2329Y2271*
X2359*
X2363Y2262*
X2337Y2235*
X2336Y2235*
X2333Y2234*
X2325Y2229*
X2320Y2221*
X2318Y2212*
X2320Y2203*
X2325Y2195*
X2333Y2190*
X2342Y2188*
X2351Y2190*
X2359Y2195*
X2359Y2195*
X2371*
X2372Y2194*
X2379Y2189*
X2388Y2187*
X2397Y2189*
X2405Y2194*
X2410Y2202*
X2412Y2211*
X2410Y2220*
X2410Y2221*
X2414Y2231*
X2450*
Y2270*
Y2310*
Y2347*
X2452*
Y2358*
X2415*
X2379*
Y2347*
X2381*
Y2297*
X2323*
X2318Y2296*
X2314Y2294*
X2305Y2285*
X2294Y2288*
X2294Y2294*
X2369Y2369*
X2379Y2368*
Y2368*
X2415*
X2452*
Y2379*
X2450*
Y2389*
X2832*
Y2388*
X2868*
X2905*
Y2389*
X2937*
Y2366*
X2934*
Y2343*
X2964*
X2994*
Y2366*
X2992*
Y2417*
X2937*
Y2415*
X2903*
Y2448*
X3048*
Y2436*
X3046*
Y2415*
X3075*
X3103*
Y2436*
X3101*
Y2485*
X3048*
Y2475*
X2954*
Y2560*
X2957Y2562*
X2962Y2570*
X2964Y2579*
X2962Y2588*
X2960Y2593*
X2964Y2603*
X3037*
X3046Y2599*
Y2577*
X3074*
X3103*
Y2599*
X3101*
Y2648*
X3048*
Y2629*
X2803*
Y2653*
X2802*
Y2731*
X2805Y2733*
X2810Y2740*
X2812Y2750*
X2810Y2759*
X2805Y2766*
X2797Y2771*
X2788Y2773*
X2779Y2771*
X2771Y2766*
X2766Y2759*
X2764Y2750*
X2766Y2740*
X2771Y2733*
X2776Y2730*
Y2692*
X2766Y2688*
X2693Y2761*
X2696Y2772*
X2700Y2775*
X2705Y2783*
X2707Y2792*
X2705Y2801*
X2711Y2807*
X2714Y2811*
X2715Y2816*
Y2980*
X2725*
Y3024*
X2824*
Y3010*
X2879*
Y3062*
Y3063*
Y3115*
X2824*
Y3107*
X2777*
X2725Y3159*
Y3244*
X2722*
Y3279*
X2731*
Y3334*
X2712*
X2710Y3337*
X2690Y3357*
X2684Y3361*
X2677Y3362*
X2414*
X2407Y3361*
X2402Y3357*
X2402*
X2159Y3115*
X2130*
Y3107*
X2096*
X2089Y3106*
X2083Y3102*
X2062Y3081*
X2054Y3079*
X2049Y3076*
X1297*
X1290Y3074*
X1284Y3070*
X1219Y3006*
X1216Y3000*
X1214Y2993*
Y2993*
Y2960*
X1216Y2953*
X1219Y2947*
X1236Y2931*
X1182Y2876*
X1163*
X1160Y2878*
X1151Y2880*
X1142Y2878*
X1134Y2873*
X1129Y2865*
X1127Y2856*
X1129Y2847*
X1134Y2839*
X1142Y2834*
X1151Y2832*
X1160Y2834*
X1168Y2839*
X1168Y2840*
X1189*
X1196Y2841*
X1202Y2845*
X1231Y2874*
X1239Y2872*
X1242Y2871*
X1246Y2865*
X1254Y2860*
X1256Y2860*
Y2849*
X1254Y2849*
X1248Y2845*
X1244Y2838*
X1242Y2831*
X1244Y2823*
X1248Y2816*
X1254Y2812*
X1262Y2810*
X1296*
X1303Y2812*
X1310Y2816*
X1310Y2817*
X1734*
X1739Y2818*
X1743Y2821*
X1773*
Y2797*
X1369*
X1364Y2796*
X1360Y2794*
X1223Y2656*
X1027*
Y2687*
X1027Y2688*
Y2792*
X1046Y2811*
X1047Y2810*
X1081*
X1089Y2812*
X1095Y2816*
X1100Y2823*
X1101Y2831*
X1100Y2838*
X1096Y2843*
X1100Y2846*
X1115Y2861*
X1118Y2865*
X1119Y2870*
Y2956*
X1118Y2961*
X1115Y2965*
X1101Y2979*
X1101Y2981*
X1100Y2988*
X1095Y2995*
X1089Y2999*
X1081Y3001*
X1077*
Y3067*
X1090*
Y3118*
X1092*
Y3141*
X1062*
X1033*
Y3118*
X1035*
Y3067*
X1051*
Y3001*
X1047*
X1040Y2999*
X1033Y2995*
X1033Y2994*
X998*
Y3008*
X945*
Y2959*
Y2957*
Y2934*
X643*
X637Y2932*
X631Y2929*
X468Y2766*
X456Y2768*
X456Y2768*
X448Y2779*
X437Y2787*
X425Y2792*
X411Y2794*
X398Y2792*
X386Y2787*
X378Y2782*
X368Y2786*
Y3267*
X443*
Y3372*
X509*
Y3348*
X560*
Y3346*
X583*
Y3376*
Y3406*
X560*
Y3404*
X509*
Y3399*
X443*
Y3534*
G37*
G36*
X1092Y3174D02*
X1067D01*
Y3151*
X1092*
Y3174*
G37*
G36*
X1057D02*
X1033D01*
Y3151*
X1057*
Y3174*
G37*
G36*
X155Y3101D02*
X141Y3100D01*
X127Y3096*
X115Y3089*
X104Y3080*
X95Y3069*
X88Y3056*
X84Y3042*
X82Y3028*
X84Y3014*
X88Y3000*
X95Y2987*
X104Y2976*
X115Y2967*
X127Y2960*
X141Y2956*
X155Y2955*
X170Y2956*
X183Y2960*
X196Y2967*
X207Y2976*
X216Y2987*
X223Y3000*
X227Y3014*
X229Y3028*
X227Y3042*
X223Y3056*
X216Y3069*
X207Y3080*
X196Y3089*
X183Y3096*
X170Y3100*
X155Y3101*
G37*
G36*
X416Y2675D02*
Y2629D01*
X462*
X461Y2638*
X456Y2650*
X448Y2661*
X437Y2669*
X425Y2674*
X416Y2675*
G37*
G36*
X726Y2676D02*
X713Y2674D01*
X700Y2669*
X690Y2661*
X682Y2650*
X676Y2638*
X675Y2624*
X676Y2611*
X682Y2599*
X690Y2588*
X700Y2580*
X713Y2574*
X726Y2573*
X740Y2574*
X752Y2580*
X763Y2588*
X771Y2599*
X776Y2611*
X778Y2624*
X776Y2638*
X771Y2650*
X763Y2661*
X752Y2669*
X740Y2674*
X726Y2676*
G37*
G36*
X633Y2616D02*
Y2570D01*
X679*
X678Y2579*
X673Y2591*
X664Y2602*
X654Y2610*
X641Y2615*
X633Y2616*
G37*
G36*
X515D02*
Y2570D01*
X561*
X560Y2579*
X555Y2591*
X546Y2602*
X536Y2610*
X523Y2615*
X515Y2616*
G37*
G36*
X623D02*
X614Y2615D01*
X602Y2610*
X591Y2602*
X583Y2591*
X578Y2579*
X577Y2570*
X623*
Y2616*
G37*
G36*
X505D02*
X496Y2615D01*
X484Y2610*
X473Y2602*
X465Y2591*
X460Y2579*
X459Y2570*
X505*
Y2616*
G37*
G36*
X3103Y2567D02*
X3079D01*
Y2546*
X3103*
Y2567*
G37*
G36*
X3069D02*
X3046D01*
Y2546*
X3069*
Y2567*
G37*
G36*
X623Y2560D02*
X577D01*
X578Y2552*
X583Y2539*
X591Y2529*
X602Y2520*
X614Y2515*
X623Y2514*
Y2560*
G37*
G36*
X505D02*
X459D01*
X460Y2552*
X465Y2539*
X473Y2529*
X484Y2520*
X496Y2515*
X505Y2514*
Y2560*
G37*
G36*
X679D02*
X633D01*
Y2514*
X641Y2515*
X654Y2520*
X664Y2529*
X673Y2539*
X678Y2552*
X679Y2560*
G37*
G36*
X561D02*
X515D01*
Y2514*
X523Y2515*
X536Y2520*
X546Y2529*
X555Y2539*
X560Y2552*
X561Y2560*
G37*
G36*
X726Y2558D02*
X713Y2556D01*
X700Y2551*
X690Y2543*
X682Y2532*
X676Y2520*
X675Y2506*
X676Y2493*
X682Y2480*
X690Y2470*
X700Y2462*
X713Y2456*
X726Y2455*
X740Y2456*
X752Y2462*
X763Y2470*
X771Y2480*
X776Y2493*
X778Y2506*
X776Y2520*
X771Y2532*
X763Y2543*
X752Y2551*
X740Y2556*
X726Y2558*
G37*
G36*
X633Y2498D02*
Y2452D01*
X679*
X678Y2461*
X673Y2473*
X664Y2484*
X654Y2492*
X641Y2497*
X633Y2498*
G37*
G36*
X515D02*
Y2452D01*
X561*
X560Y2461*
X555Y2473*
X546Y2484*
X536Y2492*
X523Y2497*
X515Y2498*
G37*
G36*
X623D02*
X614Y2497D01*
X602Y2492*
X591Y2484*
X583Y2473*
X578Y2461*
X577Y2452*
X623*
Y2498*
G37*
G36*
X505D02*
X496Y2497D01*
X484Y2492*
X473Y2484*
X465Y2473*
X460Y2461*
X459Y2452*
X505*
Y2498*
G37*
G36*
X1143Y2462D02*
X1121D01*
Y2438*
X1143*
Y2462*
G37*
G36*
Y2428D02*
X1121D01*
Y2403*
X1143*
Y2428*
G37*
G36*
X679Y2442D02*
X633D01*
Y2396*
X641Y2397*
X654Y2402*
X664Y2411*
X673Y2421*
X678Y2434*
X679Y2442*
G37*
G36*
X561D02*
X515D01*
Y2396*
X523Y2397*
X536Y2402*
X546Y2411*
X555Y2421*
X560Y2434*
X561Y2442*
G37*
G36*
X623D02*
X577D01*
X578Y2434*
X583Y2421*
X591Y2411*
X602Y2402*
X614Y2397*
X623Y2396*
Y2442*
G37*
G36*
X505D02*
X459D01*
X460Y2434*
X465Y2421*
X473Y2411*
X484Y2402*
X496Y2397*
X505Y2396*
Y2442*
G37*
G36*
X3103Y2405D02*
X3080D01*
Y2383*
X3103*
Y2405*
G37*
G36*
X3070D02*
X3046D01*
Y2383*
X3070*
Y2405*
G37*
G36*
X726Y2440D02*
X713Y2438D01*
X700Y2433*
X690Y2425*
X682Y2414*
X676Y2401*
X675Y2388*
X676Y2375*
X682Y2362*
X690Y2352*
X700Y2343*
X713Y2338*
X726Y2337*
X740Y2338*
X752Y2343*
X763Y2352*
X771Y2362*
X776Y2375*
X778Y2388*
X776Y2401*
X771Y2414*
X763Y2425*
X752Y2433*
X740Y2438*
X726Y2440*
G37*
G36*
X633Y2380D02*
Y2334D01*
X679*
X678Y2342*
X673Y2355*
X664Y2366*
X654Y2374*
X641Y2379*
X633Y2380*
G37*
G36*
X515D02*
Y2334D01*
X561*
X560Y2342*
X555Y2355*
X546Y2366*
X536Y2374*
X523Y2379*
X515Y2380*
G37*
G36*
X623D02*
X614Y2379D01*
X602Y2374*
X591Y2366*
X583Y2355*
X578Y2342*
X577Y2334*
X623*
Y2380*
G37*
G36*
X505D02*
X496Y2379D01*
X484Y2374*
X473Y2366*
X465Y2355*
X460Y2342*
X459Y2334*
X505*
Y2380*
G37*
G36*
X1111Y2462D02*
X1088D01*
Y2460*
X1037*
Y2405*
X1050*
Y2329*
X1047*
X1040Y2327*
X1034Y2323*
X1013*
Y2334*
X960*
Y2284*
Y2283*
Y2257*
X925*
X919Y2256*
X914Y2252*
X791Y2129*
X779Y2130*
X775Y2136*
X776Y2139*
X778Y2152*
X776Y2165*
X771Y2178*
X763Y2188*
X752Y2197*
X740Y2202*
X726Y2204*
X713Y2202*
X700Y2197*
X690Y2188*
X682Y2178*
X676Y2165*
X675Y2152*
X676Y2139*
X682Y2126*
X690Y2115*
X700Y2107*
X713Y2102*
X726Y2100*
X740Y2102*
X750Y2106*
X756Y2100*
X761Y2093*
X756Y2086*
X750Y2079*
X740Y2084*
X726Y2085*
X713Y2084*
X700Y2079*
X690Y2070*
X682Y2060*
X676Y2047*
X675Y2034*
X676Y2020*
X682Y2008*
X690Y1997*
X700Y1989*
X713Y1984*
X726Y1982*
X740Y1984*
X752Y1989*
X763Y1997*
X771Y2008*
X776Y2020*
X778Y2034*
X776Y2047*
X772Y2057*
X779Y2065*
X799*
X805Y2066*
X810Y2069*
X941Y2201*
X960*
Y2174*
Y2173*
Y2164*
Y2121*
X1015*
Y2154*
X1017Y2156*
X1024*
X1028Y2157*
X1029Y2151*
X1033Y2144*
X1040Y2140*
X1047Y2138*
X1051*
Y2097*
X1041*
Y2042*
X1092*
Y2040*
X1115*
Y2070*
Y2099*
X1092*
Y2097*
X1077*
Y2138*
X1081*
X1089Y2140*
X1095Y2144*
X1099Y2151*
X1101Y2159*
X1099Y2166*
X1096Y2171*
X1100Y2174*
X1115Y2189*
X1118Y2193*
X1119Y2198*
Y2284*
X1118Y2289*
X1115Y2293*
X1101Y2307*
X1101Y2309*
X1099Y2316*
X1095Y2323*
X1089Y2327*
X1081Y2329*
X1078*
Y2402*
X1088Y2403*
X1111*
Y2433*
Y2462*
G37*
G36*
X2994Y2333D02*
X2969D01*
Y2310*
X2994*
Y2333*
G37*
G36*
X2959D02*
X2934D01*
Y2310*
X2959*
Y2333*
G37*
G36*
X679Y2324D02*
X633D01*
Y2278*
X641Y2279*
X654Y2284*
X664Y2292*
X673Y2303*
X678Y2316*
X679Y2324*
G37*
G36*
X561D02*
X515D01*
Y2278*
X523Y2279*
X536Y2284*
X546Y2292*
X555Y2303*
X560Y2316*
X561Y2324*
G37*
G36*
X623D02*
X577D01*
X578Y2316*
X583Y2303*
X591Y2292*
X602Y2284*
X614Y2279*
X623Y2278*
Y2324*
G37*
G36*
X505D02*
X459D01*
X460Y2316*
X465Y2303*
X473Y2292*
X484Y2284*
X496Y2279*
X505Y2278*
Y2324*
G37*
G36*
X2905Y2378D02*
X2868D01*
X2832*
Y2367*
X2834*
Y2349*
Y2310*
Y2270*
Y2231*
X2903*
Y2251*
Y2290*
Y2330*
Y2367*
X2905*
Y2378*
G37*
G36*
X726Y2322D02*
X713Y2320D01*
X700Y2315*
X690Y2307*
X682Y2296*
X676Y2283*
X675Y2270*
X676Y2257*
X682Y2244*
X690Y2234*
X700Y2225*
X713Y2220*
X726Y2218*
X740Y2220*
X752Y2225*
X763Y2234*
X771Y2244*
X776Y2257*
X778Y2270*
X776Y2283*
X771Y2296*
X763Y2307*
X752Y2315*
X740Y2320*
X726Y2322*
G37*
G36*
X633Y2262D02*
Y2216D01*
X679*
X678Y2224*
X673Y2237*
X664Y2248*
X654Y2256*
X641Y2261*
X633Y2262*
G37*
G36*
X515D02*
Y2216D01*
X561*
X560Y2224*
X555Y2237*
X546Y2248*
X536Y2256*
X523Y2261*
X515Y2262*
G37*
G36*
X623D02*
X614Y2261D01*
X602Y2256*
X591Y2248*
X583Y2237*
X578Y2224*
X577Y2216*
X623*
Y2262*
G37*
G36*
X505D02*
X496Y2261D01*
X484Y2256*
X473Y2248*
X465Y2237*
X460Y2224*
X459Y2216*
X505*
Y2262*
G37*
G36*
X2298Y2195D02*
X2275D01*
Y2170*
X2298*
Y2195*
G37*
G36*
X679Y2206D02*
X633D01*
Y2160*
X641Y2161*
X654Y2166*
X664Y2174*
X673Y2185*
X678Y2198*
X679Y2206*
G37*
G36*
X561D02*
X515D01*
Y2160*
X523Y2161*
X536Y2166*
X546Y2174*
X555Y2185*
X560Y2198*
X561Y2206*
G37*
G36*
X623D02*
X577D01*
X578Y2198*
X583Y2185*
X591Y2174*
X602Y2166*
X614Y2161*
X623Y2160*
Y2206*
G37*
G36*
X505D02*
X459D01*
X460Y2198*
X465Y2185*
X473Y2174*
X484Y2166*
X496Y2161*
X505Y2160*
Y2206*
G37*
G36*
X2298Y2160D02*
X2275D01*
Y2135*
X2298*
Y2160*
G37*
G36*
X2988Y2145D02*
X2965D01*
Y2123*
X2988*
Y2145*
G37*
G36*
X2955D02*
X2931D01*
Y2123*
X2955*
Y2145*
G37*
G36*
X411Y2204D02*
X398Y2202D01*
X386Y2197*
X375Y2188*
X367Y2178*
X361Y2165*
X360Y2152*
X361Y2139*
X367Y2126*
X375Y2115*
X386Y2107*
X398Y2102*
X411Y2100*
X425Y2102*
X437Y2107*
X448Y2115*
X456Y2126*
X461Y2139*
X463Y2152*
X461Y2165*
X456Y2178*
X448Y2188*
X437Y2197*
X425Y2202*
X411Y2204*
G37*
G36*
X633Y2144D02*
Y2098D01*
X679*
X678Y2106*
X673Y2119*
X664Y2129*
X654Y2138*
X641Y2143*
X633Y2144*
G37*
G36*
X515D02*
Y2098D01*
X561*
X560Y2106*
X555Y2119*
X546Y2129*
X536Y2138*
X523Y2143*
X515Y2144*
G37*
G36*
X623D02*
X614Y2143D01*
X602Y2138*
X591Y2129*
X583Y2119*
X578Y2106*
X577Y2098*
X623*
Y2144*
G37*
G36*
X505D02*
X496Y2143D01*
X484Y2138*
X473Y2129*
X465Y2119*
X460Y2106*
X459Y2098*
X505*
Y2144*
G37*
G36*
X1148Y2099D02*
X1125D01*
Y2075*
X1148*
Y2099*
G37*
G36*
X679Y2088D02*
X633D01*
Y2042*
X641Y2043*
X654Y2048*
X664Y2056*
X673Y2067*
X678Y2079*
X679Y2088*
G37*
G36*
X561D02*
X515D01*
Y2042*
X523Y2043*
X536Y2048*
X546Y2056*
X555Y2067*
X560Y2079*
X561Y2088*
G37*
G36*
X623D02*
X577D01*
X578Y2079*
X583Y2067*
X591Y2056*
X602Y2048*
X614Y2043*
X623Y2042*
Y2088*
G37*
G36*
X505D02*
X459D01*
X460Y2079*
X465Y2067*
X473Y2056*
X484Y2048*
X496Y2043*
X505Y2042*
Y2088*
G37*
G36*
X1148Y2065D02*
X1125D01*
Y2040*
X1148*
Y2065*
G37*
G36*
X411Y2085D02*
X398Y2084D01*
X386Y2079*
X375Y2070*
X367Y2060*
X361Y2047*
X360Y2034*
X361Y2020*
X367Y2008*
X375Y1997*
X386Y1989*
X398Y1984*
X411Y1982*
X425Y1984*
X437Y1989*
X448Y1997*
X456Y2008*
X461Y2020*
X463Y2034*
X461Y2047*
X456Y2060*
X448Y2070*
X437Y2079*
X425Y2084*
X411Y2085*
G37*
G36*
X633Y2026D02*
Y1980D01*
X679*
X678Y1988*
X673Y2001*
X664Y2011*
X654Y2020*
X641Y2025*
X633Y2026*
G37*
G36*
X515D02*
Y1980D01*
X561*
X560Y1988*
X555Y2001*
X546Y2011*
X536Y2020*
X523Y2025*
X515Y2026*
G37*
G36*
X623D02*
X614Y2025D01*
X602Y2020*
X591Y2011*
X583Y2001*
X578Y1988*
X577Y1980*
X623*
Y2026*
G37*
G36*
X505D02*
X496Y2025D01*
X484Y2020*
X473Y2011*
X465Y2001*
X460Y1988*
X459Y1980*
X505*
Y2026*
G37*
G36*
X1906Y1974D02*
X1883D01*
Y1949*
X1906*
Y1974*
G37*
G36*
X623Y1970D02*
X577D01*
X578Y1961*
X583Y1949*
X591Y1938*
X602Y1930*
X614Y1925*
X623Y1924*
Y1970*
G37*
G36*
X505D02*
X459D01*
X460Y1961*
X465Y1949*
X473Y1938*
X484Y1930*
X496Y1925*
X505Y1924*
Y1970*
G37*
G36*
X679D02*
X633D01*
Y1924*
X641Y1925*
X654Y1930*
X664Y1938*
X673Y1949*
X678Y1961*
X679Y1970*
G37*
G36*
X561D02*
X515D01*
Y1924*
X523Y1925*
X536Y1930*
X546Y1938*
X555Y1949*
X560Y1961*
X561Y1970*
G37*
G36*
X1906Y1939D02*
X1883D01*
Y1915*
X1906*
Y1939*
G37*
G36*
X970Y1928D02*
X947D01*
Y1903*
X970*
Y1928*
G37*
G36*
X726Y1967D02*
X713Y1966D01*
X700Y1960*
X690Y1952*
X682Y1941*
X676Y1929*
X675Y1916*
X676Y1902*
X682Y1890*
X690Y1879*
X700Y1871*
X713Y1866*
X726Y1864*
X740Y1866*
X752Y1871*
X763Y1879*
X771Y1890*
X776Y1902*
X778Y1916*
X776Y1929*
X771Y1941*
X763Y1952*
X752Y1960*
X740Y1966*
X726Y1967*
G37*
G36*
X731Y1849D02*
Y1803D01*
X777*
X776Y1811*
X771Y1823*
X763Y1834*
X752Y1842*
X740Y1848*
X731Y1849*
G37*
G36*
X1039Y1573D02*
X1015D01*
Y1550*
X1039*
Y1573*
G37*
G36*
X1005D02*
X980D01*
Y1550*
X1005*
Y1573*
G37*
G36*
X155Y1585D02*
X141Y1584D01*
X127Y1580*
X115Y1573*
X104Y1564*
X95Y1553*
X88Y1540*
X84Y1526*
X82Y1512*
X84Y1498*
X88Y1484*
X95Y1471*
X104Y1460*
X115Y1451*
X127Y1445*
X141Y1440*
X155Y1439*
X170Y1440*
X183Y1445*
X196Y1451*
X207Y1460*
X216Y1471*
X223Y1484*
X227Y1498*
X229Y1512*
X227Y1526*
X223Y1540*
X216Y1553*
X207Y1564*
X196Y1573*
X183Y1580*
X170Y1584*
X155Y1585*
G37*
G36*
X2019Y1217D02*
X1952D01*
Y1176*
X1945Y1170*
X1828*
X1826Y1169*
X1797*
X1789*
X1779*
X1736*
Y1114*
X1761*
Y1016*
X1762Y1011*
X1765Y1007*
X1813Y959*
X1811Y954*
X1810Y945*
X1811Y936*
X1815Y927*
X1809Y918*
X1799*
X1780Y936*
X1782Y945*
X1780Y954*
X1777Y963*
X1771Y970*
X1764Y976*
X1755Y979*
X1746Y981*
X1737Y979*
X1728Y976*
X1721Y970*
X1715Y963*
X1711Y954*
X1710Y945*
X1711Y936*
X1715Y927*
X1721Y920*
X1728Y914*
X1737Y910*
X1746Y909*
X1755Y910*
X1778Y887*
X1784Y883*
X1791Y881*
X2133*
X2140Y883*
X2146Y887*
X2170Y910*
X2179Y909*
X2188Y910*
X2197Y914*
X2204Y920*
X2210Y927*
X2213Y936*
X2215Y945*
X2213Y954*
X2210Y963*
X2204Y970*
X2197Y976*
X2188Y979*
X2179Y981*
X2170Y979*
X2161Y976*
X2154Y970*
X2148Y963*
X2144Y954*
X2143Y945*
X2144Y936*
X2126Y918*
X1982*
X1977Y927*
X1980Y936*
X1982Y945*
X1980Y954*
X1977Y963*
X1971Y970*
X1964Y976*
X1955Y979*
X1946Y981*
X1937Y979*
X1928Y976*
X1921Y970*
X1915Y963*
X1911Y954*
X1910Y945*
X1911Y936*
X1915Y927*
X1909Y918*
X1882*
X1877Y927*
X1880Y936*
X1882Y945*
X1880Y954*
X1877Y963*
X1871Y970*
X1864Y976*
X1855Y979*
X1846Y981*
X1837Y979*
X1832Y977*
X1788Y1022*
Y1105*
X1789Y1114*
X1798*
X1840*
Y1143*
X1951*
X1956Y1144*
X1960Y1147*
X1970Y1158*
X2019*
Y1217*
G37*
G36*
X2368Y1204D02*
X2301D01*
Y1170*
X2221*
X2220Y1169*
X2191*
X2183*
X2173*
X2130*
Y1114*
X2155*
Y1056*
X2156Y1051*
X2159Y1046*
X2246Y959*
X2244Y954*
X2243Y945*
X2244Y936*
X2175Y867*
X1511*
X1504Y866*
X1498Y862*
X1428Y792*
X1422Y794*
X1410Y796*
X1398Y794*
X1386Y789*
X1376Y782*
X1369Y772*
X1364Y760*
X1362Y748*
X1364Y736*
X1369Y724*
X1376Y714*
X1386Y707*
X1398Y702*
X1410Y700*
X1422Y702*
X1434Y707*
X1444Y714*
X1451Y724*
X1456Y736*
X1458Y748*
X1456Y760*
X1454Y766*
X1518Y831*
X2036*
X2042Y821*
X2041Y815*
X2043Y806*
X2048Y798*
X2056Y793*
X2062Y792*
X2115Y739*
X2121Y735*
X2128Y734*
X2179*
X2181Y728*
X2189Y718*
X2199Y711*
X2210Y706*
X2222Y704*
X2235Y706*
X2246Y711*
X2256Y718*
X2264Y728*
X2268Y740*
X2270Y752*
X2268Y764*
X2264Y776*
X2256Y786*
X2246Y793*
X2235Y798*
X2222Y800*
X2210Y798*
X2199Y793*
X2189Y786*
X2181Y776*
X2179Y770*
X2135*
X2088Y818*
X2088Y821*
X2094Y831*
X2183*
X2190Y832*
X2196Y836*
X2270Y910*
X2279Y909*
X2288Y910*
X2297Y914*
X2304Y920*
X2310Y927*
X2313Y936*
X2315Y945*
X2313Y954*
X2310Y963*
X2304Y970*
X2297Y976*
X2288Y979*
X2279Y981*
X2270Y979*
X2265Y977*
X2181Y1061*
Y1105*
X2183Y1114*
X2191*
X2234*
Y1143*
X2313*
X2318Y1144*
X2319Y1145*
X2368*
Y1204*
G37*
G36*
X1627Y1134D02*
X1596D01*
Y1107*
X1627*
Y1134*
G37*
G36*
X1586D02*
X1556D01*
Y1107*
X1586*
Y1134*
G37*
G36*
X2021Y1128D02*
X1990D01*
Y1102*
X2021*
Y1128*
G37*
G36*
X1980D02*
X1950D01*
Y1102*
X1980*
Y1128*
G37*
G36*
X2370Y1116D02*
X2340D01*
Y1089*
X2370*
Y1116*
G37*
G36*
X2330D02*
X2299D01*
Y1089*
X2330*
Y1116*
G37*
G36*
X1627Y1097D02*
X1596D01*
Y1071*
X1627*
Y1097*
G37*
G36*
X1586D02*
X1556D01*
Y1071*
X1586*
Y1097*
G37*
G36*
X2021Y1092D02*
X1990D01*
Y1065*
X2021*
Y1092*
G37*
G36*
X1980D02*
X1950D01*
Y1065*
X1980*
Y1092*
G37*
G36*
X2370Y1079D02*
X2340D01*
Y1052*
X2370*
Y1079*
G37*
G36*
X2330D02*
X2299D01*
Y1052*
X2330*
Y1079*
G37*
G36*
X1198Y981D02*
X1189Y979D01*
X1180Y976*
X1173Y970*
X1167Y963*
X1163Y954*
X1162Y945*
X1163Y936*
X1167Y927*
X1173Y920*
X1180Y914*
X1189Y910*
X1198Y909*
X1207Y910*
X1216Y914*
X1223Y920*
X1229Y927*
X1232Y936*
X1234Y945*
X1232Y954*
X1229Y963*
X1223Y970*
X1216Y976*
X1207Y979*
X1198Y981*
G37*
G36*
X1098D02*
X1089Y979D01*
X1080Y976*
X1073Y970*
X1067Y963*
X1063Y954*
X1062Y945*
X1063Y936*
X1067Y927*
X1073Y920*
X1080Y914*
X1089Y910*
X1098Y909*
X1107Y910*
X1116Y914*
X1123Y920*
X1129Y927*
X1132Y936*
X1134Y945*
X1132Y954*
X1129Y963*
X1123Y970*
X1116Y976*
X1107Y979*
X1098Y981*
G37*
G36*
X2379D02*
X2370Y979D01*
X2361Y976*
X2354Y970*
X2348Y963*
X2344Y954*
X2343Y945*
X2344Y936*
X2348Y927*
X2354Y920*
X2361Y914*
X2370Y910*
X2379Y909*
X2388Y910*
X2397Y914*
X2404Y920*
X2410Y927*
X2413Y936*
X2415Y945*
X2413Y954*
X2410Y963*
X2404Y970*
X2397Y976*
X2388Y979*
X2379Y981*
G37*
G36*
X2397Y799D02*
Y757D01*
X2439*
X2438Y764*
X2433Y776*
X2425Y786*
X2416Y793*
X2404Y798*
X2397Y799*
G37*
G36*
X2387D02*
X2379Y798D01*
X2368Y793*
X2358Y786*
X2350Y776*
X2346Y764*
X2345Y757*
X2387*
Y799*
G37*
G36*
X1978Y795D02*
Y753D01*
X2020*
X2019Y760*
X2014Y772*
X2007Y782*
X1997Y789*
X1985Y794*
X1978Y795*
G37*
G36*
X1584D02*
Y753D01*
X1626*
X1625Y760*
X1621Y772*
X1613Y782*
X1603Y789*
X1592Y794*
X1584Y795*
G37*
G36*
X1968D02*
X1961Y794D01*
X1949Y789*
X1939Y782*
X1932Y772*
X1927Y760*
X1926Y753*
X1968*
Y795*
G37*
G36*
X1574D02*
X1567Y794D01*
X1555Y789*
X1545Y782*
X1538Y772*
X1533Y760*
X1532Y753*
X1574*
Y795*
G37*
G36*
X2387Y747D02*
X2345D01*
X2346Y740*
X2350Y728*
X2358Y718*
X2368Y711*
X2379Y706*
X2387Y705*
Y747*
G37*
G36*
X2439D02*
X2397D01*
Y705*
X2404Y706*
X2416Y711*
X2425Y718*
X2433Y728*
X2438Y740*
X2439Y747*
G37*
G36*
X1968Y743D02*
X1926D01*
X1927Y736*
X1932Y724*
X1939Y714*
X1949Y707*
X1961Y702*
X1968Y701*
Y743*
G37*
G36*
X1574D02*
X1532D01*
X1533Y736*
X1538Y724*
X1545Y714*
X1555Y707*
X1567Y702*
X1574Y701*
Y743*
G37*
G36*
X2020D02*
X1978D01*
Y701*
X1985Y702*
X1997Y707*
X2007Y714*
X2014Y724*
X2019Y736*
X2020Y743*
G37*
G36*
X1626D02*
X1584D01*
Y701*
X1592Y702*
X1603Y707*
X1613Y714*
X1621Y724*
X1625Y736*
X1626Y743*
G37*
G36*
X1804Y796D02*
X1791Y794D01*
X1780Y789*
X1770Y782*
X1762Y772*
X1758Y760*
X1756Y748*
X1758Y736*
X1762Y724*
X1770Y714*
X1780Y707*
X1791Y702*
X1804Y700*
X1816Y702*
X1828Y707*
X1837Y714*
X1845Y724*
X1850Y736*
X1851Y748*
X1850Y760*
X1845Y772*
X1837Y782*
X1828Y789*
X1816Y794*
X1804Y796*
G37*
G36*
X1186D02*
X1173Y794D01*
X1162Y789*
X1152Y782*
X1144Y772*
X1140Y760*
X1138Y748*
X1140Y736*
X1144Y724*
X1152Y714*
X1162Y707*
X1173Y702*
X1186Y700*
X1198Y702*
X1209Y707*
X1219Y714*
X1227Y724*
X1232Y736*
X1233Y748*
X1232Y760*
X1227Y772*
X1219Y782*
X1209Y789*
X1198Y794*
X1186Y796*
G37*
G36*
X2197Y593D02*
X2182Y591D01*
X2168Y585*
X2156Y576*
X2147Y564*
X2141Y550*
X2139Y535*
X2141Y521*
X2147Y507*
X2156Y495*
X2168Y486*
X2182Y480*
X2197Y478*
X2212Y480*
X2226Y486*
X2238Y495*
X2247Y507*
X2252Y521*
X2254Y535*
X2252Y550*
X2247Y564*
X2238Y576*
X2226Y585*
X2212Y591*
X2197Y593*
G37*
G36*
X1778Y589D02*
X1763Y587D01*
X1749Y581*
X1737Y572*
X1728Y560*
X1722Y546*
X1721Y532*
X1722Y517*
X1728Y503*
X1737Y491*
X1749Y482*
X1763Y476*
X1778Y474*
X1793Y476*
X1807Y482*
X1819Y491*
X1828Y503*
X1834Y517*
X1836Y532*
X1834Y546*
X1828Y560*
X1819Y572*
X1807Y581*
X1793Y587*
X1778Y589*
G37*
G36*
X1384D02*
X1369Y587D01*
X1356Y581*
X1344Y572*
X1335Y560*
X1329Y546*
X1327Y532*
X1329Y517*
X1335Y503*
X1344Y491*
X1356Y482*
X1369Y476*
X1384Y474*
X1399Y476*
X1413Y482*
X1425Y491*
X1434Y503*
X1440Y517*
X1442Y532*
X1440Y546*
X1434Y560*
X1425Y572*
X1413Y581*
X1399Y587*
X1384Y589*
G37*
G36*
X329Y228D02*
Y180D01*
X377*
X376Y188*
X371Y201*
X362Y213*
X351Y221*
X338Y226*
X329Y228*
G37*
G36*
X319D02*
X310Y226D01*
X297Y221*
X286Y213*
X278Y201*
X272Y188*
X271Y180*
X319*
Y228*
G37*
G36*
X377Y170D02*
X329D01*
Y121*
X338Y123*
X351Y128*
X362Y137*
X371Y148*
X376Y161*
X377Y170*
G37*
G36*
X319D02*
X271D01*
X272Y161*
X278Y148*
X286Y137*
X297Y128*
X310Y123*
X319Y121*
Y170*
G37*
G36*
X620Y228D02*
X606Y226D01*
X593Y221*
X582Y212*
X573Y201*
X568Y188*
X566Y175*
X568Y161*
X573Y148*
X582Y137*
X593Y128*
X606Y123*
X620Y121*
X633Y123*
X646Y128*
X657Y137*
X666Y148*
X671Y161*
X673Y175*
X671Y188*
X666Y201*
X657Y212*
X646Y221*
X633Y226*
X620Y228*
G37*
G36*
Y1016D02*
X606Y1014D01*
X593Y1008*
X582Y1000*
X573Y989*
X568Y976*
X566Y962*
X568Y948*
X573Y935*
X582Y924*
X593Y916*
X606Y910*
X620Y908*
X633Y910*
X646Y916*
X657Y924*
X666Y935*
X671Y948*
X673Y962*
X671Y976*
X666Y989*
X657Y1000*
X646Y1008*
X633Y1014*
X620Y1016*
G37*
%LNvcu-3*%
%LPD*%
G36*
X808Y3619D02*
X811Y3614D01*
X817Y3610*
X824Y3609*
X830Y3610*
X836Y3614*
X839Y3618*
X843Y3619*
X851Y3614*
X852Y3611*
Y3557*
X827*
X825*
X815Y3557*
Y3579*
X814Y3586*
X810Y3592*
X792Y3610*
Y3626*
X802Y3626*
X808Y3619*
G37*
G36*
X931Y3481D02*
X852Y3401D01*
X827*
X818Y3403*
Y3501*
X827Y3502*
X878*
Y3516*
X931*
Y3481*
G37*
G36*
X2624Y3312D02*
X2652D01*
Y3302*
X2624*
Y3277*
X2639*
Y3253*
X2632Y3246*
X2627*
X2617*
X2607*
Y3189*
Y3131*
X2617*
X2627*
X2645*
X2651Y3121*
X2650Y3119*
X2649Y3112*
X2650Y3105*
X2652Y3100*
X2649Y3093*
X2646Y3090*
X2629*
X2625*
X2579*
X2575*
X2569*
X2558*
X2555Y3093*
X2552Y3100*
X2554Y3105*
X2555Y3112*
X2554Y3119*
X2552Y3124*
X2555Y3130*
X2558Y3134*
X2568*
X2577Y3131*
X2584*
X2597*
Y3189*
Y3246*
X2584*
X2577*
X2568Y3244*
X2529*
X2525*
X2479*
Y3134*
X2496*
X2499Y3130*
X2502Y3124*
X2500Y3119*
X2499Y3112*
X2500Y3105*
X2502Y3100*
X2499Y3093*
X2496Y3090*
X2479*
Y3043*
X2185*
Y3062*
Y3063*
Y3089*
X2422Y3326*
X2624*
Y3312*
G37*
G36*
X2756Y3076D02*
D01*
X2762Y3072*
X2769Y3071*
X2822*
X2824Y3062*
Y3048*
X2725*
Y3090*
X2708*
X2705Y3093*
X2702Y3100*
X2704Y3105*
X2705Y3112*
X2705Y3114*
X2714Y3119*
X2756Y3076*
G37*
G36*
X2130Y3062D02*
D01*
Y3010*
X2185*
Y3017*
X2479*
Y2980*
X2489*
Y2782*
X2490Y2777*
X2485Y2768*
X2475Y2766*
X2468Y2761*
X2463Y2754*
X2461Y2745*
X2463Y2735*
X2468Y2728*
X2475Y2723*
X2481Y2721*
Y2653*
X2480*
Y2593*
X2458*
X2123Y2927*
X2119Y2930*
X2114Y2931*
X1892*
X1889Y2934*
X1885Y2937*
X1880Y2938*
X1534*
X1531Y2941*
X1524Y2946*
X1515Y2948*
X1505Y2946*
X1498Y2941*
X1493Y2934*
X1491Y2925*
X1493Y2915*
X1498Y2908*
X1505Y2903*
X1515Y2901*
X1519Y2902*
X1525Y2893*
X1523Y2889*
X1521Y2880*
X1523Y2870*
X1528Y2863*
X1535Y2858*
X1545Y2856*
X1554Y2858*
X1561Y2863*
X1564Y2866*
X2085*
X2088Y2863*
X2095Y2858*
X2097Y2857*
X2096Y2847*
X1737*
X1732Y2846*
X1728Y2844*
X1310*
X1310Y2845*
X1303Y2849*
X1302Y2849*
Y2860*
X1304Y2860*
X1311Y2865*
X1313Y2867*
X1375*
Y2854*
X1400*
Y2882*
X1405*
Y2887*
X1434*
Y2910*
X1432*
Y2961*
X1439Y2967*
X2153*
X2407Y2714*
X2406Y2710*
X2408Y2700*
X2413Y2693*
X2420Y2688*
X2430Y2686*
X2439Y2688*
X2446Y2693*
X2451Y2700*
X2453Y2710*
X2451Y2719*
X2446Y2726*
X2439Y2731*
X2430Y2733*
X2425Y2732*
X2168Y2990*
X2164Y2993*
X2159Y2994*
X1310*
X1310Y2995*
X1303Y2999*
X1296Y3001*
X1279*
X1275Y3010*
X1305Y3039*
X2049*
X2054Y3036*
X2063Y3034*
X2073Y3036*
X2080Y3041*
X2085Y3049*
X2086Y3054*
X2104Y3071*
X2128*
X2130Y3062*
G37*
G36*
X2549Y2819D02*
X2539Y2813D01*
X2534Y2814*
X2525Y2812*
X2524Y2812*
X2515Y2818*
Y2979*
X2525Y2980*
X2529*
X2549*
Y2819*
G37*
G36*
X1877Y2909D02*
X1881Y2906D01*
X1886Y2905*
X2074*
X2076Y2903*
X2079Y2895*
X2077Y2893*
X1564*
X1561Y2896*
X1554Y2901*
X1555Y2911*
X1874*
X1877Y2909*
G37*
G36*
X929Y2846D02*
X914D01*
Y2795*
Y2793*
Y2785*
Y2742*
X969*
Y2774*
X971Y2777*
X972*
X977Y2778*
X981Y2780*
X991Y2790*
X1001Y2786*
Y2703*
X976*
Y2705*
X953*
Y2676*
X948*
Y2671*
X921*
Y2656*
X831*
X771Y2716*
X771Y2717*
X776Y2729*
X778Y2742*
X776Y2756*
X771Y2768*
X763Y2779*
X752Y2787*
X740Y2792*
X731Y2794*
X727Y2804*
X771Y2848*
X851*
X854Y2844*
X861Y2839*
X871Y2837*
X880Y2839*
X887Y2844*
X892Y2852*
X894Y2861*
X893Y2867*
X899Y2877*
X929*
Y2846*
G37*
G36*
X1028Y2868D02*
X1028Y2864D01*
X978Y2815*
X969Y2819*
Y2846*
X960*
Y2877*
X1021*
X1028Y2868*
G37*
G36*
X2295Y2693D02*
X2294Y2690D01*
X2291Y2683*
X2156*
X2151Y2682*
X2147Y2679*
X2109Y2642*
X2090*
X2083Y2640*
X2083Y2640*
X2073Y2645*
Y2750*
X2076Y2755*
X2078Y2765*
X2076Y2774*
X2071Y2781*
X2064Y2786*
X2055Y2788*
X2045Y2786*
X2038Y2781*
X2033Y2774*
X2031Y2765*
X2033Y2755*
X2036Y2750*
Y2620*
X2038Y2613*
X2042Y2607*
X2062Y2586*
X2049Y2573*
X2046Y2567*
X2044Y2560*
Y2334*
X2045Y2328*
Y2247*
X2047Y2240*
X2051Y2234*
X2053Y2232*
X2052Y2218*
X2033Y2199*
X2022Y2200*
X2018Y2204*
X2019Y2207*
X2019Y2207*
X2023Y2213*
X2024Y2216*
X1995*
X1966*
X1966Y2213*
X1969Y2210*
X1965Y2200*
X1964Y2200*
X1895*
Y2221*
X1844*
Y2209*
X1819*
Y2230*
X1791*
X1763*
Y2209*
X1664*
Y2215*
X1615*
X1613*
X1578*
X1577Y2215*
X1545*
X1513Y2247*
X1514Y2251*
X1513Y2261*
X1507Y2268*
X1500Y2273*
X1491Y2275*
X1486Y2274*
X1476Y2280*
Y2512*
X1485Y2513*
X1491Y2505*
X1498Y2500*
X1507Y2498*
X1512Y2499*
X1534Y2477*
X1538Y2475*
X1543Y2474*
X1562*
Y2444*
X1573*
Y2357*
X1563*
Y2304*
X1605*
X1613*
X1623*
X1650*
X1651Y2303*
X1818*
X1844Y2277*
Y2249*
X1881*
X1882Y2248*
X1963*
X1971Y2239*
X1971Y2236*
X1970Y2235*
X1966Y2229*
X1966Y2226*
X1995*
X2024*
X2023Y2229*
X2019Y2235*
X2019Y2236*
X2017Y2246*
X2021Y2252*
X2023Y2258*
X2021Y2265*
X2017Y2271*
X2011Y2275*
X2005Y2277*
X1985*
X1978Y2275*
X1977Y2275*
X1895*
Y2296*
X1863*
X1833Y2326*
X1828Y2329*
X1823Y2330*
X1664*
Y2357*
X1623*
X1615*
X1606*
X1599Y2364*
Y2444*
X1613*
Y2442*
X1635*
Y2472*
Y2502*
X1613*
Y2500*
X1585*
X1584Y2500*
X1548*
X1530Y2518*
X1531Y2522*
X1529Y2531*
X1524Y2539*
X1516Y2544*
X1507Y2546*
X1498Y2544*
X1491Y2539*
X1485Y2531*
X1476Y2532*
Y2562*
X1486Y2565*
X1487Y2564*
X1494Y2558*
X1504Y2557*
X1513Y2558*
X1520Y2564*
X1523Y2567*
X1609*
X1614Y2568*
X1619Y2571*
X1627Y2579*
X1628Y2581*
X1633Y2586*
X1666*
Y2604*
X1805*
X1810Y2605*
X1810Y2605*
X1834*
X1844*
X1871*
X1872Y2605*
X1909*
X1965Y2549*
X1937Y2520*
X1922*
X1917Y2519*
X1912Y2517*
X1907Y2511*
X1897Y2516*
Y2527*
X1875*
Y2506*
X1888*
X1892Y2496*
X1877Y2481*
X1844*
Y2434*
X1895*
Y2462*
X1927Y2494*
X1942*
X1947Y2495*
X1952Y2498*
X1984Y2531*
X2003*
X2010Y2532*
X2016Y2536*
X2020Y2542*
X2022Y2549*
X2020Y2556*
X2016Y2561*
X2018Y2572*
X2018Y2572*
X2022Y2578*
X2023Y2581*
X1994*
Y2591*
X2023*
X2022Y2594*
X2019Y2599*
X2018Y2600*
Y2609*
X2019Y2611*
X2022Y2616*
X2023Y2619*
X1994*
X1965*
X1965Y2616*
X1968Y2611*
X1969Y2609*
Y2600*
X1968Y2598*
X1956Y2595*
X1924Y2627*
X1920Y2630*
X1915Y2631*
X1885*
Y2658*
X1844*
X1836*
X1826*
X1785*
Y2630*
X1666*
Y2641*
X1615*
Y2643*
X1592*
Y2614*
X1587*
Y2609*
X1559*
Y2593*
X1523*
X1520Y2597*
X1516Y2600*
X1513Y2612*
X1585Y2683*
X1680*
X1683Y2680*
X1690Y2675*
X1700Y2673*
X1709Y2675*
X1716Y2680*
X1721Y2687*
X1723Y2697*
X1721Y2706*
X1716Y2713*
X1709Y2718*
X1700Y2720*
X1690Y2718*
X1683Y2713*
X1680Y2710*
X1580*
X1575Y2709*
X1570Y2706*
X1459Y2594*
X1449Y2598*
Y2657*
X1515Y2723*
X1521Y2725*
X1529Y2730*
X1534Y2737*
X1536Y2747*
X1534Y2756*
X1530Y2761*
X1533Y2769*
X1535Y2771*
X1771*
Y2749*
X1830*
Y2771*
X1873*
X1889Y2756*
X1893Y2753*
X1898Y2752*
X1948*
Y2729*
X2001*
Y2778*
X2004*
Y2800*
X1975*
X1946*
Y2778*
X1903*
X1888Y2794*
X1884Y2796*
X1879Y2797*
X1828*
Y2821*
X1946*
Y2810*
X1975*
X2004*
Y2821*
X2167*
X2295Y2693*
G37*
G36*
X2754Y2663D02*
X2749Y2653D01*
X2665*
Y2667*
X2668Y2670*
X2674Y2678*
X2675Y2687*
X2674Y2696*
X2668Y2703*
X2661Y2709*
X2652Y2710*
X2643Y2709*
X2635Y2703*
X2635Y2703*
X2625Y2706*
Y2778*
X2635Y2782*
X2754Y2663*
G37*
G36*
X2598Y2653D02*
X2566D01*
Y2765*
X2571Y2769*
X2574Y2774*
X2575Y2779*
Y2972*
X2579Y2980*
X2598*
Y2653*
G37*
G36*
X2381Y2564D02*
Y2541D01*
X2381Y2540*
Y2514*
X2356*
X2312Y2558*
X2307Y2561*
X2302Y2562*
X2131*
X2122Y2571*
X2123Y2573*
X2123Y2573*
X2126Y2579*
X2128Y2585*
X2152Y2609*
X2204*
X2206Y2610*
X2242*
Y2608*
X2265*
Y2637*
X2275*
Y2608*
X2298*
Y2634*
X2307Y2637*
X2381Y2564*
G37*
G36*
X2586Y2563D02*
X2590Y2557D01*
X2589Y2550*
X2590Y2545*
X2583Y2535*
X2490*
X2468Y2557*
X2472Y2566*
X2583*
X2586Y2563*
G37*
G36*
X2321Y2512D02*
X2317Y2503D01*
X2269*
X2266Y2506*
X2259Y2511*
X2250Y2513*
X2240Y2511*
X2233Y2506*
X2228Y2499*
X2226Y2490*
X2228Y2480*
X2233Y2473*
X2240Y2468*
X2250Y2466*
X2259Y2468*
X2266Y2473*
X2269Y2476*
X2298*
X2300Y2474*
X2304Y2466*
X2303Y2460*
X2304Y2451*
X2308Y2445*
X2304Y2437*
X2303Y2435*
X2232*
X2189Y2478*
Y2514*
X2138*
Y2516*
X2116*
Y2487*
Y2457*
X2138*
Y2459*
X2171*
X2211Y2419*
X2207Y2409*
X2177*
Y2384*
X2204*
Y2374*
X2177*
Y2350*
X2168Y2346*
X2081*
Y2448*
X2083Y2457*
X2106*
Y2487*
Y2516*
X2089*
X2087Y2522*
X2094Y2531*
X2110*
X2117Y2532*
X2122Y2536*
X2297*
X2321Y2512*
G37*
G36*
X2921Y2593D02*
X2919Y2588D01*
X2917Y2579*
X2919Y2570*
X2924Y2562*
X2927Y2560*
Y2475*
X2903*
Y2507*
Y2554*
X2834*
Y2526*
Y2487*
Y2448*
Y2415*
X2450*
Y2448*
Y2487*
Y2524*
X2459Y2529*
X2476Y2512*
X2480Y2509*
X2485Y2508*
X2624*
X2629Y2509*
X2633Y2512*
X2681Y2560*
X2683Y2564*
X2684Y2569*
Y2584*
X2803*
Y2603*
X2917*
X2921Y2593*
G37*
G36*
X2335Y2372D02*
X2273Y2311D01*
X2241*
Y2313*
X2224*
X2221Y2323*
X2223Y2324*
X2244Y2345*
X2245Y2347*
X2250Y2352*
X2283*
Y2381*
X2328*
X2330Y2381*
X2335Y2372*
G37*
G36*
X2185Y2313D02*
Y2288D01*
X2213*
Y2278*
X2185*
Y2274*
X2182Y2272*
X2123*
X2118Y2275*
X2111Y2277*
X2091*
X2082Y2285*
Y2320*
X2178*
X2185Y2313*
G37*
G36*
X1844Y2174D02*
X1878D01*
X1879Y2173*
X1970*
X1972Y2171*
X1978Y2167*
X1985Y2166*
X1987*
X1991Y2156*
X1915Y2080*
X1667*
X1662Y2084*
X1655Y2085*
X1631Y2110*
X1625Y2114*
X1618Y2115*
X1597*
X1591Y2125*
X1592Y2130*
X1590Y2139*
X1585Y2147*
X1578Y2152*
X1578Y2153*
X1583Y2162*
X1613*
X1615*
X1664*
Y2183*
X1844*
Y2174*
G37*
G36*
X1422Y2417D02*
X1431Y2415D01*
X1439Y2417*
X1440Y2417*
X1449Y2411*
Y2236*
X1450Y2231*
X1453Y2227*
X1546Y2135*
X1545Y2130*
X1546Y2125*
X1539Y2115*
X1289*
X1275Y2129*
X1279Y2138*
X1296*
X1303Y2140*
X1310Y2144*
X1310Y2145*
X1366*
X1371Y2146*
X1375Y2149*
X1402Y2177*
X1405Y2181*
X1406Y2186*
Y2416*
X1408Y2417*
X1416Y2420*
X1422Y2417*
G37*
G36*
X1388Y1931D02*
X1396Y1929D01*
Y1920*
X1388Y1918*
X1382Y1914*
X1380Y1911*
X1331*
X1329Y1913*
X1322Y1918*
X1313Y1920*
X1303Y1918*
X1296Y1913*
X1291Y1906*
X1289Y1897*
X1291Y1887*
X1296Y1880*
X1303Y1875*
X1313Y1873*
X1322Y1875*
X1329Y1880*
X1333Y1885*
X1382*
X1388Y1881*
X1396Y1879*
Y1870*
X1388Y1868*
X1382Y1864*
X1381Y1863*
X1146*
X1141Y1862*
X1136Y1859*
X1037Y1759*
X1005*
Y1761*
X982*
Y1732*
X977*
Y1727*
X949*
Y1712*
X922*
X915Y1719*
X916Y1724*
X914Y1733*
X909Y1740*
X901Y1745*
X892Y1747*
X883Y1745*
X876Y1740*
X870Y1733*
X869Y1724*
X870Y1714*
X876Y1707*
X883Y1702*
X892Y1700*
X897Y1701*
X907Y1690*
X912Y1687*
X917Y1686*
X1000*
X1005Y1687*
X1009Y1690*
X1017Y1697*
X1018Y1699*
X1023Y1704*
X1056*
Y1741*
X1151Y1836*
X1234*
X1236Y1833*
X1240Y1826*
X1239Y1819*
X1240Y1810*
X1246Y1803*
X1253Y1797*
X1254Y1797*
X1253Y1787*
X1179*
X1177Y1790*
X1169Y1795*
X1160Y1797*
X1151Y1795*
X1144Y1790*
X1138Y1783*
X1137Y1773*
X1138Y1764*
X1144Y1757*
X1151Y1752*
X1160Y1750*
X1169Y1752*
X1173Y1754*
X1179Y1746*
X1082Y1649*
X1037*
Y1657*
X982*
Y1651*
X792*
X788Y1655*
X789Y1659*
X791Y1667*
X797Y1671*
X802Y1678*
X804Y1685*
X881Y1762*
X920*
X927Y1763*
X933Y1767*
X1023Y1858*
X1027Y1864*
X1029Y1871*
X1054*
Y1900*
X1085Y1931*
X1388*
X1388Y1931*
G37*
G36*
X1836Y1826D02*
X1835Y1825D01*
X1793*
Y1811*
X1709*
X1706Y1814*
X1699Y1819*
X1690Y1821*
X1680Y1819*
X1673Y1814*
X1671Y1812*
X1659*
X1658Y1814*
X1651Y1818*
X1644Y1820*
Y1829*
X1651Y1831*
X1658Y1835*
X1659Y1836*
X1831*
X1836Y1826*
G37*
G36*
X2187Y1827D02*
X2123Y1763D01*
X1908*
X1900Y1768*
Y1773*
Y1793*
X1872*
Y1803*
X1900*
Y1826*
Y1827*
X1902Y1836*
X2183*
X2187Y1827*
G37*
G36*
X1673Y1781D02*
X1680Y1776D01*
X1690Y1774*
X1699Y1776*
X1706Y1781*
X1709Y1784*
X1786*
X1793Y1777*
Y1770*
X1787Y1763*
X1659*
X1658Y1764*
X1651Y1768*
X1644Y1770*
Y1779*
X1651Y1781*
X1658Y1785*
X1658Y1785*
X1670*
X1673Y1781*
G37*
G36*
X1839Y1726D02*
X1839Y1726D01*
X1798*
Y1713*
X1659*
X1658Y1714*
X1651Y1718*
X1644Y1720*
Y1729*
X1651Y1731*
X1658Y1735*
X1659Y1736*
X1834*
X1839Y1726*
G37*
G36*
X2113Y1727D02*
X2064Y1679D01*
X1904*
Y1693*
X1876*
Y1703*
X1904*
Y1728*
X1908Y1736*
X2109*
X2113Y1727*
G37*
G36*
X1591Y1701D02*
X1590Y1700D01*
X1592Y1692*
X1596Y1685*
X1603Y1681*
X1610Y1679*
Y1670*
X1603Y1668*
X1596Y1664*
X1592Y1657*
X1590Y1650*
X1591Y1648*
X1583Y1638*
X1456*
X1456Y1638*
X1452Y1642*
X1449Y1647*
X1449Y1650*
X1448Y1657*
X1443Y1664*
X1437Y1668*
X1429Y1670*
Y1679*
X1437Y1681*
X1443Y1685*
X1448Y1692*
X1449Y1700*
X1448Y1707*
X1443Y1714*
X1437Y1718*
X1436Y1718*
Y1729*
X1438Y1729*
X1445Y1734*
X1450Y1741*
X1450Y1745*
X1413*
Y1755*
X1454*
X1459Y1761*
X1530*
X1591Y1701*
G37*
G36*
X2054Y1643D02*
X1840Y1429D01*
X1643*
Y1476*
X1640*
Y1579*
X1644*
X1651Y1581*
X1658Y1585*
X1659Y1586*
X1755*
X1758Y1583*
X1765Y1578*
X1775Y1576*
X1784Y1578*
X1791Y1583*
X1796Y1590*
X1798Y1600*
X1796Y1609*
X1795Y1611*
X1800Y1621*
X1840*
X1843Y1618*
X1850Y1613*
X1860Y1611*
X1869Y1613*
X1876Y1618*
X1881Y1625*
X1883Y1635*
X1882Y1643*
X1882Y1644*
X1887Y1653*
X2050*
X2054Y1643*
G37*
G36*
X1591Y1602D02*
X1590Y1600D01*
X1592Y1592*
X1596Y1585*
X1603Y1581*
X1610Y1579*
X1614*
Y1476*
X1592*
Y1478*
X1569*
Y1448*
X1564*
Y1443*
X1537*
Y1429*
X1496*
Y1443*
X1468*
Y1448*
X1463*
Y1478*
X1440*
Y1476*
X1426*
Y1579*
X1429*
X1437Y1581*
X1443Y1585*
X1448Y1592*
X1449Y1600*
X1449Y1601*
X1460Y1612*
X1584*
X1591Y1602*
G37*
%LNvcu-4*%
%LPC*%
G36*
X1434Y2877D02*
X1410D01*
Y2854*
X1434*
Y2877*
G37*
G36*
X943Y2705D02*
X921D01*
Y2681*
X943*
Y2705*
G37*
G36*
X1830Y2739D02*
X1806D01*
Y2716*
X1830*
Y2739*
G37*
G36*
X1796D02*
X1771D01*
Y2716*
X1796*
Y2739*
G37*
G36*
X2003Y2644D02*
X1999D01*
Y2629*
X2023*
X2022Y2631*
X2018Y2638*
X2011Y2642*
X2003Y2644*
G37*
G36*
X1989D02*
X1984D01*
X1976Y2642*
X1969Y2638*
X1965Y2631*
X1965Y2629*
X1989*
Y2644*
G37*
G36*
X1582Y2643D02*
X1559D01*
Y2619*
X1582*
Y2643*
G37*
G36*
X1897Y2558D02*
X1875D01*
Y2537*
X1897*
Y2558*
G37*
G36*
X1865D02*
X1842D01*
Y2537*
X1865*
Y2558*
G37*
G36*
Y2527D02*
X1842D01*
Y2506*
X1865*
Y2527*
G37*
G36*
X1819Y2520D02*
X1796D01*
Y2500*
X1819*
Y2520*
G37*
G36*
X1786D02*
X1763D01*
Y2500*
X1786*
Y2520*
G37*
G36*
X1668Y2502D02*
X1645D01*
Y2477*
X1668*
Y2502*
G37*
G36*
X1819Y2490D02*
X1796D01*
Y2469*
X1819*
Y2490*
G37*
G36*
X1786D02*
X1763D01*
Y2469*
X1786*
Y2490*
G37*
G36*
X1668Y2467D02*
X1645D01*
Y2442*
X1668*
Y2467*
G37*
G36*
X1819Y2260D02*
X1796D01*
Y2240*
X1819*
Y2260*
G37*
G36*
X1786D02*
X1763D01*
Y2240*
X1786*
Y2260*
G37*
G36*
X972Y1761D02*
X949D01*
Y1737*
X972*
Y1761*
G37*
G36*
X1559Y1478D02*
X1537D01*
Y1453*
X1559*
Y1478*
G37*
G36*
X1496Y1478D02*
X1473D01*
Y1453*
X1496*
Y1478*
G37*
%LNvcu-5*%
%LPD*%
G54D13*
X1040Y1144D02*
X1124D01*
X1167Y1187D02*
X1198D01*
X1124Y1144D02*
X1167Y1187D01*
X2368Y2422D02*
X2399D01*
X2226D02*
X2368D01*
X2336Y2402D02*
X2364D01*
Y2418*
Y2383D02*
Y2402D01*
X1982Y2258D02*
X1995D01*
X1979Y2261D02*
X1982Y2258D01*
X1515Y2925D02*
X1880D01*
X1737Y2834D02*
X2172D01*
X2323Y2284D02*
X2415D01*
X1942Y2507D02*
X1984Y2549D01*
X1922Y2507D02*
X1942D01*
X2331Y1175D02*
X2335D01*
X2313Y1156D02*
X2331Y1175D01*
X2155Y1142D02*
X2168Y1129D01*
X1575Y1176D02*
X1591Y1193D01*
X1429Y1143D02*
X1442Y1130D01*
X1664Y1666D02*
X2070D01*
X1507Y2522D02*
X1543Y2487D01*
X2328Y2394D02*
X2336Y2402D01*
X2270Y2394D02*
X2328D01*
X2063Y2333D02*
X2213D01*
X2235Y2354*
X2962Y2205D02*
Y2210D01*
X311Y3386D02*
X525D01*
X2257Y2377D02*
Y2381D01*
X2235Y2355D02*
X2257Y2377D01*
X2235Y2354D02*
Y2355D01*
X1413Y1448D02*
X1415Y1446D01*
X1413Y1448D02*
Y1600D01*
X2938Y2181D02*
X2962Y2205D01*
X2790Y2181D02*
X2938D01*
X2940Y2461D02*
X3077D01*
X2868D02*
X2940D01*
Y2579*
X1014Y2688D02*
Y2797D01*
X1586Y2332D02*
Y2485D01*
X2088Y2586D02*
X2110D01*
X1230Y2210D02*
X1230Y2209D01*
X1278*
X1279Y2209*
X1845Y1416D02*
X2553Y2124D01*
X1371Y1437D02*
X1392Y1416D01*
X1845*
X1664Y1635D02*
X1860D01*
X1455Y1625D02*
X1654D01*
X1664Y1635*
X1429Y1600D02*
X1455Y1625D01*
X1627Y1600D02*
X1775D01*
X2110Y2586D02*
X2146Y2623D01*
X2204*
X2217Y2635*
Y2637*
X2293Y2670D02*
X2394Y2569D01*
X2156Y2670D02*
X2293D01*
X2110Y2624D02*
X2156Y2670D01*
X2164Y2485D02*
Y2487D01*
X2364Y2383D02*
X2399D01*
X2266Y2285D02*
X2364Y2383D01*
X2266Y2283D02*
Y2285D01*
X2101Y2221D02*
X2163D01*
X1545Y2880D02*
X2105D01*
X1981Y1187D02*
X1985D01*
X1951Y1156D02*
X1981Y1187D01*
X1828Y1156D02*
X1951D01*
X1647Y1650D02*
X1664Y1666D01*
X1627Y1650D02*
X1647D01*
X2070Y1666D02*
X2533Y2129D01*
X1442Y1067D02*
Y1130D01*
X1491Y945D02*
Y1018D01*
X1514Y1176D02*
X1575D01*
X1482Y1145D02*
X1514Y1176D01*
X2168Y1056D02*
Y1129D01*
Y1056D02*
X2279Y945D01*
X2209Y1144D02*
X2221Y1156D01*
X2313*
X1146Y1850D02*
X1413D01*
X1030Y1734D02*
X1146Y1850D01*
X1030Y1730D02*
Y1734D01*
X917Y1699D02*
X1000D01*
X892Y1724D02*
X917Y1699D01*
X1584Y2487D02*
X1586Y2485D01*
X1543Y2487D02*
X1584D01*
X1872Y2457D02*
X1922Y2507D01*
X1870Y2457D02*
X1872D01*
X2289Y2250D02*
X2323Y2284D01*
X2190Y2250D02*
X2289D01*
X2250Y2490D02*
X2336D01*
X2364Y2461*
X2172Y2834D02*
X2485Y2521D01*
X1734Y2831D02*
X1737Y2834D01*
X1279Y2831D02*
X1734D01*
X1880Y2925D02*
X1886Y2918D01*
X2114*
X2452Y2579*
X2159Y2981D02*
X2430Y2710D01*
X2652Y2619D02*
Y2687D01*
X2611Y2620D02*
Y3026D01*
X2485Y2739D02*
X2494Y2729D01*
X2485Y2739D02*
Y2745D01*
X2502Y2782D02*
Y3029D01*
Y2782D02*
X2514Y2770D01*
Y2619D02*
Y2770D01*
X2534Y2619D02*
Y2790D01*
X2501Y3030D02*
X2502Y3029D01*
X2209Y1142D02*
Y1144D01*
X2452Y2206D02*
X2564D01*
X2328Y2081D02*
X2452Y2206D01*
X2213Y2081D02*
X2328D01*
X2641Y2795D02*
X2770Y2666D01*
Y2619D02*
Y2666D01*
X1279Y2981D02*
X2159D01*
X2182Y2258D02*
X2190Y2250D01*
X1037Y2183D02*
X1091D01*
X1012Y2169D02*
X1024D01*
X1037Y2183*
X989Y2147D02*
X1012Y2169D01*
X988Y2147D02*
X989D01*
X1007Y1707D02*
X1030Y1730D01*
X1007Y1707D02*
Y1707D01*
X1000Y1699D02*
X1007Y1707D01*
X2953Y2402D02*
X2964Y2391D01*
X2885Y2402D02*
X2953D01*
X576Y3526D02*
Y3529D01*
X548Y3557D02*
Y3644D01*
Y3557D02*
X576Y3529D01*
X941Y2767D02*
X943D01*
X966Y2790D02*
X972D01*
X943Y2767D02*
X966Y2790D01*
X1228Y2643D02*
X1369Y2784D01*
X1788*
X1627Y1900D02*
X1644D01*
X1674Y1930*
X1813*
X1825Y1942*
Y1944*
X1963Y2765D02*
X1975Y2753D01*
X1898Y2765D02*
X1963D01*
X1813Y2784D02*
X1879D01*
X1898Y2765*
X1801Y2797D02*
X1813Y2784D01*
X1062Y3093D02*
X1064Y3091D01*
Y2981D02*
Y3091D01*
Y2309D02*
X1081D01*
X2364Y2402D02*
X2852D01*
X2342Y2212D02*
X2346Y2216D01*
Y2226*
X1262Y1819D02*
X1265D01*
X2388Y2211D02*
Y2217D01*
X2101Y2258D02*
X2182D01*
X1823Y2317D02*
X1870Y2270D01*
X1651Y2317D02*
X1823D01*
X1982Y2184D02*
X1995D01*
X1459Y3666D02*
Y3681D01*
Y3666D02*
X1475Y3651D01*
X1371Y1437D02*
Y1625D01*
X2671Y2569D02*
Y2619D01*
X874Y3648D02*
Y3677D01*
X2443Y3626D02*
X2447Y3622D01*
X2443Y3626D02*
Y3643D01*
X2790Y2616D02*
X3066D01*
X535Y3657D02*
X548Y3644D01*
X1870Y2196D02*
X1879Y2187D01*
X2364Y2461D02*
X2415D01*
X2257Y2381D02*
X2270Y2394D01*
X2326Y2460D02*
X2332D01*
X2164Y2485D02*
X2226Y2422D01*
X2332Y2460D02*
X2350Y2442D01*
X2399Y2422D02*
X2399Y2422D01*
X2100Y2549D02*
X2302D01*
X2350Y2501*
X2350Y2442D02*
X2415D01*
X2350Y2501D02*
X2415D01*
X1279Y2309D02*
X1284D01*
X1291Y2315*
X1915Y2618D02*
X1984Y2549D01*
X1994*
X1872Y2618D02*
X1872Y2618D01*
X1915*
X1459Y3681D02*
X1474D01*
X1497Y3631D02*
X1500D01*
X1477Y3651D02*
X1497Y3631D01*
X1475Y3651D02*
X1477D01*
X1530Y3573D02*
Y3678D01*
X1522Y3685D02*
X1530Y3678D01*
X2611Y2620D02*
X2612Y2619D01*
X2602Y3035D02*
X2611Y3026D01*
X2624Y2521D02*
X2671Y2569D01*
X2111Y2184D02*
X2213Y2081D01*
X2572Y2167D02*
X2573Y2166D01*
X2485Y2521D02*
X2624D01*
X2612Y2550D02*
Y2553D01*
X2632Y2573*
X2584Y2579D02*
X2592Y2587D01*
X2452Y2579D02*
X2584D01*
X2564Y2206D02*
X2572Y2198D01*
Y2167D02*
Y2198D01*
X2101Y2184D02*
X2111D01*
X1536Y1774D02*
X1610Y1700D01*
X1161Y1774D02*
X1536D01*
X1442Y1067D02*
X1491Y1018D01*
X1285Y1800D02*
X1413D01*
X1265Y1819D02*
X1285Y1800D01*
X1639Y2184D02*
X1651Y2196D01*
X1870*
X1979Y2187D02*
X1982Y2184D01*
X1879Y2187D02*
X1979D01*
X2789Y2180D02*
X2790Y2181D01*
X2789Y2166D02*
Y2180D01*
X1106Y2198D02*
Y2284D01*
X1081Y2309D02*
X1106Y2284D01*
X1091Y2183D02*
X1106Y2198D01*
X2788Y2750D02*
X2789Y2749D01*
Y2620D02*
Y2749D01*
X2684Y2792D02*
Y2797D01*
X2702Y2816*
Y3035*
X2671Y2844D02*
Y2918D01*
X2652Y2937D02*
X2671Y2918D01*
X2652Y2937D02*
Y3035D01*
X2592Y2587D02*
Y2618D01*
X2494Y2619D02*
Y2729D01*
X2562Y2779D02*
Y3025D01*
X2553Y2619D02*
Y2770D01*
X2552Y3035D02*
X2562Y3025D01*
X2553Y2770D02*
X2562Y2779D01*
X2403Y3683D02*
X2443Y3643D01*
X2403Y3683D02*
Y3685D01*
X1349Y3681D02*
X1459D01*
X2821Y3683D02*
X2870Y3635D01*
X1929Y3487D02*
X1930Y3488D01*
X2141*
X2314Y3484D02*
X2317Y3481D01*
X2527*
X2939Y3487D02*
X2944Y3481D01*
X2732Y3487D02*
X2939D01*
X2789Y2617D02*
X2790Y2616D01*
X2789Y2187D02*
Y2348D01*
X2821Y3683D02*
Y3685D01*
X2787Y2350D02*
X2789Y2348D01*
X2984Y3697D02*
X2996Y3685D01*
X2984Y3697D02*
Y3700D01*
X2966Y3717D02*
X2984Y3700D01*
X2609Y3717D02*
X2966D01*
X2579Y3687D02*
X2609Y3717D01*
X2579Y3685D02*
Y3687D01*
X2944Y3572D02*
D01*
Y3685*
X2769Y3565D02*
X2770Y3566D01*
Y3685*
X2567Y3697D02*
Y3700D01*
Y3697D02*
X2579Y3685D01*
X2203Y3697D02*
X2223Y3717D01*
X2550*
X2527Y3572D02*
X2528Y3573D01*
Y3685*
X2352Y3563D02*
D01*
Y3685D01*
X2137Y3577D02*
X2141Y3581D01*
Y3682*
X1770Y3685D02*
Y3687D01*
X1801Y3717D02*
X2164D01*
X2182Y3699D02*
Y3700D01*
X2164Y3717D02*
X2182Y3700D01*
X1719Y3564D02*
Y3665D01*
X1965Y3566D02*
X1966Y3565D01*
X1965Y3566D02*
Y3685D01*
X2016Y3626D02*
Y3673D01*
X2184Y3697D02*
X2203D01*
X2550Y3717D02*
X2567Y3700D01*
X2182Y3699D02*
X2184Y3697D01*
X1770Y3687D02*
X1801Y3717D01*
X1530Y3573D02*
X1541Y3562D01*
X1503Y3484D02*
X1708D01*
X525Y3386D02*
X535Y3376D01*
X944Y3517D02*
X957Y3530D01*
X853D02*
X957D01*
X853D02*
X866Y3542D01*
Y3640D02*
X874Y3648D01*
X944Y3475D02*
Y3517D01*
X860Y3391D02*
X944Y3475D01*
X1168Y3526D02*
X1176Y3518D01*
X3066Y2616D02*
X3074Y2624D01*
X2789Y2620D02*
X2789Y2619D01*
X2501Y3030D02*
Y3034D01*
X2641Y2795D02*
Y2895D01*
X1586Y2332D02*
X1588Y2330D01*
X1640Y2612D02*
Y2615D01*
X1618Y2589D02*
Y2589D01*
X1504Y2580D02*
X1609D01*
X1618Y2589*
X1640Y2615D02*
X1642Y2617D01*
X1618Y2589D02*
X1640Y2612D01*
X1642Y2617D02*
X1805D01*
X2394Y2541D02*
Y2569D01*
X1291Y2525D02*
X1317Y2552D01*
X1291Y2315D02*
Y2525D01*
X2163Y2221D02*
X2217Y2167D01*
X2100Y2624D02*
X2110D01*
X2384Y2264D02*
X2415D01*
X2346Y2226D02*
X2384Y2264D01*
X1870Y2270D02*
X1874D01*
X1645Y2323D02*
X1651Y2317D01*
X1491Y2251D02*
X1540Y2202D01*
X1577*
X1586Y2193*
X2388Y2217D02*
X2394Y2222D01*
Y2244*
X2395Y2245*
X1462Y2579D02*
X1580Y2697D01*
X1462Y2236D02*
Y2579D01*
X1874Y2270D02*
X1882Y2261D01*
X1580Y2697D02*
X1700D01*
X1393Y2186D02*
Y2470D01*
X1391Y2473D02*
X1393Y2470D01*
X1462Y2236D02*
X1568Y2130D01*
X1279Y2159D02*
X1366D01*
X2415Y2264D02*
X2415Y2265D01*
X1822Y1700D02*
X1823Y1698D01*
X1610Y1700D02*
X1822D01*
X1160Y1773D02*
X1161Y1774D01*
X1882Y2261D02*
X1979D01*
X765Y2861D02*
X871D01*
X628Y2683D02*
X670Y2726D01*
X1064Y2072D02*
Y2159D01*
X2394Y2541D02*
X2395Y2540D01*
X2415*
X1627Y1750D02*
X2128D01*
X2513Y2134*
X726Y2742D02*
X826Y2643D01*
X2501Y3034D02*
X2502Y3035D01*
X533Y3654D02*
X535Y3657D01*
X416Y3654D02*
X533D01*
X1788Y2784D02*
X1801Y2797D01*
X1047Y2831D02*
X1064D01*
X1014Y2797D02*
X1047Y2831D01*
X1001Y2676D02*
X1014Y2688D01*
X826Y2643D02*
X1228D01*
X1037Y2855D02*
X1091D01*
X1106Y2870D02*
Y2956D01*
X1091Y2855D02*
X1106Y2870D01*
X1081Y2981D02*
X1106Y2956D01*
X1064Y2981D02*
X1081D01*
X975D02*
X1064D01*
X972Y2790D02*
X1037Y2855D01*
X1064Y2072D02*
X1067Y2070D01*
X1366Y2159D02*
X1393Y2186D01*
X1689Y1799D02*
X1690Y1798D01*
X1628Y1799D02*
X1689D01*
X1627Y1800D02*
X1628Y1799D01*
X1690Y1798D02*
X1819D01*
X670Y2726D02*
Y2766D01*
X765Y2861*
X2632Y2573D02*
Y2619D01*
X2592Y2618D02*
X2593Y2619D01*
X2158Y3037D02*
X2164Y3030D01*
X2501*
X1708Y3484D02*
X1719Y3473D01*
X1627Y1457D02*
Y1600D01*
X2533Y2129D02*
Y2165D01*
X2553Y2124D02*
Y2166D01*
X866Y3542D02*
Y3640D01*
X1403Y2881D02*
X1405Y2882D01*
X1279Y2881D02*
X1403D01*
X1618Y1449D02*
X1627Y1457D01*
X2198Y1850D02*
X2494Y2145D01*
X1627Y1850D02*
X2198D01*
X1360Y2209D02*
X1361Y2209D01*
X1279Y2209D02*
X1360D01*
X2652Y3189D02*
Y3306D01*
X2652Y3307D02*
X2652Y3306D01*
X2513Y2134D02*
Y2165D01*
X2514Y2166*
X2494Y2145D02*
Y2166D01*
X2533Y2165D02*
X2534Y2166D01*
X2395Y2245D02*
X2415D01*
X1413Y1600D02*
X1429D01*
X1396Y1650D02*
X1413D01*
X1371Y1625D02*
X1396Y1650D01*
X1313Y1897D02*
X1314Y1898D01*
X1411*
X1413Y1900*
X1482Y1143D02*
Y1145D01*
X1815Y1142D02*
Y1144D01*
X1828Y1156*
X1774Y1016D02*
X1846Y945D01*
X1774Y1016D02*
Y1129D01*
X1762Y1142D02*
X1774Y1129D01*
X1040Y1142D02*
Y1144D01*
G54D18*
X2502Y3035D03*
Y3189D03*
X2552Y3035D03*
Y3189D03*
X2602Y3035D03*
Y3189D03*
X2652Y3035D03*
Y3189D03*
X2702Y3035D03*
Y3189D03*
G54D19*
X2415Y2540D03*
Y2520D03*
Y2501D03*
Y2481D03*
Y2461D03*
Y2442D03*
Y2422D03*
Y2402D03*
Y2383D03*
Y2363D03*
Y2343D03*
Y2324D03*
Y2304D03*
Y2284D03*
Y2265D03*
Y2245D03*
X2868D03*
Y2265D03*
Y2284D03*
Y2304D03*
Y2324D03*
Y2343D03*
Y2363D03*
Y2383D03*
Y2402D03*
Y2422D03*
Y2442D03*
Y2461D03*
Y2481D03*
Y2501D03*
Y2520D03*
Y2540D03*
G54D20*
X2494Y2166D03*
X2514D03*
X2534D03*
X2553D03*
X2573D03*
X2593D03*
X2612D03*
X2632D03*
X2652D03*
X2671D03*
X2691D03*
X2711D03*
X2730D03*
X2750D03*
X2770D03*
X2789D03*
Y2619D03*
X2770D03*
X2750D03*
X2730D03*
X2711D03*
X2691D03*
X2671D03*
X2652D03*
X2632D03*
X2612D03*
X2593D03*
X2573D03*
X2553D03*
X2534D03*
X2514D03*
X2494D03*
G54D21*
X1627Y1600D03*
Y1650D03*
Y1700D03*
Y1750D03*
Y1800D03*
Y1850D03*
Y1900D03*
Y1950D03*
X1413Y1600D03*
Y1650D03*
Y1700D03*
Y1750D03*
Y1800D03*
Y1850D03*
Y1900D03*
Y1950D03*
X1064Y2981D03*
Y2931D03*
Y2881D03*
Y2831D03*
X1279Y2981D03*
Y2931D03*
Y2881D03*
Y2831D03*
X1064Y2309D03*
Y2259D03*
Y2209D03*
Y2159D03*
X1279Y2309D03*
Y2259D03*
Y2209D03*
Y2159D03*
G54D22*
X1994Y2624D03*
Y2586D03*
Y2549D03*
X2100Y2624D03*
Y2586D03*
Y2549D03*
X1995Y2258D03*
Y2221D03*
Y2184D03*
X2101Y2258D03*
Y2221D03*
Y2184D03*
G54D23*
X724Y3677D03*
X774D03*
X824D03*
X874D03*
X924D03*
G54D24*
X824Y3912D03*
G54D25*
X1128Y3682D03*
X970Y3372D03*
G54D26*
X3074Y2572D03*
Y2624D03*
X2960Y2150D03*
Y2201D03*
X3075Y2410D03*
Y2461D03*
X1975Y2753D03*
Y2805D03*
X972Y2984D03*
Y2933D03*
X987Y2309D03*
Y2258D03*
G54D27*
X1965Y3685D03*
X2016D03*
X2142D03*
X2193D03*
X2770D03*
X2821D03*
X2944D03*
X2996D03*
X2352D03*
X2403D03*
X2528D03*
X2579D03*
X1295D03*
X1346D03*
X1522Y3686D03*
X1471D03*
X1719Y3685D03*
X1770D03*
X1810Y2631D03*
X1861D03*
X1588Y2188D03*
X1639D03*
X1588Y2330D03*
X1639D03*
G54D28*
X416Y3654D03*
X235D03*
G54D29*
X326Y3401D03*
G54D30*
X2732Y3487D03*
X2694Y3565D03*
X2769D03*
X2314Y3484D03*
X2277Y3563D03*
X2352D03*
X1929Y3487D03*
X1891Y3565D03*
X1966D03*
X1503Y3484D03*
X1466Y3562D03*
X1541D03*
G54D31*
X2141Y3488D03*
Y3578D03*
X2335Y1084D03*
Y1175D03*
X1591Y1102D03*
Y1193D03*
X1198Y1097D03*
Y1187D03*
X1985Y1097D03*
Y1187D03*
X2944Y3481D03*
Y3572D03*
X2527Y3481D03*
Y3572D03*
X1719Y3473D03*
Y3564D03*
G54D32*
X1791Y2495D03*
X1870Y2532D03*
Y2457D03*
X1791Y2235D03*
X1870Y2272D03*
Y2197D03*
G54D33*
X693Y3527D03*
X576D03*
G54D34*
X588Y3376D03*
X535D03*
X2111Y2487D03*
X2164D03*
X2652Y3307D03*
X2705D03*
X2213Y2283D03*
X2266D03*
X2204Y2379D03*
X2257D03*
X1468Y1448D03*
X1415D03*
X1564D03*
X1618D03*
X2270Y2637D03*
X2217D03*
X2270Y2165D03*
X2217D03*
X1062Y2433D03*
X1116D03*
X1115Y3526D03*
X1168D03*
X853Y3530D03*
X800D03*
X987Y1142D03*
X1040D03*
X1815D03*
X1762D03*
X1823Y1698D03*
X1876D03*
X1819Y1798D03*
X1872D03*
X1640Y2472D03*
X1587D03*
X799Y3374D03*
X853D03*
X957Y3527D03*
X1010D03*
X535Y3657D03*
X588D03*
X948Y2676D03*
X1001D03*
X1030Y1732D03*
X977D03*
X1028Y1898D03*
X975D03*
X1120Y2070D03*
X1067D03*
X1825Y1944D03*
X1878D03*
X1640Y2614D03*
X1587D03*
X1482Y1143D03*
X1429D03*
X2209Y1142D03*
X2155D03*
G54D35*
X2964Y2338D03*
Y2391D03*
X1062Y3093D03*
Y3146D03*
X1405Y2882D03*
Y2935D03*
X1361Y2209D03*
Y2262D03*
X1010Y1631D03*
Y1578D03*
X941Y2820D03*
Y2767D03*
X1801Y2744D03*
Y2797D03*
X988Y2200D03*
Y2147D03*
X2852Y3089D03*
Y3036D03*
X2158Y3089D03*
Y3036D03*
G54D62*
X860Y1100D02*
X902Y1142D01*
X987*
X860Y1000D02*
Y1100D01*
Y1000D02*
X914Y945D01*
X998*
X1016Y748D02*
Y764D01*
X998Y782D02*
X1016Y764D01*
X998Y782D02*
Y945D01*
X940Y1000D02*
X950Y1010D01*
X1070*
X1145Y1085*
X1186*
X1198Y1097*
X2065Y815D02*
X2128Y752D01*
X2195*
X800Y3529D02*
X800Y3529D01*
X800Y3374D02*
Y3529D01*
X799Y3286D02*
X821Y3264D01*
X800Y3374D02*
X800Y3374D01*
X2062Y2334D02*
Y2560D01*
X2063Y2247D02*
Y2333D01*
X797Y3532D02*
X800Y3529D01*
X799Y3286D02*
Y3373D01*
X924Y3680D02*
X1097D01*
X2063Y2247D02*
X2089Y2221D01*
X2062Y2334D02*
X2063Y2333D01*
X2096Y3089D02*
X2159D01*
X1297Y3058D02*
X2065D01*
X1278Y2258D02*
X1279Y2259D01*
X2704Y3305D02*
X2705Y3307D01*
X1401Y2931D02*
X1405Y2935D01*
X1196Y2182D02*
X1281Y2097D01*
X1151Y2856D02*
X1153Y2858D01*
X2159Y3089D02*
X2414Y3344D01*
X799Y3373D02*
X800Y3374D01*
X821Y3261D02*
Y3264D01*
X797Y3532D02*
Y3579D01*
X2062Y2560D02*
X2088Y2586D01*
X2055Y2620D02*
X2088Y2586D01*
X2697Y3314D02*
X2705Y3307D01*
X2677Y3344D02*
X2697Y3324D01*
Y3314D02*
Y3324D01*
X2414Y3344D02*
X2677D01*
X2089Y2221D02*
X2091D01*
X2055Y2620D02*
Y2765D01*
X2092Y2221D02*
X2101D01*
X1653Y2062D02*
X1922D01*
X2071Y2211D02*
X2082D01*
X1358Y2259D02*
X1361Y2262D01*
X1618Y2097D02*
X1653Y2062D01*
X1281Y2097D02*
X1618D01*
X1231Y2258D02*
X1278D01*
X1196Y2223D02*
X1231Y2258D01*
X1196Y2182D02*
Y2223D01*
X1232Y2993D02*
X1297Y3058D01*
X1232Y2960D02*
Y2993D01*
X1791Y900D02*
X2133D01*
X2179Y945*
X1746D02*
X1791Y900D01*
X1209Y1750D02*
X1345D01*
X769Y1636D02*
X773Y1633D01*
X1011D02*
X1013Y1631D01*
X773Y1633D02*
X1011D01*
X1431Y2665D02*
X1512Y2747D01*
X1431Y2438D02*
Y2665D01*
X2197Y748D02*
Y750D01*
X2195Y752D02*
X2197Y750D01*
X724Y3648D02*
Y3707D01*
X1013Y1631D02*
X1090D01*
X1209Y1750*
X2702Y3189D02*
X2704Y3190D01*
X2702Y3156D02*
Y3189D01*
X1279Y2931D02*
X1279Y2931D01*
X1262Y2931D02*
X1279D01*
X1232Y2960D02*
X1262Y2931D01*
X2065Y3058D02*
X2096Y3089D01*
X1189Y2858D02*
X1262Y2931D01*
X1153Y2858D02*
X1189D01*
X2082Y2211D02*
X2092Y2221D01*
X1077Y1950D02*
X1413D01*
X873Y1780D02*
X920D01*
X1010Y1871*
Y1879*
X1030Y1898*
X781Y1688D02*
X873Y1780D01*
X2704Y3190D02*
Y3305D01*
X821Y3261D02*
X878D01*
X975Y3358*
X665Y1772D02*
X748Y1689D01*
X665Y1772D02*
Y1801D01*
X1173Y3410D02*
X1176Y3408D01*
X1173Y3410D02*
Y3516D01*
X1175Y3518*
X1223Y1559D02*
X1224Y1559D01*
X1223Y1559D02*
Y1717D01*
X1223Y1717D02*
X1223Y1717D01*
X411Y1798D02*
X806Y1403D01*
X510Y1857D02*
X730Y1636D01*
X769*
X824Y3627D02*
Y3677D01*
X693Y3527D02*
Y3617D01*
X1150Y3661D02*
X1168Y3643D01*
Y3526D02*
Y3643D01*
X699Y3731D02*
X724Y3707D01*
X389Y3731D02*
X699D01*
X693Y3617D02*
X724Y3648D01*
X753Y3737D02*
X894D01*
X924Y3707*
X724D02*
X753Y3737D01*
X924Y3680D02*
Y3707D01*
X235Y3694D02*
X245Y3703D01*
X361*
X389Y3731*
X1175Y3518D02*
X1176D01*
X2769Y3089D02*
X2852D01*
X2217Y2165D02*
Y2167D01*
X748Y1689D02*
X778D01*
X628Y1839D02*
X665Y1801D01*
X1345Y1750D02*
X1396Y1700D01*
X1030Y1902D02*
X1077Y1950D01*
X1030Y1898D02*
Y1902D01*
X780Y1688D02*
X781D01*
X1396Y1700D02*
X1413D01*
X1922Y2062D02*
X2071Y2211D01*
X235Y3654D02*
Y3694D01*
X1437Y935D02*
Y1020D01*
X806Y1403D02*
X1055D01*
X2702Y3156D02*
X2769Y3089D01*
X774Y3603D02*
Y3677D01*
Y3603D02*
X797Y3579D01*
X1279Y2931D02*
X1401D01*
X1279Y2259D02*
X1358D01*
X778Y1689D02*
X780Y1687D01*
X628Y1839D02*
Y1857D01*
X1546Y900D02*
X1591Y945D01*
X1473Y900D02*
X1546D01*
X1055Y1403D02*
X1437Y1020D01*
Y935D02*
X1473Y900D01*
X1410Y748D02*
X1511Y849D01*
X2183*
X2279Y945*
G54D63*
X188Y1370D02*
X320Y1501D01*
X188Y791D02*
Y1370D01*
X320Y1501D02*
Y1672D01*
X277Y2254D02*
X403Y2380D01*
X277Y1714D02*
Y2254D01*
Y1714D02*
X320Y1672D01*
X380Y1480D02*
Y1694D01*
X246Y1346D02*
X380Y1480D01*
X335Y1738D02*
Y1840D01*
Y1738D02*
X380Y1694D01*
X335Y1840D02*
X411Y1916D01*
X246Y1051D02*
Y1346D01*
X403Y2380D02*
X410D01*
X405Y2515D02*
Y2523D01*
X311Y3386D02*
X335Y3361D01*
Y2592D02*
X405Y2523D01*
X335Y2592D02*
Y3361D01*
X246Y1051D02*
X324Y973D01*
Y962D02*
X541Y745D01*
X324Y962D02*
Y973D01*
X944Y713D02*
Y834D01*
X620Y1159D02*
X944Y834D01*
X903Y75D02*
X2133D01*
X2219Y161*
X2222*
X188Y791D02*
X903Y75D01*
X1650Y394D02*
X1928D01*
X1410Y158D02*
X1414D01*
X1650Y394*
X541Y733D02*
Y745D01*
Y733D02*
X962Y312D01*
X1523Y394D02*
X1534D01*
X944Y713D02*
X1139Y518D01*
Y395D02*
X1140Y394D01*
X1139Y395D02*
Y518D01*
X962Y312D02*
X1440D01*
X1523Y394*
X2044D02*
X2321D01*
X1808Y158D02*
X2044Y394D01*
X1804Y158D02*
X1808D01*
G54D64*
X643Y2918D02*
X1034D01*
X945Y2893D02*
X1034D01*
X653D02*
X945D01*
Y2823D02*
Y2893D01*
X941Y2820D02*
X945Y2823D01*
X411Y2742D02*
X413Y2744D01*
X468*
X643Y2918*
X1034D02*
X1047Y2931D01*
X1064*
X500Y2693D02*
X510Y2683D01*
X500Y2693D02*
Y2740D01*
X653Y2893*
X1034D02*
X1047Y2881D01*
X1064*
X985Y2258D02*
X987D01*
X968Y2241D02*
X985Y2258D01*
X773Y2105D02*
X789D01*
X925Y2241D02*
X968D01*
X789Y2105D02*
X925Y2241D01*
X726Y2152D02*
X773Y2105D01*
X799Y2080D02*
X935Y2216D01*
X969*
X773Y2080D02*
X799D01*
X726Y2034D02*
X773Y2080D01*
X969Y2216D02*
X986Y2200D01*
X987Y2258D02*
X996Y2249D01*
X1004*
X1006Y2246*
X1034*
X1047Y2259*
X1064*
X986Y2200D02*
X989D01*
X1010Y2221*
X1034*
X1047Y2209*
X1064*
G54D65*
X1062Y2433D02*
X1064Y2431D01*
Y2309D02*
Y2431D01*
X987Y2309D02*
X1064D01*
X987Y2309D02*
X987Y2309D01*
G54D66*
X2702Y3035D02*
X2703Y3036D01*
X2852*
X1335Y2044D02*
X1466D01*
X1610Y1900*
X1627*
G54D67*
X1198Y945D03*
X1098D03*
X998D03*
X2379D03*
X2279D03*
X2179D03*
X1591D03*
X1491D03*
X1391D03*
X1946D03*
X1846D03*
X1746D03*
G54D68*
X726Y1798D03*
Y1916D03*
Y2034D03*
Y2152D03*
Y2270D03*
Y2388D03*
Y2506D03*
Y2624D03*
Y2742D03*
X628Y1857D03*
Y1975D03*
Y2093D03*
Y2211D03*
Y2329D03*
Y2447D03*
Y2565D03*
Y2683D03*
X510Y1857D03*
Y1975D03*
Y2093D03*
Y2211D03*
Y2329D03*
Y2447D03*
Y2565D03*
Y2683D03*
X411Y1798D03*
Y1916D03*
Y2034D03*
Y2152D03*
Y2270D03*
Y2388D03*
Y2506D03*
Y2624D03*
Y2742D03*
G54D69*
X155Y3028D03*
Y1512D03*
G54D70*
X1410Y158D03*
X1384Y532D03*
X1534Y394D03*
X1804Y158D03*
X1778Y532D03*
X1928Y394D03*
X1016Y158D03*
X991Y532D03*
X1140Y394D03*
X2222Y161D03*
X2197Y535D03*
X2346Y398D03*
G54D71*
X1579Y748D03*
X1410D03*
X1973D03*
X1804D03*
X1186D03*
X1016D03*
X2392Y752D03*
X2222D03*
G54D72*
X324Y1159D03*
X620D03*
X324Y765D03*
Y962D03*
X620Y765D03*
Y962D03*
Y175D03*
X324D03*
G54D73*
X940Y1000D03*
G54D74*
X1775Y1600D03*
X2055Y2765D03*
X2105Y2880D03*
X1515Y1525D03*
X1355Y2730D03*
X1860Y1635D03*
X892Y1724D03*
X2250Y2490D03*
X1545Y2880D03*
X1515Y2925D03*
X2430Y2710D03*
X2652Y2687D03*
X2485Y2745D03*
X2534Y2790D03*
X2326Y2460D03*
X1500Y3631D03*
X824Y3627D03*
X2612Y2550D03*
X2005Y1707D03*
X2019Y1802D03*
X2151Y2287D03*
X2265Y2110D03*
X1150Y2915D03*
X1230Y2210D03*
X1524Y1894D03*
X1505Y1734D03*
X1180Y1816D03*
X1100Y1730D03*
X771Y1634D03*
X1224Y1559D03*
X1262Y1819D03*
X1151Y2856D03*
X1507Y2522D03*
X1512Y2747D03*
X2788Y2750D03*
X2684Y2792D03*
X2671Y2844D03*
X821Y3261D03*
X2870Y3635D03*
X2940Y2579D03*
X2787Y2350D03*
X2447Y3622D03*
X2016Y3626D03*
X2145Y2406D03*
X2342Y2212D03*
X2063Y3058D03*
X1491Y2251D03*
X1431Y2438D03*
X1664Y2262D03*
X1504Y2580D03*
X1568Y2130D03*
X1391Y2473D03*
X1317Y2552D03*
X2388Y2211D03*
X1223Y1717D03*
X1160Y1773D03*
X871Y2861D03*
X2007Y2946D03*
X1723Y2750D03*
X2337Y2581D03*
X1653Y2062D03*
X2417Y3257D03*
X860Y2700D03*
X1176Y3408D03*
X1690Y1798D03*
X1700Y2697D03*
X1335Y2044D03*
X2641Y2895D03*
X780Y1687D03*
X1313Y1897D03*
X2065Y815D03*
M02*