%FSLAX23Y23*%
%MOIN*%
%SFA1B1*%

%IPPOS*%
%ADD13C,0.010000*%
%ADD21O,0.057090X0.023620*%
%ADD33R,0.053150X0.057090*%
%ADD34R,0.035430X0.039370*%
%ADD35R,0.039370X0.035430*%
%ADD62C,0.020000*%
%ADD63C,0.050000*%
%ADD66C,0.008000*%
%ADD67C,0.055120*%
%ADD68C,0.086610*%
%ADD69C,0.129920*%
%ADD70C,0.098430*%
%ADD71C,0.078740*%
%ADD72C,0.090550*%
%ADD73C,0.050000*%
%ADD74C,0.030750*%
%ADD75R,0.047240X0.059060*%
%ADD76R,0.129920X0.059060*%
%LNvcu-1*%
%LPD*%
G36*
X3184Y55D02*
X15D01*
Y3954*
X3184*
Y55*
G37*
%LNvcu-2*%
%LPC*%
G36*
X2870Y3659D02*
X2861Y3657D01*
X2853Y3652*
X2848Y3644*
X2846Y3635*
X2848Y3626*
X2853Y3618*
X2861Y3613*
X2870Y3612*
X2874Y3612*
X2956Y3531*
Y3146*
X2946Y3142*
X2470Y3617*
X2471Y3622*
X2469Y3631*
X2464Y3638*
X2456Y3643*
X2447Y3645*
X2438Y3643*
X2431Y3638*
X2425Y3631*
X2424Y3622*
X2425Y3612*
X2431Y3605*
X2438Y3600*
X2447Y3598*
X2452Y3599*
X2927Y3123*
Y2598*
X2924Y2596*
X2919Y2588*
X2917Y2579*
X2919Y2570*
X2924Y2562*
X2931Y2557*
X2940Y2556*
X2946Y2557*
X2956Y2550*
Y2537*
X2791Y2373*
X2787Y2374*
X2778Y2372*
X2770Y2367*
X2765Y2359*
X2763Y2350*
X2765Y2341*
X2770Y2333*
X2778Y2328*
X2787Y2326*
X2796Y2328*
X2804Y2333*
X2809Y2341*
X2811Y2350*
X2810Y2354*
X2978Y2522*
X2981Y2527*
X2982Y2532*
Y3536*
X2981Y3541*
X2978Y3545*
X2892Y3631*
X2893Y3635*
X2892Y3644*
X2886Y3652*
X2879Y3657*
X2870Y3659*
G37*
G36*
X1217Y3143D02*
X1194D01*
Y3119*
X1217*
Y3143*
G37*
G36*
X2677Y3140D02*
X2670Y3139D01*
X2663Y3136*
X2657Y3132*
X2653Y3126*
X2650Y3119*
X2649Y3112*
X2650Y3105*
X2653Y3098*
X2657Y3092*
X2663Y3088*
X2670Y3085*
X2677Y3084*
X2684Y3085*
X2691Y3088*
X2697Y3092*
X2701Y3098*
X2704Y3105*
X2705Y3112*
X2704Y3119*
X2701Y3126*
X2697Y3132*
X2691Y3136*
X2684Y3139*
X2677Y3140*
G37*
G36*
X1217Y3109D02*
X1194D01*
Y3084*
X1217*
Y3109*
G37*
G36*
X1846Y3074D02*
X1823D01*
Y3072*
X1772*
Y3058*
X1682*
X1681Y3060*
X1674Y3064*
X1667Y3065*
X1633*
X1626Y3064*
X1619Y3060*
X1615Y3053*
X1613Y3045*
X1615Y3038*
X1619Y3031*
X1626Y3027*
X1633Y3025*
Y3015*
X1626Y3014*
X1619Y3010*
X1615Y3003*
X1613Y2995*
X1615Y2988*
X1619Y2981*
X1626Y2977*
X1633Y2975*
Y2965*
X1626Y2964*
X1619Y2960*
X1615Y2953*
X1613Y2945*
X1615Y2938*
X1619Y2931*
X1626Y2927*
X1633Y2925*
Y2915*
X1626Y2914*
X1619Y2910*
X1615Y2903*
X1613Y2895*
X1615Y2888*
X1619Y2881*
X1626Y2877*
X1627Y2877*
Y2866*
X1625Y2866*
X1618Y2861*
X1613Y2854*
X1612Y2850*
X1650*
X1688*
X1687Y2854*
X1682Y2861*
X1675Y2866*
X1673Y2866*
Y2877*
X1674Y2877*
X1681Y2881*
X1685Y2888*
X1687Y2895*
X1685Y2903*
X1681Y2910*
X1674Y2914*
X1667Y2915*
Y2925*
X1674Y2927*
X1681Y2931*
X1682Y2932*
X1774*
Y2918*
X1825*
Y2916*
X1848*
Y2946*
Y2975*
X1825*
Y2973*
X1774*
Y2958*
X1682*
X1681Y2960*
X1674Y2964*
X1667Y2965*
Y2975*
X1674Y2977*
X1681Y2981*
X1685Y2988*
X1687Y2995*
X1685Y3003*
X1681Y3010*
X1674Y3014*
X1667Y3015*
Y3025*
X1674Y3027*
X1681Y3031*
X1682Y3032*
X1772*
Y3017*
X1823*
Y3015*
X1846*
Y3045*
Y3074*
G37*
G36*
X1452Y3068D02*
X1440D01*
Y3050*
X1473*
X1473Y3054*
X1468Y3061*
X1461Y3066*
X1452Y3068*
G37*
G36*
X1878Y3074D02*
X1856D01*
Y3050*
X1878*
Y3074*
G37*
G36*
X1210Y3047D02*
X1187D01*
Y3023*
X1210*
Y3047*
G37*
G36*
X1878Y3040D02*
X1856D01*
Y3015*
X1878*
Y3040*
G37*
G36*
X1210Y3013D02*
X1187D01*
Y2988*
X1210*
Y3013*
G37*
G36*
X155Y3101D02*
X141Y3100D01*
X127Y3096*
X115Y3089*
X104Y3080*
X95Y3069*
X88Y3056*
X84Y3042*
X82Y3028*
X84Y3014*
X88Y3000*
X95Y2987*
X104Y2976*
X115Y2967*
X127Y2960*
X141Y2956*
X155Y2955*
X170Y2956*
X183Y2960*
X196Y2967*
X207Y2976*
X216Y2987*
X223Y3000*
X227Y3014*
X229Y3028*
X227Y3042*
X223Y3056*
X216Y3069*
X207Y3080*
X196Y3089*
X183Y3096*
X170Y3100*
X155Y3101*
G37*
G36*
X1880Y2975D02*
X1858D01*
Y2951*
X1880*
Y2975*
G37*
G36*
Y2941D02*
X1858D01*
Y2916*
X1880*
Y2941*
G37*
G36*
X1176Y3431D02*
X1166Y3429D01*
X1159Y3424*
X1154Y3417*
X1152Y3408*
X1154Y3398*
X1159Y3391*
X1166Y3386*
X1173Y3384*
X1560Y2998*
Y2909*
X1550Y2902*
X1545Y2903*
X1540Y2902*
X1534Y2911*
X1536Y2915*
X1538Y2925*
X1536Y2934*
X1531Y2941*
X1524Y2946*
X1515Y2948*
X1505Y2946*
X1498Y2941*
X1495Y2938*
X1481*
X1481Y2938*
X1472Y2945*
X1472Y2945*
X1472Y2945*
X1471Y2953*
X1466Y2960*
X1460Y2964*
X1452Y2965*
Y2975*
X1460Y2977*
X1466Y2981*
X1471Y2988*
X1472Y2995*
X1471Y3003*
X1466Y3010*
X1460Y3014*
X1458Y3014*
Y3024*
X1461Y3025*
X1468Y3030*
X1473Y3037*
X1473Y3040*
X1435*
Y3045*
X1430*
Y3068*
X1419*
X1410Y3066*
X1403Y3061*
X1398Y3054*
X1397Y3049*
X1387Y3046*
X1324Y3108*
X1320Y3111*
X1315Y3112*
X1301*
Y3141*
X1250*
Y3143*
X1227*
Y3114*
Y3084*
X1250*
Y3086*
X1287*
X1288Y3086*
X1310*
X1399Y2997*
X1399Y2995*
X1400Y2988*
X1405Y2981*
X1411Y2977*
X1419Y2975*
Y2965*
X1411Y2964*
X1405Y2960*
X1400Y2953*
X1399Y2945*
X1400Y2938*
X1405Y2931*
X1411Y2927*
X1419Y2925*
Y2915*
X1411Y2914*
X1405Y2910*
X1404Y2908*
X1394*
X1294Y3009*
Y3045*
X1243*
Y3047*
X1220*
Y3018*
Y2988*
X1243*
Y2990*
X1275*
X1288Y2977*
X1283Y2967*
X964*
X959Y2966*
X955Y2964*
X875Y2884*
X871Y2884*
X861Y2883*
X854Y2877*
X842Y2878*
X839Y2880*
Y3246*
X843Y3252*
X845Y3261*
X843Y3270*
X838Y3278*
X830Y3283*
X821Y3285*
X812Y3283*
X804Y3278*
X799Y3270*
X797Y3261*
X799Y3252*
X803Y3246*
Y2863*
X804Y2856*
X808Y2850*
X844Y2815*
X850Y2811*
X857Y2809*
X1037*
X1041Y2799*
X1028Y2786*
X1024Y2780*
X1023Y2773*
Y2723*
X1024Y2716*
X1028Y2710*
X1056Y2682*
X1062Y2678*
X1069Y2677*
X1411*
X1411Y2677*
X1419Y2675*
X1452*
X1460Y2677*
X1466Y2681*
X1467Y2682*
X1479Y2684*
X1480Y2684*
X1484Y2681*
X1489Y2680*
X1620*
X1626Y2677*
X1633Y2675*
X1667*
X1674Y2677*
X1683Y2680*
X1690Y2675*
X1700Y2673*
X1709Y2675*
X1716Y2680*
X1721Y2687*
X1723Y2697*
X1721Y2706*
X1716Y2713*
X1709Y2718*
X1700Y2720*
X1690Y2718*
X1683Y2713*
X1680Y2710*
X1674Y2714*
X1667Y2715*
Y2725*
X1674Y2727*
X1681Y2731*
X1685Y2738*
X1687Y2745*
X1685Y2753*
X1681Y2760*
X1674Y2764*
X1667Y2765*
Y2775*
X1674Y2777*
X1681Y2781*
X1682Y2782*
X1835*
Y2772*
X1886*
Y2770*
X1909*
Y2800*
Y2829*
X1886*
Y2827*
X1835*
Y2808*
X1682*
X1681Y2810*
X1674Y2814*
X1673Y2814*
Y2824*
X1675Y2825*
X1682Y2830*
X1687Y2837*
X1688Y2840*
X1650*
X1612*
X1613Y2837*
X1618Y2830*
X1625Y2825*
X1627Y2824*
Y2814*
X1626Y2814*
X1619Y2810*
X1615Y2803*
X1613Y2795*
X1615Y2788*
X1619Y2781*
X1626Y2777*
X1633Y2775*
Y2765*
X1626Y2764*
X1619Y2760*
X1618Y2758*
X1606Y2756*
X1596Y2766*
Y3005*
X1595Y3012*
X1591Y3018*
X1199Y3410*
X1197Y3417*
X1192Y3424*
X1185Y3429*
X1176Y3431*
G37*
G36*
X2671Y2868D02*
X2662Y2866D01*
X2654Y2861*
X2652Y2857*
X2587*
X2582Y2856*
X2578Y2853*
X2538Y2813*
X2534Y2814*
X2524Y2812*
X2517Y2807*
X2512Y2800*
X2510Y2790*
X2512Y2781*
X2517Y2774*
X2524Y2769*
X2528Y2768*
X2529Y2768*
X2529Y2762*
X2520Y2758*
X2504*
X2501Y2761*
X2494Y2766*
X2485Y2768*
X2475Y2766*
X2468Y2761*
X2463Y2754*
X2461Y2745*
X2463Y2735*
X2464Y2733*
X2459Y2723*
X2449*
X2446Y2726*
X2439Y2731*
X2430Y2733*
X2420Y2731*
X2413Y2726*
X2408Y2719*
X2406Y2710*
X2408Y2700*
X2413Y2693*
X2420Y2688*
X2430Y2686*
X2439Y2688*
X2446Y2693*
X2449Y2696*
X2621*
X2628Y2688*
X2628Y2687*
X2630Y2678*
X2635Y2670*
X2643Y2665*
X2652Y2663*
X2661Y2665*
X2668Y2670*
X2674Y2678*
X2675Y2687*
X2674Y2696*
X2668Y2703*
X2661Y2709*
X2652Y2710*
X2647Y2710*
X2638Y2719*
X2634Y2721*
X2634Y2722*
X2635Y2728*
X2636Y2731*
X2641Y2732*
X2646Y2735*
X2679Y2769*
X2684Y2768*
X2693Y2770*
X2700Y2775*
X2705Y2783*
X2707Y2792*
X2705Y2801*
X2700Y2809*
X2693Y2814*
X2687Y2815*
X2684Y2825*
X2688Y2827*
X2693Y2835*
X2694Y2844*
X2693Y2853*
X2688Y2861*
X2680Y2866*
X2671Y2868*
G37*
G36*
X1942Y2829D02*
X1919D01*
Y2805*
X1942*
Y2829*
G37*
G36*
Y2795D02*
X1919D01*
Y2770*
X1942*
Y2795*
G37*
G36*
X1500Y3655D02*
X1491Y3653D01*
X1484Y3648*
X1479Y3640*
X1477Y3631*
X1479Y3622*
X1484Y3615*
X1491Y3609*
X1500Y3608*
X1510Y3609*
X1517Y3615*
X1520Y3618*
X1898*
X2618Y2899*
X2617Y2895*
X2619Y2885*
X2624Y2878*
X2631Y2873*
X2641Y2871*
X2650Y2873*
X2657Y2878*
X2662Y2885*
X2664Y2893*
X2668Y2896*
X2674Y2898*
X2775Y2797*
Y2769*
X2771Y2766*
X2766Y2759*
X2764Y2750*
X2766Y2740*
X2771Y2733*
X2779Y2728*
X2788Y2726*
X2797Y2728*
X2805Y2733*
X2810Y2740*
X2812Y2750*
X2810Y2759*
X2805Y2766*
X2801Y2769*
Y2802*
X2800Y2807*
X2797Y2811*
X2534Y3075*
X2534Y3079*
X2537Y3086*
X2541Y3088*
X2547Y3092*
X2551Y3098*
X2554Y3105*
X2555Y3112*
X2554Y3119*
X2551Y3126*
X2547Y3132*
X2541Y3136*
X2534Y3139*
X2527Y3140*
X2520Y3139*
X2513Y3136*
X2507Y3132*
X2503Y3126*
X2501Y3122*
X2494Y3119*
X2490Y3119*
X2029Y3579*
Y3607*
X2033Y3610*
X2038Y3617*
X2040Y3626*
X2038Y3636*
X2033Y3643*
X2025Y3648*
X2016Y3650*
X2007Y3648*
X1999Y3643*
X1994Y3636*
X1993Y3626*
X1994Y3617*
X1999Y3610*
X2003Y3607*
Y3574*
X2004Y3569*
X2007Y3565*
X2638Y2934*
X2636Y2924*
X2635Y2922*
X2631Y2923*
X1913Y3641*
X1909Y3644*
X1904Y3645*
X1520*
X1517Y3648*
X1510Y3653*
X1500Y3655*
G37*
G36*
X726Y2794D02*
X713Y2792D01*
X700Y2787*
X690Y2779*
X682Y2768*
X676Y2756*
X675Y2742*
X676Y2729*
X682Y2717*
X690Y2706*
X700Y2698*
X713Y2693*
X726Y2691*
X740Y2693*
X752Y2698*
X763Y2706*
X771Y2717*
X776Y2729*
X778Y2742*
X776Y2756*
X771Y2768*
X763Y2779*
X752Y2787*
X740Y2792*
X726Y2794*
G37*
G36*
X411D02*
X398Y2792D01*
X386Y2787*
X375Y2779*
X367Y2768*
X361Y2756*
X360Y2742*
X361Y2729*
X367Y2717*
X375Y2706*
X386Y2698*
X398Y2693*
X411Y2691*
X425Y2693*
X437Y2698*
X448Y2706*
X456Y2717*
X461Y2729*
X463Y2742*
X461Y2756*
X456Y2768*
X448Y2779*
X437Y2787*
X425Y2792*
X411Y2794*
G37*
G36*
X628Y2735D02*
X614Y2733D01*
X602Y2728*
X591Y2720*
X583Y2709*
X578Y2697*
X576Y2683*
X578Y2670*
X583Y2658*
X591Y2647*
X602Y2639*
X614Y2634*
X628Y2632*
X641Y2634*
X654Y2639*
X664Y2647*
X673Y2658*
X678Y2670*
X679Y2683*
X678Y2697*
X673Y2709*
X664Y2720*
X654Y2728*
X641Y2733*
X628Y2735*
G37*
G36*
X510D02*
X496Y2733D01*
X484Y2728*
X473Y2720*
X465Y2709*
X460Y2697*
X458Y2683*
X460Y2670*
X465Y2658*
X473Y2647*
X484Y2639*
X496Y2634*
X510Y2632*
X523Y2634*
X536Y2639*
X546Y2647*
X554Y2658*
X560Y2670*
X561Y2683*
X560Y2697*
X554Y2709*
X546Y2720*
X536Y2728*
X523Y2733*
X510Y2735*
G37*
G36*
X416Y2675D02*
Y2629D01*
X462*
X461Y2638*
X456Y2650*
X448Y2661*
X437Y2669*
X425Y2674*
X416Y2675*
G37*
G36*
X406D02*
X398Y2674D01*
X385Y2669*
X375Y2661*
X366Y2650*
X361Y2638*
X360Y2629*
X406*
Y2675*
G37*
G36*
Y2619D02*
X360D01*
X361Y2611*
X366Y2598*
X375Y2588*
X385Y2580*
X398Y2574*
X406Y2573*
Y2619*
G37*
G36*
X462D02*
X416D01*
Y2573*
X425Y2574*
X437Y2580*
X448Y2588*
X456Y2598*
X461Y2611*
X462Y2619*
G37*
G36*
X633Y2616D02*
Y2570D01*
X679*
X678Y2579*
X673Y2591*
X664Y2602*
X654Y2610*
X641Y2615*
X633Y2616*
G37*
G36*
X515D02*
Y2570D01*
X561*
X560Y2579*
X555Y2591*
X546Y2602*
X536Y2610*
X523Y2615*
X515Y2616*
G37*
G36*
X623D02*
X614Y2615D01*
X602Y2610*
X591Y2602*
X583Y2591*
X578Y2579*
X577Y2570*
X623*
Y2616*
G37*
G36*
X505D02*
X496Y2615D01*
X484Y2610*
X473Y2602*
X465Y2591*
X460Y2579*
X459Y2570*
X505*
Y2616*
G37*
G36*
X726Y2676D02*
X713Y2674D01*
X700Y2669*
X690Y2661*
X682Y2650*
X676Y2638*
X675Y2624*
X676Y2611*
X682Y2599*
X690Y2588*
X700Y2580*
X713Y2574*
X726Y2573*
X740Y2574*
X752Y2580*
X763Y2588*
X771Y2599*
X776Y2611*
X776Y2611*
X1454*
X1481Y2585*
X1480Y2580*
X1481Y2575*
X1475Y2565*
X1337*
X1334Y2568*
X1326Y2574*
X1317Y2575*
X1308Y2574*
X1301Y2568*
X1296Y2561*
X1294Y2552*
X1296Y2543*
X1296Y2541*
X1291Y2531*
X771*
X771Y2532*
X763Y2543*
X752Y2551*
X740Y2556*
X726Y2558*
X713Y2556*
X700Y2551*
X690Y2543*
X682Y2532*
X676Y2520*
X675Y2506*
X676Y2493*
X682Y2480*
X690Y2470*
X700Y2462*
X713Y2456*
X726Y2455*
X740Y2456*
X752Y2462*
X763Y2470*
X771Y2480*
X776Y2493*
X778Y2505*
X1384*
X1385Y2495*
X1382Y2494*
X1374Y2489*
X1369Y2482*
X1367Y2473*
X1369Y2463*
X1374Y2456*
X1382Y2451*
X1391Y2449*
X1400Y2451*
X1408Y2444*
X1407Y2438*
X1409Y2429*
X1414Y2422*
X1422Y2417*
X1428Y2415*
X1506Y2338*
Y2281*
X1496Y2274*
X1491Y2275*
X1482Y2273*
X1474Y2268*
X1471Y2265*
X1393*
X1264Y2394*
X1268Y2403*
X1290*
Y2428*
X1262*
Y2433*
X1257*
Y2462*
X1235*
Y2460*
X1184*
Y2431*
X777*
X772Y2430*
X767Y2427*
X765Y2424*
X763Y2425*
X752Y2433*
X740Y2438*
X726Y2440*
X713Y2438*
X700Y2433*
X690Y2425*
X682Y2414*
X676Y2401*
X675Y2388*
X676Y2375*
X682Y2362*
X690Y2352*
X700Y2343*
X713Y2338*
X726Y2337*
X740Y2338*
X752Y2343*
X763Y2352*
X771Y2362*
X776Y2375*
X778Y2388*
X777Y2397*
X784Y2405*
X1196*
X1198Y2405*
X1216*
X1221Y2400*
X1222Y2398*
X1379Y2242*
X1383Y2239*
X1388Y2238*
X1471*
X1474Y2235*
X1482Y2230*
X1491Y2228*
X1496Y2229*
X1506Y2222*
Y2191*
X1366Y2051*
X1355Y2055*
X1351Y2060*
X1344Y2065*
X1335Y2067*
X1329Y2066*
X1117Y2279*
X1113Y2281*
X1108Y2282*
X776*
X776Y2283*
X771Y2296*
X763Y2307*
X752Y2315*
X740Y2320*
X726Y2322*
X713Y2320*
X700Y2315*
X690Y2307*
X682Y2296*
X676Y2283*
X675Y2270*
X676Y2257*
X682Y2244*
X690Y2234*
X700Y2225*
X713Y2220*
X726Y2218*
X740Y2220*
X752Y2225*
X763Y2234*
X771Y2244*
X776Y2257*
X776Y2258*
X1103*
X1312Y2049*
X1311Y2044*
X1313Y2034*
X1318Y2027*
X1323Y2023*
X1327Y2012*
X1210Y1895*
X1206Y1889*
X1205Y1883*
Y1732*
X1201Y1726*
X1201Y1726*
X1190Y1722*
X1170Y1742*
X1173Y1754*
X1177Y1757*
X1182Y1764*
X1184Y1773*
X1182Y1783*
X1177Y1790*
X1169Y1795*
X1160Y1797*
X1156Y1796*
X1027Y1925*
X1023Y1928*
X1018Y1929*
X776*
X776Y1929*
X771Y1941*
X763Y1952*
X752Y1960*
X740Y1966*
X726Y1967*
X713Y1966*
X700Y1960*
X690Y1952*
X682Y1941*
X676Y1929*
X675Y1916*
X676Y1902*
X682Y1890*
X690Y1879*
X700Y1871*
X713Y1866*
X726Y1864*
X740Y1866*
X752Y1871*
X763Y1879*
X771Y1890*
X776Y1902*
X776Y1903*
X1013*
X1134Y1781*
X1131Y1772*
X1127Y1771*
X887*
X882Y1770*
X877Y1767*
X865Y1755*
X770*
X766Y1765*
X771Y1772*
X776Y1784*
X777Y1793*
X726*
X675*
X676Y1784*
X681Y1772*
X687Y1765*
X682Y1755*
X669*
X628Y1795*
X632Y1806*
X641Y1807*
X654Y1812*
X664Y1820*
X673Y1831*
X678Y1843*
X679Y1857*
X678Y1870*
X673Y1882*
X664Y1893*
X654Y1901*
X641Y1906*
X628Y1908*
X614Y1906*
X602Y1901*
X595Y1896*
X585Y1900*
Y1931*
X595Y1935*
X602Y1930*
X614Y1925*
X623Y1924*
Y1975*
Y2026*
X614Y2025*
X602Y2020*
X591Y2011*
X588Y2008*
X588Y2008*
X575Y2007*
X542Y2040*
X541Y2050*
X542Y2053*
X546Y2056*
X555Y2067*
X560Y2079*
X561Y2088*
X510*
X459*
X460Y2079*
X465Y2067*
X470Y2060*
X465Y2050*
X460Y2051*
X456Y2060*
X448Y2070*
X437Y2079*
X425Y2084*
X411Y2085*
X405Y2085*
X400Y2094*
X407Y2101*
X411Y2100*
X425Y2102*
X437Y2107*
X448Y2115*
X456Y2126*
X461Y2139*
X463Y2152*
X461Y2165*
X456Y2178*
X448Y2188*
X437Y2197*
X425Y2202*
X411Y2204*
X405Y2203*
X400Y2212*
X407Y2219*
X411Y2218*
X425Y2220*
X437Y2225*
X448Y2234*
X456Y2244*
X461Y2257*
X463Y2270*
X461Y2283*
X456Y2296*
X448Y2307*
X437Y2315*
X425Y2320*
X411Y2322*
X398Y2320*
X386Y2315*
X375Y2307*
X367Y2296*
X361Y2283*
X360Y2270*
X360Y2266*
X196Y2102*
X191Y2095*
X187Y2087*
X186Y2078*
Y1680*
X187Y1671*
X191Y1663*
X196Y1656*
X226Y1626*
Y1555*
X216Y1553*
X216Y1553*
X207Y1564*
X196Y1573*
X183Y1580*
X170Y1584*
X155Y1585*
X141Y1584*
X127Y1580*
X115Y1573*
X104Y1564*
X95Y1553*
X88Y1540*
X84Y1526*
X82Y1512*
X84Y1498*
X88Y1484*
X95Y1471*
X104Y1460*
X115Y1451*
X127Y1445*
X141Y1440*
X155Y1439*
X170Y1440*
X183Y1445*
X196Y1451*
X207Y1460*
X216Y1471*
X216Y1472*
X226Y1469*
Y1218*
X223Y1215*
X217Y1208*
X214Y1200*
X213Y1191*
Y854*
X214Y846*
X217Y838*
X223Y831*
X273Y780*
X273Y779*
X271Y765*
X273Y751*
X278Y738*
X286Y727*
X298Y719*
X310Y713*
X324Y711*
X338Y713*
X351Y719*
X362Y727*
X371Y738*
X376Y751*
X378Y765*
X376Y779*
X371Y792*
X362Y803*
X351Y812*
X338Y817*
X329Y818*
X279Y868*
Y918*
X289Y922*
X298Y916*
X310Y910*
X324Y908*
X338Y910*
X351Y916*
X362Y924*
X371Y935*
X376Y948*
X378Y962*
X376Y976*
X371Y989*
X362Y1000*
X351Y1008*
X338Y1014*
X324Y1016*
X310Y1014*
X298Y1008*
X289Y1002*
X279Y1006*
Y1115*
X289Y1119*
X298Y1112*
X310Y1107*
X324Y1105*
X330Y1106*
X439Y997*
Y322*
X440Y314*
X443Y306*
X449Y299*
X567Y180*
X566Y175*
X568Y161*
X573Y148*
X582Y137*
X593Y128*
X606Y123*
X620Y121*
X633Y123*
X646Y128*
X654Y134*
X964*
X966Y129*
X976Y117*
X987Y108*
X1001Y102*
X1016Y100*
X1031Y102*
X1045Y108*
X1057Y117*
X1066Y129*
X1072Y143*
X1074Y158*
X1072Y172*
X1066Y186*
X1057Y198*
X1045Y207*
X1031Y213*
X1016Y215*
X1001Y213*
X987Y207*
X978Y200*
X667*
X666Y201*
X657Y212*
X646Y221*
X633Y226*
X620Y228*
X614Y227*
X505Y336*
Y1011*
X504Y1016*
X514Y1021*
X567Y968*
X566Y962*
X568Y948*
X573Y935*
X582Y924*
X593Y916*
X606Y910*
X620Y908*
X633Y910*
X646Y916*
X657Y924*
X666Y935*
X671Y948*
X673Y962*
X671Y976*
X666Y989*
X657Y1000*
X646Y1008*
X633Y1014*
X620Y1016*
X614Y1015*
X436Y1193*
Y1668*
X434Y1677*
X431Y1685*
X426Y1691*
X373Y1745*
X373Y1750*
X384Y1754*
X386Y1753*
X398Y1748*
X411Y1746*
X425Y1748*
X437Y1753*
X437Y1753*
X476Y1714*
X480Y1711*
X485Y1710*
X756*
X761Y1700*
X759Y1696*
X757Y1687*
X759Y1678*
X764Y1671*
X768Y1668*
X766Y1657*
X762Y1656*
X754Y1651*
X749Y1643*
X747Y1634*
X749Y1625*
X754Y1618*
X762Y1612*
X771Y1611*
X780Y1612*
X786Y1616*
X1249*
X1911Y954*
X1910Y945*
X1911Y936*
X1915Y927*
X1921Y920*
X1928Y914*
X1937Y910*
X1946Y909*
X1955Y910*
X1964Y914*
X1971Y920*
X1977Y927*
X1980Y936*
X1982Y945*
X1980Y954*
X1977Y963*
X1971Y970*
X1964Y976*
X1955Y979*
X1946Y981*
X1937Y980*
X1279Y1638*
X1283Y1648*
X1650*
X2344Y954*
X2343Y945*
X2344Y936*
X2348Y927*
X2354Y920*
X2361Y914*
X2370Y910*
X2379Y909*
X2388Y910*
X2397Y914*
X2404Y920*
X2410Y927*
X2413Y936*
X2415Y945*
X2413Y954*
X2410Y963*
X2404Y970*
X2397Y976*
X2388Y979*
X2379Y981*
X2370Y980*
X1782Y1567*
X1783Y1571*
X1785Y1579*
X1791Y1583*
X1796Y1590*
X1798Y1600*
X1796Y1609*
X1791Y1616*
X1788Y1619*
Y1762*
X1787Y1767*
X1784Y1771*
X1582Y1973*
Y2111*
X1585Y2114*
X1590Y2121*
X1592Y2130*
X1591Y2136*
X1597Y2146*
X2336*
X2341Y2147*
X2345Y2149*
X2384Y2188*
X2388Y2187*
X2397Y2189*
X2405Y2194*
X2410Y2202*
X2412Y2211*
X2410Y2220*
X2405Y2228*
X2397Y2233*
X2388Y2235*
X2379Y2233*
X2372Y2228*
X2371Y2228*
X2359*
X2359Y2229*
X2351Y2234*
X2342Y2236*
X2333Y2234*
X2325Y2229*
X2323Y2225*
X1585*
X1580Y2224*
X1576Y2221*
X1551Y2197*
X1542Y2201*
Y2345*
X1541Y2352*
X1537Y2358*
X1454Y2441*
X1453Y2448*
X1451Y2449*
X1457Y2459*
X2227*
X2232Y2460*
X2236Y2463*
X2241Y2468*
X2250Y2466*
X2259Y2468*
X2266Y2473*
X2271Y2480*
X2272Y2482*
X2282Y2485*
X2303Y2464*
X2303Y2460*
X2304Y2451*
X2310Y2443*
X2317Y2438*
X2326Y2436*
X2335Y2438*
X2343Y2443*
X2348Y2451*
X2350Y2460*
X2348Y2469*
X2343Y2476*
X2335Y2481*
X2326Y2483*
X2322Y2482*
X2243Y2561*
X2239Y2564*
X2234Y2565*
X1532*
X1526Y2575*
X1527Y2580*
X1525Y2589*
X1520Y2597*
X1513Y2602*
X1504Y2604*
X1499Y2603*
X1469Y2634*
X1465Y2636*
X1460Y2637*
X776*
X776Y2638*
X771Y2650*
X763Y2661*
X752Y2669*
X740Y2674*
X726Y2676*
G37*
G36*
X2063Y3081D02*
X2054Y3079D01*
X2047Y3074*
X2042Y3067*
X2040Y3058*
X2040Y3056*
X2038Y3053*
X2036Y3046*
Y2779*
X2033Y2774*
X2031Y2765*
X2033Y2755*
X2038Y2748*
X2045Y2743*
X2055Y2741*
X2064Y2743*
X2071Y2748*
X2076Y2755*
X2078Y2765*
X2076Y2774*
X2073Y2779*
Y2869*
X2083Y2870*
X2088Y2863*
X2095Y2858*
X2105Y2856*
X2109Y2857*
X2425Y2540*
X2429Y2538*
X2434Y2537*
X2593*
X2596Y2533*
X2603Y2528*
X2612Y2526*
X2621Y2528*
X2629Y2533*
X2634Y2541*
X2636Y2550*
X2634Y2559*
X2629Y2566*
X2621Y2572*
X2612Y2573*
X2603Y2572*
X2596Y2566*
X2593Y2563*
X2440*
X2127Y2875*
X2128Y2880*
X2126Y2889*
X2121Y2896*
X2114Y2901*
X2105Y2903*
X2095Y2901*
X2088Y2896*
X2083Y2889*
X2073Y2890*
Y3036*
X2080Y3041*
X2085Y3049*
X2087Y3058*
X2085Y3067*
X2080Y3074*
X2073Y3079*
X2063Y3081*
G37*
G36*
X623Y2560D02*
X577D01*
X578Y2552*
X583Y2539*
X591Y2529*
X602Y2520*
X614Y2515*
X623Y2514*
Y2560*
G37*
G36*
X505D02*
X459D01*
X460Y2552*
X465Y2539*
X473Y2529*
X484Y2520*
X496Y2515*
X505Y2514*
Y2560*
G37*
G36*
X679D02*
X633D01*
Y2514*
X641Y2515*
X654Y2520*
X664Y2529*
X673Y2539*
X678Y2552*
X679Y2560*
G37*
G36*
X561D02*
X515D01*
Y2514*
X523Y2515*
X536Y2520*
X546Y2529*
X555Y2539*
X560Y2552*
X561Y2560*
G37*
G36*
X411Y2558D02*
X398Y2556D01*
X386Y2551*
X375Y2543*
X367Y2532*
X361Y2520*
X360Y2506*
X361Y2493*
X367Y2480*
X375Y2470*
X386Y2462*
X398Y2456*
X411Y2455*
X425Y2456*
X437Y2462*
X448Y2470*
X456Y2480*
X461Y2493*
X463Y2506*
X461Y2520*
X456Y2532*
X448Y2543*
X437Y2551*
X425Y2556*
X411Y2558*
G37*
G36*
X633Y2498D02*
Y2452D01*
X679*
X678Y2461*
X673Y2473*
X664Y2484*
X654Y2492*
X641Y2497*
X633Y2498*
G37*
G36*
X515D02*
Y2452D01*
X561*
X560Y2461*
X555Y2473*
X546Y2484*
X536Y2492*
X523Y2497*
X515Y2498*
G37*
G36*
X623D02*
X614Y2497D01*
X602Y2492*
X591Y2484*
X583Y2473*
X578Y2461*
X577Y2452*
X623*
Y2498*
G37*
G36*
X505D02*
X496Y2497D01*
X484Y2492*
X473Y2484*
X465Y2473*
X460Y2461*
X459Y2452*
X505*
Y2498*
G37*
G36*
X1290Y2462D02*
X1267D01*
Y2438*
X1290*
Y2462*
G37*
G36*
X679Y2442D02*
X633D01*
Y2396*
X641Y2397*
X654Y2402*
X664Y2411*
X673Y2421*
X678Y2434*
X679Y2442*
G37*
G36*
X561D02*
X515D01*
Y2396*
X523Y2397*
X536Y2402*
X546Y2411*
X555Y2421*
X560Y2434*
X561Y2442*
G37*
G36*
X623D02*
X577D01*
X578Y2434*
X583Y2421*
X591Y2411*
X602Y2402*
X614Y2397*
X623Y2396*
Y2442*
G37*
G36*
X505D02*
X459D01*
X460Y2434*
X465Y2421*
X473Y2411*
X484Y2402*
X496Y2397*
X505Y2396*
Y2442*
G37*
G36*
X411Y2440D02*
X398Y2438D01*
X386Y2433*
X375Y2425*
X367Y2414*
X361Y2401*
X360Y2388*
X361Y2375*
X367Y2362*
X375Y2352*
X386Y2343*
X398Y2338*
X411Y2337*
X425Y2338*
X437Y2343*
X448Y2352*
X456Y2362*
X461Y2375*
X463Y2388*
X461Y2401*
X456Y2414*
X448Y2425*
X437Y2433*
X425Y2438*
X411Y2440*
G37*
G36*
X633Y2380D02*
Y2334D01*
X679*
X678Y2342*
X673Y2355*
X664Y2366*
X654Y2374*
X641Y2379*
X633Y2380*
G37*
G36*
X515D02*
Y2334D01*
X561*
X560Y2342*
X555Y2355*
X546Y2366*
X536Y2374*
X523Y2379*
X515Y2380*
G37*
G36*
X623D02*
X614Y2379D01*
X602Y2374*
X591Y2366*
X583Y2355*
X578Y2342*
X577Y2334*
X623*
Y2380*
G37*
G36*
X505D02*
X496Y2379D01*
X484Y2374*
X473Y2366*
X465Y2355*
X460Y2342*
X459Y2334*
X505*
Y2380*
G37*
G36*
X679Y2324D02*
X633D01*
Y2278*
X641Y2279*
X654Y2284*
X664Y2292*
X673Y2303*
X678Y2316*
X679Y2324*
G37*
G36*
X561D02*
X515D01*
Y2278*
X523Y2279*
X536Y2284*
X546Y2292*
X555Y2303*
X560Y2316*
X561Y2324*
G37*
G36*
X623D02*
X577D01*
X578Y2316*
X583Y2303*
X591Y2292*
X602Y2284*
X614Y2279*
X623Y2278*
Y2324*
G37*
G36*
X505D02*
X459D01*
X460Y2316*
X465Y2303*
X473Y2292*
X484Y2284*
X496Y2279*
X505Y2278*
Y2324*
G37*
G36*
X633Y2262D02*
Y2216D01*
X679*
X678Y2224*
X673Y2237*
X664Y2248*
X654Y2256*
X641Y2261*
X633Y2262*
G37*
G36*
X515D02*
Y2216D01*
X561*
X560Y2224*
X555Y2237*
X546Y2248*
X536Y2256*
X523Y2261*
X515Y2262*
G37*
G36*
X623D02*
X614Y2261D01*
X602Y2256*
X591Y2248*
X583Y2237*
X578Y2224*
X577Y2216*
X623*
Y2262*
G37*
G36*
X505D02*
X496Y2261D01*
X484Y2256*
X473Y2248*
X465Y2237*
X460Y2224*
X459Y2216*
X505*
Y2262*
G37*
G36*
X679Y2206D02*
X633D01*
Y2160*
X641Y2161*
X654Y2166*
X664Y2174*
X673Y2185*
X678Y2198*
X679Y2206*
G37*
G36*
X561D02*
X515D01*
Y2160*
X523Y2161*
X536Y2166*
X546Y2174*
X555Y2185*
X560Y2198*
X561Y2206*
G37*
G36*
X623D02*
X577D01*
X578Y2198*
X583Y2185*
X591Y2174*
X602Y2166*
X614Y2161*
X623Y2160*
Y2206*
G37*
G36*
X505D02*
X459D01*
X460Y2198*
X465Y2185*
X473Y2174*
X484Y2166*
X496Y2161*
X505Y2160*
Y2206*
G37*
G36*
X726Y2204D02*
X713Y2202D01*
X700Y2197*
X690Y2188*
X682Y2178*
X676Y2165*
X675Y2152*
X676Y2139*
X682Y2126*
X690Y2115*
X700Y2107*
X713Y2102*
X726Y2100*
X740Y2102*
X752Y2107*
X763Y2115*
X771Y2126*
X776Y2139*
X778Y2152*
X776Y2165*
X771Y2178*
X763Y2188*
X752Y2197*
X740Y2202*
X726Y2204*
G37*
G36*
X633Y2144D02*
Y2098D01*
X679*
X678Y2106*
X673Y2119*
X664Y2129*
X654Y2138*
X641Y2143*
X633Y2144*
G37*
G36*
X515D02*
Y2098D01*
X561*
X560Y2106*
X555Y2119*
X546Y2129*
X536Y2138*
X523Y2143*
X515Y2144*
G37*
G36*
X623D02*
X614Y2143D01*
X602Y2138*
X591Y2129*
X583Y2119*
X578Y2106*
X577Y2098*
X623*
Y2144*
G37*
G36*
X505D02*
X496Y2143D01*
X484Y2138*
X473Y2129*
X465Y2119*
X460Y2106*
X459Y2098*
X505*
Y2144*
G37*
G36*
X679Y2088D02*
X633D01*
Y2042*
X641Y2043*
X654Y2048*
X664Y2056*
X673Y2067*
X678Y2079*
X679Y2088*
G37*
G36*
X623D02*
X577D01*
X578Y2079*
X583Y2067*
X591Y2056*
X602Y2048*
X614Y2043*
X623Y2042*
Y2088*
G37*
G36*
X726Y2085D02*
X713Y2084D01*
X700Y2079*
X690Y2070*
X682Y2060*
X676Y2047*
X675Y2034*
X676Y2020*
X682Y2008*
X690Y1997*
X700Y1989*
X713Y1984*
X726Y1982*
X740Y1984*
X752Y1989*
X763Y1997*
X771Y2008*
X776Y2020*
X778Y2034*
X776Y2047*
X771Y2060*
X763Y2070*
X752Y2079*
X740Y2084*
X726Y2085*
G37*
G36*
X633Y2026D02*
Y1980D01*
X679*
X678Y1988*
X673Y2001*
X664Y2011*
X654Y2020*
X641Y2025*
X633Y2026*
G37*
G36*
X679Y1970D02*
X633D01*
Y1924*
X641Y1925*
X654Y1930*
X664Y1938*
X673Y1949*
X678Y1961*
X679Y1970*
G37*
G36*
X731Y1849D02*
Y1803D01*
X777*
X776Y1811*
X771Y1823*
X763Y1834*
X752Y1842*
X740Y1848*
X731Y1849*
G37*
G36*
X721D02*
X713Y1848D01*
X700Y1842*
X690Y1834*
X681Y1823*
X676Y1811*
X675Y1803*
X721*
Y1849*
G37*
G36*
X1653Y2086D02*
X1644Y2084D01*
X1636Y2079*
X1631Y2071*
X1629Y2062*
X1631Y2053*
X1636Y2045*
X1644Y2040*
X1650Y2039*
X1841Y1848*
Y1649*
X1838Y1644*
X1836Y1635*
X1838Y1625*
X1843Y1618*
X1850Y1613*
X1860Y1611*
X1869Y1613*
X1876Y1618*
X1881Y1625*
X1883Y1635*
X1881Y1644*
X1878Y1649*
Y1855*
X1876Y1862*
X1872Y1868*
X1676Y2065*
X1675Y2071*
X1669Y2079*
X1662Y2084*
X1653Y2086*
G37*
G36*
X1012Y1357D02*
X867D01*
Y1282*
X1012*
Y1357*
G37*
G36*
X620Y1212D02*
X606Y1211D01*
X593Y1205*
X582Y1197*
X573Y1186*
X568Y1173*
X566Y1159*
X568Y1145*
X573Y1132*
X582Y1121*
X593Y1112*
X606Y1107*
X620Y1105*
X633Y1107*
X646Y1112*
X657Y1121*
X666Y1132*
X671Y1145*
X673Y1159*
X671Y1173*
X666Y1186*
X657Y1197*
X646Y1205*
X633Y1211*
X620Y1212*
G37*
G36*
X883Y1107D02*
X854D01*
Y1073*
X883*
Y1107*
G37*
G36*
X844D02*
X815D01*
Y1073*
X844*
Y1107*
G37*
G36*
X883Y1063D02*
X854D01*
Y1028*
X883*
Y1063*
G37*
G36*
X844D02*
X815D01*
Y1028*
X844*
Y1063*
G37*
G36*
X1224Y1582D02*
X1215Y1580D01*
X1207Y1575*
X1202Y1568*
X1200Y1559*
X1202Y1549*
X1206Y1544*
Y1042*
X1185Y1022*
X1181Y1016*
X1180Y1009*
Y976*
X1173Y970*
X1167Y963*
X1163Y954*
X1162Y945*
X1163Y936*
X1167Y927*
X1161Y918*
X1134*
X1129Y927*
X1132Y936*
X1134Y945*
X1132Y954*
X1129Y963*
X1123Y970*
X1116Y976*
X1111Y978*
Y1038*
X1110Y1043*
X1107Y1048*
X1078Y1077*
X1074Y1080*
X1069Y1081*
X1062*
Y1105*
X999*
Y1030*
X1062*
Y1042*
X1072Y1046*
X1085Y1033*
Y978*
X1080Y976*
X1073Y970*
X1067Y963*
X1063Y954*
X1062Y945*
X1063Y936*
X1067Y927*
X1061Y918*
X1051*
X1032Y936*
X1034Y945*
X1032Y954*
X1029Y963*
X1023Y970*
X1016Y976*
X1007Y979*
X998Y981*
X989Y979*
X980Y976*
X973Y971*
X971Y971*
X963Y974*
X962Y976*
X963Y976*
X968Y983*
X972Y991*
X973Y1000*
X972Y1008*
X968Y1016*
X965Y1020*
X969Y1029*
X969Y1030*
X971*
Y1105*
X908*
Y1030*
X910*
X910Y1029*
X914Y1020*
X911Y1016*
X907Y1008*
X906Y1000*
X907Y991*
X911Y983*
X916Y976*
X921Y972*
Y900*
X923Y893*
X927Y887*
X997Y817*
X1003Y813*
X1010Y811*
X1097*
X1142Y766*
X1140Y760*
X1138Y748*
X1140Y736*
X1144Y724*
X1152Y714*
X1162Y707*
X1173Y702*
X1186Y700*
X1198Y702*
X1209Y707*
X1219Y714*
X1227Y724*
X1232Y736*
X1233Y748*
X1232Y760*
X1227Y772*
X1219Y782*
X1209Y789*
X1198Y794*
X1186Y796*
X1173Y794*
X1168Y792*
X1117Y842*
X1111Y846*
X1104Y848*
X1017*
X958Y907*
Y923*
X964Y926*
X968Y926*
X973Y920*
X980Y914*
X989Y910*
X998Y909*
X1007Y910*
X1030Y887*
X1036Y883*
X1043Y881*
X1346*
X1353Y883*
X1359Y887*
X1383Y910*
X1391Y909*
X1401Y910*
X1409Y914*
X1417Y920*
X1422Y927*
X1426Y936*
X1427Y945*
X1426Y954*
X1444Y972*
X1455*
X1461Y963*
X1457Y954*
X1456Y945*
X1457Y936*
X1461Y927*
X1466Y920*
X1474Y914*
X1482Y910*
X1491Y909*
X1500Y910*
X1675Y735*
X1681Y731*
X1688Y730*
X1760*
X1762Y724*
X1770Y714*
X1780Y707*
X1791Y702*
X1804Y700*
X1816Y702*
X1818Y703*
X1841Y681*
Y666*
X1833*
Y594*
X1902*
Y666*
X1877*
Y689*
X1876Y695*
X1872Y701*
X1846Y727*
X1850Y736*
X1851Y748*
X1850Y760*
X1845Y772*
X1837Y782*
X1828Y789*
X1816Y794*
X1804Y796*
X1791Y794*
X1780Y789*
X1770Y782*
X1762Y772*
X1760Y766*
X1696*
X1526Y936*
X1527Y945*
X1526Y954*
X1522Y963*
X1528Y972*
X1555*
X1561Y963*
X1557Y954*
X1556Y945*
X1557Y936*
X1561Y927*
X1566Y920*
X1574Y914*
X1582Y910*
X1591Y909*
X1601Y910*
X1609Y914*
X1617Y920*
X1622Y927*
X1626Y936*
X1627Y945*
X1626Y954*
X1622Y963*
X1628Y972*
X1693*
X1711Y954*
X1710Y945*
X1711Y936*
X1715Y927*
X1721Y920*
X1728Y914*
X1737Y910*
X1746Y909*
X1755Y910*
X1764Y914*
X1771Y920*
X1777Y927*
X1780Y936*
X1782Y945*
X1780Y954*
X1777Y963*
X1771Y970*
X1764Y976*
X1755Y979*
X1746Y981*
X1737Y980*
X1713Y1003*
X1707Y1007*
X1700Y1009*
X1437*
X1430Y1007*
X1424Y1003*
X1400Y980*
X1391Y981*
X1382Y979*
X1374Y976*
X1366Y970*
X1361Y963*
X1357Y954*
X1356Y945*
X1357Y936*
X1338Y918*
X1234*
X1229Y927*
X1232Y936*
X1234Y945*
X1232Y954*
X1229Y963*
X1223Y970*
X1216Y976*
Y1001*
X1237Y1022*
X1241Y1028*
X1242Y1035*
Y1544*
X1246Y1549*
X1248Y1559*
X1246Y1568*
X1241Y1575*
X1233Y1580*
X1224Y1582*
G37*
G36*
X2279Y981D02*
X2270Y979D01*
X2261Y976*
X2254Y970*
X2248Y963*
X2244Y954*
X2243Y945*
X2244Y936*
X2248Y927*
X2254Y920*
X2261Y914*
X2270Y910*
X2279Y909*
X2288Y910*
X2297Y914*
X2304Y920*
X2310Y927*
X2313Y936*
X2315Y945*
X2313Y954*
X2310Y963*
X2304Y970*
X2297Y976*
X2288Y979*
X2279Y981*
G37*
G36*
X2179D02*
X2170Y979D01*
X2161Y976*
X2154Y970*
X2148Y963*
X2144Y954*
X2143Y945*
X2144Y936*
X2117Y909*
X2113Y903*
X2111Y896*
Y254*
X2113Y247*
X2117Y241*
X2171Y187*
X2167Y176*
X2165Y161*
X2167Y147*
X2173Y133*
X2182Y121*
X2194Y112*
X2207Y106*
X2222Y104*
X2237Y106*
X2251Y112*
X2263Y121*
X2272Y133*
X2278Y147*
X2280Y161*
X2278Y176*
X2272Y190*
X2263Y202*
X2251Y211*
X2237Y217*
X2222Y219*
X2207Y217*
X2197Y213*
X2148Y262*
Y490*
X2158Y493*
X2168Y486*
X2182Y480*
X2197Y478*
X2212Y480*
X2226Y486*
X2238Y495*
X2247Y507*
X2252Y521*
X2254Y535*
X2252Y550*
X2247Y564*
X2238Y576*
X2226Y585*
X2218Y588*
X2220Y598*
X2277*
Y671*
X2241*
Y708*
X2246Y711*
X2256Y718*
X2264Y728*
X2268Y740*
X2270Y752*
X2268Y764*
X2264Y776*
X2256Y786*
X2246Y793*
X2235Y798*
X2222Y800*
X2210Y798*
X2199Y793*
X2189Y786*
X2181Y776*
X2176Y764*
X2175Y752*
X2176Y740*
X2181Y728*
X2189Y718*
X2199Y711*
X2204Y708*
Y655*
X2206Y648*
X2208Y645*
Y602*
X2200Y593*
X2197Y593*
X2182Y591*
X2168Y585*
X2158Y578*
X2148Y581*
Y888*
X2170Y910*
X2179Y909*
X2188Y910*
X2197Y914*
X2204Y920*
X2210Y927*
X2213Y936*
X2215Y945*
X2213Y954*
X2210Y963*
X2204Y970*
X2197Y976*
X2188Y979*
X2179Y981*
G37*
G36*
X1846D02*
X1837Y979D01*
X1828Y976*
X1821Y970*
X1815Y963*
X1811Y954*
X1810Y945*
X1811Y936*
X1815Y927*
X1821Y920*
X1828Y914*
X1837Y910*
X1846Y909*
X1855Y910*
X1961Y804*
X1961Y800*
X1960Y796*
X1958Y793*
X1949Y789*
X1939Y782*
X1932Y772*
X1927Y760*
X1926Y753*
X1973*
Y748*
Y753*
X2020*
X2019Y760*
X2014Y772*
X2007Y782*
X2000Y787*
X2004Y797*
X2050*
X2056Y793*
X2065Y791*
X2074Y793*
X2082Y798*
X2087Y806*
X2089Y815*
X2087Y824*
X2082Y832*
X2074Y837*
X2065Y839*
X2056Y837*
X2050Y833*
X1983*
X1880Y936*
X1882Y945*
X1880Y954*
X1877Y963*
X1871Y970*
X1864Y976*
X1855Y979*
X1846Y981*
G37*
G36*
X2397Y799D02*
Y757D01*
X2439*
X2438Y764*
X2433Y776*
X2425Y786*
X2416Y793*
X2404Y798*
X2397Y799*
G37*
G36*
X2387D02*
X2379Y798D01*
X2368Y793*
X2358Y786*
X2350Y776*
X2346Y764*
X2345Y757*
X2387*
Y799*
G37*
G36*
X1584Y795D02*
Y753D01*
X1626*
X1625Y760*
X1621Y772*
X1613Y782*
X1603Y789*
X1592Y794*
X1584Y795*
G37*
G36*
X1574D02*
X1567Y794D01*
X1555Y789*
X1545Y782*
X1538Y772*
X1533Y760*
X1532Y753*
X1574*
Y795*
G37*
G36*
X620Y819D02*
X606Y817D01*
X593Y812*
X582Y803*
X573Y792*
X568Y779*
X566Y765*
X568Y751*
X573Y738*
X582Y727*
X593Y719*
X606Y713*
X620Y711*
X633Y713*
X646Y719*
X657Y727*
X666Y738*
X671Y751*
X673Y765*
X671Y779*
X666Y792*
X657Y803*
X646Y812*
X633Y817*
X620Y819*
G37*
G36*
X2387Y747D02*
X2345D01*
X2346Y740*
X2350Y728*
X2358Y718*
X2368Y711*
X2379Y706*
X2387Y705*
Y747*
G37*
G36*
X2439D02*
X2397D01*
Y705*
X2404Y706*
X2416Y711*
X2425Y718*
X2433Y728*
X2438Y740*
X2439Y747*
G37*
G36*
X1968Y743D02*
X1926D01*
X1927Y736*
X1932Y724*
X1939Y714*
X1949Y707*
X1961Y702*
X1968Y701*
Y743*
G37*
G36*
X1574D02*
X1532D01*
X1533Y736*
X1538Y724*
X1545Y714*
X1555Y707*
X1567Y702*
X1574Y701*
Y743*
G37*
G36*
X2020D02*
X1978D01*
Y701*
X1985Y702*
X1997Y707*
X2007Y714*
X2014Y724*
X2019Y736*
X2020Y743*
G37*
G36*
X1626D02*
X1584D01*
Y701*
X1592Y702*
X1603Y707*
X1613Y714*
X1621Y724*
X1625Y736*
X1626Y743*
G37*
G36*
X2395Y673D02*
X2363D01*
Y640*
X2395*
Y673*
G37*
G36*
X2353D02*
X2322D01*
Y640*
X2353*
Y673*
G37*
G36*
X2020Y669D02*
X1988D01*
Y635*
X2020*
Y669*
G37*
G36*
X1647D02*
X1615D01*
Y635*
X1647*
Y669*
G37*
G36*
X1214D02*
X1182D01*
Y635*
X1214*
Y669*
G37*
G36*
X1605D02*
X1574D01*
Y635*
X1605*
Y669*
G37*
G36*
X1172D02*
X1141D01*
Y635*
X1172*
Y669*
G37*
G36*
X1978D02*
X1947D01*
Y635*
X1978*
Y669*
G37*
G36*
X2395Y630D02*
X2363D01*
Y596*
X2395*
Y630*
G37*
G36*
X2353D02*
X2322D01*
Y596*
X2353*
Y630*
G37*
G36*
X1410Y796D02*
X1398Y794D01*
X1386Y789*
X1376Y782*
X1369Y772*
X1364Y760*
X1362Y748*
X1364Y736*
X1369Y724*
X1376Y714*
X1386Y707*
X1398Y702*
X1410Y700*
X1422Y702*
X1428Y704*
X1459Y673*
Y647*
X1460Y645*
Y594*
X1528*
Y666*
X1496*
Y681*
X1494Y688*
X1490Y693*
X1454Y730*
X1456Y736*
X1458Y748*
X1456Y760*
X1451Y772*
X1444Y782*
X1434Y789*
X1422Y794*
X1410Y796*
G37*
G36*
X1016D02*
X1004Y794D01*
X992Y789*
X983Y782*
X975Y772*
X970Y760*
X969Y748*
X970Y736*
X975Y724*
X983Y714*
X992Y707*
X1004Y702*
X1016Y700*
X1022Y701*
X1043Y681*
Y666*
X1027*
Y594*
X1095*
Y666*
X1079*
Y689*
X1078Y695*
X1074Y701*
X1055Y721*
X1058Y724*
X1062Y736*
X1064Y748*
X1062Y760*
X1058Y772*
X1050Y782*
X1040Y789*
X1029Y794*
X1016Y796*
G37*
G36*
X2020Y625D02*
X1988D01*
Y591*
X2020*
Y625*
G37*
G36*
X1978D02*
X1947D01*
Y591*
X1978*
Y625*
G37*
G36*
X1647D02*
X1615D01*
Y591*
X1647*
Y625*
G37*
G36*
X1605D02*
X1574D01*
Y591*
X1605*
Y625*
G37*
G36*
X1214D02*
X1182D01*
Y591*
X1214*
Y625*
G37*
G36*
X1172D02*
X1141D01*
Y591*
X1172*
Y625*
G37*
G36*
X1778Y589D02*
X1763Y587D01*
X1749Y581*
X1737Y572*
X1728Y560*
X1722Y546*
X1721Y532*
X1722Y517*
X1728Y503*
X1737Y491*
X1749Y482*
X1763Y476*
X1778Y474*
X1793Y476*
X1807Y482*
X1819Y491*
X1828Y503*
X1834Y517*
X1836Y532*
X1834Y546*
X1828Y560*
X1819Y572*
X1807Y581*
X1793Y587*
X1778Y589*
G37*
G36*
X1384D02*
X1369Y587D01*
X1356Y581*
X1344Y572*
X1335Y560*
X1329Y546*
X1327Y532*
X1329Y517*
X1335Y503*
X1344Y491*
X1356Y482*
X1369Y476*
X1384Y474*
X1399Y476*
X1413Y482*
X1425Y491*
X1434Y503*
X1440Y517*
X1442Y532*
X1440Y546*
X1434Y560*
X1425Y572*
X1413Y581*
X1399Y587*
X1384Y589*
G37*
G36*
X991D02*
X976Y587D01*
X962Y581*
X950Y572*
X941Y560*
X935Y546*
X933Y532*
X935Y517*
X941Y503*
X950Y491*
X962Y482*
X976Y476*
X991Y474*
X1006Y476*
X1019Y482*
X1031Y491*
X1041Y503*
X1046Y517*
X1048Y532*
X1046Y546*
X1041Y560*
X1031Y572*
X1019Y581*
X1006Y587*
X991Y589*
G37*
G36*
X2346Y455D02*
X2331Y453D01*
X2318Y448*
X2306Y438*
X2297Y426*
X2291Y413*
X2289Y398*
X2291Y383*
X2297Y369*
X2306Y357*
X2318Y348*
X2331Y342*
X2346Y340*
X2361Y342*
X2375Y348*
X2387Y357*
X2396Y369*
X2402Y383*
X2404Y398*
X2402Y413*
X2396Y426*
X2387Y438*
X2375Y448*
X2361Y453*
X2346Y455*
G37*
G36*
X1928Y451D02*
X1913Y449D01*
X1899Y444*
X1887Y434*
X1878Y423*
X1872Y409*
X1870Y394*
X1872Y379*
X1878Y365*
X1887Y353*
X1899Y344*
X1913Y338*
X1928Y336*
X1943Y338*
X1956Y344*
X1968Y353*
X1978Y365*
X1983Y379*
X1985Y394*
X1983Y409*
X1978Y423*
X1968Y434*
X1956Y444*
X1943Y449*
X1928Y451*
G37*
G36*
X1534D02*
X1519Y449D01*
X1505Y444*
X1493Y434*
X1484Y423*
X1478Y409*
X1476Y394*
X1478Y379*
X1484Y365*
X1493Y353*
X1505Y344*
X1519Y338*
X1534Y336*
X1549Y338*
X1563Y344*
X1575Y353*
X1584Y365*
X1590Y379*
X1592Y394*
X1590Y409*
X1584Y423*
X1575Y434*
X1563Y444*
X1549Y449*
X1534Y451*
G37*
G36*
X1140D02*
X1125Y449D01*
X1112Y444*
X1100Y434*
X1090Y423*
X1085Y409*
X1083Y394*
X1085Y379*
X1090Y365*
X1100Y353*
X1112Y344*
X1125Y338*
X1140Y336*
X1155Y338*
X1169Y344*
X1181Y353*
X1190Y365*
X1196Y379*
X1198Y394*
X1196Y409*
X1190Y423*
X1181Y434*
X1169Y444*
X1155Y449*
X1140Y451*
G37*
G36*
X329Y228D02*
Y180D01*
X377*
X376Y188*
X371Y201*
X362Y213*
X351Y221*
X338Y226*
X329Y228*
G37*
G36*
X319D02*
X310Y226D01*
X297Y221*
X286Y213*
X278Y201*
X272Y188*
X271Y180*
X319*
Y228*
G37*
G36*
X377Y170D02*
X329D01*
Y121*
X338Y123*
X351Y128*
X362Y137*
X371Y148*
X376Y161*
X377Y170*
G37*
G36*
X319D02*
X271D01*
X272Y161*
X278Y148*
X286Y137*
X297Y128*
X310Y123*
X319Y121*
Y170*
G37*
G36*
X1804Y215D02*
X1789Y213D01*
X1775Y207*
X1763Y198*
X1754Y186*
X1748Y172*
X1746Y158*
X1748Y143*
X1754Y129*
X1763Y117*
X1775Y108*
X1789Y102*
X1804Y100*
X1819Y102*
X1832Y108*
X1844Y117*
X1854Y129*
X1859Y143*
X1861Y158*
X1859Y172*
X1854Y186*
X1844Y198*
X1832Y207*
X1819Y213*
X1804Y215*
G37*
G36*
X1410D02*
X1395Y213D01*
X1381Y207*
X1369Y198*
X1360Y186*
X1354Y172*
X1352Y158*
X1354Y143*
X1360Y129*
X1369Y117*
X1381Y108*
X1395Y102*
X1410Y100*
X1425Y102*
X1439Y108*
X1451Y117*
X1460Y129*
X1466Y143*
X1468Y158*
X1466Y172*
X1460Y186*
X1451Y198*
X1439Y207*
X1425Y213*
X1410Y215*
G37*
%LNvcu-3*%
%LPD*%
G36*
X1496Y2910D02*
X1498Y2908D01*
X1505Y2903*
X1515Y2901*
X1519Y2902*
X1525Y2893*
X1523Y2889*
X1521Y2880*
X1521Y2879*
X1481Y2839*
X1472Y2844*
X1472Y2845*
X1471Y2853*
X1466Y2860*
X1460Y2864*
X1452Y2865*
Y2875*
X1460Y2877*
X1466Y2881*
X1471Y2888*
X1472Y2895*
X1472Y2897*
X1486Y2911*
X1496Y2910*
G37*
G36*
X1184Y2927D02*
X1212D01*
Y2922*
X1217*
Y2892*
X1240*
Y2894*
X1277*
X1278Y2894*
X1302*
X1399Y2797*
X1399Y2795*
X1400Y2788*
X1405Y2781*
X1411Y2777*
X1419Y2775*
Y2765*
X1411Y2764*
X1405Y2760*
X1404Y2758*
X1391Y2756*
X1348Y2799*
X1344Y2802*
X1339Y2803*
X1238*
Y2828*
X1183*
Y2777*
X1180*
Y2761*
X1108*
Y2776*
X1106*
Y2801*
X1138Y2834*
X1142*
X1143Y2834*
X1151Y2832*
X1160Y2834*
X1168Y2839*
X1173Y2847*
X1175Y2856*
X1173Y2865*
X1168Y2873*
X1160Y2878*
X1151Y2880*
X1142Y2878*
X1134Y2873*
X1133Y2870*
X1131*
X1124Y2869*
X1118Y2865*
X1085Y2832*
X1072*
X1063Y2840*
X1058Y2844*
X1051Y2846*
X900*
X893Y2856*
X894Y2861*
X893Y2865*
X970Y2941*
X1184*
Y2927*
G37*
G36*
X1545Y2856D02*
X1550Y2857D01*
X1560Y2850*
Y2759*
X1561Y2752*
X1565Y2746*
X1595Y2716*
X1591Y2707*
X1494*
X1483Y2718*
X1486Y2728*
X1499*
X1503Y2725*
X1512Y2723*
X1521Y2725*
X1529Y2730*
X1534Y2737*
X1536Y2747*
X1534Y2756*
X1529Y2763*
X1521Y2768*
X1512Y2770*
X1503Y2768*
X1497Y2764*
X1458*
X1452Y2765*
Y2775*
X1460Y2777*
X1466Y2781*
X1471Y2788*
X1472Y2793*
X1537Y2857*
X1545Y2856*
G37*
G36*
X1388Y2723D02*
X1384Y2714D01*
X1244*
X1240Y2722*
Y2745*
X1210*
Y2755*
X1240*
Y2777*
X1334*
X1388Y2723*
G37*
G36*
X2654Y2827D02*
X2662Y2822D01*
X2667Y2821*
X2670Y2811*
X2667Y2809*
X2662Y2801*
X2660Y2792*
X2661Y2788*
X2631Y2758*
X2547*
X2539Y2762*
X2538Y2768*
X2539Y2768*
X2543Y2769*
X2550Y2774*
X2555Y2781*
X2557Y2790*
X2556Y2795*
X2593Y2831*
X2652*
X2654Y2827*
G37*
G36*
X2245Y2522D02*
X2242Y2512D01*
X2240Y2511*
X2233Y2506*
X2228Y2499*
X2226Y2490*
X2221Y2486*
X1410*
X1407Y2489*
X1400Y2494*
X1397Y2495*
X1398Y2505*
X1491*
X1498Y2500*
X1507Y2498*
X1516Y2500*
X1524Y2505*
X1529Y2513*
X1531Y2522*
X1530Y2529*
X1535Y2539*
X2229*
X2245Y2522*
G37*
G36*
X2325Y2195D02*
X2333Y2190D01*
X2334Y2190*
X2338Y2179*
X2330Y2172*
X1576*
X1572Y2181*
X1590Y2199*
X2323*
X2325Y2195*
G37*
G36*
X470Y2007D02*
X465Y2001D01*
X460Y1988*
X459Y1980*
X510*
Y1975*
X515*
Y1924*
X523Y1925*
X536Y1930*
X546Y1938*
X549Y1941*
X559Y1938*
Y1894*
X549Y1890*
X546Y1893*
X536Y1901*
X523Y1906*
X510Y1908*
X496Y1906*
X484Y1901*
X473Y1893*
X465Y1882*
X460Y1870*
X458Y1857*
X460Y1843*
X465Y1831*
X473Y1820*
X484Y1812*
X496Y1807*
X510Y1805*
X523Y1807*
X536Y1812*
X546Y1820*
X550Y1825*
X551Y1826*
X562Y1824*
X562Y1824*
X641Y1746*
X637Y1737*
X491*
X456Y1772*
X456Y1772*
X461Y1784*
X463Y1798*
X461Y1811*
X456Y1823*
X448Y1834*
X437Y1842*
X425Y1847*
X411Y1849*
X398Y1847*
X386Y1842*
X378Y1837*
X368Y1841*
Y1872*
X378Y1877*
X386Y1871*
X398Y1866*
X411Y1864*
X425Y1866*
X437Y1871*
X448Y1879*
X456Y1890*
X461Y1902*
X463Y1916*
X461Y1929*
X456Y1941*
X448Y1952*
X437Y1960*
X425Y1966*
X416Y1967*
X413Y1976*
X418Y1983*
X425Y1984*
X437Y1989*
X448Y1997*
X456Y2008*
X460Y2017*
X465Y2017*
X470Y2007*
G37*
G36*
X1549Y2118D02*
X1552Y2114D01*
X1555Y2111*
Y1968*
X1556Y1963*
X1559Y1959*
X1687Y1831*
X1684Y1820*
X1680Y1819*
X1673Y1814*
X1668Y1807*
X1666Y1798*
X1667Y1793*
X1575Y1702*
X1252*
X1246Y1712*
X1247Y1717*
X1245Y1726*
X1241Y1732*
Y1794*
X1251Y1799*
X1253Y1797*
X1262Y1796*
X1271Y1797*
X1279Y1803*
X1284Y1810*
X1286Y1819*
X1284Y1828*
X1279Y1836*
X1275Y1839*
Y1881*
X1282Y1887*
X1292Y1885*
X1296Y1880*
X1303Y1875*
X1313Y1873*
X1322Y1875*
X1329Y1880*
X1334Y1887*
X1336Y1897*
X1335Y1901*
X1446Y2011*
X1449Y2016*
X1450Y2021*
Y2033*
X1537Y2121*
X1549Y2118*
G37*
G36*
X1761Y1756D02*
Y1619D01*
X1758Y1616*
X1754Y1610*
X1746Y1608*
X1742Y1607*
X1671Y1679*
X1665Y1683*
X1658Y1684*
X1608*
X1604Y1693*
X1685Y1775*
X1690Y1774*
X1699Y1776*
X1706Y1781*
X1711Y1788*
X1712Y1792*
X1723Y1795*
X1761Y1756*
G37*
G36*
X1160Y1715D02*
X1157Y1706D01*
X920*
X915Y1713*
X914Y1716*
X916Y1724*
X914Y1733*
X913Y1735*
X918Y1745*
X1131*
X1160Y1715*
G37*
G36*
X1173Y1663D02*
X1169Y1653D01*
X793*
X791Y1656*
X790Y1658*
X793Y1668*
X795Y1669*
X1167*
X1173Y1663*
G37*
G36*
X369Y1646D02*
Y1213D01*
X359Y1208*
X357Y1209*
Y1642*
X367Y1647*
X369Y1646*
G37*
%LNvcu-4*%
%LPC*%
G36*
X1207Y2917D02*
X1184D01*
Y2892*
X1207*
Y2917*
G37*
G36*
X505Y1970D02*
X459D01*
X460Y1961*
X465Y1949*
X473Y1938*
X484Y1930*
X496Y1925*
X505Y1924*
Y1970*
G37*
%LNvcu-5*%
%LPD*%
G54D13*
X1098Y945D02*
Y1038D01*
X1069Y1068D02*
X1098Y1038D01*
X1030Y1068D02*
X1069D01*
X1481Y2925D02*
X1515D01*
X2244Y2490D02*
X2250D01*
X1452Y2895D02*
X1481Y2925D01*
X738Y2518D02*
X1503D01*
X726Y2506D02*
X738Y2518D01*
X1503D02*
X1507Y2522D01*
X1628Y2694D02*
Y2695D01*
X1775Y1600D02*
Y1762D01*
X1568Y1968D02*
Y2130D01*
X2227Y2473D02*
X2244Y2490D01*
X1391Y2473D02*
X2227D01*
X2434Y2550D02*
X2612D01*
X2105Y2880D02*
X2434Y2550D01*
X1458Y2798D02*
X1540Y2880D01*
X1268Y3016D02*
X1388Y2895D01*
X1268Y3016D02*
Y3018D01*
X1388Y2895D02*
X1452D01*
X485Y1724D02*
X892D01*
X1540Y2880D02*
X1545D01*
X1416Y2798D02*
X1458D01*
X2629Y2710D02*
X2652Y2687D01*
X2430Y2710D02*
X2629D01*
X2485Y2745D02*
X2636D01*
X2684Y2792*
X2534Y2790D02*
X2587Y2844D01*
X1585Y2212D02*
X2342D01*
X1262Y1890D02*
X1585Y2212D01*
X1136Y1758D02*
X1205Y1689D01*
X664Y1741D02*
X870D01*
X887Y1758*
X1856Y2795D02*
X1861Y2800D01*
X1650Y2795D02*
X1856D01*
X1317Y2552D02*
X2234D01*
X1460Y2624D02*
X1504Y2580D01*
X1307Y2907D02*
X1416Y2798D01*
X1627Y2693D02*
X1628Y2694D01*
X1315Y3099D02*
X1419Y2995D01*
X2234Y2552D02*
X2326Y2460D01*
X1904Y3631D02*
X2641Y2895D01*
X1500Y3631D02*
X1904D01*
X1568Y1968D02*
X1775Y1762D01*
X1262Y1819D02*
Y1890D01*
X1419Y2995D02*
X1435D01*
X1288Y3099D02*
X1315D01*
X1276Y3111D02*
X1288Y3099D01*
X1223Y2790D02*
X1339D01*
X1210Y2803D02*
X1223Y2790D01*
X1209Y2748D02*
X1210Y2750D01*
X1079Y2748D02*
X1209D01*
X2788Y2750D02*
Y2802D01*
X2016Y3574D02*
X2788Y2802D01*
X2587Y2844D02*
X2671D01*
X1628Y2695D02*
X1629Y2696D01*
X1339Y2790D02*
X1409Y2720D01*
X1629Y2696D02*
Y2700D01*
X1650Y2695D02*
X1651Y2696D01*
X1628Y2695D02*
X1650D01*
X1489Y2693D02*
X1627D01*
X1462Y2720D02*
X1489Y2693D01*
X1409Y2720D02*
X1462D01*
X2787Y2350D02*
X2969Y2532D01*
X2870Y3635D02*
X2969Y3536D01*
X2940Y2579D02*
Y3128D01*
X2447Y3622D02*
X2940Y3128D01*
X2969Y2532D02*
Y3536D01*
X2016Y3574D02*
Y3626D01*
X1557Y2159D02*
X2336D01*
X2388Y2211*
X1437Y2039D02*
X1557Y2159D01*
X1437Y2021D02*
Y2039D01*
X1313Y1897D02*
X1437Y2021D01*
X1232Y2408D02*
X1388Y2251D01*
X1491*
X1209Y2431D02*
Y2433D01*
X1196Y2418D02*
X1209Y2431D01*
X777Y2418D02*
X1196D01*
X1232Y2408D02*
Y2408D01*
X1209Y2431D02*
X1232Y2408D01*
X726Y2388D02*
X747D01*
X777Y2418*
X752Y2624D02*
X1460D01*
X739Y2612D02*
X752Y2624D01*
X726Y1916D02*
X1018D01*
X1205Y1689D02*
X1581D01*
X964Y2954D02*
X1288D01*
X871Y2861D02*
X964Y2954D01*
X411Y1798D02*
X485Y1724D01*
X1581Y1689D02*
X1690Y1798D01*
X1699Y2696D02*
X1700Y2697D01*
X1651Y2696D02*
X1699D01*
X572Y1833D02*
X664Y1741D01*
X1018Y1916D02*
X1160Y1773D01*
X1288Y2954D02*
X1365Y2877D01*
X1387*
X1419Y2845*
X1435*
X1650Y2945D02*
X1799D01*
X1799Y2946*
X1278Y2907D02*
X1307D01*
X1271Y2914D02*
X1278Y2907D01*
X1650Y3045D02*
X1797D01*
X1797Y3045*
X887Y1758D02*
X1136D01*
X530Y2034D02*
X572Y1992D01*
Y1833D02*
Y1992D01*
X411Y2034D02*
X530D01*
X2222Y655D02*
X2242Y635D01*
G54D21*
X1435Y2695D03*
Y2745D03*
Y2795D03*
Y2845D03*
Y2895D03*
Y2945D03*
Y2995D03*
Y3045D03*
X1650Y2695D03*
Y2745D03*
Y2795D03*
Y2845D03*
Y2895D03*
Y2945D03*
Y2995D03*
Y3045D03*
G54D33*
X1494Y630D03*
X1610D03*
X1867D03*
X1983D03*
X1061D03*
X1177D03*
X2242Y635D03*
X2358D03*
G54D34*
X1262Y2433D03*
X1209D03*
X1265Y2922D03*
X1212D03*
X1268Y3018D03*
X1215D03*
X1275Y3114D03*
X1222D03*
X1797Y3045D03*
X1851D03*
X1799Y2946D03*
X1853D03*
X1861Y2800D03*
X1914D03*
G54D35*
X1210Y2750D03*
Y2803D03*
X1079Y2748D03*
Y2802D03*
G54D62*
X1016Y733D02*
X1061Y689D01*
X1016Y733D02*
Y748D01*
X1061Y630D02*
Y689D01*
X1010Y830D02*
X1104D01*
X1186Y748*
X940Y900D02*
X1010Y830D01*
X940Y900D02*
Y1000D01*
Y1068*
X1224Y1035D02*
Y1559D01*
X1198Y1009D02*
X1224Y1035D01*
X1198Y945D02*
Y1009D01*
Y945D02*
D01*
X1346Y900D02*
X1437Y990D01*
X1859Y638D02*
X1867Y630D01*
X821Y2863D02*
Y3261D01*
X2063Y3055D02*
Y3058D01*
X2055Y3046D02*
X2063Y3055D01*
X2055Y2765D02*
Y3046D01*
X1071Y2794D02*
X1079Y2802D01*
X1069Y2695D02*
X1435D01*
X1041Y2773D02*
X1061Y2794D01*
X1041Y2723D02*
Y2773D01*
X1061Y2794D02*
X1071D01*
X1051Y2827D02*
X1077Y2802D01*
X857Y2827D02*
X1051D01*
X821Y2863D02*
X857Y2827D01*
X2130Y254D02*
Y896D01*
Y254D02*
X2209Y175D01*
X2130Y896D02*
X2179Y945D01*
X2209Y175D02*
X2215D01*
X771Y1634D02*
X1256D01*
X1700Y990D02*
X1746Y945D01*
X1437Y990D02*
X1700D01*
X1043Y900D02*
X1346D01*
X998Y945D02*
X1043Y900D01*
X1512Y2746D02*
X1512Y2747D01*
X1436Y2746D02*
X1512D01*
X1431Y2438D02*
X1524Y2345D01*
Y2183D02*
Y2345D01*
X1223Y1883D02*
X1524Y2183D01*
X1653Y2062D02*
X1860Y1855D01*
Y1635D02*
Y1855D01*
X1658Y1666D02*
X2379Y945D01*
X1196Y1666D02*
X1658D01*
X1080Y2802D02*
X1131Y2852D01*
X1041Y2723D02*
X1069Y2695D01*
X1178Y3406D02*
X1578Y3005D01*
Y2759D02*
Y3005D01*
Y2759D02*
X1629Y2708D01*
X1256Y1634D02*
X1946Y945D01*
X1131Y2852D02*
X1142D01*
X1079Y2802D02*
X1080D01*
X1435Y2745D02*
X1436Y2746D01*
X1629Y2700D02*
Y2708D01*
X1223Y1717D02*
Y1883D01*
X1174Y1687D02*
X1196Y1666D01*
X780Y1687D02*
X1174D01*
X1077Y2802D02*
X1079D01*
X1410Y748D02*
X1477Y681D01*
Y647D02*
Y681D01*
X1859Y638D02*
Y689D01*
X1846Y945D02*
X1976Y815D01*
X2065*
X1491Y945D02*
X1688Y748D01*
X1804*
X2222Y655D02*
Y723D01*
X1477Y647D02*
X1494Y630D01*
X1804Y744D02*
X1859Y689D01*
X1804Y744D02*
Y748D01*
G54D63*
X219Y1680D02*
X260Y1640D01*
Y1205D02*
Y1640D01*
X246Y1191D02*
X260Y1205D01*
X246Y854D02*
Y1191D01*
Y854D02*
X324Y776D01*
X219Y1680D02*
Y2078D01*
X411Y2270*
X277Y1711D02*
Y2018D01*
X402Y1179D02*
X616Y966D01*
X335Y1948D02*
X411Y2024D01*
X335Y1735D02*
X402Y1668D01*
X277Y2018D02*
X411Y2152D01*
X616Y966D02*
X623D01*
X411Y2024D02*
Y2034D01*
X335Y1735D02*
Y1948D01*
X402Y1179D02*
Y1668D01*
X472Y322D02*
X627Y167D01*
X324Y1159D02*
Y1664D01*
X277Y1711D02*
X324Y1664D01*
X338Y1146D02*
X472Y1011D01*
X324Y765D02*
Y776D01*
X472Y322D02*
Y1011D01*
X1007Y167D02*
X1016Y158D01*
X627Y167D02*
X1007D01*
G54D66*
X1108Y2270D02*
X1335Y2044D01*
X726Y2270D02*
X1108D01*
G54D67*
X1198Y945D03*
X1098D03*
X998D03*
X2379D03*
X2279D03*
X2179D03*
X1591D03*
X1491D03*
X1391D03*
X1946D03*
X1846D03*
X1746D03*
G54D68*
X726Y1798D03*
Y1916D03*
Y2034D03*
Y2152D03*
Y2270D03*
Y2388D03*
Y2506D03*
Y2624D03*
Y2742D03*
X628Y1857D03*
Y1975D03*
Y2093D03*
Y2211D03*
Y2329D03*
Y2447D03*
Y2565D03*
Y2683D03*
X510Y1857D03*
Y1975D03*
Y2093D03*
Y2211D03*
Y2329D03*
Y2447D03*
Y2565D03*
Y2683D03*
X411Y1798D03*
Y1916D03*
Y2034D03*
Y2152D03*
Y2270D03*
Y2388D03*
Y2506D03*
Y2624D03*
Y2742D03*
G54D69*
X155Y3028D03*
Y1512D03*
G54D70*
X1410Y158D03*
X1384Y532D03*
X1534Y394D03*
X1804Y158D03*
X1778Y532D03*
X1928Y394D03*
X1016Y158D03*
X991Y532D03*
X1140Y394D03*
X2222Y161D03*
X2197Y535D03*
X2346Y398D03*
G54D71*
X1579Y748D03*
X1410D03*
X1973D03*
X1804D03*
X1186D03*
X1016D03*
X2392Y752D03*
X2222D03*
G54D72*
X324Y1159D03*
X620D03*
X324Y765D03*
Y962D03*
X620Y765D03*
Y962D03*
Y175D03*
X324D03*
G54D73*
X940Y1000D03*
G54D74*
X1775Y1600D03*
X2055Y2765D03*
X2105Y2880D03*
X1515Y1525D03*
X1355Y2730D03*
X1860Y1635D03*
X892Y1724D03*
X2250Y2490D03*
X1545Y2880D03*
X1515Y2925D03*
X2430Y2710D03*
X2652Y2687D03*
X2485Y2745D03*
X2534Y2790D03*
X2326Y2460D03*
X1500Y3631D03*
X824Y3627D03*
X2612Y2550D03*
X2005Y1707D03*
X2019Y1802D03*
X2151Y2287D03*
X2265Y2110D03*
X1150Y2915D03*
X1230Y2210D03*
X1524Y1894D03*
X1505Y1734D03*
X1180Y1816D03*
X1100Y1730D03*
X771Y1634D03*
X1224Y1559D03*
X1262Y1819D03*
X1151Y2856D03*
X1507Y2522D03*
X1512Y2747D03*
X2788Y2750D03*
X2684Y2792D03*
X2671Y2844D03*
X821Y3261D03*
X2870Y3635D03*
X2940Y2579D03*
X2787Y2350D03*
X2447Y3622D03*
X2016Y3626D03*
X2145Y2406D03*
X2342Y2212D03*
X2063Y3058D03*
X1491Y2251D03*
X1431Y2438D03*
X1664Y2262D03*
X1504Y2580D03*
X1568Y2130D03*
X1391Y2473D03*
X1317Y2552D03*
X2388Y2211D03*
X1223Y1717D03*
X1160Y1773D03*
X871Y2861D03*
X2007Y2946D03*
X1723Y2750D03*
X2337Y2581D03*
X1653Y2062D03*
X2417Y3257D03*
X860Y2700D03*
X1176Y3408D03*
X1690Y1798D03*
X1700Y2697D03*
X1335Y2044D03*
X2641Y2895D03*
X780Y1687D03*
X1313Y1897D03*
X2065Y815D03*
G54D75*
X1030Y1068D03*
X940D03*
X849D03*
G54D76*
X940Y1320D03*
M02*