%FSLAX23Y23*%
%MOIN*%
%SFA1B1*%

%IPPOS*%
%ADD18R,0.029920X0.094490*%
%ADD19R,0.053150X0.011810*%
%ADD20R,0.011810X0.053150*%
%ADD21O,0.057090X0.023620*%
%ADD22O,0.039370X0.019680*%
%ADD23R,0.023620X0.082680*%
%ADD24R,0.125980X0.082680*%
%ADD25R,0.080710X0.045280*%
%ADD26R,0.037400X0.033470*%
%ADD27R,0.033470X0.037400*%
%ADD28R,0.039370X0.118110*%
%ADD29R,0.218500X0.251970*%
%ADD30R,0.031500X0.035430*%
%ADD31R,0.051180X0.043310*%
%ADD32R,0.035430X0.031500*%
%ADD33R,0.053150X0.057090*%
%ADD34R,0.035430X0.039370*%
%ADD35R,0.039370X0.035430*%
%ADD67C,0.055120*%
%ADD68C,0.086610*%
%ADD69C,0.129920*%
%ADD70C,0.098430*%
%ADD71C,0.078740*%
%ADD72C,0.090550*%
%LNvcu-1*%
%LPD*%
G54D18*
X2502Y3035D03*
Y3189D03*
X2552Y3035D03*
Y3189D03*
X2602Y3035D03*
Y3189D03*
X2652Y3035D03*
Y3189D03*
X2702Y3035D03*
Y3189D03*
G54D19*
X2415Y2540D03*
Y2520D03*
Y2501D03*
Y2481D03*
Y2461D03*
Y2442D03*
Y2422D03*
Y2402D03*
Y2383D03*
Y2363D03*
Y2343D03*
Y2324D03*
Y2304D03*
Y2284D03*
Y2265D03*
Y2245D03*
X2868D03*
Y2265D03*
Y2284D03*
Y2304D03*
Y2324D03*
Y2343D03*
Y2363D03*
Y2383D03*
Y2402D03*
Y2422D03*
Y2442D03*
Y2461D03*
Y2481D03*
Y2501D03*
Y2520D03*
Y2540D03*
G54D20*
X2494Y2166D03*
X2514D03*
X2534D03*
X2553D03*
X2573D03*
X2593D03*
X2612D03*
X2632D03*
X2652D03*
X2671D03*
X2691D03*
X2711D03*
X2730D03*
X2750D03*
X2770D03*
X2789D03*
Y2619D03*
X2770D03*
X2750D03*
X2730D03*
X2711D03*
X2691D03*
X2671D03*
X2652D03*
X2632D03*
X2612D03*
X2593D03*
X2573D03*
X2553D03*
X2534D03*
X2514D03*
X2494D03*
G54D21*
X1627Y1600D03*
Y1650D03*
Y1700D03*
Y1750D03*
Y1800D03*
Y1850D03*
Y1900D03*
Y1950D03*
X1413Y1600D03*
Y1650D03*
Y1700D03*
Y1750D03*
Y1800D03*
Y1850D03*
Y1900D03*
Y1950D03*
X1064Y2981D03*
Y2931D03*
Y2881D03*
Y2831D03*
X1279Y2981D03*
Y2931D03*
Y2881D03*
Y2831D03*
X1064Y2309D03*
Y2259D03*
Y2209D03*
Y2159D03*
X1279Y2309D03*
Y2259D03*
Y2209D03*
Y2159D03*
G54D22*
X1994Y2624D03*
Y2586D03*
Y2549D03*
X2100Y2624D03*
Y2586D03*
Y2549D03*
X1995Y2258D03*
Y2221D03*
Y2184D03*
X2101Y2258D03*
Y2221D03*
Y2184D03*
G54D23*
X724Y3677D03*
X774D03*
X824D03*
X874D03*
X924D03*
G54D24*
X824Y3912D03*
G54D25*
X1128Y3682D03*
X970Y3372D03*
G54D26*
X3074Y2572D03*
Y2624D03*
X2960Y2150D03*
Y2201D03*
X3075Y2410D03*
Y2461D03*
X1975Y2753D03*
Y2805D03*
X972Y2984D03*
Y2933D03*
X987Y2309D03*
Y2258D03*
G54D27*
X1965Y3685D03*
X2016D03*
X2142D03*
X2193D03*
X2770D03*
X2821D03*
X2944D03*
X2996D03*
X2352D03*
X2403D03*
X2528D03*
X2579D03*
X1295D03*
X1346D03*
X1522Y3686D03*
X1471D03*
X1719Y3685D03*
X1770D03*
X1810Y2631D03*
X1861D03*
X1588Y2188D03*
X1639D03*
X1588Y2330D03*
X1639D03*
G54D28*
X416Y3654D03*
X235D03*
G54D29*
X326Y3401D03*
G54D30*
X2732Y3487D03*
X2694Y3565D03*
X2769D03*
X2314Y3484D03*
X2277Y3563D03*
X2352D03*
X1929Y3487D03*
X1891Y3565D03*
X1966D03*
X1503Y3484D03*
X1466Y3562D03*
X1541D03*
G54D31*
X2141Y3488D03*
Y3578D03*
X2335Y1084D03*
Y1175D03*
X1591Y1102D03*
Y1193D03*
X1198Y1097D03*
Y1187D03*
X1985Y1097D03*
Y1187D03*
X2944Y3481D03*
Y3572D03*
X2527Y3481D03*
Y3572D03*
X1719Y3473D03*
Y3564D03*
G54D32*
X1791Y2495D03*
X1870Y2532D03*
Y2457D03*
X1791Y2235D03*
X1870Y2272D03*
Y2197D03*
G54D33*
X693Y3527D03*
X576D03*
G54D34*
X588Y3376D03*
X535D03*
X2111Y2487D03*
X2164D03*
X2652Y3307D03*
X2705D03*
X2213Y2283D03*
X2266D03*
X2204Y2379D03*
X2257D03*
X1468Y1448D03*
X1415D03*
X1564D03*
X1618D03*
X2270Y2637D03*
X2217D03*
X2270Y2165D03*
X2217D03*
X1062Y2433D03*
X1116D03*
X1115Y3526D03*
X1168D03*
X853Y3530D03*
X800D03*
X987Y1142D03*
X1040D03*
X1815D03*
X1762D03*
X1823Y1698D03*
X1876D03*
X1819Y1798D03*
X1872D03*
X1640Y2472D03*
X1587D03*
X799Y3374D03*
X853D03*
X957Y3527D03*
X1010D03*
X535Y3657D03*
X588D03*
X948Y2676D03*
X1001D03*
X1030Y1732D03*
X977D03*
X1028Y1898D03*
X975D03*
X1120Y2070D03*
X1067D03*
X1825Y1944D03*
X1878D03*
X1640Y2614D03*
X1587D03*
X1482Y1143D03*
X1429D03*
X2209Y1142D03*
X2155D03*
G54D35*
X2964Y2338D03*
Y2391D03*
X1062Y3093D03*
Y3146D03*
X1405Y2882D03*
Y2935D03*
X1361Y2209D03*
Y2262D03*
X1010Y1631D03*
Y1578D03*
X941Y2820D03*
Y2767D03*
X1801Y2744D03*
Y2797D03*
X988Y2200D03*
Y2147D03*
X2852Y3089D03*
Y3036D03*
X2158Y3089D03*
Y3036D03*
G54D67*
X1198Y945D03*
X1098D03*
X998D03*
X2379D03*
X2279D03*
X2179D03*
X1591D03*
X1491D03*
X1391D03*
X1946D03*
X1846D03*
X1746D03*
G54D68*
X726Y1798D03*
Y1916D03*
Y2034D03*
Y2152D03*
Y2270D03*
Y2388D03*
Y2506D03*
Y2624D03*
Y2742D03*
X628Y1857D03*
Y1975D03*
Y2093D03*
Y2211D03*
Y2329D03*
Y2447D03*
Y2565D03*
Y2683D03*
X510Y1857D03*
Y1975D03*
Y2093D03*
Y2211D03*
Y2329D03*
Y2447D03*
Y2565D03*
Y2683D03*
X411Y1798D03*
Y1916D03*
Y2034D03*
Y2152D03*
Y2270D03*
Y2388D03*
Y2506D03*
Y2624D03*
Y2742D03*
G54D69*
X155Y3028D03*
Y1512D03*
G54D70*
X1410Y158D03*
X1384Y532D03*
X1534Y394D03*
X1804Y158D03*
X1778Y532D03*
X1928Y394D03*
X1016Y158D03*
X991Y532D03*
X1140Y394D03*
X2222Y161D03*
X2197Y535D03*
X2346Y398D03*
G54D71*
X1579Y748D03*
X1410D03*
X1973D03*
X1804D03*
X1186D03*
X1016D03*
X2392Y752D03*
X2222D03*
G54D72*
X324Y1159D03*
X620D03*
X324Y765D03*
Y962D03*
X620Y765D03*
Y962D03*
Y175D03*
X324D03*
M02*