%FSLAX23Y23*%
%MOIN*%
%SFA1B1*%

%IPPOS*%
%ADD16C,0.003940*%
%LNvcu-1*%
%LPD*%
G54D16*
X2500Y2554D02*
D01*
X2500Y2555*
X2500Y2557*
X2500Y2558*
X2499Y2559*
X2499Y2561*
X2498Y2562*
X2498Y2563*
X2497Y2564*
X2496Y2565*
X2495Y2567*
X2495Y2568*
X2494Y2569*
X2493Y2569*
X2491Y2570*
X2490Y2571*
X2489Y2572*
X2488Y2572*
X2486Y2573*
X2485Y2573*
X2484Y2573*
X2482Y2574*
X2481Y2574*
X2480*
X2478Y2574*
X2477Y2573*
X2476Y2573*
X2474Y2573*
X2473Y2572*
X2472Y2572*
X2471Y2571*
X2469Y2570*
X2468Y2569*
X2467Y2569*
X2466Y2568*
X2465Y2567*
X2464Y2565*
X2464Y2564*
X2463Y2563*
X2462Y2562*
X2462Y2561*
X2461Y2559*
X2461Y2558*
X2461Y2557*
X2461Y2555*
X2461Y2554*
X2461Y2553*
X2461Y2551*
X2461Y2550*
X2461Y2548*
X2462Y2547*
X2462Y2546*
X2463Y2545*
X2464Y2543*
X2464Y2542*
X2465Y2541*
X2466Y2540*
X2467Y2539*
X2468Y2538*
X2469Y2538*
X2471Y2537*
X2472Y2536*
X2473Y2536*
X2474Y2535*
X2476Y2535*
X2477Y2535*
X2478Y2534*
X2480Y2534*
X2481*
X2482Y2534*
X2484Y2535*
X2485Y2535*
X2486Y2535*
X2488Y2536*
X2489Y2536*
X2490Y2537*
X2491Y2538*
X2493Y2538*
X2494Y2539*
X2495Y2540*
X2495Y2541*
X2496Y2542*
X2497Y2543*
X2498Y2545*
X2498Y2546*
X2499Y2547*
X2499Y2548*
X2500Y2550*
X2500Y2551*
X2500Y2553*
X2500Y2554*
X1583Y1613D02*
D01*
X1583Y1614*
X1583Y1616*
X1582Y1617*
X1582Y1619*
X1582Y1620*
X1581Y1621*
X1580Y1622*
X1580Y1624*
X1579Y1625*
X1578Y1626*
X1577Y1627*
X1576Y1628*
X1575Y1629*
X1574Y1629*
X1573Y1630*
X1572Y1631*
X1570Y1631*
X1569Y1632*
X1568Y1632*
X1567Y1632*
X1565Y1633*
X1564Y1633*
X1562*
X1561Y1633*
X1560Y1632*
X1558Y1632*
X1557Y1632*
X1556Y1631*
X1554Y1631*
X1553Y1630*
X1552Y1629*
X1551Y1629*
X1550Y1628*
X1549Y1627*
X1548Y1626*
X1547Y1625*
X1546Y1624*
X1546Y1622*
X1545Y1621*
X1545Y1620*
X1544Y1619*
X1544Y1617*
X1544Y1616*
X1543Y1614*
X1543Y1613*
X1543Y1612*
X1544Y1610*
X1544Y1609*
X1544Y1608*
X1545Y1606*
X1545Y1605*
X1546Y1604*
X1546Y1603*
X1547Y1602*
X1548Y1600*
X1549Y1599*
X1550Y1598*
X1551Y1598*
X1552Y1597*
X1553Y1596*
X1554Y1595*
X1556Y1595*
X1557Y1594*
X1558Y1594*
X1560Y1594*
X1561Y1593*
X1562Y1593*
X1564*
X1565Y1593*
X1567Y1594*
X1568Y1594*
X1569Y1594*
X1570Y1595*
X1572Y1595*
X1573Y1596*
X1574Y1597*
X1575Y1598*
X1576Y1598*
X1577Y1599*
X1578Y1600*
X1579Y1602*
X1580Y1603*
X1580Y1604*
X1581Y1605*
X1582Y1606*
X1582Y1608*
X1582Y1609*
X1583Y1610*
X1583Y1612*
X1583Y1613*
X1519Y2709D02*
D01*
X1519Y2710*
X1519Y2712*
X1519Y2713*
X1518Y2714*
X1518Y2716*
X1517Y2717*
X1517Y2718*
X1516Y2719*
X1515Y2720*
X1515Y2722*
X1514Y2723*
X1513Y2724*
X1512Y2724*
X1510Y2725*
X1509Y2726*
X1508Y2727*
X1507Y2727*
X1506Y2728*
X1504Y2728*
X1503Y2728*
X1501Y2728*
X1500Y2729*
X1499*
X1497Y2728*
X1496Y2728*
X1495Y2728*
X1493Y2728*
X1492Y2727*
X1491Y2727*
X1490Y2726*
X1488Y2725*
X1487Y2724*
X1486Y2724*
X1485Y2723*
X1484Y2722*
X1483Y2720*
X1483Y2719*
X1482Y2718*
X1481Y2717*
X1481Y2716*
X1480Y2714*
X1480Y2713*
X1480Y2712*
X1480Y2710*
X1480Y2709*
X1480Y2708*
X1480Y2706*
X1480Y2705*
X1480Y2703*
X1481Y2702*
X1481Y2701*
X1482Y2700*
X1483Y2698*
X1483Y2697*
X1484Y2696*
X1485Y2695*
X1486Y2694*
X1487Y2693*
X1488Y2693*
X1490Y2692*
X1491Y2691*
X1492Y2691*
X1493Y2690*
X1495Y2690*
X1496Y2690*
X1497Y2689*
X1499Y2689*
X1500*
X1501Y2689*
X1503Y2690*
X1504Y2690*
X1506Y2690*
X1507Y2691*
X1508Y2691*
X1509Y2692*
X1510Y2693*
X1512Y2693*
X1513Y2694*
X1514Y2695*
X1515Y2696*
X1515Y2697*
X1516Y2698*
X1517Y2700*
X1517Y2701*
X1518Y2702*
X1518Y2703*
X1519Y2705*
X1519Y2706*
X1519Y2708*
X1519Y2709*
X1235Y2843D02*
D01*
X1234Y2844*
X1234Y2845*
X1234Y2847*
X1234Y2848*
X1233Y2849*
X1233Y2851*
X1232Y2852*
X1232Y2853*
X1231Y2854*
X1230Y2855*
X1229Y2856*
X1228Y2857*
X1227Y2858*
X1226Y2859*
X1225Y2860*
X1223Y2860*
X1222Y2861*
X1221Y2861*
X1220Y2862*
X1218Y2862*
X1217Y2862*
X1215Y2862*
X1214*
X1213Y2862*
X1211Y2862*
X1210Y2862*
X1209Y2861*
X1207Y2861*
X1206Y2860*
X1205Y2860*
X1204Y2859*
X1203Y2858*
X1202Y2857*
X1201Y2856*
X1200Y2855*
X1199Y2854*
X1198Y2853*
X1197Y2852*
X1197Y2851*
X1196Y2849*
X1196Y2848*
X1196Y2847*
X1195Y2845*
X1195Y2844*
X1195Y2843*
X1195Y2841*
X1195Y2840*
X1196Y2838*
X1196Y2837*
X1196Y2836*
X1197Y2835*
X1197Y2833*
X1198Y2832*
X1199Y2831*
X1200Y2830*
X1201Y2829*
X1202Y2828*
X1203Y2827*
X1204Y2826*
X1205Y2825*
X1206Y2825*
X1207Y2824*
X1209Y2824*
X1210Y2823*
X1211Y2823*
X1213Y2823*
X1214Y2823*
X1215*
X1217Y2823*
X1218Y2823*
X1220Y2823*
X1221Y2824*
X1222Y2824*
X1223Y2825*
X1225Y2825*
X1226Y2826*
X1227Y2827*
X1228Y2828*
X1229Y2829*
X1230Y2830*
X1231Y2831*
X1232Y2832*
X1232Y2833*
X1233Y2835*
X1233Y2836*
X1234Y2837*
X1234Y2838*
X1234Y2840*
X1234Y2841*
X1235Y2843*
X1234Y2171D02*
D01*
X1234Y2172*
X1234Y2173*
X1234Y2175*
X1234Y2176*
X1233Y2177*
X1233Y2179*
X1232Y2180*
X1231Y2181*
X1231Y2182*
X1230Y2183*
X1229Y2184*
X1228Y2185*
X1227Y2186*
X1226Y2187*
X1225Y2188*
X1223Y2188*
X1222Y2189*
X1221Y2189*
X1220Y2190*
X1218Y2190*
X1217Y2190*
X1215Y2190*
X1214*
X1213Y2190*
X1211Y2190*
X1210Y2190*
X1209Y2189*
X1207Y2189*
X1206Y2188*
X1205Y2188*
X1204Y2187*
X1203Y2186*
X1202Y2185*
X1201Y2184*
X1200Y2183*
X1199Y2182*
X1198Y2181*
X1197Y2180*
X1197Y2179*
X1196Y2177*
X1196Y2176*
X1196Y2175*
X1195Y2173*
X1195Y2172*
X1195Y2171*
X1195Y2169*
X1195Y2168*
X1196Y2166*
X1196Y2165*
X1196Y2164*
X1197Y2163*
X1197Y2161*
X1198Y2160*
X1199Y2159*
X1200Y2158*
X1201Y2157*
X1202Y2156*
X1203Y2155*
X1204Y2154*
X1205Y2153*
X1206Y2153*
X1207Y2152*
X1209Y2152*
X1210Y2151*
X1211Y2151*
X1213Y2151*
X1214Y2151*
X1215*
X1217Y2151*
X1218Y2151*
X1220Y2151*
X1221Y2152*
X1222Y2152*
X1223Y2153*
X1225Y2153*
X1226Y2154*
X1227Y2155*
X1228Y2156*
X1229Y2157*
X1230Y2158*
X1231Y2159*
X1231Y2160*
X1232Y2161*
X1233Y2163*
X1233Y2164*
X1234Y2165*
X1234Y2166*
X1234Y2168*
X1234Y2169*
X1234Y2171*
X2477Y3044D02*
Y3179D01*
X2727*
X2477Y3044D02*
X2727D01*
Y3179*
X2445Y2196D02*
Y2589D01*
X2839Y2196D02*
Y2589D01*
X2445D02*
X2839D01*
X2445Y2196D02*
X2839D01*
X1599Y1578D02*
Y1971D01*
X1441Y1578D02*
Y1971D01*
Y1578D02*
X1599D01*
X1441Y1971D02*
X1599D01*
X1464Y2673D02*
Y3067D01*
X1621Y2673D02*
Y3067D01*
X1464Y2673D02*
X1621D01*
X1464Y3067D02*
X1621D01*
X2013Y2525D02*
Y2647D01*
X2080Y2525D02*
Y2647D01*
X2013D02*
X2080D01*
X2013Y2525D02*
X2080D01*
X2014Y2160D02*
Y2282D01*
X2081Y2160D02*
Y2282D01*
X2014D02*
X2081D01*
X2014Y2160D02*
X2081D01*
X1093Y3004D02*
X1250D01*
X1093Y2807D02*
X1250D01*
X1093D02*
Y3004D01*
X1250Y2807D02*
Y3004D01*
X1093Y2332D02*
X1250D01*
X1093Y2135D02*
X1250D01*
X1093D02*
Y2332D01*
X1250Y2135D02*
Y2332D01*
X695Y3725D02*
X952D01*
X695Y3864D02*
X952D01*
X695Y3725D02*
Y3864D01*
X952Y3725D02*
Y3864D01*
X3056Y2563D02*
X3093D01*
X3056Y2632D02*
X3093D01*
X3056Y2563D02*
Y2632D01*
X3093Y2563D02*
Y2632D01*
X1956Y3667D02*
Y3704D01*
X2025Y3667D02*
Y3704D01*
X1956D02*
X2025D01*
X1956Y3667D02*
X2025D01*
X2133D02*
Y3704D01*
X2202Y3667D02*
Y3704D01*
X2133D02*
X2202D01*
X2133Y3667D02*
X2202D01*
X2941Y2141D02*
X2978D01*
X2941Y2210D02*
X2978D01*
X2941Y2141D02*
Y2210D01*
X2978Y2141D02*
Y2210D01*
X2761Y3667D02*
Y3704D01*
X2830Y3667D02*
Y3704D01*
X2761D02*
X2830D01*
X2761Y3667D02*
X2830D01*
X2936D02*
Y3704D01*
X3004Y3667D02*
Y3704D01*
X2936D02*
X3004D01*
X2936Y3667D02*
X3004D01*
X3056Y2401D02*
X3093D01*
X3056Y2470D02*
X3093D01*
X3056Y2401D02*
Y2470D01*
X3093Y2401D02*
Y2470D01*
X2343Y3667D02*
Y3704D01*
X2412Y3667D02*
Y3704D01*
X2343D02*
X2412D01*
X2343Y3667D02*
X2412D01*
X2519D02*
Y3704D01*
X2588Y3667D02*
Y3704D01*
X2519D02*
X2588D01*
X2519Y3667D02*
X2588D01*
X1286D02*
Y3704D01*
X1355Y3667D02*
Y3704D01*
X1286D02*
X1355D01*
X1286Y3667D02*
X1355D01*
X1531Y3667D02*
Y3704D01*
X1462Y3667D02*
Y3704D01*
Y3667D02*
X1531D01*
X1462Y3704D02*
X1531D01*
X1710Y3666D02*
Y3703D01*
X1779Y3666D02*
Y3703D01*
X1710D02*
X1779D01*
X1710Y3666D02*
X1779D01*
X1801Y2613D02*
Y2650D01*
X1870Y2613D02*
Y2650D01*
X1801D02*
X1870D01*
X1801Y2613D02*
X1870D01*
X1956Y2745D02*
X1994D01*
X1956Y2813D02*
X1994D01*
X1956Y2745D02*
Y2813D01*
X1994Y2745D02*
Y2813D01*
X1579Y2170D02*
Y2207D01*
X1648Y2170D02*
Y2207D01*
X1579D02*
X1648D01*
X1579Y2170D02*
X1648D01*
X1579Y2312D02*
Y2349D01*
X1648Y2312D02*
Y2349D01*
X1579D02*
X1648D01*
X1579Y2312D02*
X1648D01*
X953Y2993D02*
X991D01*
X953Y2924D02*
X991D01*
Y2993*
X953Y2924D02*
Y2993D01*
X968Y2318D02*
X1005D01*
X968Y2249D02*
X1005D01*
Y2318*
X968Y2249D02*
Y2318D01*
X2672Y3499D02*
Y3554D01*
X2792Y3499D02*
Y3554D01*
X2672Y3499D02*
X2792D01*
X2672Y3554D02*
X2792D01*
X2255Y3496D02*
Y3551D01*
X2374Y3496D02*
Y3551D01*
X2255Y3496D02*
X2374D01*
X2255Y3551D02*
X2374D01*
X1869Y3499D02*
Y3554D01*
X1988Y3499D02*
Y3554D01*
X1869Y3499D02*
X1988D01*
X1869Y3554D02*
X1988D01*
X1444Y3496D02*
Y3551D01*
X1563Y3496D02*
Y3551D01*
X1444Y3496D02*
X1563D01*
X1444Y3551D02*
X1563D01*
X1803Y2554D02*
X1858D01*
X1803Y2435D02*
X1858D01*
X1803D02*
Y2554D01*
X1858Y2435D02*
Y2554D01*
X1497Y593D02*
X1607D01*
X1497Y667D02*
X1607D01*
X1497Y593D02*
Y667D01*
X1607Y593D02*
Y667D01*
X1870Y593D02*
X1980D01*
X1870Y667D02*
X1980D01*
X1870Y593D02*
Y667D01*
X1980Y593D02*
Y667D01*
X1064Y593D02*
X1174D01*
X1064Y667D02*
X1174D01*
X1064Y593D02*
Y667D01*
X1174Y593D02*
Y667D01*
X2245Y597D02*
X2355D01*
X2245Y672D02*
X2355D01*
X2245Y597D02*
Y672D01*
X2355Y597D02*
Y672D01*
X579Y3489D02*
X690D01*
X579Y3564D02*
X690D01*
Y3489D02*
Y3564D01*
X579Y3489D02*
Y3564D01*
X1803Y2295D02*
X1858D01*
X1803Y2175D02*
X1858D01*
X1803D02*
Y2295D01*
X1858Y2175D02*
Y2295D01*
X596Y3357D02*
Y3395D01*
X527Y3357D02*
Y3395D01*
Y3357D02*
X596D01*
X527Y3395D02*
X596D01*
X2103Y2468D02*
Y2505D01*
X2172Y2468D02*
Y2505D01*
X2103D02*
X2172D01*
X2103Y2468D02*
X2172D01*
X2644Y3288D02*
Y3325D01*
X2713Y3288D02*
Y3325D01*
X2644D02*
X2713D01*
X2644Y3288D02*
X2713D01*
X2205Y2264D02*
Y2302D01*
X2274Y2264D02*
Y2302D01*
X2205D02*
X2274D01*
X2205Y2264D02*
X2274D01*
X2196Y2361D02*
Y2398D01*
X2265Y2361D02*
Y2398D01*
X2196D02*
X2265D01*
X2196Y2361D02*
X2265D01*
X2945Y2330D02*
X2983D01*
X2945Y2399D02*
X2983D01*
X2945Y2330D02*
Y2399D01*
X2983Y2330D02*
Y2399D01*
X1476Y1430D02*
Y1467D01*
X1407Y1430D02*
Y1467D01*
Y1430D02*
X1476D01*
X1407Y1467D02*
X1476D01*
X1557Y1430D02*
Y1467D01*
X1625Y1430D02*
Y1467D01*
X1557D02*
X1625D01*
X1557Y1430D02*
X1625D01*
X1191Y2742D02*
X1229D01*
X1191Y2811D02*
X1229D01*
Y2742D02*
Y2811D01*
X1191Y2742D02*
Y2811D01*
X1060Y2740D02*
X1097D01*
X1060Y2809D02*
X1097D01*
Y2740D02*
Y2809D01*
X1060Y2740D02*
Y2809D01*
X2278Y2619D02*
Y2656D01*
X2209Y2619D02*
Y2656D01*
Y2619D02*
X2278D01*
X2209Y2656D02*
X2278D01*
Y2146D02*
Y2184D01*
X2209Y2146D02*
Y2184D01*
Y2146D02*
X2278D01*
X2209Y2184D02*
X2278D01*
X1044Y3085D02*
X1081D01*
X1044Y3154D02*
X1081D01*
X1044Y3085D02*
Y3154D01*
X1081Y3085D02*
Y3154D01*
X1386Y2874D02*
X1423D01*
X1386Y2943D02*
X1423D01*
X1386Y2874D02*
Y2943D01*
X1423Y2874D02*
Y2943D01*
X1055Y2414D02*
Y2451D01*
X1124Y2414D02*
Y2451D01*
X1055D02*
X1124D01*
X1055Y2414D02*
X1124D01*
X1342Y2201D02*
X1379D01*
X1342Y2270D02*
X1379D01*
X1342Y2201D02*
Y2270D01*
X1379Y2201D02*
Y2270D01*
X1107Y3507D02*
Y3544D01*
X1176Y3507D02*
Y3544D01*
X1107D02*
X1176D01*
X1107Y3507D02*
X1176D01*
X861Y3511D02*
Y3548D01*
X792Y3511D02*
Y3548D01*
Y3511D02*
X861D01*
X792Y3548D02*
X861D01*
X1028Y1570D02*
Y1639D01*
X991Y1570D02*
Y1639D01*
X1028*
X991Y1570D02*
X1028D01*
X979Y1160D02*
X1048D01*
X979Y1123D02*
X1048D01*
X979D02*
Y1160D01*
X1048Y1123D02*
Y1160D01*
X1754Y1123D02*
X1823D01*
X1754Y1160D02*
X1823D01*
Y1123D02*
Y1160D01*
X1754Y1123D02*
Y1160D01*
X1815Y1717D02*
X1884D01*
X1815Y1680D02*
X1884D01*
X1815D02*
Y1717D01*
X1884Y1680D02*
Y1717D01*
X1811Y1816D02*
X1880D01*
X1811Y1779D02*
X1880D01*
X1811D02*
Y1816D01*
X1880Y1779D02*
Y1816D01*
X960Y2759D02*
Y2828D01*
X923Y2759D02*
Y2828D01*
X960*
X923Y2759D02*
X960D01*
X1270Y2414D02*
Y2451D01*
X1201Y2414D02*
Y2451D01*
X1270*
X1201Y2414D02*
X1270D01*
X1579Y2453D02*
X1648D01*
X1579Y2491D02*
X1648D01*
Y2453D02*
Y2491D01*
X1579Y2453D02*
Y2491D01*
X1782Y2736D02*
Y2805D01*
X1819Y2736D02*
Y2805D01*
X1782Y2736D02*
X1819D01*
X1782Y2805D02*
X1819D01*
X791Y3392D02*
X860D01*
X791Y3355D02*
X860D01*
X791D02*
Y3392D01*
X860Y3355D02*
Y3392D01*
X949Y3546D02*
X1018D01*
X949Y3508D02*
X1018D01*
X949D02*
Y3546D01*
X1018Y3508D02*
Y3546D01*
X1006Y2139D02*
Y2208D01*
X969Y2139D02*
Y2208D01*
X1006*
X969Y2139D02*
X1006D01*
X1204Y2940D02*
X1273D01*
X1204Y2903D02*
X1273D01*
Y2940*
X1204Y2903D02*
Y2940D01*
X1207Y3036D02*
X1276D01*
X1207Y2999D02*
X1276D01*
Y3036*
X1207Y2999D02*
Y3036D01*
X1214Y3132D02*
X1283D01*
X1214Y3095D02*
X1283D01*
Y3132*
X1214Y3095D02*
Y3132D01*
X1789Y3026D02*
X1858D01*
X1789Y3063D02*
X1858D01*
X1789Y3026D02*
Y3063D01*
X1858Y3026D02*
Y3063D01*
X1791Y2927D02*
X1860D01*
X1791Y2964D02*
X1860D01*
X1791Y2927D02*
Y2964D01*
X1860Y2927D02*
Y2964D01*
X1853Y2781D02*
X1922D01*
X1853Y2818D02*
X1922D01*
X1853Y2781D02*
Y2818D01*
X1922Y2781D02*
Y2818D01*
X527Y3675D02*
X596D01*
X527Y3638D02*
X596D01*
X527D02*
Y3675D01*
X596Y3638D02*
Y3675D01*
X940Y2694D02*
X1009D01*
X940Y2657D02*
X1009D01*
X940D02*
Y2694D01*
X1009Y2657D02*
Y2694D01*
X969Y1713D02*
X1038D01*
X969Y1750D02*
X1038D01*
Y1713D02*
Y1750D01*
X969Y1713D02*
Y1750D01*
X967Y1879D02*
X1036D01*
X967Y1917D02*
X1036D01*
Y1879D02*
Y1917D01*
X967Y1879D02*
Y1917D01*
X1059Y2051D02*
X1128D01*
X1059Y2088D02*
X1128D01*
Y2051D02*
Y2088D01*
X1059Y2051D02*
Y2088D01*
X1817Y1963D02*
X1886D01*
X1817Y1926D02*
X1886D01*
X1817D02*
Y1963D01*
X1886Y1926D02*
Y1963D01*
X1579Y2595D02*
X1648D01*
X1579Y2632D02*
X1648D01*
Y2595D02*
Y2632D01*
X1579Y2595D02*
Y2632D01*
X2870Y3028D02*
Y3097D01*
X2833Y3028D02*
Y3097D01*
X2870*
X2833Y3028D02*
X2870D01*
X2176D02*
Y3097D01*
X2139Y3028D02*
Y3097D01*
X2176*
X2139Y3028D02*
X2176D01*
X1421Y1124D02*
X1490D01*
X1421Y1161D02*
X1490D01*
Y1124D02*
Y1161D01*
X1421Y1124D02*
Y1161D01*
X2148Y1123D02*
X2216D01*
X2148Y1160D02*
X2216D01*
Y1123D02*
Y1160D01*
X2148Y1123D02*
Y1160D01*
M02*