%TF.GenerationSoftware,Altium Limited,Altium Designer,19.1.8 (144)*%
G04 Layer_Color=128*
%FSLAX26Y26*%
%MOIN*%
%TF.FileFunction,Drillmap*%
%TF.Part,Single*%
G01*
G75*
%TA.AperFunction,NonConductor*%
%ADD102C,0.005000*%
D102*
X44291Y98425D02*
X152559D01*
X98425Y44291D02*
Y152559D01*
X2800197Y98425D02*
X2908465D01*
X2854331Y44291D02*
Y152559D01*
X2800197Y2055118D02*
X2908465D01*
X2854331Y2000984D02*
Y2109252D01*
X44291Y2055118D02*
X152559D01*
X98425Y2000984D02*
Y2109252D01*
X404724Y98425D02*
X448031D01*
X426378Y76772D02*
Y120079D01*
X504724Y98425D02*
X548032D01*
X526378Y76772D02*
Y120079D01*
X804725Y98425D02*
X848032D01*
X826378Y76772D02*
Y120079D01*
X904725Y98425D02*
X948032D01*
X926378Y76772D02*
Y120079D01*
X1004725Y98425D02*
X1048032D01*
X1026378Y76772D02*
Y120079D01*
X1104725Y98425D02*
X1148032D01*
X1126378Y76772D02*
Y120079D01*
X1204725Y98425D02*
X1248032D01*
X1226378Y76772D02*
Y120079D01*
X1304725Y98425D02*
X1348032D01*
X1326378Y76772D02*
Y120079D01*
X1404725Y98425D02*
X1448032D01*
X1426378Y76772D02*
Y120079D01*
X1504725Y98425D02*
X1548032D01*
X1526378Y76772D02*
Y120079D01*
X1604725Y98425D02*
X1648032D01*
X1626378Y76772D02*
Y120079D01*
X1704725Y98425D02*
X1748032D01*
X1726378Y76772D02*
Y120079D01*
X1804725Y98425D02*
X1848032D01*
X1826378Y76772D02*
Y120079D01*
X1904725Y98425D02*
X1948032D01*
X1926378Y76772D02*
Y120079D01*
X2004725Y98425D02*
X2048032D01*
X2026378Y76772D02*
Y120079D01*
X2104724Y98425D02*
X2148032D01*
X2126378Y76772D02*
Y120079D01*
X2204724Y98425D02*
X2248032D01*
X2226378Y76772D02*
Y120079D01*
X2304724Y98425D02*
X2348032D01*
X2326378Y76772D02*
Y120079D01*
X2404724Y98425D02*
X2448032D01*
X2426378Y76772D02*
Y120079D01*
X2504724Y98425D02*
X2548032D01*
X2526378Y76772D02*
Y120079D01*
X768898Y2015748D02*
X812205D01*
X790551Y1994094D02*
Y2037401D01*
X668898Y2015748D02*
X712205D01*
X690551Y1994094D02*
Y2037401D01*
X568898Y2015748D02*
X612205D01*
X590551Y1994094D02*
Y2037401D01*
X2140551Y2015748D02*
X2183858D01*
X2162205Y1994094D02*
Y2037401D01*
X2240551Y2015748D02*
X2283858D01*
X2262205Y1994094D02*
Y2037401D01*
X2340551Y2015748D02*
X2383858D01*
X2362205Y1994094D02*
Y2037401D01*
X29528Y1230315D02*
X72835D01*
X51181Y1208661D02*
Y1251968D01*
X118110Y864173D02*
X161417D01*
X139764Y842520D02*
Y885827D01*
X29528Y864173D02*
X72835D01*
X51181Y842520D02*
Y885827D01*
X118110Y1230315D02*
X161417D01*
X139764Y1208661D02*
Y1251968D01*
X765748Y1334449D02*
X805118D01*
X785433Y1314764D02*
Y1354134D01*
X765748Y1484449D02*
X805118D01*
X785433Y1464764D02*
Y1504134D01*
X3357087Y703307D02*
X3408268D01*
X3382677Y677717D02*
Y728898D01*
X3475197Y703307D02*
X3526378D01*
X3500787Y677717D02*
Y728898D01*
X3593307Y703307D02*
X3644488D01*
X3618898Y677717D02*
Y728898D01*
X3711417Y703307D02*
X3762598D01*
X3737008Y677717D02*
Y728898D01*
X3829528Y703307D02*
X3880709D01*
X3855118Y677717D02*
Y728898D01*
X3947638Y703307D02*
X3998819D01*
X3973228Y677717D02*
Y728898D01*
X4065748Y703307D02*
X4116929D01*
X4091339Y677717D02*
Y728898D01*
X3416142Y841102D02*
X3467323D01*
X3441732Y815512D02*
Y866693D01*
X3534252Y841102D02*
X3585433D01*
X3559843Y815512D02*
Y866693D01*
X3652362Y841102D02*
X3703543D01*
X3677953Y815512D02*
Y866693D01*
X3770472Y841102D02*
X3821653D01*
X3796063Y815512D02*
Y866693D01*
X3888583Y841102D02*
X3939764D01*
X3914173Y815512D02*
Y866693D01*
X4006693Y841102D02*
X4057874D01*
X4032284Y815512D02*
Y866693D01*
X3416142Y998583D02*
X3467323D01*
X3441732Y972992D02*
Y1024173D01*
X3534252Y998583D02*
X3585433D01*
X3559843Y972992D02*
Y1024173D01*
X3652362Y998583D02*
X3703543D01*
X3677953Y972992D02*
Y1024173D01*
X3770472Y998583D02*
X3821653D01*
X3796063Y972992D02*
Y1024173D01*
X3888583Y998583D02*
X3939764D01*
X3914173Y972992D02*
Y1024173D01*
X4006693Y998583D02*
X4057874D01*
X4032284Y972992D02*
Y1024173D01*
X3357087Y1136378D02*
X3408268D01*
X3382677Y1110787D02*
Y1161968D01*
X3475197Y1136378D02*
X3526378D01*
X3500787Y1110787D02*
Y1161968D01*
X3593307Y1136378D02*
X3644488D01*
X3618898Y1110787D02*
Y1161968D01*
X3711417Y1136378D02*
X3762598D01*
X3737008Y1110787D02*
Y1161968D01*
X3829528Y1136378D02*
X3880709D01*
X3855118Y1110787D02*
Y1161968D01*
X3947638Y1136378D02*
X3998819D01*
X3973228Y1110787D02*
Y1161968D01*
X4065748Y1136378D02*
X4116929D01*
X4091339Y1110787D02*
Y1161968D01*
X4219291Y919842D02*
X4317717D01*
X4268504Y870630D02*
Y969055D01*
X3522441Y1930433D02*
X3557874D01*
X3540157Y1912717D02*
Y1948150D01*
X3622441Y1930433D02*
X3657874D01*
X3640157Y1912717D02*
Y1948150D01*
X3722441Y1930433D02*
X3757874D01*
X3740157Y1912717D02*
Y1948150D01*
X3822441Y1930433D02*
X3857874D01*
X3840157Y1912717D02*
Y1948150D01*
X3922441Y1930433D02*
X3957874D01*
X3940157Y1912717D02*
Y1948150D01*
X3922441Y330433D02*
X3957874D01*
X3940157Y312717D02*
Y348150D01*
X3822441Y330433D02*
X3857874D01*
X3840157Y312717D02*
Y348150D01*
X3722441Y330433D02*
X3757874D01*
X3740157Y312717D02*
Y348150D01*
X3622441Y330433D02*
X3657874D01*
X3640157Y312717D02*
Y348150D01*
X3522441Y330433D02*
X3557874D01*
X3540157Y312717D02*
Y348150D01*
X4877323Y1788937D02*
X4915905D01*
X4896614Y1769646D02*
Y1808228D01*
X4877323Y1688937D02*
X4915905D01*
X4896614Y1669646D02*
Y1708228D01*
X4877323Y1316496D02*
X4915905D01*
X4896614Y1297205D02*
Y1335787D01*
X4877323Y1216496D02*
X4915905D01*
X4896614Y1197205D02*
Y1235787D01*
X4877323Y844055D02*
X4915905D01*
X4896614Y824764D02*
Y863346D01*
X4877323Y744055D02*
X4915905D01*
X4896614Y724764D02*
Y763346D01*
X4877323Y371614D02*
X4915905D01*
X4896614Y352323D02*
Y390906D01*
X4877323Y271614D02*
X4915905D01*
X4896614Y252323D02*
Y290906D01*
X2968878Y204724D02*
X2983878D01*
X2976378Y197224D02*
Y212224D01*
X3250766Y200787D02*
X3265766D01*
X3258266Y193287D02*
Y208287D01*
X3643801Y132913D02*
X3658801D01*
X3651301Y125413D02*
Y140413D01*
X4029784Y237831D02*
X4044784D01*
X4037284Y230331D02*
Y245331D01*
X4673732Y177165D02*
X4688732D01*
X4681232Y169665D02*
Y184665D01*
X4295650Y200787D02*
X4310650D01*
X4303150Y193287D02*
Y208287D01*
X1201161Y1274717D02*
X1216161D01*
X1208661Y1267217D02*
Y1282217D01*
X4497422Y373031D02*
X4512422D01*
X4504922Y365531D02*
Y380531D01*
X4256279Y370079D02*
X4271279D01*
X4263779Y362579D02*
Y377579D01*
X3240532Y433071D02*
X3255532D01*
X3248032Y425571D02*
Y440571D01*
X3375177Y440945D02*
X3390177D01*
X3382677Y433445D02*
Y448445D01*
X1201161Y1354717D02*
X1216161D01*
X1208661Y1347217D02*
Y1362217D01*
X1201161Y1234717D02*
X1216161D01*
X1208661Y1227217D02*
Y1242217D01*
X1198735Y1314717D02*
X1213735D01*
X1206235Y1307217D02*
Y1322217D01*
X1886201Y267716D02*
X1901201D01*
X1893701Y260216D02*
Y275216D01*
X2501358Y404528D02*
X2516358D01*
X2508858Y397028D02*
Y412028D01*
X2400713Y405512D02*
X2415713D01*
X2408213Y398012D02*
Y413012D01*
X3980689Y396654D02*
X3995689D01*
X3988189Y389154D02*
Y404154D01*
X2401944Y496062D02*
X2416944D01*
X2409444Y488562D02*
Y503562D01*
X2500369Y496062D02*
X2515369D01*
X2507869Y488562D02*
Y503562D01*
X2776791Y399606D02*
X2791791D01*
X2784291Y392106D02*
Y407106D01*
X3842894Y145669D02*
X3857894D01*
X3850394Y138169D02*
Y153169D01*
X3905886Y139291D02*
X3920886D01*
X3913386Y131791D02*
Y146791D01*
X3208328Y263779D02*
X3223328D01*
X3215828Y256279D02*
Y271279D01*
X4090925Y440945D02*
X4105925D01*
X4098425Y433445D02*
Y448445D01*
X2320098Y822598D02*
X2335098D01*
X2327598Y815098D02*
Y830098D01*
X2320098Y787598D02*
X2335098D01*
X2327598Y780098D02*
Y795098D01*
X2320098Y752598D02*
X2335098D01*
X2327598Y745098D02*
Y760098D01*
X2320098Y717598D02*
X2335098D01*
X2327598Y710098D02*
Y725098D01*
X2320098Y682598D02*
X2335098D01*
X2327598Y675098D02*
Y690098D01*
X2320098Y647598D02*
X2335098D01*
X2327598Y640098D02*
Y655098D01*
X2285098Y822598D02*
X2300098D01*
X2292598Y815098D02*
Y830098D01*
X2285098Y787598D02*
X2300098D01*
X2292598Y780098D02*
Y795098D01*
X2285098Y647598D02*
X2300098D01*
X2292598Y640098D02*
Y655098D01*
X2250098Y822598D02*
X2265098D01*
X2257598Y815098D02*
Y830098D01*
X2250098Y787598D02*
X2265098D01*
X2257598Y780098D02*
Y795098D01*
X2250098Y647598D02*
X2265098D01*
X2257598Y640098D02*
Y655098D01*
X2215098Y822598D02*
X2230098D01*
X2222598Y815098D02*
Y830098D01*
X2215098Y787598D02*
X2230098D01*
X2222598Y780098D02*
Y795098D01*
X2215098Y647598D02*
X2230098D01*
X2222598Y640098D02*
Y655098D01*
X2180098Y822598D02*
X2195098D01*
X2187598Y815098D02*
Y830098D01*
X2180098Y787598D02*
X2195098D01*
X2187598Y780098D02*
Y795098D01*
X2180098Y647598D02*
X2195098D01*
X2187598Y640098D02*
Y655098D01*
X2145098Y822598D02*
X2160098D01*
X2152598Y815098D02*
Y830098D01*
X2145098Y787598D02*
X2160098D01*
X2152598Y780098D02*
Y795098D01*
X2145098Y647598D02*
X2160098D01*
X2152598Y640098D02*
Y655098D01*
X2110098Y822598D02*
X2125098D01*
X2117598Y815098D02*
Y830098D01*
X2110098Y787598D02*
X2125098D01*
X2117598Y780098D02*
Y795098D01*
X2110098Y752598D02*
X2125098D01*
X2117598Y745098D02*
Y760098D01*
X2110098Y717598D02*
X2125098D01*
X2117598Y710098D02*
Y725098D01*
X2110098Y682598D02*
X2125098D01*
X2117598Y675098D02*
Y690098D01*
X2110098Y647598D02*
X2125098D01*
X2117598Y640098D02*
Y655098D01*
X3348799Y1238701D02*
X3363799D01*
X3356299Y1231201D02*
Y1246201D01*
X3729705Y920276D02*
X3744705D01*
X3737205Y912776D02*
Y927776D01*
X2180295Y1588583D02*
X2195295D01*
X2187795Y1581083D02*
Y1596083D01*
X2367098Y1348425D02*
X2382098D01*
X2374598Y1340925D02*
Y1355925D01*
X3519939Y1625984D02*
X3534939D01*
X3527439Y1618484D02*
Y1633484D01*
X2609626Y1471457D02*
X2624626D01*
X2617126Y1463957D02*
Y1478957D01*
X2560789Y1236220D02*
X2575789D01*
X2568289Y1228720D02*
Y1243720D01*
X2808287Y1672244D02*
X2823287D01*
X2815787Y1664744D02*
Y1679744D01*
X2341909Y1432244D02*
X2356909D01*
X2349409Y1424744D02*
Y1439744D01*
X1803524Y1952756D02*
X1818524D01*
X1811024Y1945256D02*
Y1960256D01*
X1748406Y2002953D02*
X1763406D01*
X1755906Y1995453D02*
Y2010453D01*
X2573681Y1940945D02*
X2588681D01*
X2581181Y1933445D02*
Y1948445D01*
X3143680Y1876865D02*
X3158680D01*
X3151180Y1869365D02*
Y1884365D01*
X3191319Y1876865D02*
X3206319D01*
X3198819Y1869365D02*
Y1884365D01*
X3460020Y1650591D02*
X3475020D01*
X3467520Y1643091D02*
Y1658091D01*
X2918681Y1116142D02*
X2933681D01*
X2926181Y1108642D02*
Y1123642D01*
X2908839Y1676181D02*
X2923839D01*
X2916339Y1668681D02*
Y1683681D01*
X3148996Y1575787D02*
X3163996D01*
X3156496Y1568287D02*
Y1583287D01*
X2224784Y1514764D02*
X2239784D01*
X2232284Y1507264D02*
Y1522264D01*
X1736594Y1411174D02*
X1751594D01*
X1744094Y1403674D02*
Y1418674D01*
X3970847Y923228D02*
X3985847D01*
X3978347Y915728D02*
Y930728D01*
X2227736Y1157480D02*
X2242736D01*
X2235236Y1149980D02*
Y1164980D01*
X2183445Y1202756D02*
X2198445D01*
X2190945Y1195256D02*
Y1210256D01*
X2273996Y1115158D02*
X2288996D01*
X2281496Y1107658D02*
Y1122658D01*
X2214941Y536417D02*
X2229941D01*
X2222441Y528917D02*
Y543917D01*
X955098Y820866D02*
X970098D01*
X962598Y813366D02*
Y828366D01*
X714744Y738681D02*
X729744D01*
X722244Y731181D02*
Y746181D01*
X1227736Y1691929D02*
X1242736D01*
X1235236Y1684429D02*
Y1699429D01*
X1164744Y1685039D02*
X1179744D01*
X1172244Y1677539D02*
Y1692539D01*
X1240532Y1508858D02*
X1255532D01*
X1248032Y1501358D02*
Y1516358D01*
X1298602Y1507874D02*
X1313602D01*
X1306102Y1500374D02*
Y1515374D01*
X4157854Y1830669D02*
X4172854D01*
X4165354Y1823169D02*
Y1838169D01*
X4157854Y1790669D02*
X4172854D01*
X4165354Y1783169D02*
Y1798169D01*
X4157854Y1710669D02*
X4172854D01*
X4165354Y1703169D02*
Y1718169D01*
X4157854Y1750669D02*
X4172854D01*
X4165354Y1743169D02*
Y1758169D01*
X3997421Y1648622D02*
X4012421D01*
X4004921Y1641122D02*
Y1656122D01*
X3598799Y1648622D02*
X3613799D01*
X3606299Y1641122D02*
Y1656122D01*
X3865532Y1649606D02*
X3880532D01*
X3873032Y1642106D02*
Y1657106D01*
X3732657Y1649606D02*
X3747657D01*
X3740157Y1642106D02*
Y1657106D01*
X1197225Y1436024D02*
X1212225D01*
X1204725Y1428524D02*
Y1443524D01*
X733642Y1566929D02*
X748642D01*
X741142Y1559429D02*
Y1574429D01*
X1329402Y1940945D02*
X1344402D01*
X1336902Y1933445D02*
Y1948445D01*
X2010166Y933182D02*
X2025166D01*
X2017666Y925682D02*
Y940682D01*
X3491516Y916339D02*
X3506516D01*
X3499016Y908839D02*
Y923839D01*
X3094862Y817913D02*
X3109862D01*
X3102362Y810413D02*
Y825413D01*
X3016122Y543307D02*
X3031122D01*
X3023622Y535807D02*
Y550807D01*
X3997421Y1425197D02*
X4012421D01*
X4004921Y1417697D02*
Y1432697D01*
X4264154Y708307D02*
X4279154D01*
X4271654Y700807D02*
Y715807D01*
X4260217Y1103975D02*
X4275217D01*
X4267717Y1096475D02*
Y1111475D01*
X1445256Y535118D02*
X1460256D01*
X1452756Y527618D02*
Y542618D01*
X671960Y901575D02*
X686960D01*
X679460Y894075D02*
Y909075D01*
X957067Y673228D02*
X972067D01*
X964567Y665728D02*
Y680728D01*
X1086988Y496063D02*
X1101988D01*
X1094488Y488563D02*
Y503563D01*
X165728Y232284D02*
X180728D01*
X173228Y224784D02*
Y239784D01*
X1047618Y1144410D02*
X1062618D01*
X1055118Y1136910D02*
Y1151910D01*
X444769Y1047244D02*
X459769D01*
X452269Y1039744D02*
Y1054744D01*
X405886Y1343504D02*
X420886D01*
X413386Y1336004D02*
Y1351004D01*
X1268091Y1432087D02*
X1283091D01*
X1275591Y1424587D02*
Y1439587D01*
X1441319Y1300440D02*
X1456319D01*
X1448819Y1292940D02*
Y1307940D01*
X2023996Y1373032D02*
X2038996D01*
X2031496Y1365532D02*
Y1380532D01*
X1929508Y685039D02*
X1944508D01*
X1937008Y677539D02*
Y692539D01*
X2496437Y236220D02*
X2511437D01*
X2503937Y228720D02*
Y243720D01*
X2677539Y98425D02*
X2692539D01*
X2685039Y90925D02*
Y105925D01*
X2535807Y703740D02*
X2550807D01*
X2543307Y696240D02*
Y711240D01*
X2595846Y1059732D02*
X2610846D01*
X2603346Y1052232D02*
Y1067232D01*
X1467906Y1000079D02*
X1482906D01*
X1475406Y992579D02*
Y1007579D01*
X542224Y1241931D02*
X557224D01*
X549724Y1234431D02*
Y1249431D01*
X791713Y1678150D02*
X806713D01*
X799213Y1670650D02*
Y1685650D01*
X3424351Y236220D02*
X3439351D01*
X3431851Y228720D02*
Y243720D01*
X1083051Y362205D02*
X1098051D01*
X1090551Y354705D02*
Y369705D01*
X1588024Y418358D02*
X1603024D01*
X1595524Y410858D02*
Y425858D01*
X1587972Y798925D02*
X1602972D01*
X1595472Y791425D02*
Y806425D01*
X1587972Y610236D02*
X1602972D01*
X1595472Y602736D02*
Y617736D01*
X1588260Y997311D02*
X1603260D01*
X1595760Y989811D02*
Y1004811D01*
X1641122Y1194882D02*
X1656122D01*
X1648622Y1187382D02*
Y1202382D01*
X1791713Y1170276D02*
X1806713D01*
X1799213Y1162776D02*
Y1177776D01*
X666713Y817913D02*
X681713D01*
X674213Y810413D02*
Y825413D01*
X484626Y791339D02*
X499626D01*
X492126Y783839D02*
Y798839D01*
X218878Y594488D02*
X233878D01*
X226378Y586988D02*
Y601988D01*
X393091Y594488D02*
X408091D01*
X400591Y586988D02*
Y601988D01*
X961988Y920276D02*
X976988D01*
X969488Y912776D02*
Y927776D01*
X572224Y1542323D02*
X587224D01*
X579724Y1534823D02*
Y1549823D01*
X726752Y233268D02*
X741752D01*
X734252Y225768D02*
Y240768D01*
X2775866Y978248D02*
X2790866D01*
X2783366Y970748D02*
Y985748D01*
X2488563Y889764D02*
X2503563D01*
X2496063Y882264D02*
Y897264D01*
X951162Y1360236D02*
X966162D01*
X958662Y1352736D02*
Y1367736D01*
X984626Y1308071D02*
X999626D01*
X992126Y1300571D02*
Y1315571D01*
X1034823Y1491142D02*
X1049823D01*
X1042323Y1483642D02*
Y1498642D01*
%TF.MD5,bba2d08bf9a4dc399c6d8403ea258e0c*%
M02*
