%TF.GenerationSoftware,Altium Limited,Altium Designer,19.0.10 (269)*%
G04 Layer_Color=0*
%FSLAX26Y26*%
%MOIN*%
%TF.FileFunction,Plated,1,2,PTH,Drill*%
%TF.Part,Single*%
G01*
G75*
%TA.AperFunction,OtherDrill,Pad Free-0 (51.181mil,1230.315mil)*%
%ADD86C,0.043307*%
%TA.AperFunction,OtherDrill,Pad Free-0 (139.764mil,864.173mil)*%
%ADD87C,0.043307*%
%TA.AperFunction,OtherDrill,Pad Free-0 (51.181mil,864.173mil)*%
%ADD88C,0.043307*%
%TA.AperFunction,OtherDrill,Pad Free-0 (139.764mil,1230.315mil)*%
%ADD89C,0.043307*%
%TA.AperFunction,ComponentDrill*%
%ADD90C,0.043307*%
%ADD91C,0.108268*%
%ADD92C,0.051181*%
%ADD93C,0.098425*%
%ADD94C,0.035433*%
%ADD95C,0.038583*%
%TA.AperFunction,ViaDrill,NotFilled*%
%ADD96C,0.015000*%
D86*
X51181Y1230315D02*
D03*
D87*
X139764Y864173D02*
D03*
D88*
X51181D02*
D03*
D89*
X139764Y1230315D02*
D03*
D90*
X2362205Y2015748D02*
D03*
X2262205D02*
D03*
X2162205D02*
D03*
X590551D02*
D03*
X690551D02*
D03*
X790551D02*
D03*
X2526378Y98425D02*
D03*
X2426378D02*
D03*
X2326378D02*
D03*
X2226378D02*
D03*
X2126378D02*
D03*
X2026378D02*
D03*
X1926378D02*
D03*
X1826378D02*
D03*
X1726378D02*
D03*
X1626378D02*
D03*
X1526378D02*
D03*
X1426378D02*
D03*
X1326378D02*
D03*
X1226378D02*
D03*
X1126378D02*
D03*
X1026378D02*
D03*
X926378D02*
D03*
X826378D02*
D03*
X526378D02*
D03*
X426378D02*
D03*
D91*
X98425Y2055118D02*
D03*
X2854331D02*
D03*
Y98425D02*
D03*
X98425D02*
D03*
D92*
X3382677Y703307D02*
D03*
X3500787D02*
D03*
X3618898D02*
D03*
X3737008D02*
D03*
X3855118D02*
D03*
X3973228D02*
D03*
X4091339D02*
D03*
X3441732Y841102D02*
D03*
X3559843D02*
D03*
X3677953D02*
D03*
X3796063D02*
D03*
X3914173D02*
D03*
X4032284D02*
D03*
X3441732Y998583D02*
D03*
X3559843D02*
D03*
X3677953D02*
D03*
X3796063D02*
D03*
X3914173D02*
D03*
X4032284D02*
D03*
X3382677Y1136378D02*
D03*
X3500787D02*
D03*
X3618898D02*
D03*
X3737008D02*
D03*
X3855118D02*
D03*
X3973228D02*
D03*
X4091339D02*
D03*
D93*
X4268504Y919842D02*
D03*
D94*
X3540157Y1930433D02*
D03*
X3640157D02*
D03*
X3740157D02*
D03*
X3840157D02*
D03*
X3940157D02*
D03*
Y330433D02*
D03*
X3840157D02*
D03*
X3740157D02*
D03*
X3640157D02*
D03*
X3540157D02*
D03*
D95*
X4896614Y1788937D02*
D03*
Y1688937D02*
D03*
Y1316496D02*
D03*
Y1216496D02*
D03*
Y844055D02*
D03*
Y744055D02*
D03*
Y371614D02*
D03*
Y271614D02*
D03*
D96*
X1235236Y1691929D02*
D03*
X1172244Y1685039D02*
D03*
X1248032Y1508858D02*
D03*
X1306102Y1507874D02*
D03*
X4165354Y1830669D02*
D03*
Y1790669D02*
D03*
Y1710669D02*
D03*
Y1750669D02*
D03*
X3467520Y1650591D02*
D03*
X4004921Y1648622D02*
D03*
X3606299D02*
D03*
X3873032Y1649606D02*
D03*
X3740157D02*
D03*
X1204725Y1436024D02*
D03*
X741142Y1566929D02*
D03*
X1336902Y1940945D02*
D03*
X2236220Y1854331D02*
D03*
X2017666Y933182D02*
D03*
X3145611Y1098425D02*
D03*
X3102362Y817913D02*
D03*
X3135256Y541339D02*
D03*
X4047244Y405512D02*
D03*
X4004921Y1425197D02*
D03*
X4271654Y708307D02*
D03*
X4267717Y1103975D02*
D03*
X1452756Y535118D02*
D03*
X679460Y901575D02*
D03*
X964567Y673228D02*
D03*
X1094488Y496063D02*
D03*
X173228Y232284D02*
D03*
X1055118Y1144410D02*
D03*
X452269Y1047244D02*
D03*
X283465Y1362205D02*
D03*
X1275591Y1432087D02*
D03*
X1448819Y1300440D02*
D03*
X1744094Y1411174D02*
D03*
X2031496Y1373032D02*
D03*
X1937008Y685039D02*
D03*
X2169291Y409449D02*
D03*
X2503937Y236220D02*
D03*
X2685039Y98425D02*
D03*
X2412976Y700787D02*
D03*
X2603346Y1059732D02*
D03*
X2740157Y1196850D02*
D03*
X2157480Y1629921D02*
D03*
X2720551Y1615157D02*
D03*
X3122047Y1233268D02*
D03*
X1475406Y1000079D02*
D03*
X549724Y1241931D02*
D03*
X2316929Y1077756D02*
D03*
Y437992D02*
D03*
X2581693Y1193648D02*
D03*
X799213Y1678150D02*
D03*
X1136811Y815945D02*
D03*
X737205Y736221D02*
D03*
X1875000Y288386D02*
D03*
X2784291Y399606D02*
D03*
X3431851Y102362D02*
D03*
Y169291D02*
D03*
Y236220D02*
D03*
X1090551Y362205D02*
D03*
X2240157Y1275591D02*
D03*
X2271653Y1196850D02*
D03*
X2208661Y1353347D02*
D03*
X1595524Y418358D02*
D03*
X1595472Y798925D02*
D03*
Y610236D02*
D03*
X1595760Y997311D02*
D03*
X1648622Y1194882D02*
D03*
X1799213Y1170276D02*
D03*
X674213Y817913D02*
D03*
X492126Y791339D02*
D03*
X226378Y594488D02*
D03*
X400591D02*
D03*
X969488Y920276D02*
D03*
X579724Y1542323D02*
D03*
X734252Y233268D02*
D03*
X2783366Y978248D02*
D03*
X2496063Y889764D02*
D03*
X958662Y1360236D02*
D03*
X992126Y1308071D02*
D03*
X1042323Y1491142D02*
D03*
X2070866Y601378D02*
D03*
X2271260Y602756D02*
D03*
%TF.MD5,f126cfd89d6d07876e979e7412af8edb*%
M02*
