%TF.GenerationSoftware,Altium Limited,Altium Designer,19.1.8 (144)*%
G04 Layer_Color=8388736*
%FSLAX26Y26*%
%MOIN*%
%TF.FileFunction,Soldermask,Top*%
%TF.Part,Single*%
G01*
G75*
%TA.AperFunction,ComponentPad*%
%ADD78C,0.008000*%
%ADD79C,0.090677*%
%TA.AperFunction,ViaPad*%
%ADD80C,0.067055*%
%TA.AperFunction,ComponentPad*%
%ADD81C,0.078866*%
%ADD82C,0.086740*%
%ADD83R,0.086740X0.086740*%
%ADD84C,0.066268*%
%TA.AperFunction,ViaPad*%
%ADD85C,0.038000*%
G36*
X2338172Y840551D02*
X2346457Y831514D01*
X2346456Y640748D01*
X2336614Y630905D01*
X2109477Y630905D01*
X2099409Y640972D01*
X2099409Y831468D01*
X2108492Y840551D01*
X2338172Y840551D01*
D02*
G37*
D78*
X98425Y98425D02*
D03*
X2854331D02*
D03*
Y2055118D02*
D03*
X98425D02*
D03*
X4268504Y919842D02*
D03*
D79*
X426378Y98425D02*
D03*
X526378D02*
D03*
X826378D02*
D03*
X926378D02*
D03*
X1026378D02*
D03*
X1126378D02*
D03*
X1226378D02*
D03*
X1326378D02*
D03*
X1426378D02*
D03*
X1526378D02*
D03*
X1626378D02*
D03*
X1726378D02*
D03*
X1826378D02*
D03*
X1926378D02*
D03*
X2026378D02*
D03*
X2126378D02*
D03*
X2226378D02*
D03*
X2326378D02*
D03*
X2426378D02*
D03*
X2526378D02*
D03*
X790551Y2015748D02*
D03*
X690551D02*
D03*
X590551D02*
D03*
X2162205D02*
D03*
X2262205D02*
D03*
X2362205D02*
D03*
D80*
X51181Y1230315D02*
D03*
X139764Y864173D02*
D03*
X51181D02*
D03*
X139764Y1230315D02*
D03*
D81*
X3382677Y703307D02*
D03*
X3500787D02*
D03*
X3618898D02*
D03*
X3737008D02*
D03*
X3855118D02*
D03*
X3973228D02*
D03*
X4091339D02*
D03*
X3441732Y841102D02*
D03*
X3559843D02*
D03*
X3677953D02*
D03*
X3796063D02*
D03*
X3914173D02*
D03*
X4032284D02*
D03*
X3441732Y998583D02*
D03*
X3559843D02*
D03*
X3677953D02*
D03*
X3796063D02*
D03*
X3914173D02*
D03*
X4032284D02*
D03*
X3382677Y1136378D02*
D03*
X3500787D02*
D03*
X3618898D02*
D03*
X3737008D02*
D03*
X3855118D02*
D03*
X3973228D02*
D03*
X4091339D02*
D03*
D82*
X3540157Y1930433D02*
D03*
X3640157D02*
D03*
X3740157D02*
D03*
X3840157D02*
D03*
X3940157D02*
D03*
Y330433D02*
D03*
X3840157D02*
D03*
X3740157D02*
D03*
X3640157D02*
D03*
D83*
X3540157D02*
D03*
D84*
X4896614Y1788937D02*
D03*
Y1688937D02*
D03*
Y1316496D02*
D03*
Y1216496D02*
D03*
Y844055D02*
D03*
Y744055D02*
D03*
Y371614D02*
D03*
Y271614D02*
D03*
D85*
X2976378Y204724D02*
D03*
X3258266Y200787D02*
D03*
X3651301Y132913D02*
D03*
X4037284Y237831D02*
D03*
X4681232Y177165D02*
D03*
X4303150Y200787D02*
D03*
X1208661Y1274717D02*
D03*
X4504922Y373031D02*
D03*
X4263779Y370079D02*
D03*
X3248032Y433071D02*
D03*
X3382677Y440945D02*
D03*
X1208661Y1354717D02*
D03*
Y1234717D02*
D03*
X1206235Y1314717D02*
D03*
X1893701Y267716D02*
D03*
X2508858Y404528D02*
D03*
X2408213Y405512D02*
D03*
X3988189Y396654D02*
D03*
X2409444Y496062D02*
D03*
X2507869D02*
D03*
X2784291Y399606D02*
D03*
X3850394Y145669D02*
D03*
X3913386Y139291D02*
D03*
X3215828Y263779D02*
D03*
X4098425Y440945D02*
D03*
X2327598Y822598D02*
D03*
Y787598D02*
D03*
Y752598D02*
D03*
Y717598D02*
D03*
Y682598D02*
D03*
Y647598D02*
D03*
X2292598Y822598D02*
D03*
Y787598D02*
D03*
Y647598D02*
D03*
X2257598Y822598D02*
D03*
Y787598D02*
D03*
Y647598D02*
D03*
X2222598Y822598D02*
D03*
Y787598D02*
D03*
Y647598D02*
D03*
X2187598Y822598D02*
D03*
Y787598D02*
D03*
Y647598D02*
D03*
X2152598Y822598D02*
D03*
Y787598D02*
D03*
Y647598D02*
D03*
X2117598Y822598D02*
D03*
Y787598D02*
D03*
Y752598D02*
D03*
Y717598D02*
D03*
Y682598D02*
D03*
Y647598D02*
D03*
X3356299Y1238701D02*
D03*
X3737205Y920276D02*
D03*
X2187795Y1588583D02*
D03*
X2374598Y1348425D02*
D03*
X3527439Y1625984D02*
D03*
X2617126Y1471457D02*
D03*
X2568289Y1236220D02*
D03*
X2815787Y1672244D02*
D03*
X2349409Y1432244D02*
D03*
X1811024Y1952756D02*
D03*
X1755906Y2002953D02*
D03*
X2581181Y1940945D02*
D03*
X3151180Y1876865D02*
D03*
X3198819D02*
D03*
X3467520Y1650591D02*
D03*
X2926181Y1116142D02*
D03*
X2916339Y1676181D02*
D03*
X3156496Y1575787D02*
D03*
X2232284Y1514764D02*
D03*
X1744094Y1411174D02*
D03*
X3978347Y923228D02*
D03*
X2235236Y1157480D02*
D03*
X2190945Y1202756D02*
D03*
X2281496Y1115158D02*
D03*
X2222441Y536417D02*
D03*
X962598Y820866D02*
D03*
X722244Y738681D02*
D03*
X1235236Y1691929D02*
D03*
X1172244Y1685039D02*
D03*
X1248032Y1508858D02*
D03*
X1306102Y1507874D02*
D03*
X4165354Y1830669D02*
D03*
Y1790669D02*
D03*
Y1710669D02*
D03*
Y1750669D02*
D03*
X4004921Y1648622D02*
D03*
X3606299D02*
D03*
X3873032Y1649606D02*
D03*
X3740157D02*
D03*
X1204725Y1436024D02*
D03*
X741142Y1566929D02*
D03*
X1336902Y1940945D02*
D03*
X2017666Y933182D02*
D03*
X3499016Y916339D02*
D03*
X3102362Y817913D02*
D03*
X3023622Y543307D02*
D03*
X4004921Y1425197D02*
D03*
X4271654Y708307D02*
D03*
X4267717Y1103975D02*
D03*
X1452756Y535118D02*
D03*
X679460Y901575D02*
D03*
X964567Y673228D02*
D03*
X1094488Y496063D02*
D03*
X173228Y232284D02*
D03*
X1055118Y1144410D02*
D03*
X452269Y1047244D02*
D03*
X413386Y1343504D02*
D03*
X1275591Y1432087D02*
D03*
X1448819Y1300440D02*
D03*
X2031496Y1373032D02*
D03*
X1937008Y685039D02*
D03*
X2503937Y236220D02*
D03*
X2685039Y98425D02*
D03*
X2543307Y703740D02*
D03*
X2603346Y1059732D02*
D03*
X1475406Y1000079D02*
D03*
X549724Y1241931D02*
D03*
X799213Y1678150D02*
D03*
X3431851Y236220D02*
D03*
X1090551Y362205D02*
D03*
X1595524Y418358D02*
D03*
X1595472Y798925D02*
D03*
Y610236D02*
D03*
X1595760Y997311D02*
D03*
X1648622Y1194882D02*
D03*
X1799213Y1170276D02*
D03*
X674213Y817913D02*
D03*
X492126Y791339D02*
D03*
X226378Y594488D02*
D03*
X400591D02*
D03*
X969488Y920276D02*
D03*
X579724Y1542323D02*
D03*
X734252Y233268D02*
D03*
X2783366Y978248D02*
D03*
X2496063Y889764D02*
D03*
X958662Y1360236D02*
D03*
X992126Y1308071D02*
D03*
X1042323Y1491142D02*
D03*
%TF.MD5,98da36ff4e426cecf94bf8204e9f4c4e*%
M02*
