%TF.GenerationSoftware,Altium Limited,Altium Designer,19.1.8 (144)*%
G04 Layer_Color=2752767*
%FSLAX26Y26*%
%MOIN*%
%TF.FileFunction,Drawing*%
%TF.Part,Single*%
G01*
G75*
%TA.AperFunction,NonConductor*%
%ADD102C,0.005000*%
%ADD103C,0.006667*%
D102*
X78425Y78425D02*
Y118425D01*
X118425D01*
Y78425D01*
X78425D01*
X2834331D02*
Y118425D01*
X2874331D01*
Y78425D01*
X2834331D01*
Y2035118D02*
Y2075118D01*
X2874331D01*
Y2035118D01*
X2834331D01*
X78425D02*
Y2075118D01*
X118425D01*
Y2035118D01*
X78425D01*
X785433Y1314449D02*
X765433Y1354449D01*
X805433D01*
X785433Y1314449D01*
Y1464449D02*
X765433Y1504449D01*
X805433D01*
X785433Y1464449D01*
X3382677Y683307D02*
X3392677Y693307D01*
X3402677D01*
X3392677Y703307D01*
X3402677Y713307D01*
X3392677D01*
X3382677Y723307D01*
X3372677Y713307D01*
X3362677D01*
X3372677Y703307D01*
X3362677Y693307D01*
X3372677D01*
X3382677Y683307D01*
X3500787D02*
X3510787Y693307D01*
X3520787D01*
X3510787Y703307D01*
X3520787Y713307D01*
X3510787D01*
X3500787Y723307D01*
X3490787Y713307D01*
X3480787D01*
X3490787Y703307D01*
X3480787Y693307D01*
X3490787D01*
X3500787Y683307D01*
X3618898D02*
X3628898Y693307D01*
X3638898D01*
X3628898Y703307D01*
X3638898Y713307D01*
X3628898D01*
X3618898Y723307D01*
X3608898Y713307D01*
X3598898D01*
X3608898Y703307D01*
X3598898Y693307D01*
X3608898D01*
X3618898Y683307D01*
X3737008D02*
X3747008Y693307D01*
X3757008D01*
X3747008Y703307D01*
X3757008Y713307D01*
X3747008D01*
X3737008Y723307D01*
X3727008Y713307D01*
X3717008D01*
X3727008Y703307D01*
X3717008Y693307D01*
X3727008D01*
X3737008Y683307D01*
X3855118D02*
X3865118Y693307D01*
X3875118D01*
X3865118Y703307D01*
X3875118Y713307D01*
X3865118D01*
X3855118Y723307D01*
X3845118Y713307D01*
X3835118D01*
X3845118Y703307D01*
X3835118Y693307D01*
X3845118D01*
X3855118Y683307D01*
X3973228D02*
X3983228Y693307D01*
X3993228D01*
X3983228Y703307D01*
X3993228Y713307D01*
X3983228D01*
X3973228Y723307D01*
X3963228Y713307D01*
X3953228D01*
X3963228Y703307D01*
X3953228Y693307D01*
X3963228D01*
X3973228Y683307D01*
X4091339D02*
X4101339Y693307D01*
X4111339D01*
X4101339Y703307D01*
X4111339Y713307D01*
X4101339D01*
X4091339Y723307D01*
X4081339Y713307D01*
X4071339D01*
X4081339Y703307D01*
X4071339Y693307D01*
X4081339D01*
X4091339Y683307D01*
X3441732Y821102D02*
X3451732Y831102D01*
X3461732D01*
X3451732Y841102D01*
X3461732Y851102D01*
X3451732D01*
X3441732Y861102D01*
X3431732Y851102D01*
X3421732D01*
X3431732Y841102D01*
X3421732Y831102D01*
X3431732D01*
X3441732Y821102D01*
X3559843D02*
X3569843Y831102D01*
X3579843D01*
X3569843Y841102D01*
X3579843Y851102D01*
X3569843D01*
X3559843Y861102D01*
X3549843Y851102D01*
X3539843D01*
X3549843Y841102D01*
X3539843Y831102D01*
X3549843D01*
X3559843Y821102D01*
X3677953D02*
X3687953Y831102D01*
X3697953D01*
X3687953Y841102D01*
X3697953Y851102D01*
X3687953D01*
X3677953Y861102D01*
X3667953Y851102D01*
X3657953D01*
X3667953Y841102D01*
X3657953Y831102D01*
X3667953D01*
X3677953Y821102D01*
X3796063D02*
X3806063Y831102D01*
X3816063D01*
X3806063Y841102D01*
X3816063Y851102D01*
X3806063D01*
X3796063Y861102D01*
X3786063Y851102D01*
X3776063D01*
X3786063Y841102D01*
X3776063Y831102D01*
X3786063D01*
X3796063Y821102D01*
X3914173D02*
X3924173Y831102D01*
X3934173D01*
X3924173Y841102D01*
X3934173Y851102D01*
X3924173D01*
X3914173Y861102D01*
X3904173Y851102D01*
X3894173D01*
X3904173Y841102D01*
X3894173Y831102D01*
X3904173D01*
X3914173Y821102D01*
X4032284D02*
X4042284Y831102D01*
X4052284D01*
X4042284Y841102D01*
X4052284Y851102D01*
X4042284D01*
X4032284Y861102D01*
X4022284Y851102D01*
X4012284D01*
X4022284Y841102D01*
X4012284Y831102D01*
X4022284D01*
X4032284Y821102D01*
X3441732Y978583D02*
X3451732Y988583D01*
X3461732D01*
X3451732Y998583D01*
X3461732Y1008583D01*
X3451732D01*
X3441732Y1018583D01*
X3431732Y1008583D01*
X3421732D01*
X3431732Y998583D01*
X3421732Y988583D01*
X3431732D01*
X3441732Y978583D01*
X3559843D02*
X3569843Y988583D01*
X3579843D01*
X3569843Y998583D01*
X3579843Y1008583D01*
X3569843D01*
X3559843Y1018583D01*
X3549843Y1008583D01*
X3539843D01*
X3549843Y998583D01*
X3539843Y988583D01*
X3549843D01*
X3559843Y978583D01*
X3677953D02*
X3687953Y988583D01*
X3697953D01*
X3687953Y998583D01*
X3697953Y1008583D01*
X3687953D01*
X3677953Y1018583D01*
X3667953Y1008583D01*
X3657953D01*
X3667953Y998583D01*
X3657953Y988583D01*
X3667953D01*
X3677953Y978583D01*
X3796063D02*
X3806063Y988583D01*
X3816063D01*
X3806063Y998583D01*
X3816063Y1008583D01*
X3806063D01*
X3796063Y1018583D01*
X3786063Y1008583D01*
X3776063D01*
X3786063Y998583D01*
X3776063Y988583D01*
X3786063D01*
X3796063Y978583D01*
X3914173D02*
X3924173Y988583D01*
X3934173D01*
X3924173Y998583D01*
X3934173Y1008583D01*
X3924173D01*
X3914173Y1018583D01*
X3904173Y1008583D01*
X3894173D01*
X3904173Y998583D01*
X3894173Y988583D01*
X3904173D01*
X3914173Y978583D01*
X4032284D02*
X4042284Y988583D01*
X4052284D01*
X4042284Y998583D01*
X4052284Y1008583D01*
X4042284D01*
X4032284Y1018583D01*
X4022284Y1008583D01*
X4012284D01*
X4022284Y998583D01*
X4012284Y988583D01*
X4022284D01*
X4032284Y978583D01*
X3382677Y1116378D02*
X3392677Y1126378D01*
X3402677D01*
X3392677Y1136378D01*
X3402677Y1146378D01*
X3392677D01*
X3382677Y1156378D01*
X3372677Y1146378D01*
X3362677D01*
X3372677Y1136378D01*
X3362677Y1126378D01*
X3372677D01*
X3382677Y1116378D01*
X3500787D02*
X3510787Y1126378D01*
X3520787D01*
X3510787Y1136378D01*
X3520787Y1146378D01*
X3510787D01*
X3500787Y1156378D01*
X3490787Y1146378D01*
X3480787D01*
X3490787Y1136378D01*
X3480787Y1126378D01*
X3490787D01*
X3500787Y1116378D01*
X3618898D02*
X3628898Y1126378D01*
X3638898D01*
X3628898Y1136378D01*
X3638898Y1146378D01*
X3628898D01*
X3618898Y1156378D01*
X3608898Y1146378D01*
X3598898D01*
X3608898Y1136378D01*
X3598898Y1126378D01*
X3608898D01*
X3618898Y1116378D01*
X3737008D02*
X3747008Y1126378D01*
X3757008D01*
X3747008Y1136378D01*
X3757008Y1146378D01*
X3747008D01*
X3737008Y1156378D01*
X3727008Y1146378D01*
X3717008D01*
X3727008Y1136378D01*
X3717008Y1126378D01*
X3727008D01*
X3737008Y1116378D01*
X3855118D02*
X3865118Y1126378D01*
X3875118D01*
X3865118Y1136378D01*
X3875118Y1146378D01*
X3865118D01*
X3855118Y1156378D01*
X3845118Y1146378D01*
X3835118D01*
X3845118Y1136378D01*
X3835118Y1126378D01*
X3845118D01*
X3855118Y1116378D01*
X3973228D02*
X3983228Y1126378D01*
X3993228D01*
X3983228Y1136378D01*
X3993228Y1146378D01*
X3983228D01*
X3973228Y1156378D01*
X3963228Y1146378D01*
X3953228D01*
X3963228Y1136378D01*
X3953228Y1126378D01*
X3963228D01*
X3973228Y1116378D01*
X4091339D02*
X4101339Y1126378D01*
X4111339D01*
X4101339Y1136378D01*
X4111339Y1146378D01*
X4101339D01*
X4091339Y1156378D01*
X4081339Y1146378D01*
X4071339D01*
X4081339Y1136378D01*
X4071339Y1126378D01*
X4081339D01*
X4091339Y1116378D01*
X4248504Y899842D02*
X4258504Y919842D01*
X4248504Y939842D01*
X4268504Y929842D01*
X4288504Y939842D01*
X4278504Y919842D01*
X4288504Y899842D01*
X4268504Y909842D01*
X4248504Y899842D01*
X3530157Y1920433D02*
Y1910433D01*
X3550157D01*
Y1920433D01*
X3560157D01*
Y1940433D01*
X3550157D01*
Y1950433D01*
X3530157D01*
Y1940433D01*
X3520157D01*
Y1920433D01*
X3530157D01*
X3630157D02*
Y1910433D01*
X3650157D01*
Y1920433D01*
X3660157D01*
Y1940433D01*
X3650157D01*
Y1950433D01*
X3630157D01*
Y1940433D01*
X3620157D01*
Y1920433D01*
X3630157D01*
X3730157D02*
Y1910433D01*
X3750157D01*
Y1920433D01*
X3760157D01*
Y1940433D01*
X3750157D01*
Y1950433D01*
X3730157D01*
Y1940433D01*
X3720157D01*
Y1920433D01*
X3730157D01*
X3830157D02*
Y1910433D01*
X3850157D01*
Y1920433D01*
X3860157D01*
Y1940433D01*
X3850157D01*
Y1950433D01*
X3830157D01*
Y1940433D01*
X3820157D01*
Y1920433D01*
X3830157D01*
X3930157D02*
Y1910433D01*
X3950157D01*
Y1920433D01*
X3960157D01*
Y1940433D01*
X3950157D01*
Y1950433D01*
X3930157D01*
Y1940433D01*
X3920157D01*
Y1920433D01*
X3930157D01*
Y320433D02*
Y310433D01*
X3950157D01*
Y320433D01*
X3960157D01*
Y340433D01*
X3950157D01*
Y350433D01*
X3930157D01*
Y340433D01*
X3920157D01*
Y320433D01*
X3930157D01*
X3830157D02*
Y310433D01*
X3850157D01*
Y320433D01*
X3860157D01*
Y340433D01*
X3850157D01*
Y350433D01*
X3830157D01*
Y340433D01*
X3820157D01*
Y320433D01*
X3830157D01*
X3730157D02*
Y310433D01*
X3750157D01*
Y320433D01*
X3760157D01*
Y340433D01*
X3750157D01*
Y350433D01*
X3730157D01*
Y340433D01*
X3720157D01*
Y320433D01*
X3730157D01*
X3630157D02*
Y310433D01*
X3650157D01*
Y320433D01*
X3660157D01*
Y340433D01*
X3650157D01*
Y350433D01*
X3630157D01*
Y340433D01*
X3620157D01*
Y320433D01*
X3630157D01*
X3530157D02*
Y310433D01*
X3550157D01*
Y320433D01*
X3560157D01*
Y340433D01*
X3550157D01*
Y350433D01*
X3530157D01*
Y340433D01*
X3520157D01*
Y320433D01*
X3530157D01*
X4876614Y1768937D02*
X4886614D01*
X4896614Y1778937D01*
X4906614Y1768937D01*
X4916614D01*
Y1778937D01*
X4906614Y1788937D01*
X4916614Y1798937D01*
Y1808937D01*
X4906614D01*
X4896614Y1798937D01*
X4886614Y1808937D01*
X4876614D01*
Y1798937D01*
X4886614Y1788937D01*
X4876614Y1778937D01*
Y1768937D01*
Y1668937D02*
X4886614D01*
X4896614Y1678937D01*
X4906614Y1668937D01*
X4916614D01*
Y1678937D01*
X4906614Y1688937D01*
X4916614Y1698937D01*
Y1708937D01*
X4906614D01*
X4896614Y1698937D01*
X4886614Y1708937D01*
X4876614D01*
Y1698937D01*
X4886614Y1688937D01*
X4876614Y1678937D01*
Y1668937D01*
Y1296496D02*
X4886614D01*
X4896614Y1306496D01*
X4906614Y1296496D01*
X4916614D01*
Y1306496D01*
X4906614Y1316496D01*
X4916614Y1326496D01*
Y1336496D01*
X4906614D01*
X4896614Y1326496D01*
X4886614Y1336496D01*
X4876614D01*
Y1326496D01*
X4886614Y1316496D01*
X4876614Y1306496D01*
Y1296496D01*
Y1196496D02*
X4886614D01*
X4896614Y1206496D01*
X4906614Y1196496D01*
X4916614D01*
Y1206496D01*
X4906614Y1216496D01*
X4916614Y1226496D01*
Y1236496D01*
X4906614D01*
X4896614Y1226496D01*
X4886614Y1236496D01*
X4876614D01*
Y1226496D01*
X4886614Y1216496D01*
X4876614Y1206496D01*
Y1196496D01*
Y824055D02*
X4886614D01*
X4896614Y834055D01*
X4906614Y824055D01*
X4916614D01*
Y834055D01*
X4906614Y844055D01*
X4916614Y854055D01*
Y864055D01*
X4906614D01*
X4896614Y854055D01*
X4886614Y864055D01*
X4876614D01*
Y854055D01*
X4886614Y844055D01*
X4876614Y834055D01*
Y824055D01*
Y724055D02*
X4886614D01*
X4896614Y734055D01*
X4906614Y724055D01*
X4916614D01*
Y734055D01*
X4906614Y744055D01*
X4916614Y754055D01*
Y764055D01*
X4906614D01*
X4896614Y754055D01*
X4886614Y764055D01*
X4876614D01*
Y754055D01*
X4886614Y744055D01*
X4876614Y734055D01*
Y724055D01*
Y351614D02*
X4886614D01*
X4896614Y361614D01*
X4906614Y351614D01*
X4916614D01*
Y361614D01*
X4906614Y371614D01*
X4916614Y381614D01*
Y391614D01*
X4906614D01*
X4896614Y381614D01*
X4886614Y391614D01*
X4876614D01*
Y381614D01*
X4886614Y371614D01*
X4876614Y361614D01*
Y351614D01*
Y251614D02*
X4886614D01*
X4896614Y261614D01*
X4906614Y251614D01*
X4916614D01*
Y261614D01*
X4906614Y271614D01*
X4916614Y281614D01*
Y291614D01*
X4906614D01*
X4896614Y281614D01*
X4886614Y291614D01*
X4876614D01*
Y281614D01*
X4886614Y271614D01*
X4876614Y261614D01*
Y251614D01*
X2956378Y204724D02*
X2976378Y224724D01*
X2996378Y204724D01*
X2976378Y184724D01*
X2956378Y204724D01*
X3238266Y200787D02*
X3258266Y220787D01*
X3278266Y200787D01*
X3258266Y180787D01*
X3238266Y200787D01*
X3631301Y132913D02*
X3651301Y152913D01*
X3671301Y132913D01*
X3651301Y112913D01*
X3631301Y132913D01*
X4017284Y237831D02*
X4037284Y257831D01*
X4057284Y237831D01*
X4037284Y217831D01*
X4017284Y237831D01*
X4661232Y177165D02*
X4681232Y197165D01*
X4701232Y177165D01*
X4681232Y157165D01*
X4661232Y177165D01*
X4283150Y200787D02*
X4303150Y220787D01*
X4323150Y200787D01*
X4303150Y180787D01*
X4283150Y200787D01*
X1188661Y1274717D02*
X1208661Y1294717D01*
X1228661Y1274717D01*
X1208661Y1254717D01*
X1188661Y1274717D01*
X4484922Y373031D02*
X4504922Y393031D01*
X4524922Y373031D01*
X4504922Y353031D01*
X4484922Y373031D01*
X4243779Y370079D02*
X4263779Y390079D01*
X4283779Y370079D01*
X4263779Y350079D01*
X4243779Y370079D01*
X3228032Y433071D02*
X3248032Y453071D01*
X3268032Y433071D01*
X3248032Y413071D01*
X3228032Y433071D01*
X3362677Y440945D02*
X3382677Y460945D01*
X3402677Y440945D01*
X3382677Y420945D01*
X3362677Y440945D01*
X1188661Y1354717D02*
X1208661Y1374717D01*
X1228661Y1354717D01*
X1208661Y1334717D01*
X1188661Y1354717D01*
Y1234717D02*
X1208661Y1254717D01*
X1228661Y1234717D01*
X1208661Y1214717D01*
X1188661Y1234717D01*
X1186235Y1314717D02*
X1206235Y1334717D01*
X1226235Y1314717D01*
X1206235Y1294717D01*
X1186235Y1314717D01*
X1873701Y267716D02*
X1893701Y287716D01*
X1913701Y267716D01*
X1893701Y247716D01*
X1873701Y267716D01*
X2488858Y404528D02*
X2508858Y424528D01*
X2528858Y404528D01*
X2508858Y384528D01*
X2488858Y404528D01*
X2388213Y405512D02*
X2408213Y425512D01*
X2428213Y405512D01*
X2408213Y385512D01*
X2388213Y405512D01*
X3968189Y396654D02*
X3988189Y416654D01*
X4008189Y396654D01*
X3988189Y376654D01*
X3968189Y396654D01*
X2389444Y496062D02*
X2409444Y516062D01*
X2429444Y496062D01*
X2409444Y476062D01*
X2389444Y496062D01*
X2487869D02*
X2507869Y516062D01*
X2527869Y496062D01*
X2507869Y476062D01*
X2487869Y496062D01*
X2764291Y399606D02*
X2784291Y419606D01*
X2804291Y399606D01*
X2784291Y379606D01*
X2764291Y399606D01*
X3830394Y145669D02*
X3850394Y165669D01*
X3870394Y145669D01*
X3850394Y125669D01*
X3830394Y145669D01*
X3893386Y139291D02*
X3913386Y159291D01*
X3933386Y139291D01*
X3913386Y119291D01*
X3893386Y139291D01*
X3195828Y263779D02*
X3215828Y283779D01*
X3235828Y263779D01*
X3215828Y243780D01*
X3195828Y263779D01*
X4078425Y440945D02*
X4098425Y460945D01*
X4118425Y440945D01*
X4098425Y420945D01*
X4078425Y440945D01*
X2307598Y822598D02*
X2327598Y842598D01*
X2347598Y822598D01*
X2327598Y802598D01*
X2307598Y822598D01*
Y787598D02*
X2327598Y807598D01*
X2347598Y787598D01*
X2327598Y767598D01*
X2307598Y787598D01*
Y752598D02*
X2327598Y772598D01*
X2347598Y752598D01*
X2327598Y732598D01*
X2307598Y752598D01*
Y717598D02*
X2327598Y737598D01*
X2347598Y717598D01*
X2327598Y697598D01*
X2307598Y717598D01*
Y682598D02*
X2327598Y702598D01*
X2347598Y682598D01*
X2327598Y662598D01*
X2307598Y682598D01*
Y647598D02*
X2327598Y667598D01*
X2347598Y647598D01*
X2327598Y627598D01*
X2307598Y647598D01*
X2272598Y822598D02*
X2292598Y842598D01*
X2312598Y822598D01*
X2292598Y802598D01*
X2272598Y822598D01*
Y787598D02*
X2292598Y807598D01*
X2312598Y787598D01*
X2292598Y767598D01*
X2272598Y787598D01*
Y647598D02*
X2292598Y667598D01*
X2312598Y647598D01*
X2292598Y627598D01*
X2272598Y647598D01*
X2237598Y822598D02*
X2257598Y842598D01*
X2277598Y822598D01*
X2257598Y802598D01*
X2237598Y822598D01*
Y787598D02*
X2257598Y807598D01*
X2277598Y787598D01*
X2257598Y767598D01*
X2237598Y787598D01*
Y647598D02*
X2257598Y667598D01*
X2277598Y647598D01*
X2257598Y627598D01*
X2237598Y647598D01*
X2202598Y822598D02*
X2222598Y842598D01*
X2242598Y822598D01*
X2222598Y802598D01*
X2202598Y822598D01*
Y787598D02*
X2222598Y807598D01*
X2242598Y787598D01*
X2222598Y767598D01*
X2202598Y787598D01*
Y647598D02*
X2222598Y667598D01*
X2242598Y647598D01*
X2222598Y627598D01*
X2202598Y647598D01*
X2167598Y822598D02*
X2187598Y842598D01*
X2207598Y822598D01*
X2187598Y802598D01*
X2167598Y822598D01*
Y787598D02*
X2187598Y807598D01*
X2207598Y787598D01*
X2187598Y767598D01*
X2167598Y787598D01*
Y647598D02*
X2187598Y667598D01*
X2207598Y647598D01*
X2187598Y627598D01*
X2167598Y647598D01*
X2132598Y822598D02*
X2152598Y842598D01*
X2172598Y822598D01*
X2152598Y802598D01*
X2132598Y822598D01*
Y787598D02*
X2152598Y807598D01*
X2172598Y787598D01*
X2152598Y767598D01*
X2132598Y787598D01*
Y647598D02*
X2152598Y667598D01*
X2172598Y647598D01*
X2152598Y627598D01*
X2132598Y647598D01*
X2097598Y822598D02*
X2117598Y842598D01*
X2137598Y822598D01*
X2117598Y802598D01*
X2097598Y822598D01*
Y787598D02*
X2117598Y807598D01*
X2137598Y787598D01*
X2117598Y767598D01*
X2097598Y787598D01*
Y752598D02*
X2117598Y772598D01*
X2137598Y752598D01*
X2117598Y732598D01*
X2097598Y752598D01*
Y717598D02*
X2117598Y737598D01*
X2137598Y717598D01*
X2117598Y697598D01*
X2097598Y717598D01*
Y682598D02*
X2117598Y702598D01*
X2137598Y682598D01*
X2117598Y662598D01*
X2097598Y682598D01*
Y647598D02*
X2117598Y667598D01*
X2137598Y647598D01*
X2117598Y627598D01*
X2097598Y647598D01*
X3336299Y1238701D02*
X3356299Y1258701D01*
X3376299Y1238701D01*
X3356299Y1218701D01*
X3336299Y1238701D01*
X3717205Y920276D02*
X3737205Y940276D01*
X3757205Y920276D01*
X3737205Y900276D01*
X3717205Y920276D01*
X2167795Y1588583D02*
X2187795Y1608583D01*
X2207795Y1588583D01*
X2187795Y1568583D01*
X2167795Y1588583D01*
X2354598Y1348425D02*
X2374598Y1368425D01*
X2394598Y1348425D01*
X2374598Y1328425D01*
X2354598Y1348425D01*
X3507439Y1625984D02*
X3527439Y1645984D01*
X3547439Y1625984D01*
X3527439Y1605984D01*
X3507439Y1625984D01*
X2597126Y1471457D02*
X2617126Y1491457D01*
X2637126Y1471457D01*
X2617126Y1451457D01*
X2597126Y1471457D01*
X2548289Y1236220D02*
X2568289Y1256220D01*
X2588289Y1236220D01*
X2568289Y1216220D01*
X2548289Y1236220D01*
X2795787Y1672244D02*
X2815787Y1692244D01*
X2835787Y1672244D01*
X2815787Y1652244D01*
X2795787Y1672244D01*
X2329409Y1432244D02*
X2349409Y1452244D01*
X2369409Y1432244D01*
X2349409Y1412244D01*
X2329409Y1432244D01*
X1791024Y1952756D02*
X1811024Y1972756D01*
X1831024Y1952756D01*
X1811024Y1932756D01*
X1791024Y1952756D01*
X1735906Y2002953D02*
X1755906Y2022953D01*
X1775906Y2002953D01*
X1755906Y1982953D01*
X1735906Y2002953D01*
X2561181Y1940945D02*
X2581181Y1960945D01*
X2601181Y1940945D01*
X2581181Y1920945D01*
X2561181Y1940945D01*
X3131180Y1876865D02*
X3151180Y1896865D01*
X3171180Y1876865D01*
X3151180Y1856865D01*
X3131180Y1876865D01*
X3178819D02*
X3198819Y1896865D01*
X3218819Y1876865D01*
X3198819Y1856865D01*
X3178819Y1876865D01*
X3447520Y1650591D02*
X3467520Y1670591D01*
X3487520Y1650591D01*
X3467520Y1630591D01*
X3447520Y1650591D01*
X2906181Y1116142D02*
X2926181Y1136142D01*
X2946181Y1116142D01*
X2926181Y1096142D01*
X2906181Y1116142D01*
X2896339Y1676181D02*
X2916339Y1696181D01*
X2936339Y1676181D01*
X2916339Y1656181D01*
X2896339Y1676181D01*
X3136496Y1575787D02*
X3156496Y1595787D01*
X3176496Y1575787D01*
X3156496Y1555787D01*
X3136496Y1575787D01*
X2212284Y1514764D02*
X2232284Y1534764D01*
X2252284Y1514764D01*
X2232284Y1494764D01*
X2212284Y1514764D01*
X1724094Y1411174D02*
X1744094Y1431174D01*
X1764094Y1411174D01*
X1744094Y1391174D01*
X1724094Y1411174D01*
X3958347Y923228D02*
X3978347Y943228D01*
X3998347Y923228D01*
X3978347Y903228D01*
X3958347Y923228D01*
X2215236Y1157480D02*
X2235236Y1177480D01*
X2255236Y1157480D01*
X2235236Y1137480D01*
X2215236Y1157480D01*
X2170945Y1202756D02*
X2190945Y1222756D01*
X2210945Y1202756D01*
X2190945Y1182756D01*
X2170945Y1202756D01*
X2261496Y1115158D02*
X2281496Y1135158D01*
X2301496Y1115158D01*
X2281496Y1095158D01*
X2261496Y1115158D01*
X2202441Y536417D02*
X2222441Y556417D01*
X2242441Y536417D01*
X2222441Y516417D01*
X2202441Y536417D01*
X942598Y820866D02*
X962598Y840866D01*
X982598Y820866D01*
X962598Y800866D01*
X942598Y820866D01*
X702244Y738681D02*
X722244Y758681D01*
X742244Y738681D01*
X722244Y718681D01*
X702244Y738681D01*
X1215236Y1691929D02*
X1235236Y1711929D01*
X1255236Y1691929D01*
X1235236Y1671929D01*
X1215236Y1691929D01*
X1152244Y1685039D02*
X1172244Y1705039D01*
X1192244Y1685039D01*
X1172244Y1665039D01*
X1152244Y1685039D01*
X1228032Y1508858D02*
X1248032Y1528858D01*
X1268032Y1508858D01*
X1248032Y1488858D01*
X1228032Y1508858D01*
X1286102Y1507874D02*
X1306102Y1527874D01*
X1326102Y1507874D01*
X1306102Y1487874D01*
X1286102Y1507874D01*
X4145354Y1830669D02*
X4165354Y1850669D01*
X4185354Y1830669D01*
X4165354Y1810669D01*
X4145354Y1830669D01*
Y1790669D02*
X4165354Y1810669D01*
X4185354Y1790669D01*
X4165354Y1770669D01*
X4145354Y1790669D01*
Y1710669D02*
X4165354Y1730669D01*
X4185354Y1710669D01*
X4165354Y1690669D01*
X4145354Y1710669D01*
Y1750669D02*
X4165354Y1770669D01*
X4185354Y1750669D01*
X4165354Y1730669D01*
X4145354Y1750669D01*
X3984921Y1648622D02*
X4004921Y1668622D01*
X4024921Y1648622D01*
X4004921Y1628622D01*
X3984921Y1648622D01*
X3586299D02*
X3606299Y1668622D01*
X3626299Y1648622D01*
X3606299Y1628622D01*
X3586299Y1648622D01*
X3853032Y1649606D02*
X3873032Y1669606D01*
X3893032Y1649606D01*
X3873032Y1629606D01*
X3853032Y1649606D01*
X3720157D02*
X3740157Y1669606D01*
X3760157Y1649606D01*
X3740157Y1629606D01*
X3720157Y1649606D01*
X1184725Y1436024D02*
X1204725Y1456024D01*
X1224725Y1436024D01*
X1204725Y1416024D01*
X1184725Y1436024D01*
X721142Y1566929D02*
X741142Y1586929D01*
X761142Y1566929D01*
X741142Y1546929D01*
X721142Y1566929D01*
X1316902Y1940945D02*
X1336902Y1960945D01*
X1356902Y1940945D01*
X1336902Y1920945D01*
X1316902Y1940945D01*
X1997666Y933182D02*
X2017666Y953182D01*
X2037666Y933182D01*
X2017666Y913182D01*
X1997666Y933182D01*
X3479016Y916339D02*
X3499016Y936339D01*
X3519016Y916339D01*
X3499016Y896339D01*
X3479016Y916339D01*
X3082362Y817913D02*
X3102362Y837913D01*
X3122362Y817913D01*
X3102362Y797913D01*
X3082362Y817913D01*
X3003622Y543307D02*
X3023622Y563307D01*
X3043622Y543307D01*
X3023622Y523307D01*
X3003622Y543307D01*
X3984921Y1425197D02*
X4004921Y1445197D01*
X4024921Y1425197D01*
X4004921Y1405197D01*
X3984921Y1425197D01*
X4251654Y708307D02*
X4271654Y728307D01*
X4291654Y708307D01*
X4271654Y688307D01*
X4251654Y708307D01*
X4247717Y1103975D02*
X4267717Y1123975D01*
X4287717Y1103975D01*
X4267717Y1083975D01*
X4247717Y1103975D01*
X1432756Y535118D02*
X1452756Y555118D01*
X1472756Y535118D01*
X1452756Y515118D01*
X1432756Y535118D01*
X659460Y901575D02*
X679460Y921575D01*
X699460Y901575D01*
X679460Y881575D01*
X659460Y901575D01*
X944567Y673228D02*
X964567Y693228D01*
X984567Y673228D01*
X964567Y653228D01*
X944567Y673228D01*
X1074488Y496063D02*
X1094488Y516063D01*
X1114488Y496063D01*
X1094488Y476063D01*
X1074488Y496063D01*
X153228Y232284D02*
X173228Y252284D01*
X193228Y232284D01*
X173228Y212284D01*
X153228Y232284D01*
X1035118Y1144410D02*
X1055118Y1164410D01*
X1075118Y1144410D01*
X1055118Y1124410D01*
X1035118Y1144410D01*
X432269Y1047244D02*
X452269Y1067244D01*
X472269Y1047244D01*
X452269Y1027244D01*
X432269Y1047244D01*
X393386Y1343504D02*
X413386Y1363504D01*
X433386Y1343504D01*
X413386Y1323504D01*
X393386Y1343504D01*
X1255591Y1432087D02*
X1275591Y1452087D01*
X1295591Y1432087D01*
X1275591Y1412087D01*
X1255591Y1432087D01*
X1428819Y1300440D02*
X1448819Y1320440D01*
X1468819Y1300440D01*
X1448819Y1280440D01*
X1428819Y1300440D01*
X2011496Y1373032D02*
X2031496Y1393032D01*
X2051496Y1373032D01*
X2031496Y1353032D01*
X2011496Y1373032D01*
X1917008Y685039D02*
X1937008Y705039D01*
X1957008Y685039D01*
X1937008Y665039D01*
X1917008Y685039D01*
X2483937Y236220D02*
X2503937Y256221D01*
X2523937Y236220D01*
X2503937Y216220D01*
X2483937Y236220D01*
X2665039Y98425D02*
X2685039Y118425D01*
X2705039Y98425D01*
X2685039Y78425D01*
X2665039Y98425D01*
X2523307Y703740D02*
X2543307Y723740D01*
X2563307Y703740D01*
X2543307Y683740D01*
X2523307Y703740D01*
X2583346Y1059732D02*
X2603346Y1079732D01*
X2623346Y1059732D01*
X2603346Y1039732D01*
X2583346Y1059732D01*
X1455406Y1000079D02*
X1475406Y1020079D01*
X1495406Y1000079D01*
X1475406Y980079D01*
X1455406Y1000079D01*
X529724Y1241931D02*
X549724Y1261931D01*
X569724Y1241931D01*
X549724Y1221931D01*
X529724Y1241931D01*
X779213Y1678150D02*
X799213Y1698150D01*
X819213Y1678150D01*
X799213Y1658150D01*
X779213Y1678150D01*
X3411851Y236220D02*
X3431851Y256220D01*
X3451851Y236220D01*
X3431851Y216220D01*
X3411851Y236220D01*
X1070551Y362205D02*
X1090551Y382205D01*
X1110551Y362205D01*
X1090551Y342205D01*
X1070551Y362205D01*
X1575524Y418358D02*
X1595524Y438358D01*
X1615524Y418358D01*
X1595524Y398358D01*
X1575524Y418358D01*
X1575472Y798925D02*
X1595472Y818925D01*
X1615472Y798925D01*
X1595472Y778925D01*
X1575472Y798925D01*
Y610236D02*
X1595472Y630236D01*
X1615472Y610236D01*
X1595472Y590236D01*
X1575472Y610236D01*
X1575760Y997311D02*
X1595760Y1017311D01*
X1615760Y997311D01*
X1595760Y977311D01*
X1575760Y997311D01*
X1628622Y1194882D02*
X1648622Y1214882D01*
X1668622Y1194882D01*
X1648622Y1174882D01*
X1628622Y1194882D01*
X1779213Y1170276D02*
X1799213Y1190276D01*
X1819213Y1170276D01*
X1799213Y1150276D01*
X1779213Y1170276D01*
X654213Y817913D02*
X674213Y837913D01*
X694213Y817913D01*
X674213Y797913D01*
X654213Y817913D01*
X472126Y791339D02*
X492126Y811339D01*
X512126Y791339D01*
X492126Y771339D01*
X472126Y791339D01*
X206378Y594488D02*
X226378Y614488D01*
X246378Y594488D01*
X226378Y574488D01*
X206378Y594488D01*
X380591D02*
X400591Y614488D01*
X420591Y594488D01*
X400591Y574488D01*
X380591Y594488D01*
X949488Y920276D02*
X969488Y940276D01*
X989488Y920276D01*
X969488Y900276D01*
X949488Y920276D01*
X559724Y1542323D02*
X579724Y1562323D01*
X599724Y1542323D01*
X579724Y1522323D01*
X559724Y1542323D01*
X714252Y233268D02*
X734252Y253268D01*
X754252Y233268D01*
X734252Y213268D01*
X714252Y233268D01*
X2763366Y978248D02*
X2783366Y998248D01*
X2803366Y978248D01*
X2783366Y958248D01*
X2763366Y978248D01*
X2476063Y889764D02*
X2496063Y909764D01*
X2516063Y889764D01*
X2496063Y869764D01*
X2476063Y889764D01*
X938662Y1360236D02*
X958662Y1380236D01*
X978662Y1360236D01*
X958662Y1340236D01*
X938662Y1360236D01*
X972126Y1308071D02*
X992126Y1328071D01*
X1012126Y1308071D01*
X992126Y1288071D01*
X972126Y1308071D01*
X1022323Y1491142D02*
X1042323Y1511142D01*
X1062323Y1491142D01*
X1042323Y1471142D01*
X1022323Y1491142D01*
D103*
X446378Y98425D02*
G03*
X446378Y98425I-20000J0D01*
G01*
X546378D02*
G03*
X546378Y98425I-20000J0D01*
G01*
X846378D02*
G03*
X846378Y98425I-20000J0D01*
G01*
X946378D02*
G03*
X946378Y98425I-20000J0D01*
G01*
X1046378D02*
G03*
X1046378Y98425I-20000J0D01*
G01*
X1146378D02*
G03*
X1146378Y98425I-20000J0D01*
G01*
X1246378D02*
G03*
X1246378Y98425I-20000J0D01*
G01*
X1346378D02*
G03*
X1346378Y98425I-20000J0D01*
G01*
X1446378D02*
G03*
X1446378Y98425I-20000J0D01*
G01*
X1546378D02*
G03*
X1546378Y98425I-20000J0D01*
G01*
X1646378D02*
G03*
X1646378Y98425I-20000J0D01*
G01*
X1746378D02*
G03*
X1746378Y98425I-20000J0D01*
G01*
X1846378D02*
G03*
X1846378Y98425I-20000J0D01*
G01*
X1946378D02*
G03*
X1946378Y98425I-20000J0D01*
G01*
X2046378D02*
G03*
X2046378Y98425I-20000J0D01*
G01*
X2146378D02*
G03*
X2146378Y98425I-20000J0D01*
G01*
X2246378D02*
G03*
X2246378Y98425I-20000J0D01*
G01*
X2346378D02*
G03*
X2346378Y98425I-20000J0D01*
G01*
X2446378D02*
G03*
X2446378Y98425I-20000J0D01*
G01*
X2546378D02*
G03*
X2546378Y98425I-20000J0D01*
G01*
X810551Y2015748D02*
G03*
X810551Y2015748I-20000J0D01*
G01*
X710551D02*
G03*
X710551Y2015748I-20000J0D01*
G01*
X610551D02*
G03*
X610551Y2015748I-20000J0D01*
G01*
X2182205D02*
G03*
X2182205Y2015748I-20000J0D01*
G01*
X2282205D02*
G03*
X2282205Y2015748I-20000J0D01*
G01*
X2382205D02*
G03*
X2382205Y2015748I-20000J0D01*
G01*
X71181Y1230315D02*
G03*
X71181Y1230315I-20000J0D01*
G01*
X159764Y864173D02*
G03*
X159764Y864173I-20000J0D01*
G01*
X71181D02*
G03*
X71181Y864173I-20000J0D01*
G01*
X159764Y1230315D02*
G03*
X159764Y1230315I-20000J0D01*
G01*
%TF.MD5,9cba4f22d87807b9b4dbdb75280460ac*%
M02*
