%TF.GenerationSoftware,Altium Limited,Altium Designer,19.0.10 (269)*%
G04 Layer_Color=65535*
%FSLAX26Y26*%
%MOIN*%
%TF.FileFunction,Legend,Top*%
%TF.Part,Single*%
G01*
G75*
%TA.AperFunction,NonConductor*%
%ADD45C,0.009842*%
%ADD47C,0.019685*%
%ADD50C,0.010000*%
G36*
X3010836Y2061834D02*
X2976970D01*
Y2042920D01*
X2972441D01*
Y2066929D01*
X3010836D01*
Y2061834D01*
D02*
G37*
G36*
X2992920Y2038324D02*
X2993453Y2038291D01*
X2994053Y2038225D01*
X2994719Y2038158D01*
X2995485Y2038058D01*
X2996284Y2037958D01*
X2997116Y2037792D01*
X2997982Y2037625D01*
X2998848Y2037392D01*
X2999747Y2037126D01*
X3000646Y2036826D01*
X3001512Y2036493D01*
X3002378Y2036093D01*
X3002444Y2036060D01*
X3002577Y2035993D01*
X3002811Y2035860D01*
X3003110Y2035660D01*
X3003477Y2035427D01*
X3003909Y2035128D01*
X3004376Y2034795D01*
X3004908Y2034428D01*
X3005441Y2033962D01*
X3006007Y2033496D01*
X3006573Y2032963D01*
X3007140Y2032364D01*
X3007672Y2031731D01*
X3008205Y2031065D01*
X3008705Y2030332D01*
X3009171Y2029566D01*
X3009204Y2029533D01*
X3009271Y2029367D01*
X3009371Y2029134D01*
X3009537Y2028834D01*
X3009704Y2028434D01*
X3009903Y2027968D01*
X3010137Y2027435D01*
X3010336Y2026803D01*
X3010569Y2026170D01*
X3010769Y2025437D01*
X3010969Y2024671D01*
X3011135Y2023872D01*
X3011302Y2023006D01*
X3011402Y2022141D01*
X3011468Y2021208D01*
X3011502Y2020276D01*
Y2020009D01*
X3011468Y2019710D01*
Y2019310D01*
X3011402Y2018811D01*
X3011335Y2018245D01*
X3011269Y2017612D01*
X3011135Y2016912D01*
X3010969Y2016147D01*
X3010769Y2015381D01*
X3010536Y2014582D01*
X3010236Y2013749D01*
X3009903Y2012950D01*
X3009504Y2012117D01*
X3009071Y2011351D01*
X3008538Y2010585D01*
X3008505Y2010552D01*
X3008405Y2010419D01*
X3008238Y2010219D01*
X3008005Y2009953D01*
X3007706Y2009620D01*
X3007339Y2009254D01*
X3006906Y2008854D01*
X3006407Y2008421D01*
X3005841Y2007988D01*
X3005241Y2007522D01*
X3004542Y2007056D01*
X3003809Y2006623D01*
X3003010Y2006190D01*
X3002178Y2005790D01*
X3001245Y2005424D01*
X3000280Y2005091D01*
X2999114Y2010086D01*
X2999148D01*
X2999314Y2010153D01*
X2999514Y2010219D01*
X2999814Y2010352D01*
X3000146Y2010486D01*
X3000546Y2010652D01*
X3000979Y2010852D01*
X3001445Y2011085D01*
X3002444Y2011651D01*
X3003443Y2012317D01*
X3003943Y2012683D01*
X3004409Y2013083D01*
X3004842Y2013516D01*
X3005208Y2013982D01*
X3005241Y2014015D01*
X3005308Y2014082D01*
X3005375Y2014248D01*
X3005508Y2014448D01*
X3005641Y2014681D01*
X3005807Y2014981D01*
X3006007Y2015347D01*
X3006174Y2015714D01*
X3006340Y2016180D01*
X3006540Y2016646D01*
X3006707Y2017179D01*
X3006840Y2017745D01*
X3006973Y2018344D01*
X3007073Y2018977D01*
X3007106Y2019676D01*
X3007140Y2020376D01*
Y2020809D01*
X3007106Y2021108D01*
X3007073Y2021508D01*
X3007040Y2021941D01*
X3006973Y2022440D01*
X3006873Y2022973D01*
X3006773Y2023539D01*
X3006607Y2024139D01*
X3006440Y2024738D01*
X3006240Y2025371D01*
X3006007Y2025970D01*
X3005708Y2026603D01*
X3005375Y2027202D01*
X3005008Y2027768D01*
X3004975Y2027802D01*
X3004908Y2027901D01*
X3004775Y2028035D01*
X3004609Y2028235D01*
X3004409Y2028501D01*
X3004142Y2028767D01*
X3003843Y2029067D01*
X3003510Y2029400D01*
X3003110Y2029733D01*
X3002677Y2030099D01*
X3002211Y2030432D01*
X3001712Y2030765D01*
X3001179Y2031098D01*
X3000579Y2031398D01*
X2999980Y2031698D01*
X2999314Y2031931D01*
X2999281D01*
X2999148Y2031997D01*
X2998948Y2032031D01*
X2998715Y2032131D01*
X2998382Y2032197D01*
X2997982Y2032297D01*
X2997549Y2032430D01*
X2997050Y2032530D01*
X2996517Y2032630D01*
X2995951Y2032763D01*
X2995351Y2032863D01*
X2994719Y2032930D01*
X2993353Y2033063D01*
X2991955Y2033130D01*
X2991888D01*
X2991755D01*
X2991488D01*
X2991122Y2033096D01*
X2990723D01*
X2990223Y2033063D01*
X2989657Y2032996D01*
X2989058Y2032963D01*
X2988392Y2032863D01*
X2987726Y2032797D01*
X2986294Y2032530D01*
X2984829Y2032197D01*
X2983397Y2031731D01*
X2983363Y2031698D01*
X2983230Y2031664D01*
X2983064Y2031564D01*
X2982797Y2031465D01*
X2982497Y2031298D01*
X2982164Y2031132D01*
X2981765Y2030899D01*
X2981365Y2030632D01*
X2980932Y2030332D01*
X2980466Y2030033D01*
X2980033Y2029666D01*
X2979567Y2029267D01*
X2979134Y2028834D01*
X2978735Y2028368D01*
X2978335Y2027835D01*
X2977969Y2027302D01*
X2977935Y2027269D01*
X2977902Y2027169D01*
X2977802Y2027002D01*
X2977702Y2026769D01*
X2977569Y2026503D01*
X2977403Y2026170D01*
X2977236Y2025770D01*
X2977070Y2025337D01*
X2976903Y2024871D01*
X2976737Y2024372D01*
X2976603Y2023839D01*
X2976437Y2023273D01*
X2976237Y2022074D01*
X2976204Y2021408D01*
X2976171Y2020775D01*
Y2020575D01*
X2976204Y2020376D01*
Y2020076D01*
X2976237Y2019710D01*
X2976304Y2019277D01*
X2976370Y2018777D01*
X2976470Y2018278D01*
X2976603Y2017712D01*
X2976770Y2017146D01*
X2976970Y2016546D01*
X2977203Y2015914D01*
X2977469Y2015314D01*
X2977802Y2014715D01*
X2978169Y2014115D01*
X2978601Y2013549D01*
X2978635Y2013516D01*
X2978701Y2013416D01*
X2978868Y2013283D01*
X2979068Y2013083D01*
X2979334Y2012817D01*
X2979634Y2012550D01*
X2980000Y2012251D01*
X2980433Y2011918D01*
X2980932Y2011584D01*
X2981465Y2011252D01*
X2982065Y2010918D01*
X2982731Y2010585D01*
X2983430Y2010286D01*
X2984196Y2009986D01*
X2985028Y2009753D01*
X2985894Y2009520D01*
X2984629Y2004425D01*
X2984595D01*
X2984562Y2004458D01*
X2984462D01*
X2984362Y2004492D01*
X2984029Y2004591D01*
X2983596Y2004725D01*
X2983064Y2004925D01*
X2982464Y2005158D01*
X2981798Y2005424D01*
X2981099Y2005757D01*
X2980333Y2006123D01*
X2979534Y2006523D01*
X2978735Y2006989D01*
X2977969Y2007522D01*
X2977169Y2008121D01*
X2976437Y2008754D01*
X2975738Y2009420D01*
X2975072Y2010186D01*
X2975038Y2010219D01*
X2974938Y2010386D01*
X2974772Y2010619D01*
X2974572Y2010918D01*
X2974306Y2011318D01*
X2974039Y2011818D01*
X2973740Y2012384D01*
X2973440Y2013016D01*
X2973140Y2013716D01*
X2972840Y2014482D01*
X2972574Y2015314D01*
X2972308Y2016213D01*
X2972108Y2017179D01*
X2971941Y2018178D01*
X2971841Y2019244D01*
X2971808Y2020342D01*
Y2020609D01*
X2971841Y2020942D01*
Y2021375D01*
X2971875Y2021908D01*
X2971941Y2022507D01*
X2972008Y2023173D01*
X2972108Y2023939D01*
X2972241Y2024705D01*
X2972408Y2025537D01*
X2972607Y2026370D01*
X2972874Y2027202D01*
X2973140Y2028068D01*
X2973473Y2028867D01*
X2973873Y2029666D01*
X2974306Y2030432D01*
X2974339Y2030466D01*
X2974439Y2030599D01*
X2974572Y2030799D01*
X2974772Y2031065D01*
X2975038Y2031398D01*
X2975371Y2031764D01*
X2975738Y2032197D01*
X2976171Y2032630D01*
X2976670Y2033096D01*
X2977203Y2033596D01*
X2977802Y2034095D01*
X2978468Y2034562D01*
X2979168Y2035061D01*
X2979933Y2035527D01*
X2980766Y2035960D01*
X2981632Y2036360D01*
X2981698Y2036393D01*
X2981865Y2036460D01*
X2982098Y2036560D01*
X2982464Y2036659D01*
X2982897Y2036826D01*
X2983430Y2036992D01*
X2984029Y2037159D01*
X2984729Y2037359D01*
X2985461Y2037559D01*
X2986260Y2037725D01*
X2987093Y2037891D01*
X2987992Y2038058D01*
X2988924Y2038158D01*
X2989890Y2038258D01*
X2990889Y2038324D01*
X2991921Y2038358D01*
X2991955D01*
X2991988D01*
X2992188D01*
X2992521D01*
X2992920Y2038324D01*
D02*
G37*
G36*
X3010836Y1983846D02*
X3010802Y1983413D01*
Y1982947D01*
X3010769Y1982414D01*
X3010703Y1981315D01*
X3010603Y1980183D01*
X3010470Y1979084D01*
X3010370Y1978584D01*
X3010270Y1978118D01*
Y1978085D01*
X3010236Y1977985D01*
X3010203Y1977785D01*
X3010137Y1977552D01*
X3010037Y1977285D01*
X3009937Y1976953D01*
X3009803Y1976586D01*
X3009637Y1976187D01*
X3009271Y1975287D01*
X3008771Y1974355D01*
X3008205Y1973389D01*
X3007506Y1972490D01*
X3007472Y1972457D01*
X3007373Y1972357D01*
X3007239Y1972191D01*
X3007040Y1971991D01*
X3006807Y1971724D01*
X3006474Y1971458D01*
X3006140Y1971125D01*
X3005741Y1970792D01*
X3005275Y1970426D01*
X3004775Y1970059D01*
X3004242Y1969660D01*
X3003643Y1969293D01*
X3003044Y1968927D01*
X3002378Y1968594D01*
X3001678Y1968261D01*
X3000946Y1967961D01*
X3000912Y1967928D01*
X3000779Y1967895D01*
X3000546Y1967828D01*
X3000246Y1967728D01*
X2999847Y1967595D01*
X2999414Y1967462D01*
X2998881Y1967329D01*
X2998315Y1967196D01*
X2997649Y1967062D01*
X2996950Y1966929D01*
X2996217Y1966796D01*
X2995418Y1966663D01*
X2994585Y1966563D01*
X2993686Y1966496D01*
X2992754Y1966430D01*
X2991822D01*
X2991788D01*
X2991622D01*
X2991389D01*
X2991089D01*
X2990723Y1966463D01*
X2990256Y1966496D01*
X2989757Y1966530D01*
X2989224Y1966563D01*
X2988625Y1966596D01*
X2988025Y1966696D01*
X2986693Y1966863D01*
X2985361Y1967129D01*
X2984063Y1967462D01*
X2984029D01*
X2983929Y1967495D01*
X2983730Y1967562D01*
X2983497Y1967662D01*
X2983230Y1967762D01*
X2982897Y1967862D01*
X2982497Y1968028D01*
X2982098Y1968161D01*
X2981232Y1968561D01*
X2980300Y1968994D01*
X2979334Y1969527D01*
X2978468Y1970093D01*
X2978435Y1970126D01*
X2978368Y1970159D01*
X2978268Y1970259D01*
X2978102Y1970359D01*
X2977702Y1970692D01*
X2977203Y1971125D01*
X2976670Y1971658D01*
X2976071Y1972257D01*
X2975505Y1972890D01*
X2975005Y1973589D01*
Y1973622D01*
X2974938Y1973689D01*
X2974872Y1973789D01*
X2974805Y1973922D01*
X2974705Y1974122D01*
X2974572Y1974322D01*
X2974439Y1974588D01*
X2974306Y1974888D01*
X2973973Y1975554D01*
X2973673Y1976320D01*
X2973340Y1977219D01*
X2973074Y1978185D01*
Y1978218D01*
X2973040Y1978318D01*
X2973007Y1978451D01*
X2972974Y1978651D01*
X2972940Y1978917D01*
X2972874Y1979217D01*
X2972807Y1979550D01*
X2972774Y1979949D01*
X2972707Y1980382D01*
X2972641Y1980849D01*
X2972574Y1981381D01*
X2972541Y1981914D01*
X2972474Y1983080D01*
X2972441Y1984345D01*
Y1998165D01*
X3010836D01*
Y1983846D01*
D02*
G37*
G36*
X3001345Y1957705D02*
X3001412Y1957572D01*
X3001512Y1957339D01*
X3001645Y1957072D01*
X3001811Y1956739D01*
X3002045Y1956340D01*
X3002278Y1955907D01*
X3002577Y1955407D01*
X3002877Y1954875D01*
X3003243Y1954342D01*
X3004009Y1953176D01*
X3004875Y1951977D01*
X3005807Y1950845D01*
X3005841Y1950812D01*
X3005941Y1950712D01*
X3006074Y1950579D01*
X3006274Y1950346D01*
X3006507Y1950113D01*
X3006773Y1949846D01*
X3007106Y1949547D01*
X3007439Y1949214D01*
X3008238Y1948514D01*
X3009104Y1947815D01*
X3010037Y1947182D01*
X3010503Y1946883D01*
X3010969Y1946649D01*
Y1943586D01*
X2972441D01*
Y1948314D01*
X3002444D01*
X3002411Y1948348D01*
X3002378Y1948381D01*
X3002278Y1948481D01*
X3002178Y1948614D01*
X3002011Y1948814D01*
X3001845Y1949014D01*
X3001645Y1949247D01*
X3001412Y1949513D01*
X3000946Y1950179D01*
X3000380Y1950945D01*
X2999780Y1951811D01*
X2999181Y1952810D01*
X2999148Y1952843D01*
X2999114Y1952943D01*
X2999014Y1953076D01*
X2998914Y1953276D01*
X2998781Y1953509D01*
X2998648Y1953776D01*
X2998448Y1954109D01*
X2998282Y1954442D01*
X2997882Y1955208D01*
X2997483Y1956040D01*
X2997083Y1956906D01*
X2996750Y1957738D01*
X3001312D01*
X3001345Y1957705D01*
D02*
G37*
G36*
X3051181Y1857301D02*
X3021178D01*
X3021211Y1857268D01*
X3021244Y1857235D01*
X3021344Y1857135D01*
X3021444Y1857001D01*
X3021611Y1856802D01*
X3021777Y1856602D01*
X3021977Y1856369D01*
X3022210Y1856102D01*
X3022676Y1855436D01*
X3023242Y1854670D01*
X3023842Y1853805D01*
X3024441Y1852806D01*
X3024474Y1852772D01*
X3024508Y1852672D01*
X3024608Y1852539D01*
X3024708Y1852339D01*
X3024841Y1852106D01*
X3024974Y1851840D01*
X3025174Y1851507D01*
X3025340Y1851174D01*
X3025740Y1850408D01*
X3026140Y1849575D01*
X3026539Y1848710D01*
X3026872Y1847877D01*
X3022310D01*
X3022277Y1847910D01*
X3022210Y1848044D01*
X3022110Y1848277D01*
X3021977Y1848543D01*
X3021811Y1848876D01*
X3021577Y1849276D01*
X3021344Y1849709D01*
X3021045Y1850208D01*
X3020745Y1850741D01*
X3020379Y1851274D01*
X3019613Y1852439D01*
X3018747Y1853638D01*
X3017814Y1854770D01*
X3017781Y1854804D01*
X3017681Y1854903D01*
X3017548Y1855037D01*
X3017348Y1855270D01*
X3017115Y1855503D01*
X3016849Y1855769D01*
X3016516Y1856069D01*
X3016183Y1856402D01*
X3015384Y1857101D01*
X3014518Y1857801D01*
X3013585Y1858433D01*
X3013119Y1858733D01*
X3012653Y1858966D01*
Y1862030D01*
X3051181D01*
Y1857301D01*
D02*
G37*
G36*
X3040891Y1839219D02*
X3041158Y1839186D01*
X3041457Y1839153D01*
X3041824Y1839119D01*
X3042223Y1839019D01*
X3043122Y1838820D01*
X3044088Y1838520D01*
X3044588Y1838320D01*
X3045087Y1838087D01*
X3045620Y1837787D01*
X3046119Y1837488D01*
X3046153Y1837454D01*
X3046253Y1837421D01*
X3046386Y1837288D01*
X3046552Y1837155D01*
X3046785Y1836988D01*
X3047052Y1836755D01*
X3047352Y1836489D01*
X3047651Y1836189D01*
X3047984Y1835856D01*
X3048317Y1835490D01*
X3048684Y1835057D01*
X3049017Y1834624D01*
X3049383Y1834124D01*
X3049716Y1833591D01*
X3050016Y1833025D01*
X3050315Y1832426D01*
Y1832393D01*
X3050382Y1832293D01*
X3050448Y1832093D01*
X3050548Y1831860D01*
X3050648Y1831527D01*
X3050782Y1831161D01*
X3050915Y1830728D01*
X3051048Y1830262D01*
X3051214Y1829729D01*
X3051348Y1829163D01*
X3051481Y1828563D01*
X3051581Y1827930D01*
X3051681Y1827231D01*
X3051747Y1826532D01*
X3051780Y1825799D01*
X3051814Y1825033D01*
Y1824534D01*
X3051780Y1824168D01*
Y1823701D01*
X3051747Y1823202D01*
X3051681Y1822602D01*
X3051614Y1821970D01*
X3051547Y1821304D01*
X3051448Y1820604D01*
X3051181Y1819139D01*
X3050815Y1817674D01*
X3050582Y1816941D01*
X3050315Y1816275D01*
X3050282Y1816242D01*
X3050249Y1816109D01*
X3050149Y1815943D01*
X3050016Y1815709D01*
X3049882Y1815410D01*
X3049683Y1815043D01*
X3049450Y1814677D01*
X3049183Y1814277D01*
X3048850Y1813811D01*
X3048517Y1813378D01*
X3048151Y1812912D01*
X3047751Y1812446D01*
X3047285Y1812013D01*
X3046819Y1811547D01*
X3046319Y1811147D01*
X3045753Y1810748D01*
X3045720Y1810714D01*
X3045620Y1810648D01*
X3045454Y1810548D01*
X3045220Y1810448D01*
X3044921Y1810282D01*
X3044588Y1810115D01*
X3044188Y1809915D01*
X3043722Y1809749D01*
X3043256Y1809549D01*
X3042723Y1809349D01*
X3042157Y1809183D01*
X3041524Y1809016D01*
X3040225Y1808783D01*
X3039526Y1808683D01*
X3038827Y1808650D01*
X3038394Y1813445D01*
X3038427D01*
X3038527Y1813478D01*
X3038660D01*
X3038860Y1813512D01*
X3039126Y1813545D01*
X3039393Y1813611D01*
X3039726Y1813678D01*
X3040059Y1813778D01*
X3040825Y1813978D01*
X3041624Y1814244D01*
X3042423Y1814577D01*
X3043156Y1815010D01*
X3043189D01*
X3043222Y1815077D01*
X3043322Y1815143D01*
X3043456Y1815243D01*
X3043789Y1815543D01*
X3044221Y1815976D01*
X3044721Y1816509D01*
X3045220Y1817175D01*
X3045687Y1817974D01*
X3046153Y1818873D01*
Y1818906D01*
X3046186Y1819006D01*
X3046253Y1819139D01*
X3046319Y1819339D01*
X3046419Y1819572D01*
X3046519Y1819872D01*
X3046619Y1820205D01*
X3046719Y1820604D01*
X3046819Y1821037D01*
X3046919Y1821470D01*
X3047119Y1822469D01*
X3047252Y1823601D01*
X3047285Y1824800D01*
Y1825300D01*
X3047252Y1825533D01*
Y1825833D01*
X3047218Y1826166D01*
X3047185Y1826532D01*
X3047085Y1827331D01*
X3046919Y1828197D01*
X3046719Y1829063D01*
X3046419Y1829928D01*
Y1829962D01*
X3046386Y1830028D01*
X3046319Y1830128D01*
X3046253Y1830295D01*
X3046053Y1830694D01*
X3045787Y1831194D01*
X3045454Y1831727D01*
X3045054Y1832259D01*
X3044588Y1832792D01*
X3044055Y1833258D01*
X3044022D01*
X3043988Y1833292D01*
X3043789Y1833425D01*
X3043489Y1833591D01*
X3043089Y1833825D01*
X3042590Y1834024D01*
X3042024Y1834191D01*
X3041424Y1834324D01*
X3040758Y1834357D01*
X3040725D01*
X3040692D01*
X3040592D01*
X3040459D01*
X3040126Y1834291D01*
X3039693Y1834224D01*
X3039193Y1834091D01*
X3038694Y1833925D01*
X3038128Y1833658D01*
X3037628Y1833292D01*
X3037561Y1833258D01*
X3037395Y1833092D01*
X3037162Y1832826D01*
X3036829Y1832459D01*
X3036463Y1831993D01*
X3036096Y1831394D01*
X3035730Y1830661D01*
X3035364Y1829829D01*
Y1829795D01*
X3035330Y1829762D01*
X3035297Y1829662D01*
X3035264Y1829496D01*
X3035197Y1829296D01*
X3035097Y1829063D01*
X3034997Y1828763D01*
X3034897Y1828397D01*
X3034798Y1827964D01*
X3034631Y1827464D01*
X3034498Y1826898D01*
X3034331Y1826265D01*
X3034131Y1825566D01*
X3033932Y1824767D01*
X3033732Y1823901D01*
X3033499Y1822936D01*
Y1822869D01*
X3033432Y1822702D01*
X3033366Y1822436D01*
X3033266Y1822070D01*
X3033166Y1821637D01*
X3033033Y1821137D01*
X3032866Y1820604D01*
X3032700Y1820038D01*
X3032333Y1818806D01*
X3031934Y1817574D01*
X3031734Y1816975D01*
X3031534Y1816442D01*
X3031301Y1815943D01*
X3031101Y1815510D01*
X3031068Y1815476D01*
X3031035Y1815376D01*
X3030935Y1815243D01*
X3030835Y1815077D01*
X3030702Y1814844D01*
X3030535Y1814577D01*
X3030102Y1813978D01*
X3029569Y1813312D01*
X3028970Y1812646D01*
X3028271Y1811980D01*
X3027505Y1811414D01*
X3027472D01*
X3027405Y1811347D01*
X3027305Y1811281D01*
X3027139Y1811214D01*
X3026939Y1811114D01*
X3026706Y1810981D01*
X3026406Y1810881D01*
X3026106Y1810748D01*
X3025407Y1810515D01*
X3024608Y1810282D01*
X3023709Y1810148D01*
X3022743Y1810082D01*
X3022710D01*
X3022610D01*
X3022443D01*
X3022243Y1810115D01*
X3021977Y1810148D01*
X3021677Y1810182D01*
X3021344Y1810215D01*
X3020945Y1810282D01*
X3020112Y1810481D01*
X3019213Y1810781D01*
X3018714Y1810947D01*
X3018247Y1811181D01*
X3017748Y1811414D01*
X3017282Y1811713D01*
X3017248Y1811747D01*
X3017182Y1811780D01*
X3017049Y1811880D01*
X3016849Y1812013D01*
X3016649Y1812213D01*
X3016416Y1812413D01*
X3016149Y1812646D01*
X3015850Y1812946D01*
X3015550Y1813278D01*
X3015217Y1813611D01*
X3014917Y1814011D01*
X3014584Y1814444D01*
X3014285Y1814910D01*
X3013985Y1815443D01*
X3013719Y1815976D01*
X3013452Y1816542D01*
Y1816575D01*
X3013386Y1816675D01*
X3013319Y1816875D01*
X3013252Y1817108D01*
X3013153Y1817408D01*
X3013019Y1817774D01*
X3012919Y1818174D01*
X3012786Y1818640D01*
X3012653Y1819139D01*
X3012553Y1819672D01*
X3012420Y1820238D01*
X3012320Y1820871D01*
X3012187Y1822203D01*
X3012120Y1823601D01*
Y1824034D01*
X3012153Y1824334D01*
Y1824700D01*
X3012187Y1825133D01*
X3012220Y1825633D01*
X3012287Y1826166D01*
X3012353Y1826732D01*
X3012453Y1827331D01*
X3012720Y1828597D01*
X3013053Y1829895D01*
X3013519Y1831161D01*
Y1831194D01*
X3013585Y1831294D01*
X3013652Y1831460D01*
X3013785Y1831693D01*
X3013918Y1831960D01*
X3014085Y1832293D01*
X3014285Y1832626D01*
X3014551Y1833025D01*
X3015117Y1833825D01*
X3015816Y1834657D01*
X3016616Y1835456D01*
X3017082Y1835856D01*
X3017581Y1836189D01*
X3017615Y1836222D01*
X3017715Y1836255D01*
X3017848Y1836355D01*
X3018048Y1836455D01*
X3018314Y1836589D01*
X3018614Y1836755D01*
X3018947Y1836921D01*
X3019346Y1837088D01*
X3019746Y1837255D01*
X3020212Y1837421D01*
X3020712Y1837588D01*
X3021244Y1837721D01*
X3022377Y1837954D01*
X3022976Y1838054D01*
X3023609Y1838087D01*
X3023975Y1833225D01*
X3023942D01*
X3023809Y1833192D01*
X3023642Y1833159D01*
X3023376Y1833125D01*
X3023076Y1833059D01*
X3022743Y1832992D01*
X3022343Y1832859D01*
X3021910Y1832726D01*
X3021045Y1832393D01*
X3020578Y1832160D01*
X3020112Y1831927D01*
X3019679Y1831627D01*
X3019246Y1831294D01*
X3018847Y1830928D01*
X3018481Y1830528D01*
X3018447Y1830495D01*
X3018414Y1830428D01*
X3018314Y1830295D01*
X3018181Y1830095D01*
X3018048Y1829862D01*
X3017881Y1829595D01*
X3017715Y1829229D01*
X3017548Y1828830D01*
X3017382Y1828397D01*
X3017215Y1827897D01*
X3017049Y1827364D01*
X3016915Y1826765D01*
X3016782Y1826099D01*
X3016682Y1825400D01*
X3016649Y1824634D01*
X3016616Y1823835D01*
Y1823402D01*
X3016649Y1823069D01*
X3016682Y1822702D01*
X3016716Y1822270D01*
X3016749Y1821770D01*
X3016816Y1821271D01*
X3017015Y1820138D01*
X3017315Y1819039D01*
X3017515Y1818507D01*
X3017748Y1817974D01*
X3018014Y1817508D01*
X3018314Y1817075D01*
X3018347Y1817041D01*
X3018381Y1816975D01*
X3018481Y1816875D01*
X3018614Y1816742D01*
X3018780Y1816575D01*
X3018980Y1816409D01*
X3019446Y1816042D01*
X3020046Y1815643D01*
X3020745Y1815310D01*
X3021144Y1815177D01*
X3021544Y1815077D01*
X3021977Y1815010D01*
X3022410Y1814977D01*
X3022443D01*
X3022510D01*
X3022610D01*
X3022743Y1815010D01*
X3023142Y1815043D01*
X3023609Y1815177D01*
X3024142Y1815343D01*
X3024708Y1815610D01*
X3025274Y1815976D01*
X3025540Y1816209D01*
X3025807Y1816475D01*
Y1816509D01*
X3025873Y1816542D01*
X3025940Y1816642D01*
X3026040Y1816808D01*
X3026173Y1817008D01*
X3026306Y1817274D01*
X3026472Y1817608D01*
X3026639Y1817974D01*
X3026839Y1818440D01*
X3027072Y1819006D01*
X3027272Y1819605D01*
X3027505Y1820338D01*
X3027771Y1821137D01*
X3028004Y1822036D01*
X3028271Y1823035D01*
X3028537Y1824134D01*
Y1824201D01*
X3028604Y1824401D01*
X3028670Y1824734D01*
X3028770Y1825133D01*
X3028903Y1825666D01*
X3029037Y1826232D01*
X3029203Y1826865D01*
X3029370Y1827531D01*
X3029736Y1828963D01*
X3030135Y1830361D01*
X3030369Y1831027D01*
X3030568Y1831660D01*
X3030768Y1832226D01*
X3030968Y1832692D01*
X3031001Y1832726D01*
X3031035Y1832826D01*
X3031135Y1833025D01*
X3031234Y1833225D01*
X3031401Y1833525D01*
X3031601Y1833825D01*
X3031800Y1834191D01*
X3032034Y1834557D01*
X3032600Y1835356D01*
X3033299Y1836189D01*
X3034065Y1836955D01*
X3034465Y1837288D01*
X3034897Y1837621D01*
X3034931Y1837654D01*
X3034997Y1837687D01*
X3035131Y1837787D01*
X3035330Y1837887D01*
X3035530Y1837987D01*
X3035796Y1838154D01*
X3036130Y1838287D01*
X3036463Y1838453D01*
X3036862Y1838586D01*
X3037262Y1838753D01*
X3038194Y1838986D01*
X3039226Y1839186D01*
X3039793Y1839219D01*
X3040359Y1839253D01*
X3040392D01*
X3040492D01*
X3040658D01*
X3040891Y1839219D01*
D02*
G37*
G36*
X3032899Y1803355D02*
X3033366Y1803322D01*
X3033865Y1803289D01*
X3034398Y1803255D01*
X3034997Y1803222D01*
X3035597Y1803122D01*
X3036929Y1802956D01*
X3038261Y1802689D01*
X3039559Y1802356D01*
X3039593D01*
X3039693Y1802323D01*
X3039892Y1802256D01*
X3040126Y1802156D01*
X3040392Y1802056D01*
X3040725Y1801957D01*
X3041124Y1801790D01*
X3041524Y1801657D01*
X3042390Y1801257D01*
X3043322Y1800824D01*
X3044288Y1800292D01*
X3045154Y1799725D01*
X3045187Y1799692D01*
X3045254Y1799659D01*
X3045354Y1799559D01*
X3045520Y1799459D01*
X3045920Y1799126D01*
X3046419Y1798693D01*
X3046952Y1798160D01*
X3047551Y1797561D01*
X3048117Y1796928D01*
X3048617Y1796229D01*
Y1796196D01*
X3048684Y1796129D01*
X3048750Y1796029D01*
X3048817Y1795896D01*
X3048917Y1795696D01*
X3049050Y1795496D01*
X3049183Y1795230D01*
X3049316Y1794930D01*
X3049649Y1794264D01*
X3049949Y1793498D01*
X3050282Y1792599D01*
X3050548Y1791633D01*
Y1791600D01*
X3050582Y1791500D01*
X3050615Y1791367D01*
X3050648Y1791167D01*
X3050682Y1790901D01*
X3050748Y1790601D01*
X3050815Y1790268D01*
X3050848Y1789869D01*
X3050915Y1789436D01*
X3050981Y1788969D01*
X3051048Y1788437D01*
X3051081Y1787904D01*
X3051148Y1786738D01*
X3051181Y1785473D01*
Y1771653D01*
X3012786D01*
Y1785973D01*
X3012820Y1786405D01*
Y1786872D01*
X3012853Y1787404D01*
X3012919Y1788503D01*
X3013019Y1789636D01*
X3013153Y1790734D01*
X3013252Y1791234D01*
X3013352Y1791700D01*
Y1791733D01*
X3013386Y1791833D01*
X3013419Y1792033D01*
X3013485Y1792266D01*
X3013585Y1792533D01*
X3013685Y1792866D01*
X3013818Y1793232D01*
X3013985Y1793631D01*
X3014351Y1794531D01*
X3014851Y1795463D01*
X3015417Y1796429D01*
X3016116Y1797328D01*
X3016149Y1797361D01*
X3016249Y1797461D01*
X3016383Y1797628D01*
X3016582Y1797827D01*
X3016816Y1798094D01*
X3017148Y1798360D01*
X3017481Y1798693D01*
X3017881Y1799026D01*
X3018347Y1799392D01*
X3018847Y1799759D01*
X3019380Y1800158D01*
X3019979Y1800525D01*
X3020578Y1800891D01*
X3021244Y1801224D01*
X3021944Y1801557D01*
X3022676Y1801857D01*
X3022710Y1801890D01*
X3022843Y1801923D01*
X3023076Y1801990D01*
X3023376Y1802090D01*
X3023775Y1802223D01*
X3024208Y1802356D01*
X3024741Y1802489D01*
X3025307Y1802622D01*
X3025973Y1802756D01*
X3026672Y1802889D01*
X3027405Y1803022D01*
X3028204Y1803155D01*
X3029037Y1803255D01*
X3029936Y1803322D01*
X3030868Y1803388D01*
X3031800D01*
X3031834D01*
X3032000D01*
X3032233D01*
X3032533D01*
X3032899Y1803355D01*
D02*
G37*
G36*
X4825682Y953093D02*
X4826048D01*
X4826514Y953027D01*
X4827080Y952960D01*
X4827680Y952860D01*
X4828312Y952760D01*
X4829012Y952594D01*
X4829711Y952394D01*
X4830444Y952128D01*
X4831176Y951828D01*
X4831909Y951495D01*
X4832608Y951062D01*
X4833274Y950596D01*
X4833907Y950063D01*
X4833940Y950030D01*
X4834040Y949930D01*
X4834206Y949763D01*
X4834406Y949530D01*
X4834673Y949230D01*
X4834939Y948864D01*
X4835205Y948431D01*
X4835538Y947965D01*
X4835838Y947432D01*
X4836105Y946866D01*
X4836404Y946233D01*
X4836637Y945567D01*
X4836837Y944868D01*
X4837004Y944102D01*
X4837104Y943303D01*
X4837137Y942471D01*
Y942437D01*
Y942371D01*
Y942237D01*
Y942071D01*
X4837104Y941871D01*
Y941605D01*
X4837004Y941039D01*
X4836904Y940339D01*
X4836737Y939573D01*
X4836504Y938741D01*
X4836171Y937908D01*
Y937875D01*
X4836138Y937808D01*
X4836071Y937675D01*
X4836005Y937542D01*
X4835905Y937309D01*
X4835771Y937076D01*
X4835605Y936809D01*
X4835439Y936510D01*
X4835006Y935811D01*
X4834473Y935011D01*
X4833807Y934145D01*
X4833041Y933246D01*
X4833008Y933213D01*
X4832941Y933146D01*
X4832808Y932980D01*
X4832641Y932780D01*
X4832375Y932547D01*
X4832075Y932247D01*
X4831742Y931881D01*
X4831343Y931481D01*
X4830843Y931015D01*
X4830310Y930516D01*
X4829744Y929950D01*
X4829078Y929350D01*
X4828379Y928718D01*
X4827580Y928018D01*
X4826747Y927286D01*
X4825815Y926486D01*
X4825782Y926453D01*
X4825615Y926320D01*
X4825415Y926154D01*
X4825115Y925920D01*
X4824783Y925621D01*
X4824416Y925288D01*
X4823983Y924921D01*
X4823550Y924555D01*
X4822618Y923756D01*
X4821719Y922957D01*
X4821319Y922590D01*
X4820920Y922224D01*
X4820620Y921924D01*
X4820354Y921658D01*
X4820287Y921591D01*
X4820154Y921458D01*
X4819921Y921192D01*
X4819654Y920859D01*
X4819355Y920492D01*
X4819022Y920060D01*
X4818689Y919593D01*
X4818389Y919127D01*
X4837203D01*
Y914598D01*
X4811829D01*
Y914632D01*
Y914665D01*
Y914765D01*
Y914898D01*
Y915231D01*
X4811862Y915631D01*
X4811929Y916130D01*
X4812029Y916696D01*
X4812162Y917262D01*
X4812362Y917862D01*
Y917895D01*
X4812395Y917995D01*
X4812462Y918128D01*
X4812561Y918295D01*
X4812661Y918528D01*
X4812794Y918827D01*
X4812928Y919127D01*
X4813127Y919460D01*
X4813527Y920259D01*
X4814093Y921092D01*
X4814726Y922024D01*
X4815458Y922957D01*
X4815492Y922990D01*
X4815558Y923057D01*
X4815692Y923223D01*
X4815858Y923390D01*
X4816091Y923623D01*
X4816358Y923922D01*
X4816657Y924255D01*
X4817024Y924622D01*
X4817457Y925021D01*
X4817889Y925454D01*
X4818422Y925954D01*
X4818955Y926453D01*
X4819554Y926986D01*
X4820187Y927552D01*
X4820886Y928152D01*
X4821619Y928751D01*
X4821652D01*
X4821686Y928817D01*
X4821885Y928984D01*
X4822218Y929250D01*
X4822618Y929617D01*
X4823151Y930050D01*
X4823717Y930549D01*
X4824350Y931115D01*
X4825016Y931715D01*
X4825715Y932347D01*
X4826448Y933013D01*
X4827147Y933679D01*
X4827846Y934379D01*
X4828479Y935045D01*
X4829078Y935711D01*
X4829611Y936310D01*
X4830077Y936909D01*
X4830110Y936943D01*
X4830177Y937043D01*
X4830277Y937209D01*
X4830410Y937409D01*
X4830577Y937675D01*
X4830776Y938008D01*
X4830976Y938341D01*
X4831176Y938741D01*
X4831576Y939607D01*
X4831942Y940572D01*
X4832075Y941072D01*
X4832175Y941571D01*
X4832242Y942071D01*
X4832275Y942570D01*
Y942604D01*
Y942704D01*
Y942837D01*
X4832242Y943037D01*
X4832208Y943270D01*
X4832175Y943569D01*
X4832109Y943869D01*
X4832042Y944202D01*
X4831775Y944968D01*
X4831642Y945334D01*
X4831443Y945734D01*
X4831209Y946134D01*
X4830943Y946533D01*
X4830643Y946933D01*
X4830277Y947299D01*
X4830244Y947332D01*
X4830177Y947399D01*
X4830077Y947466D01*
X4829911Y947599D01*
X4829711Y947732D01*
X4829478Y947898D01*
X4829211Y948098D01*
X4828878Y948265D01*
X4828512Y948431D01*
X4828113Y948631D01*
X4827680Y948798D01*
X4827213Y948931D01*
X4826747Y949064D01*
X4826214Y949164D01*
X4825648Y949197D01*
X4825049Y949230D01*
X4824716D01*
X4824483Y949197D01*
X4824216Y949164D01*
X4823883Y949130D01*
X4823484Y949064D01*
X4823084Y948964D01*
X4822218Y948731D01*
X4821785Y948564D01*
X4821319Y948365D01*
X4820886Y948131D01*
X4820453Y947832D01*
X4820021Y947532D01*
X4819621Y947166D01*
X4819588Y947133D01*
X4819521Y947066D01*
X4819421Y946966D01*
X4819321Y946799D01*
X4819155Y946566D01*
X4818988Y946333D01*
X4818788Y946034D01*
X4818622Y945701D01*
X4818422Y945301D01*
X4818222Y944868D01*
X4818056Y944402D01*
X4817923Y943902D01*
X4817789Y943370D01*
X4817690Y942770D01*
X4817623Y942171D01*
X4817590Y941505D01*
X4812728Y942004D01*
Y942071D01*
X4812761Y942237D01*
X4812794Y942537D01*
X4812861Y942903D01*
X4812928Y943336D01*
X4813061Y943869D01*
X4813194Y944435D01*
X4813361Y945068D01*
X4813594Y945734D01*
X4813827Y946400D01*
X4814127Y947099D01*
X4814493Y947765D01*
X4814892Y948465D01*
X4815325Y949097D01*
X4815858Y949697D01*
X4816424Y950263D01*
X4816458Y950296D01*
X4816591Y950396D01*
X4816757Y950529D01*
X4817024Y950696D01*
X4817357Y950929D01*
X4817756Y951162D01*
X4818222Y951428D01*
X4818755Y951695D01*
X4819321Y951961D01*
X4819987Y952227D01*
X4820720Y952461D01*
X4821486Y952694D01*
X4822318Y952860D01*
X4823217Y952993D01*
X4824150Y953093D01*
X4825149Y953126D01*
X4825382D01*
X4825682Y953093D01*
D02*
G37*
G36*
X4790350Y952960D02*
X4790816D01*
X4791349Y952927D01*
X4792448Y952860D01*
X4793580Y952760D01*
X4794679Y952627D01*
X4795179Y952527D01*
X4795645Y952427D01*
X4795678D01*
X4795778Y952394D01*
X4795978Y952361D01*
X4796211Y952294D01*
X4796477Y952194D01*
X4796810Y952094D01*
X4797177Y951961D01*
X4797576Y951794D01*
X4798475Y951428D01*
X4799408Y950929D01*
X4800374Y950363D01*
X4801273Y949663D01*
X4801306Y949630D01*
X4801406Y949530D01*
X4801572Y949397D01*
X4801772Y949197D01*
X4802039Y948964D01*
X4802305Y948631D01*
X4802638Y948298D01*
X4802971Y947898D01*
X4803337Y947432D01*
X4803704Y946933D01*
X4804103Y946400D01*
X4804470Y945801D01*
X4804836Y945201D01*
X4805169Y944535D01*
X4805502Y943836D01*
X4805801Y943103D01*
X4805835Y943070D01*
X4805868Y942937D01*
X4805935Y942704D01*
X4806035Y942404D01*
X4806168Y942004D01*
X4806301Y941571D01*
X4806434Y941039D01*
X4806567Y940472D01*
X4806701Y939807D01*
X4806834Y939107D01*
X4806967Y938375D01*
X4807100Y937575D01*
X4807200Y936743D01*
X4807267Y935844D01*
X4807333Y934911D01*
Y933979D01*
Y933946D01*
Y933779D01*
Y933546D01*
Y933246D01*
X4807300Y932880D01*
X4807267Y932414D01*
X4807233Y931914D01*
X4807200Y931382D01*
X4807167Y930782D01*
X4807067Y930183D01*
X4806900Y928851D01*
X4806634Y927519D01*
X4806301Y926220D01*
Y926187D01*
X4806268Y926087D01*
X4806201Y925887D01*
X4806101Y925654D01*
X4806001Y925388D01*
X4805901Y925055D01*
X4805735Y924655D01*
X4805602Y924255D01*
X4805202Y923390D01*
X4804769Y922457D01*
X4804236Y921491D01*
X4803670Y920626D01*
X4803637Y920592D01*
X4803604Y920526D01*
X4803504Y920426D01*
X4803404Y920259D01*
X4803071Y919860D01*
X4802638Y919360D01*
X4802105Y918827D01*
X4801506Y918228D01*
X4800873Y917662D01*
X4800174Y917163D01*
X4800141D01*
X4800074Y917096D01*
X4799974Y917029D01*
X4799841Y916963D01*
X4799641Y916863D01*
X4799441Y916730D01*
X4799175Y916596D01*
X4798875Y916463D01*
X4798209Y916130D01*
X4797443Y915831D01*
X4796544Y915497D01*
X4795578Y915231D01*
X4795545D01*
X4795445Y915198D01*
X4795312Y915164D01*
X4795112Y915131D01*
X4794846Y915098D01*
X4794546Y915031D01*
X4794213Y914965D01*
X4793814Y914931D01*
X4793381Y914865D01*
X4792914Y914798D01*
X4792382Y914732D01*
X4791849Y914698D01*
X4790683Y914632D01*
X4789418Y914598D01*
X4775598D01*
Y952993D01*
X4789917D01*
X4790350Y952960D01*
D02*
G37*
G36*
X4830177Y442598D02*
X4825449D01*
Y472602D01*
X4825415Y472568D01*
X4825382Y472535D01*
X4825282Y472435D01*
X4825149Y472335D01*
X4824949Y472169D01*
X4824749Y472002D01*
X4824516Y471803D01*
X4824250Y471569D01*
X4823584Y471103D01*
X4822818Y470537D01*
X4821952Y469938D01*
X4820953Y469338D01*
X4820920Y469305D01*
X4820820Y469272D01*
X4820687Y469172D01*
X4820487Y469072D01*
X4820254Y468939D01*
X4819987Y468805D01*
X4819654Y468606D01*
X4819321Y468439D01*
X4818555Y468040D01*
X4817723Y467640D01*
X4816857Y467240D01*
X4816025Y466907D01*
Y471469D01*
X4816058Y471503D01*
X4816191Y471569D01*
X4816424Y471669D01*
X4816691Y471803D01*
X4817024Y471969D01*
X4817423Y472202D01*
X4817856Y472435D01*
X4818356Y472735D01*
X4818888Y473035D01*
X4819421Y473401D01*
X4820587Y474167D01*
X4821785Y475033D01*
X4822918Y475965D01*
X4822951Y475998D01*
X4823051Y476098D01*
X4823184Y476231D01*
X4823417Y476431D01*
X4823650Y476664D01*
X4823917Y476931D01*
X4824216Y477264D01*
X4824549Y477597D01*
X4825249Y478396D01*
X4825948Y479262D01*
X4826581Y480194D01*
X4826880Y480660D01*
X4827114Y481127D01*
X4830177D01*
Y442598D01*
D02*
G37*
G36*
X4790350Y480960D02*
X4790816D01*
X4791349Y480927D01*
X4792448Y480860D01*
X4793580Y480760D01*
X4794679Y480627D01*
X4795179Y480527D01*
X4795645Y480427D01*
X4795678D01*
X4795778Y480394D01*
X4795978Y480361D01*
X4796211Y480294D01*
X4796477Y480194D01*
X4796810Y480094D01*
X4797177Y479961D01*
X4797576Y479795D01*
X4798475Y479428D01*
X4799408Y478929D01*
X4800374Y478363D01*
X4801273Y477663D01*
X4801306Y477630D01*
X4801406Y477530D01*
X4801572Y477397D01*
X4801772Y477197D01*
X4802039Y476964D01*
X4802305Y476631D01*
X4802638Y476298D01*
X4802971Y475898D01*
X4803337Y475432D01*
X4803704Y474933D01*
X4804103Y474400D01*
X4804470Y473800D01*
X4804836Y473201D01*
X4805169Y472535D01*
X4805502Y471836D01*
X4805801Y471103D01*
X4805835Y471070D01*
X4805868Y470937D01*
X4805935Y470704D01*
X4806035Y470404D01*
X4806168Y470004D01*
X4806301Y469571D01*
X4806434Y469039D01*
X4806567Y468473D01*
X4806701Y467807D01*
X4806834Y467107D01*
X4806967Y466375D01*
X4807100Y465575D01*
X4807200Y464743D01*
X4807267Y463844D01*
X4807333Y462911D01*
Y461979D01*
Y461946D01*
Y461779D01*
Y461546D01*
Y461246D01*
X4807300Y460880D01*
X4807267Y460414D01*
X4807233Y459914D01*
X4807200Y459382D01*
X4807167Y458782D01*
X4807067Y458183D01*
X4806900Y456851D01*
X4806634Y455519D01*
X4806301Y454220D01*
Y454187D01*
X4806268Y454087D01*
X4806201Y453887D01*
X4806101Y453654D01*
X4806001Y453388D01*
X4805901Y453055D01*
X4805735Y452655D01*
X4805602Y452255D01*
X4805202Y451390D01*
X4804769Y450457D01*
X4804236Y449491D01*
X4803670Y448626D01*
X4803637Y448592D01*
X4803604Y448526D01*
X4803504Y448426D01*
X4803404Y448259D01*
X4803071Y447860D01*
X4802638Y447360D01*
X4802105Y446827D01*
X4801506Y446228D01*
X4800873Y445662D01*
X4800174Y445163D01*
X4800141D01*
X4800074Y445096D01*
X4799974Y445029D01*
X4799841Y444963D01*
X4799641Y444863D01*
X4799441Y444730D01*
X4799175Y444596D01*
X4798875Y444463D01*
X4798209Y444130D01*
X4797443Y443830D01*
X4796544Y443498D01*
X4795578Y443231D01*
X4795545D01*
X4795445Y443198D01*
X4795312Y443164D01*
X4795112Y443131D01*
X4794846Y443098D01*
X4794546Y443031D01*
X4794213Y442965D01*
X4793814Y442931D01*
X4793381Y442865D01*
X4792914Y442798D01*
X4792382Y442732D01*
X4791849Y442698D01*
X4790683Y442632D01*
X4789418Y442598D01*
X4775598D01*
Y480993D01*
X4789917D01*
X4790350Y480960D01*
D02*
G37*
G36*
X4832242Y1873118D02*
X4837436D01*
Y1868789D01*
X4832242D01*
Y1859598D01*
X4827513D01*
Y1868789D01*
X4810863D01*
Y1873118D01*
X4828379Y1897993D01*
X4832242D01*
Y1873118D01*
D02*
G37*
G36*
X4790350Y1897960D02*
X4790816D01*
X4791349Y1897927D01*
X4792448Y1897860D01*
X4793580Y1897760D01*
X4794679Y1897627D01*
X4795179Y1897527D01*
X4795645Y1897427D01*
X4795678D01*
X4795778Y1897394D01*
X4795978Y1897361D01*
X4796211Y1897294D01*
X4796477Y1897194D01*
X4796810Y1897094D01*
X4797177Y1896961D01*
X4797576Y1896794D01*
X4798475Y1896428D01*
X4799408Y1895929D01*
X4800374Y1895363D01*
X4801273Y1894663D01*
X4801306Y1894630D01*
X4801406Y1894530D01*
X4801572Y1894397D01*
X4801772Y1894197D01*
X4802039Y1893964D01*
X4802305Y1893631D01*
X4802638Y1893298D01*
X4802971Y1892898D01*
X4803337Y1892432D01*
X4803704Y1891933D01*
X4804103Y1891400D01*
X4804470Y1890801D01*
X4804836Y1890201D01*
X4805169Y1889535D01*
X4805502Y1888836D01*
X4805801Y1888103D01*
X4805835Y1888070D01*
X4805868Y1887937D01*
X4805935Y1887704D01*
X4806035Y1887404D01*
X4806168Y1887004D01*
X4806301Y1886571D01*
X4806434Y1886039D01*
X4806567Y1885473D01*
X4806701Y1884806D01*
X4806834Y1884107D01*
X4806967Y1883375D01*
X4807100Y1882575D01*
X4807200Y1881743D01*
X4807267Y1880844D01*
X4807333Y1879911D01*
Y1878979D01*
Y1878946D01*
Y1878779D01*
Y1878546D01*
Y1878246D01*
X4807300Y1877880D01*
X4807267Y1877414D01*
X4807233Y1876914D01*
X4807200Y1876382D01*
X4807167Y1875782D01*
X4807067Y1875183D01*
X4806900Y1873851D01*
X4806634Y1872519D01*
X4806301Y1871220D01*
Y1871187D01*
X4806268Y1871087D01*
X4806201Y1870887D01*
X4806101Y1870654D01*
X4806001Y1870388D01*
X4805901Y1870055D01*
X4805735Y1869655D01*
X4805602Y1869255D01*
X4805202Y1868390D01*
X4804769Y1867457D01*
X4804236Y1866492D01*
X4803670Y1865626D01*
X4803637Y1865592D01*
X4803604Y1865526D01*
X4803504Y1865426D01*
X4803404Y1865259D01*
X4803071Y1864860D01*
X4802638Y1864360D01*
X4802105Y1863828D01*
X4801506Y1863228D01*
X4800873Y1862662D01*
X4800174Y1862162D01*
X4800141D01*
X4800074Y1862096D01*
X4799974Y1862029D01*
X4799841Y1861963D01*
X4799641Y1861863D01*
X4799441Y1861730D01*
X4799175Y1861596D01*
X4798875Y1861463D01*
X4798209Y1861130D01*
X4797443Y1860831D01*
X4796544Y1860497D01*
X4795578Y1860231D01*
X4795545D01*
X4795445Y1860198D01*
X4795312Y1860165D01*
X4795112Y1860131D01*
X4794846Y1860098D01*
X4794546Y1860031D01*
X4794213Y1859965D01*
X4793814Y1859931D01*
X4793381Y1859865D01*
X4792914Y1859798D01*
X4792382Y1859732D01*
X4791849Y1859698D01*
X4790683Y1859632D01*
X4789418Y1859598D01*
X4775598D01*
Y1897993D01*
X4789917D01*
X4790350Y1897960D01*
D02*
G37*
G36*
X4824982Y1425093D02*
X4825249D01*
X4825582Y1425060D01*
X4825948Y1425027D01*
X4826348Y1424960D01*
X4827247Y1424793D01*
X4828246Y1424560D01*
X4829245Y1424227D01*
X4830244Y1423761D01*
X4830277D01*
X4830377Y1423695D01*
X4830510Y1423628D01*
X4830677Y1423528D01*
X4830910Y1423395D01*
X4831143Y1423228D01*
X4831742Y1422795D01*
X4832375Y1422296D01*
X4833041Y1421663D01*
X4833707Y1420931D01*
X4834273Y1420098D01*
X4834306Y1420065D01*
X4834340Y1419998D01*
X4834406Y1419865D01*
X4834506Y1419699D01*
X4834606Y1419466D01*
X4834739Y1419232D01*
X4834872Y1418933D01*
X4835006Y1418600D01*
X4835239Y1417867D01*
X4835472Y1417035D01*
X4835638Y1416102D01*
X4835705Y1415636D01*
Y1415137D01*
Y1415103D01*
Y1415037D01*
Y1414903D01*
X4835672Y1414737D01*
Y1414504D01*
X4835638Y1414237D01*
X4835538Y1413638D01*
X4835372Y1412939D01*
X4835139Y1412173D01*
X4834806Y1411407D01*
X4834340Y1410608D01*
Y1410574D01*
X4834273Y1410508D01*
X4834206Y1410408D01*
X4834106Y1410275D01*
X4833774Y1409908D01*
X4833341Y1409442D01*
X4832808Y1408943D01*
X4832109Y1408377D01*
X4831309Y1407877D01*
X4830410Y1407378D01*
X4830444D01*
X4830577Y1407344D01*
X4830743Y1407278D01*
X4830976Y1407211D01*
X4831243Y1407111D01*
X4831576Y1407011D01*
X4831942Y1406845D01*
X4832342Y1406678D01*
X4833207Y1406245D01*
X4833640Y1405979D01*
X4834073Y1405679D01*
X4834506Y1405346D01*
X4834939Y1404947D01*
X4835339Y1404547D01*
X4835705Y1404114D01*
X4835738Y1404081D01*
X4835771Y1404014D01*
X4835871Y1403848D01*
X4836005Y1403681D01*
X4836138Y1403415D01*
X4836304Y1403149D01*
X4836471Y1402815D01*
X4836671Y1402416D01*
X4836837Y1401983D01*
X4837004Y1401517D01*
X4837170Y1401017D01*
X4837303Y1400451D01*
X4837436Y1399885D01*
X4837536Y1399252D01*
X4837570Y1398620D01*
X4837603Y1397920D01*
Y1397854D01*
Y1397687D01*
X4837570Y1397421D01*
X4837536Y1397088D01*
X4837503Y1396655D01*
X4837403Y1396156D01*
X4837303Y1395589D01*
X4837137Y1394957D01*
X4836937Y1394324D01*
X4836704Y1393625D01*
X4836404Y1392925D01*
X4836038Y1392193D01*
X4835605Y1391494D01*
X4835139Y1390761D01*
X4834573Y1390062D01*
X4833907Y1389396D01*
X4833873Y1389362D01*
X4833740Y1389262D01*
X4833540Y1389063D01*
X4833241Y1388863D01*
X4832874Y1388596D01*
X4832441Y1388297D01*
X4831942Y1387997D01*
X4831376Y1387664D01*
X4830743Y1387331D01*
X4830044Y1387031D01*
X4829278Y1386732D01*
X4828445Y1386465D01*
X4827580Y1386265D01*
X4826647Y1386099D01*
X4825682Y1385966D01*
X4824649Y1385932D01*
X4824416D01*
X4824150Y1385966D01*
X4823817D01*
X4823384Y1386032D01*
X4822884Y1386099D01*
X4822318Y1386199D01*
X4821719Y1386299D01*
X4821053Y1386465D01*
X4820387Y1386665D01*
X4819688Y1386898D01*
X4818988Y1387198D01*
X4818256Y1387531D01*
X4817590Y1387930D01*
X4816890Y1388397D01*
X4816258Y1388929D01*
X4816224Y1388963D01*
X4816124Y1389063D01*
X4815958Y1389229D01*
X4815725Y1389495D01*
X4815458Y1389795D01*
X4815192Y1390128D01*
X4814859Y1390561D01*
X4814526Y1391061D01*
X4814193Y1391593D01*
X4813860Y1392159D01*
X4813560Y1392825D01*
X4813261Y1393525D01*
X4812994Y1394257D01*
X4812761Y1395057D01*
X4812595Y1395889D01*
X4812462Y1396755D01*
X4817190Y1397388D01*
Y1397354D01*
X4817223Y1397221D01*
X4817290Y1397021D01*
X4817357Y1396722D01*
X4817423Y1396389D01*
X4817556Y1396022D01*
X4817690Y1395589D01*
X4817823Y1395157D01*
X4818222Y1394191D01*
X4818689Y1393258D01*
X4818955Y1392792D01*
X4819255Y1392359D01*
X4819588Y1391960D01*
X4819921Y1391593D01*
X4819954Y1391560D01*
X4820021Y1391527D01*
X4820120Y1391427D01*
X4820287Y1391327D01*
X4820453Y1391194D01*
X4820687Y1391027D01*
X4820953Y1390861D01*
X4821253Y1390728D01*
X4821952Y1390395D01*
X4822751Y1390095D01*
X4823684Y1389895D01*
X4824183Y1389862D01*
X4824683Y1389829D01*
X4825016D01*
X4825249Y1389862D01*
X4825515Y1389895D01*
X4825848Y1389962D01*
X4826214Y1390028D01*
X4826647Y1390128D01*
X4827080Y1390228D01*
X4827513Y1390395D01*
X4827979Y1390561D01*
X4828479Y1390794D01*
X4828945Y1391061D01*
X4829411Y1391360D01*
X4829877Y1391727D01*
X4830310Y1392126D01*
X4830344Y1392159D01*
X4830410Y1392226D01*
X4830510Y1392359D01*
X4830677Y1392526D01*
X4830843Y1392759D01*
X4831043Y1393025D01*
X4831243Y1393358D01*
X4831476Y1393691D01*
X4831676Y1394091D01*
X4831875Y1394524D01*
X4832075Y1394990D01*
X4832242Y1395489D01*
X4832408Y1396022D01*
X4832508Y1396588D01*
X4832575Y1397188D01*
X4832608Y1397821D01*
Y1397854D01*
Y1397954D01*
Y1398120D01*
X4832575Y1398353D01*
X4832541Y1398653D01*
X4832508Y1398953D01*
X4832441Y1399319D01*
X4832342Y1399719D01*
X4832075Y1400551D01*
X4831909Y1401017D01*
X4831709Y1401450D01*
X4831476Y1401916D01*
X4831176Y1402349D01*
X4830843Y1402782D01*
X4830477Y1403182D01*
X4830444Y1403215D01*
X4830377Y1403282D01*
X4830244Y1403382D01*
X4830110Y1403515D01*
X4829877Y1403681D01*
X4829644Y1403848D01*
X4829345Y1404048D01*
X4829012Y1404247D01*
X4828645Y1404414D01*
X4828212Y1404614D01*
X4827779Y1404780D01*
X4827313Y1404947D01*
X4826780Y1405080D01*
X4826248Y1405180D01*
X4825682Y1405246D01*
X4825082Y1405280D01*
X4824849D01*
X4824549Y1405246D01*
X4824183Y1405213D01*
X4823684Y1405147D01*
X4823118Y1405080D01*
X4822485Y1404947D01*
X4821752Y1404780D01*
X4822285Y1408909D01*
X4822352D01*
X4822551Y1408876D01*
X4822818Y1408843D01*
X4823351D01*
X4823550Y1408876D01*
X4823817D01*
X4824117Y1408943D01*
X4824483Y1408976D01*
X4824849Y1409043D01*
X4825682Y1409242D01*
X4826581Y1409509D01*
X4827513Y1409908D01*
X4827979Y1410141D01*
X4828445Y1410408D01*
X4828479Y1410441D01*
X4828545Y1410475D01*
X4828679Y1410574D01*
X4828812Y1410708D01*
X4829012Y1410874D01*
X4829211Y1411074D01*
X4829411Y1411307D01*
X4829644Y1411607D01*
X4829877Y1411940D01*
X4830077Y1412273D01*
X4830277Y1412672D01*
X4830477Y1413105D01*
X4830610Y1413605D01*
X4830743Y1414104D01*
X4830810Y1414670D01*
X4830843Y1415270D01*
Y1415303D01*
Y1415370D01*
Y1415503D01*
X4830810Y1415703D01*
X4830776Y1415902D01*
X4830743Y1416169D01*
X4830610Y1416768D01*
X4830410Y1417434D01*
X4830110Y1418167D01*
X4829911Y1418500D01*
X4829678Y1418866D01*
X4829378Y1419199D01*
X4829078Y1419532D01*
X4829045Y1419565D01*
X4829012Y1419599D01*
X4828912Y1419699D01*
X4828745Y1419799D01*
X4828579Y1419932D01*
X4828379Y1420065D01*
X4828146Y1420231D01*
X4827846Y1420398D01*
X4827213Y1420731D01*
X4826414Y1420997D01*
X4825548Y1421197D01*
X4825049Y1421230D01*
X4824549Y1421264D01*
X4824283D01*
X4824083Y1421230D01*
X4823850Y1421197D01*
X4823584Y1421164D01*
X4822951Y1421064D01*
X4822252Y1420831D01*
X4821486Y1420531D01*
X4821086Y1420331D01*
X4820720Y1420098D01*
X4820354Y1419832D01*
X4819987Y1419532D01*
X4819954Y1419499D01*
X4819921Y1419466D01*
X4819821Y1419366D01*
X4819688Y1419199D01*
X4819554Y1419033D01*
X4819388Y1418800D01*
X4819188Y1418533D01*
X4819022Y1418233D01*
X4818822Y1417900D01*
X4818622Y1417501D01*
X4818422Y1417068D01*
X4818222Y1416602D01*
X4818056Y1416102D01*
X4817889Y1415569D01*
X4817756Y1414970D01*
X4817656Y1414337D01*
X4812928Y1415170D01*
Y1415236D01*
X4812961Y1415370D01*
X4813028Y1415636D01*
X4813094Y1415936D01*
X4813227Y1416335D01*
X4813361Y1416802D01*
X4813527Y1417301D01*
X4813727Y1417867D01*
X4813960Y1418433D01*
X4814260Y1419033D01*
X4814559Y1419632D01*
X4814926Y1420265D01*
X4815325Y1420864D01*
X4815792Y1421430D01*
X4816291Y1421996D01*
X4816824Y1422496D01*
X4816857Y1422529D01*
X4816957Y1422596D01*
X4817123Y1422729D01*
X4817390Y1422895D01*
X4817690Y1423095D01*
X4818023Y1423328D01*
X4818456Y1423561D01*
X4818922Y1423828D01*
X4819454Y1424061D01*
X4820021Y1424294D01*
X4820653Y1424527D01*
X4821319Y1424727D01*
X4822052Y1424893D01*
X4822818Y1425027D01*
X4823617Y1425093D01*
X4824449Y1425127D01*
X4824749D01*
X4824982Y1425093D01*
D02*
G37*
G36*
X4790350Y1424960D02*
X4790816D01*
X4791349Y1424927D01*
X4792448Y1424860D01*
X4793580Y1424760D01*
X4794679Y1424627D01*
X4795179Y1424527D01*
X4795645Y1424427D01*
X4795678D01*
X4795778Y1424394D01*
X4795978Y1424361D01*
X4796211Y1424294D01*
X4796477Y1424194D01*
X4796810Y1424094D01*
X4797177Y1423961D01*
X4797576Y1423794D01*
X4798475Y1423428D01*
X4799408Y1422929D01*
X4800374Y1422363D01*
X4801273Y1421663D01*
X4801306Y1421630D01*
X4801406Y1421530D01*
X4801572Y1421397D01*
X4801772Y1421197D01*
X4802039Y1420964D01*
X4802305Y1420631D01*
X4802638Y1420298D01*
X4802971Y1419898D01*
X4803337Y1419432D01*
X4803704Y1418933D01*
X4804103Y1418400D01*
X4804470Y1417801D01*
X4804836Y1417201D01*
X4805169Y1416535D01*
X4805502Y1415836D01*
X4805801Y1415103D01*
X4805835Y1415070D01*
X4805868Y1414937D01*
X4805935Y1414704D01*
X4806035Y1414404D01*
X4806168Y1414004D01*
X4806301Y1413571D01*
X4806434Y1413039D01*
X4806567Y1412473D01*
X4806701Y1411806D01*
X4806834Y1411107D01*
X4806967Y1410375D01*
X4807100Y1409575D01*
X4807200Y1408743D01*
X4807267Y1407844D01*
X4807333Y1406911D01*
Y1405979D01*
Y1405946D01*
Y1405779D01*
Y1405546D01*
Y1405246D01*
X4807300Y1404880D01*
X4807267Y1404414D01*
X4807233Y1403914D01*
X4807200Y1403382D01*
X4807167Y1402782D01*
X4807067Y1402183D01*
X4806900Y1400851D01*
X4806634Y1399519D01*
X4806301Y1398220D01*
Y1398187D01*
X4806268Y1398087D01*
X4806201Y1397887D01*
X4806101Y1397654D01*
X4806001Y1397388D01*
X4805901Y1397055D01*
X4805735Y1396655D01*
X4805602Y1396255D01*
X4805202Y1395390D01*
X4804769Y1394457D01*
X4804236Y1393492D01*
X4803670Y1392626D01*
X4803637Y1392592D01*
X4803604Y1392526D01*
X4803504Y1392426D01*
X4803404Y1392259D01*
X4803071Y1391860D01*
X4802638Y1391360D01*
X4802105Y1390828D01*
X4801506Y1390228D01*
X4800873Y1389662D01*
X4800174Y1389162D01*
X4800141D01*
X4800074Y1389096D01*
X4799974Y1389029D01*
X4799841Y1388963D01*
X4799641Y1388863D01*
X4799441Y1388730D01*
X4799175Y1388596D01*
X4798875Y1388463D01*
X4798209Y1388130D01*
X4797443Y1387831D01*
X4796544Y1387497D01*
X4795578Y1387231D01*
X4795545D01*
X4795445Y1387198D01*
X4795312Y1387165D01*
X4795112Y1387131D01*
X4794846Y1387098D01*
X4794546Y1387031D01*
X4794213Y1386965D01*
X4793814Y1386931D01*
X4793381Y1386865D01*
X4792914Y1386798D01*
X4792382Y1386732D01*
X4791849Y1386698D01*
X4790683Y1386632D01*
X4789418Y1386598D01*
X4775598D01*
Y1424993D01*
X4789917D01*
X4790350Y1424960D01*
D02*
G37*
%LPC*%
G36*
X3006307Y1993070D02*
X2976970D01*
Y1984245D01*
X2977003Y1983946D01*
Y1983579D01*
X2977036Y1983146D01*
X2977070Y1982713D01*
X2977136Y1981748D01*
X2977269Y1980782D01*
X2977436Y1979816D01*
X2977536Y1979383D01*
X2977669Y1978950D01*
Y1978917D01*
X2977702Y1978851D01*
X2977736Y1978751D01*
X2977802Y1978584D01*
X2977969Y1978185D01*
X2978169Y1977718D01*
X2978468Y1977152D01*
X2978801Y1976586D01*
X2979201Y1976020D01*
X2979667Y1975487D01*
X2979700Y1975454D01*
X2979767Y1975421D01*
X2979867Y1975321D01*
X2980000Y1975188D01*
X2980166Y1975054D01*
X2980400Y1974855D01*
X2980666Y1974655D01*
X2980932Y1974455D01*
X2981265Y1974255D01*
X2981632Y1974022D01*
X2982031Y1973789D01*
X2982464Y1973556D01*
X2983430Y1973090D01*
X2984495Y1972690D01*
X2984529D01*
X2984629Y1972657D01*
X2984795Y1972590D01*
X2985028Y1972524D01*
X2985328Y1972457D01*
X2985694Y1972357D01*
X2986094Y1972257D01*
X2986560Y1972157D01*
X2987093Y1972091D01*
X2987659Y1971991D01*
X2988258Y1971891D01*
X2988924Y1971824D01*
X2989624Y1971758D01*
X2990356Y1971691D01*
X2991122Y1971658D01*
X2991921D01*
X2991955D01*
X2991988D01*
X2992188D01*
X2992488D01*
X2992920Y1971691D01*
X2993420Y1971724D01*
X2993986Y1971758D01*
X2994652Y1971824D01*
X2995351Y1971891D01*
X2996084Y1972024D01*
X2996816Y1972157D01*
X2997616Y1972291D01*
X2998382Y1972490D01*
X2999114Y1972723D01*
X2999847Y1972990D01*
X3000546Y1973290D01*
X3001179Y1973656D01*
X3001212Y1973689D01*
X3001312Y1973756D01*
X3001479Y1973856D01*
X3001712Y1974022D01*
X3001978Y1974189D01*
X3002244Y1974422D01*
X3002577Y1974688D01*
X3002944Y1974988D01*
X3003643Y1975687D01*
X3004376Y1976520D01*
X3004709Y1976953D01*
X3005008Y1977419D01*
X3005275Y1977918D01*
X3005508Y1978451D01*
Y1978484D01*
X3005541Y1978551D01*
X3005574Y1978651D01*
X3005641Y1978851D01*
X3005708Y1979050D01*
X3005774Y1979317D01*
X3005841Y1979650D01*
X3005907Y1980016D01*
X3005974Y1980449D01*
X3006041Y1980948D01*
X3006107Y1981481D01*
X3006174Y1982081D01*
X3006240Y1982713D01*
X3006274Y1983413D01*
X3006307Y1984179D01*
Y1993070D01*
D02*
G37*
G36*
X3032500Y1798160D02*
X3031701D01*
X3031667D01*
X3031634D01*
X3031434D01*
X3031135D01*
X3030702Y1798127D01*
X3030202Y1798094D01*
X3029636Y1798060D01*
X3028970Y1797994D01*
X3028271Y1797927D01*
X3027538Y1797794D01*
X3026805Y1797661D01*
X3026006Y1797528D01*
X3025240Y1797328D01*
X3024508Y1797095D01*
X3023775Y1796828D01*
X3023076Y1796529D01*
X3022443Y1796162D01*
X3022410Y1796129D01*
X3022310Y1796062D01*
X3022144Y1795963D01*
X3021910Y1795796D01*
X3021644Y1795630D01*
X3021378Y1795396D01*
X3021045Y1795130D01*
X3020678Y1794830D01*
X3019979Y1794131D01*
X3019246Y1793299D01*
X3018913Y1792866D01*
X3018614Y1792399D01*
X3018347Y1791900D01*
X3018114Y1791367D01*
Y1791334D01*
X3018081Y1791267D01*
X3018048Y1791167D01*
X3017981Y1790967D01*
X3017914Y1790768D01*
X3017848Y1790501D01*
X3017781Y1790168D01*
X3017715Y1789802D01*
X3017648Y1789369D01*
X3017581Y1788870D01*
X3017515Y1788337D01*
X3017448Y1787737D01*
X3017382Y1787105D01*
X3017348Y1786405D01*
X3017315Y1785639D01*
Y1776748D01*
X3046652D01*
Y1785573D01*
X3046619Y1785873D01*
Y1786239D01*
X3046586Y1786672D01*
X3046552Y1787105D01*
X3046486Y1788070D01*
X3046353Y1789036D01*
X3046186Y1790002D01*
X3046086Y1790435D01*
X3045953Y1790868D01*
Y1790901D01*
X3045920Y1790967D01*
X3045886Y1791067D01*
X3045820Y1791234D01*
X3045653Y1791633D01*
X3045454Y1792100D01*
X3045154Y1792666D01*
X3044821Y1793232D01*
X3044421Y1793798D01*
X3043955Y1794331D01*
X3043922Y1794364D01*
X3043855Y1794397D01*
X3043755Y1794497D01*
X3043622Y1794630D01*
X3043456Y1794764D01*
X3043222Y1794964D01*
X3042956Y1795163D01*
X3042690Y1795363D01*
X3042357Y1795563D01*
X3041990Y1795796D01*
X3041591Y1796029D01*
X3041158Y1796262D01*
X3040192Y1796728D01*
X3039126Y1797128D01*
X3039093D01*
X3038993Y1797161D01*
X3038827Y1797228D01*
X3038594Y1797294D01*
X3038294Y1797361D01*
X3037928Y1797461D01*
X3037528Y1797561D01*
X3037062Y1797661D01*
X3036529Y1797727D01*
X3035963Y1797827D01*
X3035364Y1797927D01*
X3034698Y1797994D01*
X3033998Y1798060D01*
X3033266Y1798127D01*
X3032500Y1798160D01*
D02*
G37*
G36*
X4789584Y948465D02*
X4780693D01*
Y919127D01*
X4789518D01*
X4789818Y919160D01*
X4790184D01*
X4790617Y919194D01*
X4791050Y919227D01*
X4792015Y919294D01*
X4792981Y919427D01*
X4793947Y919593D01*
X4794380Y919693D01*
X4794812Y919827D01*
X4794846D01*
X4794912Y919860D01*
X4795012Y919893D01*
X4795179Y919960D01*
X4795578Y920126D01*
X4796045Y920326D01*
X4796611Y920626D01*
X4797177Y920959D01*
X4797743Y921358D01*
X4798276Y921824D01*
X4798309Y921858D01*
X4798342Y921924D01*
X4798442Y922024D01*
X4798575Y922158D01*
X4798709Y922324D01*
X4798908Y922557D01*
X4799108Y922823D01*
X4799308Y923090D01*
X4799508Y923423D01*
X4799741Y923789D01*
X4799974Y924189D01*
X4800207Y924622D01*
X4800673Y925587D01*
X4801073Y926653D01*
Y926686D01*
X4801106Y926786D01*
X4801173Y926953D01*
X4801239Y927186D01*
X4801306Y927486D01*
X4801406Y927852D01*
X4801506Y928251D01*
X4801606Y928718D01*
X4801672Y929250D01*
X4801772Y929817D01*
X4801872Y930416D01*
X4801939Y931082D01*
X4802005Y931781D01*
X4802072Y932514D01*
X4802105Y933280D01*
Y934079D01*
Y934112D01*
Y934145D01*
Y934345D01*
Y934645D01*
X4802072Y935078D01*
X4802039Y935577D01*
X4802005Y936144D01*
X4801939Y936809D01*
X4801872Y937509D01*
X4801739Y938241D01*
X4801606Y938974D01*
X4801472Y939773D01*
X4801273Y940539D01*
X4801040Y941272D01*
X4800773Y942004D01*
X4800474Y942704D01*
X4800107Y943336D01*
X4800074Y943370D01*
X4800007Y943470D01*
X4799907Y943636D01*
X4799741Y943869D01*
X4799574Y944135D01*
X4799341Y944402D01*
X4799075Y944735D01*
X4798775Y945101D01*
X4798076Y945801D01*
X4797243Y946533D01*
X4796810Y946866D01*
X4796344Y947166D01*
X4795845Y947432D01*
X4795312Y947665D01*
X4795279D01*
X4795212Y947699D01*
X4795112Y947732D01*
X4794912Y947798D01*
X4794713Y947865D01*
X4794446Y947932D01*
X4794113Y947998D01*
X4793747Y948065D01*
X4793314Y948131D01*
X4792815Y948198D01*
X4792282Y948265D01*
X4791682Y948331D01*
X4791050Y948398D01*
X4790350Y948431D01*
X4789584Y948465D01*
D02*
G37*
G36*
Y476464D02*
X4780693D01*
Y447127D01*
X4789518D01*
X4789818Y447161D01*
X4790184D01*
X4790617Y447194D01*
X4791050Y447227D01*
X4792015Y447294D01*
X4792981Y447427D01*
X4793947Y447593D01*
X4794380Y447693D01*
X4794812Y447827D01*
X4794846D01*
X4794912Y447860D01*
X4795012Y447893D01*
X4795179Y447960D01*
X4795578Y448126D01*
X4796045Y448326D01*
X4796611Y448626D01*
X4797177Y448959D01*
X4797743Y449358D01*
X4798276Y449825D01*
X4798309Y449858D01*
X4798342Y449924D01*
X4798442Y450024D01*
X4798575Y450158D01*
X4798709Y450324D01*
X4798908Y450557D01*
X4799108Y450824D01*
X4799308Y451090D01*
X4799508Y451423D01*
X4799741Y451789D01*
X4799974Y452189D01*
X4800207Y452622D01*
X4800673Y453587D01*
X4801073Y454653D01*
Y454686D01*
X4801106Y454786D01*
X4801173Y454953D01*
X4801239Y455186D01*
X4801306Y455486D01*
X4801406Y455852D01*
X4801506Y456251D01*
X4801606Y456718D01*
X4801672Y457250D01*
X4801772Y457817D01*
X4801872Y458416D01*
X4801939Y459082D01*
X4802005Y459781D01*
X4802072Y460514D01*
X4802105Y461280D01*
Y462079D01*
Y462112D01*
Y462146D01*
Y462345D01*
Y462645D01*
X4802072Y463078D01*
X4802039Y463577D01*
X4802005Y464144D01*
X4801939Y464810D01*
X4801872Y465509D01*
X4801739Y466241D01*
X4801606Y466974D01*
X4801472Y467773D01*
X4801273Y468539D01*
X4801040Y469272D01*
X4800773Y470004D01*
X4800474Y470704D01*
X4800107Y471336D01*
X4800074Y471370D01*
X4800007Y471469D01*
X4799907Y471636D01*
X4799741Y471869D01*
X4799574Y472135D01*
X4799341Y472402D01*
X4799075Y472735D01*
X4798775Y473101D01*
X4798076Y473800D01*
X4797243Y474533D01*
X4796810Y474866D01*
X4796344Y475166D01*
X4795845Y475432D01*
X4795312Y475665D01*
X4795279D01*
X4795212Y475699D01*
X4795112Y475732D01*
X4794912Y475798D01*
X4794713Y475865D01*
X4794446Y475932D01*
X4794113Y475998D01*
X4793747Y476065D01*
X4793314Y476132D01*
X4792815Y476198D01*
X4792282Y476265D01*
X4791682Y476331D01*
X4791050Y476398D01*
X4790350Y476431D01*
X4789584Y476464D01*
D02*
G37*
G36*
X4827513Y1890401D02*
X4815492Y1873118D01*
X4827513D01*
Y1890401D01*
D02*
G37*
G36*
X4789584Y1893465D02*
X4780693D01*
Y1864127D01*
X4789518D01*
X4789818Y1864160D01*
X4790184D01*
X4790617Y1864194D01*
X4791050Y1864227D01*
X4792015Y1864294D01*
X4792981Y1864427D01*
X4793947Y1864593D01*
X4794380Y1864693D01*
X4794812Y1864826D01*
X4794846D01*
X4794912Y1864860D01*
X4795012Y1864893D01*
X4795179Y1864960D01*
X4795578Y1865126D01*
X4796045Y1865326D01*
X4796611Y1865626D01*
X4797177Y1865959D01*
X4797743Y1866358D01*
X4798276Y1866824D01*
X4798309Y1866858D01*
X4798342Y1866924D01*
X4798442Y1867024D01*
X4798575Y1867158D01*
X4798709Y1867324D01*
X4798908Y1867557D01*
X4799108Y1867823D01*
X4799308Y1868090D01*
X4799508Y1868423D01*
X4799741Y1868789D01*
X4799974Y1869189D01*
X4800207Y1869622D01*
X4800673Y1870587D01*
X4801073Y1871653D01*
Y1871686D01*
X4801106Y1871786D01*
X4801173Y1871953D01*
X4801239Y1872186D01*
X4801306Y1872486D01*
X4801406Y1872852D01*
X4801506Y1873251D01*
X4801606Y1873718D01*
X4801672Y1874250D01*
X4801772Y1874816D01*
X4801872Y1875416D01*
X4801939Y1876082D01*
X4802005Y1876781D01*
X4802072Y1877514D01*
X4802105Y1878280D01*
Y1879079D01*
Y1879112D01*
Y1879146D01*
Y1879345D01*
Y1879645D01*
X4802072Y1880078D01*
X4802039Y1880577D01*
X4802005Y1881143D01*
X4801939Y1881810D01*
X4801872Y1882509D01*
X4801739Y1883241D01*
X4801606Y1883974D01*
X4801472Y1884773D01*
X4801273Y1885539D01*
X4801040Y1886272D01*
X4800773Y1887004D01*
X4800474Y1887704D01*
X4800107Y1888336D01*
X4800074Y1888370D01*
X4800007Y1888469D01*
X4799907Y1888636D01*
X4799741Y1888869D01*
X4799574Y1889136D01*
X4799341Y1889402D01*
X4799075Y1889735D01*
X4798775Y1890101D01*
X4798076Y1890801D01*
X4797243Y1891533D01*
X4796810Y1891866D01*
X4796344Y1892166D01*
X4795845Y1892432D01*
X4795312Y1892665D01*
X4795279D01*
X4795212Y1892699D01*
X4795112Y1892732D01*
X4794912Y1892799D01*
X4794713Y1892865D01*
X4794446Y1892932D01*
X4794113Y1892998D01*
X4793747Y1893065D01*
X4793314Y1893131D01*
X4792815Y1893198D01*
X4792282Y1893265D01*
X4791682Y1893331D01*
X4791050Y1893398D01*
X4790350Y1893431D01*
X4789584Y1893465D01*
D02*
G37*
G36*
Y1420465D02*
X4780693D01*
Y1391127D01*
X4789518D01*
X4789818Y1391160D01*
X4790184D01*
X4790617Y1391194D01*
X4791050Y1391227D01*
X4792015Y1391294D01*
X4792981Y1391427D01*
X4793947Y1391593D01*
X4794380Y1391693D01*
X4794812Y1391826D01*
X4794846D01*
X4794912Y1391860D01*
X4795012Y1391893D01*
X4795179Y1391960D01*
X4795578Y1392126D01*
X4796045Y1392326D01*
X4796611Y1392626D01*
X4797177Y1392959D01*
X4797743Y1393358D01*
X4798276Y1393824D01*
X4798309Y1393858D01*
X4798342Y1393924D01*
X4798442Y1394024D01*
X4798575Y1394158D01*
X4798709Y1394324D01*
X4798908Y1394557D01*
X4799108Y1394823D01*
X4799308Y1395090D01*
X4799508Y1395423D01*
X4799741Y1395789D01*
X4799974Y1396189D01*
X4800207Y1396622D01*
X4800673Y1397587D01*
X4801073Y1398653D01*
Y1398686D01*
X4801106Y1398786D01*
X4801173Y1398953D01*
X4801239Y1399186D01*
X4801306Y1399486D01*
X4801406Y1399852D01*
X4801506Y1400251D01*
X4801606Y1400718D01*
X4801672Y1401250D01*
X4801772Y1401816D01*
X4801872Y1402416D01*
X4801939Y1403082D01*
X4802005Y1403781D01*
X4802072Y1404514D01*
X4802105Y1405280D01*
Y1406079D01*
Y1406112D01*
Y1406146D01*
Y1406345D01*
Y1406645D01*
X4802072Y1407078D01*
X4802039Y1407577D01*
X4802005Y1408143D01*
X4801939Y1408810D01*
X4801872Y1409509D01*
X4801739Y1410241D01*
X4801606Y1410974D01*
X4801472Y1411773D01*
X4801273Y1412539D01*
X4801040Y1413272D01*
X4800773Y1414004D01*
X4800474Y1414704D01*
X4800107Y1415336D01*
X4800074Y1415370D01*
X4800007Y1415469D01*
X4799907Y1415636D01*
X4799741Y1415869D01*
X4799574Y1416136D01*
X4799341Y1416402D01*
X4799075Y1416735D01*
X4798775Y1417101D01*
X4798076Y1417801D01*
X4797243Y1418533D01*
X4796810Y1418866D01*
X4796344Y1419166D01*
X4795845Y1419432D01*
X4795312Y1419665D01*
X4795279D01*
X4795212Y1419699D01*
X4795112Y1419732D01*
X4794912Y1419799D01*
X4794713Y1419865D01*
X4794446Y1419932D01*
X4794113Y1419998D01*
X4793747Y1420065D01*
X4793314Y1420131D01*
X4792815Y1420198D01*
X4792282Y1420265D01*
X4791682Y1420331D01*
X4791050Y1420398D01*
X4790350Y1420431D01*
X4789584Y1420465D01*
D02*
G37*
%LPD*%
D45*
X4831614Y1833937D02*
X4961614D01*
X4831614Y1361496D02*
X4961614D01*
X4831614Y889055D02*
X4961614D01*
X4831614Y416614D02*
X4961614D01*
D47*
X0Y2074803D02*
X2952756D01*
Y0D02*
Y2074803D01*
X0Y0D02*
X2952756D01*
X0D02*
Y2074803D01*
D50*
X4829998Y1834075D02*
G03*
X4963230Y1834075I66616J-95138D01*
G01*
X4829998Y1361634D02*
G03*
X4963230Y1361634I66616J-95138D01*
G01*
X4829998Y889193D02*
G03*
X4963230Y889193I66616J-95138D01*
G01*
X4829998Y416752D02*
G03*
X4963230Y416752I66616J-95138D01*
G01*
X3067913Y185551D02*
X4412402D01*
X3067913D02*
Y2075315D01*
X4412402Y185551D02*
Y2075315D01*
X3067913D02*
X4412402D01*
%TF.MD5,76ad95bbfc980fcfef16434a7cc24e15*%
M02*
