%TF.GenerationSoftware,Altium Limited,Altium Designer,19.0.10 (269)*%
G04 Layer_Color=255*
%FSLAX26Y26*%
%MOIN*%
%TF.FileFunction,Pads,Top*%
%TF.Part,Single*%
G01*
G75*
%TA.AperFunction,ViaPad*%
%ADD13C,0.059055*%
%TA.AperFunction,ComponentPad*%
%ADD14C,0.082677*%
%ADD15C,0.070866*%
%ADD16C,0.078740*%
%ADD17R,0.078740X0.078740*%
%ADD18C,0.058268*%
D13*
X51181Y1230315D02*
D03*
X139764Y864173D02*
D03*
X51181D02*
D03*
X139764Y1230315D02*
D03*
D14*
X2362205Y2015748D02*
D03*
X2262205D02*
D03*
X2162205D02*
D03*
X590551D02*
D03*
X690551D02*
D03*
X790551D02*
D03*
X2526378Y98425D02*
D03*
X2426378D02*
D03*
X2326378D02*
D03*
X2226378D02*
D03*
X2126378D02*
D03*
X2026378D02*
D03*
X1926378D02*
D03*
X1826378D02*
D03*
X1726378D02*
D03*
X1626378D02*
D03*
X1526378D02*
D03*
X1426378D02*
D03*
X1326378D02*
D03*
X1226378D02*
D03*
X1126378D02*
D03*
X1026378D02*
D03*
X926378D02*
D03*
X826378D02*
D03*
X526378D02*
D03*
X426378D02*
D03*
D15*
X3382677Y703307D02*
D03*
X3500787D02*
D03*
X3618898D02*
D03*
X3737008D02*
D03*
X3855118D02*
D03*
X3973228D02*
D03*
X4091339D02*
D03*
X3441732Y841102D02*
D03*
X3559843D02*
D03*
X3677953D02*
D03*
X3796063D02*
D03*
X3914173D02*
D03*
X4032284D02*
D03*
X3441732Y998583D02*
D03*
X3559843D02*
D03*
X3677953D02*
D03*
X3796063D02*
D03*
X3914173D02*
D03*
X4032284D02*
D03*
X3382677Y1136378D02*
D03*
X3500787D02*
D03*
X3618898D02*
D03*
X3737008D02*
D03*
X3855118D02*
D03*
X3973228D02*
D03*
X4091339D02*
D03*
D16*
X3540157Y1930433D02*
D03*
X3640157D02*
D03*
X3740157D02*
D03*
X3840157D02*
D03*
X3940157D02*
D03*
Y330433D02*
D03*
X3840157D02*
D03*
X3740157D02*
D03*
X3640157D02*
D03*
D17*
X3540157D02*
D03*
D18*
X4896614Y1788937D02*
D03*
Y1688937D02*
D03*
Y1316496D02*
D03*
Y1216496D02*
D03*
Y844055D02*
D03*
Y744055D02*
D03*
Y371614D02*
D03*
Y271614D02*
D03*
%TF.MD5,79a6f47ed9f3c2ebc9ef8801b909a00f*%
M02*
