%TF.GenerationSoftware,Altium Limited,Altium Designer,19.0.10 (269)*%
G04 Layer_Color=65535*
%FSLAX26Y26*%
%MOIN*%
%TF.FileFunction,Legend,Top*%
%TF.Part,Single*%
G01*
G75*
%TA.AperFunction,NonConductor*%
%ADD45C,0.009842*%
%ADD47C,0.019685*%
%ADD48C,0.007874*%
%ADD50C,0.010000*%
%ADD84C,0.015748*%
G36*
X7090367Y1219435D02*
X7091242Y1218560D01*
X7092117Y1217685D01*
Y1216810D01*
Y1213311D01*
X7091242Y1210687D01*
Y1207188D01*
Y1206313D01*
Y1205438D01*
Y1202814D01*
X7090367Y1199314D01*
Y1194940D01*
X7089493Y1189692D01*
X7088618Y1182693D01*
X7087743Y1175695D01*
Y1174820D01*
Y1172196D01*
X7086868Y1167822D01*
Y1162573D01*
X7085993Y1156449D01*
X7085118Y1150326D01*
X7082494Y1135454D01*
X7071997Y1052348D01*
X6995889D01*
X6972269Y1121457D01*
Y1122332D01*
X6971395Y1124082D01*
X6969645Y1127581D01*
X6968770Y1131955D01*
X6964396Y1143327D01*
X6960022Y1154700D01*
Y1155574D01*
X6959147Y1157324D01*
X6958273Y1159948D01*
X6956523Y1163448D01*
X6953899Y1172196D01*
X6951274Y1180069D01*
Y1180944D01*
Y1181818D01*
X6950399Y1185318D01*
X6949525Y1188817D01*
X6948650Y1190566D01*
Y1188817D01*
Y1186192D01*
X6947775Y1180069D01*
X6946900Y1176570D01*
Y1172196D01*
X6946025Y1166072D01*
X6945150Y1159948D01*
X6944276Y1152075D01*
X6943401Y1143327D01*
X6942526Y1132830D01*
X6940776Y1121457D01*
Y1120582D01*
Y1118833D01*
X6939902Y1115334D01*
Y1110960D01*
X6938152Y1100462D01*
X6936403Y1088215D01*
X6934653Y1075968D01*
X6932903Y1064595D01*
X6932029Y1060221D01*
X6931154Y1056722D01*
Y1054098D01*
X6930279Y1052348D01*
Y1050598D01*
X6904910D01*
Y1052348D01*
Y1054098D01*
X6905785Y1057597D01*
Y1060221D01*
Y1063720D01*
X6906659Y1068094D01*
X6907534Y1074218D01*
X6908409Y1080342D01*
X6909284Y1088215D01*
X6910158Y1097838D01*
X6911033Y1109210D01*
X6912783Y1121457D01*
X6914533Y1135454D01*
Y1136329D01*
X6915407Y1138953D01*
Y1143327D01*
X6916282Y1148576D01*
X6917157Y1154700D01*
X6918032Y1161698D01*
X6919781Y1176570D01*
X6921531Y1191441D01*
X6922406Y1198440D01*
X6923280Y1204563D01*
X6924155Y1209812D01*
X6925030Y1214186D01*
Y1216810D01*
Y1217685D01*
X6926780Y1220310D01*
X7003762D01*
X7007261Y1208062D01*
Y1206313D01*
X7008136Y1201939D01*
X7009886Y1195815D01*
X7010761Y1194066D01*
X7012510Y1188817D01*
X7015135Y1180944D01*
X7018634Y1170446D01*
Y1169571D01*
X7019508Y1167822D01*
X7021258Y1165197D01*
X7022133Y1160823D01*
X7025632Y1152075D01*
X7029131Y1141578D01*
Y1140703D01*
X7030006Y1138953D01*
X7031756Y1136329D01*
X7032631Y1131955D01*
X7036130Y1123207D01*
X7039629Y1112709D01*
Y1111834D01*
X7040504Y1110960D01*
X7042253Y1104836D01*
X7044878Y1098712D01*
X7046627Y1091714D01*
Y1090839D01*
X7047502Y1088215D01*
X7048377Y1084716D01*
X7049252Y1083841D01*
Y1084716D01*
X7050127Y1087340D01*
X7051001Y1092589D01*
X7051876Y1096088D01*
X7052751Y1100462D01*
Y1105711D01*
X7054501Y1111834D01*
X7055375Y1119708D01*
X7056250Y1128456D01*
X7057125Y1138953D01*
X7058874Y1150326D01*
Y1151200D01*
Y1152950D01*
X7059749Y1156449D01*
Y1160823D01*
X7061499Y1171321D01*
X7063248Y1184443D01*
X7064123Y1196690D01*
X7065873Y1207188D01*
Y1211562D01*
X7066748Y1215061D01*
Y1217685D01*
Y1218560D01*
X7068497Y1219435D01*
X7071997Y1220310D01*
X7085993D01*
X7090367Y1219435D01*
D02*
G37*
G36*
X7287197Y1217685D02*
Y1215936D01*
X7286323Y1214186D01*
Y1212436D01*
X7285448Y1208937D01*
X7284573Y1204563D01*
X7282823Y1192316D01*
X7196218D01*
X7194468Y1190566D01*
X7193594D01*
X7191844Y1188817D01*
X7190095Y1187067D01*
X7188345Y1184443D01*
Y1183568D01*
Y1181818D01*
X7187470Y1177444D01*
X7186595Y1171321D01*
X7185721Y1163448D01*
X7184846Y1157324D01*
X7183971Y1151200D01*
X7183096Y1144202D01*
X7182221Y1135454D01*
Y1134579D01*
Y1133704D01*
X7181346Y1128456D01*
X7180472Y1120582D01*
X7179597Y1111834D01*
X7178722Y1103086D01*
X7177847Y1095213D01*
X7176972Y1089090D01*
Y1087340D01*
Y1086465D01*
X7177847Y1084716D01*
X7178722Y1082966D01*
X7180472Y1080342D01*
X7182221Y1078592D01*
X7203217D01*
X7208465Y1079467D01*
X7211090D01*
X7211965Y1080342D01*
X7212839D01*
X7214589Y1082091D01*
X7216338Y1083841D01*
X7218088Y1086465D01*
Y1087340D01*
X7218963Y1088215D01*
X7219838Y1090839D01*
X7221587Y1094338D01*
X7222462Y1099587D01*
X7223337Y1105711D01*
X7224212Y1113584D01*
Y1123207D01*
X7192719D01*
Y1125831D01*
Y1127581D01*
X7193594Y1129330D01*
Y1131080D01*
Y1134579D01*
X7194468Y1138953D01*
X7196218Y1151200D01*
X7280199D01*
X7285448Y1150326D01*
X7287197D01*
Y1149451D01*
Y1147701D01*
X7286323Y1144202D01*
X7285448Y1138078D01*
X7284573Y1129330D01*
X7283698Y1123207D01*
X7282823Y1117083D01*
X7281949Y1109210D01*
X7281074Y1100462D01*
Y1099587D01*
Y1098712D01*
X7280199Y1092589D01*
X7279324Y1085590D01*
X7278449Y1075968D01*
X7276700Y1067220D01*
X7275825Y1059346D01*
X7274950Y1054098D01*
Y1052348D01*
Y1051473D01*
X7267077D01*
X7263578Y1050598D01*
X7175223D01*
X7162976Y1051473D01*
X7143730D01*
X7141106Y1052348D01*
X7138481D01*
X7136732Y1053223D01*
X7134107Y1054972D01*
X7130608Y1056722D01*
X7127984Y1060221D01*
X7124485Y1064595D01*
X7120985Y1069844D01*
X7119236Y1075968D01*
Y1076842D01*
Y1077717D01*
Y1081216D01*
Y1086465D01*
Y1094338D01*
X7120110Y1104836D01*
X7120985Y1110960D01*
X7121860Y1117958D01*
X7122735Y1126706D01*
X7123610Y1135454D01*
Y1136329D01*
Y1137204D01*
X7124484Y1142452D01*
X7125359Y1150326D01*
X7127109Y1159074D01*
X7127984Y1167822D01*
X7128859Y1175695D01*
X7129733Y1180944D01*
Y1183568D01*
Y1184443D01*
Y1185318D01*
X7130608Y1187942D01*
X7132358Y1191441D01*
X7134107Y1195815D01*
X7140231Y1205438D01*
X7143730Y1209812D01*
X7148979Y1214186D01*
X7149854Y1215061D01*
X7152478Y1215936D01*
X7156852Y1216810D01*
X7161226Y1217685D01*
X7162101Y1218560D01*
X7164725D01*
X7169974Y1219435D01*
X7183096D01*
X7189220Y1220310D01*
X7287197D01*
Y1217685D01*
D02*
G37*
G36*
X6881290D02*
Y1216810D01*
X6880415Y1213311D01*
Y1210687D01*
Y1207188D01*
X6879541Y1202814D01*
X6878666Y1197565D01*
X6877791Y1190566D01*
X6876916Y1182693D01*
X6876041Y1173070D01*
X6875167Y1161698D01*
X6873417Y1149451D01*
X6871667Y1134579D01*
Y1133704D01*
Y1131080D01*
X6870792Y1126706D01*
X6869918Y1121457D01*
X6869043Y1115334D01*
Y1108335D01*
X6867293Y1093464D01*
X6865544Y1078592D01*
X6864669Y1071594D01*
X6863794Y1064595D01*
X6862919Y1059346D01*
Y1054972D01*
X6862045Y1052348D01*
Y1051473D01*
X6858545D01*
X6855046Y1050598D01*
X6800809D01*
Y1052348D01*
X6801683Y1054098D01*
Y1057597D01*
X6802558Y1061096D01*
Y1064595D01*
X6803433Y1068969D01*
X6804308Y1075093D01*
X6805182Y1082091D01*
X6806057Y1089964D01*
X6807807Y1099587D01*
X6808682Y1110085D01*
X6810431Y1123207D01*
X6812181Y1137204D01*
X6822678Y1220310D01*
X6881290D01*
Y1217685D01*
D02*
G37*
G36*
X6778939D02*
Y1215936D01*
Y1210687D01*
X6778064Y1202814D01*
X6777189Y1192316D01*
X6720327Y1192316D01*
X6714203Y1191441D01*
X6709829D01*
X6708080Y1190566D01*
X6707205D01*
X6706330Y1188817D01*
X6705455Y1187067D01*
X6704581Y1184443D01*
X6703706Y1183568D01*
Y1181818D01*
X6702831Y1178319D01*
X6701956Y1172196D01*
X6700207Y1163447D01*
X6699332Y1158199D01*
X6698457Y1152075D01*
X6697582Y1144202D01*
X6696707Y1135454D01*
X6690584Y1086465D01*
X6692333Y1083841D01*
Y1082966D01*
X6694083Y1080341D01*
X6764942Y1080342D01*
Y1078592D01*
Y1077717D01*
Y1075968D01*
X6764067Y1071594D01*
X6763192Y1064595D01*
X6761443Y1050598D01*
X6692333Y1050598D01*
X6680961Y1051473D01*
X6670463D01*
X6659966Y1052348D01*
X6652093Y1053223D01*
X6648593Y1054098D01*
X6646844Y1054972D01*
X6645969Y1055847D01*
X6641595Y1058472D01*
X6640720Y1060221D01*
X6637221Y1064595D01*
X6633722Y1071593D01*
X6631097Y1082091D01*
Y1083841D01*
Y1086465D01*
X6631972Y1090839D01*
X6632847Y1097838D01*
X6633722Y1106585D01*
X6635471Y1118833D01*
X6636346Y1125831D01*
X6637221Y1133704D01*
Y1134579D01*
Y1136329D01*
X6638096Y1138078D01*
Y1141578D01*
X6638971Y1150325D01*
X6640720Y1159948D01*
X6641595Y1169571D01*
X6643345Y1179194D01*
X6644219Y1186192D01*
X6645094Y1188817D01*
Y1190566D01*
Y1191441D01*
X6646844Y1194065D01*
X6648593Y1198439D01*
X6652092Y1202813D01*
X6655592Y1208062D01*
X6660841Y1213311D01*
X6666964Y1217685D01*
X6674837Y1220310D01*
X6778939Y1220310D01*
Y1217685D01*
D02*
G37*
G36*
X6586483Y1146826D02*
Y1145951D01*
X6587357Y1144202D01*
X6588232Y1140703D01*
X6589982Y1136329D01*
X6591731Y1131080D01*
X6593481Y1124956D01*
X6596980Y1110085D01*
Y1109210D01*
X6597855Y1106585D01*
X6598730Y1103086D01*
X6599605Y1098712D01*
X6602229Y1088215D01*
X6604853Y1077717D01*
Y1076842D01*
X6605728Y1075967D01*
X6606603Y1071593D01*
X6607478Y1067219D01*
Y1065470D01*
Y1064595D01*
X6611852Y1050598D01*
X6548866D01*
X6542743Y1072468D01*
Y1073343D01*
X6541868Y1075967D01*
X6540993Y1079467D01*
X6540118Y1083841D01*
X6538368Y1087340D01*
X6537494Y1090839D01*
X6536619Y1093464D01*
Y1094338D01*
Y1096088D01*
X6468385D01*
X6456137Y1072468D01*
X6442141Y1050598D01*
X6415022D01*
Y1051473D01*
X6415897Y1052348D01*
X6416771Y1054098D01*
X6417646Y1056722D01*
X6420271Y1060221D01*
X6422895Y1065470D01*
X6426394Y1073343D01*
X6431643Y1082091D01*
X6437766Y1092589D01*
X6444765Y1106585D01*
X6454388Y1122332D01*
X6464885Y1140703D01*
X6477132Y1162573D01*
X6491129Y1187942D01*
X6499002Y1201064D01*
X6507751Y1215936D01*
X6509500Y1220310D01*
X6568112D01*
X6586483Y1146826D01*
D02*
G37*
G36*
X6316169Y1217685D02*
X6390527D01*
X6391402Y1216810D01*
X6394901Y1215061D01*
X6399275Y1211562D01*
X6402775Y1206313D01*
X6403649Y1204563D01*
Y1201939D01*
X6404524Y1198439D01*
Y1193191D01*
Y1186192D01*
X6403649Y1177444D01*
X6402775Y1166947D01*
Y1166072D01*
Y1162573D01*
X6401900Y1158199D01*
Y1152950D01*
X6401025Y1146826D01*
Y1141578D01*
X6400150Y1138078D01*
X6399275Y1135454D01*
X6398400Y1133704D01*
X6394901Y1130205D01*
X6387903Y1125831D01*
X6379155Y1123207D01*
X6375656D01*
Y1122332D01*
X6376530Y1121457D01*
X6377405Y1118833D01*
X6378280Y1114459D01*
X6380904Y1107460D01*
X6383529Y1098712D01*
X6387028Y1086465D01*
X6387903Y1084716D01*
X6388778Y1081216D01*
X6390527Y1075093D01*
X6393152Y1068969D01*
X6395776Y1061971D01*
X6397526Y1055847D01*
X6398401Y1052348D01*
X6399275Y1050598D01*
X6334540D01*
X6331916Y1054972D01*
Y1055847D01*
Y1056722D01*
X6331041Y1059346D01*
Y1060221D01*
X6330166Y1062845D01*
X6329291Y1068094D01*
X6326667Y1074218D01*
Y1075093D01*
X6326667Y1075967D01*
X6325792Y1079467D01*
X6324917Y1084716D01*
X6324042Y1089964D01*
X6314420Y1123207D01*
X6298673D01*
X6297798Y1122332D01*
X6296924D01*
Y1121457D01*
Y1120582D01*
X6296049Y1117958D01*
Y1113584D01*
X6295174Y1106585D01*
X6294299Y1097838D01*
X6292550Y1086465D01*
Y1084716D01*
X6291675Y1081216D01*
X6290800Y1075967D01*
X6289925Y1068969D01*
Y1067219D01*
X6289051Y1063720D01*
Y1059346D01*
X6288176Y1054972D01*
Y1054098D01*
Y1053223D01*
X6287301Y1051473D01*
Y1050598D01*
X6227815D01*
Y1052348D01*
Y1054098D01*
X6228689Y1056722D01*
Y1059346D01*
Y1062845D01*
X6229564Y1067219D01*
X6230439Y1072468D01*
X6231314Y1079467D01*
X6232189Y1087340D01*
X6233063Y1096963D01*
X6233938Y1108335D01*
X6235688Y1120582D01*
X6237437Y1135454D01*
Y1136329D01*
X6238312Y1138953D01*
Y1143327D01*
X6239187Y1147701D01*
X6240062Y1153825D01*
X6240936Y1160823D01*
X6242686Y1175695D01*
X6245310Y1190566D01*
X6246185Y1197565D01*
X6247060Y1204563D01*
X6247935Y1209812D01*
X6248810Y1213311D01*
X6249685Y1216810D01*
Y1217685D01*
Y1220310D01*
X6316169Y1217685D01*
D02*
G37*
G36*
X6226065D02*
Y1215936D01*
X6225190Y1212436D01*
Y1209812D01*
Y1206313D01*
X6224315Y1201939D01*
X6223440Y1196690D01*
X6222566Y1189691D01*
X6221691Y1181818D01*
X6220816Y1172196D01*
X6219941Y1160823D01*
X6218192Y1148576D01*
X6216442Y1133704D01*
X6205945Y1050598D01*
X5338143Y1050598D01*
Y1052348D01*
Y1054097D01*
X5339018Y1057597D01*
Y1061096D01*
Y1064595D01*
X5339893Y1068969D01*
X5340767Y1074218D01*
X5341642Y1081216D01*
X5342517Y1089089D01*
X5343392Y1098712D01*
X5344266Y1109210D01*
X5346016Y1121457D01*
X5347766Y1135454D01*
Y1136329D01*
X5348641Y1138953D01*
Y1143327D01*
X5349515Y1148576D01*
X5350390Y1154699D01*
X5351265Y1161698D01*
X5353015Y1176569D01*
X5354764Y1191441D01*
X5355639Y1198439D01*
X5356514Y1204563D01*
X5357389Y1209812D01*
X5358263Y1214186D01*
Y1216810D01*
Y1217685D01*
Y1220309D01*
X6227815Y1220310D01*
X6226065Y1217685D01*
D02*
G37*
G36*
X6202445Y1031353D02*
Y1029603D01*
Y1027853D01*
Y1026979D01*
Y1026104D01*
Y1023480D01*
X6201571Y1019106D01*
Y1018231D01*
Y1015606D01*
X6200696Y1012107D01*
Y1007733D01*
X6196322Y984114D01*
X6149083Y984113D01*
Y983239D01*
Y981489D01*
X6148208Y977990D01*
X6147333Y974491D01*
X6146458Y968367D01*
X6145583Y960494D01*
Y959619D01*
Y956995D01*
X6144709Y952621D01*
Y948247D01*
X6143834Y943873D01*
Y939499D01*
X6142959Y936874D01*
Y935125D01*
X6139460D01*
X6136835Y934250D01*
X6093970D01*
Y936874D01*
Y937749D01*
Y938624D01*
Y940373D01*
X6094845Y943873D01*
Y947372D01*
Y953495D01*
X6095720Y960494D01*
Y961369D01*
X6096595Y963993D01*
X6097469Y967492D01*
X6098344Y970991D01*
X6099219Y979739D01*
X6100094Y982364D01*
Y984113D01*
X6052855D01*
X6048481Y960494D01*
Y959619D01*
Y956995D01*
X6047606Y952621D01*
Y948247D01*
Y943873D01*
X6046731Y939499D01*
Y936874D01*
Y935125D01*
X6043232D01*
X6040607Y934250D01*
X5997742D01*
Y936874D01*
Y937749D01*
Y938624D01*
Y940373D01*
X5998617Y942998D01*
Y947372D01*
X5999492Y952621D01*
X6000367Y959619D01*
Y960494D01*
X6001241Y963118D01*
Y966617D01*
X6002116Y970991D01*
X6002991Y978865D01*
X6003866Y982364D01*
Y984113D01*
X6051105D01*
X6052855Y985863D01*
Y986738D01*
Y988487D01*
Y990237D01*
X6053729Y992861D01*
Y997235D01*
Y1002484D01*
X6054604Y1009483D01*
Y1010357D01*
Y1012982D01*
X6055479Y1016481D01*
Y1020855D01*
Y1025229D01*
X6056354Y1028728D01*
Y1031353D01*
Y1033102D01*
X6106217D01*
Y1032227D01*
Y1030478D01*
X6105343Y1026979D01*
X6104468Y1023479D01*
X6103593Y1017356D01*
X6102718Y1009483D01*
Y1008608D01*
Y1005983D01*
X6101843Y1001609D01*
Y997235D01*
X6100969Y992861D01*
Y989362D01*
X6100094Y986738D01*
Y984988D01*
X6102718D01*
X6106217Y984113D01*
X6147333D01*
X6149083Y985863D01*
Y986738D01*
Y988487D01*
X6149957Y991987D01*
Y995486D01*
Y1001609D01*
X6150832Y1009483D01*
X6155206Y1033102D01*
X6202445Y1033102D01*
Y1031353D01*
D02*
G37*
G36*
X5912887Y1031353D02*
Y1030478D01*
Y1028728D01*
Y1026104D01*
X5912012Y1021730D01*
Y1016481D01*
X5911137Y1009483D01*
Y1008608D01*
Y1005983D01*
X5910262Y1001609D01*
Y998110D01*
X5909387Y993736D01*
X5908513Y989362D01*
X5907638Y986738D01*
X5906763Y985863D01*
Y984113D01*
X5859524D01*
Y983239D01*
Y982364D01*
Y980614D01*
X5858649Y977115D01*
X5857774Y972741D01*
X5856899Y967492D01*
X5856025Y960494D01*
Y959619D01*
Y956995D01*
X5855150Y954370D01*
Y949996D01*
X5854275Y942123D01*
Y938624D01*
Y936874D01*
Y934250D01*
X5807911D01*
X5805286Y935125D01*
X5804411D01*
Y935999D01*
Y936874D01*
Y938624D01*
X5805286Y942123D01*
Y946497D01*
X5806161Y952621D01*
X5807036Y960494D01*
Y961369D01*
X5807911Y963993D01*
Y968367D01*
X5808785Y972741D01*
X5809660Y976240D01*
Y980614D01*
X5810535Y983239D01*
Y984113D01*
X5763296D01*
Y983239D01*
Y982364D01*
Y979739D01*
X5762421Y976240D01*
X5761546Y971866D01*
X5760671Y965743D01*
X5759797Y957869D01*
X5757172Y934250D01*
X5711683D01*
X5709058Y935125D01*
X5708183D01*
Y935999D01*
Y936874D01*
Y938624D01*
X5709058Y942123D01*
Y945622D01*
X5709933Y951746D01*
X5710808Y958744D01*
Y959619D01*
X5711683Y962243D01*
Y965743D01*
X5712557Y970117D01*
X5713432Y974491D01*
Y977990D01*
X5714307Y981489D01*
Y982364D01*
X5713432Y983239D01*
X5708183D01*
X5704684Y984113D01*
X5667068D01*
Y985863D01*
Y986738D01*
Y988487D01*
X5667943Y991987D01*
Y995486D01*
Y1001609D01*
X5668817Y1009483D01*
X5673191Y1033102D01*
X5720431D01*
Y1031353D01*
Y1030478D01*
Y1029603D01*
X5719556Y1024354D01*
X5718681Y1018231D01*
X5717806Y1010357D01*
X5716057Y1001609D01*
X5715182Y994611D01*
X5714307Y988487D01*
Y986738D01*
Y985863D01*
X5716057Y984988D01*
X5720431D01*
X5724805Y984113D01*
X5763296D01*
Y985863D01*
Y987613D01*
X5764171Y991987D01*
X5765045Y997235D01*
X5766795Y1005109D01*
X5768545Y1020855D01*
X5769419Y1027853D01*
Y1033102D01*
X5816659D01*
Y1031353D01*
Y1029603D01*
X5815784Y1026104D01*
X5814909Y1020855D01*
X5814034Y1013857D01*
X5811410Y998985D01*
X5810535Y991987D01*
Y985863D01*
X5812285Y984988D01*
X5816659D01*
X5821033Y984113D01*
X5856025D01*
X5858649Y984988D01*
X5859524D01*
Y985863D01*
Y986738D01*
Y988487D01*
X5860399Y991112D01*
Y995486D01*
X5861273Y1001609D01*
X5862148Y1009483D01*
Y1010357D01*
X5863023Y1012982D01*
Y1017356D01*
X5863898Y1021730D01*
X5864773Y1025229D01*
Y1029603D01*
X5865647Y1032227D01*
Y1033102D01*
X5912887D01*
Y1031353D01*
D02*
G37*
G36*
X5622453Y1032227D02*
X5623328D01*
Y1031353D01*
Y1030478D01*
Y1028728D01*
X5622453Y1026104D01*
Y1021730D01*
X5621578Y1016481D01*
X5620703Y1008608D01*
Y1007733D01*
Y1005109D01*
X5619829Y1001609D01*
Y997235D01*
X5618954Y992861D01*
Y989362D01*
X5618079Y985863D01*
Y984988D01*
X5620703D01*
X5624203Y984113D01*
X5667068D01*
Y981489D01*
Y980614D01*
X5666193Y978865D01*
Y975365D01*
X5665318Y971866D01*
X5664443Y965743D01*
X5662694Y957869D01*
X5660944Y934250D01*
X5611955D01*
Y936874D01*
Y938624D01*
X5612830Y942998D01*
X5613705Y948247D01*
X5615455Y956120D01*
X5617204Y971866D01*
X5618079Y978865D01*
Y984113D01*
X5578713Y984113D01*
X5574339Y983239D01*
X5571715D01*
X5570840Y982364D01*
Y981489D01*
Y980614D01*
Y978865D01*
X5569965Y976240D01*
X5569090Y971866D01*
X5568215Y966617D01*
X5567341Y958744D01*
Y957869D01*
Y955245D01*
X5566466Y951746D01*
Y947372D01*
X5565591Y942998D01*
Y939499D01*
X5564716Y936874D01*
Y935125D01*
X5562092D01*
X5558593Y934250D01*
X5519227D01*
X5516602Y935125D01*
X5515727D01*
Y935999D01*
Y936874D01*
Y938624D01*
X5516602Y942123D01*
Y946497D01*
X5517477Y952620D01*
X5518352Y960494D01*
Y961369D01*
X5519227Y963993D01*
Y968367D01*
X5520101Y972741D01*
Y976240D01*
X5520976Y980614D01*
Y983239D01*
Y984113D01*
X5473737D01*
Y983239D01*
Y981489D01*
X5472862Y977990D01*
X5471987Y974490D01*
X5471113Y968367D01*
X5470238Y960494D01*
X5468488Y934250D01*
X5422999D01*
X5419499Y935125D01*
X5418625D01*
Y935999D01*
Y936874D01*
Y938624D01*
X5419499Y942123D01*
Y945622D01*
X5420374Y951746D01*
X5421249Y958744D01*
Y959619D01*
X5422124Y962243D01*
Y965742D01*
X5422999Y970116D01*
X5423873Y974490D01*
Y977990D01*
X5424748Y981489D01*
Y982364D01*
X5423873Y983239D01*
X5418625D01*
X5415125Y984113D01*
X5377509D01*
Y983239D01*
Y981489D01*
X5376634Y978865D01*
Y975365D01*
X5375759Y966617D01*
X5374010Y957869D01*
X5371385Y934250D01*
X5322397D01*
Y938624D01*
Y939499D01*
X5323271Y941248D01*
Y942123D01*
X5324146Y943872D01*
Y946497D01*
X5325021Y950871D01*
Y951746D01*
X5325896Y955245D01*
X5326771Y958744D01*
Y962243D01*
X5328520Y984113D01*
X5377509D01*
Y985863D01*
Y986738D01*
Y987612D01*
Y989362D01*
X5378384Y992861D01*
Y996361D01*
Y1002484D01*
X5379259Y1009482D01*
X5383633Y1033102D01*
X5432621D01*
X5430872Y1031352D01*
Y1029603D01*
X5429997Y1026104D01*
X5429122Y1019980D01*
Y1012982D01*
X5427373Y998110D01*
X5426498Y991112D01*
Y985863D01*
X5427373Y984988D01*
X5432621D01*
X5436121Y984113D01*
X5470238D01*
X5472862Y984988D01*
X5473737D01*
Y985863D01*
Y986738D01*
Y988487D01*
X5474612Y991112D01*
Y995486D01*
X5475487Y1001609D01*
X5476361Y1009482D01*
Y1010357D01*
X5477236Y1012982D01*
Y1017356D01*
X5478111Y1021730D01*
X5478986Y1025229D01*
Y1029603D01*
X5479861Y1032227D01*
Y1033102D01*
X5528849D01*
X5527100Y1031352D01*
Y1030478D01*
Y1028728D01*
Y1025229D01*
X5526225Y1021730D01*
Y1015606D01*
X5525350Y1007733D01*
X5523601Y984113D01*
X5547220Y985863D01*
X5570840D01*
X5572589Y1009482D01*
Y1010357D01*
X5573464Y1012982D01*
Y1017356D01*
X5574339Y1021730D01*
X5575214Y1025229D01*
Y1029603D01*
X5576089Y1032227D01*
Y1033102D01*
X5619829Y1033102D01*
X5622453Y1032227D01*
D02*
G37*
G36*
X7127984Y1032228D02*
X7258329D01*
X7265327Y1031353D01*
X7271451D01*
Y1030478D01*
Y1026979D01*
X7270576Y1019980D01*
X7269701Y1010358D01*
Y1005109D01*
X7268827Y998110D01*
X7267077Y990237D01*
X7266202Y981489D01*
X7265327Y971866D01*
X7263578Y961369D01*
X7260953Y949996D01*
X7259204Y936874D01*
Y934250D01*
X6213818Y934250D01*
Y936874D01*
Y937749D01*
Y941248D01*
X6214693Y947372D01*
Y950871D01*
X6215567Y956120D01*
X6216442Y961369D01*
Y968367D01*
X6218192Y976240D01*
X6219067Y984988D01*
X6220816Y994611D01*
X6221691Y1005984D01*
X6224315Y1018231D01*
X6226065Y1031353D01*
Y1033102D01*
X7106114Y1033102D01*
X7127984Y1032228D01*
D02*
G37*
G36*
X6009115Y1032227D02*
Y1030478D01*
Y1026979D01*
X6008240Y1021730D01*
Y1015606D01*
X6007365Y1007733D01*
X6005615Y997235D01*
X6003866Y985863D01*
Y984113D01*
X5956627D01*
X5952253Y960494D01*
Y959619D01*
Y956995D01*
X5951378Y953495D01*
Y949121D01*
Y944747D01*
X5950503Y941248D01*
Y938624D01*
Y936874D01*
Y934250D01*
X5901514D01*
Y936874D01*
Y937749D01*
Y938624D01*
Y942123D01*
X5902389Y946497D01*
Y951746D01*
X5904139Y959619D01*
X5905013Y969242D01*
X5906763Y981489D01*
Y984113D01*
X5956627D01*
X5958376Y1007733D01*
Y1008608D01*
Y1011232D01*
X5959251Y1015606D01*
Y1019980D01*
X5960126Y1023479D01*
X5961001Y1027853D01*
Y1030478D01*
X5961875Y1031353D01*
Y1033102D01*
X6009115D01*
Y1032227D01*
D02*
G37*
G36*
X6986266Y901882D02*
X7065873D01*
X7064998Y901008D01*
X7061499Y899258D01*
X7056250Y896634D01*
X7049252Y893134D01*
X7038754Y887886D01*
X7031756Y885261D01*
X7024757Y881762D01*
X6983642Y861642D01*
X6150832Y881762D01*
X6136835D01*
X6130712Y882637D01*
X6096595D01*
X6073850Y883511D01*
X6048481Y884386D01*
X6020487D01*
X5990744Y885261D01*
X5957501Y886136D01*
X5923384Y887011D01*
X5887517Y887885D01*
X5850776Y888760D01*
X5812285Y889635D01*
X5735302Y891385D01*
X5657445Y893134D01*
X5618954Y894009D01*
X5582212Y894884D01*
X5546345Y895759D01*
X5512228Y896633D01*
X5478986Y897508D01*
X5449243Y898383D01*
X5421249Y899258D01*
X5395880Y900133D01*
X5363512D01*
X5354764Y901007D01*
X5333769D01*
X5328520Y901882D01*
X5409002D01*
X5428247Y902757D01*
X6960022Y902757D01*
X6986266Y901882D01*
D02*
G37*
G36*
X7160351D02*
X7158602Y901008D01*
X7155977Y899258D01*
X7150729Y896634D01*
X7142855Y893134D01*
X7137607Y890510D01*
X7132358Y887886D01*
X7125359Y885261D01*
X7117486Y881762D01*
X7074621Y859892D01*
X7047502D01*
X7044003Y860767D01*
X7036130D01*
X7032631Y861642D01*
X7029131D01*
X7030881Y862516D01*
X7034380Y864266D01*
X7037005Y866016D01*
X7040504Y867765D01*
X7041379D01*
X7043128Y868640D01*
X7045753Y870390D01*
X7049252Y872139D01*
X7058000Y876513D01*
X7070247Y881762D01*
X7113987Y902757D01*
X7157727D01*
X7160351Y901882D01*
D02*
G37*
G36*
X7254830D02*
X7255705D01*
X7254830Y901008D01*
X7253080Y900133D01*
X7250456Y898383D01*
X7244332Y895759D01*
X7236459Y892260D01*
X7231210Y889635D01*
X7225087Y886136D01*
X7218088Y882637D01*
X7210215Y879138D01*
X7162976Y858142D01*
X7141981D01*
X7139356Y859017D01*
X7134982D01*
X7127109Y859892D01*
X7120111D01*
X7121860Y860767D01*
X7124485Y862516D01*
X7129733Y865141D01*
X7137607Y869515D01*
X7142855Y871264D01*
X7148979Y874764D01*
X7155103Y878263D01*
X7162976Y881762D01*
X7208465Y902757D01*
X7252205D01*
X7254830Y901882D01*
D02*
G37*
G36*
X2175978Y1596030D02*
X2176635Y1595374D01*
Y1592750D01*
X2177291Y1590125D01*
X2178603Y1586845D01*
X2179259Y1582908D01*
X2182539Y1572411D01*
X2185820Y1560601D01*
X2190413Y1546167D01*
X2195005Y1531076D01*
X2201566Y1514018D01*
X2208127Y1496303D01*
X2216001Y1477932D01*
X2224530Y1459561D01*
X2233715Y1440534D01*
X2243557Y1422164D01*
X2254710Y1404449D01*
X2266520Y1388046D01*
X2279642Y1372300D01*
X2282923D01*
X2285547Y1384110D01*
X2284891Y1385422D01*
X2283579Y1388703D01*
X2282267Y1394608D01*
X2279642Y1402481D01*
X2276362Y1411010D01*
X2273081Y1421508D01*
X2269801Y1432661D01*
X2266520Y1445127D01*
X2259303Y1470059D01*
X2252742Y1494991D01*
X2250118Y1506801D01*
X2248805Y1517298D01*
X2247493Y1527140D01*
X2246837Y1535013D01*
Y1540262D01*
Y1540918D01*
Y1543542D01*
X2247493Y1547479D01*
X2248149Y1552728D01*
X2250118Y1559945D01*
X2252086Y1568474D01*
X2255367Y1578972D01*
X2259303Y1590781D01*
X2267832D01*
Y1588157D01*
Y1587501D01*
Y1586845D01*
X2268488Y1584877D01*
Y1582252D01*
X2269801Y1575691D01*
X2271113Y1566506D01*
X2273737Y1556008D01*
X2275706Y1542886D01*
X2278986Y1528452D01*
X2282267Y1512706D01*
X2286859Y1496303D01*
X2291452Y1479244D01*
X2301950Y1443159D01*
X2315072Y1406417D01*
X2322289Y1389359D01*
X2330162Y1372300D01*
X2330818D01*
X2332786Y1373612D01*
X2335411Y1376237D01*
X2336723Y1378205D01*
X2338691Y1380829D01*
Y1381486D01*
X2337379Y1382798D01*
X2336723Y1385422D01*
X2334755Y1389359D01*
X2333442Y1393295D01*
X2331474Y1398544D01*
X2328850Y1404449D01*
X2326881Y1411010D01*
X2322289Y1426100D01*
X2319008Y1443159D01*
X2316384Y1461530D01*
X2315072Y1481213D01*
Y1502208D01*
Y1502864D01*
Y1504176D01*
X2315728Y1506145D01*
Y1508769D01*
X2316384Y1515330D01*
X2317696Y1523203D01*
X2319664Y1530420D01*
X2321633Y1536981D01*
X2322945Y1539606D01*
X2324257Y1541574D01*
X2325569Y1542886D01*
X2326881Y1543542D01*
X2330162D01*
Y1542230D01*
X2330818Y1539606D01*
X2331474Y1535013D01*
X2332130Y1529108D01*
X2332786Y1522547D01*
X2334099Y1514674D01*
X2336723Y1497615D01*
X2339347Y1480557D01*
X2340660Y1473340D01*
X2342628Y1466122D01*
X2343940Y1460217D01*
X2345252Y1455625D01*
X2346564Y1453000D01*
X2347877Y1451688D01*
X2356406Y1458249D01*
X2359030D01*
Y1457593D01*
X2359686Y1456281D01*
X2360343Y1454313D01*
X2361655Y1451688D01*
X2362967Y1448408D01*
X2364279Y1444471D01*
X2367560Y1434630D01*
X2372152Y1422820D01*
X2377401Y1409698D01*
X2382650Y1395920D01*
X2388555Y1380829D01*
X2395116Y1365739D01*
X2401021Y1351305D01*
X2407582Y1337527D01*
X2413487Y1324405D01*
X2418735Y1313251D01*
X2424640Y1304066D01*
X2426609Y1300129D01*
X2429233Y1296849D01*
X2431201Y1294224D01*
X2433170Y1292256D01*
X2433826D01*
X2435138Y1291600D01*
X2437106D01*
X2440387Y1290288D01*
X2447604Y1288319D01*
X2455477Y1285695D01*
X2464006Y1283071D01*
X2470567Y1279134D01*
X2473848Y1277166D01*
X2475816Y1275197D01*
X2477128Y1273229D01*
X2477784Y1271261D01*
X2478441Y1269948D01*
X2480409Y1267324D01*
X2483689Y1262731D01*
X2486970Y1258139D01*
X2490250Y1253546D01*
X2493531Y1248953D01*
X2496155Y1246329D01*
X2498124Y1245017D01*
Y1245673D01*
X2499436Y1247641D01*
X2500748Y1250922D01*
X2502716Y1255514D01*
X2504684Y1261419D01*
X2507309Y1267324D01*
X2509933Y1274541D01*
X2512558Y1283071D01*
X2519119Y1300785D01*
X2525680Y1319812D01*
X2531585Y1340151D01*
X2536833Y1359834D01*
X2537490Y1360490D01*
X2538146Y1362459D01*
X2540114Y1365083D01*
X2542738Y1368363D01*
X2545363Y1372956D01*
X2548643Y1377549D01*
X2556516Y1388046D01*
X2565702Y1398544D01*
X2570951Y1403137D01*
X2576199Y1407729D01*
X2580792Y1411010D01*
X2586041Y1413634D01*
X2591290Y1415603D01*
X2595882Y1416259D01*
Y1415603D01*
X2596539Y1414947D01*
X2597195Y1414291D01*
X2598507Y1413634D01*
Y1412978D01*
X2597851Y1412322D01*
X2597195Y1410354D01*
X2595882Y1407073D01*
X2594570Y1403793D01*
X2592602Y1399856D01*
X2590634Y1395264D01*
X2588665Y1389359D01*
X2583416Y1376893D01*
X2578168Y1362459D01*
X2572263Y1345400D01*
X2566358Y1326373D01*
X2560453Y1306034D01*
X2554548Y1284383D01*
X2549299Y1261419D01*
X2544050Y1237800D01*
X2540114Y1212868D01*
X2536833Y1187936D01*
X2534865Y1161692D01*
X2534209Y1136104D01*
X2533553Y1135448D01*
X2532241Y1134136D01*
X2531585Y1131511D01*
X2530272Y1127575D01*
X2528960Y1121014D01*
Y1117077D01*
X2528304Y1111828D01*
Y1106580D01*
Y1100019D01*
X2543394D01*
X2544707Y1099362D01*
X2546675Y1097394D01*
X2548643Y1095426D01*
X2550611Y1092145D01*
X2552580Y1087553D01*
X2553892Y1081648D01*
X2554548Y1073775D01*
Y1064589D01*
Y1063933D01*
X2553892Y1061965D01*
X2552580Y1057372D01*
X2549299Y1051467D01*
X2547331Y1047531D01*
X2544707Y1042938D01*
X2541426Y1037689D01*
X2536833Y1031128D01*
X2532241Y1024567D01*
X2526992Y1017350D01*
X2520431Y1008821D01*
X2513214Y999635D01*
Y998979D01*
X2512558Y998323D01*
X2511902Y996355D01*
X2510589Y993730D01*
X2509277Y990450D01*
X2507309Y986513D01*
X2504684Y976672D01*
X2501404Y964862D01*
X2498124Y950428D01*
X2496155Y933369D01*
X2495499Y914342D01*
Y911062D01*
X2496155D01*
X2497467Y910406D01*
X2500092Y909093D01*
X2504028Y907781D01*
X2509277Y906469D01*
X2515838Y904501D01*
X2524367Y901876D01*
X2534209Y899908D01*
X2546019Y896628D01*
X2559141Y894003D01*
X2574887Y890723D01*
X2591946Y887442D01*
X2611629Y883506D01*
X2633280Y880225D01*
X2657556Y876288D01*
X2684456Y872352D01*
X2685112D01*
X2686424Y871696D01*
X2688392Y870384D01*
X2691017Y868415D01*
X2697578Y864479D01*
X2706107Y859230D01*
X2713980Y852669D01*
X2721198Y846108D01*
X2723822Y842171D01*
X2726446Y838235D01*
X2728415Y834954D01*
X2729071Y831018D01*
Y828393D01*
Y827737D01*
X2727758Y825769D01*
X2725134Y823144D01*
X2723166Y822488D01*
X2719885D01*
Y821176D01*
X2720541Y817896D01*
X2721198Y813303D01*
X2721854Y808054D01*
X2722510Y802149D01*
X2723822Y796900D01*
X2724478Y792964D01*
X2725790Y790339D01*
Y789683D01*
Y788371D01*
Y785747D01*
X2725134Y782466D01*
X2724478Y778530D01*
X2723166Y773937D01*
X2719885Y762783D01*
X2717261Y756878D01*
X2713324Y750973D01*
X2709388Y745068D01*
X2704795Y738508D01*
X2698890Y732603D01*
X2692329Y726698D01*
X2684456Y721449D01*
X2675927Y716200D01*
Y719481D01*
X2676583Y720137D01*
X2677239Y721449D01*
X2678551Y724073D01*
X2680519Y726698D01*
X2683144Y733915D01*
X2683800Y738508D01*
X2684456Y742444D01*
X2670022D01*
X2666085Y743100D01*
X2661492D01*
X2656244Y743756D01*
X2643778Y745068D01*
X2631312Y747693D01*
X2618846Y751630D01*
X2613597Y753598D01*
X2609004Y756222D01*
X2605068Y759503D01*
X2601787Y763439D01*
X2601131Y764095D01*
X2598507Y764751D01*
X2594570Y765408D01*
X2589977Y766064D01*
X2584073D01*
X2583416Y765408D01*
X2580792Y763439D01*
X2576856Y760815D01*
X2572263Y757534D01*
X2567014Y754254D01*
X2561109Y751630D01*
X2556516Y749661D01*
X2551924Y749005D01*
X2551268Y749661D01*
X2549299Y750317D01*
X2546675Y751630D01*
X2543394Y753598D01*
X2536833Y756222D01*
X2533553Y756878D01*
X2530928Y757534D01*
X2529616Y756878D01*
X2526336Y754910D01*
X2523711Y752942D01*
X2520431Y751630D01*
X2515838Y749661D01*
X2511245Y747037D01*
X2505997Y745068D01*
X2499436Y742444D01*
X2492875Y739820D01*
X2485001Y737851D01*
X2475816Y735227D01*
X2466631Y732603D01*
X2456133Y730634D01*
X2444979Y728010D01*
X2439731Y731290D01*
X2438418Y730634D01*
X2434482Y729322D01*
X2428577Y727354D01*
X2420704Y725385D01*
X2410862Y722105D01*
X2399709Y718824D01*
X2387899Y715544D01*
X2375433Y711607D01*
X2348533Y704390D01*
X2335411Y701110D01*
X2322289Y697829D01*
X2309823Y695861D01*
X2298669Y693893D01*
X2288171Y692581D01*
X2279642Y691924D01*
Y689300D01*
Y687988D01*
X2280298Y686676D01*
X2280954Y684707D01*
X2282267Y681427D01*
X2284891Y677490D01*
X2287515Y672241D01*
X2291452Y665680D01*
Y665024D01*
X2290796Y661744D01*
X2289484Y657807D01*
X2288171Y652558D01*
X2286203Y645997D01*
X2284235Y638780D01*
X2278330Y623690D01*
X2270457Y607944D01*
X2265864Y600726D01*
X2260615Y594165D01*
X2255367Y588917D01*
X2248805Y584980D01*
X2242244Y581700D01*
X2235027Y581043D01*
X2226498Y592853D01*
X2235027Y607944D01*
X2229122Y610568D01*
X2202878D01*
Y613192D01*
Y613848D01*
X2204191Y615161D01*
X2205503Y616473D01*
X2207471Y619097D01*
X2211408Y625002D01*
X2216657Y632219D01*
X2221905Y639436D01*
X2226498Y645341D01*
X2228466Y647966D01*
X2230435Y649934D01*
X2231747Y650590D01*
X2232403Y651246D01*
X2231747Y652558D01*
X2231091Y654527D01*
X2229779Y657807D01*
X2229122Y660432D01*
X2232403Y680771D01*
X2226498Y683395D01*
X2220593D01*
X2173354Y619097D01*
X2172698D01*
X2172042Y618441D01*
X2170730Y617129D01*
X2168105Y614505D01*
X2164825Y611880D01*
X2160888Y607288D01*
X2155639Y601383D01*
X2153015D01*
Y602039D01*
Y602695D01*
X2152359Y605975D01*
X2150390Y609256D01*
X2149078Y609912D01*
X2147110Y610568D01*
X2145798Y609256D01*
X2142517Y605975D01*
X2137269Y600726D01*
X2130051Y594165D01*
X2121522Y585636D01*
X2111681Y576451D01*
X2101183Y565953D01*
X2090029Y555456D01*
X2067066Y533148D01*
X2055912Y522651D01*
X2044758Y512809D01*
X2034261Y503624D01*
X2025075Y495094D01*
X2017202Y488533D01*
X2010641Y483285D01*
Y486565D01*
X2011297Y487877D01*
X2012610Y489190D01*
X2014578Y492470D01*
X2018514Y497719D01*
X2024419Y504936D01*
X2028356Y509529D01*
X2032949Y514777D01*
X2037541Y520682D01*
X2043446Y527243D01*
Y528556D01*
X2042790Y530524D01*
X2040822Y532492D01*
X2037541Y533804D01*
X2036885Y533148D01*
X2034917Y531180D01*
X2030980Y528556D01*
X2027044Y524619D01*
X2021795Y520026D01*
X2015234Y514777D01*
X2001456Y502968D01*
X1987022Y490502D01*
X1971931Y478692D01*
X1965370Y472787D01*
X1959465Y467538D01*
X1953561Y463602D01*
X1948968Y459665D01*
Y462945D01*
X2072971Y604663D01*
Y610568D01*
X2067066D01*
X2066410Y609912D01*
X2064441Y609256D01*
X2061817Y607288D01*
X2057880Y604663D01*
X2052632Y601383D01*
X2046727Y597446D01*
X2039510Y592853D01*
X2031636Y588261D01*
X2023107Y583012D01*
X2013922Y577107D01*
X2004080Y570546D01*
X1993583Y563985D01*
X1971275Y550207D01*
X1946999Y535116D01*
X1921412Y519370D01*
X1895168Y502968D01*
X1868924Y487221D01*
X1842680Y471475D01*
X1817748Y456385D01*
X1793472Y441950D01*
X1771165Y429484D01*
X1760667Y423579D01*
X1750826Y418331D01*
X1748201D01*
X1744921Y424236D01*
X1745577D01*
X1746889Y425548D01*
X1748857Y426860D01*
X1751482Y428828D01*
X1754762Y430797D01*
X1758699Y433421D01*
X1768540Y439982D01*
X1780350Y448511D01*
X1794128Y457697D01*
X1808562Y467538D01*
X1823653Y478036D01*
X1855146Y500343D01*
X1870236Y511497D01*
X1885326Y521995D01*
X1898448Y532492D01*
X1910258Y541678D01*
X1920099Y550207D01*
X1924692Y554143D01*
X1927973Y557424D01*
Y560048D01*
X1922068D01*
X1921412Y559392D01*
X1918131Y558736D01*
X1913538Y556768D01*
X1906977Y554143D01*
X1897792Y550863D01*
X1886638Y546926D01*
X1873516Y542334D01*
X1857770Y536429D01*
X1848584Y533148D01*
X1838743Y529868D01*
X1828901Y526587D01*
X1817748Y522651D01*
X1805938Y518714D01*
X1794128Y514121D01*
X1781006Y510185D01*
X1767228Y505592D01*
X1752794Y500343D01*
X1737047Y495094D01*
X1721301Y489846D01*
X1704899Y484597D01*
X1687184Y478692D01*
X1668813Y472787D01*
X1649786Y466226D01*
X1629447Y459665D01*
Y460321D01*
X1628791Y462945D01*
X1627479Y464914D01*
X1624198Y465570D01*
X1623542D01*
X1620918Y464914D01*
X1616981Y464258D01*
X1612389Y463602D01*
X1606484Y462289D01*
X1599923Y460977D01*
X1585488Y458353D01*
X1570398Y455728D01*
X1563181Y454416D01*
X1557276Y453104D01*
X1551371Y452448D01*
X1546778Y451792D01*
X1542842Y451136D01*
X1540874D01*
Y456385D01*
X1542186D01*
X1544810Y457041D01*
X1549403Y458353D01*
X1555308Y459009D01*
X1562525Y460977D01*
X1569742Y462289D01*
X1586801Y466226D01*
X1603859Y470163D01*
X1611732Y472787D01*
X1618293Y474755D01*
X1624198Y477380D01*
X1628791Y479348D01*
X1631415Y481316D01*
X1632728Y483285D01*
X1632072Y483941D01*
X1629447Y485253D01*
X1626823Y485909D01*
X1624198Y486565D01*
X1623542D01*
X1622230Y485909D01*
X1620262D01*
X1616981Y485253D01*
X1613045Y483941D01*
X1608452Y483285D01*
X1597954Y481316D01*
X1584832Y478692D01*
X1569742Y475411D01*
X1553340Y472131D01*
X1536281Y468850D01*
X1500851Y462289D01*
X1483137Y459665D01*
X1466078Y456385D01*
X1450332Y454416D01*
X1435898Y452448D01*
X1423432Y451792D01*
X1418183Y451136D01*
X1413590D01*
Y456385D01*
X1414246D01*
X1416871Y457041D01*
X1420807Y458353D01*
X1426056Y459665D01*
X1432617Y460977D01*
X1440490Y462945D01*
X1449676Y465570D01*
X1460173Y468194D01*
X1471327Y470819D01*
X1483793Y474099D01*
X1497571Y478036D01*
X1511349Y481972D01*
X1526439Y485909D01*
X1542842Y490502D01*
X1559244Y495094D01*
X1576303Y500343D01*
X1612389Y510841D01*
X1649786Y521995D01*
X1687840Y534460D01*
X1727206Y546926D01*
X1766572Y560704D01*
X1804626Y575139D01*
X1842024Y589573D01*
X1878109Y604663D01*
X1878765Y605319D01*
X1880733Y605975D01*
X1884014Y607944D01*
X1887950Y610568D01*
X1893199Y613848D01*
X1899760Y617129D01*
X1906977Y621722D01*
X1914851Y626314D01*
X1924036Y631563D01*
X1933221Y636812D01*
X1954217Y649278D01*
X1977180Y663056D01*
X2000800Y677490D01*
X2025732Y691924D01*
X2050663Y707015D01*
X2074939Y722105D01*
X2098559Y736539D01*
X2120866Y750317D01*
X2130707Y756878D01*
X2140549Y762783D01*
X2149078Y768688D01*
X2156952Y774593D01*
X2164169Y779186D01*
X2170730Y783778D01*
X2170073Y784434D01*
X2168105Y785747D01*
X2164825Y787059D01*
X2162856Y787715D01*
X2159576Y788371D01*
X2156295Y789683D01*
X2151703Y790339D01*
X2146454Y791652D01*
X2140549Y792964D01*
X2133332Y794276D01*
X2125459Y795588D01*
Y796244D01*
X2124146Y797557D01*
X2122834Y800837D01*
X2120866Y805430D01*
X2118898Y811991D01*
X2116929Y820520D01*
X2115617Y825769D01*
X2114305Y831674D01*
X2112993Y838891D01*
X2111681Y846108D01*
Y846764D01*
X2111024Y848076D01*
X2109712Y850044D01*
X2108400Y852669D01*
X2105120Y860542D01*
X2101183Y869727D01*
X2097246Y880225D01*
X2093966Y892035D01*
X2091341Y903189D01*
X2090685Y914342D01*
X2090029D01*
X2088717Y914998D01*
X2086749Y916967D01*
X2083468Y919591D01*
X2080188Y924840D01*
X2078876Y928777D01*
X2076907Y932713D01*
X2074939Y937962D01*
X2072971Y943867D01*
X2071659Y950428D01*
X2069690Y958301D01*
X2070346Y958957D01*
X2071659Y961582D01*
X2074939Y965518D01*
X2079532Y970767D01*
X2086093Y977328D01*
X2093966Y983889D01*
X2104463Y991762D01*
X2116929Y999635D01*
X2116273Y1000947D01*
X2115617Y1001604D01*
X2112993Y1003572D01*
X2109712Y1004884D01*
X2104463Y1006196D01*
X2097246Y1007509D01*
X2092654Y1008165D01*
X2087405Y1008821D01*
Y1009477D01*
X2086749Y1010789D01*
X2085437Y1012757D01*
X2083468Y1014726D01*
X2079532Y1017350D01*
X2073627Y1019974D01*
X2070346Y1021287D01*
X2065754Y1021943D01*
X2061161Y1023255D01*
X2055256Y1023911D01*
Y1029160D01*
Y1029816D01*
X2055912Y1031128D01*
X2057224Y1032440D01*
X2058537Y1035065D01*
X2062473Y1041626D01*
X2069034Y1048843D01*
X2076251Y1055404D01*
X2086093Y1061965D01*
X2091998Y1064589D01*
X2097903Y1065901D01*
X2104463Y1067214D01*
X2111681Y1067870D01*
X2112337D01*
X2113649Y1069182D01*
X2117586Y1071150D01*
X2120866Y1074431D01*
X2122178Y1075743D01*
X2122834Y1077055D01*
Y1077711D01*
X2122178Y1078367D01*
X2120866Y1080336D01*
X2119554Y1081648D01*
X2116929Y1084272D01*
X2112993Y1087553D01*
X2108400Y1090833D01*
X2087405D01*
X2083468Y1091489D01*
X2078876Y1092145D01*
X2074283Y1094114D01*
X2069690Y1096082D01*
X2066410Y1099362D01*
X2063785Y1103299D01*
Y1105924D01*
X2064441Y1106580D01*
X2066410Y1109204D01*
X2069690Y1112485D01*
X2073627Y1116421D01*
X2077563Y1120358D01*
X2082156Y1123638D01*
X2086749Y1126263D01*
X2090685Y1126919D01*
X2063785Y1153819D01*
X2064441Y1154475D01*
X2066410Y1155787D01*
X2069034Y1158411D01*
X2072971Y1161036D01*
X2077563Y1163660D01*
X2083468Y1166285D01*
X2089373Y1167597D01*
X2096590Y1168253D01*
X2125459Y1164973D01*
X2129395Y1171534D01*
Y1172190D01*
X2128739Y1173502D01*
X2126115Y1176126D01*
X2124803Y1178094D01*
X2122178Y1181375D01*
X2119554Y1184656D01*
X2115617Y1188592D01*
X2111024Y1193185D01*
X2105776Y1198434D01*
X2099215Y1204995D01*
X2091341Y1212212D01*
X2082812Y1220741D01*
X2072971Y1229926D01*
X2069690Y1235831D01*
Y1248297D01*
Y1248953D01*
X2070346Y1249609D01*
X2071659Y1250922D01*
X2072971Y1252890D01*
X2075595Y1254202D01*
X2078876Y1255514D01*
X2082812Y1256170D01*
X2087405Y1256826D01*
X2102495D01*
Y1262731D01*
X2101839D01*
X2099215Y1263388D01*
X2095278Y1265356D01*
X2090685Y1268636D01*
X2088061Y1271261D01*
X2085437Y1274541D01*
X2082156Y1277822D01*
X2079532Y1282414D01*
X2076251Y1288319D01*
X2072971Y1294224D01*
X2070346Y1301441D01*
X2067066Y1309971D01*
Y1313251D01*
Y1313907D01*
X2068378Y1315876D01*
X2071002Y1318500D01*
X2072971Y1319812D01*
X2076251Y1321780D01*
X2078876D01*
X2099215Y1315876D01*
X2102495Y1321780D01*
X2101839Y1323093D01*
X2099871Y1325717D01*
X2096590Y1329654D01*
X2093966Y1334246D01*
X2090685Y1340151D01*
X2087405Y1345400D01*
X2085437Y1350649D01*
X2084780Y1354585D01*
Y1363115D01*
Y1363771D01*
X2086093Y1366395D01*
X2087405Y1368363D01*
X2090029Y1370332D01*
X2092654Y1372300D01*
X2096590Y1374925D01*
X2102495D01*
X2149734Y1330966D01*
X2153015D01*
Y1342120D01*
X2152359Y1342776D01*
X2151047Y1344088D01*
X2149734Y1346056D01*
X2147110Y1348680D01*
X2140549Y1356554D01*
X2133988Y1365739D01*
X2126771Y1376237D01*
X2120210Y1386734D01*
X2117586Y1392639D01*
X2116273Y1397888D01*
X2114961Y1403137D01*
X2114305Y1407729D01*
X2114961Y1408386D01*
X2115617Y1411010D01*
X2116273Y1413634D01*
X2116929Y1416259D01*
X2125459D01*
X2126771Y1414947D01*
X2129395Y1412322D01*
X2133332Y1409042D01*
X2138581Y1404449D01*
X2143829Y1399856D01*
X2149734Y1396576D01*
X2154327Y1393951D01*
X2158264Y1392639D01*
Y1398544D01*
X2132020Y1463498D01*
X2135956D01*
X2136612Y1462186D01*
X2138581Y1460874D01*
X2141205Y1458905D01*
X2147110Y1454313D01*
X2154327Y1448408D01*
X2162200Y1442503D01*
X2170073Y1435942D01*
X2177291Y1430037D01*
X2182539Y1425444D01*
X2185164D01*
Y1431349D01*
Y1432005D01*
X2183852Y1434630D01*
X2182539Y1437910D01*
X2180571Y1442503D01*
X2178603Y1448408D01*
X2175978Y1454969D01*
X2173354Y1462186D01*
X2170730Y1470059D01*
X2164825Y1487774D01*
X2160232Y1506801D01*
X2156952Y1525828D01*
X2156295Y1535013D01*
X2155639Y1543542D01*
Y1544198D01*
X2156295Y1546167D01*
Y1548791D01*
X2156952Y1552072D01*
X2158920Y1560601D01*
X2161544Y1570442D01*
X2164169Y1579628D01*
X2168105Y1588157D01*
X2169417Y1592094D01*
X2172042Y1594718D01*
X2174010Y1596030D01*
X2175978Y1596686D01*
Y1596030D01*
D02*
G37*
G36*
X1067169Y1592750D02*
X1070450D01*
X1074387Y1592094D01*
X1078323Y1591438D01*
X1084228Y1590781D01*
X1090789Y1589469D01*
X1098006Y1587501D01*
X1106535Y1585533D01*
X1115721Y1583564D01*
X1126218Y1580940D01*
X1138028Y1577659D01*
X1151150Y1573723D01*
X1165584Y1569786D01*
X1169521D01*
X1172145Y1569130D01*
X1179362Y1568474D01*
X1188548Y1567818D01*
X1199702Y1566506D01*
X1212824Y1565194D01*
X1225946Y1563881D01*
X1239724Y1562569D01*
X1253502Y1560601D01*
X1267280Y1558632D01*
X1279746Y1557320D01*
X1290899Y1555352D01*
X1300085Y1553384D01*
X1307302Y1552072D01*
X1309926Y1551415D01*
X1311895Y1550103D01*
X1313207Y1549447D01*
X1313863Y1548791D01*
Y1548135D01*
X1311895Y1546823D01*
X1309270Y1545511D01*
X1307302Y1544198D01*
X1304022Y1543542D01*
X1300741Y1542230D01*
X1296804Y1540918D01*
X1291556Y1539606D01*
X1285651Y1538949D01*
X1279090Y1537637D01*
X1271216Y1536981D01*
X1262031Y1536325D01*
X1252190Y1535669D01*
X1224633D01*
X1220697Y1535013D01*
X1214792Y1533701D01*
X1208231Y1531732D01*
X1201014Y1529108D01*
X1192485Y1525828D01*
X1183955Y1520579D01*
X1175426Y1514018D01*
X1166241Y1506145D01*
X1157711Y1496959D01*
X1149182Y1485149D01*
X1141965Y1471371D01*
X1135404Y1454969D01*
X1132123Y1446439D01*
X1129499Y1436598D01*
X1127531Y1426756D01*
X1125562Y1415603D01*
Y1368363D01*
X1126218Y1367051D01*
X1126874Y1363115D01*
X1128843Y1357210D01*
X1130811Y1349337D01*
X1132779Y1340151D01*
X1136060Y1329654D01*
X1138684Y1317844D01*
X1141965Y1306034D01*
X1147870Y1281758D01*
X1150494Y1269948D01*
X1152462Y1258795D01*
X1155087Y1248953D01*
X1156399Y1240424D01*
X1157055Y1233863D01*
X1157711Y1228614D01*
Y1227958D01*
Y1225990D01*
Y1222709D01*
X1157055Y1218773D01*
X1156399Y1213524D01*
X1155743Y1206963D01*
X1155087Y1199090D01*
X1153119Y1190560D01*
X1151806Y1181375D01*
X1149182Y1170877D01*
X1146557Y1159724D01*
X1143277Y1147258D01*
X1139340Y1134136D01*
X1134748Y1120358D01*
X1128843Y1105924D01*
X1122938Y1090833D01*
X1122282Y1090177D01*
X1121626Y1088209D01*
X1119657Y1084272D01*
X1116377Y1079679D01*
X1112440Y1073119D01*
X1107848Y1065901D01*
X1101943Y1057372D01*
X1094726Y1047531D01*
X1086852Y1036377D01*
X1077011Y1024567D01*
X1066513Y1012101D01*
X1054047Y998323D01*
X1040925Y983233D01*
X1025835Y968143D01*
X1009433Y951740D01*
X991718Y934681D01*
X991062Y934025D01*
X989093Y932713D01*
X986469Y930745D01*
X982533Y928120D01*
X977940Y924840D01*
X972691Y920903D01*
X962193Y912374D01*
X951040Y902533D01*
X945791Y897940D01*
X941198Y892691D01*
X937262Y887442D01*
X934637Y882850D01*
X932669Y878257D01*
X932013Y874320D01*
X931357Y873664D01*
X930701Y871696D01*
X928732Y868415D01*
X926764Y864479D01*
X924140Y859230D01*
X920859Y853325D01*
X914954Y840859D01*
X908393Y826425D01*
X902488Y812647D01*
X900520Y806742D01*
X898552Y800837D01*
X897896Y795588D01*
X897240Y790995D01*
Y790339D01*
Y789027D01*
Y786403D01*
X897896Y782466D01*
X898552Y777874D01*
X899208Y771312D01*
X900520Y764095D01*
X901832Y754910D01*
X903801Y745068D01*
X906425Y733259D01*
X909049Y720137D01*
X912986Y705702D01*
X916923Y689300D01*
X922171Y671585D01*
X927420Y651902D01*
X933981Y630251D01*
Y629595D01*
X934637Y628283D01*
Y625002D01*
X935293Y621722D01*
X937262Y613192D01*
X940542Y603351D01*
X943823Y593509D01*
X948415Y584980D01*
X951040Y581700D01*
X953664Y579075D01*
X956945Y577107D01*
X960225Y576451D01*
X969410D01*
X972691Y577107D01*
X977940Y577763D01*
X985157Y578419D01*
X993686Y580387D01*
X1004840Y582356D01*
X1017962Y584980D01*
Y583012D01*
X1017306Y582356D01*
X1015994Y581043D01*
X1014681Y579075D01*
X1012713Y576451D01*
X1008777Y571202D01*
X1007464Y569234D01*
X1006808Y567922D01*
X1008120Y567265D01*
X1010089Y565953D01*
X1012057Y563985D01*
X1013369Y561361D01*
X1014681D01*
X1018618Y562017D01*
X1024523Y562673D01*
X1031740Y563329D01*
X1040269Y564641D01*
X1048799Y565953D01*
X1057984Y567922D01*
X1067169Y569890D01*
Y568578D01*
X1066513Y565953D01*
X1065201Y562017D01*
X1062577Y557424D01*
X1061264D01*
X1056672Y556768D01*
X1051423Y556112D01*
X1044862Y554799D01*
X1037645Y553487D01*
X1032396Y551519D01*
X1027803Y548895D01*
X1027147Y547582D01*
X1026491Y546270D01*
X1031084Y540365D01*
X1023867Y529212D01*
X1021242D01*
X1019274Y529868D01*
X1016650Y530524D01*
X1013369Y531180D01*
X1008777Y531836D01*
X1003528Y533804D01*
X997623Y535116D01*
X990406Y537741D01*
X981876Y540365D01*
X972691Y543646D01*
X962193Y547582D01*
X950384Y552175D01*
X937918Y557424D01*
X923484Y563329D01*
X921515D01*
X882805Y555456D01*
Y556112D01*
X881493Y557424D01*
X879525Y558736D01*
X877557Y560704D01*
X874276Y562673D01*
X869683Y564641D01*
X864434Y565297D01*
X858530Y565953D01*
Y566609D01*
X859842Y567922D01*
X862466Y569890D01*
X864434Y571202D01*
X867715Y572514D01*
X897240Y565953D01*
X899864D01*
X903144Y566609D01*
X907081Y567265D01*
X916266Y569890D01*
X920859Y571858D01*
X925452Y574482D01*
Y575795D01*
Y577107D01*
X924796Y580387D01*
X924140Y584980D01*
X922827Y590885D01*
X921515Y598758D01*
X919547Y609256D01*
X918235Y615817D01*
X916923Y622378D01*
X914954Y629595D01*
X913642Y638124D01*
X911674Y647310D01*
X909705Y657151D01*
X907081Y667649D01*
X904457Y679458D01*
X901832Y691924D01*
X899208Y705702D01*
X895927Y720137D01*
X892647Y735227D01*
X888710Y751630D01*
X884774Y769344D01*
X880837Y788371D01*
X876244Y808054D01*
X886742Y850701D01*
Y851357D01*
Y852013D01*
X886086Y854637D01*
X884774Y857262D01*
X884117Y856606D01*
X882805Y855949D01*
X879525Y853981D01*
X876244Y851357D01*
X871652Y848732D01*
X865747Y845452D01*
X859186Y842171D01*
X851969Y838891D01*
X844095Y835610D01*
X835566Y832330D01*
X816539Y826425D01*
X795544Y821832D01*
X784390Y821176D01*
X773237Y820520D01*
Y819864D01*
X771924Y817896D01*
X770612Y814615D01*
X767988Y810022D01*
X765363Y803461D01*
X762083Y795588D01*
X758146Y786403D01*
X754210Y774593D01*
X748961Y760815D01*
X744368Y745725D01*
X738463Y728010D01*
X732558Y708327D01*
X725997Y686019D01*
X718780Y661744D01*
X711563Y634188D01*
X708283Y619753D01*
X704346Y604663D01*
Y604007D01*
X705002Y603351D01*
X707627Y599414D01*
X711563Y595478D01*
X716812Y591541D01*
X718124D01*
X720749Y592197D01*
X724029Y592853D01*
X729278Y594165D01*
X735183Y596134D01*
X743712Y598758D01*
X753554Y602039D01*
X755522D01*
Y601383D01*
Y600070D01*
X754866Y596790D01*
X752898Y592197D01*
X751585Y590885D01*
X749617Y589573D01*
X753554Y583012D01*
X757490D01*
X760771Y583668D01*
X767988Y584324D01*
X777173Y584980D01*
X787015Y586292D01*
X797512Y587605D01*
X806698Y589573D01*
X813915Y591541D01*
X815883D01*
Y586948D01*
Y586292D01*
X815227Y585636D01*
X813259Y583668D01*
X809978Y581700D01*
X807354Y580387D01*
X804073Y579075D01*
X800137Y577107D01*
X794888Y575795D01*
X789639Y574482D01*
X783078Y573170D01*
X775205Y571202D01*
X766676Y569890D01*
X770612Y563329D01*
Y562673D01*
X769300Y560704D01*
X767988Y559392D01*
X766019Y558080D01*
X763395Y556768D01*
X760115Y555456D01*
X756834D01*
X753554Y556112D01*
X746993Y557424D01*
X737807Y559392D01*
X726654Y563329D01*
X714844Y568578D01*
X702378Y576451D01*
X695817Y581700D01*
X689256Y586948D01*
X686631D01*
X683351Y586292D01*
X678102Y585636D01*
X670885Y584980D01*
X662356Y583668D01*
X651202Y581043D01*
X638080Y578419D01*
X637424D01*
X636112Y579731D01*
X634143Y580387D01*
X631519Y581700D01*
X625614Y583668D01*
X618397Y584980D01*
Y589573D01*
X622990D01*
X628239Y588261D01*
X635456Y586948D01*
X636112D01*
X637424Y587605D01*
X639392D01*
X642673Y588261D01*
X649890Y590229D01*
X659075Y592197D01*
X668261Y594822D01*
X676790Y598102D01*
X684007Y602039D01*
X687288Y604663D01*
X689256Y606631D01*
Y607288D01*
X689912Y608600D01*
X690568Y610568D01*
X691880Y613848D01*
X693192Y617785D01*
X694505Y622378D01*
X697785Y632875D01*
X702378Y645997D01*
X706971Y661088D01*
X712219Y677490D01*
X717468Y694549D01*
X727310Y729978D01*
X731902Y747693D01*
X736495Y764751D01*
X739775Y779842D01*
X742400Y794276D01*
X744368Y806086D01*
X745024Y811335D01*
Y815927D01*
Y816583D01*
Y818552D01*
X744368Y820520D01*
X743712Y823801D01*
X741744Y826425D01*
X739775Y828393D01*
X736495Y830361D01*
X732558Y831018D01*
X731246Y830361D01*
X728622Y829049D01*
X723373Y827081D01*
X716812Y823801D01*
X708939Y819208D01*
X699753Y813959D01*
X689912Y807398D01*
X679414Y800181D01*
X668261Y792308D01*
X657107Y783122D01*
X645297Y772625D01*
X634143Y760815D01*
X622990Y748349D01*
X612492Y735227D01*
X603307Y720137D01*
X594777Y704390D01*
X594121Y703078D01*
X593465Y701110D01*
X592153Y697829D01*
X590185Y693893D01*
X586904Y688644D01*
X582312Y681427D01*
X576407Y672898D01*
X569189Y662400D01*
X560660Y650590D01*
X549506Y636812D01*
X536385Y620409D01*
X521294Y602039D01*
X512765Y591541D01*
X503579Y581043D01*
X493738Y569234D01*
X482584Y557424D01*
X471431Y544302D01*
X459621Y531180D01*
X458965Y530524D01*
X456996Y529868D01*
X454372Y527899D01*
X451091Y525275D01*
X446499Y521995D01*
X441250Y518714D01*
X430096Y510841D01*
X418286Y501655D01*
X407133Y493126D01*
X402540Y488533D01*
X397947Y484597D01*
X394011Y480660D01*
X390730Y477380D01*
X390074Y476724D01*
X388106Y476067D01*
X384825Y474099D01*
X380889Y471475D01*
X374984Y468850D01*
X369079Y466226D01*
X361862Y462945D01*
X353989Y459665D01*
X345459Y455728D01*
X336274Y452448D01*
X315935Y447199D01*
X294940Y442606D01*
X283786Y441950D01*
X272632Y441294D01*
X271976D01*
X269352Y441950D01*
X265415Y443262D01*
X260166Y445887D01*
X259510D01*
X258198Y447199D01*
X256230Y448511D01*
X253605Y450480D01*
X247044Y456385D01*
X239827Y464914D01*
X231954Y474755D01*
X225393Y487221D01*
X222769Y494438D01*
X220800Y502312D01*
X219488Y510185D01*
X218832Y518714D01*
X219488Y519370D01*
X220144Y521995D01*
X222113Y523963D01*
X223425Y524619D01*
Y525275D01*
Y525931D01*
X224081Y527899D01*
X224737Y530524D01*
X226049Y533804D01*
X227361Y537085D01*
X229330Y541678D01*
X231298Y546926D01*
X237203Y559392D01*
X241796Y566609D01*
X246388Y574482D01*
X251637Y582356D01*
X257542Y591541D01*
X264759Y601383D01*
X272632Y611224D01*
X273288Y611880D01*
X275257Y614505D01*
X278537Y619097D01*
X282474Y624346D01*
X287723Y631563D01*
X294284Y639436D01*
X302157Y648622D01*
X310686Y658463D01*
X320528Y669617D01*
X331025Y681427D01*
X342179Y693237D01*
X354645Y705702D01*
X367767Y718824D01*
X382201Y731947D01*
X396635Y745068D01*
X412382Y758191D01*
X413038Y758847D01*
X415006Y760815D01*
X418286Y763439D01*
X422223Y768032D01*
X427472Y773281D01*
X433377Y779842D01*
X439938Y788371D01*
X447155Y797557D01*
X455684Y808054D01*
X463557Y820520D01*
X472743Y833642D01*
X481928Y848732D01*
X491114Y864479D01*
X500299Y882193D01*
X510140Y901220D01*
X519326Y921559D01*
X519982Y922216D01*
X521294Y925496D01*
X523263Y930089D01*
X526543Y936650D01*
X531136Y944523D01*
X537041Y954364D01*
X544258Y966174D01*
X552787Y979952D01*
X563285Y995699D01*
X575750Y1012757D01*
X590185Y1031128D01*
X606587Y1052123D01*
X624958Y1074431D01*
X645297Y1098050D01*
X668261Y1123638D01*
X693848Y1151194D01*
X695161Y1152507D01*
X698441Y1155787D01*
X703690Y1160380D01*
X710907Y1166941D01*
X719436Y1175470D01*
X729278Y1184656D01*
X740432Y1194497D01*
X752898Y1205651D01*
X766019Y1216804D01*
X779798Y1228614D01*
X808666Y1251578D01*
X823100Y1262731D01*
X837534Y1273229D01*
X851312Y1282414D01*
X865091Y1290944D01*
X866403Y1291600D01*
X869683Y1293568D01*
X874932Y1296193D01*
X882149Y1300129D01*
X890678Y1304722D01*
X899864Y1309971D01*
X920203Y1323093D01*
X939886Y1337527D01*
X949071Y1345400D01*
X957601Y1353273D01*
X964818Y1360490D01*
X970067Y1368363D01*
X973347Y1376237D01*
X974659Y1383454D01*
Y1384110D01*
Y1386734D01*
Y1389359D01*
X974003Y1391983D01*
Y1395920D01*
Y1400512D01*
X973347Y1406417D01*
X972691Y1412978D01*
X972035Y1421508D01*
X971379Y1430693D01*
X970723Y1441191D01*
X969410Y1453000D01*
X968098Y1466778D01*
X966786Y1481869D01*
Y1482525D01*
Y1483181D01*
X967442Y1487118D01*
X968098Y1493679D01*
X969410Y1502208D01*
X972035Y1513362D01*
X975971Y1526484D01*
X981220Y1540918D01*
X987781Y1557320D01*
X988437Y1557976D01*
X989750Y1558632D01*
X991062Y1560601D01*
X994342Y1563225D01*
X1001559Y1568474D01*
X1010745Y1575691D01*
X1021899Y1582252D01*
X1034364Y1587501D01*
X1048142Y1592094D01*
X1055360Y1592750D01*
X1062577Y1593406D01*
X1065201D01*
X1067169Y1592750D01*
D02*
G37*
G36*
X1408341Y447855D02*
X1402437D01*
Y453760D01*
X1408341D01*
Y447855D01*
D02*
G37*
G36*
X3010836Y2061834D02*
X2976970D01*
Y2042920D01*
X2972441D01*
Y2066929D01*
X3010836D01*
Y2061834D01*
D02*
G37*
G36*
X2992920Y2038324D02*
X2993453Y2038291D01*
X2994053Y2038225D01*
X2994719Y2038158D01*
X2995485Y2038058D01*
X2996284Y2037958D01*
X2997116Y2037792D01*
X2997982Y2037625D01*
X2998848Y2037392D01*
X2999747Y2037126D01*
X3000646Y2036826D01*
X3001512Y2036493D01*
X3002378Y2036093D01*
X3002444Y2036060D01*
X3002577Y2035993D01*
X3002811Y2035860D01*
X3003110Y2035660D01*
X3003477Y2035427D01*
X3003909Y2035128D01*
X3004376Y2034795D01*
X3004908Y2034428D01*
X3005441Y2033962D01*
X3006007Y2033496D01*
X3006573Y2032963D01*
X3007140Y2032364D01*
X3007672Y2031731D01*
X3008205Y2031065D01*
X3008705Y2030332D01*
X3009171Y2029566D01*
X3009204Y2029533D01*
X3009271Y2029367D01*
X3009371Y2029134D01*
X3009537Y2028834D01*
X3009704Y2028434D01*
X3009903Y2027968D01*
X3010137Y2027435D01*
X3010336Y2026803D01*
X3010569Y2026170D01*
X3010769Y2025437D01*
X3010969Y2024671D01*
X3011135Y2023872D01*
X3011302Y2023006D01*
X3011402Y2022141D01*
X3011468Y2021208D01*
X3011502Y2020276D01*
Y2020009D01*
X3011468Y2019710D01*
Y2019310D01*
X3011402Y2018811D01*
X3011335Y2018245D01*
X3011269Y2017612D01*
X3011135Y2016912D01*
X3010969Y2016147D01*
X3010769Y2015381D01*
X3010536Y2014582D01*
X3010236Y2013749D01*
X3009903Y2012950D01*
X3009504Y2012117D01*
X3009071Y2011351D01*
X3008538Y2010585D01*
X3008505Y2010552D01*
X3008405Y2010419D01*
X3008238Y2010219D01*
X3008005Y2009953D01*
X3007706Y2009620D01*
X3007339Y2009254D01*
X3006906Y2008854D01*
X3006407Y2008421D01*
X3005841Y2007988D01*
X3005241Y2007522D01*
X3004542Y2007056D01*
X3003809Y2006623D01*
X3003010Y2006190D01*
X3002178Y2005790D01*
X3001245Y2005424D01*
X3000280Y2005091D01*
X2999114Y2010086D01*
X2999148D01*
X2999314Y2010153D01*
X2999514Y2010219D01*
X2999814Y2010352D01*
X3000146Y2010486D01*
X3000546Y2010652D01*
X3000979Y2010852D01*
X3001445Y2011085D01*
X3002444Y2011651D01*
X3003443Y2012317D01*
X3003943Y2012683D01*
X3004409Y2013083D01*
X3004842Y2013516D01*
X3005208Y2013982D01*
X3005241Y2014015D01*
X3005308Y2014082D01*
X3005375Y2014248D01*
X3005508Y2014448D01*
X3005641Y2014681D01*
X3005807Y2014981D01*
X3006007Y2015347D01*
X3006174Y2015714D01*
X3006340Y2016180D01*
X3006540Y2016646D01*
X3006707Y2017179D01*
X3006840Y2017745D01*
X3006973Y2018344D01*
X3007073Y2018977D01*
X3007106Y2019676D01*
X3007140Y2020376D01*
Y2020809D01*
X3007106Y2021108D01*
X3007073Y2021508D01*
X3007040Y2021941D01*
X3006973Y2022440D01*
X3006873Y2022973D01*
X3006773Y2023539D01*
X3006607Y2024139D01*
X3006440Y2024738D01*
X3006240Y2025371D01*
X3006007Y2025970D01*
X3005708Y2026603D01*
X3005375Y2027202D01*
X3005008Y2027768D01*
X3004975Y2027802D01*
X3004908Y2027901D01*
X3004775Y2028035D01*
X3004609Y2028235D01*
X3004409Y2028501D01*
X3004142Y2028767D01*
X3003843Y2029067D01*
X3003510Y2029400D01*
X3003110Y2029733D01*
X3002677Y2030099D01*
X3002211Y2030432D01*
X3001712Y2030765D01*
X3001179Y2031098D01*
X3000579Y2031398D01*
X2999980Y2031698D01*
X2999314Y2031931D01*
X2999281D01*
X2999148Y2031997D01*
X2998948Y2032031D01*
X2998715Y2032131D01*
X2998382Y2032197D01*
X2997982Y2032297D01*
X2997549Y2032430D01*
X2997050Y2032530D01*
X2996517Y2032630D01*
X2995951Y2032763D01*
X2995351Y2032863D01*
X2994719Y2032930D01*
X2993353Y2033063D01*
X2991955Y2033130D01*
X2991888D01*
X2991755D01*
X2991488D01*
X2991122Y2033096D01*
X2990723D01*
X2990223Y2033063D01*
X2989657Y2032996D01*
X2989058Y2032963D01*
X2988392Y2032863D01*
X2987726Y2032797D01*
X2986294Y2032530D01*
X2984829Y2032197D01*
X2983397Y2031731D01*
X2983363Y2031698D01*
X2983230Y2031664D01*
X2983064Y2031564D01*
X2982797Y2031465D01*
X2982497Y2031298D01*
X2982164Y2031132D01*
X2981765Y2030899D01*
X2981365Y2030632D01*
X2980932Y2030332D01*
X2980466Y2030033D01*
X2980033Y2029666D01*
X2979567Y2029267D01*
X2979134Y2028834D01*
X2978735Y2028368D01*
X2978335Y2027835D01*
X2977969Y2027302D01*
X2977935Y2027269D01*
X2977902Y2027169D01*
X2977802Y2027002D01*
X2977702Y2026769D01*
X2977569Y2026503D01*
X2977403Y2026170D01*
X2977236Y2025770D01*
X2977070Y2025337D01*
X2976903Y2024871D01*
X2976737Y2024372D01*
X2976603Y2023839D01*
X2976437Y2023273D01*
X2976237Y2022074D01*
X2976204Y2021408D01*
X2976171Y2020775D01*
Y2020575D01*
X2976204Y2020376D01*
Y2020076D01*
X2976237Y2019710D01*
X2976304Y2019277D01*
X2976370Y2018777D01*
X2976470Y2018278D01*
X2976603Y2017712D01*
X2976770Y2017146D01*
X2976970Y2016546D01*
X2977203Y2015914D01*
X2977469Y2015314D01*
X2977802Y2014715D01*
X2978169Y2014115D01*
X2978601Y2013549D01*
X2978635Y2013516D01*
X2978701Y2013416D01*
X2978868Y2013283D01*
X2979068Y2013083D01*
X2979334Y2012817D01*
X2979634Y2012550D01*
X2980000Y2012251D01*
X2980433Y2011918D01*
X2980932Y2011584D01*
X2981465Y2011252D01*
X2982065Y2010918D01*
X2982731Y2010585D01*
X2983430Y2010286D01*
X2984196Y2009986D01*
X2985028Y2009753D01*
X2985894Y2009520D01*
X2984629Y2004425D01*
X2984595D01*
X2984562Y2004458D01*
X2984462D01*
X2984362Y2004492D01*
X2984029Y2004591D01*
X2983596Y2004725D01*
X2983064Y2004925D01*
X2982464Y2005158D01*
X2981798Y2005424D01*
X2981099Y2005757D01*
X2980333Y2006123D01*
X2979534Y2006523D01*
X2978735Y2006989D01*
X2977969Y2007522D01*
X2977169Y2008121D01*
X2976437Y2008754D01*
X2975738Y2009420D01*
X2975072Y2010186D01*
X2975038Y2010219D01*
X2974938Y2010386D01*
X2974772Y2010619D01*
X2974572Y2010918D01*
X2974306Y2011318D01*
X2974039Y2011818D01*
X2973740Y2012384D01*
X2973440Y2013016D01*
X2973140Y2013716D01*
X2972840Y2014482D01*
X2972574Y2015314D01*
X2972308Y2016213D01*
X2972108Y2017179D01*
X2971941Y2018178D01*
X2971841Y2019244D01*
X2971808Y2020342D01*
Y2020609D01*
X2971841Y2020942D01*
Y2021375D01*
X2971875Y2021908D01*
X2971941Y2022507D01*
X2972008Y2023173D01*
X2972108Y2023939D01*
X2972241Y2024705D01*
X2972408Y2025537D01*
X2972607Y2026370D01*
X2972874Y2027202D01*
X2973140Y2028068D01*
X2973473Y2028867D01*
X2973873Y2029666D01*
X2974306Y2030432D01*
X2974339Y2030466D01*
X2974439Y2030599D01*
X2974572Y2030799D01*
X2974772Y2031065D01*
X2975038Y2031398D01*
X2975371Y2031764D01*
X2975738Y2032197D01*
X2976171Y2032630D01*
X2976670Y2033096D01*
X2977203Y2033596D01*
X2977802Y2034095D01*
X2978468Y2034562D01*
X2979168Y2035061D01*
X2979933Y2035527D01*
X2980766Y2035960D01*
X2981632Y2036360D01*
X2981698Y2036393D01*
X2981865Y2036460D01*
X2982098Y2036560D01*
X2982464Y2036659D01*
X2982897Y2036826D01*
X2983430Y2036992D01*
X2984029Y2037159D01*
X2984729Y2037359D01*
X2985461Y2037559D01*
X2986260Y2037725D01*
X2987093Y2037891D01*
X2987992Y2038058D01*
X2988924Y2038158D01*
X2989890Y2038258D01*
X2990889Y2038324D01*
X2991921Y2038358D01*
X2991955D01*
X2991988D01*
X2992188D01*
X2992521D01*
X2992920Y2038324D01*
D02*
G37*
G36*
X3010836Y1983846D02*
X3010802Y1983413D01*
Y1982947D01*
X3010769Y1982414D01*
X3010703Y1981315D01*
X3010603Y1980183D01*
X3010470Y1979084D01*
X3010370Y1978584D01*
X3010270Y1978118D01*
Y1978085D01*
X3010236Y1977985D01*
X3010203Y1977785D01*
X3010137Y1977552D01*
X3010037Y1977285D01*
X3009937Y1976953D01*
X3009803Y1976586D01*
X3009637Y1976187D01*
X3009271Y1975287D01*
X3008771Y1974355D01*
X3008205Y1973389D01*
X3007506Y1972490D01*
X3007472Y1972457D01*
X3007373Y1972357D01*
X3007239Y1972191D01*
X3007040Y1971991D01*
X3006807Y1971724D01*
X3006474Y1971458D01*
X3006140Y1971125D01*
X3005741Y1970792D01*
X3005275Y1970426D01*
X3004775Y1970059D01*
X3004242Y1969660D01*
X3003643Y1969293D01*
X3003044Y1968927D01*
X3002378Y1968594D01*
X3001678Y1968261D01*
X3000946Y1967961D01*
X3000912Y1967928D01*
X3000779Y1967895D01*
X3000546Y1967828D01*
X3000246Y1967728D01*
X2999847Y1967595D01*
X2999414Y1967462D01*
X2998881Y1967329D01*
X2998315Y1967196D01*
X2997649Y1967062D01*
X2996950Y1966929D01*
X2996217Y1966796D01*
X2995418Y1966663D01*
X2994585Y1966563D01*
X2993686Y1966496D01*
X2992754Y1966430D01*
X2991822D01*
X2991788D01*
X2991622D01*
X2991389D01*
X2991089D01*
X2990723Y1966463D01*
X2990256Y1966496D01*
X2989757Y1966530D01*
X2989224Y1966563D01*
X2988625Y1966596D01*
X2988025Y1966696D01*
X2986693Y1966863D01*
X2985361Y1967129D01*
X2984063Y1967462D01*
X2984029D01*
X2983929Y1967495D01*
X2983730Y1967562D01*
X2983497Y1967662D01*
X2983230Y1967762D01*
X2982897Y1967862D01*
X2982497Y1968028D01*
X2982098Y1968161D01*
X2981232Y1968561D01*
X2980300Y1968994D01*
X2979334Y1969527D01*
X2978468Y1970093D01*
X2978435Y1970126D01*
X2978368Y1970159D01*
X2978268Y1970259D01*
X2978102Y1970359D01*
X2977702Y1970692D01*
X2977203Y1971125D01*
X2976670Y1971658D01*
X2976071Y1972257D01*
X2975505Y1972890D01*
X2975005Y1973589D01*
Y1973622D01*
X2974938Y1973689D01*
X2974872Y1973789D01*
X2974805Y1973922D01*
X2974705Y1974122D01*
X2974572Y1974322D01*
X2974439Y1974588D01*
X2974306Y1974888D01*
X2973973Y1975554D01*
X2973673Y1976320D01*
X2973340Y1977219D01*
X2973074Y1978185D01*
Y1978218D01*
X2973040Y1978318D01*
X2973007Y1978451D01*
X2972974Y1978651D01*
X2972940Y1978917D01*
X2972874Y1979217D01*
X2972807Y1979550D01*
X2972774Y1979949D01*
X2972707Y1980382D01*
X2972641Y1980849D01*
X2972574Y1981381D01*
X2972541Y1981914D01*
X2972474Y1983080D01*
X2972441Y1984345D01*
Y1998165D01*
X3010836D01*
Y1983846D01*
D02*
G37*
G36*
X3001345Y1957705D02*
X3001412Y1957572D01*
X3001512Y1957339D01*
X3001645Y1957072D01*
X3001811Y1956739D01*
X3002045Y1956340D01*
X3002278Y1955907D01*
X3002577Y1955407D01*
X3002877Y1954875D01*
X3003243Y1954342D01*
X3004009Y1953176D01*
X3004875Y1951977D01*
X3005807Y1950845D01*
X3005841Y1950812D01*
X3005941Y1950712D01*
X3006074Y1950579D01*
X3006274Y1950346D01*
X3006507Y1950113D01*
X3006773Y1949846D01*
X3007106Y1949547D01*
X3007439Y1949214D01*
X3008238Y1948514D01*
X3009104Y1947815D01*
X3010037Y1947182D01*
X3010503Y1946883D01*
X3010969Y1946649D01*
Y1943586D01*
X2972441D01*
Y1948314D01*
X3002444D01*
X3002411Y1948348D01*
X3002378Y1948381D01*
X3002278Y1948481D01*
X3002178Y1948614D01*
X3002011Y1948814D01*
X3001845Y1949014D01*
X3001645Y1949247D01*
X3001412Y1949513D01*
X3000946Y1950179D01*
X3000380Y1950945D01*
X2999780Y1951811D01*
X2999181Y1952810D01*
X2999148Y1952843D01*
X2999114Y1952943D01*
X2999014Y1953076D01*
X2998914Y1953276D01*
X2998781Y1953509D01*
X2998648Y1953776D01*
X2998448Y1954109D01*
X2998282Y1954442D01*
X2997882Y1955208D01*
X2997483Y1956040D01*
X2997083Y1956906D01*
X2996750Y1957738D01*
X3001312D01*
X3001345Y1957705D01*
D02*
G37*
G36*
X3051181Y1857301D02*
X3021178D01*
X3021211Y1857268D01*
X3021244Y1857235D01*
X3021344Y1857135D01*
X3021444Y1857001D01*
X3021611Y1856802D01*
X3021777Y1856602D01*
X3021977Y1856369D01*
X3022210Y1856102D01*
X3022676Y1855436D01*
X3023242Y1854670D01*
X3023842Y1853805D01*
X3024441Y1852806D01*
X3024474Y1852772D01*
X3024508Y1852672D01*
X3024608Y1852539D01*
X3024708Y1852339D01*
X3024841Y1852106D01*
X3024974Y1851840D01*
X3025174Y1851507D01*
X3025340Y1851174D01*
X3025740Y1850408D01*
X3026140Y1849575D01*
X3026539Y1848710D01*
X3026872Y1847877D01*
X3022310D01*
X3022277Y1847910D01*
X3022210Y1848044D01*
X3022110Y1848277D01*
X3021977Y1848543D01*
X3021811Y1848876D01*
X3021577Y1849276D01*
X3021344Y1849709D01*
X3021045Y1850208D01*
X3020745Y1850741D01*
X3020379Y1851274D01*
X3019613Y1852439D01*
X3018747Y1853638D01*
X3017814Y1854770D01*
X3017781Y1854804D01*
X3017681Y1854903D01*
X3017548Y1855037D01*
X3017348Y1855270D01*
X3017115Y1855503D01*
X3016849Y1855769D01*
X3016516Y1856069D01*
X3016183Y1856402D01*
X3015384Y1857101D01*
X3014518Y1857801D01*
X3013585Y1858433D01*
X3013119Y1858733D01*
X3012653Y1858966D01*
Y1862030D01*
X3051181D01*
Y1857301D01*
D02*
G37*
G36*
X3040891Y1839219D02*
X3041158Y1839186D01*
X3041457Y1839153D01*
X3041824Y1839119D01*
X3042223Y1839019D01*
X3043122Y1838820D01*
X3044088Y1838520D01*
X3044588Y1838320D01*
X3045087Y1838087D01*
X3045620Y1837787D01*
X3046119Y1837488D01*
X3046153Y1837454D01*
X3046253Y1837421D01*
X3046386Y1837288D01*
X3046552Y1837155D01*
X3046785Y1836988D01*
X3047052Y1836755D01*
X3047352Y1836489D01*
X3047651Y1836189D01*
X3047984Y1835856D01*
X3048317Y1835490D01*
X3048684Y1835057D01*
X3049017Y1834624D01*
X3049383Y1834124D01*
X3049716Y1833591D01*
X3050016Y1833025D01*
X3050315Y1832426D01*
Y1832393D01*
X3050382Y1832293D01*
X3050448Y1832093D01*
X3050548Y1831860D01*
X3050648Y1831527D01*
X3050782Y1831161D01*
X3050915Y1830728D01*
X3051048Y1830262D01*
X3051214Y1829729D01*
X3051348Y1829163D01*
X3051481Y1828563D01*
X3051581Y1827930D01*
X3051681Y1827231D01*
X3051747Y1826532D01*
X3051780Y1825799D01*
X3051814Y1825033D01*
Y1824534D01*
X3051780Y1824168D01*
Y1823701D01*
X3051747Y1823202D01*
X3051681Y1822602D01*
X3051614Y1821970D01*
X3051547Y1821304D01*
X3051448Y1820604D01*
X3051181Y1819139D01*
X3050815Y1817674D01*
X3050582Y1816941D01*
X3050315Y1816275D01*
X3050282Y1816242D01*
X3050249Y1816109D01*
X3050149Y1815943D01*
X3050016Y1815709D01*
X3049882Y1815410D01*
X3049683Y1815043D01*
X3049450Y1814677D01*
X3049183Y1814277D01*
X3048850Y1813811D01*
X3048517Y1813378D01*
X3048151Y1812912D01*
X3047751Y1812446D01*
X3047285Y1812013D01*
X3046819Y1811547D01*
X3046319Y1811147D01*
X3045753Y1810748D01*
X3045720Y1810714D01*
X3045620Y1810648D01*
X3045454Y1810548D01*
X3045220Y1810448D01*
X3044921Y1810282D01*
X3044588Y1810115D01*
X3044188Y1809915D01*
X3043722Y1809749D01*
X3043256Y1809549D01*
X3042723Y1809349D01*
X3042157Y1809183D01*
X3041524Y1809016D01*
X3040225Y1808783D01*
X3039526Y1808683D01*
X3038827Y1808650D01*
X3038394Y1813445D01*
X3038427D01*
X3038527Y1813478D01*
X3038660D01*
X3038860Y1813512D01*
X3039126Y1813545D01*
X3039393Y1813611D01*
X3039726Y1813678D01*
X3040059Y1813778D01*
X3040825Y1813978D01*
X3041624Y1814244D01*
X3042423Y1814577D01*
X3043156Y1815010D01*
X3043189D01*
X3043222Y1815077D01*
X3043322Y1815143D01*
X3043456Y1815243D01*
X3043789Y1815543D01*
X3044221Y1815976D01*
X3044721Y1816509D01*
X3045220Y1817175D01*
X3045687Y1817974D01*
X3046153Y1818873D01*
Y1818906D01*
X3046186Y1819006D01*
X3046253Y1819139D01*
X3046319Y1819339D01*
X3046419Y1819572D01*
X3046519Y1819872D01*
X3046619Y1820205D01*
X3046719Y1820604D01*
X3046819Y1821037D01*
X3046919Y1821470D01*
X3047119Y1822469D01*
X3047252Y1823601D01*
X3047285Y1824800D01*
Y1825300D01*
X3047252Y1825533D01*
Y1825833D01*
X3047218Y1826166D01*
X3047185Y1826532D01*
X3047085Y1827331D01*
X3046919Y1828197D01*
X3046719Y1829063D01*
X3046419Y1829928D01*
Y1829962D01*
X3046386Y1830028D01*
X3046319Y1830128D01*
X3046253Y1830295D01*
X3046053Y1830694D01*
X3045787Y1831194D01*
X3045454Y1831727D01*
X3045054Y1832259D01*
X3044588Y1832792D01*
X3044055Y1833258D01*
X3044022D01*
X3043988Y1833292D01*
X3043789Y1833425D01*
X3043489Y1833591D01*
X3043089Y1833825D01*
X3042590Y1834024D01*
X3042024Y1834191D01*
X3041424Y1834324D01*
X3040758Y1834357D01*
X3040725D01*
X3040692D01*
X3040592D01*
X3040459D01*
X3040126Y1834291D01*
X3039693Y1834224D01*
X3039193Y1834091D01*
X3038694Y1833925D01*
X3038128Y1833658D01*
X3037628Y1833292D01*
X3037561Y1833258D01*
X3037395Y1833092D01*
X3037162Y1832826D01*
X3036829Y1832459D01*
X3036463Y1831993D01*
X3036096Y1831394D01*
X3035730Y1830661D01*
X3035364Y1829829D01*
Y1829795D01*
X3035330Y1829762D01*
X3035297Y1829662D01*
X3035264Y1829496D01*
X3035197Y1829296D01*
X3035097Y1829063D01*
X3034997Y1828763D01*
X3034897Y1828397D01*
X3034798Y1827964D01*
X3034631Y1827464D01*
X3034498Y1826898D01*
X3034331Y1826265D01*
X3034131Y1825566D01*
X3033932Y1824767D01*
X3033732Y1823901D01*
X3033499Y1822936D01*
Y1822869D01*
X3033432Y1822702D01*
X3033366Y1822436D01*
X3033266Y1822070D01*
X3033166Y1821637D01*
X3033033Y1821137D01*
X3032866Y1820604D01*
X3032700Y1820038D01*
X3032333Y1818806D01*
X3031934Y1817574D01*
X3031734Y1816975D01*
X3031534Y1816442D01*
X3031301Y1815943D01*
X3031101Y1815510D01*
X3031068Y1815476D01*
X3031035Y1815376D01*
X3030935Y1815243D01*
X3030835Y1815077D01*
X3030702Y1814844D01*
X3030535Y1814577D01*
X3030102Y1813978D01*
X3029569Y1813312D01*
X3028970Y1812646D01*
X3028271Y1811980D01*
X3027505Y1811414D01*
X3027472D01*
X3027405Y1811347D01*
X3027305Y1811281D01*
X3027139Y1811214D01*
X3026939Y1811114D01*
X3026706Y1810981D01*
X3026406Y1810881D01*
X3026106Y1810748D01*
X3025407Y1810515D01*
X3024608Y1810282D01*
X3023709Y1810148D01*
X3022743Y1810082D01*
X3022710D01*
X3022610D01*
X3022443D01*
X3022243Y1810115D01*
X3021977Y1810148D01*
X3021677Y1810182D01*
X3021344Y1810215D01*
X3020945Y1810282D01*
X3020112Y1810481D01*
X3019213Y1810781D01*
X3018714Y1810947D01*
X3018247Y1811181D01*
X3017748Y1811414D01*
X3017282Y1811713D01*
X3017248Y1811747D01*
X3017182Y1811780D01*
X3017049Y1811880D01*
X3016849Y1812013D01*
X3016649Y1812213D01*
X3016416Y1812413D01*
X3016149Y1812646D01*
X3015850Y1812946D01*
X3015550Y1813278D01*
X3015217Y1813611D01*
X3014917Y1814011D01*
X3014584Y1814444D01*
X3014285Y1814910D01*
X3013985Y1815443D01*
X3013719Y1815976D01*
X3013452Y1816542D01*
Y1816575D01*
X3013386Y1816675D01*
X3013319Y1816875D01*
X3013252Y1817108D01*
X3013153Y1817408D01*
X3013019Y1817774D01*
X3012919Y1818174D01*
X3012786Y1818640D01*
X3012653Y1819139D01*
X3012553Y1819672D01*
X3012420Y1820238D01*
X3012320Y1820871D01*
X3012187Y1822203D01*
X3012120Y1823601D01*
Y1824034D01*
X3012153Y1824334D01*
Y1824700D01*
X3012187Y1825133D01*
X3012220Y1825633D01*
X3012287Y1826166D01*
X3012353Y1826732D01*
X3012453Y1827331D01*
X3012720Y1828597D01*
X3013053Y1829895D01*
X3013519Y1831161D01*
Y1831194D01*
X3013585Y1831294D01*
X3013652Y1831460D01*
X3013785Y1831693D01*
X3013918Y1831960D01*
X3014085Y1832293D01*
X3014285Y1832626D01*
X3014551Y1833025D01*
X3015117Y1833825D01*
X3015816Y1834657D01*
X3016616Y1835456D01*
X3017082Y1835856D01*
X3017581Y1836189D01*
X3017615Y1836222D01*
X3017715Y1836255D01*
X3017848Y1836355D01*
X3018048Y1836455D01*
X3018314Y1836589D01*
X3018614Y1836755D01*
X3018947Y1836921D01*
X3019346Y1837088D01*
X3019746Y1837255D01*
X3020212Y1837421D01*
X3020712Y1837588D01*
X3021244Y1837721D01*
X3022377Y1837954D01*
X3022976Y1838054D01*
X3023609Y1838087D01*
X3023975Y1833225D01*
X3023942D01*
X3023809Y1833192D01*
X3023642Y1833159D01*
X3023376Y1833125D01*
X3023076Y1833059D01*
X3022743Y1832992D01*
X3022343Y1832859D01*
X3021910Y1832726D01*
X3021045Y1832393D01*
X3020578Y1832160D01*
X3020112Y1831927D01*
X3019679Y1831627D01*
X3019246Y1831294D01*
X3018847Y1830928D01*
X3018481Y1830528D01*
X3018447Y1830495D01*
X3018414Y1830428D01*
X3018314Y1830295D01*
X3018181Y1830095D01*
X3018048Y1829862D01*
X3017881Y1829595D01*
X3017715Y1829229D01*
X3017548Y1828830D01*
X3017382Y1828397D01*
X3017215Y1827897D01*
X3017049Y1827364D01*
X3016915Y1826765D01*
X3016782Y1826099D01*
X3016682Y1825400D01*
X3016649Y1824634D01*
X3016616Y1823835D01*
Y1823402D01*
X3016649Y1823069D01*
X3016682Y1822702D01*
X3016716Y1822270D01*
X3016749Y1821770D01*
X3016816Y1821271D01*
X3017015Y1820138D01*
X3017315Y1819039D01*
X3017515Y1818507D01*
X3017748Y1817974D01*
X3018014Y1817508D01*
X3018314Y1817075D01*
X3018347Y1817041D01*
X3018381Y1816975D01*
X3018481Y1816875D01*
X3018614Y1816742D01*
X3018780Y1816575D01*
X3018980Y1816409D01*
X3019446Y1816042D01*
X3020046Y1815643D01*
X3020745Y1815310D01*
X3021144Y1815177D01*
X3021544Y1815077D01*
X3021977Y1815010D01*
X3022410Y1814977D01*
X3022443D01*
X3022510D01*
X3022610D01*
X3022743Y1815010D01*
X3023142Y1815043D01*
X3023609Y1815177D01*
X3024142Y1815343D01*
X3024708Y1815610D01*
X3025274Y1815976D01*
X3025540Y1816209D01*
X3025807Y1816475D01*
Y1816509D01*
X3025873Y1816542D01*
X3025940Y1816642D01*
X3026040Y1816808D01*
X3026173Y1817008D01*
X3026306Y1817274D01*
X3026472Y1817608D01*
X3026639Y1817974D01*
X3026839Y1818440D01*
X3027072Y1819006D01*
X3027272Y1819605D01*
X3027505Y1820338D01*
X3027771Y1821137D01*
X3028004Y1822036D01*
X3028271Y1823035D01*
X3028537Y1824134D01*
Y1824201D01*
X3028604Y1824401D01*
X3028670Y1824734D01*
X3028770Y1825133D01*
X3028903Y1825666D01*
X3029037Y1826232D01*
X3029203Y1826865D01*
X3029370Y1827531D01*
X3029736Y1828963D01*
X3030135Y1830361D01*
X3030369Y1831027D01*
X3030568Y1831660D01*
X3030768Y1832226D01*
X3030968Y1832692D01*
X3031001Y1832726D01*
X3031035Y1832826D01*
X3031135Y1833025D01*
X3031234Y1833225D01*
X3031401Y1833525D01*
X3031601Y1833825D01*
X3031800Y1834191D01*
X3032034Y1834557D01*
X3032600Y1835356D01*
X3033299Y1836189D01*
X3034065Y1836955D01*
X3034465Y1837288D01*
X3034897Y1837621D01*
X3034931Y1837654D01*
X3034997Y1837687D01*
X3035131Y1837787D01*
X3035330Y1837887D01*
X3035530Y1837987D01*
X3035796Y1838154D01*
X3036130Y1838287D01*
X3036463Y1838453D01*
X3036862Y1838586D01*
X3037262Y1838753D01*
X3038194Y1838986D01*
X3039226Y1839186D01*
X3039793Y1839219D01*
X3040359Y1839253D01*
X3040392D01*
X3040492D01*
X3040658D01*
X3040891Y1839219D01*
D02*
G37*
G36*
X3032899Y1803355D02*
X3033366Y1803322D01*
X3033865Y1803289D01*
X3034398Y1803255D01*
X3034997Y1803222D01*
X3035597Y1803122D01*
X3036929Y1802956D01*
X3038261Y1802689D01*
X3039559Y1802356D01*
X3039593D01*
X3039693Y1802323D01*
X3039892Y1802256D01*
X3040126Y1802156D01*
X3040392Y1802056D01*
X3040725Y1801957D01*
X3041124Y1801790D01*
X3041524Y1801657D01*
X3042390Y1801257D01*
X3043322Y1800824D01*
X3044288Y1800292D01*
X3045154Y1799725D01*
X3045187Y1799692D01*
X3045254Y1799659D01*
X3045354Y1799559D01*
X3045520Y1799459D01*
X3045920Y1799126D01*
X3046419Y1798693D01*
X3046952Y1798160D01*
X3047551Y1797561D01*
X3048117Y1796928D01*
X3048617Y1796229D01*
Y1796196D01*
X3048684Y1796129D01*
X3048750Y1796029D01*
X3048817Y1795896D01*
X3048917Y1795696D01*
X3049050Y1795496D01*
X3049183Y1795230D01*
X3049316Y1794930D01*
X3049649Y1794264D01*
X3049949Y1793498D01*
X3050282Y1792599D01*
X3050548Y1791633D01*
Y1791600D01*
X3050582Y1791500D01*
X3050615Y1791367D01*
X3050648Y1791167D01*
X3050682Y1790901D01*
X3050748Y1790601D01*
X3050815Y1790268D01*
X3050848Y1789869D01*
X3050915Y1789436D01*
X3050981Y1788969D01*
X3051048Y1788437D01*
X3051081Y1787904D01*
X3051148Y1786738D01*
X3051181Y1785473D01*
Y1771653D01*
X3012786D01*
Y1785973D01*
X3012820Y1786405D01*
Y1786872D01*
X3012853Y1787404D01*
X3012919Y1788503D01*
X3013019Y1789636D01*
X3013153Y1790734D01*
X3013252Y1791234D01*
X3013352Y1791700D01*
Y1791733D01*
X3013386Y1791833D01*
X3013419Y1792033D01*
X3013485Y1792266D01*
X3013585Y1792533D01*
X3013685Y1792866D01*
X3013818Y1793232D01*
X3013985Y1793631D01*
X3014351Y1794531D01*
X3014851Y1795463D01*
X3015417Y1796429D01*
X3016116Y1797328D01*
X3016149Y1797361D01*
X3016249Y1797461D01*
X3016383Y1797628D01*
X3016582Y1797827D01*
X3016816Y1798094D01*
X3017148Y1798360D01*
X3017481Y1798693D01*
X3017881Y1799026D01*
X3018347Y1799392D01*
X3018847Y1799759D01*
X3019380Y1800158D01*
X3019979Y1800525D01*
X3020578Y1800891D01*
X3021244Y1801224D01*
X3021944Y1801557D01*
X3022676Y1801857D01*
X3022710Y1801890D01*
X3022843Y1801923D01*
X3023076Y1801990D01*
X3023376Y1802090D01*
X3023775Y1802223D01*
X3024208Y1802356D01*
X3024741Y1802489D01*
X3025307Y1802622D01*
X3025973Y1802756D01*
X3026672Y1802889D01*
X3027405Y1803022D01*
X3028204Y1803155D01*
X3029037Y1803255D01*
X3029936Y1803322D01*
X3030868Y1803388D01*
X3031800D01*
X3031834D01*
X3032000D01*
X3032233D01*
X3032533D01*
X3032899Y1803355D01*
D02*
G37*
G36*
X4825682Y953093D02*
X4826048D01*
X4826514Y953027D01*
X4827080Y952960D01*
X4827680Y952860D01*
X4828312Y952760D01*
X4829012Y952594D01*
X4829711Y952394D01*
X4830444Y952128D01*
X4831176Y951828D01*
X4831909Y951495D01*
X4832608Y951062D01*
X4833274Y950596D01*
X4833907Y950063D01*
X4833940Y950030D01*
X4834040Y949930D01*
X4834206Y949763D01*
X4834406Y949530D01*
X4834673Y949230D01*
X4834939Y948864D01*
X4835205Y948431D01*
X4835538Y947965D01*
X4835838Y947432D01*
X4836105Y946866D01*
X4836404Y946233D01*
X4836637Y945567D01*
X4836837Y944868D01*
X4837004Y944102D01*
X4837104Y943303D01*
X4837137Y942471D01*
Y942437D01*
Y942371D01*
Y942237D01*
Y942071D01*
X4837104Y941871D01*
Y941605D01*
X4837004Y941039D01*
X4836904Y940339D01*
X4836737Y939573D01*
X4836504Y938741D01*
X4836171Y937908D01*
Y937875D01*
X4836138Y937808D01*
X4836071Y937675D01*
X4836005Y937542D01*
X4835905Y937309D01*
X4835771Y937076D01*
X4835605Y936809D01*
X4835439Y936510D01*
X4835006Y935811D01*
X4834473Y935011D01*
X4833807Y934145D01*
X4833041Y933246D01*
X4833008Y933213D01*
X4832941Y933146D01*
X4832808Y932980D01*
X4832641Y932780D01*
X4832375Y932547D01*
X4832075Y932247D01*
X4831742Y931881D01*
X4831343Y931481D01*
X4830843Y931015D01*
X4830310Y930516D01*
X4829744Y929950D01*
X4829078Y929350D01*
X4828379Y928718D01*
X4827580Y928018D01*
X4826747Y927286D01*
X4825815Y926486D01*
X4825782Y926453D01*
X4825615Y926320D01*
X4825415Y926154D01*
X4825115Y925920D01*
X4824783Y925621D01*
X4824416Y925288D01*
X4823983Y924921D01*
X4823550Y924555D01*
X4822618Y923756D01*
X4821719Y922957D01*
X4821319Y922590D01*
X4820920Y922224D01*
X4820620Y921924D01*
X4820354Y921658D01*
X4820287Y921591D01*
X4820154Y921458D01*
X4819921Y921192D01*
X4819654Y920859D01*
X4819355Y920492D01*
X4819022Y920060D01*
X4818689Y919593D01*
X4818389Y919127D01*
X4837203D01*
Y914598D01*
X4811829D01*
Y914632D01*
Y914665D01*
Y914765D01*
Y914898D01*
Y915231D01*
X4811862Y915631D01*
X4811929Y916130D01*
X4812029Y916696D01*
X4812162Y917262D01*
X4812362Y917862D01*
Y917895D01*
X4812395Y917995D01*
X4812462Y918128D01*
X4812561Y918295D01*
X4812661Y918528D01*
X4812794Y918827D01*
X4812928Y919127D01*
X4813127Y919460D01*
X4813527Y920259D01*
X4814093Y921092D01*
X4814726Y922024D01*
X4815458Y922957D01*
X4815492Y922990D01*
X4815558Y923057D01*
X4815692Y923223D01*
X4815858Y923390D01*
X4816091Y923623D01*
X4816358Y923922D01*
X4816657Y924255D01*
X4817024Y924622D01*
X4817457Y925021D01*
X4817889Y925454D01*
X4818422Y925954D01*
X4818955Y926453D01*
X4819554Y926986D01*
X4820187Y927552D01*
X4820886Y928152D01*
X4821619Y928751D01*
X4821652D01*
X4821686Y928817D01*
X4821885Y928984D01*
X4822218Y929250D01*
X4822618Y929617D01*
X4823151Y930050D01*
X4823717Y930549D01*
X4824350Y931115D01*
X4825016Y931715D01*
X4825715Y932347D01*
X4826448Y933013D01*
X4827147Y933679D01*
X4827846Y934379D01*
X4828479Y935045D01*
X4829078Y935711D01*
X4829611Y936310D01*
X4830077Y936909D01*
X4830110Y936943D01*
X4830177Y937043D01*
X4830277Y937209D01*
X4830410Y937409D01*
X4830577Y937675D01*
X4830776Y938008D01*
X4830976Y938341D01*
X4831176Y938741D01*
X4831576Y939607D01*
X4831942Y940572D01*
X4832075Y941072D01*
X4832175Y941571D01*
X4832242Y942071D01*
X4832275Y942570D01*
Y942604D01*
Y942704D01*
Y942837D01*
X4832242Y943037D01*
X4832208Y943270D01*
X4832175Y943569D01*
X4832109Y943869D01*
X4832042Y944202D01*
X4831775Y944968D01*
X4831642Y945334D01*
X4831443Y945734D01*
X4831209Y946134D01*
X4830943Y946533D01*
X4830643Y946933D01*
X4830277Y947299D01*
X4830244Y947332D01*
X4830177Y947399D01*
X4830077Y947466D01*
X4829911Y947599D01*
X4829711Y947732D01*
X4829478Y947898D01*
X4829211Y948098D01*
X4828878Y948265D01*
X4828512Y948431D01*
X4828113Y948631D01*
X4827680Y948798D01*
X4827213Y948931D01*
X4826747Y949064D01*
X4826214Y949164D01*
X4825648Y949197D01*
X4825049Y949230D01*
X4824716D01*
X4824483Y949197D01*
X4824216Y949164D01*
X4823883Y949130D01*
X4823484Y949064D01*
X4823084Y948964D01*
X4822218Y948731D01*
X4821785Y948564D01*
X4821319Y948365D01*
X4820886Y948131D01*
X4820453Y947832D01*
X4820021Y947532D01*
X4819621Y947166D01*
X4819588Y947133D01*
X4819521Y947066D01*
X4819421Y946966D01*
X4819321Y946799D01*
X4819155Y946566D01*
X4818988Y946333D01*
X4818788Y946034D01*
X4818622Y945701D01*
X4818422Y945301D01*
X4818222Y944868D01*
X4818056Y944402D01*
X4817923Y943902D01*
X4817789Y943370D01*
X4817690Y942770D01*
X4817623Y942171D01*
X4817590Y941505D01*
X4812728Y942004D01*
Y942071D01*
X4812761Y942237D01*
X4812794Y942537D01*
X4812861Y942903D01*
X4812928Y943336D01*
X4813061Y943869D01*
X4813194Y944435D01*
X4813361Y945068D01*
X4813594Y945734D01*
X4813827Y946400D01*
X4814127Y947099D01*
X4814493Y947765D01*
X4814892Y948465D01*
X4815325Y949097D01*
X4815858Y949697D01*
X4816424Y950263D01*
X4816458Y950296D01*
X4816591Y950396D01*
X4816757Y950529D01*
X4817024Y950696D01*
X4817357Y950929D01*
X4817756Y951162D01*
X4818222Y951428D01*
X4818755Y951695D01*
X4819321Y951961D01*
X4819987Y952227D01*
X4820720Y952461D01*
X4821486Y952694D01*
X4822318Y952860D01*
X4823217Y952993D01*
X4824150Y953093D01*
X4825149Y953126D01*
X4825382D01*
X4825682Y953093D01*
D02*
G37*
G36*
X4790350Y952960D02*
X4790816D01*
X4791349Y952927D01*
X4792448Y952860D01*
X4793580Y952760D01*
X4794679Y952627D01*
X4795179Y952527D01*
X4795645Y952427D01*
X4795678D01*
X4795778Y952394D01*
X4795978Y952361D01*
X4796211Y952294D01*
X4796477Y952194D01*
X4796810Y952094D01*
X4797177Y951961D01*
X4797576Y951794D01*
X4798475Y951428D01*
X4799408Y950929D01*
X4800374Y950363D01*
X4801273Y949663D01*
X4801306Y949630D01*
X4801406Y949530D01*
X4801572Y949397D01*
X4801772Y949197D01*
X4802039Y948964D01*
X4802305Y948631D01*
X4802638Y948298D01*
X4802971Y947898D01*
X4803337Y947432D01*
X4803704Y946933D01*
X4804103Y946400D01*
X4804470Y945801D01*
X4804836Y945201D01*
X4805169Y944535D01*
X4805502Y943836D01*
X4805801Y943103D01*
X4805835Y943070D01*
X4805868Y942937D01*
X4805935Y942704D01*
X4806035Y942404D01*
X4806168Y942004D01*
X4806301Y941571D01*
X4806434Y941039D01*
X4806567Y940472D01*
X4806701Y939807D01*
X4806834Y939107D01*
X4806967Y938375D01*
X4807100Y937575D01*
X4807200Y936743D01*
X4807267Y935844D01*
X4807333Y934911D01*
Y933979D01*
Y933946D01*
Y933779D01*
Y933546D01*
Y933246D01*
X4807300Y932880D01*
X4807267Y932414D01*
X4807233Y931914D01*
X4807200Y931382D01*
X4807167Y930782D01*
X4807067Y930183D01*
X4806900Y928851D01*
X4806634Y927519D01*
X4806301Y926220D01*
Y926187D01*
X4806268Y926087D01*
X4806201Y925887D01*
X4806101Y925654D01*
X4806001Y925388D01*
X4805901Y925055D01*
X4805735Y924655D01*
X4805602Y924255D01*
X4805202Y923390D01*
X4804769Y922457D01*
X4804236Y921491D01*
X4803670Y920626D01*
X4803637Y920592D01*
X4803604Y920526D01*
X4803504Y920426D01*
X4803404Y920259D01*
X4803071Y919860D01*
X4802638Y919360D01*
X4802105Y918827D01*
X4801506Y918228D01*
X4800873Y917662D01*
X4800174Y917163D01*
X4800141D01*
X4800074Y917096D01*
X4799974Y917029D01*
X4799841Y916963D01*
X4799641Y916863D01*
X4799441Y916730D01*
X4799175Y916596D01*
X4798875Y916463D01*
X4798209Y916130D01*
X4797443Y915831D01*
X4796544Y915497D01*
X4795578Y915231D01*
X4795545D01*
X4795445Y915198D01*
X4795312Y915164D01*
X4795112Y915131D01*
X4794846Y915098D01*
X4794546Y915031D01*
X4794213Y914965D01*
X4793814Y914931D01*
X4793381Y914865D01*
X4792914Y914798D01*
X4792382Y914732D01*
X4791849Y914698D01*
X4790683Y914632D01*
X4789418Y914598D01*
X4775598D01*
Y952993D01*
X4789917D01*
X4790350Y952960D01*
D02*
G37*
G36*
X4830177Y442598D02*
X4825449D01*
Y472602D01*
X4825415Y472568D01*
X4825382Y472535D01*
X4825282Y472435D01*
X4825149Y472335D01*
X4824949Y472169D01*
X4824749Y472002D01*
X4824516Y471803D01*
X4824250Y471569D01*
X4823584Y471103D01*
X4822818Y470537D01*
X4821952Y469938D01*
X4820953Y469338D01*
X4820920Y469305D01*
X4820820Y469272D01*
X4820687Y469172D01*
X4820487Y469072D01*
X4820254Y468939D01*
X4819987Y468805D01*
X4819654Y468606D01*
X4819321Y468439D01*
X4818555Y468040D01*
X4817723Y467640D01*
X4816857Y467240D01*
X4816025Y466907D01*
Y471469D01*
X4816058Y471503D01*
X4816191Y471569D01*
X4816424Y471669D01*
X4816691Y471803D01*
X4817024Y471969D01*
X4817423Y472202D01*
X4817856Y472435D01*
X4818356Y472735D01*
X4818888Y473035D01*
X4819421Y473401D01*
X4820587Y474167D01*
X4821785Y475033D01*
X4822918Y475965D01*
X4822951Y475998D01*
X4823051Y476098D01*
X4823184Y476231D01*
X4823417Y476431D01*
X4823650Y476664D01*
X4823917Y476931D01*
X4824216Y477264D01*
X4824549Y477597D01*
X4825249Y478396D01*
X4825948Y479262D01*
X4826581Y480194D01*
X4826880Y480660D01*
X4827114Y481127D01*
X4830177D01*
Y442598D01*
D02*
G37*
G36*
X4790350Y480960D02*
X4790816D01*
X4791349Y480927D01*
X4792448Y480860D01*
X4793580Y480760D01*
X4794679Y480627D01*
X4795179Y480527D01*
X4795645Y480427D01*
X4795678D01*
X4795778Y480394D01*
X4795978Y480361D01*
X4796211Y480294D01*
X4796477Y480194D01*
X4796810Y480094D01*
X4797177Y479961D01*
X4797576Y479795D01*
X4798475Y479428D01*
X4799408Y478929D01*
X4800374Y478363D01*
X4801273Y477663D01*
X4801306Y477630D01*
X4801406Y477530D01*
X4801572Y477397D01*
X4801772Y477197D01*
X4802039Y476964D01*
X4802305Y476631D01*
X4802638Y476298D01*
X4802971Y475898D01*
X4803337Y475432D01*
X4803704Y474933D01*
X4804103Y474400D01*
X4804470Y473800D01*
X4804836Y473201D01*
X4805169Y472535D01*
X4805502Y471836D01*
X4805801Y471103D01*
X4805835Y471070D01*
X4805868Y470937D01*
X4805935Y470704D01*
X4806035Y470404D01*
X4806168Y470004D01*
X4806301Y469571D01*
X4806434Y469039D01*
X4806567Y468473D01*
X4806701Y467807D01*
X4806834Y467107D01*
X4806967Y466375D01*
X4807100Y465575D01*
X4807200Y464743D01*
X4807267Y463844D01*
X4807333Y462911D01*
Y461979D01*
Y461946D01*
Y461779D01*
Y461546D01*
Y461246D01*
X4807300Y460880D01*
X4807267Y460414D01*
X4807233Y459914D01*
X4807200Y459382D01*
X4807167Y458782D01*
X4807067Y458183D01*
X4806900Y456851D01*
X4806634Y455519D01*
X4806301Y454220D01*
Y454187D01*
X4806268Y454087D01*
X4806201Y453887D01*
X4806101Y453654D01*
X4806001Y453388D01*
X4805901Y453055D01*
X4805735Y452655D01*
X4805602Y452255D01*
X4805202Y451390D01*
X4804769Y450457D01*
X4804236Y449491D01*
X4803670Y448626D01*
X4803637Y448592D01*
X4803604Y448526D01*
X4803504Y448426D01*
X4803404Y448259D01*
X4803071Y447860D01*
X4802638Y447360D01*
X4802105Y446827D01*
X4801506Y446228D01*
X4800873Y445662D01*
X4800174Y445163D01*
X4800141D01*
X4800074Y445096D01*
X4799974Y445029D01*
X4799841Y444963D01*
X4799641Y444863D01*
X4799441Y444730D01*
X4799175Y444596D01*
X4798875Y444463D01*
X4798209Y444130D01*
X4797443Y443830D01*
X4796544Y443498D01*
X4795578Y443231D01*
X4795545D01*
X4795445Y443198D01*
X4795312Y443164D01*
X4795112Y443131D01*
X4794846Y443098D01*
X4794546Y443031D01*
X4794213Y442965D01*
X4793814Y442931D01*
X4793381Y442865D01*
X4792914Y442798D01*
X4792382Y442732D01*
X4791849Y442698D01*
X4790683Y442632D01*
X4789418Y442598D01*
X4775598D01*
Y480993D01*
X4789917D01*
X4790350Y480960D01*
D02*
G37*
G36*
X4832242Y1873118D02*
X4837436D01*
Y1868789D01*
X4832242D01*
Y1859598D01*
X4827513D01*
Y1868789D01*
X4810863D01*
Y1873118D01*
X4828379Y1897993D01*
X4832242D01*
Y1873118D01*
D02*
G37*
G36*
X4790350Y1897960D02*
X4790816D01*
X4791349Y1897927D01*
X4792448Y1897860D01*
X4793580Y1897760D01*
X4794679Y1897627D01*
X4795179Y1897527D01*
X4795645Y1897427D01*
X4795678D01*
X4795778Y1897394D01*
X4795978Y1897361D01*
X4796211Y1897294D01*
X4796477Y1897194D01*
X4796810Y1897094D01*
X4797177Y1896961D01*
X4797576Y1896794D01*
X4798475Y1896428D01*
X4799408Y1895929D01*
X4800374Y1895363D01*
X4801273Y1894663D01*
X4801306Y1894630D01*
X4801406Y1894530D01*
X4801572Y1894397D01*
X4801772Y1894197D01*
X4802039Y1893964D01*
X4802305Y1893631D01*
X4802638Y1893298D01*
X4802971Y1892898D01*
X4803337Y1892432D01*
X4803704Y1891933D01*
X4804103Y1891400D01*
X4804470Y1890801D01*
X4804836Y1890201D01*
X4805169Y1889535D01*
X4805502Y1888836D01*
X4805801Y1888103D01*
X4805835Y1888070D01*
X4805868Y1887937D01*
X4805935Y1887704D01*
X4806035Y1887404D01*
X4806168Y1887004D01*
X4806301Y1886571D01*
X4806434Y1886039D01*
X4806567Y1885473D01*
X4806701Y1884806D01*
X4806834Y1884107D01*
X4806967Y1883375D01*
X4807100Y1882575D01*
X4807200Y1881743D01*
X4807267Y1880844D01*
X4807333Y1879911D01*
Y1878979D01*
Y1878946D01*
Y1878779D01*
Y1878546D01*
Y1878246D01*
X4807300Y1877880D01*
X4807267Y1877414D01*
X4807233Y1876914D01*
X4807200Y1876382D01*
X4807167Y1875782D01*
X4807067Y1875183D01*
X4806900Y1873851D01*
X4806634Y1872519D01*
X4806301Y1871220D01*
Y1871187D01*
X4806268Y1871087D01*
X4806201Y1870887D01*
X4806101Y1870654D01*
X4806001Y1870388D01*
X4805901Y1870055D01*
X4805735Y1869655D01*
X4805602Y1869255D01*
X4805202Y1868390D01*
X4804769Y1867457D01*
X4804236Y1866492D01*
X4803670Y1865626D01*
X4803637Y1865592D01*
X4803604Y1865526D01*
X4803504Y1865426D01*
X4803404Y1865259D01*
X4803071Y1864860D01*
X4802638Y1864360D01*
X4802105Y1863828D01*
X4801506Y1863228D01*
X4800873Y1862662D01*
X4800174Y1862162D01*
X4800141D01*
X4800074Y1862096D01*
X4799974Y1862029D01*
X4799841Y1861963D01*
X4799641Y1861863D01*
X4799441Y1861730D01*
X4799175Y1861596D01*
X4798875Y1861463D01*
X4798209Y1861130D01*
X4797443Y1860831D01*
X4796544Y1860497D01*
X4795578Y1860231D01*
X4795545D01*
X4795445Y1860198D01*
X4795312Y1860165D01*
X4795112Y1860131D01*
X4794846Y1860098D01*
X4794546Y1860031D01*
X4794213Y1859965D01*
X4793814Y1859931D01*
X4793381Y1859865D01*
X4792914Y1859798D01*
X4792382Y1859732D01*
X4791849Y1859698D01*
X4790683Y1859632D01*
X4789418Y1859598D01*
X4775598D01*
Y1897993D01*
X4789917D01*
X4790350Y1897960D01*
D02*
G37*
G36*
X4824982Y1425093D02*
X4825249D01*
X4825582Y1425060D01*
X4825948Y1425027D01*
X4826348Y1424960D01*
X4827247Y1424793D01*
X4828246Y1424560D01*
X4829245Y1424227D01*
X4830244Y1423761D01*
X4830277D01*
X4830377Y1423695D01*
X4830510Y1423628D01*
X4830677Y1423528D01*
X4830910Y1423395D01*
X4831143Y1423228D01*
X4831742Y1422795D01*
X4832375Y1422296D01*
X4833041Y1421663D01*
X4833707Y1420931D01*
X4834273Y1420098D01*
X4834306Y1420065D01*
X4834340Y1419998D01*
X4834406Y1419865D01*
X4834506Y1419699D01*
X4834606Y1419466D01*
X4834739Y1419232D01*
X4834872Y1418933D01*
X4835006Y1418600D01*
X4835239Y1417867D01*
X4835472Y1417035D01*
X4835638Y1416102D01*
X4835705Y1415636D01*
Y1415137D01*
Y1415103D01*
Y1415037D01*
Y1414903D01*
X4835672Y1414737D01*
Y1414504D01*
X4835638Y1414237D01*
X4835538Y1413638D01*
X4835372Y1412939D01*
X4835139Y1412173D01*
X4834806Y1411407D01*
X4834340Y1410608D01*
Y1410574D01*
X4834273Y1410508D01*
X4834206Y1410408D01*
X4834106Y1410275D01*
X4833774Y1409908D01*
X4833341Y1409442D01*
X4832808Y1408943D01*
X4832109Y1408377D01*
X4831309Y1407877D01*
X4830410Y1407378D01*
X4830444D01*
X4830577Y1407344D01*
X4830743Y1407278D01*
X4830976Y1407211D01*
X4831243Y1407111D01*
X4831576Y1407011D01*
X4831942Y1406845D01*
X4832342Y1406678D01*
X4833207Y1406245D01*
X4833640Y1405979D01*
X4834073Y1405679D01*
X4834506Y1405346D01*
X4834939Y1404947D01*
X4835339Y1404547D01*
X4835705Y1404114D01*
X4835738Y1404081D01*
X4835771Y1404014D01*
X4835871Y1403848D01*
X4836005Y1403681D01*
X4836138Y1403415D01*
X4836304Y1403149D01*
X4836471Y1402815D01*
X4836671Y1402416D01*
X4836837Y1401983D01*
X4837004Y1401517D01*
X4837170Y1401017D01*
X4837303Y1400451D01*
X4837436Y1399885D01*
X4837536Y1399252D01*
X4837570Y1398620D01*
X4837603Y1397920D01*
Y1397854D01*
Y1397687D01*
X4837570Y1397421D01*
X4837536Y1397088D01*
X4837503Y1396655D01*
X4837403Y1396156D01*
X4837303Y1395589D01*
X4837137Y1394957D01*
X4836937Y1394324D01*
X4836704Y1393625D01*
X4836404Y1392925D01*
X4836038Y1392193D01*
X4835605Y1391494D01*
X4835139Y1390761D01*
X4834573Y1390062D01*
X4833907Y1389396D01*
X4833873Y1389362D01*
X4833740Y1389262D01*
X4833540Y1389063D01*
X4833241Y1388863D01*
X4832874Y1388596D01*
X4832441Y1388297D01*
X4831942Y1387997D01*
X4831376Y1387664D01*
X4830743Y1387331D01*
X4830044Y1387031D01*
X4829278Y1386732D01*
X4828445Y1386465D01*
X4827580Y1386265D01*
X4826647Y1386099D01*
X4825682Y1385966D01*
X4824649Y1385932D01*
X4824416D01*
X4824150Y1385966D01*
X4823817D01*
X4823384Y1386032D01*
X4822884Y1386099D01*
X4822318Y1386199D01*
X4821719Y1386299D01*
X4821053Y1386465D01*
X4820387Y1386665D01*
X4819688Y1386898D01*
X4818988Y1387198D01*
X4818256Y1387531D01*
X4817590Y1387930D01*
X4816890Y1388397D01*
X4816258Y1388929D01*
X4816224Y1388963D01*
X4816124Y1389063D01*
X4815958Y1389229D01*
X4815725Y1389495D01*
X4815458Y1389795D01*
X4815192Y1390128D01*
X4814859Y1390561D01*
X4814526Y1391061D01*
X4814193Y1391593D01*
X4813860Y1392159D01*
X4813560Y1392825D01*
X4813261Y1393525D01*
X4812994Y1394257D01*
X4812761Y1395057D01*
X4812595Y1395889D01*
X4812462Y1396755D01*
X4817190Y1397388D01*
Y1397354D01*
X4817223Y1397221D01*
X4817290Y1397021D01*
X4817357Y1396722D01*
X4817423Y1396389D01*
X4817556Y1396022D01*
X4817690Y1395589D01*
X4817823Y1395157D01*
X4818222Y1394191D01*
X4818689Y1393258D01*
X4818955Y1392792D01*
X4819255Y1392359D01*
X4819588Y1391960D01*
X4819921Y1391593D01*
X4819954Y1391560D01*
X4820021Y1391527D01*
X4820120Y1391427D01*
X4820287Y1391327D01*
X4820453Y1391194D01*
X4820687Y1391027D01*
X4820953Y1390861D01*
X4821253Y1390728D01*
X4821952Y1390395D01*
X4822751Y1390095D01*
X4823684Y1389895D01*
X4824183Y1389862D01*
X4824683Y1389829D01*
X4825016D01*
X4825249Y1389862D01*
X4825515Y1389895D01*
X4825848Y1389962D01*
X4826214Y1390028D01*
X4826647Y1390128D01*
X4827080Y1390228D01*
X4827513Y1390395D01*
X4827979Y1390561D01*
X4828479Y1390794D01*
X4828945Y1391061D01*
X4829411Y1391360D01*
X4829877Y1391727D01*
X4830310Y1392126D01*
X4830344Y1392159D01*
X4830410Y1392226D01*
X4830510Y1392359D01*
X4830677Y1392526D01*
X4830843Y1392759D01*
X4831043Y1393025D01*
X4831243Y1393358D01*
X4831476Y1393691D01*
X4831676Y1394091D01*
X4831875Y1394524D01*
X4832075Y1394990D01*
X4832242Y1395489D01*
X4832408Y1396022D01*
X4832508Y1396588D01*
X4832575Y1397188D01*
X4832608Y1397821D01*
Y1397854D01*
Y1397954D01*
Y1398120D01*
X4832575Y1398353D01*
X4832541Y1398653D01*
X4832508Y1398953D01*
X4832441Y1399319D01*
X4832342Y1399719D01*
X4832075Y1400551D01*
X4831909Y1401017D01*
X4831709Y1401450D01*
X4831476Y1401916D01*
X4831176Y1402349D01*
X4830843Y1402782D01*
X4830477Y1403182D01*
X4830444Y1403215D01*
X4830377Y1403282D01*
X4830244Y1403382D01*
X4830110Y1403515D01*
X4829877Y1403681D01*
X4829644Y1403848D01*
X4829345Y1404048D01*
X4829012Y1404247D01*
X4828645Y1404414D01*
X4828212Y1404614D01*
X4827779Y1404780D01*
X4827313Y1404947D01*
X4826780Y1405080D01*
X4826248Y1405180D01*
X4825682Y1405246D01*
X4825082Y1405280D01*
X4824849D01*
X4824549Y1405246D01*
X4824183Y1405213D01*
X4823684Y1405147D01*
X4823118Y1405080D01*
X4822485Y1404947D01*
X4821752Y1404780D01*
X4822285Y1408909D01*
X4822352D01*
X4822551Y1408876D01*
X4822818Y1408843D01*
X4823351D01*
X4823550Y1408876D01*
X4823817D01*
X4824117Y1408943D01*
X4824483Y1408976D01*
X4824849Y1409043D01*
X4825682Y1409242D01*
X4826581Y1409509D01*
X4827513Y1409908D01*
X4827979Y1410141D01*
X4828445Y1410408D01*
X4828479Y1410441D01*
X4828545Y1410475D01*
X4828679Y1410574D01*
X4828812Y1410708D01*
X4829012Y1410874D01*
X4829211Y1411074D01*
X4829411Y1411307D01*
X4829644Y1411607D01*
X4829877Y1411940D01*
X4830077Y1412273D01*
X4830277Y1412672D01*
X4830477Y1413105D01*
X4830610Y1413605D01*
X4830743Y1414104D01*
X4830810Y1414670D01*
X4830843Y1415270D01*
Y1415303D01*
Y1415370D01*
Y1415503D01*
X4830810Y1415703D01*
X4830776Y1415902D01*
X4830743Y1416169D01*
X4830610Y1416768D01*
X4830410Y1417434D01*
X4830110Y1418167D01*
X4829911Y1418500D01*
X4829678Y1418866D01*
X4829378Y1419199D01*
X4829078Y1419532D01*
X4829045Y1419565D01*
X4829012Y1419599D01*
X4828912Y1419699D01*
X4828745Y1419799D01*
X4828579Y1419932D01*
X4828379Y1420065D01*
X4828146Y1420231D01*
X4827846Y1420398D01*
X4827213Y1420731D01*
X4826414Y1420997D01*
X4825548Y1421197D01*
X4825049Y1421230D01*
X4824549Y1421264D01*
X4824283D01*
X4824083Y1421230D01*
X4823850Y1421197D01*
X4823584Y1421164D01*
X4822951Y1421064D01*
X4822252Y1420831D01*
X4821486Y1420531D01*
X4821086Y1420331D01*
X4820720Y1420098D01*
X4820354Y1419832D01*
X4819987Y1419532D01*
X4819954Y1419499D01*
X4819921Y1419466D01*
X4819821Y1419366D01*
X4819688Y1419199D01*
X4819554Y1419033D01*
X4819388Y1418800D01*
X4819188Y1418533D01*
X4819022Y1418233D01*
X4818822Y1417900D01*
X4818622Y1417501D01*
X4818422Y1417068D01*
X4818222Y1416602D01*
X4818056Y1416102D01*
X4817889Y1415569D01*
X4817756Y1414970D01*
X4817656Y1414337D01*
X4812928Y1415170D01*
Y1415236D01*
X4812961Y1415370D01*
X4813028Y1415636D01*
X4813094Y1415936D01*
X4813227Y1416335D01*
X4813361Y1416802D01*
X4813527Y1417301D01*
X4813727Y1417867D01*
X4813960Y1418433D01*
X4814260Y1419033D01*
X4814559Y1419632D01*
X4814926Y1420265D01*
X4815325Y1420864D01*
X4815792Y1421430D01*
X4816291Y1421996D01*
X4816824Y1422496D01*
X4816857Y1422529D01*
X4816957Y1422596D01*
X4817123Y1422729D01*
X4817390Y1422895D01*
X4817690Y1423095D01*
X4818023Y1423328D01*
X4818456Y1423561D01*
X4818922Y1423828D01*
X4819454Y1424061D01*
X4820021Y1424294D01*
X4820653Y1424527D01*
X4821319Y1424727D01*
X4822052Y1424893D01*
X4822818Y1425027D01*
X4823617Y1425093D01*
X4824449Y1425127D01*
X4824749D01*
X4824982Y1425093D01*
D02*
G37*
G36*
X4790350Y1424960D02*
X4790816D01*
X4791349Y1424927D01*
X4792448Y1424860D01*
X4793580Y1424760D01*
X4794679Y1424627D01*
X4795179Y1424527D01*
X4795645Y1424427D01*
X4795678D01*
X4795778Y1424394D01*
X4795978Y1424361D01*
X4796211Y1424294D01*
X4796477Y1424194D01*
X4796810Y1424094D01*
X4797177Y1423961D01*
X4797576Y1423794D01*
X4798475Y1423428D01*
X4799408Y1422929D01*
X4800374Y1422363D01*
X4801273Y1421663D01*
X4801306Y1421630D01*
X4801406Y1421530D01*
X4801572Y1421397D01*
X4801772Y1421197D01*
X4802039Y1420964D01*
X4802305Y1420631D01*
X4802638Y1420298D01*
X4802971Y1419898D01*
X4803337Y1419432D01*
X4803704Y1418933D01*
X4804103Y1418400D01*
X4804470Y1417801D01*
X4804836Y1417201D01*
X4805169Y1416535D01*
X4805502Y1415836D01*
X4805801Y1415103D01*
X4805835Y1415070D01*
X4805868Y1414937D01*
X4805935Y1414704D01*
X4806035Y1414404D01*
X4806168Y1414004D01*
X4806301Y1413571D01*
X4806434Y1413039D01*
X4806567Y1412473D01*
X4806701Y1411806D01*
X4806834Y1411107D01*
X4806967Y1410375D01*
X4807100Y1409575D01*
X4807200Y1408743D01*
X4807267Y1407844D01*
X4807333Y1406911D01*
Y1405979D01*
Y1405946D01*
Y1405779D01*
Y1405546D01*
Y1405246D01*
X4807300Y1404880D01*
X4807267Y1404414D01*
X4807233Y1403914D01*
X4807200Y1403382D01*
X4807167Y1402782D01*
X4807067Y1402183D01*
X4806900Y1400851D01*
X4806634Y1399519D01*
X4806301Y1398220D01*
Y1398187D01*
X4806268Y1398087D01*
X4806201Y1397887D01*
X4806101Y1397654D01*
X4806001Y1397388D01*
X4805901Y1397055D01*
X4805735Y1396655D01*
X4805602Y1396255D01*
X4805202Y1395390D01*
X4804769Y1394457D01*
X4804236Y1393492D01*
X4803670Y1392626D01*
X4803637Y1392592D01*
X4803604Y1392526D01*
X4803504Y1392426D01*
X4803404Y1392259D01*
X4803071Y1391860D01*
X4802638Y1391360D01*
X4802105Y1390828D01*
X4801506Y1390228D01*
X4800873Y1389662D01*
X4800174Y1389162D01*
X4800141D01*
X4800074Y1389096D01*
X4799974Y1389029D01*
X4799841Y1388963D01*
X4799641Y1388863D01*
X4799441Y1388730D01*
X4799175Y1388596D01*
X4798875Y1388463D01*
X4798209Y1388130D01*
X4797443Y1387831D01*
X4796544Y1387497D01*
X4795578Y1387231D01*
X4795545D01*
X4795445Y1387198D01*
X4795312Y1387165D01*
X4795112Y1387131D01*
X4794846Y1387098D01*
X4794546Y1387031D01*
X4794213Y1386965D01*
X4793814Y1386931D01*
X4793381Y1386865D01*
X4792914Y1386798D01*
X4792382Y1386732D01*
X4791849Y1386698D01*
X4790683Y1386632D01*
X4789418Y1386598D01*
X4775598D01*
Y1424993D01*
X4789917D01*
X4790350Y1424960D01*
D02*
G37*
%LPC*%
G36*
X6515624Y1180944D02*
X6514749Y1179194D01*
X6513874Y1177444D01*
X6512124Y1174820D01*
X6510375Y1171321D01*
X6507751Y1166947D01*
Y1166072D01*
X6506876Y1164322D01*
X6505126Y1161698D01*
X6503377Y1158199D01*
X6498128Y1148576D01*
X6492879Y1138078D01*
Y1137204D01*
X6492004Y1135454D01*
X6489380Y1131080D01*
X6486755Y1125831D01*
X6485881Y1124082D01*
Y1123207D01*
X6507751D01*
X6528746Y1125831D01*
Y1126706D01*
Y1127581D01*
X6527871Y1129330D01*
Y1130205D01*
X6526996Y1131955D01*
X6526121Y1135454D01*
X6525247Y1139828D01*
Y1140703D01*
X6524372Y1144202D01*
X6523497Y1148576D01*
Y1152950D01*
Y1153825D01*
X6522622Y1157324D01*
X6520873Y1161698D01*
X6519998Y1166947D01*
X6518248Y1172196D01*
X6516498Y1176570D01*
X6515624Y1180069D01*
Y1180944D01*
D02*
G37*
G36*
X6344163Y1190566D02*
X6304797D01*
X6303047Y1173070D01*
Y1172196D01*
Y1169571D01*
X6302172Y1166947D01*
Y1162573D01*
X6301298Y1159073D01*
Y1155574D01*
X6300423Y1152950D01*
Y1152075D01*
X6303047D01*
X6304797Y1151200D01*
X6328417D01*
X6335415Y1152075D01*
X6338039D01*
X6339789Y1152950D01*
X6340664Y1153825D01*
X6341538Y1156449D01*
X6342413Y1159073D01*
X6343288Y1162573D01*
X6345038Y1166947D01*
X6345913Y1173070D01*
Y1173945D01*
Y1175695D01*
X6346787Y1180944D01*
X6345913Y1187067D01*
X6345038Y1189691D01*
X6344163Y1190566D01*
D02*
G37*
G36*
X6196322Y1186192D02*
X6177076D01*
X6161330Y1162573D01*
X6160455Y1161698D01*
X6158705Y1159073D01*
X6156081Y1155574D01*
X6153457Y1152075D01*
X6150832Y1148576D01*
X6148208Y1145077D01*
X6146458Y1142452D01*
X6145583Y1141577D01*
X6144708Y1142452D01*
Y1144202D01*
X6142959Y1146826D01*
X6141209Y1150325D01*
X6138585Y1155574D01*
X6135086Y1162573D01*
X6123713Y1186192D01*
X6079973D01*
Y1184443D01*
Y1183568D01*
X6080848Y1182693D01*
X6081723Y1180069D01*
X6083472Y1175695D01*
X6086972Y1169571D01*
X6090471Y1161698D01*
X6095720Y1151200D01*
X6111466Y1119707D01*
X6107967Y1097837D01*
Y1096963D01*
Y1095213D01*
X6107092Y1091714D01*
Y1088215D01*
Y1084715D01*
X6106217Y1081216D01*
Y1079467D01*
Y1078592D01*
X6142959D01*
X6145583Y1097837D01*
X6149083Y1117958D01*
X6170953Y1149451D01*
X6171827Y1151200D01*
X6173577Y1154699D01*
X6176201Y1159073D01*
X6180575Y1165197D01*
X6181450Y1166947D01*
X6184074Y1169571D01*
X6186699Y1173945D01*
X6189323Y1177444D01*
X6190198Y1178319D01*
X6191073Y1180069D01*
X6192823Y1181818D01*
X6194572Y1182693D01*
X6196322Y1186192D01*
D02*
G37*
G36*
X6170078Y1098712D02*
X6168328D01*
X6164829Y1097837D01*
X6163954Y1096963D01*
X6161330Y1095213D01*
X6157831Y1091714D01*
X6156956Y1087340D01*
Y1086465D01*
X6157831Y1083841D01*
X6159580Y1080341D01*
X6163079Y1078592D01*
X6168328D01*
X6172702Y1081216D01*
X6175327Y1082966D01*
X6177076Y1086465D01*
X6177951Y1088215D01*
Y1090839D01*
X6177076Y1094338D01*
X6175327Y1096088D01*
X6172702Y1097837D01*
X6171827D01*
X6170078Y1098712D01*
D02*
G37*
G36*
X6043232Y1186192D02*
X6006490D01*
X6004740Y1185317D01*
X6003866D01*
Y1184443D01*
Y1181818D01*
X6002991Y1178319D01*
X6002116Y1171321D01*
Y1166947D01*
X6001241Y1161698D01*
X6000367Y1155574D01*
X5999492Y1148576D01*
X5998617Y1140703D01*
X5997742Y1131080D01*
Y1130205D01*
Y1128455D01*
X5996867Y1125831D01*
Y1123207D01*
X5995993Y1114459D01*
X5995118Y1104836D01*
X5993368Y1095213D01*
X5992493Y1086465D01*
Y1083841D01*
X5991618Y1081216D01*
Y1079467D01*
Y1078592D01*
X6074725D01*
Y1083841D01*
Y1084715D01*
X6075599Y1088215D01*
X6076474Y1091714D01*
Y1094338D01*
Y1096088D01*
X6030984D01*
Y1096963D01*
Y1100462D01*
X6031859Y1105711D01*
X6032734Y1114459D01*
X6033609Y1119707D01*
Y1125831D01*
X6035359Y1133704D01*
X6036233Y1141577D01*
X6037983Y1150325D01*
X6038858Y1160823D01*
X6041482Y1172195D01*
X6043232Y1184443D01*
Y1186192D01*
D02*
G37*
G36*
X5967999D02*
X5910262D01*
X5902389Y1185317D01*
X5895391Y1184443D01*
X5890142Y1183568D01*
X5887517Y1182693D01*
X5885768Y1181818D01*
X5882269Y1179194D01*
X5877895Y1173945D01*
X5875270Y1166947D01*
Y1165197D01*
X5874395Y1161698D01*
X5872646Y1155574D01*
X5871771Y1147701D01*
X5870021Y1137203D01*
X5868272Y1125831D01*
X5867397Y1113584D01*
Y1099587D01*
Y1098712D01*
Y1094338D01*
X5868272Y1092589D01*
X5870021Y1089089D01*
X5872646Y1083841D01*
X5877895Y1080341D01*
X5879644D01*
X5881394Y1079467D01*
X5890142D01*
X5897140Y1078592D01*
X5935631D01*
X5942630Y1079467D01*
X5954877D01*
X5958376Y1080341D01*
X5959251D01*
X5960126Y1081216D01*
X5964500Y1085590D01*
X5969748Y1092589D01*
X5972373Y1096963D01*
X5974123Y1102211D01*
Y1103086D01*
Y1104836D01*
X5974997Y1107460D01*
Y1110959D01*
X5975872Y1116208D01*
X5976747Y1122332D01*
X5977622Y1131080D01*
Y1131955D01*
Y1132829D01*
X5978497Y1137203D01*
Y1143327D01*
X5979371Y1151200D01*
Y1159073D01*
Y1166072D01*
X5978497Y1172195D01*
X5977622Y1176569D01*
Y1177444D01*
X5975872Y1180069D01*
X5973248Y1182693D01*
X5969748Y1184443D01*
X5967999Y1186192D01*
D02*
G37*
G36*
X5824532D02*
X5764171D01*
X5758922Y1185317D01*
X5757172D01*
Y1184443D01*
Y1181818D01*
X5756297Y1178319D01*
X5755422Y1171321D01*
X5754548Y1166947D01*
Y1161698D01*
X5753673Y1155574D01*
X5752798Y1148576D01*
X5751048Y1140703D01*
X5750174Y1131080D01*
Y1130205D01*
Y1128455D01*
X5749299Y1125831D01*
Y1123207D01*
X5748424Y1114459D01*
X5747549Y1104836D01*
X5745800Y1095213D01*
X5744925Y1086465D01*
Y1083841D01*
X5744050Y1081216D01*
Y1079467D01*
Y1078592D01*
X5780792D01*
Y1080341D01*
Y1081216D01*
Y1082966D01*
X5781667Y1085590D01*
Y1088215D01*
X5782541Y1092589D01*
X5783416Y1097837D01*
Y1098712D01*
Y1100462D01*
X5784291Y1103961D01*
Y1106585D01*
X5785166Y1113584D01*
Y1116208D01*
Y1117958D01*
X5836779D01*
X5837654Y1118833D01*
X5842903Y1121457D01*
X5848151Y1125831D01*
X5851650Y1133704D01*
X5852525Y1134579D01*
Y1135454D01*
X5853400Y1138078D01*
X5854275Y1140703D01*
Y1145951D01*
X5855150Y1152075D01*
X5856025Y1160823D01*
Y1161698D01*
Y1162573D01*
X5856899Y1167821D01*
Y1173070D01*
X5856025Y1176569D01*
X5855150Y1177444D01*
X5852525Y1180069D01*
X5849026Y1182693D01*
X5843777Y1184443D01*
X5842903D01*
X5841153Y1185317D01*
X5832405D01*
X5824532Y1186192D01*
D02*
G37*
G36*
X5651321D02*
X5613705D01*
X5605832Y1133704D01*
Y1132829D01*
Y1131080D01*
X5604957Y1128455D01*
Y1124956D01*
X5604082Y1117083D01*
X5603207Y1106585D01*
X5601458Y1096963D01*
X5600583Y1088215D01*
Y1084715D01*
X5599708Y1081216D01*
Y1079466D01*
Y1078592D01*
X5682814Y1078592D01*
X5684564Y1083841D01*
Y1084715D01*
Y1085590D01*
Y1089964D01*
Y1090839D01*
Y1092589D01*
Y1093463D01*
Y1094338D01*
Y1096088D01*
X5639074D01*
Y1096963D01*
Y1100462D01*
X5639949Y1106585D01*
X5640824Y1115333D01*
X5641699Y1127581D01*
X5643448Y1134579D01*
X5644323Y1142452D01*
X5646073Y1151200D01*
X5646947Y1161698D01*
X5649572Y1172195D01*
X5651321Y1184443D01*
Y1186192D01*
D02*
G37*
G36*
X5560342Y1186192D02*
X5523600D01*
Y1184443D01*
X5522726Y1183568D01*
X5520976Y1180943D01*
X5518352Y1177444D01*
X5514852Y1170446D01*
X5512228Y1166072D01*
X5509604Y1160823D01*
X5506105Y1155574D01*
X5501730Y1148576D01*
X5497356Y1139828D01*
X5492108Y1131080D01*
Y1130205D01*
X5491233Y1128455D01*
X5489483Y1125831D01*
X5487734Y1123207D01*
X5482485Y1114458D01*
X5477236Y1104836D01*
X5471987Y1095213D01*
X5466739Y1086465D01*
X5464989Y1083841D01*
X5463239Y1081216D01*
X5462364Y1079466D01*
Y1078592D01*
X5479860D01*
X5487734Y1091714D01*
X5495607Y1107460D01*
X5541096D01*
X5544596Y1091714D01*
X5548970Y1078592D01*
X5590085D01*
Y1079466D01*
X5589211Y1081216D01*
X5588336Y1085590D01*
X5586586Y1091714D01*
X5585711Y1096088D01*
X5583962Y1101336D01*
X5582212Y1107460D01*
X5580462Y1114458D01*
X5577838Y1122332D01*
X5575214Y1131955D01*
Y1132829D01*
X5574339Y1134579D01*
X5573464Y1137203D01*
X5572589Y1140703D01*
X5570840Y1149450D01*
X5568215Y1159073D01*
X5564716Y1168696D01*
X5562967Y1177444D01*
X5562092Y1180943D01*
X5561217Y1183568D01*
X5560342Y1185317D01*
Y1186192D01*
D02*
G37*
G36*
X5457990D02*
X5403753D01*
X5397629Y1185317D01*
X5393255D01*
X5391506Y1184443D01*
X5390631D01*
X5387132Y1182693D01*
X5382758Y1179194D01*
X5379258Y1173070D01*
X5378384Y1171321D01*
Y1169571D01*
X5376634Y1166072D01*
X5375759Y1160823D01*
X5374885Y1153824D01*
X5373135Y1145076D01*
X5371385Y1133704D01*
Y1131955D01*
X5370511Y1127581D01*
X5369636Y1121457D01*
Y1114458D01*
X5368761Y1106585D01*
Y1099587D01*
Y1093463D01*
X5369636Y1089964D01*
X5370511Y1089089D01*
X5372260Y1085590D01*
X5375759Y1082091D01*
X5381883Y1078592D01*
X5450117D01*
Y1079466D01*
Y1082091D01*
X5450992Y1086465D01*
Y1087340D01*
X5451867Y1090839D01*
X5452742Y1093463D01*
Y1096088D01*
X5409002D01*
X5407252Y1097837D01*
X5406377Y1098712D01*
X5405502Y1099587D01*
Y1100462D01*
Y1102211D01*
X5406377Y1104836D01*
Y1109210D01*
X5407252Y1115333D01*
X5408127Y1123207D01*
X5409002Y1133704D01*
Y1135454D01*
X5409877Y1138953D01*
X5410751Y1143327D01*
X5411626Y1149450D01*
Y1155574D01*
X5412501Y1159948D01*
X5413376Y1163447D01*
Y1165197D01*
Y1166072D01*
X5415125Y1168696D01*
X5457116D01*
X5459740Y1169571D01*
X5460615D01*
Y1171321D01*
Y1173070D01*
X5461490Y1177444D01*
Y1178319D01*
X5462364Y1180943D01*
Y1183568D01*
Y1185317D01*
X5460615D01*
X5457990Y1186192D01*
D02*
G37*
%LPD*%
G36*
X6171827Y1096088D02*
X6173577Y1093463D01*
X6174452Y1092589D01*
Y1089964D01*
Y1089089D01*
Y1088215D01*
X6172702Y1083841D01*
X6171827Y1082966D01*
X6170078Y1082091D01*
X6167453Y1081216D01*
X6163079D01*
X6161330Y1082091D01*
X6159580Y1084715D01*
X6158705Y1088215D01*
Y1089089D01*
X6159580Y1091714D01*
X6162204Y1094338D01*
X6166578Y1096088D01*
X6167453D01*
X6168328Y1096963D01*
X6170953D01*
X6171827Y1096088D01*
D02*
G37*
%LPC*%
G36*
X6170078Y1094338D02*
X6167453D01*
X6165704Y1093463D01*
X6164829Y1092589D01*
X6163954Y1089089D01*
Y1088215D01*
Y1086465D01*
Y1084715D01*
Y1083841D01*
X6164829Y1084715D01*
Y1085590D01*
Y1088215D01*
Y1089089D01*
X6165704Y1089964D01*
X6166578D01*
Y1088215D01*
X6167453Y1086465D01*
X6168328Y1085590D01*
X6169203Y1084715D01*
X6170078Y1083841D01*
X6170953D01*
Y1084715D01*
Y1086465D01*
Y1088215D01*
X6171827Y1089964D01*
Y1090839D01*
Y1092589D01*
X6170953Y1093463D01*
X6170078Y1094338D01*
D02*
G37*
%LPD*%
G36*
X6169203Y1090839D02*
Y1089964D01*
X6166578D01*
Y1091714D01*
X6169203D01*
Y1090839D01*
D02*
G37*
G36*
X5943505Y1167821D02*
X5944379Y1164322D01*
Y1163447D01*
Y1162573D01*
X5943505Y1159948D01*
Y1155574D01*
X5942630Y1149451D01*
X5941755Y1141577D01*
X5940005Y1131080D01*
Y1129330D01*
X5939131Y1125831D01*
Y1121457D01*
X5938256Y1115333D01*
X5937381Y1109210D01*
X5936506Y1103961D01*
Y1100462D01*
X5935631Y1098712D01*
X5934757Y1097837D01*
X5933882Y1096963D01*
X5932132D01*
X5930382Y1096088D01*
X5906763D01*
X5905888Y1096963D01*
Y1098712D01*
Y1101337D01*
X5905013Y1105711D01*
Y1111834D01*
X5905888Y1119707D01*
X5906763Y1131080D01*
Y1132829D01*
X5907638Y1136329D01*
X5908512Y1141577D01*
X5909387Y1146826D01*
Y1152950D01*
X5910262Y1159073D01*
X5911137Y1162573D01*
Y1165197D01*
X5912886Y1166072D01*
X5914636Y1167821D01*
X5917261Y1168696D01*
X5942630D01*
X5943505Y1167821D01*
D02*
G37*
G36*
X5818408D02*
Y1166072D01*
Y1164322D01*
Y1162573D01*
Y1159948D01*
X5817533Y1156449D01*
Y1152075D01*
Y1151200D01*
Y1150325D01*
X5816658Y1145077D01*
Y1140703D01*
X5815784Y1138953D01*
Y1138078D01*
Y1137203D01*
X5814909Y1135454D01*
X5812284Y1133704D01*
X5788665D01*
Y1135454D01*
Y1136329D01*
Y1138078D01*
Y1140703D01*
Y1143327D01*
X5789540Y1146826D01*
Y1152075D01*
Y1152950D01*
Y1154699D01*
X5790414Y1159948D01*
X5792164Y1165197D01*
Y1167821D01*
X5793039Y1168696D01*
X5818408D01*
Y1167821D01*
D02*
G37*
G36*
X5527975Y1159073D02*
Y1156449D01*
X5528849Y1153824D01*
X5529724Y1149450D01*
X5531474Y1143327D01*
Y1142452D01*
X5532349Y1140703D01*
X5534098Y1134579D01*
X5535848Y1127581D01*
X5536722Y1125831D01*
Y1124081D01*
X5529724D01*
X5526225Y1124956D01*
X5520976Y1125831D01*
X5507854D01*
X5517477Y1143327D01*
X5518352Y1144202D01*
X5519226Y1145951D01*
X5522726Y1152075D01*
X5525350Y1158198D01*
X5527100Y1159948D01*
Y1160823D01*
X5527975Y1159073D01*
D02*
G37*
%LPC*%
G36*
X7060624Y1015606D02*
X7059749D01*
X7057125Y1014732D01*
X7053626Y1013857D01*
X7051001Y1011232D01*
X7049252Y1009483D01*
X7046627Y1005109D01*
X7045753Y1001610D01*
X7044878Y998110D01*
Y993736D01*
X7046627Y989362D01*
X7048377Y987613D01*
X7051001Y984988D01*
X7054501Y981489D01*
X7055375Y980614D01*
X7058000Y977990D01*
X7059749Y975366D01*
X7060624Y971866D01*
Y970992D01*
X7059749Y968367D01*
X7058000Y964868D01*
X7054501Y963993D01*
X7053626Y963118D01*
X7051876D01*
X7050127Y963993D01*
X7049252Y965743D01*
X7048377Y967492D01*
Y970117D01*
Y971866D01*
X7040504D01*
Y970992D01*
Y970117D01*
X7041379Y967492D01*
Y966618D01*
X7042253Y965743D01*
X7043128Y962244D01*
Y961369D01*
X7044878Y959619D01*
X7048377Y956120D01*
X7051876Y955245D01*
X7055375D01*
X7059749Y956995D01*
X7064123Y960494D01*
X7064998Y961369D01*
X7066748Y963993D01*
X7068497Y968367D01*
Y973616D01*
Y974491D01*
X7067623Y977990D01*
X7065873Y982364D01*
X7061499Y987613D01*
X7060624Y989362D01*
X7058000Y991987D01*
X7055375Y996361D01*
X7054501Y999860D01*
Y1000735D01*
X7055375Y1004234D01*
X7056250Y1006858D01*
X7058875Y1007733D01*
X7061499D01*
X7063249Y1005984D01*
X7064123Y1004234D01*
Y1001610D01*
X7070247D01*
X7071122Y1002484D01*
X7071997Y1003359D01*
Y1004234D01*
Y1005984D01*
X7070247Y1011232D01*
X7069372Y1012107D01*
X7065873Y1013857D01*
X7064998Y1014732D01*
X7060624Y1015606D01*
D02*
G37*
G36*
X6743947Y1015606D02*
X6740447D01*
X6737823Y1014731D01*
X6735199Y1013857D01*
X6731699Y1011232D01*
X6729950Y1009483D01*
X6728200Y1005109D01*
X6727325Y1001610D01*
Y998110D01*
X6728200Y993736D01*
X6729950Y989362D01*
X6731699Y987613D01*
X6733449Y984988D01*
X6736073Y981489D01*
X6736948Y980614D01*
X6738698Y977990D01*
X6740447Y975365D01*
X6741322Y971866D01*
Y970991D01*
Y968367D01*
X6739573Y964868D01*
X6737823Y963993D01*
X6736948D01*
X6735199Y963118D01*
X6733449D01*
X6732574Y963993D01*
X6731699Y965743D01*
X6730825Y967492D01*
X6729950Y970117D01*
Y971866D01*
X6722077D01*
Y970991D01*
Y970117D01*
X6722951Y967492D01*
Y966617D01*
X6723826Y965743D01*
Y962244D01*
X6724701Y961369D01*
X6725576Y959619D01*
X6729950Y956120D01*
X6733449Y955245D01*
X6736948D01*
X6741322Y956995D01*
X6745696Y960494D01*
X6746571Y961369D01*
X6749195Y963993D01*
X6750945Y968367D01*
X6751820Y973616D01*
X6750945Y974491D01*
X6750070Y977990D01*
X6746571Y982364D01*
X6742197Y987613D01*
X6741322Y989362D01*
X6739573Y991987D01*
X6736948Y996361D01*
X6736073Y999860D01*
Y1000735D01*
X6736948Y1004234D01*
X6737823Y1006858D01*
X6739573Y1007733D01*
X6743072D01*
X6744821Y1005984D01*
X6745696Y1004234D01*
Y1001610D01*
X6752695Y1001610D01*
X6754444Y1002484D01*
X6755319Y1003359D01*
Y1004234D01*
Y1005984D01*
X6753569Y1008608D01*
X6751820Y1011232D01*
X6750070Y1012107D01*
X6747446Y1013857D01*
X6745696Y1014731D01*
X6743947Y1015606D01*
D02*
G37*
G36*
X6283802D02*
X6278553D01*
X6276803Y1014731D01*
X6275054Y1012982D01*
X6273304Y1012107D01*
X6270680Y1009483D01*
X6267181Y1005109D01*
X6266306Y1001610D01*
X6265431Y997236D01*
Y996361D01*
X6266306Y993736D01*
X6269805Y988487D01*
X6271555Y984988D01*
X6275054Y981489D01*
X6275929Y980614D01*
X6277678Y979740D01*
X6279428Y977990D01*
X6281177Y976240D01*
Y975365D01*
X6282052Y973616D01*
Y970991D01*
X6281177Y968367D01*
Y967492D01*
X6279428Y966617D01*
X6277678Y964868D01*
X6275054Y963993D01*
X6274179D01*
X6272429Y964868D01*
X6269805Y966617D01*
X6268930Y970117D01*
X6268055Y970991D01*
X6267181Y971866D01*
X6261057D01*
Y968367D01*
Y967492D01*
X6261932Y963993D01*
X6264556Y959619D01*
X6268930Y956120D01*
X6276803D01*
X6281177Y957870D01*
X6286426Y961369D01*
X6288176Y963993D01*
X6289051Y968367D01*
Y969242D01*
Y970117D01*
Y974491D01*
X6286426Y980614D01*
X6284677Y984114D01*
X6281177Y987613D01*
X6280303Y988487D01*
X6278553Y991112D01*
X6275929Y994611D01*
X6275054Y997236D01*
Y998110D01*
Y998985D01*
Y1002484D01*
X6276803Y1005984D01*
X6278553Y1007733D01*
X6282052D01*
X6282927Y1006858D01*
X6283802Y1005984D01*
X6284677Y1003359D01*
Y1001610D01*
X6292550D01*
Y1003359D01*
Y1004234D01*
Y1007733D01*
X6290800Y1010357D01*
X6289051Y1012982D01*
X6288176Y1013857D01*
X6286426Y1014731D01*
X6283802Y1015606D01*
D02*
G37*
G36*
X6444765D02*
X6436892D01*
Y1014731D01*
X6436017Y1012107D01*
X6435142Y1007733D01*
Y1001610D01*
X6433393Y989362D01*
X6432518Y976240D01*
X6431643Y977115D01*
Y978865D01*
X6430768Y980614D01*
Y984114D01*
X6429893Y989362D01*
X6429019Y995486D01*
X6424645Y1015606D01*
X6418521D01*
X6415897Y1014731D01*
X6415022Y1013857D01*
Y1012982D01*
Y1012107D01*
X6414147Y1010357D01*
Y1006858D01*
X6413272Y1002484D01*
X6412397Y996361D01*
X6410648Y987613D01*
Y986738D01*
Y983239D01*
X6409773Y979740D01*
Y974491D01*
Y969242D01*
X6408898Y963993D01*
Y960494D01*
Y957870D01*
Y956120D01*
X6415022D01*
X6415897Y956995D01*
X6416771Y957870D01*
Y958744D01*
Y961369D01*
X6417646Y963118D01*
Y966617D01*
Y970991D01*
X6418521Y976240D01*
Y977115D01*
X6419396Y978865D01*
X6420271Y984988D01*
X6421145Y991112D01*
Y992861D01*
Y993736D01*
X6422020Y991987D01*
Y989362D01*
X6422895Y986738D01*
X6423770Y982364D01*
X6424645Y976240D01*
X6429019Y956120D01*
X6437767D01*
X6438641Y956995D01*
Y957870D01*
Y958744D01*
X6439516Y961369D01*
Y964868D01*
X6440391Y969242D01*
X6441266Y976240D01*
X6442141Y985863D01*
Y986738D01*
X6443015Y990237D01*
Y993736D01*
X6443890Y998985D01*
Y1003359D01*
X6444765Y1007733D01*
Y1011232D01*
Y1012982D01*
Y1015606D01*
D02*
G37*
G36*
X6627598D02*
X6621475D01*
X6620600Y1014731D01*
X6619725Y1013857D01*
Y1012982D01*
Y1012107D01*
Y1010357D01*
X6618850Y1007733D01*
X6617975Y1003359D01*
X6617101Y998110D01*
X6616226Y990237D01*
Y989362D01*
Y986738D01*
X6615351Y983239D01*
Y979740D01*
X6614476Y975365D01*
Y971866D01*
X6613601Y969242D01*
Y968367D01*
Y967492D01*
X6611852Y966617D01*
X6610102Y964868D01*
X6607478Y963993D01*
X6606603D01*
X6604853Y965743D01*
Y966617D01*
Y967492D01*
X6603979Y969242D01*
Y970117D01*
Y970991D01*
Y972741D01*
X6604853Y975365D01*
Y978865D01*
Y984988D01*
X6605728Y991987D01*
Y992861D01*
Y995486D01*
X6606603Y998985D01*
Y1002484D01*
Y1006858D01*
X6607478Y1010357D01*
Y1012982D01*
Y1013857D01*
X6606603Y1014731D01*
X6605728Y1015606D01*
X6599605D01*
Y1014731D01*
X6598730Y1012107D01*
Y1008608D01*
X6597855Y1002484D01*
X6596980Y996361D01*
Y987613D01*
X6596105Y978865D01*
Y968367D01*
Y966617D01*
X6596980Y963118D01*
X6599605Y958744D01*
X6603979Y956120D01*
X6609227D01*
X6613601Y957870D01*
X6614476Y958744D01*
X6617101Y959619D01*
X6619725Y962244D01*
X6621475Y965743D01*
Y966617D01*
Y967492D01*
X6622349Y970117D01*
Y972741D01*
X6623224Y977115D01*
X6624099Y982364D01*
X6625849Y989362D01*
Y990237D01*
Y992861D01*
X6626723Y997236D01*
Y1001610D01*
Y1005109D01*
X6627598Y1009483D01*
Y1012107D01*
Y1012982D01*
Y1015606D01*
D02*
G37*
G36*
X7207591Y1013857D02*
X7204091D01*
X7200592Y1012982D01*
X7199717D01*
X7196218Y1011232D01*
X7192719Y1008608D01*
X7190095Y1003359D01*
Y1002484D01*
Y999860D01*
Y998110D01*
X7189220Y993736D01*
Y989362D01*
X7188345Y983239D01*
Y982364D01*
Y980614D01*
X7187470Y974491D01*
X7186595Y967492D01*
Y965743D01*
Y963993D01*
X7187470Y962244D01*
X7189220Y959619D01*
X7193594Y956995D01*
X7196218Y956120D01*
X7201467D01*
X7203217Y956995D01*
X7204966Y957870D01*
X7207591Y959619D01*
X7208465Y960494D01*
X7210215Y963993D01*
X7211090Y966618D01*
X7211965Y970992D01*
X7212839Y975366D01*
X7213714Y981489D01*
Y982364D01*
X7214589Y984988D01*
X7215464Y988488D01*
Y992862D01*
X7216339Y1001610D01*
Y1005109D01*
Y1007733D01*
Y1008608D01*
X7215464Y1009483D01*
X7214589Y1011232D01*
X7211090Y1012982D01*
X7210215D01*
X7207591Y1013857D01*
D02*
G37*
G36*
X7137607Y1015606D02*
X7119236D01*
X7117486Y987613D01*
Y986738D01*
X7116611Y983239D01*
Y978865D01*
X7115737Y973616D01*
X7114862Y968367D01*
Y963993D01*
X7113987Y959619D01*
Y957870D01*
Y956120D01*
X7121860D01*
Y957870D01*
X7122735Y961369D01*
Y963993D01*
X7123610Y968367D01*
Y977990D01*
X7128859D01*
X7131483Y978865D01*
X7134982Y979740D01*
X7138481Y982364D01*
X7139356Y983239D01*
X7141106Y985863D01*
X7143730Y990237D01*
X7145480Y995486D01*
Y996361D01*
Y998985D01*
Y1002484D01*
Y1005109D01*
Y1005984D01*
X7144605Y1008608D01*
X7141981Y1012107D01*
X7137607Y1015606D01*
D02*
G37*
G36*
X7001138D02*
X6991515D01*
Y1014732D01*
Y1012982D01*
Y1011232D01*
Y1006858D01*
X6990640Y1001610D01*
Y994611D01*
X6989765Y985863D01*
Y984988D01*
X6988891Y981489D01*
X6988016Y977115D01*
Y971866D01*
X6987141Y966618D01*
X6986266Y962244D01*
X6985391Y958744D01*
Y956995D01*
X6986266D01*
X6987141Y956120D01*
X6993265D01*
Y956995D01*
Y958744D01*
X6994139Y962244D01*
Y963118D01*
X6995014Y966618D01*
X6995889Y970992D01*
X6996764Y977115D01*
Y978865D01*
X6997639Y982364D01*
Y987613D01*
X6998513Y993736D01*
Y995486D01*
X6999388Y998110D01*
Y1002484D01*
Y1006858D01*
Y1007733D01*
Y1010358D01*
Y1012107D01*
Y1012982D01*
X7001138Y1015606D01*
D02*
G37*
G36*
X6934653D02*
X6921531D01*
X6918032Y1014732D01*
X6917157Y1013857D01*
Y1012982D01*
Y1012107D01*
X6916282Y1010358D01*
Y1006858D01*
X6915407Y1001610D01*
X6914533Y994611D01*
X6912783Y985863D01*
Y984988D01*
Y981489D01*
X6911908Y977115D01*
Y971866D01*
Y966618D01*
X6911033Y962244D01*
Y958744D01*
Y956995D01*
X6911908D01*
X6914533Y956120D01*
X6924155D01*
X6927655Y956995D01*
X6930279Y957870D01*
X6931154D01*
X6932903Y958744D01*
X6935528Y960494D01*
X6937277Y963118D01*
X6938152Y963993D01*
X6939027Y966618D01*
X6940777Y970992D01*
X6942526Y976240D01*
Y977115D01*
Y977990D01*
X6940777Y981489D01*
Y982364D01*
X6939027Y984114D01*
X6938152Y984988D01*
X6936403Y985863D01*
Y987613D01*
X6937277D01*
X6940777Y989362D01*
Y990237D01*
X6941651Y991112D01*
X6943401Y996361D01*
X6944276Y998985D01*
Y1003359D01*
X6943401Y1006858D01*
X6940777Y1011232D01*
X6939902D01*
X6939027Y1012107D01*
X6936403Y1012982D01*
X6934653Y1015606D01*
D02*
G37*
G36*
X6682711Y1015606D02*
X6674837D01*
Y1014731D01*
Y1012982D01*
X6673963Y1011232D01*
Y1006858D01*
X6673088Y1001610D01*
X6672213Y994611D01*
X6670463Y985863D01*
Y984988D01*
X6669589Y981489D01*
Y977115D01*
X6668714Y971866D01*
X6667839Y966617D01*
Y962244D01*
X6666964Y958744D01*
Y956995D01*
X6667839D01*
X6668714Y956120D01*
X6674837D01*
Y956995D01*
Y958744D01*
X6675712Y962244D01*
Y963118D01*
X6676587Y966617D01*
Y970991D01*
X6677462Y977115D01*
Y978865D01*
X6678337Y982364D01*
Y987613D01*
X6679211Y993736D01*
Y995486D01*
X6680086Y998110D01*
X6680961Y1002484D01*
X6681836Y1006858D01*
Y1007733D01*
X6682711Y1010357D01*
Y1012107D01*
Y1012982D01*
Y1015606D01*
D02*
G37*
G36*
X6540993D02*
X6533120D01*
Y1014731D01*
Y1012982D01*
X6532245Y1010357D01*
Y1006858D01*
X6531370Y1001610D01*
X6530495Y995486D01*
X6528746Y987613D01*
Y986738D01*
Y983239D01*
X6527871Y979740D01*
Y974491D01*
Y969242D01*
X6526996Y963993D01*
Y960494D01*
Y957870D01*
X6525247Y956120D01*
X6548866D01*
Y960494D01*
X6549741D01*
X6550616Y962244D01*
Y963118D01*
Y963993D01*
Y965743D01*
X6534869D01*
Y966617D01*
Y967492D01*
X6535744Y970117D01*
Y972741D01*
X6536619Y977115D01*
X6537494Y982364D01*
X6539243Y989362D01*
Y990237D01*
Y992861D01*
X6540118Y996361D01*
Y999860D01*
X6540993Y1007733D01*
Y1011232D01*
Y1012982D01*
Y1015606D01*
D02*
G37*
G36*
X6359909D02*
X6347662D01*
Y1014731D01*
Y1012982D01*
X6346787Y1009483D01*
X6345913Y1004234D01*
X6344163Y997236D01*
X6340664Y986738D01*
X6337165Y973616D01*
X6331916Y957870D01*
X6332791Y956995D01*
X6333665Y956120D01*
X6339789D01*
Y957870D01*
Y958744D01*
Y959619D01*
X6340664Y962244D01*
X6342413Y965743D01*
X6344163Y970117D01*
X6353786D01*
Y968367D01*
Y967492D01*
Y965743D01*
Y960494D01*
Y956120D01*
X6359909D01*
X6360784Y956995D01*
X6361659Y957870D01*
Y959619D01*
Y961369D01*
Y963993D01*
Y968367D01*
X6360784Y974491D01*
Y983239D01*
Y984114D01*
Y987613D01*
Y991987D01*
Y997236D01*
X6359909Y1002484D01*
Y1006858D01*
Y1010357D01*
Y1012982D01*
Y1015606D01*
D02*
G37*
G36*
X6862045Y1015606D02*
X6855921D01*
X6852422Y1014732D01*
X6848048Y1011232D01*
X6845423Y1008608D01*
X6843674Y1005109D01*
Y1004234D01*
X6842799Y1002484D01*
X6841924Y999860D01*
Y996361D01*
X6841049Y991987D01*
X6840175Y985863D01*
Y984988D01*
Y983239D01*
X6839300Y980614D01*
Y977115D01*
X6838425Y970117D01*
Y967492D01*
Y965743D01*
Y964868D01*
X6840175Y962244D01*
X6842799Y959619D01*
X6846298Y956120D01*
X6847173D01*
X6848048Y955245D01*
X6853297D01*
X6856796Y956120D01*
X6860295Y957870D01*
X6862919Y960494D01*
X6865544Y965743D01*
Y966618D01*
Y969242D01*
X6866419Y971866D01*
Y975366D01*
Y979740D01*
X6867293Y985863D01*
Y986738D01*
X6868168Y988488D01*
X6869043Y994611D01*
X6869918Y1001610D01*
Y1004234D01*
Y1005109D01*
Y1005984D01*
X6869043Y1008608D01*
X6866419Y1012107D01*
X6862045Y1015606D01*
D02*
G37*
%LPD*%
G36*
X7206716Y1006858D02*
X7207591Y1005109D01*
X7208465Y1001610D01*
Y1000735D01*
Y998985D01*
X7207591Y996361D01*
Y993736D01*
X7206716Y989362D01*
X7205841Y984114D01*
Y983239D01*
Y981489D01*
X7204966Y977990D01*
Y974491D01*
X7203217Y968367D01*
X7201467Y965743D01*
X7200592Y964868D01*
X7197093D01*
X7194469Y965743D01*
Y966618D01*
Y968367D01*
Y969242D01*
Y972741D01*
Y977115D01*
X7195343Y983239D01*
X7196218Y994611D01*
X7197093Y999860D01*
X7197968Y1003359D01*
X7198843D01*
X7199717Y1004234D01*
X7201467Y1005984D01*
X7202342Y1006858D01*
X7204091Y1007733D01*
X7204966D01*
X7206716Y1006858D01*
D02*
G37*
G36*
X7136732Y1003359D02*
X7137607Y1000735D01*
Y995486D01*
X7136732Y994611D01*
X7135857Y991987D01*
X7133233Y988488D01*
X7129733Y987613D01*
X7125359D01*
Y988488D01*
Y989362D01*
Y993736D01*
X7126234Y998985D01*
X7127109Y1005109D01*
X7135857D01*
X7136732Y1003359D01*
D02*
G37*
G36*
X6932029Y1004234D02*
X6932903D01*
X6933778Y1003359D01*
X6934653Y1002484D01*
Y999860D01*
Y998985D01*
X6933778Y996361D01*
X6932903Y993736D01*
X6930279Y991987D01*
X6929404Y991112D01*
X6927655Y990237D01*
X6925030Y989362D01*
X6922406D01*
Y990237D01*
Y992862D01*
X6923281Y998110D01*
X6925030Y1005109D01*
X6929404D01*
X6932029Y1004234D01*
D02*
G37*
G36*
X6927655Y983239D02*
X6930279Y982364D01*
X6932903Y979740D01*
Y978865D01*
Y975366D01*
Y971866D01*
X6930279Y968367D01*
X6929404D01*
X6927655Y967492D01*
X6925905Y966618D01*
X6922406Y965743D01*
X6920656D01*
Y966618D01*
Y968367D01*
Y973616D01*
Y974491D01*
X6921531Y977115D01*
X6922406Y979740D01*
Y981489D01*
Y982364D01*
Y983239D01*
X6923281Y984114D01*
X6925905D01*
X6927655Y983239D01*
D02*
G37*
G36*
X6353786Y998985D02*
Y994611D01*
Y991987D01*
Y987613D01*
Y977990D01*
X6345913D01*
Y979740D01*
X6346787Y983239D01*
X6347662Y985863D01*
X6348537Y989362D01*
Y990237D01*
X6349412Y991112D01*
X6350287Y995486D01*
X6352036Y998985D01*
X6352911Y1000735D01*
X6353786Y998985D01*
D02*
G37*
G36*
X6857671Y1005984D02*
X6859420Y1005109D01*
X6860295Y1004234D01*
X6861170Y1001610D01*
Y998985D01*
X6860295Y996361D01*
Y991987D01*
X6859420Y985863D01*
Y984988D01*
Y983239D01*
X6858545Y977115D01*
X6857671Y970992D01*
X6856796Y969242D01*
X6855921Y968367D01*
Y967492D01*
X6855046Y966618D01*
X6854171Y964868D01*
X6851547Y963993D01*
X6849797D01*
X6848923Y964868D01*
X6848048Y965743D01*
Y966618D01*
X6847173Y969242D01*
Y971866D01*
Y975366D01*
Y979740D01*
X6848048Y984988D01*
Y985863D01*
Y987613D01*
X6848923Y993736D01*
X6849797Y998985D01*
Y1000735D01*
Y1001610D01*
Y1002484D01*
X6850672Y1003359D01*
X6852422Y1005109D01*
X6854171Y1005984D01*
X6855046D01*
X6855921Y1006858D01*
X6857671Y1005984D01*
D02*
G37*
%LPC*%
G36*
X3006307Y1993070D02*
X2976970D01*
Y1984245D01*
X2977003Y1983946D01*
Y1983579D01*
X2977036Y1983146D01*
X2977070Y1982713D01*
X2977136Y1981748D01*
X2977269Y1980782D01*
X2977436Y1979816D01*
X2977536Y1979383D01*
X2977669Y1978950D01*
Y1978917D01*
X2977702Y1978851D01*
X2977736Y1978751D01*
X2977802Y1978584D01*
X2977969Y1978185D01*
X2978169Y1977718D01*
X2978468Y1977152D01*
X2978801Y1976586D01*
X2979201Y1976020D01*
X2979667Y1975487D01*
X2979700Y1975454D01*
X2979767Y1975421D01*
X2979867Y1975321D01*
X2980000Y1975188D01*
X2980166Y1975054D01*
X2980400Y1974855D01*
X2980666Y1974655D01*
X2980932Y1974455D01*
X2981265Y1974255D01*
X2981632Y1974022D01*
X2982031Y1973789D01*
X2982464Y1973556D01*
X2983430Y1973090D01*
X2984495Y1972690D01*
X2984529D01*
X2984629Y1972657D01*
X2984795Y1972590D01*
X2985028Y1972524D01*
X2985328Y1972457D01*
X2985694Y1972357D01*
X2986094Y1972257D01*
X2986560Y1972157D01*
X2987093Y1972091D01*
X2987659Y1971991D01*
X2988258Y1971891D01*
X2988924Y1971824D01*
X2989624Y1971758D01*
X2990356Y1971691D01*
X2991122Y1971658D01*
X2991921D01*
X2991955D01*
X2991988D01*
X2992188D01*
X2992488D01*
X2992920Y1971691D01*
X2993420Y1971724D01*
X2993986Y1971758D01*
X2994652Y1971824D01*
X2995351Y1971891D01*
X2996084Y1972024D01*
X2996816Y1972157D01*
X2997616Y1972291D01*
X2998382Y1972490D01*
X2999114Y1972723D01*
X2999847Y1972990D01*
X3000546Y1973290D01*
X3001179Y1973656D01*
X3001212Y1973689D01*
X3001312Y1973756D01*
X3001479Y1973856D01*
X3001712Y1974022D01*
X3001978Y1974189D01*
X3002244Y1974422D01*
X3002577Y1974688D01*
X3002944Y1974988D01*
X3003643Y1975687D01*
X3004376Y1976520D01*
X3004709Y1976953D01*
X3005008Y1977419D01*
X3005275Y1977918D01*
X3005508Y1978451D01*
Y1978484D01*
X3005541Y1978551D01*
X3005574Y1978651D01*
X3005641Y1978851D01*
X3005708Y1979050D01*
X3005774Y1979317D01*
X3005841Y1979650D01*
X3005907Y1980016D01*
X3005974Y1980449D01*
X3006041Y1980948D01*
X3006107Y1981481D01*
X3006174Y1982081D01*
X3006240Y1982713D01*
X3006274Y1983413D01*
X3006307Y1984179D01*
Y1993070D01*
D02*
G37*
G36*
X3032500Y1798160D02*
X3031701D01*
X3031667D01*
X3031634D01*
X3031434D01*
X3031135D01*
X3030702Y1798127D01*
X3030202Y1798094D01*
X3029636Y1798060D01*
X3028970Y1797994D01*
X3028271Y1797927D01*
X3027538Y1797794D01*
X3026805Y1797661D01*
X3026006Y1797528D01*
X3025240Y1797328D01*
X3024508Y1797095D01*
X3023775Y1796828D01*
X3023076Y1796529D01*
X3022443Y1796162D01*
X3022410Y1796129D01*
X3022310Y1796062D01*
X3022144Y1795963D01*
X3021910Y1795796D01*
X3021644Y1795630D01*
X3021378Y1795396D01*
X3021045Y1795130D01*
X3020678Y1794830D01*
X3019979Y1794131D01*
X3019246Y1793299D01*
X3018913Y1792866D01*
X3018614Y1792399D01*
X3018347Y1791900D01*
X3018114Y1791367D01*
Y1791334D01*
X3018081Y1791267D01*
X3018048Y1791167D01*
X3017981Y1790967D01*
X3017914Y1790768D01*
X3017848Y1790501D01*
X3017781Y1790168D01*
X3017715Y1789802D01*
X3017648Y1789369D01*
X3017581Y1788870D01*
X3017515Y1788337D01*
X3017448Y1787737D01*
X3017382Y1787105D01*
X3017348Y1786405D01*
X3017315Y1785639D01*
Y1776748D01*
X3046652D01*
Y1785573D01*
X3046619Y1785873D01*
Y1786239D01*
X3046586Y1786672D01*
X3046552Y1787105D01*
X3046486Y1788070D01*
X3046353Y1789036D01*
X3046186Y1790002D01*
X3046086Y1790435D01*
X3045953Y1790868D01*
Y1790901D01*
X3045920Y1790967D01*
X3045886Y1791067D01*
X3045820Y1791234D01*
X3045653Y1791633D01*
X3045454Y1792100D01*
X3045154Y1792666D01*
X3044821Y1793232D01*
X3044421Y1793798D01*
X3043955Y1794331D01*
X3043922Y1794364D01*
X3043855Y1794397D01*
X3043755Y1794497D01*
X3043622Y1794630D01*
X3043456Y1794764D01*
X3043222Y1794964D01*
X3042956Y1795163D01*
X3042690Y1795363D01*
X3042357Y1795563D01*
X3041990Y1795796D01*
X3041591Y1796029D01*
X3041158Y1796262D01*
X3040192Y1796728D01*
X3039126Y1797128D01*
X3039093D01*
X3038993Y1797161D01*
X3038827Y1797228D01*
X3038594Y1797294D01*
X3038294Y1797361D01*
X3037928Y1797461D01*
X3037528Y1797561D01*
X3037062Y1797661D01*
X3036529Y1797727D01*
X3035963Y1797827D01*
X3035364Y1797927D01*
X3034698Y1797994D01*
X3033998Y1798060D01*
X3033266Y1798127D01*
X3032500Y1798160D01*
D02*
G37*
G36*
X4789584Y948465D02*
X4780693D01*
Y919127D01*
X4789518D01*
X4789818Y919160D01*
X4790184D01*
X4790617Y919194D01*
X4791050Y919227D01*
X4792015Y919294D01*
X4792981Y919427D01*
X4793947Y919593D01*
X4794380Y919693D01*
X4794812Y919827D01*
X4794846D01*
X4794912Y919860D01*
X4795012Y919893D01*
X4795179Y919960D01*
X4795578Y920126D01*
X4796045Y920326D01*
X4796611Y920626D01*
X4797177Y920959D01*
X4797743Y921358D01*
X4798276Y921824D01*
X4798309Y921858D01*
X4798342Y921924D01*
X4798442Y922024D01*
X4798575Y922158D01*
X4798709Y922324D01*
X4798908Y922557D01*
X4799108Y922823D01*
X4799308Y923090D01*
X4799508Y923423D01*
X4799741Y923789D01*
X4799974Y924189D01*
X4800207Y924622D01*
X4800673Y925587D01*
X4801073Y926653D01*
Y926686D01*
X4801106Y926786D01*
X4801173Y926953D01*
X4801239Y927186D01*
X4801306Y927486D01*
X4801406Y927852D01*
X4801506Y928251D01*
X4801606Y928718D01*
X4801672Y929250D01*
X4801772Y929817D01*
X4801872Y930416D01*
X4801939Y931082D01*
X4802005Y931781D01*
X4802072Y932514D01*
X4802105Y933280D01*
Y934079D01*
Y934112D01*
Y934145D01*
Y934345D01*
Y934645D01*
X4802072Y935078D01*
X4802039Y935577D01*
X4802005Y936144D01*
X4801939Y936809D01*
X4801872Y937509D01*
X4801739Y938241D01*
X4801606Y938974D01*
X4801472Y939773D01*
X4801273Y940539D01*
X4801040Y941272D01*
X4800773Y942004D01*
X4800474Y942704D01*
X4800107Y943336D01*
X4800074Y943370D01*
X4800007Y943470D01*
X4799907Y943636D01*
X4799741Y943869D01*
X4799574Y944135D01*
X4799341Y944402D01*
X4799075Y944735D01*
X4798775Y945101D01*
X4798076Y945801D01*
X4797243Y946533D01*
X4796810Y946866D01*
X4796344Y947166D01*
X4795845Y947432D01*
X4795312Y947665D01*
X4795279D01*
X4795212Y947699D01*
X4795112Y947732D01*
X4794912Y947798D01*
X4794713Y947865D01*
X4794446Y947932D01*
X4794113Y947998D01*
X4793747Y948065D01*
X4793314Y948131D01*
X4792815Y948198D01*
X4792282Y948265D01*
X4791682Y948331D01*
X4791050Y948398D01*
X4790350Y948431D01*
X4789584Y948465D01*
D02*
G37*
G36*
Y476464D02*
X4780693D01*
Y447127D01*
X4789518D01*
X4789818Y447161D01*
X4790184D01*
X4790617Y447194D01*
X4791050Y447227D01*
X4792015Y447294D01*
X4792981Y447427D01*
X4793947Y447593D01*
X4794380Y447693D01*
X4794812Y447827D01*
X4794846D01*
X4794912Y447860D01*
X4795012Y447893D01*
X4795179Y447960D01*
X4795578Y448126D01*
X4796045Y448326D01*
X4796611Y448626D01*
X4797177Y448959D01*
X4797743Y449358D01*
X4798276Y449825D01*
X4798309Y449858D01*
X4798342Y449924D01*
X4798442Y450024D01*
X4798575Y450158D01*
X4798709Y450324D01*
X4798908Y450557D01*
X4799108Y450824D01*
X4799308Y451090D01*
X4799508Y451423D01*
X4799741Y451789D01*
X4799974Y452189D01*
X4800207Y452622D01*
X4800673Y453587D01*
X4801073Y454653D01*
Y454686D01*
X4801106Y454786D01*
X4801173Y454953D01*
X4801239Y455186D01*
X4801306Y455486D01*
X4801406Y455852D01*
X4801506Y456251D01*
X4801606Y456718D01*
X4801672Y457250D01*
X4801772Y457817D01*
X4801872Y458416D01*
X4801939Y459082D01*
X4802005Y459781D01*
X4802072Y460514D01*
X4802105Y461280D01*
Y462079D01*
Y462112D01*
Y462146D01*
Y462345D01*
Y462645D01*
X4802072Y463078D01*
X4802039Y463577D01*
X4802005Y464144D01*
X4801939Y464810D01*
X4801872Y465509D01*
X4801739Y466241D01*
X4801606Y466974D01*
X4801472Y467773D01*
X4801273Y468539D01*
X4801040Y469272D01*
X4800773Y470004D01*
X4800474Y470704D01*
X4800107Y471336D01*
X4800074Y471370D01*
X4800007Y471469D01*
X4799907Y471636D01*
X4799741Y471869D01*
X4799574Y472135D01*
X4799341Y472402D01*
X4799075Y472735D01*
X4798775Y473101D01*
X4798076Y473800D01*
X4797243Y474533D01*
X4796810Y474866D01*
X4796344Y475166D01*
X4795845Y475432D01*
X4795312Y475665D01*
X4795279D01*
X4795212Y475699D01*
X4795112Y475732D01*
X4794912Y475798D01*
X4794713Y475865D01*
X4794446Y475932D01*
X4794113Y475998D01*
X4793747Y476065D01*
X4793314Y476132D01*
X4792815Y476198D01*
X4792282Y476265D01*
X4791682Y476331D01*
X4791050Y476398D01*
X4790350Y476431D01*
X4789584Y476464D01*
D02*
G37*
G36*
X4827513Y1890401D02*
X4815492Y1873118D01*
X4827513D01*
Y1890401D01*
D02*
G37*
G36*
X4789584Y1893465D02*
X4780693D01*
Y1864127D01*
X4789518D01*
X4789818Y1864160D01*
X4790184D01*
X4790617Y1864194D01*
X4791050Y1864227D01*
X4792015Y1864294D01*
X4792981Y1864427D01*
X4793947Y1864593D01*
X4794380Y1864693D01*
X4794812Y1864826D01*
X4794846D01*
X4794912Y1864860D01*
X4795012Y1864893D01*
X4795179Y1864960D01*
X4795578Y1865126D01*
X4796045Y1865326D01*
X4796611Y1865626D01*
X4797177Y1865959D01*
X4797743Y1866358D01*
X4798276Y1866824D01*
X4798309Y1866858D01*
X4798342Y1866924D01*
X4798442Y1867024D01*
X4798575Y1867158D01*
X4798709Y1867324D01*
X4798908Y1867557D01*
X4799108Y1867823D01*
X4799308Y1868090D01*
X4799508Y1868423D01*
X4799741Y1868789D01*
X4799974Y1869189D01*
X4800207Y1869622D01*
X4800673Y1870587D01*
X4801073Y1871653D01*
Y1871686D01*
X4801106Y1871786D01*
X4801173Y1871953D01*
X4801239Y1872186D01*
X4801306Y1872486D01*
X4801406Y1872852D01*
X4801506Y1873251D01*
X4801606Y1873718D01*
X4801672Y1874250D01*
X4801772Y1874816D01*
X4801872Y1875416D01*
X4801939Y1876082D01*
X4802005Y1876781D01*
X4802072Y1877514D01*
X4802105Y1878280D01*
Y1879079D01*
Y1879112D01*
Y1879146D01*
Y1879345D01*
Y1879645D01*
X4802072Y1880078D01*
X4802039Y1880577D01*
X4802005Y1881143D01*
X4801939Y1881810D01*
X4801872Y1882509D01*
X4801739Y1883241D01*
X4801606Y1883974D01*
X4801472Y1884773D01*
X4801273Y1885539D01*
X4801040Y1886272D01*
X4800773Y1887004D01*
X4800474Y1887704D01*
X4800107Y1888336D01*
X4800074Y1888370D01*
X4800007Y1888469D01*
X4799907Y1888636D01*
X4799741Y1888869D01*
X4799574Y1889136D01*
X4799341Y1889402D01*
X4799075Y1889735D01*
X4798775Y1890101D01*
X4798076Y1890801D01*
X4797243Y1891533D01*
X4796810Y1891866D01*
X4796344Y1892166D01*
X4795845Y1892432D01*
X4795312Y1892665D01*
X4795279D01*
X4795212Y1892699D01*
X4795112Y1892732D01*
X4794912Y1892799D01*
X4794713Y1892865D01*
X4794446Y1892932D01*
X4794113Y1892998D01*
X4793747Y1893065D01*
X4793314Y1893131D01*
X4792815Y1893198D01*
X4792282Y1893265D01*
X4791682Y1893331D01*
X4791050Y1893398D01*
X4790350Y1893431D01*
X4789584Y1893465D01*
D02*
G37*
G36*
Y1420465D02*
X4780693D01*
Y1391127D01*
X4789518D01*
X4789818Y1391160D01*
X4790184D01*
X4790617Y1391194D01*
X4791050Y1391227D01*
X4792015Y1391294D01*
X4792981Y1391427D01*
X4793947Y1391593D01*
X4794380Y1391693D01*
X4794812Y1391826D01*
X4794846D01*
X4794912Y1391860D01*
X4795012Y1391893D01*
X4795179Y1391960D01*
X4795578Y1392126D01*
X4796045Y1392326D01*
X4796611Y1392626D01*
X4797177Y1392959D01*
X4797743Y1393358D01*
X4798276Y1393824D01*
X4798309Y1393858D01*
X4798342Y1393924D01*
X4798442Y1394024D01*
X4798575Y1394158D01*
X4798709Y1394324D01*
X4798908Y1394557D01*
X4799108Y1394823D01*
X4799308Y1395090D01*
X4799508Y1395423D01*
X4799741Y1395789D01*
X4799974Y1396189D01*
X4800207Y1396622D01*
X4800673Y1397587D01*
X4801073Y1398653D01*
Y1398686D01*
X4801106Y1398786D01*
X4801173Y1398953D01*
X4801239Y1399186D01*
X4801306Y1399486D01*
X4801406Y1399852D01*
X4801506Y1400251D01*
X4801606Y1400718D01*
X4801672Y1401250D01*
X4801772Y1401816D01*
X4801872Y1402416D01*
X4801939Y1403082D01*
X4802005Y1403781D01*
X4802072Y1404514D01*
X4802105Y1405280D01*
Y1406079D01*
Y1406112D01*
Y1406146D01*
Y1406345D01*
Y1406645D01*
X4802072Y1407078D01*
X4802039Y1407577D01*
X4802005Y1408143D01*
X4801939Y1408810D01*
X4801872Y1409509D01*
X4801739Y1410241D01*
X4801606Y1410974D01*
X4801472Y1411773D01*
X4801273Y1412539D01*
X4801040Y1413272D01*
X4800773Y1414004D01*
X4800474Y1414704D01*
X4800107Y1415336D01*
X4800074Y1415370D01*
X4800007Y1415469D01*
X4799907Y1415636D01*
X4799741Y1415869D01*
X4799574Y1416136D01*
X4799341Y1416402D01*
X4799075Y1416735D01*
X4798775Y1417101D01*
X4798076Y1417801D01*
X4797243Y1418533D01*
X4796810Y1418866D01*
X4796344Y1419166D01*
X4795845Y1419432D01*
X4795312Y1419665D01*
X4795279D01*
X4795212Y1419699D01*
X4795112Y1419732D01*
X4794912Y1419799D01*
X4794713Y1419865D01*
X4794446Y1419932D01*
X4794113Y1419998D01*
X4793747Y1420065D01*
X4793314Y1420131D01*
X4792815Y1420198D01*
X4792282Y1420265D01*
X4791682Y1420331D01*
X4791050Y1420398D01*
X4790350Y1420431D01*
X4789584Y1420465D01*
D02*
G37*
%LPD*%
D45*
X4831614Y1833937D02*
X4961614D01*
X4831614Y1361496D02*
X4961614D01*
X4831614Y889055D02*
X4961614D01*
X4831614Y416614D02*
X4961614D01*
D47*
X0Y2074803D02*
X2952756D01*
Y0D02*
Y2074803D01*
X0Y0D02*
X2952756D01*
X0D02*
Y2074803D01*
D48*
X5250000Y1775591D02*
Y1814948D01*
X5269679D01*
X5276238Y1808388D01*
Y1795269D01*
X5269679Y1788710D01*
X5250000D01*
X5263119D02*
X5276238Y1775591D01*
X5315596Y1814948D02*
X5289357D01*
Y1775591D01*
X5315596D01*
X5289357Y1795269D02*
X5302476D01*
X5328715Y1814948D02*
Y1788710D01*
X5341834Y1775591D01*
X5354953Y1788710D01*
Y1814948D01*
X5407430Y1775591D02*
X5420549D01*
X5413989D01*
Y1814948D01*
X5407430Y1808388D01*
X5440227Y1775591D02*
Y1782150D01*
X5446787D01*
Y1775591D01*
X5440227D01*
X5473025Y1808388D02*
X5479585Y1814948D01*
X5492704D01*
X5499263Y1808388D01*
Y1782150D01*
X5492704Y1775591D01*
X5479585D01*
X5473025Y1782150D01*
Y1808388D01*
X5564859Y1775591D02*
X5551740Y1788710D01*
Y1801829D01*
X5564859Y1814948D01*
X5584538Y1775591D02*
X5597657D01*
X5591097D01*
Y1814948D01*
X5584538Y1808388D01*
X5617336Y1775591D02*
X5630455D01*
X5623895D01*
Y1814948D01*
X5617336Y1808388D01*
X5650133Y1775591D02*
X5676372Y1801829D01*
X5715729Y1775591D02*
X5689491D01*
X5715729Y1801829D01*
Y1808388D01*
X5709169Y1814948D01*
X5696050D01*
X5689491Y1808388D01*
X5728848D02*
X5735408Y1814948D01*
X5748527D01*
X5755086Y1808388D01*
Y1782150D01*
X5748527Y1775591D01*
X5735408D01*
X5728848Y1782150D01*
Y1808388D01*
X5768206Y1775591D02*
X5781325D01*
X5774765D01*
Y1814948D01*
X5768206Y1808388D01*
X5801003Y1782150D02*
X5807563Y1775591D01*
X5820682D01*
X5827242Y1782150D01*
Y1808388D01*
X5820682Y1814948D01*
X5807563D01*
X5801003Y1808388D01*
Y1801829D01*
X5807563Y1795269D01*
X5827242D01*
X5840361Y1775591D02*
X5853480Y1788710D01*
Y1801829D01*
X5840361Y1814948D01*
D50*
X4829998Y1834075D02*
G03*
X4963230Y1834075I66616J-95138D01*
G01*
X4829998Y1361634D02*
G03*
X4963230Y1361634I66616J-95138D01*
G01*
X4829998Y889193D02*
G03*
X4963230Y889193I66616J-95138D01*
G01*
X4829998Y416752D02*
G03*
X4963230Y416752I66616J-95138D01*
G01*
X3067913Y185551D02*
X4412402D01*
X3067913D02*
Y2075315D01*
X4412402Y185551D02*
Y2075315D01*
X3067913D02*
X4412402D01*
X6609972Y1941842D02*
Y1902484D01*
X6629650D01*
X6636210Y1909044D01*
Y1935282D01*
X6629650Y1941842D01*
X6609972D01*
X6669008Y1902484D02*
X6655889D01*
X6649329Y1909044D01*
Y1922163D01*
X6655889Y1928723D01*
X6669008D01*
X6675567Y1922163D01*
Y1915603D01*
X6649329D01*
X6688686Y1902484D02*
X6708365D01*
X6714925Y1909044D01*
X6708365Y1915603D01*
X6695246D01*
X6688686Y1922163D01*
X6695246Y1928723D01*
X6714925D01*
X6728044Y1902484D02*
X6741163D01*
X6734604D01*
Y1928723D01*
X6728044D01*
X6773961Y1889365D02*
X6780520D01*
X6787080Y1895925D01*
Y1928723D01*
X6767401D01*
X6760842Y1922163D01*
Y1909044D01*
X6767401Y1902484D01*
X6787080D01*
X6800199D02*
Y1928723D01*
X6819878D01*
X6826437Y1922163D01*
Y1902484D01*
X6885474Y1928723D02*
X6898593D01*
X6905152Y1922163D01*
Y1902484D01*
X6885474D01*
X6878914Y1909044D01*
X6885474Y1915603D01*
X6905152D01*
X6918271Y1902484D02*
Y1928723D01*
X6937950D01*
X6944510Y1922163D01*
Y1902484D01*
X6983867Y1941842D02*
Y1902484D01*
X6964188D01*
X6957629Y1909044D01*
Y1922163D01*
X6964188Y1928723D01*
X6983867D01*
X7036343Y1941842D02*
Y1902484D01*
X7062582D01*
X7082261Y1928723D02*
X7095380D01*
X7101939Y1922163D01*
Y1902484D01*
X7082261D01*
X7075701Y1909044D01*
X7082261Y1915603D01*
X7101939D01*
X7115058Y1928723D02*
Y1909044D01*
X7121618Y1902484D01*
X7141297D01*
Y1895925D01*
X7134737Y1889365D01*
X7128177D01*
X7141297Y1902484D02*
Y1928723D01*
X7160975Y1902484D02*
X7174094D01*
X7180654Y1909044D01*
Y1922163D01*
X7174094Y1928723D01*
X7160975D01*
X7154416Y1922163D01*
Y1909044D01*
X7160975Y1902484D01*
X7193773Y1928723D02*
Y1909044D01*
X7200333Y1902484D01*
X7220011D01*
Y1928723D01*
X7239690Y1935282D02*
Y1928723D01*
X7233131D01*
X7246250D01*
X7239690D01*
Y1909044D01*
X7246250Y1902484D01*
X7305286Y1941842D02*
Y1902484D01*
X7324964D01*
X7331524Y1909044D01*
Y1915603D01*
Y1922163D01*
X7324964Y1928723D01*
X7305286D01*
X7344643D02*
Y1909044D01*
X7351203Y1902484D01*
X7370881D01*
Y1895925D01*
X7364322Y1889365D01*
X7357762D01*
X7370881Y1902484D02*
Y1928723D01*
X7384001D02*
X7390560D01*
Y1922163D01*
X7384001D01*
Y1928723D01*
Y1909044D02*
X7390560D01*
Y1902484D01*
X7384001D01*
Y1909044D01*
X7016665Y1857494D02*
Y1818136D01*
Y1831255D01*
X7042903Y1857494D01*
X7023225Y1837815D01*
X7042903Y1818136D01*
X7075701D02*
X7062582D01*
X7056022Y1824696D01*
Y1837815D01*
X7062582Y1844375D01*
X7075701D01*
X7082261Y1837815D01*
Y1831255D01*
X7056022D01*
X7095380Y1844375D02*
X7108499Y1818136D01*
X7121618Y1844375D01*
X7134737Y1818136D02*
X7147856D01*
X7141297D01*
Y1844375D01*
X7134737D01*
X7167535Y1818136D02*
Y1844375D01*
X7187214D01*
X7193773Y1837815D01*
Y1818136D01*
X7272488Y1857494D02*
X7259369D01*
X7265928D01*
Y1824696D01*
X7259369Y1818136D01*
X7252809D01*
X7246250Y1824696D01*
X7285607Y1844375D02*
Y1824696D01*
X7292167Y1818136D01*
X7311845D01*
Y1844375D01*
X7324965Y1818136D02*
Y1844375D01*
X7344643D01*
X7351203Y1837815D01*
Y1818136D01*
X7377441Y1805017D02*
X7384001D01*
X7390560Y1811577D01*
Y1844375D01*
X7370882D01*
X7364322Y1837815D01*
Y1824696D01*
X7370882Y1818136D01*
X7390560D01*
X6983867Y1773146D02*
Y1733788D01*
X7010105D01*
X7023225Y1760027D02*
Y1740348D01*
X7029784Y1733788D01*
X7049463D01*
Y1727229D01*
X7042903Y1720669D01*
X7036344D01*
X7049463Y1733788D02*
Y1760027D01*
X7062582Y1733788D02*
Y1760027D01*
X7082261D01*
X7088820Y1753467D01*
Y1733788D01*
X7121618D02*
X7108499D01*
X7101939Y1740348D01*
Y1753467D01*
X7108499Y1760027D01*
X7121618D01*
X7128177Y1753467D01*
Y1746908D01*
X7101939D01*
X7147856Y1766586D02*
Y1760027D01*
X7141297D01*
X7154416D01*
X7147856D01*
Y1740348D01*
X7154416Y1733788D01*
X7180654Y1766586D02*
Y1760027D01*
X7174095D01*
X7187214D01*
X7180654D01*
Y1740348D01*
X7187214Y1733788D01*
X7226571D02*
X7213452D01*
X7206892Y1740348D01*
Y1753467D01*
X7213452Y1760027D01*
X7226571D01*
X7233131Y1753467D01*
Y1746908D01*
X7206892D01*
X7311845Y1766586D02*
X7305286Y1773146D01*
X7292167D01*
X7285607Y1766586D01*
Y1740348D01*
X7292167Y1733788D01*
X7305286D01*
X7311845Y1740348D01*
X7331524Y1733788D02*
X7344643D01*
X7351203Y1740348D01*
Y1753467D01*
X7344643Y1760027D01*
X7331524D01*
X7324965Y1753467D01*
Y1740348D01*
X7331524Y1733788D01*
X7364322Y1760027D02*
X7390560Y1733788D01*
X7377441Y1746908D01*
X7390560Y1760027D01*
X7364322Y1733788D01*
D84*
X5251968Y1944857D02*
Y1866142D01*
X5291326D01*
X5304445Y1879261D01*
Y1931737D01*
X5291326Y1944857D01*
X5251968D01*
X5343802Y1918618D02*
X5370041D01*
X5383160Y1905499D01*
Y1866142D01*
X5343802D01*
X5330683Y1879261D01*
X5343802Y1892380D01*
X5383160D01*
X5409398Y1866142D02*
X5448756D01*
X5461875Y1879261D01*
X5448756Y1892380D01*
X5422517D01*
X5409398Y1905499D01*
X5422517Y1918618D01*
X5461875D01*
X5488113Y1944857D02*
Y1866142D01*
Y1905499D01*
X5501232Y1918618D01*
X5527470D01*
X5540589Y1905499D01*
Y1866142D01*
X5566828Y1944857D02*
Y1866142D01*
X5606185D01*
X5619304Y1879261D01*
Y1892380D01*
Y1905499D01*
X5606185Y1918618D01*
X5566828D01*
X5658662Y1866142D02*
X5684900D01*
X5698019Y1879261D01*
Y1905499D01*
X5684900Y1918618D01*
X5658662D01*
X5645542Y1905499D01*
Y1879261D01*
X5658662Y1866142D01*
X5737376Y1918618D02*
X5763615D01*
X5776734Y1905499D01*
Y1866142D01*
X5737376D01*
X5724257Y1879261D01*
X5737376Y1892380D01*
X5776734D01*
X5802972Y1918618D02*
Y1866142D01*
Y1892380D01*
X5816091Y1905499D01*
X5829210Y1918618D01*
X5842329D01*
X5934163Y1944857D02*
Y1866142D01*
X5894806D01*
X5881687Y1879261D01*
Y1905499D01*
X5894806Y1918618D01*
X5934163D01*
%TF.MD5,ec8e517f49e575dcae7d558fe6adefa4*%
M02*
