%TF.GenerationSoftware,Altium Limited,Altium Designer,19.1.8 (144)*%
G04 Layer_Color=0*
%FSLAX26Y26*%
%MOIN*%
%TF.FileFunction,Plated,1,2,PTH,Drill*%
%TF.Part,Single*%
G01*
G75*
%TA.AperFunction,ComponentDrill*%
%ADD98C,0.040157*%
%ADD99C,0.039370*%
%ADD100C,0.070866*%
%ADD101C,0.118110*%
%ADD102C,0.043307*%
%ADD103C,0.023622*%
%TA.AperFunction,ViaDrill,NotFilled*%
%ADD104C,0.013780*%
%ADD105C,0.028000*%
D98*
X-389202Y2406565D02*
D03*
X-271092D02*
D03*
X250945Y2410079D02*
D03*
X369055D02*
D03*
X918834Y2409240D02*
D03*
X1036944D02*
D03*
X2991890Y2410079D02*
D03*
X3110000D02*
D03*
X3563189D02*
D03*
X3681299D02*
D03*
X4000591D02*
D03*
X4118701D02*
D03*
X1625945D02*
D03*
X1744055D02*
D03*
D99*
X3961732Y3530276D02*
D03*
Y3630276D02*
D03*
Y3730276D02*
D03*
Y3830276D02*
D03*
X-363268Y3715276D02*
D03*
Y3615276D02*
D03*
Y4365276D02*
D03*
Y4265276D02*
D03*
D100*
X266364Y3082771D02*
D03*
X660065D02*
D03*
D101*
X4590000Y3073976D02*
D03*
Y2653504D02*
D03*
D102*
X4301811Y3159016D02*
D03*
Y3040905D02*
D03*
Y2922795D02*
D03*
Y2804685D02*
D03*
Y2686575D02*
D03*
Y2568465D02*
D03*
X4419921Y3159016D02*
D03*
Y3040905D02*
D03*
Y2922795D02*
D03*
Y2804685D02*
D03*
Y2686575D02*
D03*
Y2568465D02*
D03*
D103*
X2208150Y2176299D02*
D03*
X2405000Y2570000D02*
D03*
X2208150Y3160551D02*
D03*
X2405000Y2766850D02*
D03*
D104*
X3661417Y2696850D02*
D03*
X2933071Y3838583D02*
D03*
X2880472Y2908869D02*
D03*
X3121338Y3511102D02*
D03*
X2817084Y3452047D02*
D03*
D105*
X2997126Y3924843D02*
D03*
X1068305Y3635714D02*
D03*
X1155409Y3888900D02*
D03*
X1744055Y3356479D02*
D03*
X899170Y4112740D02*
D03*
X988353Y3784939D02*
D03*
X568403Y3748459D02*
D03*
X885227Y3518559D02*
D03*
X1890385Y4000482D02*
D03*
X1657963Y2507335D02*
D03*
X1528187Y3311577D02*
D03*
X3306544Y3250181D02*
D03*
X3397953Y3249294D02*
D03*
X3844449Y4310669D02*
D03*
X2841299Y3741417D02*
D03*
X3258457Y2888511D02*
D03*
X2708624Y3667207D02*
D03*
X3220787Y4058701D02*
D03*
X3248597Y4271074D02*
D03*
X3299528Y2760800D02*
D03*
X3247163Y2707330D02*
D03*
X3569331Y3086854D02*
D03*
X3371174Y3080920D02*
D03*
X3123148Y3082282D02*
D03*
X3205910Y3080920D02*
D03*
X3781722Y3609519D02*
D03*
X3338898Y3532126D02*
D03*
X3282562Y3593890D02*
D03*
X3397954Y3916455D02*
D03*
X3279843Y3688268D02*
D03*
X3210354Y3707499D02*
D03*
X4390000Y3308189D02*
D03*
%TF.MD5,c49bb5f0926d05d8c3a9e21f53e4a64d*%
M02*
