%TF.GenerationSoftware,Altium Limited,Altium Designer,19.1.8 (144)*%
G04 Layer_Color=255*
%FSLAX26Y26*%
%MOIN*%
%TF.FileFunction,Pads,Bot*%
%TF.Part,Single*%
G01*
G75*
%TA.AperFunction,SMDPad,CuDef*%
%ADD11R,0.037402X0.033465*%
%ADD12R,0.033465X0.037402*%
%ADD15R,0.035433X0.039370*%
%TA.AperFunction,ComponentPad*%
%ADD23C,0.118110*%
%ADD24C,0.078740*%
%ADD25C,0.062992*%
%ADD26C,0.059055*%
%ADD27C,0.047244*%
%TA.AperFunction,SMDPad,CuDef*%
%ADD30R,0.070079X0.223622*%
%ADD31R,0.031496X0.017716*%
%ADD32R,0.039370X0.035433*%
%ADD33R,0.047244X0.043307*%
%ADD34R,0.185039X0.181102*%
%ADD35R,0.027559X0.045276*%
%ADD36R,0.029528X0.019685*%
%ADD37R,0.057087X0.053150*%
%ADD38R,0.007874X0.007874*%
%ADD39R,0.055118X0.051181*%
%ADD40R,0.059055X0.047244*%
%ADD41R,0.059055X0.129921*%
%ADD42O,0.059055X0.047244*%
%ADD43O,0.023622X0.057087*%
%ADD44R,0.035433X0.031496*%
%ADD45R,0.031496X0.035433*%
%ADD46R,0.059055X0.078740*%
%ADD47R,0.149606X0.078740*%
%ADD48R,0.053150X0.011811*%
%ADD49R,0.011811X0.053150*%
D11*
X3660000Y2746299D02*
D03*
Y2797480D02*
D03*
X1392812Y3692798D02*
D03*
Y3641617D02*
D03*
X1277846Y3787390D02*
D03*
Y3838571D02*
D03*
X4110000Y2730000D02*
D03*
Y2781181D02*
D03*
X4045118Y3096023D02*
D03*
Y3147205D02*
D03*
X2988464Y3279378D02*
D03*
Y3228197D02*
D03*
X2910037Y3936532D02*
D03*
Y3885351D02*
D03*
D12*
X3096772Y2761102D02*
D03*
X3147953D02*
D03*
X3302382Y2934818D02*
D03*
X3353564D02*
D03*
X3919843Y3347559D02*
D03*
X3868661D02*
D03*
X1470335Y3870199D02*
D03*
X1521516D02*
D03*
X347649Y4169827D02*
D03*
X398830D02*
D03*
X2824564Y2965000D02*
D03*
X2875745D02*
D03*
X2834409Y3040000D02*
D03*
X2885590D02*
D03*
X2760000Y3924843D02*
D03*
X2811181D02*
D03*
X3631145Y3310157D02*
D03*
X3579964D02*
D03*
X1529801Y3421155D02*
D03*
X1580982D02*
D03*
X1163280Y4243025D02*
D03*
X1112099D02*
D03*
X1914992Y3599218D02*
D03*
X1863810D02*
D03*
D15*
X2876729Y3511102D02*
D03*
X2929879D02*
D03*
X4138425Y3892165D02*
D03*
X4191575D02*
D03*
X1155409Y3990640D02*
D03*
X1102259D02*
D03*
X3593307Y3637599D02*
D03*
X3646457D02*
D03*
X3593307Y3570709D02*
D03*
X3646457D02*
D03*
X3593307Y3502599D02*
D03*
X3646457D02*
D03*
X817251Y3992608D02*
D03*
X764102D02*
D03*
X899170Y4245225D02*
D03*
X952320D02*
D03*
D23*
X-330147Y2236486D02*
D03*
X310000Y2240000D02*
D03*
X977889Y2239161D02*
D03*
X266364Y3082771D02*
D03*
X660065D02*
D03*
X3050945Y2240000D02*
D03*
X3622244D02*
D03*
X4059646D02*
D03*
X1685000D02*
D03*
D24*
X-389202Y2406565D02*
D03*
X-271092D02*
D03*
X250945Y2410079D02*
D03*
X369055D02*
D03*
X918834Y2409240D02*
D03*
X1036944D02*
D03*
X2991890Y2410079D02*
D03*
X3110000D02*
D03*
X3563189D02*
D03*
X3681299D02*
D03*
X4000591D02*
D03*
X4118701D02*
D03*
X1625945D02*
D03*
X1744055D02*
D03*
D25*
X3961732Y3530276D02*
D03*
Y3630276D02*
D03*
Y3730276D02*
D03*
Y3830276D02*
D03*
X-363268Y3715276D02*
D03*
Y3615276D02*
D03*
Y4365276D02*
D03*
Y4265276D02*
D03*
D26*
X4301811Y3159016D02*
D03*
Y3040905D02*
D03*
Y2922795D02*
D03*
Y2804685D02*
D03*
Y2686575D02*
D03*
Y2568465D02*
D03*
X4419921Y3159016D02*
D03*
Y3040905D02*
D03*
Y2922795D02*
D03*
Y2804685D02*
D03*
Y2686575D02*
D03*
Y2568465D02*
D03*
D27*
X2208150Y2176299D02*
D03*
X2405000Y2570000D02*
D03*
X2208150Y3160551D02*
D03*
X2405000Y2766850D02*
D03*
D30*
X788708Y3688482D02*
D03*
D31*
X654850Y3577262D02*
D03*
Y3602852D02*
D03*
Y3628443D02*
D03*
Y3756395D02*
D03*
Y3781986D02*
D03*
Y3807577D02*
D03*
X887133Y3577262D02*
D03*
Y3602852D02*
D03*
Y3628443D02*
D03*
Y3654033D02*
D03*
Y3679624D02*
D03*
Y3705214D02*
D03*
Y3730805D02*
D03*
Y3756395D02*
D03*
Y3781986D02*
D03*
Y3807577D02*
D03*
D32*
X3050945Y3192805D02*
D03*
Y3139655D02*
D03*
X3092030Y4118740D02*
D03*
Y4065591D02*
D03*
X3110731Y4217165D02*
D03*
Y4270315D02*
D03*
X4290000Y3903425D02*
D03*
Y3956575D02*
D03*
X4024410Y4413740D02*
D03*
Y4360591D02*
D03*
X3935000Y4413740D02*
D03*
Y4360591D02*
D03*
X1054525Y3767800D02*
D03*
Y3714650D02*
D03*
X1404932Y4104866D02*
D03*
Y4158016D02*
D03*
D33*
X1527833Y3604883D02*
D03*
X1651848D02*
D03*
X1808692Y4078292D02*
D03*
X1932708D02*
D03*
D34*
X3500000Y2640000D02*
D03*
X3955000Y2625000D02*
D03*
D35*
X3575000Y2797480D02*
D03*
X3525000D02*
D03*
X3475000D02*
D03*
X3425000D02*
D03*
X4030000Y2782480D02*
D03*
X3980000D02*
D03*
X3930000D02*
D03*
X3880000D02*
D03*
D36*
X1245960Y4104867D02*
D03*
X1155409D02*
D03*
D37*
X1663179Y4208213D02*
D03*
Y4092071D02*
D03*
D38*
X1402845Y4238817D02*
D03*
X1387845Y4333817D02*
D03*
D39*
X127739Y3838353D02*
D03*
Y3901345D02*
D03*
D40*
X2685000Y2580000D02*
D03*
Y2670551D02*
D03*
Y2761102D02*
D03*
D41*
X2936968Y2670551D02*
D03*
D42*
X2162645Y3567207D02*
D03*
Y3667207D02*
D03*
X2513039Y3567207D02*
D03*
Y3667207D02*
D03*
D43*
X3010000Y4057716D02*
D03*
X2960000D02*
D03*
X2910000D02*
D03*
X2860000D02*
D03*
X2810000D02*
D03*
X2760000D02*
D03*
X2710000D02*
D03*
X2660000D02*
D03*
X3010000Y4272283D02*
D03*
X2960000D02*
D03*
X2910000D02*
D03*
X2860000D02*
D03*
X2810000D02*
D03*
X2760000D02*
D03*
X2710000D02*
D03*
X2660000D02*
D03*
D44*
X3790315Y3347559D02*
D03*
X3711575Y3384961D02*
D03*
Y3310157D02*
D03*
D45*
X4045117Y3268819D02*
D03*
X4082518Y3347559D02*
D03*
X4007715D02*
D03*
D46*
X3844449Y4216181D02*
D03*
X3935000D02*
D03*
X4025551D02*
D03*
X4380551Y4101535D02*
D03*
X4290000D02*
D03*
X4199449D02*
D03*
D47*
X3935000Y3968150D02*
D03*
X4290000Y4349567D02*
D03*
D48*
X2988464Y2872283D02*
D03*
Y2891968D02*
D03*
Y2911653D02*
D03*
Y2931338D02*
D03*
Y2951024D02*
D03*
Y2970709D02*
D03*
Y2990394D02*
D03*
Y3010079D02*
D03*
X3163661Y2872283D02*
D03*
Y2891968D02*
D03*
Y2911653D02*
D03*
Y2931338D02*
D03*
Y2951024D02*
D03*
Y2970709D02*
D03*
Y2990394D02*
D03*
Y3010079D02*
D03*
X3043622Y3727638D02*
D03*
Y3707953D02*
D03*
Y3688268D02*
D03*
Y3668583D02*
D03*
Y3648898D02*
D03*
Y3629213D02*
D03*
Y3609528D02*
D03*
Y3589843D02*
D03*
Y3570157D02*
D03*
Y3550472D02*
D03*
Y3530787D02*
D03*
Y3511102D02*
D03*
Y3491417D02*
D03*
Y3471732D02*
D03*
Y3452047D02*
D03*
Y3432362D02*
D03*
X3496378D02*
D03*
Y3452047D02*
D03*
Y3471732D02*
D03*
Y3491417D02*
D03*
Y3511102D02*
D03*
Y3530787D02*
D03*
Y3550472D02*
D03*
Y3570157D02*
D03*
Y3589843D02*
D03*
Y3609528D02*
D03*
Y3629213D02*
D03*
Y3648898D02*
D03*
Y3668583D02*
D03*
Y3688268D02*
D03*
Y3707953D02*
D03*
Y3727638D02*
D03*
D49*
X3417638Y3806378D02*
D03*
X3397953D02*
D03*
X3378268D02*
D03*
X3358583D02*
D03*
X3338898D02*
D03*
X3319213D02*
D03*
X3299528D02*
D03*
X3279843D02*
D03*
X3260157D02*
D03*
X3240472D02*
D03*
X3220787D02*
D03*
X3201102D02*
D03*
X3181417D02*
D03*
X3161732D02*
D03*
X3142047D02*
D03*
X3122362D02*
D03*
Y3353622D02*
D03*
X3142047D02*
D03*
X3161732D02*
D03*
X3181417D02*
D03*
X3201102D02*
D03*
X3220787D02*
D03*
X3240472D02*
D03*
X3260157D02*
D03*
X3279843D02*
D03*
X3299528D02*
D03*
X3319213D02*
D03*
X3338898D02*
D03*
X3358583D02*
D03*
X3378268D02*
D03*
X3397953D02*
D03*
X3417638D02*
D03*
%TF.MD5,2698b151188d6d06df107735e072b463*%
M02*
