%TF.GenerationSoftware,Altium Limited,Altium Designer,19.1.8 (144)*%
G04 Layer_Color=8388736*
%FSLAX26Y26*%
%MOIN*%
%TF.FileFunction,Soldermask,Top*%
%TF.Part,Single*%
G01*
G75*
%TA.AperFunction,SMDPad,CuDef*%
%ADD62R,0.043433X0.047370*%
%ADD64R,0.041465X0.045402*%
%ADD66R,0.045402X0.041465*%
%TA.AperFunction,ComponentPad*%
%ADD83C,0.126110*%
%ADD84C,0.086740*%
%ADD85C,0.070992*%
%ADD86C,0.008000*%
%ADD87C,0.067055*%
%ADD88C,0.055244*%
%TA.AperFunction,ViaPad*%
%ADD89C,0.035559*%
%TA.AperFunction,SMDPad,CuDef*%
%ADD90R,0.037921X0.102488*%
%ADD91O,0.065087X0.031622*%
%ADD92R,0.073748X0.037921*%
%ADD93R,0.126110X0.122173*%
D62*
X3578976Y3008228D02*
D03*
X3632126D02*
D03*
X3995118Y2883071D02*
D03*
X4048268D02*
D03*
X3723110Y2872283D02*
D03*
X3669961D02*
D03*
D64*
X3172840Y2540238D02*
D03*
X3224021D02*
D03*
X3850079Y2883071D02*
D03*
X3901260D02*
D03*
D66*
X3978454Y3129910D02*
D03*
Y3078729D02*
D03*
X4040394Y2684252D02*
D03*
Y2633071D02*
D03*
X3631145Y3130591D02*
D03*
Y3079410D02*
D03*
X4040394Y2763071D02*
D03*
Y2814252D02*
D03*
D83*
X-330147Y2236486D02*
D03*
X310000Y2240000D02*
D03*
X977889Y2239161D02*
D03*
X266364Y3082771D02*
D03*
X660065D02*
D03*
X3050945Y2240000D02*
D03*
X3622244D02*
D03*
X4059646D02*
D03*
X1685000D02*
D03*
D84*
X-389202Y2406565D02*
D03*
X-271092D02*
D03*
X250945Y2410079D02*
D03*
X369055D02*
D03*
X918834Y2409240D02*
D03*
X1036944D02*
D03*
X2991890Y2410079D02*
D03*
X3110000D02*
D03*
X3563189D02*
D03*
X3681299D02*
D03*
X4000591D02*
D03*
X4118701D02*
D03*
X1625945D02*
D03*
X1744055D02*
D03*
D85*
X3961732Y3530276D02*
D03*
Y3630276D02*
D03*
Y3730276D02*
D03*
Y3830276D02*
D03*
X-363268Y3715276D02*
D03*
Y3615276D02*
D03*
Y4365276D02*
D03*
Y4265276D02*
D03*
D86*
X4590000Y3073976D02*
D03*
Y2653504D02*
D03*
D87*
X4301811Y3159016D02*
D03*
Y3040905D02*
D03*
Y2922795D02*
D03*
Y2804685D02*
D03*
Y2686575D02*
D03*
Y2568465D02*
D03*
X4419921Y3159016D02*
D03*
Y3040905D02*
D03*
Y2922795D02*
D03*
Y2804685D02*
D03*
Y2686575D02*
D03*
Y2568465D02*
D03*
D88*
X2208150Y2176299D02*
D03*
X2405000Y2570000D02*
D03*
X2208150Y3160551D02*
D03*
X2405000Y2766850D02*
D03*
D89*
X3661417Y2696850D02*
D03*
X2933071Y3838583D02*
D03*
D90*
X3910000Y3159016D02*
D03*
Y3005472D02*
D03*
X3860000Y3159016D02*
D03*
Y3005472D02*
D03*
X3810000Y3159016D02*
D03*
Y3005472D02*
D03*
X3760000Y3159016D02*
D03*
Y3005472D02*
D03*
X3710000Y3159016D02*
D03*
Y3005472D02*
D03*
D91*
X3723110Y2798071D02*
D03*
Y2748071D02*
D03*
Y2698071D02*
D03*
Y2648071D02*
D03*
X3937677Y2798071D02*
D03*
Y2748071D02*
D03*
Y2698071D02*
D03*
Y2648071D02*
D03*
D92*
X3397953Y2670551D02*
D03*
Y2720551D02*
D03*
Y2770551D02*
D03*
Y2820551D02*
D03*
Y2870551D02*
D03*
Y2920551D02*
D03*
Y2970551D02*
D03*
Y3020551D02*
D03*
X3062126D02*
D03*
Y2970551D02*
D03*
Y2920551D02*
D03*
Y2870551D02*
D03*
Y2820551D02*
D03*
Y2770551D02*
D03*
Y2720551D02*
D03*
Y2670551D02*
D03*
D93*
X1237724Y3048374D02*
D03*
X1525126D02*
D03*
%TF.MD5,c0da217a97aab8f5804290c34b04d220*%
M02*
