%TF.GenerationSoftware,Altium Limited,Altium Designer,19.1.8 (144)*%
G04 Layer_Color=255*
%FSLAX26Y26*%
%MOIN*%
%TF.FileFunction,Pads,Top*%
%TF.Part,Single*%
G01*
G75*
%TA.AperFunction,SMDPad,CuDef*%
%ADD11R,0.037402X0.033465*%
%ADD12R,0.033465X0.037402*%
%ADD13R,0.029921X0.094488*%
%ADD14O,0.057087X0.023622*%
%ADD15R,0.035433X0.039370*%
%ADD16R,0.065748X0.029921*%
%ADD17R,0.118110X0.114173*%
%TA.AperFunction,ComponentPad*%
%ADD23C,0.118110*%
%ADD24C,0.078740*%
%ADD25C,0.062992*%
%ADD26C,0.059055*%
%ADD27C,0.047244*%
D11*
X3978454Y3129910D02*
D03*
Y3078729D02*
D03*
X4040394Y2684252D02*
D03*
Y2633071D02*
D03*
X3631145Y3130591D02*
D03*
Y3079410D02*
D03*
X4040394Y2763071D02*
D03*
Y2814252D02*
D03*
D12*
X3172840Y2540238D02*
D03*
X3224021D02*
D03*
X3850079Y2883071D02*
D03*
X3901260D02*
D03*
D13*
X3910000Y3159016D02*
D03*
Y3005472D02*
D03*
X3860000Y3159016D02*
D03*
Y3005472D02*
D03*
X3810000Y3159016D02*
D03*
Y3005472D02*
D03*
X3760000Y3159016D02*
D03*
Y3005472D02*
D03*
X3710000Y3159016D02*
D03*
Y3005472D02*
D03*
D14*
X3723110Y2798071D02*
D03*
Y2748071D02*
D03*
Y2698071D02*
D03*
Y2648071D02*
D03*
X3937677Y2798071D02*
D03*
Y2748071D02*
D03*
Y2698071D02*
D03*
Y2648071D02*
D03*
D15*
X3578976Y3008228D02*
D03*
X3632126D02*
D03*
X3995118Y2883071D02*
D03*
X4048268D02*
D03*
X3723110Y2872283D02*
D03*
X3669961D02*
D03*
D16*
X3397953Y2670551D02*
D03*
Y2720551D02*
D03*
Y2770551D02*
D03*
Y2820551D02*
D03*
Y2870551D02*
D03*
Y2920551D02*
D03*
Y2970551D02*
D03*
Y3020551D02*
D03*
X3062126D02*
D03*
Y2970551D02*
D03*
Y2920551D02*
D03*
Y2870551D02*
D03*
Y2820551D02*
D03*
Y2770551D02*
D03*
Y2720551D02*
D03*
Y2670551D02*
D03*
D17*
X1237724Y3048374D02*
D03*
X1525126D02*
D03*
D23*
X-330147Y2236486D02*
D03*
X310000Y2240000D02*
D03*
X977889Y2239161D02*
D03*
X266364Y3082771D02*
D03*
X660065D02*
D03*
X3050945Y2240000D02*
D03*
X3622244D02*
D03*
X4059646D02*
D03*
X1685000D02*
D03*
D24*
X-389202Y2406565D02*
D03*
X-271092D02*
D03*
X250945Y2410079D02*
D03*
X369055D02*
D03*
X918834Y2409240D02*
D03*
X1036944D02*
D03*
X2991890Y2410079D02*
D03*
X3110000D02*
D03*
X3563189D02*
D03*
X3681299D02*
D03*
X4000591D02*
D03*
X4118701D02*
D03*
X1625945D02*
D03*
X1744055D02*
D03*
D25*
X3961732Y3530276D02*
D03*
Y3630276D02*
D03*
Y3730276D02*
D03*
Y3830276D02*
D03*
X-363268Y3715276D02*
D03*
Y3615276D02*
D03*
Y4365276D02*
D03*
Y4265276D02*
D03*
D26*
X4301811Y3159016D02*
D03*
Y3040905D02*
D03*
Y2922795D02*
D03*
Y2804685D02*
D03*
Y2686575D02*
D03*
Y2568465D02*
D03*
X4419921Y3159016D02*
D03*
Y3040905D02*
D03*
Y2922795D02*
D03*
Y2804685D02*
D03*
Y2686575D02*
D03*
Y2568465D02*
D03*
D27*
X2208150Y2176299D02*
D03*
X2405000Y2570000D02*
D03*
X2208150Y3160551D02*
D03*
X2405000Y2766850D02*
D03*
%TF.MD5,f62d05779f6ae3cb4571520fbc691029*%
M02*
