%TF.GenerationSoftware,Altium Limited,Altium Designer,19.1.8 (144)*%
G04 Layer_Physical_Order=1*
G04 Layer_Color=255*
%FSLAX26Y26*%
%MOIN*%
%TF.FileFunction,Copper,L1,Top,Signal*%
%TF.Part,Single*%
G01*
G75*
%TA.AperFunction,NonConductor*%
%ADD10C,0.010000*%
%TA.AperFunction,SMDPad,CuDef*%
%ADD11R,0.037402X0.033465*%
%ADD12R,0.033465X0.037402*%
%ADD13R,0.029921X0.094488*%
%ADD14O,0.057087X0.023622*%
%ADD15R,0.035433X0.039370*%
%ADD16R,0.065748X0.029921*%
%ADD17R,0.118110X0.114173*%
%TA.AperFunction,Conductor*%
%ADD18C,0.019685*%
%ADD19C,0.039370*%
%TA.AperFunction,NonConductor*%
%ADD20C,0.003937*%
%TA.AperFunction,Conductor*%
%ADD21C,0.011811*%
%ADD22C,0.015000*%
%TA.AperFunction,ComponentPad*%
%ADD23C,0.118110*%
%ADD24C,0.078740*%
%ADD25C,0.062992*%
%ADD26C,0.059055*%
%ADD27C,0.047244*%
%TA.AperFunction,ViaPad*%
%ADD28C,0.027559*%
%ADD29C,0.050000*%
G36*
X4676088Y2118912D02*
X2322571D01*
X2279167Y4510470D01*
X2284684Y4516088D01*
X4676088D01*
Y2118912D01*
D02*
G37*
%LPC*%
G36*
X3844449Y4345971D02*
X3835312Y4344768D01*
X3826798Y4341242D01*
X3819486Y4335632D01*
X3815856Y4330900D01*
X3759291D01*
X3751549Y4329360D01*
X3744986Y4324975D01*
X3570315Y4150304D01*
X3435239Y4285380D01*
X3428676Y4289765D01*
X3420934Y4291305D01*
X3277190D01*
X3273559Y4296036D01*
X3266248Y4301646D01*
X3257734Y4305173D01*
X3248597Y4306376D01*
X3239460Y4305173D01*
X3230946Y4301646D01*
X3223635Y4296036D01*
X3218025Y4288725D01*
X3214498Y4280211D01*
X3213295Y4271074D01*
X3214498Y4261937D01*
X3218025Y4253423D01*
X3223635Y4246112D01*
X3230946Y4240502D01*
X3239460Y4236975D01*
X3248597Y4235772D01*
X3257734Y4236975D01*
X3266248Y4240502D01*
X3273559Y4246112D01*
X3277190Y4250843D01*
X3412554D01*
X3556009Y4107387D01*
X3921592Y3741804D01*
X3921304Y3741108D01*
X3919878Y3730276D01*
X3921304Y3719443D01*
X3925485Y3709349D01*
X3932137Y3700680D01*
X3940805Y3694029D01*
X3950900Y3689848D01*
X3961732Y3688421D01*
X3972565Y3689848D01*
X3982659Y3694029D01*
X3991327Y3700680D01*
X3997979Y3709349D01*
X4002160Y3719443D01*
X4003586Y3730276D01*
X4002160Y3741108D01*
X3997979Y3751203D01*
X3991327Y3759871D01*
X3982659Y3766522D01*
X3972565Y3770704D01*
X3961732Y3772130D01*
X3950900Y3770704D01*
X3950204Y3770415D01*
X3598926Y4121693D01*
X3767671Y4290438D01*
X3815856D01*
X3819486Y4285707D01*
X3826798Y4280097D01*
X3835312Y4276570D01*
X3844449Y4275367D01*
X3853586Y4276570D01*
X3862100Y4280097D01*
X3869411Y4285707D01*
X3875021Y4293018D01*
X3878548Y4301533D01*
X3879751Y4310669D01*
X3878548Y4319806D01*
X3875021Y4328320D01*
X3869411Y4335632D01*
X3862100Y4341242D01*
X3853586Y4344768D01*
X3844449Y4345971D01*
D02*
G37*
G36*
X3220787Y4094003D02*
X3211651Y4092800D01*
X3203136Y4089273D01*
X3195825Y4083663D01*
X3192195Y4078932D01*
X3015394D01*
X3007651Y4077392D01*
X3001088Y4073006D01*
X2826994Y3898912D01*
X2822608Y3892349D01*
X2821068Y3884606D01*
Y3770010D01*
X2816337Y3766380D01*
X2810727Y3759068D01*
X2807200Y3750554D01*
X2805997Y3741417D01*
X2807200Y3732281D01*
X2810727Y3723766D01*
X2816337Y3716455D01*
X2823648Y3710845D01*
X2831326Y3707665D01*
X2834050Y3701756D01*
X2834685Y3699888D01*
X2818221Y3683424D01*
X2739791D01*
X2739197Y3684858D01*
X2733587Y3692169D01*
X2726275Y3697779D01*
X2717761Y3701306D01*
X2708624Y3702509D01*
X2699488Y3701306D01*
X2690973Y3697779D01*
X2683662Y3692169D01*
X2678052Y3684858D01*
X2674525Y3676344D01*
X2673322Y3667207D01*
X2674525Y3658070D01*
X2678052Y3649556D01*
X2683662Y3642245D01*
X2690973Y3636635D01*
X2699488Y3633108D01*
X2708624Y3631905D01*
X2717761Y3633108D01*
X2726275Y3636635D01*
X2733587Y3642245D01*
X2739197Y3649556D01*
X2739791Y3650990D01*
X2824938D01*
X2831144Y3652224D01*
X2836405Y3655740D01*
X3008593Y3827928D01*
X3012109Y3833189D01*
X3013343Y3839395D01*
Y3893676D01*
X3014777Y3894270D01*
X3022088Y3899880D01*
X3027698Y3907191D01*
X3031225Y3915706D01*
X3032428Y3924843D01*
X3031225Y3933979D01*
X3030631Y3935413D01*
X3036361Y3941143D01*
X3363911D01*
X3364783Y3939374D01*
X3367035Y3933269D01*
X3363854Y3925592D01*
X3362652Y3916455D01*
X3363854Y3907318D01*
X3367381Y3898804D01*
X3372991Y3891493D01*
X3380303Y3885883D01*
X3381736Y3885289D01*
Y3866936D01*
X3382971Y3860730D01*
X3386486Y3855469D01*
X3893783Y3348173D01*
Y3216260D01*
X3885040D01*
Y3216260D01*
X3884960D01*
Y3216260D01*
X3876217D01*
Y3246894D01*
X3874983Y3253100D01*
X3871467Y3258361D01*
X3614780Y3515048D01*
Y3594702D01*
X3613545Y3600909D01*
X3610030Y3606170D01*
X3451312Y3764887D01*
X3446051Y3768403D01*
X3439845Y3769637D01*
X3344995D01*
X3338789Y3768403D01*
X3333528Y3764887D01*
X3290413Y3721773D01*
X3288979Y3722367D01*
X3279843Y3723570D01*
X3270706Y3722367D01*
X3262192Y3718840D01*
X3254880Y3713230D01*
X3253142Y3710965D01*
X3244910Y3713171D01*
X3244454Y3716636D01*
X3240927Y3725151D01*
X3235317Y3732462D01*
X3228005Y3738072D01*
X3219491Y3741599D01*
X3210354Y3742802D01*
X3201218Y3741599D01*
X3192703Y3738072D01*
X3185392Y3732462D01*
X3179782Y3725151D01*
X3176255Y3716636D01*
X3175052Y3707499D01*
X3176255Y3698363D01*
X3179782Y3689849D01*
X3185392Y3682537D01*
X3192703Y3676927D01*
X3201218Y3673400D01*
X3210354Y3672198D01*
X3214574Y3672753D01*
X3259530Y3627796D01*
X3259015Y3619939D01*
X3257600Y3618853D01*
X3251990Y3611541D01*
X3248463Y3603027D01*
X3247260Y3593890D01*
X3248463Y3584754D01*
X3251990Y3576240D01*
X3257600Y3568928D01*
X3264911Y3563318D01*
X3273425Y3559791D01*
X3282562Y3558588D01*
X3291699Y3559791D01*
X3300213Y3563318D01*
X3307524Y3568928D01*
X3313134Y3576240D01*
X3313728Y3577673D01*
X3350691D01*
X3357564Y3570801D01*
X3353104Y3564125D01*
X3348035Y3566225D01*
X3338898Y3567428D01*
X3329761Y3566225D01*
X3321247Y3562698D01*
X3313935Y3557088D01*
X3308325Y3549777D01*
X3304799Y3541263D01*
X3303596Y3532126D01*
X3304799Y3522989D01*
X3308325Y3514475D01*
X3313935Y3507164D01*
X3321247Y3501554D01*
X3329761Y3498027D01*
X3338898Y3496824D01*
X3348035Y3498027D01*
X3356549Y3501554D01*
X3363860Y3507164D01*
X3371918Y3506447D01*
X3685039Y3193325D01*
Y3185072D01*
X3638064D01*
X3631858Y3183837D01*
X3626597Y3180322D01*
X3619678Y3173403D01*
X3616163Y3168142D01*
X3614928Y3161936D01*
Y3157323D01*
X3602445D01*
Y3114128D01*
X3594570Y3111455D01*
X3594293Y3111817D01*
X3586981Y3117427D01*
X3578467Y3120954D01*
X3569331Y3122157D01*
X3560194Y3120954D01*
X3551680Y3117427D01*
X3544368Y3111817D01*
X3538758Y3104506D01*
X3537890Y3102410D01*
X3536603Y3101629D01*
X3528693Y3100781D01*
X3418200Y3211274D01*
X3417799Y3212425D01*
X3418873Y3221230D01*
X3422915Y3224332D01*
X3428525Y3231643D01*
X3432052Y3240157D01*
X3433255Y3249294D01*
X3432052Y3258431D01*
X3428525Y3266945D01*
X3422915Y3274256D01*
X3415604Y3279867D01*
X3407090Y3283393D01*
X3397953Y3284596D01*
X3388816Y3283393D01*
X3380302Y3279867D01*
X3372990Y3274256D01*
X3367380Y3266945D01*
X3363854Y3258431D01*
X3362651Y3249294D01*
X3363854Y3240157D01*
X3367380Y3231643D01*
X3372990Y3224332D01*
X3380302Y3218722D01*
X3381736Y3218128D01*
Y3210612D01*
X3376765Y3207675D01*
X3374038Y3207174D01*
X3340504Y3240708D01*
X3340644Y3241044D01*
X3341847Y3250181D01*
X3340644Y3259318D01*
X3337117Y3267832D01*
X3331507Y3275143D01*
X3324195Y3280753D01*
X3315681Y3284280D01*
X3306544Y3285483D01*
X3297408Y3284280D01*
X3288894Y3280753D01*
X3281582Y3275143D01*
X3275972Y3267832D01*
X3272445Y3259318D01*
X3271242Y3250181D01*
X3272445Y3241044D01*
X3275972Y3232530D01*
X3281582Y3225218D01*
X3288894Y3219608D01*
X3297408Y3216082D01*
X3306544Y3214879D01*
X3315681Y3216082D01*
X3318213Y3217130D01*
X3331296Y3204047D01*
X3475386Y3059957D01*
Y2969580D01*
X3476620Y2963374D01*
X3480136Y2958113D01*
X3546972Y2891276D01*
Y2727156D01*
X3548206Y2720950D01*
X3551722Y2715689D01*
X3630807Y2636604D01*
X3636068Y2633088D01*
X3642274Y2631854D01*
X3691390D01*
X3697868Y2627525D01*
X3706378Y2625833D01*
X3739842D01*
X3748353Y2627525D01*
X3755567Y2632346D01*
X3760388Y2639561D01*
X3762081Y2648071D01*
X3760388Y2656581D01*
X3755567Y2663796D01*
X3748353Y2668616D01*
X3746139Y2669057D01*
Y2677085D01*
X3748353Y2677525D01*
X3754831Y2681854D01*
X3773406D01*
X3779612Y2683088D01*
X3784873Y2686604D01*
X3798171Y2699902D01*
X3801687Y2705163D01*
X3802921Y2711369D01*
Y2844123D01*
X3801687Y2850329D01*
X3798171Y2855590D01*
X3770010Y2883751D01*
X3764749Y2887266D01*
X3758543Y2888501D01*
X3750827D01*
Y2901968D01*
X3739327D01*
Y2922795D01*
X3738093Y2929001D01*
X3734577Y2934262D01*
X3728485Y2940354D01*
X3729420Y2942649D01*
X3734961Y2948228D01*
X3735039D01*
Y2948228D01*
X3755000D01*
Y3005472D01*
X3765000D01*
Y2948228D01*
X3784960D01*
Y2948228D01*
X3785040D01*
Y2948228D01*
X3805000D01*
Y3005472D01*
X3815000D01*
Y2948228D01*
X3834960D01*
Y2948228D01*
X3835040D01*
Y2948228D01*
X3884960D01*
Y2948228D01*
X3885040D01*
Y2948228D01*
X3934961D01*
Y3062512D01*
X3949753D01*
Y3051997D01*
X4007155D01*
Y3066119D01*
X4014429Y3069133D01*
X4264841Y2818721D01*
X4263301Y2815004D01*
X4261943Y2804685D01*
X4263301Y2794366D01*
X4267284Y2784751D01*
X4273620Y2776494D01*
X4281877Y2770158D01*
X4291492Y2766175D01*
X4301811Y2764816D01*
X4312130Y2766175D01*
X4321745Y2770158D01*
X4330002Y2776494D01*
X4336338Y2784751D01*
X4340321Y2794366D01*
X4341680Y2804685D01*
X4340321Y2815004D01*
X4336338Y2824619D01*
X4330002Y2832876D01*
X4321745Y2839212D01*
X4312130Y2843195D01*
X4301811Y2844554D01*
X4291492Y2843195D01*
X4287775Y2841655D01*
X4027151Y3102279D01*
Y3322458D01*
X4025917Y3328664D01*
X4022401Y3333925D01*
X3952909Y3403417D01*
X3955922Y3410692D01*
X4258886D01*
X4355476Y3314101D01*
X4354698Y3308189D01*
X4355901Y3299052D01*
X4358025Y3293924D01*
Y3257573D01*
X4298961Y3198509D01*
X4291492Y3197526D01*
X4281877Y3193543D01*
X4273620Y3187207D01*
X4267284Y3178950D01*
X4263301Y3169334D01*
X4261943Y3159016D01*
X4263301Y3148697D01*
X4267284Y3139081D01*
X4273620Y3130824D01*
X4281877Y3124488D01*
X4291492Y3120506D01*
X4301811Y3119147D01*
X4312130Y3120506D01*
X4321745Y3124488D01*
X4330002Y3130824D01*
X4336338Y3139081D01*
X4340321Y3148697D01*
X4341305Y3156166D01*
X4409138Y3223999D01*
X4413896Y3230200D01*
X4416887Y3237421D01*
X4417907Y3245171D01*
Y3287065D01*
X4420572Y3290538D01*
X4424099Y3299052D01*
X4425302Y3308189D01*
X4424099Y3317326D01*
X4420572Y3325840D01*
X4414962Y3333151D01*
X4407651Y3338761D01*
X4399137Y3342288D01*
X4390000Y3343491D01*
X4384088Y3342713D01*
X4281572Y3445229D01*
X4275008Y3449614D01*
X4267266Y3451154D01*
X3944989D01*
X3836882Y3559261D01*
Y3574591D01*
X3835342Y3582333D01*
X3830957Y3588897D01*
X3816246Y3603608D01*
X3817024Y3609519D01*
X3815821Y3618656D01*
X3812294Y3627170D01*
X3806684Y3634481D01*
X3799373Y3640091D01*
X3790859Y3643618D01*
X3781722Y3644821D01*
X3772585Y3643618D01*
X3764071Y3640091D01*
X3763307Y3639505D01*
X3762489Y3639303D01*
X3753139Y3641628D01*
X3752284Y3642908D01*
X3426364Y3968828D01*
X3421103Y3972343D01*
X3414897Y3973577D01*
X3029644D01*
X3023438Y3972343D01*
X3018177Y3968828D01*
X3007697Y3958348D01*
X3006263Y3958942D01*
X2997126Y3960144D01*
X2987989Y3958942D01*
X2979475Y3955415D01*
X2972164Y3949805D01*
X2966554Y3942494D01*
X2963027Y3933979D01*
X2961824Y3924843D01*
X2963027Y3915706D01*
X2966554Y3907191D01*
X2972164Y3899880D01*
X2979475Y3894270D01*
X2980909Y3893676D01*
Y3846113D01*
X2963350Y3828553D01*
X2956093Y3832432D01*
X2956322Y3833583D01*
X2938071D01*
Y3815332D01*
X2939222Y3815561D01*
X2943101Y3808304D01*
X2882829Y3748032D01*
X2880961Y3748666D01*
X2875052Y3751391D01*
X2871872Y3759068D01*
X2866262Y3766380D01*
X2861530Y3770010D01*
Y3876226D01*
X3023774Y4038470D01*
X3192195D01*
X3195825Y4033738D01*
X3203136Y4028128D01*
X3211651Y4024602D01*
X3220787Y4023399D01*
X3229924Y4024602D01*
X3238438Y4028128D01*
X3245750Y4033738D01*
X3251360Y4041050D01*
X3254887Y4049564D01*
X3256089Y4058701D01*
X3254887Y4067838D01*
X3251360Y4076352D01*
X3245750Y4083663D01*
X3238438Y4089273D01*
X3229924Y4092800D01*
X3220787Y4094003D01*
D02*
G37*
G36*
X2938071Y3861834D02*
Y3843583D01*
X2956322D01*
X2955471Y3847861D01*
X2950215Y3855727D01*
X2942349Y3860983D01*
X2938071Y3861834D01*
D02*
G37*
G36*
X2928071D02*
X2923793Y3860983D01*
X2915927Y3855727D01*
X2910671Y3847861D01*
X2909820Y3843583D01*
X2928071D01*
Y3861834D01*
D02*
G37*
G36*
Y3833583D02*
X2909820D01*
X2910671Y3829304D01*
X2915927Y3821439D01*
X2923793Y3816183D01*
X2928071Y3815332D01*
Y3833583D01*
D02*
G37*
G36*
X3961732Y3872130D02*
X3950900Y3870704D01*
X3940805Y3866522D01*
X3932137Y3859871D01*
X3925485Y3851203D01*
X3921304Y3841108D01*
X3919878Y3830276D01*
X3921304Y3819443D01*
X3925485Y3809349D01*
X3932137Y3800680D01*
X3940805Y3794029D01*
X3950900Y3789848D01*
X3961732Y3788421D01*
X3972565Y3789848D01*
X3982659Y3794029D01*
X3991327Y3800680D01*
X3997979Y3809349D01*
X4002160Y3819443D01*
X4003586Y3830276D01*
X4002160Y3841108D01*
X3997979Y3851203D01*
X3991327Y3859871D01*
X3982659Y3866522D01*
X3972565Y3870704D01*
X3961732Y3872130D01*
D02*
G37*
G36*
X3966732Y3671472D02*
Y3635275D01*
X4002928D01*
X4002160Y3641108D01*
X3997979Y3651203D01*
X3991327Y3659871D01*
X3982659Y3666522D01*
X3972565Y3670704D01*
X3966732Y3671472D01*
D02*
G37*
G36*
X3956732Y3671471D02*
X3950900Y3670704D01*
X3940805Y3666522D01*
X3932137Y3659871D01*
X3925485Y3651203D01*
X3921304Y3641108D01*
X3920536Y3635275D01*
X3956732D01*
Y3671471D01*
D02*
G37*
G36*
Y3625275D02*
X3920537D01*
X3921304Y3619443D01*
X3925485Y3609349D01*
X3932137Y3600680D01*
X3940805Y3594029D01*
X3950900Y3589848D01*
X3956732Y3589080D01*
Y3625275D01*
D02*
G37*
G36*
X4002928D02*
X3966732D01*
Y3589080D01*
X3972565Y3589848D01*
X3982659Y3594029D01*
X3991327Y3600680D01*
X3997979Y3609349D01*
X4002160Y3619443D01*
X4002928Y3625275D01*
D02*
G37*
G36*
X3126338Y3534353D02*
Y3516102D01*
X3144589D01*
X3143738Y3520381D01*
X3138483Y3528247D01*
X3130617Y3533502D01*
X3126338Y3534353D01*
D02*
G37*
G36*
X3116338D02*
X3112060Y3533502D01*
X3104194Y3528247D01*
X3098939Y3520381D01*
X3098088Y3516102D01*
X3116338D01*
Y3534353D01*
D02*
G37*
G36*
X3961732Y3572130D02*
X3950900Y3570704D01*
X3940805Y3566522D01*
X3932137Y3559871D01*
X3925485Y3551203D01*
X3921304Y3541108D01*
X3919878Y3530276D01*
X3921304Y3519443D01*
X3925485Y3509349D01*
X3932137Y3500680D01*
X3940805Y3494029D01*
X3950900Y3489848D01*
X3961732Y3488421D01*
X3972565Y3489848D01*
X3982659Y3494029D01*
X3991327Y3500680D01*
X3997979Y3509349D01*
X4002160Y3519443D01*
X4003586Y3530276D01*
X4002160Y3541108D01*
X3997979Y3551203D01*
X3991327Y3559871D01*
X3982659Y3566522D01*
X3972565Y3570704D01*
X3961732Y3572130D01*
D02*
G37*
G36*
X3144589Y3506102D02*
X3126338D01*
Y3487852D01*
X3130617Y3488703D01*
X3138483Y3493958D01*
X3143738Y3501824D01*
X3144589Y3506102D01*
D02*
G37*
G36*
X3116338D02*
X3098088D01*
X3098939Y3501824D01*
X3104194Y3493958D01*
X3112060Y3488703D01*
X3116338Y3487852D01*
Y3506102D01*
D02*
G37*
G36*
X2822084Y3475298D02*
Y3457047D01*
X2840335D01*
X2839484Y3461326D01*
X2834228Y3469191D01*
X2826362Y3474447D01*
X2822084Y3475298D01*
D02*
G37*
G36*
X2812084D02*
X2807806Y3474447D01*
X2799940Y3469191D01*
X2794684Y3461326D01*
X2793833Y3457047D01*
X2812084D01*
Y3475298D01*
D02*
G37*
G36*
X2840335Y3447047D02*
X2822084D01*
Y3428796D01*
X2826362Y3429648D01*
X2834228Y3434903D01*
X2839484Y3442769D01*
X2840335Y3447047D01*
D02*
G37*
G36*
X2812084D02*
X2793833D01*
X2794684Y3442769D01*
X2799940Y3434903D01*
X2807806Y3429648D01*
X2812084Y3428796D01*
Y3447047D01*
D02*
G37*
G36*
X4419921Y3198884D02*
X4409602Y3197526D01*
X4399987Y3193543D01*
X4391730Y3187207D01*
X4385394Y3178950D01*
X4381411Y3169334D01*
X4380053Y3159016D01*
X4381411Y3148697D01*
X4385394Y3139081D01*
X4391730Y3130824D01*
X4399987Y3124488D01*
X4409602Y3120506D01*
X4419921Y3119147D01*
X4430240Y3120506D01*
X4439856Y3124488D01*
X4448113Y3130824D01*
X4454449Y3139081D01*
X4458431Y3148697D01*
X4459790Y3159016D01*
X4458431Y3169334D01*
X4454449Y3178950D01*
X4448113Y3187207D01*
X4439856Y3193543D01*
X4430240Y3197526D01*
X4419921Y3198884D01*
D02*
G37*
G36*
X3324739Y3146127D02*
X3170776D01*
X3164570Y3144893D01*
X3159309Y3141377D01*
X3133719Y3115787D01*
X3132285Y3116381D01*
X3123148Y3117584D01*
X3114011Y3116381D01*
X3105497Y3112854D01*
X3098186Y3107244D01*
X3092576Y3099933D01*
X3089049Y3091419D01*
X3087846Y3082282D01*
X3089049Y3073145D01*
X3092576Y3064631D01*
X3097941Y3057639D01*
X3098186Y3057319D01*
X3102925Y3052242D01*
Y3052241D01*
X3102924Y3052242D01*
X3100640Y3045512D01*
X3098004Y3045511D01*
X3019252D01*
Y3003385D01*
X3019252Y2995590D01*
X3019252Y2987716D01*
Y2953385D01*
X3019252Y2945590D01*
X3019252Y2937716D01*
Y2903385D01*
X3019252Y2895590D01*
X3019252Y2887716D01*
Y2853385D01*
X3019252Y2845590D01*
X3019252Y2837716D01*
X3019252Y2792336D01*
X3013684Y2786768D01*
X3001640D01*
X2995434Y2785533D01*
X2990173Y2782018D01*
X2980423Y2772268D01*
X2976907Y2767006D01*
X2975673Y2760800D01*
Y2456799D01*
X2966992Y2453203D01*
X2956679Y2445290D01*
X2948765Y2434977D01*
X2943791Y2422967D01*
X2942094Y2410079D01*
X2943791Y2397191D01*
X2948765Y2385181D01*
X2956679Y2374867D01*
X2963267Y2369812D01*
X2960594Y2361938D01*
X2843999D01*
X2614766Y2591172D01*
X2608565Y2595930D01*
X2601343Y2598921D01*
X2593594Y2599941D01*
X2420574D01*
X2413777Y2602757D01*
X2405000Y2603912D01*
X2396223Y2602757D01*
X2388044Y2599369D01*
X2381021Y2593979D01*
X2375631Y2586956D01*
X2372243Y2578777D01*
X2371088Y2570000D01*
X2372243Y2561223D01*
X2375631Y2553044D01*
X2381021Y2546021D01*
X2388044Y2540631D01*
X2396223Y2537243D01*
X2405000Y2536088D01*
X2413777Y2537243D01*
X2420574Y2540059D01*
X2581192D01*
X2810425Y2310825D01*
X2816626Y2306067D01*
X2823848Y2303076D01*
X2831597Y2302056D01*
X3005296D01*
X3008113Y2294182D01*
X3001879Y2289066D01*
X2993250Y2278551D01*
X2986838Y2266554D01*
X2982889Y2253537D01*
X2981556Y2240000D01*
X2982889Y2226463D01*
X2986838Y2213446D01*
X2993250Y2201449D01*
X3001879Y2190934D01*
X3012394Y2182305D01*
X3024391Y2175893D01*
X3037408Y2171944D01*
X3050945Y2170611D01*
X3064482Y2171944D01*
X3077499Y2175893D01*
X3089495Y2182305D01*
X3100010Y2190934D01*
X3108640Y2201449D01*
X3115052Y2213446D01*
X3119001Y2226463D01*
X3120334Y2240000D01*
X3119001Y2253537D01*
X3115052Y2266554D01*
X3108640Y2278551D01*
X3100010Y2289066D01*
X3093776Y2294182D01*
X3096594Y2302056D01*
X3576595D01*
X3579413Y2294182D01*
X3573178Y2289066D01*
X3564549Y2278551D01*
X3558137Y2266554D01*
X3554188Y2253537D01*
X3552855Y2240000D01*
X3554188Y2226463D01*
X3558137Y2213446D01*
X3564549Y2201449D01*
X3573178Y2190934D01*
X3583693Y2182305D01*
X3595690Y2175893D01*
X3608707Y2171944D01*
X3622244Y2170611D01*
X3635781Y2171944D01*
X3648798Y2175893D01*
X3660795Y2182305D01*
X3671310Y2190934D01*
X3679939Y2201449D01*
X3686351Y2213446D01*
X3690300Y2226463D01*
X3691633Y2240000D01*
X3690300Y2253537D01*
X3686351Y2266554D01*
X3679939Y2278551D01*
X3671310Y2289066D01*
X3660795Y2297695D01*
X3648798Y2304107D01*
X3635781Y2308056D01*
X3633026Y2308327D01*
X3630092Y2316528D01*
X3674713Y2361150D01*
X3681299Y2360283D01*
X3687885Y2361150D01*
X3729725Y2319310D01*
X3735926Y2314552D01*
X3743147Y2311561D01*
X3750896Y2310540D01*
X4028423D01*
X4030396Y2302666D01*
X4021095Y2297695D01*
X4010580Y2289066D01*
X4001951Y2278551D01*
X3995538Y2266554D01*
X3991590Y2253537D01*
X3990256Y2240000D01*
X3991590Y2226463D01*
X3995538Y2213446D01*
X4001951Y2201449D01*
X4010580Y2190934D01*
X4021095Y2182305D01*
X4033092Y2175893D01*
X4046108Y2171944D01*
X4059646Y2170611D01*
X4073183Y2171944D01*
X4086200Y2175893D01*
X4098196Y2182305D01*
X4108711Y2190934D01*
X4117341Y2201449D01*
X4123753Y2213446D01*
X4127702Y2226463D01*
X4129035Y2240000D01*
X4127702Y2253537D01*
X4123753Y2266554D01*
X4117341Y2278551D01*
X4108711Y2289066D01*
X4098196Y2297695D01*
X4086200Y2304107D01*
X4073183Y2308056D01*
X4069071Y2308461D01*
X4066746Y2316602D01*
X4070275Y2319310D01*
X4112115Y2361150D01*
X4118701Y2360283D01*
X4131589Y2361979D01*
X4143599Y2366954D01*
X4153912Y2374867D01*
X4157956Y2380137D01*
X4380547D01*
X4388297Y2381158D01*
X4395518Y2384149D01*
X4401719Y2388907D01*
X4526172Y2513360D01*
X4530930Y2519561D01*
X4533921Y2526782D01*
X4534941Y2534532D01*
Y2599393D01*
X4537258Y2601343D01*
X4539330Y2602349D01*
X4542685Y2603002D01*
X4551449Y2595809D01*
X4563446Y2589397D01*
X4576463Y2585448D01*
X4590000Y2584115D01*
X4603537Y2585448D01*
X4616554Y2589397D01*
X4628551Y2595809D01*
X4639066Y2604438D01*
X4647695Y2614953D01*
X4654107Y2626950D01*
X4658056Y2639967D01*
X4659389Y2653504D01*
X4658056Y2667041D01*
X4654107Y2680058D01*
X4647695Y2692055D01*
X4639066Y2702570D01*
X4628551Y2711199D01*
X4616554Y2717611D01*
X4603537Y2721560D01*
X4590000Y2722893D01*
X4576463Y2721560D01*
X4563446Y2717611D01*
X4551449Y2711199D01*
X4540934Y2702570D01*
X4532305Y2692055D01*
X4525893Y2680058D01*
X4521944Y2667041D01*
X4520611Y2653504D01*
X4521944Y2639967D01*
X4522787Y2637188D01*
X4515825Y2633015D01*
X4459415Y2689425D01*
X4458431Y2696894D01*
X4454449Y2706509D01*
X4448113Y2714766D01*
X4439856Y2721102D01*
X4430240Y2725085D01*
X4419921Y2726443D01*
X4409602Y2725085D01*
X4399987Y2721102D01*
X4391730Y2714766D01*
X4385394Y2706509D01*
X4381411Y2696894D01*
X4373591Y2697819D01*
Y2713276D01*
X4372357Y2719482D01*
X4368841Y2724743D01*
X4343345Y2750239D01*
X4338084Y2753755D01*
X4331878Y2754989D01*
X4231514D01*
X4160784Y2825719D01*
X4155523Y2829235D01*
X4149317Y2830469D01*
X4069094D01*
Y2840984D01*
X4069095D01*
X4065827Y2845512D01*
X4069854Y2853386D01*
X4075984D01*
Y2912756D01*
X4000118D01*
Y2883072D01*
X3995118D01*
D01*
X4000118D01*
Y2853386D01*
X4016724D01*
X4021218Y2846113D01*
X4018557Y2840984D01*
X4011693D01*
Y2776386D01*
X3999193D01*
X3999193Y2776386D01*
X3992365Y2775028D01*
X3986576Y2771160D01*
X3986576Y2771160D01*
X3981329Y2765914D01*
X3966965D01*
X3962919Y2768616D01*
X3960706Y2769057D01*
Y2777085D01*
X3962919Y2777525D01*
X3970134Y2782346D01*
X3974955Y2789561D01*
X3976648Y2798071D01*
X3974955Y2806581D01*
X3970134Y2813796D01*
X3962919Y2818616D01*
X3954409Y2820309D01*
X3953894D01*
Y2873063D01*
X3952660Y2879269D01*
X3949144Y2884530D01*
X3939136Y2894538D01*
X3933875Y2898053D01*
X3927992Y2899224D01*
Y2911772D01*
X3855078D01*
Y2883071D01*
Y2854370D01*
X3921460D01*
Y2820309D01*
X3920945D01*
X3912434Y2818616D01*
X3905220Y2813796D01*
X3900399Y2806581D01*
X3898706Y2798071D01*
X3900399Y2789561D01*
X3905220Y2782346D01*
X3912434Y2777525D01*
X3914648Y2777085D01*
Y2769057D01*
X3912434Y2768616D01*
X3905220Y2763796D01*
X3900399Y2756581D01*
X3898706Y2748071D01*
X3900399Y2739561D01*
X3905220Y2732346D01*
X3912434Y2727525D01*
X3914648Y2727085D01*
Y2719057D01*
X3912434Y2718616D01*
X3905220Y2713796D01*
X3900399Y2706581D01*
X3898706Y2698071D01*
X3900399Y2689561D01*
X3905220Y2682346D01*
X3912434Y2677525D01*
X3914648Y2677085D01*
Y2669057D01*
X3912434Y2668616D01*
X3905220Y2663796D01*
X3900399Y2656581D01*
X3898706Y2648071D01*
X3900399Y2639561D01*
X3905220Y2632346D01*
X3912434Y2627525D01*
X3920945Y2625833D01*
X3954409D01*
X3962919Y2627525D01*
X3969398Y2631854D01*
X3970447D01*
X3980697Y2621604D01*
X3985958Y2618088D01*
X3992164Y2616854D01*
X4011693D01*
Y2606339D01*
X4069094D01*
Y2613845D01*
X4076968Y2615608D01*
X4189141Y2503435D01*
X4194402Y2499919D01*
X4200608Y2498685D01*
X4328974D01*
X4335180Y2499919D01*
X4340441Y2503435D01*
X4368841Y2531835D01*
X4372357Y2537096D01*
X4373591Y2543302D01*
Y2557220D01*
X4381411Y2558146D01*
X4385394Y2548530D01*
X4391730Y2540273D01*
X4399987Y2533937D01*
X4409602Y2529954D01*
X4414922Y2529254D01*
Y2568465D01*
Y2607675D01*
X4409602Y2606975D01*
X4399987Y2602992D01*
X4391730Y2596656D01*
X4385394Y2588399D01*
X4381411Y2578783D01*
X4373591Y2579709D01*
Y2675330D01*
X4381411Y2676256D01*
X4385394Y2666640D01*
X4391730Y2658383D01*
X4399987Y2652048D01*
X4409602Y2648065D01*
X4417072Y2647081D01*
X4475059Y2589094D01*
Y2546934D01*
X4368145Y2440020D01*
X4157956D01*
X4153912Y2445290D01*
X4143599Y2453203D01*
X4131589Y2458178D01*
X4118701Y2459875D01*
X4105813Y2458178D01*
X4093803Y2453203D01*
X4083490Y2445290D01*
X4075576Y2434977D01*
X4070602Y2422967D01*
X4068905Y2410079D01*
X4069772Y2403493D01*
X4052789Y2386510D01*
X4046113Y2390970D01*
X4048690Y2397191D01*
X4050387Y2410079D01*
X4048690Y2422967D01*
X4043715Y2434977D01*
X4035802Y2445290D01*
X4025489Y2453203D01*
X4013479Y2458178D01*
X4000591Y2459875D01*
X3987702Y2458178D01*
X3975693Y2453203D01*
X3965379Y2445290D01*
X3957466Y2434977D01*
X3952491Y2422967D01*
X3950794Y2410079D01*
X3952491Y2397191D01*
X3957466Y2385181D01*
X3962748Y2378297D01*
X3958865Y2370423D01*
X3763298D01*
X3730228Y2403493D01*
X3731095Y2410079D01*
X3729398Y2422967D01*
X3724424Y2434977D01*
X3716510Y2445290D01*
X3706197Y2453203D01*
X3694187Y2458178D01*
X3681299Y2459875D01*
X3668411Y2458178D01*
X3656401Y2453203D01*
X3646088Y2445290D01*
X3638175Y2434977D01*
X3633200Y2422967D01*
X3631503Y2410079D01*
X3632370Y2403493D01*
X3615387Y2386510D01*
X3608712Y2390970D01*
X3611288Y2397191D01*
X3612985Y2410079D01*
X3611288Y2422967D01*
X3606314Y2434977D01*
X3598400Y2445290D01*
X3588087Y2453203D01*
X3576077Y2458178D01*
X3563189Y2459875D01*
X3550301Y2458178D01*
X3538291Y2453203D01*
X3527978Y2445290D01*
X3520064Y2434977D01*
X3515090Y2422967D01*
X3513393Y2410079D01*
X3515090Y2397191D01*
X3520064Y2385181D01*
X3527978Y2374867D01*
X3534566Y2369812D01*
X3531893Y2361938D01*
X3141296D01*
X3138623Y2369812D01*
X3145211Y2374867D01*
X3153125Y2385181D01*
X3158099Y2397191D01*
X3159796Y2410079D01*
X3158099Y2422967D01*
X3153125Y2434977D01*
X3145211Y2445290D01*
X3134898Y2453203D01*
X3126217Y2456799D01*
Y2508324D01*
X3124983Y2514530D01*
X3121467Y2519791D01*
X3078343Y2562915D01*
Y2645590D01*
X3105000D01*
Y2645590D01*
X3112874Y2647459D01*
X3156622Y2603710D01*
Y2568939D01*
X3146107D01*
Y2511537D01*
X3250753D01*
Y2568939D01*
X3240238D01*
Y2656149D01*
X3239003Y2662355D01*
X3236923Y2665468D01*
X3240209Y2671903D01*
X3241210Y2672812D01*
X3247163Y2672028D01*
X3256300Y2673231D01*
X3264814Y2676758D01*
X3272125Y2682368D01*
X3277735Y2689679D01*
X3280002Y2695152D01*
X3299827D01*
X3335895Y2659084D01*
X3341156Y2655569D01*
X3347362Y2654334D01*
X3355079D01*
Y2645591D01*
X3440827D01*
Y2687716D01*
X3440827Y2695512D01*
X3440827Y2703386D01*
Y2737716D01*
X3440827Y2745511D01*
X3440827Y2753385D01*
Y2787716D01*
X3440827Y2795511D01*
X3440827Y2803385D01*
Y2837716D01*
X3440827Y2845511D01*
X3440827Y2853385D01*
Y2887716D01*
X3440827Y2895511D01*
X3440827Y2903385D01*
Y2937716D01*
X3440827Y2945511D01*
X3440827Y2953385D01*
Y2987716D01*
X3440827Y2995511D01*
X3440827Y3003385D01*
Y3045511D01*
X3395458D01*
X3392785Y3053385D01*
X3396137Y3055957D01*
X3401747Y3063269D01*
X3405273Y3071783D01*
X3406476Y3080920D01*
X3405273Y3090056D01*
X3401747Y3098571D01*
X3396137Y3105882D01*
X3388825Y3111492D01*
X3380311Y3115019D01*
X3371174Y3116222D01*
X3362503Y3115080D01*
X3336206Y3141377D01*
X3330945Y3144893D01*
X3324739Y3146127D01*
D02*
G37*
G36*
X4590000Y3143365D02*
X4576463Y3142032D01*
X4563446Y3138084D01*
X4551449Y3131671D01*
X4540934Y3123042D01*
X4532305Y3112527D01*
X4525893Y3100530D01*
X4521944Y3087514D01*
X4520611Y3073976D01*
X4521944Y3060439D01*
X4525893Y3047422D01*
X4532305Y3035426D01*
X4540934Y3024911D01*
X4551449Y3016281D01*
X4563446Y3009869D01*
X4576463Y3005920D01*
X4590000Y3004587D01*
X4603537Y3005920D01*
X4616554Y3009869D01*
X4628551Y3016281D01*
X4639066Y3024911D01*
X4647695Y3035426D01*
X4654107Y3047422D01*
X4658056Y3060439D01*
X4659389Y3073976D01*
X4658056Y3087514D01*
X4654107Y3100530D01*
X4647695Y3112527D01*
X4639066Y3123042D01*
X4628551Y3131671D01*
X4616554Y3138084D01*
X4603537Y3142032D01*
X4590000Y3143365D01*
D02*
G37*
G36*
X4301811Y3080774D02*
X4291492Y3079416D01*
X4281877Y3075433D01*
X4273620Y3069097D01*
X4267284Y3060840D01*
X4263301Y3051224D01*
X4261943Y3040905D01*
X4263301Y3030587D01*
X4267284Y3020971D01*
X4273620Y3012714D01*
X4281877Y3006378D01*
X4291492Y3002395D01*
X4301811Y3001037D01*
X4312130Y3002395D01*
X4321745Y3006378D01*
X4330002Y3012714D01*
X4336338Y3020971D01*
X4340321Y3030587D01*
X4341680Y3040905D01*
X4340321Y3051224D01*
X4336338Y3060840D01*
X4330002Y3069097D01*
X4321745Y3075433D01*
X4312130Y3079416D01*
X4301811Y3080774D01*
D02*
G37*
G36*
X4419921Y3080774D02*
X4409602Y3079416D01*
X4399987Y3075433D01*
X4391730Y3069097D01*
X4385394Y3060840D01*
X4381411Y3051224D01*
X4380053Y3040905D01*
X4381411Y3030587D01*
X4385394Y3020971D01*
X4391730Y3012714D01*
X4399987Y3006378D01*
X4409602Y3002395D01*
X4419921Y3001037D01*
X4430240Y3002395D01*
X4439856Y3006378D01*
X4448113Y3012714D01*
X4454449Y3020971D01*
X4458431Y3030587D01*
X4459790Y3040905D01*
X4458431Y3051224D01*
X4454449Y3060840D01*
X4448113Y3069097D01*
X4439856Y3075433D01*
X4430240Y3079416D01*
X4419921Y3080774D01*
D02*
G37*
G36*
X4306811Y2962006D02*
Y2927795D01*
X4341021D01*
X4340321Y2933114D01*
X4336338Y2942729D01*
X4330002Y2950987D01*
X4321745Y2957322D01*
X4312130Y2961305D01*
X4306811Y2962006D01*
D02*
G37*
G36*
X4296811D02*
X4291492Y2961305D01*
X4281877Y2957322D01*
X4273620Y2950987D01*
X4267284Y2942729D01*
X4263301Y2933114D01*
X4262601Y2927795D01*
X4296811D01*
Y2962006D01*
D02*
G37*
G36*
X2885472Y2932120D02*
Y2913869D01*
X2903723D01*
X2902872Y2918147D01*
X2897617Y2926013D01*
X2889751Y2931269D01*
X2885472Y2932120D01*
D02*
G37*
G36*
X2875472D02*
X2871194Y2931269D01*
X2863328Y2926013D01*
X2858073Y2918147D01*
X2857222Y2913869D01*
X2875472D01*
Y2932120D01*
D02*
G37*
G36*
X3990118Y2912756D02*
X3967401D01*
Y2888072D01*
X3990118D01*
Y2912756D01*
D02*
G37*
G36*
X3845078Y2911772D02*
X3823346D01*
Y2888071D01*
X3845078D01*
Y2911772D01*
D02*
G37*
G36*
X2903723Y2903869D02*
X2885472D01*
Y2885618D01*
X2889751Y2886469D01*
X2897617Y2891725D01*
X2902872Y2899591D01*
X2903723Y2903869D01*
D02*
G37*
G36*
X2875472D02*
X2857222D01*
X2858073Y2899591D01*
X2863328Y2891725D01*
X2871194Y2886469D01*
X2875472Y2885618D01*
Y2903869D01*
D02*
G37*
G36*
X4341021Y2917795D02*
X4306811D01*
Y2883585D01*
X4312130Y2884285D01*
X4321745Y2888268D01*
X4330002Y2894604D01*
X4336338Y2902861D01*
X4340321Y2912476D01*
X4341021Y2917795D01*
D02*
G37*
G36*
X4296811D02*
X4262601D01*
X4263301Y2912476D01*
X4267284Y2902861D01*
X4273620Y2894604D01*
X4281877Y2888268D01*
X4291492Y2884285D01*
X4296811Y2883585D01*
Y2917795D01*
D02*
G37*
G36*
X4419921Y2962664D02*
X4409602Y2961305D01*
X4399987Y2957322D01*
X4391730Y2950987D01*
X4385394Y2942729D01*
X4381411Y2933114D01*
X4380053Y2922795D01*
X4381411Y2912476D01*
X4385394Y2902861D01*
X4391730Y2894604D01*
X4399987Y2888268D01*
X4409602Y2884285D01*
X4419921Y2882927D01*
X4430240Y2884285D01*
X4439856Y2888268D01*
X4448113Y2894604D01*
X4454449Y2902861D01*
X4458431Y2912476D01*
X4459790Y2922795D01*
X4458431Y2933114D01*
X4454449Y2942729D01*
X4448113Y2950987D01*
X4439856Y2957322D01*
X4430240Y2961305D01*
X4419921Y2962664D01*
D02*
G37*
G36*
X3845078Y2878071D02*
X3823346D01*
Y2854370D01*
X3845078D01*
Y2878071D01*
D02*
G37*
G36*
X3990118Y2878072D02*
X3967401D01*
Y2853386D01*
X3990118D01*
Y2878072D01*
D02*
G37*
G36*
X4419921Y2844554D02*
X4409602Y2843195D01*
X4399987Y2839212D01*
X4391730Y2832876D01*
X4385394Y2824619D01*
X4381411Y2815004D01*
X4380053Y2804685D01*
X4381411Y2794366D01*
X4385394Y2784751D01*
X4391730Y2776494D01*
X4399987Y2770158D01*
X4409602Y2766175D01*
X4419921Y2764816D01*
X4430240Y2766175D01*
X4439856Y2770158D01*
X4448113Y2776494D01*
X4454449Y2784751D01*
X4458431Y2794366D01*
X4459790Y2804685D01*
X4458431Y2815004D01*
X4454449Y2824619D01*
X4448113Y2832876D01*
X4439856Y2839212D01*
X4430240Y2843195D01*
X4419921Y2844554D01*
D02*
G37*
G36*
X2405000Y2800762D02*
X2396223Y2799607D01*
X2388044Y2796219D01*
X2381021Y2790830D01*
X2375631Y2783806D01*
X2372243Y2775628D01*
X2371088Y2766850D01*
X2372243Y2758073D01*
X2375631Y2749894D01*
X2381021Y2742871D01*
X2388044Y2737482D01*
X2396223Y2734094D01*
X2405000Y2732938D01*
X2413777Y2734094D01*
X2421956Y2737482D01*
X2428979Y2742871D01*
X2434369Y2749894D01*
X2437757Y2758073D01*
X2438912Y2766850D01*
X2437757Y2775628D01*
X2434369Y2783806D01*
X2428979Y2790830D01*
X2421956Y2796219D01*
X2413777Y2799607D01*
X2405000Y2800762D01*
D02*
G37*
G36*
X4424922Y2607675D02*
Y2573465D01*
X4459132D01*
X4458431Y2578783D01*
X4454449Y2588399D01*
X4448113Y2596656D01*
X4439856Y2602992D01*
X4430240Y2606975D01*
X4424922Y2607675D01*
D02*
G37*
G36*
X4459132Y2563465D02*
X4424922D01*
Y2529254D01*
X4430240Y2529954D01*
X4439856Y2533937D01*
X4448113Y2540273D01*
X4454449Y2548530D01*
X4458431Y2558146D01*
X4459132Y2563465D01*
D02*
G37*
G36*
X3869724Y2477203D02*
X3865055Y2476274D01*
X3861096Y2473629D01*
X3858450Y2469670D01*
X3857521Y2465000D01*
X3858450Y2460330D01*
X3861096Y2456371D01*
X3861174Y2456293D01*
X3865133Y2453647D01*
X3869803Y2452718D01*
X3874473Y2453647D01*
X3878432Y2456293D01*
X3881077Y2460251D01*
X3882006Y2464921D01*
X3881077Y2469591D01*
X3878432Y2473550D01*
X3878353Y2473629D01*
X3874394Y2476274D01*
X3869724Y2477203D01*
D02*
G37*
G36*
X3432323D02*
X3427653Y2476274D01*
X3423694Y2473629D01*
X3421049Y2469670D01*
X3420120Y2465000D01*
X3421049Y2460330D01*
X3423694Y2456371D01*
X3423773Y2456293D01*
X3427732Y2453647D01*
X3432401Y2452718D01*
X3437071Y2453647D01*
X3441030Y2456293D01*
X3443676Y2460251D01*
X3444604Y2464921D01*
X3443676Y2469591D01*
X3441030Y2473550D01*
X3440952Y2473629D01*
X3436993Y2476274D01*
X3432323Y2477203D01*
D02*
G37*
G36*
X2861024D02*
X2856354Y2476274D01*
X2852395Y2473629D01*
X2849749Y2469670D01*
X2848821Y2465000D01*
X2849749Y2460330D01*
X2852395Y2456371D01*
X2852474Y2456293D01*
X2856432Y2453647D01*
X2861102Y2452718D01*
X2865772Y2453647D01*
X2869731Y2456293D01*
X2872376Y2460251D01*
X2873305Y2464921D01*
X2872376Y2469591D01*
X2869731Y2473550D01*
X2869652Y2473629D01*
X2865693Y2476274D01*
X2861024Y2477203D01*
D02*
G37*
%LPD*%
G36*
X3583976Y2978543D02*
X3659843D01*
Y2992011D01*
X3685039D01*
Y2948228D01*
X3693783D01*
Y2935905D01*
X3695017Y2929699D01*
X3698533Y2924438D01*
X3706893Y2916078D01*
Y2901968D01*
X3674960D01*
Y2872283D01*
Y2842598D01*
X3750827D01*
Y2845930D01*
X3758701Y2849192D01*
X3770487Y2837405D01*
Y2718086D01*
X3766689Y2714288D01*
X3754831D01*
X3748353Y2718616D01*
X3746139Y2719057D01*
Y2727085D01*
X3748353Y2727525D01*
X3755567Y2732346D01*
X3760388Y2739561D01*
X3761086Y2743071D01*
X3723110D01*
X3685134D01*
X3685832Y2739561D01*
X3690653Y2732346D01*
X3697868Y2727525D01*
X3700081Y2727085D01*
Y2719057D01*
X3697868Y2718616D01*
X3690653Y2713796D01*
X3689409Y2711933D01*
X3679939D01*
X3678561Y2713994D01*
X3670696Y2719250D01*
X3666417Y2720101D01*
Y2696850D01*
X3661417D01*
Y2691850D01*
X3638166D01*
X3639017Y2687572D01*
X3643396Y2681020D01*
X3637279Y2676000D01*
X3579406Y2733874D01*
Y2803993D01*
X3587280Y2807255D01*
X3607931Y2786604D01*
X3613193Y2783088D01*
X3619399Y2781854D01*
X3691390D01*
X3697868Y2777525D01*
X3700081Y2777085D01*
Y2769057D01*
X3697868Y2768616D01*
X3690653Y2763796D01*
X3685832Y2756581D01*
X3685134Y2753071D01*
X3723110D01*
X3761086D01*
X3760388Y2756581D01*
X3755567Y2763796D01*
X3748353Y2768616D01*
X3746139Y2769057D01*
Y2777085D01*
X3748353Y2777525D01*
X3755567Y2782346D01*
X3760388Y2789561D01*
X3762081Y2798071D01*
X3760388Y2806581D01*
X3755567Y2813796D01*
X3748353Y2818616D01*
X3739842Y2820309D01*
X3706378D01*
X3697868Y2818616D01*
X3691390Y2814288D01*
X3626116D01*
X3607488Y2832916D01*
Y2909626D01*
X3606254Y2915832D01*
X3602738Y2921093D01*
X3553162Y2970669D01*
X3556423Y2978543D01*
X3573976D01*
Y3008228D01*
X3583976D01*
Y2978543D01*
D02*
G37*
%LPC*%
G36*
X3664960Y2901968D02*
X3642244D01*
Y2877283D01*
X3664960D01*
Y2901968D01*
D02*
G37*
G36*
Y2867283D02*
X3642244D01*
Y2842598D01*
X3664960D01*
Y2867283D01*
D02*
G37*
G36*
X3656417Y2720101D02*
X3652139Y2719250D01*
X3644273Y2713994D01*
X3639017Y2706129D01*
X3638166Y2701850D01*
X3656417D01*
Y2720101D01*
D02*
G37*
%LPD*%
D10*
X472441Y4370079D02*
G03*
X452756Y4350394I0J-19685D01*
G01*
X787402D02*
G03*
X767717Y4370079I-19685J0D01*
G01*
X511811Y4311024D02*
G03*
X511811Y4311024I-19685J0D01*
G01*
X767716D02*
G03*
X767716Y4311024I-19685J0D01*
G01*
X708661Y4271654D02*
G03*
X708661Y4271654I-39370J0D01*
G01*
X610236D02*
G03*
X610236Y4271654I-39370J0D01*
G01*
D11*
X3978454Y3129910D02*
D03*
Y3078729D02*
D03*
X4040394Y2684252D02*
D03*
Y2633071D02*
D03*
X3631145Y3130591D02*
D03*
Y3079410D02*
D03*
X4040394Y2763071D02*
D03*
Y2814252D02*
D03*
D12*
X3172840Y2540238D02*
D03*
X3224021D02*
D03*
X3850079Y2883071D02*
D03*
X3901260D02*
D03*
D13*
X3910000Y3159016D02*
D03*
Y3005472D02*
D03*
X3860000Y3159016D02*
D03*
Y3005472D02*
D03*
X3810000Y3159016D02*
D03*
Y3005472D02*
D03*
X3760000Y3159016D02*
D03*
Y3005472D02*
D03*
X3710000Y3159016D02*
D03*
Y3005472D02*
D03*
D14*
X3723110Y2798071D02*
D03*
Y2748071D02*
D03*
Y2698071D02*
D03*
Y2648071D02*
D03*
X3937677Y2798071D02*
D03*
Y2748071D02*
D03*
Y2698071D02*
D03*
Y2648071D02*
D03*
D15*
X3578976Y3008228D02*
D03*
X3632126D02*
D03*
X3995118Y2883071D02*
D03*
X4048268D02*
D03*
X3723110Y2872283D02*
D03*
X3669961D02*
D03*
D16*
X3397953Y2670551D02*
D03*
Y2720551D02*
D03*
Y2770551D02*
D03*
Y2820551D02*
D03*
Y2870551D02*
D03*
Y2920551D02*
D03*
Y2970551D02*
D03*
Y3020551D02*
D03*
X3062126D02*
D03*
Y2970551D02*
D03*
Y2920551D02*
D03*
Y2870551D02*
D03*
Y2820551D02*
D03*
Y2770551D02*
D03*
Y2720551D02*
D03*
Y2670551D02*
D03*
D17*
X1237724Y3048374D02*
D03*
X1525126D02*
D03*
D18*
X3015394Y4058701D02*
X3220787D01*
X2841299Y3884606D02*
X3015394Y4058701D01*
X2841299Y3741417D02*
Y3884606D01*
X3570315Y4121693D02*
X3961732Y3730276D01*
X3420934Y4271074D02*
X3570315Y4121693D01*
X3759291Y4310669D02*
X3844449D01*
X3570315Y4121693D02*
X3759291Y4310669D01*
X3569331Y3086854D02*
X3573053Y3083132D01*
X3627423D01*
X3631145Y3079410D01*
X3248597Y4271074D02*
X3420934D01*
X3781723Y3609519D02*
X3816651Y3574591D01*
Y3550881D02*
Y3574591D01*
Y3550881D02*
X3936609Y3430923D01*
X4267266D01*
X4390000Y3308189D01*
D19*
X1335883Y2700141D02*
X1625945Y2410079D01*
X659117Y2700141D02*
X1335883D01*
X369055Y2410079D02*
X659117Y2700141D01*
X250945Y2410079D02*
X369055D01*
X-363268Y3615276D02*
Y3715276D01*
Y4265276D02*
Y4365276D01*
Y4265276D02*
X-57668Y3959676D01*
Y2718692D02*
Y3959676D01*
Y2718692D02*
X250945Y2410079D01*
X-389202Y2857346D02*
X-363268Y2883280D01*
X-389202Y2406565D02*
Y2857346D01*
X-363268Y2883280D02*
Y3615276D01*
X2831597Y2331997D02*
X3603218D01*
X2593594Y2570000D02*
X2831597Y2331997D01*
X2405000Y2570000D02*
X2593594D01*
X3603218Y2331997D02*
X3681299Y2410079D01*
X3750896Y2340482D02*
X4049104D01*
X3681299Y2410079D02*
X3750896Y2340482D01*
X4049104D02*
X4118701Y2410079D01*
X4301811Y3159016D02*
X4387966Y3245171D01*
Y3306155D01*
X4390000Y3308189D01*
X4118701Y2410079D02*
X4380547D01*
X4505000Y2534532D01*
Y2601496D01*
X4419921Y2686575D02*
X4505000Y2601496D01*
D20*
X-520068Y2461486D02*
X-519990Y2461407D01*
X120079Y2465000D02*
X120157Y2464921D01*
X787968Y2464161D02*
X788046Y2464082D01*
X2861024Y2465000D02*
X2861102Y2464921D01*
X3432323Y2465000D02*
X3432401Y2464921D01*
X3869724Y2465000D02*
X3869803Y2464921D01*
X1495079Y2465000D02*
X1495157Y2464921D01*
D21*
X4047312Y2849453D02*
Y2882116D01*
X4040394Y2842534D02*
X4047312Y2849453D01*
Y2882116D02*
X4048268Y2883071D01*
X863134Y3748459D02*
X975879Y3635714D01*
X1068305D01*
Y3801796D01*
X1155409Y3888900D01*
X568403Y3748459D02*
X863134D01*
X1744055Y2410079D02*
Y3356479D01*
X1657963Y2507335D02*
Y3768060D01*
X1890385Y4000482D01*
X899170Y3874121D02*
Y4112740D01*
Y3874121D02*
X988353Y3784939D01*
X1235756Y3048374D02*
X1237724D01*
X885227Y3398903D02*
Y3518559D01*
X1528187Y3051435D02*
Y3311577D01*
X1525126Y3048374D02*
X1528187Y3051435D01*
X885227Y3398903D02*
X1235756Y3048374D01*
X3308097Y3250181D02*
X3342764Y3215514D01*
X3306544Y3250181D02*
X3308097D01*
X3491603Y2969580D02*
Y3066674D01*
X3342764Y3215514D02*
X3491603Y3066674D01*
X3397953Y3208587D02*
Y3249294D01*
Y3208587D02*
X3519685Y3086854D01*
X3275465Y3634796D02*
X3366503D01*
X3810000Y3191299D01*
X3282562Y3593890D02*
X3357409D01*
X3760000Y3191299D01*
Y3159016D02*
Y3191299D01*
X3210354Y3699907D02*
X3275465Y3634796D01*
X3029644Y3957360D02*
X3414897D01*
X3740816Y3631441D01*
Y3592575D02*
Y3631441D01*
Y3592575D02*
X4010934Y3322458D01*
Y3095562D02*
Y3322458D01*
X3205910Y3080920D02*
X3258457Y3028373D01*
Y2888511D02*
Y3028373D01*
X2824938Y3667207D02*
X2997126Y3839395D01*
Y3924843D01*
X2708624Y3667207D02*
X2824938D01*
X3224021Y2540238D02*
Y2656149D01*
X3109619Y2770551D02*
X3224021Y2656149D01*
X3062126Y2770551D02*
X3109619D01*
X3172840Y2540238D02*
Y2610428D01*
X3112716Y2670551D02*
X3172840Y2610428D01*
X3062126Y2670551D02*
X3112716D01*
X2991890Y2410079D02*
Y2760800D01*
X3001640Y2770551D01*
X3062126D01*
X3110000Y2410079D02*
Y2508324D01*
X3062126Y2556198D02*
X3110000Y2508324D01*
X3062126Y2556198D02*
Y2670551D01*
X3309278Y2770551D02*
X3397953D01*
X3299528Y2760800D02*
X3309278Y2770551D01*
X3251202Y2711369D02*
X3306544D01*
X3247163Y2707330D02*
X3251202Y2711369D01*
X3306544D02*
X3347362Y2670551D01*
X3397953D01*
X3371174Y3080920D02*
Y3083475D01*
X3324739Y3129910D02*
X3371174Y3083475D01*
X3170776Y3129910D02*
X3324739D01*
X3123148Y3082282D02*
X3170776Y3129910D01*
X3338898Y3532126D02*
X3346205Y3524819D01*
X3376480D01*
X3710000Y3191299D01*
X3781722Y3609519D02*
X3781723D01*
X3910000Y3159016D02*
Y3354890D01*
Y3138965D02*
Y3159016D01*
X3397954Y3866936D02*
X3910000Y3354890D01*
X3397954Y3866936D02*
Y3916455D01*
X3710000Y3159016D02*
Y3191299D01*
X3810000Y3159016D02*
Y3191299D01*
X4010934Y3095562D02*
X4301811Y2804685D01*
X3344995Y3753420D02*
X3439845D01*
X3279843Y3688268D02*
X3344995Y3753420D01*
X2997126Y3924843D02*
X3029644Y3957360D01*
X3210354Y3699907D02*
Y3707499D01*
X3439845Y3753420D02*
X3598563Y3594702D01*
Y3508331D02*
Y3594702D01*
Y3508331D02*
X3860000Y3246894D01*
Y3159016D02*
Y3246894D01*
X3519685Y2981212D02*
Y3086854D01*
X3491603Y2969580D02*
X3563189Y2897994D01*
X3519685Y2981212D02*
X3591271Y2909626D01*
Y2826198D02*
Y2909626D01*
X3563189Y2727156D02*
Y2897994D01*
Y2727156D02*
X3642274Y2648071D01*
X3591271Y2826198D02*
X3619399Y2798071D01*
X3723110D01*
X3642274Y2648071D02*
X3723110D01*
Y2698071D02*
X3773406D01*
X3786704Y2711369D01*
Y2844123D01*
X3758543Y2872283D02*
X3786704Y2844123D01*
X3723110Y2872283D02*
X3758543D01*
X3723110D02*
Y2922795D01*
X3710000Y2935905D02*
X3723110Y2922795D01*
X3710000Y2935905D02*
Y3005472D01*
Y3065619D02*
X3723110Y3078729D01*
X3710000Y3005472D02*
Y3065619D01*
X3723110Y3078729D02*
X3978454D01*
X3707244Y3008228D02*
X3710000Y3005472D01*
X3632126Y3008228D02*
X3707244D01*
X3631145Y3009209D02*
X3632126Y3008228D01*
X3631145Y3009209D02*
Y3079410D01*
Y3161936D02*
X3638064Y3168855D01*
X3700945D01*
X3710000Y3159800D01*
X3631145Y3130591D02*
Y3161936D01*
X3919055Y3129910D02*
X3978454D01*
X3910000Y3138965D02*
X3919055Y3129910D01*
X3937677Y2798071D02*
Y2873063D01*
X3927669Y2883071D02*
X3937677Y2873063D01*
X3901260Y2883071D02*
X3927669D01*
X4040394Y2814252D02*
Y2842534D01*
X4328974Y2514902D02*
X4357374Y2543302D01*
X4200608Y2514902D02*
X4328974D01*
X4082439Y2633071D02*
X4200608Y2514902D01*
X3977164Y2648071D02*
X3992164Y2633071D01*
X3937677Y2648071D02*
X3977164D01*
X3992164Y2633071D02*
X4040394D01*
X4082439D01*
X4357374Y2543302D02*
Y2713276D01*
X4331878Y2738772D02*
X4357374Y2713276D01*
X4224797Y2738772D02*
X4331878D01*
X4149317Y2814252D02*
X4224797Y2738772D01*
X4040394Y2814252D02*
X4149317D01*
D22*
X4143034Y2755591D02*
X4212050Y2686575D01*
X4047874Y2755591D02*
X4143034D01*
X4040394Y2763071D02*
X4047874Y2755591D01*
X4212050Y2686575D02*
X4301811D01*
X3988720Y2748071D02*
X3999193Y2758543D01*
X4035866D01*
X4040394Y2763071D01*
X3937677Y2748071D02*
X3988720D01*
X4210786Y2568465D02*
X4301811D01*
X4094998Y2684252D02*
X4210786Y2568465D01*
X4040394Y2684252D02*
X4094998D01*
X3988720Y2698071D02*
X3999193Y2687598D01*
X4037047D01*
X4040394Y2684252D01*
X3937677Y2698071D02*
X3988720D01*
D23*
X-330147Y2236486D02*
D03*
X310000Y2240000D02*
D03*
X977889Y2239161D02*
D03*
X266364Y3082771D02*
D03*
X660065D02*
D03*
X3050945Y2240000D02*
D03*
X3622244D02*
D03*
X4059646D02*
D03*
X1685000D02*
D03*
D24*
X-389202Y2406565D02*
D03*
X-271092D02*
D03*
X250945Y2410079D02*
D03*
X369055D02*
D03*
X918834Y2409240D02*
D03*
X1036944D02*
D03*
X2991890Y2410079D02*
D03*
X3110000D02*
D03*
X3563189D02*
D03*
X3681299D02*
D03*
X4000591D02*
D03*
X4118701D02*
D03*
X1625945D02*
D03*
X1744055D02*
D03*
D25*
X3961732Y3530276D02*
D03*
Y3630276D02*
D03*
Y3730276D02*
D03*
Y3830276D02*
D03*
X-363268Y3715276D02*
D03*
Y3615276D02*
D03*
Y4365276D02*
D03*
Y4265276D02*
D03*
D26*
X4301811Y3159016D02*
D03*
Y3040905D02*
D03*
Y2922795D02*
D03*
Y2804685D02*
D03*
Y2686575D02*
D03*
Y2568465D02*
D03*
X4419921Y3159016D02*
D03*
Y3040905D02*
D03*
Y2922795D02*
D03*
Y2804685D02*
D03*
Y2686575D02*
D03*
Y2568465D02*
D03*
D27*
X2208150Y2176299D02*
D03*
X2405000Y2570000D02*
D03*
X2208150Y3160551D02*
D03*
X2405000Y2766850D02*
D03*
D28*
X3661417Y2696850D02*
D03*
X2933071Y3838583D02*
D03*
X2880472Y2908869D02*
D03*
X3121338Y3511102D02*
D03*
X2817084Y3452047D02*
D03*
D29*
X2997126Y3924843D02*
D03*
X1068305Y3635714D02*
D03*
X1155409Y3888900D02*
D03*
X1744055Y3356479D02*
D03*
X899170Y4112740D02*
D03*
X988353Y3784939D02*
D03*
X568403Y3748459D02*
D03*
X885227Y3518559D02*
D03*
X1890385Y4000482D02*
D03*
X1657963Y2507335D02*
D03*
X1528187Y3311577D02*
D03*
X3306544Y3250181D02*
D03*
X3397953Y3249294D02*
D03*
X3844449Y4310669D02*
D03*
X2841299Y3741417D02*
D03*
X3258457Y2888511D02*
D03*
X2708624Y3667207D02*
D03*
X3220787Y4058701D02*
D03*
X3248597Y4271074D02*
D03*
X3299528Y2760800D02*
D03*
X3247163Y2707330D02*
D03*
X3569331Y3086854D02*
D03*
X3371174Y3080920D02*
D03*
X3123148Y3082282D02*
D03*
X3205910Y3080920D02*
D03*
X3781722Y3609519D02*
D03*
X3338898Y3532126D02*
D03*
X3282562Y3593890D02*
D03*
X3397954Y3916455D02*
D03*
X3279843Y3688268D02*
D03*
X3210354Y3707499D02*
D03*
X4390000Y3308189D02*
D03*
%TF.MD5,ca69394386b35882f6e5eb22fd67f007*%
M02*
