%TF.GenerationSoftware,Altium Limited,Altium Designer,19.1.8 (144)*%
G04 Layer_Physical_Order=2*
G04 Layer_Color=16711680*
%FSLAX26Y26*%
%MOIN*%
%TF.FileFunction,Copper,L2,Bot,Signal*%
%TF.Part,Single*%
G01*
G75*
%TA.AperFunction,SMDPad,CuDef*%
%ADD11R,0.037402X0.033465*%
%ADD12R,0.033465X0.037402*%
%ADD15R,0.035433X0.039370*%
%TA.AperFunction,Conductor*%
%ADD18C,0.019685*%
%ADD19C,0.039370*%
%ADD21C,0.011811*%
%TA.AperFunction,ComponentPad*%
%ADD23C,0.118110*%
%ADD24C,0.078740*%
%ADD25C,0.062992*%
%ADD26C,0.059055*%
%ADD27C,0.047244*%
%TA.AperFunction,ViaPad*%
%ADD28C,0.027559*%
%ADD29C,0.050000*%
%TA.AperFunction,SMDPad,CuDef*%
%ADD30R,0.070079X0.223622*%
%ADD31R,0.031496X0.017716*%
%ADD32R,0.039370X0.035433*%
%ADD33R,0.047244X0.043307*%
%ADD34R,0.185039X0.181102*%
%ADD35R,0.027559X0.045276*%
%ADD36R,0.029528X0.019685*%
%ADD37R,0.057087X0.053150*%
%ADD38R,0.007874X0.007874*%
%ADD39R,0.055118X0.051181*%
%ADD40R,0.059055X0.047244*%
%ADD41R,0.059055X0.129921*%
%ADD42O,0.059055X0.047244*%
%ADD43O,0.023622X0.057087*%
%ADD44R,0.035433X0.031496*%
%ADD45R,0.031496X0.035433*%
%ADD46R,0.059055X0.078740*%
%ADD47R,0.149606X0.078740*%
%ADD48R,0.053150X0.011811*%
%ADD49R,0.011811X0.053150*%
%TA.AperFunction,Conductor*%
%ADD50C,0.015748*%
%ADD51C,0.027559*%
%TA.AperFunction,NonConductor*%
%ADD52C,0.011811*%
%TA.AperFunction,Conductor*%
%ADD53C,0.059055*%
G36*
X1422254Y4323108D02*
X1353751D01*
Y4354604D01*
X1371073D01*
Y4342793D01*
X1379341D01*
Y4354604D01*
X1396664D01*
Y4342793D01*
X1404932D01*
Y4354604D01*
X1422254D01*
Y4323108D01*
D02*
G37*
G36*
X1447845D02*
X1430522D01*
Y4354604D01*
X1447845D01*
Y4323108D01*
D02*
G37*
G36*
Y4288069D02*
X1471664D01*
Y4248305D01*
X1447845D01*
Y4212872D01*
X1430522D01*
Y4232557D01*
X1422254D01*
Y4212872D01*
X1404932D01*
Y4232557D01*
X1396664D01*
Y4212872D01*
X1379341D01*
Y4232557D01*
X1371073D01*
Y4212872D01*
X1353751D01*
Y4248305D01*
X1329932D01*
Y4288069D01*
X1353751D01*
Y4303817D01*
X1447845D01*
Y4288069D01*
D02*
G37*
G36*
X4676088Y2118912D02*
X2322571D01*
X2279167Y4510470D01*
X2284684Y4516088D01*
X4676088D01*
Y2118912D01*
D02*
G37*
%LPC*%
G36*
X3964685Y4441457D02*
X3940000D01*
Y4418740D01*
X3964685D01*
Y4441457D01*
D02*
G37*
G36*
X4054095D02*
X4029410D01*
Y4418740D01*
X4054095D01*
Y4441457D01*
D02*
G37*
G36*
X3930000D02*
X3905315D01*
Y4418740D01*
X3930000D01*
Y4441457D01*
D02*
G37*
G36*
X4019410D02*
X3994725D01*
Y4418740D01*
X4019410D01*
Y4441457D01*
D02*
G37*
G36*
X3964685Y4408740D02*
X3935000D01*
X3905315D01*
Y4386024D01*
Y4362537D01*
X3905059Y4360591D01*
Y4326886D01*
X3875615D01*
X3875021Y4328320D01*
X3869411Y4335632D01*
X3862100Y4341242D01*
X3853586Y4344768D01*
X3844449Y4345971D01*
X3835312Y4344768D01*
X3826798Y4341242D01*
X3819486Y4335632D01*
X3813876Y4328320D01*
X3810350Y4319806D01*
X3809147Y4310669D01*
X3810350Y4301533D01*
X3813876Y4293018D01*
X3819486Y4285707D01*
X3826798Y4280097D01*
X3835312Y4276570D01*
X3844449Y4275367D01*
X3853586Y4276570D01*
X3862100Y4280097D01*
X3869411Y4285707D01*
X3875021Y4293018D01*
X3875615Y4294452D01*
X3905059D01*
Y4265551D01*
X3895472D01*
Y4166811D01*
X3974528D01*
Y4265551D01*
X3964941D01*
Y4310669D01*
Y4360591D01*
X3964685Y4362537D01*
Y4386024D01*
Y4408740D01*
D02*
G37*
G36*
X4374803Y4398937D02*
X4205197D01*
Y4300197D01*
X4374803D01*
Y4398937D01*
D02*
G37*
G36*
X3010000Y4311254D02*
X3001490Y4309561D01*
X2994275Y4304741D01*
X2989454Y4297526D01*
X2989014Y4295312D01*
X2980986D01*
X2980546Y4297526D01*
X2975725Y4304741D01*
X2968510Y4309561D01*
X2960000Y4311254D01*
X2951490Y4309561D01*
X2944275Y4304741D01*
X2939454Y4297526D01*
X2939014Y4295312D01*
X2930986D01*
X2930546Y4297526D01*
X2925725Y4304741D01*
X2918510Y4309561D01*
X2910000Y4311254D01*
X2901490Y4309561D01*
X2894275Y4304741D01*
X2889454Y4297526D01*
X2889014Y4295312D01*
X2880986D01*
X2880546Y4297526D01*
X2875725Y4304741D01*
X2868510Y4309561D01*
X2865000Y4310259D01*
Y4272283D01*
Y4234307D01*
X2868510Y4235006D01*
X2875725Y4239826D01*
X2880546Y4247041D01*
X2880986Y4249255D01*
X2889014D01*
X2889454Y4247041D01*
X2894275Y4239826D01*
X2901490Y4235006D01*
X2910000Y4233313D01*
X2918510Y4235006D01*
X2925725Y4239826D01*
X2930546Y4247041D01*
X2930986Y4249255D01*
X2939014D01*
X2939454Y4247041D01*
X2944275Y4239826D01*
X2951490Y4235006D01*
X2960000Y4233313D01*
X2968510Y4235006D01*
X2975725Y4239826D01*
X2980546Y4247041D01*
X2980986Y4249255D01*
X2989014D01*
X2989454Y4247041D01*
X2994275Y4239826D01*
X3001490Y4235006D01*
X3010000Y4233313D01*
X3018510Y4235006D01*
X3025725Y4239826D01*
X3030546Y4247041D01*
X3031347Y4251068D01*
X3081046D01*
Y4222165D01*
X3140416D01*
Y4250843D01*
X3220004D01*
X3223635Y4246112D01*
X3230946Y4240502D01*
X3239460Y4236975D01*
X3248597Y4235772D01*
X3257734Y4236975D01*
X3266248Y4240502D01*
X3273559Y4246112D01*
X3279169Y4253423D01*
X3282696Y4261937D01*
X3283899Y4271074D01*
X3282696Y4280211D01*
X3279169Y4288725D01*
X3273559Y4296036D01*
X3266248Y4301646D01*
X3257734Y4305173D01*
X3248597Y4306376D01*
X3239460Y4305173D01*
X3230946Y4301646D01*
X3223635Y4296036D01*
X3220004Y4291305D01*
X3140416D01*
Y4298031D01*
X3081046D01*
Y4291530D01*
X3031738D01*
X3030546Y4297526D01*
X3025725Y4304741D01*
X3018510Y4309561D01*
X3010000Y4311254D01*
D02*
G37*
G36*
X2810000D02*
X2801490Y4309561D01*
X2794275Y4304741D01*
X2789454Y4297526D01*
X2789014Y4295312D01*
X2780986D01*
X2780546Y4297526D01*
X2775725Y4304741D01*
X2768510Y4309561D01*
X2760000Y4311254D01*
X2751490Y4309561D01*
X2744275Y4304741D01*
X2739454Y4297526D01*
X2739014Y4295312D01*
X2730986D01*
X2730546Y4297526D01*
X2725725Y4304741D01*
X2718510Y4309561D01*
X2710000Y4311254D01*
X2701490Y4309561D01*
X2694275Y4304741D01*
X2689454Y4297526D01*
X2689014Y4295312D01*
X2680986D01*
X2680546Y4297526D01*
X2675725Y4304741D01*
X2668510Y4309561D01*
X2660000Y4311254D01*
X2651490Y4309561D01*
X2644275Y4304741D01*
X2639454Y4297526D01*
X2637762Y4289016D01*
Y4255551D01*
X2639454Y4247041D01*
X2644275Y4239826D01*
X2651490Y4235006D01*
X2660000Y4233313D01*
X2668510Y4235006D01*
X2675725Y4239826D01*
X2680546Y4247041D01*
X2680986Y4249255D01*
X2689014D01*
X2689454Y4247041D01*
X2694275Y4239826D01*
X2701490Y4235006D01*
X2710000Y4233313D01*
X2718510Y4235006D01*
X2725725Y4239826D01*
X2730546Y4247041D01*
X2730986Y4249255D01*
X2739014D01*
X2739454Y4247041D01*
X2744275Y4239826D01*
X2751490Y4235006D01*
X2760000Y4233313D01*
X2768510Y4235006D01*
X2775725Y4239826D01*
X2780546Y4247041D01*
X2780986Y4249255D01*
X2789014D01*
X2789454Y4247041D01*
X2794275Y4239826D01*
X2801490Y4235006D01*
X2810000Y4233313D01*
X2818510Y4235006D01*
X2825725Y4239826D01*
X2830546Y4247041D01*
X2830986Y4249255D01*
X2839014D01*
X2839454Y4247041D01*
X2844275Y4239826D01*
X2851490Y4235006D01*
X2855000Y4234307D01*
Y4272283D01*
Y4310259D01*
X2851490Y4309561D01*
X2844275Y4304741D01*
X2839454Y4297526D01*
X2839014Y4295312D01*
X2830986D01*
X2830546Y4297526D01*
X2825725Y4304741D01*
X2818510Y4309561D01*
X2810000Y4311254D01*
D02*
G37*
G36*
X3883976Y4265551D02*
X3849449D01*
Y4221181D01*
X3883976D01*
Y4265551D01*
D02*
G37*
G36*
X3839449D02*
X3804921D01*
Y4221181D01*
X3839449D01*
Y4265551D01*
D02*
G37*
G36*
X3140416Y4212165D02*
X3115731D01*
Y4189449D01*
X3140416D01*
Y4212165D01*
D02*
G37*
G36*
X3105731D02*
X3081046D01*
Y4189449D01*
X3105731D01*
Y4212165D01*
D02*
G37*
G36*
X3883976Y4211181D02*
X3849449D01*
Y4166811D01*
X3883976D01*
Y4211181D01*
D02*
G37*
G36*
X3839449D02*
X3804921D01*
Y4166811D01*
X3839449D01*
Y4211181D01*
D02*
G37*
G36*
X3121715Y4146457D02*
X3097030D01*
Y4123740D01*
X3121715D01*
Y4146457D01*
D02*
G37*
G36*
X3087030D02*
X3062345D01*
Y4123740D01*
X3087030D01*
Y4146457D01*
D02*
G37*
G36*
X4420079Y4150906D02*
X4385551D01*
Y4106535D01*
X4420079D01*
Y4150906D01*
D02*
G37*
G36*
X4375551D02*
X4341024D01*
Y4106535D01*
X4375551D01*
Y4150906D01*
D02*
G37*
G36*
X4054095Y4408740D02*
X4024410D01*
X3994725D01*
Y4386024D01*
Y4362537D01*
X3994468Y4360591D01*
Y4265551D01*
X3986024D01*
Y4166811D01*
X3995490D01*
Y4152206D01*
X3991014Y4147102D01*
X3816646D01*
X3808904Y4145562D01*
X3802340Y4141176D01*
X3740096Y4078932D01*
X3249380D01*
X3245750Y4083663D01*
X3238438Y4089273D01*
X3229924Y4092800D01*
X3220787Y4094003D01*
X3211651Y4092800D01*
X3203136Y4089273D01*
X3195825Y4083663D01*
X3192195Y4078932D01*
X3121715D01*
Y4091024D01*
Y4113740D01*
X3092030D01*
X3062345D01*
Y4091024D01*
Y4078440D01*
X3031444D01*
X3030546Y4082959D01*
X3025725Y4090174D01*
X3018510Y4094994D01*
X3010000Y4096687D01*
X3001490Y4094994D01*
X2994275Y4090174D01*
X2989454Y4082959D01*
X2989014Y4080745D01*
X2980986D01*
X2980546Y4082959D01*
X2975725Y4090174D01*
X2968510Y4094994D01*
X2960000Y4096687D01*
X2951490Y4094994D01*
X2944275Y4090174D01*
X2939454Y4082959D01*
X2939014Y4080745D01*
X2930986D01*
X2930546Y4082959D01*
X2925725Y4090174D01*
X2918510Y4094994D01*
X2910000Y4096687D01*
X2901490Y4094994D01*
X2894275Y4090174D01*
X2889454Y4082959D01*
X2889014Y4080745D01*
X2880986D01*
X2880546Y4082959D01*
X2875725Y4090174D01*
X2868510Y4094994D01*
X2860000Y4096687D01*
X2851490Y4094994D01*
X2844275Y4090174D01*
X2839454Y4082959D01*
X2839014Y4080745D01*
X2830986D01*
X2830546Y4082959D01*
X2825725Y4090174D01*
X2818510Y4094994D01*
X2810000Y4096687D01*
X2801490Y4094994D01*
X2794275Y4090174D01*
X2789454Y4082959D01*
X2789014Y4080745D01*
X2780986D01*
X2780546Y4082959D01*
X2775725Y4090174D01*
X2768510Y4094994D01*
X2760000Y4096687D01*
X2751490Y4094994D01*
X2744275Y4090174D01*
X2739454Y4082959D01*
X2739014Y4080745D01*
X2730986D01*
X2730546Y4082959D01*
X2725725Y4090174D01*
X2718510Y4094994D01*
X2710000Y4096687D01*
X2701490Y4094994D01*
X2694275Y4090174D01*
X2689454Y4082959D01*
X2689014Y4080745D01*
X2680986D01*
X2680546Y4082959D01*
X2675725Y4090174D01*
X2668510Y4094994D01*
X2665000Y4095693D01*
Y4057716D01*
Y4019740D01*
X2668510Y4020439D01*
X2675725Y4025259D01*
X2680546Y4032474D01*
X2680986Y4034688D01*
X2689014D01*
X2689454Y4032474D01*
X2694275Y4025259D01*
X2701490Y4020439D01*
X2710000Y4018746D01*
X2718510Y4020439D01*
X2725725Y4025259D01*
X2730546Y4032474D01*
X2730986Y4034688D01*
X2739014D01*
X2739454Y4032474D01*
X2744275Y4025259D01*
X2751490Y4020439D01*
X2760000Y4018746D01*
X2768510Y4020439D01*
X2775725Y4025259D01*
X2780546Y4032474D01*
X2780986Y4034688D01*
X2789014D01*
X2789454Y4032474D01*
X2794275Y4025259D01*
X2794373Y4025194D01*
Y3953543D01*
X2765000D01*
Y3924842D01*
X2760000D01*
D01*
X2765000D01*
Y3896142D01*
X2794964D01*
Y3829385D01*
X2796198Y3823179D01*
X2799714Y3817917D01*
X2834685Y3782947D01*
X2834050Y3781079D01*
X2831326Y3775170D01*
X2823648Y3771990D01*
X2816337Y3766380D01*
X2810727Y3759068D01*
X2807200Y3750554D01*
X2805997Y3741417D01*
X2807200Y3732281D01*
X2807582Y3731359D01*
X2750072Y3673849D01*
X2749139Y3674166D01*
X2742345Y3677258D01*
X2739197Y3684858D01*
X2733587Y3692169D01*
X2726275Y3697779D01*
X2717761Y3701306D01*
X2708624Y3702509D01*
X2699488Y3701306D01*
X2690973Y3697779D01*
X2683662Y3692169D01*
X2678052Y3684858D01*
X2677458Y3683424D01*
X2548619D01*
X2548313Y3684163D01*
X2542924Y3691186D01*
X2535900Y3696576D01*
X2527721Y3699964D01*
X2518944Y3701119D01*
X2507133D01*
X2498356Y3699964D01*
X2490177Y3696576D01*
X2483154Y3691186D01*
X2477765Y3684163D01*
X2474377Y3675984D01*
X2473221Y3667207D01*
X2474377Y3658430D01*
X2477765Y3650251D01*
X2483154Y3643227D01*
X2490177Y3637838D01*
X2498356Y3634450D01*
X2507133Y3633295D01*
X2518944D01*
X2527721Y3634450D01*
X2535900Y3637838D01*
X2542924Y3643227D01*
X2548313Y3650251D01*
X2548619Y3650990D01*
X2677458D01*
X2678052Y3649556D01*
X2683662Y3642245D01*
X2690973Y3636635D01*
X2698574Y3633486D01*
X2701665Y3626692D01*
X2701982Y3625759D01*
X2663661Y3587438D01*
X2545800D01*
X2542924Y3591186D01*
X2535900Y3596576D01*
X2527721Y3599964D01*
X2518944Y3601119D01*
X2507133D01*
X2498356Y3599964D01*
X2490177Y3596576D01*
X2483154Y3591186D01*
X2477765Y3584163D01*
X2474377Y3575984D01*
X2473221Y3567207D01*
X2474377Y3558430D01*
X2477765Y3550251D01*
X2483154Y3543227D01*
X2490177Y3537838D01*
X2498356Y3534450D01*
X2507133Y3533295D01*
X2518944D01*
X2527721Y3534450D01*
X2535900Y3537838D01*
X2542924Y3543227D01*
X2545800Y3546976D01*
X2672041D01*
X2679783Y3548516D01*
X2686347Y3552901D01*
X2839763Y3706318D01*
X2841299Y3706115D01*
X2850436Y3707318D01*
X2858114Y3710498D01*
X2864218Y3708247D01*
X2865988Y3707374D01*
Y3629719D01*
X2738927Y3502658D01*
X2735411Y3497397D01*
X2734177Y3491191D01*
Y2675190D01*
X2732401Y2673992D01*
X2724528Y2678178D01*
Y2704173D01*
X2645472D01*
Y2700492D01*
X2613826D01*
X2526296Y2788022D01*
X2520095Y2792780D01*
X2512874Y2795771D01*
X2505125Y2796792D01*
X2420574D01*
X2413777Y2799607D01*
X2405000Y2800762D01*
X2396223Y2799607D01*
X2388044Y2796219D01*
X2381021Y2790830D01*
X2375631Y2783806D01*
X2372243Y2775628D01*
X2371088Y2766850D01*
X2372243Y2758073D01*
X2375631Y2749894D01*
X2381021Y2742871D01*
X2388044Y2737482D01*
X2396223Y2734094D01*
X2405000Y2732938D01*
X2413777Y2734094D01*
X2420574Y2736909D01*
X2492723D01*
X2580252Y2649380D01*
X2586454Y2644621D01*
X2587627Y2644135D01*
X2586061Y2636261D01*
X2455044D01*
X2448838Y2635027D01*
X2443577Y2631511D01*
X2414516Y2602450D01*
X2413777Y2602757D01*
X2405000Y2603912D01*
X2396223Y2602757D01*
X2388044Y2599369D01*
X2381021Y2593979D01*
X2375631Y2586956D01*
X2372243Y2578777D01*
X2371088Y2570000D01*
X2372243Y2561223D01*
X2375631Y2553044D01*
X2381021Y2546021D01*
X2388044Y2540631D01*
X2396223Y2537243D01*
X2405000Y2536088D01*
X2413777Y2537243D01*
X2421956Y2540631D01*
X2428979Y2546021D01*
X2434369Y2553044D01*
X2437757Y2561223D01*
X2438912Y2570000D01*
X2437757Y2578777D01*
X2437450Y2579516D01*
X2461761Y2603827D01*
X2645472D01*
Y2546378D01*
X2724528D01*
Y2563783D01*
X2789764D01*
X2795970Y2565017D01*
X2801231Y2568533D01*
X2843064Y2610366D01*
X2846580Y2615627D01*
X2847814Y2621833D01*
Y2847351D01*
X2847647Y2848192D01*
X2853652Y2856066D01*
X2988464D01*
X2990031Y2856378D01*
X3025039D01*
Y2864967D01*
X3032314Y2867980D01*
X3080555Y2819739D01*
Y2789803D01*
X3070039D01*
Y2732402D01*
X3080555D01*
Y2724685D01*
X3081789Y2718479D01*
X3085305Y2713218D01*
X3154808Y2643715D01*
X3160069Y2640199D01*
X3166275Y2638965D01*
X3270990D01*
X3277196Y2640199D01*
X3282457Y2643715D01*
X3310995Y2672253D01*
X3314510Y2677514D01*
X3315745Y2683720D01*
Y2729634D01*
X3317179Y2730228D01*
X3324490Y2735838D01*
X3330100Y2743149D01*
X3333627Y2751664D01*
X3334830Y2760800D01*
X3333627Y2769937D01*
X3330100Y2778451D01*
X3324490Y2785763D01*
X3317179Y2791373D01*
X3308664Y2794899D01*
X3299528Y2796102D01*
X3290391Y2794899D01*
X3281877Y2791373D01*
X3274565Y2785763D01*
X3268955Y2778451D01*
X3265428Y2769937D01*
X3264226Y2760800D01*
X3265428Y2751664D01*
X3268319Y2744685D01*
X3264683Y2740252D01*
X3262582Y2738827D01*
X3256300Y2741429D01*
X3247163Y2742632D01*
X3238026Y2741429D01*
X3236592Y2740835D01*
X3205768Y2771660D01*
X3205160Y2772570D01*
X3199899Y2776085D01*
X3193693Y2777320D01*
X3174685D01*
Y2789803D01*
X3164170D01*
Y2819326D01*
X3162935Y2825532D01*
X3159420Y2830793D01*
X3141110Y2849103D01*
X3144123Y2856378D01*
X3158661D01*
Y2872283D01*
X3168661D01*
Y2856378D01*
X3194146D01*
X3195372Y2850215D01*
X3198887Y2844954D01*
X3215741Y2828100D01*
X3221003Y2824584D01*
X3227209Y2823350D01*
X3307064D01*
X3313270Y2824584D01*
X3318531Y2828100D01*
X3365031Y2874599D01*
X3368546Y2879861D01*
X3369781Y2886067D01*
Y2906117D01*
X3380296D01*
Y2963519D01*
X3275650D01*
Y2963519D01*
X3267776Y2960631D01*
X3246231Y2982176D01*
X3245934Y2985195D01*
X3261793Y3001055D01*
X3265309Y3006316D01*
X3266543Y3012522D01*
Y3060470D01*
X3274417Y3063732D01*
X3334892Y3003257D01*
X3340153Y2999742D01*
X3346359Y2998507D01*
X3422023D01*
X3558783Y2861747D01*
Y2835686D01*
X3553215Y2830118D01*
X3543346Y2830118D01*
X3530000D01*
Y2797480D01*
Y2764843D01*
X3543346D01*
X3548780Y2764843D01*
X3556654Y2764843D01*
X3598780D01*
Y2777249D01*
X3631299D01*
Y2751299D01*
X3688701D01*
Y2770748D01*
Y2824213D01*
X3631299D01*
Y2817712D01*
X3598780D01*
Y2830118D01*
X3591217D01*
Y2868465D01*
X3589983Y2874671D01*
X3586467Y2879932D01*
X3440207Y3026191D01*
X3434946Y3029707D01*
X3428740Y3030941D01*
X3353076D01*
X3296060Y3087958D01*
Y3099286D01*
X3294825Y3105492D01*
X3291310Y3110753D01*
X3283817Y3118246D01*
X3286830Y3125521D01*
X3550644D01*
X3552211Y3117647D01*
X3551680Y3117427D01*
X3544368Y3111817D01*
X3538758Y3104506D01*
X3538598Y3104118D01*
X3397490D01*
X3396137Y3105882D01*
X3388825Y3111492D01*
X3380311Y3115019D01*
X3371174Y3116222D01*
X3362038Y3115019D01*
X3353523Y3111492D01*
X3346212Y3105882D01*
X3340602Y3098571D01*
X3337075Y3090056D01*
X3335872Y3080920D01*
X3337075Y3071783D01*
X3340602Y3063269D01*
X3346212Y3055957D01*
X3353523Y3050347D01*
X3362038Y3046820D01*
X3371174Y3045618D01*
X3380311Y3046820D01*
X3388825Y3050347D01*
X3396137Y3055957D01*
X3401747Y3063269D01*
X3401907Y3063656D01*
X3543015D01*
X3544368Y3061892D01*
X3551680Y3056282D01*
X3560194Y3052755D01*
X3569331Y3051552D01*
X3578467Y3052755D01*
X3586981Y3056282D01*
X3594293Y3061892D01*
X3599903Y3069204D01*
X3603430Y3077718D01*
X3604633Y3086854D01*
X3603430Y3095991D01*
X3599903Y3104506D01*
X3594293Y3111817D01*
X3586981Y3117427D01*
X3586450Y3117647D01*
X3588017Y3125521D01*
X3704379D01*
X4006908Y2822992D01*
X4006476Y2818045D01*
X4003647Y2815118D01*
X3998346Y2815118D01*
X3985000D01*
Y2782480D01*
Y2749843D01*
X3998346D01*
X4003780Y2749843D01*
X4011654Y2749843D01*
X4053780D01*
Y2766263D01*
X4081299D01*
Y2735000D01*
X4138701D01*
Y2754449D01*
Y2807913D01*
X4081299D01*
Y2798698D01*
X4053780D01*
Y2815118D01*
X4046217D01*
Y2822835D01*
X4044983Y2829041D01*
X4041946Y2833586D01*
X4043031Y2838077D01*
X4044432Y2841460D01*
X4271872D01*
X4274544Y2833586D01*
X4273620Y2832876D01*
X4267284Y2824619D01*
X4263301Y2815004D01*
X4261943Y2804685D01*
X4263301Y2794366D01*
X4267284Y2784751D01*
X4273620Y2776494D01*
X4281877Y2770158D01*
X4291492Y2766175D01*
X4301811Y2764816D01*
X4312130Y2766175D01*
X4321745Y2770158D01*
X4330002Y2776494D01*
X4336338Y2784751D01*
X4340321Y2794366D01*
X4341680Y2804685D01*
X4340321Y2815004D01*
X4336338Y2824619D01*
X4330002Y2832876D01*
X4329078Y2833586D01*
X4331751Y2841460D01*
X4360212D01*
X4382951Y2818721D01*
X4381411Y2815004D01*
X4380053Y2804685D01*
X4381411Y2794366D01*
X4385394Y2784751D01*
X4391730Y2776494D01*
X4399987Y2770158D01*
X4409602Y2766175D01*
X4419921Y2764816D01*
X4430240Y2766175D01*
X4439856Y2770158D01*
X4448113Y2776494D01*
X4454449Y2784751D01*
X4458431Y2794366D01*
X4459790Y2804685D01*
X4458431Y2815004D01*
X4454449Y2824619D01*
X4448113Y2832876D01*
X4439856Y2839212D01*
X4430240Y2843195D01*
X4419921Y2844554D01*
X4409602Y2843195D01*
X4405885Y2841655D01*
X4388476Y2859065D01*
X4389368Y2869308D01*
X4405885Y2885825D01*
X4409602Y2884285D01*
X4419921Y2882927D01*
X4430240Y2884285D01*
X4439856Y2888268D01*
X4448113Y2894604D01*
X4454449Y2902861D01*
X4458431Y2912476D01*
X4459790Y2922795D01*
X4458431Y2933114D01*
X4454449Y2942729D01*
X4448113Y2950987D01*
X4439856Y2957322D01*
X4430240Y2961305D01*
X4419921Y2962664D01*
X4409602Y2961305D01*
X4399987Y2957322D01*
X4391730Y2950987D01*
X4385394Y2942729D01*
X4381411Y2933114D01*
X4380053Y2922795D01*
X4381411Y2912476D01*
X4382951Y2908759D01*
X4367771Y2893579D01*
X4339141D01*
X4335258Y2901453D01*
X4336338Y2902861D01*
X4340321Y2912476D01*
X4341021Y2917795D01*
X4301811D01*
X4262601D01*
X4263301Y2912476D01*
X4267284Y2902861D01*
X4268364Y2901453D01*
X4264481Y2893579D01*
X4198330D01*
X4029893Y3062017D01*
X4032906Y3069291D01*
X4040118D01*
Y3091023D01*
X4016417D01*
Y3085780D01*
X4009143Y3082767D01*
X3883488Y3208421D01*
X3878227Y3211937D01*
X3872021Y3213171D01*
X3421305D01*
X3418632Y3221045D01*
X3422915Y3224332D01*
X3428525Y3231643D01*
X3432052Y3240157D01*
X3433255Y3249294D01*
X3432052Y3258431D01*
X3428525Y3266945D01*
X3422915Y3274256D01*
X3415604Y3279867D01*
X3407090Y3283393D01*
X3397953Y3284596D01*
X3388816Y3283393D01*
X3387382Y3282799D01*
X3374800Y3295381D01*
Y3317047D01*
X3433543D01*
Y3390197D01*
X3106457D01*
Y3355189D01*
X3106145Y3353622D01*
Y3168756D01*
X3107380Y3162550D01*
X3110895Y3157289D01*
X3173661Y3094523D01*
X3171811Y3090056D01*
X3170608Y3080920D01*
X3171811Y3071783D01*
X3175337Y3063269D01*
X3180947Y3055957D01*
X3188259Y3050347D01*
X3196773Y3046820D01*
X3205910Y3045618D01*
X3215046Y3046820D01*
X3223561Y3050347D01*
X3226235Y3052399D01*
X3234109Y3048516D01*
Y3019239D01*
X3208110Y2993240D01*
X3205715Y2993524D01*
X3200236Y2996502D01*
Y3025984D01*
X3165228D01*
X3163661Y3026296D01*
X3119161D01*
X3104628Y3040828D01*
X3112577Y3048777D01*
X3114011Y3048183D01*
X3123148Y3046980D01*
X3132285Y3048183D01*
X3140799Y3051709D01*
X3148110Y3057320D01*
X3153720Y3064631D01*
X3157247Y3073145D01*
X3158450Y3082282D01*
X3157247Y3091419D01*
X3153720Y3099933D01*
X3148110Y3107244D01*
X3140799Y3112854D01*
X3132285Y3116381D01*
X3123148Y3117584D01*
X3114011Y3116381D01*
X3105497Y3112854D01*
X3098186Y3107244D01*
X3092576Y3099933D01*
X3089049Y3091419D01*
X3087846Y3082282D01*
X3089049Y3073145D01*
X3089643Y3071711D01*
X3081694Y3063762D01*
X3067162Y3078294D01*
Y3111939D01*
X3080630D01*
Y3165088D01*
Y3187805D01*
X3050945D01*
Y3192805D01*
X3045945D01*
Y3220521D01*
X3043530D01*
X3040269Y3228396D01*
X3079007Y3267133D01*
X3082522Y3272394D01*
X3083756Y3278600D01*
Y3385518D01*
X3193124Y3494885D01*
X3200842D01*
X3235462Y3460265D01*
X3240723Y3456750D01*
X3246929Y3455515D01*
X3373249D01*
X3379454Y3456750D01*
X3384716Y3460265D01*
X3413043Y3488592D01*
X3416558Y3493853D01*
X3417793Y3500059D01*
Y3550012D01*
X3452528Y3584748D01*
X3459803Y3581735D01*
Y3554250D01*
X3494812D01*
X3496378Y3553939D01*
Y3546695D01*
X3459803D01*
Y3534567D01*
Y3495197D01*
Y3455827D01*
Y3416457D01*
X3532953D01*
Y3419573D01*
X3540227Y3422586D01*
X3563747Y3399067D01*
Y3338858D01*
X3553232D01*
Y3281457D01*
X3657878D01*
Y3293940D01*
X3683858D01*
Y3284410D01*
X3739291D01*
Y3335905D01*
X3683858D01*
Y3326375D01*
X3657878D01*
Y3338858D01*
X3596181D01*
Y3405784D01*
X3594947Y3411990D01*
X3591431Y3417251D01*
X3570644Y3438039D01*
X3573905Y3445913D01*
X3793802D01*
X3800008Y3447147D01*
X3805269Y3450663D01*
X3868665Y3514059D01*
X3923535D01*
X3925485Y3509349D01*
X3932137Y3500680D01*
X3940805Y3494029D01*
X3950900Y3489848D01*
X3961732Y3488421D01*
X3972565Y3489848D01*
X3982659Y3494029D01*
X3991327Y3500680D01*
X3997979Y3509349D01*
X4002160Y3519443D01*
X4003586Y3530276D01*
X4002160Y3541108D01*
X3997979Y3551203D01*
X3991327Y3559871D01*
X3982659Y3566522D01*
X3972565Y3570704D01*
X3961732Y3572130D01*
X3950900Y3570704D01*
X3940805Y3566522D01*
X3932137Y3559871D01*
X3925485Y3551203D01*
X3923535Y3546493D01*
X3861948D01*
X3855742Y3545258D01*
X3850480Y3541743D01*
X3787085Y3478347D01*
X3674173D01*
Y3497598D01*
X3646457D01*
Y3507598D01*
X3674173D01*
Y3521027D01*
X3709447D01*
X3715653Y3522262D01*
X3720914Y3525777D01*
X3771151Y3576014D01*
X3772585Y3575420D01*
X3781722Y3574217D01*
X3790859Y3575420D01*
X3799373Y3578947D01*
X3806684Y3584557D01*
X3812294Y3591868D01*
X3815821Y3600382D01*
X3817024Y3609519D01*
X3815821Y3618656D01*
X3812294Y3627170D01*
X3806684Y3634481D01*
X3799373Y3640091D01*
X3790859Y3643618D01*
X3781722Y3644821D01*
X3772585Y3643618D01*
X3764071Y3640091D01*
X3756760Y3634481D01*
X3751150Y3627170D01*
X3747623Y3618656D01*
X3746420Y3609519D01*
X3747623Y3600382D01*
X3748217Y3598948D01*
X3702730Y3553461D01*
X3674173D01*
Y3565709D01*
X3646457D01*
Y3575709D01*
X3674173D01*
Y3600394D01*
X3674173D01*
Y3607914D01*
X3674173D01*
Y3632598D01*
X3646457D01*
Y3642598D01*
X3674173D01*
Y3667283D01*
X3680073Y3672051D01*
X3919724D01*
X3925930Y3673285D01*
X3931192Y3676801D01*
X3946190Y3691799D01*
X3950900Y3689848D01*
X3961732Y3688421D01*
X3972565Y3689848D01*
X3982659Y3694029D01*
X3991327Y3700680D01*
X3997979Y3709349D01*
X4002160Y3719443D01*
X4003586Y3730276D01*
X4002160Y3741108D01*
X3997979Y3751203D01*
X3991327Y3759871D01*
X3982659Y3766522D01*
X3972565Y3770704D01*
X3961732Y3772130D01*
X3950900Y3770704D01*
X3940805Y3766522D01*
X3932137Y3759871D01*
X3925485Y3751203D01*
X3921304Y3741108D01*
X3919878Y3730276D01*
X3921304Y3719443D01*
X3923255Y3714733D01*
X3913007Y3704485D01*
X3639909D01*
X3639133Y3712359D01*
X3640622Y3712655D01*
X3645884Y3716171D01*
X3654913Y3725200D01*
X3872874D01*
X3879080Y3726435D01*
X3884341Y3729950D01*
X3946190Y3791799D01*
X3950900Y3789848D01*
X3961732Y3788421D01*
X3972565Y3789848D01*
X3982659Y3794029D01*
X3991327Y3800680D01*
X3997979Y3809349D01*
X4002160Y3819443D01*
X4003586Y3830276D01*
X4002160Y3841108D01*
X3997979Y3851203D01*
X3991327Y3859871D01*
X3982659Y3866522D01*
X3972565Y3870704D01*
X3961732Y3872130D01*
X3950900Y3870704D01*
X3940805Y3866522D01*
X3932137Y3859871D01*
X3925485Y3851203D01*
X3921304Y3841108D01*
X3919878Y3830276D01*
X3921304Y3819443D01*
X3923255Y3814733D01*
X3866157Y3757635D01*
X3648196D01*
X3641990Y3756400D01*
X3636729Y3752885D01*
X3627699Y3743855D01*
X3496378D01*
X3494811Y3743543D01*
X3459803D01*
Y3711732D01*
Y3672362D01*
Y3625745D01*
X3454374D01*
X3448168Y3624510D01*
X3442906Y3620995D01*
X3441130Y3619218D01*
X3433855Y3622231D01*
Y3806378D01*
X3433543Y3807945D01*
Y3842953D01*
X3414171D01*
Y3885289D01*
X3415605Y3885883D01*
X3422916Y3891493D01*
X3428526Y3898804D01*
X3432053Y3907318D01*
X3433256Y3916455D01*
X3432053Y3925592D01*
X3428526Y3934106D01*
X3422916Y3941417D01*
X3415605Y3947027D01*
X3407090Y3950554D01*
X3397954Y3951757D01*
X3388817Y3950554D01*
X3380303Y3947027D01*
X3372991Y3941417D01*
X3367381Y3934106D01*
X3363854Y3925592D01*
X3362652Y3916455D01*
X3363854Y3907318D01*
X3367381Y3898804D01*
X3372991Y3891493D01*
X3380303Y3885883D01*
X3381736Y3885289D01*
Y3842953D01*
X3197635D01*
Y3863464D01*
X3196400Y3869670D01*
X3192885Y3874932D01*
X3079006Y3988810D01*
X3073745Y3992325D01*
X3067539Y3993559D01*
X3000832D01*
X2976217Y4018174D01*
Y4025996D01*
X2980546Y4032474D01*
X2980986Y4034688D01*
X2989014D01*
X2989454Y4032474D01*
X2994275Y4025259D01*
X3001490Y4020439D01*
X3010000Y4018746D01*
X3018510Y4020439D01*
X3025725Y4025259D01*
X3030546Y4032474D01*
X3031640Y4037977D01*
X3062345D01*
Y4037874D01*
X3121715D01*
Y4038470D01*
X3192195D01*
X3195825Y4033738D01*
X3203136Y4028128D01*
X3211651Y4024602D01*
X3220787Y4023399D01*
X3229924Y4024602D01*
X3238438Y4028128D01*
X3245750Y4033738D01*
X3249380Y4038470D01*
X3748476D01*
X3756218Y4040010D01*
X3762781Y4044395D01*
X3825026Y4106640D01*
X4028655D01*
X4054931Y4080364D01*
X4061132Y4075606D01*
X4068353Y4072615D01*
X4076102Y4071594D01*
X4159921D01*
Y4052165D01*
X4169508D01*
Y4015080D01*
X4165645Y4010046D01*
X4162654Y4002825D01*
X4161634Y3995075D01*
Y3921850D01*
X4143425D01*
Y3892166D01*
Y3862480D01*
X4161634D01*
Y3391709D01*
X4141729Y3371805D01*
X4108266D01*
Y3375276D01*
X4056770D01*
Y3319843D01*
X4108266D01*
Y3323314D01*
X4151772D01*
X4161050Y3325159D01*
X4168916Y3330415D01*
X4187547Y3349046D01*
X4380428Y3156166D01*
X4381411Y3148697D01*
X4385394Y3139081D01*
X4389980Y3133105D01*
Y3066816D01*
X4385394Y3060840D01*
X4381411Y3051224D01*
X4380053Y3040905D01*
X4381411Y3030587D01*
X4385394Y3020971D01*
X4391730Y3012714D01*
X4399987Y3006378D01*
X4409602Y3002395D01*
X4419921Y3001037D01*
X4430240Y3002395D01*
X4439856Y3006378D01*
X4448113Y3012714D01*
X4454449Y3020971D01*
X4458431Y3030587D01*
X4459790Y3040905D01*
X4458431Y3051224D01*
X4454449Y3060840D01*
X4449863Y3066816D01*
Y3133105D01*
X4454449Y3139081D01*
X4458431Y3148697D01*
X4459790Y3159016D01*
X4458431Y3169334D01*
X4454449Y3178950D01*
X4448113Y3187207D01*
X4439856Y3193543D01*
X4430240Y3197526D01*
X4422771Y3198509D01*
X4221516Y3399764D01*
Y3892165D01*
Y3982945D01*
X4225379Y3987979D01*
X4226618Y3990970D01*
X4228370Y3995200D01*
X4229390Y4002949D01*
Y4052165D01*
X4238976D01*
Y4150906D01*
X4159921D01*
Y4131477D01*
X4088505D01*
X4061044Y4158937D01*
X4064306Y4166811D01*
X4065079D01*
Y4265551D01*
X4054351D01*
Y4360591D01*
X4054095Y4362537D01*
Y4386024D01*
Y4408740D01*
D02*
G37*
G36*
X2655000Y4095693D02*
X2651490Y4094994D01*
X2644275Y4090174D01*
X2639454Y4082959D01*
X2637762Y4074449D01*
Y4062716D01*
X2655000D01*
Y4095693D01*
D02*
G37*
G36*
X4420079Y4096535D02*
X4385551D01*
Y4052165D01*
X4420079D01*
Y4096535D01*
D02*
G37*
G36*
X4375551D02*
X4341024D01*
Y4052165D01*
X4375551D01*
Y4096535D01*
D02*
G37*
G36*
X2655000Y4052716D02*
X2637762D01*
Y4040984D01*
X2639454Y4032474D01*
X2644275Y4025259D01*
X2651490Y4020439D01*
X2655000Y4019740D01*
Y4052716D01*
D02*
G37*
G36*
X2755000Y3953543D02*
X2733268D01*
Y3929842D01*
X2755000D01*
Y3953543D01*
D02*
G37*
G36*
X4019803Y4017520D02*
X3850197D01*
Y3918780D01*
X4019803D01*
Y4017520D01*
D02*
G37*
G36*
X4133425Y3921850D02*
X4110709D01*
Y3897166D01*
X4133425D01*
Y3921850D01*
D02*
G37*
G36*
X2755000Y3919842D02*
X2733268D01*
Y3896142D01*
X2755000D01*
Y3919842D01*
D02*
G37*
G36*
X4319685Y3898425D02*
X4295000D01*
Y3875709D01*
X4319685D01*
Y3898425D01*
D02*
G37*
G36*
X4285000D02*
X4260315D01*
Y3875709D01*
X4285000D01*
Y3898425D01*
D02*
G37*
G36*
X4133425Y3887166D02*
X4110709D01*
Y3862480D01*
X4133425D01*
Y3887166D01*
D02*
G37*
G36*
X3966732Y3671472D02*
Y3635275D01*
X4002928D01*
X4002160Y3641108D01*
X3997979Y3651203D01*
X3991327Y3659871D01*
X3982659Y3666522D01*
X3972565Y3670704D01*
X3966732Y3671472D01*
D02*
G37*
G36*
X3956732Y3671471D02*
X3950900Y3670704D01*
X3940805Y3666522D01*
X3932137Y3659871D01*
X3925485Y3651203D01*
X3921304Y3641108D01*
X3920536Y3635275D01*
X3956732D01*
Y3671471D01*
D02*
G37*
G36*
Y3625275D02*
X3920537D01*
X3921304Y3619443D01*
X3925485Y3609349D01*
X3932137Y3600680D01*
X3940805Y3594029D01*
X3950900Y3589848D01*
X3956732Y3589080D01*
Y3625275D01*
D02*
G37*
G36*
X4002928D02*
X3966732D01*
Y3589080D01*
X3972565Y3589848D01*
X3982659Y3594029D01*
X3991327Y3600680D01*
X3997979Y3609349D01*
X4002160Y3619443D01*
X4002928Y3625275D01*
D02*
G37*
G36*
X3739291Y3410709D02*
X3716575D01*
Y3389961D01*
X3739291D01*
Y3410709D01*
D02*
G37*
G36*
X3706575D02*
X3683858D01*
Y3389961D01*
X3706575D01*
Y3410709D01*
D02*
G37*
G36*
X3946575Y3376260D02*
X3841929D01*
Y3367790D01*
X3818032D01*
Y3373307D01*
X3762599D01*
Y3321811D01*
X3818032D01*
Y3327328D01*
X3841929D01*
Y3318858D01*
X3946575D01*
Y3327328D01*
X3981967D01*
Y3319843D01*
X4033463D01*
Y3375276D01*
X3981967D01*
Y3367790D01*
X3946575D01*
Y3376260D01*
D02*
G37*
G36*
X3739291Y3379961D02*
X3716575D01*
Y3359213D01*
X3739291D01*
Y3379961D01*
D02*
G37*
G36*
X3706575D02*
X3683858D01*
Y3359213D01*
X3706575D01*
Y3379961D01*
D02*
G37*
G36*
X4329528Y4150906D02*
X4250472D01*
Y4052165D01*
X4260059D01*
Y3956575D01*
X4260315Y3954629D01*
Y3928858D01*
Y3908425D01*
X4319685D01*
Y3926634D01*
X4356023D01*
X4391949Y3890708D01*
Y3352481D01*
X4381891Y3342423D01*
X4380863Y3342288D01*
X4372349Y3338761D01*
X4365038Y3333151D01*
X4359428Y3325840D01*
X4355901Y3317326D01*
X4354698Y3308189D01*
X4355901Y3299052D01*
X4359428Y3290538D01*
X4365038Y3283227D01*
X4372349Y3277617D01*
X4380863Y3274090D01*
X4390000Y3272887D01*
X4399137Y3274090D01*
X4407651Y3277617D01*
X4414962Y3283227D01*
X4420572Y3290538D01*
X4424099Y3299052D01*
X4424234Y3300080D01*
X4443061Y3318907D01*
X4447820Y3325108D01*
X4450811Y3332329D01*
X4451831Y3340079D01*
Y3903110D01*
X4450811Y3910860D01*
X4447820Y3918081D01*
X4443061Y3924282D01*
X4389597Y3977746D01*
X4383396Y3982505D01*
X4376175Y3985496D01*
X4368425Y3986516D01*
X4319941D01*
Y4052165D01*
X4329528D01*
Y4150906D01*
D02*
G37*
G36*
X3080630Y3220521D02*
X3055945D01*
Y3197805D01*
X3080630D01*
Y3220521D01*
D02*
G37*
G36*
X4301811Y3198884D02*
X4291492Y3197526D01*
X4281877Y3193543D01*
X4273620Y3187207D01*
X4267284Y3178950D01*
X4263301Y3169334D01*
X4261943Y3159016D01*
X4263301Y3148697D01*
X4267284Y3139081D01*
X4273620Y3130824D01*
X4281877Y3124488D01*
X4291492Y3120506D01*
X4301811Y3119147D01*
X4312130Y3120506D01*
X4321745Y3124488D01*
X4330002Y3130824D01*
X4336338Y3139081D01*
X4340321Y3148697D01*
X4341680Y3159016D01*
X4340321Y3169334D01*
X4336338Y3178950D01*
X4330002Y3187207D01*
X4321745Y3193543D01*
X4312130Y3197526D01*
X4301811Y3198884D01*
D02*
G37*
G36*
X4073819Y3091023D02*
X4050118D01*
Y3069291D01*
X4073819D01*
Y3091023D01*
D02*
G37*
G36*
X4590000Y3143365D02*
X4576463Y3142032D01*
X4563446Y3138084D01*
X4551449Y3131671D01*
X4540934Y3123042D01*
X4532305Y3112527D01*
X4525893Y3100530D01*
X4521944Y3087514D01*
X4520611Y3073976D01*
X4521944Y3060439D01*
X4525893Y3047422D01*
X4532305Y3035426D01*
X4540934Y3024911D01*
X4551449Y3016281D01*
X4563446Y3009869D01*
X4576463Y3005920D01*
X4590000Y3004587D01*
X4603537Y3005920D01*
X4616554Y3009869D01*
X4628551Y3016281D01*
X4639066Y3024911D01*
X4647695Y3035426D01*
X4654107Y3047422D01*
X4658056Y3060439D01*
X4659389Y3073976D01*
X4658056Y3087514D01*
X4654107Y3100530D01*
X4647695Y3112527D01*
X4639066Y3123042D01*
X4628551Y3131671D01*
X4616554Y3138084D01*
X4603537Y3142032D01*
X4590000Y3143365D01*
D02*
G37*
G36*
X4070865Y3296535D02*
X4019369D01*
Y3241102D01*
X4020872D01*
Y3173937D01*
X4016417D01*
Y3120472D01*
Y3101023D01*
X4073819D01*
Y3122959D01*
X4185469D01*
X4262592Y3045837D01*
X4261943Y3040905D01*
X4263301Y3030587D01*
X4267284Y3020971D01*
X4273620Y3012714D01*
X4281877Y3006378D01*
X4291492Y3002395D01*
X4301811Y3001037D01*
X4312130Y3002395D01*
X4321745Y3006378D01*
X4330002Y3012714D01*
X4336338Y3020971D01*
X4340321Y3030587D01*
X4341680Y3040905D01*
X4340321Y3051224D01*
X4336338Y3060840D01*
X4330002Y3069097D01*
X4321745Y3075433D01*
X4312130Y3079416D01*
X4301811Y3080774D01*
X4296880Y3080125D01*
X4212656Y3164349D01*
X4204790Y3169604D01*
X4195512Y3171450D01*
X4073819D01*
Y3173937D01*
X4069363D01*
Y3241102D01*
X4070865D01*
Y3296535D01*
D02*
G37*
G36*
X4306811Y2962006D02*
Y2927795D01*
X4341021D01*
X4340321Y2933114D01*
X4336338Y2942729D01*
X4330002Y2950987D01*
X4321745Y2957322D01*
X4312130Y2961305D01*
X4306811Y2962006D01*
D02*
G37*
G36*
X4296811D02*
X4291492Y2961305D01*
X4281877Y2957322D01*
X4273620Y2950987D01*
X4267284Y2942729D01*
X4263301Y2933114D01*
X4262601Y2927795D01*
X4296811D01*
Y2962006D01*
D02*
G37*
G36*
X3501220Y2830118D02*
X3493346Y2830118D01*
X3480000D01*
Y2797480D01*
Y2764843D01*
X3493346D01*
X3498780Y2764843D01*
X3506654Y2764843D01*
X3520000D01*
Y2797480D01*
Y2830118D01*
X3506654D01*
X3501220Y2830118D01*
D02*
G37*
G36*
X3956220Y2815118D02*
X3948346Y2815118D01*
X3935000D01*
Y2782480D01*
Y2749843D01*
X3948346D01*
X3953780Y2749843D01*
X3961654Y2749843D01*
X3975000D01*
Y2782480D01*
Y2815118D01*
X3961654D01*
X3956220Y2815118D01*
D02*
G37*
G36*
X3420000Y2830118D02*
X3401220D01*
Y2802480D01*
X3420000D01*
Y2830118D01*
D02*
G37*
G36*
X3875000Y2815118D02*
X3856220D01*
Y2787480D01*
X3875000D01*
Y2815118D01*
D02*
G37*
G36*
X2724528Y2794724D02*
X2690000D01*
Y2766102D01*
X2724528D01*
Y2794724D01*
D02*
G37*
G36*
X2680000D02*
X2645472D01*
Y2766102D01*
X2680000D01*
Y2794724D01*
D02*
G37*
G36*
X3451220Y2830118D02*
X3443346Y2830118D01*
X3430000D01*
Y2797480D01*
Y2764843D01*
X3443346D01*
X3448780Y2764843D01*
X3456654Y2764843D01*
X3470000D01*
Y2797480D01*
Y2830118D01*
X3456654D01*
X3451220Y2830118D01*
D02*
G37*
G36*
X3420000Y2792480D02*
X3401220D01*
Y2764843D01*
X3420000D01*
Y2792480D01*
D02*
G37*
G36*
X3906220Y2815118D02*
X3898346Y2815118D01*
X3885000D01*
Y2782480D01*
Y2749843D01*
X3898346D01*
X3903780Y2749843D01*
X3911654Y2749843D01*
X3925000D01*
Y2782480D01*
Y2815118D01*
X3911654D01*
X3906220Y2815118D01*
D02*
G37*
G36*
X3875000Y2777480D02*
X3856220D01*
Y2749843D01*
X3875000D01*
Y2777480D01*
D02*
G37*
G36*
X2724528Y2756102D02*
X2690000D01*
Y2727480D01*
X2724528D01*
Y2756102D01*
D02*
G37*
G36*
X2680000D02*
X2645472D01*
Y2727480D01*
X2680000D01*
Y2756102D01*
D02*
G37*
G36*
X4138701Y2725000D02*
X4115000D01*
Y2703268D01*
X4138701D01*
Y2725000D01*
D02*
G37*
G36*
X4105000D02*
X4081299D01*
Y2703268D01*
X4105000D01*
Y2725000D01*
D02*
G37*
G36*
X3688701Y2741299D02*
X3631299D01*
Y2719567D01*
X3639247D01*
X3639744Y2719017D01*
X3642735Y2711693D01*
X3639017Y2706129D01*
X3638166Y2701850D01*
X3684668D01*
X3683817Y2706129D01*
X3680099Y2711693D01*
X3683091Y2719017D01*
X3683587Y2719567D01*
X3688701D01*
Y2741299D01*
D02*
G37*
G36*
X3684668Y2691850D02*
X3666417D01*
Y2673600D01*
X3670696Y2674451D01*
X3678561Y2679706D01*
X3683817Y2687572D01*
X3684668Y2691850D01*
D02*
G37*
G36*
X3656417D02*
X3638166D01*
X3639017Y2687572D01*
X3644273Y2679706D01*
X3652139Y2674451D01*
X3656417Y2673600D01*
Y2691850D01*
D02*
G37*
G36*
X4301811Y2726443D02*
X4291492Y2725085D01*
X4281877Y2721102D01*
X4273620Y2714766D01*
X4267284Y2706509D01*
X4263301Y2696894D01*
X4261943Y2686575D01*
X4263301Y2676256D01*
X4267284Y2666640D01*
X4273620Y2658383D01*
X4281877Y2652048D01*
X4291492Y2648065D01*
X4301811Y2646706D01*
X4312130Y2648065D01*
X4321745Y2652048D01*
X4330002Y2658383D01*
X4336338Y2666640D01*
X4340321Y2676256D01*
X4341680Y2686575D01*
X4340321Y2696894D01*
X4336338Y2706509D01*
X4330002Y2714766D01*
X4321745Y2721102D01*
X4312130Y2725085D01*
X4301811Y2726443D01*
D02*
G37*
G36*
X4419921Y2726443D02*
X4409602Y2725085D01*
X4399987Y2721102D01*
X4391730Y2714766D01*
X4385394Y2706509D01*
X4381411Y2696894D01*
X4380053Y2686575D01*
X4381411Y2676256D01*
X4385394Y2666640D01*
X4391730Y2658383D01*
X4399987Y2652048D01*
X4409602Y2648065D01*
X4419921Y2646706D01*
X4430240Y2648065D01*
X4439856Y2652048D01*
X4448113Y2658383D01*
X4454449Y2666640D01*
X4458431Y2676256D01*
X4459790Y2686575D01*
X4458431Y2696894D01*
X4454449Y2706509D01*
X4448113Y2714766D01*
X4439856Y2721102D01*
X4430240Y2725085D01*
X4419921Y2726443D01*
D02*
G37*
G36*
X2976496Y2745512D02*
X2897441D01*
Y2595591D01*
X2976496D01*
Y2745512D01*
D02*
G37*
G36*
X4590000Y2722893D02*
X4576463Y2721560D01*
X4563446Y2717611D01*
X4551449Y2711199D01*
X4540934Y2702570D01*
X4532305Y2692055D01*
X4525893Y2680058D01*
X4521944Y2667041D01*
X4520611Y2653504D01*
X4521944Y2639967D01*
X4525893Y2626950D01*
X4532305Y2614953D01*
X4540934Y2604438D01*
X4551449Y2595809D01*
X4563446Y2589397D01*
X4576463Y2585448D01*
X4590000Y2584115D01*
X4603537Y2585448D01*
X4616554Y2589397D01*
X4628551Y2595809D01*
X4639066Y2604438D01*
X4647695Y2614953D01*
X4654107Y2626950D01*
X4658056Y2639967D01*
X4659389Y2653504D01*
X4658056Y2667041D01*
X4654107Y2680058D01*
X4647695Y2692055D01*
X4639066Y2702570D01*
X4628551Y2711199D01*
X4616554Y2717611D01*
X4603537Y2721560D01*
X4590000Y2722893D01*
D02*
G37*
G36*
X4424922Y2607675D02*
Y2573465D01*
X4459132D01*
X4458431Y2578783D01*
X4454449Y2588399D01*
X4448113Y2596656D01*
X4439856Y2602992D01*
X4430240Y2606975D01*
X4424922Y2607675D01*
D02*
G37*
G36*
X4414922Y2607675D02*
X4409602Y2606975D01*
X4399987Y2602992D01*
X4391730Y2596656D01*
X4385394Y2588399D01*
X4381411Y2578783D01*
X4380711Y2573465D01*
X4414922D01*
Y2607675D01*
D02*
G37*
G36*
X4459132Y2563465D02*
X4424922D01*
Y2529254D01*
X4430240Y2529954D01*
X4439856Y2533937D01*
X4448113Y2540273D01*
X4454449Y2548530D01*
X4458431Y2558146D01*
X4459132Y2563465D01*
D02*
G37*
G36*
X4414922D02*
X4380711D01*
X4381411Y2558146D01*
X4385394Y2548530D01*
X4391730Y2540273D01*
X4399987Y2533937D01*
X4409602Y2529954D01*
X4414922Y2529254D01*
Y2563465D01*
D02*
G37*
G36*
X4301811Y2608333D02*
X4291492Y2606975D01*
X4281877Y2602992D01*
X4273620Y2596656D01*
X4267284Y2588399D01*
X4263301Y2578783D01*
X4261943Y2568465D01*
X4263301Y2558146D01*
X4267284Y2548530D01*
X4273620Y2540273D01*
X4281877Y2533937D01*
X4291492Y2529954D01*
X4301811Y2528596D01*
X4312130Y2529954D01*
X4321745Y2533937D01*
X4330002Y2540273D01*
X4336338Y2548530D01*
X4340321Y2558146D01*
X4341680Y2568465D01*
X4340321Y2578783D01*
X4336338Y2588399D01*
X4330002Y2596656D01*
X4321745Y2602992D01*
X4312130Y2606975D01*
X4301811Y2608333D01*
D02*
G37*
G36*
X4118701Y2459875D02*
X4105813Y2458178D01*
X4093803Y2453203D01*
X4083490Y2445290D01*
X4075576Y2434977D01*
X4070602Y2422967D01*
X4068905Y2410079D01*
X4070602Y2397191D01*
X4075576Y2385181D01*
X4083490Y2374867D01*
X4093803Y2366954D01*
X4105813Y2361979D01*
X4118701Y2360283D01*
X4131589Y2361979D01*
X4143599Y2366954D01*
X4153912Y2374867D01*
X4161825Y2385181D01*
X4166800Y2397191D01*
X4168497Y2410079D01*
X4166800Y2422967D01*
X4161825Y2434977D01*
X4153912Y2445290D01*
X4143599Y2453203D01*
X4131589Y2458178D01*
X4118701Y2459875D01*
D02*
G37*
G36*
X4057520Y2725551D02*
X3852480D01*
Y2524449D01*
X3915132D01*
Y2460996D01*
X3915132Y2460996D01*
X3916490Y2450677D01*
X3920473Y2441061D01*
X3926809Y2432804D01*
X3950985Y2408628D01*
X3952491Y2397191D01*
X3957466Y2385181D01*
X3965379Y2374867D01*
X3975693Y2366954D01*
X3987702Y2361979D01*
X4000591Y2360283D01*
X4013479Y2361979D01*
X4025489Y2366954D01*
X4035802Y2374867D01*
X4043715Y2385181D01*
X4048690Y2397191D01*
X4050387Y2410079D01*
X4048690Y2422967D01*
X4043715Y2434977D01*
X4035802Y2445290D01*
X4025489Y2453203D01*
X4014711Y2457668D01*
X3994869Y2477510D01*
Y2524449D01*
X4057520D01*
Y2725551D01*
D02*
G37*
G36*
X3681299Y2459875D02*
X3668411Y2458178D01*
X3656401Y2453203D01*
X3646088Y2445290D01*
X3638175Y2434977D01*
X3633200Y2422967D01*
X3631503Y2410079D01*
X3633200Y2397191D01*
X3638175Y2385181D01*
X3646088Y2374867D01*
X3656401Y2366954D01*
X3668411Y2361979D01*
X3681299Y2360283D01*
X3694187Y2361979D01*
X3706197Y2366954D01*
X3716510Y2374867D01*
X3724424Y2385181D01*
X3729398Y2397191D01*
X3731095Y2410079D01*
X3729398Y2422967D01*
X3724424Y2434977D01*
X3716510Y2445290D01*
X3706197Y2453203D01*
X3694187Y2458178D01*
X3681299Y2459875D01*
D02*
G37*
G36*
X3602520Y2740551D02*
X3397480D01*
Y2539449D01*
X3460132D01*
Y2478595D01*
X3460132Y2478594D01*
X3461490Y2468275D01*
X3465473Y2458660D01*
X3471809Y2450403D01*
X3513584Y2408628D01*
X3515090Y2397191D01*
X3520064Y2385181D01*
X3527978Y2374867D01*
X3538291Y2366954D01*
X3550301Y2361979D01*
X3563189Y2360283D01*
X3576077Y2361979D01*
X3588087Y2366954D01*
X3598400Y2374867D01*
X3606314Y2385181D01*
X3611288Y2397191D01*
X3612985Y2410079D01*
X3611288Y2422967D01*
X3606314Y2434977D01*
X3598400Y2445290D01*
X3588087Y2453203D01*
X3577310Y2457668D01*
X3539869Y2495108D01*
Y2539449D01*
X3602520D01*
Y2740551D01*
D02*
G37*
G36*
X3110000Y2459875D02*
X3097112Y2458178D01*
X3085102Y2453203D01*
X3074789Y2445290D01*
X3066875Y2434977D01*
X3061901Y2422967D01*
X3060204Y2410079D01*
X3061901Y2397191D01*
X3066875Y2385181D01*
X3074789Y2374867D01*
X3085102Y2366954D01*
X3097112Y2361979D01*
X3110000Y2360283D01*
X3122888Y2361979D01*
X3134898Y2366954D01*
X3145211Y2374867D01*
X3153125Y2385181D01*
X3158099Y2397191D01*
X3159796Y2410079D01*
X3158099Y2422967D01*
X3153125Y2434977D01*
X3145211Y2445290D01*
X3134898Y2453203D01*
X3122888Y2458178D01*
X3110000Y2459875D01*
D02*
G37*
G36*
X2991890D02*
X2979002Y2458178D01*
X2966992Y2453203D01*
X2956679Y2445290D01*
X2948765Y2434977D01*
X2943791Y2422967D01*
X2942094Y2410079D01*
X2943791Y2397191D01*
X2948765Y2385181D01*
X2956679Y2374867D01*
X2966992Y2366954D01*
X2979002Y2361979D01*
X2991890Y2360283D01*
X3004778Y2361979D01*
X3016788Y2366954D01*
X3027101Y2374867D01*
X3035015Y2385181D01*
X3039989Y2397191D01*
X3041686Y2410079D01*
X3039989Y2422967D01*
X3035015Y2434977D01*
X3027101Y2445290D01*
X3016788Y2453203D01*
X3004778Y2458178D01*
X2991890Y2459875D01*
D02*
G37*
G36*
X4059646Y2309389D02*
X4046108Y2308056D01*
X4033092Y2304107D01*
X4021095Y2297695D01*
X4010580Y2289066D01*
X4001951Y2278551D01*
X3995538Y2266554D01*
X3991590Y2253537D01*
X3990256Y2240000D01*
X3991590Y2226463D01*
X3995538Y2213446D01*
X4001951Y2201449D01*
X4010580Y2190934D01*
X4021095Y2182305D01*
X4033092Y2175893D01*
X4046108Y2171944D01*
X4059646Y2170611D01*
X4073183Y2171944D01*
X4086200Y2175893D01*
X4098196Y2182305D01*
X4108711Y2190934D01*
X4117341Y2201449D01*
X4123753Y2213446D01*
X4127702Y2226463D01*
X4129035Y2240000D01*
X4127702Y2253537D01*
X4123753Y2266554D01*
X4117341Y2278551D01*
X4108711Y2289066D01*
X4098196Y2297695D01*
X4086200Y2304107D01*
X4073183Y2308056D01*
X4059646Y2309389D01*
D02*
G37*
G36*
X3622244D02*
X3608707Y2308056D01*
X3595690Y2304107D01*
X3583693Y2297695D01*
X3573178Y2289066D01*
X3564549Y2278551D01*
X3558137Y2266554D01*
X3554188Y2253537D01*
X3552855Y2240000D01*
X3554188Y2226463D01*
X3558137Y2213446D01*
X3564549Y2201449D01*
X3573178Y2190934D01*
X3583693Y2182305D01*
X3595690Y2175893D01*
X3608707Y2171944D01*
X3622244Y2170611D01*
X3635781Y2171944D01*
X3648798Y2175893D01*
X3660795Y2182305D01*
X3671310Y2190934D01*
X3679939Y2201449D01*
X3686351Y2213446D01*
X3690300Y2226463D01*
X3691633Y2240000D01*
X3690300Y2253537D01*
X3686351Y2266554D01*
X3679939Y2278551D01*
X3671310Y2289066D01*
X3660795Y2297695D01*
X3648798Y2304107D01*
X3635781Y2308056D01*
X3622244Y2309389D01*
D02*
G37*
G36*
X3050945D02*
X3037408Y2308056D01*
X3024391Y2304107D01*
X3012394Y2297695D01*
X3001879Y2289066D01*
X2993250Y2278551D01*
X2986838Y2266554D01*
X2982889Y2253537D01*
X2981556Y2240000D01*
X2982889Y2226463D01*
X2986838Y2213446D01*
X2993250Y2201449D01*
X3001879Y2190934D01*
X3012394Y2182305D01*
X3024391Y2175893D01*
X3037408Y2171944D01*
X3050945Y2170611D01*
X3064482Y2171944D01*
X3077499Y2175893D01*
X3089495Y2182305D01*
X3100010Y2190934D01*
X3108640Y2201449D01*
X3115052Y2213446D01*
X3119001Y2226463D01*
X3120334Y2240000D01*
X3119001Y2253537D01*
X3115052Y2266554D01*
X3108640Y2278551D01*
X3100010Y2289066D01*
X3089495Y2297695D01*
X3077499Y2304107D01*
X3064482Y2308056D01*
X3050945Y2309389D01*
D02*
G37*
%LPD*%
G36*
X3165200Y3856747D02*
Y3842953D01*
X3106457D01*
Y3769803D01*
X3271414D01*
X3274525Y3762625D01*
X3270465Y3757635D01*
X3244272D01*
X3238066Y3756400D01*
X3232805Y3752885D01*
X3220925Y3741005D01*
X3219491Y3741599D01*
X3210354Y3742802D01*
X3201218Y3741599D01*
X3192703Y3738072D01*
X3185392Y3732462D01*
X3179782Y3725151D01*
X3176255Y3716636D01*
X3175052Y3707499D01*
X3176255Y3698363D01*
X3179782Y3689849D01*
X3185392Y3682537D01*
X3192703Y3676927D01*
X3201218Y3673400D01*
X3210354Y3672198D01*
X3219491Y3673400D01*
X3228005Y3676927D01*
X3235317Y3682537D01*
X3237055Y3684802D01*
X3245287Y3682597D01*
X3245744Y3679131D01*
X3249270Y3670617D01*
X3254880Y3663305D01*
X3262192Y3657695D01*
X3270706Y3654169D01*
X3279843Y3652966D01*
X3288979Y3654169D01*
X3297494Y3657695D01*
X3304805Y3663305D01*
X3310415Y3670617D01*
X3313942Y3679131D01*
X3315145Y3688268D01*
X3313942Y3697405D01*
X3313348Y3698838D01*
X3354776Y3740267D01*
X3362051Y3737254D01*
Y3707485D01*
X3342256Y3687690D01*
X3283619Y3629053D01*
X3282562Y3629193D01*
X3273425Y3627990D01*
X3264911Y3624463D01*
X3257600Y3618853D01*
X3251990Y3611541D01*
X3248463Y3603027D01*
X3247260Y3593890D01*
X3248463Y3584754D01*
X3251990Y3576240D01*
X3257600Y3568928D01*
X3264911Y3563318D01*
X3273425Y3559791D01*
X3282562Y3558588D01*
X3291699Y3559791D01*
X3300213Y3563318D01*
X3307524Y3568928D01*
X3313134Y3576240D01*
X3316661Y3584754D01*
X3317864Y3593890D01*
X3316661Y3603027D01*
X3313134Y3611541D01*
X3312632Y3612197D01*
X3389735Y3689300D01*
X3393250Y3694561D01*
X3393547Y3696051D01*
X3401421Y3695275D01*
Y3617583D01*
X3349468Y3565631D01*
X3348035Y3566225D01*
X3338898Y3567428D01*
X3329761Y3566225D01*
X3321247Y3562698D01*
X3313935Y3557088D01*
X3308325Y3549777D01*
X3304799Y3541263D01*
X3303596Y3532126D01*
X3304799Y3522989D01*
X3308325Y3514475D01*
X3313935Y3507164D01*
X3321247Y3501554D01*
X3329761Y3498027D01*
X3338898Y3496824D01*
X3348035Y3498027D01*
X3356549Y3501554D01*
X3363860Y3507164D01*
X3369470Y3514475D01*
X3372997Y3522989D01*
X3374200Y3532126D01*
X3372997Y3541263D01*
X3372403Y3542697D01*
X3378084Y3548378D01*
X3385358Y3545365D01*
Y3506777D01*
X3366531Y3487949D01*
X3253646D01*
X3219027Y3522569D01*
X3219026Y3522570D01*
X3140286Y3601310D01*
X3135025Y3604825D01*
X3128819Y3606060D01*
X3080197D01*
Y3632992D01*
Y3672362D01*
Y3711732D01*
Y3743543D01*
X3045189D01*
X3043622Y3743855D01*
X2990440D01*
X2926724Y3807572D01*
X2930603Y3814828D01*
X2933071Y3814337D01*
X2942349Y3816183D01*
X2950215Y3821439D01*
X2955471Y3829304D01*
X2956322Y3833583D01*
X2933071D01*
Y3843583D01*
X2956322D01*
X2955471Y3847861D01*
X2950215Y3855727D01*
X2942349Y3860983D01*
X2938738Y3861701D01*
Y3880351D01*
X2910037D01*
Y3890351D01*
X2938738D01*
Y3914470D01*
X2963539D01*
X2966554Y3907191D01*
X2972164Y3899880D01*
X2979475Y3894270D01*
X2987989Y3890743D01*
X2997126Y3889541D01*
X3006263Y3890743D01*
X3014777Y3894270D01*
X3022088Y3899880D01*
X3027698Y3907191D01*
X3031225Y3915706D01*
X3032428Y3924843D01*
X3031225Y3933979D01*
X3027698Y3942494D01*
X3022088Y3949805D01*
X3017597Y3953251D01*
X3020270Y3961125D01*
X3060822D01*
X3165200Y3856747D01*
D02*
G37*
G36*
X2955894Y3586036D02*
X2918412Y3548553D01*
X2914896Y3543292D01*
X2914398Y3540787D01*
X2881730D01*
Y3511102D01*
Y3481417D01*
X2896463D01*
X2899476Y3474143D01*
X2793570Y3368237D01*
X2786296Y3371250D01*
Y3444579D01*
X2794170Y3445355D01*
X2794684Y3442769D01*
X2799940Y3434903D01*
X2807806Y3429648D01*
X2812084Y3428796D01*
Y3452047D01*
Y3475298D01*
X2807806Y3474447D01*
X2799940Y3469191D01*
X2794684Y3461326D01*
X2794170Y3458740D01*
X2786296Y3459515D01*
Y3476320D01*
X2841738Y3531763D01*
X2849013Y3528749D01*
Y3516102D01*
X2871730D01*
Y3540787D01*
X2861051D01*
X2858038Y3548062D01*
X2903286Y3593311D01*
X2952881D01*
X2955894Y3586036D01*
D02*
G37*
G36*
X3174048Y3521679D02*
X3153160Y3500791D01*
X3151572Y3501051D01*
X3148055Y3506102D01*
X3126338D01*
Y3484386D01*
X3131390Y3480868D01*
X3131650Y3479280D01*
X3087759Y3435390D01*
X3080197Y3438963D01*
Y3455827D01*
Y3495197D01*
Y3534567D01*
Y3573626D01*
X3122102D01*
X3174048Y3521679D01*
D02*
G37*
%LPC*%
G36*
X2871730Y3506102D02*
X2849013D01*
Y3481417D01*
X2871730D01*
Y3506102D01*
D02*
G37*
G36*
X2822084Y3475298D02*
Y3457047D01*
X2840335D01*
X2839484Y3461326D01*
X2834228Y3469191D01*
X2826362Y3474447D01*
X2822084Y3475298D01*
D02*
G37*
G36*
X2840335Y3447047D02*
X2822084D01*
Y3428796D01*
X2826362Y3429648D01*
X2834228Y3434903D01*
X2839484Y3442769D01*
X2840335Y3447047D01*
D02*
G37*
G36*
X3126338Y3534353D02*
Y3516102D01*
X3144589D01*
X3143738Y3520381D01*
X3138483Y3528247D01*
X3130617Y3533502D01*
X3126338Y3534353D01*
D02*
G37*
G36*
X3116338D02*
X3112060Y3533502D01*
X3104194Y3528247D01*
X3098939Y3520381D01*
X3098088Y3516102D01*
X3116338D01*
Y3534353D01*
D02*
G37*
G36*
Y3506102D02*
X3098088D01*
X3098939Y3501824D01*
X3104194Y3493958D01*
X3112060Y3488703D01*
X3116338Y3487852D01*
Y3506102D01*
D02*
G37*
%LPD*%
D11*
X3660000Y2746299D02*
D03*
Y2797480D02*
D03*
X1392812Y3692798D02*
D03*
Y3641617D02*
D03*
X1277846Y3787390D02*
D03*
Y3838571D02*
D03*
X4110000Y2730000D02*
D03*
Y2781181D02*
D03*
X4045118Y3096023D02*
D03*
Y3147205D02*
D03*
X2988464Y3279378D02*
D03*
Y3228197D02*
D03*
X2910037Y3936532D02*
D03*
Y3885351D02*
D03*
D12*
X3096772Y2761102D02*
D03*
X3147953D02*
D03*
X3302382Y2934818D02*
D03*
X3353564D02*
D03*
X3919843Y3347559D02*
D03*
X3868661D02*
D03*
X1470335Y3870199D02*
D03*
X1521516D02*
D03*
X347649Y4169827D02*
D03*
X398830D02*
D03*
X2824564Y2965000D02*
D03*
X2875745D02*
D03*
X2834409Y3040000D02*
D03*
X2885590D02*
D03*
X2760000Y3924843D02*
D03*
X2811181D02*
D03*
X3631145Y3310157D02*
D03*
X3579964D02*
D03*
X1529801Y3421155D02*
D03*
X1580982D02*
D03*
X1163280Y4243025D02*
D03*
X1112099D02*
D03*
X1914992Y3599218D02*
D03*
X1863810D02*
D03*
D15*
X2876729Y3511102D02*
D03*
X2929879D02*
D03*
X4138425Y3892165D02*
D03*
X4191575D02*
D03*
X1155409Y3990640D02*
D03*
X1102259D02*
D03*
X3593307Y3637599D02*
D03*
X3646457D02*
D03*
X3593307Y3570709D02*
D03*
X3646457D02*
D03*
X3593307Y3502599D02*
D03*
X3646457D02*
D03*
X817251Y3992608D02*
D03*
X764102D02*
D03*
X899170Y4245225D02*
D03*
X952320D02*
D03*
D18*
X3092028Y4058701D02*
X3220787D01*
X3091536Y4058209D02*
X3092028Y4058701D01*
X3010492Y4058209D02*
X3091536D01*
X2841299Y3736465D02*
Y3741417D01*
X2672041Y3567207D02*
X2841299Y3736465D01*
X2513039Y3567207D02*
X2672041D01*
X3220787Y4058701D02*
X3748476D01*
X3110731Y4270315D02*
X3111490Y4271074D01*
X3248597D01*
X3566363Y3083887D02*
X3569331Y3086854D01*
X3374142Y3083887D02*
X3566363D01*
X3371174Y3080920D02*
X3374142Y3083887D01*
X3575000Y2797480D02*
X3660000D01*
X3816646Y4126871D02*
X4050767D01*
X3748476Y4058701D02*
X3816646Y4126871D01*
X3109747Y4271299D02*
X3110731Y4270315D01*
X3010984Y4271299D02*
X3109747D01*
X3010000Y4272283D02*
X3010984Y4271299D01*
X3010000Y4057716D02*
X3010492Y4058209D01*
X3790315Y3347559D02*
X3868661D01*
X3919843D02*
X4007715D01*
D19*
X4191575Y3387362D02*
Y3892165D01*
Y3995075D01*
X1754536Y2629913D02*
X2208150Y2176299D01*
X1257617Y2629913D02*
X1754536D01*
X1036944Y2409240D02*
X1257617Y2629913D01*
X918834Y2409240D02*
X1036944D01*
X752331Y3160551D02*
X2208150D01*
X674551Y3082771D02*
X752331Y3160551D01*
X660065Y3082771D02*
X674551D01*
X113764D02*
X266364D01*
X-271092Y2406565D02*
Y2697915D01*
X113764Y3082771D01*
X3935000Y4310669D02*
Y4360591D01*
Y4216181D02*
Y4310669D01*
X2601424Y2670551D02*
X2685000D01*
X2505125Y2766850D02*
X2601424Y2670551D01*
X2405000Y2766850D02*
X2505125D01*
X4050767Y4126871D02*
X4076102Y4101535D01*
X4025432Y4152206D02*
X4050767Y4126871D01*
X4024410Y4217323D02*
X4025551Y4216181D01*
X4024410Y4217323D02*
Y4360591D01*
X4025432Y4152206D02*
Y4216062D01*
X4025551Y4216181D01*
X4076102Y4101535D02*
X4199449D01*
X4390000Y3308189D02*
X4421890Y3340079D01*
Y3903110D01*
X4368425Y3956575D02*
X4421890Y3903110D01*
X4290000Y3956575D02*
X4368425D01*
X4290000D02*
Y4101535D01*
X4199449Y4002949D02*
Y4101535D01*
X4191575Y3995075D02*
X4199449Y4002949D01*
X4191575Y3387362D02*
X4419921Y3159016D01*
Y3040905D02*
Y3159016D01*
D21*
X2930406Y2951024D02*
G03*
X2922005Y2942623I0J-8401D01*
G01*
X2824564Y2918533D02*
G03*
X2834228Y2908869I9664J0D01*
G01*
X3163661Y2872283D02*
Y2891968D01*
X2930406Y2951024D02*
X2988464D01*
X2880472Y2908869D02*
X2922005Y2942623D01*
X2824564Y2918533D02*
Y2965000D01*
X2834228Y2908869D02*
X2880472D01*
X2988464Y2951024D02*
Y2970709D01*
X3593243Y3637599D02*
X3593275Y3637631D01*
X3186407Y3511102D02*
X3207559D01*
X3067539Y3392235D02*
X3186407Y3511102D01*
X3067539Y3278600D02*
Y3392235D01*
X1890385Y4000482D02*
Y4010816D01*
Y3933561D02*
Y4000482D01*
X1521553Y4370510D02*
X1683849Y4208214D01*
X3793802Y3462130D02*
X3861948Y3530276D01*
X3565285Y3462130D02*
X3793802D01*
X3555683Y3471732D02*
X3565285Y3462130D01*
X3872021Y3196954D02*
X4191613Y2877362D01*
X3284176Y3196954D02*
X3872021D01*
X3240472Y3240658D02*
X3284176Y3196954D01*
X1270083Y3781986D02*
X1285218D01*
X1047058Y3705214D02*
X1068305Y3726461D01*
X817251Y3990640D02*
X1102259D01*
X1214559Y3726461D02*
X1270083Y3781986D01*
X1068305Y3726461D02*
X1214559D01*
X984136Y3838571D02*
X1440676D01*
X927551Y3781986D02*
X984136Y3838571D01*
X1440676D02*
X1470335Y3868231D01*
X1163280Y4241057D02*
X1234509Y4169827D01*
X1392812D01*
X2933483Y2990394D02*
X2988464D01*
X2920884Y2977795D02*
X2933483Y2990394D01*
X2877714Y2965000D02*
X2885590D01*
X2836178Y3022717D02*
X2864918Y2993977D01*
Y2977795D02*
X2877714Y2965000D01*
X2864918Y2977795D02*
Y2993977D01*
X2885590Y2965000D02*
Y2976814D01*
X2886572Y2977795D01*
X2920884D01*
X4022996Y2857677D02*
X4366929D01*
X3719250Y3161423D02*
X4022996Y2857677D01*
X4366929D02*
X4419921Y2804685D01*
X2910000Y4049538D02*
X2910037Y3936532D01*
X2915882Y3930687D02*
X2991281D01*
X2997126Y3924843D01*
X654850Y3807577D02*
Y4015196D01*
X500219Y4169827D02*
X654850Y4015196D01*
X398830Y4169827D02*
X500219D01*
X300945D02*
X347649D01*
X127739Y3996621D02*
X300945Y4169827D01*
X127739Y3901345D02*
Y3996621D01*
X1051923Y3652096D02*
X1068305Y3635714D01*
X889071Y3652096D02*
X1051923D01*
X887133Y3654033D02*
X889071Y3652096D01*
X1155409Y3990640D02*
Y4104867D01*
Y3888900D02*
Y3990640D01*
X1676958Y4078292D02*
X1808692D01*
X1670069D02*
X1676958D01*
X1676959Y4078292D01*
X1663179Y4092071D02*
X1676958Y4078292D01*
X1647911Y4056135D02*
X1670069Y4078292D01*
X1163280Y4241057D02*
Y4243025D01*
Y4156832D02*
Y4241057D01*
X817251Y3990640D02*
X843826Y3964065D01*
Y3730018D02*
Y3964065D01*
Y3730018D02*
X867068Y3706776D01*
X925301Y3628443D02*
X1029435Y3524309D01*
X887133Y3628443D02*
X925301D01*
X1029435Y3524309D02*
X1273535D01*
X1647911Y3628070D02*
Y4056135D01*
X985029Y3784939D02*
X988353D01*
X1692174Y3408360D02*
X1744055Y3356479D01*
X1591809Y3408360D02*
X1692174D01*
X887133Y3705214D02*
X1047058D01*
X857606Y3588286D02*
X865678Y3580214D01*
X857606Y3588286D02*
Y3668599D01*
X867068Y3706776D02*
X872596D01*
X865678Y3676671D02*
X884181D01*
X857606Y3668599D02*
X865678Y3676671D01*
X1102259Y3990640D02*
X1114070Y4002451D01*
Y4107622D01*
X1163280Y4156832D01*
X1580982Y3419186D02*
X1591809Y3408360D01*
X1580982Y3419186D02*
Y3421155D01*
X1390843Y3641617D02*
X1392812D01*
X1273535Y3524309D02*
X1390843Y3641617D01*
X899170Y4112740D02*
Y4245225D01*
X887133Y3730805D02*
X992068D01*
X1017252Y3755989D01*
X956486Y3756395D02*
X985029Y3784939D01*
X887133Y3756395D02*
X956486D01*
X1017252Y3755989D02*
X1042714D01*
X952320Y4245225D02*
X1109899D01*
X1112099Y4243025D01*
X887133Y3781986D02*
X927551D01*
X1470335Y3868231D02*
Y3870199D01*
X1381985Y3703624D02*
X1392812Y3692798D01*
X1042714Y3755989D02*
X1054525Y3767800D01*
X568403Y3748459D02*
X601930Y3781986D01*
X654850D01*
X1285218D02*
X1363580Y3703624D01*
X1381985D01*
X887133Y3679624D02*
Y3705214D01*
X884181Y3676671D02*
X887133Y3679624D01*
X865678Y3580214D02*
X884181D01*
X887133Y3577262D01*
X885227Y3518559D02*
X886180Y3519512D01*
Y3576308D01*
X887133Y3577262D01*
X1392812Y4169827D02*
X1402845Y4159794D01*
X1245960Y4104867D02*
X1404931D01*
X1404932Y4104866D01*
X1406900D02*
X1521516Y3990250D01*
X1404932Y4104866D02*
X1406900D01*
X1521516Y3611199D02*
Y3990250D01*
Y3611199D02*
X1527833Y3604883D01*
X1402845Y4159794D02*
Y4238817D01*
X1890385Y3933561D02*
X2156740Y3667207D01*
X1890385Y4010816D02*
X1914991Y4035422D01*
Y4062544D01*
X2156740Y3667207D02*
X2162645D01*
X1914991Y4062544D02*
X1930739Y4078292D01*
X1821487Y4187544D02*
X1930739Y4078292D01*
X1706486Y4187544D02*
X1821487D01*
X1685817Y4208214D02*
X1706486Y4187544D01*
X1683849Y4208214D02*
X1685817D01*
X1423934Y4370510D02*
X1521553D01*
X1387845Y4334421D02*
X1423934Y4370510D01*
X1387845Y4333817D02*
Y4334421D01*
X1657963Y2506596D02*
Y2507335D01*
X1628127Y2476761D02*
X1657963Y2506596D01*
X1628127Y2412261D02*
Y2476761D01*
X1625945Y2410079D02*
X1628127Y2412261D01*
X1945034Y3567207D02*
X2162645D01*
X1914992Y3597249D02*
X1945034Y3567207D01*
X1914992Y3597249D02*
Y3599218D01*
X1651848Y3604883D02*
X1657513Y3599218D01*
X1863810D01*
X676306Y3759348D02*
X752291Y3835333D01*
Y3980797D02*
X764102Y3992608D01*
X657803Y3759348D02*
X676306D01*
X752291Y3835333D02*
Y3980797D01*
X654850Y3756395D02*
X657803Y3759348D01*
X1649880Y3604883D02*
X1651848D01*
X1529801Y3484804D02*
X1649880Y3604883D01*
X1529801Y3421155D02*
Y3484804D01*
X1528187Y3311577D02*
X1528994Y3312384D01*
Y3420348D01*
X1529801Y3421155D01*
X2929879Y2872283D02*
X2988464D01*
X2834503D02*
X2929879D01*
Y2909423D02*
X2951794Y2931338D01*
X2988464D01*
X2929879Y2872283D02*
Y2909423D01*
X3240472Y3296494D02*
Y3353622D01*
X3220787Y3276809D02*
X3240472Y3296494D01*
X3220787Y3232504D02*
Y3276809D01*
Y3232504D02*
X3291869Y3161423D01*
X3719250D01*
X2811181Y3829385D02*
Y3924843D01*
Y3829385D02*
X2882205Y3758361D01*
Y3623002D02*
Y3758361D01*
X2750394Y3491191D02*
X2882205Y3623002D01*
X2750394Y2663308D02*
Y3491191D01*
X2707130Y2620044D02*
X2750394Y2663308D01*
X2455044Y2620044D02*
X2707130D01*
X2405000Y2570000D02*
X2455044Y2620044D01*
X3043622Y3570157D02*
X3089787D01*
X3306544Y3250181D02*
Y3257172D01*
X3338898Y3289525D02*
Y3353622D01*
X3306544Y3257172D02*
X3338898Y3289525D01*
X3358583Y3288664D02*
Y3353622D01*
Y3288664D02*
X3397953Y3249294D01*
X3240472Y3268656D02*
X3260157Y3288341D01*
X3240472Y3240658D02*
Y3268656D01*
X3181417Y3231847D02*
Y3353622D01*
X3161732Y3217396D02*
Y3353622D01*
X3401576Y3556730D02*
X3454374Y3609528D01*
X3401576Y3500059D02*
Y3556730D01*
X3373249Y3471732D02*
X3401576Y3500059D01*
X3246929Y3471732D02*
X3373249D01*
X3207559Y3511102D02*
X3246929Y3471732D01*
X2977632Y3733729D02*
X2983723Y3727638D01*
X3043622D01*
X2831597Y2621833D02*
Y2847351D01*
X2770079Y3483037D02*
X2896569Y3609528D01*
X3043622D01*
X2770079Y2908869D02*
Y3483037D01*
Y2908869D02*
X2831597Y2847351D01*
X3844449Y4310669D02*
X3935000D01*
X2789764Y3341496D02*
X2929879Y3481611D01*
X2789764Y2917023D02*
Y3341496D01*
Y2917023D02*
X2834503Y2872283D01*
X2982636Y3589843D02*
X3043622D01*
X2929879Y3537086D02*
X2982636Y3589843D01*
X2929879Y3511102D02*
Y3537086D01*
Y3481611D02*
Y3511102D01*
X3043622Y3589843D02*
X3128819D01*
X2896424Y3814937D02*
X2977632Y3733729D01*
X2860000Y3851361D02*
X2896424Y3814937D01*
X2810590Y3925433D02*
X2811181Y3924843D01*
X2810590Y3925433D02*
Y4057126D01*
X2810000Y4057716D02*
X2810590Y4057126D01*
X3260157Y3288341D02*
Y3353622D01*
X4191613Y2877362D02*
X4374488D01*
X4419921Y2922795D01*
X2789764Y2580000D02*
X2831597Y2621833D01*
X2685000Y2580000D02*
X2789764D01*
X3210354Y2856421D02*
Y2902990D01*
X3201691Y2911653D02*
X3210354Y2902990D01*
X3163661Y2911653D02*
X3201691D01*
X3227209Y2839567D02*
X3307064D01*
X3210354Y2856421D02*
X3227209Y2839567D01*
X3195944Y2951024D02*
X3258457Y2888511D01*
X3268686Y2936787D02*
X3302382D01*
X3234764Y2970709D02*
X3268686Y2936787D01*
X3208513Y2970709D02*
X3234764D01*
X3307064Y2839567D02*
X3353564Y2886067D01*
Y2934818D01*
X3181417Y3231847D02*
X3271526Y3141738D01*
X3711097D01*
X4030000Y2822835D01*
Y2782480D02*
Y2822835D01*
X3161732Y3217396D02*
X3279843Y3099286D01*
Y3081241D02*
Y3099286D01*
Y3081241D02*
X3346359Y3014724D01*
X3428740D01*
X3575000Y2868465D01*
Y2797480D02*
Y2868465D01*
X2513039Y3667207D02*
X2708624D01*
X3128819Y3589843D02*
X3207559Y3511102D01*
X3024882Y3235943D02*
X3067539Y3278600D01*
X2996210Y3235943D02*
X3024882D01*
X2988464Y3228197D02*
X2996210Y3235943D01*
X3454374Y3609528D02*
X3496378D01*
X2916832Y3391640D02*
X2977240Y3452047D01*
X2916832Y3141738D02*
Y3391640D01*
X2977240Y3452047D02*
X3043622D01*
X2916832Y3141738D02*
X3127231Y2931338D01*
X3163661D01*
X3250326Y3012522D02*
Y3100964D01*
X3142047Y3209243D02*
X3250326Y3100964D01*
X3142047Y3209243D02*
Y3353622D01*
X3299528Y2683720D02*
Y2760800D01*
X3270990Y2655182D02*
X3299528Y2683720D01*
X3166275Y2655182D02*
X3270990D01*
X3096772Y2724685D02*
X3166275Y2655182D01*
X3096772Y2724685D02*
Y2761102D01*
X3193693Y2760800D02*
X3247163Y2707330D01*
X3193693Y2760800D02*
Y2761102D01*
X3147953D02*
X3193693D01*
X3147953D02*
Y2819326D01*
X3055625Y2911653D02*
X3147953Y2819326D01*
X2988464Y2911653D02*
X3055625D01*
X3092104D02*
X3163661D01*
X3072419Y2931338D02*
X3092104Y2911653D01*
X2988464Y2891968D02*
X3031260D01*
X3096772Y2761102D02*
Y2826457D01*
X3112443Y3010079D02*
X3163661D01*
X3081694Y3040828D02*
X3112443Y3010079D01*
X3104290Y2990394D02*
X3163661D01*
X2936968Y3157715D02*
X3104290Y2990394D01*
X2950006Y3010079D02*
X2988464D01*
X2885590Y3040000D02*
X2920085D01*
X2950006Y3010079D01*
X3163661Y2970709D02*
X3208513D01*
X3031260Y2891968D02*
X3096772Y2826457D01*
X2936968Y3157715D02*
Y3279378D01*
X2988464Y2931338D02*
X3072419D01*
X3302382Y2934818D02*
Y2936787D01*
X2936968Y3279378D02*
Y3374740D01*
Y3279378D02*
X2988464D01*
Y3161191D02*
X3010000Y3139655D01*
X3050945D01*
X2988464Y3161191D02*
Y3228197D01*
X2936968Y3374740D02*
X2994591Y3432362D01*
X3050945Y3071577D02*
X3081694Y3040828D01*
X3123148Y3082282D01*
X3050945Y3071577D02*
Y3139655D01*
X3623032Y3537244D02*
X3709447D01*
X3622506Y3537771D02*
X3623032Y3537244D01*
X3593386Y3537771D02*
X3622506D01*
X3593307Y3502599D02*
Y3537771D01*
Y3570709D01*
X3208054Y3083064D02*
X3210199Y3080920D01*
X3122362Y3168756D02*
X3208054Y3083064D01*
X3122362Y3168756D02*
Y3353622D01*
X3163661Y2951024D02*
X3195944D01*
X3205910Y3080920D02*
X3210199D01*
X3208513Y2970709D02*
X3250326Y3012522D01*
X2994591Y3432362D02*
X3043622D01*
X3067539Y3977342D02*
X3181417Y3863464D01*
Y3806378D02*
Y3863464D01*
X3709447Y3537244D02*
X3781722Y3609519D01*
X3417638Y3610866D02*
Y3806378D01*
X3338898Y3532126D02*
X3417638Y3610866D01*
X3282562Y3605062D02*
X3378268Y3700767D01*
X3282562Y3593890D02*
Y3605062D01*
X2860000Y3851361D02*
Y4057716D01*
X2994114Y3977342D02*
X3067539D01*
X2960000Y4011457D02*
X2994114Y3977342D01*
X2960000Y4011457D02*
Y4057716D01*
X3397954Y3806379D02*
Y3916455D01*
X3397953Y3806378D02*
X3397954Y3806379D01*
X3648196Y3741417D02*
X3872874D01*
X3634416Y3727638D02*
X3648196Y3741417D01*
X3496378Y3727638D02*
X3634416D01*
X3299528Y3763262D02*
Y3806378D01*
X3277682Y3741417D02*
X3299528Y3763262D01*
X3244272Y3741417D02*
X3277682D01*
X3210354Y3707499D02*
X3244272Y3741417D01*
X3358583Y3767008D02*
Y3806378D01*
X3279843Y3688268D02*
X3358583Y3767008D01*
X3353724Y3676223D02*
X3378268Y3700767D01*
Y3806378D01*
X3496378Y3471732D02*
X3555683D01*
X3533701Y3452047D02*
X3579964Y3405784D01*
X3496378Y3452047D02*
X3533701D01*
X3579964Y3310157D02*
Y3405784D01*
X3861948Y3530276D02*
X3961732D01*
X3566732Y3502599D02*
X3593307D01*
X3552402Y3516929D02*
X3566732Y3502599D01*
X3552402Y3516929D02*
Y3549137D01*
X3531381Y3570157D02*
X3552402Y3549137D01*
X3496378Y3570157D02*
X3531381D01*
X3561693Y3570709D02*
X3593307D01*
X3542559Y3589843D02*
X3561693Y3570709D01*
X3496378Y3589843D02*
X3542559D01*
X3565748Y3637599D02*
X3593243D01*
X3537677Y3609528D02*
X3565748Y3637599D01*
X3496378Y3609528D02*
X3537677D01*
X3593275Y3637631D02*
Y3674907D01*
Y3637631D02*
X3593307Y3637599D01*
X3593275Y3674907D02*
X3606636Y3688268D01*
X3919724D01*
X3961732Y3730276D01*
X3872874Y3741417D02*
X3961732Y3830276D01*
X4030000Y2782480D02*
X4108701D01*
X4110000Y2781181D01*
X3631145Y3310157D02*
X3711575D01*
D23*
X-330147Y2236486D02*
D03*
X310000Y2240000D02*
D03*
X977889Y2239161D02*
D03*
X266364Y3082771D02*
D03*
X660065D02*
D03*
X3050945Y2240000D02*
D03*
X3622244D02*
D03*
X4059646D02*
D03*
X1685000D02*
D03*
D24*
X-389202Y2406565D02*
D03*
X-271092D02*
D03*
X250945Y2410079D02*
D03*
X369055D02*
D03*
X918834Y2409240D02*
D03*
X1036944D02*
D03*
X2991890Y2410079D02*
D03*
X3110000D02*
D03*
X3563189D02*
D03*
X3681299D02*
D03*
X4000591D02*
D03*
X4118701D02*
D03*
X1625945D02*
D03*
X1744055D02*
D03*
D25*
X3961732Y3530276D02*
D03*
Y3630276D02*
D03*
Y3730276D02*
D03*
Y3830276D02*
D03*
X-363268Y3715276D02*
D03*
Y3615276D02*
D03*
Y4365276D02*
D03*
Y4265276D02*
D03*
D26*
X4301811Y3159016D02*
D03*
Y3040905D02*
D03*
Y2922795D02*
D03*
Y2804685D02*
D03*
Y2686575D02*
D03*
Y2568465D02*
D03*
X4419921Y3159016D02*
D03*
Y3040905D02*
D03*
Y2922795D02*
D03*
Y2804685D02*
D03*
Y2686575D02*
D03*
Y2568465D02*
D03*
D27*
X2208150Y2176299D02*
D03*
X2405000Y2570000D02*
D03*
X2208150Y3160551D02*
D03*
X2405000Y2766850D02*
D03*
D28*
X3661417Y2696850D02*
D03*
X2933071Y3838583D02*
D03*
X2880472Y2908869D02*
D03*
X3121338Y3511102D02*
D03*
X2817084Y3452047D02*
D03*
D29*
X2997126Y3924843D02*
D03*
X1068305Y3635714D02*
D03*
X1155409Y3888900D02*
D03*
X1744055Y3356479D02*
D03*
X899170Y4112740D02*
D03*
X988353Y3784939D02*
D03*
X568403Y3748459D02*
D03*
X885227Y3518559D02*
D03*
X1890385Y4000482D02*
D03*
X1657963Y2507335D02*
D03*
X1528187Y3311577D02*
D03*
X3306544Y3250181D02*
D03*
X3397953Y3249294D02*
D03*
X3844449Y4310669D02*
D03*
X2841299Y3741417D02*
D03*
X3258457Y2888511D02*
D03*
X2708624Y3667207D02*
D03*
X3220787Y4058701D02*
D03*
X3248597Y4271074D02*
D03*
X3299528Y2760800D02*
D03*
X3247163Y2707330D02*
D03*
X3569331Y3086854D02*
D03*
X3371174Y3080920D02*
D03*
X3123148Y3082282D02*
D03*
X3205910Y3080920D02*
D03*
X3781722Y3609519D02*
D03*
X3338898Y3532126D02*
D03*
X3282562Y3593890D02*
D03*
X3397954Y3916455D02*
D03*
X3279843Y3688268D02*
D03*
X3210354Y3707499D02*
D03*
X4390000Y3308189D02*
D03*
D30*
X788708Y3688482D02*
D03*
D31*
X654850Y3577262D02*
D03*
Y3602852D02*
D03*
Y3628443D02*
D03*
Y3756395D02*
D03*
Y3781986D02*
D03*
Y3807577D02*
D03*
X887133Y3577262D02*
D03*
Y3602852D02*
D03*
Y3628443D02*
D03*
Y3654033D02*
D03*
Y3679624D02*
D03*
Y3705214D02*
D03*
Y3730805D02*
D03*
Y3756395D02*
D03*
Y3781986D02*
D03*
Y3807577D02*
D03*
D32*
X3050945Y3192805D02*
D03*
Y3139655D02*
D03*
X3092030Y4118740D02*
D03*
Y4065591D02*
D03*
X3110731Y4217165D02*
D03*
Y4270315D02*
D03*
X4290000Y3903425D02*
D03*
Y3956575D02*
D03*
X4024410Y4413740D02*
D03*
Y4360591D02*
D03*
X3935000Y4413740D02*
D03*
Y4360591D02*
D03*
X1054525Y3767800D02*
D03*
Y3714650D02*
D03*
X1404932Y4104866D02*
D03*
Y4158016D02*
D03*
D33*
X1527833Y3604883D02*
D03*
X1651848D02*
D03*
X1808692Y4078292D02*
D03*
X1932708D02*
D03*
D34*
X3500000Y2640000D02*
D03*
X3955000Y2625000D02*
D03*
D35*
X3575000Y2797480D02*
D03*
X3525000D02*
D03*
X3475000D02*
D03*
X3425000D02*
D03*
X4030000Y2782480D02*
D03*
X3980000D02*
D03*
X3930000D02*
D03*
X3880000D02*
D03*
D36*
X1245960Y4104867D02*
D03*
X1155409D02*
D03*
D37*
X1663179Y4208213D02*
D03*
Y4092071D02*
D03*
D38*
X1402845Y4238817D02*
D03*
X1387845Y4333817D02*
D03*
D39*
X127739Y3838353D02*
D03*
Y3901345D02*
D03*
D40*
X2685000Y2580000D02*
D03*
Y2670551D02*
D03*
Y2761102D02*
D03*
D41*
X2936968Y2670551D02*
D03*
D42*
X2162645Y3567207D02*
D03*
Y3667207D02*
D03*
X2513039Y3567207D02*
D03*
Y3667207D02*
D03*
D43*
X3010000Y4057716D02*
D03*
X2960000D02*
D03*
X2910000D02*
D03*
X2860000D02*
D03*
X2810000D02*
D03*
X2760000D02*
D03*
X2710000D02*
D03*
X2660000D02*
D03*
X3010000Y4272283D02*
D03*
X2960000D02*
D03*
X2910000D02*
D03*
X2860000D02*
D03*
X2810000D02*
D03*
X2760000D02*
D03*
X2710000D02*
D03*
X2660000D02*
D03*
D44*
X3790315Y3347559D02*
D03*
X3711575Y3384961D02*
D03*
Y3310157D02*
D03*
D45*
X4045117Y3268819D02*
D03*
X4082518Y3347559D02*
D03*
X4007715D02*
D03*
D46*
X3844449Y4216181D02*
D03*
X3935000D02*
D03*
X4025551D02*
D03*
X4380551Y4101535D02*
D03*
X4290000D02*
D03*
X4199449D02*
D03*
D47*
X3935000Y3968150D02*
D03*
X4290000Y4349567D02*
D03*
D48*
X2988464Y2872283D02*
D03*
Y2891968D02*
D03*
Y2911653D02*
D03*
Y2931338D02*
D03*
Y2951024D02*
D03*
Y2970709D02*
D03*
Y2990394D02*
D03*
Y3010079D02*
D03*
X3163661Y2872283D02*
D03*
Y2891968D02*
D03*
Y2911653D02*
D03*
Y2931338D02*
D03*
Y2951024D02*
D03*
Y2970709D02*
D03*
Y2990394D02*
D03*
Y3010079D02*
D03*
X3043622Y3727638D02*
D03*
Y3707953D02*
D03*
Y3688268D02*
D03*
Y3668583D02*
D03*
Y3648898D02*
D03*
Y3629213D02*
D03*
Y3609528D02*
D03*
Y3589843D02*
D03*
Y3570157D02*
D03*
Y3550472D02*
D03*
Y3530787D02*
D03*
Y3511102D02*
D03*
Y3491417D02*
D03*
Y3471732D02*
D03*
Y3452047D02*
D03*
Y3432362D02*
D03*
X3496378D02*
D03*
Y3452047D02*
D03*
Y3471732D02*
D03*
Y3491417D02*
D03*
Y3511102D02*
D03*
Y3530787D02*
D03*
Y3550472D02*
D03*
Y3570157D02*
D03*
Y3589843D02*
D03*
Y3609528D02*
D03*
Y3629213D02*
D03*
Y3648898D02*
D03*
Y3668583D02*
D03*
Y3688268D02*
D03*
Y3707953D02*
D03*
Y3727638D02*
D03*
D49*
X3417638Y3806378D02*
D03*
X3397953D02*
D03*
X3378268D02*
D03*
X3358583D02*
D03*
X3338898D02*
D03*
X3319213D02*
D03*
X3299528D02*
D03*
X3279843D02*
D03*
X3260157D02*
D03*
X3240472D02*
D03*
X3220787D02*
D03*
X3201102D02*
D03*
X3181417D02*
D03*
X3161732D02*
D03*
X3142047D02*
D03*
X3122362D02*
D03*
Y3353622D02*
D03*
X3142047D02*
D03*
X3161732D02*
D03*
X3181417D02*
D03*
X3201102D02*
D03*
X3220787D02*
D03*
X3240472D02*
D03*
X3260157D02*
D03*
X3279843D02*
D03*
X3299528D02*
D03*
X3319213D02*
D03*
X3338898D02*
D03*
X3358583D02*
D03*
X3378268D02*
D03*
X3397953D02*
D03*
X3417638D02*
D03*
D50*
X-389202Y2406565D02*
X-271092D01*
X-161150Y3817393D02*
X233188D01*
X447729Y3602852D01*
X590261D01*
X654850D01*
X-363268Y3615276D02*
X-161150Y3817393D01*
X590261Y3602852D02*
X615480Y3577634D01*
X654478D01*
X654850Y3577262D01*
X590261Y3602852D02*
X615480Y3628070D01*
X654478D01*
X654850Y3628443D01*
D51*
X4151772Y3347559D02*
X4191575Y3387362D01*
X4082518Y3347559D02*
X4151772D01*
X4045117Y3268819D02*
X4045117Y3268818D01*
Y3147205D02*
Y3268818D01*
Y3147205D02*
X4045118Y3147205D01*
X4195512D02*
X4301811Y3040905D01*
X4045118Y3147205D02*
X4195512D01*
D52*
X890199Y3807577D02*
X893152Y3810529D01*
X887133Y3807577D02*
X890199D01*
D53*
X3500000Y2478594D02*
Y2640000D01*
X3500000Y2640000D02*
X3500000Y2640000D01*
Y2478594D02*
X3563189Y2415405D01*
Y2410079D02*
Y2415405D01*
X3955000Y2460996D02*
Y2625000D01*
X3955000Y2625000D02*
X3955000Y2625000D01*
Y2460996D02*
X4000591Y2415405D01*
Y2410079D02*
Y2415405D01*
%TF.MD5,bb83b97e2d1ac577698402fdf9955e57*%
M02*
