%TF.GenerationSoftware,Altium Limited,Altium Designer,19.1.8 (144)*%
G04 Layer_Color=32768*
%FSLAX26Y26*%
%MOIN*%
%TF.FileFunction,Other,Mechanical_15*%
%TF.Part,Single*%
G01*
G75*
%TA.AperFunction,NonConductor*%
%ADD20C,0.003937*%
%ADD96C,0.001968*%
D20*
X780834Y3692852D02*
X790677D01*
X751307D02*
X761149D01*
X780834D01*
X770991Y3673167D02*
Y3712537D01*
X2884604Y3511102D02*
X2922005D01*
X2903304Y3492402D02*
Y3529803D01*
X3050945Y3147529D02*
Y3184931D01*
X3032244Y3166230D02*
X3069646D01*
X3103662Y2761102D02*
X3141063D01*
X3122362Y2742402D02*
Y2779803D01*
X1570155Y3604883D02*
X1609525D01*
X1589841Y3585198D02*
Y3624568D01*
X3309272Y2934818D02*
X3346674D01*
X3327973Y2916117D02*
Y2953519D01*
X3660000Y2753189D02*
Y2790591D01*
X3641299Y2771890D02*
X3678701D01*
X3480315Y2691181D02*
X3519685D01*
X3500000Y2671496D02*
Y2710866D01*
X3935315Y2676181D02*
X3974685D01*
X3955000Y2656496D02*
Y2695866D01*
X3875551Y3347559D02*
X3912953D01*
X3894252Y3328858D02*
Y3366260D01*
X3978454Y3085619D02*
Y3123020D01*
X3959753Y3104320D02*
X3997155D01*
X3198430Y2521537D02*
Y2558939D01*
X3179729Y2540238D02*
X3217131D01*
X3790315Y3082244D02*
X3829685D01*
X3810000Y3062559D02*
Y3101929D01*
X3810709Y2723071D02*
X3850079D01*
X3830394Y2703386D02*
Y2742756D01*
X4021693Y2658662D02*
X4059094D01*
X4040394Y2639961D02*
Y2677362D01*
X3586850Y3008228D02*
X3624252D01*
X3605551Y2989528D02*
Y3026929D01*
X3210354Y2845551D02*
X3249724D01*
X3230039Y2825866D02*
Y2865236D01*
X3631145Y3086299D02*
Y3123701D01*
X3612445Y3105000D02*
X3649846D01*
X1200684Y4085182D02*
Y4124552D01*
X1180999Y4104867D02*
X1220369D01*
X1392812Y3648506D02*
Y3685908D01*
X1374111Y3667207D02*
X1411513D01*
X1277846Y3794280D02*
Y3831681D01*
X1259145Y3812981D02*
X1296547D01*
X1477225Y3870199D02*
X1514627D01*
X1495926Y3851498D02*
Y3888900D01*
X1663179Y4130457D02*
Y4169827D01*
X1643494Y4150142D02*
X1682864D01*
X354539Y4169827D02*
X391940D01*
X373240Y4151126D02*
Y4188528D01*
X108054Y3869849D02*
X147424D01*
X127739Y3850164D02*
Y3889534D01*
X4021693Y2788661D02*
X4059094D01*
X4040394Y2769961D02*
Y2807362D01*
X4021693Y2864370D02*
Y2901772D01*
X4002992Y2883071D02*
X4040394D01*
X3875669Y2864370D02*
Y2901772D01*
X3856968Y2883071D02*
X3894370D01*
X3696535Y2853583D02*
Y2890984D01*
X3677834Y2872283D02*
X3715236D01*
X2831454Y2965000D02*
X2868855D01*
X2850155Y2946299D02*
Y2983701D01*
X2841299Y3040000D02*
X2878701D01*
X2860000Y3021299D02*
Y3058701D01*
X4110000Y2736890D02*
Y2774291D01*
X4091299Y2755591D02*
X4128701D01*
X2318157Y3617207D02*
X2357527D01*
X2337842Y3597522D02*
Y3636892D01*
X2766890Y3924843D02*
X2804291D01*
X2785591Y3906142D02*
Y3943543D01*
X3092030Y4073465D02*
Y4110866D01*
X3073330Y4092165D02*
X3110731D01*
X2835000Y4145315D02*
Y4184685D01*
X2815315Y4165000D02*
X2854685D01*
X3110731Y4225039D02*
Y4262441D01*
X3092030Y4243740D02*
X3129432D01*
X3586854Y3310157D02*
X3624256D01*
X3605555Y3291457D02*
Y3328858D01*
X3750945Y3327874D02*
Y3367244D01*
X3731260Y3347559D02*
X3770630D01*
X4045118Y3102913D02*
Y3140315D01*
X4026417Y3121614D02*
X4063819D01*
X4025432Y3308189D02*
X4064802D01*
X4045117Y3288504D02*
Y3327874D01*
X4146299Y3892165D02*
X4183701D01*
X4165000Y3873465D02*
Y3910866D01*
X4290000Y3911299D02*
Y3948701D01*
X4271299Y3930000D02*
X4308701D01*
X3935000Y4072480D02*
Y4111850D01*
X3915315Y4092165D02*
X3954685D01*
X4024410Y4368465D02*
Y4405866D01*
X4005709Y4387165D02*
X4043110D01*
X3935000Y4368465D02*
Y4405866D01*
X3916299Y4387165D02*
X3953701D01*
X4290000Y4205866D02*
Y4245236D01*
X4270315Y4225551D02*
X4309685D01*
X1110133Y3990640D02*
X1147535D01*
X1128834Y3971939D02*
Y4009340D01*
X1536691Y3421155D02*
X1574092D01*
X1555392Y3402454D02*
Y3439856D01*
X2969764Y3253788D02*
X3007165D01*
X2988464Y3235087D02*
Y3272489D01*
X3619882Y3618898D02*
Y3656299D01*
X3601181Y3637599D02*
X3638583D01*
X3619882Y3552008D02*
Y3589409D01*
X3601181Y3570709D02*
X3638583D01*
X3270000Y3560315D02*
Y3599685D01*
X3250315Y3580000D02*
X3289685D01*
X3619882Y3483898D02*
Y3521299D01*
X3601181Y3502599D02*
X3638583D01*
X790677Y3973907D02*
Y4011309D01*
X771976Y3992608D02*
X809377D01*
X1035824Y3741225D02*
X1073226D01*
X1054525Y3722524D02*
Y3759926D01*
X1386231Y4131441D02*
X1423632D01*
X1404932Y4112740D02*
Y4150142D01*
X1137689Y4224325D02*
Y4261726D01*
X1118988Y4243025D02*
X1156390D01*
X925745Y4226524D02*
Y4263926D01*
X907044Y4245225D02*
X944446D01*
X1851015Y4078292D02*
X1890385D01*
X1870700Y4058607D02*
Y4097977D01*
X1889401Y3580517D02*
Y3617919D01*
X1870700Y3599218D02*
X1908102D01*
X2891336Y3910942D02*
X2928738D01*
X2910037Y3892241D02*
Y3929642D01*
X1361740Y3048374D02*
X1401110D01*
X1381425Y3028689D02*
Y3068059D01*
D96*
X614495Y3568403D02*
Y3816435D01*
X927488Y3568403D02*
Y3816435D01*
X614495Y3568403D02*
X927488D01*
X614495Y3816435D02*
X927488D01*
X2850155Y3481575D02*
Y3540630D01*
X2956454Y3481575D02*
Y3540630D01*
X2850155Y3481575D02*
X2956454D01*
X2850155Y3540630D02*
X2956454D01*
X3021417Y3219380D02*
X3080472D01*
X3021417Y3113081D02*
X3080472D01*
X3021417D02*
Y3219380D01*
X3080472Y3113081D02*
Y3219380D01*
X3069213Y2731575D02*
Y2790630D01*
X3175512Y2731575D02*
Y2790630D01*
X3069213Y2731575D02*
X3175512D01*
X3069213Y2790630D02*
X3175512D01*
X1498305Y3559607D02*
Y3650158D01*
X1681376Y3559607D02*
Y3650158D01*
X1498305Y3559607D02*
X1681376D01*
X1498305Y3650158D02*
X1681376D01*
X3274823Y2905290D02*
Y2964345D01*
X3381123Y2905290D02*
Y2964345D01*
X3274823Y2905290D02*
X3381123D01*
X3274823Y2964345D02*
X3381123D01*
X3630472Y2718740D02*
X3689528D01*
X3630472Y2825039D02*
X3689528D01*
Y2718740D02*
Y2825039D01*
X3630472Y2718740D02*
Y2825039D01*
X3618110Y2527795D02*
Y2854567D01*
X3381890Y2527795D02*
Y2854567D01*
Y2527795D02*
X3618110D01*
X3381890Y2854567D02*
X3618110D01*
X4073110Y2512795D02*
Y2839567D01*
X3836890Y2512795D02*
Y2839567D01*
Y2512795D02*
X4073110D01*
X3836890Y2839567D02*
X4073110D01*
X3947402Y3318032D02*
Y3377087D01*
X3841102Y3318032D02*
Y3377087D01*
X3947402D01*
X3841102Y3318032D02*
X3947402D01*
X3948926Y3157469D02*
X4007981D01*
X3948926Y3051170D02*
X4007981D01*
Y3157469D01*
X3948926Y3051170D02*
Y3157469D01*
X3145280Y2569765D02*
X3251580D01*
X3145280Y2510710D02*
X3251580D01*
X3145280D02*
Y2569765D01*
X3251580Y2510710D02*
Y2569765D01*
X3681063Y2954291D02*
Y3210197D01*
Y2954291D02*
X3938937D01*
Y3210197D01*
X3681063D02*
X3938937D01*
X3684724Y2614803D02*
Y2831339D01*
X3976063Y2614803D02*
Y2831339D01*
X3684724D02*
X3976063D01*
X3684724Y2614803D02*
X3976063D01*
X4069921Y2605512D02*
Y2711811D01*
X4010866Y2605512D02*
Y2711811D01*
X4069921D01*
X4010866Y2605512D02*
X4069921D01*
X3552402Y2978701D02*
Y3037756D01*
X3658701Y2978701D02*
Y3037756D01*
X3552402D02*
X3658701D01*
X3552402Y2978701D02*
X3658701D01*
X3434764Y2591614D02*
Y3099488D01*
X3025315D02*
X3434764D01*
X3025315Y2591614D02*
Y3099488D01*
Y2591614D02*
X3434764D01*
X3601618Y3158150D02*
X3660673D01*
X3601618Y3051850D02*
X3660673D01*
Y3158150D01*
X3601618Y3051850D02*
Y3158150D01*
X1134739Y4138332D02*
X1266629D01*
X1134739Y4071403D02*
X1266629D01*
Y4138332D01*
X1134739Y4071403D02*
Y4138332D01*
X1363284Y3720357D02*
X1422339D01*
X1363284Y3614057D02*
X1422339D01*
X1363284D02*
Y3720357D01*
X1422339Y3614057D02*
Y3720357D01*
X1248319Y3759831D02*
X1307374D01*
X1248319Y3866130D02*
X1307374D01*
Y3759831D02*
Y3866130D01*
X1248319Y3759831D02*
Y3866130D01*
X1442776Y3840671D02*
Y3899727D01*
X1549076Y3840671D02*
Y3899727D01*
X1442776Y3840671D02*
X1549076D01*
X1442776Y3899727D02*
X1549076D01*
X1617904Y4242662D02*
X1708455D01*
X1617904Y4057622D02*
X1708455D01*
X1617904D02*
Y4242662D01*
X1708455Y4057622D02*
Y4242662D01*
X320090Y4140300D02*
Y4199355D01*
X426389Y4140300D02*
Y4199355D01*
X320090Y4140300D02*
X426389D01*
X320090Y4199355D02*
X426389D01*
X165141Y3802920D02*
Y3936778D01*
X90337Y3802920D02*
Y3936778D01*
Y3802920D02*
X165141D01*
X90337Y3936778D02*
X165141D01*
X4010866Y2735512D02*
Y2841811D01*
X4069921Y2735512D02*
Y2841811D01*
X4010866Y2735512D02*
X4069921D01*
X4010866Y2841811D02*
X4069921D01*
X3968543Y2912599D02*
X4074842D01*
X3968543Y2853543D02*
X4074842D01*
X3968543D02*
Y2912599D01*
X4074842Y2853543D02*
Y2912599D01*
X3822519Y2912598D02*
X3928819D01*
X3822519Y2853543D02*
X3928819D01*
X3822519D02*
Y2912598D01*
X3928819Y2853543D02*
Y2912598D01*
X3643386Y2842756D02*
X3749685D01*
X3643386Y2901811D02*
X3749685D01*
Y2842756D02*
Y2901811D01*
X3643386Y2842756D02*
Y2901811D01*
X2797005Y2935472D02*
Y2994528D01*
X2903304Y2935472D02*
Y2994528D01*
X2797005Y2935472D02*
X2903304D01*
X2797005Y2994528D02*
X2903304D01*
X2806850Y3010472D02*
Y3069528D01*
X2913150Y3010472D02*
Y3069528D01*
X2806850Y3010472D02*
X2913150D01*
X2806850Y3069528D02*
X2913150D01*
X4080472Y2702441D02*
X4139528D01*
X4080472Y2808740D02*
X4139528D01*
Y2702441D02*
Y2808740D01*
X4080472Y2702441D02*
Y2808740D01*
X2124259Y3516813D02*
Y3717601D01*
X2551425Y3516813D02*
Y3717601D01*
X2124259Y3516813D02*
X2551425D01*
X2124259Y3717601D02*
X2551425D01*
X2732441Y3895315D02*
Y3954370D01*
X2838740Y3895315D02*
Y3954370D01*
X2732441Y3895315D02*
X2838740D01*
X2732441Y3954370D02*
X2838740D01*
X3062503Y4145315D02*
X3121558D01*
X3062503Y4039016D02*
X3121558D01*
X3062503D02*
Y4145315D01*
X3121558Y4039016D02*
Y4145315D01*
X2628307Y4019331D02*
X3041693D01*
X2628307Y4310669D02*
X3041693D01*
Y4019331D02*
Y4310669D01*
X2628307Y4019331D02*
Y4310669D01*
X3081204Y4190591D02*
X3140259D01*
X3081204Y4296890D02*
X3140259D01*
Y4190591D02*
Y4296890D01*
X3081204Y4190591D02*
Y4296890D01*
X3658704Y3280630D02*
Y3339685D01*
X3552405Y3280630D02*
Y3339685D01*
X3658704D01*
X3552405Y3280630D02*
X3658704D01*
X3675157Y3416457D02*
X3826732D01*
X3675157Y3278661D02*
X3826732D01*
Y3416457D01*
X3675157Y3278661D02*
Y3416457D01*
X4015591Y3068464D02*
X4074646D01*
X4015591Y3174764D02*
X4074646D01*
Y3068464D02*
Y3174764D01*
X4015591Y3068464D02*
Y3174764D01*
X4114014Y3232402D02*
Y3383976D01*
X3976219Y3232402D02*
Y3383976D01*
Y3232402D02*
X4114014D01*
X3976219Y3383976D02*
X4114014D01*
X4111850Y3862638D02*
Y3921693D01*
X4218150Y3862638D02*
Y3921693D01*
X4111850Y3862638D02*
X4218150D01*
X4111850Y3921693D02*
X4218150D01*
X4260472Y3876850D02*
X4319528D01*
X4260472Y3983150D02*
X4319528D01*
Y3876850D02*
Y3983150D01*
X4260472Y3876850D02*
Y3983150D01*
X3793268Y4259488D02*
X4076732D01*
X3793268Y3924843D02*
X4076732D01*
X3793268D02*
Y4259488D01*
X4076732Y3924843D02*
Y4259488D01*
X3994882Y4440315D02*
X4053937D01*
X3994882Y4334016D02*
X4053937D01*
X3994882D02*
Y4440315D01*
X4053937Y4334016D02*
Y4440315D01*
X3905472D02*
X3964528D01*
X3905472Y4334016D02*
X3964528D01*
X3905472D02*
Y4440315D01*
X3964528Y4334016D02*
Y4440315D01*
X4148268Y4058228D02*
X4431732D01*
X4148268Y4392874D02*
X4431732D01*
Y4058228D02*
Y4392874D01*
X4148268Y4058228D02*
Y4392874D01*
X1181984Y3961112D02*
Y4020167D01*
X1075684Y3961112D02*
Y4020167D01*
X1181984D01*
X1075684Y3961112D02*
X1181984D01*
X1502242Y3391627D02*
Y3450682D01*
X1608541Y3391627D02*
Y3450682D01*
X1502242Y3391627D02*
X1608541D01*
X1502242Y3450682D02*
X1608541D01*
X2958937Y3200638D02*
Y3306938D01*
X3017992Y3200638D02*
Y3306938D01*
X2958937D02*
X3017992D01*
X2958937Y3200638D02*
X3017992D01*
X3566732Y3608071D02*
X3673032D01*
X3566732Y3667126D02*
X3673032D01*
X3566732Y3608071D02*
Y3667126D01*
X3673032Y3608071D02*
Y3667126D01*
X3566732Y3541181D02*
X3673032D01*
X3566732Y3600236D02*
X3673032D01*
X3566732Y3541181D02*
Y3600236D01*
X3673032Y3541181D02*
Y3600236D01*
X3008189Y3318189D02*
X3531811D01*
X3008189Y3841811D02*
X3531811D01*
X3008189Y3318189D02*
Y3841811D01*
X3531811Y3318189D02*
Y3841811D01*
X3566732Y3473071D02*
X3673032D01*
X3566732Y3532126D02*
X3673032D01*
X3566732Y3473071D02*
Y3532126D01*
X3673032Y3473071D02*
Y3532126D01*
X737527Y4022136D02*
X843826D01*
X737527Y3963081D02*
X843826D01*
Y4022136D01*
X737527Y3963081D02*
Y4022136D01*
X1024997Y3688075D02*
Y3794375D01*
X1084053Y3688075D02*
Y3794375D01*
X1024997D02*
X1084053D01*
X1024997Y3688075D02*
X1084053D01*
X1434459Y4078292D02*
Y4184591D01*
X1375404Y4078292D02*
Y4184591D01*
Y4078292D02*
X1434459D01*
X1375404Y4184591D02*
X1434459D01*
X1084539Y4272553D02*
X1190839D01*
X1084539Y4213498D02*
X1190839D01*
Y4272553D01*
X1084539Y4213498D02*
Y4272553D01*
X872596Y4215697D02*
X978895D01*
X872596Y4274752D02*
X978895D01*
X872596Y4215697D02*
Y4274752D01*
X978895Y4215697D02*
Y4274752D01*
X1779165Y4033017D02*
Y4123568D01*
X1962236Y4033017D02*
Y4123568D01*
X1779165Y4033017D02*
X1962236D01*
X1779165Y4123568D02*
X1962236D01*
X1836251Y3628745D02*
X1942551D01*
X1836251Y3569690D02*
X1942551D01*
Y3628745D01*
X1836251Y3569690D02*
Y3628745D01*
X2880510Y3857792D02*
Y3964091D01*
X2939565Y3857792D02*
Y3964091D01*
X2880510D02*
X2939565D01*
X2880510Y3857792D02*
X2939565D01*
X1095008Y2837744D02*
Y3259004D01*
X1667842Y2837744D02*
Y3259004D01*
X1095008D02*
X1667842D01*
X1095008Y2837744D02*
X1667842D01*
%TF.MD5,e47da8227a190901d4d501fcd6a9462e*%
M02*
