G04*
G04 #@! TF.GenerationSoftware,Altium Limited,Altium Designer,19.1.8 (144)*
G04*
G04 Layer_Physical_Order=1*
G04 Layer_Color=255*
%FSLAX25Y25*%
%MOIN*%
G70*
G01*
G75*
%ADD16C,0.01000*%
%ADD17R,0.03347X0.03740*%
%ADD18R,0.03740X0.03347*%
%ADD19R,0.06575X0.02992*%
%ADD20R,0.08071X0.04528*%
%ADD21R,0.05118X0.04331*%
%ADD22O,0.06299X0.01339*%
%ADD23R,0.04528X0.08071*%
%ADD24R,0.03937X0.03543*%
%ADD25R,0.04331X0.05118*%
G04:AMPARAMS|DCode=26|XSize=19.68mil|YSize=29.53mil|CornerRadius=4.92mil|HoleSize=0mil|Usage=FLASHONLY|Rotation=0.000|XOffset=0mil|YOffset=0mil|HoleType=Round|Shape=RoundedRectangle|*
%AMROUNDEDRECTD26*
21,1,0.01968,0.01968,0,0,0.0*
21,1,0.00984,0.02953,0,0,0.0*
1,1,0.00984,0.00492,-0.00984*
1,1,0.00984,-0.00492,-0.00984*
1,1,0.00984,-0.00492,0.00984*
1,1,0.00984,0.00492,0.00984*
%
%ADD26ROUNDEDRECTD26*%
%ADD41C,0.00800*%
%ADD42C,0.02000*%
%ADD43C,0.01500*%
%ADD44C,0.05118*%
%ADD45C,0.13780*%
%ADD46C,0.06890*%
%ADD47C,0.03000*%
D16*
X90006Y232185D02*
Y233222D01*
Y151870D02*
Y152908D01*
Y31398D02*
Y32435D01*
X112402Y14370D02*
X112500Y14469D01*
X112303D02*
X112402Y14370D01*
X90006Y192028D02*
Y193065D01*
Y111713D02*
Y112750D01*
X70635Y7579D02*
X127264D01*
X63906Y14308D02*
X70635Y7579D01*
X63906Y14308D02*
Y14327D01*
X62423Y15810D02*
X63906Y14327D01*
X127264Y7579D02*
X134055Y14370D01*
X75931Y241496D02*
Y241988D01*
Y241004D02*
Y241496D01*
X160825Y136713D02*
X164764D01*
X157863Y139675D02*
X160825Y136713D01*
X157863Y139675D02*
Y143629D01*
X182185Y168209D02*
X182382D01*
X181988D02*
X182185D01*
X186907Y138049D02*
X187746D01*
X186907Y142857D02*
X189725D01*
X191100Y144231D01*
X182185Y161811D02*
X182382D01*
X181988D02*
X182185D01*
X200295Y178543D02*
Y178740D01*
Y178347D02*
Y178543D01*
X186894Y113035D02*
X187719D01*
X186894Y117867D02*
X189722D01*
X196146Y124291D01*
Y176587D01*
X193996Y178543D02*
Y178740D01*
Y178347D02*
Y178543D01*
X186894Y117867D02*
Y117870D01*
X184311Y120453D02*
X186894Y117870D01*
X154428Y91976D02*
X157724D01*
X170123Y104375D01*
Y108224D01*
X169113Y109233D02*
X170123Y108224D01*
X164783Y109233D02*
X169113D01*
X164764Y109252D02*
X164783Y109233D01*
X152990Y91976D02*
X154428D01*
X132929Y150663D02*
X135951D01*
X128347Y155245D02*
X132929Y150663D01*
X128347Y155245D02*
Y221959D01*
X132635Y148694D02*
X135951D01*
X126747Y154583D02*
X132635Y148694D01*
X126747Y154583D02*
Y219316D01*
X132413Y146653D02*
X133268D01*
X125147Y153920D02*
X132413Y146653D01*
X125147Y153920D02*
Y215056D01*
X132119Y144685D02*
X133268D01*
X123547Y153257D02*
X132119Y144685D01*
X123547Y153257D02*
Y210902D01*
X131825Y142717D02*
X133268D01*
X121947Y152594D02*
X131825Y142717D01*
X121947Y152594D02*
Y198177D01*
X131530Y140748D02*
X133268D01*
X120347Y151932D02*
X131530Y140748D01*
X120347Y151932D02*
Y194024D01*
X131236Y138779D02*
X133268D01*
X118747Y151269D02*
X131236Y138779D01*
X118747Y151269D02*
Y181299D01*
X130942Y136811D02*
X133268D01*
X117147Y150606D02*
X130942Y136811D01*
X117147Y150606D02*
Y177145D01*
X130648Y134843D02*
X133268D01*
X115547Y149943D02*
X130648Y134843D01*
X115547Y149943D02*
Y164420D01*
X130353Y132874D02*
X133268D01*
X108465Y154763D02*
X130353Y132874D01*
X108465Y154763D02*
Y165945D01*
X166929Y194488D02*
Y199606D01*
X157972Y185531D02*
X166929Y194488D01*
X157972Y183169D02*
Y185531D01*
X121735Y71297D02*
Y100277D01*
X132385Y113189D02*
X133268D01*
X118535Y101602D02*
X132091Y115157D01*
X104966Y175000D02*
X115547Y164420D01*
X177987Y166010D02*
X180229D01*
X75448Y156821D02*
X76923Y155347D01*
X75448Y176900D02*
X76923Y175425D01*
X75448Y217057D02*
X76923Y215583D01*
X75448Y237136D02*
X76923Y235661D01*
X75448Y196979D02*
X76923Y195504D01*
X75448Y136743D02*
X76923Y135268D01*
X90006Y71555D02*
Y72593D01*
X75923Y116189D02*
X76923Y115189D01*
X75448Y36349D02*
X76923Y34874D01*
X100405Y45680D02*
X100787Y46063D01*
X75923Y96110D02*
X76923Y95110D01*
X100246Y105905D02*
X100787D01*
X98467Y104126D02*
X100246Y105905D01*
X96252Y104126D02*
X98467D01*
X100246Y85827D02*
X100787D01*
X98467Y84047D02*
X100246Y85827D01*
X96252Y84047D02*
X98467D01*
X100049Y125984D02*
X100591D01*
X98270Y124205D02*
X100049Y125984D01*
X100246Y25591D02*
X100787D01*
X98467Y23811D02*
X100246Y25591D01*
X96252Y23811D02*
X98467D01*
X75923Y76032D02*
X76923Y75032D01*
X182520Y145453D02*
X184311D01*
X186907Y142857D01*
X182520Y135453D02*
X184311D01*
X186907Y138049D01*
X187746D02*
X193100Y143403D01*
X178815Y164010D02*
X180229D01*
X180815Y167035D02*
X181988Y168209D01*
X180815Y166596D02*
Y167035D01*
X157783Y143709D02*
X157863Y143629D01*
X100049Y145866D02*
X100591D01*
X98467Y144283D02*
X100049Y145866D01*
X96252Y144283D02*
X98467D01*
X100049Y165945D02*
X100591D01*
X98467Y164362D02*
X100049Y165945D01*
X96252Y164362D02*
X98467D01*
X99853Y185827D02*
X100394D01*
X98467Y184441D02*
X99853Y185827D01*
X96252Y184441D02*
X98467D01*
X99853Y205906D02*
X100394D01*
X98467Y204520D02*
X99853Y205906D01*
X96252Y204520D02*
X98467D01*
X75923Y55953D02*
X76923Y54953D01*
X99853Y225984D02*
X100394D01*
X98467Y224598D02*
X99853Y225984D01*
X96252Y224598D02*
X98467D01*
X100246Y65748D02*
X100787D01*
X98467Y63968D02*
X100246Y65748D01*
X96252Y63968D02*
X98467D01*
X75923Y15795D02*
X76923Y14795D01*
X104868Y14469D02*
X112303D01*
X112500D02*
X119095D01*
X120135Y100939D02*
X132385Y113189D01*
X120135Y77616D02*
Y100939D01*
X108268Y65748D02*
X120135Y77616D01*
X104966Y74606D02*
X118535Y88175D01*
Y101602D01*
X104966Y154921D02*
X128982Y130905D01*
X133268D01*
X135951Y150663D02*
X136024Y150591D01*
X169767Y152591D02*
X171270Y154094D01*
X164764Y150591D02*
X170595D01*
X164764Y152559D02*
X164795Y152591D01*
X104966Y215158D02*
X121947Y198177D01*
X104966Y235236D02*
X125147Y215056D01*
X111026Y239280D02*
X128347Y221959D01*
X135951Y148694D02*
X136024Y148622D01*
X112598Y233465D02*
X126747Y219316D01*
X125000Y128937D02*
X133268D01*
X104770Y140157D02*
Y154921D01*
X95079Y143110D02*
X96252Y144283D01*
X75931Y241004D02*
X82494Y234441D01*
X151083Y162697D02*
X151378Y162402D01*
X157874D01*
X162589Y185138D02*
X172244Y194792D01*
Y199508D01*
X174870Y145864D02*
Y162893D01*
X164795Y140779D02*
X169786D01*
X176870Y145035D02*
Y162065D01*
X178815Y164010D01*
X182520Y120453D02*
X184311D01*
X182520Y110453D02*
X184311D01*
X198146Y123462D02*
Y176587D01*
X192029Y188858D02*
X198146Y182742D01*
X186512Y188858D02*
X192029D01*
X177675Y179830D02*
Y180022D01*
X171270Y173425D02*
X177675Y179830D01*
Y180022D02*
X186512Y188858D01*
X187340Y186858D02*
X191201D01*
X196146Y181913D01*
X173270Y172597D02*
X179675Y179001D01*
Y179193D02*
X187340Y186858D01*
X170595Y150591D02*
X173270Y153265D01*
X183555Y163424D02*
X184141Y164010D01*
X183555Y162984D02*
Y163424D01*
X182382Y161811D02*
X183555Y162984D01*
X180815D02*
Y163424D01*
X184141Y164010D02*
X185555D01*
X191100Y158465D01*
Y144231D02*
Y158465D01*
X180815Y162984D02*
X181988Y161811D01*
X164764Y138779D02*
X170614D01*
X176870Y145035D01*
X180229Y164010D02*
X180815Y163424D01*
X182382Y168209D02*
X183555Y167035D01*
X169786Y140779D02*
X174870Y145864D01*
X183555Y166596D02*
Y167035D01*
X186383Y166010D02*
X193100Y159294D01*
X183555Y166596D02*
X184141Y166010D01*
X193100Y143403D02*
Y159294D01*
X184141Y166010D02*
X186383D01*
X180229D02*
X180815Y166596D01*
X164764Y140748D02*
X164795Y140779D01*
X174870Y162893D02*
X177987Y166010D01*
X135622Y20661D02*
Y74609D01*
X104770Y14370D02*
X104868Y14469D01*
X135622Y74609D02*
X152990Y91976D01*
X187719Y113035D02*
X198146Y123462D01*
X134252Y19488D02*
X134449D01*
X135622Y20661D01*
X184311Y110453D02*
X186894Y113035D01*
X196146Y180499D02*
Y181913D01*
X173270Y153265D02*
Y172597D01*
X164795Y152591D02*
X169767D01*
X171270Y154094D02*
Y173425D01*
X199122Y177173D02*
X200295Y178347D01*
X198731Y177173D02*
X199122D01*
X198146Y176587D02*
X198731Y177173D01*
X195560D02*
X196146Y176587D01*
X195169Y177173D02*
X195560D01*
X193996Y178347D02*
X195169Y177173D01*
X193996Y178740D02*
X195169Y179913D01*
X195560D01*
X196146Y180499D01*
X179675Y179001D02*
Y179193D01*
X199122Y179913D02*
X200295Y178740D01*
X198731Y179913D02*
X199122D01*
X198146Y180499D02*
X198731Y179913D01*
X198146Y180499D02*
Y182742D01*
X88787Y33654D02*
X90006Y32435D01*
X75931Y20138D02*
X82494Y13575D01*
X113234Y123031D02*
X133268D01*
X104966Y114764D02*
X113234Y123031D01*
X108661Y25591D02*
X134022Y50951D01*
Y79077D02*
X162008Y107063D01*
X134022Y50951D02*
Y79077D01*
X162008Y109252D02*
X164764D01*
X99459Y246063D02*
X100000D01*
X98073Y244677D02*
X99459Y246063D01*
X96252Y244677D02*
X98073D01*
X106041Y239280D02*
X111026D01*
X104770Y240551D02*
X106041Y239280D01*
X95079Y243504D02*
X96252Y244677D01*
X95079Y243307D02*
Y243504D01*
X111562Y125984D02*
X112546Y125000D01*
X108071Y145866D02*
X125000Y128937D01*
X108268Y125984D02*
X111562D01*
X108465Y185827D02*
X117147Y177145D01*
X108268Y85827D02*
Y93597D01*
X123425Y121063D02*
X133268D01*
X112546Y125000D02*
X133268D01*
X108268Y105905D02*
X123425Y121063D01*
X108268Y93597D02*
X131797Y117126D01*
X133268D01*
X124935Y98951D02*
X133268Y107283D01*
X104966Y34449D02*
X124935Y54418D01*
X108465Y225984D02*
X123547Y210902D01*
X104770Y235236D02*
X104966D01*
X104770Y215158D02*
X104966D01*
X104770Y220472D02*
Y235236D01*
X108465Y205906D02*
X120347Y194024D01*
X104770Y175000D02*
X104966D01*
Y195079D02*
X118747Y181299D01*
X104770Y195079D02*
X104966D01*
X104770Y154921D02*
X104966D01*
X112841Y126969D02*
X133268D01*
X104966Y134843D02*
X112841Y126969D01*
X104770Y134843D02*
X104966D01*
X101091Y18413D02*
X103498D01*
X101091Y38492D02*
X103498D01*
X121735Y100277D02*
X132679Y111221D01*
X101091Y58571D02*
X103498D01*
X101091Y78650D02*
X103498D01*
X101091Y98728D02*
X103498D01*
X101091Y239280D02*
X103498D01*
X101091Y219201D02*
X103498D01*
X101091Y199122D02*
X103498D01*
X101091Y179043D02*
X103498D01*
X101091Y158965D02*
X103498D01*
X101091Y138886D02*
X103498D01*
X101091Y118807D02*
X103498D01*
X95124Y112841D02*
X101091Y118807D01*
X104770Y114764D02*
X104966D01*
X104770Y94685D02*
X104966D01*
X129376Y119095D01*
X133268D01*
X104770Y74606D02*
X104966D01*
X132679Y111221D02*
X133268D01*
X132091Y115157D02*
X133268D01*
X104770Y54528D02*
X104966D01*
X121735Y71297D01*
X123335Y99614D02*
X132974Y109252D01*
X123335Y60737D02*
Y99614D01*
X132974Y109252D02*
X133268D01*
X108661Y46063D02*
X123335Y60737D01*
X104770Y34449D02*
X104966D01*
X124935Y54418D02*
Y98951D01*
X104770Y79921D02*
Y94685D01*
X95079Y82874D02*
X96252Y84047D01*
X95079Y82677D02*
Y82874D01*
X104770Y39764D02*
Y54528D01*
X98043Y45680D02*
X100405D01*
X95079Y42520D02*
Y42717D01*
X98043Y45680D01*
X95079Y223425D02*
X96252Y224598D01*
X95079Y223228D02*
Y223425D01*
Y203346D02*
X96252Y204520D01*
X95079Y203150D02*
Y203346D01*
Y183268D02*
X96252Y184441D01*
X95079Y183071D02*
Y183268D01*
X104770Y160236D02*
Y175000D01*
X95079Y163189D02*
X96252Y164362D01*
X95079Y162992D02*
Y163189D01*
Y142913D02*
Y143110D01*
X96252Y124205D02*
X98270D01*
X95079Y123031D02*
X96252Y124205D01*
X95079Y122835D02*
Y123031D01*
Y102953D02*
X96252Y104126D01*
X95079Y102756D02*
Y102953D01*
Y62795D02*
X96252Y63968D01*
X95079Y62598D02*
Y62795D01*
X103498Y58571D02*
X104770Y59842D01*
X95124Y52604D02*
X101091Y58571D01*
X103498Y38492D02*
X104770Y39764D01*
X95124Y32526D02*
X101091Y38492D01*
X79868Y40709D02*
X80309Y41150D01*
X88787D01*
X90006Y42368D01*
Y43209D01*
X47289Y40256D02*
X48447Y41413D01*
X62423D01*
X67171Y37402D02*
X68224Y36349D01*
X75448D01*
X82494Y33654D02*
X88787D01*
X75931Y40216D02*
X82494Y33654D01*
X75931Y40216D02*
Y40709D01*
X47289Y35138D02*
X48463Y36311D01*
X57026D01*
X58116Y37402D01*
X75931Y220925D02*
X82494Y214362D01*
X88787Y53732D02*
X90006Y52514D01*
X75931Y20138D02*
Y20630D01*
X68224Y136743D02*
X75448D01*
X67171Y137795D02*
X68224Y136743D01*
X95079Y22638D02*
X96252Y23811D01*
X95079Y22441D02*
Y22638D01*
X134055Y14370D02*
X134252D01*
X120563Y18315D02*
X130110D01*
X134055Y14370D01*
X119291Y19587D02*
X120563Y18315D01*
X62423Y15810D02*
Y21335D01*
X119095Y14469D02*
X119291Y14272D01*
X104770Y200394D02*
Y215158D01*
Y180315D02*
Y195079D01*
Y120079D02*
Y134843D01*
Y100000D02*
Y114764D01*
Y59842D02*
Y74606D01*
Y19685D02*
Y34449D01*
X47289Y200886D02*
X48447Y202043D01*
X47289Y80413D02*
X48447Y81571D01*
X88787Y154126D02*
X90006Y152908D01*
X88787Y134047D02*
X90006Y132829D01*
X88787Y194283D02*
X90006Y193065D01*
X88787Y93890D02*
X90006Y92671D01*
X75931Y80374D02*
X82494Y73811D01*
X103498Y239280D02*
X104770Y240551D01*
X95124Y233313D02*
X101091Y239280D01*
X88787Y234441D02*
X90006Y233222D01*
X82494Y234441D02*
X88787D01*
X57026Y237098D02*
X58116Y238189D01*
X48463Y237098D02*
X57026D01*
X47289Y235925D02*
X48463Y237098D01*
X68224Y237136D02*
X75448D01*
X67171Y238189D02*
X68224Y237136D01*
X48447Y242201D02*
X62423D01*
X47289Y241043D02*
X48447Y242201D01*
X90006Y243156D02*
Y243996D01*
X88787Y241937D02*
X90006Y243156D01*
X80309Y241937D02*
X88787D01*
X79868Y241496D02*
X80309Y241937D01*
X103498Y219201D02*
X104770Y220472D01*
X95124Y213234D02*
X101091Y219201D01*
X88787Y214362D02*
X90006Y213144D01*
X82494Y214362D02*
X88787D01*
X57026Y217020D02*
X58116Y218110D01*
X48463Y217020D02*
X57026D01*
X47289Y215846D02*
X48463Y217020D01*
X68224Y217057D02*
X75448D01*
X67171Y218110D02*
X68224Y217057D01*
X47289Y220965D02*
X48447Y222122D01*
X62423D01*
X88787Y221858D02*
X90006Y223077D01*
X79868Y221417D02*
X80309Y221858D01*
X90006Y223077D02*
Y223917D01*
X80309Y221858D02*
X88787D01*
X103498Y199122D02*
X104770Y200394D01*
X95124Y193156D02*
X101091Y199122D01*
X75931Y200847D02*
Y201339D01*
Y200847D02*
X82494Y194283D01*
X88787D01*
X57026Y196941D02*
X58116Y198031D01*
X48463Y196941D02*
X57026D01*
X47289Y195768D02*
X48463Y196941D01*
X68224Y196979D02*
X75448D01*
X67171Y198031D02*
X68224Y196979D01*
X48447Y202043D02*
X62423D01*
X90006Y202998D02*
Y203839D01*
X88787Y201780D02*
X90006Y202998D01*
X80309Y201780D02*
X88787D01*
X79868Y201339D02*
X80309Y201780D01*
X103498Y179043D02*
X104770Y180315D01*
X95124Y173077D02*
X101091Y179043D01*
X88787Y174205D02*
X90006Y172986D01*
X75931Y180768D02*
X82494Y174205D01*
X88787D01*
X57026Y176862D02*
X58116Y177953D01*
X48463Y176862D02*
X57026D01*
X47289Y175689D02*
X48463Y176862D01*
X68224Y176900D02*
X75448D01*
X67171Y177953D02*
X68224Y176900D01*
X47289Y180807D02*
X48447Y181965D01*
X62423D01*
X90006Y182919D02*
Y183760D01*
X79868Y181260D02*
X80309Y181701D01*
X88787D02*
X90006Y182919D01*
X80309Y181701D02*
X88787D01*
X103498Y158965D02*
X104770Y160236D01*
X95124Y152998D02*
X101091Y158965D01*
X75931Y160689D02*
Y161181D01*
X82494Y154126D02*
X88787D01*
X75931Y160689D02*
X82494Y154126D01*
X57026Y156783D02*
X58116Y157874D01*
X48463Y156783D02*
X57026D01*
X47289Y155610D02*
X48463Y156783D01*
X68224Y156821D02*
X75448D01*
X67171Y157874D02*
X68224Y156821D01*
X47289Y160728D02*
X48447Y161886D01*
X62423D01*
X80309Y161622D02*
X88787D01*
X90006Y162841D02*
Y163681D01*
X88787Y161622D02*
X90006Y162841D01*
X79868Y161181D02*
X80309Y161622D01*
X103498Y138886D02*
X104770Y140157D01*
X95124Y132919D02*
X101091Y138886D01*
X75931Y140610D02*
Y141102D01*
Y140610D02*
X82494Y134047D01*
X88787D01*
X57026Y136705D02*
X58116Y137795D01*
X48463Y136705D02*
X57026D01*
X47289Y135531D02*
X48463Y136705D01*
X47289Y140650D02*
X48447Y141807D01*
X62423D01*
X90006Y142762D02*
Y143602D01*
X88787Y141543D02*
X90006Y142762D01*
X80309Y141543D02*
X88787D01*
X79868Y141102D02*
X80309Y141543D01*
X103498Y118807D02*
X104770Y120079D01*
X75931Y120531D02*
Y121024D01*
Y120531D02*
X82494Y113969D01*
X88787D01*
X90006Y112750D01*
X57026Y116626D02*
X58116Y117717D01*
X48463Y116626D02*
X57026D01*
X47289Y115453D02*
X48463Y116626D01*
X67171Y117717D02*
X68699Y116189D01*
X75923D01*
X47289Y120571D02*
X48447Y121728D01*
X62423D01*
X90006Y122683D02*
Y123524D01*
X80309Y121465D02*
X88787D01*
X90006Y122683D01*
X79868Y121024D02*
X80309Y121465D01*
X103498Y98728D02*
X104770Y100000D01*
X95124Y92762D02*
X101091Y98728D01*
X75931Y100453D02*
Y100945D01*
Y100453D02*
X82494Y93890D01*
X88787D01*
X57026Y96547D02*
X58116Y97638D01*
X48463Y96547D02*
X57026D01*
X47289Y95374D02*
X48463Y96547D01*
X68699Y96110D02*
X75923D01*
X67171Y97638D02*
X68699Y96110D01*
X48447Y101650D02*
X62423D01*
X47289Y100492D02*
X48447Y101650D01*
X90006Y102604D02*
Y103445D01*
X88787Y101386D02*
X90006Y102604D01*
X80309Y101386D02*
X88787D01*
X79868Y100945D02*
X80309Y101386D01*
X103498Y78650D02*
X104770Y79921D01*
X95124Y72683D02*
X101091Y78650D01*
X75931Y80374D02*
Y80866D01*
X82494Y73811D02*
X88787D01*
X90006Y72593D01*
X57026Y76468D02*
X58116Y77559D01*
X48463Y76468D02*
X57026D01*
X47289Y75295D02*
X48463Y76468D01*
X68699Y76032D02*
X75923D01*
X67171Y77559D02*
X68699Y76032D01*
X48447Y81571D02*
X62423D01*
X90006Y82526D02*
Y83366D01*
X88787Y81307D02*
X90006Y82526D01*
X79868Y80866D02*
X80309Y81307D01*
X88787D01*
X75931Y60295D02*
X82494Y53732D01*
X88787D01*
X57026Y56390D02*
X58116Y57480D01*
X48463Y56390D02*
X57026D01*
X47289Y55216D02*
X48463Y56390D01*
X68699Y55953D02*
X75923D01*
X67171Y57480D02*
X68699Y55953D01*
X47289Y60335D02*
X48447Y61492D01*
X62423D01*
X90006Y62447D02*
Y63287D01*
X88787Y61228D02*
X90006Y62447D01*
X79868Y60787D02*
X80309Y61228D01*
X88787D01*
X103498Y18413D02*
X104770Y19685D01*
X95124Y12447D02*
X101091Y18413D01*
X82494Y13575D02*
X88787D01*
X90006Y12356D01*
X79868Y20630D02*
X80309Y21071D01*
X88787D01*
X90006Y22289D01*
Y23130D01*
X47289Y20177D02*
X48447Y21335D01*
X62423D01*
X47289Y15059D02*
X48463Y16232D01*
X57026D01*
X58116Y17323D01*
X68699Y15795D02*
X75923D01*
X67171Y17323D02*
X68699Y15795D01*
D17*
X200295Y178543D02*
D03*
X205413D02*
D03*
X193996D02*
D03*
X188878D02*
D03*
X89961Y243307D02*
D03*
X95079D02*
D03*
X89961Y233071D02*
D03*
X95079D02*
D03*
X89961Y223228D02*
D03*
X95079D02*
D03*
X89961Y212992D02*
D03*
X95079D02*
D03*
X89961Y203150D02*
D03*
X95079D02*
D03*
X89961Y192913D02*
D03*
X95079D02*
D03*
X89961Y183071D02*
D03*
X95079D02*
D03*
X89961Y172835D02*
D03*
X95079D02*
D03*
X89961Y162992D02*
D03*
X95079D02*
D03*
X89961Y152756D02*
D03*
X95079D02*
D03*
X89961Y142913D02*
D03*
X95079D02*
D03*
X89961Y132677D02*
D03*
X95079D02*
D03*
X89961Y112598D02*
D03*
X95079D02*
D03*
X89961Y122835D02*
D03*
X95079D02*
D03*
X89961Y102756D02*
D03*
X95079D02*
D03*
X89961Y92520D02*
D03*
X95079D02*
D03*
X89961Y82677D02*
D03*
X95079D02*
D03*
X89961Y72441D02*
D03*
X95079D02*
D03*
X89961Y62598D02*
D03*
X95079D02*
D03*
X89961Y52362D02*
D03*
X95079D02*
D03*
X89961Y42520D02*
D03*
X95079D02*
D03*
X89961Y32283D02*
D03*
X95079D02*
D03*
X89961Y22441D02*
D03*
X95079D02*
D03*
X89961Y12205D02*
D03*
X95079D02*
D03*
D18*
X182185Y168209D02*
D03*
Y173327D02*
D03*
Y161811D02*
D03*
Y156693D02*
D03*
X141535Y165256D02*
D03*
Y170374D02*
D03*
X143209Y58661D02*
D03*
Y63779D02*
D03*
X134252Y14370D02*
D03*
Y19488D02*
D03*
X47289Y20177D02*
D03*
Y15059D02*
D03*
Y40256D02*
D03*
Y35138D02*
D03*
Y60335D02*
D03*
Y55216D02*
D03*
Y80413D02*
D03*
Y75295D02*
D03*
Y100492D02*
D03*
Y95374D02*
D03*
Y120571D02*
D03*
Y115453D02*
D03*
Y140650D02*
D03*
Y135531D02*
D03*
Y160728D02*
D03*
Y155610D02*
D03*
Y180807D02*
D03*
Y175689D02*
D03*
Y200886D02*
D03*
Y195768D02*
D03*
Y220965D02*
D03*
Y215846D02*
D03*
Y241043D02*
D03*
Y235925D02*
D03*
D19*
X182520Y120453D02*
D03*
Y145453D02*
D03*
X216102D02*
D03*
X182520Y110453D02*
D03*
Y115453D02*
D03*
Y125453D02*
D03*
Y130453D02*
D03*
Y135453D02*
D03*
Y140453D02*
D03*
X216102D02*
D03*
Y135453D02*
D03*
Y130453D02*
D03*
Y125453D02*
D03*
Y120453D02*
D03*
Y115453D02*
D03*
Y110453D02*
D03*
D20*
X158465Y194587D02*
D03*
D21*
X151083Y171752D02*
D03*
Y162697D02*
D03*
D22*
X164764Y140748D02*
D03*
X136024Y152559D02*
D03*
Y150591D02*
D03*
Y148622D02*
D03*
Y146653D02*
D03*
Y144685D02*
D03*
Y142717D02*
D03*
Y140748D02*
D03*
Y138779D02*
D03*
Y136811D02*
D03*
Y134843D02*
D03*
Y132874D02*
D03*
Y130905D02*
D03*
Y128937D02*
D03*
Y126969D02*
D03*
Y125000D02*
D03*
Y123031D02*
D03*
Y121063D02*
D03*
Y119095D02*
D03*
Y117126D02*
D03*
Y115157D02*
D03*
Y113189D02*
D03*
Y111221D02*
D03*
Y109252D02*
D03*
Y107283D02*
D03*
X164764Y152559D02*
D03*
Y150591D02*
D03*
Y148622D02*
D03*
Y146653D02*
D03*
Y144685D02*
D03*
Y142717D02*
D03*
Y138779D02*
D03*
Y136811D02*
D03*
Y134843D02*
D03*
Y132874D02*
D03*
Y130905D02*
D03*
Y128937D02*
D03*
Y126969D02*
D03*
Y125000D02*
D03*
Y123031D02*
D03*
Y121063D02*
D03*
Y119095D02*
D03*
Y117126D02*
D03*
Y115157D02*
D03*
Y113189D02*
D03*
Y111221D02*
D03*
Y109252D02*
D03*
Y107283D02*
D03*
D23*
X143110Y74016D02*
D03*
D24*
X119291Y19587D02*
D03*
Y14272D02*
D03*
X104770Y14370D02*
D03*
Y19685D02*
D03*
Y34449D02*
D03*
Y39764D02*
D03*
Y54528D02*
D03*
Y59842D02*
D03*
Y74606D02*
D03*
Y79921D02*
D03*
Y94685D02*
D03*
Y100000D02*
D03*
Y114764D02*
D03*
Y120079D02*
D03*
Y134843D02*
D03*
Y140157D02*
D03*
Y154921D02*
D03*
Y160236D02*
D03*
Y175000D02*
D03*
Y180315D02*
D03*
Y195079D02*
D03*
Y200394D02*
D03*
Y215158D02*
D03*
Y220472D02*
D03*
Y235236D02*
D03*
Y240551D02*
D03*
D25*
X58116Y238189D02*
D03*
X67171D02*
D03*
X58116Y218110D02*
D03*
X67171D02*
D03*
X58116Y198031D02*
D03*
X67171D02*
D03*
X58116Y177953D02*
D03*
X67171D02*
D03*
X58116Y157874D02*
D03*
X67171D02*
D03*
X58116Y137795D02*
D03*
X67171D02*
D03*
X58116Y117717D02*
D03*
X67171D02*
D03*
X58116Y97638D02*
D03*
X67171D02*
D03*
X58116Y77559D02*
D03*
X67171D02*
D03*
X58116Y57480D02*
D03*
X67171D02*
D03*
X58116Y37402D02*
D03*
X67171D02*
D03*
X58116Y17323D02*
D03*
X67171D02*
D03*
D26*
X77900Y234685D02*
D03*
X75931Y241496D02*
D03*
X79868D02*
D03*
X77900Y214606D02*
D03*
X75931Y221417D02*
D03*
X79868D02*
D03*
X77900Y194528D02*
D03*
X75931Y201339D02*
D03*
X79868D02*
D03*
X77900Y174449D02*
D03*
X75931Y181260D02*
D03*
X79868D02*
D03*
X77900Y154370D02*
D03*
X75931Y161181D02*
D03*
X79868D02*
D03*
X77900Y134291D02*
D03*
X75931Y141102D02*
D03*
X79868D02*
D03*
X77900Y114213D02*
D03*
X75931Y121024D02*
D03*
X79868D02*
D03*
X77900Y94134D02*
D03*
X75931Y100945D02*
D03*
X79868D02*
D03*
X77900Y74055D02*
D03*
X75931Y80866D02*
D03*
X79868D02*
D03*
X77900Y53976D02*
D03*
X75931Y60787D02*
D03*
X79868D02*
D03*
X77900Y33898D02*
D03*
X75931Y40709D02*
D03*
X79868D02*
D03*
X77900Y13819D02*
D03*
X75931Y20630D02*
D03*
X79868D02*
D03*
D41*
X178674Y99902D02*
X182579D01*
X178547Y66834D02*
X209262D01*
X138583Y198622D02*
X139764D01*
X145147Y204005D01*
X136122Y208957D02*
X184744D01*
X192913Y200787D01*
X135335Y196927D02*
Y205610D01*
X132106Y208839D02*
X135335Y205610D01*
X132106Y208839D02*
Y213563D01*
X138362Y188049D02*
Y193901D01*
X135335Y196927D02*
X138362Y193901D01*
X132333Y197950D02*
X136962Y193321D01*
X132333Y197950D02*
Y203888D01*
X136962Y187469D02*
Y193321D01*
X132087Y190364D02*
X144982Y177469D01*
X132087Y190364D02*
Y194095D01*
X164764Y136713D02*
Y136811D01*
Y134843D02*
Y136713D01*
Y129058D02*
X167345D01*
X176575Y170866D02*
X177170D01*
X153811Y88555D02*
X154232Y88976D01*
X153811Y86488D02*
Y88555D01*
X172158Y120952D02*
X172343Y120768D01*
X158523Y123877D02*
X159118D01*
X154035Y112841D02*
X154273Y113078D01*
X153543Y183169D02*
Y183765D01*
X154829Y185050D01*
X161909Y194587D02*
Y199705D01*
X164120Y81225D02*
X172272Y89376D01*
X181896D02*
X192421Y99902D01*
X172272Y89376D02*
X181896D01*
X145561Y178869D02*
X162402D01*
X136962Y187469D02*
X145561Y178869D01*
X146141Y180269D02*
X161822D01*
X145147Y204005D02*
X184006D01*
X165718Y182185D02*
X174902D01*
X169194Y123116D02*
X170846Y124768D01*
X162721Y81805D02*
X171692Y90776D01*
X178375D01*
X187500Y99902D01*
X168163Y83288D02*
X172852Y87976D01*
X185417D02*
X197343Y99902D01*
X164120Y67959D02*
Y81225D01*
X138362Y188049D02*
X146141Y180269D01*
X174252Y70905D02*
X210921D01*
X141535Y170374D02*
X142809Y171647D01*
X150978D01*
X151083Y171752D01*
X154829Y192723D02*
X156693Y194587D01*
X154273Y113078D02*
X164653D01*
X164764Y113189D01*
X150295Y130905D02*
X164764D01*
X155709Y134646D02*
X155984D01*
X153682Y126969D02*
X164764D01*
X159118Y123877D02*
X160241Y125000D01*
X164764D01*
X157755Y132874D02*
X164764D01*
X155984Y134646D02*
X157755Y132874D01*
X169113Y130826D02*
Y134922D01*
X161822Y180269D02*
X166846Y185293D01*
X163122Y177469D02*
X164393Y178740D01*
X144982Y177469D02*
X163122D01*
X156693Y194587D02*
X161909D01*
X154829Y185050D02*
Y192723D01*
X166846Y185293D02*
X177854D01*
X162402Y178869D02*
X165718Y182185D01*
X164393Y178740D02*
X172343D01*
X182940Y192913D02*
X192913D01*
X155558Y202605D02*
X173249D01*
X182940Y192913D01*
X141732Y188779D02*
X155558Y202605D01*
X184006Y204005D02*
X191151Y196860D01*
X164764Y121063D02*
X164874Y120952D01*
X176575Y119606D02*
Y127756D01*
Y119606D02*
X180728Y115453D01*
X164874Y120952D02*
X172158D01*
X168163Y67900D02*
Y83288D01*
X166339Y66076D02*
X168163Y67900D01*
X166339Y52658D02*
Y66076D01*
X169291Y57579D02*
X178547Y66834D01*
X171063Y67716D02*
X174252Y70905D01*
X172852Y87976D02*
X185417D01*
X164848Y123116D02*
X169194D01*
X170846Y124768D02*
X171361D01*
X180728Y140453D02*
X182520D01*
X135450Y152711D02*
X136024D01*
X135335Y152826D02*
Y160335D01*
Y152826D02*
X135450Y152711D01*
X188583Y178839D02*
X188878Y178543D01*
X188583Y178839D02*
Y183858D01*
X174016Y133740D02*
X180728Y140453D01*
X174016Y133661D02*
Y133740D01*
X180728Y115453D02*
X182520D01*
X164764Y123031D02*
X164848Y123116D01*
X164764Y129058D02*
Y130905D01*
X167345Y129058D02*
X169113Y130826D01*
X167224Y136811D02*
X169113Y134922D01*
X164764Y136811D02*
X167224D01*
X144488Y148622D02*
X164764D01*
X144587Y144390D02*
X146850Y146653D01*
X164764D01*
X143110Y63878D02*
X143209Y63779D01*
X143110Y63878D02*
Y75787D01*
X153811Y86488D01*
X157874Y79101D02*
X178674Y99902D01*
X161221Y78942D02*
X162721Y80442D01*
X161221Y78347D02*
Y78942D01*
X162721Y80442D02*
Y81805D01*
X157874Y62476D02*
Y79101D01*
X150591Y123877D02*
X153682Y126969D01*
X203951Y82087D02*
X211132Y74905D01*
X171063Y82087D02*
X203951D01*
X163976Y67815D02*
X164120Y67959D01*
X165157Y47539D02*
X165322D01*
X180679Y62897D01*
X171161Y111221D02*
X173228Y109153D01*
X164764Y111221D02*
X171161D01*
X180679Y62897D02*
X211034D01*
X177170Y170866D02*
X178358Y172054D01*
X205413Y178543D02*
Y183858D01*
X187707Y155420D02*
X188100Y155027D01*
X183458Y155420D02*
X187707D01*
X182185Y156693D02*
X183458Y155420D01*
X180912Y172054D02*
X182185Y173327D01*
X178358Y172054D02*
X180912D01*
D42*
X144260Y117847D02*
X165287D01*
X22539Y117815D02*
X38484D01*
X18831Y114106D02*
X22539Y117815D01*
X18831Y113915D02*
Y114106D01*
Y113915D02*
X18966Y113779D01*
X37411Y181691D02*
Y211811D01*
X38189Y146063D02*
Y161024D01*
X18831Y126705D02*
X38189Y146063D01*
X40495Y141889D02*
X40692Y141693D01*
X18921Y120315D02*
X40495Y141889D01*
X36417Y89370D02*
Y89468D01*
X18504Y100719D02*
X18966Y101181D01*
X62423Y194276D02*
X75931Y180768D01*
X18504Y94855D02*
Y100719D01*
Y94855D02*
X31299Y82060D01*
X71305Y153347D02*
X71576D01*
X71305Y173425D02*
X71576D01*
X71305Y213583D02*
X71576D01*
X71305Y233661D02*
X71576D01*
X71305Y193504D02*
X71576D01*
X71305Y133268D02*
X71576D01*
X71305Y113189D02*
X71496Y113380D01*
X75767D01*
X71305Y32874D02*
X71576D01*
X71305Y93110D02*
X71496Y93302D01*
X75767D01*
X71305Y73032D02*
X71496Y73223D01*
X75767D01*
X71305Y52953D02*
X71496Y53144D01*
X75767D01*
X18921Y120124D02*
Y120315D01*
X71305Y12795D02*
X71496Y12987D01*
X75767D01*
X77884Y13342D02*
X77900Y13358D01*
X77884Y53500D02*
X77900Y53516D01*
Y73594D02*
Y74055D01*
Y93673D02*
Y94134D01*
X77884Y113736D02*
X77900Y113752D01*
Y154337D02*
Y154370D01*
Y174416D02*
Y174449D01*
Y214573D02*
Y214606D01*
Y234652D02*
Y234685D01*
Y194495D02*
Y194528D01*
Y134258D02*
Y134291D01*
Y33865D02*
Y33898D01*
X112623Y249063D02*
X112894D01*
X112123Y249563D02*
X112623Y249063D01*
X83040Y249563D02*
X112123D01*
X75931Y242454D02*
X83040Y249563D01*
X75931Y241988D02*
Y242454D01*
X144095Y118012D02*
X144260Y117847D01*
X18781Y107105D02*
X36417Y89468D01*
X18781Y107105D02*
Y107296D01*
X18966Y107480D01*
X62423Y34598D02*
X75931Y21091D01*
X72551Y33849D02*
X77884D01*
X71576Y32874D02*
X72551Y33849D01*
X77884D02*
X77900Y33865D01*
X75931Y40709D02*
Y41169D01*
X62423Y234433D02*
X75931Y220925D01*
X62423Y234433D02*
Y242201D01*
Y73803D02*
X75931Y60295D01*
X62423Y73803D02*
Y81571D01*
Y34598D02*
Y41413D01*
X75931Y20630D02*
Y21091D01*
X62423Y54677D02*
X75931Y41169D01*
X62423Y54677D02*
Y61492D01*
Y94835D02*
Y101650D01*
Y94835D02*
X75931Y81327D01*
Y80866D02*
Y81327D01*
X62423Y134992D02*
Y141807D01*
Y134992D02*
X75931Y121484D01*
Y121024D02*
Y121484D01*
X62423Y114913D02*
X75931Y101406D01*
X62423Y114913D02*
Y121728D01*
X75931Y100945D02*
Y101406D01*
X71576Y133268D02*
X72551Y134243D01*
X77884D02*
X77900Y134258D01*
X72551Y134243D02*
X77884D01*
X62423Y155071D02*
X75931Y141563D01*
X62423Y155071D02*
Y161886D01*
X75931Y141102D02*
Y141563D01*
X62423Y175150D02*
Y181965D01*
Y175150D02*
X75931Y161642D01*
Y161181D02*
Y161642D01*
X62423Y194276D02*
Y202043D01*
Y215307D02*
Y222122D01*
Y215307D02*
X75931Y201799D01*
Y201339D02*
Y201799D01*
X71576Y193504D02*
X72551Y194479D01*
X77884D01*
X77900Y194495D01*
X18504Y162784D02*
X37411Y181691D01*
X18831Y126513D02*
Y126705D01*
X18504Y133139D02*
Y162784D01*
Y133139D02*
X18966Y132677D01*
X18921Y120124D02*
X18966Y120079D01*
X77884Y234636D02*
X77900Y234652D01*
X72551Y234636D02*
X77884D01*
X71576Y233661D02*
X72551Y234636D01*
Y214558D02*
X77884D01*
X71576Y213583D02*
X72551Y214558D01*
X77884D02*
X77900Y214573D01*
X77884Y174400D02*
X77900Y174416D01*
X72551Y174400D02*
X77884D01*
X71576Y173425D02*
X72551Y174400D01*
X77884Y154321D02*
X77900Y154337D01*
X72551Y154321D02*
X77884D01*
X71576Y153347D02*
X72551Y154321D01*
X77900Y113752D02*
Y114213D01*
X76123Y113736D02*
X77884D01*
X75767Y113380D02*
X76123Y113736D01*
X77884Y93657D02*
X77900Y93673D01*
X76123Y93657D02*
X77884D01*
X75767Y93302D02*
X76123Y93657D01*
Y73579D02*
X77884D01*
X77900Y73594D01*
X75767Y73223D02*
X76123Y73579D01*
Y53500D02*
X77884D01*
X75767Y53144D02*
X76123Y53500D01*
X77900Y53516D02*
Y53976D01*
Y13358D02*
Y13819D01*
X75767Y12987D02*
X76123Y13342D01*
X77884D01*
D43*
X222652Y138793D02*
Y151965D01*
X219311Y135453D02*
X222652Y138793D01*
X216102Y135453D02*
X219311D01*
X216102Y110453D02*
X217894D01*
X218640Y109707D01*
X228110Y110236D02*
X228346D01*
X218640Y108132D02*
Y109707D01*
X216102Y120453D02*
X217894D01*
X218640Y108132D02*
X228346Y98425D01*
X217894Y120453D02*
X228110Y110236D01*
X216102Y145453D02*
X216848Y146199D01*
X219273D01*
X220152Y147078D01*
Y153001D01*
X223913Y156762D01*
X226191D01*
X227315Y157886D01*
Y160386D01*
X228346Y161417D01*
X222652Y151965D02*
X224948Y154262D01*
X226191D01*
X227315Y153138D01*
Y150638D02*
Y153138D01*
Y150638D02*
X228346Y149606D01*
D44*
X211024Y84646D02*
D03*
Y171260D02*
D03*
X19685Y84646D02*
D03*
Y171260D02*
D03*
D45*
X245354Y118701D02*
D03*
Y89961D02*
D03*
Y169882D02*
D03*
Y141142D02*
D03*
D46*
X228346Y98425D02*
D03*
Y110236D02*
D03*
Y149606D02*
D03*
Y161417D02*
D03*
D47*
X182579Y99902D02*
D03*
X181990Y105118D02*
D03*
X38484Y117815D02*
D03*
X18504Y113779D02*
D03*
Y126378D02*
D03*
Y120079D02*
D03*
Y132677D02*
D03*
Y101181D02*
D03*
Y107480D02*
D03*
X169291Y57579D02*
D03*
X138583Y198622D02*
D03*
X136122Y208957D02*
D03*
X132106Y213563D02*
D03*
X132333Y203888D02*
D03*
X132087Y194095D02*
D03*
X108465Y165945D02*
D03*
X176575Y170866D02*
D03*
X188100Y155027D02*
D03*
X197343Y99902D02*
D03*
X192421D02*
D03*
X108071Y145866D02*
D03*
X100591D02*
D03*
X210921Y70905D02*
D03*
X205413Y183858D02*
D03*
X188583D02*
D03*
X162598Y60728D02*
D03*
X195669Y74803D02*
D03*
X171653Y75000D02*
D03*
X195571Y224311D02*
D03*
X162629Y227264D02*
D03*
X156720Y214370D02*
D03*
X211221Y177953D02*
D03*
X208900Y117717D02*
D03*
X208873Y124853D02*
D03*
X157874Y162402D02*
D03*
X154035Y112841D02*
D03*
X150295Y130905D02*
D03*
X155709Y134646D02*
D03*
X158523Y123877D02*
D03*
X157783Y143709D02*
D03*
X157972Y183169D02*
D03*
X153543D02*
D03*
X162589Y185138D02*
D03*
X172244Y199508D02*
D03*
X166929Y199606D02*
D03*
X161909Y199705D02*
D03*
X172343Y120768D02*
D03*
X187500Y99902D02*
D03*
X171063Y67716D02*
D03*
X171361Y124768D02*
D03*
X176575Y127756D02*
D03*
X174016Y133661D02*
D03*
X191151Y196860D02*
D03*
X141732Y188779D02*
D03*
X192913Y200787D02*
D03*
Y192913D02*
D03*
X135335Y160335D02*
D03*
X177854Y185293D02*
D03*
X172343Y178740D02*
D03*
X174902Y182185D02*
D03*
X144488Y148622D02*
D03*
X144587Y144390D02*
D03*
X154232Y88976D02*
D03*
X144095Y118012D02*
D03*
X173228Y109153D02*
D03*
X150591Y123877D02*
D03*
X112894Y249063D02*
D03*
X157874Y62476D02*
D03*
X161221Y78347D02*
D03*
X163976Y67815D02*
D03*
X166339Y52658D02*
D03*
X171063Y82087D02*
D03*
X209262Y66834D02*
D03*
X211132Y74905D02*
D03*
X211034Y62897D02*
D03*
X165157Y47539D02*
D03*
X112402Y14469D02*
D03*
X36417Y89370D02*
D03*
X31299Y82060D02*
D03*
X112598Y233465D02*
D03*
X100000Y246063D02*
D03*
X108268Y125984D02*
D03*
Y85827D02*
D03*
X108465Y185827D02*
D03*
X108268Y65748D02*
D03*
X108268Y105905D02*
D03*
X100787Y85827D02*
D03*
Y46063D02*
D03*
X108465Y225984D02*
D03*
X100394D02*
D03*
X108465Y205906D02*
D03*
X100394D02*
D03*
Y185827D02*
D03*
X100591Y165945D02*
D03*
Y125984D02*
D03*
X100787Y105905D02*
D03*
X100787Y65748D02*
D03*
X108661Y46063D02*
D03*
X62423Y41413D02*
D03*
X71305Y32874D02*
D03*
Y133268D02*
D03*
X108661Y25591D02*
D03*
X100787D02*
D03*
X71305Y193504D02*
D03*
X37411Y211811D02*
D03*
X38189Y161024D02*
D03*
X40911Y142126D02*
D03*
X71305Y233661D02*
D03*
X62423Y242201D02*
D03*
X71305Y213583D02*
D03*
X62423Y222122D02*
D03*
Y202043D02*
D03*
X71305Y173425D02*
D03*
X62423Y181965D02*
D03*
X71305Y153347D02*
D03*
X62423Y161886D02*
D03*
Y141807D02*
D03*
X71305Y113189D02*
D03*
X62423Y121728D02*
D03*
X71305Y93110D02*
D03*
X62423Y101650D02*
D03*
X71305Y73032D02*
D03*
X62423Y81571D02*
D03*
X71305Y52953D02*
D03*
X62423Y61492D02*
D03*
X71305Y12795D02*
D03*
X62423Y21335D02*
D03*
M02*
