G04*
G04 #@! TF.GenerationSoftware,Altium Limited,Altium Designer,20.0.11 (256)*
G04*
G04 Layer_Color=8388736*
%FSLAX25Y25*%
%MOIN*%
G70*
G01*
G75*
%ADD14C,0.00394*%
D14*
X74553Y39232D02*
X81246D01*
X74553Y35374D02*
X81246D01*
Y39232D01*
X74553Y35374D02*
Y39232D01*
Y59311D02*
X81246D01*
X74553Y55453D02*
X81246D01*
Y59311D01*
X74553Y55453D02*
Y59311D01*
Y79390D02*
X81246D01*
X74553Y75531D02*
X81246D01*
Y79390D01*
X74553Y75531D02*
Y79390D01*
Y99469D02*
X81246D01*
X74553Y95610D02*
X81246D01*
Y99469D01*
X74553Y95610D02*
Y99469D01*
Y119547D02*
X81246D01*
X74553Y115689D02*
X81246D01*
Y119547D01*
X74553Y115689D02*
Y119547D01*
Y135768D02*
Y139626D01*
X81246Y135768D02*
Y139626D01*
X74553Y135768D02*
X81246D01*
X74553Y139626D02*
X81246D01*
X74553Y159705D02*
X81246D01*
X74553Y155846D02*
X81246D01*
Y159705D01*
X74553Y155846D02*
Y159705D01*
Y179783D02*
X81246D01*
X74553Y175925D02*
X81246D01*
Y179783D01*
X74553Y175925D02*
Y179783D01*
Y199862D02*
X81246D01*
X74553Y196004D02*
X81246D01*
Y199862D01*
X74553Y196004D02*
Y199862D01*
Y240020D02*
X81246D01*
X74553Y236161D02*
X81246D01*
Y240020D01*
X74553Y236161D02*
Y240020D01*
Y219941D02*
X81246D01*
X74553Y216083D02*
X81246D01*
Y219941D01*
X74553Y216083D02*
Y219941D01*
Y19154D02*
X81246D01*
X74553Y15295D02*
X81246D01*
Y19154D01*
X74553Y15295D02*
Y19154D01*
M02*
