G04*
G04 #@! TF.GenerationSoftware,Altium Limited,Altium Designer,19.1.8 (144)*
G04*
G04 Layer_Color=32896*
%FSLAX25Y25*%
%MOIN*%
G70*
G01*
G75*
%ADD63C,0.00394*%
%ADD64C,0.00197*%
D63*
X75931Y238090D02*
X79868D01*
X77900Y236122D02*
Y240059D01*
X75931Y218012D02*
X79868D01*
X77900Y216043D02*
Y219980D01*
X75931Y197933D02*
X79868D01*
X77900Y195965D02*
Y199902D01*
X75931Y177854D02*
X79868D01*
X77900Y175886D02*
Y179823D01*
X75931Y157776D02*
X79868D01*
X77900Y155807D02*
Y159744D01*
X75931Y137697D02*
X79868D01*
X77900Y135728D02*
Y139665D01*
X75931Y117618D02*
X79868D01*
X77900Y115650D02*
Y119587D01*
X75931Y97539D02*
X79868D01*
X77900Y95571D02*
Y99508D01*
X75931Y77461D02*
X79868D01*
X77900Y75492D02*
Y79429D01*
X75931Y57382D02*
X79868D01*
X77900Y55413D02*
Y59350D01*
X75931Y37303D02*
X79868D01*
X77900Y35335D02*
Y39272D01*
X75931Y17224D02*
X79868D01*
X77900Y15256D02*
Y19193D01*
D64*
X73569Y232283D02*
Y243898D01*
X82230Y232283D02*
Y243898D01*
X73569Y232283D02*
X82230D01*
X73569Y243898D02*
X82230D01*
X73569Y212205D02*
Y223819D01*
X82230Y212205D02*
Y223819D01*
X73569Y212205D02*
X82230D01*
X73569Y223819D02*
X82230D01*
X73569Y192126D02*
Y203740D01*
X82230Y192126D02*
Y203740D01*
X73569Y192126D02*
X82230D01*
X73569Y203740D02*
X82230D01*
X73569Y172047D02*
Y183661D01*
X82230Y172047D02*
Y183661D01*
X73569Y172047D02*
X82230D01*
X73569Y183661D02*
X82230D01*
X73569Y151969D02*
Y163583D01*
X82230Y151969D02*
Y163583D01*
X73569Y151969D02*
X82230D01*
X73569Y163583D02*
X82230D01*
X73569Y131890D02*
Y143504D01*
X82230Y131890D02*
Y143504D01*
X73569Y131890D02*
X82230D01*
X73569Y143504D02*
X82230D01*
X73569Y111811D02*
Y123425D01*
X82230Y111811D02*
Y123425D01*
X73569Y111811D02*
X82230D01*
X73569Y123425D02*
X82230D01*
X73569Y91732D02*
Y103347D01*
X82230Y91732D02*
Y103347D01*
X73569Y91732D02*
X82230D01*
X73569Y103347D02*
X82230D01*
X73569Y71653D02*
Y83268D01*
X82230Y71653D02*
Y83268D01*
X73569Y71653D02*
X82230D01*
X73569Y83268D02*
X82230D01*
X73569Y51575D02*
Y63189D01*
X82230Y51575D02*
Y63189D01*
X73569Y51575D02*
X82230D01*
X73569Y63189D02*
X82230D01*
X73569Y31496D02*
Y43110D01*
X82230Y31496D02*
Y43110D01*
X73569Y31496D02*
X82230D01*
X73569Y43110D02*
X82230D01*
X73569Y11417D02*
Y23031D01*
X82230Y11417D02*
Y23031D01*
X73569Y11417D02*
X82230D01*
X73569Y23031D02*
X82230D01*
M02*
