G04*
G04 #@! TF.GenerationSoftware,Altium Limited,Altium Designer,20.0.11 (256)*
G04*
G04 Layer_Physical_Order=1*
G04 Layer_Color=255*
%FSLAX25Y25*%
%MOIN*%
G70*
G01*
G75*
%ADD15C,0.01000*%
G04:AMPARAMS|DCode=17|XSize=19.68mil|YSize=29.53mil|CornerRadius=4.92mil|HoleSize=0mil|Usage=FLASHONLY|Rotation=0.000|XOffset=0mil|YOffset=0mil|HoleType=Round|Shape=RoundedRectangle|*
%AMROUNDEDRECTD17*
21,1,0.01968,0.01968,0,0,0.0*
21,1,0.00984,0.02953,0,0,0.0*
1,1,0.00984,0.00492,-0.00984*
1,1,0.00984,-0.00492,-0.00984*
1,1,0.00984,-0.00492,0.00984*
1,1,0.00984,0.00492,0.00984*
%
%ADD17ROUNDEDRECTD17*%
%ADD18R,0.03347X0.03740*%
%ADD19R,0.03740X0.03347*%
%ADD20R,0.04528X0.05315*%
%ADD21R,0.03543X0.03937*%
%ADD22R,0.03937X0.03543*%
%ADD23R,0.05315X0.04528*%
%ADD24R,0.06575X0.02992*%
%ADD25R,0.05118X0.04331*%
%ADD26O,0.06299X0.01339*%
%ADD27R,0.04331X0.05118*%
%ADD43C,0.00800*%
%ADD44C,0.01968*%
%ADD45C,0.05118*%
%ADD46C,0.07874*%
%ADD47C,0.11811*%
%ADD48C,0.02756*%
%ADD49C,0.02681*%
%ADD50C,0.03000*%
G36*
X221949Y249803D02*
X236220Y235532D01*
Y207324D01*
X234945Y207199D01*
X233719Y206827D01*
X232589Y206223D01*
X231598Y205410D01*
X230785Y204419D01*
X230181Y203289D01*
X229809Y202063D01*
X229683Y200787D01*
X229809Y199512D01*
X230181Y198286D01*
X230785Y197156D01*
X231598Y196165D01*
X232589Y195352D01*
X233719Y194748D01*
X234945Y194376D01*
X236220Y194250D01*
X236220Y65592D01*
X234945Y65467D01*
X233719Y65095D01*
X232589Y64490D01*
X231598Y63678D01*
X230785Y62687D01*
X230181Y61557D01*
X229809Y60330D01*
X229683Y59055D01*
X229809Y57780D01*
X230181Y56554D01*
X230785Y55423D01*
X231598Y54433D01*
X232589Y53620D01*
X233719Y53016D01*
X234945Y52644D01*
X236220Y52518D01*
Y24803D01*
X225787Y14370D01*
X139208Y14370D01*
X122343Y31236D01*
Y34208D01*
X133206Y45072D01*
X133206Y45072D01*
X133449Y45436D01*
X133535Y45865D01*
Y77004D01*
X162520Y105989D01*
X167244D01*
X167739Y106088D01*
X168159Y106368D01*
X168440Y106788D01*
X168538Y107283D01*
X168440Y107779D01*
X168194Y108268D01*
X168440Y108757D01*
X168538Y109252D01*
X168440Y109747D01*
X168194Y110236D01*
X168440Y110725D01*
X168538Y111220D01*
X168440Y111716D01*
X168194Y112205D01*
X168440Y112694D01*
X168538Y113189D01*
X168440Y113684D01*
X168194Y114173D01*
X168440Y114662D01*
X168538Y115157D01*
X168440Y115653D01*
X168404Y115706D01*
X168448Y115922D01*
X168816Y116475D01*
X168847Y116626D01*
X164764D01*
Y117626D01*
X168847D01*
X168816Y117777D01*
X168594Y118110D01*
X168816Y118443D01*
X168847Y118594D01*
X164764D01*
Y119594D01*
X168847D01*
X168816Y119746D01*
X168448Y120298D01*
X168404Y120515D01*
X168440Y120568D01*
X168538Y121063D01*
X168440Y121558D01*
X168194Y122047D01*
X168440Y122536D01*
X168538Y123032D01*
X169162Y123838D01*
X169307Y123901D01*
X169622Y123964D01*
X169986Y124207D01*
X175695Y129916D01*
X175695Y129916D01*
X175938Y130280D01*
X176023Y130709D01*
X176023Y130709D01*
Y130896D01*
X176301Y131081D01*
X176730Y131723D01*
X176880Y132480D01*
X176730Y133238D01*
X176301Y133879D01*
X175659Y134308D01*
X174987Y134442D01*
X174765Y134666D01*
X174307Y135360D01*
X174419Y135925D01*
X174269Y136682D01*
X173840Y137324D01*
X173198Y137753D01*
X172689Y137854D01*
X172343Y138560D01*
X172296Y138875D01*
X173560Y140139D01*
X174645Y139810D01*
X174648Y139794D01*
X175077Y139152D01*
X175719Y138723D01*
X176476Y138573D01*
X177234Y138723D01*
X177632Y138990D01*
X177860Y138906D01*
X178632Y138357D01*
Y137549D01*
X178632D01*
Y133549D01*
X178632Y133357D01*
Y132549D01*
X178632Y132357D01*
Y128549D01*
X178632Y128357D01*
Y127549D01*
X178632Y127357D01*
Y123549D01*
X178632Y123357D01*
Y122549D01*
X178352Y122030D01*
X177972Y121888D01*
X177207Y121853D01*
X177013Y122055D01*
X176766Y122421D01*
X176849Y122835D01*
X176698Y123592D01*
X176269Y124234D01*
X175627Y124663D01*
X174870Y124813D01*
X174113Y124663D01*
X173471Y124234D01*
X173042Y123592D01*
X172891Y122835D01*
X173042Y122077D01*
X173471Y121435D01*
X174113Y121007D01*
X174515Y120927D01*
X175369Y120072D01*
X173722Y118425D01*
X173479Y118061D01*
X173393Y117631D01*
X173393Y117631D01*
Y105816D01*
X172432D01*
Y101698D01*
X172432Y100984D01*
X172432Y100270D01*
Y98956D01*
X169613D01*
Y100206D01*
X164476D01*
Y96126D01*
X164076Y95291D01*
X164076Y94629D01*
Y93020D01*
X167045D01*
X170013D01*
Y94629D01*
X170013Y95291D01*
X169811Y95713D01*
X170342Y96713D01*
X172432D01*
Y96152D01*
X177372D01*
Y97304D01*
X180109D01*
Y96152D01*
X185049D01*
Y100270D01*
X185049Y100984D01*
X185049Y101698D01*
Y105817D01*
X183641D01*
Y108357D01*
X186407Y108357D01*
X186771Y107508D01*
Y96160D01*
X183294Y93174D01*
X182557Y93513D01*
Y93513D01*
X178476D01*
X177642Y93913D01*
X176979Y93913D01*
X175370D01*
Y90945D01*
Y87976D01*
X176979D01*
X177642Y87976D01*
X178476Y88376D01*
X181756D01*
X182170Y87376D01*
X180341Y85547D01*
X180098Y85184D01*
X180013Y84754D01*
X180013Y84754D01*
Y64193D01*
X180013Y64193D01*
X180098Y63764D01*
X180341Y63400D01*
X184313Y59428D01*
X184248Y59101D01*
X184399Y58344D01*
X184828Y57702D01*
X185470Y57273D01*
X186227Y57122D01*
X186984Y57273D01*
X187626Y57702D01*
X188055Y58344D01*
X188205Y59101D01*
X188055Y59858D01*
X187626Y60500D01*
X186984Y60929D01*
X186227Y61080D01*
X185899Y61014D01*
X182256Y64658D01*
Y70830D01*
X183180Y71213D01*
X187038Y67355D01*
X186973Y67028D01*
X187123Y66270D01*
X187552Y65628D01*
X188194Y65200D01*
X188951Y65049D01*
X189708Y65200D01*
X190350Y65628D01*
X190779Y66270D01*
X190930Y67028D01*
X190779Y67785D01*
X190350Y68427D01*
X189708Y68856D01*
X188951Y69006D01*
X188624Y68941D01*
X183856Y73709D01*
Y77154D01*
X184780Y77537D01*
X185685Y76632D01*
X185620Y76305D01*
X185770Y75548D01*
X186199Y74906D01*
X186841Y74477D01*
X187598Y74326D01*
X188356Y74477D01*
X188997Y74906D01*
X189426Y75548D01*
X189577Y76305D01*
X189426Y77062D01*
X188997Y77704D01*
X188356Y78133D01*
X187598Y78283D01*
X187271Y78218D01*
X185894Y79595D01*
X186354Y80455D01*
X186456Y80503D01*
X186775Y80439D01*
X187532Y80590D01*
X188174Y81019D01*
X188359Y81296D01*
X189800D01*
X189800Y81296D01*
X190229Y81382D01*
X190593Y81625D01*
X200733Y91765D01*
X201680Y91298D01*
X201634Y90945D01*
X201753Y90043D01*
X202101Y89203D01*
X202654Y88481D01*
X203376Y87928D01*
X204216Y87580D01*
X205118Y87461D01*
X206020Y87580D01*
X206860Y87928D01*
X207582Y88481D01*
X208136Y89203D01*
X208484Y90043D01*
X208602Y90945D01*
X208484Y91847D01*
X208136Y92687D01*
X207582Y93409D01*
X206860Y93962D01*
X206020Y94310D01*
X205118Y94429D01*
X204765Y94383D01*
X204298Y95330D01*
X209553Y100585D01*
X209553Y100585D01*
X209796Y100949D01*
X209881Y101378D01*
X209881Y101378D01*
Y121644D01*
X210159Y121829D01*
X210588Y122471D01*
X210738Y123228D01*
X210588Y123986D01*
X210159Y124627D01*
X209517Y125056D01*
X208760Y125207D01*
X208340Y125124D01*
X207848Y126045D01*
X208925Y127122D01*
X209252Y127057D01*
X210009Y127208D01*
X210651Y127636D01*
X211080Y128278D01*
X211230Y129035D01*
X211080Y129793D01*
X210651Y130435D01*
X210009Y130863D01*
X209252Y131014D01*
X208495Y130863D01*
X207853Y130435D01*
X207424Y129793D01*
X207273Y129035D01*
X207339Y128708D01*
X204205Y125574D01*
X203281Y125957D01*
Y128466D01*
X208629Y133815D01*
X208957Y133750D01*
X209714Y133900D01*
X210356Y134329D01*
X210785Y134971D01*
X210935Y135728D01*
X210785Y136486D01*
X210356Y137127D01*
X209714Y137556D01*
X208957Y137707D01*
X208200Y137556D01*
X207558Y137127D01*
X207129Y136486D01*
X206978Y135728D01*
X207043Y135401D01*
X202605Y130962D01*
X201681Y131345D01*
Y133461D01*
X208433Y140213D01*
X208760Y140147D01*
X209517Y140298D01*
X210159Y140727D01*
X210588Y141369D01*
X210738Y142126D01*
X210588Y142883D01*
X210159Y143525D01*
X209517Y143954D01*
X208760Y144105D01*
X208003Y143954D01*
X207361Y143525D01*
X206932Y142883D01*
X206781Y142126D01*
X206846Y141799D01*
X199766Y134718D01*
X199523Y134354D01*
X199438Y133925D01*
X199438Y133925D01*
Y104643D01*
X189933Y95139D01*
X189919Y95143D01*
X189170Y95487D01*
X189006Y95603D01*
X189014Y95645D01*
Y114867D01*
X188929Y115296D01*
X188686Y115660D01*
X188686Y115660D01*
X188393Y115953D01*
X188393Y115953D01*
X188100Y116246D01*
X188100Y116246D01*
X187736Y116489D01*
X187307Y116574D01*
X186407Y116786D01*
Y117357D01*
X186407Y117549D01*
Y118357D01*
X186407Y118549D01*
Y122357D01*
X186407Y122549D01*
Y123357D01*
X186407Y123549D01*
Y127357D01*
X186407Y127549D01*
Y128357D01*
X186407Y128549D01*
Y132357D01*
X186407Y132549D01*
Y133357D01*
X186407Y133695D01*
X186721Y134597D01*
X187150Y134682D01*
X187514Y134925D01*
X193239Y140650D01*
X193239Y140650D01*
X193483Y141014D01*
X193568Y141443D01*
X193568Y141443D01*
Y159947D01*
X193568Y159947D01*
X193483Y160376D01*
X193239Y160740D01*
X193239Y160740D01*
X187177Y166803D01*
X186813Y167046D01*
X186384Y167131D01*
X186383Y167131D01*
X185650D01*
X184655Y168130D01*
X184655Y170768D01*
X184655Y171482D01*
Y175600D01*
X179715D01*
Y173763D01*
X178715Y173459D01*
X178581Y173660D01*
X177886Y174124D01*
X177067Y174287D01*
X176248Y174124D01*
X175553Y173660D01*
X175089Y172965D01*
X174926Y172146D01*
X175089Y171326D01*
X175553Y170632D01*
X176248Y170168D01*
X177067Y170004D01*
X177886Y170168D01*
X178581Y170632D01*
X179320Y170573D01*
X179715Y170230D01*
Y168130D01*
X178720Y167131D01*
X177987D01*
X177987Y167131D01*
X177557Y167046D01*
X177557Y167046D01*
X177193Y166803D01*
X177193Y166803D01*
X174077Y163687D01*
X174077Y163687D01*
X173925Y163460D01*
X173834Y163323D01*
X173748Y162893D01*
X173749Y162893D01*
Y146328D01*
X169827Y142406D01*
X168827Y142416D01*
X168538Y142717D01*
X168440Y143212D01*
X168194Y143701D01*
X168440Y144190D01*
X168538Y144685D01*
X168440Y145180D01*
X168194Y145669D01*
X168440Y146158D01*
X168538Y146654D01*
X168440Y147149D01*
X168194Y147638D01*
X168440Y148127D01*
X168538Y148622D01*
X169316Y149469D01*
X169494D01*
X169815Y149255D01*
X170572Y149104D01*
X171329Y149255D01*
X171971Y149684D01*
X172400Y150326D01*
X172550Y151083D01*
X172400Y151840D01*
X171971Y152482D01*
X171329Y152911D01*
X170572Y153061D01*
X169815Y152911D01*
X169510Y152707D01*
X168450Y153046D01*
X168440Y153054D01*
X168159Y153474D01*
X167739Y153755D01*
X167356Y153831D01*
X167123Y154163D01*
X166854Y154853D01*
X166985Y155050D01*
X167136Y155807D01*
X166985Y156564D01*
X166557Y157206D01*
X165915Y157635D01*
X165157Y157786D01*
X164400Y157635D01*
X163758Y157206D01*
X163330Y156564D01*
X163179Y155807D01*
X163330Y155050D01*
X163461Y154853D01*
X162926Y153853D01*
X162284D01*
X161788Y153755D01*
X161368Y153474D01*
X161088Y153054D01*
X160989Y152559D01*
X161088Y152064D01*
X161334Y151575D01*
X161088Y151086D01*
X160989Y150591D01*
X160309Y149680D01*
X160236Y149642D01*
X146333D01*
X146002Y150136D01*
X145308Y150600D01*
X144488Y150763D01*
X143669Y150600D01*
X142974Y150136D01*
X142510Y149441D01*
X142347Y148622D01*
X142510Y147803D01*
X142974Y147108D01*
X143025Y147074D01*
X143073Y145904D01*
X142608Y145209D01*
X142446Y144390D01*
X142608Y143570D01*
X143073Y142876D01*
X143767Y142412D01*
X144587Y142249D01*
X145406Y142412D01*
X146101Y142876D01*
X146565Y143570D01*
X146728Y144390D01*
X146626Y144902D01*
X147281Y145634D01*
X160236D01*
X160309Y145595D01*
X160989Y144685D01*
X161088Y144190D01*
X161334Y143701D01*
X161088Y143212D01*
X160989Y142717D01*
X161088Y142221D01*
X161167Y142064D01*
X160840Y141249D01*
X159824Y140972D01*
X158667Y142128D01*
X158303Y142371D01*
X157874Y142457D01*
X157874Y142457D01*
X153420D01*
X153420Y142457D01*
X152991Y142371D01*
X152627Y142128D01*
X152627Y142128D01*
X147349Y136850D01*
X147106Y136486D01*
X147020Y136057D01*
X147020Y136057D01*
Y134262D01*
X146743Y134076D01*
X146314Y133434D01*
X146163Y132677D01*
X146314Y131920D01*
X146743Y131278D01*
X147385Y130849D01*
X148142Y130699D01*
X148899Y130849D01*
X149541Y131278D01*
X149858Y131752D01*
X154479D01*
X154754Y131175D01*
X154855Y130752D01*
X154485Y130198D01*
X154334Y129441D01*
X154485Y128684D01*
X154361Y127911D01*
X153719Y127482D01*
X153290Y126840D01*
X153139Y126083D01*
X153141Y126076D01*
X152970Y125829D01*
X152273Y125313D01*
X151816Y125404D01*
X151058Y125253D01*
X150417Y124824D01*
X149988Y124182D01*
X149837Y123425D01*
X149988Y122668D01*
X150417Y122026D01*
X151058Y121597D01*
X151816Y121447D01*
X152573Y121597D01*
X153041Y121910D01*
X156203D01*
X156649Y120930D01*
X156237Y120381D01*
X155434Y120347D01*
X154793Y120776D01*
X154035Y120927D01*
X153278Y120776D01*
X152636Y120347D01*
X152207Y119705D01*
X152057Y118948D01*
X152207Y118191D01*
X152636Y117549D01*
X153278Y117120D01*
X153429Y117090D01*
Y116070D01*
X153278Y116041D01*
X152636Y115612D01*
X152207Y114970D01*
X152057Y114213D01*
X152207Y113455D01*
X152636Y112813D01*
X153278Y112385D01*
X154035Y112234D01*
X154441Y112315D01*
X155036Y111436D01*
X154806Y111092D01*
X154655Y110335D01*
X154806Y109578D01*
X155235Y108936D01*
X155877Y108507D01*
X156634Y108356D01*
X157192Y108467D01*
X157685Y107855D01*
X157781Y107642D01*
X130020Y79881D01*
X129777Y79517D01*
X129691Y79088D01*
X129692Y79088D01*
Y53037D01*
X125186Y48531D01*
X124381Y49126D01*
X124466Y49555D01*
X124466Y49555D01*
Y101226D01*
X129401Y106162D01*
X132937D01*
X133048Y106088D01*
X133543Y105989D01*
X138504D01*
X138999Y106088D01*
X139419Y106368D01*
X139700Y106788D01*
X139798Y107283D01*
X139700Y107779D01*
X139454Y108268D01*
X139700Y108757D01*
X139798Y109252D01*
X139700Y109747D01*
X139454Y110236D01*
X139700Y110725D01*
X139798Y111220D01*
X139700Y111716D01*
X139454Y112205D01*
X139700Y112694D01*
X139798Y113189D01*
X139700Y113684D01*
X139454Y114173D01*
X139700Y114662D01*
X139798Y115157D01*
X139700Y115653D01*
X139454Y116142D01*
X139700Y116631D01*
X139798Y117126D01*
X139700Y117621D01*
X139454Y118110D01*
X139700Y118599D01*
X139798Y119094D01*
X139700Y119590D01*
X139454Y120079D01*
X139700Y120568D01*
X139798Y121063D01*
X139700Y121558D01*
X139454Y122047D01*
X139700Y122536D01*
X139798Y123032D01*
X139700Y123527D01*
X139454Y124016D01*
X139700Y124505D01*
X139798Y125000D01*
X139700Y125495D01*
X139454Y125984D01*
X139700Y126473D01*
X139798Y126969D01*
X139700Y127464D01*
X139454Y127953D01*
X139700Y128442D01*
X139798Y128937D01*
X139700Y129432D01*
X139454Y129921D01*
X139700Y130410D01*
X139798Y130906D01*
X139700Y131401D01*
X139454Y131890D01*
X139700Y132379D01*
X139798Y132874D01*
X139700Y133369D01*
X139454Y133858D01*
X139700Y134347D01*
X139798Y134843D01*
X139700Y135338D01*
X139454Y135827D01*
X139700Y136316D01*
X139798Y136811D01*
X139700Y137306D01*
X139454Y137795D01*
X139700Y138284D01*
X139798Y138780D01*
X139700Y139275D01*
X139454Y139764D01*
X139700Y140253D01*
X139798Y140748D01*
X139700Y141243D01*
X139454Y141732D01*
X139700Y142221D01*
X139798Y142717D01*
X139700Y143212D01*
X139454Y143701D01*
X139700Y144190D01*
X139798Y144685D01*
X139700Y145180D01*
X139454Y145669D01*
X139700Y146158D01*
X139798Y146654D01*
X139700Y147149D01*
X139454Y147638D01*
X139700Y148127D01*
X139798Y148622D01*
X139700Y149117D01*
X139454Y149606D01*
X139700Y150095D01*
X139798Y150591D01*
X139700Y151086D01*
X139454Y151575D01*
X139700Y152064D01*
X139798Y152559D01*
X139700Y153054D01*
X139419Y153474D01*
X138999Y153755D01*
X138504Y153853D01*
X137147D01*
Y158455D01*
Y160457D01*
X137878Y161106D01*
X138147Y161106D01*
X141035D01*
Y164370D01*
X141535D01*
Y164870D01*
X145193D01*
Y167562D01*
X145193Y167634D01*
X144793Y168468D01*
X144793Y168634D01*
Y170628D01*
X147628D01*
Y170069D01*
X153946D01*
Y175600D01*
X147628D01*
Y172667D01*
X144793D01*
Y174124D01*
X138278D01*
Y168616D01*
X138147Y168514D01*
X137523Y168741D01*
X137147Y169181D01*
Y234243D01*
X138395D01*
Y240757D01*
X132668D01*
Y234243D01*
X133916D01*
Y184073D01*
X132916Y183539D01*
X132621Y183736D01*
X132193Y183821D01*
Y181496D01*
Y179171D01*
X132621Y179256D01*
X132916Y179454D01*
X133916Y178919D01*
Y166256D01*
X132291D01*
Y163484D01*
X131291D01*
Y166256D01*
X129468D01*
Y178920D01*
X130468Y179455D01*
X130765Y179256D01*
X131193Y179171D01*
Y181496D01*
Y183821D01*
X130765Y183736D01*
X130468Y183538D01*
X129468Y184072D01*
Y221959D01*
X129383Y222388D01*
X129140Y222752D01*
X129140Y222752D01*
X122343Y229549D01*
Y236811D01*
X124854Y239323D01*
X125778Y238940D01*
Y234243D01*
X131506D01*
Y240757D01*
X130257D01*
Y243002D01*
X131506D01*
Y245229D01*
X131668Y245337D01*
X132668Y244802D01*
Y243002D01*
X138395D01*
Y244644D01*
X164292D01*
X170489Y238447D01*
X170515Y238318D01*
X170943Y237676D01*
X171585Y237247D01*
X172343Y237096D01*
X173100Y237247D01*
X173742Y237676D01*
X174171Y238318D01*
X174321Y239075D01*
X174171Y239832D01*
X173742Y240474D01*
X173100Y240903D01*
X172478Y241026D01*
X166103Y247402D01*
X165579Y247752D01*
X164961Y247875D01*
X138601D01*
X138459Y248875D01*
X139277Y249803D01*
X221949Y249803D01*
D02*
G37*
G36*
X188303Y159676D02*
Y146157D01*
X186407D01*
Y147549D01*
X179193D01*
X179070Y147867D01*
X179697Y148553D01*
X179724Y148548D01*
X180544Y148711D01*
X181238Y149175D01*
X181703Y149870D01*
X181866Y150689D01*
X181749Y151272D01*
X182906Y152429D01*
X183127Y152759D01*
X183205Y153150D01*
Y154420D01*
X184655D01*
Y158966D01*
X184655D01*
Y159538D01*
X184655D01*
Y161910D01*
X185655Y162324D01*
X188303Y159676D01*
D02*
G37*
G36*
X177723Y109331D02*
X178632Y109166D01*
Y108357D01*
X181398D01*
Y105817D01*
X180109D01*
Y101698D01*
X180109Y100984D01*
X180109Y100254D01*
X179402Y99547D01*
X178079D01*
X177372Y100254D01*
X177372Y100984D01*
X177372Y101698D01*
Y105816D01*
X175636D01*
Y108657D01*
X176637Y109305D01*
X176955Y109242D01*
X177564Y109363D01*
X177723Y109331D01*
D02*
G37*
G36*
X206865Y123648D02*
X206781Y123228D01*
X206932Y122471D01*
X207361Y121829D01*
X207638Y121644D01*
Y101842D01*
X189335Y83539D01*
X188359D01*
X188174Y83817D01*
X187904Y83998D01*
X187655Y85163D01*
X204552Y102060D01*
X204795Y102424D01*
X204881Y102854D01*
X204881Y102854D01*
Y123078D01*
X205943Y124140D01*
X206865Y123648D01*
D02*
G37*
G36*
X131291Y50158D02*
Y46330D01*
X123266Y38304D01*
X122343Y38687D01*
Y42515D01*
X130368Y50541D01*
X131291Y50158D01*
D02*
G37*
%LPC*%
G36*
X213075Y229346D02*
X212241Y228946D01*
X208160D01*
Y228515D01*
X207160Y227889D01*
X206791Y227963D01*
X206034Y227812D01*
X205392Y227383D01*
X204963Y226741D01*
X204813Y225984D01*
X204963Y225227D01*
X205392Y224585D01*
X206034Y224156D01*
X206791Y224006D01*
X207160Y224079D01*
X208160Y223809D01*
Y223810D01*
X212241D01*
X213075Y223409D01*
X213738Y223410D01*
X215347D01*
Y226378D01*
Y229346D01*
X213075D01*
D02*
G37*
G36*
X216347Y229346D02*
Y226878D01*
X218618D01*
Y229346D01*
X216347D01*
D02*
G37*
G36*
X218618Y225878D02*
X216347D01*
Y223410D01*
X218618D01*
Y225878D01*
D02*
G37*
G36*
X180906Y224927D02*
X178635D01*
Y222459D01*
X180906D01*
Y224927D01*
D02*
G37*
G36*
X184178Y224927D02*
X183515Y224927D01*
X181906D01*
Y221959D01*
Y218990D01*
X183515D01*
X184178Y218990D01*
X185012Y219391D01*
X189093D01*
Y220926D01*
X191821D01*
X192006Y220648D01*
X192648Y220219D01*
X193405Y220069D01*
X194163Y220219D01*
X194805Y220648D01*
X195234Y221290D01*
X195384Y222047D01*
X195234Y222804D01*
X194805Y223446D01*
X194163Y223875D01*
X193405Y224026D01*
X192648Y223875D01*
X192006Y223446D01*
X191821Y223169D01*
X189093D01*
Y224528D01*
X185012D01*
X184178Y224927D01*
D02*
G37*
G36*
X180906Y221459D02*
X178635D01*
Y218990D01*
X180906D01*
Y221459D01*
D02*
G37*
G36*
X211024Y174446D02*
X210199Y174338D01*
X209431Y174019D01*
X208771Y173513D01*
X208264Y172853D01*
X207946Y172084D01*
X207837Y171260D01*
X207946Y170435D01*
X208264Y169667D01*
X208771Y169007D01*
X209431Y168500D01*
X210199Y168182D01*
X211024Y168073D01*
X211848Y168182D01*
X212617Y168500D01*
X213277Y169007D01*
X213783Y169667D01*
X214101Y170435D01*
X214210Y171260D01*
X214101Y172084D01*
X213783Y172853D01*
X213277Y173513D01*
X212617Y174019D01*
X211848Y174338D01*
X211024Y174446D01*
D02*
G37*
G36*
X205118Y168445D02*
X204216Y168326D01*
X203376Y167978D01*
X202654Y167424D01*
X202101Y166703D01*
X201753Y165862D01*
X201634Y164961D01*
X201753Y164059D01*
X202101Y163219D01*
X202654Y162497D01*
X203376Y161943D01*
X204216Y161595D01*
X205118Y161477D01*
X206020Y161595D01*
X206860Y161943D01*
X207582Y162497D01*
X208136Y163219D01*
X208484Y164059D01*
X208602Y164961D01*
X208484Y165862D01*
X208136Y166703D01*
X207582Y167424D01*
X206860Y167978D01*
X206020Y168326D01*
X205118Y168445D01*
D02*
G37*
G36*
X145193Y163870D02*
X142035D01*
Y161106D01*
X145193D01*
Y163870D01*
D02*
G37*
G36*
X153946Y166545D02*
X147628D01*
Y161014D01*
X147991D01*
X148294Y160014D01*
X148055Y159854D01*
X147626Y159213D01*
X147476Y158455D01*
X147626Y157698D01*
X148055Y157056D01*
X148697Y156627D01*
X149454Y156477D01*
X150212Y156627D01*
X150854Y157056D01*
X151283Y157698D01*
X151373Y158154D01*
X151876Y158656D01*
X151876Y158656D01*
X152119Y159020D01*
X152204Y159449D01*
Y161014D01*
X153946D01*
Y166545D01*
D02*
G37*
G36*
X228898Y158907D02*
X227713Y158751D01*
X226610Y158294D01*
X225662Y157566D01*
X224935Y156619D01*
X224656Y155946D01*
X220385D01*
X219766Y155823D01*
X219242Y155473D01*
X215029Y151259D01*
X214994Y151260D01*
X214663Y151316D01*
X214022Y151586D01*
X213934Y152026D01*
X213505Y152668D01*
X212863Y153097D01*
X212106Y153248D01*
X211349Y153097D01*
X210707Y152668D01*
X210278Y152026D01*
X210128Y151269D01*
X210162Y151095D01*
X209488Y150334D01*
X199911D01*
X199726Y150612D01*
X199084Y151041D01*
X198327Y151191D01*
X197570Y151041D01*
X196928Y150612D01*
X196499Y149970D01*
X196348Y149213D01*
X196499Y148455D01*
X196928Y147813D01*
X197570Y147385D01*
X198327Y147234D01*
X199084Y147385D01*
X199726Y147813D01*
X199911Y148091D01*
X210050D01*
X210050Y148091D01*
X210479Y148176D01*
X210843Y148419D01*
X211779Y149355D01*
X212106Y149290D01*
X212863Y149441D01*
X213505Y149870D01*
X214487Y149539D01*
Y147549D01*
X212215D01*
Y143549D01*
X212215Y143357D01*
Y142549D01*
X212215Y142357D01*
Y138549D01*
X212215Y138357D01*
Y137549D01*
X212215Y137357D01*
Y133549D01*
X212215Y133357D01*
Y132549D01*
X212215Y132357D01*
Y128549D01*
X212215Y128357D01*
Y127549D01*
X212215Y127357D01*
Y123549D01*
X212215Y123357D01*
Y122549D01*
X212215Y122357D01*
Y118549D01*
X212215Y118357D01*
Y117549D01*
X212215Y117357D01*
Y113549D01*
X212215Y113357D01*
Y112549D01*
X212215Y112357D01*
Y108357D01*
X214487D01*
Y104764D01*
X214610Y104146D01*
X214960Y103622D01*
X218149Y100433D01*
X218673Y100083D01*
X219291Y99960D01*
X224656D01*
X224935Y99287D01*
X225662Y98339D01*
X226610Y97612D01*
X227713Y97155D01*
X228898Y96999D01*
X230082Y97155D01*
X231186Y97612D01*
X232134Y98339D01*
X232861Y99287D01*
X233318Y100391D01*
X233474Y101575D01*
X233318Y102759D01*
X232861Y103863D01*
X232134Y104811D01*
X231186Y105538D01*
X230082Y105995D01*
X228898Y106151D01*
X227713Y105995D01*
X226610Y105538D01*
X225662Y104811D01*
X224935Y103863D01*
X224656Y103190D01*
X219960D01*
X217718Y105433D01*
Y108357D01*
X219990D01*
Y112357D01*
X219990Y112549D01*
Y113357D01*
X219990Y113549D01*
Y117357D01*
X219990Y117549D01*
Y118357D01*
X220870Y118837D01*
X221162D01*
X224756Y115243D01*
X224477Y114570D01*
X224322Y113386D01*
X224477Y112201D01*
X224935Y111098D01*
X225662Y110150D01*
X226610Y109423D01*
X227713Y108966D01*
X228898Y108810D01*
X230082Y108966D01*
X231186Y109423D01*
X232134Y110150D01*
X232861Y111098D01*
X233318Y112201D01*
X233474Y113386D01*
X233318Y114570D01*
X232861Y115674D01*
X232134Y116622D01*
X231186Y117349D01*
X230082Y117806D01*
X228898Y117962D01*
X227713Y117806D01*
X227041Y117527D01*
X222973Y121595D01*
X222449Y121945D01*
X221831Y122068D01*
X220471D01*
X219990Y122549D01*
Y123357D01*
X219990Y123549D01*
Y127357D01*
X219990Y127549D01*
Y128357D01*
X219990Y128549D01*
Y132357D01*
X219990Y132549D01*
Y133357D01*
X220870Y133837D01*
X221831D01*
X222449Y133960D01*
X222973Y134311D01*
X227041Y138378D01*
X227713Y138100D01*
X228898Y137943D01*
X230082Y138100D01*
X231186Y138557D01*
X232134Y139284D01*
X232861Y140232D01*
X233318Y141335D01*
X233474Y142520D01*
X233318Y143704D01*
X232861Y144808D01*
X232134Y145756D01*
X231186Y146483D01*
X230082Y146940D01*
X228898Y147096D01*
X227713Y146940D01*
X226610Y146483D01*
X225662Y145756D01*
X224935Y144808D01*
X224477Y143704D01*
X224322Y142520D01*
X224477Y141335D01*
X224756Y140663D01*
X221380Y137286D01*
X220252Y137286D01*
X219990Y137549D01*
Y138357D01*
X219990Y138549D01*
Y142357D01*
X219990Y142549D01*
Y143357D01*
X219990Y143549D01*
Y147549D01*
X217718D01*
Y149380D01*
X221054Y152715D01*
X224656D01*
X224935Y152043D01*
X225662Y151095D01*
X226610Y150368D01*
X227713Y149910D01*
X228898Y149755D01*
X230082Y149910D01*
X231186Y150368D01*
X232134Y151095D01*
X232861Y152043D01*
X233318Y153146D01*
X233474Y154331D01*
X233318Y155515D01*
X232861Y156619D01*
X232134Y157566D01*
X231186Y158294D01*
X230082Y158751D01*
X228898Y158907D01*
D02*
G37*
G36*
X143425Y105079D02*
Y103254D01*
X145250D01*
X145165Y103682D01*
X144639Y104468D01*
X143853Y104994D01*
X143425Y105079D01*
D02*
G37*
G36*
X142425D02*
X141997Y104994D01*
X141210Y104468D01*
X140685Y103682D01*
X140600Y103254D01*
X142425D01*
Y105079D01*
D02*
G37*
G36*
X145250Y102254D02*
X143425D01*
Y100429D01*
X143853Y100514D01*
X144639Y101039D01*
X145165Y101826D01*
X145250Y102254D01*
D02*
G37*
G36*
X142425D02*
X140600D01*
X140685Y101826D01*
X141210Y101039D01*
X141997Y100514D01*
X142425Y100429D01*
Y102254D01*
D02*
G37*
G36*
X174370Y93913D02*
X172098D01*
Y91445D01*
X174370D01*
Y93913D01*
D02*
G37*
G36*
X170013Y92020D02*
X167545D01*
Y89748D01*
X170013D01*
Y92020D01*
D02*
G37*
G36*
X166545D02*
X164076D01*
Y89748D01*
X166545D01*
Y92020D01*
D02*
G37*
G36*
X157134Y90157D02*
Y88332D01*
X158959D01*
X158874Y88760D01*
X158348Y89546D01*
X157562Y90072D01*
X157134Y90157D01*
D02*
G37*
G36*
X156134D02*
X155706Y90072D01*
X154919Y89546D01*
X154394Y88760D01*
X154309Y88332D01*
X156134D01*
Y90157D01*
D02*
G37*
G36*
X174370Y90445D02*
X172098D01*
Y87976D01*
X174370D01*
Y90445D01*
D02*
G37*
G36*
X211024Y87832D02*
X210199Y87723D01*
X209431Y87405D01*
X208771Y86899D01*
X208264Y86239D01*
X207946Y85470D01*
X207837Y84646D01*
X207946Y83821D01*
X208264Y83052D01*
X208771Y82393D01*
X209431Y81886D01*
X210199Y81568D01*
X211024Y81459D01*
X211848Y81568D01*
X212617Y81886D01*
X213277Y82393D01*
X213783Y83052D01*
X214101Y83821D01*
X214210Y84646D01*
X214101Y85470D01*
X213783Y86239D01*
X213277Y86899D01*
X212617Y87405D01*
X211848Y87723D01*
X211024Y87832D01*
D02*
G37*
G36*
X159084Y81094D02*
X156813D01*
Y78626D01*
X159084D01*
Y81094D01*
D02*
G37*
G36*
X148917Y88790D02*
X148160Y88639D01*
X147518Y88210D01*
X147089Y87568D01*
X146939Y86811D01*
X147089Y86054D01*
X147518Y85412D01*
X148160Y84983D01*
X148182Y84979D01*
X148626Y84163D01*
Y79026D01*
X149180D01*
X149876Y78406D01*
X149962Y77976D01*
X150205Y77613D01*
X150828Y76990D01*
X150660Y76584D01*
X150660D01*
Y72466D01*
X150660Y71752D01*
X150660Y71022D01*
X149953Y70315D01*
X148142D01*
X148142Y70315D01*
X147713Y70229D01*
X147349Y69986D01*
X146280Y68917D01*
X145266D01*
X145081Y69194D01*
X144439Y69623D01*
X143682Y69774D01*
X142925Y69623D01*
X142283Y69194D01*
X141854Y68552D01*
X141703Y67795D01*
X141854Y67038D01*
X142283Y66396D01*
X142925Y65967D01*
X143682Y65817D01*
X144439Y65967D01*
X145081Y66396D01*
X145266Y66674D01*
X146744D01*
X146744Y66674D01*
X147173Y66759D01*
X147537Y67002D01*
X148606Y68071D01*
X150660D01*
Y66920D01*
X155185Y66920D01*
X155699Y65961D01*
X155527Y65584D01*
X155209Y65265D01*
X154167Y65265D01*
X153453Y65265D01*
X149335D01*
Y63720D01*
X144981D01*
X144795Y63998D01*
X144153Y64426D01*
X143396Y64577D01*
X142639Y64426D01*
X141997Y63998D01*
X141568Y63356D01*
X141418Y62598D01*
X141568Y61841D01*
X141997Y61199D01*
X142639Y60770D01*
X143396Y60620D01*
X144153Y60770D01*
X144795Y61199D01*
X144981Y61477D01*
X149335D01*
Y60397D01*
X149335Y60325D01*
Y59397D01*
X148905Y58503D01*
X139577D01*
X139391Y58781D01*
X138749Y59210D01*
X137992Y59360D01*
X137235Y59210D01*
X136593Y58781D01*
X136164Y58139D01*
X136014Y57382D01*
X136164Y56625D01*
X136593Y55983D01*
X137235Y55554D01*
X137992Y55403D01*
X138749Y55554D01*
X139391Y55983D01*
X139577Y56260D01*
X149335D01*
Y54457D01*
X153453D01*
X154167Y54457D01*
X154881Y54457D01*
X159000D01*
Y59397D01*
X159000D01*
Y60325D01*
X159000D01*
Y65265D01*
X158159D01*
Y73725D01*
X158074Y74155D01*
X157830Y74518D01*
X157830Y74518D01*
X157245Y75104D01*
X156881Y75347D01*
X156452Y75433D01*
X155600Y75887D01*
Y76584D01*
X154812D01*
X153852Y76673D01*
X153767Y77102D01*
X153523Y77466D01*
X153523Y77466D01*
X153238Y77752D01*
X153778Y78626D01*
X154204Y78626D01*
X155813D01*
Y81595D01*
X156313D01*
Y82095D01*
X159084D01*
Y84563D01*
X157515D01*
X157416Y85563D01*
X157562Y85592D01*
X158348Y86118D01*
X158874Y86904D01*
X158959Y87332D01*
X154309D01*
X154394Y86904D01*
X154919Y86118D01*
X155706Y85592D01*
X155851Y85563D01*
X155753Y84563D01*
X153541Y84563D01*
X152974Y84291D01*
X152102Y84816D01*
X152034Y85160D01*
X151791Y85524D01*
X151791Y85524D01*
X150831Y86484D01*
X150896Y86811D01*
X150745Y87568D01*
X150317Y88210D01*
X149675Y88639D01*
X148917Y88790D01*
D02*
G37*
G36*
X201969Y75896D02*
X201211Y75745D01*
X200569Y75316D01*
X200141Y74674D01*
X199990Y73917D01*
X200141Y73160D01*
X200569Y72518D01*
X201211Y72089D01*
X201969Y71939D01*
X202475Y71421D01*
X202505Y71200D01*
X202412Y70707D01*
X201405Y70294D01*
X201348Y70332D01*
X200591Y70482D01*
X200579Y70480D01*
X199715Y71260D01*
X199702Y71325D01*
X199564Y72017D01*
X199135Y72659D01*
X198493Y73088D01*
X197736Y73238D01*
X196979Y73088D01*
X196337Y72659D01*
X195908Y72017D01*
X195758Y71260D01*
X195823Y70933D01*
X194525Y69634D01*
X194202Y69698D01*
X193445Y69548D01*
X192803Y69119D01*
X192374Y68477D01*
X192224Y67720D01*
X192374Y66963D01*
X192803Y66321D01*
X193445Y65892D01*
X193822Y65817D01*
X194055Y64770D01*
X193788Y64591D01*
X193359Y63949D01*
X193208Y63192D01*
X193359Y62435D01*
X193788Y61793D01*
X194430Y61364D01*
X195187Y61213D01*
X195944Y61364D01*
X196586Y61793D01*
X197015Y62435D01*
X197165Y63192D01*
X197115Y63443D01*
X200263Y66590D01*
X200591Y66525D01*
X201348Y66676D01*
X201717Y66923D01*
X202608Y66573D01*
X202717Y66480D01*
Y61291D01*
X201410Y59984D01*
X201083Y60049D01*
X200325Y59899D01*
X199684Y59470D01*
X199255Y58828D01*
X199104Y58071D01*
X199255Y57314D01*
X199684Y56672D01*
X200325Y56243D01*
X201083Y56092D01*
X201840Y56243D01*
X202482Y56672D01*
X202911Y57314D01*
X203061Y58071D01*
X202996Y58398D01*
X204632Y60034D01*
X204632Y60034D01*
X204875Y60398D01*
X204960Y60827D01*
X204960Y60827D01*
Y72047D01*
X204875Y72476D01*
X204632Y72840D01*
X204632Y72840D01*
X203882Y73590D01*
X203947Y73917D01*
X203797Y74674D01*
X203368Y75316D01*
X202726Y75745D01*
X201969Y75896D01*
D02*
G37*
G36*
X214370Y78455D02*
X213613Y78304D01*
X212971Y77875D01*
X212542Y77234D01*
X212391Y76476D01*
X212542Y75719D01*
X212971Y75077D01*
X213322Y74843D01*
X213334Y74782D01*
X213577Y74418D01*
X220040Y67955D01*
Y62669D01*
X217968Y60597D01*
X216968Y61012D01*
Y64459D01*
X217246Y64644D01*
X217674Y65286D01*
X217825Y66043D01*
X217674Y66800D01*
X217246Y67442D01*
X216604Y67871D01*
X216453Y67901D01*
X215849Y68673D01*
X215850Y68963D01*
X215955Y69488D01*
X215804Y70245D01*
X215375Y70887D01*
X214734Y71316D01*
X213976Y71467D01*
X213219Y71316D01*
X212577Y70887D01*
X212148Y70245D01*
X211998Y69488D01*
X212148Y68731D01*
X212336Y68450D01*
X211371Y67484D01*
X211313Y67427D01*
X211287Y67396D01*
X211168Y67258D01*
X210891Y67078D01*
X209948Y67572D01*
X209936Y67595D01*
X209899Y67785D01*
X209470Y68427D01*
X208828Y68856D01*
X208071Y69006D01*
X207314Y68856D01*
X206672Y68427D01*
X206243Y67785D01*
X206092Y67028D01*
X206243Y66270D01*
X206672Y65628D01*
X206949Y65443D01*
Y59409D01*
X206890Y59360D01*
X206133Y59210D01*
X205491Y58781D01*
X205062Y58139D01*
X204911Y57382D01*
X205062Y56625D01*
X205491Y55983D01*
X206133Y55554D01*
X206890Y55403D01*
X207647Y55554D01*
X208289Y55983D01*
X208718Y56625D01*
X208868Y57382D01*
X208803Y57709D01*
X208864Y57770D01*
X208864Y57770D01*
X209107Y58134D01*
X209192Y58563D01*
Y65443D01*
X209470Y65628D01*
X209784Y66099D01*
X209899Y66270D01*
X209925Y66296D01*
X209987Y66354D01*
X210985Y65938D01*
Y48299D01*
X210487Y47802D01*
X209699D01*
X209123Y48186D01*
X208366Y48337D01*
X207609Y48186D01*
X206967Y47757D01*
X206538Y47115D01*
X206388Y46358D01*
X206538Y45601D01*
X206967Y44959D01*
X207609Y44530D01*
X208366Y44380D01*
X209123Y44530D01*
X209765Y44959D01*
X210166Y45558D01*
X210951D01*
X210952Y45558D01*
X211263Y45620D01*
X211564Y45362D01*
X211924Y44810D01*
X211755Y44556D01*
X211604Y43799D01*
X211755Y43042D01*
X212184Y42400D01*
X212825Y41971D01*
X213583Y41821D01*
X214340Y41971D01*
X214982Y42400D01*
X215411Y43042D01*
X215561Y43799D01*
X215411Y44556D01*
X215377Y44607D01*
X215458Y45565D01*
X215702Y45929D01*
X215787Y46358D01*
X215787Y46358D01*
Y56599D01*
X216787Y56903D01*
X216810Y56869D01*
X217452Y56440D01*
X218209Y56289D01*
X218966Y56440D01*
X219608Y56869D01*
X220037Y57511D01*
X220187Y58268D01*
X220037Y59025D01*
X219849Y59306D01*
X221954Y61412D01*
X221954Y61412D01*
X222198Y61775D01*
X222283Y62205D01*
Y68420D01*
X222283Y68420D01*
X222198Y68849D01*
X221954Y69213D01*
X221954Y69213D01*
X215898Y75270D01*
X216198Y75719D01*
X216349Y76476D01*
X216198Y77234D01*
X215769Y77875D01*
X215127Y78304D01*
X214370Y78455D01*
D02*
G37*
%LPD*%
D15*
X89961Y244448D02*
Y244644D01*
X87009Y241496D02*
X89961Y244448D01*
X79868Y241496D02*
X87009D01*
X94980Y233563D02*
Y233760D01*
X96457Y235236D01*
X104770D01*
X74114Y228445D02*
X84941D01*
X89862Y233366D01*
Y233563D01*
X175682Y97835D02*
X176272Y98424D01*
X167045Y97835D02*
X175682D01*
X176272Y98424D02*
X176857D01*
X176857Y98425D02*
X182579D01*
X176857Y98424D02*
X176857Y98425D01*
X182238Y90789D02*
X187893Y95645D01*
X181825Y90820D02*
X182238Y90789D01*
X180185Y90945D02*
X181825Y90820D01*
X187893Y95645D02*
Y114867D01*
X187600Y115160D02*
X187893Y114867D01*
X187307Y115453D02*
X187600Y115160D01*
X203759Y102854D02*
Y123543D01*
X184334Y83429D02*
X203759Y102854D01*
X182520Y115453D02*
X187307D01*
X202159Y103516D02*
Y128931D01*
X182734Y84092D02*
X202159Y103516D01*
X188095Y91715D02*
X188095D01*
X200559Y104179D02*
Y133925D01*
X188095Y91715D02*
X200559Y104179D01*
X189800Y82418D02*
X208760Y101378D01*
Y123228D01*
X186775Y82418D02*
X189800D01*
X174515Y117631D02*
X176955Y120072D01*
X174515Y102756D02*
Y117631D01*
Y102756D02*
X174902Y102369D01*
X203759Y123543D02*
X209252Y129035D01*
X202159Y128931D02*
X208957Y135728D01*
X182734Y73244D02*
Y84092D01*
Y73244D02*
X188951Y67028D01*
X151816Y123425D02*
X152270D01*
X152664Y123032D01*
X164764D01*
X200559Y133925D02*
X208760Y142126D01*
X181134Y84754D02*
X188095Y91715D01*
X181134Y64193D02*
Y84754D01*
Y64193D02*
X186227Y59101D01*
X164699Y136876D02*
X164764Y136811D01*
X161685Y136876D02*
X164699D01*
X159780Y138781D02*
X161685Y136876D01*
X159780Y138781D02*
Y139430D01*
X157874Y141335D02*
X159780Y139430D01*
X153420Y141335D02*
X157874D01*
X148142Y136057D02*
X153420Y141335D01*
X148142Y132677D02*
Y136057D01*
X164764Y132874D02*
X169390D01*
X172441Y135925D01*
X164764Y150591D02*
X169625D01*
X170117Y151083D01*
X170572D01*
X164764Y152559D02*
X165001D01*
X165157Y152715D01*
Y155807D01*
X177723Y110453D02*
X182520D01*
X176955Y111220D02*
X177723Y110453D01*
X176955Y120072D02*
X177336Y120453D01*
X174870Y122158D02*
X176955Y120072D01*
X174870Y122158D02*
Y122835D01*
X177336Y120453D02*
X182520D01*
Y103603D02*
Y110453D01*
Y103603D02*
X182579Y103543D01*
X85433Y32283D02*
X89961D01*
X80216Y27067D02*
X85433Y32283D01*
X74213Y27067D02*
X80216D01*
X95079Y152756D02*
X98275D01*
X100440Y154921D01*
X104770D01*
X95079Y172835D02*
X99114D01*
X101280Y175000D01*
X104770D01*
X95079Y192913D02*
X98868D01*
X101034Y195079D01*
X104770D01*
X104639Y215027D02*
X104770Y215157D01*
X101887Y215027D02*
X104639D01*
X99852Y212992D02*
X101887Y215027D01*
X95079Y212992D02*
X99852D01*
X186721Y221959D02*
X186809Y222047D01*
X193405D01*
X210138Y225984D02*
X210531Y226378D01*
X206791Y225984D02*
X210138D01*
X176575Y140453D02*
X182520D01*
X176476Y140551D02*
X176575Y140453D01*
X185555Y164010D02*
X189425Y160140D01*
Y145621D02*
Y160140D01*
X182937Y145035D02*
X188839D01*
X189425Y145621D01*
X182520Y145453D02*
X182937Y145035D01*
X183555Y163424D02*
X184141Y164010D01*
X183555Y162984D02*
Y163424D01*
X184141Y164010D02*
X185555D01*
X186384Y166010D02*
X192446Y159947D01*
X186721Y135718D02*
X192446Y141443D01*
Y159947D01*
X182785Y135718D02*
X186721D01*
X182520Y135453D02*
X182785Y135718D01*
X156018Y137584D02*
X158760Y134843D01*
X156018Y137584D02*
Y137697D01*
X158760Y134843D02*
X164764D01*
X131791Y158169D02*
X135245D01*
X135531Y158455D01*
X149454D02*
X150089D01*
X151083Y159449D01*
Y162697D01*
X148142Y132677D02*
X148339Y132874D01*
X158858Y130906D02*
X160762Y129002D01*
X156890Y132874D02*
X158858Y130906D01*
X164764D01*
X148339Y132874D02*
X156890D01*
X164699Y129002D02*
X164764Y128937D01*
X160762Y129002D02*
X164699D01*
X158785Y126969D02*
X164764D01*
X156313Y129441D02*
X158785Y126969D01*
X156656Y125000D02*
X164764D01*
X155573Y126083D02*
X156656Y125000D01*
X155118Y126083D02*
X155573D01*
X156634Y110335D02*
X157874D01*
X158760Y111220D01*
X164764D01*
X130813Y79088D02*
X160912Y109187D01*
X130813Y52572D02*
Y79088D01*
X154035Y114213D02*
X155610D01*
X156634Y113189D01*
X164764D01*
X154035Y118948D02*
X156639D01*
X158689Y120998D02*
X164699D01*
X156639Y118948D02*
X158689Y120998D01*
X164699D02*
X164764Y121063D01*
X162228Y107283D02*
X164764D01*
X132413Y77468D02*
X162228Y107283D01*
X160912Y109187D02*
X164699D01*
X164764Y109252D01*
X109539Y31298D02*
X130813Y52572D01*
X107972Y14370D02*
X109539Y15936D01*
Y31298D01*
X104770Y14370D02*
X107972D01*
X112139Y25591D02*
Y25591D01*
X132413Y45865D02*
Y77468D01*
X112139Y25591D02*
X132413Y45865D01*
X156726Y56927D02*
Y62795D01*
X153130Y74311D02*
X156452D01*
X156726Y62795D02*
X157037Y63106D01*
Y73725D01*
X156452Y74311D02*
X157037Y73725D01*
X152730Y74711D02*
X153130Y74311D01*
X152730Y74711D02*
Y76673D01*
X150998Y78406D02*
X152730Y76673D01*
X150998Y78406D02*
Y81595D01*
Y84730D01*
X148917Y86811D02*
X150998Y84730D01*
X151153Y57382D02*
X151608Y56927D01*
X137992Y57382D02*
X151153D01*
X151411Y62598D02*
X151608Y62795D01*
X143396Y62598D02*
X151411D01*
X148142Y69193D02*
X153130D01*
X143682Y67795D02*
X146744D01*
X148142Y69193D01*
X198327Y149213D02*
X210050D01*
X212106Y151269D01*
X169193Y125000D02*
X174902Y130709D01*
Y132480D01*
X164764Y125000D02*
X169193D01*
X184334Y79569D02*
X187598Y76305D01*
X184334Y79569D02*
Y83429D01*
X218209Y59252D02*
X221161Y62205D01*
X218209Y58268D02*
Y59252D01*
X214665Y46358D02*
Y58505D01*
X213583Y45276D02*
X214665Y46358D01*
X215846Y59686D02*
Y66043D01*
X214665Y58505D02*
X215846Y59686D01*
X213976Y68504D02*
Y69488D01*
X212106Y66634D02*
X213976Y68504D01*
X212106Y47835D02*
Y66634D01*
X214370Y75211D02*
Y76476D01*
Y75211D02*
X221161Y68420D01*
Y62205D02*
Y68420D01*
X208071Y58563D02*
Y67028D01*
X206890Y57382D02*
X208071Y58563D01*
X210952Y46680D02*
X212106Y47835D01*
X208688Y46680D02*
X210952D01*
X208366Y46358D02*
X208688Y46680D01*
X213583Y43799D02*
Y45276D01*
X195187Y63192D02*
X195279D01*
X200591Y68504D01*
X201969Y73917D02*
X203839Y72047D01*
Y60827D02*
Y72047D01*
X201083Y58071D02*
X203839Y60827D01*
X194202Y67720D02*
Y67726D01*
X197736Y71260D01*
X109755Y240551D02*
X118550D01*
X104770D02*
X109755D01*
X118550D02*
X118747Y240748D01*
X111024Y246063D02*
X111221Y245866D01*
X95079Y62795D02*
X97293D01*
X115547Y73027D02*
Y96846D01*
X117147Y66708D02*
Y96182D01*
X104967Y54528D02*
X117147Y66708D01*
X119874Y57276D02*
Y96646D01*
X108661Y46063D02*
X119874Y57276D01*
X128937Y107283D02*
X136024D01*
X123345Y101691D02*
X128937Y107283D01*
X123345Y49555D02*
Y101691D01*
X108238Y34449D02*
X123345Y49555D01*
X128248Y109252D02*
X132480Y109252D01*
X119874Y100878D02*
X128248Y109252D01*
X127884Y111220D02*
X133268D01*
X127320Y113189D02*
X133268D01*
X119874Y96646D02*
X119874Y100878D01*
X132480Y109252D02*
X133268D01*
X117147Y100483D02*
X127884Y111220D01*
X117147Y96182D02*
X117147Y100483D01*
X115547Y101416D02*
X127320Y113189D01*
X115547Y96846D02*
X115547Y101416D01*
X113739Y102003D02*
X126893Y115157D01*
X113739Y98373D02*
X113739Y102003D01*
X126893Y115157D02*
X133268D01*
X95079Y82874D02*
X97835D01*
X126511Y117126D02*
X130217Y117126D01*
X115158Y105773D02*
X126511Y117126D01*
X125134Y119094D02*
X133268D01*
X123425Y121063D02*
X133268D01*
X112139Y102754D02*
X115158Y105773D01*
X112139Y89698D02*
Y102754D01*
X113739Y83378D02*
Y98373D01*
X110539Y104499D02*
X125134Y119094D01*
X110539Y97251D02*
Y104499D01*
X107972Y94685D02*
X110539Y97251D01*
X108268Y85827D02*
X112139Y89698D01*
X104967Y74606D02*
X113739Y83378D01*
X108268Y65748D02*
X115547Y73027D01*
X104770Y94685D02*
X107972D01*
X104770Y34449D02*
X108238D01*
X104770Y19685D02*
Y34449D01*
X99833Y12205D02*
X100726Y13098D01*
X103498D01*
X104770Y14370D01*
X95079Y12205D02*
X99833D01*
X100457Y34449D02*
X104770D01*
X98291Y32283D02*
X100457Y34449D01*
X95079Y32283D02*
X98291D01*
X98573Y52362D02*
X100738Y54528D01*
X95079Y52362D02*
X98573D01*
X100738Y54528D02*
X104770D01*
X98705Y72441D02*
X100870Y74606D01*
X95079Y72441D02*
X98705D01*
X100870Y74606D02*
X104770D01*
X98563Y92520D02*
X100728Y94685D01*
X95079Y92520D02*
X98563D01*
X100728Y94685D02*
X104770D01*
X95079Y112598D02*
X98976D01*
X101142Y114764D01*
X104770D01*
X100945Y134184D02*
X104111D01*
X104770Y134843D01*
X99439Y132677D02*
X100945Y134184D01*
X95079Y132677D02*
X99439D01*
X47146Y47717D02*
X47289Y47860D01*
Y55217D01*
X46949Y106104D02*
X47289Y106444D01*
Y115453D01*
X47092Y87598D02*
Y95177D01*
X47289Y95374D01*
Y128104D02*
X47441Y127953D01*
X47289Y128104D02*
Y135532D01*
Y147244D02*
Y155610D01*
Y168852D02*
X48130Y168012D01*
X47289Y168852D02*
Y175689D01*
X46949Y228445D02*
X47289Y228785D01*
Y235925D01*
Y208740D02*
Y215846D01*
X47146Y208740D02*
X47289D01*
X46949Y188422D02*
X47289Y188763D01*
Y195768D01*
X84608Y192913D02*
X90354D01*
X84842Y172933D02*
X90158D01*
X83169Y152756D02*
X90059D01*
X76846Y147244D02*
X77658D01*
X83169Y152756D01*
X44882Y69336D02*
X47289Y71744D01*
Y75295D01*
X78919Y206675D02*
X85236Y212992D01*
X75931Y203687D02*
X78919Y206675D01*
X78642Y186947D02*
X84608Y192913D01*
X78642Y166732D02*
X84842Y172933D01*
X84252Y132480D02*
X90158D01*
X79573Y127801D02*
X84252Y132480D01*
X75931Y127801D02*
X79573D01*
X75931Y101234D02*
X76083Y101083D01*
X82426Y112598D02*
X89961D01*
X75931Y106104D02*
X82426Y112598D01*
X77248Y87598D02*
X81095D01*
X86016Y92520D01*
X89961D01*
X75931Y67126D02*
X80216D01*
X85532Y72441D01*
X89961D01*
X80413Y47539D02*
X85236Y52362D01*
X89961D01*
X75394Y47539D02*
X80413D01*
X47146Y27067D02*
X47289Y27211D01*
Y35138D01*
X83957Y12205D02*
X89961D01*
X80512Y8760D02*
X83957Y12205D01*
X77264Y8760D02*
X80512D01*
X50415D02*
X77264D01*
X47289Y11886D02*
X50415Y8760D01*
X47289Y11886D02*
Y15059D01*
X53642Y238090D02*
X58169D01*
X50689Y241043D02*
X53642Y238090D01*
X47289Y241043D02*
X50689D01*
X46949Y220965D02*
X51083D01*
X53937Y218110D01*
X58116D01*
X85236Y212992D02*
X89961D01*
X75931Y201339D02*
Y203687D01*
X53839Y197835D02*
X58071D01*
X50787Y200886D02*
X53839Y197835D01*
X47289Y200886D02*
X50787D01*
X47146Y180610D02*
X51181D01*
X53838Y177953D01*
X58116D01*
X75931Y161181D02*
X76067Y161317D01*
X54134Y157579D02*
X58268D01*
X50984Y160728D02*
X54134Y157579D01*
X47289Y160728D02*
X50984D01*
X47441Y140551D02*
X51181D01*
X53937Y137795D01*
X58116D01*
X53959Y118209D02*
X54451Y117717D01*
X53937Y118209D02*
X53959D01*
X54451Y117717D02*
X58071D01*
X51575Y120571D02*
X53937Y118209D01*
X47289Y120571D02*
X51575D01*
X54035Y97441D02*
X58268D01*
X50984Y100492D02*
X54035Y97441D01*
X47289Y100492D02*
X50984D01*
X47244Y80413D02*
X47343Y80512D01*
X50197D01*
X53150Y77559D01*
X58116D01*
X54035Y57480D02*
X58169D01*
X51181Y60335D02*
X54035Y57480D01*
X47289Y60335D02*
X51181D01*
X53740Y37205D02*
X58169D01*
X50689Y40256D02*
X53740Y37205D01*
X47289Y40256D02*
X50689D01*
X77815Y13819D02*
X77854Y13780D01*
X47146Y20079D02*
X51575D01*
X54331Y17323D01*
X58116D01*
X79626Y20965D02*
X79961Y20630D01*
X84976D02*
X86787Y22441D01*
X79961Y20630D02*
X84976D01*
X86787Y22441D02*
X89961D01*
X79868Y40709D02*
X84976D01*
X79764D02*
X79868D01*
X84976D02*
X86787Y42520D01*
X79724Y40748D02*
X79764Y40709D01*
X86787Y42520D02*
X89961D01*
X85236Y62500D02*
X89961D01*
X83524Y60787D02*
X85236Y62500D01*
X79868Y60787D02*
X83524D01*
X83622Y80866D02*
X85433Y82677D01*
X80177Y80866D02*
X83622D01*
X80118Y80807D02*
X80177Y80866D01*
X85433Y82677D02*
X89961D01*
X79921Y100787D02*
X80079Y100945D01*
X84976D02*
X86787Y102756D01*
X80079Y100945D02*
X84976D01*
X86787Y102756D02*
X89961D01*
X79823Y120965D02*
X79882Y121024D01*
X83819D02*
X85630Y122835D01*
X79882Y121024D02*
X83819D01*
X85630Y122835D02*
X89961D01*
X83819Y141102D02*
X85630Y142913D01*
X80352Y141102D02*
X83819D01*
X80315Y141140D02*
X80352Y141102D01*
X80315Y141140D02*
Y141240D01*
X85630Y142913D02*
X89961D01*
X84016Y161181D02*
X85827Y162992D01*
X80059Y161181D02*
X84016D01*
X80020Y161221D02*
X80059Y161181D01*
X85827Y162992D02*
X89961D01*
X85827Y182972D02*
X90354D01*
X84114Y181260D02*
X85827Y182972D01*
X79868Y181260D02*
X84114D01*
X83819Y201339D02*
X85630Y203150D01*
X80079Y201339D02*
X83819D01*
X80020Y201279D02*
X80079Y201339D01*
X85630Y203150D02*
X89961D01*
X75931Y201226D02*
Y201339D01*
X75886Y201181D02*
X75931Y201226D01*
X86742Y223032D02*
X89961D01*
X85128Y221417D02*
X86742Y223032D01*
X79868Y221417D02*
X85128D01*
X89961Y223032D02*
Y223228D01*
X95079Y244842D02*
X98696D01*
X100837Y246982D01*
X109755Y240551D02*
X128347Y221959D01*
X130217Y117126D02*
X133268D01*
X95079Y102953D02*
X97293D01*
X100246Y105906D01*
X97835Y82874D02*
X100787Y85827D01*
X97293Y62795D02*
X100246Y65748D01*
X182185Y168209D02*
X182382D01*
X181988D02*
X182185D01*
Y161811D02*
X182382D01*
X181988D02*
X182185D01*
X132929Y150663D02*
X135951D01*
X128347Y155245D02*
X132929Y150663D01*
X128347Y155245D02*
Y221959D01*
X132635Y148694D02*
X135951D01*
X126747Y154583D02*
X132635Y148694D01*
X126747Y154583D02*
Y219316D01*
X132413Y146654D02*
X133268D01*
X125147Y153920D02*
X132413Y146654D01*
X125147Y153920D02*
Y215056D01*
X132119Y144685D02*
X133268D01*
X123547Y153257D02*
X132119Y144685D01*
X123547Y153257D02*
Y210902D01*
X131825Y142717D02*
X133268D01*
X121947Y152594D02*
X131825Y142717D01*
X121947Y152594D02*
Y198177D01*
X131530Y140748D02*
X133268D01*
X120347Y151932D02*
X131530Y140748D01*
X120347Y151932D02*
Y194023D01*
X131236Y138780D02*
X133268D01*
X118747Y151269D02*
X131236Y138780D01*
X118747Y151269D02*
Y181299D01*
X130942Y136811D02*
X133268D01*
X117147Y150606D02*
X130942Y136811D01*
X117147Y150606D02*
Y177145D01*
X130648Y134843D02*
X133268D01*
X115547Y149944D02*
X130648Y134843D01*
X115547Y149944D02*
Y164420D01*
X130353Y132874D02*
X133268D01*
X108465Y154763D02*
X130353Y132874D01*
X108465Y154763D02*
Y165945D01*
X104967Y175000D02*
X115547Y164420D01*
X177987Y166010D02*
X180229D01*
X100405Y45680D02*
X100787Y46063D01*
X100246Y105906D02*
X100787D01*
X100049Y125984D02*
X100591D01*
X98270Y124205D02*
X100049Y125984D01*
X100246Y25591D02*
X100787D01*
X98467Y23811D02*
X100246Y25591D01*
X96252Y23811D02*
X98467D01*
X178815Y164010D02*
X180229D01*
X180815Y167035D02*
X181988Y168209D01*
X180815Y166596D02*
Y167035D01*
X100049Y145866D02*
X100591D01*
X98467Y144283D02*
X100049Y145866D01*
X96252Y144283D02*
X98467D01*
X100049Y165945D02*
X100591D01*
X98467Y164362D02*
X100049Y165945D01*
X96252Y164362D02*
X98467D01*
X99852Y185827D02*
X100394D01*
X98467Y184441D02*
X99852Y185827D01*
X96252Y184441D02*
X98467D01*
X99852Y205906D02*
X100394D01*
X98467Y204520D02*
X99852Y205906D01*
X96252Y204520D02*
X98467D01*
X99852Y225984D02*
X100394D01*
X98467Y224598D02*
X99852Y225984D01*
X96252Y224598D02*
X98467D01*
X100246Y65748D02*
X100787D01*
X104967Y154921D02*
X128982Y130906D01*
X133268D01*
X135951Y150663D02*
X136024Y150591D01*
X104967Y215157D02*
X121947Y198177D01*
X104967Y235236D02*
X125147Y215056D01*
X135951Y148694D02*
X136024Y148622D01*
X112598Y233465D02*
X126747Y219316D01*
X125000Y128937D02*
X133268D01*
X104770Y140157D02*
Y154921D01*
X95079Y143110D02*
X96252Y144283D01*
X174870Y145864D02*
Y162893D01*
X164795Y140780D02*
X169786D01*
X176870Y145035D02*
Y162065D01*
X178815Y164010D01*
X180815Y162984D02*
Y163424D01*
Y162984D02*
X181988Y161811D01*
X164764Y138780D02*
X170614D01*
X176870Y145035D01*
X180229Y164010D02*
X180815Y163424D01*
X182382Y168209D02*
X183555Y167035D01*
X169786Y140780D02*
X174870Y145864D01*
X183555Y166596D02*
Y167035D01*
Y166596D02*
X184141Y166010D01*
X186384D01*
X180229D02*
X180815Y166596D01*
X164764Y140748D02*
X164795Y140780D01*
X174870Y162893D02*
X177987Y166010D01*
X113234Y123032D02*
X133268D01*
X104967Y114764D02*
X113234Y123032D01*
X95079Y244644D02*
Y244842D01*
X111562Y125984D02*
X112546Y125000D01*
X108071Y145866D02*
X125000Y128937D01*
X108268Y125984D02*
X111562D01*
X108465Y185827D02*
X117147Y177145D01*
X112546Y125000D02*
X133268D01*
X108268Y105906D02*
X123425Y121063D01*
X108465Y225984D02*
X123547Y210902D01*
X104770Y235236D02*
X104967D01*
X104770Y215157D02*
X104967D01*
X104770Y220472D02*
Y235236D01*
X108465Y205906D02*
X120347Y194023D01*
X104770Y175000D02*
X104967D01*
Y195079D02*
X118747Y181299D01*
X104770Y195079D02*
X104967D01*
X104770Y154921D02*
X104967D01*
X112841Y126969D02*
X133268D01*
X104967Y134843D02*
X112841Y126969D01*
X104770Y134843D02*
X104967D01*
X104770Y114764D02*
X104967D01*
X104770Y74606D02*
X104967D01*
X104770Y54528D02*
X104967D01*
X104770Y79921D02*
Y94685D01*
X95079Y82677D02*
Y82874D01*
X104770Y39764D02*
Y54528D01*
X98043Y45680D02*
X100405D01*
X95079Y42520D02*
Y42717D01*
X98043Y45680D01*
X95079Y223425D02*
X96252Y224598D01*
X95079Y223228D02*
Y223425D01*
Y203346D02*
X96252Y204520D01*
X95079Y203150D02*
Y203346D01*
Y183268D02*
X96252Y184441D01*
X95079Y183071D02*
Y183268D01*
X104770Y160236D02*
Y175000D01*
X95079Y163189D02*
X96252Y164362D01*
X95079Y162992D02*
Y163189D01*
Y142913D02*
Y143110D01*
X96252Y124205D02*
X98270D01*
X95079Y123032D02*
X96252Y124205D01*
X95079Y122835D02*
Y123032D01*
Y102756D02*
Y102953D01*
Y62598D02*
Y62795D01*
Y22638D02*
X96252Y23811D01*
X95079Y22441D02*
Y22638D01*
X104770Y200394D02*
Y215157D01*
Y180315D02*
Y195079D01*
Y120079D02*
Y134843D01*
Y100000D02*
Y114764D01*
Y59843D02*
Y74606D01*
X103498Y199122D02*
X104770Y200394D01*
D17*
X79868Y40709D02*
D03*
X75931D02*
D03*
X77900Y33898D02*
D03*
X79868Y60787D02*
D03*
X75931D02*
D03*
X77900Y53976D02*
D03*
X79868Y80866D02*
D03*
X75931D02*
D03*
X77900Y74055D02*
D03*
X79868Y100945D02*
D03*
X75931D02*
D03*
X77900Y94134D02*
D03*
X79868Y121024D02*
D03*
X75931D02*
D03*
X77900Y114213D02*
D03*
Y134291D02*
D03*
X75931Y141102D02*
D03*
X79868D02*
D03*
Y161181D02*
D03*
X75931D02*
D03*
X77900Y154370D02*
D03*
X79868Y181260D02*
D03*
X75931D02*
D03*
X77900Y174449D02*
D03*
X79868Y201339D02*
D03*
X75931D02*
D03*
X77900Y194528D02*
D03*
X79868Y241496D02*
D03*
X75931D02*
D03*
X77900Y234685D02*
D03*
X79868Y221417D02*
D03*
X75931D02*
D03*
X77900Y214606D02*
D03*
X79868Y20630D02*
D03*
X75931D02*
D03*
X77900Y13819D02*
D03*
D18*
X94980Y233563D02*
D03*
X89862D02*
D03*
X156726Y56927D02*
D03*
X151608D02*
D03*
X156726Y62795D02*
D03*
X151608D02*
D03*
X89961Y244644D02*
D03*
X95079D02*
D03*
X89961Y223228D02*
D03*
X95079D02*
D03*
X89961Y212992D02*
D03*
X95079D02*
D03*
X89961Y203150D02*
D03*
X95079D02*
D03*
X89961Y192913D02*
D03*
X95079D02*
D03*
X89961Y183071D02*
D03*
X95079D02*
D03*
X89961Y172835D02*
D03*
X95079D02*
D03*
X89961Y162992D02*
D03*
X95079D02*
D03*
X89961Y152756D02*
D03*
X95079D02*
D03*
X89961Y142913D02*
D03*
X95079D02*
D03*
X89961Y132677D02*
D03*
X95079D02*
D03*
X89961Y112598D02*
D03*
X95079D02*
D03*
X89961Y122835D02*
D03*
X95079D02*
D03*
X89961Y102756D02*
D03*
X95079D02*
D03*
X89961Y92520D02*
D03*
X95079D02*
D03*
X89961Y82677D02*
D03*
X95079D02*
D03*
X89961Y72441D02*
D03*
X95079D02*
D03*
X89961Y62598D02*
D03*
X95079D02*
D03*
X89961Y52362D02*
D03*
X95079D02*
D03*
X89961Y42520D02*
D03*
X95079D02*
D03*
X89961Y32283D02*
D03*
X95079D02*
D03*
X89961Y22441D02*
D03*
X95079D02*
D03*
X89961Y12205D02*
D03*
X95079D02*
D03*
D19*
X118747Y240748D02*
D03*
Y245866D02*
D03*
X153130Y74311D02*
D03*
Y69193D02*
D03*
X182579Y103543D02*
D03*
Y98425D02*
D03*
X174902Y103543D02*
D03*
Y98425D02*
D03*
X182185Y168209D02*
D03*
Y173327D02*
D03*
Y161811D02*
D03*
Y156693D02*
D03*
X47289Y20177D02*
D03*
Y15059D02*
D03*
Y40256D02*
D03*
Y35138D02*
D03*
Y60335D02*
D03*
Y55217D02*
D03*
Y80413D02*
D03*
Y75295D02*
D03*
Y100492D02*
D03*
Y95374D02*
D03*
Y120571D02*
D03*
Y115453D02*
D03*
Y140650D02*
D03*
Y135532D02*
D03*
Y160728D02*
D03*
Y155610D02*
D03*
Y180807D02*
D03*
Y175689D02*
D03*
Y200886D02*
D03*
Y195768D02*
D03*
Y220965D02*
D03*
Y215846D02*
D03*
Y241043D02*
D03*
Y235925D02*
D03*
D20*
X128642Y246260D02*
D03*
X135531D02*
D03*
X128642Y237500D02*
D03*
X135531D02*
D03*
D21*
X156313Y81595D02*
D03*
X150998D02*
D03*
X180185Y90945D02*
D03*
X174870D02*
D03*
X215846Y226378D02*
D03*
X210531D02*
D03*
X181406Y221959D02*
D03*
X186721D02*
D03*
D22*
X167045Y97835D02*
D03*
Y92520D02*
D03*
X131791Y163484D02*
D03*
Y158169D02*
D03*
X104770Y14370D02*
D03*
Y19685D02*
D03*
Y34449D02*
D03*
Y39764D02*
D03*
Y54528D02*
D03*
Y59843D02*
D03*
Y74606D02*
D03*
Y79921D02*
D03*
Y94685D02*
D03*
Y100000D02*
D03*
Y114764D02*
D03*
Y120079D02*
D03*
Y134843D02*
D03*
Y140157D02*
D03*
Y154921D02*
D03*
Y160236D02*
D03*
Y175000D02*
D03*
Y180315D02*
D03*
Y195079D02*
D03*
Y200394D02*
D03*
Y215157D02*
D03*
Y220472D02*
D03*
Y235236D02*
D03*
Y240551D02*
D03*
D23*
X141535Y171260D02*
D03*
Y164370D02*
D03*
D24*
X182520Y120453D02*
D03*
Y145453D02*
D03*
X216102D02*
D03*
X182520Y110453D02*
D03*
Y115453D02*
D03*
Y125453D02*
D03*
Y130453D02*
D03*
Y135453D02*
D03*
Y140453D02*
D03*
X216102D02*
D03*
Y135453D02*
D03*
Y130453D02*
D03*
Y125453D02*
D03*
Y120453D02*
D03*
Y115453D02*
D03*
Y110453D02*
D03*
D25*
X150787Y172835D02*
D03*
Y163779D02*
D03*
D26*
X164764Y140748D02*
D03*
X136024Y152559D02*
D03*
Y150591D02*
D03*
Y148622D02*
D03*
Y146654D02*
D03*
Y144685D02*
D03*
Y142717D02*
D03*
Y140748D02*
D03*
Y138780D02*
D03*
Y136811D02*
D03*
Y134843D02*
D03*
Y132874D02*
D03*
Y130906D02*
D03*
Y128937D02*
D03*
Y126969D02*
D03*
Y125000D02*
D03*
Y123032D02*
D03*
Y121063D02*
D03*
Y119094D02*
D03*
Y117126D02*
D03*
Y115157D02*
D03*
Y113189D02*
D03*
Y111220D02*
D03*
Y109252D02*
D03*
Y107283D02*
D03*
X164764Y152559D02*
D03*
Y150591D02*
D03*
Y148622D02*
D03*
Y146654D02*
D03*
Y144685D02*
D03*
Y142717D02*
D03*
Y138780D02*
D03*
Y136811D02*
D03*
Y134843D02*
D03*
Y132874D02*
D03*
Y130906D02*
D03*
Y128937D02*
D03*
Y126969D02*
D03*
Y125000D02*
D03*
Y123032D02*
D03*
Y121063D02*
D03*
Y119094D02*
D03*
Y117126D02*
D03*
Y115157D02*
D03*
Y113189D02*
D03*
Y111220D02*
D03*
Y109252D02*
D03*
Y107283D02*
D03*
D27*
X58116Y238189D02*
D03*
X67171D02*
D03*
X58116Y218110D02*
D03*
X67171D02*
D03*
X58116Y198032D02*
D03*
X67171D02*
D03*
X58116Y177953D02*
D03*
X67171D02*
D03*
X58116Y157874D02*
D03*
X67171D02*
D03*
X58116Y137795D02*
D03*
X67171D02*
D03*
X58116Y117717D02*
D03*
X67171D02*
D03*
X58116Y97638D02*
D03*
X67171D02*
D03*
X58116Y77559D02*
D03*
X67171D02*
D03*
X58116Y57480D02*
D03*
X67171D02*
D03*
X58116Y37402D02*
D03*
X67171D02*
D03*
X58116Y17323D02*
D03*
X67171D02*
D03*
D43*
X177067Y172146D02*
X181004D01*
X182185Y173327D01*
X179724Y150689D02*
X182185Y153150D01*
Y156693D01*
X182185Y156693D02*
X182185Y156693D01*
X141535Y170374D02*
X142809Y171647D01*
X150978D01*
X151083Y171752D01*
X144488Y148622D02*
X164764D01*
X144587Y144390D02*
X146850Y146654D01*
X164764D01*
D44*
X220385Y154331D02*
X228898D01*
X216102Y150049D02*
X220385Y154331D01*
X216102Y145453D02*
Y150049D01*
Y135453D02*
X221831D01*
X228898Y142520D01*
X221831Y120453D02*
X228898Y113386D01*
X216102Y120453D02*
X221831D01*
X219291Y101575D02*
X228898D01*
X216102Y104764D02*
X219291Y101575D01*
X216102Y104764D02*
Y110453D01*
X75931Y80866D02*
Y86088D01*
X77248Y87406D01*
Y87598D01*
X172146Y239075D02*
X172343D01*
X164961Y246260D02*
X172146Y239075D01*
X135531Y246260D02*
X164961D01*
X135531Y158455D02*
Y237500D01*
Y152874D02*
Y158455D01*
X128642Y245866D02*
X128740Y245768D01*
X128445Y246063D02*
X128642Y245866D01*
Y246260D01*
Y237500D02*
Y245866D01*
Y236811D02*
Y237500D01*
Y236811D02*
X128937Y236516D01*
X118944Y246063D02*
X128445D01*
X118747Y245866D02*
X118944Y246063D01*
X111221Y245866D02*
X118747D01*
X67171Y212500D02*
Y218110D01*
X67542Y192361D02*
X67679Y192224D01*
X67542Y192361D02*
Y197661D01*
X67171Y198032D02*
X67542Y197661D01*
X67247Y172221D02*
X67323Y172146D01*
X67247Y172221D02*
Y177877D01*
X67171Y177953D02*
X67247Y177877D01*
Y152635D02*
X67323Y152559D01*
X67247Y152635D02*
Y157798D01*
X67171Y157874D02*
X67247Y157798D01*
X67542Y132026D02*
X67679Y131890D01*
X67542Y132026D02*
Y137424D01*
X67171Y137795D02*
X67542Y137424D01*
Y112735D02*
X67679Y112598D01*
X67542Y112735D02*
Y117345D01*
X67171Y117717D02*
X67542Y117345D01*
X77415Y114213D02*
X77658Y114455D01*
X67679Y92113D02*
X67815Y91976D01*
X67679Y92113D02*
Y97130D01*
X67171Y97638D02*
X67679Y97130D01*
X46949Y106104D02*
X75931D01*
X45058D02*
X46949D01*
X47289Y147244D02*
X76846D01*
X44882D02*
X47289D01*
X46949Y228445D02*
X74114D01*
X42724D02*
X46949D01*
Y188422D02*
X77166D01*
X44192D02*
X46949D01*
X74114Y228252D02*
Y228445D01*
Y228252D02*
X75931Y226435D01*
Y221417D02*
Y226435D01*
Y250061D02*
X76067Y250197D01*
X75931Y241496D02*
Y250061D01*
X67171Y232685D02*
Y238189D01*
X34547Y220268D02*
X42724Y228445D01*
X34547Y139665D02*
Y220268D01*
X27559Y132677D02*
X34547Y139665D01*
X19685Y132677D02*
X27559D01*
X77166Y188422D02*
X78642Y186947D01*
X38878Y183108D02*
X44192Y188422D01*
X38878Y130807D02*
Y183108D01*
X34446Y126375D02*
X38878Y130807D01*
X19432Y126375D02*
X34446D01*
X75931Y141102D02*
Y143504D01*
X76846Y144419D01*
Y147244D01*
X42717Y145079D02*
X44882Y147244D01*
X42717Y126375D02*
Y145079D01*
X36421Y120079D02*
X42717Y126375D01*
X19432Y120079D02*
X36421D01*
X37382Y113780D02*
X45058Y106104D01*
X19432Y113780D02*
X37382D01*
X66831Y76673D02*
X67520Y77362D01*
X66694Y71752D02*
X66831Y71888D01*
Y76673D01*
X44882Y69336D02*
X47092Y67126D01*
X41043Y73175D02*
X44882Y69336D01*
X75931Y60787D02*
Y67126D01*
X47092D02*
X75931D01*
X41043Y73175D02*
Y99508D01*
X33071Y107480D02*
X41043Y99508D01*
X19432Y107480D02*
X33071D01*
X75931Y184236D02*
X78642Y186947D01*
X76067Y164158D02*
X78642Y166732D01*
X75931Y121024D02*
Y127801D01*
Y101234D02*
Y106104D01*
X75394Y47347D02*
Y47539D01*
Y47347D02*
X75931Y46809D01*
Y40709D02*
Y46809D01*
X67224Y57284D02*
X67323Y57382D01*
X77815Y53976D02*
X77953Y53839D01*
X67224Y52362D02*
Y57284D01*
X66535Y51673D02*
X67224Y52362D01*
X67296Y31818D02*
X67421Y31693D01*
X67296Y31818D02*
Y37277D01*
X67171Y37402D02*
X67296Y37277D01*
X47146Y27067D02*
X74213D01*
X43996D02*
X47146D01*
X67383Y11947D02*
X67520Y11811D01*
X67383Y11947D02*
Y17111D01*
X67171Y17323D02*
X67383Y17111D01*
X74213Y26612D02*
Y27067D01*
Y26612D02*
X75931Y24893D01*
Y20630D02*
Y24893D01*
X32776Y38287D02*
X43996Y27067D01*
X77717Y234685D02*
X77953Y234449D01*
X70837Y238189D02*
X74341Y234685D01*
X77717D01*
X67171Y238189D02*
X70837D01*
X77795Y214606D02*
X77953Y214764D01*
X70837Y218110D02*
X74340Y214606D01*
X77795D01*
X67171Y218110D02*
X70837D01*
X77581Y194762D02*
X78051Y194291D01*
X72146Y198032D02*
X75415Y194762D01*
X77581D01*
X67171Y198032D02*
X72146D01*
X77900Y174449D02*
X77913D01*
X74341D02*
X77900D01*
X70837Y177953D02*
X74341Y174449D01*
X77913D02*
X77953Y174409D01*
X67171Y177953D02*
X70837D01*
X75931Y181260D02*
Y184236D01*
X76067Y161317D02*
Y164158D01*
X70837Y157874D02*
X74341Y154370D01*
X77815D01*
X77854Y154331D01*
X67171Y157874D02*
X70837D01*
X77900Y134291D02*
X78012D01*
X74340D02*
X77900D01*
X70837Y137795D02*
X74340Y134291D01*
X78012D02*
X78051Y134252D01*
X67171Y137795D02*
X70837D01*
Y117717D02*
X74341Y114213D01*
X77415D01*
X77658Y114455D02*
Y114469D01*
X67171Y117717D02*
X70837D01*
X77900Y94134D02*
X77913D01*
X74341D02*
X77900D01*
X70837Y97638D02*
X74341Y94134D01*
X77913D02*
X77953Y94095D01*
X67171Y97638D02*
X70837D01*
X67618Y77461D02*
X70965D01*
X67520Y77362D02*
X67618Y77461D01*
X70965D02*
X74370Y74055D01*
X77900D01*
X70837Y57480D02*
X74341Y53976D01*
X77815D01*
X67171Y57480D02*
X70837D01*
X67815Y37106D02*
X71358D01*
X74567Y33898D01*
X77900D01*
X70837Y17323D02*
X74340Y13819D01*
X77815D01*
X67171Y17323D02*
X70837D01*
X32776Y38287D02*
Y100098D01*
X31439Y101435D02*
X32776Y100098D01*
X19685Y101435D02*
X31439D01*
D45*
X19685Y84646D02*
D03*
Y171260D02*
D03*
X211024Y84646D02*
D03*
Y171260D02*
D03*
D46*
X228898Y154331D02*
D03*
Y142520D02*
D03*
Y113386D02*
D03*
Y101575D02*
D03*
D47*
X245905Y148425D02*
D03*
Y107480D02*
D03*
D48*
X131693Y181496D02*
D03*
X156634Y87832D02*
D03*
X142925Y102754D02*
D03*
D49*
X172441Y135925D02*
D03*
X170572Y151083D02*
D03*
X165157Y155807D02*
D03*
X176955Y111220D02*
D03*
X174870Y122835D02*
D03*
X172343Y239075D02*
D03*
X193405Y222047D02*
D03*
X206791Y225984D02*
D03*
X176476Y140551D02*
D03*
X156018Y137697D02*
D03*
X149454Y158455D02*
D03*
X148142Y132677D02*
D03*
X156313Y129441D02*
D03*
X155118Y126083D02*
D03*
X156634Y110335D02*
D03*
X154035Y114213D02*
D03*
Y118948D02*
D03*
X151816Y123425D02*
D03*
X148917Y86811D02*
D03*
X137992Y57382D02*
D03*
X143396Y62598D02*
D03*
X143682Y67795D02*
D03*
X212106Y151269D02*
D03*
X198327Y149213D02*
D03*
X174902Y132480D02*
D03*
X186775Y82418D02*
D03*
X187598Y76305D02*
D03*
X188951Y67028D02*
D03*
X186227Y59101D02*
D03*
X208760Y123228D02*
D03*
X208760Y142126D02*
D03*
X208957Y135728D02*
D03*
X209252Y129035D02*
D03*
X218209Y58268D02*
D03*
X215846Y66043D02*
D03*
X213976Y69488D02*
D03*
X214370Y76476D02*
D03*
X208071Y67028D02*
D03*
X206890Y57382D02*
D03*
X208366Y46358D02*
D03*
X213583Y43799D02*
D03*
X195187Y63192D02*
D03*
X200591Y68504D02*
D03*
X201083Y58071D02*
D03*
X201969Y73917D02*
D03*
X194202Y67720D02*
D03*
X197736Y71260D02*
D03*
X111024Y246063D02*
D03*
X67171Y212500D02*
D03*
X67679Y192224D02*
D03*
X67323Y172146D02*
D03*
Y152559D02*
D03*
X67679Y131890D02*
D03*
Y112598D02*
D03*
X67815Y91976D02*
D03*
X47146Y47717D02*
D03*
X47092Y87598D02*
D03*
X47441Y127953D02*
D03*
X48130Y168012D02*
D03*
X47146Y208740D02*
D03*
X76067Y250197D02*
D03*
X67171Y232685D02*
D03*
X74114Y228445D02*
D03*
X19685Y132677D02*
D03*
X19432Y126375D02*
D03*
X76846Y147244D02*
D03*
X19432Y120079D02*
D03*
Y113780D02*
D03*
X66694Y71752D02*
D03*
X19432Y107480D02*
D03*
X78919Y206675D02*
D03*
X78642Y186947D02*
D03*
Y166732D02*
D03*
X75931Y127801D02*
D03*
Y106104D02*
D03*
X77248Y87598D02*
D03*
X75931Y67126D02*
D03*
X75394Y47539D02*
D03*
X66535Y51673D02*
D03*
X67421Y31693D02*
D03*
X67520Y11811D02*
D03*
X77264Y8760D02*
D03*
X74213Y27067D02*
D03*
X19685Y101435D02*
D03*
D50*
X177067Y172146D02*
D03*
X179724Y150689D02*
D03*
X112139Y25591D02*
D03*
X100837Y246982D02*
D03*
X108465Y165945D02*
D03*
X108071Y145866D02*
D03*
X100591D02*
D03*
X144488Y148622D02*
D03*
X144587Y144390D02*
D03*
X112598Y233465D02*
D03*
X108268Y125984D02*
D03*
Y85827D02*
D03*
X108465Y185827D02*
D03*
X108268Y65748D02*
D03*
Y105906D02*
D03*
X100787Y85827D02*
D03*
Y46063D02*
D03*
X108465Y225984D02*
D03*
X100394D02*
D03*
X108465Y205906D02*
D03*
X100394D02*
D03*
Y185827D02*
D03*
X100591Y165945D02*
D03*
Y125984D02*
D03*
X100787Y105906D02*
D03*
Y65748D02*
D03*
X108661Y46063D02*
D03*
X100787Y25591D02*
D03*
M02*
