M48
;Layer_Color=9474304
;FILE_FORMAT=2:5
INCH,TZ
;TYPE=PLATED
T1F00S00C0.01500
T2F00S00C0.03268
T3F00S00C0.04016
T4F00S00C0.09488
;TYPE=NON_PLATED
T5F00S00C0.05709
T6F00S00C0.11811
%
T01
X62423Y21335
X71305Y12795
Y32874
X62423Y41413
X71305Y52953
X100787Y46063
X108661
Y25591
X100787
X112402Y14469
X165157Y47539
X166339Y52658
X169291Y57579
X162598Y60728
X157874Y62476
X163976Y67815
X171063Y67716
X171653Y75000
X171063Y82087
X161221Y78347
X154232Y88976
X154035Y112841
X150591Y123877
X150295Y130905
X155709Y134646
X157783Y143709
X144587Y144390
X144488Y148622
X135335Y160335
X157874Y162402
X157972Y183169
X153543
X162589Y185138
X161909Y199705
X166929Y199606
X172244Y199508
X177854Y185293
X174902Y182185
X172343Y178740
X176575Y170866
X188583Y183858
X192913Y192913
X191151Y196860
X192913Y200787
X205413Y183858
X211221Y177953
X188100Y155027
X174016Y133661
X176575Y127756
X171361Y124768
X172343Y120768
X173228Y109153
X181990Y105118
X182579Y99902
X187500
X192421
X197343
X195669Y74803
X211132Y74905
X210921Y70905
X209262Y66834
X211034Y62897
X208900Y117717
X208873Y124853
X158523Y123877
X144095Y118012
X108268Y125984
X100591
Y145866
X108071
X108465Y165945
X100591
X100394Y185827
X108465
Y205906
X100394
X132333Y203888
X136122Y208957
X132106Y213563
X132087Y194095
X138583Y198622
X141732Y188779
X71305Y193504
X62423Y202043
Y181965
X71305Y173425
Y153347
X62423Y161886
Y141807
X71305Y133268
Y113189
X62423Y121728
Y101650
X71305Y93110
Y73032
X62423Y81571
Y61492
X100787Y65748
X108268
X108268Y85827
X100787
Y105905
X108268
X71305Y213583
X37411Y211811
X38189Y161024
X40911Y142126
X38484Y117815
X18504Y120079
Y113779
Y107480
Y101181
Y126378
Y132677
X36417Y89370
X31299Y82060
X62423Y222122
Y242201
X71305Y233661
X100394Y225984
X108465
X112598Y233465
X112894Y249063
X100000Y246063
X162629Y227264
X156720Y214370
X195571Y224311
T02
X211024Y84646
Y171260
X19685
Y84646
T03
X228346Y98425
Y110236
Y149606
Y161417
T04
X245354Y89961
Y118701
Y141142
Y169882
T05
X205118Y90945
Y164961
X13780
Y90945
T06
X236221Y59055
Y200787
X19685
Y59055
M30
