M48
;Layer_Color=9474304
;FILE_FORMAT=2:5
INCH,TZ
;TYPE=PLATED
T1F00S00C0.01378
T2F00S00C0.01500
T3F00S00C0.03268
T4F00S00C0.04016
;TYPE=NON_PLATED
T5F00S00C0.05709
T6F00S00C0.11811
T7F00S00C0.11811
%
T01
X156634Y87832
X142925Y102754
X131693Y181496
T02
X47146Y47717
X66535Y51673
X75394Y47539
X74213Y27067
X67421Y31693
X67520Y11811
X77264Y8760
X100787Y25591
X112139Y25591
X108661Y46063
X100787
X137992Y57382
X206890Y57382
X208366Y46358
X213583Y43799
X218209Y58268
X215846Y66043
X214370Y76476
X213976Y69488
X208071Y67028
X200591Y68504
X197736Y71260
X201969Y73917
X194202Y67720
X195187Y63192
X188951Y67028
X187598Y76305
X186775Y82418
X186227Y59101
X201083Y58071
X143396Y62598
X143682Y67795
X148917Y86811
X156634Y110335
X154035Y114213
Y118948
X151816Y123425
X155118Y126083
X156313Y129441
X156018Y137697
X148142Y132677
X144587Y144390
X144488Y148622
X149454Y158455
X165157Y155807
X170572Y151083
X179724Y150689
X176476Y140551
X172441Y135925
X174902Y132480
X174870Y122835
X176955Y111220
X208760Y123228
X209252Y129035
X208957Y135728
X208760Y142126
X212106Y151269
X198327Y149213
X177067Y172146
X108465Y165945
X100591
Y145866
X108071
X108268Y125984
X100591
X100787Y105906
X108268
Y85827
X100787
Y65748
X108268
X75931Y67126
X66694Y71752
X67815Y91976
X77248Y87598
X75931Y106104
X67679Y112598
Y131890
X75931Y127801
X76846Y147244
X67323Y152559
Y172146
X78642Y166732
Y186947
X67679Y192224
X67171Y212500
X78919Y206675
X100394Y205906
X108465
Y185827
X100394
X48130Y168012
X47441Y127953
X19432Y126375
Y120079
Y113780
Y107480
X19685Y101435
Y132677
X47092Y87598
X47146Y208740
X67171Y232685
X74114Y228445
X76067Y250197
X100837Y246982
X111024Y246063
X112598Y233465
X108465Y225984
X100394
X172343Y239075
X193405Y222047
X206791Y225984
T03
X211024Y84646
Y171260
X19685
Y84646
T04
X228898Y101575
Y113386
Y142520
Y154331
T05
X205118Y90945
Y164961
X13780
Y90945
T06
X245905Y107480
Y148425
T07
X236220Y59055
Y200787
X19685
Y59055
M30
