G04*
G04 #@! TF.GenerationSoftware,Altium Limited,Altium Designer,19.1.8 (144)*
G04*
G04 Layer_Color=16711935*
%FSLAX25Y25*%
%MOIN*%
G70*
G01*
G75*
%ADD63C,0.00394*%
D63*
X144685Y152165D02*
G03*
X144685Y152165I-1969J0D01*
G01*
X167618Y213386D02*
Y217126D01*
X160728Y213386D02*
Y217126D01*
X167618D01*
X160728Y213386D02*
X167618D01*
X189862Y219980D02*
X215453D01*
Y233760D01*
X189862D02*
X215453D01*
X189862Y219980D02*
Y233760D01*
X131102Y245079D02*
X134843D01*
X131102Y238189D02*
X134843D01*
X131102D02*
Y245079D01*
X134843Y238189D02*
Y245079D01*
X140945Y238189D02*
X144685D01*
X140945Y245079D02*
X144685D01*
Y238189D02*
Y245079D01*
X140945Y238189D02*
Y245079D01*
X150787Y238189D02*
X154528D01*
X150787Y245079D02*
X154528D01*
Y238189D02*
Y245079D01*
X150787Y238189D02*
Y245079D01*
X160630Y238189D02*
X164370D01*
X160630Y245079D02*
X164370D01*
Y238189D02*
Y245079D01*
X160630Y238189D02*
Y245079D01*
X170472Y245079D02*
X174213D01*
X170472Y238189D02*
X174213D01*
X170472D02*
Y245079D01*
X174213Y238189D02*
Y245079D01*
X180315Y232480D02*
X184055D01*
X180315Y239370D02*
X184055D01*
Y232480D02*
Y239370D01*
X180315Y232480D02*
Y239370D01*
X124705Y175394D02*
Y179134D01*
X117815Y175394D02*
Y179134D01*
X124705D01*
X117815Y175394D02*
X124705D01*
X125492Y150000D02*
X129232D01*
X125492Y143110D02*
X129232D01*
X125492D02*
Y150000D01*
X129232Y143110D02*
Y150000D01*
X133760Y143012D02*
X137500D01*
X133760Y149902D02*
X137500D01*
Y143012D02*
Y149902D01*
X133760Y143012D02*
Y149902D01*
X142421Y137205D02*
X146161D01*
X142421Y130315D02*
X146161D01*
X142421D02*
Y137205D01*
X146161Y130315D02*
Y137205D01*
X148010Y93963D02*
X151750D01*
X148010Y100852D02*
X151750D01*
Y93963D02*
Y100852D01*
X148010Y93963D02*
Y100852D01*
X156278Y94095D02*
X160018D01*
X156278Y100984D02*
X160018D01*
Y94095D02*
Y100984D01*
X156278Y94095D02*
Y100984D01*
X185728Y121063D02*
X189469D01*
X185728Y127953D02*
X189469D01*
Y121063D02*
Y127953D01*
X185728Y121063D02*
Y127953D01*
X185728Y142618D02*
X189469D01*
X185728Y135728D02*
X189469D01*
X185728D02*
Y142618D01*
X189469Y135728D02*
Y142618D01*
X182185Y195866D02*
X185925D01*
X182185Y188976D02*
X185925D01*
X182185D02*
Y195866D01*
X185925Y188976D02*
Y195866D01*
X175492Y163287D02*
Y167028D01*
X182382Y163287D02*
Y167028D01*
X175492Y163287D02*
X182382D01*
X175492Y167028D02*
X182382D01*
X206299Y176673D02*
Y180413D01*
X199409Y176673D02*
Y180413D01*
Y176673D02*
X206299D01*
X199409Y180413D02*
X206299D01*
X194882Y176673D02*
Y180413D01*
X187992Y176673D02*
Y180413D01*
Y176673D02*
X194882D01*
X187992Y180413D02*
X194882D01*
X180315Y174213D02*
X184055D01*
X180315Y167323D02*
X184055D01*
Y174213D01*
X180315Y167323D02*
Y174213D01*
Y162697D02*
X184055D01*
X180315Y155807D02*
X184055D01*
Y162697D01*
X180315Y155807D02*
Y162697D01*
X185315Y102953D02*
X213307D01*
X185315D02*
Y152953D01*
X213307D01*
Y102953D02*
Y152953D01*
X139665Y164370D02*
X143405D01*
X139665Y171260D02*
X143405D01*
X139665Y164370D02*
Y171260D01*
X143405Y164370D02*
Y171260D01*
X139173Y104134D02*
Y155709D01*
X161614Y104134D02*
Y155709D01*
X139173D02*
X161614D01*
X139173Y104134D02*
X161614D01*
X141339Y57776D02*
X145079D01*
X141339Y64665D02*
X145079D01*
X141339Y57776D02*
Y64665D01*
X145079Y57776D02*
Y64665D01*
X132382Y13484D02*
X136122D01*
X132382Y20374D02*
X136122D01*
X132382Y13484D02*
Y20374D01*
X136122Y13484D02*
Y20374D01*
X121161Y13484D02*
Y20374D01*
X117421Y13484D02*
Y20374D01*
X121161D01*
X117421Y13484D02*
X121161D01*
X45419Y21063D02*
X49160D01*
X45419Y14173D02*
X49160D01*
Y21063D01*
X45419Y14173D02*
Y21063D01*
Y41142D02*
X49160D01*
X45419Y34252D02*
X49160D01*
Y41142D01*
X45419Y34252D02*
Y41142D01*
Y61221D02*
X49160D01*
X45419Y54331D02*
X49160D01*
Y61221D01*
X45419Y54331D02*
Y61221D01*
Y81299D02*
X49160D01*
X45419Y74410D02*
X49160D01*
Y81299D01*
X45419Y74410D02*
Y81299D01*
Y101378D02*
X49160D01*
X45419Y94488D02*
X49160D01*
Y101378D01*
X45419Y94488D02*
Y101378D01*
Y121457D02*
X49160D01*
X45419Y114567D02*
X49160D01*
Y121457D01*
X45419Y114567D02*
Y121457D01*
Y141535D02*
X49160D01*
X45419Y134646D02*
X49160D01*
Y141535D01*
X45419Y134646D02*
Y141535D01*
Y161614D02*
X49160D01*
X45419Y154724D02*
X49160D01*
Y161614D01*
X45419Y154724D02*
Y161614D01*
Y181693D02*
X49160D01*
X45419Y174803D02*
X49160D01*
Y181693D01*
X45419Y174803D02*
Y181693D01*
Y201772D02*
X49160D01*
X45419Y194882D02*
X49160D01*
Y201772D01*
X45419Y194882D02*
Y201772D01*
Y221850D02*
X49160D01*
X45419Y214961D02*
X49160D01*
Y221850D01*
X45419Y214961D02*
Y221850D01*
X102900Y13583D02*
X106640D01*
X102900Y20472D02*
X106640D01*
X102900Y13583D02*
Y20472D01*
X106640Y13583D02*
Y20472D01*
X102900Y33661D02*
X106640D01*
X102900Y40551D02*
X106640D01*
X102900Y33661D02*
Y40551D01*
X106640Y33661D02*
Y40551D01*
X102900Y53740D02*
X106640D01*
X102900Y60630D02*
X106640D01*
X102900Y53740D02*
Y60630D01*
X106640Y53740D02*
Y60630D01*
X102900Y73819D02*
X106640D01*
X102900Y80709D02*
X106640D01*
X102900Y73819D02*
Y80709D01*
X106640Y73819D02*
Y80709D01*
X102900Y93898D02*
X106640D01*
X102900Y100787D02*
X106640D01*
X102900Y93898D02*
Y100787D01*
X106640Y93898D02*
Y100787D01*
X102900Y113976D02*
X106640D01*
X102900Y120866D02*
X106640D01*
X102900Y113976D02*
Y120866D01*
X106640Y113976D02*
Y120866D01*
X102900Y134055D02*
X106640D01*
X102900Y140945D02*
X106640D01*
X102900Y134055D02*
Y140945D01*
X106640Y134055D02*
Y140945D01*
X102900Y154134D02*
X106640D01*
X102900Y161024D02*
X106640D01*
X102900Y154134D02*
Y161024D01*
X106640Y154134D02*
Y161024D01*
X102900Y174213D02*
X106640D01*
X102900Y181102D02*
X106640D01*
X102900Y174213D02*
Y181102D01*
X106640Y174213D02*
Y181102D01*
X102900Y194291D02*
X106640D01*
X102900Y201181D02*
X106640D01*
X102900Y194291D02*
Y201181D01*
X106640Y194291D02*
Y201181D01*
X102900Y214370D02*
X106640D01*
X102900Y221260D02*
X106640D01*
X102900Y214370D02*
Y221260D01*
X106640Y214370D02*
Y221260D01*
X102900Y234449D02*
X106640D01*
X102900Y241339D02*
X106640D01*
X102900Y234449D02*
Y241339D01*
X106640Y234449D02*
Y241339D01*
X89075Y241437D02*
Y245177D01*
X95965Y241437D02*
Y245177D01*
X89075D02*
X95965D01*
X89075Y241437D02*
X95965D01*
X89075Y231201D02*
Y234941D01*
X95965Y231201D02*
Y234941D01*
X89075D02*
X95965D01*
X89075Y231201D02*
X95965D01*
X89075Y221358D02*
Y225098D01*
X95965Y221358D02*
Y225098D01*
X89075D02*
X95965D01*
X89075Y221358D02*
X95965D01*
X89075Y211122D02*
Y214862D01*
X95965Y211122D02*
Y214862D01*
X89075D02*
X95965D01*
X89075Y211122D02*
X95965D01*
X89075Y201279D02*
Y205020D01*
X95965Y201279D02*
Y205020D01*
X89075D02*
X95965D01*
X89075Y201279D02*
X95965D01*
X89075Y191043D02*
Y194783D01*
X95965Y191043D02*
Y194783D01*
X89075D02*
X95965D01*
X89075Y191043D02*
X95965D01*
X89075Y181201D02*
Y184941D01*
X95965Y181201D02*
Y184941D01*
X89075D02*
X95965D01*
X89075Y181201D02*
X95965D01*
X89075Y170965D02*
Y174705D01*
X95965Y170965D02*
Y174705D01*
X89075D02*
X95965D01*
X89075Y170965D02*
X95965D01*
X89075Y161122D02*
Y164862D01*
X95965Y161122D02*
Y164862D01*
X89075D02*
X95965D01*
X89075Y161122D02*
X95965D01*
X89075Y150886D02*
Y154626D01*
X95965Y150886D02*
Y154626D01*
X89075D02*
X95965D01*
X89075Y150886D02*
X95965D01*
X89075Y141043D02*
Y144783D01*
X95965Y141043D02*
Y144783D01*
X89075D02*
X95965D01*
X89075Y141043D02*
X95965D01*
X89075Y130807D02*
Y134547D01*
X95965Y130807D02*
Y134547D01*
X89075D02*
X95965D01*
X89075Y130807D02*
X95965D01*
X89075Y110728D02*
Y114469D01*
X95965Y110728D02*
Y114469D01*
X89075D02*
X95965D01*
X89075Y110728D02*
X95965D01*
X89075Y120965D02*
Y124705D01*
X95965Y120965D02*
Y124705D01*
X89075D02*
X95965D01*
X89075Y120965D02*
X95965D01*
X89075Y100886D02*
Y104626D01*
X95965Y100886D02*
Y104626D01*
X89075D02*
X95965D01*
X89075Y100886D02*
X95965D01*
X89075Y90650D02*
Y94390D01*
X95965Y90650D02*
Y94390D01*
X89075D02*
X95965D01*
X89075Y90650D02*
X95965D01*
X89075Y80807D02*
Y84547D01*
X95965Y80807D02*
Y84547D01*
X89075D02*
X95965D01*
X89075Y80807D02*
X95965D01*
X89075Y70571D02*
Y74311D01*
X95965Y70571D02*
Y74311D01*
X89075D02*
X95965D01*
X89075Y70571D02*
X95965D01*
X89075Y60728D02*
Y64468D01*
X95965Y60728D02*
Y64468D01*
X89075D02*
X95965D01*
X89075Y60728D02*
X95965D01*
X89075Y50492D02*
Y54232D01*
X95965Y50492D02*
Y54232D01*
X89075D02*
X95965D01*
X89075Y50492D02*
X95965D01*
X89075Y40650D02*
Y44390D01*
X95965Y40650D02*
Y44390D01*
X89075D02*
X95965D01*
X89075Y40650D02*
X95965D01*
X89075Y30413D02*
Y34154D01*
X95965Y30413D02*
Y34154D01*
X89075D02*
X95965D01*
X89075Y30413D02*
X95965D01*
X89075Y20571D02*
Y24311D01*
X95965Y20571D02*
Y24311D01*
X89075D02*
X95965D01*
X89075Y20571D02*
X95965D01*
X89075Y10335D02*
Y14075D01*
X95965Y10335D02*
Y14075D01*
X89075D02*
X95965D01*
X89075Y10335D02*
X95965D01*
X45419Y241929D02*
X49160D01*
X45419Y235039D02*
X49160D01*
Y241929D01*
X45419Y235039D02*
Y241929D01*
M02*
