G04*
G04 #@! TF.GenerationSoftware,Altium Limited,Altium Designer,20.0.11 (256)*
G04*
G04 Layer_Physical_Order=2*
G04 Layer_Color=16711680*
%FSLAX25Y25*%
%MOIN*%
G70*
G01*
G75*
%ADD15C,0.01000*%
%ADD18R,0.03347X0.03740*%
%ADD19R,0.03740X0.03347*%
%ADD21R,0.03543X0.03937*%
%ADD22R,0.03937X0.03543*%
%ADD43C,0.00800*%
%ADD44C,0.01968*%
%ADD45C,0.05118*%
%ADD46C,0.07874*%
%ADD47C,0.11811*%
%ADD48C,0.02756*%
%ADD49C,0.02681*%
%ADD50C,0.03000*%
%ADD51R,0.04331X0.01968*%
%ADD52R,0.14961X0.07874*%
%ADD53R,0.05906X0.07874*%
%ADD54O,0.01968X0.05118*%
%ADD55R,0.01968X0.05118*%
%ADD56O,0.05118X0.01968*%
%ADD57R,0.05118X0.01968*%
%ADD58R,0.04900X0.12500*%
%ADD59C,0.02000*%
G36*
X236220Y172441D02*
X236220Y65592D01*
X234945Y65467D01*
X233719Y65095D01*
X232589Y64490D01*
X231598Y63678D01*
X230785Y62687D01*
X230181Y61557D01*
X229809Y60330D01*
X229683Y59055D01*
X229809Y57780D01*
X230181Y56554D01*
X230785Y55423D01*
X231598Y54433D01*
X232589Y53620D01*
X233719Y53016D01*
X234945Y52644D01*
X236220Y52518D01*
Y22342D01*
X228445Y14567D01*
X122343Y14567D01*
Y40996D01*
X123266Y41378D01*
X137736Y26909D01*
X138260Y26559D01*
X138878Y26436D01*
X175441D01*
X175973Y25436D01*
X175772Y25016D01*
X175772Y24353D01*
Y22744D01*
X181709D01*
Y24353D01*
X181709Y25016D01*
X181882Y25944D01*
X184212D01*
Y25799D01*
X184334Y25181D01*
X184685Y24657D01*
X185209Y24307D01*
X185827Y24184D01*
X186445Y24307D01*
X186969Y24657D01*
X187319Y25181D01*
X187442Y25799D01*
Y28949D01*
X187319Y29567D01*
X186969Y30091D01*
X186445Y30441D01*
X185827Y30564D01*
X185209Y30441D01*
X184685Y30091D01*
X184334Y29567D01*
X184256Y29174D01*
X181309D01*
Y29931D01*
X176172D01*
Y29667D01*
X139547D01*
X122343Y46871D01*
Y93621D01*
X123266Y94003D01*
X135617Y81653D01*
X136141Y81303D01*
X136759Y81180D01*
X149717D01*
X149932Y81011D01*
X149970Y80364D01*
X149947Y80276D01*
X149112Y79411D01*
X146567D01*
X145949Y79288D01*
X145425Y78938D01*
X145411Y78917D01*
X143396D01*
X143396Y78917D01*
X142967Y78831D01*
X142603Y78588D01*
X142603Y78588D01*
X137199Y73184D01*
X136956Y72821D01*
X136871Y72391D01*
X136871Y72391D01*
Y58966D01*
X136593Y58781D01*
X136164Y58139D01*
X136014Y57382D01*
X136164Y56625D01*
X136593Y55983D01*
X136871Y55797D01*
Y40237D01*
X136871Y40237D01*
X136956Y39808D01*
X137199Y39444D01*
X142889Y33754D01*
X142889Y33754D01*
X143253Y33511D01*
X143682Y33426D01*
X143682Y33426D01*
X187134D01*
X189545Y31015D01*
X189685Y30091D01*
X189334Y29567D01*
X189211Y28949D01*
Y25799D01*
X189334Y25181D01*
X189685Y24657D01*
X190209Y24307D01*
X190827Y24184D01*
X191445Y24307D01*
X191969Y24657D01*
X192319Y25181D01*
X192442Y25799D01*
Y28949D01*
X192319Y29567D01*
X191969Y30091D01*
X191948Y30105D01*
Y31319D01*
X191863Y31748D01*
X191620Y32112D01*
X191620Y32112D01*
X189596Y34136D01*
X189978Y35060D01*
X191847D01*
X194705Y32202D01*
Y30105D01*
X194685Y30091D01*
X194334Y29567D01*
X194211Y28949D01*
Y25799D01*
X194334Y25181D01*
X194685Y24657D01*
X195209Y24307D01*
X195827Y24184D01*
X196445Y24307D01*
X196969Y24657D01*
X197319Y25181D01*
X197442Y25799D01*
Y28949D01*
X197319Y29567D01*
X196969Y30091D01*
X196948Y30105D01*
Y32666D01*
X196863Y33095D01*
X196620Y33459D01*
X196620Y33459D01*
X193104Y36975D01*
X192740Y37218D01*
X192311Y37303D01*
X192311Y37303D01*
X146244D01*
X141574Y41973D01*
Y60279D01*
X142574Y60814D01*
X142639Y60770D01*
X143396Y60620D01*
X144153Y60770D01*
X144276Y60852D01*
X145136Y61365D01*
X145793Y60926D01*
X146567Y60772D01*
Y59818D01*
X145793Y59664D01*
X145136Y59226D01*
X144698Y58570D01*
X144643Y58295D01*
X148142D01*
X151640D01*
X151586Y58570D01*
X151147Y59226D01*
X150491Y59664D01*
X149717Y59818D01*
Y60772D01*
X150491Y60926D01*
X151147Y61365D01*
X151586Y62021D01*
X151640Y62295D01*
X148142D01*
Y62795D01*
X147642D01*
Y64818D01*
X146567D01*
X145793Y64664D01*
X145136Y64226D01*
X144153Y64426D01*
X143396Y64577D01*
X142639Y64426D01*
X142574Y64383D01*
X141731Y64834D01*
X141663Y65630D01*
X141678Y65836D01*
X142574Y66202D01*
X142925Y65967D01*
X143682Y65817D01*
X144439Y65967D01*
X145081Y66396D01*
X145081Y66396D01*
X145425Y66653D01*
X145949Y66303D01*
X146567Y66180D01*
X149717D01*
X150335Y66303D01*
X150859Y66653D01*
X151209Y67177D01*
X151332Y67795D01*
X151209Y68413D01*
X150859Y68937D01*
X150335Y69288D01*
X149717Y69411D01*
X146567D01*
X145949Y69288D01*
X145425Y68937D01*
X145081Y69194D01*
X145081Y69194D01*
X144439Y69623D01*
X143682Y69774D01*
X142925Y69623D01*
X142574Y69389D01*
X141646Y69768D01*
X141574Y69832D01*
Y71674D01*
X145411D01*
X145425Y71653D01*
X145949Y71303D01*
X146567Y71180D01*
X149717D01*
X150335Y71303D01*
X150859Y71653D01*
X151209Y72177D01*
X151332Y72795D01*
X151327Y72820D01*
X154194Y75687D01*
X154194Y75687D01*
X154437Y76050D01*
X154522Y76480D01*
X154522Y76480D01*
Y85180D01*
X155522Y85715D01*
X155706Y85592D01*
X156134Y85507D01*
Y87832D01*
X157134D01*
Y85507D01*
X157451Y85570D01*
X157672Y85516D01*
X158451Y84983D01*
Y76917D01*
X155250Y73716D01*
X155007Y73352D01*
X154922Y72923D01*
X154922Y72923D01*
Y50648D01*
X153191Y48917D01*
X150873D01*
X150859Y48937D01*
X150335Y49288D01*
X149717Y49411D01*
X146567D01*
X145949Y49288D01*
X145425Y48937D01*
X145075Y48413D01*
X144952Y47795D01*
X145075Y47177D01*
X145425Y46653D01*
X145949Y46303D01*
X146567Y46180D01*
X147020D01*
Y44104D01*
X146644D01*
Y39164D01*
X150528D01*
X151362Y38764D01*
X152025Y38764D01*
X153535D01*
Y41634D01*
Y44504D01*
X152025D01*
X151362Y44504D01*
X150528Y44104D01*
X149263D01*
Y46180D01*
X149717D01*
X150335Y46303D01*
X150859Y46653D01*
X150873Y46674D01*
X153655D01*
X153655Y46674D01*
X154085Y46759D01*
X154448Y47002D01*
X156836Y49390D01*
X156836Y49390D01*
X157079Y49754D01*
X157165Y50183D01*
Y72458D01*
X159274Y74567D01*
X160197Y74185D01*
Y49705D01*
X160197Y49705D01*
X160283Y49275D01*
X160526Y48912D01*
X170073Y39364D01*
X170073Y39364D01*
X170437Y39121D01*
X170866Y39036D01*
X170866Y39036D01*
X211248D01*
X219315Y30969D01*
X219685Y30091D01*
X219334Y29567D01*
X219212Y28949D01*
Y25799D01*
X219334Y25181D01*
X219685Y24657D01*
X220209Y24307D01*
X220827Y24184D01*
X221445Y24307D01*
X221969Y24657D01*
X222319Y25181D01*
X222442Y25799D01*
Y26252D01*
X224892D01*
Y24892D01*
X228776D01*
X229610Y24492D01*
X230273Y24492D01*
X231784D01*
Y27362D01*
Y30232D01*
X230273D01*
X229610Y30232D01*
X228776Y29832D01*
X224892D01*
Y28495D01*
X222442D01*
Y28949D01*
X222319Y29567D01*
X221969Y30091D01*
X221948Y30105D01*
Y31043D01*
X221863Y31473D01*
X221620Y31836D01*
X221620Y31836D01*
X212506Y40951D01*
X212142Y41194D01*
X211713Y41279D01*
X211712Y41279D01*
X171331D01*
X166936Y45674D01*
X167350Y46674D01*
X169809D01*
X169822Y46653D01*
X170346Y46303D01*
X170965Y46180D01*
X174114D01*
X174732Y46303D01*
X175256Y46653D01*
X175607Y47177D01*
X175730Y47795D01*
X175607Y48413D01*
X175256Y48937D01*
X174732Y49288D01*
X174114Y49411D01*
X170965D01*
X170346Y49288D01*
X169822Y48937D01*
X169809Y48917D01*
X167236D01*
X164507Y51646D01*
Y58755D01*
X165431Y59138D01*
X167567Y57002D01*
X167567Y57002D01*
X167930Y56759D01*
X168360Y56674D01*
X168360Y56674D01*
X169809D01*
X169822Y56653D01*
X170346Y56303D01*
X170965Y56180D01*
X174114D01*
X174732Y56303D01*
X175256Y56653D01*
X175607Y57177D01*
X175730Y57795D01*
X175607Y58413D01*
X175256Y58938D01*
X174732Y59288D01*
X174114Y59411D01*
X170965D01*
X170346Y59288D01*
X169822Y58938D01*
X169809Y58917D01*
X168824D01*
X166279Y61462D01*
Y66655D01*
X167203Y67038D01*
X167317Y66923D01*
X167317Y66923D01*
X167681Y66680D01*
X168110Y66595D01*
X168110Y66595D01*
X169909D01*
X170346Y66303D01*
X170965Y66180D01*
X174114D01*
X174732Y66303D01*
X175256Y66653D01*
X175607Y67177D01*
X175730Y67795D01*
X175607Y68413D01*
X175256Y68937D01*
X174732Y69288D01*
X174114Y69411D01*
X170965D01*
X170346Y69288D01*
X169822Y68937D01*
X169756Y68838D01*
X168575D01*
X167893Y69520D01*
Y82413D01*
X168396Y82812D01*
X169380Y82373D01*
Y81211D01*
X175698D01*
Y81485D01*
X184116D01*
X184202Y81354D01*
X183868Y80598D01*
X183670Y80336D01*
X183331Y80269D01*
X182967Y80025D01*
X182967Y80025D01*
X181858Y78917D01*
X175270D01*
X175256Y78938D01*
X174732Y79288D01*
X174114Y79411D01*
X170965D01*
X170346Y79288D01*
X169822Y78938D01*
X169472Y78413D01*
X169349Y77795D01*
X169472Y77177D01*
X169822Y76653D01*
X170346Y76303D01*
X170965Y76180D01*
X174114D01*
X174732Y76303D01*
X175256Y76653D01*
X175270Y76674D01*
X182323D01*
X182323Y76674D01*
X182752Y76759D01*
X183116Y77002D01*
X184224Y78111D01*
X185269D01*
X185803Y77111D01*
X185770Y77062D01*
X185620Y76305D01*
X185685Y75977D01*
X183624Y73917D01*
X175270D01*
X175256Y73937D01*
X174732Y74288D01*
X174114Y74411D01*
X170965D01*
X170346Y74288D01*
X169822Y73937D01*
X169472Y73413D01*
X169349Y72795D01*
X169472Y72177D01*
X169822Y71653D01*
X170346Y71303D01*
X170965Y71180D01*
X174114D01*
X174732Y71303D01*
X175256Y71653D01*
X175270Y71674D01*
X184089D01*
X184089Y71674D01*
X184518Y71759D01*
X184882Y72002D01*
X187271Y74391D01*
X187598Y74326D01*
X188356Y74477D01*
X188997Y74906D01*
X189426Y75548D01*
X189577Y76305D01*
X189426Y77062D01*
X189418Y77074D01*
X189673Y78057D01*
X190103Y78286D01*
X191103Y77690D01*
Y73228D01*
X191103Y73228D01*
X191188Y72799D01*
X191431Y72435D01*
X193388Y70478D01*
X193121Y69331D01*
X192803Y69119D01*
X192374Y68477D01*
X192224Y67720D01*
X192374Y66963D01*
X192803Y66321D01*
X193445Y65892D01*
X193822Y65817D01*
X194055Y64770D01*
X193788Y64591D01*
X193359Y63949D01*
X193208Y63192D01*
X193273Y62865D01*
X190034Y59625D01*
X189791Y59261D01*
X189705Y58832D01*
X189705Y58832D01*
Y54502D01*
X189685Y54489D01*
X189334Y53965D01*
X189211Y53347D01*
Y50197D01*
X189334Y49579D01*
X189685Y49055D01*
X190209Y48704D01*
X190827Y48582D01*
X191445Y48704D01*
X191969Y49055D01*
X192319Y49579D01*
X192442Y50197D01*
Y53347D01*
X192319Y53965D01*
X191969Y54489D01*
X191948Y54502D01*
Y58368D01*
X194859Y61279D01*
X195187Y61213D01*
X195944Y61364D01*
X196586Y61793D01*
X196803Y62119D01*
X197947Y62389D01*
X199672Y60665D01*
X199684Y59470D01*
X199255Y58828D01*
X199104Y58071D01*
X199255Y57314D01*
X199684Y56672D01*
X199833Y56572D01*
Y54588D01*
X199685Y54489D01*
X199334Y53965D01*
X199212Y53347D01*
Y50197D01*
X199334Y49579D01*
X199685Y49055D01*
X200209Y48704D01*
X200827Y48582D01*
X201445Y48704D01*
X201969Y49055D01*
X202319Y49579D01*
X202442Y50197D01*
Y53347D01*
X202319Y53965D01*
X202076Y54328D01*
Y56401D01*
X202482Y56672D01*
X202911Y57314D01*
X203061Y58071D01*
X202935Y58705D01*
X203018Y58981D01*
X203527Y59705D01*
X205074D01*
X205353Y59087D01*
X205440Y58705D01*
X205062Y58139D01*
X204911Y57382D01*
X205052Y56675D01*
X205034Y56657D01*
X204791Y56293D01*
X204705Y55864D01*
X204705Y55864D01*
Y54502D01*
X204685Y54489D01*
X204334Y53965D01*
X204211Y53347D01*
Y50197D01*
X204334Y49579D01*
X204685Y49055D01*
X205209Y48704D01*
X205827Y48582D01*
X206445Y48704D01*
X206969Y49055D01*
X207319Y49579D01*
X207442Y50197D01*
Y53347D01*
X207319Y53965D01*
X206978Y54475D01*
X207177Y55461D01*
X207647Y55554D01*
X208289Y55983D01*
X208718Y56625D01*
X209705Y56463D01*
Y54502D01*
X209685Y54489D01*
X209334Y53965D01*
X209211Y53347D01*
Y50197D01*
X209334Y49579D01*
X209685Y49055D01*
X210209Y48704D01*
X210827Y48582D01*
X211445Y48704D01*
X211969Y49055D01*
X212319Y49579D01*
X212442Y50197D01*
Y53347D01*
X212319Y53965D01*
X211969Y54489D01*
X211948Y54502D01*
Y57874D01*
X211948Y57874D01*
X211863Y58303D01*
X211620Y58667D01*
X211620Y58667D01*
X209832Y60455D01*
X210215Y61378D01*
X216458D01*
X216974Y60768D01*
X216810Y59667D01*
X216381Y59025D01*
X216230Y58268D01*
X216316Y57835D01*
X215105Y56624D01*
X214861Y56260D01*
X214776Y55831D01*
X214776Y55831D01*
Y54550D01*
X214685Y54489D01*
X214334Y53965D01*
X214212Y53347D01*
Y50197D01*
X214334Y49579D01*
X214685Y49055D01*
X215209Y48704D01*
X215827Y48582D01*
X216445Y48704D01*
X216969Y49055D01*
X217319Y49579D01*
X217442Y50197D01*
Y53347D01*
X217319Y53965D01*
X217019Y54413D01*
Y55366D01*
X217986Y56333D01*
X218209Y56289D01*
X218705Y56388D01*
X219472Y55954D01*
X219705Y55731D01*
Y54502D01*
X219685Y54489D01*
X219334Y53965D01*
X219212Y53347D01*
Y50197D01*
X219334Y49579D01*
X219685Y49055D01*
X220209Y48704D01*
X220827Y48582D01*
X221445Y48704D01*
X221969Y49055D01*
X222319Y49579D01*
X222442Y50197D01*
Y53347D01*
X222319Y53965D01*
X221969Y54489D01*
X221948Y54502D01*
Y59101D01*
X221948Y59101D01*
X221863Y59530D01*
X221620Y59894D01*
X221620Y59894D01*
X218221Y63293D01*
X217857Y63536D01*
X217495Y63608D01*
X217392Y63788D01*
X217212Y64622D01*
X217246Y64644D01*
X217674Y65286D01*
X217825Y66043D01*
X217674Y66800D01*
X217605Y66905D01*
X224710Y74010D01*
X224954Y74374D01*
X225039Y74803D01*
X225039Y74803D01*
Y86417D01*
X224954Y86847D01*
X224710Y87210D01*
X224710Y87210D01*
X216474Y95447D01*
X216888Y96447D01*
X221269D01*
Y99597D01*
Y102746D01*
Y105896D01*
Y109046D01*
Y112195D01*
Y115345D01*
Y118494D01*
Y121644D01*
Y124794D01*
Y127943D01*
Y131093D01*
Y134242D01*
Y137392D01*
Y140542D01*
Y143691D01*
Y146841D01*
Y149991D01*
Y153140D01*
Y156290D01*
Y159458D01*
X215739D01*
Y159458D01*
X214960Y158924D01*
X214892Y158910D01*
X214528Y158667D01*
X214528Y158667D01*
X211313Y155452D01*
X211070Y155088D01*
X210985Y154659D01*
X210985Y154659D01*
Y152854D01*
X210707Y152668D01*
X210278Y152026D01*
X210128Y151269D01*
X210278Y150512D01*
X210707Y149870D01*
X211349Y149441D01*
X212106Y149290D01*
X212434Y149355D01*
X214157Y147632D01*
X214521Y147389D01*
X214950Y147304D01*
X215739Y146719D01*
Y143248D01*
X210344D01*
X210159Y143525D01*
X209517Y143954D01*
X208760Y144105D01*
X208003Y143954D01*
X207361Y143525D01*
X207309Y143447D01*
X206392Y143671D01*
X206309Y143750D01*
Y146441D01*
X206709D01*
Y147925D01*
X203543D01*
Y148925D01*
X206709D01*
Y149591D01*
Y151075D01*
X199885D01*
X199378Y150844D01*
X199084Y151041D01*
X198327Y151191D01*
X197570Y151041D01*
X196928Y150612D01*
X196499Y149970D01*
X196348Y149213D01*
X196413Y148885D01*
X191167Y143639D01*
X190167Y144053D01*
Y147477D01*
X190567Y148311D01*
X190567Y148974D01*
Y150583D01*
X187598D01*
X184630D01*
Y148974D01*
X184630Y148311D01*
X185030Y147477D01*
Y143396D01*
X186007D01*
X186282Y142396D01*
X185559Y141673D01*
X178061D01*
X177875Y141950D01*
X177234Y142379D01*
X176476Y142530D01*
X175719Y142379D01*
X175077Y141950D01*
X174648Y141308D01*
X174563Y140876D01*
X173563Y140975D01*
Y145977D01*
X175695Y148109D01*
X175695Y148109D01*
X175938Y148473D01*
X176023Y148902D01*
Y159449D01*
X175938Y159878D01*
X175695Y160242D01*
X175695Y160242D01*
X174671Y161265D01*
X175054Y162189D01*
X175780D01*
Y165157D01*
Y168126D01*
X173508D01*
X172775Y168771D01*
Y176012D01*
X175891Y179128D01*
X176135Y179492D01*
X176220Y179921D01*
X176220Y179921D01*
Y185335D01*
X223327D01*
X236220Y172441D01*
D02*
G37*
G36*
X173977Y180386D02*
X170861Y177269D01*
X170617Y176906D01*
X170532Y176476D01*
X170532Y176476D01*
Y162697D01*
X170532Y162697D01*
X170617Y162268D01*
X170861Y161904D01*
X173780Y158984D01*
Y149367D01*
X171648Y147235D01*
X171405Y146871D01*
X171319Y146441D01*
X171319Y146441D01*
Y137510D01*
X171042Y137324D01*
X170613Y136682D01*
X170462Y135925D01*
X170613Y135168D01*
X171042Y134526D01*
X171684Y134097D01*
X172356Y133964D01*
X172578Y133739D01*
X173035Y133045D01*
X172923Y132480D01*
X173074Y131723D01*
X173503Y131081D01*
X174144Y130652D01*
X174902Y130502D01*
X175659Y130652D01*
X176301Y131081D01*
X176486Y131359D01*
X181595D01*
X181595Y131359D01*
X182024Y131444D01*
X182388Y131687D01*
X198000Y147299D01*
X198327Y147234D01*
X199002Y147368D01*
X199331Y147093D01*
X199579Y146801D01*
X199449Y146312D01*
X199085Y146069D01*
X199085Y146069D01*
X184837Y131821D01*
X184594Y131457D01*
X184508Y131027D01*
X184508Y131027D01*
Y97709D01*
X179850Y93051D01*
X170177D01*
X170177Y93051D01*
X169748Y92965D01*
X169384Y92722D01*
X169384Y92722D01*
X163441Y86778D01*
X162441Y87193D01*
Y87992D01*
Y97213D01*
X162441Y97214D01*
X162355Y97643D01*
X162112Y98007D01*
X162112Y98007D01*
X157755Y102363D01*
Y108750D01*
X158033Y108936D01*
X158462Y109578D01*
X158612Y110335D01*
X158462Y111092D01*
X158033Y111734D01*
X157391Y112163D01*
X156634Y112313D01*
X156228Y112232D01*
X155633Y113111D01*
X155863Y113455D01*
X156014Y114213D01*
X155863Y114970D01*
X155434Y115612D01*
X154793Y116041D01*
X154642Y116070D01*
Y117090D01*
X154793Y117120D01*
X155434Y117549D01*
X155863Y118191D01*
X156014Y118948D01*
X155863Y119705D01*
X155434Y120347D01*
X154793Y120776D01*
X154035Y120927D01*
X153278Y120776D01*
X152636Y120347D01*
X152207Y119705D01*
X152116Y119247D01*
X151116Y119346D01*
Y120764D01*
X151802Y121449D01*
X151816Y121447D01*
X152573Y121597D01*
X153215Y122026D01*
X153644Y122668D01*
X153794Y123425D01*
X153793Y123432D01*
X153964Y123679D01*
X154661Y124195D01*
X155118Y124104D01*
X155875Y124255D01*
X156517Y124684D01*
X156946Y125326D01*
X157097Y126083D01*
X156946Y126840D01*
X157070Y127613D01*
X157712Y128042D01*
X158141Y128684D01*
X158291Y129441D01*
X158141Y130198D01*
X157712Y130840D01*
X157070Y131269D01*
X156313Y131420D01*
X155556Y131269D01*
X154914Y130840D01*
X154803Y130674D01*
X150300D01*
X149805Y131674D01*
X149970Y131920D01*
X150120Y132677D01*
X149970Y133434D01*
X149541Y134076D01*
X149168Y134325D01*
X149472Y135325D01*
X153171D01*
Y136575D01*
X154434D01*
X154619Y136298D01*
X155261Y135869D01*
X156018Y135718D01*
X156775Y135869D01*
X157417Y136298D01*
X157846Y136940D01*
X157997Y137697D01*
X157846Y138454D01*
X157417Y139096D01*
X156775Y139525D01*
X156018Y139675D01*
X155261Y139525D01*
X154619Y139096D01*
X154434Y138818D01*
X153171D01*
Y140265D01*
X149053D01*
X148339Y140265D01*
X147624Y140265D01*
X143506D01*
Y135325D01*
X143738D01*
X143850Y135290D01*
X144059Y134799D01*
X143398Y133799D01*
X122343D01*
X122343Y157438D01*
X147801D01*
X148055Y157056D01*
X148697Y156627D01*
X149454Y156477D01*
X150212Y156627D01*
X150854Y157056D01*
X151283Y157698D01*
X151433Y158455D01*
X151283Y159213D01*
X150854Y159854D01*
X150212Y160283D01*
X149454Y160434D01*
X148697Y160283D01*
X148055Y159854D01*
X147939Y159681D01*
X122343D01*
Y177362D01*
X130315Y185335D01*
X173977D01*
Y180386D01*
D02*
G37*
G36*
X215739Y136948D02*
X210475D01*
X210356Y137127D01*
X209714Y137556D01*
X208957Y137707D01*
X208200Y137556D01*
X207558Y137127D01*
X207309Y136755D01*
X206309Y137058D01*
Y140502D01*
X206361Y140556D01*
X207309Y140805D01*
X207361Y140727D01*
X208003Y140298D01*
X208760Y140147D01*
X209517Y140298D01*
X210159Y140727D01*
X210344Y141004D01*
X215739D01*
Y136948D01*
D02*
G37*
G36*
Y130649D02*
X210330D01*
X210009Y130863D01*
X209252Y131014D01*
X208495Y130863D01*
X207853Y130435D01*
X207424Y129793D01*
X207309Y129213D01*
X206309Y129311D01*
Y134398D01*
X207309Y134702D01*
X207558Y134329D01*
X208200Y133900D01*
X208957Y133750D01*
X209714Y133900D01*
X210356Y134329D01*
X210607Y134705D01*
X215739D01*
Y130649D01*
D02*
G37*
G36*
X174648Y139794D02*
X175077Y139152D01*
X175719Y138723D01*
X176476Y138573D01*
X177234Y138723D01*
X177875Y139152D01*
X178061Y139430D01*
X185544D01*
X185958Y138430D01*
X181130Y133602D01*
X176486D01*
X176301Y133879D01*
X175659Y134308D01*
X174987Y134442D01*
X174765Y134666D01*
X174307Y135360D01*
X174419Y135925D01*
X174269Y136682D01*
X173840Y137324D01*
X173563Y137510D01*
Y140128D01*
X174563Y140226D01*
X174648Y139794D01*
D02*
G37*
G36*
X200778Y143175D02*
Y140310D01*
X199878Y140098D01*
X199449Y140013D01*
X199085Y139769D01*
X199085Y139769D01*
X187675Y128360D01*
X186751Y128743D01*
Y130563D01*
X199778Y143589D01*
X200778Y143175D01*
D02*
G37*
G36*
X207424Y128278D02*
X207853Y127636D01*
X208495Y127208D01*
X209252Y127057D01*
X210009Y127208D01*
X210651Y127636D01*
X211080Y128278D01*
X211105Y128406D01*
X215739D01*
Y124350D01*
X210344D01*
X210159Y124627D01*
X209517Y125056D01*
X208760Y125207D01*
X208003Y125056D01*
X207361Y124627D01*
X207309Y124549D01*
X206392Y124773D01*
X206309Y124853D01*
Y128760D01*
X207309Y128858D01*
X207424Y128278D01*
D02*
G37*
G36*
X215739Y118051D02*
X214839D01*
X214409Y117965D01*
X214046Y117722D01*
X214046Y117722D01*
X209050Y112726D01*
X208806Y112362D01*
X208721Y111933D01*
X208721Y111933D01*
Y93567D01*
X208637Y93493D01*
X207694Y93262D01*
X207582Y93409D01*
X206860Y93962D01*
X206020Y94310D01*
X205118Y94429D01*
X204216Y94310D01*
X203376Y93962D01*
X202654Y93409D01*
X202101Y92687D01*
X201753Y91847D01*
X201634Y90945D01*
X201753Y90043D01*
X202101Y89203D01*
X202654Y88481D01*
X203376Y87928D01*
X204216Y87580D01*
X205118Y87461D01*
X206020Y87580D01*
X206860Y87928D01*
X207582Y88481D01*
X208136Y89203D01*
X208484Y90043D01*
X208602Y90945D01*
X208484Y91847D01*
X208472Y91874D01*
X209320Y92440D01*
X215414Y86347D01*
Y79106D01*
X214697Y78390D01*
X214370Y78455D01*
X213613Y78304D01*
X212971Y77875D01*
X212542Y77234D01*
X212391Y76476D01*
X212542Y75719D01*
X212971Y75077D01*
X213063Y75016D01*
X213364Y73786D01*
X213344Y73717D01*
X213138Y73439D01*
X212475D01*
X212475Y73439D01*
X212046Y73353D01*
X211682Y73110D01*
X211682Y73110D01*
X207455Y68884D01*
X207314Y68856D01*
X206672Y68427D01*
X206243Y67785D01*
X206092Y67028D01*
X206243Y66270D01*
X206672Y65628D01*
X207314Y65200D01*
X208071Y65049D01*
X208828Y65200D01*
X209470Y65628D01*
X209899Y66270D01*
X210049Y67028D01*
X209899Y67785D01*
X209750Y68007D01*
X211020Y69277D01*
X212105Y68947D01*
X212148Y68731D01*
X212577Y68089D01*
X213219Y67660D01*
X213370Y67630D01*
X213974Y66858D01*
X213972Y66568D01*
X213868Y66043D01*
X214019Y65286D01*
X214447Y64644D01*
X214481Y64622D01*
X214178Y63622D01*
X203417D01*
X201377Y65662D01*
X201369Y65944D01*
X201605Y66848D01*
X201990Y67105D01*
X202418Y67747D01*
X202569Y68504D01*
X202504Y68831D01*
X206010Y72337D01*
X206010Y72337D01*
X206253Y72701D01*
X206338Y73130D01*
X206338Y73130D01*
Y75197D01*
X206253Y75626D01*
X206010Y75990D01*
X206010Y75990D01*
X202958Y79041D01*
X202595Y79284D01*
X202165Y79370D01*
X202165Y79370D01*
X200957D01*
X198267Y82059D01*
Y99142D01*
X199185Y100060D01*
X200778D01*
Y96447D01*
X206309D01*
Y99597D01*
Y102746D01*
Y105896D01*
Y109046D01*
Y112195D01*
Y115345D01*
Y118494D01*
Y121604D01*
X206361Y121658D01*
X207309Y121907D01*
X207361Y121829D01*
X208003Y121400D01*
X208760Y121250D01*
X209517Y121400D01*
X210159Y121829D01*
X210344Y122107D01*
X215739D01*
Y118051D01*
D02*
G37*
G36*
X200778Y127499D02*
X199878D01*
X199449Y127414D01*
X199085Y127171D01*
X199085Y127171D01*
X190997Y119083D01*
X190073Y119465D01*
Y122542D01*
X199087Y131556D01*
X200778D01*
Y127499D01*
D02*
G37*
G36*
Y114901D02*
X199705D01*
X199705Y114901D01*
X199276Y114816D01*
X198912Y114573D01*
X194270Y109931D01*
X193346Y110313D01*
Y113315D01*
X198988Y118957D01*
X200778D01*
Y114901D01*
D02*
G37*
G36*
X160197Y96749D02*
Y92352D01*
X159274Y91969D01*
X155157Y96086D01*
Y100375D01*
X156157Y100789D01*
X160197Y96749D01*
D02*
G37*
G36*
X140360Y130630D02*
X140347Y130556D01*
X140033Y130346D01*
X140033Y130346D01*
X138282Y128594D01*
X138039Y128231D01*
X137953Y127801D01*
X137953Y127801D01*
Y126191D01*
X136506D01*
Y122110D01*
X136106Y121276D01*
X136106Y120613D01*
Y119004D01*
X139075D01*
Y118504D01*
X139575D01*
Y115732D01*
X141307D01*
X142307Y115732D01*
X143043Y115732D01*
X144775D01*
Y118504D01*
X145775D01*
Y115732D01*
X147873D01*
X148244Y115732D01*
X148873Y114993D01*
Y95136D01*
X148873Y95136D01*
X148959Y94707D01*
X149202Y94343D01*
X150679Y92866D01*
Y89170D01*
X149679Y88636D01*
X149675Y88639D01*
X148917Y88790D01*
X148160Y88639D01*
X147518Y88210D01*
X147089Y87568D01*
X146939Y86811D01*
X147057Y86219D01*
X147020Y86035D01*
X147020Y86035D01*
Y84411D01*
X137428D01*
X122343Y99496D01*
Y131556D01*
X139966D01*
X140360Y130630D01*
D02*
G37*
G36*
X189430Y91607D02*
Y83738D01*
X188430Y83434D01*
X188174Y83817D01*
X187532Y84246D01*
X186775Y84396D01*
X186018Y84246D01*
X185376Y83817D01*
X185317Y83728D01*
X175698D01*
Y84380D01*
X170986D01*
X170604Y85303D01*
X171777Y86477D01*
X182528D01*
X182528Y86477D01*
X182958Y86562D01*
X183322Y86805D01*
X188506Y91989D01*
X189430Y91607D01*
D02*
G37*
%LPC*%
G36*
X177067Y174287D02*
X176248Y174124D01*
X175553Y173660D01*
X175089Y172965D01*
X174926Y172146D01*
X175089Y171326D01*
X175553Y170632D01*
X176248Y170168D01*
X177067Y170004D01*
X177650Y170121D01*
X178645Y169126D01*
X178231Y168126D01*
X176780D01*
Y165157D01*
Y162189D01*
X178388D01*
X179051Y162189D01*
X179575Y162440D01*
X180436Y162039D01*
X180575Y161900D01*
Y153616D01*
X179724Y152830D01*
X178905Y152667D01*
X178210Y152203D01*
X177746Y151508D01*
X177583Y150689D01*
X177746Y149870D01*
X178210Y149175D01*
X178905Y148711D01*
X179724Y148548D01*
X180544Y148711D01*
X181238Y149175D01*
X181703Y149870D01*
X181866Y150689D01*
X181737Y151337D01*
X182315Y151916D01*
X182536Y152247D01*
X182614Y152637D01*
Y162589D01*
X183966D01*
Y167726D01*
X182375D01*
Y167857D01*
X182297Y168247D01*
X182076Y168578D01*
X179092Y171563D01*
X179208Y172146D01*
X179045Y172965D01*
X178581Y173660D01*
X177886Y174124D01*
X177067Y174287D01*
D02*
G37*
G36*
X211024Y174446D02*
X210199Y174338D01*
X209431Y174019D01*
X208771Y173513D01*
X208264Y172853D01*
X207946Y172084D01*
X207837Y171260D01*
X207946Y170435D01*
X208264Y169667D01*
X208771Y169007D01*
X209431Y168500D01*
X210199Y168182D01*
X211024Y168073D01*
X211848Y168182D01*
X212617Y168500D01*
X213277Y169007D01*
X213783Y169667D01*
X214101Y170435D01*
X214210Y171260D01*
X214101Y172084D01*
X213783Y172853D01*
X213277Y173513D01*
X212617Y174019D01*
X211848Y174338D01*
X211024Y174446D01*
D02*
G37*
G36*
X205118Y168445D02*
X204216Y168326D01*
X203376Y167978D01*
X202654Y167424D01*
X202101Y166703D01*
X201753Y165862D01*
X201634Y164961D01*
X201753Y164059D01*
X202101Y163219D01*
X202654Y162497D01*
X203376Y161943D01*
X204216Y161595D01*
X205118Y161477D01*
X206020Y161595D01*
X206860Y161943D01*
X207582Y162497D01*
X208136Y163219D01*
X208484Y164059D01*
X208602Y164961D01*
X208484Y165862D01*
X208136Y166703D01*
X207582Y167424D01*
X206860Y167978D01*
X206020Y168326D01*
X205118Y168445D01*
D02*
G37*
G36*
X206709Y159858D02*
X204043D01*
Y158374D01*
X206709D01*
Y159858D01*
D02*
G37*
G36*
X203043D02*
X200378D01*
Y158374D01*
X203043D01*
Y159858D01*
D02*
G37*
G36*
X206709Y157374D02*
X200378D01*
Y155890D01*
Y155224D01*
X206709D01*
Y155890D01*
Y157374D01*
D02*
G37*
G36*
Y154224D02*
X200378D01*
Y152075D01*
X206709D01*
Y152740D01*
Y154224D01*
D02*
G37*
G36*
X190567Y153854D02*
X188098D01*
Y151583D01*
X190567D01*
Y153854D01*
D02*
G37*
G36*
X187098D02*
X184630D01*
Y151583D01*
X187098D01*
Y153854D01*
D02*
G37*
G36*
X228898Y158907D02*
X227713Y158751D01*
X226610Y158294D01*
X225662Y157566D01*
X224935Y156619D01*
X224477Y155515D01*
X224322Y154331D01*
X224477Y153146D01*
X224935Y152043D01*
X225662Y151095D01*
X226610Y150368D01*
X227713Y149910D01*
X228898Y149755D01*
X230082Y149910D01*
X231186Y150368D01*
X232134Y151095D01*
X232861Y152043D01*
X233318Y153146D01*
X233474Y154331D01*
X233318Y155515D01*
X232861Y156619D01*
X232134Y157566D01*
X231186Y158294D01*
X230082Y158751D01*
X228898Y158907D01*
D02*
G37*
G36*
Y147096D02*
X227713Y146940D01*
X226610Y146483D01*
X225662Y145756D01*
X224935Y144808D01*
X224477Y143704D01*
X224322Y142520D01*
X224477Y141335D01*
X224935Y140232D01*
X225662Y139284D01*
X226610Y138557D01*
X227713Y138100D01*
X228898Y137943D01*
X230082Y138100D01*
X231186Y138557D01*
X232134Y139284D01*
X232861Y140232D01*
X233318Y141335D01*
X233474Y142520D01*
X233318Y143704D01*
X232861Y144808D01*
X232134Y145756D01*
X231186Y146483D01*
X230082Y146940D01*
X228898Y147096D01*
D02*
G37*
G36*
Y117962D02*
X227713Y117806D01*
X226610Y117349D01*
X225662Y116622D01*
X224935Y115674D01*
X224477Y114570D01*
X224322Y113386D01*
X224477Y112201D01*
X224935Y111098D01*
X225662Y110150D01*
X226610Y109423D01*
X227713Y108966D01*
X228898Y108810D01*
X230082Y108966D01*
X231186Y109423D01*
X232134Y110150D01*
X232861Y111098D01*
X233318Y112201D01*
X233474Y113386D01*
X233318Y114570D01*
X232861Y115674D01*
X232134Y116622D01*
X231186Y117349D01*
X230082Y117806D01*
X228898Y117962D01*
D02*
G37*
G36*
Y106151D02*
X227713Y105995D01*
X226610Y105538D01*
X225662Y104811D01*
X224935Y103863D01*
X224477Y102759D01*
X224322Y101575D01*
X224477Y100391D01*
X224935Y99287D01*
X225662Y98339D01*
X226610Y97612D01*
X227713Y97155D01*
X228898Y96999D01*
X230082Y97155D01*
X231186Y97612D01*
X232134Y98339D01*
X232861Y99287D01*
X233318Y100391D01*
X233474Y101575D01*
X233318Y102759D01*
X232861Y103863D01*
X232134Y104811D01*
X231186Y105538D01*
X230082Y105995D01*
X228898Y106151D01*
D02*
G37*
G36*
X188951Y69006D02*
X188194Y68856D01*
X187552Y68427D01*
X187123Y67785D01*
X186973Y67028D01*
X187038Y66700D01*
X184254Y63917D01*
X175270D01*
X175256Y63937D01*
X174732Y64288D01*
X174114Y64411D01*
X170965D01*
X170346Y64288D01*
X169822Y63937D01*
X169472Y63413D01*
X169349Y62795D01*
X169472Y62177D01*
X169822Y61653D01*
X170346Y61303D01*
X170965Y61180D01*
X174114D01*
X174732Y61303D01*
X175256Y61653D01*
X175270Y61674D01*
X184492D01*
X184719Y61674D01*
X184719Y61674D01*
X184834Y61638D01*
X185202Y60750D01*
X184828Y60500D01*
X184399Y59858D01*
X184248Y59101D01*
X184313Y58774D01*
X179456Y53917D01*
X175270D01*
X175256Y53938D01*
X174732Y54288D01*
X174114Y54411D01*
X170965D01*
X170346Y54288D01*
X169822Y53938D01*
X169472Y53413D01*
X169349Y52795D01*
X169472Y52177D01*
X169822Y51653D01*
X170346Y51303D01*
X170965Y51180D01*
X174114D01*
X174732Y51303D01*
X175256Y51653D01*
X175270Y51674D01*
X179921D01*
X179921Y51674D01*
X180350Y51759D01*
X180714Y52002D01*
X183242Y54531D01*
X184242Y54116D01*
Y48613D01*
X184705D01*
Y47638D01*
X184705Y47638D01*
X184791Y47209D01*
X185034Y46845D01*
X188872Y43006D01*
X188872Y43006D01*
X189236Y42763D01*
X189665Y42678D01*
X189665Y42678D01*
X211998D01*
X212184Y42400D01*
X212825Y41971D01*
X213583Y41821D01*
X214340Y41971D01*
X214982Y42400D01*
X215411Y43042D01*
X215561Y43799D01*
X215411Y44556D01*
X214982Y45198D01*
X214340Y45627D01*
X213583Y45778D01*
X212825Y45627D01*
X212184Y45198D01*
X211998Y44921D01*
X210942D01*
X210743Y45101D01*
X210258Y45921D01*
X210345Y46358D01*
X210194Y47115D01*
X209765Y47757D01*
X209123Y48186D01*
X208366Y48337D01*
X207609Y48186D01*
X206967Y47757D01*
X206782Y47480D01*
X197709D01*
X197011Y48177D01*
Y49118D01*
X197319Y49579D01*
X197442Y50197D01*
Y53347D01*
X197319Y53965D01*
X196969Y54489D01*
X196445Y54839D01*
X195827Y54962D01*
X195209Y54839D01*
X194685Y54489D01*
X194334Y53965D01*
X194211Y53347D01*
Y50197D01*
X194334Y49579D01*
X194685Y49055D01*
X194768Y48999D01*
Y47713D01*
X194768Y47713D01*
X194854Y47283D01*
X195097Y46920D01*
X196096Y45921D01*
X195681Y44921D01*
X190130D01*
X187430Y47620D01*
X187411Y48613D01*
X187411D01*
Y54931D01*
X185057D01*
X184643Y55931D01*
X185899Y57188D01*
X186227Y57122D01*
X186984Y57273D01*
X187626Y57702D01*
X188055Y58344D01*
X188205Y59101D01*
X188055Y59858D01*
X187626Y60500D01*
X186984Y60929D01*
X186227Y61080D01*
X185806Y60996D01*
X185438Y61885D01*
X185512Y62002D01*
X185644Y62135D01*
X188624Y65114D01*
X188951Y65049D01*
X189708Y65200D01*
X190350Y65628D01*
X190779Y66270D01*
X190930Y67028D01*
X190779Y67785D01*
X190350Y68427D01*
X189708Y68856D01*
X188951Y69006D01*
D02*
G37*
G36*
X149717Y64818D02*
X148642D01*
Y63295D01*
X151640D01*
X151586Y63569D01*
X151147Y64226D01*
X150491Y64664D01*
X149717Y64818D01*
D02*
G37*
G36*
X151640Y57295D02*
X148142D01*
X144643D01*
X144698Y57021D01*
X145136Y56365D01*
X145793Y55926D01*
X146567Y55772D01*
Y54818D01*
X145793Y54664D01*
X145136Y54226D01*
X144698Y53570D01*
X144643Y53295D01*
X148142D01*
X151640D01*
X151586Y53570D01*
X151147Y54226D01*
X150491Y54664D01*
X149717Y54818D01*
Y55772D01*
X150491Y55926D01*
X151147Y56365D01*
X151586Y57021D01*
X151640Y57295D01*
D02*
G37*
G36*
Y52295D02*
X148642D01*
Y50772D01*
X149717D01*
X150491Y50926D01*
X151147Y51365D01*
X151586Y52021D01*
X151640Y52295D01*
D02*
G37*
G36*
X147642D02*
X144643D01*
X144698Y52021D01*
X145136Y51365D01*
X145793Y50926D01*
X146567Y50772D01*
X147642D01*
Y52295D01*
D02*
G37*
G36*
X154535Y44504D02*
Y42134D01*
X156709D01*
Y44504D01*
X154535D01*
D02*
G37*
G36*
X156709Y41134D02*
X154535D01*
Y38764D01*
X156709D01*
Y41134D01*
D02*
G37*
G36*
X216327Y30872D02*
Y27874D01*
X217850D01*
Y28949D01*
X217696Y29723D01*
X217257Y30379D01*
X216601Y30818D01*
X216327Y30872D01*
D02*
G37*
G36*
X200327Y30872D02*
X200053Y30818D01*
X199396Y30379D01*
X198958Y29723D01*
X198804Y28949D01*
Y27874D01*
X200327D01*
Y30872D01*
D02*
G37*
G36*
X232784Y30232D02*
Y27862D01*
X234957D01*
Y30232D01*
X232784D01*
D02*
G37*
G36*
X234957Y26862D02*
X232784D01*
Y24492D01*
X234957D01*
Y26862D01*
D02*
G37*
G36*
X211327Y30872D02*
Y27374D01*
Y23875D01*
X211601Y23930D01*
X212257Y24369D01*
X212696Y25025D01*
X212850Y25799D01*
X213804D01*
X213958Y25025D01*
X214396Y24369D01*
X215053Y23930D01*
X215327Y23875D01*
Y27374D01*
Y30872D01*
X215053Y30818D01*
X214396Y30379D01*
X213958Y29723D01*
X213804Y28949D01*
X212850D01*
X212696Y29723D01*
X212257Y30379D01*
X211601Y30818D01*
X211327Y30872D01*
D02*
G37*
G36*
X206327D02*
Y27374D01*
Y23875D01*
X206601Y23930D01*
X207257Y24369D01*
X207696Y25025D01*
X207850Y25799D01*
X208804D01*
X208958Y25025D01*
X209396Y24369D01*
X210053Y23930D01*
X210327Y23875D01*
Y27374D01*
Y30872D01*
X210053Y30818D01*
X209396Y30379D01*
X208958Y29723D01*
X208804Y28949D01*
X207850D01*
X207696Y29723D01*
X207257Y30379D01*
X206601Y30818D01*
X206327Y30872D01*
D02*
G37*
G36*
X201327D02*
Y27374D01*
Y23875D01*
X201601Y23930D01*
X202257Y24369D01*
X202696Y25025D01*
X202850Y25799D01*
X203804D01*
X203958Y25025D01*
X204396Y24369D01*
X205053Y23930D01*
X205327Y23875D01*
Y27374D01*
Y30872D01*
X205053Y30818D01*
X204396Y30379D01*
X203958Y29723D01*
X203804Y28949D01*
X202850D01*
X202696Y29723D01*
X202257Y30379D01*
X201601Y30818D01*
X201327Y30872D01*
D02*
G37*
G36*
X200327Y26874D02*
X198804D01*
Y25799D01*
X198958Y25025D01*
X199396Y24369D01*
X200053Y23930D01*
X200327Y23875D01*
Y26874D01*
D02*
G37*
G36*
X217850D02*
X216327D01*
Y23875D01*
X216601Y23930D01*
X217257Y24369D01*
X217696Y25025D01*
X217850Y25799D01*
Y26874D01*
D02*
G37*
G36*
X181709Y21744D02*
X179240D01*
Y19472D01*
X181709D01*
Y21744D01*
D02*
G37*
G36*
X178240D02*
X175772D01*
Y19472D01*
X178240D01*
Y21744D01*
D02*
G37*
G36*
X132193Y183821D02*
Y181996D01*
X134018D01*
X133933Y182424D01*
X133407Y183211D01*
X132621Y183736D01*
X132193Y183821D01*
D02*
G37*
G36*
X131193D02*
X130765Y183736D01*
X129979Y183211D01*
X129453Y182424D01*
X129368Y181996D01*
X131193D01*
Y183821D01*
D02*
G37*
G36*
X134018Y180996D02*
X132193D01*
Y179171D01*
X132621Y179256D01*
X133407Y179782D01*
X133933Y180568D01*
X134018Y180996D01*
D02*
G37*
G36*
X131193D02*
X129368D01*
X129453Y180568D01*
X129979Y179782D01*
X130765Y179256D01*
X131193Y179171D01*
Y180996D01*
D02*
G37*
G36*
X170572Y153061D02*
X169815Y152911D01*
X169173Y152482D01*
X168744Y151840D01*
X168593Y151083D01*
X168658Y150755D01*
X167567Y149664D01*
X167324Y149300D01*
X167238Y148871D01*
X167238Y148871D01*
Y129345D01*
X167238Y129345D01*
X167324Y128916D01*
X167567Y128552D01*
X172957Y123162D01*
X172891Y122835D01*
X173042Y122077D01*
X173471Y121435D01*
X174113Y121007D01*
X174870Y120856D01*
X175627Y121007D01*
X176269Y121435D01*
X176698Y122077D01*
X176849Y122835D01*
X176698Y123592D01*
X176269Y124234D01*
X175627Y124663D01*
X174870Y124813D01*
X174543Y124748D01*
X169481Y129809D01*
Y148406D01*
X170245Y149169D01*
X170572Y149104D01*
X171329Y149255D01*
X171971Y149684D01*
X172400Y150326D01*
X172550Y151083D01*
X172400Y151840D01*
X171971Y152482D01*
X171329Y152911D01*
X170572Y153061D01*
D02*
G37*
G36*
X129832Y151387D02*
X124892D01*
Y147503D01*
X124492Y146669D01*
X124492Y146007D01*
Y144496D01*
X127362D01*
X130232D01*
Y146007D01*
X130232Y146669D01*
X130076Y146996D01*
X130667Y147996D01*
X133160D01*
Y146743D01*
X133160D01*
Y146171D01*
X133160D01*
Y141624D01*
X138100D01*
Y143370D01*
X142742D01*
X143073Y142876D01*
X143767Y142412D01*
X144587Y142249D01*
X145406Y142412D01*
X146101Y142876D01*
X146565Y143570D01*
X146728Y144390D01*
X146565Y145209D01*
X146101Y145904D01*
X146050Y145937D01*
X146002Y147108D01*
X146466Y147803D01*
X146629Y148622D01*
X146466Y149441D01*
X146002Y150136D01*
X145308Y150600D01*
X144488Y150763D01*
X143669Y150600D01*
X142974Y150136D01*
X142644Y149642D01*
X138100D01*
Y151289D01*
X133160D01*
Y150035D01*
X129832D01*
Y151387D01*
D02*
G37*
G36*
X130232Y143496D02*
X127862D01*
Y141323D01*
X130232D01*
Y143496D01*
D02*
G37*
G36*
X126862D02*
X124492D01*
Y141323D01*
X126862D01*
Y143496D01*
D02*
G37*
G36*
X165157Y157786D02*
X164400Y157635D01*
X163758Y157206D01*
X163330Y156564D01*
X163179Y155807D01*
X163262Y155390D01*
X163235Y155350D01*
X163150Y154921D01*
X163150Y154921D01*
Y123904D01*
X163150Y123904D01*
X163235Y123475D01*
X163479Y123111D01*
X175042Y111548D01*
X174977Y111220D01*
X175127Y110463D01*
X175556Y109821D01*
X176198Y109392D01*
X176955Y109242D01*
X177713Y109392D01*
X178355Y109821D01*
X178784Y110463D01*
X178934Y111220D01*
X178784Y111978D01*
X178355Y112619D01*
X177713Y113048D01*
X176955Y113199D01*
X176628Y113134D01*
X165393Y124369D01*
Y153875D01*
X165915Y153979D01*
X166557Y154408D01*
X166985Y155050D01*
X167136Y155807D01*
X166985Y156564D01*
X166557Y157206D01*
X165915Y157635D01*
X165157Y157786D01*
D02*
G37*
G36*
X211024Y87832D02*
X210199Y87723D01*
X209431Y87405D01*
X208771Y86899D01*
X208264Y86239D01*
X207946Y85470D01*
X207837Y84646D01*
X207946Y83821D01*
X208264Y83052D01*
X208771Y82393D01*
X209431Y81886D01*
X210199Y81568D01*
X211024Y81459D01*
X211848Y81568D01*
X212617Y81886D01*
X213277Y82393D01*
X213783Y83052D01*
X214101Y83821D01*
X214210Y84646D01*
X214101Y85470D01*
X213783Y86239D01*
X213277Y86899D01*
X212617Y87405D01*
X211848Y87723D01*
X211024Y87832D01*
D02*
G37*
G36*
X138575Y118004D02*
X136106D01*
Y115732D01*
X138575D01*
Y118004D01*
D02*
G37*
G36*
X143425Y105079D02*
Y103254D01*
X145250D01*
X145165Y103682D01*
X144639Y104468D01*
X143853Y104994D01*
X143425Y105079D01*
D02*
G37*
G36*
X142425D02*
X141997Y104994D01*
X141210Y104468D01*
X140685Y103682D01*
X140600Y103254D01*
X142425D01*
Y105079D01*
D02*
G37*
G36*
X145250Y102254D02*
X143425D01*
Y100429D01*
X143853Y100514D01*
X144639Y101039D01*
X145165Y101826D01*
X145250Y102254D01*
D02*
G37*
G36*
X142425D02*
X140600D01*
X140685Y101826D01*
X141210Y101039D01*
X141997Y100514D01*
X142425Y100429D01*
Y102254D01*
D02*
G37*
%LPD*%
D15*
X235754Y10158D02*
G03*
X235754Y10158I-787J0D01*
G01*
X249533D02*
G03*
X249533Y10158I-787J0D01*
G01*
X247000Y8189D02*
G03*
X247000Y8189I-2191J0D01*
G01*
X241092D02*
G03*
X241092Y8189I-2189J0D01*
G01*
X100837Y246982D02*
X101219Y246600D01*
Y244844D02*
Y246600D01*
Y244844D02*
X112598Y233465D01*
X141039Y72795D02*
X149717D01*
X143396Y77795D02*
X149717D01*
X151816Y123050D02*
Y123425D01*
X149995Y121229D02*
X151816Y123050D01*
X149995Y95136D02*
Y121229D01*
Y95136D02*
X151801Y93330D01*
Y79879D02*
Y93330D01*
X149717Y77795D02*
X151801Y79879D01*
X151595Y116507D02*
X154035Y118948D01*
X151595Y95799D02*
Y116507D01*
Y95799D02*
X153401Y93993D01*
Y76480D02*
Y93993D01*
X149717Y72795D02*
X153401Y76480D01*
X172539Y62795D02*
X184719D01*
X188951Y67028D01*
X184089Y72795D02*
X187598Y76305D01*
X172539Y72795D02*
X184089D01*
X186586Y82607D02*
X186775Y82418D01*
X172610Y82607D02*
X186586D01*
X172343Y82874D02*
X172610Y82607D01*
X192311Y36182D02*
X195827Y32666D01*
X140453Y41508D02*
X145779Y36182D01*
X192311D01*
X140453Y41508D02*
Y62500D01*
X175098Y202362D02*
X178197Y205461D01*
X175098Y179921D02*
Y202362D01*
X171653Y162697D02*
Y176476D01*
X175098Y179921D01*
X174902Y148902D02*
Y159449D01*
X171653Y162697D02*
X174902Y159449D01*
X172441Y146441D02*
X174902Y148902D01*
X172441Y135925D02*
Y146441D01*
X168360Y148871D02*
X170572Y151083D01*
X164272Y123904D02*
Y154921D01*
X165157Y155807D01*
X164272Y123904D02*
X176955Y111220D01*
X168360Y129345D02*
X174870Y122835D01*
X168360Y129345D02*
Y148871D01*
X193602Y214469D02*
Y221850D01*
X193405Y222047D02*
X193602Y221850D01*
X202657Y226279D02*
X202953Y225984D01*
X206791D01*
X187598Y142126D02*
Y145768D01*
X176476Y140551D02*
X186024D01*
X187598Y142126D01*
X190551Y80709D02*
Y117051D01*
X189075Y79232D02*
X190551Y80709D01*
Y117051D02*
X199878Y126378D01*
X183760Y79232D02*
X189075D01*
X185630Y97244D02*
Y131027D01*
X180315Y91929D02*
X185630Y97244D01*
Y131027D02*
X199878Y145276D01*
X187351Y96210D02*
Y126450D01*
X181201Y90059D02*
X187351Y96210D01*
Y126450D02*
X199878Y138976D01*
X145780Y135039D02*
Y137795D01*
Y135039D02*
X148142Y132677D01*
X150898Y137795D02*
X150996Y137697D01*
X156018D01*
X149351Y158559D02*
X149454Y158455D01*
X120347Y158559D02*
X149351D01*
X148142Y132677D02*
X148142Y132677D01*
X120347Y132677D02*
X148142D01*
X156018Y129553D02*
X156130Y129441D01*
X156313D01*
X140826Y129553D02*
X156018D01*
X139075Y127801D02*
X140826Y129553D01*
X139075Y123819D02*
Y127801D01*
X153051Y127953D02*
X155020Y125984D01*
X155118Y126083D02*
Y126083D01*
X155020Y125984D02*
X155118Y126083D01*
X145275Y123819D02*
Y127367D01*
X145861Y127953D01*
X153051D01*
X156634Y101899D02*
X161319Y97214D01*
X156634Y101899D02*
Y110335D01*
X154035Y95621D02*
X159572Y90084D01*
X154035Y95621D02*
Y114213D01*
X161319Y87992D02*
Y97214D01*
X220827Y27374D02*
X227154D01*
X227165Y27362D01*
X148142Y42410D02*
Y47795D01*
Y42410D02*
X148917Y41634D01*
X100787Y25591D02*
X112139D01*
X100787Y25591D02*
X100787Y25591D01*
X148142Y82795D02*
Y86035D01*
X148917Y86811D01*
X137992Y57382D02*
Y72391D01*
Y40237D02*
Y57382D01*
X140453Y62500D02*
Y72210D01*
Y62500D02*
X143298D01*
X143396Y62598D01*
X140453Y72210D02*
X141039Y72795D01*
X143682Y67795D02*
X148142D01*
X137992Y40237D02*
X143682Y34547D01*
X137992Y72391D02*
X143396Y77795D01*
X208709Y205461D02*
X211713Y208465D01*
X178197Y205461D02*
X208709D01*
X211713Y208465D02*
Y214469D01*
X159572Y76452D02*
Y90084D01*
X161319Y49705D02*
Y87992D01*
X156043Y72923D02*
X159572Y76452D01*
X161319Y49705D02*
X170866Y40158D01*
X156043Y50183D02*
Y72923D01*
X143682Y34547D02*
X187598D01*
X148142Y47795D02*
X153655D01*
X156043Y50183D01*
X170866Y40158D02*
X211713D01*
X220827Y31043D01*
Y27374D02*
Y31043D01*
X195827Y27374D02*
Y32666D01*
X190827Y27374D02*
Y31319D01*
X187598Y34547D02*
X190827Y31319D01*
X163386Y51181D02*
X166772Y47795D01*
X163386Y85138D02*
X170177Y91929D01*
X163386Y51181D02*
Y85138D01*
X165157Y84645D02*
X170572Y90059D01*
X165157Y60997D02*
X168360Y57795D01*
X165157Y60997D02*
Y84645D01*
X166772Y69055D02*
Y83057D01*
Y69055D02*
X168110Y67716D01*
X166772Y83057D02*
X171313Y87598D01*
X168110Y67716D02*
X172461D01*
X214950Y148425D02*
X218504D01*
X212106Y151269D02*
X214950Y148425D01*
X212106Y151575D02*
Y154659D01*
Y151269D02*
Y151575D01*
X215256Y154724D02*
X218504D01*
X212106Y151575D02*
X215256Y154724D01*
X215322Y157874D02*
X218504D01*
X212106Y154659D02*
X215322Y157874D01*
X218351Y151422D02*
X218504Y151575D01*
X212259Y151422D02*
X218351D01*
X212106Y151269D02*
X212259Y151422D01*
X174902Y132480D02*
X181595D01*
X198327Y149213D01*
X166772Y47795D02*
X172539D01*
X170177Y91929D02*
X180315D01*
X170572Y90059D02*
X181201D01*
X171313Y87598D02*
X182528D01*
X168360Y57795D02*
X172539D01*
X188951Y94021D02*
Y123006D01*
X172461Y67716D02*
X172539Y67795D01*
X182528Y87598D02*
X188951Y94021D01*
X172539Y77795D02*
X182323D01*
X183760Y79232D01*
X179921Y52795D02*
X186227Y59101D01*
X172539Y52795D02*
X179921D01*
X199878Y145276D02*
X203543D01*
X199878Y138976D02*
X203543D01*
X188951Y123006D02*
X198622Y132677D01*
X203543D01*
X199878Y126378D02*
X203543D01*
X208760Y123228D02*
X218504D01*
X208760Y142126D02*
X208760Y142126D01*
X218504D01*
X208957Y135728D02*
X209055Y135827D01*
X218504D01*
X209252Y129035D02*
X209744Y129528D01*
X218504D01*
X214862Y97519D02*
X215375Y98032D01*
X214862Y95472D02*
Y97519D01*
Y95472D02*
X223917Y86417D01*
X220827Y52028D02*
Y59101D01*
X217428Y62500D02*
X220827Y59101D01*
X202953Y62500D02*
X217428D01*
X215898Y55831D02*
X218209Y58142D01*
Y58268D01*
X215898Y51622D02*
Y55831D01*
X215846Y66043D02*
Y66732D01*
X223917Y74803D01*
X212475Y72317D02*
X214542D01*
X208071Y67913D02*
X212475Y72317D01*
X208071Y67028D02*
Y67913D01*
X222146Y77658D02*
Y85827D01*
X213976Y69488D02*
X222146Y77658D01*
X220498Y78273D02*
Y85113D01*
X214542Y72317D02*
X220498Y78273D01*
X209842Y93504D02*
X216535Y86811D01*
Y78642D02*
Y86811D01*
X214370Y76476D02*
X216535Y78642D01*
X215898Y51622D02*
X215945Y51575D01*
X205827Y51772D02*
Y55864D01*
Y51555D02*
Y51772D01*
X206890Y56927D02*
Y57382D01*
X205827Y55864D02*
X206890Y56927D01*
X205827Y51555D02*
X205906Y51476D01*
X195890Y47713D02*
X197244Y46358D01*
X208366D01*
X208465Y46260D01*
X195890Y47713D02*
Y51709D01*
X195827Y51772D02*
X195890Y51709D01*
X185827Y47638D02*
X189665Y43799D01*
X213583D01*
X185827Y51772D02*
Y51870D01*
Y47638D02*
Y51772D01*
Y51870D02*
X185925Y51968D01*
X190827Y51772D02*
Y58832D01*
Y51004D02*
Y51772D01*
X200591Y68504D02*
X205217Y73130D01*
X200394Y68307D02*
X200591Y68504D01*
X190827Y58832D02*
X195187Y63192D01*
X190827Y51004D02*
X190847Y50984D01*
X200955Y51742D02*
Y57943D01*
X200787Y51575D02*
X200955Y51742D01*
X205217Y73130D02*
Y75197D01*
X202165Y78248D02*
X205217Y75197D01*
X200492Y78248D02*
X202165D01*
X197146Y81595D02*
X200492Y78248D01*
X197146Y81595D02*
Y99606D01*
X200955Y57943D02*
X201083Y58071D01*
X197933Y73917D02*
X201969D01*
X195546Y76305D02*
X197933Y73917D01*
X210827Y52165D02*
X211221Y51772D01*
X207874Y60827D02*
X210827Y57874D01*
Y52165D02*
Y57874D01*
X201096Y60827D02*
X207874D01*
X194202Y67720D02*
X201096Y60827D01*
X197736Y71260D02*
X197736D01*
X193946Y75050D02*
X197736Y71260D01*
X220669Y51870D02*
X220827Y52028D01*
X192224Y73228D02*
X202953Y62500D01*
X192224Y73228D02*
Y113779D01*
X198524Y120079D01*
X203543D01*
X193946Y75050D02*
Y108020D01*
X199705Y113780D01*
X203543D01*
X195546Y76305D02*
Y104699D01*
X198327Y107480D01*
X203543D01*
X197146Y99606D02*
X198721Y101181D01*
X203543D01*
X209842Y93504D02*
Y111933D01*
X211589Y94021D02*
X220498Y85113D01*
X211589Y94021D02*
Y108440D01*
X213189Y94783D02*
X222146Y85827D01*
X213189Y94783D02*
Y102792D01*
X223917Y74803D02*
Y86417D01*
X209842Y111933D02*
X214839Y116929D01*
X218504D01*
X211589Y108440D02*
X213780Y110630D01*
X218504D01*
X213189Y102792D02*
X214728Y104331D01*
X218504D01*
X215375Y98032D02*
X218504D01*
X46949Y47717D02*
X47146D01*
X77264Y8760D02*
X77359Y8855D01*
X100591Y165945D02*
X108465D01*
X100591Y145866D02*
X108071D01*
X100591Y125984D02*
X108268D01*
X100787Y85827D02*
X108268D01*
X100787Y46063D02*
X108661D01*
X100394Y225984D02*
X108465D01*
X100394Y205906D02*
X108465D01*
X100394Y185827D02*
X108465D01*
X100787Y105906D02*
X107874D01*
X100787Y65748D02*
X108268D01*
D18*
X145780Y137795D02*
D03*
X150898D02*
D03*
X227165Y27362D02*
D03*
X232283D02*
D03*
X154035Y41634D02*
D03*
X148917D02*
D03*
D19*
X127362Y149114D02*
D03*
Y143996D02*
D03*
X135630Y143898D02*
D03*
Y149016D02*
D03*
D21*
X87795Y6988D02*
D03*
X93110D02*
D03*
X176280Y165157D02*
D03*
X181594D02*
D03*
D22*
X178740Y22244D02*
D03*
Y27559D02*
D03*
X187598Y151083D02*
D03*
Y145768D02*
D03*
X139075Y118504D02*
D03*
Y123819D02*
D03*
X145275Y118504D02*
D03*
Y123819D02*
D03*
D43*
X179724Y150689D02*
Y150767D01*
X181595Y152637D01*
Y165354D01*
X177067Y172146D02*
X181355Y167857D01*
Y165396D02*
Y167857D01*
Y165396D02*
X181594Y165157D01*
X135827Y149213D02*
X136417Y148622D01*
X135532Y144390D02*
X144587D01*
X127461Y149016D02*
X135630D01*
X136417Y148622D02*
X144488D01*
D44*
X77359Y107724D02*
Y117618D01*
X75931Y106297D02*
X77359Y107724D01*
X75931Y106104D02*
Y106297D01*
X77304Y97484D02*
X77359Y97539D01*
X77304Y87654D02*
Y97484D01*
X77248Y87598D02*
X77304Y87654D01*
X47092Y87598D02*
X77248D01*
X120347Y158559D02*
Y184441D01*
Y132677D02*
Y158559D01*
Y99207D02*
Y132677D01*
X178740Y27559D02*
X185827D01*
Y27374D02*
Y27559D01*
X178248Y28051D02*
X178740Y27559D01*
X138878Y28051D02*
X178248D01*
X120347Y46582D02*
X138878Y28051D01*
X120347Y46582D02*
Y99207D01*
X136759Y82795D02*
X148142D01*
X120347Y99207D02*
X136759Y82795D01*
X120347Y184441D02*
X150374Y214469D01*
X193602D01*
X106890Y250197D02*
X111024Y246063D01*
X27165Y135827D02*
Y138976D01*
X12205Y135827D02*
X27165D01*
X78783Y207004D02*
Y216588D01*
X77359Y208428D02*
Y208740D01*
Y208428D02*
X78783Y207004D01*
Y206811D02*
Y207004D01*
Y206811D02*
X78919Y206675D01*
X77359Y218012D02*
X78783Y216588D01*
X63530Y212500D02*
X67171D01*
X58018Y218012D02*
X63530Y212500D01*
X52259Y218012D02*
X58018D01*
X64303Y192224D02*
X67679D01*
X58595Y197933D02*
X64303Y192224D01*
X52259Y197933D02*
X58595D01*
X63583Y172146D02*
X67323D01*
X57874Y177854D02*
X63583Y172146D01*
X52259Y177854D02*
X57874D01*
X76846Y147244D02*
X76982Y147380D01*
Y157399D01*
X77359Y157776D01*
X63370Y152559D02*
X67323D01*
X58153Y157776D02*
X63370Y152559D01*
X52259Y157776D02*
X58153D01*
X75931Y127801D02*
X76068Y127938D01*
Y136405D01*
X77359Y137697D01*
X67351Y132218D02*
X67679Y131890D01*
X65460Y132218D02*
X67351D01*
X59980Y137697D02*
X65460Y132218D01*
X52259Y137697D02*
X59980D01*
X65102Y112598D02*
X67679D01*
X60083Y117618D02*
X65102Y112598D01*
X52259Y117618D02*
X60083D01*
X64413Y91831D02*
X67815D01*
Y91976D01*
X58705Y97539D02*
X64413Y91831D01*
X52259Y97539D02*
X58705D01*
X47146Y47717D02*
X75374D01*
X44016D02*
X46949D01*
X44882Y87598D02*
X47092D01*
X47441Y127953D02*
X72146D01*
X45472D02*
X47441D01*
X47146Y208740D02*
X77359D01*
X45256D02*
X47146D01*
X76067Y250197D02*
X106890D01*
X45650D02*
X76067D01*
X63968Y232685D02*
X67171D01*
X58563Y238091D02*
X63968Y232685D01*
X52259Y238091D02*
X58563D01*
X74114Y228445D02*
Y228638D01*
X75893Y230417D01*
Y236625D01*
X77359Y238091D01*
X12205Y132677D02*
X19685D01*
X19428Y126378D02*
X19432Y126375D01*
X12205Y126378D02*
X19428D01*
X77359Y188422D02*
Y197933D01*
Y188422D02*
X78642Y187139D01*
Y186947D02*
Y187139D01*
X77359Y177854D02*
X78642Y176572D01*
Y166732D02*
Y176572D01*
X74410Y168012D02*
X75553Y166868D01*
X78505D01*
X78642Y166732D01*
X72146Y127953D02*
X74114D01*
X72146D02*
X72161Y127938D01*
X75795D01*
X75931Y127801D01*
X12205Y120079D02*
X19432D01*
X12205Y113780D02*
X19432D01*
X64907Y71752D02*
X66694D01*
X59199Y77461D02*
X64907Y71752D01*
X52259Y77461D02*
X59199D01*
X75931Y67126D02*
X76068Y67262D01*
Y76169D01*
X77359Y77461D01*
X12205Y107480D02*
X19432D01*
X75374Y47717D02*
X75863D01*
X75295Y47638D02*
X75374Y47717D01*
X75295Y47638D02*
X75394Y47539D01*
X63484Y51673D02*
X66535D01*
X57775Y57382D02*
X63484Y51673D01*
X52259Y57382D02*
X57775D01*
X66142Y31693D02*
X67421D01*
X60531Y37303D02*
X66142Y31693D01*
X52259Y37303D02*
X60531D01*
X62106Y17224D02*
X67520Y11811D01*
X52259Y17224D02*
X62106D01*
X82579Y5906D02*
X83662Y6988D01*
X87303D01*
X88090Y7776D01*
Y7972D01*
X77264Y5906D02*
X82579D01*
X41339D02*
X77264D01*
Y8760D01*
X77359Y8855D02*
Y17224D01*
X28346Y18898D02*
X41339Y5906D01*
X77248Y30103D02*
Y37193D01*
X77359Y37303D01*
X74213Y27067D02*
X77248Y30103D01*
X36713Y241260D02*
X45650Y250197D01*
X36713Y139075D02*
Y241260D01*
X33465Y135827D02*
X36713Y139075D01*
X27165Y135827D02*
X33465D01*
X40059Y203543D02*
X45256Y208740D01*
X40059Y135039D02*
Y203543D01*
X34547Y129528D02*
X40059Y135039D01*
X27165Y129528D02*
X34547D01*
X48130Y168012D02*
X74410D01*
X42717Y162598D02*
X48130Y168012D01*
X42717Y132677D02*
Y162598D01*
X33268Y123228D02*
X42717Y132677D01*
X27165Y123228D02*
X33268D01*
X34449Y116929D02*
X45472Y127953D01*
X27165Y116929D02*
X34449D01*
X40059Y92421D02*
X44882Y87598D01*
X40059Y92421D02*
Y103543D01*
X32972Y110630D02*
X40059Y103543D01*
X27165Y110630D02*
X32972D01*
X19432Y101181D02*
X19685Y101435D01*
X12205Y101181D02*
X19432D01*
X36614Y55118D02*
Y98721D01*
X31004Y104331D02*
X36614Y98721D01*
X27165Y104331D02*
X31004D01*
X27165Y66732D02*
X28346Y65551D01*
Y18898D02*
Y65551D01*
X75863Y47717D02*
X77016Y48870D01*
Y57039D01*
X77359Y57382D01*
X36614Y55118D02*
X44016Y47717D01*
X27165Y66732D02*
Y98032D01*
Y101181D01*
X12205Y98032D02*
X27165D01*
D45*
X19685Y84646D02*
D03*
Y171260D02*
D03*
X211024Y84646D02*
D03*
Y171260D02*
D03*
D46*
X228898Y154331D02*
D03*
Y142520D02*
D03*
Y113386D02*
D03*
Y101575D02*
D03*
D47*
X245905Y148425D02*
D03*
Y107480D02*
D03*
D48*
X131693Y181496D02*
D03*
X156634Y87832D02*
D03*
X142925Y102754D02*
D03*
D49*
X172441Y135925D02*
D03*
X170572Y151083D02*
D03*
X165157Y155807D02*
D03*
X176955Y111220D02*
D03*
X174870Y122835D02*
D03*
X172343Y239075D02*
D03*
X193405Y222047D02*
D03*
X206791Y225984D02*
D03*
X176476Y140551D02*
D03*
X156018Y137697D02*
D03*
X149454Y158455D02*
D03*
X148142Y132677D02*
D03*
X156313Y129441D02*
D03*
X155118Y126083D02*
D03*
X156634Y110335D02*
D03*
X154035Y114213D02*
D03*
Y118948D02*
D03*
X151816Y123425D02*
D03*
X148917Y86811D02*
D03*
X137992Y57382D02*
D03*
X143396Y62598D02*
D03*
X143682Y67795D02*
D03*
X212106Y151269D02*
D03*
X198327Y149213D02*
D03*
X174902Y132480D02*
D03*
X186775Y82418D02*
D03*
X187598Y76305D02*
D03*
X188951Y67028D02*
D03*
X186227Y59101D02*
D03*
X208760Y123228D02*
D03*
X208760Y142126D02*
D03*
X208957Y135728D02*
D03*
X209252Y129035D02*
D03*
X218209Y58268D02*
D03*
X215846Y66043D02*
D03*
X213976Y69488D02*
D03*
X214370Y76476D02*
D03*
X208071Y67028D02*
D03*
X206890Y57382D02*
D03*
X208366Y46358D02*
D03*
X213583Y43799D02*
D03*
X195187Y63192D02*
D03*
X200591Y68504D02*
D03*
X201083Y58071D02*
D03*
X201969Y73917D02*
D03*
X194202Y67720D02*
D03*
X197736Y71260D02*
D03*
X111024Y246063D02*
D03*
X67171Y212500D02*
D03*
X67679Y192224D02*
D03*
X67323Y172146D02*
D03*
Y152559D02*
D03*
X67679Y131890D02*
D03*
Y112598D02*
D03*
X67815Y91976D02*
D03*
X47146Y47717D02*
D03*
X47092Y87598D02*
D03*
X47441Y127953D02*
D03*
X48130Y168012D02*
D03*
X47146Y208740D02*
D03*
X76067Y250197D02*
D03*
X67171Y232685D02*
D03*
X74114Y228445D02*
D03*
X19685Y132677D02*
D03*
X19432Y126375D02*
D03*
X76846Y147244D02*
D03*
X19432Y120079D02*
D03*
Y113780D02*
D03*
X66694Y71752D02*
D03*
X19432Y107480D02*
D03*
X78919Y206675D02*
D03*
X78642Y186947D02*
D03*
Y166732D02*
D03*
X75931Y127801D02*
D03*
Y106104D02*
D03*
X77248Y87598D02*
D03*
X75931Y67126D02*
D03*
X75394Y47539D02*
D03*
X66535Y51673D02*
D03*
X67421Y31693D02*
D03*
X67520Y11811D02*
D03*
X77264Y8760D02*
D03*
X74213Y27067D02*
D03*
X19685Y101435D02*
D03*
D50*
X177067Y172146D02*
D03*
X179724Y150689D02*
D03*
X112139Y25591D02*
D03*
X100837Y246982D02*
D03*
X108465Y165945D02*
D03*
X108071Y145866D02*
D03*
X100591D02*
D03*
X144488Y148622D02*
D03*
X144587Y144390D02*
D03*
X112598Y233465D02*
D03*
X108268Y125984D02*
D03*
Y85827D02*
D03*
X108465Y185827D02*
D03*
X108268Y65748D02*
D03*
Y105906D02*
D03*
X100787Y85827D02*
D03*
Y46063D02*
D03*
X108465Y225984D02*
D03*
X100394D02*
D03*
X108465Y205906D02*
D03*
X100394D02*
D03*
Y185827D02*
D03*
X100591Y165945D02*
D03*
Y125984D02*
D03*
X100787Y105906D02*
D03*
Y65748D02*
D03*
X108661Y46063D02*
D03*
X100787Y25591D02*
D03*
D51*
X27165Y98032D02*
D03*
X12205D02*
D03*
X27165Y101181D02*
D03*
X12205D02*
D03*
X27165Y104331D02*
D03*
X12205D02*
D03*
X27165Y107480D02*
D03*
X12205D02*
D03*
X27165Y110630D02*
D03*
X12205D02*
D03*
X27165Y113779D02*
D03*
X12205D02*
D03*
X27165Y116929D02*
D03*
X12205D02*
D03*
X27165Y120079D02*
D03*
X12205D02*
D03*
X27165Y123228D02*
D03*
X12205D02*
D03*
X27165Y126378D02*
D03*
X12205D02*
D03*
X27165Y129528D02*
D03*
X12205D02*
D03*
X27165Y132677D02*
D03*
X12205D02*
D03*
X27165Y135827D02*
D03*
X12205D02*
D03*
X27165Y138976D02*
D03*
X12205D02*
D03*
X27165Y142126D02*
D03*
X12205D02*
D03*
X27165Y145276D02*
D03*
X12205D02*
D03*
X27165Y148425D02*
D03*
X12205D02*
D03*
X27165Y151575D02*
D03*
X12205D02*
D03*
X27165Y154724D02*
D03*
X12205D02*
D03*
X27165Y157874D02*
D03*
X12205D02*
D03*
X218504Y98032D02*
D03*
X203543D02*
D03*
X218504Y101181D02*
D03*
X203543D02*
D03*
X218504Y104331D02*
D03*
X203543D02*
D03*
X218504Y107480D02*
D03*
X203543D02*
D03*
X218504Y110630D02*
D03*
X203543D02*
D03*
X218504Y113779D02*
D03*
X203543D02*
D03*
X218504Y116929D02*
D03*
X203543D02*
D03*
X218504Y120079D02*
D03*
X203543D02*
D03*
X218504Y123228D02*
D03*
X203543D02*
D03*
X218504Y126378D02*
D03*
X203543D02*
D03*
X218504Y129528D02*
D03*
X203543D02*
D03*
X218504Y132677D02*
D03*
X203543D02*
D03*
X218504Y135827D02*
D03*
X203543D02*
D03*
X218504Y138976D02*
D03*
X203543D02*
D03*
X218504Y142126D02*
D03*
X203543D02*
D03*
X218504Y145276D02*
D03*
X203543D02*
D03*
X218504Y148425D02*
D03*
X203543D02*
D03*
X218504Y151575D02*
D03*
X203543D02*
D03*
X218504Y154724D02*
D03*
X203543D02*
D03*
X218504Y157874D02*
D03*
X203543D02*
D03*
D52*
X202657Y239272D02*
D03*
D53*
X193602Y214469D02*
D03*
X202657D02*
D03*
X211713D02*
D03*
D54*
X220827Y27374D02*
D03*
X215827D02*
D03*
X210827D02*
D03*
X205827D02*
D03*
X200827D02*
D03*
X195827D02*
D03*
X190827D02*
D03*
X185827D02*
D03*
X220827Y51772D02*
D03*
X215827D02*
D03*
X210827D02*
D03*
X205827D02*
D03*
X200827D02*
D03*
X195827D02*
D03*
X190827D02*
D03*
D55*
X185827D02*
D03*
D56*
X148142Y47795D02*
D03*
Y52795D02*
D03*
Y57795D02*
D03*
Y62795D02*
D03*
Y67795D02*
D03*
Y72795D02*
D03*
Y77795D02*
D03*
Y82795D02*
D03*
X172539Y47795D02*
D03*
Y52795D02*
D03*
Y57795D02*
D03*
Y62795D02*
D03*
Y67795D02*
D03*
Y72795D02*
D03*
Y77795D02*
D03*
D57*
Y82795D02*
D03*
D58*
X52259Y238091D02*
D03*
X77359D02*
D03*
X52259Y218012D02*
D03*
X77359D02*
D03*
X52259Y197933D02*
D03*
X77359D02*
D03*
X52259Y177854D02*
D03*
X77359D02*
D03*
X52259Y157776D02*
D03*
X77359D02*
D03*
X52259Y137697D02*
D03*
X77359D02*
D03*
X52259Y117618D02*
D03*
X77359D02*
D03*
X52259Y97539D02*
D03*
X77359D02*
D03*
X52259Y77461D02*
D03*
X77359D02*
D03*
X52259Y57382D02*
D03*
X77359D02*
D03*
X52259Y37303D02*
D03*
X77359D02*
D03*
X52259Y17224D02*
D03*
X77359D02*
D03*
D59*
X93110Y6988D02*
X114665D01*
X131682Y24005D01*
X172343Y239075D02*
X196161D01*
X202657Y226279D02*
Y239272D01*
Y214469D02*
Y226279D01*
M02*
