G04*
G04 #@! TF.GenerationSoftware,Altium Limited,Altium Designer,20.0.10 (225)*
G04*
G04 Layer_Color=32768*
%FSLAX25Y25*%
%MOIN*%
G70*
G01*
G75*
%ADD14C,0.00394*%
%ADD69C,0.00197*%
D14*
X178740Y23031D02*
Y26772D01*
X176870Y24902D02*
X180610D01*
X148339Y135925D02*
Y139665D01*
X146468Y137795D02*
X150209D01*
X92421Y231693D02*
Y235433D01*
X90551Y233563D02*
X94291D01*
X116876Y243307D02*
X120617D01*
X118747Y241437D02*
Y245177D01*
X130118Y246260D02*
X134055D01*
X132087Y244291D02*
Y248228D01*
X130118Y237500D02*
X134055D01*
X132087Y235531D02*
Y239469D01*
X151785Y81595D02*
X155526D01*
X153655Y79724D02*
Y83465D01*
X187598Y146555D02*
Y150295D01*
X185728Y148425D02*
X189469D01*
X165175Y95177D02*
X168915D01*
X167045Y93307D02*
Y97047D01*
X131791Y158957D02*
Y162697D01*
X129921Y160827D02*
X133661D01*
X154167Y55057D02*
Y58797D01*
X152297Y56927D02*
X156037D01*
X154167Y60925D02*
Y64665D01*
X152297Y62795D02*
X156037D01*
X151260Y71752D02*
X155000D01*
X153130Y69882D02*
Y73622D01*
X229725Y25492D02*
Y29232D01*
X227854Y27362D02*
X231594D01*
X177527Y89075D02*
Y92815D01*
X175657Y90945D02*
X179398D01*
X88583Y6988D02*
X92323D01*
X90453Y5118D02*
Y8858D01*
X211319Y226378D02*
X215059D01*
X213189Y224508D02*
Y228248D01*
X182194Y221959D02*
X185934D01*
X184064Y220089D02*
Y223829D01*
X139567Y167815D02*
X143504D01*
X141535Y165847D02*
Y169783D01*
X149606Y41634D02*
X153347D01*
X151476Y39764D02*
Y43504D01*
X202657Y224902D02*
Y228839D01*
X200689Y226870D02*
X204626D01*
X127362Y144685D02*
Y148425D01*
X125492Y146555D02*
X129232D01*
X135630Y144587D02*
Y148327D01*
X133760Y146457D02*
X137500D01*
X139075Y119291D02*
Y123031D01*
X137205Y121161D02*
X140945D01*
X145275Y119291D02*
Y123031D01*
X143405Y121161D02*
X147146D01*
X177067Y165157D02*
X180807D01*
X178937Y163287D02*
Y167028D01*
X182579Y99114D02*
Y102854D01*
X180709Y100984D02*
X184449D01*
X174902Y99114D02*
Y102854D01*
X173032Y100984D02*
X176772D01*
X182185Y168898D02*
Y172638D01*
X180315Y170768D02*
X184055D01*
X182185Y157382D02*
Y161122D01*
X180315Y159252D02*
X184055D01*
X199311Y125984D02*
Y129921D01*
X197343Y127953D02*
X201280D01*
X148425Y129921D02*
X152362D01*
X150394Y127953D02*
Y131890D01*
X47289Y15748D02*
Y19488D01*
X45419Y17618D02*
X49159D01*
X47289Y35827D02*
Y39567D01*
X45419Y37697D02*
X49159D01*
X47289Y55906D02*
Y59646D01*
X45419Y57776D02*
X49159D01*
X47289Y75984D02*
Y79724D01*
X45419Y77854D02*
X49159D01*
X47289Y96063D02*
Y99803D01*
X45419Y97933D02*
X49159D01*
X47289Y116142D02*
Y119882D01*
X45419Y118012D02*
X49159D01*
X47289Y136220D02*
Y139961D01*
X45419Y138091D02*
X49159D01*
X47289Y156299D02*
Y160039D01*
X45419Y158169D02*
X49159D01*
X47289Y176378D02*
Y180118D01*
X45419Y178248D02*
X49159D01*
X47289Y196457D02*
Y200197D01*
X45419Y198327D02*
X49159D01*
X47289Y216535D02*
Y220276D01*
X45419Y218406D02*
X49159D01*
X104770Y15157D02*
Y18898D01*
X102900Y17028D02*
X106640D01*
X104770Y35236D02*
Y38976D01*
X102900Y37106D02*
X106640D01*
X104770Y55315D02*
Y59055D01*
X102900Y57185D02*
X106640D01*
X104770Y75394D02*
Y79134D01*
X102900Y77264D02*
X106640D01*
X104770Y95472D02*
Y99213D01*
X102900Y97343D02*
X106640D01*
X104770Y115551D02*
Y119291D01*
X102900Y117421D02*
X106640D01*
X104770Y135630D02*
Y139370D01*
X102900Y137500D02*
X106640D01*
X104770Y155709D02*
Y159449D01*
X102900Y157579D02*
X106640D01*
X104770Y175787D02*
Y179528D01*
X102900Y177657D02*
X106640D01*
X104770Y195866D02*
Y199606D01*
X102900Y197736D02*
X106640D01*
X104770Y215945D02*
Y219685D01*
X102900Y217815D02*
X106640D01*
X104770Y236024D02*
Y239764D01*
X102900Y237894D02*
X106640D01*
X90650Y244644D02*
X94390D01*
X92520Y242775D02*
Y246515D01*
X90650Y223228D02*
X94390D01*
X92520Y221358D02*
Y225098D01*
X90650Y212992D02*
X94390D01*
X92520Y211122D02*
Y214862D01*
X90650Y203150D02*
X94390D01*
X92520Y201280D02*
Y205020D01*
X90650Y192913D02*
X94390D01*
X92520Y191043D02*
Y194783D01*
X90650Y183071D02*
X94390D01*
X92520Y181201D02*
Y184941D01*
X90650Y172835D02*
X94390D01*
X92520Y170965D02*
Y174705D01*
X90650Y162992D02*
X94390D01*
X92520Y161122D02*
Y164862D01*
X90650Y152756D02*
X94390D01*
X92520Y150886D02*
Y154626D01*
X90650Y142913D02*
X94390D01*
X92520Y141043D02*
Y144783D01*
X90650Y132677D02*
X94390D01*
X92520Y130807D02*
Y134547D01*
X90650Y112598D02*
X94390D01*
X92520Y110728D02*
Y114469D01*
X90650Y122835D02*
X94390D01*
X92520Y120965D02*
Y124705D01*
X90650Y102756D02*
X94390D01*
X92520Y100886D02*
Y104626D01*
X90650Y92520D02*
X94390D01*
X92520Y90650D02*
Y94390D01*
X90650Y82677D02*
X94390D01*
X92520Y80807D02*
Y84547D01*
X90650Y72441D02*
X94390D01*
X92520Y70571D02*
Y74311D01*
X90650Y62598D02*
X94390D01*
X92520Y60728D02*
Y64469D01*
X90650Y52362D02*
X94390D01*
X92520Y50492D02*
Y54232D01*
X90650Y42520D02*
X94390D01*
X92520Y40650D02*
Y44390D01*
X90650Y32283D02*
X94390D01*
X92520Y30413D02*
Y34154D01*
X90650Y22441D02*
X94390D01*
X92520Y20571D02*
Y24311D01*
X90650Y12205D02*
X94390D01*
X92520Y10335D02*
Y14075D01*
X47289Y236614D02*
Y240354D01*
X45419Y238484D02*
X49159D01*
D69*
X175787Y19587D02*
X181693D01*
X175787Y30217D02*
X181693D01*
Y19587D02*
Y30217D01*
X175787Y19587D02*
Y30217D01*
X143024Y134843D02*
X153654D01*
X143024Y140748D02*
X153654D01*
X143024Y134843D02*
Y140748D01*
X153654Y134843D02*
Y140748D01*
X87106Y230610D02*
X97736D01*
X87106Y236516D02*
X97736D01*
Y230610D02*
Y236516D01*
X87106Y230610D02*
Y236516D01*
X115794Y237992D02*
Y248622D01*
X121699Y237992D02*
Y248622D01*
X115794Y237992D02*
X121699D01*
X115794Y248622D02*
X121699D01*
X125394Y242520D02*
Y250000D01*
X138779Y242520D02*
Y250000D01*
X125394D02*
X138779D01*
X125394Y242520D02*
X138779D01*
X125394Y233760D02*
Y241240D01*
X138779Y233760D02*
Y241240D01*
X125394D02*
X138779D01*
X125394Y233760D02*
X138779D01*
X158970Y78642D02*
Y84547D01*
X148340Y78642D02*
Y84547D01*
Y78642D02*
X158970D01*
X148340Y84547D02*
X158970D01*
X184646Y153740D02*
X190551D01*
X184646Y143110D02*
X190551D01*
X184646D02*
Y153740D01*
X190551Y143110D02*
Y153740D01*
X169998Y89862D02*
Y100492D01*
X164092Y89862D02*
Y100492D01*
X169998D01*
X164092Y89862D02*
X169998D01*
X128839Y166142D02*
X134744D01*
X128839Y155512D02*
X134744D01*
Y166142D01*
X128839Y155512D02*
Y166142D01*
X148852Y53974D02*
X159482D01*
X148852Y59880D02*
X159482D01*
Y53974D02*
Y59880D01*
X148852Y53974D02*
Y59880D01*
Y59843D02*
X159482D01*
X148852Y65748D02*
X159482D01*
Y59843D02*
Y65748D01*
X148852Y59843D02*
Y65748D01*
X156083Y66437D02*
Y77067D01*
X150177Y66437D02*
Y77067D01*
X156083D01*
X150177Y66437D02*
X156083D01*
X224410Y24409D02*
X235039D01*
X224410Y30315D02*
X235039D01*
X224410Y24409D02*
Y30315D01*
X235039Y24409D02*
Y30315D01*
X172213Y87992D02*
X182842D01*
X172213Y93898D02*
X182842D01*
Y87992D02*
Y93898D01*
X172213Y87992D02*
Y93898D01*
X85138Y4035D02*
Y9941D01*
X95768Y4035D02*
Y9941D01*
X85138Y4035D02*
X95768D01*
X85138Y9941D02*
X95768D01*
X218504Y223425D02*
Y229331D01*
X207874Y223425D02*
Y229331D01*
Y223425D02*
X218504D01*
X207874Y229331D02*
X218504D01*
X178749Y219006D02*
Y224912D01*
X189379Y219006D02*
Y224912D01*
X178749D02*
X189379D01*
X178749Y219006D02*
X189379D01*
X145276Y161122D02*
Y174508D01*
X137795Y161122D02*
Y174508D01*
X145276D01*
X137795Y161122D02*
X145276D01*
X156791Y38681D02*
Y44587D01*
X146161Y38681D02*
Y44587D01*
X156791D01*
X146161Y38681D02*
X156791D01*
X189469Y243602D02*
X215846D01*
Y210138D02*
Y243602D01*
X189469Y210138D02*
Y243602D01*
Y210138D02*
X215846D01*
X124409Y151870D02*
X130315D01*
X124409Y141240D02*
X130315D01*
X124409D02*
Y151870D01*
X130315Y141240D02*
Y151870D01*
X132677Y141142D02*
X138583D01*
X132677Y151772D02*
X138583D01*
Y141142D02*
Y151772D01*
X132677Y141142D02*
Y151772D01*
X136122Y115847D02*
X142027D01*
X136122Y126476D02*
X142027D01*
Y115847D02*
Y126476D01*
X136122Y115847D02*
Y126476D01*
X142323Y115847D02*
X148228D01*
X142323Y126476D02*
X148228D01*
Y115847D02*
Y126476D01*
X142323Y115847D02*
Y126476D01*
X173622Y162205D02*
Y168110D01*
X184252Y162205D02*
Y168110D01*
X173622Y162205D02*
X184252D01*
X173622Y168110D02*
X184252D01*
X179626Y95669D02*
X185531D01*
X179626Y106299D02*
X185531D01*
X179626Y95669D02*
Y106299D01*
X185531Y95669D02*
Y106299D01*
X171949D02*
X177854D01*
X171949Y95669D02*
X177854D01*
Y106299D01*
X171949Y95669D02*
Y106299D01*
X179232Y176083D02*
X185138D01*
X179232Y165453D02*
X185138D01*
Y176083D01*
X179232Y165453D02*
Y176083D01*
Y164567D02*
X185138D01*
X179232Y153937D02*
X185138D01*
Y164567D01*
X179232Y153937D02*
Y164567D01*
X178839Y102559D02*
X219783D01*
X178839D02*
Y153346D01*
X219783D01*
Y102559D02*
Y153346D01*
X131890Y103150D02*
Y156693D01*
X168898Y103150D02*
Y156693D01*
X131890D02*
X168898D01*
X131890Y103150D02*
X168898D01*
X44337Y22933D02*
X50242D01*
X44337Y12303D02*
X50242D01*
Y22933D01*
X44337Y12303D02*
Y22933D01*
Y43012D02*
X50242D01*
X44337Y32382D02*
X50242D01*
Y43012D01*
X44337Y32382D02*
Y43012D01*
Y63091D02*
X50242D01*
X44337Y52461D02*
X50242D01*
Y63091D01*
X44337Y52461D02*
Y63091D01*
Y83169D02*
X50242D01*
X44337Y72539D02*
X50242D01*
Y83169D01*
X44337Y72539D02*
Y83169D01*
Y103248D02*
X50242D01*
X44337Y92618D02*
X50242D01*
Y103248D01*
X44337Y92618D02*
Y103248D01*
Y123327D02*
X50242D01*
X44337Y112697D02*
X50242D01*
Y123327D01*
X44337Y112697D02*
Y123327D01*
Y143406D02*
X50242D01*
X44337Y132776D02*
X50242D01*
Y143406D01*
X44337Y132776D02*
Y143406D01*
Y163484D02*
X50242D01*
X44337Y152854D02*
X50242D01*
Y163484D01*
X44337Y152854D02*
Y163484D01*
Y183563D02*
X50242D01*
X44337Y172933D02*
X50242D01*
Y183563D01*
X44337Y172933D02*
Y183563D01*
Y203642D02*
X50242D01*
X44337Y193012D02*
X50242D01*
Y203642D01*
X44337Y193012D02*
Y203642D01*
Y223720D02*
X50242D01*
X44337Y213091D02*
X50242D01*
Y223720D01*
X44337Y213091D02*
Y223720D01*
X101817Y11713D02*
X107722D01*
X101817Y22343D02*
X107722D01*
X101817Y11713D02*
Y22343D01*
X107722Y11713D02*
Y22343D01*
X101817Y31791D02*
X107722D01*
X101817Y42421D02*
X107722D01*
X101817Y31791D02*
Y42421D01*
X107722Y31791D02*
Y42421D01*
X101817Y51870D02*
X107722D01*
X101817Y62500D02*
X107722D01*
X101817Y51870D02*
Y62500D01*
X107722Y51870D02*
Y62500D01*
X101817Y71949D02*
X107722D01*
X101817Y82579D02*
X107722D01*
X101817Y71949D02*
Y82579D01*
X107722Y71949D02*
Y82579D01*
X101817Y92028D02*
X107722D01*
X101817Y102657D02*
X107722D01*
X101817Y92028D02*
Y102657D01*
X107722Y92028D02*
Y102657D01*
X101817Y112106D02*
X107722D01*
X101817Y122736D02*
X107722D01*
X101817Y112106D02*
Y122736D01*
X107722Y112106D02*
Y122736D01*
X101817Y132185D02*
X107722D01*
X101817Y142815D02*
X107722D01*
X101817Y132185D02*
Y142815D01*
X107722Y132185D02*
Y142815D01*
X101817Y152264D02*
X107722D01*
X101817Y162894D02*
X107722D01*
X101817Y152264D02*
Y162894D01*
X107722Y152264D02*
Y162894D01*
X101817Y172343D02*
X107722D01*
X101817Y182972D02*
X107722D01*
X101817Y172343D02*
Y182972D01*
X107722Y172343D02*
Y182972D01*
X101817Y192421D02*
X107722D01*
X101817Y203051D02*
X107722D01*
X101817Y192421D02*
Y203051D01*
X107722Y192421D02*
Y203051D01*
X101817Y212500D02*
X107722D01*
X101817Y223130D02*
X107722D01*
X101817Y212500D02*
Y223130D01*
X107722Y212500D02*
Y223130D01*
X101817Y232579D02*
X107722D01*
X101817Y243209D02*
X107722D01*
X101817Y232579D02*
Y243209D01*
X107722Y232579D02*
Y243209D01*
X87205Y241692D02*
Y247597D01*
X97835Y241692D02*
Y247597D01*
X87205D02*
X97835D01*
X87205Y241692D02*
X97835D01*
X87205Y220276D02*
Y226181D01*
X97835Y220276D02*
Y226181D01*
X87205D02*
X97835D01*
X87205Y220276D02*
X97835D01*
X87205Y210039D02*
Y215945D01*
X97835Y210039D02*
Y215945D01*
X87205D02*
X97835D01*
X87205Y210039D02*
X97835D01*
X87205Y200197D02*
Y206102D01*
X97835Y200197D02*
Y206102D01*
X87205D02*
X97835D01*
X87205Y200197D02*
X97835D01*
X87205Y189961D02*
Y195866D01*
X97835Y189961D02*
Y195866D01*
X87205D02*
X97835D01*
X87205Y189961D02*
X97835D01*
X87205Y180118D02*
Y186024D01*
X97835Y180118D02*
Y186024D01*
X87205D02*
X97835D01*
X87205Y180118D02*
X97835D01*
X87205Y169882D02*
Y175787D01*
X97835Y169882D02*
Y175787D01*
X87205D02*
X97835D01*
X87205Y169882D02*
X97835D01*
X87205Y160039D02*
Y165945D01*
X97835Y160039D02*
Y165945D01*
X87205D02*
X97835D01*
X87205Y160039D02*
X97835D01*
X87205Y149803D02*
Y155709D01*
X97835Y149803D02*
Y155709D01*
X87205D02*
X97835D01*
X87205Y149803D02*
X97835D01*
X87205Y139961D02*
Y145866D01*
X97835Y139961D02*
Y145866D01*
X87205D02*
X97835D01*
X87205Y139961D02*
X97835D01*
X87205Y129724D02*
Y135630D01*
X97835Y129724D02*
Y135630D01*
X87205D02*
X97835D01*
X87205Y129724D02*
X97835D01*
X87205Y109646D02*
Y115551D01*
X97835Y109646D02*
Y115551D01*
X87205D02*
X97835D01*
X87205Y109646D02*
X97835D01*
X87205Y119882D02*
Y125787D01*
X97835Y119882D02*
Y125787D01*
X87205D02*
X97835D01*
X87205Y119882D02*
X97835D01*
X87205Y99803D02*
Y105709D01*
X97835Y99803D02*
Y105709D01*
X87205D02*
X97835D01*
X87205Y99803D02*
X97835D01*
X87205Y89567D02*
Y95472D01*
X97835Y89567D02*
Y95472D01*
X87205D02*
X97835D01*
X87205Y89567D02*
X97835D01*
X87205Y79724D02*
Y85630D01*
X97835Y79724D02*
Y85630D01*
X87205D02*
X97835D01*
X87205Y79724D02*
X97835D01*
X87205Y69488D02*
Y75394D01*
X97835Y69488D02*
Y75394D01*
X87205D02*
X97835D01*
X87205Y69488D02*
X97835D01*
X87205Y59646D02*
Y65551D01*
X97835Y59646D02*
Y65551D01*
X87205D02*
X97835D01*
X87205Y59646D02*
X97835D01*
X87205Y49409D02*
Y55315D01*
X97835Y49409D02*
Y55315D01*
X87205D02*
X97835D01*
X87205Y49409D02*
X97835D01*
X87205Y39567D02*
Y45472D01*
X97835Y39567D02*
Y45472D01*
X87205D02*
X97835D01*
X87205Y39567D02*
X97835D01*
X87205Y29331D02*
Y35236D01*
X97835Y29331D02*
Y35236D01*
X87205D02*
X97835D01*
X87205Y29331D02*
X97835D01*
X87205Y19488D02*
Y25394D01*
X97835Y19488D02*
Y25394D01*
X87205D02*
X97835D01*
X87205Y19488D02*
X97835D01*
X87205Y9252D02*
Y15157D01*
X97835Y9252D02*
Y15157D01*
X87205D02*
X97835D01*
X87205Y9252D02*
X97835D01*
X44337Y243799D02*
X50242D01*
X44337Y233169D02*
X50242D01*
Y243799D01*
X44337Y233169D02*
Y243799D01*
M02*
