G04*
G04 #@! TF.GenerationSoftware,Altium Limited,Altium Designer,20.0.10 (225)*
G04*
G04 Layer_Color=8388736*
%FSLAX25Y25*%
%MOIN*%
G70*
G01*
G75*
G04:AMPARAMS|DCode=28|XSize=29.69mil|YSize=39.53mil|CornerRadius=9.92mil|HoleSize=0mil|Usage=FLASHONLY|Rotation=0.000|XOffset=0mil|YOffset=0mil|HoleType=Round|Shape=RoundedRectangle|*
%AMROUNDEDRECTD28*
21,1,0.02969,0.01968,0,0,0.0*
21,1,0.00984,0.03953,0,0,0.0*
1,1,0.01984,0.00492,-0.00984*
1,1,0.01984,-0.00492,-0.00984*
1,1,0.01984,-0.00492,0.00984*
1,1,0.01984,0.00492,0.00984*
%
%ADD28ROUNDEDRECTD28*%
%ADD29R,0.04347X0.04740*%
%ADD30R,0.04740X0.04347*%
%ADD31R,0.05528X0.06315*%
%ADD32R,0.04543X0.04937*%
%ADD33R,0.04937X0.04543*%
%ADD34R,0.06315X0.05528*%
%ADD35R,0.07575X0.03992*%
%ADD36R,0.06118X0.05331*%
%ADD37O,0.07299X0.02339*%
%ADD38R,0.05331X0.06118*%
%ADD39C,0.01000*%
%ADD40C,0.05709*%
%ADD41C,0.08874*%
%ADD42C,0.12811*%
D28*
X79868Y40709D02*
D03*
X75931D02*
D03*
X77900Y33898D02*
D03*
X79868Y60787D02*
D03*
X75931D02*
D03*
X77900Y53976D02*
D03*
X79868Y80866D02*
D03*
X75931D02*
D03*
X77900Y74055D02*
D03*
X79868Y100945D02*
D03*
X75931D02*
D03*
X77900Y94134D02*
D03*
X79868Y121024D02*
D03*
X75931D02*
D03*
X77900Y114213D02*
D03*
Y134291D02*
D03*
X75931Y141102D02*
D03*
X79868D02*
D03*
Y161181D02*
D03*
X75931D02*
D03*
X77900Y154370D02*
D03*
X79868Y181260D02*
D03*
X75931D02*
D03*
X77900Y174449D02*
D03*
X79868Y201339D02*
D03*
X75931D02*
D03*
X77900Y194528D02*
D03*
X79868Y241496D02*
D03*
X75931D02*
D03*
X77900Y234685D02*
D03*
X79868Y221417D02*
D03*
X75931D02*
D03*
X77900Y214606D02*
D03*
X79868Y20630D02*
D03*
X75931D02*
D03*
X77900Y13819D02*
D03*
D29*
X94980Y233563D02*
D03*
X89862D02*
D03*
X156726Y56927D02*
D03*
X151608D02*
D03*
X156726Y62795D02*
D03*
X151608D02*
D03*
X89961Y244644D02*
D03*
X95079D02*
D03*
X89961Y223228D02*
D03*
X95079D02*
D03*
X89961Y212992D02*
D03*
X95079D02*
D03*
X89961Y203150D02*
D03*
X95079D02*
D03*
X89961Y192913D02*
D03*
X95079D02*
D03*
X89961Y183071D02*
D03*
X95079D02*
D03*
X89961Y172835D02*
D03*
X95079D02*
D03*
X89961Y162992D02*
D03*
X95079D02*
D03*
X89961Y152756D02*
D03*
X95079D02*
D03*
X89961Y142913D02*
D03*
X95079D02*
D03*
X89961Y132677D02*
D03*
X95079D02*
D03*
X89961Y112598D02*
D03*
X95079D02*
D03*
X89961Y122835D02*
D03*
X95079D02*
D03*
X89961Y102756D02*
D03*
X95079D02*
D03*
X89961Y92520D02*
D03*
X95079D02*
D03*
X89961Y82677D02*
D03*
X95079D02*
D03*
X89961Y72441D02*
D03*
X95079D02*
D03*
X89961Y62598D02*
D03*
X95079D02*
D03*
X89961Y52362D02*
D03*
X95079D02*
D03*
X89961Y42520D02*
D03*
X95079D02*
D03*
X89961Y32283D02*
D03*
X95079D02*
D03*
X89961Y22441D02*
D03*
X95079D02*
D03*
X89961Y12205D02*
D03*
X95079D02*
D03*
D30*
X118747Y240748D02*
D03*
Y245866D02*
D03*
X153130Y74311D02*
D03*
Y69193D02*
D03*
X182579Y103543D02*
D03*
Y98425D02*
D03*
X174902Y103543D02*
D03*
Y98425D02*
D03*
X182185Y168209D02*
D03*
Y173327D02*
D03*
Y161811D02*
D03*
Y156693D02*
D03*
X47289Y20177D02*
D03*
Y15059D02*
D03*
Y40256D02*
D03*
Y35138D02*
D03*
Y60335D02*
D03*
Y55217D02*
D03*
Y80413D02*
D03*
Y75295D02*
D03*
Y100492D02*
D03*
Y95374D02*
D03*
Y120571D02*
D03*
Y115453D02*
D03*
Y140650D02*
D03*
Y135532D02*
D03*
Y160728D02*
D03*
Y155610D02*
D03*
Y180807D02*
D03*
Y175689D02*
D03*
Y200886D02*
D03*
Y195768D02*
D03*
Y220965D02*
D03*
Y215846D02*
D03*
Y241043D02*
D03*
Y235925D02*
D03*
D31*
X128642Y246260D02*
D03*
X135531D02*
D03*
X128642Y237500D02*
D03*
X135531D02*
D03*
D32*
X156313Y81595D02*
D03*
X150998D02*
D03*
X180185Y90945D02*
D03*
X174870D02*
D03*
X215846Y226378D02*
D03*
X210531D02*
D03*
X181406Y221959D02*
D03*
X186721D02*
D03*
D33*
X167045Y97835D02*
D03*
Y92520D02*
D03*
X131791Y163484D02*
D03*
Y158169D02*
D03*
X104770Y14370D02*
D03*
Y19685D02*
D03*
Y34449D02*
D03*
Y39764D02*
D03*
Y54528D02*
D03*
Y59843D02*
D03*
Y74606D02*
D03*
Y79921D02*
D03*
Y94685D02*
D03*
Y100000D02*
D03*
Y114764D02*
D03*
Y120079D02*
D03*
Y134843D02*
D03*
Y140157D02*
D03*
Y154921D02*
D03*
Y160236D02*
D03*
Y175000D02*
D03*
Y180315D02*
D03*
Y195079D02*
D03*
Y200394D02*
D03*
Y215157D02*
D03*
Y220472D02*
D03*
Y235236D02*
D03*
Y240551D02*
D03*
D34*
X141535Y171260D02*
D03*
Y164370D02*
D03*
D35*
X182520Y120453D02*
D03*
Y145453D02*
D03*
X216102D02*
D03*
X182520Y110453D02*
D03*
Y115453D02*
D03*
Y125453D02*
D03*
Y130453D02*
D03*
Y135453D02*
D03*
Y140453D02*
D03*
X216102D02*
D03*
Y135453D02*
D03*
Y130453D02*
D03*
Y125453D02*
D03*
Y120453D02*
D03*
Y115453D02*
D03*
Y110453D02*
D03*
D36*
X150787Y172835D02*
D03*
Y163779D02*
D03*
D37*
X164764Y140748D02*
D03*
X136024Y152559D02*
D03*
Y150591D02*
D03*
Y148622D02*
D03*
Y146654D02*
D03*
Y144685D02*
D03*
Y142717D02*
D03*
Y140748D02*
D03*
Y138780D02*
D03*
Y136811D02*
D03*
Y134843D02*
D03*
Y132874D02*
D03*
Y130906D02*
D03*
Y128937D02*
D03*
Y126969D02*
D03*
Y125000D02*
D03*
Y123032D02*
D03*
Y121063D02*
D03*
Y119094D02*
D03*
Y117126D02*
D03*
Y115157D02*
D03*
Y113189D02*
D03*
Y111220D02*
D03*
Y109252D02*
D03*
Y107283D02*
D03*
X164764Y152559D02*
D03*
Y150591D02*
D03*
Y148622D02*
D03*
Y146654D02*
D03*
Y144685D02*
D03*
Y142717D02*
D03*
Y138780D02*
D03*
Y136811D02*
D03*
Y134843D02*
D03*
Y132874D02*
D03*
Y130906D02*
D03*
Y128937D02*
D03*
Y126969D02*
D03*
Y125000D02*
D03*
Y123032D02*
D03*
Y121063D02*
D03*
Y119094D02*
D03*
Y117126D02*
D03*
Y115157D02*
D03*
Y113189D02*
D03*
Y111220D02*
D03*
Y109252D02*
D03*
Y107283D02*
D03*
D38*
X58116Y238189D02*
D03*
X67171D02*
D03*
X58116Y218110D02*
D03*
X67171D02*
D03*
X58116Y198032D02*
D03*
X67171D02*
D03*
X58116Y177953D02*
D03*
X67171D02*
D03*
X58116Y157874D02*
D03*
X67171D02*
D03*
X58116Y137795D02*
D03*
X67171D02*
D03*
X58116Y117717D02*
D03*
X67171D02*
D03*
X58116Y97638D02*
D03*
X67171D02*
D03*
X58116Y77559D02*
D03*
X67171D02*
D03*
X58116Y57480D02*
D03*
X67171D02*
D03*
X58116Y37402D02*
D03*
X67171D02*
D03*
X58116Y17323D02*
D03*
X67171D02*
D03*
D39*
X13780Y90945D02*
D03*
Y164961D02*
D03*
X205118Y90945D02*
D03*
Y164961D02*
D03*
X19685Y200787D02*
D03*
X236220D02*
D03*
Y59055D02*
D03*
X19685D02*
D03*
D40*
X19685Y84646D02*
D03*
Y171260D02*
D03*
X211024Y84646D02*
D03*
Y171260D02*
D03*
D41*
X228898Y154331D02*
D03*
Y142520D02*
D03*
Y113386D02*
D03*
Y101575D02*
D03*
D42*
X245905Y148425D02*
D03*
Y107480D02*
D03*
M02*
