G04*
G04 #@! TF.GenerationSoftware,Altium Limited,Altium Designer,20.0.10 (225)*
G04*
G04 Layer_Color=65280*
%FSLAX25Y25*%
%MOIN*%
G70*
G01*
G75*
%ADD10C,0.00984*%
%ADD12C,0.00787*%
%ADD13C,0.00591*%
%ADD15C,0.01000*%
D10*
X217323Y214469D02*
G03*
X217323Y214469I-492J0D01*
G01*
X26378Y76772D02*
X32677Y83071D01*
Y179134D01*
X6693D02*
X32677D01*
X6693Y76772D02*
Y179134D01*
Y76772D02*
X26378D01*
X217717D02*
X224016Y83071D01*
Y179134D01*
X198031D02*
X224016D01*
X198031Y76772D02*
Y179134D01*
Y76772D02*
X217717D01*
D12*
X183327Y38323D02*
G03*
X183327Y40823I0J1250D01*
G01*
X159090Y85295D02*
G03*
X161591Y85295I1250J0D01*
G01*
X215453Y219980D02*
Y233760D01*
X190057Y219980D02*
X215453D01*
X189862D02*
Y233760D01*
X215453D01*
X183327Y45925D02*
X223327D01*
Y33220D02*
Y45925D01*
X183327Y33220D02*
X223327D01*
X183327D02*
Y38323D01*
Y40823D02*
Y45925D01*
X166693Y45295D02*
Y85295D01*
X153988Y45295D02*
X166693D01*
X153988D02*
Y85295D01*
X159091D01*
X161591D02*
X166693D01*
D13*
X175984Y19390D02*
X177165D01*
X175984D02*
Y30413D01*
X177165D01*
X180315D02*
X181496D01*
Y19390D02*
Y30413D01*
X180315Y19390D02*
X181496D01*
X175984Y24902D02*
X181496D01*
X153339Y135039D02*
Y135795D01*
X143339Y135039D02*
X153339D01*
X143339D02*
Y135795D01*
Y139795D02*
Y140551D01*
X153339D01*
Y139795D02*
Y140551D01*
X148339Y135039D02*
Y140551D01*
X189173Y153937D02*
X190354D01*
Y142913D02*
Y153937D01*
X189173Y142913D02*
X190354D01*
X184843D02*
X186024D01*
X184843D02*
Y153937D01*
X186024D01*
X184843Y148425D02*
X190354D01*
X234724Y24606D02*
Y25362D01*
X224725Y24606D02*
X234724D01*
X224725D02*
Y25362D01*
Y29362D02*
Y30118D01*
X234724D01*
Y29362D02*
Y30118D01*
X229725Y24606D02*
Y30118D01*
X84941Y8563D02*
Y9744D01*
X95965D01*
Y8563D02*
Y9744D01*
Y4232D02*
Y5413D01*
X84941Y4232D02*
X95965D01*
X84941D02*
Y5413D01*
X90453Y4232D02*
Y9744D01*
X151476Y38878D02*
Y44390D01*
X156476Y43634D02*
Y44390D01*
X146476D02*
X156476D01*
X146476Y43634D02*
Y44390D01*
Y38878D02*
Y39634D01*
Y38878D02*
X156476D01*
Y39634D01*
X124606Y146555D02*
X130118D01*
X124606Y151555D02*
X125362D01*
X124606Y141555D02*
Y151555D01*
Y141555D02*
X125362D01*
X129362D02*
X130118D01*
Y151555D01*
X129362D02*
X130118D01*
X132874Y146457D02*
X138386D01*
X137630Y141457D02*
X138386D01*
Y151457D01*
X137630D02*
X138386D01*
X132874D02*
X133630D01*
X132874Y141457D02*
Y151457D01*
Y141457D02*
X133630D01*
X136319Y115649D02*
X137500D01*
X136319D02*
Y126673D01*
X137500D01*
X140650D02*
X141831D01*
Y115649D02*
Y126673D01*
X140650Y115649D02*
X141831D01*
X136319Y121161D02*
X141831D01*
X142520Y115650D02*
X143701D01*
X142520D02*
Y126673D01*
X143701D01*
X146850D02*
X148031D01*
Y115650D02*
Y126673D01*
X146850Y115650D02*
X148031D01*
X142520Y121161D02*
X148031D01*
X173425Y166732D02*
Y167913D01*
X184449D01*
Y166732D02*
Y167913D01*
Y162402D02*
Y163583D01*
X173425Y162402D02*
X184449D01*
X173425D02*
Y163583D01*
X178937Y162402D02*
Y167913D01*
D15*
X52309Y245591D02*
X77309D01*
X52309Y230591D02*
X77309D01*
X52309Y225512D02*
X77309D01*
X52309Y210512D02*
X77309D01*
X52309Y205433D02*
X77309D01*
X52309Y190433D02*
X77309D01*
X52309Y185354D02*
X77309D01*
X52309Y170354D02*
X77309D01*
X52309Y165276D02*
X77309D01*
X52309Y150276D02*
X77309D01*
X52309Y145197D02*
X77309D01*
X52309Y130197D02*
X77309D01*
X52309Y125118D02*
X77309D01*
X52309Y110118D02*
X77309D01*
X52309Y105039D02*
X77309D01*
X52309Y90039D02*
X77309D01*
X52309Y84961D02*
X77309D01*
X52309Y69961D02*
X77309D01*
X52309Y64882D02*
X77309D01*
X52309Y49882D02*
X77309D01*
X52309Y44803D02*
X77309D01*
X52309Y29803D02*
X77309D01*
X52309Y24724D02*
X77309D01*
X52309Y9724D02*
X77309D01*
X177657Y35597D02*
X178182Y36121D01*
X179231D01*
X179756Y35597D01*
Y33498D01*
X179231Y32973D01*
X178182D01*
X177657Y33498D01*
X174508Y32973D02*
X176607D01*
X174508Y35072D01*
Y35597D01*
X175033Y36121D01*
X176083D01*
X176607Y35597D01*
X173459Y32973D02*
X172409D01*
X172934D01*
Y36121D01*
X173459Y35597D01*
X157874Y143110D02*
Y146259D01*
X156300D01*
X155775Y145734D01*
Y144685D01*
X156300Y144160D01*
X157874D01*
X156825D02*
X155775Y143110D01*
X152626Y146259D02*
X154725D01*
Y144685D01*
X153676Y145209D01*
X153151D01*
X152626Y144685D01*
Y143635D01*
X153151Y143110D01*
X154201D01*
X154725Y143635D01*
X151577Y145734D02*
X151052Y146259D01*
X150003D01*
X149478Y145734D01*
Y143635D01*
X150003Y143110D01*
X151052D01*
X151577Y143635D01*
Y145734D01*
X213222Y245538D02*
Y247375D01*
X213682Y247834D01*
X214600D01*
X215059Y247375D01*
Y245538D01*
X214600Y245079D01*
X213682D01*
X214141Y245997D02*
X213222Y245079D01*
X213682D02*
X213222Y245538D01*
X212304Y245079D02*
X211386D01*
X211845D01*
Y247834D01*
X212304Y247375D01*
X210008D02*
X209549Y247834D01*
X208631D01*
X208172Y247375D01*
Y246915D01*
X208631Y246456D01*
X209090D01*
X208631D01*
X208172Y245997D01*
Y245538D01*
X208631Y245079D01*
X209549D01*
X210008Y245538D01*
X31299Y184350D02*
X29463Y181595D01*
Y184350D02*
X31299Y181595D01*
X27167D02*
Y184350D01*
X28544Y182972D01*
X26708D01*
X223228Y183168D02*
X221392Y180413D01*
Y183168D02*
X223228Y180413D01*
X220473Y182709D02*
X220014Y183168D01*
X219096D01*
X218637Y182709D01*
Y182250D01*
X219096Y181791D01*
X219555D01*
X219096D01*
X218637Y181332D01*
Y180873D01*
X219096Y180413D01*
X220014D01*
X220473Y180873D01*
X161417Y40946D02*
Y43242D01*
X161876Y43701D01*
X162795D01*
X163254Y43242D01*
Y40946D01*
X165550Y43701D02*
Y40946D01*
X164172Y42323D01*
X166009D01*
X227558Y36713D02*
X225262D01*
X224803Y37172D01*
Y38090D01*
X225262Y38549D01*
X227558D01*
X227099Y39468D02*
X227558Y39927D01*
Y40845D01*
X227099Y41304D01*
X226640D01*
X226181Y40845D01*
Y40386D01*
Y40845D01*
X225722Y41304D01*
X225262D01*
X224803Y40845D01*
Y39927D01*
X225262Y39468D01*
X147736Y37303D02*
Y34548D01*
X149114D01*
X149573Y35007D01*
Y35926D01*
X149114Y36385D01*
X147736D01*
X148655D02*
X149573Y37303D01*
X151869D02*
Y34548D01*
X150491Y35926D01*
X152328D01*
X153246Y36844D02*
X153705Y37303D01*
X154624D01*
X155083Y36844D01*
Y35007D01*
X154624Y34548D01*
X153705D01*
X153246Y35007D01*
Y35467D01*
X153705Y35926D01*
X155083D01*
X227461Y19980D02*
Y22735D01*
X226083D01*
X225624Y22276D01*
Y21358D01*
X226083Y20899D01*
X227461D01*
X226542D02*
X225624Y19980D01*
X223328D02*
Y22735D01*
X224706Y21358D01*
X222869D01*
X221951Y22276D02*
X221491Y22735D01*
X220573D01*
X220114Y22276D01*
Y21817D01*
X220573Y21358D01*
X220114Y20899D01*
Y20439D01*
X220573Y19980D01*
X221491D01*
X221951Y20439D01*
Y20899D01*
X221491Y21358D01*
X221951Y21817D01*
Y22276D01*
X221491Y21358D02*
X220573D01*
X45768Y241929D02*
X43013D01*
Y240552D01*
X43472Y240092D01*
X44390D01*
X44849Y240552D01*
Y241929D01*
Y241011D02*
X45768Y240092D01*
X43013Y237337D02*
X43472Y238256D01*
X44390Y239174D01*
X45309D01*
X45768Y238715D01*
Y237797D01*
X45309Y237337D01*
X44849D01*
X44390Y237797D01*
Y239174D01*
X45768Y235042D02*
X43013D01*
X44390Y236419D01*
Y234582D01*
X45768Y222933D02*
X43013D01*
Y221556D01*
X43472Y221096D01*
X44390D01*
X44849Y221556D01*
Y222933D01*
Y222015D02*
X45768Y221096D01*
X43013Y218341D02*
X43472Y219260D01*
X44390Y220178D01*
X45309D01*
X45768Y219719D01*
Y218800D01*
X45309Y218341D01*
X44849D01*
X44390Y218800D01*
Y220178D01*
X43472Y217423D02*
X43013Y216964D01*
Y216045D01*
X43472Y215586D01*
X43931D01*
X44390Y216045D01*
Y216505D01*
Y216045D01*
X44849Y215586D01*
X45309D01*
X45768Y216045D01*
Y216964D01*
X45309Y217423D01*
X45768Y202953D02*
X43013D01*
Y201575D01*
X43472Y201116D01*
X44390D01*
X44849Y201575D01*
Y202953D01*
Y202034D02*
X45768Y201116D01*
X43013Y198361D02*
X43472Y199279D01*
X44390Y200198D01*
X45309D01*
X45768Y199739D01*
Y198820D01*
X45309Y198361D01*
X44849D01*
X44390Y198820D01*
Y200198D01*
X45768Y195606D02*
Y197443D01*
X43931Y195606D01*
X43472D01*
X43013Y196065D01*
Y196984D01*
X43472Y197443D01*
X45768Y181988D02*
X43013D01*
Y180611D01*
X43472Y180151D01*
X44390D01*
X44849Y180611D01*
Y181988D01*
Y181070D02*
X45768Y180151D01*
X43013Y177397D02*
X43472Y178315D01*
X44390Y179233D01*
X45309D01*
X45768Y178774D01*
Y177856D01*
X45309Y177397D01*
X44849D01*
X44390Y177856D01*
Y179233D01*
X45768Y176478D02*
Y175560D01*
Y176019D01*
X43013D01*
X43472Y176478D01*
X45768Y162205D02*
X43013D01*
Y160827D01*
X43472Y160368D01*
X44390D01*
X44849Y160827D01*
Y162205D01*
Y161286D02*
X45768Y160368D01*
X43013Y157613D02*
X43472Y158531D01*
X44390Y159450D01*
X45309D01*
X45768Y158991D01*
Y158072D01*
X45309Y157613D01*
X44849D01*
X44390Y158072D01*
Y159450D01*
X43472Y156695D02*
X43013Y156236D01*
Y155317D01*
X43472Y154858D01*
X45309D01*
X45768Y155317D01*
Y156236D01*
X45309Y156695D01*
X43472D01*
X45768Y141339D02*
X43013D01*
Y139961D01*
X43472Y139502D01*
X44390D01*
X44849Y139961D01*
Y141339D01*
Y140420D02*
X45768Y139502D01*
X43013Y136747D02*
Y138584D01*
X44390D01*
X43931Y137665D01*
Y137206D01*
X44390Y136747D01*
X45309D01*
X45768Y137206D01*
Y138124D01*
X45309Y138584D01*
Y135828D02*
X45768Y135369D01*
Y134451D01*
X45309Y133992D01*
X43472D01*
X43013Y134451D01*
Y135369D01*
X43472Y135828D01*
X43931D01*
X44390Y135369D01*
Y133992D01*
X45768Y121653D02*
X43013D01*
Y120276D01*
X43472Y119817D01*
X44390D01*
X44849Y120276D01*
Y121653D01*
Y120735D02*
X45768Y119817D01*
X43013Y117062D02*
Y118898D01*
X44390D01*
X43931Y117980D01*
Y117521D01*
X44390Y117062D01*
X45309D01*
X45768Y117521D01*
Y118439D01*
X45309Y118898D01*
X43472Y116144D02*
X43013Y115684D01*
Y114766D01*
X43472Y114307D01*
X43931D01*
X44390Y114766D01*
X44849Y114307D01*
X45309D01*
X45768Y114766D01*
Y115684D01*
X45309Y116144D01*
X44849D01*
X44390Y115684D01*
X43931Y116144D01*
X43472D01*
X44390Y115684D02*
Y114766D01*
X45768Y101476D02*
X43013D01*
Y100099D01*
X43472Y99640D01*
X44390D01*
X44849Y100099D01*
Y101476D01*
Y100558D02*
X45768Y99640D01*
X43013Y96885D02*
Y98721D01*
X44390D01*
X43931Y97803D01*
Y97344D01*
X44390Y96885D01*
X45309D01*
X45768Y97344D01*
Y98262D01*
X45309Y98721D01*
X43013Y95966D02*
Y94130D01*
X43472D01*
X45309Y95966D01*
X45768D01*
Y79823D02*
X43013D01*
Y78445D01*
X43472Y77986D01*
X44390D01*
X44849Y78445D01*
Y79823D01*
Y78904D02*
X45768Y77986D01*
X43013Y75231D02*
Y77068D01*
X44390D01*
X43931Y76149D01*
Y75690D01*
X44390Y75231D01*
X45309D01*
X45768Y75690D01*
Y76609D01*
X45309Y77068D01*
X43013Y72476D02*
X43472Y73394D01*
X44390Y74313D01*
X45309D01*
X45768Y73854D01*
Y72935D01*
X45309Y72476D01*
X44849D01*
X44390Y72935D01*
Y74313D01*
X45768Y61614D02*
X43013D01*
Y60237D01*
X43472Y59777D01*
X44390D01*
X44849Y60237D01*
Y61614D01*
Y60696D02*
X45768Y59777D01*
X43013Y57023D02*
Y58859D01*
X44390D01*
X43931Y57941D01*
Y57482D01*
X44390Y57023D01*
X45309D01*
X45768Y57482D01*
Y58400D01*
X45309Y58859D01*
X43013Y54267D02*
Y56104D01*
X44390D01*
X43931Y55186D01*
Y54727D01*
X44390Y54267D01*
X45309D01*
X45768Y54727D01*
Y55645D01*
X45309Y56104D01*
X45768Y41437D02*
X43013D01*
Y40060D01*
X43472Y39600D01*
X44390D01*
X44849Y40060D01*
Y41437D01*
Y40519D02*
X45768Y39600D01*
X43013Y36845D02*
Y38682D01*
X44390D01*
X43931Y37764D01*
Y37304D01*
X44390Y36845D01*
X45309D01*
X45768Y37304D01*
Y38223D01*
X45309Y38682D01*
X45768Y34549D02*
X43013D01*
X44390Y35927D01*
Y34090D01*
X45768Y21161D02*
X43013D01*
Y19784D01*
X43472Y19325D01*
X44390D01*
X44849Y19784D01*
Y21161D01*
Y20243D02*
X45768Y19325D01*
X43013Y16570D02*
Y18406D01*
X44390D01*
X43931Y17488D01*
Y17029D01*
X44390Y16570D01*
X45309D01*
X45768Y17029D01*
Y17947D01*
X45309Y18406D01*
X43472Y15651D02*
X43013Y15192D01*
Y14274D01*
X43472Y13815D01*
X43931D01*
X44390Y14274D01*
Y14733D01*
Y14274D01*
X44849Y13815D01*
X45309D01*
X45768Y14274D01*
Y15192D01*
X45309Y15651D01*
X130020Y153051D02*
Y155806D01*
X128642D01*
X128183Y155347D01*
Y154429D01*
X128642Y153970D01*
X130020D01*
X129101D02*
X128183Y153051D01*
X125428Y155806D02*
X127265D01*
Y154429D01*
X126346Y154888D01*
X125887D01*
X125428Y154429D01*
Y153510D01*
X125887Y153051D01*
X126805D01*
X127265Y153510D01*
X122673Y153051D02*
X124510D01*
X122673Y154888D01*
Y155347D01*
X123132Y155806D01*
X124050D01*
X124510Y155347D01*
X139272Y153347D02*
Y156102D01*
X137894D01*
X137435Y155642D01*
Y154724D01*
X137894Y154265D01*
X139272D01*
X138353D02*
X137435Y153347D01*
X134680Y156102D02*
X136517D01*
Y154724D01*
X135598Y155183D01*
X135139D01*
X134680Y154724D01*
Y153806D01*
X135139Y153347D01*
X136057D01*
X136517Y153806D01*
X133762Y153347D02*
X132843D01*
X133302D01*
Y156102D01*
X133762Y155642D01*
X100885Y4921D02*
X98130D01*
Y6758D01*
Y7676D02*
Y8595D01*
Y8135D01*
X100885D01*
X100426Y7676D01*
X184777Y172473D02*
X185237Y172932D01*
X186155D01*
X186614Y172473D01*
Y170636D01*
X186155Y170177D01*
X185237D01*
X184777Y170636D01*
X182023Y170177D02*
X183859D01*
X182023Y172014D01*
Y172473D01*
X182482Y172932D01*
X183400D01*
X183859Y172473D01*
X181104D02*
X180645Y172932D01*
X179727D01*
X179268Y172473D01*
Y170636D01*
X179727Y170177D01*
X180645D01*
X181104Y170636D01*
Y172473D01*
X194422Y147014D02*
X194881Y146555D01*
Y145636D01*
X194422Y145177D01*
X192585D01*
X192126Y145636D01*
Y146555D01*
X192585Y147014D01*
X192126Y147932D02*
Y148851D01*
Y148391D01*
X194881D01*
X194422Y147932D01*
X192585Y150228D02*
X192126Y150687D01*
Y151605D01*
X192585Y152065D01*
X194422D01*
X194881Y151605D01*
Y150687D01*
X194422Y150228D01*
X193963D01*
X193503Y150687D01*
Y152065D01*
X139896Y112926D02*
X140355Y113385D01*
X141273D01*
X141732Y112926D01*
Y111089D01*
X141273Y110630D01*
X140355D01*
X139896Y111089D01*
X137141Y110630D02*
X138977D01*
X137141Y112467D01*
Y112926D01*
X137600Y113385D01*
X138518D01*
X138977Y112926D01*
X136222D02*
X135763Y113385D01*
X134845D01*
X134386Y112926D01*
Y112467D01*
X134845Y112007D01*
X135304D01*
X134845D01*
X134386Y111548D01*
Y111089D01*
X134845Y110630D01*
X135763D01*
X136222Y111089D01*
X149443Y113024D02*
X149902Y113483D01*
X150820D01*
X151279Y113024D01*
Y111188D01*
X150820Y110728D01*
X149902D01*
X149443Y111188D01*
X146688Y110728D02*
X148524D01*
X146688Y112565D01*
Y113024D01*
X147147Y113483D01*
X148065D01*
X148524Y113024D01*
X143933Y110728D02*
X145770D01*
X143933Y112565D01*
Y113024D01*
X144392Y113483D01*
X145310D01*
X145770Y113024D01*
M02*
