%TF.GenerationSoftware,Altium Limited,Altium Designer,19.0.10 (269)*%
G04 Layer_Color=8388736*
%FSLAX26Y26*%
%MOIN*%
%TF.FileFunction,Soldermask,Top*%
%TF.Part,Single*%
G01*
G75*
%TA.AperFunction,SMDPad,CuDef*%
%ADD40R,0.041465X0.045402*%
%ADD44R,0.047370X0.043433*%
%ADD48R,0.045402X0.041465*%
%TA.AperFunction,ComponentPad*%
%ADD51C,0.008000*%
%ADD52C,0.057087*%
%ADD53C,0.145795*%
%ADD54C,0.076898*%
%TA.AperFunction,WasherPad*%
%ADD55C,0.008000*%
%TA.AperFunction,ViaPad*%
%ADD56C,0.038000*%
%TA.AperFunction,SMDPad,CuDef*%
%ADD60R,0.073748X0.037921*%
%ADD61R,0.088709X0.053276*%
%ADD62R,0.059181X0.051307*%
%ADD63O,0.070992X0.021386*%
%ADD64R,0.053276X0.088709*%
%ADD65R,0.051307X0.059181*%
G04:AMPARAMS|DCode=66|XSize=27.685mil|YSize=37.528mil|CornerRadius=8.921mil|HoleSize=0mil|Usage=FLASHONLY|Rotation=0.000|XOffset=0mil|YOffset=0mil|HoleType=Round|Shape=RoundedRectangle|*
%AMROUNDEDRECTD66*
21,1,0.027685,0.019685,0,0,0.0*
21,1,0.009843,0.037528,0,0,0.0*
1,1,0.017842,0.004921,-0.009843*
1,1,0.017842,-0.004921,-0.009843*
1,1,0.017842,-0.004921,0.009843*
1,1,0.017842,0.004921,0.009843*
%
%ADD66ROUNDEDRECTD66*%
D40*
X2002953Y1785433D02*
D03*
X2054134D02*
D03*
X1939960D02*
D03*
X1888779D02*
D03*
X899606Y2433071D02*
D03*
X950787D02*
D03*
X899606Y2330709D02*
D03*
X950787D02*
D03*
X899606Y2232284D02*
D03*
X950787D02*
D03*
X899606Y2129921D02*
D03*
X950787D02*
D03*
X899606Y2031496D02*
D03*
X950787D02*
D03*
X899606Y1929134D02*
D03*
X950787D02*
D03*
X899606Y1830709D02*
D03*
X950787D02*
D03*
X899606Y1728347D02*
D03*
X950787D02*
D03*
X899606Y1629921D02*
D03*
X950787D02*
D03*
X899606Y1527559D02*
D03*
X950787D02*
D03*
X899606Y1429134D02*
D03*
X950787D02*
D03*
X899606Y1326772D02*
D03*
X950787D02*
D03*
X899606Y1125984D02*
D03*
X950787D02*
D03*
X899606Y1228347D02*
D03*
X950787D02*
D03*
X899606Y1027559D02*
D03*
X950787D02*
D03*
X899606Y925197D02*
D03*
X950787D02*
D03*
X899606Y826772D02*
D03*
X950787D02*
D03*
X899606Y724409D02*
D03*
X950787D02*
D03*
X899606Y625984D02*
D03*
X950787D02*
D03*
X899606Y523622D02*
D03*
X950787D02*
D03*
X899606Y425197D02*
D03*
X950787D02*
D03*
X899606Y322835D02*
D03*
X950787D02*
D03*
X899606Y224410D02*
D03*
X950787D02*
D03*
X899606Y122047D02*
D03*
X950787D02*
D03*
D44*
X1192913Y195866D02*
D03*
Y142716D02*
D03*
X1047697Y143701D02*
D03*
Y196850D02*
D03*
Y344488D02*
D03*
Y397638D02*
D03*
Y545276D02*
D03*
Y598425D02*
D03*
Y746063D02*
D03*
Y799213D02*
D03*
Y946850D02*
D03*
Y1000000D02*
D03*
Y1147638D02*
D03*
Y1200787D02*
D03*
Y1348425D02*
D03*
Y1401575D02*
D03*
Y1549213D02*
D03*
Y1602362D02*
D03*
Y1750000D02*
D03*
Y1803150D02*
D03*
Y1950787D02*
D03*
Y2003937D02*
D03*
Y2151575D02*
D03*
Y2204724D02*
D03*
Y2352362D02*
D03*
Y2405512D02*
D03*
D48*
X1821850Y1682087D02*
D03*
Y1733268D02*
D03*
Y1618110D02*
D03*
Y1566929D02*
D03*
X1415354Y1652559D02*
D03*
Y1703740D02*
D03*
X1432087Y586614D02*
D03*
Y637795D02*
D03*
X1342520Y143701D02*
D03*
Y194882D02*
D03*
X472894Y201772D02*
D03*
Y150591D02*
D03*
Y402559D02*
D03*
Y351378D02*
D03*
Y603346D02*
D03*
Y552165D02*
D03*
Y804134D02*
D03*
Y752953D02*
D03*
Y1004921D02*
D03*
Y953740D02*
D03*
Y1205709D02*
D03*
Y1154528D02*
D03*
Y1406496D02*
D03*
Y1355315D02*
D03*
Y1607284D02*
D03*
Y1556102D02*
D03*
Y1808071D02*
D03*
Y1756890D02*
D03*
Y2008858D02*
D03*
Y1957677D02*
D03*
Y2209646D02*
D03*
Y2158465D02*
D03*
Y2410433D02*
D03*
Y2359252D02*
D03*
D51*
X2051181Y909449D02*
D03*
Y1649606D02*
D03*
X137795Y909449D02*
D03*
Y1649606D02*
D03*
D52*
X2110236Y846457D02*
D03*
Y1712599D02*
D03*
X196850Y846457D02*
D03*
Y1712599D02*
D03*
D53*
X2453543Y1187008D02*
D03*
Y899606D02*
D03*
Y1698819D02*
D03*
Y1411417D02*
D03*
D54*
X2283465Y984252D02*
D03*
Y1102362D02*
D03*
Y1496063D02*
D03*
Y1614173D02*
D03*
D55*
X196850Y2007874D02*
D03*
X2362205D02*
D03*
Y590551D02*
D03*
X196850D02*
D03*
D56*
X1825787Y999016D02*
D03*
X1819903Y1051181D02*
D03*
X384842Y1178150D02*
D03*
X185039Y1137795D02*
D03*
Y1263780D02*
D03*
Y1200787D02*
D03*
Y1326772D02*
D03*
Y1011811D02*
D03*
Y1074803D02*
D03*
X1692913Y575787D02*
D03*
X1385827Y1986220D02*
D03*
X1361220Y2089567D02*
D03*
X1321063Y2135630D02*
D03*
X1323327Y2038878D02*
D03*
X1320866Y1940945D02*
D03*
X1084646Y1659449D02*
D03*
X1765748Y1708661D02*
D03*
X1880997Y1550273D02*
D03*
X1973425Y999016D02*
D03*
X1924213D02*
D03*
X1080709Y1458661D02*
D03*
X1005905D02*
D03*
X2109213Y709052D02*
D03*
X2054134Y1838583D02*
D03*
X1885827D02*
D03*
X1625984Y607284D02*
D03*
X1956693Y748032D02*
D03*
X1716535Y750000D02*
D03*
X1955709Y2243110D02*
D03*
X1626292Y2272638D02*
D03*
X1567204Y2143701D02*
D03*
X2112205Y1779528D02*
D03*
X2088998Y1177165D02*
D03*
X2088732Y1248526D02*
D03*
X1578740Y1624016D02*
D03*
X1540354Y1128406D02*
D03*
X1502953Y1309055D02*
D03*
X1557087Y1346457D02*
D03*
X1585228Y1238771D02*
D03*
X1577833Y1437085D02*
D03*
X1579724Y1831693D02*
D03*
X1535433D02*
D03*
X1625894Y1851378D02*
D03*
X1722441Y1995079D02*
D03*
X1669291Y1996063D02*
D03*
X1619094Y1997047D02*
D03*
X1723425Y1207677D02*
D03*
X1875000Y999016D02*
D03*
X1710630Y677165D02*
D03*
X1713606Y1247677D02*
D03*
X1765748Y1277559D02*
D03*
X1740158Y1336614D02*
D03*
X1911511Y1968600D02*
D03*
X1417323Y1887795D02*
D03*
X1929134Y2007874D02*
D03*
Y1929134D02*
D03*
X1353347Y1603347D02*
D03*
X1778543Y1852929D02*
D03*
X1723425Y1787401D02*
D03*
X1749016Y1821850D02*
D03*
X1444882Y1486220D02*
D03*
X1445866Y1443898D02*
D03*
X1542323Y889764D02*
D03*
X1440945Y1180118D02*
D03*
X1732284Y1091535D02*
D03*
X1505906Y1238771D02*
D03*
X1128937Y2490630D02*
D03*
X1578740Y624764D02*
D03*
X1612205Y783465D02*
D03*
X1639764Y678150D02*
D03*
X1663386Y526575D02*
D03*
X1710630Y820866D02*
D03*
X2092622Y668340D02*
D03*
X2111323Y749052D02*
D03*
X2110339Y628968D02*
D03*
X1651575Y475394D02*
D03*
X1124016Y144685D02*
D03*
X364173Y893701D02*
D03*
X312992Y820600D02*
D03*
X1125984Y2334646D02*
D03*
X1000000Y2460630D02*
D03*
X1082677Y1259842D02*
D03*
Y858268D02*
D03*
X1084646Y1858268D02*
D03*
X1082677Y657480D02*
D03*
X1082677Y1059055D02*
D03*
X1007874Y858268D02*
D03*
Y460630D02*
D03*
X1084646Y2259843D02*
D03*
X1003937D02*
D03*
X1084646Y2059055D02*
D03*
X1003937D02*
D03*
Y1858268D02*
D03*
X1005905Y1659449D02*
D03*
Y1259842D02*
D03*
X1007874Y1059055D02*
D03*
X1007874Y657480D02*
D03*
X1086614Y460630D02*
D03*
X624232Y414134D02*
D03*
X713051Y328740D02*
D03*
Y1332677D02*
D03*
X1086614Y255905D02*
D03*
X1007874D02*
D03*
X713051Y1935039D02*
D03*
X374114Y2118110D02*
D03*
X381890Y1610236D02*
D03*
X409114Y1421260D02*
D03*
X713051Y2336614D02*
D03*
X624232Y2422008D02*
D03*
X713051Y2135827D02*
D03*
X624232Y2221220D02*
D03*
Y2020433D02*
D03*
X713051Y1734252D02*
D03*
X624232Y1819646D02*
D03*
X713051Y1533465D02*
D03*
X624232Y1618858D02*
D03*
Y1418071D02*
D03*
X713051Y1131890D02*
D03*
X624232Y1217283D02*
D03*
X713051Y931102D02*
D03*
X624232Y1016496D02*
D03*
X713051Y730315D02*
D03*
X624232Y815709D02*
D03*
X713051Y529528D02*
D03*
X624232Y614921D02*
D03*
X713051Y127953D02*
D03*
X624232Y213346D02*
D03*
D60*
X1825197Y1204528D02*
D03*
Y1454528D02*
D03*
X2161024D02*
D03*
X1825197Y1104528D02*
D03*
Y1154528D02*
D03*
Y1254528D02*
D03*
Y1304528D02*
D03*
Y1354528D02*
D03*
Y1404528D02*
D03*
X2161024D02*
D03*
Y1354528D02*
D03*
Y1304528D02*
D03*
Y1254528D02*
D03*
Y1204528D02*
D03*
Y1154528D02*
D03*
Y1104528D02*
D03*
D61*
X1584646Y1945866D02*
D03*
D62*
X1510827Y1717520D02*
D03*
Y1626968D02*
D03*
D63*
X1647638Y1407480D02*
D03*
X1360236Y1525591D02*
D03*
Y1505906D02*
D03*
Y1486220D02*
D03*
Y1466535D02*
D03*
Y1446850D02*
D03*
Y1427165D02*
D03*
Y1407480D02*
D03*
Y1387795D02*
D03*
Y1368110D02*
D03*
Y1348425D02*
D03*
Y1328740D02*
D03*
Y1309055D02*
D03*
Y1289370D02*
D03*
Y1269685D02*
D03*
Y1250000D02*
D03*
Y1230315D02*
D03*
Y1210630D02*
D03*
Y1190945D02*
D03*
Y1171260D02*
D03*
Y1151575D02*
D03*
Y1131890D02*
D03*
Y1112205D02*
D03*
Y1092520D02*
D03*
Y1072835D02*
D03*
X1647638Y1525591D02*
D03*
Y1505906D02*
D03*
Y1486220D02*
D03*
Y1466535D02*
D03*
Y1446850D02*
D03*
Y1427165D02*
D03*
Y1387795D02*
D03*
Y1368110D02*
D03*
Y1348425D02*
D03*
Y1328740D02*
D03*
Y1309055D02*
D03*
Y1289370D02*
D03*
Y1269685D02*
D03*
Y1250000D02*
D03*
Y1230315D02*
D03*
Y1210630D02*
D03*
Y1190945D02*
D03*
Y1171260D02*
D03*
Y1151575D02*
D03*
Y1131890D02*
D03*
Y1112205D02*
D03*
Y1092520D02*
D03*
Y1072835D02*
D03*
D64*
X1431102Y740158D02*
D03*
D65*
X581162Y2381890D02*
D03*
X671713D02*
D03*
X581162Y2181102D02*
D03*
X671713D02*
D03*
X581162Y1980315D02*
D03*
X671713D02*
D03*
X581162Y1779528D02*
D03*
X671713D02*
D03*
X581162Y1578740D02*
D03*
X671713D02*
D03*
X581162Y1377953D02*
D03*
X671713D02*
D03*
X581162Y1177165D02*
D03*
X671713D02*
D03*
X581162Y976378D02*
D03*
X671713D02*
D03*
X581162Y775591D02*
D03*
X671713D02*
D03*
X581162Y574803D02*
D03*
X671713D02*
D03*
X581162Y374016D02*
D03*
X671713D02*
D03*
X581162Y173228D02*
D03*
X671713D02*
D03*
D66*
X778996Y2346850D02*
D03*
X759311Y2414961D02*
D03*
X798681D02*
D03*
X778996Y2146063D02*
D03*
X759311Y2214173D02*
D03*
X798681D02*
D03*
X778996Y1945276D02*
D03*
X759311Y2013386D02*
D03*
X798681D02*
D03*
X778996Y1744488D02*
D03*
X759311Y1812598D02*
D03*
X798681D02*
D03*
X778996Y1543701D02*
D03*
X759311Y1611811D02*
D03*
X798681D02*
D03*
X778996Y1342913D02*
D03*
X759311Y1411024D02*
D03*
X798681D02*
D03*
X778996Y1142126D02*
D03*
X759311Y1210236D02*
D03*
X798681D02*
D03*
X778996Y941339D02*
D03*
X759311Y1009449D02*
D03*
X798681D02*
D03*
X778996Y740551D02*
D03*
X759311Y808661D02*
D03*
X798681D02*
D03*
X778996Y539764D02*
D03*
X759311Y607874D02*
D03*
X798681D02*
D03*
X778996Y338976D02*
D03*
X759311Y407087D02*
D03*
X798681D02*
D03*
X778996Y138189D02*
D03*
X759311Y206299D02*
D03*
X798681D02*
D03*
%TF.MD5,57f4f95ba9f6b9b39571eff950bbce45*%
M02*
