%TF.GenerationSoftware,Altium Limited,Altium Designer,19.1.8 (144)*%
G04 Layer_Color=8388736*
%FSLAX26Y26*%
%MOIN*%
%TF.FileFunction,Soldermask,Top*%
%TF.Part,Single*%
G01*
G75*
%TA.AperFunction,SMDPad,CuDef*%
%ADD40R,0.041465X0.045402*%
%ADD43R,0.045402X0.041465*%
%ADD44R,0.047370X0.043433*%
%TA.AperFunction,ComponentPad*%
%ADD50C,0.008000*%
%ADD51C,0.057087*%
%ADD52C,0.145795*%
%ADD53C,0.076898*%
%TA.AperFunction,WasherPad*%
%ADD54C,0.008000*%
%TA.AperFunction,SMDPad,CuDef*%
G04:AMPARAMS|DCode=58|XSize=27.685mil|YSize=37.528mil|CornerRadius=8.921mil|HoleSize=0mil|Usage=FLASHONLY|Rotation=0.000|XOffset=0mil|YOffset=0mil|HoleType=Round|Shape=RoundedRectangle|*
%AMROUNDEDRECTD58*
21,1,0.027685,0.019685,0,0,0.0*
21,1,0.009843,0.037528,0,0,0.0*
1,1,0.017842,0.004921,-0.009843*
1,1,0.017842,-0.004921,-0.009843*
1,1,0.017842,-0.004921,0.009843*
1,1,0.017842,0.004921,0.009843*
%
%ADD58ROUNDEDRECTD58*%
%ADD59R,0.073748X0.037921*%
%ADD60R,0.088709X0.053276*%
%ADD61R,0.059181X0.051307*%
%ADD62O,0.070992X0.021386*%
%ADD63R,0.053276X0.088709*%
%ADD64R,0.051307X0.059181*%
D40*
X2002952Y1785434D02*
D03*
X2054134D02*
D03*
X1939960D02*
D03*
X1888780D02*
D03*
X899606Y2433070D02*
D03*
X950788D02*
D03*
X899606Y2330708D02*
D03*
X950788D02*
D03*
X899606Y2232284D02*
D03*
X950788D02*
D03*
X899606Y2129922D02*
D03*
X950788D02*
D03*
X899606Y2031496D02*
D03*
X950788D02*
D03*
X899606Y1929134D02*
D03*
X950788D02*
D03*
X899606Y1830708D02*
D03*
X950788D02*
D03*
X899606Y1728346D02*
D03*
X950788D02*
D03*
X899606Y1629922D02*
D03*
X950788D02*
D03*
X899606Y1527560D02*
D03*
X950788D02*
D03*
X899606Y1429134D02*
D03*
X950788D02*
D03*
X899606Y1326772D02*
D03*
X950788D02*
D03*
X899606Y1125984D02*
D03*
X950788D02*
D03*
X899606Y1228346D02*
D03*
X950788D02*
D03*
X899606Y1027560D02*
D03*
X950788D02*
D03*
X899606Y925196D02*
D03*
X950788D02*
D03*
X899606Y826772D02*
D03*
X950788D02*
D03*
X899606Y724410D02*
D03*
X950788D02*
D03*
X899606Y625984D02*
D03*
X950788D02*
D03*
X899606Y523622D02*
D03*
X950788D02*
D03*
X899606Y425196D02*
D03*
X950788D02*
D03*
X899606Y322834D02*
D03*
X950788D02*
D03*
X899606Y224410D02*
D03*
X950788D02*
D03*
X899606Y122048D02*
D03*
X950788D02*
D03*
D43*
X1821850Y1682086D02*
D03*
Y1733268D02*
D03*
Y1618110D02*
D03*
Y1566930D02*
D03*
X1415354Y1652560D02*
D03*
Y1703740D02*
D03*
X1432086Y586614D02*
D03*
Y637796D02*
D03*
X1342520Y143700D02*
D03*
Y194882D02*
D03*
X472894Y201772D02*
D03*
Y150590D02*
D03*
Y402560D02*
D03*
Y351378D02*
D03*
Y603346D02*
D03*
Y552166D02*
D03*
Y804134D02*
D03*
Y752952D02*
D03*
Y1004922D02*
D03*
Y953740D02*
D03*
Y1205708D02*
D03*
Y1154528D02*
D03*
Y1406496D02*
D03*
Y1355316D02*
D03*
Y1607284D02*
D03*
Y1556102D02*
D03*
Y1808070D02*
D03*
Y1756890D02*
D03*
Y2008858D02*
D03*
Y1957678D02*
D03*
Y2209646D02*
D03*
Y2158464D02*
D03*
Y2410434D02*
D03*
Y2359252D02*
D03*
D44*
X1192914Y195866D02*
D03*
Y142716D02*
D03*
X1047696Y143700D02*
D03*
Y196850D02*
D03*
Y344488D02*
D03*
Y397638D02*
D03*
Y545276D02*
D03*
Y598426D02*
D03*
Y746064D02*
D03*
Y799212D02*
D03*
Y946850D02*
D03*
Y1000000D02*
D03*
Y1147638D02*
D03*
Y1200788D02*
D03*
Y1348426D02*
D03*
Y1401574D02*
D03*
Y1549212D02*
D03*
Y1602362D02*
D03*
Y1750000D02*
D03*
Y1803150D02*
D03*
Y1950788D02*
D03*
Y2003938D02*
D03*
Y2151574D02*
D03*
Y2204724D02*
D03*
Y2352362D02*
D03*
Y2405512D02*
D03*
D50*
X2051182Y909448D02*
D03*
Y1649606D02*
D03*
X137796Y909448D02*
D03*
Y1649606D02*
D03*
D51*
X2110236Y846456D02*
D03*
Y1712598D02*
D03*
X196850Y846456D02*
D03*
Y1712598D02*
D03*
D52*
X2453544Y1187008D02*
D03*
Y899606D02*
D03*
Y1698818D02*
D03*
Y1411418D02*
D03*
D53*
X2283464Y984252D02*
D03*
Y1102362D02*
D03*
Y1496064D02*
D03*
Y1614174D02*
D03*
D54*
X196850Y2007874D02*
D03*
X2362204D02*
D03*
Y590552D02*
D03*
X196850D02*
D03*
D58*
X798682Y1411024D02*
D03*
X759312D02*
D03*
X778996Y1342914D02*
D03*
Y2346850D02*
D03*
X759312Y2414960D02*
D03*
X798682D02*
D03*
X778996Y2146064D02*
D03*
X759312Y2214174D02*
D03*
X798682D02*
D03*
X778996Y1945276D02*
D03*
X759312Y2013386D02*
D03*
X798682D02*
D03*
X778996Y1744488D02*
D03*
X759312Y1812598D02*
D03*
X798682D02*
D03*
X778996Y1543700D02*
D03*
X759312Y1611812D02*
D03*
X798682D02*
D03*
X778996Y1142126D02*
D03*
X759312Y1210236D02*
D03*
X798682D02*
D03*
X778996Y941338D02*
D03*
X759312Y1009448D02*
D03*
X798682D02*
D03*
X778996Y740552D02*
D03*
X759312Y808662D02*
D03*
X798682D02*
D03*
X778996Y539764D02*
D03*
X759312Y607874D02*
D03*
X798682D02*
D03*
X778996Y338976D02*
D03*
X759312Y407086D02*
D03*
X798682D02*
D03*
X778996Y138190D02*
D03*
X759312Y206300D02*
D03*
X798682D02*
D03*
D59*
X1825196Y1204528D02*
D03*
Y1454528D02*
D03*
X2161024D02*
D03*
X1825196Y1104528D02*
D03*
Y1154528D02*
D03*
Y1254528D02*
D03*
Y1304528D02*
D03*
Y1354528D02*
D03*
Y1404528D02*
D03*
X2161024D02*
D03*
Y1354528D02*
D03*
Y1304528D02*
D03*
Y1254528D02*
D03*
Y1204528D02*
D03*
Y1154528D02*
D03*
Y1104528D02*
D03*
D60*
X1584646Y1945866D02*
D03*
D61*
X1510826Y1717520D02*
D03*
Y1626968D02*
D03*
D62*
X1647638Y1407480D02*
D03*
X1360236Y1525590D02*
D03*
Y1505906D02*
D03*
Y1486220D02*
D03*
Y1466536D02*
D03*
Y1446850D02*
D03*
Y1427166D02*
D03*
Y1407480D02*
D03*
Y1387796D02*
D03*
Y1368110D02*
D03*
Y1348426D02*
D03*
Y1328740D02*
D03*
Y1309056D02*
D03*
Y1289370D02*
D03*
Y1269686D02*
D03*
Y1250000D02*
D03*
Y1230316D02*
D03*
Y1210630D02*
D03*
Y1190944D02*
D03*
Y1171260D02*
D03*
Y1151574D02*
D03*
Y1131890D02*
D03*
Y1112204D02*
D03*
Y1092520D02*
D03*
Y1072834D02*
D03*
X1647638Y1525590D02*
D03*
Y1505906D02*
D03*
Y1486220D02*
D03*
Y1466536D02*
D03*
Y1446850D02*
D03*
Y1427166D02*
D03*
Y1387796D02*
D03*
Y1368110D02*
D03*
Y1348426D02*
D03*
Y1328740D02*
D03*
Y1309056D02*
D03*
Y1289370D02*
D03*
Y1269686D02*
D03*
Y1250000D02*
D03*
Y1230316D02*
D03*
Y1210630D02*
D03*
Y1190944D02*
D03*
Y1171260D02*
D03*
Y1151574D02*
D03*
Y1131890D02*
D03*
Y1112204D02*
D03*
Y1092520D02*
D03*
Y1072834D02*
D03*
D63*
X1431102Y740158D02*
D03*
D64*
X581162Y2381890D02*
D03*
X671712D02*
D03*
X581162Y2181102D02*
D03*
X671712D02*
D03*
X581162Y1980316D02*
D03*
X671712D02*
D03*
X581162Y1779528D02*
D03*
X671712D02*
D03*
X581162Y1578740D02*
D03*
X671712D02*
D03*
X581162Y1377952D02*
D03*
X671712D02*
D03*
X581162Y1177166D02*
D03*
X671712D02*
D03*
X581162Y976378D02*
D03*
X671712D02*
D03*
X581162Y775590D02*
D03*
X671712D02*
D03*
X581162Y574804D02*
D03*
X671712D02*
D03*
X581162Y374016D02*
D03*
X671712D02*
D03*
X581162Y173228D02*
D03*
X671712D02*
D03*
%TF.MD5,9e49460b994762ec9ad191c63a50bb77*%
M02*
