%TF.GenerationSoftware,Altium Limited,Altium Designer,19.1.8 (144)*%
G04 Layer_Color=255*
%FSLAX26Y26*%
%MOIN*%
%TF.FileFunction,Pads,Bot*%
%TF.Part,Single*%
G01*
G75*
%TA.AperFunction,SMDPad,CuDef*%
%ADD10R,0.039370X0.035433*%
%ADD12R,0.035433X0.039370*%
%ADD13R,0.037402X0.033465*%
%ADD16R,0.033465X0.037402*%
%TA.AperFunction,ComponentPad*%
%ADD25C,0.078740*%
%ADD26C,0.118110*%
%ADD27C,0.051181*%
%TA.AperFunction,SMDPad,CuDef*%
%ADD31R,0.149606X0.078740*%
%ADD32R,0.059055X0.078740*%
%ADD33O,0.051181X0.019685*%
%ADD34R,0.051181X0.019685*%
%ADD35R,0.043307X0.019685*%
%ADD36R,0.049000X0.125000*%
D10*
X1498800Y947500D02*
D03*
Y1000650D02*
D03*
X1581476Y948818D02*
D03*
Y1001968D02*
D03*
X1875984Y1218504D02*
D03*
Y1271654D02*
D03*
Y1418308D02*
D03*
Y1365158D02*
D03*
X1840552Y1950788D02*
D03*
Y1897638D02*
D03*
D12*
X1762796Y1651574D02*
D03*
X1815944D02*
D03*
D13*
X1428150Y2390748D02*
D03*
Y2441930D02*
D03*
X1526574Y2390748D02*
D03*
Y2441930D02*
D03*
X1625000Y2390748D02*
D03*
Y2441930D02*
D03*
X1273622Y1491142D02*
D03*
Y1439960D02*
D03*
X1356300Y1438976D02*
D03*
Y1490158D02*
D03*
D16*
X1667322Y2152560D02*
D03*
X1616142D02*
D03*
D25*
X2288976Y1543307D02*
D03*
Y1425197D02*
D03*
Y1133859D02*
D03*
Y1015749D02*
D03*
D26*
X2459055Y1484252D02*
D03*
Y1074804D02*
D03*
D27*
X196850Y846456D02*
D03*
Y1712598D02*
D03*
X2110236Y846456D02*
D03*
Y1712598D02*
D03*
D31*
X2026574Y2392716D02*
D03*
D32*
X1936024Y2144686D02*
D03*
X2026574D02*
D03*
X2117126D02*
D03*
D33*
X1770552Y827166D02*
D03*
Y777166D02*
D03*
Y727166D02*
D03*
Y677166D02*
D03*
Y627166D02*
D03*
Y577166D02*
D03*
Y527166D02*
D03*
Y477166D02*
D03*
X1526574Y827166D02*
D03*
Y777166D02*
D03*
Y727166D02*
D03*
Y677166D02*
D03*
Y627166D02*
D03*
Y577166D02*
D03*
Y527166D02*
D03*
X1509842Y2237402D02*
D03*
Y2187402D02*
D03*
Y2137402D02*
D03*
Y2087402D02*
D03*
Y2037402D02*
D03*
Y1987402D02*
D03*
Y1937402D02*
D03*
Y1887402D02*
D03*
X1265866Y2237402D02*
D03*
Y2187402D02*
D03*
Y2137402D02*
D03*
Y2087402D02*
D03*
Y2037402D02*
D03*
Y1987402D02*
D03*
Y1937402D02*
D03*
D34*
X1526574Y477166D02*
D03*
X1265866Y1887402D02*
D03*
D35*
X271654Y980316D02*
D03*
X122048D02*
D03*
X271654Y1011812D02*
D03*
X122048D02*
D03*
X271654Y1043308D02*
D03*
X122048D02*
D03*
X271654Y1074804D02*
D03*
X122048D02*
D03*
X271654Y1106300D02*
D03*
X122048D02*
D03*
X271654Y1137796D02*
D03*
X122048D02*
D03*
X271654Y1169292D02*
D03*
X122048D02*
D03*
X271654Y1200788D02*
D03*
X122048D02*
D03*
X271654Y1232284D02*
D03*
X122048D02*
D03*
X271654Y1263780D02*
D03*
X122048D02*
D03*
X271654Y1295276D02*
D03*
X122048D02*
D03*
X271654Y1326772D02*
D03*
X122048D02*
D03*
X271654Y1358268D02*
D03*
X122048D02*
D03*
X271654Y1389764D02*
D03*
X122048D02*
D03*
X271654Y1421260D02*
D03*
X122048D02*
D03*
X271654Y1452756D02*
D03*
X122048D02*
D03*
X271654Y1484252D02*
D03*
X122048D02*
D03*
X271654Y1515748D02*
D03*
X122048D02*
D03*
X271654Y1547244D02*
D03*
X122048D02*
D03*
X271654Y1578740D02*
D03*
X122048D02*
D03*
X2185040Y980316D02*
D03*
X2035434D02*
D03*
X2185040Y1011812D02*
D03*
X2035434D02*
D03*
X2185040Y1043308D02*
D03*
X2035434D02*
D03*
X2185040Y1074804D02*
D03*
X2035434D02*
D03*
X2185040Y1106300D02*
D03*
X2035434D02*
D03*
X2185040Y1137796D02*
D03*
X2035434D02*
D03*
X2185040Y1169292D02*
D03*
X2035434D02*
D03*
X2185040Y1200788D02*
D03*
X2035434D02*
D03*
X2185040Y1232284D02*
D03*
X2035434D02*
D03*
X2185040Y1263780D02*
D03*
X2035434D02*
D03*
X2185040Y1295276D02*
D03*
X2035434D02*
D03*
X2185040Y1326772D02*
D03*
X2035434D02*
D03*
X2185040Y1358268D02*
D03*
X2035434D02*
D03*
X2185040Y1389764D02*
D03*
X2035434D02*
D03*
X2185040Y1421260D02*
D03*
X2035434D02*
D03*
X2185040Y1452756D02*
D03*
X2035434D02*
D03*
X2185040Y1484252D02*
D03*
X2035434D02*
D03*
X2185040Y1515748D02*
D03*
X2035434D02*
D03*
X2185040Y1547244D02*
D03*
X2035434D02*
D03*
X2185040Y1578740D02*
D03*
X2035434D02*
D03*
D36*
X522590Y2380906D02*
D03*
X773590D02*
D03*
X522590Y2180118D02*
D03*
X773590D02*
D03*
X522590Y1979330D02*
D03*
X773590D02*
D03*
X522590Y1778544D02*
D03*
X773590D02*
D03*
X522590Y1577756D02*
D03*
X773590D02*
D03*
X522590Y1376968D02*
D03*
X773590D02*
D03*
X522590Y1176182D02*
D03*
X773590D02*
D03*
X522590Y975394D02*
D03*
X773590D02*
D03*
X522590Y774606D02*
D03*
X773590D02*
D03*
X522590Y573820D02*
D03*
X773590D02*
D03*
X522590Y373032D02*
D03*
X773590D02*
D03*
X522590Y172244D02*
D03*
X773590D02*
D03*
%TF.MD5,b08cfc4c5cc4b2ad5c703c40027f1df4*%
M02*
