%TF.GenerationSoftware,Altium Limited,Altium Designer,19.1.8 (144)*%
G04 Layer_Color=128*
%FSLAX26Y26*%
%MOIN*%
%TF.FileFunction,Drillmap*%
%TF.Part,Single*%
G01*
G75*
%TA.AperFunction,NonConductor*%
%ADD67C,0.005000*%
D67*
X2268898Y1543307D02*
X2309055D01*
X2288976Y1523228D02*
Y1563386D01*
X2268898Y1425197D02*
X2309055D01*
X2288976Y1405118D02*
Y1445276D01*
X2400000Y1484252D02*
X2518110D01*
X2459055Y1425197D02*
Y1543307D01*
X2268898Y1133859D02*
X2309055D01*
X2288976Y1113780D02*
Y1153938D01*
X2268898Y1015749D02*
X2309055D01*
X2288976Y995670D02*
Y1035828D01*
X2400000Y1074804D02*
X2518110D01*
X2459055Y1015749D02*
Y1133859D01*
X109253Y909448D02*
X166339D01*
X137796Y880905D02*
Y937991D01*
X109253Y1649606D02*
X166339D01*
X137796Y1621063D02*
Y1678149D01*
X180512Y846456D02*
X213189D01*
X196850Y830117D02*
Y862795D01*
X180512Y1712598D02*
X213189D01*
X196850Y1696259D02*
Y1728937D01*
X2022639Y909448D02*
X2079725D01*
X2051182Y880905D02*
Y937991D01*
X2022639Y1649606D02*
X2079725D01*
X2051182Y1621063D02*
Y1678149D01*
X2093897Y846456D02*
X2126574D01*
X2110236Y830117D02*
Y862795D01*
X2093897Y1712598D02*
X2126574D01*
X2110236Y1696259D02*
Y1728937D01*
X137795Y2007874D02*
X255905D01*
X196850Y1948819D02*
Y2066929D01*
X2303149Y2007874D02*
X2421259D01*
X2362204Y1948819D02*
Y2066929D01*
X2303149Y590552D02*
X2421259D01*
X2362204Y531497D02*
Y649607D01*
X137795Y590552D02*
X255905D01*
X196850Y531497D02*
Y649607D01*
X1502952Y2201762D02*
X1516732D01*
X1509842Y2194873D02*
Y2208652D01*
X1315826Y2244428D02*
X1330826D01*
X1323326Y2236928D02*
Y2251928D01*
X1559704Y2152560D02*
X1574704D01*
X1567204Y2145060D02*
Y2160060D01*
X1315826Y2192008D02*
X1330826D01*
X1323326Y2184508D02*
Y2199508D01*
X1818288Y999016D02*
X1833288D01*
X1825788Y991516D02*
Y1006516D01*
X1812404Y1051182D02*
X1827404D01*
X1819904Y1043682D02*
Y1058682D01*
X1378326Y1986220D02*
X1393326D01*
X1385826Y1978720D02*
Y1993720D01*
X1353720Y2089566D02*
X1368720D01*
X1361220Y2082066D02*
Y2097066D01*
X1313562Y2135630D02*
X1328562D01*
X1321062Y2128130D02*
Y2143130D01*
X1315826Y2038878D02*
X1330826D01*
X1323326Y2031378D02*
Y2046378D01*
X1313366Y1940944D02*
X1328366D01*
X1320866Y1933444D02*
Y1948444D01*
X1077146Y1659448D02*
X1092146D01*
X1084646Y1651948D02*
Y1666948D01*
X1758248Y1708662D02*
X1773248D01*
X1765748Y1701162D02*
Y1716162D01*
X1873498Y1550272D02*
X1888498D01*
X1880998Y1542772D02*
Y1557772D01*
X1965926Y999016D02*
X1980926D01*
X1973426Y991516D02*
Y1006516D01*
X1916712Y999016D02*
X1931712D01*
X1924212Y991516D02*
Y1006516D01*
X1073208Y1458662D02*
X1088208D01*
X1080708Y1451162D02*
Y1466162D01*
X998406Y1458662D02*
X1013406D01*
X1005906Y1451162D02*
Y1466162D01*
X2046634Y1838582D02*
X2061634D01*
X2054134Y1831082D02*
Y1846082D01*
X1878326Y1838582D02*
X1893326D01*
X1885826Y1831082D02*
Y1846082D01*
X1618484Y607284D02*
X1633484D01*
X1625984Y599784D02*
Y614784D01*
X1948208Y2243110D02*
X1963208D01*
X1955708Y2235610D02*
Y2250610D01*
X1618792Y2272638D02*
X1633792D01*
X1626292Y2265138D02*
Y2280138D01*
X2104704Y1779528D02*
X2119704D01*
X2112204Y1772028D02*
Y1787028D01*
X2081498Y1177166D02*
X2096498D01*
X2088998Y1169666D02*
Y1184666D01*
X2081232Y1248526D02*
X2096232D01*
X2088732Y1241026D02*
Y1256026D01*
X1571240Y1624016D02*
X1586240D01*
X1578740Y1616516D02*
Y1631516D01*
X1532854Y1128406D02*
X1547854D01*
X1540354Y1120906D02*
Y1135906D01*
X1495452Y1309056D02*
X1510452D01*
X1502952Y1301556D02*
Y1316556D01*
X1549586Y1346456D02*
X1564586D01*
X1557086Y1338956D02*
Y1353956D01*
X1577728Y1238772D02*
X1592728D01*
X1585228Y1231272D02*
Y1246272D01*
X1570332Y1437084D02*
X1585332D01*
X1577832Y1429584D02*
Y1444584D01*
X1572224Y1831692D02*
X1587224D01*
X1579724Y1824192D02*
Y1839192D01*
X1527934Y1831692D02*
X1542934D01*
X1535434Y1824192D02*
Y1839192D01*
X1618394Y1851378D02*
X1633394D01*
X1625894Y1843878D02*
Y1858878D01*
X1714940Y1995078D02*
X1729940D01*
X1722440Y1987578D02*
Y2002578D01*
X1661792Y1996064D02*
X1676792D01*
X1669292Y1988564D02*
Y2003564D01*
X1611594Y1997048D02*
X1626594D01*
X1619094Y1989548D02*
Y2004548D01*
X1715926Y1207678D02*
X1730926D01*
X1723426Y1200178D02*
Y1215178D01*
X1867500Y999016D02*
X1882500D01*
X1875000Y991516D02*
Y1006516D01*
X1706106Y1247678D02*
X1721106D01*
X1713606Y1240178D02*
Y1255178D01*
X1758248Y1277560D02*
X1773248D01*
X1765748Y1270060D02*
Y1285060D01*
X1732658Y1336614D02*
X1747658D01*
X1740158Y1329114D02*
Y1344114D01*
X1904010Y1968600D02*
X1919010D01*
X1911510Y1961100D02*
Y1976100D01*
X1409822Y1887796D02*
X1424822D01*
X1417322Y1880296D02*
Y1895296D01*
X1345846Y1603346D02*
X1360846D01*
X1353346Y1595846D02*
Y1610846D01*
X1437382Y1486220D02*
X1452382D01*
X1444882Y1478720D02*
Y1493720D01*
X1438366Y1443898D02*
X1453366D01*
X1445866Y1436398D02*
Y1451398D01*
X1534822Y889764D02*
X1549822D01*
X1542322Y882264D02*
Y897264D01*
X1724784Y1091536D02*
X1739784D01*
X1732284Y1084036D02*
Y1099036D01*
X1498406Y1238772D02*
X1513406D01*
X1505906Y1231272D02*
Y1246272D01*
X305492Y820600D02*
X320492D01*
X312992Y813100D02*
Y828100D01*
X1118484Y2334646D02*
X1133484D01*
X1125984Y2327146D02*
Y2342146D01*
X992500Y2460630D02*
X1007500D01*
X1000000Y2453130D02*
Y2468130D01*
X1075178Y1259842D02*
X1090178D01*
X1082678Y1252342D02*
Y1267342D01*
X1075178Y858268D02*
X1090178D01*
X1082678Y850768D02*
Y865768D01*
X1077146Y1858268D02*
X1092146D01*
X1084646Y1850768D02*
Y1865768D01*
X1075178Y657480D02*
X1090178D01*
X1082678Y649980D02*
Y664980D01*
X1075178Y1059056D02*
X1090178D01*
X1082678Y1051556D02*
Y1066556D01*
X1000374Y858268D02*
X1015374D01*
X1007874Y850768D02*
Y865768D01*
X1000374Y460630D02*
X1015374D01*
X1007874Y453130D02*
Y468130D01*
X1077146Y2259842D02*
X1092146D01*
X1084646Y2252342D02*
Y2267342D01*
X996436Y2259842D02*
X1011436D01*
X1003936Y2252342D02*
Y2267342D01*
X1077146Y2059056D02*
X1092146D01*
X1084646Y2051556D02*
Y2066556D01*
X996436Y2059056D02*
X1011436D01*
X1003936Y2051556D02*
Y2066556D01*
X996436Y1858268D02*
X1011436D01*
X1003936Y1850768D02*
Y1865768D01*
X998406Y1659448D02*
X1013406D01*
X1005906Y1651948D02*
Y1666948D01*
X998406Y1259842D02*
X1013406D01*
X1005906Y1252342D02*
Y1267342D01*
X1000374Y1059056D02*
X1015374D01*
X1007874Y1051556D02*
Y1066556D01*
X1000374Y657480D02*
X1015374D01*
X1007874Y649980D02*
Y664980D01*
X1079114Y460630D02*
X1094114D01*
X1086614Y453130D02*
Y468130D01*
X1079114Y255906D02*
X1094114D01*
X1086614Y248406D02*
Y263406D01*
X1000374Y255906D02*
X1015374D01*
X1007874Y248406D02*
Y263406D01*
%TF.MD5,2de81501d847ffaa365a4106fb51a87e*%
M02*
