%TF.GenerationSoftware,Altium Limited,Altium Designer,19.1.8 (144)*%
G04 Layer_Color=65535*
%FSLAX26Y26*%
%MOIN*%
%TF.FileFunction,Legend,Top*%
%TF.Part,Single*%
G01*
G75*
%TA.AperFunction,NonConductor*%
%ADD29C,0.010000*%
%ADD37C,0.009842*%
%ADD38C,0.007874*%
%ADD39C,0.005906*%
%ADD55C,0.039370*%
%ADD56C,0.023622*%
%ADD57C,0.015748*%
G36*
X2322743Y2494268D02*
X2323472Y2493539D01*
Y2492810D01*
Y2491352D01*
X2322743Y2487707D01*
Y2486978D01*
Y2484062D01*
X2322014Y2478959D01*
X2321285Y2472398D01*
Y2471669D01*
Y2470940D01*
X2320556Y2465837D01*
X2319827Y2459276D01*
X2318369Y2451986D01*
X2313266Y2411162D01*
X2275358Y2411162D01*
X2263694Y2445425D01*
Y2446154D01*
X2262965Y2446883D01*
X2261507Y2450528D01*
X2259320Y2456360D01*
X2257133Y2462192D01*
Y2462921D01*
X2256404Y2463650D01*
X2255675Y2466566D01*
X2254217Y2470940D01*
X2252759Y2474585D01*
Y2475314D01*
X2252030Y2477501D01*
X2251301Y2478959D01*
Y2477501D01*
X2250572Y2474585D01*
Y2470940D01*
X2249843Y2464379D01*
X2249114Y2456360D01*
X2248385Y2451257D01*
X2247656Y2445425D01*
Y2443967D01*
X2246927Y2440322D01*
X2246198Y2435219D01*
X2245469Y2428658D01*
X2244740Y2422826D01*
X2244011Y2416994D01*
X2243282Y2413349D01*
X2242553Y2411891D01*
Y2411162D01*
Y2409704D01*
X2230160D01*
Y2411162D01*
Y2411891D01*
Y2413349D01*
X2230889Y2416265D01*
Y2421368D01*
X2232347Y2428658D01*
Y2433032D01*
X2233076Y2438864D01*
X2233805Y2444696D01*
X2234534Y2451986D01*
Y2452715D01*
Y2453444D01*
X2235263Y2455631D01*
Y2458547D01*
X2235992Y2465108D01*
X2237450Y2473127D01*
X2238179Y2480417D01*
X2238908Y2486978D01*
Y2489894D01*
X2239637Y2492081D01*
Y2492810D01*
Y2493539D01*
X2240366Y2494997D01*
X2279003D01*
X2281190Y2488436D01*
Y2487707D01*
X2281919Y2485520D01*
X2282648Y2482604D01*
Y2481875D01*
X2284106Y2479688D01*
X2284835Y2475314D01*
X2287022Y2470211D01*
X2287751Y2468753D01*
X2288480Y2465108D01*
X2290667Y2460734D01*
X2292125Y2455631D01*
X2292854Y2454173D01*
X2293583Y2450528D01*
X2295770Y2446154D01*
X2297228Y2441051D01*
X2297957Y2440322D01*
X2298686Y2437406D01*
X2299415Y2433761D01*
X2300144Y2430116D01*
Y2429387D01*
X2300873Y2428658D01*
X2301602Y2427200D01*
X2302331Y2426471D01*
Y2427200D01*
X2303060Y2427929D01*
Y2430845D01*
X2303789Y2434490D01*
X2304518Y2440322D01*
X2305247Y2449070D01*
X2305976Y2454173D01*
X2306705Y2460005D01*
Y2460734D01*
Y2461463D01*
X2307434Y2465108D01*
X2308163Y2470940D01*
X2308892Y2476772D01*
Y2483333D01*
X2309621Y2488436D01*
X2310350Y2492810D01*
Y2493539D01*
Y2494268D01*
X2311079Y2494997D01*
X2320556D01*
X2322743Y2494268D01*
D02*
G37*
G36*
X2421158Y2493539D02*
Y2492810D01*
X2420429Y2490623D01*
X2419700Y2486978D01*
X2418971Y2481146D01*
X2375231D01*
X2374502Y2479688D01*
X2373044Y2478959D01*
X2371586Y2476772D01*
Y2476043D01*
Y2475314D01*
Y2473127D01*
X2370857Y2470211D01*
X2370128Y2465837D01*
X2369399Y2460005D01*
X2368670Y2451986D01*
Y2451257D01*
X2367941Y2448341D01*
Y2444696D01*
X2367212Y2440322D01*
X2366483Y2435948D01*
Y2432303D01*
X2365754Y2429387D01*
Y2427929D01*
Y2427200D01*
X2366483Y2426471D01*
X2367941Y2425013D01*
X2368670Y2423555D01*
X2378876D01*
X2381792Y2424284D01*
X2383250Y2425013D01*
X2383979D01*
X2384708Y2425742D01*
X2386166Y2427929D01*
X2386895Y2428658D01*
X2387624Y2431574D01*
X2388353Y2434490D01*
Y2437406D01*
X2389082Y2441780D01*
Y2446154D01*
X2373773D01*
Y2447612D01*
Y2448341D01*
Y2450528D01*
X2374502Y2454173D01*
X2375231Y2460005D01*
X2417513D01*
X2420429Y2459276D01*
X2421158D01*
Y2457818D01*
X2420429Y2456360D01*
Y2453444D01*
X2419700Y2449070D01*
X2418971Y2443238D01*
X2417513Y2435219D01*
Y2434490D01*
X2416784Y2431574D01*
Y2427929D01*
X2416055Y2422826D01*
X2415326Y2418452D01*
Y2414807D01*
X2414597Y2411891D01*
Y2410433D01*
X2410223D01*
X2406578Y2409704D01*
X2365025D01*
X2359193Y2410433D01*
X2348987D01*
X2346800Y2411162D01*
X2345342Y2411891D01*
X2342426Y2413349D01*
X2339510Y2416994D01*
X2338052Y2419181D01*
X2337323Y2422826D01*
Y2423555D01*
Y2425013D01*
Y2427929D01*
Y2431574D01*
Y2436677D01*
X2338052Y2443238D01*
X2338781Y2451986D01*
Y2452715D01*
X2339510Y2455631D01*
X2340239Y2459276D01*
X2340968Y2463650D01*
Y2468024D01*
X2341697Y2472398D01*
X2342426Y2475314D01*
Y2476772D01*
Y2477501D01*
X2343155Y2478230D01*
X2344613Y2482604D01*
X2347529Y2486978D01*
X2351903Y2491352D01*
X2352632Y2492081D01*
X2354090Y2492810D01*
X2355548Y2493539D01*
X2358464D01*
X2359922Y2494268D01*
X2365754D01*
X2371586Y2494997D01*
X2421158D01*
Y2493539D01*
D02*
G37*
G36*
X2217767Y2493539D02*
Y2492810D01*
Y2491352D01*
X2217038Y2488436D01*
X2216309Y2483333D01*
Y2480417D01*
X2215580Y2476043D01*
X2214851Y2470940D01*
X2214122Y2465837D01*
X2213393Y2459276D01*
X2212664Y2451986D01*
Y2451257D01*
Y2450528D01*
X2211935Y2445425D01*
X2211206Y2438864D01*
X2210477Y2431574D01*
X2209748Y2424284D01*
X2209019Y2416994D01*
X2208290Y2412620D01*
Y2411162D01*
Y2410433D01*
X2206832D01*
X2204645Y2409704D01*
X2177672D01*
Y2411162D01*
Y2411891D01*
X2178401Y2414078D01*
Y2416994D01*
X2179130Y2422097D01*
X2180588Y2429387D01*
X2181317Y2434490D01*
X2182046Y2439593D01*
X2182775Y2446154D01*
X2183504Y2453444D01*
X2188607Y2494997D01*
X2217767D01*
Y2493539D01*
D02*
G37*
G36*
X2166737D02*
Y2492810D01*
Y2489894D01*
Y2486249D01*
X2166008Y2481146D01*
X2137577D01*
X2134661Y2480417D01*
X2132474D01*
X2131745Y2479688D01*
X2131016Y2478959D01*
X2130287Y2478230D01*
X2129558Y2476772D01*
Y2475314D01*
X2128829Y2473856D01*
X2128100Y2470940D01*
Y2466566D01*
X2126642Y2460005D01*
X2125913Y2451986D01*
X2122268Y2427929D01*
X2123726Y2426471D01*
Y2425742D01*
X2124455Y2425013D01*
X2160176D01*
Y2423555D01*
Y2422826D01*
X2159447Y2420639D01*
X2158718Y2416994D01*
X2157989Y2409704D01*
X2117894D01*
X2112791Y2410433D01*
X2107688D01*
X2103314Y2411162D01*
X2101127Y2411891D01*
X2100398Y2412620D01*
X2098211Y2414078D01*
X2097482Y2414807D01*
X2096024Y2416994D01*
X2094566Y2420639D01*
X2093108Y2425742D01*
Y2426471D01*
Y2427929D01*
X2093837Y2430116D01*
Y2433032D01*
X2094566Y2437406D01*
X2095295Y2443967D01*
X2096024Y2451257D01*
Y2452715D01*
X2096753Y2455631D01*
Y2459276D01*
X2097482Y2464379D01*
X2098211Y2469482D01*
X2098940Y2473856D01*
X2099669Y2477501D01*
Y2479688D01*
Y2480417D01*
X2100398Y2481875D01*
X2103314Y2486249D01*
X2107688Y2491352D01*
X2111333Y2493539D01*
X2114978Y2494997D01*
X2166737D01*
Y2493539D01*
D02*
G37*
G36*
X2070509Y2458547D02*
X2071238Y2457089D01*
X2071967Y2453444D01*
X2074154Y2446883D01*
X2075612Y2439593D01*
Y2438864D01*
X2076341Y2438135D01*
X2077070Y2433761D01*
X2078528Y2428658D01*
X2079986Y2423555D01*
Y2422826D01*
X2080715Y2420639D01*
X2081444Y2418452D01*
Y2416994D01*
X2082902Y2409704D01*
X2051555D01*
X2048639Y2420639D01*
Y2421368D01*
X2047910Y2422097D01*
X2047181Y2426471D01*
X2046452Y2430116D01*
X2045723Y2430845D01*
Y2431574D01*
Y2432303D01*
X2011460D01*
X2005628Y2420639D01*
X1998338Y2409704D01*
X1984487D01*
X1985216Y2411162D01*
X1986674Y2414807D01*
X1988132Y2417723D01*
X1990319Y2420639D01*
X1992506Y2425742D01*
X1996151Y2430845D01*
X1999796Y2437406D01*
X2004170Y2445425D01*
X2009273Y2454902D01*
X2015834Y2465837D01*
X2023124Y2478230D01*
X2031143Y2492810D01*
X2031872Y2494997D01*
X2061761D01*
X2070509Y2458547D01*
D02*
G37*
G36*
X1935644Y2493539D02*
X1972094D01*
X1972823Y2492810D01*
X1975010Y2492081D01*
X1977197Y2489894D01*
X1978655Y2487707D01*
Y2486978D01*
X1979384Y2485520D01*
Y2484062D01*
Y2481146D01*
Y2478230D01*
Y2473856D01*
X1978655Y2468024D01*
Y2467295D01*
Y2465837D01*
X1977926Y2460734D01*
Y2455631D01*
X1977197Y2453444D01*
Y2451986D01*
X1976468Y2451257D01*
X1975010Y2449799D01*
X1971365Y2447612D01*
X1966991Y2446154D01*
X1964804D01*
Y2445425D01*
X1965533Y2443967D01*
X1966262Y2441780D01*
X1966991Y2438135D01*
X1968449Y2433761D01*
X1970636Y2427929D01*
Y2427200D01*
X1971365Y2425013D01*
X1972823Y2422097D01*
X1974281Y2419181D01*
X1975010Y2415536D01*
X1976468Y2412620D01*
X1977197Y2410433D01*
Y2409704D01*
X1944392D01*
X1943663Y2411891D01*
Y2412620D01*
X1942934Y2414078D01*
Y2414807D01*
X1942205Y2416265D01*
X1941476Y2418452D01*
X1940747Y2421368D01*
Y2422097D01*
X1940018Y2424284D01*
X1939289Y2427200D01*
Y2429387D01*
X1934915Y2446154D01*
X1926167D01*
X1925438Y2445425D01*
Y2444696D01*
Y2443238D01*
Y2441051D01*
X1924709Y2438135D01*
Y2433761D01*
X1923980Y2427929D01*
Y2427200D01*
X1923251Y2425013D01*
X1922522Y2422097D01*
X1921793Y2419181D01*
Y2418452D01*
Y2416994D01*
X1921064Y2411891D01*
Y2411162D01*
Y2410433D01*
Y2409704D01*
X1891175D01*
Y2411162D01*
Y2411891D01*
Y2413349D01*
X1891904Y2416265D01*
X1892633Y2421368D01*
X1893362Y2428658D01*
X1894091Y2433032D01*
X1894820Y2438864D01*
X1895549Y2444696D01*
X1896278Y2451986D01*
Y2452715D01*
Y2453444D01*
X1897007Y2458547D01*
X1897736Y2465108D01*
X1899194Y2472398D01*
X1899923Y2480417D01*
X1900652Y2486978D01*
X1901381Y2491352D01*
X1902110Y2492810D01*
Y2493539D01*
Y2494997D01*
X1935644Y2493539D01*
D02*
G37*
G36*
X1890446D02*
Y2492810D01*
Y2491352D01*
X1889717Y2487707D01*
X1888988Y2482604D01*
X1888259Y2475314D01*
X1887530Y2470940D01*
X1886801Y2465108D01*
X1886072Y2458547D01*
X1885343Y2451257D01*
X1880240Y2409704D01*
X1446485Y2409704D01*
Y2411162D01*
Y2411891D01*
Y2414078D01*
X1447214Y2416994D01*
X1447943Y2422097D01*
X1448672Y2429387D01*
X1449401Y2433761D01*
X1450130Y2438864D01*
X1450859Y2445425D01*
X1451588Y2451986D01*
Y2452715D01*
Y2453444D01*
X1452317Y2455631D01*
Y2458547D01*
X1453046Y2465108D01*
X1454504Y2473127D01*
X1455233Y2480417D01*
X1455962Y2486978D01*
Y2489894D01*
X1456691Y2492081D01*
Y2492810D01*
Y2493539D01*
Y2494997D01*
X1891175Y2494997D01*
X1890446Y2493539D01*
D02*
G37*
G36*
X1878782Y2400227D02*
Y2398769D01*
Y2398040D01*
X1878053Y2394395D01*
Y2393666D01*
Y2392937D01*
X1877324Y2388563D01*
X1875866Y2376899D01*
X1851809D01*
Y2375441D01*
Y2373983D01*
X1851080Y2371796D01*
Y2368880D01*
X1850351Y2364506D01*
Y2363777D01*
Y2363048D01*
X1849622Y2358674D01*
X1848893Y2354300D01*
Y2352842D01*
Y2352113D01*
X1824107D01*
Y2352842D01*
Y2354300D01*
X1824836Y2355758D01*
Y2357945D01*
Y2360861D01*
X1825565Y2364506D01*
Y2365235D01*
Y2365964D01*
X1826294Y2370338D01*
X1827023Y2374712D01*
Y2376170D01*
Y2376899D01*
X1803695D01*
X1801508Y2364506D01*
Y2363777D01*
Y2363048D01*
Y2358674D01*
X1800779Y2354300D01*
Y2352842D01*
Y2352113D01*
X1775993D01*
Y2352842D01*
Y2354300D01*
X1776722Y2355758D01*
Y2357945D01*
Y2360861D01*
X1777451Y2364506D01*
Y2365235D01*
Y2365964D01*
X1778180Y2370338D01*
X1778909Y2374712D01*
Y2376170D01*
Y2376899D01*
X1802966D01*
X1803695Y2377628D01*
Y2378357D01*
Y2379815D01*
Y2383460D01*
X1804424Y2389292D01*
Y2390021D01*
Y2390750D01*
X1805153Y2395124D01*
X1805882Y2398769D01*
Y2400227D01*
Y2400956D01*
X1830668D01*
Y2399498D01*
X1829939Y2398040D01*
Y2395853D01*
X1829210Y2392937D01*
X1828481Y2389292D01*
Y2388563D01*
Y2387834D01*
X1827752Y2383460D01*
X1827023Y2379086D01*
Y2377628D01*
Y2376899D01*
X1851080D01*
X1851809Y2377628D01*
Y2379086D01*
X1852538Y2380544D01*
Y2382731D01*
Y2385647D01*
X1853267Y2389292D01*
X1854725Y2400956D01*
X1878782D01*
Y2400227D01*
D02*
G37*
G36*
X1733711D02*
Y2398769D01*
Y2397311D01*
Y2395853D01*
X1732982Y2392937D01*
Y2389292D01*
Y2388563D01*
Y2387834D01*
X1732253Y2383460D01*
X1731524Y2379815D01*
Y2378357D01*
X1730795Y2377628D01*
Y2376899D01*
X1707467Y2376899D01*
Y2379086D01*
X1708196Y2380544D01*
Y2382731D01*
Y2385647D01*
X1708925Y2389292D01*
Y2390021D01*
Y2391479D01*
X1709654Y2395124D01*
X1710383Y2399498D01*
Y2400227D01*
Y2400956D01*
X1733711Y2400956D01*
Y2400227D01*
D02*
G37*
G36*
X1588640Y2400227D02*
X1589369D01*
Y2398769D01*
Y2397311D01*
X1588640Y2395124D01*
Y2392208D01*
X1587911Y2388563D01*
Y2387834D01*
Y2387105D01*
X1587182Y2382731D01*
X1586453Y2379086D01*
Y2377628D01*
Y2376899D01*
X1610510D01*
Y2375441D01*
Y2373983D01*
Y2372525D01*
X1609781Y2370338D01*
Y2367422D01*
X1609052Y2363777D01*
X1607594Y2352113D01*
X1583537D01*
Y2352842D01*
Y2353571D01*
X1584266Y2355758D01*
Y2358674D01*
X1584995Y2362319D01*
X1585724Y2370338D01*
X1586453Y2373983D01*
Y2376899D01*
X1564583D01*
X1563125Y2376170D01*
X1562396D01*
Y2374712D01*
Y2372525D01*
X1561667Y2370338D01*
Y2367422D01*
X1560938Y2363777D01*
Y2363048D01*
Y2362319D01*
X1560209Y2357945D01*
X1559480Y2354300D01*
Y2352842D01*
Y2352113D01*
X1535423D01*
Y2354300D01*
X1536152Y2355758D01*
Y2357945D01*
Y2360861D01*
X1536881Y2364506D01*
Y2365235D01*
Y2366693D01*
X1537610Y2371067D01*
X1538339Y2374712D01*
Y2376170D01*
Y2376899D01*
X1514282D01*
Y2379086D01*
X1515011Y2380544D01*
Y2382731D01*
Y2385647D01*
X1515740Y2389292D01*
Y2390021D01*
Y2391479D01*
X1516469Y2395124D01*
X1517198Y2399498D01*
Y2400227D01*
Y2400956D01*
X1541984D01*
X1541255Y2400227D01*
Y2398769D01*
Y2397311D01*
X1540526Y2395124D01*
Y2392208D01*
X1539797Y2388563D01*
X1539068Y2376899D01*
X1550732Y2377628D01*
X1562396D01*
X1563854Y2389292D01*
Y2390021D01*
Y2391479D01*
X1564583Y2395124D01*
X1565312Y2399498D01*
Y2400227D01*
Y2400956D01*
X1587182D01*
X1588640Y2400227D01*
D02*
G37*
G36*
X2389082Y2400227D02*
X2413139D01*
Y2399498D01*
Y2398040D01*
Y2394395D01*
X2412410Y2390021D01*
X2411681Y2383460D01*
X2410952Y2375441D01*
X2409494Y2365235D01*
X2407307Y2352842D01*
Y2352113D01*
X1884614Y2352113D01*
Y2352842D01*
Y2353571D01*
Y2355029D01*
Y2357945D01*
X1885343Y2362319D01*
X1886072Y2368880D01*
X1886801Y2376899D01*
X1888259Y2387834D01*
X1890446Y2400227D01*
Y2400956D01*
X2381063Y2400956D01*
X2389082Y2400227D01*
D02*
G37*
G36*
X1781825Y2399498D02*
Y2398040D01*
Y2395853D01*
X1781096Y2392208D01*
X1780367Y2388563D01*
X1779638Y2383460D01*
X1778909Y2377628D01*
Y2376899D01*
X1755581D01*
X1753394Y2364506D01*
Y2363777D01*
Y2363048D01*
Y2358674D01*
X1752665Y2355029D01*
Y2353571D01*
Y2352842D01*
Y2352113D01*
X1727879D01*
Y2352842D01*
Y2354300D01*
Y2355758D01*
X1728608Y2357945D01*
Y2360861D01*
X1729337Y2364506D01*
X1730066Y2369609D01*
X1730795Y2375441D01*
Y2376899D01*
X1755581D01*
X1756310Y2388563D01*
Y2389292D01*
Y2390750D01*
X1757039Y2394395D01*
X1757768Y2398769D01*
X1758497Y2399498D01*
Y2400227D01*
Y2400956D01*
X1781825D01*
Y2399498D01*
D02*
G37*
G36*
X1685597Y2400227D02*
Y2399498D01*
X1684868Y2397311D01*
Y2395124D01*
X1684139Y2391479D01*
X1683410Y2384189D01*
X1682681Y2380544D01*
Y2377628D01*
X1684139D01*
X1685597Y2376899D01*
X1707467D01*
Y2376170D01*
Y2374712D01*
X1706738Y2371067D01*
X1706009Y2368151D01*
X1705280Y2364506D01*
Y2363777D01*
Y2363048D01*
Y2359403D01*
X1704551Y2355758D01*
Y2352842D01*
Y2352113D01*
X1679765D01*
Y2354300D01*
X1680494Y2355758D01*
Y2357945D01*
Y2360861D01*
X1681223Y2364506D01*
Y2365235D01*
Y2366693D01*
X1681952Y2371067D01*
X1682681Y2374712D01*
Y2376170D01*
Y2376899D01*
X1659353D01*
Y2377628D01*
Y2378357D01*
X1660082Y2380544D01*
Y2383460D01*
X1660811Y2387105D01*
X1661540Y2395124D01*
X1662269Y2398040D01*
Y2400956D01*
X1685597D01*
Y2400227D01*
D02*
G37*
G36*
X1637483D02*
Y2399498D01*
X1636754Y2397311D01*
Y2393666D01*
X1636025Y2390021D01*
X1635296Y2385647D01*
Y2382002D01*
X1634567Y2379086D01*
Y2377628D01*
X1636025D01*
X1637483Y2376899D01*
X1659353D01*
Y2376170D01*
Y2374712D01*
X1658624Y2373254D01*
Y2371067D01*
X1657895Y2367422D01*
X1657166Y2363777D01*
X1656437Y2352113D01*
X1631651D01*
Y2353571D01*
X1632380Y2355029D01*
Y2357216D01*
Y2360132D01*
X1633109Y2363777D01*
Y2364506D01*
Y2365964D01*
X1633838Y2369609D01*
X1634567Y2373983D01*
Y2375441D01*
Y2376170D01*
X1633109Y2376899D01*
X1610510D01*
Y2377628D01*
Y2379086D01*
X1611239Y2380544D01*
Y2382731D01*
Y2385647D01*
X1611968Y2389292D01*
X1614155Y2400956D01*
X1637483D01*
Y2400227D01*
D02*
G37*
G36*
X1492412D02*
Y2399498D01*
Y2397311D01*
X1491683Y2394395D01*
Y2391479D01*
X1490954Y2383460D01*
Y2380544D01*
Y2377628D01*
X1492412D01*
X1493870Y2376899D01*
X1514282D01*
Y2375441D01*
X1513553Y2373983D01*
Y2371796D01*
X1512824Y2368880D01*
X1512095Y2364506D01*
X1511366Y2352113D01*
X1486580D01*
Y2353571D01*
X1487309Y2355029D01*
Y2357216D01*
Y2360132D01*
X1488038Y2363777D01*
Y2364506D01*
Y2365964D01*
X1488767Y2369609D01*
X1489496Y2373983D01*
Y2375441D01*
Y2376170D01*
X1488038Y2376899D01*
X1466168D01*
Y2375441D01*
X1465439Y2372525D01*
X1464710Y2368151D01*
X1463981Y2363777D01*
X1463252Y2352113D01*
X1438466D01*
Y2353571D01*
X1439195Y2355029D01*
Y2355758D01*
X1439924Y2356487D01*
Y2360132D01*
Y2360861D01*
X1440653Y2362319D01*
Y2365964D01*
X1441382Y2376899D01*
X1466168D01*
Y2377628D01*
Y2379086D01*
Y2380544D01*
Y2382731D01*
X1466897Y2385647D01*
Y2389292D01*
X1469084Y2400956D01*
X1493870D01*
X1492412Y2400227D01*
D02*
G37*
G36*
X2270255Y2335346D02*
X2310350Y2335346D01*
X2309621Y2334617D01*
X2308163Y2333888D01*
X2305247Y2333159D01*
X2301602Y2330972D01*
X2296499Y2328785D01*
X2289938Y2325140D01*
X2269526Y2315663D01*
X1853267Y2325140D01*
X1843061D01*
X1835042Y2325869D01*
X1814630D01*
X1802237Y2326598D01*
X1788386D01*
X1773077Y2327327D01*
X1757039D01*
X1739543Y2328056D01*
X1721318Y2328056D01*
X1684139Y2329514D01*
X1645502Y2330243D01*
X1606136Y2330972D01*
X1568957Y2332430D01*
X1550732D01*
X1533236Y2333159D01*
X1517198D01*
X1501889Y2333888D01*
X1488038D01*
X1475645Y2334617D01*
X1455233D01*
X1447214Y2335346D01*
X1482206D01*
X1491683Y2336075D01*
X2257133Y2336075D01*
X2270255Y2335346D01*
D02*
G37*
G36*
X2357006Y2335346D02*
X2357735D01*
X2356277Y2334617D01*
X2354819Y2333888D01*
X2352632Y2333159D01*
X2348258Y2330972D01*
X2343155Y2328785D01*
X2335865Y2325140D01*
X2314724Y2314205D01*
X2301602D01*
X2297957Y2314934D01*
X2293583Y2315663D01*
X2292125D01*
X2292854Y2316392D01*
X2294312Y2317121D01*
X2297957Y2318579D01*
X2298686Y2319308D01*
X2302331Y2320766D01*
X2306705Y2322953D01*
X2312537Y2325140D01*
X2334407Y2336075D01*
X2356277D01*
X2357006Y2335346D01*
D02*
G37*
G36*
X2404391D02*
X2405120D01*
X2403662Y2334617D01*
X2402204Y2333888D01*
X2399288Y2332430D01*
X2395643Y2330972D01*
X2389811Y2328056D01*
X2382521Y2324411D01*
X2358464Y2313476D01*
X2348258D01*
X2344613Y2314205D01*
X2337323D01*
X2338781Y2314934D01*
X2340239Y2315663D01*
X2342426Y2317121D01*
X2346071Y2318579D01*
X2351174Y2321495D01*
X2358464Y2325140D01*
X2381792Y2336075D01*
X2403662D01*
X2404391Y2335346D01*
D02*
G37*
G36*
X1459469Y1749449D02*
X1459525Y1749338D01*
X1459580Y1749172D01*
X1459636Y1748950D01*
X1459747Y1748617D01*
X1459858Y1748284D01*
X1460080Y1747451D01*
X1460302Y1746452D01*
X1460579Y1745342D01*
X1460801Y1744177D01*
X1460968Y1742956D01*
X1461023Y1743011D01*
X1461245Y1743233D01*
X1461578Y1743622D01*
X1462078Y1744121D01*
X1462799Y1744787D01*
X1463632Y1745509D01*
X1464686Y1746452D01*
X1465907Y1747451D01*
X1468072Y1744343D01*
X1467961Y1744288D01*
X1467683Y1744066D01*
X1467239Y1743733D01*
X1466629Y1743289D01*
X1465796Y1742789D01*
X1464853Y1742179D01*
X1463743Y1741457D01*
X1462522Y1740736D01*
X1462577D01*
X1462688Y1740680D01*
X1462855Y1740569D01*
X1463132Y1740403D01*
X1463798Y1740070D01*
X1464575Y1739626D01*
X1465463Y1739071D01*
X1466407Y1738516D01*
X1467295Y1737905D01*
X1468072Y1737350D01*
X1465907Y1734298D01*
X1465852Y1734353D01*
X1465741Y1734409D01*
X1465574Y1734575D01*
X1465297Y1734797D01*
X1464631Y1735297D01*
X1463854Y1735963D01*
X1463021Y1736684D01*
X1462244Y1737406D01*
X1461523Y1738072D01*
X1461190Y1738349D01*
X1460968Y1738627D01*
Y1738571D01*
X1460912Y1738460D01*
Y1738294D01*
X1460857Y1738072D01*
X1460801Y1737739D01*
X1460690Y1737406D01*
X1460524Y1736573D01*
X1460302Y1735574D01*
X1460080Y1734520D01*
X1459469Y1732244D01*
X1455751Y1733410D01*
Y1733465D01*
X1455806Y1733576D01*
X1455917Y1733798D01*
X1455973Y1734076D01*
X1456139Y1734409D01*
X1456306Y1734853D01*
X1456639Y1735741D01*
X1457027Y1736740D01*
X1457471Y1737739D01*
X1457915Y1738682D01*
X1458304Y1739459D01*
X1458248D01*
X1458082D01*
X1457860Y1739404D01*
X1457527D01*
X1457138Y1739348D01*
X1456694Y1739293D01*
X1455695Y1739237D01*
X1454641Y1739126D01*
X1453531Y1739015D01*
X1452587Y1738960D01*
X1452143D01*
X1451755D01*
Y1742734D01*
X1451810D01*
X1451866D01*
X1452032D01*
X1452199D01*
X1452809Y1742678D01*
X1453531Y1742623D01*
X1454474Y1742512D01*
X1455640Y1742456D01*
X1456916Y1742290D01*
X1458304Y1742123D01*
Y1742179D01*
X1458248Y1742234D01*
X1458193Y1742401D01*
X1458082Y1742623D01*
X1457804Y1743178D01*
X1457471Y1743899D01*
X1457083Y1744787D01*
X1456639Y1745842D01*
X1456195Y1747007D01*
X1455751Y1748284D01*
X1459469Y1749505D01*
Y1749449D01*
D02*
G37*
G36*
X564384Y2336970D02*
X564328Y2336915D01*
X564273Y2336804D01*
X564106Y2336637D01*
X563884Y2336360D01*
X563385Y2335694D01*
X562719Y2334917D01*
X561997Y2334084D01*
X561276Y2333307D01*
X560610Y2332586D01*
X560332Y2332253D01*
X560055Y2332031D01*
X560110D01*
X560221Y2331975D01*
X560388D01*
X560610Y2331920D01*
X560943Y2331864D01*
X561276Y2331753D01*
X562108Y2331587D01*
X563107Y2331365D01*
X564162Y2331143D01*
X566437Y2330532D01*
X565272Y2326814D01*
X565216D01*
X565105Y2326869D01*
X564883Y2326980D01*
X564606Y2327036D01*
X564273Y2327202D01*
X563829Y2327369D01*
X562941Y2327702D01*
X561942Y2328090D01*
X560943Y2328534D01*
X559999Y2328978D01*
X559222Y2329367D01*
Y2329311D01*
Y2329145D01*
X559278Y2328923D01*
Y2328590D01*
X559333Y2328201D01*
X559389Y2327757D01*
X559444Y2326758D01*
X559555Y2325704D01*
X559666Y2324594D01*
X559722Y2323650D01*
Y2323206D01*
Y2322818D01*
X555948D01*
Y2322873D01*
Y2322929D01*
Y2323095D01*
Y2323262D01*
X556003Y2323872D01*
X556059Y2324594D01*
X556170Y2325537D01*
X556225Y2326703D01*
X556392Y2327979D01*
X556558Y2329367D01*
X556503D01*
X556447Y2329311D01*
X556281Y2329256D01*
X556059Y2329145D01*
X555504Y2328867D01*
X554782Y2328534D01*
X553894Y2328146D01*
X552840Y2327702D01*
X551674Y2327258D01*
X550398Y2326814D01*
X549177Y2330532D01*
X549232D01*
X549343Y2330588D01*
X549510Y2330643D01*
X549732Y2330699D01*
X550065Y2330810D01*
X550398Y2330921D01*
X551230Y2331143D01*
X552229Y2331365D01*
X553339Y2331642D01*
X554505Y2331864D01*
X555726Y2332031D01*
X555670Y2332086D01*
X555448Y2332308D01*
X555060Y2332641D01*
X554560Y2333141D01*
X553894Y2333862D01*
X553173Y2334695D01*
X552229Y2335749D01*
X551230Y2336970D01*
X554338Y2339135D01*
X554394Y2339024D01*
X554616Y2338746D01*
X554949Y2338302D01*
X555393Y2337692D01*
X555892Y2336859D01*
X556503Y2335916D01*
X557224Y2334806D01*
X557946Y2333585D01*
Y2333640D01*
X558001Y2333751D01*
X558112Y2333918D01*
X558279Y2334195D01*
X558612Y2334861D01*
X559056Y2335638D01*
X559611Y2336526D01*
X560166Y2337470D01*
X560776Y2338358D01*
X561331Y2339135D01*
X564384Y2336970D01*
D02*
G37*
G36*
Y2136183D02*
X564328Y2136127D01*
X564273Y2136016D01*
X564106Y2135850D01*
X563884Y2135572D01*
X563385Y2134906D01*
X562719Y2134129D01*
X561997Y2133297D01*
X561276Y2132520D01*
X560610Y2131798D01*
X560332Y2131465D01*
X560055Y2131243D01*
X560110D01*
X560221Y2131188D01*
X560388D01*
X560610Y2131132D01*
X560943Y2131077D01*
X561276Y2130966D01*
X562108Y2130799D01*
X563107Y2130577D01*
X564162Y2130355D01*
X566437Y2129745D01*
X565272Y2126026D01*
X565216D01*
X565105Y2126082D01*
X564883Y2126193D01*
X564606Y2126248D01*
X564273Y2126415D01*
X563829Y2126581D01*
X562941Y2126914D01*
X561942Y2127303D01*
X560943Y2127747D01*
X559999Y2128191D01*
X559222Y2128579D01*
Y2128524D01*
Y2128357D01*
X559278Y2128135D01*
Y2127802D01*
X559333Y2127414D01*
X559389Y2126970D01*
X559444Y2125971D01*
X559555Y2124916D01*
X559666Y2123806D01*
X559722Y2122863D01*
Y2122419D01*
Y2122030D01*
X555948D01*
Y2122086D01*
Y2122141D01*
Y2122308D01*
Y2122474D01*
X556003Y2123085D01*
X556059Y2123806D01*
X556170Y2124750D01*
X556225Y2125915D01*
X556392Y2127192D01*
X556558Y2128579D01*
X556503D01*
X556447Y2128524D01*
X556281Y2128468D01*
X556059Y2128357D01*
X555504Y2128080D01*
X554782Y2127747D01*
X553894Y2127358D01*
X552840Y2126914D01*
X551674Y2126470D01*
X550398Y2126026D01*
X549177Y2129745D01*
X549232D01*
X549343Y2129800D01*
X549510Y2129856D01*
X549732Y2129911D01*
X550065Y2130022D01*
X550398Y2130133D01*
X551230Y2130355D01*
X552229Y2130577D01*
X553339Y2130855D01*
X554505Y2131077D01*
X555726Y2131243D01*
X555670Y2131299D01*
X555448Y2131521D01*
X555060Y2131854D01*
X554560Y2132353D01*
X553894Y2133075D01*
X553173Y2133907D01*
X552229Y2134962D01*
X551230Y2136183D01*
X554338Y2138347D01*
X554394Y2138236D01*
X554616Y2137959D01*
X554949Y2137515D01*
X555393Y2136904D01*
X555892Y2136072D01*
X556503Y2135128D01*
X557224Y2134018D01*
X557946Y2132797D01*
Y2132853D01*
X558001Y2132964D01*
X558112Y2133130D01*
X558279Y2133408D01*
X558612Y2134074D01*
X559056Y2134851D01*
X559611Y2135739D01*
X560166Y2136682D01*
X560776Y2137570D01*
X561331Y2138347D01*
X564384Y2136183D01*
D02*
G37*
G36*
Y1935396D02*
X564328Y1935340D01*
X564273Y1935229D01*
X564106Y1935062D01*
X563884Y1934785D01*
X563385Y1934119D01*
X562719Y1933342D01*
X561997Y1932509D01*
X561276Y1931733D01*
X560610Y1931011D01*
X560332Y1930678D01*
X560055Y1930456D01*
X560110D01*
X560221Y1930400D01*
X560388D01*
X560610Y1930345D01*
X560943Y1930290D01*
X561276Y1930178D01*
X562108Y1930012D01*
X563107Y1929790D01*
X564162Y1929568D01*
X566437Y1928957D01*
X565272Y1925239D01*
X565216D01*
X565105Y1925294D01*
X564883Y1925406D01*
X564606Y1925461D01*
X564273Y1925628D01*
X563829Y1925794D01*
X562941Y1926127D01*
X561942Y1926515D01*
X560943Y1926959D01*
X559999Y1927403D01*
X559222Y1927792D01*
Y1927736D01*
Y1927570D01*
X559278Y1927348D01*
Y1927015D01*
X559333Y1926627D01*
X559389Y1926182D01*
X559444Y1925184D01*
X559555Y1924129D01*
X559666Y1923019D01*
X559722Y1922075D01*
Y1921631D01*
Y1921243D01*
X555948D01*
Y1921299D01*
Y1921354D01*
Y1921521D01*
Y1921687D01*
X556003Y1922297D01*
X556059Y1923019D01*
X556170Y1923963D01*
X556225Y1925128D01*
X556392Y1926405D01*
X556558Y1927792D01*
X556503D01*
X556447Y1927736D01*
X556281Y1927681D01*
X556059Y1927570D01*
X555504Y1927293D01*
X554782Y1926959D01*
X553894Y1926571D01*
X552840Y1926127D01*
X551674Y1925683D01*
X550398Y1925239D01*
X549177Y1928957D01*
X549232D01*
X549343Y1929013D01*
X549510Y1929069D01*
X549732Y1929124D01*
X550065Y1929235D01*
X550398Y1929346D01*
X551230Y1929568D01*
X552229Y1929790D01*
X553339Y1930068D01*
X554505Y1930290D01*
X555726Y1930456D01*
X555670Y1930512D01*
X555448Y1930734D01*
X555060Y1931066D01*
X554560Y1931566D01*
X553894Y1932287D01*
X553173Y1933120D01*
X552229Y1934175D01*
X551230Y1935396D01*
X554338Y1937560D01*
X554394Y1937449D01*
X554616Y1937171D01*
X554949Y1936727D01*
X555393Y1936117D01*
X555892Y1935284D01*
X556503Y1934341D01*
X557224Y1933231D01*
X557946Y1932010D01*
Y1932065D01*
X558001Y1932177D01*
X558112Y1932343D01*
X558279Y1932620D01*
X558612Y1933286D01*
X559056Y1934063D01*
X559611Y1934951D01*
X560166Y1935895D01*
X560776Y1936783D01*
X561331Y1937560D01*
X564384Y1935396D01*
D02*
G37*
G36*
Y1734608D02*
X564328Y1734553D01*
X564273Y1734442D01*
X564106Y1734275D01*
X563884Y1733998D01*
X563385Y1733332D01*
X562719Y1732555D01*
X561997Y1731722D01*
X561276Y1730945D01*
X560610Y1730224D01*
X560332Y1729891D01*
X560055Y1729669D01*
X560110D01*
X560221Y1729613D01*
X560388D01*
X560610Y1729558D01*
X560943Y1729502D01*
X561276Y1729391D01*
X562108Y1729225D01*
X563107Y1729003D01*
X564162Y1728781D01*
X566437Y1728170D01*
X565272Y1724452D01*
X565216D01*
X565105Y1724507D01*
X564883Y1724618D01*
X564606Y1724674D01*
X564273Y1724840D01*
X563829Y1725007D01*
X562941Y1725340D01*
X561942Y1725728D01*
X560943Y1726172D01*
X559999Y1726616D01*
X559222Y1727005D01*
Y1726949D01*
Y1726783D01*
X559278Y1726561D01*
Y1726228D01*
X559333Y1725839D01*
X559389Y1725395D01*
X559444Y1724396D01*
X559555Y1723342D01*
X559666Y1722232D01*
X559722Y1721288D01*
Y1720844D01*
Y1720456D01*
X555948D01*
Y1720511D01*
Y1720567D01*
Y1720733D01*
Y1720900D01*
X556003Y1721510D01*
X556059Y1722232D01*
X556170Y1723175D01*
X556225Y1724341D01*
X556392Y1725617D01*
X556558Y1727005D01*
X556503D01*
X556447Y1726949D01*
X556281Y1726894D01*
X556059Y1726783D01*
X555504Y1726505D01*
X554782Y1726172D01*
X553894Y1725784D01*
X552840Y1725340D01*
X551674Y1724896D01*
X550398Y1724452D01*
X549177Y1728170D01*
X549232D01*
X549343Y1728226D01*
X549510Y1728281D01*
X549732Y1728337D01*
X550065Y1728448D01*
X550398Y1728559D01*
X551230Y1728781D01*
X552229Y1729003D01*
X553339Y1729280D01*
X554505Y1729502D01*
X555726Y1729669D01*
X555670Y1729724D01*
X555448Y1729946D01*
X555060Y1730279D01*
X554560Y1730779D01*
X553894Y1731500D01*
X553173Y1732333D01*
X552229Y1733387D01*
X551230Y1734608D01*
X554338Y1736773D01*
X554394Y1736662D01*
X554616Y1736384D01*
X554949Y1735940D01*
X555393Y1735330D01*
X555892Y1734497D01*
X556503Y1733554D01*
X557224Y1732444D01*
X557946Y1731223D01*
Y1731278D01*
X558001Y1731389D01*
X558112Y1731556D01*
X558279Y1731833D01*
X558612Y1732499D01*
X559056Y1733276D01*
X559611Y1734164D01*
X560166Y1735108D01*
X560776Y1735996D01*
X561331Y1736773D01*
X564384Y1734608D01*
D02*
G37*
G36*
Y1533821D02*
X564328Y1533765D01*
X564273Y1533654D01*
X564106Y1533488D01*
X563884Y1533210D01*
X563385Y1532544D01*
X562719Y1531767D01*
X561997Y1530935D01*
X561276Y1530158D01*
X560610Y1529436D01*
X560332Y1529103D01*
X560055Y1528881D01*
X560110D01*
X560221Y1528826D01*
X560388D01*
X560610Y1528770D01*
X560943Y1528715D01*
X561276Y1528604D01*
X562108Y1528437D01*
X563107Y1528215D01*
X564162Y1527993D01*
X566437Y1527383D01*
X565272Y1523664D01*
X565216D01*
X565105Y1523720D01*
X564883Y1523831D01*
X564606Y1523886D01*
X564273Y1524053D01*
X563829Y1524219D01*
X562941Y1524552D01*
X561942Y1524941D01*
X560943Y1525385D01*
X559999Y1525829D01*
X559222Y1526217D01*
Y1526162D01*
Y1525995D01*
X559278Y1525773D01*
Y1525440D01*
X559333Y1525052D01*
X559389Y1524608D01*
X559444Y1523609D01*
X559555Y1522554D01*
X559666Y1521444D01*
X559722Y1520501D01*
Y1520057D01*
Y1519668D01*
X555948D01*
Y1519724D01*
Y1519779D01*
Y1519946D01*
Y1520112D01*
X556003Y1520723D01*
X556059Y1521444D01*
X556170Y1522388D01*
X556225Y1523553D01*
X556392Y1524830D01*
X556558Y1526217D01*
X556503D01*
X556447Y1526162D01*
X556281Y1526106D01*
X556059Y1525995D01*
X555504Y1525718D01*
X554782Y1525385D01*
X553894Y1524996D01*
X552840Y1524552D01*
X551674Y1524108D01*
X550398Y1523664D01*
X549177Y1527383D01*
X549232D01*
X549343Y1527438D01*
X549510Y1527494D01*
X549732Y1527549D01*
X550065Y1527660D01*
X550398Y1527771D01*
X551230Y1527993D01*
X552229Y1528215D01*
X553339Y1528493D01*
X554505Y1528715D01*
X555726Y1528881D01*
X555670Y1528937D01*
X555448Y1529159D01*
X555060Y1529492D01*
X554560Y1529991D01*
X553894Y1530713D01*
X553173Y1531545D01*
X552229Y1532600D01*
X551230Y1533821D01*
X554338Y1535985D01*
X554394Y1535874D01*
X554616Y1535597D01*
X554949Y1535153D01*
X555393Y1534542D01*
X555892Y1533710D01*
X556503Y1532766D01*
X557224Y1531656D01*
X557946Y1530435D01*
Y1530491D01*
X558001Y1530602D01*
X558112Y1530768D01*
X558279Y1531046D01*
X558612Y1531712D01*
X559056Y1532489D01*
X559611Y1533377D01*
X560166Y1534320D01*
X560776Y1535208D01*
X561331Y1535985D01*
X564384Y1533821D01*
D02*
G37*
G36*
Y1333033D02*
X564328Y1332978D01*
X564273Y1332867D01*
X564106Y1332700D01*
X563884Y1332423D01*
X563385Y1331757D01*
X562719Y1330980D01*
X561997Y1330147D01*
X561276Y1329370D01*
X560610Y1328649D01*
X560332Y1328316D01*
X560055Y1328094D01*
X560110D01*
X560221Y1328038D01*
X560388D01*
X560610Y1327983D01*
X560943Y1327927D01*
X561276Y1327816D01*
X562108Y1327650D01*
X563107Y1327428D01*
X564162Y1327206D01*
X566437Y1326595D01*
X565272Y1322877D01*
X565216D01*
X565105Y1322932D01*
X564883Y1323043D01*
X564606Y1323099D01*
X564273Y1323265D01*
X563829Y1323432D01*
X562941Y1323765D01*
X561942Y1324153D01*
X560943Y1324597D01*
X559999Y1325041D01*
X559222Y1325430D01*
Y1325374D01*
Y1325208D01*
X559278Y1324986D01*
Y1324653D01*
X559333Y1324264D01*
X559389Y1323820D01*
X559444Y1322821D01*
X559555Y1321767D01*
X559666Y1320657D01*
X559722Y1319713D01*
Y1319269D01*
Y1318881D01*
X555948D01*
Y1318936D01*
Y1318992D01*
Y1319158D01*
Y1319325D01*
X556003Y1319935D01*
X556059Y1320657D01*
X556170Y1321600D01*
X556225Y1322766D01*
X556392Y1324042D01*
X556558Y1325430D01*
X556503D01*
X556447Y1325374D01*
X556281Y1325319D01*
X556059Y1325208D01*
X555504Y1324930D01*
X554782Y1324597D01*
X553894Y1324209D01*
X552840Y1323765D01*
X551674Y1323321D01*
X550398Y1322877D01*
X549177Y1326595D01*
X549232D01*
X549343Y1326651D01*
X549510Y1326706D01*
X549732Y1326762D01*
X550065Y1326873D01*
X550398Y1326984D01*
X551230Y1327206D01*
X552229Y1327428D01*
X553339Y1327705D01*
X554505Y1327927D01*
X555726Y1328094D01*
X555670Y1328149D01*
X555448Y1328371D01*
X555060Y1328704D01*
X554560Y1329204D01*
X553894Y1329925D01*
X553173Y1330758D01*
X552229Y1331812D01*
X551230Y1333033D01*
X554338Y1335198D01*
X554394Y1335087D01*
X554616Y1334809D01*
X554949Y1334365D01*
X555393Y1333755D01*
X555892Y1332922D01*
X556503Y1331979D01*
X557224Y1330869D01*
X557946Y1329648D01*
Y1329703D01*
X558001Y1329814D01*
X558112Y1329981D01*
X558279Y1330258D01*
X558612Y1330924D01*
X559056Y1331701D01*
X559611Y1332589D01*
X560166Y1333533D01*
X560776Y1334421D01*
X561331Y1335198D01*
X564384Y1333033D01*
D02*
G37*
G36*
Y1132246D02*
X564328Y1132190D01*
X564273Y1132079D01*
X564106Y1131913D01*
X563884Y1131635D01*
X563385Y1130969D01*
X562719Y1130192D01*
X561997Y1129360D01*
X561276Y1128583D01*
X560610Y1127861D01*
X560332Y1127528D01*
X560055Y1127306D01*
X560110D01*
X560221Y1127251D01*
X560388D01*
X560610Y1127195D01*
X560943Y1127140D01*
X561276Y1127029D01*
X562108Y1126862D01*
X563107Y1126640D01*
X564162Y1126418D01*
X566437Y1125808D01*
X565272Y1122089D01*
X565216D01*
X565105Y1122145D01*
X564883Y1122256D01*
X564606Y1122311D01*
X564273Y1122478D01*
X563829Y1122644D01*
X562941Y1122977D01*
X561942Y1123366D01*
X560943Y1123810D01*
X559999Y1124254D01*
X559222Y1124642D01*
Y1124587D01*
Y1124420D01*
X559278Y1124198D01*
Y1123865D01*
X559333Y1123477D01*
X559389Y1123033D01*
X559444Y1122034D01*
X559555Y1120979D01*
X559666Y1119869D01*
X559722Y1118926D01*
Y1118482D01*
Y1118093D01*
X555948D01*
Y1118149D01*
Y1118204D01*
Y1118371D01*
Y1118537D01*
X556003Y1119148D01*
X556059Y1119869D01*
X556170Y1120813D01*
X556225Y1121978D01*
X556392Y1123255D01*
X556558Y1124642D01*
X556503D01*
X556447Y1124587D01*
X556281Y1124531D01*
X556059Y1124420D01*
X555504Y1124143D01*
X554782Y1123810D01*
X553894Y1123421D01*
X552840Y1122977D01*
X551674Y1122533D01*
X550398Y1122089D01*
X549177Y1125808D01*
X549232D01*
X549343Y1125863D01*
X549510Y1125919D01*
X549732Y1125974D01*
X550065Y1126085D01*
X550398Y1126196D01*
X551230Y1126418D01*
X552229Y1126640D01*
X553339Y1126918D01*
X554505Y1127140D01*
X555726Y1127306D01*
X555670Y1127362D01*
X555448Y1127584D01*
X555060Y1127917D01*
X554560Y1128416D01*
X553894Y1129138D01*
X553173Y1129970D01*
X552229Y1131025D01*
X551230Y1132246D01*
X554338Y1134410D01*
X554394Y1134299D01*
X554616Y1134022D01*
X554949Y1133578D01*
X555393Y1132967D01*
X555892Y1132135D01*
X556503Y1131191D01*
X557224Y1130081D01*
X557946Y1128860D01*
Y1128916D01*
X558001Y1129027D01*
X558112Y1129193D01*
X558279Y1129471D01*
X558612Y1130137D01*
X559056Y1130914D01*
X559611Y1131802D01*
X560166Y1132745D01*
X560776Y1133633D01*
X561331Y1134410D01*
X564384Y1132246D01*
D02*
G37*
G36*
Y931458D02*
X564328Y931403D01*
X564273Y931292D01*
X564106Y931125D01*
X563884Y930848D01*
X563385Y930182D01*
X562719Y929405D01*
X561997Y928572D01*
X561276Y927795D01*
X560610Y927074D01*
X560332Y926741D01*
X560055Y926519D01*
X560110D01*
X560221Y926463D01*
X560388D01*
X560610Y926408D01*
X560943Y926352D01*
X561276Y926241D01*
X562108Y926075D01*
X563107Y925853D01*
X564162Y925631D01*
X566437Y925020D01*
X565272Y921302D01*
X565216D01*
X565105Y921357D01*
X564883Y921468D01*
X564606Y921524D01*
X564273Y921691D01*
X563829Y921857D01*
X562941Y922190D01*
X561942Y922578D01*
X560943Y923023D01*
X559999Y923466D01*
X559222Y923855D01*
Y923799D01*
Y923633D01*
X559278Y923411D01*
Y923078D01*
X559333Y922689D01*
X559389Y922245D01*
X559444Y921246D01*
X559555Y920192D01*
X559666Y919082D01*
X559722Y918139D01*
Y917694D01*
Y917306D01*
X555948D01*
Y917361D01*
Y917417D01*
Y917583D01*
Y917750D01*
X556003Y918361D01*
X556059Y919082D01*
X556170Y920025D01*
X556225Y921191D01*
X556392Y922467D01*
X556558Y923855D01*
X556503D01*
X556447Y923799D01*
X556281Y923744D01*
X556059Y923633D01*
X555504Y923356D01*
X554782Y923023D01*
X553894Y922634D01*
X552840Y922190D01*
X551674Y921746D01*
X550398Y921302D01*
X549177Y925020D01*
X549232D01*
X549343Y925076D01*
X549510Y925131D01*
X549732Y925187D01*
X550065Y925298D01*
X550398Y925409D01*
X551230Y925631D01*
X552229Y925853D01*
X553339Y926130D01*
X554505Y926352D01*
X555726Y926519D01*
X555670Y926574D01*
X555448Y926797D01*
X555060Y927130D01*
X554560Y927629D01*
X553894Y928351D01*
X553173Y929183D01*
X552229Y930237D01*
X551230Y931458D01*
X554338Y933623D01*
X554394Y933512D01*
X554616Y933235D01*
X554949Y932790D01*
X555393Y932180D01*
X555892Y931347D01*
X556503Y930404D01*
X557224Y929294D01*
X557946Y928073D01*
Y928129D01*
X558001Y928240D01*
X558112Y928406D01*
X558279Y928683D01*
X558612Y929350D01*
X559056Y930126D01*
X559611Y931014D01*
X560166Y931958D01*
X560776Y932846D01*
X561331Y933623D01*
X564384Y931458D01*
D02*
G37*
G36*
Y730671D02*
X564328Y730616D01*
X564273Y730505D01*
X564106Y730338D01*
X563884Y730061D01*
X563385Y729395D01*
X562719Y728618D01*
X561997Y727785D01*
X561276Y727008D01*
X560610Y726287D01*
X560332Y725954D01*
X560055Y725732D01*
X560110D01*
X560221Y725676D01*
X560388D01*
X560610Y725621D01*
X560943Y725565D01*
X561276Y725454D01*
X562108Y725288D01*
X563107Y725066D01*
X564162Y724844D01*
X566437Y724233D01*
X565272Y720515D01*
X565216D01*
X565105Y720570D01*
X564883Y720681D01*
X564606Y720737D01*
X564273Y720903D01*
X563829Y721070D01*
X562941Y721403D01*
X561942Y721791D01*
X560943Y722235D01*
X559999Y722679D01*
X559222Y723068D01*
Y723012D01*
Y722846D01*
X559278Y722624D01*
Y722291D01*
X559333Y721902D01*
X559389Y721458D01*
X559444Y720459D01*
X559555Y719405D01*
X559666Y718295D01*
X559722Y717351D01*
Y716907D01*
Y716519D01*
X555948D01*
Y716574D01*
Y716630D01*
Y716796D01*
Y716963D01*
X556003Y717573D01*
X556059Y718295D01*
X556170Y719238D01*
X556225Y720404D01*
X556392Y721680D01*
X556558Y723068D01*
X556503D01*
X556447Y723012D01*
X556281Y722957D01*
X556059Y722846D01*
X555504Y722568D01*
X554782Y722235D01*
X553894Y721847D01*
X552840Y721403D01*
X551674Y720959D01*
X550398Y720515D01*
X549177Y724233D01*
X549232D01*
X549343Y724289D01*
X549510Y724344D01*
X549732Y724400D01*
X550065Y724511D01*
X550398Y724622D01*
X551230Y724844D01*
X552229Y725066D01*
X553339Y725343D01*
X554505Y725565D01*
X555726Y725732D01*
X555670Y725787D01*
X555448Y726009D01*
X555060Y726342D01*
X554560Y726842D01*
X553894Y727563D01*
X553173Y728396D01*
X552229Y729450D01*
X551230Y730671D01*
X554338Y732836D01*
X554394Y732725D01*
X554616Y732447D01*
X554949Y732003D01*
X555393Y731393D01*
X555892Y730560D01*
X556503Y729617D01*
X557224Y728507D01*
X557946Y727286D01*
Y727341D01*
X558001Y727452D01*
X558112Y727619D01*
X558279Y727896D01*
X558612Y728562D01*
X559056Y729339D01*
X559611Y730227D01*
X560166Y731171D01*
X560776Y732059D01*
X561331Y732836D01*
X564384Y730671D01*
D02*
G37*
G36*
Y529884D02*
X564328Y529828D01*
X564273Y529717D01*
X564106Y529551D01*
X563884Y529273D01*
X563385Y528607D01*
X562719Y527830D01*
X561997Y526998D01*
X561276Y526221D01*
X560610Y525499D01*
X560332Y525166D01*
X560055Y524944D01*
X560110D01*
X560221Y524889D01*
X560388D01*
X560610Y524833D01*
X560943Y524778D01*
X561276Y524667D01*
X562108Y524500D01*
X563107Y524278D01*
X564162Y524056D01*
X566437Y523446D01*
X565272Y519727D01*
X565216D01*
X565105Y519783D01*
X564883Y519894D01*
X564606Y519949D01*
X564273Y520116D01*
X563829Y520282D01*
X562941Y520615D01*
X561942Y521004D01*
X560943Y521448D01*
X559999Y521892D01*
X559222Y522280D01*
Y522225D01*
Y522058D01*
X559278Y521836D01*
Y521503D01*
X559333Y521115D01*
X559389Y520671D01*
X559444Y519672D01*
X559555Y518617D01*
X559666Y517507D01*
X559722Y516564D01*
Y516120D01*
Y515731D01*
X555948D01*
Y515787D01*
Y515842D01*
Y516009D01*
Y516175D01*
X556003Y516786D01*
X556059Y517507D01*
X556170Y518451D01*
X556225Y519616D01*
X556392Y520893D01*
X556558Y522280D01*
X556503D01*
X556447Y522225D01*
X556281Y522169D01*
X556059Y522058D01*
X555504Y521781D01*
X554782Y521448D01*
X553894Y521059D01*
X552840Y520615D01*
X551674Y520171D01*
X550398Y519727D01*
X549177Y523446D01*
X549232D01*
X549343Y523501D01*
X549510Y523557D01*
X549732Y523612D01*
X550065Y523723D01*
X550398Y523834D01*
X551230Y524056D01*
X552229Y524278D01*
X553339Y524556D01*
X554505Y524778D01*
X555726Y524944D01*
X555670Y525000D01*
X555448Y525222D01*
X555060Y525555D01*
X554560Y526054D01*
X553894Y526776D01*
X553173Y527608D01*
X552229Y528663D01*
X551230Y529884D01*
X554338Y532048D01*
X554394Y531937D01*
X554616Y531660D01*
X554949Y531216D01*
X555393Y530605D01*
X555892Y529773D01*
X556503Y528829D01*
X557224Y527719D01*
X557946Y526498D01*
Y526554D01*
X558001Y526665D01*
X558112Y526831D01*
X558279Y527109D01*
X558612Y527775D01*
X559056Y528552D01*
X559611Y529440D01*
X560166Y530383D01*
X560776Y531271D01*
X561331Y532048D01*
X564384Y529884D01*
D02*
G37*
G36*
Y329096D02*
X564328Y329041D01*
X564273Y328930D01*
X564106Y328763D01*
X563884Y328486D01*
X563385Y327820D01*
X562719Y327043D01*
X561997Y326210D01*
X561276Y325433D01*
X560610Y324712D01*
X560332Y324379D01*
X560055Y324157D01*
X560110D01*
X560221Y324101D01*
X560388D01*
X560610Y324046D01*
X560943Y323990D01*
X561276Y323879D01*
X562108Y323713D01*
X563107Y323491D01*
X564162Y323269D01*
X566437Y322658D01*
X565272Y318940D01*
X565216D01*
X565105Y318995D01*
X564883Y319106D01*
X564606Y319162D01*
X564273Y319328D01*
X563829Y319495D01*
X562941Y319828D01*
X561942Y320216D01*
X560943Y320660D01*
X559999Y321104D01*
X559222Y321493D01*
Y321437D01*
Y321271D01*
X559278Y321049D01*
Y320716D01*
X559333Y320327D01*
X559389Y319883D01*
X559444Y318884D01*
X559555Y317830D01*
X559666Y316720D01*
X559722Y315776D01*
Y315332D01*
Y314944D01*
X555948D01*
Y314999D01*
Y315055D01*
Y315221D01*
Y315388D01*
X556003Y315998D01*
X556059Y316720D01*
X556170Y317663D01*
X556225Y318829D01*
X556392Y320105D01*
X556558Y321493D01*
X556503D01*
X556447Y321437D01*
X556281Y321382D01*
X556059Y321271D01*
X555504Y320993D01*
X554782Y320660D01*
X553894Y320272D01*
X552840Y319828D01*
X551674Y319384D01*
X550398Y318940D01*
X549177Y322658D01*
X549232D01*
X549343Y322714D01*
X549510Y322769D01*
X549732Y322825D01*
X550065Y322936D01*
X550398Y323047D01*
X551230Y323269D01*
X552229Y323491D01*
X553339Y323768D01*
X554505Y323990D01*
X555726Y324157D01*
X555670Y324212D01*
X555448Y324434D01*
X555060Y324767D01*
X554560Y325267D01*
X553894Y325988D01*
X553173Y326821D01*
X552229Y327875D01*
X551230Y329096D01*
X554338Y331261D01*
X554394Y331150D01*
X554616Y330872D01*
X554949Y330428D01*
X555393Y329818D01*
X555892Y328985D01*
X556503Y328042D01*
X557224Y326932D01*
X557946Y325711D01*
Y325766D01*
X558001Y325877D01*
X558112Y326044D01*
X558279Y326321D01*
X558612Y326987D01*
X559056Y327764D01*
X559611Y328652D01*
X560166Y329596D01*
X560776Y330484D01*
X561331Y331261D01*
X564384Y329096D01*
D02*
G37*
G36*
Y128309D02*
X564328Y128253D01*
X564273Y128142D01*
X564106Y127976D01*
X563884Y127698D01*
X563385Y127032D01*
X562719Y126255D01*
X561997Y125423D01*
X561276Y124646D01*
X560610Y123924D01*
X560332Y123591D01*
X560055Y123369D01*
X560110D01*
X560221Y123314D01*
X560388D01*
X560610Y123258D01*
X560943Y123203D01*
X561276Y123092D01*
X562108Y122925D01*
X563107Y122703D01*
X564162Y122481D01*
X566437Y121871D01*
X565272Y118152D01*
X565216D01*
X565105Y118208D01*
X564883Y118319D01*
X564606Y118374D01*
X564273Y118541D01*
X563829Y118707D01*
X562941Y119040D01*
X561942Y119429D01*
X560943Y119873D01*
X559999Y120317D01*
X559222Y120705D01*
Y120650D01*
Y120483D01*
X559278Y120261D01*
Y119928D01*
X559333Y119540D01*
X559389Y119096D01*
X559444Y118097D01*
X559555Y117042D01*
X559666Y115932D01*
X559722Y114989D01*
Y114545D01*
Y114156D01*
X555948D01*
Y114212D01*
Y114267D01*
Y114434D01*
Y114600D01*
X556003Y115211D01*
X556059Y115932D01*
X556170Y116876D01*
X556225Y118041D01*
X556392Y119318D01*
X556558Y120705D01*
X556503D01*
X556447Y120650D01*
X556281Y120594D01*
X556059Y120483D01*
X555504Y120206D01*
X554782Y119873D01*
X553894Y119484D01*
X552840Y119040D01*
X551674Y118596D01*
X550398Y118152D01*
X549177Y121871D01*
X549232D01*
X549343Y121926D01*
X549510Y121982D01*
X549732Y122037D01*
X550065Y122148D01*
X550398Y122259D01*
X551230Y122481D01*
X552229Y122703D01*
X553339Y122981D01*
X554505Y123203D01*
X555726Y123369D01*
X555670Y123425D01*
X555448Y123647D01*
X555060Y123980D01*
X554560Y124479D01*
X553894Y125201D01*
X553173Y126033D01*
X552229Y127088D01*
X551230Y128309D01*
X554338Y130473D01*
X554394Y130362D01*
X554616Y130085D01*
X554949Y129641D01*
X555393Y129030D01*
X555892Y128198D01*
X556503Y127254D01*
X557224Y126144D01*
X557946Y124923D01*
Y124979D01*
X558001Y125090D01*
X558112Y125256D01*
X558279Y125534D01*
X558612Y126200D01*
X559056Y126977D01*
X559611Y127865D01*
X560166Y128808D01*
X560776Y129696D01*
X561331Y130473D01*
X564384Y128309D01*
D02*
G37*
%LPC*%
G36*
X2034788Y2475314D02*
X2034059Y2474585D01*
X2033330Y2472398D01*
X2031143Y2468024D01*
X2030414Y2466566D01*
X2028956Y2463650D01*
X2026769Y2459276D01*
X2023853Y2453444D01*
X2023124Y2451986D01*
X2022395Y2449799D01*
X2020937Y2447612D01*
X2020208Y2446154D01*
X2031143D01*
X2042078Y2447612D01*
X2041349Y2449070D01*
Y2449799D01*
X2040620Y2450528D01*
X2039891Y2454902D01*
Y2455631D01*
Y2457089D01*
X2039162Y2461463D01*
Y2462192D01*
X2038433Y2463650D01*
X2036975Y2468753D01*
X2035517Y2473127D01*
X2034788Y2474585D01*
Y2475314D01*
D02*
G37*
G36*
X1949495Y2479688D02*
X1929812D01*
X1929083Y2470940D01*
Y2470211D01*
Y2469482D01*
X1928354Y2465837D01*
X1927625Y2462921D01*
Y2461463D01*
Y2460734D01*
X1929083D01*
X1931999Y2460005D01*
X1942205D01*
X1945121Y2460734D01*
X1946579D01*
X1947308Y2461463D01*
X1948037Y2462921D01*
X1949495Y2465837D01*
Y2468024D01*
X1950224Y2470940D01*
Y2471669D01*
Y2472398D01*
X1950953Y2475314D01*
X1950224Y2478230D01*
X1949495Y2479688D01*
D02*
G37*
G36*
X1875866Y2478230D02*
X1865660D01*
X1857641Y2465837D01*
Y2465108D01*
X1856183Y2464379D01*
X1853996Y2460734D01*
X1851809Y2457089D01*
X1850351Y2456360D01*
Y2455631D01*
X1849622Y2457089D01*
X1848164Y2460005D01*
X1846706Y2462192D01*
X1845248Y2465837D01*
X1839416Y2478230D01*
X1817546D01*
Y2476772D01*
X1818275Y2476043D01*
Y2474585D01*
X1819733Y2472398D01*
X1821191Y2469482D01*
X1822649Y2465108D01*
X1825565Y2460005D01*
X1833584Y2444696D01*
X1831397Y2433761D01*
Y2433032D01*
Y2432303D01*
Y2428658D01*
X1830668Y2425013D01*
Y2424284D01*
Y2423555D01*
X1848893D01*
X1850351Y2433761D01*
X1851809Y2443238D01*
X1862744Y2459276D01*
X1863473Y2460005D01*
X1864202Y2461463D01*
X1867847Y2466566D01*
X1868576Y2467295D01*
X1869305Y2468753D01*
X1870763Y2470940D01*
X1872221Y2473127D01*
Y2473856D01*
X1872950Y2474585D01*
X1873679Y2475314D01*
X1874408Y2476043D01*
X1875866Y2478230D01*
D02*
G37*
G36*
X1863473Y2433761D02*
X1859828D01*
X1859099Y2433032D01*
X1858370Y2432303D01*
X1856912Y2430116D01*
X1856183Y2427929D01*
Y2427200D01*
X1856912Y2426471D01*
X1857641Y2425013D01*
X1859099Y2423555D01*
X1861286D01*
X1863473Y2425013D01*
X1865660Y2427929D01*
Y2428658D01*
X1866389Y2430116D01*
X1865660Y2432303D01*
X1863473Y2433761D01*
D02*
G37*
G36*
X1798592Y2478230D02*
X1780367D01*
X1779638Y2477501D01*
X1778909D01*
Y2476772D01*
Y2476043D01*
Y2473856D01*
X1778180Y2470211D01*
X1777451Y2465837D01*
X1776722Y2458547D01*
X1775993Y2449799D01*
Y2448341D01*
X1775264Y2445425D01*
Y2441780D01*
X1774535Y2436677D01*
X1773806Y2431574D01*
Y2427929D01*
X1773077Y2425013D01*
Y2423555D01*
X1814630D01*
Y2426471D01*
Y2427200D01*
X1815359Y2428658D01*
Y2430845D01*
Y2431574D01*
Y2432303D01*
X1792760D01*
Y2433032D01*
Y2434490D01*
Y2437406D01*
X1793489Y2441780D01*
X1794218Y2447612D01*
X1794947Y2455631D01*
X1796405Y2465108D01*
X1798592Y2476772D01*
Y2478230D01*
D02*
G37*
G36*
X1761413D02*
X1732253D01*
X1728608Y2477501D01*
X1724963D01*
X1722776Y2476772D01*
X1721318Y2476043D01*
X1720589Y2475314D01*
X1718402Y2474585D01*
X1716944Y2471669D01*
X1715486Y2468024D01*
Y2467295D01*
X1714757Y2465837D01*
X1714028Y2462192D01*
X1713299Y2458547D01*
X1712570Y2453444D01*
X1711841Y2447612D01*
X1711112Y2434490D01*
Y2433761D01*
Y2431574D01*
Y2430845D01*
X1712570Y2428658D01*
X1714028Y2426471D01*
X1716215Y2425013D01*
X1716944D01*
X1718402Y2424284D01*
X1722047D01*
X1725692Y2423555D01*
X1745375D01*
X1751936Y2424284D01*
X1754852D01*
X1756310Y2425013D01*
X1757039Y2425742D01*
X1759226Y2427200D01*
X1762142Y2430845D01*
X1764329Y2435948D01*
Y2436677D01*
Y2438135D01*
X1765058Y2440322D01*
Y2442509D01*
X1765787Y2446154D01*
X1766516Y2450528D01*
Y2451257D01*
Y2453444D01*
X1767245Y2456360D01*
Y2460005D01*
Y2468024D01*
Y2470940D01*
X1766516Y2473127D01*
Y2473856D01*
X1765787Y2474585D01*
X1764329Y2476043D01*
X1762142Y2476772D01*
X1761413Y2478230D01*
D02*
G37*
G36*
X1689971Y2478230D02*
X1660082D01*
X1657166Y2477501D01*
X1656437D01*
Y2476772D01*
Y2476043D01*
X1655708Y2473856D01*
Y2470211D01*
X1654979Y2465837D01*
X1654250Y2458547D01*
X1652792Y2449799D01*
Y2448341D01*
X1652063Y2445425D01*
X1651334Y2441780D01*
Y2436677D01*
X1650605Y2431574D01*
X1649876Y2427929D01*
X1649147Y2425013D01*
Y2423555D01*
X1668101D01*
Y2425013D01*
Y2426471D01*
Y2429387D01*
X1668830Y2433761D01*
Y2434490D01*
Y2435219D01*
X1669559Y2438135D01*
Y2441780D01*
Y2442509D01*
Y2443238D01*
X1695803D01*
X1696532Y2443967D01*
X1698719Y2445425D01*
X1701635Y2447612D01*
X1703093Y2451257D01*
X1703822Y2453444D01*
X1704551Y2454902D01*
Y2457089D01*
X1705280Y2460734D01*
Y2465108D01*
Y2465837D01*
Y2468024D01*
Y2470940D01*
Y2473127D01*
X1704551Y2473856D01*
X1703822Y2474585D01*
X1701635Y2476043D01*
X1699448Y2476772D01*
X1698719D01*
X1697990Y2477501D01*
X1693616D01*
X1689971Y2478230D01*
D02*
G37*
G36*
X1603220D02*
X1584266D01*
X1580621Y2451257D01*
Y2449799D01*
X1579892Y2446883D01*
Y2443238D01*
X1579163Y2438135D01*
X1578434Y2433032D01*
Y2428658D01*
X1577705Y2425013D01*
Y2423555D01*
X1618529D01*
X1619987Y2426471D01*
Y2427200D01*
Y2429387D01*
Y2430116D01*
Y2430845D01*
Y2431574D01*
Y2432303D01*
X1597388D01*
Y2433032D01*
Y2434490D01*
Y2437406D01*
X1598117Y2441780D01*
X1598846Y2448341D01*
X1599575Y2455631D01*
X1601033Y2465108D01*
X1603220Y2476772D01*
Y2478230D01*
D02*
G37*
G36*
X1558022D02*
X1539068D01*
Y2476772D01*
Y2476043D01*
X1538339Y2475314D01*
X1536881Y2473127D01*
X1534694Y2470211D01*
X1531778Y2465108D01*
X1528133Y2459276D01*
X1523030Y2450528D01*
X1522301Y2449070D01*
X1520843Y2446154D01*
X1518656Y2441780D01*
X1515740Y2437406D01*
X1512824Y2432303D01*
X1510637Y2427929D01*
X1509179Y2425013D01*
X1508450Y2423555D01*
X1517198D01*
X1521572Y2430845D01*
X1525217Y2438864D01*
X1547816D01*
X1550003Y2430845D01*
X1551461Y2423555D01*
X1572602D01*
Y2424284D01*
Y2425013D01*
X1571873Y2427200D01*
X1571144Y2430116D01*
X1569686Y2435219D01*
X1567499Y2441780D01*
X1565312Y2450528D01*
Y2451986D01*
X1563854Y2454902D01*
X1563125Y2459276D01*
X1561667Y2464379D01*
X1560209Y2469482D01*
X1559480Y2473856D01*
X1558022Y2476772D01*
Y2478230D01*
D02*
G37*
G36*
X1506263D02*
X1482206D01*
X1476374Y2477501D01*
X1474187D01*
X1472729Y2476772D01*
X1472000D01*
X1470542Y2476043D01*
X1469084Y2473856D01*
X1466897Y2470940D01*
Y2470211D01*
X1466168Y2469482D01*
Y2467295D01*
X1465439Y2465108D01*
X1464710Y2461463D01*
X1463981Y2457089D01*
X1463252Y2451257D01*
Y2450528D01*
X1462523Y2448341D01*
Y2445425D01*
X1461794Y2441780D01*
Y2433761D01*
Y2430845D01*
X1462523Y2429387D01*
Y2428658D01*
X1463252Y2427200D01*
X1465439Y2425742D01*
X1468355Y2423555D01*
X1502618D01*
Y2424284D01*
Y2425013D01*
Y2427200D01*
Y2427929D01*
X1503347Y2429387D01*
Y2431574D01*
Y2432303D01*
X1482206D01*
X1480748Y2433761D01*
Y2434490D01*
X1480019D01*
Y2435219D01*
Y2437406D01*
X1480748Y2439593D01*
Y2442509D01*
Y2446154D01*
X1481477Y2451257D01*
Y2451986D01*
X1482206Y2453444D01*
Y2456360D01*
X1482935Y2459276D01*
Y2462192D01*
X1483664Y2465108D01*
Y2466566D01*
Y2467295D01*
Y2468024D01*
X1485122Y2468753D01*
X1506263D01*
X1506992Y2469482D01*
X1507721D01*
Y2470211D01*
Y2471669D01*
Y2473127D01*
Y2473856D01*
X1508450Y2475314D01*
Y2476772D01*
Y2477501D01*
X1507721D01*
X1506263Y2478230D01*
D02*
G37*
%LPD*%
G36*
X1863473Y2432303D02*
X1864202Y2431574D01*
X1864931Y2430845D01*
Y2429387D01*
Y2428658D01*
X1863473Y2426471D01*
X1862744Y2425742D01*
X1859099Y2425013D01*
X1858370Y2425742D01*
X1857641Y2427200D01*
X1856912Y2428658D01*
Y2429387D01*
X1857641Y2430116D01*
X1858370Y2431574D01*
X1860557Y2432303D01*
X1861286Y2433032D01*
X1862744D01*
X1863473Y2432303D01*
D02*
G37*
%LPC*%
G36*
X1862744Y2431574D02*
X1860557D01*
X1859828Y2430116D01*
X1859099Y2428658D01*
Y2427929D01*
Y2427200D01*
Y2426471D01*
X1859828D01*
Y2427200D01*
Y2428658D01*
Y2429387D01*
X1860557D01*
Y2430845D01*
X1862015D01*
Y2430116D01*
X1861286Y2429387D01*
X1860557D01*
X1861286Y2427929D01*
X1862015Y2427200D01*
Y2426471D01*
X1862744D01*
Y2427929D01*
Y2428658D01*
X1863473Y2429387D01*
Y2430116D01*
X1862744Y2430845D01*
Y2431574D01*
D02*
G37*
%LPD*%
G36*
X1749020Y2468024D02*
X1749749Y2466566D01*
Y2465837D01*
Y2464379D01*
X1749020Y2462192D01*
Y2459276D01*
X1748291Y2454902D01*
X1747562Y2449799D01*
Y2449070D01*
Y2447612D01*
X1746833Y2444696D01*
X1746104Y2441780D01*
X1745375Y2436677D01*
X1744646Y2434490D01*
Y2433761D01*
X1743917Y2433032D01*
X1743188D01*
X1741001Y2432303D01*
X1730795D01*
Y2433032D01*
X1730066Y2433761D01*
Y2435219D01*
Y2437406D01*
Y2440322D01*
Y2444696D01*
X1730795Y2450528D01*
Y2451257D01*
X1731524Y2452715D01*
Y2455631D01*
X1732253Y2458547D01*
X1732982Y2464379D01*
Y2465837D01*
Y2467295D01*
X1733711Y2468024D01*
X1735898Y2468753D01*
X1748291D01*
X1749020Y2468024D01*
D02*
G37*
G36*
X1686326Y2468024D02*
Y2467295D01*
Y2466566D01*
Y2464379D01*
X1685597Y2460734D01*
Y2460005D01*
Y2457089D01*
Y2454902D01*
X1684868Y2453444D01*
Y2451986D01*
X1683410Y2451257D01*
X1671746D01*
Y2451986D01*
Y2452715D01*
Y2453444D01*
Y2456360D01*
X1672475Y2460734D01*
Y2462192D01*
X1673204Y2464379D01*
Y2467295D01*
X1673933Y2468753D01*
X1686326D01*
Y2468024D01*
D02*
G37*
G36*
X1541255Y2464379D02*
X1541984Y2461463D01*
X1542713Y2459276D01*
X1543442Y2456360D01*
X1544171Y2454902D01*
X1544900Y2451986D01*
X1545629Y2448341D01*
Y2447612D01*
Y2446883D01*
X1542713D01*
X1538339Y2447612D01*
X1531049D01*
X1536152Y2456360D01*
Y2457089D01*
X1536881Y2457818D01*
X1539068Y2460734D01*
X1540526Y2463650D01*
X1541255Y2465108D01*
Y2464379D01*
D02*
G37*
%LPC*%
G36*
X2309621Y2392208D02*
X2305976D01*
X2304518Y2391479D01*
X2303060Y2390021D01*
X2302331Y2389292D01*
X2300873Y2387105D01*
X2300144Y2384189D01*
Y2382002D01*
X2300873Y2379815D01*
X2301602Y2379086D01*
X2303060Y2377628D01*
X2304518Y2375441D01*
X2305247Y2374712D01*
X2305976Y2373983D01*
X2306705Y2371796D01*
X2307434Y2370338D01*
Y2369609D01*
Y2368880D01*
X2305976Y2367422D01*
X2304518Y2366693D01*
X2302331D01*
Y2367422D01*
X2301602Y2369609D01*
Y2370338D01*
X2297957D01*
Y2369609D01*
Y2368151D01*
X2298686Y2367422D01*
Y2365964D01*
X2299415Y2364506D01*
X2301602Y2363048D01*
X2303060Y2362319D01*
X2305247D01*
X2307434Y2363048D01*
X2309621Y2364506D01*
X2310350Y2365235D01*
X2311079Y2366693D01*
X2311808Y2368880D01*
Y2371796D01*
Y2372525D01*
X2311079Y2373983D01*
X2310350Y2376170D01*
X2308163Y2378357D01*
X2307434Y2379086D01*
X2306705Y2380544D01*
X2305247Y2382731D01*
X2304518Y2384189D01*
Y2384918D01*
Y2386376D01*
X2305247Y2387834D01*
X2306705Y2388563D01*
X2308163D01*
X2308892Y2387834D01*
X2309621Y2385647D01*
X2313266D01*
Y2386376D01*
Y2387105D01*
Y2387834D01*
X2312537Y2390021D01*
X2311808Y2390750D01*
X2310350Y2391479D01*
X2309621Y2392208D01*
D02*
G37*
G36*
X2149970Y2392208D02*
X2147054D01*
X2144867Y2391479D01*
X2143409Y2390021D01*
X2142680Y2389292D01*
X2141222Y2387105D01*
X2140493Y2384189D01*
X2141222Y2382002D01*
X2141951Y2379815D01*
X2142680Y2379086D01*
X2145596Y2375441D01*
X2146325Y2374712D01*
X2147054Y2373983D01*
X2147783Y2371796D01*
X2148512Y2370338D01*
Y2369609D01*
Y2368880D01*
X2147783Y2367422D01*
X2146325Y2366693D01*
X2143409D01*
Y2367422D01*
X2141951Y2369609D01*
Y2370338D01*
X2138306D01*
Y2369609D01*
Y2368151D01*
X2139035Y2367422D01*
Y2365964D01*
X2139764Y2364506D01*
X2142680Y2363048D01*
X2144138Y2362319D01*
X2145596D01*
X2147783Y2363048D01*
X2149970Y2364506D01*
X2150699Y2365235D01*
X2151428Y2366693D01*
X2152157Y2368880D01*
X2152886Y2371796D01*
Y2372525D01*
X2152157Y2373983D01*
X2150699Y2376170D01*
X2148512Y2378357D01*
X2147783Y2379086D01*
X2147054Y2380544D01*
X2146325Y2382731D01*
X2145596Y2384189D01*
Y2384918D01*
Y2386376D01*
X2146325Y2387834D01*
X2147054Y2388563D01*
X2148512D01*
X2149241Y2387834D01*
X2149970Y2385647D01*
X2154344D01*
X2155073Y2386376D01*
Y2387105D01*
Y2387834D01*
X2154344Y2388563D01*
X2152886Y2390021D01*
X2152157Y2390750D01*
X2150699Y2391479D01*
X2149970Y2392208D01*
D02*
G37*
G36*
X1920335D02*
X1916690D01*
X1915232Y2391479D01*
X1914503Y2390750D01*
X1913045Y2390021D01*
X1910858Y2387105D01*
X1910129Y2383460D01*
Y2382731D01*
X1910858Y2381273D01*
X1912316Y2379086D01*
X1915232Y2375441D01*
X1915961Y2373983D01*
X1918148Y2372525D01*
Y2371067D01*
Y2368880D01*
X1917419Y2368151D01*
X1916690Y2367422D01*
X1915232Y2366693D01*
X1914503D01*
X1913774Y2367422D01*
X1913045Y2368151D01*
X1912316Y2369609D01*
Y2370338D01*
X1907942D01*
Y2368880D01*
Y2368151D01*
X1908671Y2366693D01*
X1910129Y2364506D01*
X1912316Y2363048D01*
X1915961D01*
X1918148Y2363777D01*
X1920335Y2365235D01*
X1921793Y2368880D01*
Y2369609D01*
Y2371796D01*
X1920335Y2374712D01*
X1918148Y2378357D01*
X1917419Y2379086D01*
X1916690Y2379815D01*
X1915961Y2382002D01*
X1915232Y2383460D01*
Y2384189D01*
Y2386376D01*
X1915961Y2387834D01*
X1918148Y2388563D01*
X1918877D01*
X1919606Y2387834D01*
Y2386376D01*
Y2385647D01*
X1923980D01*
Y2386376D01*
Y2387105D01*
Y2388563D01*
X1923251Y2390021D01*
X1921793Y2391479D01*
X1920335Y2392208D01*
D02*
G37*
G36*
X1999796D02*
X1995422D01*
Y2391479D01*
Y2390021D01*
X1994693Y2387834D01*
Y2385647D01*
X1993964Y2379086D01*
Y2372525D01*
X1993235Y2373983D01*
X1992506Y2376899D01*
X1991777Y2379086D01*
Y2382731D01*
X1989590Y2392208D01*
X1985216D01*
X1984487Y2391479D01*
Y2390021D01*
Y2388563D01*
X1983758Y2385647D01*
Y2382731D01*
X1983029Y2378357D01*
Y2377628D01*
Y2376170D01*
X1982300Y2371796D01*
X1981571Y2366693D01*
Y2365235D01*
Y2363777D01*
Y2363048D01*
X1985945D01*
Y2363777D01*
Y2365235D01*
Y2368151D01*
X1986674Y2372525D01*
Y2373254D01*
Y2373983D01*
X1987403Y2376899D01*
X1988132Y2379815D01*
Y2380544D01*
X1988861Y2377628D01*
Y2375441D01*
X1989590Y2372525D01*
X1991777Y2363048D01*
X1996880D01*
Y2365235D01*
X1997609Y2366693D01*
Y2369609D01*
Y2373254D01*
X1998338Y2377628D01*
Y2378357D01*
Y2379815D01*
X1999067Y2384189D01*
X1999796Y2388563D01*
Y2390750D01*
Y2391479D01*
Y2392208D01*
D02*
G37*
G36*
X2090921D02*
X2088005D01*
X2087276Y2391479D01*
Y2390021D01*
Y2388563D01*
X2086547Y2386376D01*
Y2383460D01*
X2085818Y2379815D01*
Y2379086D01*
Y2378357D01*
X2085089Y2374712D01*
X2084360Y2370338D01*
Y2369609D01*
Y2368880D01*
X2083631Y2368151D01*
X2082902Y2367422D01*
X2081444Y2366693D01*
X2080715D01*
X2079257Y2367422D01*
Y2368151D01*
Y2368880D01*
Y2370338D01*
Y2371796D01*
Y2373983D01*
X2079986Y2376899D01*
Y2380544D01*
Y2381273D01*
Y2382002D01*
X2080715Y2386376D01*
X2081444Y2390021D01*
Y2390750D01*
Y2391479D01*
Y2392208D01*
X2077070D01*
Y2391479D01*
Y2390750D01*
X2076341Y2388563D01*
Y2386376D01*
X2075612Y2378357D01*
Y2368880D01*
Y2368151D01*
X2076341Y2365964D01*
X2077070Y2364506D01*
X2079257Y2363048D01*
X2079986D01*
X2080715Y2362319D01*
X2082173Y2363048D01*
X2084360Y2363777D01*
X2085089D01*
X2085818Y2364506D01*
X2087276Y2365964D01*
X2088005Y2367422D01*
Y2368151D01*
Y2369609D01*
X2088734Y2373254D01*
X2089463Y2376170D01*
X2090192Y2379815D01*
Y2380544D01*
Y2382002D01*
X2090921Y2385647D01*
Y2390021D01*
Y2390750D01*
Y2391479D01*
Y2392208D01*
D02*
G37*
G36*
X2381063Y2391479D02*
X2376689D01*
X2375231Y2390021D01*
X2373773Y2388563D01*
X2372315Y2386376D01*
Y2384918D01*
Y2382002D01*
X2371586Y2379086D01*
Y2376170D01*
Y2374712D01*
Y2371796D01*
X2370857Y2368151D01*
Y2367422D01*
Y2366693D01*
Y2365964D01*
X2372315Y2364506D01*
X2373773Y2363048D01*
X2378876D01*
X2381063Y2364506D01*
X2381792Y2365235D01*
X2382521Y2366693D01*
X2383250Y2370338D01*
X2384708Y2375441D01*
Y2376170D01*
Y2376899D01*
X2385437Y2381273D01*
Y2385647D01*
Y2387105D01*
Y2388563D01*
Y2389292D01*
X2383979Y2390021D01*
X2382521Y2390750D01*
X2381063Y2391479D01*
D02*
G37*
G36*
X2346071Y2392208D02*
X2337323D01*
X2335865Y2378357D01*
Y2377628D01*
Y2376170D01*
X2335136Y2371067D01*
X2334407Y2366693D01*
Y2364506D01*
Y2363777D01*
Y2363048D01*
X2338052D01*
Y2363777D01*
Y2365235D01*
X2338781Y2368880D01*
Y2373254D01*
X2343155D01*
X2345342Y2373983D01*
X2346800Y2375441D01*
X2347529Y2376170D01*
X2348258Y2377628D01*
X2348987Y2379815D01*
X2349716Y2382731D01*
Y2383460D01*
Y2384189D01*
Y2387105D01*
Y2387834D01*
X2348987Y2388563D01*
X2348258Y2390750D01*
X2346071Y2392208D01*
D02*
G37*
G36*
X2278274Y2392208D02*
X2273171D01*
Y2390021D01*
Y2388563D01*
Y2385647D01*
X2272442Y2382002D01*
Y2377628D01*
Y2376899D01*
Y2375441D01*
X2271713Y2370338D01*
X2270984Y2365964D01*
X2270255Y2363777D01*
Y2363048D01*
X2273900D01*
Y2363777D01*
Y2364506D01*
X2274629Y2365964D01*
Y2366693D01*
X2275358Y2368151D01*
Y2370338D01*
Y2373254D01*
Y2373983D01*
X2276087Y2376170D01*
Y2381273D01*
Y2382002D01*
X2276816Y2384189D01*
Y2388563D01*
Y2389292D01*
Y2390021D01*
Y2390750D01*
Y2391479D01*
X2278274Y2392208D01*
D02*
G37*
G36*
X2244740D02*
X2236721D01*
X2235992Y2391479D01*
Y2390021D01*
X2235263Y2387834D01*
Y2385647D01*
X2234534Y2382002D01*
X2233805Y2377628D01*
Y2376899D01*
Y2375441D01*
Y2370338D01*
X2233076Y2365964D01*
Y2363777D01*
Y2363048D01*
X2241824D01*
X2242553Y2363777D01*
X2244011D01*
X2244740Y2364506D01*
X2246198Y2365964D01*
Y2366693D01*
X2246927Y2368151D01*
X2248385Y2372525D01*
Y2373254D01*
Y2373983D01*
X2247656Y2375441D01*
Y2376170D01*
X2246927Y2376899D01*
X2246198Y2377628D01*
X2245469D01*
Y2378357D01*
X2246198D01*
X2247656Y2379815D01*
X2248385Y2380544D01*
X2249114Y2382731D01*
Y2385647D01*
X2247656Y2390021D01*
X2246927Y2390750D01*
X2245469Y2391479D01*
X2244740Y2392208D01*
D02*
G37*
G36*
X2118623D02*
X2114978D01*
Y2390021D01*
X2114249Y2388563D01*
Y2385647D01*
X2113520Y2382002D01*
X2112791Y2377628D01*
Y2376899D01*
Y2375441D01*
X2112062Y2370338D01*
X2111333Y2365964D01*
X2110604Y2363777D01*
Y2363048D01*
X2114978D01*
Y2363777D01*
Y2364506D01*
Y2365964D01*
Y2366693D01*
X2115707Y2368151D01*
Y2370338D01*
Y2373254D01*
Y2373983D01*
X2116436Y2376170D01*
X2117165Y2381273D01*
Y2382002D01*
X2117894Y2384189D01*
Y2388563D01*
Y2389292D01*
X2118623Y2390021D01*
Y2390750D01*
Y2391479D01*
Y2392208D01*
D02*
G37*
G36*
X2047910D02*
X2043536D01*
Y2391479D01*
Y2390021D01*
X2042807Y2385647D01*
Y2382002D01*
X2042078Y2378357D01*
Y2377628D01*
Y2376170D01*
X2041349Y2371796D01*
X2040620Y2366693D01*
Y2365235D01*
Y2363777D01*
X2039891Y2363048D01*
X2051555D01*
Y2364506D01*
X2052284D01*
X2053013Y2365235D01*
Y2365964D01*
Y2366693D01*
Y2367422D01*
X2044994D01*
Y2368151D01*
Y2369609D01*
X2045723Y2373254D01*
X2046452Y2376170D01*
X2047181Y2379815D01*
Y2380544D01*
Y2381273D01*
X2047910Y2384918D01*
Y2388563D01*
Y2391479D01*
Y2392208D01*
D02*
G37*
G36*
X1957514D02*
X1951682D01*
Y2390750D01*
X1950953Y2389292D01*
Y2387105D01*
X1949495Y2382731D01*
X1948037Y2378357D01*
X1946579Y2371796D01*
X1943663Y2363777D01*
X1945121Y2363048D01*
X1947308D01*
Y2363777D01*
Y2364506D01*
X1948037Y2365964D01*
X1948766Y2367422D01*
X1949495Y2369609D01*
X1954598D01*
Y2368880D01*
Y2367422D01*
Y2364506D01*
Y2363048D01*
X1958243D01*
Y2363777D01*
Y2365235D01*
Y2366693D01*
Y2368880D01*
X1957514Y2371796D01*
Y2376170D01*
Y2376899D01*
Y2378357D01*
Y2382731D01*
Y2387834D01*
Y2390021D01*
Y2391479D01*
Y2392208D01*
D02*
G37*
G36*
X2208290D02*
X2205374D01*
X2203187Y2391479D01*
X2201000Y2390021D01*
X2199542Y2387105D01*
X2198813Y2385647D01*
X2198084Y2382731D01*
X2197355Y2380544D01*
Y2377628D01*
Y2376170D01*
Y2373254D01*
X2196626Y2369609D01*
Y2367422D01*
Y2366693D01*
X2197355Y2365964D01*
X2198813Y2364506D01*
X2200271Y2363048D01*
X2201729D01*
X2204645Y2362319D01*
X2207561Y2363777D01*
X2209019Y2365235D01*
X2210477Y2367422D01*
Y2368151D01*
Y2369609D01*
Y2372525D01*
X2211206Y2377628D01*
Y2378357D01*
Y2379086D01*
X2211935Y2382002D01*
Y2385647D01*
Y2386376D01*
Y2387105D01*
Y2387834D01*
X2211206Y2388563D01*
X2210477Y2390750D01*
X2208290Y2392208D01*
D02*
G37*
%LPD*%
G36*
X2381792Y2387105D02*
Y2385647D01*
Y2384189D01*
X2381063Y2381273D01*
X2380334Y2376899D01*
Y2376170D01*
Y2375441D01*
X2379605Y2371796D01*
X2378876Y2368880D01*
Y2367422D01*
X2378147Y2366693D01*
X2377418D01*
X2374502Y2367422D01*
Y2368880D01*
Y2369609D01*
Y2371067D01*
Y2373254D01*
Y2376170D01*
X2375231Y2382002D01*
X2375960Y2384918D01*
X2376689Y2386376D01*
X2377418Y2387105D01*
Y2387834D01*
X2378147Y2388563D01*
X2381063D01*
X2381792Y2387105D01*
D02*
G37*
G36*
X2346071Y2386376D02*
Y2384918D01*
Y2382731D01*
Y2382002D01*
X2345342Y2380544D01*
X2344613Y2379086D01*
X2342426Y2378357D01*
X2340239D01*
Y2379086D01*
Y2381273D01*
X2340968Y2387105D01*
X2345342D01*
X2346071Y2386376D01*
D02*
G37*
G36*
X2243282Y2386376D02*
X2244011D01*
X2244740Y2385647D01*
Y2384189D01*
Y2383460D01*
Y2382731D01*
X2244011Y2381273D01*
X2242553Y2380544D01*
X2241824D01*
X2240366Y2379815D01*
X2238908D01*
Y2381273D01*
Y2383460D01*
X2239637Y2387105D01*
X2242553D01*
X2243282Y2386376D01*
D02*
G37*
G36*
X2242553Y2376170D02*
X2244011Y2374712D01*
Y2373983D01*
Y2372525D01*
Y2370338D01*
X2242553Y2368880D01*
X2241095Y2368151D01*
X2238908Y2367422D01*
X2237450D01*
Y2368151D01*
Y2368880D01*
Y2371796D01*
Y2372525D01*
X2238179Y2373254D01*
X2238908Y2374712D01*
Y2375441D01*
Y2376170D01*
X2239637Y2376899D01*
X2241095D01*
X2242553Y2376170D01*
D02*
G37*
G36*
X1954598Y2384189D02*
Y2382002D01*
Y2378357D01*
Y2373254D01*
X1950224D01*
Y2373983D01*
X1950953Y2375441D01*
X1951682Y2379086D01*
Y2379815D01*
X1952411Y2382002D01*
X1953140Y2384189D01*
X1953869Y2384918D01*
X1954598Y2384189D01*
D02*
G37*
G36*
X2207561Y2387105D02*
Y2386376D01*
Y2385647D01*
Y2382731D01*
Y2380544D01*
X2206832Y2377628D01*
Y2376170D01*
X2206103Y2373254D01*
Y2370338D01*
X2205374Y2369609D01*
Y2368880D01*
Y2368151D01*
X2204645Y2367422D01*
X2203187Y2366693D01*
X2201729D01*
X2201000Y2367422D01*
Y2368151D01*
Y2368880D01*
Y2371796D01*
Y2376899D01*
Y2377628D01*
Y2378357D01*
X2201729Y2381273D01*
X2202458Y2384189D01*
Y2385647D01*
X2203187Y2386376D01*
X2204645Y2387834D01*
X2206832D01*
X2207561Y2387105D01*
D02*
G37*
D29*
X1638937Y192100D02*
Y152743D01*
X1658616D01*
X1665175Y159302D01*
Y185541D01*
X1658616Y192100D01*
X1638937D01*
X1697973Y152743D02*
X1684854D01*
X1678294Y159302D01*
Y172421D01*
X1684854Y178981D01*
X1697973D01*
X1704533Y172421D01*
Y165862D01*
X1678294D01*
X1717652Y152743D02*
X1737331D01*
X1743890Y159302D01*
X1737331Y165862D01*
X1724211D01*
X1717652Y172421D01*
X1724211Y178981D01*
X1743890D01*
X1757009Y152743D02*
X1770128D01*
X1763569D01*
Y178981D01*
X1757009D01*
X1802926Y139624D02*
X1809486D01*
X1816045Y146183D01*
Y178981D01*
X1796367D01*
X1789807Y172421D01*
Y159302D01*
X1796367Y152743D01*
X1816045D01*
X1829164D02*
Y178981D01*
X1848843D01*
X1855403Y172421D01*
Y152743D01*
X1868522Y178981D02*
X1875081D01*
Y172421D01*
X1868522D01*
Y178981D01*
Y159302D02*
X1875081D01*
Y152743D01*
X1868522D01*
Y159302D01*
X1966915Y192100D02*
X1953796D01*
X1960356D01*
Y159302D01*
X1953796Y152743D01*
X1947237D01*
X1940677Y159302D01*
X1986594Y178981D02*
X1999713D01*
X2006273Y172421D01*
Y152743D01*
X1986594D01*
X1980034Y159302D01*
X1986594Y165862D01*
X2006273D01*
X2019392Y152743D02*
X2039071D01*
X2045630Y159302D01*
X2039071Y165862D01*
X2025951D01*
X2019392Y172421D01*
X2025951Y178981D01*
X2045630D01*
X2065309Y152743D02*
X2078428D01*
X2084987Y159302D01*
Y172421D01*
X2078428Y178981D01*
X2065309D01*
X2058749Y172421D01*
Y159302D01*
X2065309Y152743D01*
X2098107D02*
Y178981D01*
X2117785D01*
X2124345Y172421D01*
Y152743D01*
X2203060Y185541D02*
X2196500Y192100D01*
X2183381D01*
X2176821Y185541D01*
Y159302D01*
X2183381Y152743D01*
X2196500D01*
X2203060Y159302D01*
X2216179Y192100D02*
Y152743D01*
Y172421D01*
X2222738Y178981D01*
X2235858D01*
X2242417Y172421D01*
Y152743D01*
X2255536D02*
X2268655D01*
X2262096D01*
Y178981D01*
X2255536D01*
X2288334Y152743D02*
X2301453D01*
X2294894D01*
Y192100D01*
X2288334D01*
X2347370D02*
Y152743D01*
X2327691D01*
X2321132Y159302D01*
Y172421D01*
X2327691Y178981D01*
X2347370D01*
X2380168Y152743D02*
X2367049D01*
X2360489Y159302D01*
Y172421D01*
X2367049Y178981D01*
X2380168D01*
X2386727Y172421D01*
Y165862D01*
X2360489D01*
X2399847Y178981D02*
Y152743D01*
Y165862D01*
X2406406Y172421D01*
X2412966Y178981D01*
X2419525D01*
X2439204Y152743D02*
X2458883D01*
X2465442Y159302D01*
X2458883Y165862D01*
X2445764D01*
X2439204Y172421D01*
X2445764Y178981D01*
X2465442D01*
X1638937Y107752D02*
Y68395D01*
X1665175D01*
X1684854Y94633D02*
X1697973D01*
X1704533Y88073D01*
Y68395D01*
X1684854D01*
X1678294Y74954D01*
X1684854Y81514D01*
X1704533D01*
X1717652Y94633D02*
Y74954D01*
X1724211Y68395D01*
X1743890D01*
Y61835D01*
X1737331Y55276D01*
X1730771D01*
X1743890Y68395D02*
Y94633D01*
X1763569Y68395D02*
X1776688D01*
X1783247Y74954D01*
Y88073D01*
X1776688Y94633D01*
X1763569D01*
X1757009Y88073D01*
Y74954D01*
X1763569Y68395D01*
X1796367Y94633D02*
Y74954D01*
X1802926Y68395D01*
X1822605D01*
Y94633D01*
X1842284Y101192D02*
Y94633D01*
X1835724D01*
X1848843D01*
X1842284D01*
Y74954D01*
X1848843Y68395D01*
X1868522Y94633D02*
X1875081D01*
Y88073D01*
X1868522D01*
Y94633D01*
Y74954D02*
X1875081D01*
Y68395D01*
X1868522D01*
Y74954D01*
X1940677Y107752D02*
Y68395D01*
Y81514D01*
X1966915Y107752D01*
X1947237Y88073D01*
X1966915Y68395D01*
X1999713D02*
X1986594D01*
X1980034Y74954D01*
Y88073D01*
X1986594Y94633D01*
X1999713D01*
X2006273Y88073D01*
Y81514D01*
X1980034D01*
X2019392Y94633D02*
X2032511Y68395D01*
X2045630Y94633D01*
X2058749Y68395D02*
X2071868D01*
X2065309D01*
Y94633D01*
X2058749D01*
X2091547Y68395D02*
Y94633D01*
X2111226D01*
X2117785Y88073D01*
Y68395D01*
X2196500Y107752D02*
X2183381D01*
X2189941D01*
Y74954D01*
X2183381Y68395D01*
X2176821D01*
X2170262Y74954D01*
X2209619Y94633D02*
Y74954D01*
X2216179Y68395D01*
X2235857D01*
Y94633D01*
X2248977Y68395D02*
Y94633D01*
X2268655D01*
X2275215Y88073D01*
Y68395D01*
X2301453Y55276D02*
X2308013D01*
X2314572Y61835D01*
Y94633D01*
X2294894D01*
X2288334Y88073D01*
Y74954D01*
X2294894Y68395D01*
X2314572D01*
D37*
X835098Y1411024D02*
G03*
X835098Y1411024I-4921J0D01*
G01*
X2168032Y1067835D02*
G03*
X2168032Y1067835I-4921J0D01*
G01*
X1365158Y1554134D02*
G03*
X1365158Y1554134I-4921J0D01*
G01*
X835098Y2414961D02*
G03*
X835098Y2414961I-4921J0D01*
G01*
Y2214173D02*
G03*
X835098Y2214173I-4921J0D01*
G01*
Y2013386D02*
G03*
X835098Y2013386I-4921J0D01*
G01*
Y1812598D02*
G03*
X835098Y1812598I-4921J0D01*
G01*
Y1611811D02*
G03*
X835098Y1611811I-4921J0D01*
G01*
Y1210236D02*
G03*
X835098Y1210236I-4921J0D01*
G01*
Y1009449D02*
G03*
X835098Y1009449I-4921J0D01*
G01*
Y808661D02*
G03*
X835098Y808661I-4921J0D01*
G01*
Y607874D02*
G03*
X835098Y607874I-4921J0D01*
G01*
Y407087D02*
G03*
X835098Y407087I-4921J0D01*
G01*
Y206299D02*
G03*
X835098Y206299I-4921J0D01*
G01*
X1470826Y1762244D02*
X1550826D01*
X536438Y2341890D02*
Y2421890D01*
Y2141102D02*
Y2221102D01*
Y1940316D02*
Y2020316D01*
Y1739528D02*
Y1819528D01*
Y1538740D02*
Y1618740D01*
Y1337952D02*
Y1417952D01*
Y1137166D02*
Y1217166D01*
Y936378D02*
Y1016378D01*
Y735590D02*
Y815590D01*
Y534804D02*
Y614804D01*
Y334016D02*
Y414016D01*
Y133228D02*
Y213228D01*
D38*
X745532Y1384842D02*
X812460D01*
X745532Y1369094D02*
X812460D01*
Y1384842D01*
X745532Y1369094D02*
Y1384842D01*
X1873818Y1529528D02*
X2112402D01*
Y1029528D02*
Y1529528D01*
X1873818Y1029528D02*
Y1529528D01*
Y1029528D02*
X2112402D01*
X1475826Y1591220D02*
Y1752244D01*
X1545826D01*
Y1591220D02*
Y1752244D01*
X1475826Y1591220D02*
X1545826D01*
X1407480Y1041338D02*
Y1557086D01*
X1600394Y1041338D02*
Y1557086D01*
X1407480D02*
X1600394D01*
X1407480Y1041338D02*
X1600394D01*
X546438Y2346890D02*
X707460D01*
X546438D02*
Y2416890D01*
X707460D01*
Y2346890D02*
Y2416890D01*
X546438Y2146102D02*
X707460D01*
X546438D02*
Y2216102D01*
X707460D01*
Y2146102D02*
Y2216102D01*
X546438Y1945316D02*
X707460D01*
X546438D02*
Y2015316D01*
X707460D01*
Y1945316D02*
Y2015316D01*
X546438Y1744528D02*
X707460D01*
X546438D02*
Y1814528D01*
X707460D01*
Y1744528D02*
Y1814528D01*
X546438Y1543740D02*
X707460D01*
X546438D02*
Y1613740D01*
X707460D01*
Y1543740D02*
Y1613740D01*
X546438Y1342952D02*
X707460D01*
X546438D02*
Y1412952D01*
X707460D01*
Y1342952D02*
Y1412952D01*
X546438Y1142166D02*
X707460D01*
X546438D02*
Y1212166D01*
X707460D01*
Y1142166D02*
Y1212166D01*
X546438Y941378D02*
X707460D01*
X546438D02*
Y1011378D01*
X707460D01*
Y941378D02*
Y1011378D01*
X546438Y740590D02*
X707460D01*
X546438D02*
Y810590D01*
X707460D01*
Y740590D02*
Y810590D01*
X546438Y539804D02*
X707460D01*
X546438D02*
Y609804D01*
X707460D01*
Y539804D02*
Y609804D01*
X546438Y339016D02*
X707460D01*
X546438D02*
Y409016D01*
X707460D01*
Y339016D02*
Y409016D01*
X546438Y138228D02*
X707460D01*
X546438D02*
Y208228D01*
X707460D01*
Y138228D02*
Y208228D01*
X745532Y2373032D02*
Y2388780D01*
X812460Y2373032D02*
Y2388780D01*
X745532Y2373032D02*
X812460D01*
X745532Y2388780D02*
X812460D01*
X745532Y2172244D02*
Y2187992D01*
X812460Y2172244D02*
Y2187992D01*
X745532Y2172244D02*
X812460D01*
X745532Y2187992D02*
X812460D01*
X745532Y1971456D02*
Y1987204D01*
X812460Y1971456D02*
Y1987204D01*
X745532Y1971456D02*
X812460D01*
X745532Y1987204D02*
X812460D01*
X745532Y1770670D02*
Y1786418D01*
X812460Y1770670D02*
Y1786418D01*
X745532Y1770670D02*
X812460D01*
X745532Y1786418D02*
X812460D01*
X745532Y1569882D02*
Y1585630D01*
X812460Y1569882D02*
Y1585630D01*
X745532Y1569882D02*
X812460D01*
X745532Y1585630D02*
X812460D01*
X745532Y1168308D02*
Y1184056D01*
X812460Y1168308D02*
Y1184056D01*
X745532Y1168308D02*
X812460D01*
X745532Y1184056D02*
X812460D01*
X745532Y967520D02*
Y983268D01*
X812460Y967520D02*
Y983268D01*
X745532Y967520D02*
X812460D01*
X745532Y983268D02*
X812460D01*
X745532Y766732D02*
Y782480D01*
X812460Y766732D02*
Y782480D01*
X745532Y766732D02*
X812460D01*
X745532Y782480D02*
X812460D01*
X745532Y565944D02*
Y581692D01*
X812460Y565944D02*
Y581692D01*
X745532Y565944D02*
X812460D01*
X745532Y581692D02*
X812460D01*
X745532Y365158D02*
Y380906D01*
X812460Y365158D02*
Y380906D01*
X745532Y365158D02*
X812460D01*
X745532Y380906D02*
X812460D01*
X745532Y164370D02*
Y180118D01*
X812460Y164370D02*
Y180118D01*
X745532Y164370D02*
X812460D01*
X745532Y180118D02*
X812460D01*
X1428150Y281496D02*
Y320853D01*
X1447828D01*
X1454388Y314294D01*
Y301175D01*
X1447828Y294615D01*
X1428150D01*
X1441269D02*
X1454388Y281496D01*
X1493745Y320853D02*
X1467507D01*
Y281496D01*
X1493745D01*
X1467507Y301175D02*
X1480626D01*
X1506864Y320853D02*
Y294615D01*
X1519984Y281496D01*
X1533103Y294615D01*
Y320853D01*
X1585579Y281496D02*
X1598698D01*
X1592139D01*
Y320853D01*
X1585579Y314294D01*
X1618377Y281496D02*
Y288056D01*
X1624937D01*
Y281496D01*
X1618377D01*
X1651175D02*
X1664294D01*
X1657734D01*
Y320853D01*
X1651175Y314294D01*
X1736449Y281496D02*
X1723330Y294615D01*
Y307734D01*
X1736449Y320853D01*
X1756128Y314294D02*
X1762687Y320853D01*
X1775806D01*
X1782366Y314294D01*
Y288056D01*
X1775806Y281496D01*
X1762687D01*
X1756128Y288056D01*
Y314294D01*
X1795485Y281496D02*
X1808604D01*
X1802045D01*
Y320853D01*
X1795485Y314294D01*
X1828283Y281496D02*
X1854521Y307734D01*
X1893879Y281496D02*
X1867640D01*
X1893879Y307734D01*
Y314294D01*
X1887319Y320853D01*
X1874200D01*
X1867640Y314294D01*
X1906998D02*
X1913557Y320853D01*
X1926677D01*
X1933236Y314294D01*
Y288056D01*
X1926677Y281496D01*
X1913557D01*
X1906998Y288056D01*
Y314294D01*
X1972593Y281496D02*
X1946355D01*
X1972593Y307734D01*
Y314294D01*
X1966034Y320853D01*
X1952915D01*
X1946355Y314294D01*
X1985713D02*
X1992272Y320853D01*
X2005391D01*
X2011951Y314294D01*
Y288056D01*
X2005391Y281496D01*
X1992272D01*
X1985713Y288056D01*
Y314294D01*
X2025070Y281496D02*
X2038189Y294615D01*
Y307734D01*
X2025070Y320853D01*
D39*
X2028544Y1757874D02*
Y1812992D01*
X2078544Y1757874D02*
Y1765434D01*
X1978544Y1757874D02*
X2078544D01*
X1978544D02*
Y1765434D01*
Y1805434D02*
Y1812992D01*
X2078544D01*
Y1805434D02*
Y1812992D01*
X1914370Y1757874D02*
Y1812992D01*
X1964370Y1757874D02*
Y1765434D01*
X1864370Y1757874D02*
X1964370D01*
X1864370D02*
Y1765434D01*
Y1805434D02*
Y1812992D01*
X1964370D01*
Y1805434D02*
Y1812992D01*
X1794292Y1707678D02*
X1849410D01*
X1841850Y1757678D02*
X1849410D01*
Y1657678D02*
Y1757678D01*
X1841850Y1657678D02*
X1849410D01*
X1794292D02*
X1801850D01*
X1794292D02*
Y1757678D01*
X1801850D01*
X1794292Y1592520D02*
X1849410D01*
X1841850Y1642520D02*
X1849410D01*
Y1542520D02*
Y1642520D01*
X1841850Y1542520D02*
X1849410D01*
X1794292D02*
X1801850D01*
X1794292D02*
Y1642520D01*
X1801850D01*
X1387796Y1678150D02*
X1442914D01*
X1387796Y1628150D02*
X1395354D01*
X1387796D02*
Y1728150D01*
X1395354D01*
X1435354D02*
X1442914D01*
Y1628150D02*
Y1728150D01*
X1435354Y1628150D02*
X1442914D01*
X1404528Y612204D02*
X1459646D01*
X1404528Y562204D02*
X1412086D01*
X1404528D02*
Y662204D01*
X1412086D01*
X1452086D02*
X1459646D01*
Y562204D02*
Y662204D01*
X1452086Y562204D02*
X1459646D01*
X1314960Y169292D02*
X1370078D01*
X1314960Y119292D02*
X1322520D01*
X1314960D02*
Y219292D01*
X1322520D01*
X1362520D02*
X1370078D01*
Y119292D02*
Y219292D01*
X1362520Y119292D02*
X1370078D01*
X1165354Y169292D02*
X1220472D01*
X1165354Y114174D02*
X1177166D01*
X1165354D02*
Y224410D01*
X1177166D01*
X1208662D02*
X1220472D01*
Y114174D02*
Y224410D01*
X1208662Y114174D02*
X1220472D01*
X445334Y176182D02*
X500452D01*
X492894Y226182D02*
X500452D01*
Y126182D02*
Y226182D01*
X492894Y126182D02*
X500452D01*
X445334D02*
X452894D01*
X445334D02*
Y226182D01*
X452894D01*
X445334Y376968D02*
X500452D01*
X492894Y426968D02*
X500452D01*
Y326968D02*
Y426968D01*
X492894Y326968D02*
X500452D01*
X445334D02*
X452894D01*
X445334D02*
Y426968D01*
X452894D01*
X445334Y577756D02*
X500452D01*
X492894Y627756D02*
X500452D01*
Y527756D02*
Y627756D01*
X492894Y527756D02*
X500452D01*
X445334D02*
X452894D01*
X445334D02*
Y627756D01*
X452894D01*
X445334Y778544D02*
X500452D01*
X492894Y828544D02*
X500452D01*
Y728544D02*
Y828544D01*
X492894Y728544D02*
X500452D01*
X445334D02*
X452894D01*
X445334D02*
Y828544D01*
X452894D01*
X445334Y979330D02*
X500452D01*
X492894Y1029330D02*
X500452D01*
Y929330D02*
Y1029330D01*
X492894Y929330D02*
X500452D01*
X445334D02*
X452894D01*
X445334D02*
Y1029330D01*
X452894D01*
X445334Y1180118D02*
X500452D01*
X492894Y1230118D02*
X500452D01*
Y1130118D02*
Y1230118D01*
X492894Y1130118D02*
X500452D01*
X445334D02*
X452894D01*
X445334D02*
Y1230118D01*
X452894D01*
X445334Y1380906D02*
X500452D01*
X492894Y1430906D02*
X500452D01*
Y1330906D02*
Y1430906D01*
X492894Y1330906D02*
X500452D01*
X445334D02*
X452894D01*
X445334D02*
Y1430906D01*
X452894D01*
X445334Y1581692D02*
X500452D01*
X492894Y1631692D02*
X500452D01*
Y1531692D02*
Y1631692D01*
X492894Y1531692D02*
X500452D01*
X445334D02*
X452894D01*
X445334D02*
Y1631692D01*
X452894D01*
X445334Y1782480D02*
X500452D01*
X492894Y1832480D02*
X500452D01*
Y1732480D02*
Y1832480D01*
X492894Y1732480D02*
X500452D01*
X445334D02*
X452894D01*
X445334D02*
Y1832480D01*
X452894D01*
X445334Y1983268D02*
X500452D01*
X492894Y2033268D02*
X500452D01*
Y1933268D02*
Y2033268D01*
X492894Y1933268D02*
X500452D01*
X445334D02*
X452894D01*
X445334D02*
Y2033268D01*
X452894D01*
X445334Y2184056D02*
X500452D01*
X492894Y2234056D02*
X500452D01*
Y2134056D02*
Y2234056D01*
X492894Y2134056D02*
X500452D01*
X445334D02*
X452894D01*
X445334D02*
Y2234056D01*
X452894D01*
X1063444Y115158D02*
X1075256D01*
Y225394D01*
X1063444D02*
X1075256D01*
X1020138D02*
X1031948D01*
X1020138Y115158D02*
Y225394D01*
Y115158D02*
X1031948D01*
X1020138Y170276D02*
X1075256D01*
X1063444Y315944D02*
X1075256D01*
Y426182D01*
X1063444D02*
X1075256D01*
X1020138D02*
X1031948D01*
X1020138Y315944D02*
Y426182D01*
Y315944D02*
X1031948D01*
X1020138Y371064D02*
X1075256D01*
X1063444Y516732D02*
X1075256D01*
Y626968D01*
X1063444D02*
X1075256D01*
X1020138D02*
X1031948D01*
X1020138Y516732D02*
Y626968D01*
Y516732D02*
X1031948D01*
X1020138Y571850D02*
X1075256D01*
X1063444Y717520D02*
X1075256D01*
Y827756D01*
X1063444D02*
X1075256D01*
X1020138D02*
X1031948D01*
X1020138Y717520D02*
Y827756D01*
Y717520D02*
X1031948D01*
X1020138Y772638D02*
X1075256D01*
X1063444Y918308D02*
X1075256D01*
Y1028544D01*
X1063444D02*
X1075256D01*
X1020138D02*
X1031948D01*
X1020138Y918308D02*
Y1028544D01*
Y918308D02*
X1031948D01*
X1020138Y973426D02*
X1075256D01*
X1063444Y1119094D02*
X1075256D01*
Y1229330D01*
X1063444D02*
X1075256D01*
X1020138D02*
X1031948D01*
X1020138Y1119094D02*
Y1229330D01*
Y1119094D02*
X1031948D01*
X1020138Y1174212D02*
X1075256D01*
X1063444Y1319882D02*
X1075256D01*
Y1430118D01*
X1063444D02*
X1075256D01*
X1020138D02*
X1031948D01*
X1020138Y1319882D02*
Y1430118D01*
Y1319882D02*
X1031948D01*
X1020138Y1375000D02*
X1075256D01*
X1063444Y1520670D02*
X1075256D01*
Y1630906D01*
X1063444D02*
X1075256D01*
X1020138D02*
X1031948D01*
X1020138Y1520670D02*
Y1630906D01*
Y1520670D02*
X1031948D01*
X1020138Y1575788D02*
X1075256D01*
X1063444Y1721456D02*
X1075256D01*
Y1831692D01*
X1063444D02*
X1075256D01*
X1020138D02*
X1031948D01*
X1020138Y1721456D02*
Y1831692D01*
Y1721456D02*
X1031948D01*
X1020138Y1776574D02*
X1075256D01*
X1063444Y1922244D02*
X1075256D01*
Y2032480D01*
X1063444D02*
X1075256D01*
X1020138D02*
X1031948D01*
X1020138Y1922244D02*
Y2032480D01*
Y1922244D02*
X1031948D01*
X1020138Y1977362D02*
X1075256D01*
X1063444Y2123032D02*
X1075256D01*
Y2233268D01*
X1063444D02*
X1075256D01*
X1020138D02*
X1031948D01*
X1020138Y2123032D02*
Y2233268D01*
Y2123032D02*
X1031948D01*
X1020138Y2178150D02*
X1075256D01*
X1063444Y2323818D02*
X1075256D01*
Y2434056D01*
X1063444D02*
X1075256D01*
X1020138D02*
X1031948D01*
X1020138Y2323818D02*
Y2434056D01*
Y2323818D02*
X1031948D01*
X1020138Y2378938D02*
X1075256D01*
X925196Y2405512D02*
Y2460630D01*
X875196Y2453070D02*
Y2460630D01*
X975196D01*
Y2453070D02*
Y2460630D01*
Y2405512D02*
Y2413070D01*
X875196Y2405512D02*
X975196D01*
X875196D02*
Y2413070D01*
X925196Y2303150D02*
Y2358268D01*
X875196Y2350708D02*
Y2358268D01*
X975196D01*
Y2350708D02*
Y2358268D01*
Y2303150D02*
Y2310708D01*
X875196Y2303150D02*
X975196D01*
X875196D02*
Y2310708D01*
X925196Y2204724D02*
Y2259842D01*
X875196Y2252284D02*
Y2259842D01*
X975196D01*
Y2252284D02*
Y2259842D01*
Y2204724D02*
Y2212284D01*
X875196Y2204724D02*
X975196D01*
X875196D02*
Y2212284D01*
X925196Y2102362D02*
Y2157480D01*
X875196Y2149922D02*
Y2157480D01*
X975196D01*
Y2149922D02*
Y2157480D01*
Y2102362D02*
Y2109922D01*
X875196Y2102362D02*
X975196D01*
X875196D02*
Y2109922D01*
X925196Y2003938D02*
Y2059056D01*
X875196Y2051496D02*
Y2059056D01*
X975196D01*
Y2051496D02*
Y2059056D01*
Y2003938D02*
Y2011496D01*
X875196Y2003938D02*
X975196D01*
X875196D02*
Y2011496D01*
X925196Y1901574D02*
Y1956694D01*
X875196Y1949134D02*
Y1956694D01*
X975196D01*
Y1949134D02*
Y1956694D01*
Y1901574D02*
Y1909134D01*
X875196Y1901574D02*
X975196D01*
X875196D02*
Y1909134D01*
X925196Y1803150D02*
Y1858268D01*
X875196Y1850708D02*
Y1858268D01*
X975196D01*
Y1850708D02*
Y1858268D01*
Y1803150D02*
Y1810708D01*
X875196Y1803150D02*
X975196D01*
X875196D02*
Y1810708D01*
X925196Y1700788D02*
Y1755906D01*
X875196Y1748346D02*
Y1755906D01*
X975196D01*
Y1748346D02*
Y1755906D01*
Y1700788D02*
Y1708346D01*
X875196Y1700788D02*
X975196D01*
X875196D02*
Y1708346D01*
X925196Y1602362D02*
Y1657480D01*
X875196Y1649922D02*
Y1657480D01*
X975196D01*
Y1649922D02*
Y1657480D01*
Y1602362D02*
Y1609922D01*
X875196Y1602362D02*
X975196D01*
X875196D02*
Y1609922D01*
X925196Y1500000D02*
Y1555118D01*
X875196Y1547560D02*
Y1555118D01*
X975196D01*
Y1547560D02*
Y1555118D01*
Y1500000D02*
Y1507560D01*
X875196Y1500000D02*
X975196D01*
X875196D02*
Y1507560D01*
X925196Y1401574D02*
Y1456694D01*
X875196Y1449134D02*
Y1456694D01*
X975196D01*
Y1449134D02*
Y1456694D01*
Y1401574D02*
Y1409134D01*
X875196Y1401574D02*
X975196D01*
X875196D02*
Y1409134D01*
X925196Y1299212D02*
Y1354330D01*
X875196Y1346772D02*
Y1354330D01*
X975196D01*
Y1346772D02*
Y1354330D01*
Y1299212D02*
Y1306772D01*
X875196Y1299212D02*
X975196D01*
X875196D02*
Y1306772D01*
X925196Y1098426D02*
Y1153544D01*
X875196Y1145984D02*
Y1153544D01*
X975196D01*
Y1145984D02*
Y1153544D01*
Y1098426D02*
Y1105984D01*
X875196Y1098426D02*
X975196D01*
X875196D02*
Y1105984D01*
X925196Y1200788D02*
Y1255906D01*
X875196Y1248346D02*
Y1255906D01*
X975196D01*
Y1248346D02*
Y1255906D01*
Y1200788D02*
Y1208346D01*
X875196Y1200788D02*
X975196D01*
X875196D02*
Y1208346D01*
X925196Y1000000D02*
Y1055118D01*
X875196Y1047560D02*
Y1055118D01*
X975196D01*
Y1047560D02*
Y1055118D01*
Y1000000D02*
Y1007560D01*
X875196Y1000000D02*
X975196D01*
X875196D02*
Y1007560D01*
X925196Y897638D02*
Y952756D01*
X875196Y945196D02*
Y952756D01*
X975196D01*
Y945196D02*
Y952756D01*
Y897638D02*
Y905196D01*
X875196Y897638D02*
X975196D01*
X875196D02*
Y905196D01*
X925196Y799212D02*
Y854330D01*
X875196Y846772D02*
Y854330D01*
X975196D01*
Y846772D02*
Y854330D01*
Y799212D02*
Y806772D01*
X875196Y799212D02*
X975196D01*
X875196D02*
Y806772D01*
X925196Y696850D02*
Y751968D01*
X875196Y744410D02*
Y751968D01*
X975196D01*
Y744410D02*
Y751968D01*
Y696850D02*
Y704410D01*
X875196Y696850D02*
X975196D01*
X875196D02*
Y704410D01*
X925196Y598426D02*
Y653544D01*
X875196Y645984D02*
Y653544D01*
X975196D01*
Y645984D02*
Y653544D01*
Y598426D02*
Y605984D01*
X875196Y598426D02*
X975196D01*
X875196D02*
Y605984D01*
X925196Y496064D02*
Y551182D01*
X875196Y543622D02*
Y551182D01*
X975196D01*
Y543622D02*
Y551182D01*
Y496064D02*
Y503622D01*
X875196Y496064D02*
X975196D01*
X875196D02*
Y503622D01*
X925196Y397638D02*
Y452756D01*
X875196Y445196D02*
Y452756D01*
X975196D01*
Y445196D02*
Y452756D01*
Y397638D02*
Y405196D01*
X875196Y397638D02*
X975196D01*
X875196D02*
Y405196D01*
X925196Y295276D02*
Y350394D01*
X875196Y342834D02*
Y350394D01*
X975196D01*
Y342834D02*
Y350394D01*
Y295276D02*
Y302834D01*
X875196Y295276D02*
X975196D01*
X875196D02*
Y302834D01*
X925196Y196850D02*
Y251968D01*
X875196Y244410D02*
Y251968D01*
X975196D01*
Y244410D02*
Y251968D01*
Y196850D02*
Y204410D01*
X875196Y196850D02*
X975196D01*
X875196D02*
Y204410D01*
X925196Y94488D02*
Y149606D01*
X875196Y142048D02*
Y149606D01*
X975196D01*
Y142048D02*
Y149606D01*
Y94488D02*
Y102048D01*
X875196Y94488D02*
X975196D01*
X875196D02*
Y102048D01*
X445334Y2384842D02*
X500452D01*
X492894Y2434842D02*
X500452D01*
Y2334842D02*
Y2434842D01*
X492894Y2334842D02*
X500452D01*
X445334D02*
X452894D01*
X445334D02*
Y2434842D01*
X452894D01*
D55*
X2224409Y1181102D02*
G03*
X2224409Y1181102I-19685J0D01*
G01*
Y1692913D02*
G03*
X2224409Y1692913I-19685J0D01*
G01*
D56*
X1458661Y1517717D02*
G03*
X1458661Y1517717I-11811J0D01*
G01*
D57*
X2204724Y787402D02*
X2634646D01*
X2204724Y1299212D02*
X2634646D01*
X2204724D02*
X2634646D01*
X2204724Y1811024D02*
X2634646D01*
X1420276Y430093D02*
Y351378D01*
X1459633D01*
X1472752Y364497D01*
Y377616D01*
X1459633Y390735D01*
X1420276D01*
X1459633D01*
X1472752Y403854D01*
Y416974D01*
X1459633Y430093D01*
X1420276D01*
X1498990Y351378D02*
Y430093D01*
X1525229Y403854D01*
X1551467Y430093D01*
Y351378D01*
X1630182Y416974D02*
X1617063Y430093D01*
X1590824D01*
X1577705Y416974D01*
Y403854D01*
X1590824Y390735D01*
X1617063D01*
X1630182Y377616D01*
Y364497D01*
X1617063Y351378D01*
X1590824D01*
X1577705Y364497D01*
X1735135Y351378D02*
Y430093D01*
X1761373Y403854D01*
X1787611Y430093D01*
Y351378D01*
X1826969Y403854D02*
X1853207D01*
X1866326Y390735D01*
Y351378D01*
X1826969D01*
X1813850Y364497D01*
X1826969Y377616D01*
X1866326D01*
X1892564Y351378D02*
X1918803D01*
X1905684D01*
Y403854D01*
X1892564D01*
X1958160Y351378D02*
Y403854D01*
X1997517D01*
X2010637Y390735D01*
Y351378D01*
X2036875Y430093D02*
Y351378D01*
X2076232D01*
X2089351Y364497D01*
Y377616D01*
Y390735D01*
X2076232Y403854D01*
X2036875D01*
X2128709Y351378D02*
X2154947D01*
X2168066Y364497D01*
Y390735D01*
X2154947Y403854D01*
X2128709D01*
X2115590Y390735D01*
Y364497D01*
X2128709Y351378D01*
X2207423Y403854D02*
X2233662D01*
X2246781Y390735D01*
Y351378D01*
X2207423D01*
X2194304Y364497D01*
X2207423Y377616D01*
X2246781D01*
X2273019Y403854D02*
Y351378D01*
Y377616D01*
X2286138Y390735D01*
X2299257Y403854D01*
X2312377D01*
X2404211Y430093D02*
Y351378D01*
X2364853D01*
X2351734Y364497D01*
Y390735D01*
X2364853Y403854D01*
X2404211D01*
%TF.MD5,18aa9103f6b271b6d4d3fabc26545159*%
M02*
