%TF.GenerationSoftware,Altium Limited,Altium Designer,19.0.10 (269)*%
G04 Layer_Color=128*
%FSLAX26Y26*%
%MOIN*%
%TF.FileFunction,Drillmap*%
%TF.Part,Single*%
G01*
G75*
%TA.AperFunction,NonConductor*%
%ADD79C,0.005000*%
D79*
X2022638Y909449D02*
X2079724D01*
X2051181Y880906D02*
Y937992D01*
X2022638Y1649606D02*
X2079724D01*
X2051181Y1621063D02*
Y1678150D01*
X2093898Y846457D02*
X2126575D01*
X2110236Y830118D02*
Y862795D01*
X2093898Y1712599D02*
X2126575D01*
X2110236Y1696260D02*
Y1728937D01*
X109252Y909449D02*
X166339D01*
X137795Y880906D02*
Y937992D01*
X109252Y1649606D02*
X166339D01*
X137795Y1621063D02*
Y1678150D01*
X180512Y846457D02*
X213189D01*
X196850Y830118D02*
Y862795D01*
X180512Y1712599D02*
X213189D01*
X196850Y1696260D02*
Y1728937D01*
X2406102Y1187008D02*
X2500984D01*
X2453543Y1139567D02*
Y1234449D01*
X2406102Y899606D02*
X2500984D01*
X2453543Y852165D02*
Y947047D01*
X2263386Y984252D02*
X2303543D01*
X2283465Y964173D02*
Y1004331D01*
X2263386Y1102362D02*
X2303543D01*
X2283465Y1082284D02*
Y1122441D01*
X2406102Y1698819D02*
X2500984D01*
X2453543Y1651378D02*
Y1746260D01*
X2406102Y1411417D02*
X2500984D01*
X2453543Y1363976D02*
Y1458858D01*
X2263386Y1496063D02*
X2303543D01*
X2283465Y1475984D02*
Y1516142D01*
X2263386Y1614173D02*
X2303543D01*
X2283465Y1594094D02*
Y1634252D01*
X137795Y2007874D02*
X255905D01*
X196850Y1948819D02*
Y2066929D01*
X2303150Y2007874D02*
X2421260D01*
X2362205Y1948819D02*
Y2066929D01*
X2303150Y590551D02*
X2421260D01*
X2362205Y531496D02*
Y649606D01*
X137795Y590551D02*
X255905D01*
X196850Y531496D02*
Y649606D01*
X1965925Y999016D02*
X1980925D01*
X1973425Y991516D02*
Y1006516D01*
X1916713Y999016D02*
X1931713D01*
X1924213Y991516D02*
Y1006516D01*
X1338957Y2040354D02*
X1353957D01*
X1346457Y2032854D02*
Y2047854D01*
X1333117Y1938087D02*
X1348117D01*
X1340617Y1930587D02*
Y1945587D01*
X1073209Y1458661D02*
X1088209D01*
X1080709Y1451161D02*
Y1466161D01*
X998405Y1458661D02*
X1013405D01*
X1005905Y1451161D02*
Y1466161D01*
X2101713Y709052D02*
X2116713D01*
X2109213Y701552D02*
Y716552D01*
X2046634Y1838583D02*
X2061634D01*
X2054134Y1831083D02*
Y1846083D01*
X1878327Y1838583D02*
X1893327D01*
X1885827Y1831083D02*
Y1846083D01*
X1618484Y607284D02*
X1633484D01*
X1625984Y599784D02*
Y614784D01*
X1949193Y748032D02*
X1964193D01*
X1956693Y740532D02*
Y755532D01*
X1709035Y750000D02*
X1724035D01*
X1716535Y742500D02*
Y757500D01*
X1948209Y2243110D02*
X1963209D01*
X1955709Y2235610D02*
Y2250610D01*
X1618792Y2272638D02*
X1633792D01*
X1626292Y2265138D02*
Y2280138D01*
X1559704Y2143701D02*
X1574704D01*
X1567204Y2136201D02*
Y2151201D01*
X2104705Y1779528D02*
X2119705D01*
X2112205Y1772028D02*
Y1787028D01*
X2081498Y1177165D02*
X2096498D01*
X2088998Y1169665D02*
Y1184665D01*
X2081232Y1248526D02*
X2096232D01*
X2088732Y1241026D02*
Y1256026D01*
X1812403Y1051181D02*
X1827403D01*
X1819903Y1043681D02*
Y1058681D01*
X1571240Y1624016D02*
X1586240D01*
X1578740Y1616516D02*
Y1631516D01*
X1532854Y1128406D02*
X1547854D01*
X1540354Y1120906D02*
Y1135906D01*
X1495453Y1309055D02*
X1510453D01*
X1502953Y1301555D02*
Y1316555D01*
X1549587Y1346457D02*
X1564587D01*
X1557087Y1338957D02*
Y1353957D01*
X1577728Y1238771D02*
X1592728D01*
X1585228Y1231271D02*
Y1246271D01*
X1570333Y1437085D02*
X1585333D01*
X1577833Y1429585D02*
Y1444585D01*
X1572224Y1831693D02*
X1587224D01*
X1579724Y1824193D02*
Y1839193D01*
X1527933Y1831693D02*
X1542933D01*
X1535433Y1824193D02*
Y1839193D01*
X1618394Y1851378D02*
X1633394D01*
X1625894Y1843878D02*
Y1858878D01*
X1714941Y1995079D02*
X1729941D01*
X1722441Y1987579D02*
Y2002579D01*
X1661791Y1996063D02*
X1676791D01*
X1669291Y1988563D02*
Y2003563D01*
X1611594Y1997047D02*
X1626594D01*
X1619094Y1989547D02*
Y2004547D01*
X1389153Y1991142D02*
X1404153D01*
X1396653Y1983642D02*
Y1998642D01*
X1373406Y2096457D02*
X1388406D01*
X1380906Y2088957D02*
Y2103957D01*
X1340925Y2133858D02*
X1355925D01*
X1348425Y2126358D02*
Y2141358D01*
X1715925Y1207677D02*
X1730925D01*
X1723425Y1200177D02*
Y1215177D01*
X1867500Y999016D02*
X1882500D01*
X1875000Y991516D02*
Y1006516D01*
X1818287Y999016D02*
X1833287D01*
X1825787Y991516D02*
Y1006516D01*
X1694355Y575816D02*
X1709355D01*
X1701855Y568316D02*
Y583316D01*
X1703130Y677165D02*
X1718130D01*
X1710630Y669665D02*
Y684665D01*
X1706106Y1247677D02*
X1721106D01*
X1713606Y1240177D02*
Y1255177D01*
X1758248Y1277559D02*
X1773248D01*
X1765748Y1270059D02*
Y1285059D01*
X1732658Y1336614D02*
X1747658D01*
X1740158Y1329114D02*
Y1344114D01*
X1904011Y1968600D02*
X1919011D01*
X1911511Y1961100D02*
Y1976100D01*
X1409823Y1887795D02*
X1424823D01*
X1417323Y1880295D02*
Y1895295D01*
X1921634Y2007874D02*
X1936634D01*
X1929134Y2000374D02*
Y2015374D01*
X1921634Y1929134D02*
X1936634D01*
X1929134Y1921634D02*
Y1936634D01*
X1345847Y1603347D02*
X1360847D01*
X1353347Y1595847D02*
Y1610847D01*
X1771043Y1852929D02*
X1786043D01*
X1778543Y1845429D02*
Y1860429D01*
X1715925Y1787401D02*
X1730925D01*
X1723425Y1779901D02*
Y1794901D01*
X1741516Y1821850D02*
X1756516D01*
X1749016Y1814350D02*
Y1829350D01*
X1437382Y1486220D02*
X1452382D01*
X1444882Y1478720D02*
Y1493720D01*
X1438366Y1443898D02*
X1453366D01*
X1445866Y1436398D02*
Y1451398D01*
X1873497Y1550273D02*
X1888497D01*
X1880997Y1542773D02*
Y1557773D01*
X1758248Y1708661D02*
X1773248D01*
X1765748Y1701161D02*
Y1716161D01*
X1534823Y889764D02*
X1549823D01*
X1542323Y882264D02*
Y897264D01*
X1433445Y1180118D02*
X1448445D01*
X1440945Y1172618D02*
Y1187618D01*
X1724784Y1091535D02*
X1739784D01*
X1732284Y1084035D02*
Y1099035D01*
X1498406Y1238771D02*
X1513406D01*
X1505906Y1231271D02*
Y1246271D01*
X1121437Y2490630D02*
X1136437D01*
X1128937Y2483130D02*
Y2498130D01*
X1571240Y624764D02*
X1586240D01*
X1578740Y617264D02*
Y632264D01*
X1604705Y783465D02*
X1619705D01*
X1612205Y775965D02*
Y790965D01*
X1632264Y678150D02*
X1647264D01*
X1639764Y670650D02*
Y685650D01*
X1655886Y526575D02*
X1670886D01*
X1663386Y519075D02*
Y534075D01*
X1703130Y820866D02*
X1718130D01*
X1710630Y813366D02*
Y828366D01*
X2085122Y668340D02*
X2100122D01*
X2092622Y660840D02*
Y675840D01*
X2103823Y749052D02*
X2118823D01*
X2111323Y741552D02*
Y756552D01*
X2102839Y628968D02*
X2117839D01*
X2110339Y621468D02*
Y636468D01*
X1644075Y475394D02*
X1659075D01*
X1651575Y467894D02*
Y482894D01*
X1116516Y144685D02*
X1131516D01*
X1124016Y137185D02*
Y152185D01*
X356673Y893701D02*
X371673D01*
X364173Y886201D02*
Y901201D01*
X305492Y820600D02*
X320492D01*
X312992Y813100D02*
Y828100D01*
X1118484Y2334646D02*
X1133484D01*
X1125984Y2327146D02*
Y2342146D01*
X992500Y2460630D02*
X1007500D01*
X1000000Y2453130D02*
Y2468130D01*
X1075177Y1259842D02*
X1090177D01*
X1082677Y1252342D02*
Y1267342D01*
X1075177Y858268D02*
X1090177D01*
X1082677Y850768D02*
Y865768D01*
X1077146Y1659449D02*
X1092146D01*
X1084646Y1651949D02*
Y1666949D01*
X1077146Y1858268D02*
X1092146D01*
X1084646Y1850768D02*
Y1865768D01*
X1075177Y657480D02*
X1090177D01*
X1082677Y649980D02*
Y664980D01*
X1075177Y1059055D02*
X1090177D01*
X1082677Y1051555D02*
Y1066555D01*
X1000374Y858268D02*
X1015374D01*
X1007874Y850768D02*
Y865768D01*
X1000374Y460630D02*
X1015374D01*
X1007874Y453130D02*
Y468130D01*
X1077146Y2259843D02*
X1092146D01*
X1084646Y2252343D02*
Y2267343D01*
X996437Y2259843D02*
X1011437D01*
X1003937Y2252343D02*
Y2267343D01*
X1077146Y2059055D02*
X1092146D01*
X1084646Y2051555D02*
Y2066555D01*
X996437Y2059055D02*
X1011437D01*
X1003937Y2051555D02*
Y2066555D01*
X996437Y1858268D02*
X1011437D01*
X1003937Y1850768D02*
Y1865768D01*
X998405Y1659449D02*
X1013405D01*
X1005905Y1651949D02*
Y1666949D01*
X998405Y1259842D02*
X1013405D01*
X1005905Y1252342D02*
Y1267342D01*
X1000374Y1059055D02*
X1015374D01*
X1007874Y1051555D02*
Y1066555D01*
X1000374Y657480D02*
X1015374D01*
X1007874Y649980D02*
Y664980D01*
X1079114Y460630D02*
X1094114D01*
X1086614Y453130D02*
Y468130D01*
X616732Y414134D02*
X631732D01*
X624232Y406634D02*
Y421634D01*
X705551Y328740D02*
X720551D01*
X713051Y321240D02*
Y336240D01*
X705551Y1332677D02*
X720551D01*
X713051Y1325177D02*
Y1340177D01*
X1079114Y255905D02*
X1094114D01*
X1086614Y248405D02*
Y263406D01*
X1000374Y255905D02*
X1015374D01*
X1007874Y248405D02*
Y263406D01*
X705551Y1935039D02*
X720551D01*
X713051Y1927539D02*
Y1942539D01*
X366614Y2118110D02*
X381614D01*
X374114Y2110610D02*
Y2125610D01*
X374390Y1610236D02*
X389390D01*
X381890Y1602736D02*
Y1617736D01*
X401614Y1421260D02*
X416614D01*
X409114Y1413760D02*
Y1428760D01*
X185413Y1011811D02*
X200413D01*
X192913Y1004311D02*
Y1019311D01*
X185413Y1074803D02*
X200413D01*
X192913Y1067303D02*
Y1082303D01*
X185413Y1263780D02*
X200413D01*
X192913Y1256280D02*
Y1271280D01*
X350768Y1181102D02*
X365768D01*
X358268Y1173602D02*
Y1188602D01*
X705551Y2336614D02*
X720551D01*
X713051Y2329114D02*
Y2344114D01*
X616732Y2422008D02*
X631732D01*
X624232Y2414508D02*
Y2429508D01*
X705551Y2135827D02*
X720551D01*
X713051Y2128327D02*
Y2143327D01*
X616732Y2221220D02*
X631732D01*
X624232Y2213720D02*
Y2228720D01*
X616732Y2020433D02*
X631732D01*
X624232Y2012933D02*
Y2027933D01*
X705551Y1734252D02*
X720551D01*
X713051Y1726752D02*
Y1741752D01*
X616732Y1819646D02*
X631732D01*
X624232Y1812146D02*
Y1827146D01*
X705551Y1533465D02*
X720551D01*
X713051Y1525965D02*
Y1540965D01*
X616732Y1618858D02*
X631732D01*
X624232Y1611358D02*
Y1626358D01*
X616732Y1418071D02*
X631732D01*
X624232Y1410571D02*
Y1425571D01*
X705551Y1131890D02*
X720551D01*
X713051Y1124390D02*
Y1139390D01*
X616732Y1217283D02*
X631732D01*
X624232Y1209783D02*
Y1224783D01*
X705551Y931102D02*
X720551D01*
X713051Y923602D02*
Y938602D01*
X616732Y1016496D02*
X631732D01*
X624232Y1008996D02*
Y1023996D01*
X705551Y730315D02*
X720551D01*
X713051Y722815D02*
Y737815D01*
X616732Y815709D02*
X631732D01*
X624232Y808209D02*
Y823209D01*
X705551Y529528D02*
X720551D01*
X713051Y522028D02*
Y537028D01*
X616732Y614921D02*
X631732D01*
X624232Y607421D02*
Y622421D01*
X705551Y127953D02*
X720551D01*
X713051Y120453D02*
Y135453D01*
X616732Y213346D02*
X631732D01*
X624232Y205846D02*
Y220846D01*
X185413Y1137795D02*
X200413D01*
X192913Y1130295D02*
Y1145295D01*
X185413Y1200787D02*
X200413D01*
X192913Y1193287D02*
Y1208287D01*
X185413Y1326772D02*
X200413D01*
X192913Y1319272D02*
Y1334272D01*
%TF.MD5,df16ef9730fe43c004b03098697c0125*%
M02*
