%TF.GenerationSoftware,Altium Limited,Altium Designer,19.0.10 (269)*%
G04 Layer_Color=128*
%FSLAX26Y26*%
%MOIN*%
%TF.FileFunction,Paste,Bot*%
%TF.Part,Single*%
G01*
G75*
%TA.AperFunction,SMDPad,CuDef*%
%ADD10R,0.033465X0.037402*%
%ADD11R,0.037402X0.033465*%
%ADD17R,0.039370X0.035433*%
%ADD28R,0.149606X0.078740*%
%ADD29R,0.059055X0.078740*%
%TA.AperFunction,ConnectorPad*%
%ADD30R,0.037402X0.033465*%
%TA.AperFunction,SMDPad,CuDef*%
%ADD31O,0.051181X0.019685*%
%ADD32R,0.051181X0.019685*%
%ADD33R,0.035433X0.039370*%
%ADD34R,0.043307X0.019685*%
%ADD35R,0.049000X0.125000*%
D10*
X1667323Y2152559D02*
D03*
X1616142D02*
D03*
D11*
X1273622Y1491142D02*
D03*
Y1439961D02*
D03*
X1356299Y1438976D02*
D03*
Y1490157D02*
D03*
D17*
X1821850Y2332677D02*
D03*
Y2385827D02*
D03*
X1442913Y1364173D02*
D03*
Y1311024D02*
D03*
X1498799Y947500D02*
D03*
Y1000649D02*
D03*
X1581476Y948819D02*
D03*
Y1001968D02*
D03*
X1875984Y1218504D02*
D03*
Y1271653D02*
D03*
Y1418307D02*
D03*
Y1365158D02*
D03*
X1840551Y1950787D02*
D03*
Y1897638D02*
D03*
D28*
X2026575Y2392717D02*
D03*
D29*
X1936024Y2144685D02*
D03*
X2026575D02*
D03*
X2117126D02*
D03*
D30*
X1329724Y2441929D02*
D03*
Y2390748D02*
D03*
X1428150Y2390748D02*
D03*
Y2441929D02*
D03*
X1526575Y2390748D02*
D03*
Y2441929D02*
D03*
X1625000Y2390748D02*
D03*
Y2441929D02*
D03*
X1723425Y2441929D02*
D03*
Y2390748D02*
D03*
D31*
X1770551Y827165D02*
D03*
Y777165D02*
D03*
Y727165D02*
D03*
Y677165D02*
D03*
Y627165D02*
D03*
Y577165D02*
D03*
Y527165D02*
D03*
Y477165D02*
D03*
X1526575Y827165D02*
D03*
Y777165D02*
D03*
Y727165D02*
D03*
Y677165D02*
D03*
Y627165D02*
D03*
Y577165D02*
D03*
Y527165D02*
D03*
X1509842Y2237402D02*
D03*
Y2187402D02*
D03*
Y2137402D02*
D03*
Y2087402D02*
D03*
Y2037402D02*
D03*
Y1987402D02*
D03*
Y1937402D02*
D03*
Y1887402D02*
D03*
X1265866Y2237402D02*
D03*
Y2187402D02*
D03*
Y2137402D02*
D03*
Y2087402D02*
D03*
Y2037402D02*
D03*
Y1987402D02*
D03*
Y1937402D02*
D03*
D32*
X1526575Y477165D02*
D03*
X1265866Y1887402D02*
D03*
D33*
X1239173Y1772638D02*
D03*
X1186024D02*
D03*
X1765748Y1651575D02*
D03*
X1818898D02*
D03*
D34*
X2185039Y980315D02*
D03*
X2035433D02*
D03*
X2185039Y1011811D02*
D03*
X2035433D02*
D03*
X2185039Y1043307D02*
D03*
X2035433D02*
D03*
X2185039Y1074803D02*
D03*
X2035433D02*
D03*
X2185039Y1106299D02*
D03*
X2035433D02*
D03*
X2185039Y1137795D02*
D03*
X2035433D02*
D03*
X2185039Y1169291D02*
D03*
X2035433D02*
D03*
X2185039Y1200787D02*
D03*
X2035433D02*
D03*
X2185039Y1232284D02*
D03*
X2035433D02*
D03*
X2185039Y1263780D02*
D03*
X2035433D02*
D03*
X2185039Y1295276D02*
D03*
X2035433D02*
D03*
X2185039Y1326772D02*
D03*
X2035433D02*
D03*
X2185039Y1358268D02*
D03*
X2035433D02*
D03*
X2185039Y1389764D02*
D03*
X2035433D02*
D03*
X2185039Y1421260D02*
D03*
X2035433D02*
D03*
X2185039Y1452756D02*
D03*
X2035433D02*
D03*
X2185039Y1484252D02*
D03*
X2035433D02*
D03*
X2185039Y1515748D02*
D03*
X2035433D02*
D03*
X2185039Y1547244D02*
D03*
X2035433D02*
D03*
X2185039Y1578740D02*
D03*
X2035433D02*
D03*
X271654Y980315D02*
D03*
X122047D02*
D03*
X271654Y1011811D02*
D03*
X122047D02*
D03*
X271654Y1043307D02*
D03*
X122047D02*
D03*
X271654Y1074803D02*
D03*
X122047D02*
D03*
X271654Y1106299D02*
D03*
X122047D02*
D03*
X271654Y1137795D02*
D03*
X122047D02*
D03*
X271654Y1169291D02*
D03*
X122047D02*
D03*
X271654Y1200787D02*
D03*
X122047D02*
D03*
X271654Y1232284D02*
D03*
X122047D02*
D03*
X271654Y1263780D02*
D03*
X122047D02*
D03*
X271654Y1295276D02*
D03*
X122047D02*
D03*
X271654Y1326772D02*
D03*
X122047D02*
D03*
X271654Y1358268D02*
D03*
X122047D02*
D03*
X271654Y1389764D02*
D03*
X122047D02*
D03*
X271654Y1421260D02*
D03*
X122047D02*
D03*
X271654Y1452756D02*
D03*
X122047D02*
D03*
X271654Y1484252D02*
D03*
X122047D02*
D03*
X271654Y1515748D02*
D03*
X122047D02*
D03*
X271654Y1547244D02*
D03*
X122047D02*
D03*
X271654Y1578740D02*
D03*
X122047D02*
D03*
D35*
X522591Y2380906D02*
D03*
X773591D02*
D03*
X522591Y2180118D02*
D03*
X773591D02*
D03*
X522591Y1979331D02*
D03*
X773591D02*
D03*
X522591Y1778543D02*
D03*
X773591D02*
D03*
X522591Y1577756D02*
D03*
X773591D02*
D03*
X522591Y1376969D02*
D03*
X773591D02*
D03*
X522591Y1176181D02*
D03*
X773591D02*
D03*
X522591Y975394D02*
D03*
X773591D02*
D03*
X522591Y774606D02*
D03*
X773591D02*
D03*
X522591Y573819D02*
D03*
X773591D02*
D03*
X522591Y373032D02*
D03*
X773591D02*
D03*
X522591Y172244D02*
D03*
X773591D02*
D03*
%TF.MD5,e1cd685a9e75b678c9d14a9912877b70*%
M02*
