%TF.GenerationSoftware,Altium Limited,Altium Designer,19.0.10 (269)*%
G04 Layer_Physical_Order=1*
G04 Layer_Color=255*
%FSLAX26Y26*%
%MOIN*%
%TF.FileFunction,Copper,L1,Top,Signal*%
%TF.Part,Single*%
G01*
G75*
%TA.AperFunction,SMDPad,CuDef*%
%ADD10R,0.033465X0.037402*%
%ADD11R,0.037402X0.033465*%
%ADD12R,0.065748X0.029921*%
%ADD13R,0.080709X0.045276*%
%ADD14R,0.051181X0.043307*%
%ADD15O,0.062992X0.013386*%
%ADD16R,0.045276X0.080709*%
%ADD17R,0.039370X0.035433*%
%ADD18R,0.043307X0.051181*%
G04:AMPARAMS|DCode=19|XSize=19.685mil|YSize=29.528mil|CornerRadius=4.921mil|HoleSize=0mil|Usage=FLASHONLY|Rotation=0.000|XOffset=0mil|YOffset=0mil|HoleType=Round|Shape=RoundedRectangle|*
%AMROUNDEDRECTD19*
21,1,0.019685,0.019685,0,0,0.0*
21,1,0.009843,0.029528,0,0,0.0*
1,1,0.009842,0.004921,-0.009843*
1,1,0.009842,-0.004921,-0.009843*
1,1,0.009842,-0.004921,0.009843*
1,1,0.009842,0.004921,0.009843*
%
%ADD19ROUNDEDRECTD19*%
%TA.AperFunction,Conductor*%
%ADD20C,0.008000*%
%ADD21C,0.010000*%
%ADD22C,0.020000*%
%ADD23C,0.015000*%
%TA.AperFunction,ComponentPad*%
%ADD24C,0.051181*%
%ADD25C,0.137795*%
%ADD26C,0.068898*%
%TA.AperFunction,ViaPad*%
%ADD27C,0.030000*%
G36*
X1898258Y2018563D02*
X1898060Y2016380D01*
X1887678Y2012620D01*
X1850157Y2050141D01*
X1845526Y2053235D01*
X1840063Y2054322D01*
X1840063Y2054322D01*
X1451465D01*
X1446002Y2053235D01*
X1441371Y2050141D01*
X1441371Y2050140D01*
X1398830Y2007599D01*
X1395581Y2009770D01*
X1385827Y2011710D01*
X1377621Y2010078D01*
X1372679Y2012331D01*
X1367621Y2016150D01*
Y2056102D01*
X1370975Y2066017D01*
X1379245Y2071543D01*
X1381750Y2075293D01*
X1841528D01*
X1898258Y2018563D01*
D02*
G37*
G36*
X1886901Y1973023D02*
X1886021Y1968600D01*
X1887961Y1958845D01*
X1891594Y1953408D01*
X1887935Y1944281D01*
X1887165Y1943408D01*
X1835311D01*
X1762185Y2016534D01*
X1766012Y2025773D01*
X1834151D01*
X1886901Y1973023D01*
D02*
G37*
G36*
X1525875Y2016534D02*
X1421746Y1912405D01*
X1417323Y1913285D01*
X1407891Y1911409D01*
X1407540Y1911361D01*
X1397891Y1916906D01*
Y1939005D01*
X1397891Y1939005D01*
X1396804Y1944468D01*
X1393710Y1949099D01*
X1393710Y1949099D01*
X1391205Y1951604D01*
X1394496Y1962455D01*
X1395581Y1962671D01*
X1403851Y1968197D01*
X1409376Y1976466D01*
X1409701Y1978096D01*
X1457377Y2025773D01*
X1522048D01*
X1525875Y2016534D01*
D02*
G37*
G36*
X1819304Y1919040D02*
X1823935Y1915946D01*
X1829398Y1914860D01*
X1829398Y1914860D01*
X1898896D01*
X1899567Y1913877D01*
X1894283Y1903877D01*
X1865116D01*
X1859263Y1902712D01*
X1854302Y1899397D01*
X1813168Y1858263D01*
X1802317Y1861555D01*
X1802093Y1862684D01*
X1796567Y1870953D01*
X1788298Y1876479D01*
X1778543Y1878419D01*
X1768789Y1876479D01*
X1760519Y1870953D01*
X1758014Y1867203D01*
X1677490D01*
X1673348Y1877203D01*
X1733255Y1937111D01*
X1736571Y1942072D01*
X1737735Y1947925D01*
Y1975230D01*
X1740465Y1977055D01*
X1743142Y1981061D01*
X1755014Y1983331D01*
X1819304Y1919040D01*
D02*
G37*
G36*
X1534291Y1970435D02*
Y1928608D01*
X1534017Y1927228D01*
X1534017Y1927228D01*
Y1856901D01*
X1525679Y1855242D01*
X1517409Y1849717D01*
X1511884Y1841447D01*
X1509943Y1831693D01*
X1510883Y1826967D01*
X1504094Y1816967D01*
X1467326D01*
X1429071Y1855222D01*
X1431341Y1867094D01*
X1435347Y1869771D01*
X1440872Y1878041D01*
X1442813Y1887795D01*
X1441933Y1892218D01*
X1524291Y1974577D01*
X1534291Y1970435D01*
D02*
G37*
G36*
X1859795Y1819207D02*
X1862307Y1814908D01*
X1862047Y1814134D01*
X1862047D01*
Y1756732D01*
X1946163D01*
Y1613542D01*
X1936163Y1609400D01*
X1874650Y1670913D01*
X1869688Y1674228D01*
X1863835Y1675392D01*
X1850551D01*
Y1706535D01*
Y1760000D01*
X1802505D01*
X1798363Y1770000D01*
X1807563Y1779199D01*
X1810878Y1784161D01*
X1810945Y1784499D01*
X1847269Y1820822D01*
X1859795Y1819207D01*
D02*
G37*
G36*
X2173228Y2368110D02*
Y1479831D01*
X2168484D01*
X2166760Y1479488D01*
X2118150D01*
Y1429567D01*
X2118149D01*
Y1429488D01*
X2118150D01*
Y1379567D01*
X2118149D01*
Y1379488D01*
X2118150D01*
Y1329567D01*
X2118149D01*
Y1329488D01*
X2118150D01*
Y1279567D01*
X2118149D01*
Y1279488D01*
X2118150D01*
Y1229567D01*
X2118149D01*
Y1229488D01*
X2118150D01*
Y1179567D01*
X2118149D01*
Y1179488D01*
X2118150D01*
Y1129567D01*
X2118149D01*
Y1129488D01*
X2118150D01*
Y1079568D01*
X2168903D01*
X2169913Y1074491D01*
X2173228Y1069529D01*
Y502953D01*
X2031496Y361221D01*
X1371514D01*
Y739753D01*
X1389226Y757464D01*
X1398465Y753637D01*
Y689803D01*
X1416828D01*
Y664528D01*
X1403386D01*
Y611063D01*
Y591614D01*
X1432087D01*
X1460787D01*
Y611063D01*
Y664528D01*
X1445377D01*
Y689803D01*
X1463740D01*
Y770325D01*
X1548207Y854792D01*
X1548207Y854792D01*
X1551301Y859423D01*
X1552388Y864885D01*
Y866422D01*
X1560347Y871740D01*
X1565872Y880009D01*
X1567813Y889764D01*
X1566877Y894470D01*
X1573675Y904470D01*
X1577244D01*
X1583097Y905634D01*
X1588059Y908949D01*
X1712042Y1032932D01*
X1715357Y1037894D01*
X1716521Y1043747D01*
Y1060889D01*
X1726521Y1067192D01*
X1732284Y1066046D01*
X1742038Y1067986D01*
X1750307Y1073511D01*
X1755833Y1081781D01*
X1757773Y1091535D01*
X1755833Y1101290D01*
X1750307Y1109559D01*
X1742038Y1115085D01*
X1732284Y1117025D01*
X1727861Y1116145D01*
X1721708Y1122298D01*
X1717077Y1125392D01*
X1711614Y1126479D01*
X1711614Y1126479D01*
X1693905D01*
X1689465Y1131890D01*
X1688154Y1138480D01*
X1685981Y1141732D01*
X1688154Y1144985D01*
X1689465Y1151575D01*
X1688154Y1158165D01*
X1685981Y1161417D01*
X1688154Y1164670D01*
X1688470Y1166260D01*
X1680671D01*
X1678835Y1167487D01*
X1672244Y1168798D01*
X1647638D01*
X1623032D01*
X1616441Y1167487D01*
X1614605Y1166260D01*
X1606805D01*
X1607122Y1164670D01*
X1609295Y1161417D01*
X1607122Y1158165D01*
X1605811Y1151575D01*
X1600463Y1145058D01*
X1559295D01*
X1558378Y1146430D01*
X1550109Y1151955D01*
X1540354Y1153895D01*
X1530600Y1151955D01*
X1522330Y1146430D01*
X1516805Y1138160D01*
X1514864Y1128406D01*
X1516805Y1118651D01*
X1522330Y1110382D01*
X1530600Y1104856D01*
X1540354Y1102916D01*
X1550109Y1104856D01*
X1558378Y1110382D01*
X1562473Y1116510D01*
X1602278D01*
X1605811Y1112205D01*
X1607122Y1105615D01*
X1608955Y1102871D01*
X1605949Y1098372D01*
X1604785Y1092520D01*
X1605949Y1086667D01*
X1608955Y1082168D01*
X1607122Y1079425D01*
X1607091Y1079271D01*
X1329406Y801586D01*
X1326091Y796625D01*
X1324927Y790772D01*
Y515847D01*
X1262315Y453236D01*
X1227319Y488232D01*
Y500513D01*
X1260169Y533363D01*
X1263484Y538324D01*
X1264648Y544177D01*
Y983177D01*
X1337085Y1055614D01*
X1384842D01*
X1391432Y1056925D01*
X1397019Y1060658D01*
X1400752Y1066245D01*
X1402063Y1072835D01*
X1400752Y1079425D01*
X1398579Y1082677D01*
X1400752Y1085930D01*
X1402063Y1092520D01*
X1400752Y1099110D01*
X1398579Y1102362D01*
X1400752Y1105615D01*
X1402063Y1112205D01*
X1400752Y1118795D01*
X1398579Y1122047D01*
X1400752Y1125300D01*
X1402063Y1131890D01*
X1400752Y1138480D01*
X1398579Y1141732D01*
X1400752Y1144985D01*
X1402063Y1151575D01*
X1400752Y1158165D01*
X1398579Y1161417D01*
X1400752Y1164670D01*
X1402063Y1171260D01*
X1400752Y1177850D01*
X1398579Y1181102D01*
X1400752Y1184355D01*
X1402063Y1190945D01*
X1400752Y1197535D01*
X1398579Y1200787D01*
X1400752Y1204040D01*
X1402063Y1210630D01*
X1400752Y1217220D01*
X1398579Y1220473D01*
X1400752Y1223725D01*
X1402063Y1230315D01*
X1400752Y1236905D01*
X1398579Y1240158D01*
X1400752Y1243410D01*
X1402063Y1250000D01*
X1400752Y1256590D01*
X1398579Y1259843D01*
X1400752Y1263095D01*
X1402063Y1269685D01*
X1400752Y1276275D01*
X1398579Y1279528D01*
X1400752Y1282780D01*
X1402063Y1289370D01*
X1400752Y1295960D01*
X1398579Y1299213D01*
X1400752Y1302465D01*
X1402063Y1309055D01*
X1400752Y1315645D01*
X1398579Y1318898D01*
X1400752Y1322150D01*
X1402063Y1328740D01*
X1400752Y1335330D01*
X1398579Y1338583D01*
X1400752Y1341835D01*
X1402063Y1348425D01*
X1400752Y1355015D01*
X1398579Y1358268D01*
X1400752Y1361520D01*
X1402063Y1368110D01*
X1400752Y1374700D01*
X1398579Y1377953D01*
X1400752Y1381205D01*
X1402063Y1387795D01*
X1400752Y1394385D01*
X1398579Y1397638D01*
X1400752Y1400890D01*
X1402063Y1407480D01*
X1400752Y1414070D01*
X1398579Y1417323D01*
X1400752Y1420575D01*
X1402063Y1427165D01*
X1400752Y1433755D01*
X1398579Y1437008D01*
X1400752Y1440260D01*
X1402063Y1446850D01*
X1400752Y1453440D01*
X1398579Y1456693D01*
X1400752Y1459946D01*
X1402063Y1466535D01*
X1400752Y1473126D01*
X1398579Y1476378D01*
X1400752Y1479630D01*
X1402063Y1486220D01*
X1400752Y1492811D01*
X1398579Y1496063D01*
X1400752Y1499316D01*
X1402063Y1505906D01*
X1400752Y1512496D01*
X1398579Y1515748D01*
X1400752Y1519001D01*
X1402063Y1525591D01*
X1400752Y1532181D01*
X1397019Y1537767D01*
X1391432Y1541500D01*
X1384842Y1542811D01*
X1367621D01*
Y1582817D01*
X1371370Y1585322D01*
X1376896Y1593592D01*
X1378836Y1603347D01*
X1376896Y1613101D01*
X1371370Y1621370D01*
X1363101Y1626896D01*
X1353347Y1628836D01*
X1343592Y1626896D01*
X1335322Y1621370D01*
X1329797Y1613101D01*
X1327857Y1603347D01*
X1329797Y1593592D01*
X1335322Y1585322D01*
X1339072Y1582817D01*
Y1542811D01*
X1335630D01*
X1329040Y1541500D01*
X1323453Y1537767D01*
X1320111Y1537438D01*
X1298760Y1558789D01*
Y1894897D01*
X1301500Y1895906D01*
X1308760Y1896561D01*
X1310773Y1893549D01*
X1439722Y1764600D01*
X1439722Y1764599D01*
X1444353Y1761505D01*
X1449815Y1760418D01*
X1449816Y1760419D01*
X1631219D01*
X1631220Y1760418D01*
X1636682Y1761505D01*
X1641313Y1764599D01*
X1649841Y1773127D01*
X1702896D01*
X1705401Y1769377D01*
X1709391Y1766712D01*
X1711655Y1754833D01*
X1701886Y1745065D01*
X1698571Y1740103D01*
X1697407Y1734251D01*
Y1547271D01*
X1691335Y1541199D01*
X1679284D01*
X1678834Y1541500D01*
X1672244Y1542811D01*
X1623032D01*
X1616441Y1541500D01*
X1610855Y1537767D01*
X1607122Y1532181D01*
X1605811Y1525591D01*
X1607122Y1519001D01*
X1609295Y1515748D01*
X1607122Y1512496D01*
X1605811Y1505906D01*
X1601370Y1500495D01*
X1465411D01*
X1462906Y1504245D01*
X1454636Y1509770D01*
X1444882Y1511710D01*
X1435127Y1509770D01*
X1426858Y1504245D01*
X1421332Y1495975D01*
X1419392Y1486220D01*
X1421332Y1476466D01*
X1424505Y1471718D01*
X1426452Y1466001D01*
X1424881Y1457490D01*
X1422317Y1453652D01*
X1420376Y1443898D01*
X1422317Y1434143D01*
X1427842Y1425874D01*
X1436112Y1420348D01*
X1445866Y1418408D01*
X1455621Y1420348D01*
X1463890Y1425874D01*
X1469416Y1434143D01*
X1471356Y1443898D01*
X1478955Y1452261D01*
X1546795D01*
X1553373Y1442261D01*
X1552343Y1437085D01*
X1554283Y1427330D01*
X1559809Y1419061D01*
X1563338Y1416703D01*
Y1396749D01*
X1564502Y1390896D01*
X1567817Y1385935D01*
X1597440Y1356312D01*
X1602401Y1352996D01*
X1601333Y1343085D01*
X1591651Y1343173D01*
X1582576Y1346457D01*
X1580636Y1356211D01*
X1575111Y1364481D01*
X1566841Y1370006D01*
X1557087Y1371947D01*
X1547332Y1370006D01*
X1539063Y1364481D01*
X1533537Y1356211D01*
X1531597Y1346457D01*
X1533537Y1336702D01*
X1534106Y1335851D01*
X1529249Y1326589D01*
X1521460Y1326356D01*
X1520977Y1327079D01*
X1512707Y1332605D01*
X1502953Y1334545D01*
X1493198Y1332605D01*
X1484929Y1327079D01*
X1479403Y1318810D01*
X1477463Y1309055D01*
X1479403Y1299301D01*
X1484929Y1291031D01*
X1493198Y1285506D01*
X1502953Y1283565D01*
X1512707Y1285506D01*
X1520977Y1291031D01*
X1523482Y1294781D01*
X1592227D01*
X1595354Y1289370D01*
X1592228Y1283959D01*
X1536820D01*
X1536819Y1283959D01*
X1531357Y1282873D01*
X1526726Y1279779D01*
X1526726Y1279778D01*
X1510329Y1263381D01*
X1505906Y1264261D01*
X1496151Y1262321D01*
X1487881Y1256795D01*
X1482356Y1248526D01*
X1480416Y1238771D01*
X1482356Y1229017D01*
X1487881Y1220747D01*
X1496151Y1215222D01*
X1505906Y1213282D01*
X1515660Y1215222D01*
X1523929Y1220747D01*
X1529455Y1229017D01*
X1531395Y1238771D01*
X1530515Y1243194D01*
X1542732Y1255411D01*
X1555168D01*
X1561059Y1245411D01*
X1559738Y1238771D01*
X1561678Y1229017D01*
X1567204Y1220747D01*
X1575474Y1215222D01*
X1585228Y1213282D01*
X1594983Y1215222D01*
X1596765Y1216413D01*
X1605811Y1210630D01*
X1607122Y1204040D01*
X1609295Y1200787D01*
X1607122Y1197535D01*
X1606805Y1195945D01*
X1614605D01*
X1616441Y1194718D01*
X1623031Y1193407D01*
X1647638D01*
Y1185945D01*
X1606805D01*
X1607122Y1184355D01*
X1609295Y1181102D01*
X1607122Y1177850D01*
X1606805Y1176260D01*
X1647638D01*
X1688470D01*
X1688154Y1177850D01*
X1685981Y1181102D01*
X1688154Y1184355D01*
X1689465Y1190945D01*
X1692389Y1194508D01*
X1702343Y1194230D01*
X1705401Y1189653D01*
X1713671Y1184128D01*
X1723425Y1182187D01*
X1733180Y1184128D01*
X1741449Y1189653D01*
X1742300Y1190926D01*
X1747555Y1190759D01*
X1753335Y1189441D01*
X1755655Y1185970D01*
X1782323Y1159301D01*
Y1129567D01*
X1782323Y1129567D01*
Y1129488D01*
X1782323D01*
X1782323Y1119567D01*
Y1079567D01*
X1868071D01*
Y1107860D01*
X1875272Y1115061D01*
X1877190D01*
X1883043Y1116225D01*
X1888004Y1119540D01*
X1992271Y1223807D01*
X1995586Y1228768D01*
X1996751Y1234621D01*
Y1756732D01*
X2080866D01*
Y1814134D01*
X2079172D01*
X2074547Y1824134D01*
X2077683Y1828828D01*
X2079624Y1838583D01*
X2077683Y1848337D01*
X2072158Y1856607D01*
X2063888Y1862132D01*
X2054134Y1864072D01*
X2044379Y1862132D01*
X2036110Y1856607D01*
X2030584Y1848337D01*
X2028644Y1838583D01*
X2030584Y1828828D01*
X2033721Y1824134D01*
X2029096Y1814134D01*
X1996751D01*
Y1827418D01*
X1995586Y1833271D01*
X1992271Y1838233D01*
X1935741Y1894762D01*
X1938889Y1905584D01*
X1947158Y1911110D01*
X1952683Y1919379D01*
X1954624Y1929134D01*
X1952683Y1938888D01*
X1947158Y1947158D01*
X1941710Y1950798D01*
X1938275Y1954955D01*
X1935978Y1963458D01*
X1937000Y1968600D01*
X1935060Y1978354D01*
X1941799Y1986269D01*
X1947158Y1989850D01*
X1952683Y1998120D01*
X1954624Y2007874D01*
X1952683Y2017629D01*
X1947158Y2025898D01*
X1938888Y2031424D01*
X1929134Y2033364D01*
X1924711Y2032484D01*
X1857534Y2099660D01*
X1852903Y2102755D01*
X1847441Y2103841D01*
X1847440Y2103841D01*
X1381750D01*
X1379245Y2107591D01*
X1370975Y2113116D01*
X1361220Y2115057D01*
X1351466Y2113116D01*
X1341810Y2118691D01*
X1341335Y2120971D01*
X1344612Y2125876D01*
X1346553Y2135630D01*
X1344612Y2145385D01*
X1339087Y2153654D01*
X1330817Y2159180D01*
X1321063Y2161120D01*
X1311308Y2159180D01*
X1308760Y2157477D01*
X1298760Y2162822D01*
Y2219590D01*
X1297596Y2225443D01*
X1294281Y2230405D01*
X1223425Y2301260D01*
Y2368110D01*
X1353346Y2498031D01*
X2043307Y2498032D01*
X2173228Y2368110D01*
D02*
G37*
G36*
X1834583Y1539922D02*
X1834583Y1539923D01*
X1857846D01*
X1862973Y1532248D01*
X1871243Y1526723D01*
X1880997Y1524783D01*
X1885703Y1525719D01*
X1895703Y1518920D01*
Y1448647D01*
X1890917Y1443861D01*
X1875406D01*
X1868071Y1451196D01*
Y1479488D01*
X1783995D01*
Y1538157D01*
X1793150Y1540197D01*
Y1540197D01*
X1833203D01*
X1834583Y1539922D01*
D02*
G37*
G36*
X1779566Y1430333D02*
X1782323Y1428204D01*
Y1399754D01*
X1743924Y1361355D01*
X1740158Y1362104D01*
X1730403Y1360164D01*
X1722133Y1354638D01*
X1717783Y1348127D01*
X1710650Y1346908D01*
X1706592Y1347276D01*
X1705408Y1349221D01*
X1704322Y1354683D01*
X1701227Y1359314D01*
X1701227Y1359314D01*
X1698040Y1362501D01*
X1702182Y1372501D01*
X1706143D01*
X1711996Y1373666D01*
X1716958Y1376981D01*
X1772323Y1432346D01*
X1779566Y1430333D01*
D02*
G37*
G36*
X1782323Y1346314D02*
Y1329567D01*
X1782323D01*
Y1329488D01*
X1782323D01*
Y1307663D01*
X1772323Y1301741D01*
X1765748Y1303049D01*
X1755994Y1301109D01*
X1747724Y1295583D01*
X1742198Y1287314D01*
X1740258Y1277559D01*
X1742198Y1267805D01*
X1733861Y1262361D01*
X1731630Y1265701D01*
X1723360Y1271227D01*
X1713606Y1273167D01*
X1703851Y1271227D01*
X1699630Y1268406D01*
X1690550Y1271806D01*
X1687456Y1281736D01*
X1688154Y1282780D01*
X1688728Y1285667D01*
X1701227Y1298166D01*
X1701227Y1298166D01*
X1704322Y1302797D01*
X1705408Y1308260D01*
X1705408Y1308260D01*
Y1331907D01*
X1715408Y1332891D01*
X1716608Y1326860D01*
X1722133Y1318590D01*
X1730403Y1313065D01*
X1740158Y1311124D01*
X1749912Y1313065D01*
X1758181Y1318590D01*
X1763707Y1326860D01*
X1765647Y1336614D01*
X1764637Y1341694D01*
X1773084Y1350141D01*
X1782323Y1346314D01*
D02*
G37*
G36*
X1946163Y1413422D02*
Y1249240D01*
X1890886Y1193964D01*
X1875303D01*
X1868071Y1201196D01*
Y1229488D01*
X1868071D01*
Y1229567D01*
X1868071D01*
Y1269567D01*
X1868071Y1279488D01*
X1868071D01*
Y1279567D01*
X1868071D01*
Y1329488D01*
X1868071D01*
Y1329567D01*
X1868071D01*
Y1357860D01*
X1875406Y1365194D01*
X1877458D01*
X1883311Y1366359D01*
X1888272Y1369674D01*
X1936163Y1417564D01*
X1946163Y1413422D01*
D02*
G37*
G36*
X1677278Y1055569D02*
X1679859Y1044007D01*
X1570909Y935058D01*
X1529897D01*
X1524044Y933894D01*
X1519082Y930578D01*
X1371423Y782919D01*
X1360610Y786248D01*
X1360085Y789007D01*
X1626692Y1055614D01*
X1672244D01*
X1675933Y1056348D01*
X1677278Y1055569D01*
D02*
G37*
G36*
X1340927Y475523D02*
Y387690D01*
X1331688Y383863D01*
X1283944Y431607D01*
X1331688Y479350D01*
X1340927Y475523D01*
D02*
G37*
%LPC*%
G36*
X1546417Y1749173D02*
X1475236D01*
Y1730747D01*
X1428087D01*
X1428087Y1730747D01*
X1426707Y1730472D01*
X1386653D01*
Y1677008D01*
Y1657559D01*
X1415354D01*
X1444055D01*
Y1677008D01*
Y1702198D01*
X1475236D01*
Y1685866D01*
X1546417D01*
Y1749173D01*
D02*
G37*
G36*
X2110236Y1748496D02*
X2100945Y1747273D01*
X2092287Y1743687D01*
X2084853Y1737982D01*
X2079148Y1730547D01*
X2075562Y1721889D01*
X2074339Y1712599D01*
X2075562Y1703307D01*
X2079148Y1694650D01*
X2084853Y1687215D01*
X2092287Y1681510D01*
X2100945Y1677924D01*
X2110236Y1676701D01*
X2119527Y1677924D01*
X2128185Y1681510D01*
X2135620Y1687215D01*
X2141324Y1694650D01*
X2144911Y1703307D01*
X2146134Y1712599D01*
X2144911Y1721889D01*
X2141324Y1730547D01*
X2135620Y1737982D01*
X2128185Y1743687D01*
X2119527Y1747273D01*
X2110236Y1748496D01*
D02*
G37*
G36*
X1444055Y1647559D02*
X1420354D01*
Y1625827D01*
X1444055D01*
Y1647559D01*
D02*
G37*
G36*
X1410354D02*
X1386653D01*
Y1625827D01*
X1410354D01*
Y1647559D01*
D02*
G37*
G36*
X2051181Y1688482D02*
X2041119Y1687158D01*
X2031743Y1683274D01*
X2023692Y1677096D01*
X2017514Y1669044D01*
X2013630Y1659668D01*
X2012305Y1649606D01*
X2013630Y1639544D01*
X2017514Y1630168D01*
X2023692Y1622117D01*
X2031743Y1615939D01*
X2041119Y1612055D01*
X2051181Y1610730D01*
X2061243Y1612055D01*
X2070619Y1615939D01*
X2078671Y1622117D01*
X2084849Y1630168D01*
X2088732Y1639544D01*
X2090057Y1649606D01*
X2088732Y1659668D01*
X2084849Y1669044D01*
X2078671Y1677096D01*
X2070619Y1683274D01*
X2061243Y1687158D01*
X2051181Y1688482D01*
D02*
G37*
G36*
X1546417Y1658622D02*
X1475236D01*
Y1595315D01*
X1546417D01*
Y1608722D01*
X1558892D01*
X1560716Y1605992D01*
X1568986Y1600466D01*
X1578740Y1598526D01*
X1588495Y1600466D01*
X1596764Y1605992D01*
X1602290Y1614261D01*
X1604230Y1624016D01*
X1602290Y1633770D01*
X1596764Y1642040D01*
X1588495Y1647565D01*
X1578740Y1649505D01*
X1568986Y1647565D01*
X1560716Y1642040D01*
X1558892Y1639310D01*
X1546417D01*
Y1658622D01*
D02*
G37*
G36*
X1973425Y1024505D02*
X1963671Y1022565D01*
X1955401Y1017040D01*
X1954832Y1016188D01*
X1942805D01*
X1942237Y1017040D01*
X1933967Y1022565D01*
X1924213Y1024505D01*
X1914458Y1022565D01*
X1906189Y1017040D01*
X1905620Y1016188D01*
X1893593D01*
X1893024Y1017040D01*
X1884755Y1022565D01*
X1875000Y1024505D01*
X1865245Y1022565D01*
X1856976Y1017040D01*
X1856407Y1016188D01*
X1844380D01*
X1843811Y1017040D01*
X1835542Y1022565D01*
X1825787Y1024505D01*
X1816033Y1022565D01*
X1807763Y1017040D01*
X1805258Y1013290D01*
X1786744D01*
X1786744Y1013290D01*
X1781281Y1012203D01*
X1776650Y1009109D01*
X1776650Y1009109D01*
X1568647Y801106D01*
X1565553Y796475D01*
X1564466Y791012D01*
X1564466Y791012D01*
Y645293D01*
X1560716Y642788D01*
X1555191Y634518D01*
X1553250Y624764D01*
X1555191Y615009D01*
X1560716Y606740D01*
X1568986Y601214D01*
X1578740Y599274D01*
X1588495Y601214D01*
X1596764Y606740D01*
X1602290Y615009D01*
X1604230Y624764D01*
X1602290Y634518D01*
X1596764Y642788D01*
X1593014Y645293D01*
Y754193D01*
X1602288Y759817D01*
X1603014Y759803D01*
X1612205Y757975D01*
X1616930Y758915D01*
X1626930Y752125D01*
Y699642D01*
X1621740Y696174D01*
X1616214Y687904D01*
X1614274Y678150D01*
X1616214Y668395D01*
X1621740Y660126D01*
X1630009Y654600D01*
X1639764Y652660D01*
X1641381Y652981D01*
X1649111Y646638D01*
Y547104D01*
X1645362Y544599D01*
X1639836Y536329D01*
X1637896Y526575D01*
X1639836Y516820D01*
X1644599Y509692D01*
X1643596Y503762D01*
X1641820Y498943D01*
X1633551Y493418D01*
X1628025Y485148D01*
X1626085Y475394D01*
X1628025Y465639D01*
X1633551Y457370D01*
X1641820Y451844D01*
X1651575Y449904D01*
X1661329Y451844D01*
X1669599Y457370D01*
X1675124Y465639D01*
X1677065Y475394D01*
X1676457Y478447D01*
X1812703Y614693D01*
X2089810D01*
X2092315Y610944D01*
X2100585Y605418D01*
X2110339Y603478D01*
X2120094Y605418D01*
X2128363Y610944D01*
X2133889Y619213D01*
X2135829Y628968D01*
X2133889Y638722D01*
X2128363Y646992D01*
X2120094Y652517D01*
X2118558Y652823D01*
X2116171Y658585D01*
X2118112Y668340D01*
X2116171Y678094D01*
X2121927Y687480D01*
X2127237Y691028D01*
X2132763Y699298D01*
X2134703Y709052D01*
X2132763Y718807D01*
X2127237Y727076D01*
X2132426Y735636D01*
X2134873Y739298D01*
X2136813Y749052D01*
X2134873Y758807D01*
X2129347Y767076D01*
X2121078Y772602D01*
X2111323Y774542D01*
X2106900Y773662D01*
X2049603Y830960D01*
X2044972Y834054D01*
X2039510Y835140D01*
X2039509Y835140D01*
X1731159D01*
X1728654Y838890D01*
X1724648Y841567D01*
X1722378Y853439D01*
X1734428Y865490D01*
X1854173D01*
X1854173Y865489D01*
X1859636Y866576D01*
X1864267Y869670D01*
X1969002Y974406D01*
X1973425Y973526D01*
X1983180Y975466D01*
X1991449Y980992D01*
X1996975Y989261D01*
X1998915Y999016D01*
X1996975Y1008770D01*
X1991449Y1017040D01*
X1983180Y1022565D01*
X1973425Y1024505D01*
D02*
G37*
G36*
X2051181Y948325D02*
X2041119Y947000D01*
X2031743Y943116D01*
X2023692Y936938D01*
X2017514Y928887D01*
X2013630Y919511D01*
X2012305Y909449D01*
X2013630Y899387D01*
X2017514Y890011D01*
X2023692Y881960D01*
X2031743Y875781D01*
X2041119Y871898D01*
X2051181Y870573D01*
X2061243Y871898D01*
X2070619Y875781D01*
X2078671Y881960D01*
X2084849Y890011D01*
X2088732Y899387D01*
X2090057Y909449D01*
X2088732Y919511D01*
X2084849Y928887D01*
X2078671Y936938D01*
X2070619Y943116D01*
X2061243Y947000D01*
X2051181Y948325D01*
D02*
G37*
G36*
X2110236Y882354D02*
X2100945Y881131D01*
X2092287Y877545D01*
X2084853Y871840D01*
X2079148Y864405D01*
X2075562Y855748D01*
X2074339Y846457D01*
X2075562Y837166D01*
X2079148Y828508D01*
X2084853Y821073D01*
X2092287Y815369D01*
X2100945Y811782D01*
X2110236Y810559D01*
X2119527Y811782D01*
X2128185Y815369D01*
X2135620Y821073D01*
X2141324Y828508D01*
X2144911Y837166D01*
X2146134Y846457D01*
X2144911Y855748D01*
X2141324Y864405D01*
X2135620Y871840D01*
X2128185Y877545D01*
X2119527Y881131D01*
X2110236Y882354D01*
D02*
G37*
G36*
X1460787Y581614D02*
X1437087D01*
Y559882D01*
X1460787D01*
Y581614D01*
D02*
G37*
G36*
X1427087D02*
X1403386D01*
Y559882D01*
X1427087D01*
Y581614D01*
D02*
G37*
%LPD*%
G36*
X1807763Y980992D02*
X1816033Y975466D01*
X1816941Y975286D01*
X1820232Y964435D01*
X1777835Y922038D01*
X1743019D01*
X1739192Y931277D01*
X1792656Y984741D01*
X1805258D01*
X1807763Y980992D01*
D02*
G37*
G36*
X2086713Y753475D02*
X2085834Y749052D01*
X2087774Y739298D01*
X2092942Y731563D01*
X2090702Y727675D01*
X2087334Y723327D01*
X1742517D01*
X1737054Y722240D01*
X1732423Y719146D01*
X1732423Y719146D01*
X1715053Y701775D01*
X1710630Y702655D01*
X1705904Y701715D01*
X1695904Y708505D01*
Y789527D01*
X1705904Y796316D01*
X1710630Y795376D01*
X1720384Y797317D01*
X1728654Y802842D01*
X1731159Y806592D01*
X2033597D01*
X2086713Y753475D01*
D02*
G37*
G36*
X2062091Y693727D02*
X2065861Y684778D01*
X2063749Y682614D01*
X1785466D01*
X1785466Y682614D01*
X1780003Y681527D01*
X1775372Y678433D01*
X1775372Y678433D01*
X1697336Y600397D01*
X1692913Y601277D01*
X1687660Y600232D01*
X1677660Y606774D01*
Y652426D01*
X1685595Y659832D01*
X1692606Y659141D01*
X1700875Y653616D01*
X1710630Y651676D01*
X1720384Y653616D01*
X1728654Y659141D01*
X1734179Y667411D01*
X1736120Y677165D01*
X1735240Y681588D01*
X1748429Y694778D01*
X2060771D01*
X2062091Y693727D01*
D02*
G37*
G36*
X2062729Y653242D02*
X2057399Y643242D01*
X1806791D01*
X1801328Y642155D01*
X1796697Y639061D01*
X1796697Y639061D01*
X1732377Y574740D01*
X1721776Y578282D01*
X1721009Y583697D01*
X1791378Y654065D01*
X2062176D01*
X2062729Y653242D01*
D02*
G37*
D10*
X2002953Y1785433D02*
D03*
X2054134D02*
D03*
X1939960D02*
D03*
X1888779D02*
D03*
X899606Y2433071D02*
D03*
X950787D02*
D03*
X899606Y2330709D02*
D03*
X950787D02*
D03*
X899606Y2232284D02*
D03*
X950787D02*
D03*
X899606Y2129921D02*
D03*
X950787D02*
D03*
X899606Y2031496D02*
D03*
X950787D02*
D03*
X899606Y1929134D02*
D03*
X950787D02*
D03*
X899606Y1830709D02*
D03*
X950787D02*
D03*
X899606Y1728347D02*
D03*
X950787D02*
D03*
X899606Y1629921D02*
D03*
X950787D02*
D03*
X899606Y1527559D02*
D03*
X950787D02*
D03*
X899606Y1429134D02*
D03*
X950787D02*
D03*
X899606Y1326772D02*
D03*
X950787D02*
D03*
X899606Y1125984D02*
D03*
X950787D02*
D03*
X899606Y1228347D02*
D03*
X950787D02*
D03*
X899606Y1027559D02*
D03*
X950787D02*
D03*
X899606Y925197D02*
D03*
X950787D02*
D03*
X899606Y826772D02*
D03*
X950787D02*
D03*
X899606Y724409D02*
D03*
X950787D02*
D03*
X899606Y625984D02*
D03*
X950787D02*
D03*
X899606Y523622D02*
D03*
X950787D02*
D03*
X899606Y425197D02*
D03*
X950787D02*
D03*
X899606Y322835D02*
D03*
X950787D02*
D03*
X899606Y224410D02*
D03*
X950787D02*
D03*
X899606Y122047D02*
D03*
X950787D02*
D03*
D11*
X1821850Y1682087D02*
D03*
Y1733268D02*
D03*
Y1618110D02*
D03*
Y1566929D02*
D03*
X1415354Y1652559D02*
D03*
Y1703740D02*
D03*
X1432087Y586614D02*
D03*
Y637795D02*
D03*
X1342520Y143701D02*
D03*
Y194882D02*
D03*
X472894Y201772D02*
D03*
Y150591D02*
D03*
Y402559D02*
D03*
Y351378D02*
D03*
Y603346D02*
D03*
Y552165D02*
D03*
Y804134D02*
D03*
Y752953D02*
D03*
Y1004921D02*
D03*
Y953740D02*
D03*
Y1205709D02*
D03*
Y1154528D02*
D03*
Y1406496D02*
D03*
Y1355315D02*
D03*
Y1607284D02*
D03*
Y1556102D02*
D03*
Y1808071D02*
D03*
Y1756890D02*
D03*
Y2008858D02*
D03*
Y1957677D02*
D03*
Y2209646D02*
D03*
Y2158465D02*
D03*
Y2410433D02*
D03*
Y2359252D02*
D03*
D12*
X1825197Y1204528D02*
D03*
Y1454528D02*
D03*
X2161024D02*
D03*
X1825197Y1104528D02*
D03*
Y1154528D02*
D03*
Y1254528D02*
D03*
Y1304528D02*
D03*
Y1354528D02*
D03*
Y1404528D02*
D03*
X2161024D02*
D03*
Y1354528D02*
D03*
Y1304528D02*
D03*
Y1254528D02*
D03*
Y1204528D02*
D03*
Y1154528D02*
D03*
Y1104528D02*
D03*
D13*
X1584646Y1945866D02*
D03*
D14*
X1510827Y1717520D02*
D03*
Y1626968D02*
D03*
D15*
X1647638Y1407480D02*
D03*
X1360236Y1525591D02*
D03*
Y1505906D02*
D03*
Y1486220D02*
D03*
Y1466535D02*
D03*
Y1446850D02*
D03*
Y1427165D02*
D03*
Y1407480D02*
D03*
Y1387795D02*
D03*
Y1368110D02*
D03*
Y1348425D02*
D03*
Y1328740D02*
D03*
Y1309055D02*
D03*
Y1289370D02*
D03*
Y1269685D02*
D03*
Y1250000D02*
D03*
Y1230315D02*
D03*
Y1210630D02*
D03*
Y1190945D02*
D03*
Y1171260D02*
D03*
Y1151575D02*
D03*
Y1131890D02*
D03*
Y1112205D02*
D03*
Y1092520D02*
D03*
Y1072835D02*
D03*
X1647638Y1525591D02*
D03*
Y1505906D02*
D03*
Y1486220D02*
D03*
Y1466535D02*
D03*
Y1446850D02*
D03*
Y1427165D02*
D03*
Y1387795D02*
D03*
Y1368110D02*
D03*
Y1348425D02*
D03*
Y1328740D02*
D03*
Y1309055D02*
D03*
Y1289370D02*
D03*
Y1269685D02*
D03*
Y1250000D02*
D03*
Y1230315D02*
D03*
Y1210630D02*
D03*
Y1190945D02*
D03*
Y1171260D02*
D03*
Y1151575D02*
D03*
Y1131890D02*
D03*
Y1112205D02*
D03*
Y1092520D02*
D03*
Y1072835D02*
D03*
D16*
X1431102Y740158D02*
D03*
D17*
X1192913Y195866D02*
D03*
Y142716D02*
D03*
X1047697Y143701D02*
D03*
Y196850D02*
D03*
Y344488D02*
D03*
Y397638D02*
D03*
Y545276D02*
D03*
Y598425D02*
D03*
Y746063D02*
D03*
Y799213D02*
D03*
Y946850D02*
D03*
Y1000000D02*
D03*
Y1147638D02*
D03*
Y1200787D02*
D03*
Y1348425D02*
D03*
Y1401575D02*
D03*
Y1549213D02*
D03*
Y1602362D02*
D03*
Y1750000D02*
D03*
Y1803150D02*
D03*
Y1950787D02*
D03*
Y2003937D02*
D03*
Y2151575D02*
D03*
Y2204724D02*
D03*
Y2352362D02*
D03*
Y2405512D02*
D03*
D18*
X581162Y2381890D02*
D03*
X671713D02*
D03*
X581162Y2181102D02*
D03*
X671713D02*
D03*
X581162Y1980315D02*
D03*
X671713D02*
D03*
X581162Y1779528D02*
D03*
X671713D02*
D03*
X581162Y1578740D02*
D03*
X671713D02*
D03*
X581162Y1377953D02*
D03*
X671713D02*
D03*
X581162Y1177165D02*
D03*
X671713D02*
D03*
X581162Y976378D02*
D03*
X671713D02*
D03*
X581162Y775591D02*
D03*
X671713D02*
D03*
X581162Y574803D02*
D03*
X671713D02*
D03*
X581162Y374016D02*
D03*
X671713D02*
D03*
X581162Y173228D02*
D03*
X671713D02*
D03*
D19*
X778996Y2346850D02*
D03*
X759311Y2414961D02*
D03*
X798681D02*
D03*
X778996Y2146063D02*
D03*
X759311Y2214173D02*
D03*
X798681D02*
D03*
X778996Y1945276D02*
D03*
X759311Y2013386D02*
D03*
X798681D02*
D03*
X778996Y1744488D02*
D03*
X759311Y1812598D02*
D03*
X798681D02*
D03*
X778996Y1543701D02*
D03*
X759311Y1611811D02*
D03*
X798681D02*
D03*
X778996Y1342913D02*
D03*
X759311Y1411024D02*
D03*
X798681D02*
D03*
X778996Y1142126D02*
D03*
X759311Y1210236D02*
D03*
X798681D02*
D03*
X778996Y941339D02*
D03*
X759311Y1009449D02*
D03*
X798681D02*
D03*
X778996Y740551D02*
D03*
X759311Y808661D02*
D03*
X798681D02*
D03*
X778996Y539764D02*
D03*
X759311Y607874D02*
D03*
X798681D02*
D03*
X778996Y338976D02*
D03*
X759311Y407087D02*
D03*
X798681D02*
D03*
X778996Y138189D02*
D03*
X759311Y206299D02*
D03*
X798681D02*
D03*
D20*
X1786744Y999016D02*
X1825787D01*
X1785466Y668340D02*
X2092622D01*
X1385827Y1986220D02*
X1397638D01*
X1451465Y2040047D01*
X1361220Y2089567D02*
X1847441D01*
X1929134Y2007874D01*
X1353347Y1969275D02*
Y2056102D01*
X1321063Y2088386D02*
X1353347Y2056102D01*
X1321063Y2088386D02*
Y2135630D01*
X1383617Y1880489D02*
Y1939005D01*
X1353347Y1969275D02*
X1383617Y1939005D01*
X1323327Y1979496D02*
X1369617Y1933207D01*
X1323327Y1979496D02*
Y2038878D01*
X1369617Y1874690D02*
Y1933207D01*
X1320866Y1903642D02*
X1449815Y1774693D01*
X1320866Y1903642D02*
Y1940945D01*
X1647638Y1367126D02*
Y1368110D01*
Y1348425D02*
Y1367126D01*
Y1290575D02*
X1673449D01*
X1765748Y1708661D02*
X1771701D01*
X1538113Y885554D02*
X1542323Y889764D01*
X1538113Y864885D02*
Y885554D01*
X1721578Y1209524D02*
X1723425Y1207677D01*
X1585228Y1238771D02*
X1591181D01*
X1540354Y1128406D02*
X1542733Y1130784D01*
X1535433Y1831693D02*
Y1837646D01*
X1548291Y1850504D01*
X1619094Y1945866D02*
Y1997047D01*
X1641205Y812252D02*
X1722717Y893764D01*
X1818961D02*
X1924213Y999016D01*
X1722717Y893764D02*
X1818961D01*
X1455614Y1788693D02*
X1624020D01*
X1369617Y1874690D02*
X1455614Y1788693D01*
X1461413Y1802693D02*
X1618221D01*
X1451465Y2040047D02*
X1840063D01*
X1657177Y1821850D02*
X1749016D01*
X1691941Y1231158D02*
X1708460Y1247677D01*
X1627205Y818051D02*
X1716918Y907764D01*
X1783748D01*
X1875000Y999016D01*
X1681630Y832878D02*
X1728515Y879764D01*
X1854173D02*
X1973425Y999016D01*
X1641205Y679591D02*
Y812252D01*
X1383617Y1880489D02*
X1461413Y1802693D01*
X1742517Y709052D02*
X2109213D01*
X1415354Y1703740D02*
X1428087Y1716472D01*
X1509780D01*
X1510827Y1717520D01*
X1548291Y1927228D02*
X1566929Y1945866D01*
X1542733Y1130784D02*
X1646532D01*
X1647638Y1131890D01*
X1502953Y1309055D02*
X1647638D01*
X1557087Y1346457D02*
X1559837D01*
X1536819Y1269685D02*
X1647638D01*
X1591181Y1238771D02*
X1602410Y1250000D01*
X1647638D01*
X1577554Y1328740D02*
X1647638D01*
X1559837Y1346457D02*
X1577554Y1328740D01*
X1691134Y1308260D02*
Y1349220D01*
X1618221Y1802693D02*
X1668457Y1852929D01*
X1631220Y1774693D02*
X1643928Y1787401D01*
X1449815Y1774693D02*
X1631220D01*
X1566929Y1945866D02*
X1619094D01*
X1548291Y1850504D02*
Y1927228D01*
X1668457Y1852929D02*
X1778543D01*
X1624020Y1788693D02*
X1657177Y1821850D01*
X1643928Y1787401D02*
X1723425D01*
X1829398Y1929134D02*
X1929134D01*
X1555575Y2026047D02*
X1732485D01*
X1829398Y1929134D01*
X1417323Y1887795D02*
X1555575Y2026047D01*
X1840063Y2040047D02*
X1911511Y1968600D01*
X1647638Y1210630D02*
X1648744Y1209524D01*
X1765748Y1196063D02*
Y1277559D01*
Y1196063D02*
X1807284Y1154528D01*
X1648744Y1209524D02*
X1721578D01*
X1681630Y679004D02*
Y832878D01*
X1663386Y660760D02*
X1681630Y679004D01*
X1663386Y526575D02*
Y660760D01*
X1692913Y575787D02*
X1785466Y668340D01*
X1710630Y677165D02*
X1742517Y709052D01*
X1728515Y879764D02*
X1854173D01*
X1648481Y1231158D02*
X1691941D01*
X1708460Y1247677D02*
X1713606D01*
X1807284Y1404528D02*
X1825197D01*
X1354497Y1527110D02*
X1360236D01*
X1353347Y1528260D02*
Y1603347D01*
Y1528260D02*
X1354497Y1527110D01*
X1885827Y1788386D02*
X1888779Y1785433D01*
X1885827Y1788386D02*
Y1838583D01*
X1740158Y1337402D02*
X1807284Y1404528D01*
X1740158Y1336614D02*
Y1337402D01*
X1807284Y1154528D02*
X1825197D01*
X1647638Y1230315D02*
X1648481Y1231158D01*
X1647638Y1290575D02*
Y1309055D01*
X1673449Y1290575D02*
X1691134Y1308260D01*
X1672244Y1368110D02*
X1691134Y1349220D01*
X1647638Y1368110D02*
X1672244D01*
X1444882Y1486220D02*
X1647638D01*
X1445866Y1443898D02*
X1468504Y1466535D01*
X1647638D01*
X1431102Y638779D02*
X1432087Y637795D01*
X1431102Y638779D02*
Y757874D01*
X1538113Y864885D01*
X1578740Y791012D02*
X1786744Y999016D01*
X1612205Y789418D02*
X1627205Y804418D01*
X1612205Y783465D02*
Y789418D01*
X1627205Y804418D02*
Y818051D01*
X1578740Y624764D02*
Y791012D01*
X1505906Y1238771D02*
X1536819Y1269685D01*
X2039510Y820866D02*
X2111323Y749052D01*
X1710630Y820866D02*
X2039510D01*
X1639764Y678150D02*
X1641205Y679591D01*
X1651575Y475394D02*
X1653217D01*
X1806791Y628968D01*
X1711614Y1112205D02*
X1732284Y1091535D01*
X1647638Y1112205D02*
X1711614D01*
X1806791Y628968D02*
X2110339D01*
X1771701Y1708661D02*
X1783575Y1720535D01*
X2054134Y1785433D02*
Y1838583D01*
X1877073Y1554197D02*
X1880997Y1550273D01*
X1834583Y1554197D02*
X1877073D01*
X1821850Y1566929D02*
X1834583Y1554197D01*
X1809118Y1720535D02*
X1821850Y1733268D01*
X1783575Y1720535D02*
X1809118D01*
D21*
X900059Y2321850D02*
Y2332224D01*
Y1518701D02*
Y1529075D01*
Y313976D02*
Y324350D01*
X1124016Y143701D02*
X1125000Y144685D01*
X1123032D02*
X1124016Y143701D01*
X900059Y1920276D02*
Y1930650D01*
Y1117126D02*
Y1127500D01*
X706353Y75787D02*
X1272638D01*
X639059Y143082D02*
X706353Y75787D01*
X639059Y143082D02*
Y143271D01*
X624232Y158098D02*
X639059Y143271D01*
X1272638Y75787D02*
X1340551Y143701D01*
X759311Y2414961D02*
Y2419882D01*
Y2410039D02*
Y2414961D01*
X1608254Y1367126D02*
X1647638D01*
X1578631Y1396749D02*
X1608254Y1367126D01*
X1578631Y1396749D02*
Y1436286D01*
X1821850Y1682087D02*
X1823819D01*
X1819882D02*
X1821850D01*
X1869071Y1380488D02*
X1877458D01*
X1869071Y1428567D02*
X1897252D01*
X1910997Y1442312D01*
X1821850Y1618110D02*
X1823819D01*
X1819882D02*
X1821850D01*
X2002953Y1785433D02*
Y1787401D01*
Y1783465D02*
Y1785433D01*
X1868937Y1130354D02*
X1877190D01*
X1868937Y1178670D02*
X1897221D01*
X1961457Y1242905D01*
Y1765874D01*
X1939960Y1785433D02*
Y1787401D01*
Y1783465D02*
Y1785433D01*
X1868937Y1178670D02*
Y1178701D01*
X1843110Y1204528D02*
X1868937Y1178701D01*
X1544284Y919764D02*
X1577244D01*
X1701227Y1043747D01*
Y1082237D01*
X1691134Y1092331D02*
X1701227Y1082237D01*
X1647827Y1092331D02*
X1691134D01*
X1647638Y1092520D02*
X1647827Y1092331D01*
X1529897Y919764D02*
X1544284D01*
X1329292Y1506629D02*
X1359513D01*
X1283466Y1552455D02*
X1329292Y1506629D01*
X1283466Y1552455D02*
Y2219590D01*
X1326350Y1486944D02*
X1359513D01*
X1267466Y1545827D02*
X1326350Y1486944D01*
X1267466Y1545827D02*
Y2193164D01*
X1324130Y1466535D02*
X1332677D01*
X1251466Y1539200D02*
X1324130Y1466535D01*
X1251466Y1539200D02*
Y2150561D01*
X1321188Y1446850D02*
X1332677D01*
X1235466Y1532572D02*
X1321188Y1446850D01*
X1235466Y1532572D02*
Y2109022D01*
X1318246Y1427165D02*
X1332677D01*
X1219466Y1525945D02*
X1318246Y1427165D01*
X1219466Y1525945D02*
Y1981774D01*
X1315303Y1407480D02*
X1332677D01*
X1203466Y1519318D02*
X1315303Y1407480D01*
X1203466Y1519318D02*
Y1940235D01*
X1312361Y1387795D02*
X1332677D01*
X1187466Y1512690D02*
X1312361Y1387795D01*
X1187466Y1512690D02*
Y1812987D01*
X1309419Y1368110D02*
X1332677D01*
X1171466Y1506063D02*
X1309419Y1368110D01*
X1171466Y1506063D02*
Y1771447D01*
X1306476Y1348425D02*
X1332677D01*
X1155466Y1499435D02*
X1306476Y1348425D01*
X1155466Y1499435D02*
Y1644199D01*
X1303534Y1328740D02*
X1332677D01*
X1084646Y1547628D02*
X1303534Y1328740D01*
X1084646Y1547628D02*
Y1659449D01*
X1669291Y1944882D02*
Y1996063D01*
X1579724Y1855315D02*
X1669291Y1944882D01*
X1579724Y1831693D02*
Y1855315D01*
X1217354Y712965D02*
Y1002767D01*
X1323850Y1131890D02*
X1332677D01*
X1185354Y1016021D02*
X1320908Y1151575D01*
X1049665Y1750000D02*
X1155466Y1644199D01*
X1779865Y1660099D02*
X1802292D01*
X754484Y1568213D02*
X769232Y1553465D01*
X754484Y1769001D02*
X769232Y1754252D01*
X754484Y2170575D02*
X769232Y2155827D01*
X754484Y2371363D02*
X769232Y2356614D01*
X754484Y1969788D02*
X769232Y1955039D01*
X754484Y1367426D02*
X769232Y1352677D01*
X900059Y715551D02*
Y725925D01*
X759232Y1161890D02*
X769232Y1151890D01*
X754484Y363489D02*
X769232Y348740D01*
X1004047Y456803D02*
X1007874Y460630D01*
X759232Y961102D02*
X769232Y951102D01*
X1002462Y1059055D02*
X1007874D01*
X984667Y1041260D02*
X1002462Y1059055D01*
X962520Y1041260D02*
X984667D01*
X1002462Y858268D02*
X1007874D01*
X984667Y840472D02*
X1002462Y858268D01*
X962520Y840472D02*
X984667D01*
X1000493Y1259842D02*
X1005905D01*
X982698Y1242047D02*
X1000493Y1259842D01*
X1002462Y255905D02*
X1007874D01*
X984667Y238110D02*
X1002462Y255905D01*
X962520Y238110D02*
X984667D01*
X759232Y760315D02*
X769232Y750315D01*
X1825197Y1454528D02*
X1843110D01*
X1869071Y1428567D01*
X1825197Y1354528D02*
X1843110D01*
X1869071Y1380488D01*
X1877458D02*
X1930997Y1434028D01*
X1788150Y1640099D02*
X1802292D01*
X1808150Y1670354D02*
X1819882Y1682087D01*
X1808150Y1665956D02*
Y1670354D01*
X1577833Y1437085D02*
X1578631Y1436286D01*
X1000493Y1458661D02*
X1005905D01*
X984667Y1442835D02*
X1000493Y1458661D01*
X962520Y1442835D02*
X984667D01*
X1000493Y1659449D02*
X1005905D01*
X984667Y1643622D02*
X1000493Y1659449D01*
X962520Y1643622D02*
X984667D01*
X998525Y1858268D02*
X1003937D01*
X984667Y1844409D02*
X998525Y1858268D01*
X962520Y1844409D02*
X984667D01*
X998525Y2059055D02*
X1003937D01*
X984667Y2045197D02*
X998525Y2059055D01*
X962520Y2045197D02*
X984667D01*
X759232Y559528D02*
X769232Y549528D01*
X998525Y2259843D02*
X1003937D01*
X984667Y2245984D02*
X998525Y2259843D01*
X962520Y2245984D02*
X984667D01*
X1002462Y657480D02*
X1007874D01*
X984667Y639685D02*
X1002462Y657480D01*
X962520Y639685D02*
X984667D01*
X759232Y157953D02*
X769232Y147953D01*
X1048681Y144685D02*
X1123032D01*
X1125000D02*
X1190945D01*
X1201354Y1009394D02*
X1323850Y1131890D01*
X1201354Y776157D02*
Y1009394D01*
X1082677Y657480D02*
X1201354Y776157D01*
X1049665Y746063D02*
X1185354Y881752D01*
Y1016021D01*
X1049665Y1549213D02*
X1289823Y1309055D01*
X1332677D01*
X1359513Y1506629D02*
X1360236Y1505906D01*
X1697670Y1525906D02*
X1712701Y1540937D01*
X1647638Y1505906D02*
X1705954D01*
X1647638Y1525591D02*
X1647953Y1525906D01*
X1049665Y2151575D02*
X1219466Y1981774D01*
X1049665Y2352362D02*
X1251466Y2150561D01*
X1110261Y2392795D02*
X1283466Y2219590D01*
X1359513Y1486944D02*
X1360236Y1486220D01*
X1125984Y2334646D02*
X1267466Y2193164D01*
X1250000Y1289370D02*
X1332677D01*
X1047697Y1401575D02*
Y1549213D01*
X950787Y1431102D02*
X962520Y1442835D01*
X759311Y2410039D02*
X824941Y2344410D01*
X1510827Y1626968D02*
X1513780Y1624016D01*
X1578740D01*
X1625894Y1851378D02*
X1722441Y1947925D01*
Y1995079D01*
X1748701Y1458637D02*
Y1628934D01*
X1647953Y1407795D02*
X1697859D01*
X1768701Y1450353D02*
Y1620650D01*
X1788150Y1640099D01*
X1825197Y1204528D02*
X1843110D01*
X1825197Y1104528D02*
X1843110D01*
X1981457Y1234621D02*
Y1765874D01*
X1920292Y1888583D02*
X1981457Y1827418D01*
X1865116Y1888583D02*
X1920292D01*
X1776748Y1798298D02*
Y1800215D01*
X1712701Y1734251D02*
X1776748Y1798298D01*
Y1800215D02*
X1865116Y1888583D01*
X1873400Y1868583D02*
X1912008D01*
X1961457Y1819134D01*
X1732701Y1725966D02*
X1796748Y1790014D01*
Y1791931D02*
X1873400Y1868583D01*
X1705954Y1505906D02*
X1732701Y1532652D01*
X1835551Y1634241D02*
X1841409Y1640099D01*
X1835551Y1629843D02*
Y1634241D01*
X1823819Y1618110D02*
X1835551Y1629843D01*
X1808150D02*
Y1634241D01*
X1841409Y1640099D02*
X1855551D01*
X1910997Y1584652D01*
Y1442312D02*
Y1584652D01*
X1808150Y1629843D02*
X1819882Y1618110D01*
X1647638Y1387795D02*
X1706143D01*
X1768701Y1450353D01*
X1802292Y1640099D02*
X1808150Y1634241D01*
X1823819Y1682087D02*
X1835551Y1670354D01*
X1697859Y1407795D02*
X1748701Y1458637D01*
X1835551Y1665956D02*
Y1670354D01*
X1863835Y1660099D02*
X1930997Y1592937D01*
X1835551Y1665956D02*
X1841409Y1660099D01*
X1930997Y1434028D02*
Y1592937D01*
X1841409Y1660099D02*
X1863835D01*
X1802292D02*
X1808150Y1665956D01*
X1647638Y1407480D02*
X1647953Y1407795D01*
X1748701Y1628934D02*
X1779865Y1660099D01*
X1356220Y206614D02*
Y746088D01*
X1047697Y143701D02*
X1048681Y144685D01*
X1356220Y746088D02*
X1529897Y919764D01*
X1877190Y1130354D02*
X1981457Y1234621D01*
X1342520Y194882D02*
X1344488D01*
X1356220Y206614D01*
X1843110Y1104528D02*
X1868937Y1130354D01*
X1961457Y1804992D02*
Y1819134D01*
X1732701Y1532652D02*
Y1725966D01*
X1647953Y1525906D02*
X1697670D01*
X1712701Y1540937D02*
Y1734251D01*
X1991220Y1771732D02*
X2002953Y1783465D01*
X1987314Y1771732D02*
X1991220D01*
X1981457Y1765874D02*
X1987314Y1771732D01*
X1955599D02*
X1961457Y1765874D01*
X1951693Y1771732D02*
X1955599D01*
X1939960Y1783465D02*
X1951693Y1771732D01*
X1939960Y1787401D02*
X1951693Y1799134D01*
X1955599D01*
X1961457Y1804992D01*
X1796748Y1790014D02*
Y1791931D01*
X1991220Y1799134D02*
X2002953Y1787401D01*
X1987314Y1799134D02*
X1991220D01*
X1981457Y1804992D02*
X1987314Y1799134D01*
X1981457Y1804992D02*
Y1827418D01*
X887874Y336536D02*
X900059Y324350D01*
X759311Y201378D02*
X824941Y135748D01*
X1132343Y1230315D02*
X1332677D01*
X1049665Y1147638D02*
X1132343Y1230315D01*
X1086614Y255905D02*
X1340220Y509512D01*
Y790772D02*
X1620079Y1070630D01*
X1340220Y509512D02*
Y790772D01*
X1620079Y1092520D02*
X1647638D01*
X994588Y2460630D02*
X1000000D01*
X980730Y2446772D02*
X994588Y2460630D01*
X962520Y2446772D02*
X980730D01*
X1060414Y2392795D02*
X1110261D01*
X1047697Y2405512D02*
X1060414Y2392795D01*
X950787Y2435039D02*
X962520Y2446772D01*
X950787Y2433071D02*
Y2435039D01*
X1115621Y1259842D02*
X1125463Y1250000D01*
X1080709Y1458661D02*
X1250000Y1289370D01*
X1082677Y1259842D02*
X1115621D01*
X1084646Y1858268D02*
X1171466Y1771447D01*
X1082677Y858268D02*
Y935972D01*
X1234252Y1210630D02*
X1332677D01*
X1125463Y1250000D02*
X1332677D01*
X1082677Y1059055D02*
X1234252Y1210630D01*
X1082677Y935972D02*
X1317965Y1171260D01*
X1332677D01*
X1249354Y989512D02*
X1332677Y1072835D01*
X1049665Y344488D02*
X1249354Y544177D01*
X1084646Y2259843D02*
X1235466Y2109022D01*
X1047697Y2352362D02*
X1049665D01*
X1047697Y2151575D02*
X1049665D01*
X1047697Y2204724D02*
Y2352362D01*
X1084646Y2059055D02*
X1203466Y1940235D01*
X1047697Y1750000D02*
X1049665D01*
Y1950787D02*
X1187466Y1812987D01*
X1047697Y1950787D02*
X1049665D01*
X1047697Y1549213D02*
X1049665D01*
X1128406Y1269685D02*
X1332677D01*
X1049665Y1348425D02*
X1128406Y1269685D01*
X1047697Y1348425D02*
X1049665D01*
X1010905Y184134D02*
X1034980D01*
X1010905Y384921D02*
X1034980D01*
X1217354Y1002767D02*
X1326792Y1112205D01*
X1010905Y585709D02*
X1034980D01*
X1010905Y786496D02*
X1034980D01*
X1010905Y987283D02*
X1034980D01*
X1010905Y2392795D02*
X1034980D01*
X1010905Y2192008D02*
X1034980D01*
X1010905Y1991220D02*
X1034980D01*
X1010905Y1790433D02*
X1034980D01*
X1010905Y1589646D02*
X1034980D01*
X1010905Y1388858D02*
X1034980D01*
X1010905Y1188071D02*
X1034980D01*
X951240Y1128406D02*
X1010905Y1188071D01*
X1047697Y1147638D02*
X1049665D01*
X1047697Y946850D02*
X1049665D01*
X1293760Y1190945D01*
X1332677D01*
X1047697Y746063D02*
X1049665D01*
X1326792Y1112205D02*
X1332677D01*
X1320908Y1151575D02*
X1332677D01*
X1047697Y545276D02*
X1049665D01*
X1217354Y712965D01*
X1233354Y996139D02*
X1329735Y1092520D01*
X1233354Y607370D02*
Y996139D01*
X1329735Y1092520D02*
X1332677D01*
X1086614Y460630D02*
X1233354Y607370D01*
X1047697Y344488D02*
X1049665D01*
X1249354Y544177D02*
Y989512D01*
X1047697Y799213D02*
Y946850D01*
X950787Y828740D02*
X962520Y840472D01*
X950787Y826772D02*
Y828740D01*
X1047697Y397638D02*
Y545276D01*
X980425Y456803D02*
X1004047D01*
X950787Y425197D02*
Y427165D01*
X980425Y456803D01*
X950787Y2234252D02*
X962520Y2245984D01*
X950787Y2232284D02*
Y2234252D01*
Y2033465D02*
X962520Y2045197D01*
X950787Y2031496D02*
Y2033465D01*
Y1832677D02*
X962520Y1844409D01*
X950787Y1830709D02*
Y1832677D01*
X1047697Y1602362D02*
Y1750000D01*
X950787Y1631890D02*
X962520Y1643622D01*
X950787Y1629921D02*
Y1631890D01*
Y1429134D02*
Y1431102D01*
X962520Y1242047D02*
X982698D01*
X950787Y1230315D02*
X962520Y1242047D01*
X950787Y1228347D02*
Y1230315D01*
Y1029528D02*
X962520Y1041260D01*
X950787Y1027559D02*
Y1029528D01*
Y627953D02*
X962520Y639685D01*
X950787Y625984D02*
Y627953D01*
X1034980Y585709D02*
X1047697Y598425D01*
X951240Y526043D02*
X1010905Y585709D01*
X1034980Y384921D02*
X1047697Y397638D01*
X951240Y325256D02*
X1010905Y384921D01*
X798681Y407087D02*
X803091Y411496D01*
X887874D01*
X900059Y423681D01*
Y432087D01*
X472894Y402559D02*
X484469Y414134D01*
X624232D01*
X671713Y374016D02*
X682240Y363489D01*
X754484D01*
X824941Y336536D02*
X887874D01*
X759311Y402165D02*
X824941Y336536D01*
X759311Y402165D02*
Y407087D01*
X472894Y351378D02*
X484626Y363110D01*
X570256D01*
X581162Y374016D01*
X759311Y2209252D02*
X824941Y2143622D01*
X887874Y537323D02*
X900059Y525138D01*
X759311Y201378D02*
Y206299D01*
X682240Y1367426D02*
X754484D01*
X671713Y1377953D02*
X682240Y1367426D01*
X950787Y226378D02*
X962520Y238110D01*
X950787Y224410D02*
Y226378D01*
X1340551Y143701D02*
X1342520D01*
X1205630Y183149D02*
X1301102D01*
X1340551Y143701D01*
X1192913Y195866D02*
X1205630Y183149D01*
X624232Y158098D02*
Y213346D01*
X1190945Y144685D02*
X1192913Y142716D01*
X1047697Y2003937D02*
Y2151575D01*
Y1803150D02*
Y1950787D01*
Y1200787D02*
Y1348425D01*
Y1000000D02*
Y1147638D01*
Y598425D02*
Y746063D01*
Y196850D02*
Y344488D01*
X472894Y2008858D02*
X484469Y2020433D01*
X472894Y804134D02*
X484469Y815709D01*
X887874Y1541260D02*
X900059Y1529075D01*
X887874Y1340473D02*
X900059Y1328287D01*
X887874Y1942835D02*
X900059Y1930650D01*
X887874Y938898D02*
X900059Y926713D01*
X759311Y803740D02*
X824941Y738110D01*
X1034980Y2392795D02*
X1047697Y2405512D01*
X951240Y2333130D02*
X1010905Y2392795D01*
X887874Y2344410D02*
X900059Y2332224D01*
X824941Y2344410D02*
X887874D01*
X570256Y2370984D02*
X581162Y2381890D01*
X484626Y2370984D02*
X570256D01*
X472894Y2359252D02*
X484626Y2370984D01*
X682240Y2371363D02*
X754484D01*
X671713Y2381890D02*
X682240Y2371363D01*
X484469Y2422008D02*
X624232D01*
X472894Y2410433D02*
X484469Y2422008D01*
X900059Y2431555D02*
Y2439961D01*
X887874Y2419370D02*
X900059Y2431555D01*
X803091Y2419370D02*
X887874D01*
X798681Y2414961D02*
X803091Y2419370D01*
X1034980Y2192008D02*
X1047697Y2204724D01*
X951240Y2132343D02*
X1010905Y2192008D01*
X887874Y2143622D02*
X900059Y2131437D01*
X824941Y2143622D02*
X887874D01*
X570256Y2170197D02*
X581162Y2181102D01*
X484626Y2170197D02*
X570256D01*
X472894Y2158465D02*
X484626Y2170197D01*
X682240Y2170575D02*
X754484D01*
X671713Y2181102D02*
X682240Y2170575D01*
X472894Y2209646D02*
X484469Y2221220D01*
X624232D01*
X887874Y2218583D02*
X900059Y2230768D01*
X798681Y2214173D02*
X803091Y2218583D01*
X900059Y2230768D02*
Y2239173D01*
X803091Y2218583D02*
X887874D01*
X1034980Y1991220D02*
X1047697Y2003937D01*
X951240Y1931555D02*
X1010905Y1991220D01*
X759311Y2008465D02*
Y2013386D01*
Y2008465D02*
X824941Y1942835D01*
X887874D01*
X570256Y1969409D02*
X581162Y1980315D01*
X484626Y1969409D02*
X570256D01*
X472894Y1957677D02*
X484626Y1969409D01*
X682240Y1969788D02*
X754484D01*
X671713Y1980315D02*
X682240Y1969788D01*
X484469Y2020433D02*
X624232D01*
X900059Y2029980D02*
Y2038386D01*
X887874Y2017795D02*
X900059Y2029980D01*
X803091Y2017795D02*
X887874D01*
X798681Y2013386D02*
X803091Y2017795D01*
X1034980Y1790433D02*
X1047697Y1803150D01*
X951240Y1730768D02*
X1010905Y1790433D01*
X887874Y1742047D02*
X900059Y1729862D01*
X759311Y1807677D02*
X824941Y1742047D01*
X887874D01*
X570256Y1768622D02*
X581162Y1779528D01*
X484626Y1768622D02*
X570256D01*
X472894Y1756890D02*
X484626Y1768622D01*
X682240Y1769001D02*
X754484D01*
X671713Y1779528D02*
X682240Y1769001D01*
X472894Y1808071D02*
X484469Y1819646D01*
X624232D01*
X900059Y1829193D02*
Y1837599D01*
X798681Y1812598D02*
X803091Y1817008D01*
X887874D02*
X900059Y1829193D01*
X803091Y1817008D02*
X887874D01*
X1034980Y1589646D02*
X1047697Y1602362D01*
X951240Y1529980D02*
X1010905Y1589646D01*
X759311Y1606890D02*
Y1611811D01*
X824941Y1541260D02*
X887874D01*
X759311Y1606890D02*
X824941Y1541260D01*
X570256Y1567835D02*
X581162Y1578740D01*
X484626Y1567835D02*
X570256D01*
X472894Y1556102D02*
X484626Y1567835D01*
X682240Y1568213D02*
X754484D01*
X671713Y1578740D02*
X682240Y1568213D01*
X472894Y1607284D02*
X484469Y1618858D01*
X624232D01*
X803091Y1616220D02*
X887874D01*
X900059Y1628406D02*
Y1636811D01*
X887874Y1616220D02*
X900059Y1628406D01*
X798681Y1611811D02*
X803091Y1616220D01*
X1034980Y1388858D02*
X1047697Y1401575D01*
X951240Y1329193D02*
X1010905Y1388858D01*
X759311Y1406102D02*
Y1411024D01*
Y1406102D02*
X824941Y1340473D01*
X887874D01*
X570256Y1367047D02*
X581162Y1377953D01*
X484626Y1367047D02*
X570256D01*
X472894Y1355315D02*
X484626Y1367047D01*
X472894Y1406496D02*
X484469Y1418071D01*
X624232D01*
X900059Y1427618D02*
Y1436024D01*
X887874Y1415433D02*
X900059Y1427618D01*
X803091Y1415433D02*
X887874D01*
X798681Y1411024D02*
X803091Y1415433D01*
X1034980Y1188071D02*
X1047697Y1200787D01*
X759311Y1205315D02*
Y1210236D01*
Y1205315D02*
X824941Y1139685D01*
X887874D01*
X900059Y1127500D01*
X570256Y1166260D02*
X581162Y1177165D01*
X484626Y1166260D02*
X570256D01*
X472894Y1154528D02*
X484626Y1166260D01*
X671713Y1177165D02*
X686988Y1161890D01*
X759232D01*
X472894Y1205709D02*
X484469Y1217283D01*
X624232D01*
X900059Y1226831D02*
Y1235236D01*
X803091Y1214646D02*
X887874D01*
X900059Y1226831D01*
X798681Y1210236D02*
X803091Y1214646D01*
X1034980Y987283D02*
X1047697Y1000000D01*
X951240Y927618D02*
X1010905Y987283D01*
X759311Y1004528D02*
Y1009449D01*
Y1004528D02*
X824941Y938898D01*
X887874D01*
X570256Y965472D02*
X581162Y976378D01*
X484626Y965472D02*
X570256D01*
X472894Y953740D02*
X484626Y965472D01*
X686988Y961102D02*
X759232D01*
X671713Y976378D02*
X686988Y961102D01*
X484469Y1016496D02*
X624232D01*
X472894Y1004921D02*
X484469Y1016496D01*
X900059Y1026043D02*
Y1034449D01*
X887874Y1013858D02*
X900059Y1026043D01*
X803091Y1013858D02*
X887874D01*
X798681Y1009449D02*
X803091Y1013858D01*
X1034980Y786496D02*
X1047697Y799213D01*
X951240Y726831D02*
X1010905Y786496D01*
X759311Y803740D02*
Y808661D01*
X824941Y738110D02*
X887874D01*
X900059Y725925D01*
X570256Y764685D02*
X581162Y775591D01*
X484626Y764685D02*
X570256D01*
X472894Y752953D02*
X484626Y764685D01*
X686988Y760315D02*
X759232D01*
X671713Y775591D02*
X686988Y760315D01*
X484469Y815709D02*
X624232D01*
X900059Y825256D02*
Y833662D01*
X887874Y813071D02*
X900059Y825256D01*
X798681Y808661D02*
X803091Y813071D01*
X887874D01*
X759311Y602953D02*
X824941Y537323D01*
X887874D01*
X570256Y563898D02*
X581162Y574803D01*
X484626Y563898D02*
X570256D01*
X472894Y552165D02*
X484626Y563898D01*
X686988Y559528D02*
X759232D01*
X671713Y574803D02*
X686988Y559528D01*
X472894Y603346D02*
X484469Y614921D01*
X624232D01*
X900059Y624469D02*
Y632874D01*
X887874Y612284D02*
X900059Y624469D01*
X798681Y607874D02*
X803091Y612284D01*
X887874D01*
X1034980Y184134D02*
X1047697Y196850D01*
X951240Y124469D02*
X1010905Y184134D01*
X824941Y135748D02*
X887874D01*
X900059Y123563D01*
X798681Y206299D02*
X803091Y210709D01*
X887874D01*
X900059Y222894D01*
Y231299D01*
X472894Y201772D02*
X484469Y213346D01*
X624232D01*
X472894Y150591D02*
X484626Y162323D01*
X570256D01*
X581162Y173228D01*
X686988Y157953D02*
X759232D01*
X671713Y173228D02*
X686988Y157953D01*
D22*
X1442598Y1178465D02*
X1652874D01*
X225394Y1178150D02*
X384842D01*
X188306Y1141062D02*
X225394Y1178150D01*
X188306Y1139148D02*
Y1141062D01*
Y1139148D02*
X189659Y1137795D01*
X374114Y1816913D02*
Y2118110D01*
X381890Y1460630D02*
Y1610236D01*
X188306Y1267046D02*
X381890Y1460630D01*
X404947Y1418894D02*
X406916Y1416926D01*
X189206Y1203153D02*
X404947Y1418894D01*
X364173Y893701D02*
Y894685D01*
X185039Y1007192D02*
X189659Y1011811D01*
X624232Y1942756D02*
X759311Y1807677D01*
X185039Y948553D02*
Y1007192D01*
Y948553D02*
X312992Y820600D01*
X713051Y1533465D02*
X715757D01*
X713051Y1734252D02*
X715757D01*
X713051Y2135827D02*
X715757D01*
X713051Y2336614D02*
X715757D01*
X713051Y1935039D02*
X715757D01*
X713051Y1332677D02*
X715757D01*
X713051Y1131890D02*
X714965Y1133803D01*
X757671D01*
X713051Y328740D02*
X715757D01*
X713051Y931102D02*
X714965Y933016D01*
X757671D01*
X713051Y730315D02*
X714965Y732228D01*
X757671D01*
X713051Y529528D02*
X714965Y531441D01*
X757671D01*
X189206Y1201240D02*
Y1203153D01*
X713051Y127953D02*
X714965Y129866D01*
X757671D01*
X778839Y133425D02*
X778996Y133583D01*
X778839Y535000D02*
X778996Y535158D01*
Y735945D02*
Y740551D01*
Y936732D02*
Y941339D01*
X778839Y1137362D02*
X778996Y1137520D01*
Y1543371D02*
Y1543701D01*
Y1744158D02*
Y1744488D01*
Y2145733D02*
Y2146063D01*
Y2346520D02*
Y2346850D01*
Y1944946D02*
Y1945276D01*
Y1342583D02*
Y1342913D01*
Y338646D02*
Y338976D01*
X1126231Y2490630D02*
X1128937D01*
X1121231Y2495630D02*
X1126231Y2490630D01*
X830404Y2495630D02*
X1121231D01*
X759311Y2424537D02*
X830404Y2495630D01*
X759311Y2419882D02*
Y2424537D01*
X1440945Y1180118D02*
X1442598Y1178465D01*
X187814Y1071045D02*
X364173Y894685D01*
X187814Y1071045D02*
Y1072958D01*
X189659Y1074803D01*
X624232Y345984D02*
X759311Y210906D01*
X725506Y338489D02*
X778839D01*
X715757Y328740D02*
X725506Y338489D01*
X778839D02*
X778996Y338646D01*
X759311Y407087D02*
Y411693D01*
X624232Y2344331D02*
X759311Y2209252D01*
X624232Y2344331D02*
Y2422008D01*
Y738031D02*
X759311Y602953D01*
X624232Y738031D02*
Y815709D01*
Y345984D02*
Y414134D01*
X759311Y206299D02*
Y210906D01*
X624232Y546772D02*
X759311Y411693D01*
X624232Y546772D02*
Y614921D01*
Y948346D02*
Y1016496D01*
Y948346D02*
X759311Y813268D01*
Y808661D02*
Y813268D01*
X624232Y1349921D02*
Y1418071D01*
Y1349921D02*
X759311Y1214843D01*
Y1210236D02*
Y1214843D01*
X624232Y1149134D02*
X759311Y1014055D01*
X624232Y1149134D02*
Y1217283D01*
X759311Y1009449D02*
Y1014055D01*
X715757Y1332677D02*
X725506Y1342426D01*
X778839D02*
X778996Y1342583D01*
X725506Y1342426D02*
X778839D01*
X624232Y1550709D02*
X759311Y1415630D01*
X624232Y1550709D02*
Y1618858D01*
X759311Y1411024D02*
Y1415630D01*
X624232Y1751496D02*
Y1819646D01*
Y1751496D02*
X759311Y1616417D01*
Y1611811D02*
Y1616417D01*
X624232Y1942756D02*
Y2020433D01*
Y2153071D02*
Y2221220D01*
Y2153071D02*
X759311Y2017992D01*
Y2013386D02*
Y2017992D01*
X715757Y1935039D02*
X725506Y1944788D01*
X778839D01*
X778996Y1944946D01*
X185039Y1627839D02*
X374114Y1816913D01*
X188306Y1265133D02*
Y1267046D01*
X185039Y1331391D02*
Y1627839D01*
Y1331391D02*
X189659Y1326772D01*
X189206Y1201240D02*
X189659Y1200787D01*
X778839Y2346363D02*
X778996Y2346520D01*
X725506Y2346363D02*
X778839D01*
X715757Y2336614D02*
X725506Y2346363D01*
Y2145575D02*
X778839D01*
X715757Y2135827D02*
X725506Y2145575D01*
X778839D02*
X778996Y2145733D01*
X778839Y1744001D02*
X778996Y1744158D01*
X725506Y1744001D02*
X778839D01*
X715757Y1734252D02*
X725506Y1744001D01*
X778839Y1543213D02*
X778996Y1543371D01*
X725506Y1543213D02*
X778839D01*
X715757Y1533465D02*
X725506Y1543213D01*
X778996Y1137520D02*
Y1142126D01*
X761230Y1137362D02*
X778839D01*
X757671Y1133803D02*
X761230Y1137362D01*
X778839Y936575D02*
X778996Y936732D01*
X761230Y936575D02*
X778839D01*
X757671Y933016D02*
X761230Y936575D01*
Y735787D02*
X778839D01*
X778996Y735945D01*
X757671Y732228D02*
X761230Y735787D01*
Y535000D02*
X778839D01*
X757671Y531441D02*
X761230Y535000D01*
X778996Y535158D02*
Y539764D01*
Y133583D02*
Y138189D01*
X757671Y129866D02*
X761230Y133425D01*
X778839D01*
D23*
X2226516Y1387933D02*
Y1519652D01*
X2193110Y1354528D02*
X2226516Y1387933D01*
X2161024Y1354528D02*
X2193110D01*
X2161024Y1104528D02*
X2178937D01*
X2186398Y1097067D01*
X2281102Y1102362D02*
X2283465D01*
X2186398Y1081319D02*
Y1097067D01*
X2161024Y1204528D02*
X2178937D01*
X2186398Y1081319D02*
X2283465Y984252D01*
X2178937Y1204528D02*
X2281102Y1102362D01*
X2161024Y1454528D02*
X2168484Y1461988D01*
X2192729D01*
X2201516Y1470775D01*
Y1530007D01*
X2239127Y1567618D01*
X2261908D01*
X2273152Y1578861D01*
Y1603860D01*
X2283465Y1614173D01*
X2226516Y1519652D02*
X2249482Y1542618D01*
X2261908D01*
X2273152Y1531375D01*
Y1506376D02*
Y1531375D01*
Y1506376D02*
X2283465Y1496063D01*
D24*
X2110236Y846457D02*
D03*
Y1712599D02*
D03*
X196850Y846457D02*
D03*
Y1712599D02*
D03*
D25*
X2453543Y1187008D02*
D03*
Y899606D02*
D03*
Y1698819D02*
D03*
Y1411417D02*
D03*
D26*
X2283465Y984252D02*
D03*
Y1102362D02*
D03*
Y1496063D02*
D03*
Y1614173D02*
D03*
D27*
X1825787Y999016D02*
D03*
X1819903Y1051181D02*
D03*
X384842Y1178150D02*
D03*
X185039Y1137795D02*
D03*
Y1263780D02*
D03*
Y1200787D02*
D03*
Y1326772D02*
D03*
Y1011811D02*
D03*
Y1074803D02*
D03*
X1692913Y575787D02*
D03*
X1385827Y1986220D02*
D03*
X1361220Y2089567D02*
D03*
X1321063Y2135630D02*
D03*
X1323327Y2038878D02*
D03*
X1320866Y1940945D02*
D03*
X1084646Y1659449D02*
D03*
X1765748Y1708661D02*
D03*
X1880997Y1550273D02*
D03*
X1973425Y999016D02*
D03*
X1924213D02*
D03*
X1080709Y1458661D02*
D03*
X1005905D02*
D03*
X2109213Y709052D02*
D03*
X2054134Y1838583D02*
D03*
X1885827D02*
D03*
X1625984Y607284D02*
D03*
X1956693Y748032D02*
D03*
X1716535Y750000D02*
D03*
X1955709Y2243110D02*
D03*
X1626292Y2272638D02*
D03*
X1567204Y2143701D02*
D03*
X2112205Y1779528D02*
D03*
X2088998Y1177165D02*
D03*
X2088732Y1248526D02*
D03*
X1578740Y1624016D02*
D03*
X1540354Y1128406D02*
D03*
X1502953Y1309055D02*
D03*
X1557087Y1346457D02*
D03*
X1585228Y1238771D02*
D03*
X1577833Y1437085D02*
D03*
X1579724Y1831693D02*
D03*
X1535433D02*
D03*
X1625894Y1851378D02*
D03*
X1722441Y1995079D02*
D03*
X1669291Y1996063D02*
D03*
X1619094Y1997047D02*
D03*
X1723425Y1207677D02*
D03*
X1875000Y999016D02*
D03*
X1710630Y677165D02*
D03*
X1713606Y1247677D02*
D03*
X1765748Y1277559D02*
D03*
X1740158Y1336614D02*
D03*
X1911511Y1968600D02*
D03*
X1417323Y1887795D02*
D03*
X1929134Y2007874D02*
D03*
Y1929134D02*
D03*
X1353347Y1603347D02*
D03*
X1778543Y1852929D02*
D03*
X1723425Y1787401D02*
D03*
X1749016Y1821850D02*
D03*
X1444882Y1486220D02*
D03*
X1445866Y1443898D02*
D03*
X1542323Y889764D02*
D03*
X1440945Y1180118D02*
D03*
X1732284Y1091535D02*
D03*
X1505906Y1238771D02*
D03*
X1128937Y2490630D02*
D03*
X1578740Y624764D02*
D03*
X1612205Y783465D02*
D03*
X1639764Y678150D02*
D03*
X1663386Y526575D02*
D03*
X1710630Y820866D02*
D03*
X2092622Y668340D02*
D03*
X2111323Y749052D02*
D03*
X2110339Y628968D02*
D03*
X1651575Y475394D02*
D03*
X1124016Y144685D02*
D03*
X364173Y893701D02*
D03*
X312992Y820600D02*
D03*
X1125984Y2334646D02*
D03*
X1000000Y2460630D02*
D03*
X1082677Y1259842D02*
D03*
Y858268D02*
D03*
X1084646Y1858268D02*
D03*
X1082677Y657480D02*
D03*
X1082677Y1059055D02*
D03*
X1007874Y858268D02*
D03*
Y460630D02*
D03*
X1084646Y2259843D02*
D03*
X1003937D02*
D03*
X1084646Y2059055D02*
D03*
X1003937D02*
D03*
Y1858268D02*
D03*
X1005905Y1659449D02*
D03*
Y1259842D02*
D03*
X1007874Y1059055D02*
D03*
X1007874Y657480D02*
D03*
X1086614Y460630D02*
D03*
X624232Y414134D02*
D03*
X713051Y328740D02*
D03*
Y1332677D02*
D03*
X1086614Y255905D02*
D03*
X1007874D02*
D03*
X713051Y1935039D02*
D03*
X374114Y2118110D02*
D03*
X381890Y1610236D02*
D03*
X409114Y1421260D02*
D03*
X713051Y2336614D02*
D03*
X624232Y2422008D02*
D03*
X713051Y2135827D02*
D03*
X624232Y2221220D02*
D03*
Y2020433D02*
D03*
X713051Y1734252D02*
D03*
X624232Y1819646D02*
D03*
X713051Y1533465D02*
D03*
X624232Y1618858D02*
D03*
Y1418071D02*
D03*
X713051Y1131890D02*
D03*
X624232Y1217283D02*
D03*
X713051Y931102D02*
D03*
X624232Y1016496D02*
D03*
X713051Y730315D02*
D03*
X624232Y815709D02*
D03*
X713051Y529528D02*
D03*
X624232Y614921D02*
D03*
X713051Y127953D02*
D03*
X624232Y213346D02*
D03*
%TF.MD5,2a745569b6516d26ec3e276e93b2e834*%
M02*
