%TF.GenerationSoftware,Altium Limited,Altium Designer,19.1.8 (144)*%
G04 Layer_Color=16711935*
%FSLAX26Y26*%
%MOIN*%
%TF.FileFunction,Other,Mechanical_13*%
%TF.Part,Single*%
G01*
G75*
%TA.AperFunction,NonConductor*%
%ADD23C,0.003937*%
D23*
X1446850Y1521654D02*
G03*
X1446850Y1521654I-19685J0D01*
G01*
X1313977Y1733268D02*
Y1802166D01*
X1351379Y1733268D02*
Y1802166D01*
X1313977Y1733268D02*
X1351379D01*
X1313977Y1802166D02*
X1351379D01*
X2427165Y204724D02*
X2513780D01*
X2427165Y257874D02*
X2513780D01*
Y204724D02*
Y257874D01*
X2427165Y204724D02*
Y257874D01*
X2252198Y255960D02*
X2338813D01*
X2252198Y309110D02*
X2338813D01*
Y255960D02*
Y309110D01*
X2252198Y255960D02*
Y309110D01*
X2078961Y271709D02*
Y309110D01*
X2147859Y271709D02*
Y309110D01*
X2078961D02*
X2147859D01*
X2078961Y271709D02*
X2147859D01*
X1847650Y231353D02*
X1885052D01*
X1847650Y300251D02*
X1885052D01*
X1847650Y231353D02*
Y300251D01*
X1885052Y231353D02*
Y300251D01*
X1627167Y231353D02*
X1664568D01*
X1627167Y300251D02*
X1664568D01*
X1627167Y231353D02*
Y300251D01*
X1664568Y231353D02*
Y300251D01*
X1407668Y231353D02*
X1445070D01*
X1407668Y300251D02*
X1445070D01*
X1407668Y231353D02*
Y300251D01*
X1445070Y231353D02*
Y300251D01*
X1187185Y227416D02*
X1224586D01*
X1187185Y296314D02*
X1224586D01*
X1187185Y227416D02*
Y296314D01*
X1224586Y227416D02*
Y296314D01*
X1441929Y1634842D02*
Y1721457D01*
X1388780Y1634842D02*
Y1721457D01*
X1441929D01*
X1388780Y1634842D02*
X1441929D01*
X1676182Y2133858D02*
Y2171260D01*
X1607284Y2133858D02*
Y2171260D01*
X1676182D01*
X1607284Y2133858D02*
X1676182D01*
X1898622Y2199804D02*
X2154528D01*
Y2337598D01*
X1898622D02*
X2154528D01*
X1898622Y2199804D02*
Y2337598D01*
X1409448Y2381890D02*
X1446850D01*
X1409448Y2450788D02*
X1446850D01*
Y2381890D02*
Y2450788D01*
X1409448Y2381890D02*
Y2450788D01*
X1507874Y2381890D02*
X1545276D01*
X1507874Y2450788D02*
X1545276D01*
Y2381890D02*
Y2450788D01*
X1507874Y2381890D02*
Y2450788D01*
X1606300Y2381890D02*
X1643700D01*
X1606300Y2450788D02*
X1643700D01*
Y2381890D02*
Y2450788D01*
X1606300Y2381890D02*
Y2450788D01*
X1254922Y1500000D02*
X1292322D01*
X1254922Y1431102D02*
X1292322D01*
X1254922D02*
Y1500000D01*
X1292322Y1431102D02*
Y1500000D01*
X1337598Y1430118D02*
X1375000D01*
X1337598Y1499016D02*
X1375000D01*
Y1430118D02*
Y1499016D01*
X1337598Y1430118D02*
Y1499016D01*
X1480098Y939626D02*
X1517500D01*
X1480098Y1008524D02*
X1517500D01*
Y939626D02*
Y1008524D01*
X1480098Y939626D02*
Y1008524D01*
X1562776Y940944D02*
X1600178D01*
X1562776Y1009842D02*
X1600178D01*
Y940944D02*
Y1009842D01*
X1562776Y940944D02*
Y1009842D01*
X1857284Y1210630D02*
X1894686D01*
X1857284Y1279528D02*
X1894686D01*
Y1210630D02*
Y1279528D01*
X1857284Y1210630D02*
Y1279528D01*
Y1426182D02*
X1894686D01*
X1857284Y1357284D02*
X1894686D01*
X1857284D02*
Y1426182D01*
X1894686Y1357284D02*
Y1426182D01*
X1821850Y1958662D02*
X1859252D01*
X1821850Y1889764D02*
X1859252D01*
X1821850D02*
Y1958662D01*
X1859252Y1889764D02*
Y1958662D01*
X1754922Y1632874D02*
Y1670276D01*
X1823818Y1632874D02*
Y1670276D01*
X1754922Y1632874D02*
X1823818D01*
X1754922Y1670276D02*
X1823818D01*
X2062992Y1766732D02*
Y1804134D01*
X1994094Y1766732D02*
Y1804134D01*
Y1766732D02*
X2062992D01*
X1994094Y1804134D02*
X2062992D01*
X1948818Y1766732D02*
Y1804134D01*
X1879922Y1766732D02*
Y1804134D01*
Y1766732D02*
X1948818D01*
X1879922Y1804134D02*
X1948818D01*
X1803150Y1742126D02*
X1840552D01*
X1803150Y1673228D02*
X1840552D01*
Y1742126D01*
X1803150Y1673228D02*
Y1742126D01*
Y1626968D02*
X1840552D01*
X1803150Y1558070D02*
X1840552D01*
Y1626968D01*
X1803150Y1558070D02*
Y1626968D01*
X1853150Y1029528D02*
X2133070D01*
X1853150D02*
Y1529528D01*
X2133070D01*
Y1029528D02*
Y1529528D01*
X1391732Y1041338D02*
Y1557086D01*
X1616142Y1041338D02*
Y1557086D01*
X1391732D02*
X1616142D01*
X1391732Y1041338D02*
X1616142D01*
X1413386Y577756D02*
X1450788D01*
X1413386Y646654D02*
X1450788D01*
X1413386Y577756D02*
Y646654D01*
X1450788Y577756D02*
Y646654D01*
X1211614Y134842D02*
Y203740D01*
X1174212Y134842D02*
Y203740D01*
X1211614D01*
X1174212Y134842D02*
X1211614D01*
X454194Y210630D02*
X491594D01*
X454194Y141732D02*
X491594D01*
Y210630D01*
X454194Y141732D02*
Y210630D01*
Y411418D02*
X491594D01*
X454194Y342520D02*
X491594D01*
Y411418D01*
X454194Y342520D02*
Y411418D01*
Y612204D02*
X491594D01*
X454194Y543308D02*
X491594D01*
Y612204D01*
X454194Y543308D02*
Y612204D01*
Y812992D02*
X491594D01*
X454194Y744094D02*
X491594D01*
Y812992D01*
X454194Y744094D02*
Y812992D01*
Y1013780D02*
X491594D01*
X454194Y944882D02*
X491594D01*
Y1013780D01*
X454194Y944882D02*
Y1013780D01*
Y1214568D02*
X491594D01*
X454194Y1145670D02*
X491594D01*
Y1214568D01*
X454194Y1145670D02*
Y1214568D01*
Y1415354D02*
X491594D01*
X454194Y1346456D02*
X491594D01*
Y1415354D01*
X454194Y1346456D02*
Y1415354D01*
Y1616142D02*
X491594D01*
X454194Y1547244D02*
X491594D01*
Y1616142D01*
X454194Y1547244D02*
Y1616142D01*
Y1816930D02*
X491594D01*
X454194Y1748032D02*
X491594D01*
Y1816930D01*
X454194Y1748032D02*
Y1816930D01*
Y2017716D02*
X491594D01*
X454194Y1948818D02*
X491594D01*
Y2017716D01*
X454194Y1948818D02*
Y2017716D01*
Y2218504D02*
X491594D01*
X454194Y2149606D02*
X491594D01*
Y2218504D01*
X454194Y2149606D02*
Y2218504D01*
X1028996Y135826D02*
X1066398D01*
X1028996Y204724D02*
X1066398D01*
X1028996Y135826D02*
Y204724D01*
X1066398Y135826D02*
Y204724D01*
X1028996Y336614D02*
X1066398D01*
X1028996Y405512D02*
X1066398D01*
X1028996Y336614D02*
Y405512D01*
X1066398Y336614D02*
Y405512D01*
X1028996Y537402D02*
X1066398D01*
X1028996Y606300D02*
X1066398D01*
X1028996Y537402D02*
Y606300D01*
X1066398Y537402D02*
Y606300D01*
X1028996Y738190D02*
X1066398D01*
X1028996Y807086D02*
X1066398D01*
X1028996Y738190D02*
Y807086D01*
X1066398Y738190D02*
Y807086D01*
X1028996Y938976D02*
X1066398D01*
X1028996Y1007874D02*
X1066398D01*
X1028996Y938976D02*
Y1007874D01*
X1066398Y938976D02*
Y1007874D01*
X1028996Y1139764D02*
X1066398D01*
X1028996Y1208662D02*
X1066398D01*
X1028996Y1139764D02*
Y1208662D01*
X1066398Y1139764D02*
Y1208662D01*
X1028996Y1340552D02*
X1066398D01*
X1028996Y1409448D02*
X1066398D01*
X1028996Y1340552D02*
Y1409448D01*
X1066398Y1340552D02*
Y1409448D01*
X1028996Y1541338D02*
X1066398D01*
X1028996Y1610236D02*
X1066398D01*
X1028996Y1541338D02*
Y1610236D01*
X1066398Y1541338D02*
Y1610236D01*
X1028996Y1742126D02*
X1066398D01*
X1028996Y1811024D02*
X1066398D01*
X1028996Y1742126D02*
Y1811024D01*
X1066398Y1742126D02*
Y1811024D01*
X1028996Y1942914D02*
X1066398D01*
X1028996Y2011812D02*
X1066398D01*
X1028996Y1942914D02*
Y2011812D01*
X1066398Y1942914D02*
Y2011812D01*
X1028996Y2143700D02*
X1066398D01*
X1028996Y2212598D02*
X1066398D01*
X1028996Y2143700D02*
Y2212598D01*
X1066398Y2143700D02*
Y2212598D01*
X1028996Y2344488D02*
X1066398D01*
X1028996Y2413386D02*
X1066398D01*
X1028996Y2344488D02*
Y2413386D01*
X1066398Y2344488D02*
Y2413386D01*
X890748Y2414370D02*
Y2451772D01*
X959646Y2414370D02*
Y2451772D01*
X890748D02*
X959646D01*
X890748Y2414370D02*
X959646D01*
X890748Y2213582D02*
Y2250984D01*
X959646Y2213582D02*
Y2250984D01*
X890748D02*
X959646D01*
X890748Y2213582D02*
X959646D01*
X890748Y2111220D02*
Y2148622D01*
X959646Y2111220D02*
Y2148622D01*
X890748D02*
X959646D01*
X890748Y2111220D02*
X959646D01*
X890748Y2012796D02*
Y2050196D01*
X959646Y2012796D02*
Y2050196D01*
X890748D02*
X959646D01*
X890748Y2012796D02*
X959646D01*
X890748Y1910434D02*
Y1947834D01*
X959646Y1910434D02*
Y1947834D01*
X890748D02*
X959646D01*
X890748Y1910434D02*
X959646D01*
X890748Y1812008D02*
Y1849410D01*
X959646Y1812008D02*
Y1849410D01*
X890748D02*
X959646D01*
X890748Y1812008D02*
X959646D01*
X890748Y1709646D02*
Y1747048D01*
X959646Y1709646D02*
Y1747048D01*
X890748D02*
X959646D01*
X890748Y1709646D02*
X959646D01*
X890748Y1611220D02*
Y1648622D01*
X959646Y1611220D02*
Y1648622D01*
X890748D02*
X959646D01*
X890748Y1611220D02*
X959646D01*
X890748Y1508858D02*
Y1546260D01*
X959646Y1508858D02*
Y1546260D01*
X890748D02*
X959646D01*
X890748Y1508858D02*
X959646D01*
X890748Y1410434D02*
Y1447834D01*
X959646Y1410434D02*
Y1447834D01*
X890748D02*
X959646D01*
X890748Y1410434D02*
X959646D01*
X890748Y1308070D02*
Y1345472D01*
X959646Y1308070D02*
Y1345472D01*
X890748D02*
X959646D01*
X890748Y1308070D02*
X959646D01*
X890748Y1107284D02*
Y1144686D01*
X959646Y1107284D02*
Y1144686D01*
X890748D02*
X959646D01*
X890748Y1107284D02*
X959646D01*
X890748Y1209646D02*
Y1247048D01*
X959646Y1209646D02*
Y1247048D01*
X890748D02*
X959646D01*
X890748Y1209646D02*
X959646D01*
X890748Y1008858D02*
Y1046260D01*
X959646Y1008858D02*
Y1046260D01*
X890748D02*
X959646D01*
X890748Y1008858D02*
X959646D01*
X890748Y906496D02*
Y943898D01*
X959646Y906496D02*
Y943898D01*
X890748D02*
X959646D01*
X890748Y906496D02*
X959646D01*
X890748Y808070D02*
Y845472D01*
X959646Y808070D02*
Y845472D01*
X890748D02*
X959646D01*
X890748Y808070D02*
X959646D01*
X890748Y705708D02*
Y743110D01*
X959646Y705708D02*
Y743110D01*
X890748D02*
X959646D01*
X890748Y705708D02*
X959646D01*
X890748Y607284D02*
Y644686D01*
X959646Y607284D02*
Y644686D01*
X890748D02*
X959646D01*
X890748Y607284D02*
X959646D01*
X890748Y504922D02*
Y542322D01*
X959646Y504922D02*
Y542322D01*
X890748D02*
X959646D01*
X890748Y504922D02*
X959646D01*
X890748Y406496D02*
Y443898D01*
X959646Y406496D02*
Y443898D01*
X890748D02*
X959646D01*
X890748Y406496D02*
X959646D01*
X890748Y304134D02*
Y341536D01*
X959646Y304134D02*
Y341536D01*
X890748D02*
X959646D01*
X890748Y304134D02*
X959646D01*
X890748Y205708D02*
Y243110D01*
X959646Y205708D02*
Y243110D01*
X890748D02*
X959646D01*
X890748Y205708D02*
X959646D01*
X890748Y103346D02*
Y140748D01*
X959646Y103346D02*
Y140748D01*
X890748D02*
X959646D01*
X890748Y103346D02*
X959646D01*
X454194Y2419292D02*
X491594D01*
X454194Y2350394D02*
X491594D01*
Y2419292D01*
X454194Y2350394D02*
Y2419292D01*
%TF.MD5,86275075e97f8b01449c36dcbf958237*%
M02*
