%TF.GenerationSoftware,Altium Limited,Altium Designer,19.1.8 (144)*%
G04 Layer_Color=2752767*
%FSLAX26Y26*%
%MOIN*%
%TF.FileFunction,Drawing*%
%TF.Part,Single*%
G01*
G75*
%TA.AperFunction,NonConductor*%
%ADD68C,0.005000*%
%ADD81C,0.006667*%
D68*
X2031182Y889448D02*
Y929448D01*
X2071182D01*
Y889448D01*
X2031182D01*
Y1629606D02*
Y1669606D01*
X2071182D01*
Y1629606D01*
X2031182D01*
X117796Y889448D02*
Y929448D01*
X157796D01*
Y889448D01*
X117796D01*
Y1629606D02*
Y1669606D01*
X157796D01*
Y1629606D01*
X117796D01*
X2453544Y1167008D02*
X2433544Y1207008D01*
X2473544D01*
X2453544Y1167008D01*
Y879606D02*
X2433544Y919606D01*
X2473544D01*
X2453544Y879606D01*
X2283464Y964252D02*
X2293464Y974252D01*
X2303464D01*
X2293464Y984252D01*
X2303464Y994252D01*
X2293464D01*
X2283464Y1004252D01*
X2273464Y994252D01*
X2263464D01*
X2273464Y984252D01*
X2263464Y974252D01*
X2273464D01*
X2283464Y964252D01*
Y1082362D02*
X2293464Y1092362D01*
X2303464D01*
X2293464Y1102362D01*
X2303464Y1112362D01*
X2293464D01*
X2283464Y1122362D01*
X2273464Y1112362D01*
X2263464D01*
X2273464Y1102362D01*
X2263464Y1092362D01*
X2273464D01*
X2283464Y1082362D01*
X2453544Y1678818D02*
X2433544Y1718818D01*
X2473544D01*
X2453544Y1678818D01*
Y1391418D02*
X2433544Y1431418D01*
X2473544D01*
X2453544Y1391418D01*
X2283464Y1476064D02*
X2293464Y1486064D01*
X2303464D01*
X2293464Y1496064D01*
X2303464Y1506064D01*
X2293464D01*
X2283464Y1516064D01*
X2273464Y1506064D01*
X2263464D01*
X2273464Y1496064D01*
X2263464Y1486064D01*
X2273464D01*
X2283464Y1476064D01*
Y1594174D02*
X2293464Y1604174D01*
X2303464D01*
X2293464Y1614174D01*
X2303464Y1624174D01*
X2293464D01*
X2283464Y1634174D01*
X2273464Y1624174D01*
X2263464D01*
X2273464Y1614174D01*
X2263464Y1604174D01*
X2273464D01*
X2283464Y1594174D01*
X176850Y1987874D02*
X186850Y2007874D01*
X176850Y2027874D01*
X196850Y2017874D01*
X216850Y2027874D01*
X206850Y2007874D01*
X216850Y1987874D01*
X196850Y1997874D01*
X176850Y1987874D01*
X2342204D02*
X2352204Y2007874D01*
X2342204Y2027874D01*
X2362204Y2017874D01*
X2382204Y2027874D01*
X2372204Y2007874D01*
X2382204Y1987874D01*
X2362204Y1997874D01*
X2342204Y1987874D01*
Y570552D02*
X2352204Y590552D01*
X2342204Y610552D01*
X2362204Y600552D01*
X2382204Y610552D01*
X2372204Y590552D01*
X2382204Y570552D01*
X2362204Y580552D01*
X2342204Y570552D01*
X176850D02*
X186850Y590552D01*
X176850Y610552D01*
X196850Y600552D01*
X216850Y610552D01*
X206850Y590552D01*
X216850Y570552D01*
X196850Y580552D01*
X176850Y570552D01*
X1988681Y1867991D02*
Y1857991D01*
X2008681D01*
Y1867991D01*
X2018681D01*
Y1887991D01*
X2008681D01*
Y1897991D01*
X1988681D01*
Y1887991D01*
X1978681D01*
Y1867991D01*
X1988681D01*
X1499842Y2191762D02*
Y2181762D01*
X1519842D01*
Y2191762D01*
X1529842D01*
Y2211762D01*
X1519842D01*
Y2221762D01*
X1499842D01*
Y2211762D01*
X1489842D01*
Y2191762D01*
X1499842D01*
X1750938Y1921189D02*
Y1911189D01*
X1770938D01*
Y1921189D01*
X1780938D01*
Y1941189D01*
X1770938D01*
Y1951189D01*
X1750938D01*
Y1941189D01*
X1740938D01*
Y1921189D01*
X1750938D01*
X1303326Y2224428D02*
X1313326D01*
X1323326Y2234428D01*
X1333326Y2224428D01*
X1343326D01*
Y2234428D01*
X1333326Y2244428D01*
X1343326Y2254428D01*
Y2264428D01*
X1333326D01*
X1323326Y2254428D01*
X1313326Y2264428D01*
X1303326D01*
Y2254428D01*
X1313326Y2244428D01*
X1303326Y2234428D01*
Y2224428D01*
X1547204Y2132560D02*
X1557204D01*
X1567204Y2142560D01*
X1577204Y2132560D01*
X1587204D01*
Y2142560D01*
X1577204Y2152560D01*
X1587204Y2162560D01*
Y2172560D01*
X1577204D01*
X1567204Y2162560D01*
X1557204Y2172560D01*
X1547204D01*
Y2162560D01*
X1557204Y2152560D01*
X1547204Y2142560D01*
Y2132560D01*
X1303326Y2172008D02*
X1313326D01*
X1323326Y2182008D01*
X1333326Y2172008D01*
X1343326D01*
Y2182008D01*
X1333326Y2192008D01*
X1343326Y2202008D01*
Y2212008D01*
X1333326D01*
X1323326Y2202008D01*
X1313326Y2212008D01*
X1303326D01*
Y2202008D01*
X1313326Y2192008D01*
X1303326Y2182008D01*
Y2172008D01*
X1969728Y2004610D02*
X1979728D01*
X1989728Y2014610D01*
X1999728Y2004610D01*
X2009728D01*
Y2014610D01*
X1999728Y2024610D01*
X2009728Y2034610D01*
Y2044610D01*
X1999728D01*
X1989728Y2034610D01*
X1979728Y2044610D01*
X1969728D01*
Y2034610D01*
X1979728Y2024610D01*
X1969728Y2014610D01*
Y2004610D01*
X1805788Y979016D02*
X1815788D01*
X1825788Y989016D01*
X1835788Y979016D01*
X1845788D01*
Y989016D01*
X1835788Y999016D01*
X1845788Y1009016D01*
Y1019016D01*
X1835788D01*
X1825788Y1009016D01*
X1815788Y1019016D01*
X1805788D01*
Y1009016D01*
X1815788Y999016D01*
X1805788Y989016D01*
Y979016D01*
X1799904Y1031182D02*
X1809904D01*
X1819904Y1041182D01*
X1829904Y1031182D01*
X1839904D01*
Y1041182D01*
X1829904Y1051182D01*
X1839904Y1061182D01*
Y1071182D01*
X1829904D01*
X1819904Y1061182D01*
X1809904Y1071182D01*
X1799904D01*
Y1061182D01*
X1809904Y1051182D01*
X1799904Y1041182D01*
Y1031182D01*
X364842Y1158150D02*
X374842D01*
X384842Y1168150D01*
X394842Y1158150D01*
X404842D01*
Y1168150D01*
X394842Y1178150D01*
X404842Y1188150D01*
Y1198150D01*
X394842D01*
X384842Y1188150D01*
X374842Y1198150D01*
X364842D01*
Y1188150D01*
X374842Y1178150D01*
X364842Y1168150D01*
Y1158150D01*
X165040Y1117796D02*
X175040D01*
X185040Y1127796D01*
X195040Y1117796D01*
X205040D01*
Y1127796D01*
X195040Y1137796D01*
X205040Y1147796D01*
Y1157796D01*
X195040D01*
X185040Y1147796D01*
X175040Y1157796D01*
X165040D01*
Y1147796D01*
X175040Y1137796D01*
X165040Y1127796D01*
Y1117796D01*
Y1243780D02*
X175040D01*
X185040Y1253780D01*
X195040Y1243780D01*
X205040D01*
Y1253780D01*
X195040Y1263780D01*
X205040Y1273780D01*
Y1283780D01*
X195040D01*
X185040Y1273780D01*
X175040Y1283780D01*
X165040D01*
Y1273780D01*
X175040Y1263780D01*
X165040Y1253780D01*
Y1243780D01*
Y1180788D02*
X175040D01*
X185040Y1190788D01*
X195040Y1180788D01*
X205040D01*
Y1190788D01*
X195040Y1200788D01*
X205040Y1210788D01*
Y1220788D01*
X195040D01*
X185040Y1210788D01*
X175040Y1220788D01*
X165040D01*
Y1210788D01*
X175040Y1200788D01*
X165040Y1190788D01*
Y1180788D01*
Y1306772D02*
X175040D01*
X185040Y1316772D01*
X195040Y1306772D01*
X205040D01*
Y1316772D01*
X195040Y1326772D01*
X205040Y1336772D01*
Y1346772D01*
X195040D01*
X185040Y1336772D01*
X175040Y1346772D01*
X165040D01*
Y1336772D01*
X175040Y1326772D01*
X165040Y1316772D01*
Y1306772D01*
Y991812D02*
X175040D01*
X185040Y1001812D01*
X195040Y991812D01*
X205040D01*
Y1001812D01*
X195040Y1011812D01*
X205040Y1021812D01*
Y1031812D01*
X195040D01*
X185040Y1021812D01*
X175040Y1031812D01*
X165040D01*
Y1021812D01*
X175040Y1011812D01*
X165040Y1001812D01*
Y991812D01*
Y1054804D02*
X175040D01*
X185040Y1064804D01*
X195040Y1054804D01*
X205040D01*
Y1064804D01*
X195040Y1074804D01*
X205040Y1084804D01*
Y1094804D01*
X195040D01*
X185040Y1084804D01*
X175040Y1094804D01*
X165040D01*
Y1084804D01*
X175040Y1074804D01*
X165040Y1064804D01*
Y1054804D01*
X1672914Y555788D02*
X1682914D01*
X1692914Y565788D01*
X1702914Y555788D01*
X1712914D01*
Y565788D01*
X1702914Y575788D01*
X1712914Y585788D01*
Y595788D01*
X1702914D01*
X1692914Y585788D01*
X1682914Y595788D01*
X1672914D01*
Y585788D01*
X1682914Y575788D01*
X1672914Y565788D01*
Y555788D01*
X1365826Y1966220D02*
X1375826D01*
X1385826Y1976220D01*
X1395826Y1966220D01*
X1405826D01*
Y1976220D01*
X1395826Y1986220D01*
X1405826Y1996220D01*
Y2006220D01*
X1395826D01*
X1385826Y1996220D01*
X1375826Y2006220D01*
X1365826D01*
Y1996220D01*
X1375826Y1986220D01*
X1365826Y1976220D01*
Y1966220D01*
X1341220Y2069566D02*
X1351220D01*
X1361220Y2079566D01*
X1371220Y2069566D01*
X1381220D01*
Y2079566D01*
X1371220Y2089566D01*
X1381220Y2099566D01*
Y2109566D01*
X1371220D01*
X1361220Y2099566D01*
X1351220Y2109566D01*
X1341220D01*
Y2099566D01*
X1351220Y2089566D01*
X1341220Y2079566D01*
Y2069566D01*
X1301062Y2115630D02*
X1311062D01*
X1321062Y2125630D01*
X1331062Y2115630D01*
X1341062D01*
Y2125630D01*
X1331062Y2135630D01*
X1341062Y2145630D01*
Y2155630D01*
X1331062D01*
X1321062Y2145630D01*
X1311062Y2155630D01*
X1301062D01*
Y2145630D01*
X1311062Y2135630D01*
X1301062Y2125630D01*
Y2115630D01*
X1303326Y2018878D02*
X1313326D01*
X1323326Y2028878D01*
X1333326Y2018878D01*
X1343326D01*
Y2028878D01*
X1333326Y2038878D01*
X1343326Y2048878D01*
Y2058878D01*
X1333326D01*
X1323326Y2048878D01*
X1313326Y2058878D01*
X1303326D01*
Y2048878D01*
X1313326Y2038878D01*
X1303326Y2028878D01*
Y2018878D01*
X1300866Y1920944D02*
X1310866D01*
X1320866Y1930944D01*
X1330866Y1920944D01*
X1340866D01*
Y1930944D01*
X1330866Y1940944D01*
X1340866Y1950944D01*
Y1960944D01*
X1330866D01*
X1320866Y1950944D01*
X1310866Y1960944D01*
X1300866D01*
Y1950944D01*
X1310866Y1940944D01*
X1300866Y1930944D01*
Y1920944D01*
X1064646Y1639448D02*
X1074646D01*
X1084646Y1649448D01*
X1094646Y1639448D01*
X1104646D01*
Y1649448D01*
X1094646Y1659448D01*
X1104646Y1669448D01*
Y1679448D01*
X1094646D01*
X1084646Y1669448D01*
X1074646Y1679448D01*
X1064646D01*
Y1669448D01*
X1074646Y1659448D01*
X1064646Y1649448D01*
Y1639448D01*
X1745748Y1688662D02*
X1755748D01*
X1765748Y1698662D01*
X1775748Y1688662D01*
X1785748D01*
Y1698662D01*
X1775748Y1708662D01*
X1785748Y1718662D01*
Y1728662D01*
X1775748D01*
X1765748Y1718662D01*
X1755748Y1728662D01*
X1745748D01*
Y1718662D01*
X1755748Y1708662D01*
X1745748Y1698662D01*
Y1688662D01*
X1860998Y1530272D02*
X1870998D01*
X1880998Y1540272D01*
X1890998Y1530272D01*
X1900998D01*
Y1540272D01*
X1890998Y1550272D01*
X1900998Y1560272D01*
Y1570272D01*
X1890998D01*
X1880998Y1560272D01*
X1870998Y1570272D01*
X1860998D01*
Y1560272D01*
X1870998Y1550272D01*
X1860998Y1540272D01*
Y1530272D01*
X1953426Y979016D02*
X1963426D01*
X1973426Y989016D01*
X1983426Y979016D01*
X1993426D01*
Y989016D01*
X1983426Y999016D01*
X1993426Y1009016D01*
Y1019016D01*
X1983426D01*
X1973426Y1009016D01*
X1963426Y1019016D01*
X1953426D01*
Y1009016D01*
X1963426Y999016D01*
X1953426Y989016D01*
Y979016D01*
X1904212D02*
X1914212D01*
X1924212Y989016D01*
X1934212Y979016D01*
X1944212D01*
Y989016D01*
X1934212Y999016D01*
X1944212Y1009016D01*
Y1019016D01*
X1934212D01*
X1924212Y1009016D01*
X1914212Y1019016D01*
X1904212D01*
Y1009016D01*
X1914212Y999016D01*
X1904212Y989016D01*
Y979016D01*
X1060708Y1438662D02*
X1070708D01*
X1080708Y1448662D01*
X1090708Y1438662D01*
X1100708D01*
Y1448662D01*
X1090708Y1458662D01*
X1100708Y1468662D01*
Y1478662D01*
X1090708D01*
X1080708Y1468662D01*
X1070708Y1478662D01*
X1060708D01*
Y1468662D01*
X1070708Y1458662D01*
X1060708Y1448662D01*
Y1438662D01*
X985906D02*
X995906D01*
X1005906Y1448662D01*
X1015906Y1438662D01*
X1025906D01*
Y1448662D01*
X1015906Y1458662D01*
X1025906Y1468662D01*
Y1478662D01*
X1015906D01*
X1005906Y1468662D01*
X995906Y1478662D01*
X985906D01*
Y1468662D01*
X995906Y1458662D01*
X985906Y1448662D01*
Y1438662D01*
X2089214Y689052D02*
X2099214D01*
X2109214Y699052D01*
X2119214Y689052D01*
X2129214D01*
Y699052D01*
X2119214Y709052D01*
X2129214Y719052D01*
Y729052D01*
X2119214D01*
X2109214Y719052D01*
X2099214Y729052D01*
X2089214D01*
Y719052D01*
X2099214Y709052D01*
X2089214Y699052D01*
Y689052D01*
X2034134Y1818582D02*
X2044134D01*
X2054134Y1828582D01*
X2064134Y1818582D01*
X2074134D01*
Y1828582D01*
X2064134Y1838582D01*
X2074134Y1848582D01*
Y1858582D01*
X2064134D01*
X2054134Y1848582D01*
X2044134Y1858582D01*
X2034134D01*
Y1848582D01*
X2044134Y1838582D01*
X2034134Y1828582D01*
Y1818582D01*
X1865826D02*
X1875826D01*
X1885826Y1828582D01*
X1895826Y1818582D01*
X1905826D01*
Y1828582D01*
X1895826Y1838582D01*
X1905826Y1848582D01*
Y1858582D01*
X1895826D01*
X1885826Y1848582D01*
X1875826Y1858582D01*
X1865826D01*
Y1848582D01*
X1875826Y1838582D01*
X1865826Y1828582D01*
Y1818582D01*
X1605984Y587284D02*
X1615984D01*
X1625984Y597284D01*
X1635984Y587284D01*
X1645984D01*
Y597284D01*
X1635984Y607284D01*
X1645984Y617284D01*
Y627284D01*
X1635984D01*
X1625984Y617284D01*
X1615984Y627284D01*
X1605984D01*
Y617284D01*
X1615984Y607284D01*
X1605984Y597284D01*
Y587284D01*
X1936692Y728032D02*
X1946692D01*
X1956692Y738032D01*
X1966692Y728032D01*
X1976692D01*
Y738032D01*
X1966692Y748032D01*
X1976692Y758032D01*
Y768032D01*
X1966692D01*
X1956692Y758032D01*
X1946692Y768032D01*
X1936692D01*
Y758032D01*
X1946692Y748032D01*
X1936692Y738032D01*
Y728032D01*
X1696536Y730000D02*
X1706536D01*
X1716536Y740000D01*
X1726536Y730000D01*
X1736536D01*
Y740000D01*
X1726536Y750000D01*
X1736536Y760000D01*
Y770000D01*
X1726536D01*
X1716536Y760000D01*
X1706536Y770000D01*
X1696536D01*
Y760000D01*
X1706536Y750000D01*
X1696536Y740000D01*
Y730000D01*
X1935708Y2223110D02*
X1945708D01*
X1955708Y2233110D01*
X1965708Y2223110D01*
X1975708D01*
Y2233110D01*
X1965708Y2243110D01*
X1975708Y2253110D01*
Y2263110D01*
X1965708D01*
X1955708Y2253110D01*
X1945708Y2263110D01*
X1935708D01*
Y2253110D01*
X1945708Y2243110D01*
X1935708Y2233110D01*
Y2223110D01*
X1606292Y2252638D02*
X1616292D01*
X1626292Y2262638D01*
X1636292Y2252638D01*
X1646292D01*
Y2262638D01*
X1636292Y2272638D01*
X1646292Y2282638D01*
Y2292638D01*
X1636292D01*
X1626292Y2282638D01*
X1616292Y2292638D01*
X1606292D01*
Y2282638D01*
X1616292Y2272638D01*
X1606292Y2262638D01*
Y2252638D01*
X2092204Y1759528D02*
X2102204D01*
X2112204Y1769528D01*
X2122204Y1759528D01*
X2132204D01*
Y1769528D01*
X2122204Y1779528D01*
X2132204Y1789528D01*
Y1799528D01*
X2122204D01*
X2112204Y1789528D01*
X2102204Y1799528D01*
X2092204D01*
Y1789528D01*
X2102204Y1779528D01*
X2092204Y1769528D01*
Y1759528D01*
X2068998Y1157166D02*
X2078998D01*
X2088998Y1167166D01*
X2098998Y1157166D01*
X2108998D01*
Y1167166D01*
X2098998Y1177166D01*
X2108998Y1187166D01*
Y1197166D01*
X2098998D01*
X2088998Y1187166D01*
X2078998Y1197166D01*
X2068998D01*
Y1187166D01*
X2078998Y1177166D01*
X2068998Y1167166D01*
Y1157166D01*
X2068732Y1228526D02*
X2078732D01*
X2088732Y1238526D01*
X2098732Y1228526D01*
X2108732D01*
Y1238526D01*
X2098732Y1248526D01*
X2108732Y1258526D01*
Y1268526D01*
X2098732D01*
X2088732Y1258526D01*
X2078732Y1268526D01*
X2068732D01*
Y1258526D01*
X2078732Y1248526D01*
X2068732Y1238526D01*
Y1228526D01*
X1558740Y1604016D02*
X1568740D01*
X1578740Y1614016D01*
X1588740Y1604016D01*
X1598740D01*
Y1614016D01*
X1588740Y1624016D01*
X1598740Y1634016D01*
Y1644016D01*
X1588740D01*
X1578740Y1634016D01*
X1568740Y1644016D01*
X1558740D01*
Y1634016D01*
X1568740Y1624016D01*
X1558740Y1614016D01*
Y1604016D01*
X1520354Y1108406D02*
X1530354D01*
X1540354Y1118406D01*
X1550354Y1108406D01*
X1560354D01*
Y1118406D01*
X1550354Y1128406D01*
X1560354Y1138406D01*
Y1148406D01*
X1550354D01*
X1540354Y1138406D01*
X1530354Y1148406D01*
X1520354D01*
Y1138406D01*
X1530354Y1128406D01*
X1520354Y1118406D01*
Y1108406D01*
X1482952Y1289056D02*
X1492952D01*
X1502952Y1299056D01*
X1512952Y1289056D01*
X1522952D01*
Y1299056D01*
X1512952Y1309056D01*
X1522952Y1319056D01*
Y1329056D01*
X1512952D01*
X1502952Y1319056D01*
X1492952Y1329056D01*
X1482952D01*
Y1319056D01*
X1492952Y1309056D01*
X1482952Y1299056D01*
Y1289056D01*
X1537086Y1326456D02*
X1547086D01*
X1557086Y1336456D01*
X1567086Y1326456D01*
X1577086D01*
Y1336456D01*
X1567086Y1346456D01*
X1577086Y1356456D01*
Y1366456D01*
X1567086D01*
X1557086Y1356456D01*
X1547086Y1366456D01*
X1537086D01*
Y1356456D01*
X1547086Y1346456D01*
X1537086Y1336456D01*
Y1326456D01*
X1565228Y1218772D02*
X1575228D01*
X1585228Y1228772D01*
X1595228Y1218772D01*
X1605228D01*
Y1228772D01*
X1595228Y1238772D01*
X1605228Y1248772D01*
Y1258772D01*
X1595228D01*
X1585228Y1248772D01*
X1575228Y1258772D01*
X1565228D01*
Y1248772D01*
X1575228Y1238772D01*
X1565228Y1228772D01*
Y1218772D01*
X1557832Y1417084D02*
X1567832D01*
X1577832Y1427084D01*
X1587832Y1417084D01*
X1597832D01*
Y1427084D01*
X1587832Y1437084D01*
X1597832Y1447084D01*
Y1457084D01*
X1587832D01*
X1577832Y1447084D01*
X1567832Y1457084D01*
X1557832D01*
Y1447084D01*
X1567832Y1437084D01*
X1557832Y1427084D01*
Y1417084D01*
X1559724Y1811692D02*
X1569724D01*
X1579724Y1821692D01*
X1589724Y1811692D01*
X1599724D01*
Y1821692D01*
X1589724Y1831692D01*
X1599724Y1841692D01*
Y1851692D01*
X1589724D01*
X1579724Y1841692D01*
X1569724Y1851692D01*
X1559724D01*
Y1841692D01*
X1569724Y1831692D01*
X1559724Y1821692D01*
Y1811692D01*
X1515434D02*
X1525434D01*
X1535434Y1821692D01*
X1545434Y1811692D01*
X1555434D01*
Y1821692D01*
X1545434Y1831692D01*
X1555434Y1841692D01*
Y1851692D01*
X1545434D01*
X1535434Y1841692D01*
X1525434Y1851692D01*
X1515434D01*
Y1841692D01*
X1525434Y1831692D01*
X1515434Y1821692D01*
Y1811692D01*
X1605894Y1831378D02*
X1615894D01*
X1625894Y1841378D01*
X1635894Y1831378D01*
X1645894D01*
Y1841378D01*
X1635894Y1851378D01*
X1645894Y1861378D01*
Y1871378D01*
X1635894D01*
X1625894Y1861378D01*
X1615894Y1871378D01*
X1605894D01*
Y1861378D01*
X1615894Y1851378D01*
X1605894Y1841378D01*
Y1831378D01*
X1702440Y1975078D02*
X1712440D01*
X1722440Y1985078D01*
X1732440Y1975078D01*
X1742440D01*
Y1985078D01*
X1732440Y1995078D01*
X1742440Y2005078D01*
Y2015078D01*
X1732440D01*
X1722440Y2005078D01*
X1712440Y2015078D01*
X1702440D01*
Y2005078D01*
X1712440Y1995078D01*
X1702440Y1985078D01*
Y1975078D01*
X1649292Y1976064D02*
X1659292D01*
X1669292Y1986064D01*
X1679292Y1976064D01*
X1689292D01*
Y1986064D01*
X1679292Y1996064D01*
X1689292Y2006064D01*
Y2016064D01*
X1679292D01*
X1669292Y2006064D01*
X1659292Y2016064D01*
X1649292D01*
Y2006064D01*
X1659292Y1996064D01*
X1649292Y1986064D01*
Y1976064D01*
X1599094Y1977048D02*
X1609094D01*
X1619094Y1987048D01*
X1629094Y1977048D01*
X1639094D01*
Y1987048D01*
X1629094Y1997048D01*
X1639094Y2007048D01*
Y2017048D01*
X1629094D01*
X1619094Y2007048D01*
X1609094Y2017048D01*
X1599094D01*
Y2007048D01*
X1609094Y1997048D01*
X1599094Y1987048D01*
Y1977048D01*
X1703426Y1187678D02*
X1713426D01*
X1723426Y1197678D01*
X1733426Y1187678D01*
X1743426D01*
Y1197678D01*
X1733426Y1207678D01*
X1743426Y1217678D01*
Y1227678D01*
X1733426D01*
X1723426Y1217678D01*
X1713426Y1227678D01*
X1703426D01*
Y1217678D01*
X1713426Y1207678D01*
X1703426Y1197678D01*
Y1187678D01*
X1855000Y979016D02*
X1865000D01*
X1875000Y989016D01*
X1885000Y979016D01*
X1895000D01*
Y989016D01*
X1885000Y999016D01*
X1895000Y1009016D01*
Y1019016D01*
X1885000D01*
X1875000Y1009016D01*
X1865000Y1019016D01*
X1855000D01*
Y1009016D01*
X1865000Y999016D01*
X1855000Y989016D01*
Y979016D01*
X1690630Y657166D02*
X1700630D01*
X1710630Y667166D01*
X1720630Y657166D01*
X1730630D01*
Y667166D01*
X1720630Y677166D01*
X1730630Y687166D01*
Y697166D01*
X1720630D01*
X1710630Y687166D01*
X1700630Y697166D01*
X1690630D01*
Y687166D01*
X1700630Y677166D01*
X1690630Y667166D01*
Y657166D01*
X1693606Y1227678D02*
X1703606D01*
X1713606Y1237678D01*
X1723606Y1227678D01*
X1733606D01*
Y1237678D01*
X1723606Y1247678D01*
X1733606Y1257678D01*
Y1267678D01*
X1723606D01*
X1713606Y1257678D01*
X1703606Y1267678D01*
X1693606D01*
Y1257678D01*
X1703606Y1247678D01*
X1693606Y1237678D01*
Y1227678D01*
X1745748Y1257560D02*
X1755748D01*
X1765748Y1267560D01*
X1775748Y1257560D01*
X1785748D01*
Y1267560D01*
X1775748Y1277560D01*
X1785748Y1287560D01*
Y1297560D01*
X1775748D01*
X1765748Y1287560D01*
X1755748Y1297560D01*
X1745748D01*
Y1287560D01*
X1755748Y1277560D01*
X1745748Y1267560D01*
Y1257560D01*
X1720158Y1316614D02*
X1730158D01*
X1740158Y1326614D01*
X1750158Y1316614D01*
X1760158D01*
Y1326614D01*
X1750158Y1336614D01*
X1760158Y1346614D01*
Y1356614D01*
X1750158D01*
X1740158Y1346614D01*
X1730158Y1356614D01*
X1720158D01*
Y1346614D01*
X1730158Y1336614D01*
X1720158Y1326614D01*
Y1316614D01*
X1891510Y1948600D02*
X1901510D01*
X1911510Y1958600D01*
X1921510Y1948600D01*
X1931510D01*
Y1958600D01*
X1921510Y1968600D01*
X1931510Y1978600D01*
Y1988600D01*
X1921510D01*
X1911510Y1978600D01*
X1901510Y1988600D01*
X1891510D01*
Y1978600D01*
X1901510Y1968600D01*
X1891510Y1958600D01*
Y1948600D01*
X1397322Y1867796D02*
X1407322D01*
X1417322Y1877796D01*
X1427322Y1867796D01*
X1437322D01*
Y1877796D01*
X1427322Y1887796D01*
X1437322Y1897796D01*
Y1907796D01*
X1427322D01*
X1417322Y1897796D01*
X1407322Y1907796D01*
X1397322D01*
Y1897796D01*
X1407322Y1887796D01*
X1397322Y1877796D01*
Y1867796D01*
X1909134Y1987874D02*
X1919134D01*
X1929134Y1997874D01*
X1939134Y1987874D01*
X1949134D01*
Y1997874D01*
X1939134Y2007874D01*
X1949134Y2017874D01*
Y2027874D01*
X1939134D01*
X1929134Y2017874D01*
X1919134Y2027874D01*
X1909134D01*
Y2017874D01*
X1919134Y2007874D01*
X1909134Y1997874D01*
Y1987874D01*
Y1909134D02*
X1919134D01*
X1929134Y1919134D01*
X1939134Y1909134D01*
X1949134D01*
Y1919134D01*
X1939134Y1929134D01*
X1949134Y1939134D01*
Y1949134D01*
X1939134D01*
X1929134Y1939134D01*
X1919134Y1949134D01*
X1909134D01*
Y1939134D01*
X1919134Y1929134D01*
X1909134Y1919134D01*
Y1909134D01*
X1333346Y1583346D02*
X1343346D01*
X1353346Y1593346D01*
X1363346Y1583346D01*
X1373346D01*
Y1593346D01*
X1363346Y1603346D01*
X1373346Y1613346D01*
Y1623346D01*
X1363346D01*
X1353346Y1613346D01*
X1343346Y1623346D01*
X1333346D01*
Y1613346D01*
X1343346Y1603346D01*
X1333346Y1593346D01*
Y1583346D01*
X1758544Y1832930D02*
X1768544D01*
X1778544Y1842930D01*
X1788544Y1832930D01*
X1798544D01*
Y1842930D01*
X1788544Y1852930D01*
X1798544Y1862930D01*
Y1872930D01*
X1788544D01*
X1778544Y1862930D01*
X1768544Y1872930D01*
X1758544D01*
Y1862930D01*
X1768544Y1852930D01*
X1758544Y1842930D01*
Y1832930D01*
X1703426Y1767402D02*
X1713426D01*
X1723426Y1777402D01*
X1733426Y1767402D01*
X1743426D01*
Y1777402D01*
X1733426Y1787402D01*
X1743426Y1797402D01*
Y1807402D01*
X1733426D01*
X1723426Y1797402D01*
X1713426Y1807402D01*
X1703426D01*
Y1797402D01*
X1713426Y1787402D01*
X1703426Y1777402D01*
Y1767402D01*
X1729016Y1801850D02*
X1739016D01*
X1749016Y1811850D01*
X1759016Y1801850D01*
X1769016D01*
Y1811850D01*
X1759016Y1821850D01*
X1769016Y1831850D01*
Y1841850D01*
X1759016D01*
X1749016Y1831850D01*
X1739016Y1841850D01*
X1729016D01*
Y1831850D01*
X1739016Y1821850D01*
X1729016Y1811850D01*
Y1801850D01*
X1424882Y1466220D02*
X1434882D01*
X1444882Y1476220D01*
X1454882Y1466220D01*
X1464882D01*
Y1476220D01*
X1454882Y1486220D01*
X1464882Y1496220D01*
Y1506220D01*
X1454882D01*
X1444882Y1496220D01*
X1434882Y1506220D01*
X1424882D01*
Y1496220D01*
X1434882Y1486220D01*
X1424882Y1476220D01*
Y1466220D01*
X1425866Y1423898D02*
X1435866D01*
X1445866Y1433898D01*
X1455866Y1423898D01*
X1465866D01*
Y1433898D01*
X1455866Y1443898D01*
X1465866Y1453898D01*
Y1463898D01*
X1455866D01*
X1445866Y1453898D01*
X1435866Y1463898D01*
X1425866D01*
Y1453898D01*
X1435866Y1443898D01*
X1425866Y1433898D01*
Y1423898D01*
X1522322Y869764D02*
X1532322D01*
X1542322Y879764D01*
X1552322Y869764D01*
X1562322D01*
Y879764D01*
X1552322Y889764D01*
X1562322Y899764D01*
Y909764D01*
X1552322D01*
X1542322Y899764D01*
X1532322Y909764D01*
X1522322D01*
Y899764D01*
X1532322Y889764D01*
X1522322Y879764D01*
Y869764D01*
X1420944Y1160118D02*
X1430944D01*
X1440944Y1170118D01*
X1450944Y1160118D01*
X1460944D01*
Y1170118D01*
X1450944Y1180118D01*
X1460944Y1190118D01*
Y1200118D01*
X1450944D01*
X1440944Y1190118D01*
X1430944Y1200118D01*
X1420944D01*
Y1190118D01*
X1430944Y1180118D01*
X1420944Y1170118D01*
Y1160118D01*
X1712284Y1071536D02*
X1722284D01*
X1732284Y1081536D01*
X1742284Y1071536D01*
X1752284D01*
Y1081536D01*
X1742284Y1091536D01*
X1752284Y1101536D01*
Y1111536D01*
X1742284D01*
X1732284Y1101536D01*
X1722284Y1111536D01*
X1712284D01*
Y1101536D01*
X1722284Y1091536D01*
X1712284Y1081536D01*
Y1071536D01*
X1485906Y1218772D02*
X1495906D01*
X1505906Y1228772D01*
X1515906Y1218772D01*
X1525906D01*
Y1228772D01*
X1515906Y1238772D01*
X1525906Y1248772D01*
Y1258772D01*
X1515906D01*
X1505906Y1248772D01*
X1495906Y1258772D01*
X1485906D01*
Y1248772D01*
X1495906Y1238772D01*
X1485906Y1228772D01*
Y1218772D01*
X1108938Y2470630D02*
X1118938D01*
X1128938Y2480630D01*
X1138938Y2470630D01*
X1148938D01*
Y2480630D01*
X1138938Y2490630D01*
X1148938Y2500630D01*
Y2510630D01*
X1138938D01*
X1128938Y2500630D01*
X1118938Y2510630D01*
X1108938D01*
Y2500630D01*
X1118938Y2490630D01*
X1108938Y2480630D01*
Y2470630D01*
X1558740Y604764D02*
X1568740D01*
X1578740Y614764D01*
X1588740Y604764D01*
X1598740D01*
Y614764D01*
X1588740Y624764D01*
X1598740Y634764D01*
Y644764D01*
X1588740D01*
X1578740Y634764D01*
X1568740Y644764D01*
X1558740D01*
Y634764D01*
X1568740Y624764D01*
X1558740Y614764D01*
Y604764D01*
X1592204Y763464D02*
X1602204D01*
X1612204Y773464D01*
X1622204Y763464D01*
X1632204D01*
Y773464D01*
X1622204Y783464D01*
X1632204Y793464D01*
Y803464D01*
X1622204D01*
X1612204Y793464D01*
X1602204Y803464D01*
X1592204D01*
Y793464D01*
X1602204Y783464D01*
X1592204Y773464D01*
Y763464D01*
X1619764Y658150D02*
X1629764D01*
X1639764Y668150D01*
X1649764Y658150D01*
X1659764D01*
Y668150D01*
X1649764Y678150D01*
X1659764Y688150D01*
Y698150D01*
X1649764D01*
X1639764Y688150D01*
X1629764Y698150D01*
X1619764D01*
Y688150D01*
X1629764Y678150D01*
X1619764Y668150D01*
Y658150D01*
X1643386Y506574D02*
X1653386D01*
X1663386Y516574D01*
X1673386Y506574D01*
X1683386D01*
Y516574D01*
X1673386Y526574D01*
X1683386Y536574D01*
Y546574D01*
X1673386D01*
X1663386Y536574D01*
X1653386Y546574D01*
X1643386D01*
Y536574D01*
X1653386Y526574D01*
X1643386Y516574D01*
Y506574D01*
X1690630Y800866D02*
X1700630D01*
X1710630Y810866D01*
X1720630Y800866D01*
X1730630D01*
Y810866D01*
X1720630Y820866D01*
X1730630Y830866D01*
Y840866D01*
X1720630D01*
X1710630Y830866D01*
X1700630Y840866D01*
X1690630D01*
Y830866D01*
X1700630Y820866D01*
X1690630Y810866D01*
Y800866D01*
X2072622Y648340D02*
X2082622D01*
X2092622Y658340D01*
X2102622Y648340D01*
X2112622D01*
Y658340D01*
X2102622Y668340D01*
X2112622Y678340D01*
Y688340D01*
X2102622D01*
X2092622Y678340D01*
X2082622Y688340D01*
X2072622D01*
Y678340D01*
X2082622Y668340D01*
X2072622Y658340D01*
Y648340D01*
X2091324Y729052D02*
X2101324D01*
X2111324Y739052D01*
X2121324Y729052D01*
X2131324D01*
Y739052D01*
X2121324Y749052D01*
X2131324Y759052D01*
Y769052D01*
X2121324D01*
X2111324Y759052D01*
X2101324Y769052D01*
X2091324D01*
Y759052D01*
X2101324Y749052D01*
X2091324Y739052D01*
Y729052D01*
X2090340Y608968D02*
X2100340D01*
X2110340Y618968D01*
X2120340Y608968D01*
X2130340D01*
Y618968D01*
X2120340Y628968D01*
X2130340Y638968D01*
Y648968D01*
X2120340D01*
X2110340Y638968D01*
X2100340Y648968D01*
X2090340D01*
Y638968D01*
X2100340Y628968D01*
X2090340Y618968D01*
Y608968D01*
X1631574Y455394D02*
X1641574D01*
X1651574Y465394D01*
X1661574Y455394D01*
X1671574D01*
Y465394D01*
X1661574Y475394D01*
X1671574Y485394D01*
Y495394D01*
X1661574D01*
X1651574Y485394D01*
X1641574Y495394D01*
X1631574D01*
Y485394D01*
X1641574Y475394D01*
X1631574Y465394D01*
Y455394D01*
X1104016Y124686D02*
X1114016D01*
X1124016Y134686D01*
X1134016Y124686D01*
X1144016D01*
Y134686D01*
X1134016Y144686D01*
X1144016Y154686D01*
Y164686D01*
X1134016D01*
X1124016Y154686D01*
X1114016Y164686D01*
X1104016D01*
Y154686D01*
X1114016Y144686D01*
X1104016Y134686D01*
Y124686D01*
X344174Y873700D02*
X354174D01*
X364174Y883700D01*
X374174Y873700D01*
X384174D01*
Y883700D01*
X374174Y893700D01*
X384174Y903700D01*
Y913700D01*
X374174D01*
X364174Y903700D01*
X354174Y913700D01*
X344174D01*
Y903700D01*
X354174Y893700D01*
X344174Y883700D01*
Y873700D01*
X292992Y800600D02*
X302992D01*
X312992Y810600D01*
X322992Y800600D01*
X332992D01*
Y810600D01*
X322992Y820600D01*
X332992Y830600D01*
Y840600D01*
X322992D01*
X312992Y830600D01*
X302992Y840600D01*
X292992D01*
Y830600D01*
X302992Y820600D01*
X292992Y810600D01*
Y800600D01*
X1105984Y2314646D02*
X1115984D01*
X1125984Y2324646D01*
X1135984Y2314646D01*
X1145984D01*
Y2324646D01*
X1135984Y2334646D01*
X1145984Y2344646D01*
Y2354646D01*
X1135984D01*
X1125984Y2344646D01*
X1115984Y2354646D01*
X1105984D01*
Y2344646D01*
X1115984Y2334646D01*
X1105984Y2324646D01*
Y2314646D01*
X980000Y2440630D02*
X990000D01*
X1000000Y2450630D01*
X1010000Y2440630D01*
X1020000D01*
Y2450630D01*
X1010000Y2460630D01*
X1020000Y2470630D01*
Y2480630D01*
X1010000D01*
X1000000Y2470630D01*
X990000Y2480630D01*
X980000D01*
Y2470630D01*
X990000Y2460630D01*
X980000Y2450630D01*
Y2440630D01*
X1062678Y1239842D02*
X1072678D01*
X1082678Y1249842D01*
X1092678Y1239842D01*
X1102678D01*
Y1249842D01*
X1092678Y1259842D01*
X1102678Y1269842D01*
Y1279842D01*
X1092678D01*
X1082678Y1269842D01*
X1072678Y1279842D01*
X1062678D01*
Y1269842D01*
X1072678Y1259842D01*
X1062678Y1249842D01*
Y1239842D01*
Y838268D02*
X1072678D01*
X1082678Y848268D01*
X1092678Y838268D01*
X1102678D01*
Y848268D01*
X1092678Y858268D01*
X1102678Y868268D01*
Y878268D01*
X1092678D01*
X1082678Y868268D01*
X1072678Y878268D01*
X1062678D01*
Y868268D01*
X1072678Y858268D01*
X1062678Y848268D01*
Y838268D01*
X1064646Y1838268D02*
X1074646D01*
X1084646Y1848268D01*
X1094646Y1838268D01*
X1104646D01*
Y1848268D01*
X1094646Y1858268D01*
X1104646Y1868268D01*
Y1878268D01*
X1094646D01*
X1084646Y1868268D01*
X1074646Y1878268D01*
X1064646D01*
Y1868268D01*
X1074646Y1858268D01*
X1064646Y1848268D01*
Y1838268D01*
X1062678Y637480D02*
X1072678D01*
X1082678Y647480D01*
X1092678Y637480D01*
X1102678D01*
Y647480D01*
X1092678Y657480D01*
X1102678Y667480D01*
Y677480D01*
X1092678D01*
X1082678Y667480D01*
X1072678Y677480D01*
X1062678D01*
Y667480D01*
X1072678Y657480D01*
X1062678Y647480D01*
Y637480D01*
Y1039056D02*
X1072678D01*
X1082678Y1049056D01*
X1092678Y1039056D01*
X1102678D01*
Y1049056D01*
X1092678Y1059056D01*
X1102678Y1069056D01*
Y1079056D01*
X1092678D01*
X1082678Y1069056D01*
X1072678Y1079056D01*
X1062678D01*
Y1069056D01*
X1072678Y1059056D01*
X1062678Y1049056D01*
Y1039056D01*
X987874Y838268D02*
X997874D01*
X1007874Y848268D01*
X1017874Y838268D01*
X1027874D01*
Y848268D01*
X1017874Y858268D01*
X1027874Y868268D01*
Y878268D01*
X1017874D01*
X1007874Y868268D01*
X997874Y878268D01*
X987874D01*
Y868268D01*
X997874Y858268D01*
X987874Y848268D01*
Y838268D01*
Y440630D02*
X997874D01*
X1007874Y450630D01*
X1017874Y440630D01*
X1027874D01*
Y450630D01*
X1017874Y460630D01*
X1027874Y470630D01*
Y480630D01*
X1017874D01*
X1007874Y470630D01*
X997874Y480630D01*
X987874D01*
Y470630D01*
X997874Y460630D01*
X987874Y450630D01*
Y440630D01*
X1064646Y2239842D02*
X1074646D01*
X1084646Y2249842D01*
X1094646Y2239842D01*
X1104646D01*
Y2249842D01*
X1094646Y2259842D01*
X1104646Y2269842D01*
Y2279842D01*
X1094646D01*
X1084646Y2269842D01*
X1074646Y2279842D01*
X1064646D01*
Y2269842D01*
X1074646Y2259842D01*
X1064646Y2249842D01*
Y2239842D01*
X983936D02*
X993936D01*
X1003936Y2249842D01*
X1013936Y2239842D01*
X1023936D01*
Y2249842D01*
X1013936Y2259842D01*
X1023936Y2269842D01*
Y2279842D01*
X1013936D01*
X1003936Y2269842D01*
X993936Y2279842D01*
X983936D01*
Y2269842D01*
X993936Y2259842D01*
X983936Y2249842D01*
Y2239842D01*
X1064646Y2039056D02*
X1074646D01*
X1084646Y2049056D01*
X1094646Y2039056D01*
X1104646D01*
Y2049056D01*
X1094646Y2059056D01*
X1104646Y2069056D01*
Y2079056D01*
X1094646D01*
X1084646Y2069056D01*
X1074646Y2079056D01*
X1064646D01*
Y2069056D01*
X1074646Y2059056D01*
X1064646Y2049056D01*
Y2039056D01*
X983936D02*
X993936D01*
X1003936Y2049056D01*
X1013936Y2039056D01*
X1023936D01*
Y2049056D01*
X1013936Y2059056D01*
X1023936Y2069056D01*
Y2079056D01*
X1013936D01*
X1003936Y2069056D01*
X993936Y2079056D01*
X983936D01*
Y2069056D01*
X993936Y2059056D01*
X983936Y2049056D01*
Y2039056D01*
Y1838268D02*
X993936D01*
X1003936Y1848268D01*
X1013936Y1838268D01*
X1023936D01*
Y1848268D01*
X1013936Y1858268D01*
X1023936Y1868268D01*
Y1878268D01*
X1013936D01*
X1003936Y1868268D01*
X993936Y1878268D01*
X983936D01*
Y1868268D01*
X993936Y1858268D01*
X983936Y1848268D01*
Y1838268D01*
X985906Y1639448D02*
X995906D01*
X1005906Y1649448D01*
X1015906Y1639448D01*
X1025906D01*
Y1649448D01*
X1015906Y1659448D01*
X1025906Y1669448D01*
Y1679448D01*
X1015906D01*
X1005906Y1669448D01*
X995906Y1679448D01*
X985906D01*
Y1669448D01*
X995906Y1659448D01*
X985906Y1649448D01*
Y1639448D01*
Y1239842D02*
X995906D01*
X1005906Y1249842D01*
X1015906Y1239842D01*
X1025906D01*
Y1249842D01*
X1015906Y1259842D01*
X1025906Y1269842D01*
Y1279842D01*
X1015906D01*
X1005906Y1269842D01*
X995906Y1279842D01*
X985906D01*
Y1269842D01*
X995906Y1259842D01*
X985906Y1249842D01*
Y1239842D01*
X987874Y1039056D02*
X997874D01*
X1007874Y1049056D01*
X1017874Y1039056D01*
X1027874D01*
Y1049056D01*
X1017874Y1059056D01*
X1027874Y1069056D01*
Y1079056D01*
X1017874D01*
X1007874Y1069056D01*
X997874Y1079056D01*
X987874D01*
Y1069056D01*
X997874Y1059056D01*
X987874Y1049056D01*
Y1039056D01*
Y637480D02*
X997874D01*
X1007874Y647480D01*
X1017874Y637480D01*
X1027874D01*
Y647480D01*
X1017874Y657480D01*
X1027874Y667480D01*
Y677480D01*
X1017874D01*
X1007874Y667480D01*
X997874Y677480D01*
X987874D01*
Y667480D01*
X997874Y657480D01*
X987874Y647480D01*
Y637480D01*
X1066614Y440630D02*
X1076614D01*
X1086614Y450630D01*
X1096614Y440630D01*
X1106614D01*
Y450630D01*
X1096614Y460630D01*
X1106614Y470630D01*
Y480630D01*
X1096614D01*
X1086614Y470630D01*
X1076614Y480630D01*
X1066614D01*
Y470630D01*
X1076614Y460630D01*
X1066614Y450630D01*
Y440630D01*
X604232Y394134D02*
X614232D01*
X624232Y404134D01*
X634232Y394134D01*
X644232D01*
Y404134D01*
X634232Y414134D01*
X644232Y424134D01*
Y434134D01*
X634232D01*
X624232Y424134D01*
X614232Y434134D01*
X604232D01*
Y424134D01*
X614232Y414134D01*
X604232Y404134D01*
Y394134D01*
X693052Y308740D02*
X703052D01*
X713052Y318740D01*
X723052Y308740D01*
X733052D01*
Y318740D01*
X723052Y328740D01*
X733052Y338740D01*
Y348740D01*
X723052D01*
X713052Y338740D01*
X703052Y348740D01*
X693052D01*
Y338740D01*
X703052Y328740D01*
X693052Y318740D01*
Y308740D01*
Y1312678D02*
X703052D01*
X713052Y1322678D01*
X723052Y1312678D01*
X733052D01*
Y1322678D01*
X723052Y1332678D01*
X733052Y1342678D01*
Y1352678D01*
X723052D01*
X713052Y1342678D01*
X703052Y1352678D01*
X693052D01*
Y1342678D01*
X703052Y1332678D01*
X693052Y1322678D01*
Y1312678D01*
X1066614Y235906D02*
X1076614D01*
X1086614Y245906D01*
X1096614Y235906D01*
X1106614D01*
Y245906D01*
X1096614Y255906D01*
X1106614Y265906D01*
Y275906D01*
X1096614D01*
X1086614Y265906D01*
X1076614Y275906D01*
X1066614D01*
Y265906D01*
X1076614Y255906D01*
X1066614Y245906D01*
Y235906D01*
X987874D02*
X997874D01*
X1007874Y245906D01*
X1017874Y235906D01*
X1027874D01*
Y245906D01*
X1017874Y255906D01*
X1027874Y265906D01*
Y275906D01*
X1017874D01*
X1007874Y265906D01*
X997874Y275906D01*
X987874D01*
Y265906D01*
X997874Y255906D01*
X987874Y245906D01*
Y235906D01*
X693052Y1915040D02*
X703052D01*
X713052Y1925040D01*
X723052Y1915040D01*
X733052D01*
Y1925040D01*
X723052Y1935040D01*
X733052Y1945040D01*
Y1955040D01*
X723052D01*
X713052Y1945040D01*
X703052Y1955040D01*
X693052D01*
Y1945040D01*
X703052Y1935040D01*
X693052Y1925040D01*
Y1915040D01*
X354114Y2098110D02*
X364114D01*
X374114Y2108110D01*
X384114Y2098110D01*
X394114D01*
Y2108110D01*
X384114Y2118110D01*
X394114Y2128110D01*
Y2138110D01*
X384114D01*
X374114Y2128110D01*
X364114Y2138110D01*
X354114D01*
Y2128110D01*
X364114Y2118110D01*
X354114Y2108110D01*
Y2098110D01*
X361890Y1590236D02*
X371890D01*
X381890Y1600236D01*
X391890Y1590236D01*
X401890D01*
Y1600236D01*
X391890Y1610236D01*
X401890Y1620236D01*
Y1630236D01*
X391890D01*
X381890Y1620236D01*
X371890Y1630236D01*
X361890D01*
Y1620236D01*
X371890Y1610236D01*
X361890Y1600236D01*
Y1590236D01*
X389114Y1401260D02*
X399114D01*
X409114Y1411260D01*
X419114Y1401260D01*
X429114D01*
Y1411260D01*
X419114Y1421260D01*
X429114Y1431260D01*
Y1441260D01*
X419114D01*
X409114Y1431260D01*
X399114Y1441260D01*
X389114D01*
Y1431260D01*
X399114Y1421260D01*
X389114Y1411260D01*
Y1401260D01*
X693052Y2316614D02*
X703052D01*
X713052Y2326614D01*
X723052Y2316614D01*
X733052D01*
Y2326614D01*
X723052Y2336614D01*
X733052Y2346614D01*
Y2356614D01*
X723052D01*
X713052Y2346614D01*
X703052Y2356614D01*
X693052D01*
Y2346614D01*
X703052Y2336614D01*
X693052Y2326614D01*
Y2316614D01*
X604232Y2402008D02*
X614232D01*
X624232Y2412008D01*
X634232Y2402008D01*
X644232D01*
Y2412008D01*
X634232Y2422008D01*
X644232Y2432008D01*
Y2442008D01*
X634232D01*
X624232Y2432008D01*
X614232Y2442008D01*
X604232D01*
Y2432008D01*
X614232Y2422008D01*
X604232Y2412008D01*
Y2402008D01*
X693052Y2115826D02*
X703052D01*
X713052Y2125826D01*
X723052Y2115826D01*
X733052D01*
Y2125826D01*
X723052Y2135826D01*
X733052Y2145826D01*
Y2155826D01*
X723052D01*
X713052Y2145826D01*
X703052Y2155826D01*
X693052D01*
Y2145826D01*
X703052Y2135826D01*
X693052Y2125826D01*
Y2115826D01*
X604232Y2201220D02*
X614232D01*
X624232Y2211220D01*
X634232Y2201220D01*
X644232D01*
Y2211220D01*
X634232Y2221220D01*
X644232Y2231220D01*
Y2241220D01*
X634232D01*
X624232Y2231220D01*
X614232Y2241220D01*
X604232D01*
Y2231220D01*
X614232Y2221220D01*
X604232Y2211220D01*
Y2201220D01*
Y2000434D02*
X614232D01*
X624232Y2010434D01*
X634232Y2000434D01*
X644232D01*
Y2010434D01*
X634232Y2020434D01*
X644232Y2030434D01*
Y2040434D01*
X634232D01*
X624232Y2030434D01*
X614232Y2040434D01*
X604232D01*
Y2030434D01*
X614232Y2020434D01*
X604232Y2010434D01*
Y2000434D01*
X693052Y1714252D02*
X703052D01*
X713052Y1724252D01*
X723052Y1714252D01*
X733052D01*
Y1724252D01*
X723052Y1734252D01*
X733052Y1744252D01*
Y1754252D01*
X723052D01*
X713052Y1744252D01*
X703052Y1754252D01*
X693052D01*
Y1744252D01*
X703052Y1734252D01*
X693052Y1724252D01*
Y1714252D01*
X604232Y1799646D02*
X614232D01*
X624232Y1809646D01*
X634232Y1799646D01*
X644232D01*
Y1809646D01*
X634232Y1819646D01*
X644232Y1829646D01*
Y1839646D01*
X634232D01*
X624232Y1829646D01*
X614232Y1839646D01*
X604232D01*
Y1829646D01*
X614232Y1819646D01*
X604232Y1809646D01*
Y1799646D01*
X693052Y1513464D02*
X703052D01*
X713052Y1523464D01*
X723052Y1513464D01*
X733052D01*
Y1523464D01*
X723052Y1533464D01*
X733052Y1543464D01*
Y1553464D01*
X723052D01*
X713052Y1543464D01*
X703052Y1553464D01*
X693052D01*
Y1543464D01*
X703052Y1533464D01*
X693052Y1523464D01*
Y1513464D01*
X604232Y1598858D02*
X614232D01*
X624232Y1608858D01*
X634232Y1598858D01*
X644232D01*
Y1608858D01*
X634232Y1618858D01*
X644232Y1628858D01*
Y1638858D01*
X634232D01*
X624232Y1628858D01*
X614232Y1638858D01*
X604232D01*
Y1628858D01*
X614232Y1618858D01*
X604232Y1608858D01*
Y1598858D01*
Y1398070D02*
X614232D01*
X624232Y1408070D01*
X634232Y1398070D01*
X644232D01*
Y1408070D01*
X634232Y1418070D01*
X644232Y1428070D01*
Y1438070D01*
X634232D01*
X624232Y1428070D01*
X614232Y1438070D01*
X604232D01*
Y1428070D01*
X614232Y1418070D01*
X604232Y1408070D01*
Y1398070D01*
X693052Y1111890D02*
X703052D01*
X713052Y1121890D01*
X723052Y1111890D01*
X733052D01*
Y1121890D01*
X723052Y1131890D01*
X733052Y1141890D01*
Y1151890D01*
X723052D01*
X713052Y1141890D01*
X703052Y1151890D01*
X693052D01*
Y1141890D01*
X703052Y1131890D01*
X693052Y1121890D01*
Y1111890D01*
X604232Y1197284D02*
X614232D01*
X624232Y1207284D01*
X634232Y1197284D01*
X644232D01*
Y1207284D01*
X634232Y1217284D01*
X644232Y1227284D01*
Y1237284D01*
X634232D01*
X624232Y1227284D01*
X614232Y1237284D01*
X604232D01*
Y1227284D01*
X614232Y1217284D01*
X604232Y1207284D01*
Y1197284D01*
X693052Y911102D02*
X703052D01*
X713052Y921102D01*
X723052Y911102D01*
X733052D01*
Y921102D01*
X723052Y931102D01*
X733052Y941102D01*
Y951102D01*
X723052D01*
X713052Y941102D01*
X703052Y951102D01*
X693052D01*
Y941102D01*
X703052Y931102D01*
X693052Y921102D01*
Y911102D01*
X604232Y996496D02*
X614232D01*
X624232Y1006496D01*
X634232Y996496D01*
X644232D01*
Y1006496D01*
X634232Y1016496D01*
X644232Y1026496D01*
Y1036496D01*
X634232D01*
X624232Y1026496D01*
X614232Y1036496D01*
X604232D01*
Y1026496D01*
X614232Y1016496D01*
X604232Y1006496D01*
Y996496D01*
X693052Y710316D02*
X703052D01*
X713052Y720316D01*
X723052Y710316D01*
X733052D01*
Y720316D01*
X723052Y730316D01*
X733052Y740316D01*
Y750316D01*
X723052D01*
X713052Y740316D01*
X703052Y750316D01*
X693052D01*
Y740316D01*
X703052Y730316D01*
X693052Y720316D01*
Y710316D01*
X604232Y795708D02*
X614232D01*
X624232Y805708D01*
X634232Y795708D01*
X644232D01*
Y805708D01*
X634232Y815708D01*
X644232Y825708D01*
Y835708D01*
X634232D01*
X624232Y825708D01*
X614232Y835708D01*
X604232D01*
Y825708D01*
X614232Y815708D01*
X604232Y805708D01*
Y795708D01*
X693052Y509528D02*
X703052D01*
X713052Y519528D01*
X723052Y509528D01*
X733052D01*
Y519528D01*
X723052Y529528D01*
X733052Y539528D01*
Y549528D01*
X723052D01*
X713052Y539528D01*
X703052Y549528D01*
X693052D01*
Y539528D01*
X703052Y529528D01*
X693052Y519528D01*
Y509528D01*
X604232Y594922D02*
X614232D01*
X624232Y604922D01*
X634232Y594922D01*
X644232D01*
Y604922D01*
X634232Y614922D01*
X644232Y624922D01*
Y634922D01*
X634232D01*
X624232Y624922D01*
X614232Y634922D01*
X604232D01*
Y624922D01*
X614232Y614922D01*
X604232Y604922D01*
Y594922D01*
X693052Y107952D02*
X703052D01*
X713052Y117952D01*
X723052Y107952D01*
X733052D01*
Y117952D01*
X723052Y127952D01*
X733052Y137952D01*
Y147952D01*
X723052D01*
X713052Y137952D01*
X703052Y147952D01*
X693052D01*
Y137952D01*
X703052Y127952D01*
X693052Y117952D01*
Y107952D01*
X604232Y193346D02*
X614232D01*
X624232Y203346D01*
X634232Y193346D01*
X644232D01*
Y203346D01*
X634232Y213346D01*
X644232Y223346D01*
Y233346D01*
X634232D01*
X624232Y223346D01*
X614232Y233346D01*
X604232D01*
Y223346D01*
X614232Y213346D01*
X604232Y203346D01*
Y193346D01*
D81*
X2130236Y846456D02*
G03*
X2130236Y846456I-20000J0D01*
G01*
Y1712598D02*
G03*
X2130236Y1712598I-20000J0D01*
G01*
X216850Y846456D02*
G03*
X216850Y846456I-20000J0D01*
G01*
Y1712598D02*
G03*
X216850Y1712598I-20000J0D01*
G01*
%TF.MD5,d5babff10cc0c075b022a13a557ccb8c*%
M02*
