%FSTAX23Y23*%
%MOIN*%
%SFA1B1*%

%IPPOS*%
%ADD18R,0.064960X0.011810*%
%ADD19R,0.053150X0.011810*%
%ADD20R,0.011810X0.053150*%
%ADD21O,0.023620X0.057090*%
%ADD22R,0.045280X0.053150*%
%ADD23R,0.033470X0.037400*%
%ADD24R,0.037400X0.033470*%
%ADD25R,0.023620X0.029530*%
%ADD26R,0.094490X0.029920*%
%ADD27R,0.035430X0.031500*%
%ADD28R,0.015750X0.053150*%
%ADD29R,0.062990X0.055120*%
%ADD30R,0.057090X0.051180*%
%ADD31R,0.074800X0.074800*%
%ADD32R,0.043310X0.051180*%
%ADD33R,0.051180X0.043310*%
%ADD34R,0.035430X0.039370*%
%ADD35R,0.039370X0.035430*%
%ADD63C,0.062990*%
%ADD64C,0.039370*%
%ADD65C,0.059060*%
%ADD66R,0.059060X0.059060*%
%ADD67C,0.180000*%
%LNdev_board_pcb-1*%
%LPD*%
G54D18*
X03867Y05726D03*
Y057D03*
Y05675D03*
Y05649D03*
Y05623D03*
Y05598D03*
Y05572D03*
Y05547D03*
Y05521D03*
Y05496D03*
Y0547D03*
Y05444D03*
Y05419D03*
Y05393D03*
X04152Y05726D03*
Y057D03*
Y05675D03*
Y05649D03*
Y05623D03*
Y05598D03*
Y05572D03*
Y05547D03*
Y05521D03*
Y05496D03*
Y0547D03*
Y05444D03*
Y05419D03*
Y05393D03*
G54D19*
X04383Y03967D03*
Y03947D03*
Y03928D03*
Y03908D03*
Y03888D03*
Y03869D03*
Y03849D03*
Y03829D03*
Y0381D03*
Y0379D03*
Y0377D03*
Y03751D03*
Y03731D03*
Y03711D03*
Y03692D03*
Y03672D03*
X04836D03*
Y03692D03*
Y03711D03*
Y03731D03*
Y03751D03*
Y0377D03*
Y0379D03*
Y0381D03*
Y03829D03*
Y03849D03*
Y03869D03*
Y03888D03*
Y03908D03*
Y03928D03*
Y03947D03*
Y03967D03*
G54D20*
X04462Y03593D03*
X04482D03*
X04501D03*
X04521D03*
X04541D03*
X0456D03*
X0458D03*
X046D03*
X04619D03*
X04639D03*
X04659D03*
X04678D03*
X04698D03*
X04718D03*
X04737D03*
X04757D03*
Y04046D03*
X04737D03*
X04718D03*
X04698D03*
X04678D03*
X04659D03*
X04639D03*
X04619D03*
X046D03*
X0458D03*
X0456D03*
X04541D03*
X04521D03*
X04501D03*
X04482D03*
X04462D03*
G54D21*
X06557Y03699D03*
X06507D03*
X06457D03*
X06407D03*
X06557Y03484D03*
X06507D03*
X06457D03*
X06407D03*
X0641Y04926D03*
X0646D03*
X0651D03*
X0656D03*
X0641Y05141D03*
X0646D03*
X0651D03*
X0656D03*
G54D22*
X03463Y05408D03*
X03394D03*
X03463Y05634D03*
X03394D03*
X0304Y05518D03*
X03109D03*
X03042Y05617D03*
X03111D03*
G54D23*
X05205Y05346D03*
X05256D03*
X05203Y05741D03*
X05255D03*
G54D24*
X06304Y03647D03*
Y03698D03*
X06305Y04099D03*
Y04048D03*
X06643Y04051D03*
Y04103D03*
X06651Y05092D03*
Y05041D03*
X06641Y04523D03*
Y04574D03*
X06307Y04576D03*
Y04525D03*
G54D25*
X06599Y0275D03*
Y02704D03*
X066Y03129D03*
Y03084D03*
G54D26*
X04813Y05745D03*
X04966D03*
X04813Y05695D03*
X04966D03*
X04813Y05645D03*
X04966D03*
X04813Y05595D03*
X04966D03*
X04813Y05545D03*
X04966D03*
G54D27*
X06498Y02704D03*
X06419Y02667D03*
Y02742D03*
X06498Y03084D03*
X06419Y03046D03*
Y03121D03*
G54D28*
X04558Y05737D03*
X04532D03*
X04507D03*
X04481D03*
X04456D03*
G54D29*
X04633Y05746D03*
X04381D03*
G54D30*
X04642Y05843D03*
X04372D03*
G54D31*
X04554Y05843D03*
X0446D03*
G54D32*
X03394Y05289D03*
X03485D03*
X03484Y05521D03*
X03394D03*
G54D33*
X06708Y02659D03*
Y0275D03*
Y03042D03*
Y03133D03*
G54D34*
X05255Y05581D03*
X05201D03*
X05256Y05504D03*
X05202D03*
X05255Y0543D03*
X05202D03*
X05255Y05661D03*
X05201D03*
X06506Y03376D03*
X06453D03*
X03455Y05725D03*
X03402D03*
X03111Y05717D03*
X03057D03*
X0305Y05421D03*
X03103D03*
X06457Y0526D03*
X0651D03*
G54D35*
X0648Y041D03*
Y04047D03*
X06482Y04524D03*
Y04577D03*
X06268Y02667D03*
Y0272D03*
X06265Y03065D03*
Y03118D03*
G54D63*
X02426Y0524D03*
Y0534D03*
X0244Y04838D03*
Y04938D03*
X02459Y04436D03*
Y04536D03*
X06308Y04361D03*
Y04261D03*
X06643Y04362D03*
Y04262D03*
X06655Y0564D03*
Y0554D03*
X06226Y02442D03*
Y02342D03*
Y02242D03*
Y02142D03*
Y02042D03*
Y01942D03*
Y01842D03*
Y01742D03*
X06126D03*
Y01842D03*
Y01942D03*
Y02042D03*
Y02142D03*
Y02242D03*
Y02342D03*
Y02442D03*
X05138Y02439D03*
Y02339D03*
Y02239D03*
Y02139D03*
Y02039D03*
Y01939D03*
Y01839D03*
Y01739D03*
X05038D03*
Y01839D03*
Y01939D03*
Y02039D03*
Y02139D03*
Y02239D03*
Y02339D03*
Y02439D03*
X04055Y02433D03*
Y02333D03*
Y02233D03*
Y02133D03*
Y02033D03*
Y01933D03*
Y01833D03*
Y01733D03*
X03955D03*
Y01833D03*
Y01933D03*
Y02033D03*
Y02133D03*
Y02233D03*
Y02333D03*
Y02433D03*
X02998Y02432D03*
Y02332D03*
Y02232D03*
Y02132D03*
Y02032D03*
Y01932D03*
Y01832D03*
Y01732D03*
X02898D03*
Y01832D03*
Y01932D03*
Y02032D03*
Y02132D03*
Y02232D03*
Y02332D03*
Y02432D03*
X03762Y04747D03*
X03959D03*
X03762Y04943D03*
X03959D03*
G54D64*
X02814Y04916D03*
X02914D03*
X02714D03*
X02818Y04534D03*
X02918D03*
X02718D03*
X02812Y05301D03*
X02912D03*
X02712D03*
G54D65*
X06493Y05664D03*
G54D66*
X06034Y05664D03*
G54D67*
X023Y0148D03*
X06865D03*
Y05818D03*
X023D03*
M02*