%FSTAX23Y23*%
%MOIN*%
%SFA1B1*%

%IPPOS*%
%ADD13C,0.003940*%
%LNdev_board_pcb-1*%
%LPD*%
G54D13*
X03954Y05731D02*
D01*
X03954Y05732*
X03954Y05734*
X03954Y05735*
X03954Y05736*
X03953Y05737*
X03953Y05739*
X03952Y0574*
X03951Y05741*
X03951Y05742*
X0395Y05743*
X03949Y05744*
X03948Y05745*
X03947Y05746*
X03946Y05747*
X03945Y05748*
X03943Y05748*
X03942Y05749*
X03941Y05749*
X03939Y0575*
X03938Y0575*
X03937Y0575*
X03935Y0575*
X03934*
X03933Y0575*
X03931Y0575*
X0393Y0575*
X03929Y05749*
X03927Y05749*
X03926Y05748*
X03925Y05748*
X03924Y05747*
X03923Y05746*
X03922Y05745*
X03921Y05744*
X0392Y05743*
X03919Y05742*
X03918Y05741*
X03917Y0574*
X03917Y05739*
X03916Y05737*
X03916Y05736*
X03915Y05735*
X03915Y05734*
X03915Y05732*
X03915Y05731*
X03915Y05729*
X03915Y05728*
X03915Y05727*
X03916Y05725*
X03916Y05724*
X03917Y05723*
X03917Y05722*
X03918Y0572*
X03919Y05719*
X0392Y05718*
X03921Y05717*
X03922Y05716*
X03923Y05715*
X03924Y05714*
X03925Y05714*
X03926Y05713*
X03927Y05713*
X03929Y05712*
X0393Y05712*
X03931Y05711*
X03933Y05711*
X03934Y05711*
X03935*
X03937Y05711*
X03938Y05711*
X03939Y05712*
X03941Y05712*
X03942Y05713*
X03943Y05713*
X03945Y05714*
X03946Y05714*
X03947Y05715*
X03948Y05716*
X03949Y05717*
X0395Y05718*
X03951Y05719*
X03951Y0572*
X03952Y05722*
X03953Y05723*
X03953Y05724*
X03954Y05725*
X03954Y05727*
X03954Y05728*
X03954Y05729*
X03954Y05731*
X04468Y03981D02*
D01*
X04468Y03982*
X04468Y03984*
X04467Y03985*
X04467Y03986*
X04467Y03988*
X04466Y03989*
X04465Y0399*
X04465Y03991*
X04464Y03992*
X04463Y03994*
X04462Y03995*
X04461Y03996*
X0446Y03996*
X04459Y03997*
X04458Y03998*
X04457Y03999*
X04455Y03999*
X04454Y04*
X04453Y04*
X04451Y04*
X0445Y04001*
X04449Y04001*
X04447*
X04446Y04001*
X04445Y04*
X04443Y04*
X04442Y04*
X04441Y03999*
X04439Y03999*
X04438Y03998*
X04437Y03997*
X04436Y03996*
X04435Y03996*
X04434Y03995*
X04433Y03994*
X04432Y03992*
X04431Y03991*
X04431Y0399*
X0443Y03989*
X0443Y03988*
X04429Y03986*
X04429Y03985*
X04429Y03984*
X04428Y03982*
X04428Y03981*
X04428Y0398*
X04429Y03978*
X04429Y03977*
X04429Y03975*
X0443Y03974*
X0443Y03973*
X04431Y03972*
X04431Y0397*
X04432Y03969*
X04433Y03968*
X04434Y03967*
X04435Y03966*
X04436Y03965*
X04437Y03965*
X04438Y03964*
X04439Y03963*
X04441Y03963*
X04442Y03962*
X04443Y03962*
X04445Y03962*
X04446Y03961*
X04447Y03961*
X04449*
X0445Y03961*
X04451Y03962*
X04453Y03962*
X04454Y03962*
X04455Y03963*
X04457Y03963*
X04458Y03964*
X04459Y03965*
X0446Y03965*
X04461Y03966*
X04462Y03967*
X04463Y03968*
X04464Y03969*
X04465Y0397*
X04465Y03972*
X04466Y03973*
X04467Y03974*
X04467Y03975*
X04467Y03977*
X04468Y03978*
X04468Y0398*
X04468Y03981*
X06438Y03548D02*
D01*
X06438Y0355*
X06438Y03551*
X06438Y03552*
X06437Y03554*
X06437Y03555*
X06436Y03556*
X06436Y03557*
X06435Y03559*
X06434Y0356*
X06434Y03561*
X06433Y03562*
X06432Y03563*
X06431Y03564*
X0643Y03565*
X06428Y03565*
X06427Y03566*
X06426Y03566*
X06425Y03567*
X06423Y03567*
X06422Y03568*
X06421Y03568*
X06419Y03568*
X06418*
X06416Y03568*
X06415Y03568*
X06414Y03567*
X06412Y03567*
X06411Y03566*
X0641Y03566*
X06409Y03565*
X06407Y03565*
X06406Y03564*
X06405Y03563*
X06404Y03562*
X06403Y03561*
X06403Y0356*
X06402Y03559*
X06401Y03557*
X06401Y03556*
X064Y03555*
X064Y03554*
X06399Y03552*
X06399Y03551*
X06399Y0355*
X06399Y03548*
X06399Y03547*
X06399Y03545*
X06399Y03544*
X064Y03543*
X064Y03541*
X06401Y0354*
X06401Y03539*
X06402Y03538*
X06403Y03537*
X06403Y03536*
X06404Y03535*
X06405Y03534*
X06406Y03533*
X06407Y03532*
X06409Y03531*
X0641Y0353*
X06411Y0353*
X06412Y03529*
X06414Y03529*
X06415Y03529*
X06416Y03529*
X06418Y03529*
X06419*
X06421Y03529*
X06422Y03529*
X06423Y03529*
X06425Y03529*
X06426Y0353*
X06427Y0353*
X06428Y03531*
X0643Y03532*
X06431Y03533*
X06432Y03534*
X06433Y03535*
X06434Y03536*
X06434Y03537*
X06435Y03538*
X06436Y03539*
X06436Y0354*
X06437Y03541*
X06437Y03543*
X06438Y03544*
X06438Y03545*
X06438Y03547*
X06438Y03548*
X06567Y05077D02*
D01*
X06567Y05078*
X06567Y0508*
X06567Y05081*
X06566Y05082*
X06566Y05084*
X06565Y05085*
X06565Y05086*
X06564Y05087*
X06563Y05088*
X06563Y05089*
X06562Y0509*
X06561Y05091*
X0656Y05092*
X06559Y05093*
X06557Y05094*
X06556Y05095*
X06555Y05095*
X06554Y05096*
X06552Y05096*
X06551Y05096*
X0655Y05096*
X06548Y05096*
X06547*
X06545Y05096*
X06544Y05096*
X06543Y05096*
X06541Y05096*
X0654Y05095*
X06539Y05095*
X06538Y05094*
X06536Y05093*
X06535Y05092*
X06534Y05091*
X06533Y0509*
X06532Y05089*
X06532Y05088*
X06531Y05087*
X0653Y05086*
X0653Y05085*
X06529Y05084*
X06529Y05082*
X06528Y05081*
X06528Y0508*
X06528Y05078*
X06528Y05077*
X06528Y05075*
X06528Y05074*
X06528Y05073*
X06529Y05071*
X06529Y0507*
X0653Y05069*
X0653Y05068*
X06531Y05066*
X06532Y05065*
X06532Y05064*
X06533Y05063*
X06534Y05062*
X06535Y05061*
X06536Y0506*
X06538Y0506*
X06539Y05059*
X0654Y05059*
X06541Y05058*
X06543Y05058*
X06544Y05057*
X06545Y05057*
X06547Y05057*
X06548*
X0655Y05057*
X06551Y05057*
X06552Y05058*
X06554Y05058*
X06555Y05059*
X06556Y05059*
X06557Y0506*
X06559Y0506*
X0656Y05061*
X06561Y05062*
X06562Y05063*
X06563Y05064*
X06563Y05065*
X06564Y05066*
X06565Y05068*
X06565Y05069*
X06566Y0507*
X06566Y05071*
X06567Y05073*
X06567Y05074*
X06567Y05075*
X06567Y05077*
X03899Y05353D02*
Y05766D01*
X0412Y05353D02*
Y05766D01*
X03899D02*
X0412D01*
X03899Y05353D02*
X0412D01*
X04413Y03623D02*
Y04016D01*
X04806Y03623D02*
Y04016D01*
X04413D02*
X04806D01*
X04413Y03623D02*
X04806D01*
X0658Y03513D02*
Y0367D01*
X06383Y03513D02*
Y0367D01*
X0658*
X06383Y03513D02*
X0658D01*
X06386Y04955D02*
Y05112D01*
X06583Y04955D02*
Y05112D01*
X06386Y04955D02*
X06583D01*
X06386Y05112D02*
X06583D01*
X03385Y05381D02*
X03472D01*
X03385Y05434D02*
X03472D01*
Y05381D02*
Y05434D01*
X03385Y05381D02*
Y05434D01*
X05196Y05328D02*
Y05365D01*
X05265Y05328D02*
Y05365D01*
X05196D02*
X05265D01*
X05196Y05328D02*
X05265D01*
X05194Y05722D02*
Y05759D01*
X05263Y05722D02*
Y05759D01*
X05194D02*
X05263D01*
X05194Y05722D02*
X05263D01*
X06285Y03638D02*
X06322D01*
X06285Y03707D02*
X06322D01*
X06285Y03638D02*
Y03707D01*
X06322Y03638D02*
Y03707D01*
X06286Y04108D02*
X06323D01*
X06286Y04039D02*
X06323D01*
Y04108*
X06286Y04039D02*
Y04108D01*
X06624Y04042D02*
X06661D01*
X06624Y04111D02*
X06661D01*
X06624Y04042D02*
Y04111D01*
X06661Y04042D02*
Y04111D01*
X03385Y05608D02*
X03472D01*
X03385Y05661D02*
X03472D01*
Y05608D02*
Y05661D01*
X03385Y05608D02*
Y05661D01*
X03031Y05545D02*
X03117D01*
X03031Y05491D02*
X03117D01*
X03031D02*
Y05545D01*
X03117Y05491D02*
Y05545D01*
X03033Y05644D02*
X03119D01*
X03033Y05591D02*
X03119D01*
X03033D02*
Y05644D01*
X03119Y05591D02*
Y05644D01*
X03005Y03032D02*
X03046D01*
X03005Y03053D02*
X03046D01*
X03005Y03032D02*
Y03053D01*
X03046Y03032D02*
Y03053D01*
X03013Y03261D02*
X03055D01*
X03013Y03282D02*
X03055D01*
X03013Y03261D02*
Y03282D01*
X03055Y03261D02*
Y03282D01*
X02617Y03669D02*
X02658D01*
X02617Y03647D02*
X02658D01*
Y03669*
X02617Y03647D02*
Y03669D01*
X02618Y0343D02*
X0266D01*
X02618Y03408D02*
X0266D01*
Y0343*
X02618Y03408D02*
Y0343D01*
X02617Y03281D02*
X02658D01*
X02617Y03259D02*
X02658D01*
Y03281*
X02617Y03259D02*
Y03281D01*
Y03052D02*
X02658D01*
X02617Y03031D02*
X02658D01*
Y03052*
X02617Y03031D02*
Y03052D01*
X03006Y03426D02*
X03048D01*
X03006Y03447D02*
X03048D01*
X03006Y03426D02*
Y03447D01*
X03048Y03426D02*
Y03447D01*
X03005Y03649D02*
X03047D01*
X03005Y0367D02*
X03047D01*
X03005Y03649D02*
Y0367D01*
X03047Y03649D02*
Y0367D01*
X03004Y03818D02*
X03045D01*
X03004Y03839D02*
X03045D01*
X03004Y03818D02*
Y03839D01*
X03045Y03818D02*
Y03839D01*
X03004Y04058D02*
X03045D01*
X03004Y04079D02*
X03045D01*
X03004Y04058D02*
Y04079D01*
X03045Y04058D02*
Y04079D01*
X02617D02*
X02658D01*
X02617Y04058D02*
X02658D01*
Y04079*
X02617Y04058D02*
Y04079D01*
Y0384D02*
X02658D01*
X02617Y03819D02*
X02658D01*
Y0384*
X02617Y03819D02*
Y0384D01*
X06632Y05101D02*
X06669D01*
X06632Y05032D02*
X06669D01*
Y05101*
X06632Y05032D02*
Y05101D01*
X06622Y04514D02*
X06659D01*
X06622Y04583D02*
X06659D01*
X06622Y04514D02*
Y04583D01*
X06659Y04514D02*
Y04583D01*
X06289Y04585D02*
X06326D01*
X06289Y04516D02*
X06326D01*
Y04585*
X06289Y04516D02*
Y04585D01*
X0661Y02706D02*
Y02748D01*
X06588Y02706D02*
Y02748D01*
X0661*
X06588Y02706D02*
X0661D01*
X06611Y03086D02*
Y03127D01*
X0659Y03086D02*
Y03127D01*
X06611*
X0659Y03086D02*
X06611D01*
X04822Y0577D02*
X04957D01*
Y0552D02*
Y0577D01*
X04822Y0552D02*
Y0577D01*
Y0552D02*
X04957D01*
X06431Y02645D02*
X06486D01*
X06431Y02764D02*
X06486D01*
Y02645D02*
Y02764D01*
X06431Y02645D02*
Y02764D01*
Y03024D02*
X06486D01*
X06431Y03144D02*
X06486D01*
Y03024D02*
Y03144D01*
X06431Y03024D02*
Y03144D01*
X04349Y05726D02*
Y05959D01*
X04664Y05726D02*
Y05959D01*
X04349Y05726D02*
X04664D01*
X04349Y05959D02*
X04664D01*
X05193Y05562D02*
X05262D01*
X05193Y05599D02*
X05262D01*
Y05562D02*
Y05599D01*
X05193Y05562D02*
Y05599D01*
X05194Y05485D02*
X05263D01*
X05194Y05523D02*
X05263D01*
Y05485D02*
Y05523D01*
X05194Y05485D02*
Y05523D01*
X05194Y05411D02*
X05263D01*
X05194Y05448D02*
X05263D01*
Y05411D02*
Y05448D01*
X05194Y05411D02*
Y05448D01*
X05193Y05642D02*
X05262D01*
X05193Y05679D02*
X05262D01*
Y05642D02*
Y05679D01*
X05193Y05642D02*
Y05679D01*
X06498Y04039D02*
Y04108D01*
X06461Y04039D02*
Y04108D01*
X06498*
X06461Y04039D02*
X06498D01*
X06445Y03358D02*
X06514D01*
X06445Y03395D02*
X06514D01*
Y03358D02*
Y03395D01*
X06445Y03358D02*
Y03395D01*
X03394Y05707D02*
X03463D01*
X03394Y05744D02*
X03463D01*
Y05707D02*
Y05744D01*
X03394Y05707D02*
Y05744D01*
X0305Y05698D02*
X03119D01*
X0305Y05735D02*
X03119D01*
Y05698D02*
Y05735D01*
X0305Y05698D02*
Y05735D01*
X03042Y05439D02*
X03111D01*
X03042Y05402D02*
X03111D01*
X03042D02*
Y05439D01*
X03111Y05402D02*
Y05439D01*
X06463Y04516D02*
Y04585D01*
X065Y04516D02*
Y04585D01*
X06463Y04516D02*
X065D01*
X06463Y04585D02*
X065D01*
X06449Y05278D02*
X06518D01*
X06449Y05241D02*
X06518D01*
X06449D02*
Y05278D01*
X06518Y05241D02*
Y05278D01*
X06249Y02659D02*
X06286D01*
X06249Y02728D02*
X06286D01*
X06249Y02659D02*
Y02728D01*
X06286Y02659D02*
Y02728D01*
X06246Y03057D02*
X06283D01*
X06246Y03126D02*
X06283D01*
X06246Y03057D02*
Y03126D01*
X06283Y03057D02*
Y03126D01*
M02*