%FSTAX23Y23*%
%MOIN*%
%SFA1B1*%

%IPPOS*%
%ADD9500C,0.010000*%
%ADD9501C,0.015000*%
%ADD9502C,0.015750*%
%ADD9503C,0.020080*%
%ADD9504C,0.025000*%
%ADD9505C,0.035430*%
%ADD9506C,0.039370*%
%ADD9507C,0.040160*%
%ADD9508C,0.160000*%
%ADD9509C,0.039370*%
%LNdev_board_pcb-1*%
%LPD*%
G54D9500*
X04954Y03771D03*
X04959Y04271D03*
X04903Y04248D03*
G54D9501*
X05688Y01547D03*
X06373Y02287D03*
X06413Y02379D03*
X06443Y02485D03*
X06327Y0278D03*
X06367Y03122D03*
X05975Y02987D03*
X05889Y02662D03*
X05923Y02614D03*
X05828Y02566D03*
X05792Y02593D03*
X05757Y02626D03*
X05707Y02671D03*
X05714Y02393D03*
X05767Y02396D03*
X05854Y02398D03*
X0584Y02295D03*
X058D03*
X05883Y02296D03*
X0589Y02196D03*
X05906Y02098D03*
X05931Y02D03*
X05957Y019D03*
X0599Y01797D03*
X05364Y02094D03*
X05397Y0219D03*
X05436Y02297D03*
X05481Y02397D03*
X04907Y02399D03*
X04812Y02381D03*
X04764Y02383D03*
X04747Y02475D03*
X04753Y02521D03*
X04809Y02504D03*
X04845Y02473D03*
X04874Y02514D03*
X05024Y02585D03*
X04761Y02628D03*
X0484Y0229D03*
X04859Y02186D03*
X04903Y02083D03*
X06108Y02654D03*
X06142Y02626D03*
X04686Y02563D03*
X04644Y02559D03*
X0439Y02669D03*
X04395Y02939D03*
X04459D03*
X0451Y02971D03*
X04556Y02999D03*
X04614Y03018D03*
X044Y03061D03*
X04367Y03005D03*
X04338Y02977D03*
X04318Y02942D03*
X04329Y03033D03*
X0425Y03089D03*
X04214Y03123D03*
X03156Y0301D03*
X03391Y02591D03*
X03345Y0253D03*
X03427Y02475D03*
X03483Y02498D03*
X03656Y0239D03*
X0363Y0229D03*
X03603Y02182D03*
X03567Y02088D03*
X03539Y01987D03*
X03511Y01886D03*
X04345Y0161D03*
X0462Y01838D03*
X02717Y01779D03*
X02378Y01814D03*
X02769Y02809D03*
X02847Y02913D03*
X03105Y03113D03*
X03107Y03272D03*
X03076Y03394D03*
X03012Y03557D03*
X02821Y03542D03*
X02762Y03716D03*
X02616Y03697D03*
X02478Y03744D03*
X02822Y03951D03*
X02949Y03162D03*
X0314Y03221D03*
X03172Y03274D03*
X03209Y03239D03*
X03247Y03281D03*
X03287Y03231D03*
X03337Y03266D03*
X03435Y03148D03*
X03661Y033D03*
X03708Y03275D03*
X03817Y03227D03*
X03593Y034D03*
X0355Y03413D03*
X03524Y03705D03*
X03485Y03761D03*
X03387Y03703D03*
X03322Y03704D03*
Y03793D03*
X03266Y03782D03*
X0318Y03821D03*
X03356Y03827D03*
X03182Y04049D03*
X0323Y04102D03*
X03693Y04206D03*
X03682Y03646D03*
X03732Y03637D03*
X04037Y03914D03*
X04079Y03895D03*
X04112Y03857D03*
X04096Y03975D03*
X04161Y03978D03*
X04184Y0393D03*
X04233Y03922D03*
X04284Y03945D03*
X04494Y04323D03*
X04556Y0435D03*
X04552Y04286D03*
X04663Y04288D03*
X04633Y03468D03*
X04662Y03437D03*
X04527Y03479D03*
X04509Y0352D03*
X04748Y03449D03*
X04788Y03465D03*
X05005Y03826D03*
X05046Y038D03*
X05091Y03806D03*
X04944Y03976D03*
X04912Y0404D03*
X04799Y04108D03*
X04768Y04134D03*
X05196Y04223D03*
X0525Y04257D03*
X05449Y04551D03*
X06206Y03482D03*
X06324D03*
X06363Y03432D03*
X06559Y0342D03*
X06627Y03821D03*
X06577Y0396D03*
X06479Y03983D03*
X06517Y04158D03*
X06482Y04641D03*
X06772Y0371D03*
X06371Y04704D03*
X06305Y0477D03*
X06348Y05113D03*
X06561Y05206D03*
X05159Y05059D03*
X05001Y05267D03*
X04838Y05308D03*
X04741Y05404D03*
X04701Y05469D03*
X05087Y05388D03*
X05144Y05426D03*
X04667Y05433D03*
X04628Y05476D03*
X04586Y0552D03*
X04542Y05411D03*
X0459Y05308D03*
X04394Y05374D03*
X04307Y05415D03*
X04246Y05448D03*
X04262Y0558D03*
X04229Y05636D03*
X04412Y0552D03*
X03797Y05628D03*
X03775Y05666D03*
X03708Y05695D03*
X03653Y05746D03*
X03589Y05789D03*
X03526Y0578D03*
X03568Y05579D03*
X03624Y05578D03*
X03617Y0535D03*
X03857Y0525D03*
X03936Y04835D03*
X04455Y04784D03*
X04429Y04735D03*
X04504Y04817D03*
X03775Y058D03*
X03328Y05552D03*
X03307Y05439D03*
X02979Y05517D03*
X02976Y05617D03*
X02609Y05656D03*
X023Y05091D03*
G54D9502*
X06236Y05432D03*
G54D9503*
X02718Y04534D03*
X02818D03*
X02918D03*
X02914Y04916D03*
X02814D03*
X02714D03*
X02712Y05301D03*
X02812D03*
X02912D03*
G54D9504*
X04269Y05849D03*
G54D9505*
X06493Y05664D03*
X06034D03*
G54D9506*
X02459Y04436D03*
Y04536D03*
X06308Y04361D03*
Y04261D03*
X06643Y04262D03*
Y04362D03*
X06655Y0554D03*
Y0564D03*
X02426Y0534D03*
Y0524D03*
X0244Y04938D03*
Y04838D03*
G54D9507*
X05038Y01739D03*
X05138D03*
Y01839D03*
Y01939D03*
Y02039D03*
Y02139D03*
Y02239D03*
Y02339D03*
Y02439D03*
X05038D03*
Y02339D03*
Y02239D03*
Y02139D03*
Y02039D03*
Y01939D03*
Y01839D03*
X06126Y01842D03*
X06226D03*
Y01942D03*
Y02042D03*
Y02142D03*
Y02242D03*
Y02342D03*
Y02442D03*
X06126D03*
Y02342D03*
Y02242D03*
Y02142D03*
Y02042D03*
Y01942D03*
Y01742D03*
X06226D03*
X04055Y01733D03*
Y01833D03*
Y01933D03*
Y02033D03*
Y02133D03*
Y02233D03*
Y02333D03*
Y02433D03*
X03955D03*
Y02333D03*
Y02233D03*
Y02133D03*
Y02033D03*
Y01933D03*
Y01833D03*
Y01733D03*
X02998Y01732D03*
Y01832D03*
Y01932D03*
Y02032D03*
Y02132D03*
Y02232D03*
Y02332D03*
Y02432D03*
X02898D03*
Y02332D03*
Y02232D03*
Y02132D03*
Y02032D03*
Y01932D03*
Y01832D03*
Y01732D03*
X03762Y04747D03*
X03959D03*
Y04943D03*
X03762D03*
G54D9508*
X023Y0148D03*
X06865D03*
Y05818D03*
X023D03*
G54D9509*
X0489Y0557D03*
Y0572D03*
M02*