G04*
G04 #@! TF.GenerationSoftware,Altium Limited,Altium Designer,19.0.14 (431)*
G04*
G04 Layer_Physical_Order=2*
G04 Layer_Color=16711680*
%FSLAX25Y25*%
%MOIN*%
G70*
G01*
G75*
%ADD15C,0.01000*%
%ADD17O,0.05709X0.02362*%
%ADD18R,0.03543X0.03937*%
%ADD19R,0.03543X0.03150*%
%ADD20R,0.03937X0.03543*%
%ADD22R,0.05118X0.04331*%
%ADD24R,0.08071X0.04528*%
%ADD25R,0.04528X0.08071*%
%ADD28R,0.02362X0.08268*%
%ADD29R,0.12598X0.08268*%
%ADD58C,0.01500*%
%ADD59C,0.12992*%
%ADD60C,0.08661*%
%ADD61C,0.03000*%
%ADD62R,0.05118X0.07087*%
%ADD63C,0.00800*%
G36*
X127153Y159535D02*
X127153D01*
Y159363D01*
X127153D01*
Y158117D01*
X122847D01*
Y158772D01*
X117310D01*
Y157526D01*
X113005D01*
Y158772D01*
X109757D01*
X109566Y159234D01*
X111112Y160781D01*
X113867D01*
X114090Y160448D01*
X114851Y159940D01*
X115748Y159761D01*
X116646Y159940D01*
X117406Y160448D01*
X117629Y160781D01*
X127153D01*
Y159535D01*
D02*
G37*
G36*
X158649D02*
X158649D01*
Y159363D01*
X158649D01*
Y158117D01*
X154343D01*
Y158772D01*
X148806D01*
Y157526D01*
X144501D01*
Y158772D01*
X138964D01*
Y153657D01*
X138764D01*
Y151386D01*
X144701D01*
Y153657D01*
X144501D01*
Y154875D01*
X148806D01*
Y153657D01*
X148606D01*
Y151386D01*
X151575D01*
X154543D01*
Y153657D01*
X154343D01*
Y155466D01*
X158649D01*
Y154220D01*
X161560D01*
Y138817D01*
X161334Y138666D01*
X160826Y137905D01*
X160647Y137008D01*
X160826Y136110D01*
X161334Y135350D01*
X162095Y134841D01*
X162992Y134663D01*
X163393Y134742D01*
X178317Y119818D01*
X178295Y119705D01*
X178449Y118932D01*
X178887Y118276D01*
X179542Y117839D01*
X180315Y117685D01*
X183661D01*
X183783Y117709D01*
X184151Y117341D01*
X183904Y116880D01*
X183661Y116929D01*
X182488D01*
Y114705D01*
Y112481D01*
X183661D01*
X183904Y112529D01*
X184151Y112068D01*
X183783Y111700D01*
X183661Y111725D01*
X180315D01*
X179542Y111571D01*
X178887Y111133D01*
X178449Y110478D01*
X178295Y109705D01*
X178449Y108932D01*
X178887Y108276D01*
X179542Y107839D01*
X180315Y107685D01*
X183661D01*
X183783Y107709D01*
X184405Y107087D01*
X184159Y106626D01*
X183661Y106725D01*
X180315D01*
X179542Y106571D01*
X178887Y106133D01*
X178449Y105478D01*
X178295Y104705D01*
X178449Y103932D01*
X178640Y103645D01*
X174799Y99804D01*
X172457D01*
Y100004D01*
X170123D01*
X170007Y100180D01*
X169930Y100504D01*
X172241Y102814D01*
X172529Y103244D01*
X172629Y103752D01*
Y115727D01*
X172529Y116234D01*
X172241Y116664D01*
X168263Y120642D01*
X167833Y120929D01*
X167326Y121030D01*
X163702D01*
X163633Y121133D01*
X162978Y121571D01*
X162205Y121725D01*
X158858D01*
X158085Y121571D01*
X157430Y121133D01*
X156992Y120478D01*
X156838Y119705D01*
X156992Y118932D01*
X157430Y118276D01*
X158085Y117839D01*
X158858Y117685D01*
X162205D01*
X162978Y117839D01*
X163633Y118276D01*
X163702Y118379D01*
X166777D01*
X167912Y117244D01*
X167767Y116765D01*
X167606Y116734D01*
X166846Y116225D01*
X166669Y115961D01*
X163748D01*
X163633Y116133D01*
X162978Y116571D01*
X162205Y116725D01*
X158858D01*
X158085Y116571D01*
X157430Y116133D01*
X156992Y115478D01*
X156838Y114705D01*
X156862Y114583D01*
X152521Y110241D01*
X152058Y110433D01*
Y142476D01*
X151958Y142983D01*
X151670Y143413D01*
X150200Y144883D01*
X150278Y145276D01*
X150100Y146173D01*
X149591Y146934D01*
X148830Y147442D01*
X147933Y147621D01*
X147036Y147442D01*
X146275Y146934D01*
X145766Y146173D01*
X145588Y145276D01*
X145766Y144378D01*
X146275Y143617D01*
X147036Y143109D01*
X147933Y142930D01*
X148326Y143009D01*
X149408Y141927D01*
Y134890D01*
X148967Y134654D01*
X148830Y134745D01*
X147933Y134924D01*
X147036Y134745D01*
X146275Y134237D01*
X145766Y133476D01*
X145588Y132579D01*
X145766Y131681D01*
X146275Y130921D01*
X146608Y130698D01*
Y92577D01*
X130314Y76283D01*
X129921Y76361D01*
X129024Y76182D01*
X128263Y75674D01*
X127755Y74913D01*
X127576Y74016D01*
X127755Y73118D01*
X128263Y72357D01*
X129024Y71849D01*
X129921Y71671D01*
X130819Y71849D01*
X131579Y72357D01*
X132088Y73118D01*
X132266Y74016D01*
X132188Y74408D01*
X147263Y89483D01*
X147725Y89292D01*
Y84558D01*
X147392Y84335D01*
X146884Y83575D01*
X146705Y82677D01*
X146884Y81780D01*
X147392Y81019D01*
X148153Y80511D01*
X149050Y80332D01*
X149948Y80511D01*
X150709Y81019D01*
X150952Y81383D01*
X151452Y81231D01*
Y56643D01*
X150990Y56452D01*
X141544Y65898D01*
X141114Y66185D01*
X140606Y66286D01*
X118810D01*
X118587Y66619D01*
X117826Y67127D01*
X116929Y67306D01*
X116032Y67127D01*
X115271Y66619D01*
X114763Y65858D01*
X114584Y64961D01*
X114763Y64063D01*
X115271Y63302D01*
X116032Y62794D01*
X116929Y62616D01*
X117826Y62794D01*
X118587Y63302D01*
X118810Y63635D01*
X140057D01*
X141855Y61838D01*
X141664Y61376D01*
X103569D01*
X103377Y61838D01*
X115414Y73874D01*
X115701Y74304D01*
X115802Y74811D01*
Y87980D01*
X116695D01*
X116823Y87954D01*
X121808D01*
X126473Y83289D01*
X126395Y82896D01*
X126574Y81999D01*
X127082Y81238D01*
X127843Y80730D01*
X128740Y80551D01*
X129638Y80730D01*
X130398Y81238D01*
X130907Y81999D01*
X131085Y82896D01*
X131007Y83289D01*
X132433Y84715D01*
X132721Y85145D01*
X132822Y85652D01*
Y104419D01*
X133154Y104641D01*
X133663Y105402D01*
X133841Y106299D01*
X133663Y107197D01*
X133154Y107957D01*
X132822Y108180D01*
Y111886D01*
X132915Y111915D01*
X133321Y112005D01*
X134048Y111520D01*
X134946Y111341D01*
X135843Y111520D01*
X136604Y112028D01*
X137112Y112789D01*
X137291Y113686D01*
X137112Y114583D01*
X136604Y115344D01*
X136271Y115567D01*
Y151964D01*
X136170Y152471D01*
X135883Y152901D01*
X132690Y156094D01*
Y159363D01*
X132690D01*
Y159535D01*
X132690D01*
Y160781D01*
X158649D01*
Y159535D01*
D02*
G37*
G36*
X188964Y159535D02*
X188964D01*
Y159363D01*
X188964D01*
Y158117D01*
X184658D01*
Y158772D01*
X179121D01*
Y157526D01*
X174816D01*
Y158772D01*
X169279D01*
Y153657D01*
X169079D01*
Y151386D01*
X175016D01*
Y153657D01*
X174816D01*
Y154875D01*
X179121D01*
Y153657D01*
X178921D01*
Y151386D01*
X181890D01*
X184858D01*
Y153657D01*
X184658D01*
Y155466D01*
X188964D01*
Y154220D01*
X190407D01*
Y105467D01*
X189907Y105315D01*
X189869Y105371D01*
X185657Y109583D01*
X185681Y109705D01*
X185657Y109826D01*
X187080Y111249D01*
X187367Y111679D01*
X187468Y112186D01*
X187468Y112186D01*
Y117224D01*
X187468Y117224D01*
X187367Y117731D01*
X187080Y118161D01*
X185657Y119583D01*
X185681Y119705D01*
X185528Y120478D01*
X185090Y121133D01*
X184434Y121571D01*
X183661Y121725D01*
X180315D01*
X180185Y121699D01*
X165261Y136624D01*
X165337Y137008D01*
X165159Y137905D01*
X164650Y138666D01*
X164211Y138959D01*
Y155520D01*
X164186Y155648D01*
Y159363D01*
X164186D01*
Y159535D01*
X164186D01*
Y160781D01*
X188964D01*
Y159535D01*
D02*
G37*
G36*
X127153Y154220D02*
X130815D01*
X133620Y151415D01*
Y115721D01*
X133321Y115495D01*
X132822Y115679D01*
Y129693D01*
X132721Y130200D01*
X132433Y130630D01*
X128641Y134422D01*
X128440Y134557D01*
X127965Y135031D01*
Y138300D01*
X124053D01*
X123925Y138326D01*
X119092D01*
X109766Y147652D01*
X109957Y148114D01*
X113205D01*
Y150386D01*
X110236D01*
Y151386D01*
X113205D01*
Y153657D01*
X113005D01*
Y154875D01*
X117310D01*
Y153657D01*
X117110D01*
Y151386D01*
X120079D01*
X123047D01*
Y153657D01*
X122847D01*
Y155466D01*
X127153D01*
Y154220D01*
D02*
G37*
G36*
X342802Y162062D02*
X274080D01*
X273572Y161961D01*
X273142Y161673D01*
X254479Y143010D01*
X254091Y143329D01*
X254529Y143984D01*
X254707Y144882D01*
X254529Y145779D01*
X254020Y146540D01*
X253260Y147048D01*
X252362Y147227D01*
X251465Y147048D01*
X250704Y146540D01*
X250511Y146251D01*
X243024D01*
Y147698D01*
X250303D01*
X250431Y147724D01*
X254343D01*
Y152539D01*
X254343Y152867D01*
X254343Y153367D01*
Y156307D01*
X262184Y164148D01*
X342802D01*
Y162062D01*
D02*
G37*
G36*
X250704Y143224D02*
X251465Y142715D01*
X252362Y142537D01*
X253260Y142715D01*
X253915Y143153D01*
X254234Y142765D01*
X252106Y140637D01*
X251819Y140207D01*
X251718Y139700D01*
Y135249D01*
X248806D01*
Y130434D01*
X248806Y130105D01*
X248806Y129605D01*
Y128286D01*
X243024D01*
Y128457D01*
X241778D01*
Y131188D01*
X243024D01*
Y136725D01*
X237909D01*
Y136925D01*
X235638D01*
Y133957D01*
Y130988D01*
X237909D01*
Y131188D01*
X239127D01*
Y128811D01*
X238774Y128457D01*
X237881Y128457D01*
X237381Y128457D01*
X232566D01*
Y127022D01*
X226391D01*
Y129512D01*
X226590D01*
Y131783D01*
X223622D01*
X220654D01*
Y129512D01*
X220853D01*
Y126271D01*
X203462Y108880D01*
X203175Y108450D01*
X203074Y107942D01*
Y62904D01*
X202822Y62736D01*
X202499Y62688D01*
X202176Y62736D01*
X201925Y62904D01*
Y123301D01*
X217008Y138385D01*
X217487Y138240D01*
X217518Y138079D01*
X218027Y137318D01*
X218788Y136810D01*
X219685Y136631D01*
X220583Y136810D01*
X221343Y137318D01*
X221536Y137607D01*
X241147D01*
X241502Y137678D01*
X241622Y137597D01*
X242520Y137419D01*
X243417Y137597D01*
X244178Y138106D01*
X244686Y138866D01*
X244865Y139764D01*
X244730Y140440D01*
X245011Y140901D01*
X245089Y140958D01*
X245253Y140966D01*
X245586Y140468D01*
X246347Y139959D01*
X247244Y139781D01*
X248142Y139959D01*
X248902Y140468D01*
X249411Y141229D01*
X249589Y142126D01*
X249411Y143023D01*
X249320Y143159D01*
X249555Y143600D01*
X250452D01*
X250704Y143224D01*
D02*
G37*
G36*
X327054Y157350D02*
X310945D01*
X310437Y157249D01*
X310007Y156962D01*
X304826Y151781D01*
X304539Y151351D01*
X304476Y151036D01*
X300008Y146568D01*
X296346D01*
Y141753D01*
X296346Y141424D01*
X296346Y140924D01*
Y139605D01*
X290564D01*
Y139776D01*
X289318D01*
Y142507D01*
X290564D01*
Y148044D01*
X285449D01*
Y148244D01*
X283177D01*
Y145276D01*
Y142307D01*
X285449D01*
Y142507D01*
X286667D01*
Y140130D01*
X286313Y139776D01*
X285420Y139776D01*
X284921Y139776D01*
X280105D01*
Y138341D01*
X273930D01*
Y140831D01*
X274130D01*
Y143102D01*
X271161D01*
X268193D01*
Y140884D01*
X259661D01*
X259627Y141055D01*
X259119Y141816D01*
X258358Y142324D01*
X258197Y142356D01*
X258052Y142834D01*
X274629Y159411D01*
X327054D01*
Y157350D01*
D02*
G37*
G36*
X310683Y153235D02*
Y149987D01*
X311929D01*
Y147257D01*
X310683D01*
Y141720D01*
X311863D01*
Y139383D01*
X310617D01*
Y135471D01*
X310592Y135343D01*
Y134218D01*
X300107Y123733D01*
X296444D01*
Y118918D01*
X296444Y118590D01*
X296444Y118090D01*
Y116770D01*
X290662D01*
Y116942D01*
X289416D01*
Y119672D01*
X290662D01*
Y125209D01*
X285547D01*
Y125409D01*
X283276D01*
Y122441D01*
Y119472D01*
X285547D01*
Y119672D01*
X286765D01*
Y116942D01*
X285519D01*
Y116942D01*
X285347D01*
Y116942D01*
X280204D01*
Y115507D01*
X274028D01*
Y117996D01*
X274228D01*
Y120268D01*
X271260D01*
X268291D01*
Y118050D01*
X247194D01*
X244971Y120273D01*
X244541Y120560D01*
X244034Y120661D01*
X220887D01*
X220380Y120560D01*
X219950Y120273D01*
X207262Y107584D01*
X206975Y107154D01*
X206874Y106647D01*
Y62904D01*
X206622Y62736D01*
X206299Y62688D01*
X205976Y62736D01*
X205725Y62904D01*
Y107394D01*
X222728Y124397D01*
X224766D01*
X224894Y124371D01*
X232566D01*
Y122921D01*
X237381D01*
X237709Y122921D01*
X238210Y122921D01*
X243024D01*
Y125635D01*
X248806D01*
Y124791D01*
X254343D01*
Y129605D01*
X254343Y129934D01*
X254343Y130434D01*
Y133821D01*
X254369Y133949D01*
Y139151D01*
X254784Y139566D01*
X255262Y139421D01*
X255294Y139260D01*
X255802Y138499D01*
X256563Y137991D01*
X257461Y137812D01*
X258358Y137991D01*
X258721Y138234D01*
X268393D01*
Y135716D01*
X272108D01*
X272236Y135690D01*
X280105D01*
Y134239D01*
X284921D01*
X285249Y134239D01*
X285749Y134239D01*
X290564D01*
Y136954D01*
X296346D01*
Y136109D01*
X301883D01*
Y140924D01*
X301883Y141253D01*
X301883Y141753D01*
Y144693D01*
X306701Y149511D01*
X306988Y149941D01*
X307051Y150256D01*
X310221Y153427D01*
X310683Y153235D01*
D02*
G37*
G36*
X398985Y173980D02*
X398984Y1018D01*
X308796Y1018D01*
X308296Y1018D01*
Y32172D01*
X309166D01*
X309472Y31799D01*
X309530Y31679D01*
X309152Y31114D01*
X308974Y30217D01*
X309152Y29319D01*
X309661Y28558D01*
X309972Y28350D01*
Y27850D01*
X309661Y27643D01*
X309152Y26882D01*
X308974Y25984D01*
X309152Y25087D01*
X309661Y24326D01*
X309972Y24118D01*
Y23618D01*
X309661Y23410D01*
X309152Y22649D01*
X308974Y21752D01*
X309152Y20854D01*
X309661Y20094D01*
X309972Y19886D01*
Y19386D01*
X309661Y19178D01*
X309152Y18417D01*
X308974Y17520D01*
X309152Y16622D01*
X309661Y15861D01*
X310421Y15353D01*
X311319Y15175D01*
X312216Y15353D01*
X312977Y15861D01*
X313323Y16379D01*
X313908D01*
X314254Y15861D01*
X315015Y15353D01*
X315912Y15175D01*
X316810Y15353D01*
X317570Y15861D01*
X317916Y16379D01*
X318501D01*
X318847Y15861D01*
X319608Y15353D01*
X320505Y15175D01*
X321403Y15353D01*
X322164Y15861D01*
X322509Y16379D01*
X323094D01*
X323440Y15861D01*
X324201Y15353D01*
X325028Y15189D01*
X325288Y14741D01*
X321465Y10918D01*
X313668D01*
Y4791D01*
X323339D01*
Y9044D01*
X339638Y25342D01*
X339925Y25772D01*
X340026Y26280D01*
Y27139D01*
X340488Y27330D01*
X343434Y24384D01*
X343947Y24042D01*
X344551Y23921D01*
X345714D01*
X349970Y19666D01*
Y17631D01*
X336602D01*
Y7763D01*
X350800D01*
Y12525D01*
X351262Y12717D01*
X359166Y4813D01*
X359678Y4470D01*
X360283Y4350D01*
X370426D01*
X371030Y4470D01*
X371543Y4813D01*
X372451Y5721D01*
X372794Y6233D01*
X372914Y6838D01*
Y15379D01*
X372794Y15984D01*
X372451Y16497D01*
X370584Y18364D01*
Y21666D01*
X369592D01*
Y25578D01*
X370584D01*
Y31115D01*
X369592D01*
Y36208D01*
X370584D01*
Y40120D01*
X370609Y40248D01*
Y44030D01*
X371448Y44869D01*
X374389D01*
X374717Y44869D01*
X375217Y44869D01*
X380032D01*
Y50406D01*
X378581D01*
Y57861D01*
X378950D01*
Y63792D01*
X372232D01*
Y57861D01*
X375930D01*
Y50760D01*
X375577Y50406D01*
X374889Y50406D01*
X374389Y50406D01*
X369574D01*
Y46744D01*
X368346Y45516D01*
X368059Y45086D01*
X367958Y44579D01*
Y41745D01*
X365769D01*
X365440Y41745D01*
X364940Y41745D01*
X364277D01*
Y47668D01*
X364157Y48273D01*
X363987Y48527D01*
X364718Y49479D01*
X365235Y50728D01*
X365411Y52067D01*
X365235Y53406D01*
X364718Y54654D01*
X363896Y55726D01*
X362824Y56549D01*
X361576Y57066D01*
X360236Y57242D01*
X358897Y57066D01*
X357649Y56549D01*
X356577Y55726D01*
X355755Y54654D01*
X355238Y53406D01*
X355061Y52067D01*
X355238Y50728D01*
X355755Y49479D01*
X356577Y48408D01*
X357649Y47585D01*
X358897Y47068D01*
X360236Y46892D01*
X360740Y46958D01*
X361117Y46629D01*
Y41745D01*
X360125D01*
Y36208D01*
X364940D01*
X365268Y36208D01*
X365769Y36208D01*
X366431D01*
Y31115D01*
X365440D01*
Y31115D01*
X365268D01*
Y31115D01*
X361553D01*
X361425Y31140D01*
X356162D01*
X355682Y31188D01*
Y41056D01*
X353450D01*
X352185Y42321D01*
X351788Y42586D01*
X351320Y42679D01*
X347023D01*
X346554Y42586D01*
X346158Y42321D01*
X345336Y41499D01*
X345070Y41102D01*
X345061Y41056D01*
X344451D01*
Y36122D01*
X342951D01*
Y41056D01*
X342340D01*
X342331Y41102D01*
X342066Y41499D01*
X341244Y42321D01*
X340847Y42586D01*
X340379Y42679D01*
X336082D01*
X335614Y42586D01*
X335217Y42321D01*
X333952Y41056D01*
X331720D01*
Y35340D01*
X324520D01*
Y40564D01*
X319406D01*
Y40764D01*
X317134D01*
Y37795D01*
X316634D01*
Y37295D01*
X313862D01*
Y35340D01*
X309166D01*
Y41843D01*
X308296D01*
Y42701D01*
X309683D01*
Y45669D01*
X310433D01*
D01*
X309683D01*
Y48638D01*
X308296D01*
Y54559D01*
X308262Y54729D01*
X308234Y54871D01*
X308057Y55136D01*
X307981Y55614D01*
X308009Y55740D01*
X319292Y67024D01*
X319685Y66946D01*
X320583Y67125D01*
X321343Y67633D01*
X321852Y68394D01*
X322030Y69291D01*
X321852Y70189D01*
X321343Y70950D01*
X320583Y71458D01*
X319685Y71636D01*
X318788Y71458D01*
X318368Y71177D01*
X318115Y71336D01*
X317963Y71508D01*
X318127Y72338D01*
X317949Y73235D01*
X317529Y73864D01*
X317722Y74363D01*
X323740D01*
X323742Y74350D01*
X324258Y73102D01*
X325081Y72030D01*
X326153Y71207D01*
X327401Y70690D01*
X328740Y70514D01*
X330080Y70690D01*
X331328Y71207D01*
X332399Y72030D01*
X333222Y73102D01*
X333739Y74350D01*
X333915Y75689D01*
X333739Y77028D01*
X333222Y78276D01*
X332399Y79348D01*
X331328Y80171D01*
X330080Y80688D01*
X328740Y80864D01*
X327401Y80688D01*
X326153Y80171D01*
X325081Y79348D01*
X324258Y78276D01*
X323742Y77028D01*
X323740Y77014D01*
X301883D01*
Y77965D01*
X296346D01*
Y73150D01*
X296346Y72822D01*
X296346Y72322D01*
Y71003D01*
X290564D01*
Y71174D01*
X289318D01*
Y73905D01*
X290564D01*
Y79442D01*
X285449D01*
Y79642D01*
X283177D01*
Y76673D01*
Y73705D01*
X285449D01*
Y73905D01*
X286667D01*
Y71528D01*
X286313Y71174D01*
X285420Y71174D01*
X284921Y71174D01*
X280105D01*
Y69739D01*
X273930D01*
Y72228D01*
X274130D01*
Y74500D01*
X271161D01*
X268193D01*
Y72282D01*
X265639D01*
X265254Y72539D01*
X264747Y72640D01*
X260159D01*
X259652Y72539D01*
X259222Y72252D01*
X258610Y71640D01*
X241486D01*
X241422Y71737D01*
X240661Y72245D01*
X239763Y72424D01*
X238866Y72245D01*
X238105Y71737D01*
X237883Y71404D01*
X235972D01*
X235821Y71904D01*
X235910Y71964D01*
X236419Y72725D01*
X236597Y73622D01*
X236419Y74519D01*
X235910Y75280D01*
X235577Y75503D01*
Y76661D01*
X237709D01*
Y76661D01*
X237881D01*
Y76661D01*
X243024D01*
Y78505D01*
X250303D01*
X250431Y78531D01*
X254343D01*
Y83674D01*
X254343D01*
Y83846D01*
X254343D01*
Y86032D01*
X323795D01*
X324258Y84913D01*
X325081Y83841D01*
X326153Y83018D01*
X327401Y82501D01*
X328740Y82325D01*
X330080Y82501D01*
X331328Y83018D01*
X332399Y83841D01*
X333222Y84913D01*
X333739Y86161D01*
X333915Y87500D01*
X333739Y88839D01*
X333222Y90087D01*
X332399Y91159D01*
X331328Y91982D01*
X330080Y92499D01*
X328740Y92675D01*
X327401Y92499D01*
X326153Y91982D01*
X325081Y91159D01*
X324258Y90087D01*
X323742Y88839D01*
X323721Y88683D01*
X319240D01*
X319005Y89124D01*
X319096Y89260D01*
X319274Y90158D01*
X319096Y91055D01*
X318587Y91816D01*
X318255Y92038D01*
Y94576D01*
X318587Y94798D01*
X319096Y95559D01*
X319274Y96457D01*
X319096Y97354D01*
X318968Y97545D01*
X319204Y97986D01*
X323740D01*
X323742Y97972D01*
X324258Y96724D01*
X325081Y95652D01*
X326153Y94829D01*
X327401Y94312D01*
X328740Y94136D01*
X330080Y94312D01*
X331328Y94829D01*
X332399Y95652D01*
X333222Y96724D01*
X333739Y97972D01*
X333915Y99311D01*
X333739Y100650D01*
X333222Y101899D01*
X332399Y102970D01*
X331328Y103793D01*
X330080Y104310D01*
X328740Y104486D01*
X327401Y104310D01*
X326153Y103793D01*
X325081Y102970D01*
X324258Y101899D01*
X323742Y100650D01*
X323740Y100636D01*
X301883D01*
Y100898D01*
X296346D01*
Y95755D01*
X296346D01*
Y95583D01*
X296346D01*
Y93936D01*
X290564D01*
Y94107D01*
X289318D01*
Y96838D01*
X290564D01*
Y102375D01*
X285449D01*
Y102575D01*
X283177D01*
Y99606D01*
Y96638D01*
X285449D01*
Y96838D01*
X286667D01*
Y94107D01*
X285420D01*
Y94107D01*
X285249D01*
Y94107D01*
X280105D01*
Y92672D01*
X273930D01*
Y95161D01*
X274130D01*
Y97433D01*
X271161D01*
X268193D01*
Y95161D01*
X268393D01*
Y92672D01*
X261427D01*
X261079Y93172D01*
X261203Y93799D01*
X261025Y94697D01*
X260517Y95457D01*
X259756Y95966D01*
X258858Y96144D01*
X257961Y95966D01*
X257200Y95457D01*
X257109Y95322D01*
X228292D01*
X227938Y95851D01*
X227177Y96359D01*
X226279Y96538D01*
X225382Y96359D01*
X224621Y95851D01*
X224113Y95090D01*
X223935Y94193D01*
X224113Y93296D01*
X224450Y92791D01*
X224183Y92291D01*
X222985D01*
X222478Y92190D01*
X222048Y91903D01*
X213979Y83834D01*
X213825Y83603D01*
X213325Y83754D01*
Y92257D01*
X222728Y101661D01*
X224766D01*
X224894Y101635D01*
X232566D01*
Y100184D01*
X237539Y100184D01*
X237855Y99802D01*
X237848Y99698D01*
X237597Y99322D01*
X237419Y98425D01*
X237597Y97528D01*
X238106Y96767D01*
X238866Y96258D01*
X239764Y96080D01*
X240661Y96258D01*
X241422Y96767D01*
X241772Y97291D01*
X247865D01*
X247959Y97149D01*
X248720Y96641D01*
X249618Y96463D01*
X250515Y96641D01*
X251276Y97149D01*
X251784Y97910D01*
X251963Y98808D01*
X251784Y99705D01*
X251276Y100466D01*
X250515Y100974D01*
X249618Y101153D01*
X248720Y100974D01*
X247959Y100466D01*
X247609Y99942D01*
X243424D01*
X243024Y100184D01*
Y102899D01*
X248806D01*
Y102054D01*
X254343D01*
X254343Y107198D01*
X254783Y107344D01*
X273042D01*
X273887Y106499D01*
X274317Y106212D01*
X274825Y106111D01*
X324180D01*
X324687Y106212D01*
X325117Y106499D01*
X325647Y107028D01*
X326153Y106640D01*
X327401Y106123D01*
X328740Y105947D01*
X330080Y106123D01*
X331328Y106640D01*
X332399Y107463D01*
X333222Y108535D01*
X333739Y109783D01*
X333915Y111122D01*
X333739Y112461D01*
X333222Y113709D01*
X332399Y114781D01*
X331328Y115604D01*
X330080Y116121D01*
X328740Y116297D01*
X327401Y116121D01*
X326153Y115604D01*
X325081Y114781D01*
X324258Y113709D01*
X323742Y112461D01*
X323565Y111122D01*
X323742Y109783D01*
X324008Y109139D01*
X323631Y108762D01*
X303492D01*
X303257Y109203D01*
X303348Y109339D01*
X303526Y110236D01*
X303348Y111134D01*
X302839Y111894D01*
X302079Y112403D01*
X301181Y112581D01*
X300284Y112403D01*
X299523Y111894D01*
X299432Y111758D01*
X290662D01*
Y114119D01*
X296444D01*
Y113275D01*
X301981D01*
Y118090D01*
X301981Y118418D01*
X301981Y118918D01*
Y121859D01*
X312855Y132732D01*
X313142Y133162D01*
X313243Y133669D01*
Y133846D01*
X315432D01*
X315761Y133846D01*
X316261Y133846D01*
X319201D01*
X325590Y127457D01*
X325557Y126958D01*
X325081Y126592D01*
X324258Y125521D01*
X323742Y124273D01*
X323565Y122933D01*
X323742Y121594D01*
X324258Y120346D01*
X325081Y119274D01*
X326153Y118451D01*
X327401Y117934D01*
X328740Y117758D01*
X330080Y117934D01*
X331328Y118451D01*
X332399Y119274D01*
X333222Y120346D01*
X333739Y121594D01*
X333915Y122933D01*
X333739Y124273D01*
X333222Y125521D01*
X332399Y126592D01*
X331328Y127415D01*
X330080Y127932D01*
X328740Y128108D01*
X328514Y128078D01*
X328499Y128154D01*
X328211Y128584D01*
X321076Y135720D01*
Y139383D01*
X316261D01*
X315932Y139383D01*
X315432Y139383D01*
X314514D01*
Y141720D01*
X315798D01*
Y141520D01*
X318070D01*
Y144488D01*
Y147457D01*
X315798D01*
Y147257D01*
X314580D01*
Y149987D01*
X315826D01*
Y149987D01*
X315998D01*
Y149987D01*
X321141D01*
Y151430D01*
X322529D01*
X322751Y151098D01*
X323512Y150589D01*
X324410Y150411D01*
X325307Y150589D01*
X325993Y151048D01*
X326113D01*
X327054Y150107D01*
Y146444D01*
X331788D01*
X331995Y145944D01*
X330932Y144881D01*
X330645Y144451D01*
X330639Y144423D01*
X330323Y144107D01*
X327054D01*
Y138570D01*
X331869D01*
X332198Y138570D01*
Y138570D01*
X332369D01*
Y138570D01*
X334887D01*
Y121471D01*
X334988Y120964D01*
X335088Y120813D01*
X334923Y120687D01*
X334101Y119615D01*
X333584Y118367D01*
X333408Y117028D01*
X333584Y115688D01*
X334101Y114440D01*
X334923Y113368D01*
X335995Y112546D01*
X337243Y112029D01*
X338583Y111853D01*
X339922Y112029D01*
X341170Y112546D01*
X342242Y113368D01*
X343064Y114440D01*
X343581Y115688D01*
X343758Y117028D01*
X343581Y118367D01*
X343064Y119615D01*
X342242Y120687D01*
X341170Y121509D01*
X339922Y122026D01*
X338583Y122203D01*
X337914Y122115D01*
X337538Y122444D01*
Y140067D01*
X337513Y140195D01*
Y144107D01*
X334560D01*
X334369Y144569D01*
X334607Y144807D01*
X334894Y145237D01*
X334995Y145744D01*
Y146444D01*
X337513D01*
Y151981D01*
X334995D01*
Y152681D01*
X334894Y153188D01*
X334607Y153618D01*
X334569Y153656D01*
X334760Y154118D01*
X337713D01*
Y156587D01*
X334941D01*
Y157587D01*
X337713D01*
Y159411D01*
X344049D01*
Y156705D01*
X342802D01*
Y151169D01*
X344049D01*
Y148831D01*
X342802D01*
Y143295D01*
X347617D01*
X347946Y143295D01*
X348446Y143295D01*
X349068D01*
Y122028D01*
X349054Y122026D01*
X347806Y121509D01*
X346734Y120687D01*
X345912Y119615D01*
X345395Y118367D01*
X345219Y117028D01*
X345395Y115688D01*
X345912Y114440D01*
X346734Y113368D01*
X347806Y112546D01*
X349054Y112029D01*
X350394Y111853D01*
X351733Y112029D01*
X352981Y112546D01*
X354053Y113368D01*
X354875Y114440D01*
X355392Y115688D01*
X355569Y117028D01*
X355392Y118367D01*
X354875Y119615D01*
X354053Y120687D01*
X352981Y121509D01*
X351733Y122026D01*
X351719Y122028D01*
Y143295D01*
X353261D01*
Y148831D01*
X348446D01*
X348117Y148831D01*
X347617Y148831D01*
X346700D01*
Y151169D01*
X347917D01*
Y150969D01*
X350189D01*
Y153937D01*
Y156905D01*
X347917D01*
Y156705D01*
X346700D01*
Y159436D01*
X347946D01*
Y159436D01*
X348117D01*
Y159436D01*
X353261D01*
Y160879D01*
X354025D01*
X354247Y160547D01*
X355008Y160038D01*
X355906Y159860D01*
X356803Y160038D01*
X357489Y160497D01*
X358101D01*
X359043Y159555D01*
Y155893D01*
X363776D01*
X363983Y155393D01*
X362920Y154330D01*
X362633Y153900D01*
X362627Y153872D01*
X362311Y153556D01*
X359043D01*
Y148019D01*
X364186D01*
X364332Y147579D01*
Y128903D01*
X362835Y127406D01*
X362824Y127415D01*
X361576Y127932D01*
X360236Y128108D01*
X358897Y127932D01*
X357649Y127415D01*
X356577Y126592D01*
X355755Y125521D01*
X355238Y124273D01*
X355061Y122933D01*
X355238Y121594D01*
X355755Y120346D01*
X356577Y119274D01*
X357649Y118451D01*
X358897Y117934D01*
X360236Y117758D01*
X361576Y117934D01*
X362824Y118451D01*
X363896Y119274D01*
X364718Y120346D01*
X365235Y121594D01*
X365411Y122933D01*
X365235Y124273D01*
X364718Y125521D01*
X364709Y125532D01*
X366595Y127417D01*
X366882Y127847D01*
X366983Y128354D01*
Y148019D01*
X369501D01*
Y153556D01*
X366548D01*
X366357Y154018D01*
X366595Y154256D01*
X366882Y154686D01*
X366983Y155193D01*
Y155893D01*
X369501D01*
Y161430D01*
X366983D01*
Y162130D01*
X366882Y162637D01*
X366595Y163067D01*
X366557Y163105D01*
X366748Y163567D01*
X369701D01*
Y166035D01*
X366929D01*
Y166535D01*
X366429D01*
Y169504D01*
X364158D01*
Y169304D01*
X359043D01*
Y166799D01*
X261635D01*
X261127Y166698D01*
X260697Y166411D01*
X252469Y158182D01*
X248806D01*
Y153367D01*
X248806Y153039D01*
X248806Y152539D01*
Y150349D01*
X243024D01*
Y151391D01*
X241778D01*
Y154121D01*
X243024D01*
Y159658D01*
X237909D01*
Y159858D01*
X235638D01*
Y156890D01*
Y153921D01*
X237909D01*
Y154121D01*
X239127D01*
Y151391D01*
X237881D01*
Y151391D01*
X237709D01*
Y151391D01*
X232566D01*
Y149955D01*
X226391D01*
Y152445D01*
X226590D01*
Y154717D01*
X223622D01*
X220654D01*
Y152445D01*
X220853D01*
Y149204D01*
X197862Y126213D01*
X197575Y125783D01*
X197474Y125276D01*
Y63815D01*
X196989Y63331D01*
X196799Y63369D01*
X195902Y63190D01*
X195141Y62682D01*
X194633Y61921D01*
X194524Y61376D01*
X189710D01*
X189519Y61838D01*
X196482Y68800D01*
X196769Y69230D01*
X196870Y69737D01*
Y92645D01*
X196769Y93152D01*
X196482Y93582D01*
X193999Y96064D01*
X194077Y96457D01*
X193899Y97354D01*
X193391Y98115D01*
X193058Y98337D01*
Y154220D01*
X194501D01*
Y159363D01*
X194501D01*
Y159535D01*
X194501D01*
Y160879D01*
X201663D01*
X201885Y160547D01*
X202646Y160038D01*
X203543Y159860D01*
X204441Y160038D01*
X205202Y160547D01*
X205710Y161307D01*
X205888Y162205D01*
X205710Y163102D01*
X205202Y163863D01*
X204441Y164371D01*
X203543Y164550D01*
X202646Y164371D01*
X201885Y163863D01*
X201663Y163530D01*
X194501D01*
Y164678D01*
X188964D01*
Y163432D01*
X164186D01*
Y164678D01*
X158649D01*
Y163432D01*
X132690D01*
Y164678D01*
X127153D01*
Y163432D01*
X117629D01*
X117406Y163765D01*
X116646Y164273D01*
X115748Y164451D01*
X114851Y164273D01*
X114090Y163765D01*
X113867Y163432D01*
X110563D01*
X110563Y163432D01*
X110056Y163331D01*
X109626Y163044D01*
X106030Y159448D01*
X105743Y159018D01*
X105642Y158511D01*
Y148576D01*
X105743Y148068D01*
X106030Y147638D01*
X117606Y136063D01*
X118036Y135775D01*
X118543Y135675D01*
X122428D01*
Y133485D01*
X122428Y133157D01*
X122428D01*
Y132985D01*
X122428D01*
Y131739D01*
X118123D01*
Y132395D01*
X112586D01*
Y131148D01*
X108280D01*
Y132395D01*
X102743D01*
Y127279D01*
X102543D01*
Y125008D01*
X108480D01*
Y127279D01*
X108280D01*
Y128497D01*
X112586D01*
Y127279D01*
X112386D01*
Y125008D01*
X115354D01*
X118323D01*
Y127279D01*
X118123D01*
Y129088D01*
X122428D01*
Y127842D01*
X125340D01*
Y106721D01*
X125113Y106570D01*
X124605Y105809D01*
X124427Y104911D01*
X124605Y104014D01*
X125113Y103253D01*
X125874Y102745D01*
X126772Y102566D01*
X127669Y102745D01*
X128430Y103253D01*
X128938Y104014D01*
X129103Y104841D01*
X129319Y104945D01*
X129604Y104991D01*
X129838Y104641D01*
X130171Y104419D01*
Y86201D01*
X129133Y85163D01*
X128740Y85241D01*
X128348Y85163D01*
X123294Y90217D01*
X122864Y90504D01*
X122357Y90605D01*
X118320D01*
Y92729D01*
X115466D01*
X115274Y93191D01*
X115414Y93330D01*
X115701Y93760D01*
X115802Y94268D01*
Y95460D01*
X118320D01*
Y100209D01*
X117074D01*
Y103953D01*
X118517D01*
Y109068D01*
X118717D01*
Y111339D01*
X115748D01*
X112779D01*
Y109068D01*
X112979D01*
Y103953D01*
X114423D01*
Y100209D01*
X113176D01*
Y96888D01*
X113151Y96760D01*
Y94817D01*
X110908Y92573D01*
X110446Y92765D01*
Y96469D01*
X107928D01*
Y98614D01*
X107827Y99121D01*
X107540Y99551D01*
X102867Y104224D01*
Y107887D01*
X98052D01*
X97724Y107887D01*
X97224Y107887D01*
X94283D01*
X92662Y109508D01*
X92232Y109795D01*
X91724Y109896D01*
X87217D01*
Y112021D01*
X82074Y112021D01*
X82034Y112504D01*
Y117017D01*
X82367Y117239D01*
X82875Y118000D01*
X83054Y118898D01*
X82875Y119795D01*
X82367Y120556D01*
X81606Y121064D01*
X80709Y121243D01*
X79811Y121064D01*
X79050Y120556D01*
X78542Y119795D01*
X78364Y118898D01*
X78542Y118000D01*
X79050Y117239D01*
X79383Y117017D01*
Y108764D01*
X79343Y108280D01*
X78883Y108280D01*
X74200D01*
Y106156D01*
X70485D01*
Y107006D01*
X66392D01*
Y111705D01*
X66646D01*
Y117242D01*
X61831D01*
X61503Y117242D01*
X61003Y117242D01*
X56188D01*
Y111705D01*
X58706D01*
Y107206D01*
X56209D01*
Y102662D01*
Y98119D01*
X58706D01*
Y94407D01*
X56188D01*
Y88870D01*
X61331Y88870D01*
X61478Y88431D01*
Y83638D01*
X57015Y79176D01*
X56727Y78746D01*
X56626Y78238D01*
Y71157D01*
X56727Y70650D01*
X57015Y70220D01*
X58468Y68767D01*
X58494Y68749D01*
X58635Y68061D01*
X58567Y67958D01*
X58413Y67185D01*
X58567Y66412D01*
X59005Y65757D01*
X59660Y65319D01*
X60433Y65165D01*
X63779D01*
X63901Y65189D01*
X64523Y64567D01*
X64277Y64106D01*
X63779Y64205D01*
X60433D01*
X59660Y64051D01*
X59005Y63613D01*
X58567Y62958D01*
X58413Y62185D01*
X58567Y61412D01*
X58772Y61106D01*
X58770Y61105D01*
X46955Y49290D01*
X46912Y49225D01*
X46857Y49171D01*
X46824Y49094D01*
X46778Y49025D01*
X46763Y48949D01*
X46733Y48878D01*
X46733Y48795D01*
X46716Y48713D01*
X46427Y48261D01*
X1020Y48262D01*
X1021Y126739D01*
X94487D01*
X94671Y126776D01*
X94877Y126817D01*
X94877Y126817D01*
X94877Y126817D01*
X95030Y126920D01*
X95208Y127038D01*
X95208Y127038D01*
X95208Y127038D01*
X95326Y127215D01*
X95429Y127369D01*
X95429Y127369D01*
X95429Y127369D01*
X95469Y127574D01*
X95506Y127759D01*
X95511Y173982D01*
X352760D01*
X398985Y173980D01*
D02*
G37*
G36*
X234562Y114877D02*
X234844Y114689D01*
X234692Y114189D01*
X232366D01*
Y111721D01*
X235138D01*
Y111221D01*
X235638D01*
Y108252D01*
X237909D01*
Y108452D01*
X239127D01*
Y106075D01*
X238774Y105721D01*
X237881Y105721D01*
X237381Y105721D01*
X232566D01*
Y104286D01*
X226391D01*
Y106776D01*
X226590D01*
Y109047D01*
X223622D01*
X220654D01*
Y106776D01*
X220853D01*
Y103535D01*
X211062Y93744D01*
X210775Y93313D01*
X210674Y92806D01*
Y62904D01*
X210422Y62736D01*
X210099Y62688D01*
X209776Y62736D01*
X209525Y62904D01*
Y106098D01*
X216614Y113188D01*
X217093Y113043D01*
X217125Y112882D01*
X217633Y112121D01*
X218394Y111613D01*
X219291Y111434D01*
X220153Y111606D01*
X220266Y111601D01*
X220654Y111393D01*
Y110047D01*
X223122D01*
Y112319D01*
X221612D01*
X221376Y112760D01*
X221458Y112882D01*
X221636Y113779D01*
X221558Y114172D01*
X222596Y115210D01*
X234340D01*
X234562Y114877D01*
D02*
G37*
G36*
X245708Y115787D02*
X246138Y115500D01*
X246645Y115399D01*
X268491D01*
Y112881D01*
X272403D01*
X272532Y112856D01*
X273882D01*
X274033Y112356D01*
X273932Y112288D01*
X273424Y111527D01*
X273246Y110630D01*
X273295Y110381D01*
X272978Y109995D01*
X254343D01*
Y112513D01*
X248806D01*
Y107698D01*
X248806Y107369D01*
X248806Y106869D01*
Y105550D01*
X243024D01*
Y105721D01*
X241778D01*
Y108452D01*
X243024D01*
Y113989D01*
X237909D01*
Y114189D01*
X237749D01*
X237597Y114689D01*
X237879Y114877D01*
X238387Y115638D01*
X238565Y116535D01*
X238387Y117433D01*
X238296Y117569D01*
X238532Y118010D01*
X243485D01*
X245708Y115787D01*
D02*
G37*
G36*
X130171Y129144D02*
Y108180D01*
X129838Y107957D01*
X129330Y107197D01*
X129165Y106369D01*
X128949Y106266D01*
X128664Y106219D01*
X128430Y106570D01*
X127991Y106863D01*
Y129142D01*
X127965Y129270D01*
Y130696D01*
X128427Y130887D01*
X130171Y129144D01*
D02*
G37*
G36*
X156937Y110202D02*
X156838Y109705D01*
X156992Y108932D01*
X157430Y108276D01*
X158085Y107839D01*
X158858Y107685D01*
X162205D01*
X162978Y107839D01*
X163633Y108276D01*
X163748Y108448D01*
X166669D01*
X166846Y108184D01*
X167606Y107676D01*
X167828Y107632D01*
Y107122D01*
X167606Y107078D01*
X166846Y106570D01*
X166554Y106133D01*
X163632D01*
X162978Y106571D01*
X162205Y106725D01*
X158858D01*
X158085Y106571D01*
X157430Y106133D01*
X156992Y105478D01*
X156838Y104705D01*
X156862Y104583D01*
X154565Y102286D01*
X154103Y102477D01*
Y108075D01*
X156476Y110449D01*
X156937Y110202D01*
D02*
G37*
G36*
X166846Y103253D02*
X167072Y103102D01*
X167042Y102774D01*
X166987Y102558D01*
X166594Y102295D01*
X164200Y99901D01*
X163912Y99471D01*
X163812Y98964D01*
Y95686D01*
X163797Y95672D01*
X163312Y95464D01*
X162708Y95867D01*
X161811Y96046D01*
X160914Y95867D01*
X160153Y95359D01*
X159670Y94636D01*
X159634Y94632D01*
X159170Y94942D01*
Y96545D01*
X159503Y96767D01*
X160011Y97528D01*
X160190Y98425D01*
X160011Y99323D01*
X159503Y100083D01*
X158742Y100592D01*
X157844Y100770D01*
X157421Y100686D01*
X157175Y101147D01*
X158737Y102709D01*
X158858Y102685D01*
X162205D01*
X162978Y102839D01*
X163633Y103276D01*
X163771Y103483D01*
X166692D01*
X166846Y103253D01*
D02*
G37*
G36*
X63741Y104721D02*
X63767Y104593D01*
Y98319D01*
X65821D01*
Y94407D01*
X61503Y94407D01*
X61357Y94847D01*
Y111266D01*
X61503Y111705D01*
X61857Y111705D01*
X63741D01*
Y104721D01*
D02*
G37*
G36*
X314890Y97545D02*
X314763Y97354D01*
X314584Y96457D01*
X314763Y95559D01*
X315271Y94798D01*
X315604Y94576D01*
Y92038D01*
X315271Y91816D01*
X314763Y91055D01*
X314584Y90158D01*
X314763Y89260D01*
X314854Y89124D01*
X314618Y88683D01*
X290564D01*
Y91285D01*
X296346D01*
Y90440D01*
X301883D01*
Y95583D01*
X301883D01*
Y95755D01*
X301883D01*
Y97986D01*
X314654D01*
X314890Y97545D01*
D02*
G37*
G36*
X187607Y103885D02*
Y95297D01*
X187708Y94790D01*
X187995Y94360D01*
X191893Y90461D01*
X191647Y90000D01*
X190945Y90140D01*
X190552Y90062D01*
X188338Y92276D01*
X187908Y92563D01*
X187401Y92664D01*
X177471D01*
X177249Y92997D01*
X176488Y93505D01*
X175591Y93684D01*
X174693Y93505D01*
X174557Y93414D01*
X174116Y93650D01*
Y94267D01*
X177572D01*
Y98827D01*
X180992Y102247D01*
X181279Y102677D01*
X181280Y102685D01*
X183661D01*
X184434Y102839D01*
X185090Y103276D01*
X185528Y103932D01*
X185681Y104705D01*
X185582Y105202D01*
X186043Y105448D01*
X187607Y103885D01*
D02*
G37*
G36*
X272433Y90021D02*
X280105D01*
Y88683D01*
X254343D01*
Y88989D01*
X248806D01*
Y83846D01*
X248806D01*
Y83674D01*
X248806D01*
Y81156D01*
X243024D01*
Y82198D01*
X241778D01*
Y84928D01*
X243024D01*
Y89640D01*
X259984D01*
X260491Y89741D01*
X260911Y90021D01*
X269890D01*
X270018Y90047D01*
X272305D01*
X272433Y90021D01*
D02*
G37*
G36*
X232366Y88197D02*
X235138D01*
Y87697D01*
X235638D01*
Y84728D01*
X237909D01*
Y84928D01*
X239127D01*
Y82198D01*
X237881D01*
Y82198D01*
X237709D01*
Y82198D01*
X232566D01*
Y80762D01*
X226391D01*
Y83252D01*
X226590D01*
Y85524D01*
X223622D01*
Y86524D01*
X226590D01*
Y88795D01*
X223343D01*
X223151Y89257D01*
X223534Y89640D01*
X232366D01*
Y88197D01*
D02*
G37*
G36*
X188678Y88188D02*
X188599Y87795D01*
X188778Y86898D01*
X189286Y86137D01*
X190047Y85628D01*
X190945Y85450D01*
X191842Y85628D01*
X191978Y85720D01*
X192419Y85484D01*
Y82089D01*
X191337Y81007D01*
X190945Y81085D01*
X190048Y80907D01*
X189287Y80398D01*
X188778Y79638D01*
X188600Y78740D01*
X188778Y77843D01*
X189213Y77192D01*
X188825Y76873D01*
X183265Y82433D01*
X182835Y82721D01*
X182327Y82822D01*
X182022D01*
X176182Y88662D01*
X176327Y89140D01*
X176488Y89172D01*
X177249Y89680D01*
X177471Y90013D01*
X186852D01*
X188678Y88188D01*
D02*
G37*
G36*
X194219Y79487D02*
Y70286D01*
X186043Y62111D01*
X185582Y62357D01*
X185681Y62854D01*
X185657Y62976D01*
X191947Y69266D01*
X192235Y69696D01*
X192336Y70203D01*
Y72813D01*
X192235Y73321D01*
X191947Y73751D01*
X189078Y76620D01*
X189397Y77008D01*
X190048Y76574D01*
X190945Y76395D01*
X191842Y76574D01*
X192603Y77082D01*
X193111Y77843D01*
X193290Y78740D01*
X193212Y79133D01*
X193757Y79678D01*
X194219Y79487D01*
D02*
G37*
G36*
X85720Y107245D02*
X91175D01*
X92409Y106012D01*
Y102350D01*
X97224D01*
X97552Y102350D01*
X98052Y102350D01*
X100992D01*
X105277Y98065D01*
Y95169D01*
X105302Y95041D01*
Y91720D01*
X109401D01*
X109592Y91258D01*
X98988Y80654D01*
X98701Y80224D01*
X98600Y79716D01*
Y72039D01*
X98572Y72028D01*
X98100Y71956D01*
X97654Y72623D01*
X97322Y72845D01*
Y96379D01*
X97654Y96602D01*
X98163Y97363D01*
X98341Y98260D01*
X98163Y99157D01*
X97654Y99918D01*
X96894Y100426D01*
X95996Y100605D01*
X95099Y100426D01*
X94338Y99918D01*
X93830Y99157D01*
X93651Y98260D01*
X93830Y97363D01*
X94338Y96602D01*
X94671Y96379D01*
Y72845D01*
X94338Y72623D01*
X93830Y71862D01*
X93651Y70965D01*
X93830Y70067D01*
X94338Y69306D01*
X95099Y68798D01*
X95996Y68620D01*
X96894Y68798D01*
X97654Y69306D01*
X98100Y69973D01*
X98572Y69901D01*
X98600Y69890D01*
Y67335D01*
X96082D01*
Y67335D01*
X95910D01*
Y67335D01*
X90767D01*
Y66029D01*
X87402D01*
X87126Y66529D01*
X87256Y67185D01*
X87102Y67958D01*
X86664Y68613D01*
X86009Y69051D01*
X85236Y69205D01*
X81890D01*
X81117Y69051D01*
X80462Y68613D01*
X80024Y67958D01*
X79870Y67185D01*
X80000Y66529D01*
X79724Y66029D01*
X77776D01*
X74101Y69704D01*
X74740Y70343D01*
X75605D01*
X76113Y70444D01*
X76543Y70731D01*
X77560Y71749D01*
X77953Y71671D01*
X78850Y71849D01*
X79179Y72069D01*
X79735Y71839D01*
X79835Y71334D01*
X80317Y70613D01*
X81039Y70130D01*
X81890Y69961D01*
X83063D01*
Y72185D01*
Y74409D01*
X81890D01*
X81039Y74240D01*
X80779Y74066D01*
X80240Y74307D01*
X80119Y74913D01*
X79611Y75674D01*
X78850Y76182D01*
X77953Y76361D01*
X77055Y76182D01*
X76295Y75674D01*
X75786Y74913D01*
X75608Y74016D01*
X75686Y73623D01*
X75056Y72994D01*
X74191D01*
X73684Y72893D01*
X73254Y72606D01*
X71678Y71029D01*
X65946D01*
X65669Y71529D01*
X65799Y72185D01*
X65775Y72306D01*
X73636Y80167D01*
X74299Y79723D01*
X75197Y79545D01*
X76094Y79723D01*
X76855Y80232D01*
X77363Y80992D01*
X77542Y81890D01*
X77363Y82787D01*
X76855Y83548D01*
X76094Y84056D01*
X75197Y84235D01*
X74299Y84056D01*
X73539Y83548D01*
X73054Y82823D01*
X72594Y82732D01*
X72164Y82444D01*
X66161Y76441D01*
X65701Y76688D01*
X65799Y77185D01*
X65775Y77306D01*
X68084Y79615D01*
X68371Y80045D01*
X68472Y80552D01*
Y98319D01*
X70485D01*
Y103505D01*
X75697D01*
X75825Y103531D01*
X79343Y103531D01*
X79383Y103047D01*
Y98546D01*
X79484Y98038D01*
X79771Y97608D01*
X81064Y96315D01*
Y79016D01*
X80462Y78613D01*
X80024Y77958D01*
X79870Y77185D01*
X80024Y76412D01*
X80462Y75757D01*
X81117Y75319D01*
X81890Y75165D01*
X85236D01*
X86009Y75319D01*
X86664Y75757D01*
X87102Y76412D01*
X87256Y77185D01*
X87102Y77958D01*
X86664Y78613D01*
X86009Y79051D01*
X85236Y79205D01*
X83715D01*
Y96864D01*
X83614Y97372D01*
X83327Y97802D01*
X82038Y99091D01*
X82044Y99591D01*
X84146D01*
Y102165D01*
Y104740D01*
X82034D01*
Y106787D01*
X82074Y107271D01*
X82534Y107271D01*
X85592D01*
X85720Y107245D01*
D02*
G37*
G36*
X156519Y96119D02*
Y83494D01*
X156620Y82986D01*
X156907Y82556D01*
X164784Y74680D01*
X164768Y74524D01*
X164614Y74180D01*
X163702D01*
X163633Y74283D01*
X162978Y74721D01*
X162205Y74874D01*
X158858D01*
X158085Y74721D01*
X157430Y74283D01*
X156992Y73627D01*
X156838Y72854D01*
X156992Y72081D01*
X157430Y71426D01*
X158085Y70988D01*
X158858Y70834D01*
X162205D01*
X162978Y70988D01*
X163633Y71426D01*
X163702Y71529D01*
X166127D01*
X167125Y70531D01*
X166980Y70053D01*
X166819Y70021D01*
X166058Y69512D01*
X165836Y69180D01*
X163702D01*
X163633Y69283D01*
X162978Y69721D01*
X162205Y69874D01*
X158858D01*
X158085Y69721D01*
X157430Y69283D01*
X156992Y68627D01*
X156838Y67854D01*
X156862Y67733D01*
X156365Y67235D01*
X155903Y67427D01*
Y95907D01*
X156403Y96189D01*
X156519Y96119D01*
D02*
G37*
G36*
X180536Y80559D02*
X180966Y80272D01*
X181473Y80171D01*
X181778D01*
X187271Y74678D01*
X187141Y74101D01*
X187012Y74054D01*
X186975Y74079D01*
X186468Y74180D01*
X185158D01*
X185090Y74283D01*
X184434Y74721D01*
X183661Y74874D01*
X182140D01*
Y75583D01*
X182039Y76090D01*
X181752Y76520D01*
X176489Y81783D01*
Y83953D01*
X176951Y84144D01*
X180536Y80559D01*
D02*
G37*
G36*
X314036Y73864D02*
X313616Y73235D01*
X313437Y72338D01*
X313515Y71945D01*
X295696Y54125D01*
X294091D01*
X293966Y54326D01*
X293901Y54625D01*
X309450Y70174D01*
X309842Y70096D01*
X310740Y70274D01*
X311501Y70783D01*
X312009Y71544D01*
X312188Y72441D01*
X312009Y73338D01*
X311658Y73864D01*
X311926Y74363D01*
X313843D01*
X314036Y73864D01*
D02*
G37*
G36*
X317352Y70293D02*
X317505Y70121D01*
X317340Y69291D01*
X317418Y68899D01*
X308758Y60239D01*
X308296Y60430D01*
Y60560D01*
X308234Y60872D01*
X308057Y61137D01*
X307792Y61313D01*
X307480Y61376D01*
X307348D01*
X307157Y61838D01*
X315390Y70071D01*
X315782Y69993D01*
X316680Y70171D01*
X317100Y70452D01*
X317352Y70293D01*
D02*
G37*
G36*
X243283Y68527D02*
X236967Y62211D01*
X236489Y62356D01*
X236419Y62708D01*
X235910Y63469D01*
X235149Y63978D01*
X234252Y64156D01*
X233355Y63978D01*
X232594Y63469D01*
X232510Y63344D01*
X231917Y63357D01*
X231579Y63863D01*
X230818Y64371D01*
X230658Y64403D01*
X230512Y64882D01*
X234384Y68753D01*
X237883D01*
X238105Y68420D01*
X238866Y67912D01*
X239763Y67734D01*
X240661Y67912D01*
X241422Y68420D01*
X241801Y68989D01*
X243092D01*
X243283Y68527D01*
D02*
G37*
G36*
X308027Y73864D02*
X307676Y73338D01*
X307498Y72441D01*
X307575Y72048D01*
X296615Y61088D01*
X296489Y61060D01*
X296010Y61137D01*
X295746Y61313D01*
X295434Y61376D01*
X240534D01*
X240343Y61838D01*
X245585Y67080D01*
X260718D01*
X260940Y66747D01*
X261701Y66239D01*
X262598Y66061D01*
X263496Y66239D01*
X264257Y66747D01*
X264765Y67508D01*
X264944Y68405D01*
X264789Y69184D01*
X265030Y69531D01*
X265147Y69631D01*
X268393D01*
Y67113D01*
X272305D01*
X272433Y67088D01*
X280105D01*
Y65637D01*
X284921D01*
X285249Y65637D01*
X285749Y65637D01*
X290564D01*
Y68352D01*
X296346D01*
Y67507D01*
X301883D01*
Y72322D01*
X301883Y72650D01*
X301883Y73150D01*
Y74363D01*
X307760D01*
X308027Y73864D01*
D02*
G37*
G36*
X159670Y92765D02*
X160153Y92043D01*
X160914Y91534D01*
X161811Y91356D01*
X162708Y91534D01*
X163469Y92043D01*
X163858Y92624D01*
X164588D01*
X171067Y86146D01*
X170859Y85646D01*
X169102D01*
Y82677D01*
Y79709D01*
X171374D01*
Y79909D01*
X174615D01*
X179387Y75136D01*
X179349Y74592D01*
X178887Y74283D01*
X178449Y73627D01*
X178295Y72854D01*
X178449Y72081D01*
X178887Y71426D01*
X179542Y70988D01*
X180315Y70834D01*
X183661D01*
X184434Y70988D01*
X185090Y71426D01*
X185158Y71529D01*
X185890D01*
X186044Y70756D01*
X186552Y69995D01*
X187313Y69487D01*
X187646Y69421D01*
X187811Y68878D01*
X186298Y67365D01*
X185837Y67611D01*
X185885Y67854D01*
X185716Y68705D01*
X185234Y69427D01*
X184512Y69909D01*
X183661Y70078D01*
X182488D01*
Y67854D01*
Y65631D01*
X183661D01*
X183904Y65679D01*
X184151Y65218D01*
X183783Y64850D01*
X183661Y64874D01*
X180315D01*
X179542Y64720D01*
X178887Y64283D01*
X178733Y64052D01*
X176205D01*
X176068Y64257D01*
X175735Y64479D01*
Y67667D01*
X175634Y68174D01*
X175347Y68604D01*
X167433Y76517D01*
X167003Y76805D01*
X166496Y76906D01*
X166307D01*
X159170Y84043D01*
Y92460D01*
X159634Y92769D01*
X159670Y92765D01*
D02*
G37*
G36*
X220654Y86106D02*
Y83252D01*
X220853D01*
Y78137D01*
X224766D01*
X224894Y78111D01*
X232566D01*
Y76661D01*
X232927D01*
Y75503D01*
X232594Y75280D01*
X232085Y74519D01*
X231907Y73622D01*
X231985Y73230D01*
X225642Y66886D01*
X225146Y67098D01*
X225001Y67826D01*
X224492Y68587D01*
X223732Y69096D01*
X222834Y69274D01*
X222770Y69261D01*
X219918Y72114D01*
X220061Y72834D01*
X219883Y73732D01*
X219374Y74493D01*
X218614Y75001D01*
X217716Y75180D01*
X216819Y75001D01*
X216683Y74910D01*
X216242Y75146D01*
Y82347D01*
X220192Y86297D01*
X220654Y86106D01*
D02*
G37*
G36*
X113176Y90440D02*
Y89408D01*
X113151Y89280D01*
Y75360D01*
X101687Y63896D01*
X101225Y64088D01*
Y65711D01*
X101251Y65839D01*
Y79167D01*
X112714Y90631D01*
X113176Y90440D01*
D02*
G37*
G36*
X76289Y63767D02*
X76719Y63479D01*
X77227Y63379D01*
X79769D01*
X80008Y62879D01*
X79870Y62185D01*
X80000Y61529D01*
X79724Y61029D01*
X71810D01*
X65775Y67064D01*
X65799Y67185D01*
X65662Y67879D01*
X65900Y68379D01*
X71678D01*
X76289Y63767D01*
D02*
G37*
G36*
X216819Y70668D02*
X217716Y70489D01*
X217780Y70502D01*
X220633Y67650D01*
X220489Y66929D01*
X220668Y66032D01*
X221176Y65271D01*
X221937Y64763D01*
X222666Y64617D01*
X222877Y64121D01*
X219727Y60971D01*
X218701D01*
X218629Y60957D01*
X218586Y60963D01*
X218079Y61350D01*
X217966Y61921D01*
X217457Y62682D01*
X216697Y63190D01*
X216242Y63281D01*
Y70523D01*
X216683Y70759D01*
X216819Y70668D01*
D02*
G37*
G36*
X169495Y34198D02*
X169304Y33736D01*
X146091D01*
X142818Y37009D01*
X142896Y37402D01*
X142718Y38299D01*
X142209Y39060D01*
X141449Y39568D01*
X140551Y39747D01*
X139654Y39568D01*
X138893Y39060D01*
X138385Y38299D01*
X138206Y37402D01*
X138385Y36504D01*
X138893Y35743D01*
X139654Y35235D01*
X140551Y35056D01*
X140944Y35135D01*
X143681Y32398D01*
X143489Y31936D01*
X125503D01*
X125280Y32269D01*
X124520Y32777D01*
X123622Y32955D01*
X122725Y32777D01*
X121964Y32269D01*
X121456Y31508D01*
X121277Y30610D01*
X121456Y29713D01*
X121964Y28952D01*
X122725Y28444D01*
X123622Y28265D01*
X124520Y28444D01*
X125280Y28952D01*
X125503Y29285D01*
X174746D01*
X183166Y20865D01*
X183088Y20472D01*
X183266Y19575D01*
X183775Y18814D01*
X184453Y18361D01*
X184417Y17987D01*
X184370Y17861D01*
X160148D01*
X159926Y18194D01*
X159165Y18702D01*
X158268Y18880D01*
X157370Y18702D01*
X156609Y18194D01*
X156101Y17433D01*
X156069Y17272D01*
X155591Y17127D01*
X153688Y19030D01*
Y20580D01*
X154020Y20802D01*
X154529Y21563D01*
X154707Y22461D01*
X154529Y23358D01*
X154020Y24119D01*
X153260Y24627D01*
X152362Y24806D01*
X151465Y24627D01*
X150704Y24119D01*
X150196Y23358D01*
X150017Y22461D01*
X150196Y21563D01*
X150704Y20802D01*
X151037Y20580D01*
Y18481D01*
X151138Y17974D01*
X151425Y17544D01*
X162229Y6740D01*
X162659Y6453D01*
X163166Y6352D01*
X233346D01*
X233568Y6019D01*
X234329Y5511D01*
X235226Y5332D01*
X236123Y5511D01*
X236884Y6019D01*
X237393Y6780D01*
X237571Y7677D01*
X237393Y8575D01*
X236884Y9335D01*
X236123Y9844D01*
X235226Y10022D01*
X234329Y9844D01*
X233568Y9335D01*
X233346Y9003D01*
X163715D01*
X158859Y13859D01*
X159004Y14337D01*
X159165Y14369D01*
X159926Y14877D01*
X160148Y15210D01*
X224407D01*
X224629Y14877D01*
X225390Y14369D01*
X226287Y14190D01*
X227185Y14369D01*
X227946Y14877D01*
X228454Y15638D01*
X228632Y16535D01*
X228454Y17433D01*
X227946Y18194D01*
X227185Y18702D01*
X226287Y18880D01*
X225390Y18702D01*
X224629Y18194D01*
X224407Y17861D01*
X186496D01*
X186449Y17987D01*
X186413Y18361D01*
X187091Y18814D01*
X187600Y19575D01*
X187778Y20472D01*
X187600Y21370D01*
X187091Y22131D01*
X186330Y22639D01*
X185433Y22817D01*
X185041Y22739D01*
X177157Y30623D01*
X177348Y31085D01*
X186987D01*
X191471Y26601D01*
X191901Y26314D01*
X192408Y26213D01*
X233861D01*
X234368Y26314D01*
X234798Y26601D01*
X236808Y28612D01*
X237095Y29042D01*
X237196Y29549D01*
Y41990D01*
X237177Y42087D01*
Y50376D01*
X237618Y50611D01*
X237754Y50520D01*
X238556Y50361D01*
X238818Y50166D01*
X239013Y49904D01*
X239172Y49103D01*
X239680Y48342D01*
X240441Y47833D01*
X241339Y47655D01*
X242236Y47833D01*
X242997Y48342D01*
X243219Y48674D01*
X300394D01*
X300901Y48775D01*
X301331Y49063D01*
X307018Y54750D01*
X307480Y54559D01*
Y48638D01*
X305868D01*
Y45669D01*
X305118D01*
D01*
X305868D01*
Y42701D01*
X307480D01*
Y41843D01*
X303039D01*
Y35303D01*
X300854D01*
X300250Y35182D01*
X299737Y34840D01*
X297973Y33076D01*
X296198D01*
X296146Y33154D01*
X295386Y33663D01*
X294488Y33841D01*
X293591Y33663D01*
X292830Y33154D01*
X292322Y32394D01*
X292143Y31496D01*
X292322Y30599D01*
X292830Y29838D01*
X293591Y29329D01*
X294488Y29151D01*
X295386Y29329D01*
X296146Y29838D01*
X296198Y29916D01*
X298628D01*
X299233Y30036D01*
X299746Y30379D01*
X301509Y32142D01*
X306065D01*
X306218Y32172D01*
X307480D01*
Y1018D01*
X48264Y1020D01*
X48263Y47241D01*
X48185Y47631D01*
X48185Y47631D01*
X47964Y47962D01*
X47964Y47962D01*
X47679Y48153D01*
X47622Y48242D01*
X47532Y48713D01*
X59347Y60528D01*
X59660Y60319D01*
X60433Y60165D01*
X63779D01*
X64552Y60319D01*
X64913Y60560D01*
X68530D01*
X70323Y58767D01*
X70753Y58479D01*
X71261Y58378D01*
X99369D01*
X99876Y58479D01*
X100306Y58767D01*
X102100Y60560D01*
X143133D01*
X169495Y34198D01*
D02*
G37*
G36*
X295625Y60098D02*
X292340Y56813D01*
X237770D01*
X237623Y57032D01*
X236862Y57541D01*
X236701Y57573D01*
X236556Y58051D01*
X239065Y60560D01*
X295434D01*
X295625Y60098D01*
D02*
G37*
G36*
X194633Y60126D02*
X195141Y59365D01*
X195902Y58857D01*
X196799Y58679D01*
X197697Y58857D01*
X198457Y59365D01*
X198941D01*
X199702Y58857D01*
X200599Y58679D01*
X201497Y58857D01*
X202257Y59365D01*
X202741D01*
X203502Y58857D01*
X204399Y58679D01*
X205297Y58857D01*
X206057Y59365D01*
X206541D01*
X207302Y58857D01*
X208199Y58679D01*
X209097Y58857D01*
X209857Y59365D01*
X210341D01*
X211102Y58857D01*
X211999Y58679D01*
X212897Y58857D01*
X213657Y59365D01*
X214141D01*
X214902Y58857D01*
X215259Y58786D01*
X215424Y58243D01*
X205117Y47936D01*
X204724Y48014D01*
X203827Y47836D01*
X203066Y47328D01*
X202558Y46567D01*
X202379Y45669D01*
X202558Y44772D01*
X202872Y44301D01*
X202605Y43801D01*
X184058D01*
X169983Y57875D01*
X170062Y58268D01*
X169883Y59165D01*
X169375Y59926D01*
X169174Y60060D01*
X169326Y60560D01*
X170614D01*
X174257Y56917D01*
X174687Y56630D01*
X175194Y56529D01*
X178818D01*
X178887Y56426D01*
X179542Y55988D01*
X180315Y55834D01*
X183661D01*
X184434Y55988D01*
X185090Y56426D01*
X185528Y57081D01*
X185681Y57854D01*
X185657Y57976D01*
X188242Y60560D01*
X194546D01*
X194633Y60126D01*
D02*
G37*
G36*
X307480Y58961D02*
X299845Y51326D01*
X297278D01*
X297126Y51825D01*
X297182Y51863D01*
X305879Y60560D01*
X307480D01*
Y58961D01*
D02*
G37*
G36*
X228239Y48989D02*
X225512Y46261D01*
X225033Y46406D01*
X225001Y46567D01*
X224493Y47328D01*
X223732Y47836D01*
X222835Y48014D01*
X221937Y47836D01*
X221176Y47328D01*
X221062Y47156D01*
X220461D01*
X220162Y47603D01*
X219401Y48111D01*
X218504Y48290D01*
X217606Y48111D01*
X216846Y47603D01*
X216337Y46842D01*
X216159Y45945D01*
X216237Y45552D01*
X214486Y43801D01*
X211760D01*
X211524Y44242D01*
X211615Y44378D01*
X211794Y45276D01*
X211647Y46016D01*
X226191Y60560D01*
X228239D01*
Y48989D01*
D02*
G37*
G36*
X166058Y56609D02*
X166819Y56101D01*
X167717Y55923D01*
X168109Y56001D01*
X181647Y42463D01*
X181455Y42001D01*
X173077D01*
X159706Y55373D01*
X159897Y55834D01*
X162205D01*
X162978Y55988D01*
X163633Y56426D01*
X163840Y56736D01*
X165974D01*
X166058Y56609D01*
D02*
G37*
G36*
X234326Y45871D02*
X234526Y45746D01*
Y42009D01*
X234545Y41912D01*
Y37547D01*
X234104Y37312D01*
X233968Y37403D01*
X233071Y37581D01*
X232173Y37403D01*
X231413Y36894D01*
X231190Y36562D01*
X230328D01*
Y38497D01*
X227241D01*
X227050Y38959D01*
X234026Y45935D01*
X234326Y45871D01*
D02*
G37*
G36*
X222965Y36928D02*
Y33615D01*
X223066Y33108D01*
X223353Y32678D01*
X224115Y31916D01*
X224316Y31782D01*
X224791Y31307D01*
Y28864D01*
X192957D01*
X189357Y32465D01*
X189548Y32926D01*
X211505D01*
X211727Y32594D01*
X212488Y32085D01*
X213385Y31907D01*
X214283Y32085D01*
X215044Y32594D01*
X215552Y33354D01*
X215731Y34252D01*
X215552Y35149D01*
X215445Y35309D01*
X215681Y35750D01*
X220585D01*
X221093Y35851D01*
X221522Y36138D01*
X222503Y37119D01*
X222965Y36928D01*
D02*
G37*
G36*
X336720Y39656D02*
Y31188D01*
X337375D01*
Y26829D01*
X327877Y17330D01*
X327430Y17590D01*
X327265Y18417D01*
X326757Y19178D01*
X326445Y19386D01*
Y19886D01*
X326757Y20094D01*
X327265Y20854D01*
X327444Y21752D01*
X327265Y22649D01*
X326757Y23410D01*
X326445Y23618D01*
Y24118D01*
X326757Y24326D01*
X327265Y25087D01*
X327444Y25984D01*
X327265Y26882D01*
X326757Y27643D01*
X326445Y27850D01*
Y28350D01*
X326757Y28558D01*
X327265Y29319D01*
X327444Y30217D01*
X327265Y31114D01*
X326887Y31679D01*
X327132Y32179D01*
X331720D01*
Y31188D01*
X335682D01*
Y39326D01*
X336220Y39863D01*
X336720Y39656D01*
D02*
G37*
G36*
X351118Y28878D02*
X351548Y28590D01*
X352055Y28490D01*
X360125D01*
Y25578D01*
X361371D01*
Y21666D01*
X360125D01*
Y16129D01*
X362643D01*
Y15689D01*
X362744Y15182D01*
X363031Y14752D01*
X364904Y12879D01*
X364712Y12417D01*
X363197D01*
Y9449D01*
X362197D01*
Y12417D01*
X359925D01*
Y9177D01*
X359463Y8985D01*
X353130Y15318D01*
Y20320D01*
X353010Y20925D01*
X352667Y21438D01*
X347486Y26619D01*
X346973Y26962D01*
X346368Y27082D01*
X345206D01*
X343185Y29103D01*
X343377Y29565D01*
X345379D01*
X345847Y29658D01*
X346244Y29923D01*
X347066Y30745D01*
X347331Y31142D01*
X347340Y31188D01*
X348807D01*
X351118Y28878D01*
D02*
G37*
%LPC*%
G36*
X154543Y150386D02*
X152075D01*
Y148114D01*
X154543D01*
Y150386D01*
D02*
G37*
G36*
X151075D02*
X148606D01*
Y148114D01*
X151075D01*
Y150386D01*
D02*
G37*
G36*
X144701Y150386D02*
X142232D01*
Y148114D01*
X144701D01*
Y150386D01*
D02*
G37*
G36*
X141232D02*
X138764D01*
Y148114D01*
X141232D01*
Y150386D01*
D02*
G37*
G36*
X181488Y116929D02*
X180315D01*
X179464Y116759D01*
X178743Y116277D01*
X178260Y115556D01*
X178191Y115205D01*
X181488D01*
Y116929D01*
D02*
G37*
G36*
Y114205D02*
X178191D01*
X178260Y113854D01*
X178743Y113132D01*
X179464Y112650D01*
X180315Y112481D01*
X181488D01*
Y114205D01*
D02*
G37*
G36*
X184858Y150386D02*
X182390D01*
Y148114D01*
X184858D01*
Y150386D01*
D02*
G37*
G36*
X181390D02*
X178921D01*
Y148114D01*
X181390D01*
Y150386D01*
D02*
G37*
G36*
X175016D02*
X172547D01*
Y148114D01*
X175016D01*
Y150386D01*
D02*
G37*
G36*
X171547D02*
X169079D01*
Y148114D01*
X171547D01*
Y150386D01*
D02*
G37*
G36*
X123047Y150386D02*
X120579D01*
Y148114D01*
X123047D01*
Y150386D01*
D02*
G37*
G36*
X119579D02*
X117110D01*
Y148114D01*
X119579D01*
Y150386D01*
D02*
G37*
G36*
X234638Y136925D02*
X232366D01*
Y134457D01*
X234638D01*
Y136925D01*
D02*
G37*
G36*
X226590Y135055D02*
X224122D01*
Y132783D01*
X226590D01*
Y135055D01*
D02*
G37*
G36*
X223122D02*
X220654D01*
Y132783D01*
X223122D01*
Y135055D01*
D02*
G37*
G36*
X234638Y133457D02*
X232366D01*
Y130988D01*
X234638D01*
Y133457D01*
D02*
G37*
G36*
X282177Y148244D02*
X279906D01*
Y145776D01*
X282177D01*
Y148244D01*
D02*
G37*
G36*
X274130Y146374D02*
X271661D01*
Y144102D01*
X274130D01*
Y146374D01*
D02*
G37*
G36*
X270661D02*
X268193D01*
Y144102D01*
X270661D01*
Y146374D01*
D02*
G37*
G36*
X282177Y144776D02*
X279906D01*
Y142307D01*
X282177D01*
Y144776D01*
D02*
G37*
G36*
X282276Y125409D02*
X280004D01*
Y122941D01*
X282276D01*
Y125409D01*
D02*
G37*
G36*
X274228Y123539D02*
X271760D01*
Y121268D01*
X274228D01*
Y123539D01*
D02*
G37*
G36*
X270760D02*
X268291D01*
Y121268D01*
X270760D01*
Y123539D01*
D02*
G37*
G36*
X282276Y121941D02*
X280004D01*
Y119472D01*
X282276D01*
Y121941D01*
D02*
G37*
G36*
X369701Y169504D02*
X367429D01*
Y167035D01*
X369701D01*
Y169504D01*
D02*
G37*
G36*
X234638Y159858D02*
X232366D01*
Y157390D01*
X234638D01*
Y159858D01*
D02*
G37*
G36*
X226590Y157988D02*
X224122D01*
Y155717D01*
X226590D01*
Y157988D01*
D02*
G37*
G36*
X223122D02*
X220654D01*
Y155717D01*
X223122D01*
Y157988D01*
D02*
G37*
G36*
X353461Y156905D02*
X351189D01*
Y154437D01*
X353461D01*
Y156905D01*
D02*
G37*
G36*
X234638Y156390D02*
X232366D01*
Y153921D01*
X234638D01*
Y156390D01*
D02*
G37*
G36*
X353461Y153437D02*
X351189D01*
Y150969D01*
X353461D01*
Y153437D01*
D02*
G37*
G36*
X321341Y147457D02*
X319070D01*
Y144988D01*
X321341D01*
Y147457D01*
D02*
G37*
G36*
X385827Y158808D02*
X384397Y158667D01*
X383021Y158250D01*
X381754Y157572D01*
X380643Y156660D01*
X379731Y155550D01*
X379053Y154282D01*
X378636Y152907D01*
X378495Y151476D01*
X378636Y150046D01*
X379053Y148671D01*
X379731Y147403D01*
X380643Y146292D01*
X381754Y145381D01*
X383021Y144703D01*
X384397Y144286D01*
X385827Y144145D01*
X387257Y144286D01*
X388632Y144703D01*
X389900Y145381D01*
X391011Y146292D01*
X391923Y147403D01*
X392600Y148671D01*
X393017Y150046D01*
X393158Y151476D01*
X393017Y152907D01*
X392600Y154282D01*
X391923Y155550D01*
X391011Y156660D01*
X389900Y157572D01*
X388632Y158250D01*
X387257Y158667D01*
X385827Y158808D01*
D02*
G37*
G36*
X321341Y143988D02*
X319070D01*
Y141520D01*
X321341D01*
Y143988D01*
D02*
G37*
G36*
X118323Y124008D02*
X115854D01*
Y121736D01*
X118323D01*
Y124008D01*
D02*
G37*
G36*
X114854D02*
X112386D01*
Y121736D01*
X114854D01*
Y124008D01*
D02*
G37*
G36*
X108480D02*
X106012D01*
Y121736D01*
X108480D01*
Y124008D01*
D02*
G37*
G36*
X105012D02*
X102543D01*
Y121736D01*
X105012D01*
Y124008D01*
D02*
G37*
G36*
X118717Y114611D02*
X116248D01*
Y112339D01*
X118717D01*
Y114611D01*
D02*
G37*
G36*
X115248D02*
X112779D01*
Y112339D01*
X115248D01*
Y114611D01*
D02*
G37*
G36*
X55209Y107206D02*
X52150D01*
Y103162D01*
X55209D01*
Y107206D01*
D02*
G37*
G36*
X282177Y102575D02*
X279906D01*
Y100106D01*
X282177D01*
Y102575D01*
D02*
G37*
G36*
X350394Y110391D02*
X349054Y110215D01*
X347806Y109698D01*
X346734Y108876D01*
X345912Y107804D01*
X345395Y106556D01*
X345219Y105217D01*
X345395Y103877D01*
X345912Y102629D01*
X346734Y101557D01*
X347806Y100735D01*
X349054Y100218D01*
X350394Y100041D01*
X351733Y100218D01*
X352981Y100735D01*
X354053Y101557D01*
X354875Y102629D01*
X355392Y103877D01*
X355569Y105217D01*
X355392Y106556D01*
X354875Y107804D01*
X354053Y108876D01*
X352981Y109698D01*
X351733Y110215D01*
X350394Y110391D01*
D02*
G37*
G36*
X338583D02*
X337243Y110215D01*
X335995Y109698D01*
X334923Y108876D01*
X334101Y107804D01*
X333584Y106556D01*
X333408Y105217D01*
X333584Y103877D01*
X334101Y102629D01*
X334923Y101557D01*
X335995Y100735D01*
X337243Y100218D01*
X338583Y100041D01*
X339922Y100218D01*
X341170Y100735D01*
X342242Y101557D01*
X343064Y102629D01*
X343581Y103877D01*
X343758Y105217D01*
X343581Y106556D01*
X343064Y107804D01*
X342242Y108876D01*
X341170Y109698D01*
X339922Y110215D01*
X338583Y110391D01*
D02*
G37*
G36*
X274130Y100705D02*
X271661D01*
Y98433D01*
X274130D01*
Y100705D01*
D02*
G37*
G36*
X270661D02*
X268193D01*
Y98433D01*
X270661D01*
Y100705D01*
D02*
G37*
G36*
X55209Y102162D02*
X52150D01*
Y98119D01*
X55209D01*
Y102162D01*
D02*
G37*
G36*
X282177Y99106D02*
X279906D01*
Y96638D01*
X282177D01*
Y99106D01*
D02*
G37*
G36*
X350394Y98580D02*
X349054Y98404D01*
X347806Y97887D01*
X346734Y97065D01*
X345912Y95993D01*
X345395Y94745D01*
X345219Y93405D01*
X345395Y92066D01*
X345912Y90818D01*
X346734Y89746D01*
X347806Y88924D01*
X349054Y88407D01*
X350394Y88231D01*
X351733Y88407D01*
X352981Y88924D01*
X354053Y89746D01*
X354875Y90818D01*
X355392Y92066D01*
X355569Y93405D01*
X355392Y94745D01*
X354875Y95993D01*
X354053Y97065D01*
X352981Y97887D01*
X351733Y98404D01*
X350394Y98580D01*
D02*
G37*
G36*
X338583D02*
X337243Y98404D01*
X335995Y97887D01*
X334923Y97065D01*
X334101Y95993D01*
X333584Y94745D01*
X333408Y93405D01*
X333584Y92066D01*
X334101Y90818D01*
X334923Y89746D01*
X335995Y88924D01*
X337243Y88407D01*
X338583Y88231D01*
X339922Y88407D01*
X341170Y88924D01*
X342242Y89746D01*
X343064Y90818D01*
X343581Y92066D01*
X343758Y93405D01*
X343581Y94745D01*
X343064Y95993D01*
X342242Y97065D01*
X341170Y97887D01*
X339922Y98404D01*
X338583Y98580D01*
D02*
G37*
G36*
X282177Y79642D02*
X279906D01*
Y77173D01*
X282177D01*
Y79642D01*
D02*
G37*
G36*
X350394Y86769D02*
X349054Y86593D01*
X347806Y86076D01*
X346734Y85254D01*
X345912Y84182D01*
X345395Y82934D01*
X345219Y81595D01*
X345395Y80255D01*
X345912Y79007D01*
X346734Y77935D01*
X347806Y77113D01*
X349054Y76596D01*
X350394Y76420D01*
X351733Y76596D01*
X352981Y77113D01*
X354053Y77935D01*
X354875Y79007D01*
X355392Y80255D01*
X355569Y81595D01*
X355392Y82934D01*
X354875Y84182D01*
X354053Y85254D01*
X352981Y86076D01*
X351733Y86593D01*
X350394Y86769D01*
D02*
G37*
G36*
X338583D02*
X337243Y86593D01*
X335995Y86076D01*
X334923Y85254D01*
X334101Y84182D01*
X333584Y82934D01*
X333408Y81595D01*
X333584Y80255D01*
X334101Y79007D01*
X334923Y77935D01*
X335995Y77113D01*
X337243Y76596D01*
X338583Y76420D01*
X339922Y76596D01*
X341170Y77113D01*
X342242Y77935D01*
X343064Y79007D01*
X343581Y80255D01*
X343758Y81595D01*
X343581Y82934D01*
X343064Y84182D01*
X342242Y85254D01*
X341170Y86076D01*
X339922Y86593D01*
X338583Y86769D01*
D02*
G37*
G36*
X274130Y77772D02*
X271661D01*
Y75500D01*
X274130D01*
Y77772D01*
D02*
G37*
G36*
X270661D02*
X268193D01*
Y75500D01*
X270661D01*
Y77772D01*
D02*
G37*
G36*
X282177Y76173D02*
X279906D01*
Y73705D01*
X282177D01*
Y76173D01*
D02*
G37*
G36*
X379150Y73047D02*
X376091D01*
Y70382D01*
X379150D01*
Y73047D01*
D02*
G37*
G36*
X375091D02*
X372031D01*
Y70382D01*
X375091D01*
Y73047D01*
D02*
G37*
G36*
X379150Y69382D02*
X376091D01*
Y66716D01*
X379150D01*
Y69382D01*
D02*
G37*
G36*
X375091D02*
X372031D01*
Y66716D01*
X375091D01*
Y69382D01*
D02*
G37*
G36*
X350394Y74958D02*
X349054Y74782D01*
X347806Y74265D01*
X346734Y73443D01*
X345912Y72371D01*
X345395Y71123D01*
X345219Y69784D01*
X345395Y68444D01*
X345912Y67196D01*
X346734Y66124D01*
X347806Y65302D01*
X349054Y64785D01*
X350394Y64609D01*
X351733Y64785D01*
X352981Y65302D01*
X354053Y66124D01*
X354875Y67196D01*
X355392Y68444D01*
X355569Y69784D01*
X355392Y71123D01*
X354875Y72371D01*
X354053Y73443D01*
X352981Y74265D01*
X351733Y74782D01*
X350394Y74958D01*
D02*
G37*
G36*
X338583D02*
X337243Y74782D01*
X335995Y74265D01*
X334923Y73443D01*
X334101Y72371D01*
X333584Y71123D01*
X333408Y69784D01*
X333584Y68444D01*
X334101Y67196D01*
X334923Y66124D01*
X335995Y65302D01*
X337243Y64785D01*
X338583Y64609D01*
X339922Y64785D01*
X341170Y65302D01*
X342242Y66124D01*
X343064Y67196D01*
X343581Y68444D01*
X343758Y69784D01*
X343581Y71123D01*
X343064Y72371D01*
X342242Y73443D01*
X341170Y74265D01*
X339922Y74782D01*
X338583Y74958D01*
D02*
G37*
G36*
X360236Y116297D02*
X358897Y116121D01*
X357649Y115604D01*
X356577Y114781D01*
X355755Y113709D01*
X355238Y112461D01*
X355061Y111122D01*
X355238Y109783D01*
X355755Y108535D01*
X356577Y107463D01*
X357649Y106640D01*
X358656Y106223D01*
Y104210D01*
X357649Y103793D01*
X356577Y102970D01*
X355755Y101899D01*
X355238Y100650D01*
X355061Y99311D01*
X355238Y97972D01*
X355755Y96724D01*
X356577Y95652D01*
X357649Y94829D01*
X358656Y94412D01*
Y92399D01*
X357649Y91982D01*
X356577Y91159D01*
X355755Y90087D01*
X355238Y88839D01*
X355061Y87500D01*
X355238Y86161D01*
X355755Y84913D01*
X356577Y83841D01*
X357649Y83018D01*
X358656Y82601D01*
Y80588D01*
X357649Y80171D01*
X356577Y79348D01*
X355755Y78276D01*
X355238Y77028D01*
X355061Y75689D01*
X355238Y74350D01*
X355755Y73102D01*
X356577Y72030D01*
X357649Y71207D01*
X358656Y70790D01*
Y68777D01*
X357649Y68360D01*
X356577Y67537D01*
X355755Y66465D01*
X355238Y65217D01*
X355061Y63878D01*
X355238Y62539D01*
X355755Y61291D01*
X356577Y60219D01*
X357649Y59396D01*
X358897Y58879D01*
X360236Y58703D01*
X361576Y58879D01*
X362824Y59396D01*
X363896Y60219D01*
X364718Y61291D01*
X365235Y62539D01*
X365411Y63878D01*
X365235Y65217D01*
X364718Y66465D01*
X363896Y67537D01*
X362824Y68360D01*
X361817Y68777D01*
Y70790D01*
X362824Y71207D01*
X363896Y72030D01*
X364718Y73102D01*
X365235Y74350D01*
X365411Y75689D01*
X365235Y77028D01*
X364718Y78276D01*
X363896Y79348D01*
X362824Y80171D01*
X361817Y80588D01*
Y82601D01*
X362824Y83018D01*
X363896Y83841D01*
X364718Y84913D01*
X365235Y86161D01*
X365411Y87500D01*
X365235Y88839D01*
X364718Y90087D01*
X363896Y91159D01*
X362824Y91982D01*
X361817Y92399D01*
Y94412D01*
X362824Y94829D01*
X363896Y95652D01*
X364718Y96724D01*
X365235Y97972D01*
X365411Y99311D01*
X365235Y100650D01*
X364718Y101899D01*
X363896Y102970D01*
X362824Y103793D01*
X361817Y104210D01*
Y106223D01*
X362824Y106640D01*
X363896Y107463D01*
X364718Y108535D01*
X365235Y109783D01*
X365411Y111122D01*
X365235Y112461D01*
X364718Y113709D01*
X363896Y114781D01*
X362824Y115604D01*
X361576Y116121D01*
X360236Y116297D01*
D02*
G37*
G36*
X328740Y69053D02*
X327401Y68877D01*
X326153Y68360D01*
X325081Y67537D01*
X324258Y66465D01*
X323742Y65217D01*
X323565Y63878D01*
X323742Y62539D01*
X324258Y61291D01*
X325081Y60219D01*
X326153Y59396D01*
X327401Y58879D01*
X328740Y58703D01*
X330080Y58879D01*
X331328Y59396D01*
X332399Y60219D01*
X333222Y61291D01*
X333739Y62539D01*
X333915Y63878D01*
X333739Y65217D01*
X333222Y66465D01*
X332399Y67537D01*
X331328Y68360D01*
X330080Y68877D01*
X328740Y69053D01*
D02*
G37*
G36*
X350394Y63147D02*
X349054Y62971D01*
X347806Y62454D01*
X346734Y61632D01*
X345912Y60560D01*
X345395Y59312D01*
X345219Y57972D01*
X345395Y56633D01*
X345912Y55385D01*
X346734Y54313D01*
X347806Y53491D01*
X349054Y52974D01*
X350394Y52798D01*
X351733Y52974D01*
X352981Y53491D01*
X354053Y54313D01*
X354875Y55385D01*
X355392Y56633D01*
X355569Y57972D01*
X355392Y59312D01*
X354875Y60560D01*
X354053Y61632D01*
X352981Y62454D01*
X351733Y62971D01*
X350394Y63147D01*
D02*
G37*
G36*
X338583D02*
X337243Y62971D01*
X335995Y62454D01*
X334923Y61632D01*
X334101Y60560D01*
X333584Y59312D01*
X333408Y57972D01*
X333584Y56633D01*
X334101Y55385D01*
X334923Y54313D01*
X335995Y53491D01*
X337243Y52974D01*
X338583Y52798D01*
X339922Y52974D01*
X341170Y53491D01*
X342242Y54313D01*
X343064Y55385D01*
X343581Y56633D01*
X343758Y57972D01*
X343581Y59312D01*
X343064Y60560D01*
X342242Y61632D01*
X341170Y62454D01*
X339922Y62971D01*
X338583Y63147D01*
D02*
G37*
G36*
X328740Y57242D02*
X327401Y57066D01*
X326153Y56549D01*
X325081Y55726D01*
X324258Y54654D01*
X323742Y53406D01*
X323565Y52067D01*
X323742Y50728D01*
X324258Y49479D01*
X325081Y48408D01*
X326153Y47585D01*
X327401Y47068D01*
X328740Y46892D01*
X330080Y47068D01*
X331328Y47585D01*
X332399Y48408D01*
X333222Y49479D01*
X333739Y50728D01*
X333915Y52067D01*
X333739Y53406D01*
X333222Y54654D01*
X332399Y55726D01*
X331328Y56549D01*
X330080Y57066D01*
X328740Y57242D01*
D02*
G37*
G36*
X313205Y48638D02*
X311183D01*
Y46419D01*
X313205D01*
Y48638D01*
D02*
G37*
G36*
Y44919D02*
X311183D01*
Y42701D01*
X313205D01*
Y44919D01*
D02*
G37*
G36*
X316134Y40764D02*
X313862D01*
Y38295D01*
X316134D01*
Y40764D01*
D02*
G37*
G36*
X385827Y30855D02*
X384397Y30714D01*
X383021Y30297D01*
X381754Y29619D01*
X380643Y28708D01*
X379731Y27597D01*
X379053Y26329D01*
X378636Y24954D01*
X378495Y23524D01*
X378636Y22093D01*
X379053Y20718D01*
X379731Y19451D01*
X380643Y18340D01*
X381754Y17428D01*
X383021Y16750D01*
X384397Y16333D01*
X385827Y16192D01*
X387257Y16333D01*
X388632Y16750D01*
X389900Y17428D01*
X391011Y18340D01*
X391923Y19451D01*
X392600Y20718D01*
X393017Y22093D01*
X393158Y23524D01*
X393017Y24954D01*
X392600Y26329D01*
X391923Y27597D01*
X391011Y28708D01*
X389900Y29619D01*
X388632Y30297D01*
X387257Y30714D01*
X385827Y30855D01*
D02*
G37*
G36*
X226590Y112319D02*
X224122D01*
Y110047D01*
X226590D01*
Y112319D01*
D02*
G37*
G36*
X234638Y110721D02*
X232366D01*
Y108252D01*
X234638D01*
Y110721D01*
D02*
G37*
G36*
Y87197D02*
X232366D01*
Y84728D01*
X234638D01*
Y87197D01*
D02*
G37*
G36*
X87417Y104740D02*
X85146D01*
Y102665D01*
X87417D01*
Y104740D01*
D02*
G37*
G36*
Y101665D02*
X85146D01*
Y99591D01*
X87417D01*
Y101665D01*
D02*
G37*
G36*
X85236Y74409D02*
X84063D01*
Y72685D01*
X87361D01*
X87291Y73036D01*
X86809Y73757D01*
X86087Y74240D01*
X85236Y74409D01*
D02*
G37*
G36*
X87361Y71685D02*
X84063D01*
Y69961D01*
X85236D01*
X86087Y70130D01*
X86809Y70613D01*
X87291Y71334D01*
X87361Y71685D01*
D02*
G37*
G36*
X168102Y85646D02*
X165831D01*
Y83177D01*
X168102D01*
Y85646D01*
D02*
G37*
G36*
Y82177D02*
X165831D01*
Y79709D01*
X168102D01*
Y82177D01*
D02*
G37*
G36*
X181488Y70078D02*
X180315D01*
X179464Y69909D01*
X178743Y69427D01*
X178260Y68705D01*
X178191Y68354D01*
X181488D01*
Y70078D01*
D02*
G37*
G36*
Y67354D02*
X178191D01*
X178260Y67003D01*
X178743Y66282D01*
X179464Y65800D01*
X180315Y65631D01*
X181488D01*
Y67354D01*
D02*
G37*
G36*
X304368Y48638D02*
X302346D01*
Y46419D01*
X304368D01*
Y48638D01*
D02*
G37*
G36*
Y44919D02*
X302346D01*
Y42701D01*
X304368D01*
Y44919D01*
D02*
G37*
G36*
X131890Y25647D02*
X131167Y25552D01*
X130494Y25273D01*
X129915Y24829D01*
X129472Y24250D01*
X129192Y23577D01*
X129097Y22854D01*
X129192Y22132D01*
X129472Y21458D01*
X129915Y20880D01*
X130494Y20436D01*
X131167Y20157D01*
X131890Y20062D01*
X132613Y20157D01*
X133286Y20436D01*
X133864Y20880D01*
X134308Y21458D01*
X134587Y22132D01*
X134682Y22854D01*
X134587Y23577D01*
X134308Y24250D01*
X133864Y24829D01*
X133286Y25273D01*
X132613Y25552D01*
X131890Y25647D01*
D02*
G37*
G36*
X279528Y23999D02*
X278630Y23820D01*
X277869Y23312D01*
X277361Y22551D01*
X277183Y21654D01*
X277361Y20756D01*
X277869Y19995D01*
X278202Y19773D01*
Y18517D01*
X276464D01*
Y18517D01*
X276292D01*
Y18517D01*
X274554D01*
Y19773D01*
X274887Y19995D01*
X275395Y20756D01*
X275573Y21654D01*
X275395Y22551D01*
X274887Y23312D01*
X274126Y23820D01*
X273228Y23999D01*
X272331Y23820D01*
X271570Y23312D01*
X271062Y22551D01*
X270883Y21654D01*
X271062Y20756D01*
X271570Y19995D01*
X271903Y19773D01*
Y18517D01*
X271149D01*
Y12979D01*
X272395D01*
Y12217D01*
X271149D01*
Y6837D01*
X257786D01*
X257564Y7170D01*
X256803Y7678D01*
X255906Y7857D01*
X255008Y7678D01*
X254247Y7170D01*
X253739Y6409D01*
X253560Y5512D01*
X253739Y4614D01*
X254247Y3854D01*
X255008Y3345D01*
X255906Y3167D01*
X256803Y3345D01*
X257564Y3854D01*
X257786Y4186D01*
X275362D01*
X275869Y4287D01*
X276299Y4575D01*
X277729Y6005D01*
X277864Y6206D01*
X278338Y6680D01*
X281607D01*
Y12217D01*
X280361D01*
Y12979D01*
X281607D01*
Y18517D01*
X280853D01*
Y19773D01*
X281186Y19995D01*
X281694Y20756D01*
X281873Y21654D01*
X281694Y22551D01*
X281186Y23312D01*
X280425Y23820D01*
X279528Y23999D01*
D02*
G37*
G36*
X131890Y10647D02*
X131167Y10552D01*
X130494Y10273D01*
X129915Y9829D01*
X129472Y9251D01*
X129192Y8577D01*
X129097Y7854D01*
X129192Y7132D01*
X129472Y6458D01*
X129547Y6360D01*
X129326Y5911D01*
X116447D01*
X116225Y6244D01*
X115464Y6752D01*
X114567Y6931D01*
X113670Y6752D01*
X112909Y6244D01*
X112400Y5483D01*
X112222Y4586D01*
X112400Y3688D01*
X112909Y2928D01*
X113670Y2419D01*
X114567Y2241D01*
X115464Y2419D01*
X116225Y2928D01*
X116447Y3260D01*
X148690D01*
X148924Y3307D01*
X149103Y3188D01*
X150000Y3009D01*
X150897Y3188D01*
X151658Y3696D01*
X152167Y4457D01*
X152345Y5354D01*
X152167Y6252D01*
X151658Y7012D01*
X150897Y7521D01*
X150000Y7699D01*
X149103Y7521D01*
X148342Y7012D01*
X147833Y6252D01*
X147766Y5911D01*
X134454D01*
X134232Y6360D01*
X134308Y6458D01*
X134587Y7132D01*
X134682Y7854D01*
X134587Y8577D01*
X134308Y9251D01*
X133864Y9829D01*
X133286Y10273D01*
X132613Y10552D01*
X131890Y10647D01*
D02*
G37*
%LPD*%
D15*
X338701Y26280D02*
Y30683D01*
Y32500D01*
Y33169D01*
X129921Y162106D02*
X191732D01*
X172953Y100787D02*
X173376D01*
X170957Y98791D02*
X172953Y100787D01*
X170957Y98307D02*
Y98791D01*
X169685Y97035D02*
X170957Y98307D01*
X172646Y83752D02*
X180815Y75583D01*
X181988Y72854D02*
X186468D01*
X181444D02*
X181988D01*
X165137Y98964D02*
X167531Y101358D01*
X165137Y93950D02*
Y98964D01*
X162060Y93950D02*
X165137D01*
X260159Y71315D02*
X264747D01*
X265105Y70957D01*
X269762D01*
X271098Y69621D01*
X239527Y70079D02*
X239763Y70315D01*
X233835Y70079D02*
X239527D01*
X209449Y45692D02*
X233835Y70079D01*
X239763Y70315D02*
X259159D01*
X245036Y68405D02*
X262598D01*
X259159Y70315D02*
X260159Y71315D01*
X233165Y56534D02*
X245036Y68405D01*
X236078Y55487D02*
X292889D01*
X238765Y52800D02*
X296245D01*
X315782Y72338D01*
X292889Y55487D02*
X309842Y72441D01*
X241339Y50000D02*
X300394D01*
X319685Y69291D01*
X235852Y55261D02*
X236078Y55487D01*
X235852Y42009D02*
Y55261D01*
X238652Y52687D02*
X238765Y52800D01*
X227559Y30610D02*
X232972D01*
X227362D02*
X227559D01*
X115748Y162106D02*
X129921D01*
X110563D02*
X115748D01*
X131496Y106299D02*
Y129693D01*
Y85652D02*
Y106299D01*
X258661Y93996D02*
X258858Y93799D01*
X327274Y124399D02*
X328740Y122933D01*
X300984Y110433D02*
X301181Y110236D01*
X274080Y160736D02*
X344102D01*
X253043Y139700D02*
X274080Y160736D01*
X106602Y95169D02*
X107677Y94095D01*
X74814Y81507D02*
X75197Y81890D01*
X257461Y140157D02*
X258002D01*
X208199Y61024D02*
Y106647D01*
X233866Y74001D02*
X234252Y74387D01*
X233866Y73236D02*
Y74001D01*
X72227Y69704D02*
X74191Y71668D01*
X369284Y44579D02*
X372146Y47441D01*
X365657Y149516D02*
X366929Y150787D01*
X360552Y165473D02*
X361614Y166535D01*
X240453Y79831D02*
Y87697D01*
Y149024D02*
Y156890D01*
X226279Y94193D02*
X226476Y93996D01*
X258661D01*
X167531Y101358D02*
X168910D01*
X173905Y97035D02*
X180054Y103184D01*
X172791Y94988D02*
X173905Y96103D01*
X174409Y62598D02*
Y67667D01*
X166496Y75580D02*
X174409Y67667D01*
X157844Y83494D02*
X165758Y75580D01*
X157844Y83494D02*
Y98425D01*
X160531Y72854D02*
X166676D01*
X168130Y57854D02*
X183509Y42476D01*
X167510Y57854D02*
X168130D01*
X166676Y72854D02*
X170935Y68596D01*
Y62113D02*
Y68596D01*
X167648Y62923D02*
X167717Y62992D01*
X158858Y67854D02*
X167717D01*
X174409Y62598D02*
X174537Y62726D01*
X165758Y75580D02*
X166496D01*
X352055Y29815D02*
X361425D01*
X362697Y28543D01*
X348701Y33169D02*
X352055Y29815D01*
X348701Y33169D02*
Y36122D01*
X272433Y68413D02*
X282669D01*
X222985Y90965D02*
X259984D01*
X214916Y82896D02*
X222985Y90965D01*
X259984D02*
X260365Y91347D01*
X224894Y79437D02*
X235130D01*
X223622Y80709D02*
X224894Y79437D01*
X235130D02*
X235138Y79429D01*
X219291Y113779D02*
X222047Y116535D01*
X214916Y62448D02*
X215799Y61565D01*
X220276Y59646D02*
X233866Y73236D01*
X218701Y59646D02*
X220276D01*
X234252Y74387D02*
Y78543D01*
X204724Y45669D02*
X218701Y59646D01*
X260365Y91347D02*
X269890D01*
X209449Y45276D02*
Y45692D01*
X217716Y72441D02*
X222834Y67323D01*
X211999Y61024D02*
Y92806D01*
X244034Y119335D02*
X246645Y116724D01*
X204399Y61024D02*
Y107942D01*
X200599Y61024D02*
Y123850D01*
X222834Y66929D02*
Y67323D01*
X231365Y58924D02*
X234252Y61811D01*
X217716Y72441D02*
Y72834D01*
X214916Y62448D02*
Y82896D01*
X229565Y48439D02*
Y62279D01*
X231365Y47694D02*
Y58924D01*
X145543Y32410D02*
X187536D01*
X198799Y63266D02*
Y125276D01*
X215799Y61024D02*
Y61565D01*
X211999Y92806D02*
X223425Y104232D01*
X233165Y46948D02*
Y56534D01*
X224740Y41069D02*
X231365Y47694D01*
X223994Y42869D02*
X229565Y48439D01*
X224290Y33615D02*
X225052Y32853D01*
X225486Y39269D02*
X233165Y46948D01*
X225325Y39269D02*
X225486D01*
X224290Y38235D02*
X225325Y39269D01*
X224290Y33615D02*
Y38235D01*
X225052Y32853D02*
X225119D01*
X220585Y37076D02*
X224579Y41069D01*
X224740D01*
X219840Y38876D02*
X223833Y42869D01*
X223994D01*
X171783Y38876D02*
X219840D01*
X171037Y37076D02*
X220585D01*
X225119Y32853D02*
X227362Y30610D01*
X192408Y27539D02*
X233861D01*
X235871Y29549D01*
Y41990D01*
X228248Y35236D02*
X233071D01*
X227559Y35925D02*
X228248Y35236D01*
X63779Y67185D02*
X71261Y59704D01*
X62106Y67185D02*
X63779D01*
X59405Y69704D02*
X72227D01*
X57952Y71157D02*
X59405Y69704D01*
X62803Y83089D02*
Y90367D01*
X73102Y81507D02*
X74814D01*
X63779Y72185D02*
X73102Y81507D01*
X62106Y72185D02*
X63779D01*
X75605Y71668D02*
X77953Y74016D01*
X74191Y71668D02*
X75605D01*
X324410Y152756D02*
X324792Y152373D01*
X126665Y105018D02*
X126772Y104911D01*
X126665Y105018D02*
Y129142D01*
X125394Y130413D02*
X126665Y129142D01*
X57952Y71157D02*
Y78238D01*
X62803Y83089D01*
Y90367D02*
X64075Y91639D01*
X72227Y69704D02*
X77227Y64704D01*
X93202D02*
X93339Y64567D01*
X77227Y64704D02*
X93202D01*
X99369Y59704D02*
X114476Y74811D01*
X71261Y59704D02*
X99369D01*
X114476Y74811D02*
Y89280D01*
X115551Y90354D01*
X115748D01*
X63779Y77185D02*
X67146Y80552D01*
Y102642D01*
X67126Y102662D02*
X67146Y102642D01*
X62106Y77185D02*
X63779D01*
X107677Y94095D02*
X107874D01*
X106602Y95169D02*
Y98614D01*
X100295Y104921D02*
X106602Y98614D01*
X100295Y104921D02*
Y105118D01*
X85720Y108571D02*
X91724D01*
X94980Y105315D01*
Y105118D02*
Y105315D01*
X84646Y109646D02*
X85720Y108571D01*
X67126Y102662D02*
Y102772D01*
X69185Y104831D01*
X75697D01*
X76772Y105905D01*
X65067Y104721D02*
X67126Y102662D01*
X65067Y104721D02*
Y113481D01*
X64075Y114473D02*
X65067Y113481D01*
X60031Y92910D02*
Y113202D01*
X58760Y114473D02*
X60031Y113202D01*
X58760Y91639D02*
X60031Y92910D01*
X98654Y64567D02*
X99925Y65839D01*
Y79716D01*
X114476Y94268D01*
Y96760D01*
X115551Y97835D01*
X115748D01*
Y106524D01*
X122357Y89280D02*
X128740Y82896D01*
X115748Y90354D02*
X116823Y89280D01*
X122357D01*
X80709Y98546D02*
Y118898D01*
Y98546D02*
X82390Y96864D01*
Y77814D02*
Y96864D01*
Y77814D02*
X83019Y77185D01*
X83563D01*
X95996Y70965D02*
Y98260D01*
X162886Y137124D02*
X180305Y119705D01*
X129921Y74016D02*
X147933Y92028D01*
Y132579D01*
X128740Y82896D02*
X131496Y85652D01*
X149050Y82677D02*
Y90600D01*
X150733Y92282D01*
Y142476D01*
X147933Y145276D02*
X150733Y142476D01*
X123925Y137000D02*
X125197Y135728D01*
X127704Y133485D02*
X131496Y129693D01*
X127637Y133485D02*
X127704D01*
X125394Y135728D02*
X127637Y133485D01*
X125197Y135728D02*
X125394D01*
X130118Y156791D02*
X134946Y151964D01*
Y113686D02*
Y151964D01*
X120669Y156791D02*
X130118D01*
X105512Y129823D02*
X115354D01*
X115945Y130413D01*
X125394D01*
X106968Y158511D02*
X110563Y162106D01*
X106968Y148576D02*
Y158511D01*
Y148576D02*
X118543Y137000D01*
X123925D01*
X110236Y156201D02*
X120079D01*
X120669Y156791D01*
X129921Y162106D02*
X129921Y162106D01*
X116929Y64961D02*
X140606D01*
X171315Y34252D01*
X213385D01*
X172528Y40676D02*
X217841D01*
X183509Y42476D02*
X215035D01*
X154577Y56081D02*
X171783Y38876D01*
X217841Y40676D02*
X222835Y45669D01*
X156377Y56827D02*
X172528Y40676D01*
X215035Y42476D02*
X218504Y45945D01*
X161811Y93701D02*
X162060Y93950D01*
X173905Y96103D02*
Y97035D01*
X181473Y81496D02*
X182327D01*
X172791Y90179D02*
Y94988D01*
Y90179D02*
X181473Y81496D01*
X182327D02*
X191010Y72813D01*
X187401Y91339D02*
X190945Y87795D01*
X175591Y91339D02*
X187401D01*
X165137Y93950D02*
X172646Y86441D01*
X168910Y101358D02*
X171304Y103752D01*
X168401Y104808D02*
X168504Y104911D01*
X172646Y83752D02*
Y86441D01*
X180684Y104705D02*
X181988D01*
X180054Y104076D02*
X180684Y104705D01*
X180054Y103184D02*
Y104076D01*
X196799Y61266D02*
X198799Y63266D01*
X191010Y70203D02*
Y72813D01*
X188932Y95297D02*
X193745Y90485D01*
X190945Y78740D02*
X193745Y81540D01*
X191950Y96239D02*
X195545Y92645D01*
X193745Y81540D02*
Y90485D01*
X196799Y61024D02*
Y61266D01*
X223425Y149902D02*
X223622D01*
X183661Y57854D02*
X195545Y69737D01*
X183661Y109705D02*
X188932Y104434D01*
Y95297D02*
Y104434D01*
X191732Y96239D02*
X191950D01*
X195545Y69737D02*
Y92645D01*
X152165Y156791D02*
X161614D01*
X180305Y119705D02*
X183661D01*
X200599Y123850D02*
X221675Y144926D01*
X167510Y58061D02*
X167717Y58268D01*
X170935Y62113D02*
X175194Y57854D01*
X183661D01*
X174537Y62726D02*
X181860D01*
X375590Y60827D02*
X377256Y59161D01*
Y47842D02*
Y59161D01*
Y47842D02*
X377461Y47638D01*
X369284Y40248D02*
Y44579D01*
X372146Y47441D02*
Y47638D01*
X368012Y38976D02*
X369284Y40248D01*
X168435Y109774D02*
X168504Y109843D01*
X168435Y114636D02*
X168504Y114567D01*
X160600Y114636D02*
X168435D01*
X181860Y62726D02*
X181988Y62854D01*
X160600Y62923D02*
X167648D01*
X160531Y62854D02*
X160600Y62923D01*
X171304Y103752D02*
Y115727D01*
X160531Y119705D02*
X167326D01*
X160635Y104808D02*
X168401D01*
X186468Y72854D02*
X187669Y71653D01*
X188210D01*
X183661Y62854D02*
X191010Y70203D01*
X204399Y107942D02*
X223425Y126969D01*
X208199Y106647D02*
X220887Y119335D01*
X181988Y62854D02*
X183661D01*
X180815Y73484D02*
Y75583D01*
X191732Y96239D02*
Y156791D01*
X234252Y78543D02*
X235138Y79429D01*
X269890Y91347D02*
X271161Y92618D01*
X235852Y42009D02*
X235871Y41990D01*
X223425Y104232D02*
X223622D01*
X181988Y109705D02*
X183661D01*
X160531Y114705D02*
X160600Y114636D01*
X160531Y104705D02*
X160635Y104808D01*
X183661Y119705D02*
X186143Y117224D01*
Y112186D02*
Y117224D01*
X183661Y109705D02*
X186143Y112186D01*
X160531Y109705D02*
X160600Y109774D01*
X168435D01*
X152777Y55335D02*
X171037Y37076D01*
X152777Y55335D02*
Y108624D01*
X154577Y100424D02*
X158858Y104705D01*
X154577Y56081D02*
Y100424D01*
X156377Y56827D02*
Y65373D01*
X158858Y67854D01*
X167326Y119705D02*
X171304Y115727D01*
X152777Y108624D02*
X158858Y114705D01*
X160531D01*
X160738Y58061D02*
X167510D01*
X160531Y57854D02*
X160738Y58061D01*
X161614Y156791D02*
X162886Y155520D01*
Y137124D02*
Y155520D01*
X180815Y73484D02*
X181444Y72854D01*
X172047Y156201D02*
X181890D01*
X182480Y156791D02*
X191732D01*
X181890Y156201D02*
X182480Y156791D01*
X151575Y156201D02*
X152165Y156791D01*
X141732Y156201D02*
X151575D01*
X191732Y162106D02*
X191831Y162205D01*
X223425Y126969D02*
X223622D01*
X224894Y125697D01*
X220887Y119335D02*
X244034D01*
X246645Y116724D02*
X269988D01*
X270965Y138287D02*
X272236Y137016D01*
X282669Y91347D02*
X282677Y91339D01*
X272433Y91347D02*
X282669D01*
X271161Y92618D02*
X272433Y91347D01*
X235130Y102961D02*
X235138Y102953D01*
X223622Y104232D02*
X224894Y102961D01*
X235130D01*
X272532Y114181D02*
X282768D01*
X269988Y116724D02*
X272532Y114181D01*
X282768D02*
X282776Y114173D01*
X223622Y149902D02*
X224894Y148630D01*
X235130D01*
X235138Y148622D01*
X198799Y125276D02*
X223425Y149902D01*
X269890Y139559D02*
X271161Y138287D01*
X258600Y139559D02*
X269890D01*
X272236Y137016D02*
X282669D01*
X258002Y140157D02*
X258600Y139559D01*
X282669Y137016D02*
X282677Y137008D01*
X252318Y144926D02*
X252362Y144882D01*
X221675Y144926D02*
X252318D01*
X224894Y125697D02*
X235130D01*
X235138Y125689D01*
X249426Y98616D02*
X249618Y98808D01*
X271161Y69685D02*
X272433Y68413D01*
X282669D02*
X282677Y68405D01*
X239955Y98616D02*
X249426D01*
X239764Y98425D02*
X239955Y98616D01*
X191831Y162205D02*
X203543D01*
X238408Y142564D02*
X246265D01*
X237576Y141732D02*
X238408Y142564D01*
X229178Y141732D02*
X237576D01*
X219729Y138932D02*
X241147D01*
X219685Y138976D02*
X219729Y138932D01*
X241147D02*
X241979Y139764D01*
X242520D01*
X246265Y142564D02*
X246703Y142126D01*
X247244D01*
X251772Y132677D02*
X253043Y133949D01*
Y139700D01*
X344102Y160736D02*
X345374Y162008D01*
Y162205D01*
X251575Y132677D02*
X251772D01*
X222047Y116535D02*
X236221D01*
X250303Y149024D02*
X251575Y150295D01*
X240854Y149024D02*
X250303D01*
X240453Y148622D02*
X240854Y149024D01*
X240453Y125689D02*
X241724Y126961D01*
X251173D01*
X251575Y127362D01*
X250303Y79831D02*
X251575Y81102D01*
X240854Y79831D02*
X250303D01*
X240453Y79429D02*
X240854Y79831D01*
X240453Y125689D02*
Y133957D01*
Y102953D02*
Y111221D01*
Y102953D02*
X241724Y104224D01*
X251173D01*
X251575Y104626D01*
X287992Y91339D02*
Y99606D01*
Y91339D02*
X289264Y92610D01*
X298713D01*
X299114Y93012D01*
X288090Y114173D02*
Y122441D01*
Y114173D02*
X289362Y115445D01*
X298811D01*
X299213Y115847D01*
X287992Y137008D02*
X289264Y138279D01*
X298713D01*
X299114Y138681D01*
X287992Y137008D02*
Y145276D01*
Y68405D02*
Y76673D01*
Y68405D02*
X289264Y69677D01*
X298713D01*
X299114Y70079D01*
X275787Y110433D02*
X300984D01*
X275590Y110630D02*
X275787Y110433D01*
X252847Y108669D02*
X273591D01*
X274825Y107436D02*
X324180D01*
X327866Y111122D02*
X328740D01*
X316929Y90158D02*
Y96457D01*
X328598Y87357D02*
X328740Y87500D01*
X300098Y99311D02*
X328740D01*
X299114Y98327D02*
X300098Y99311D01*
X299410Y75689D02*
X328740D01*
X299114Y75394D02*
X299410Y75689D01*
X320276Y7854D02*
X338701Y26280D01*
X362697Y18898D02*
X363968Y17626D01*
Y15689D02*
Y17626D01*
Y15689D02*
X366740Y12917D01*
Y10721D02*
Y12917D01*
Y10721D02*
X368012Y9449D01*
X140551Y37402D02*
X145543Y32410D01*
X187536D02*
X192408Y27539D01*
X123622Y30610D02*
X175295D01*
X185433Y20472D01*
X338701Y33169D02*
Y36122D01*
X318504Y7854D02*
X320276D01*
X324180Y107436D02*
X327866Y111122D01*
X252515Y87357D02*
X328598D01*
X251575Y86417D02*
X252515Y87357D01*
X251575Y109941D02*
X252847Y108669D01*
X273591D02*
X274825Y107436D01*
X299213Y121161D02*
X299409D01*
X311917Y133669D01*
Y135343D02*
X313189Y136614D01*
X311917Y133669D02*
Y135343D01*
X299114Y143996D02*
X299311D01*
X305764Y150449D02*
Y150844D01*
X299311Y143996D02*
X305764Y150449D01*
Y150844D02*
X310945Y156024D01*
X328564D01*
X329626Y157087D01*
X318569Y152756D02*
X324410D01*
X324792Y152373D02*
X326662D01*
X251772Y155610D02*
X261635Y165473D01*
X251575Y155610D02*
X251772D01*
X261635Y165473D02*
X360552D01*
X362697Y18898D02*
Y28543D01*
X313255Y144488D02*
Y152756D01*
X313189Y144423D02*
X313255Y144488D01*
X313189Y136614D02*
Y144423D01*
X331869Y143779D02*
Y143944D01*
X329626Y141535D02*
X331869Y143779D01*
X333669Y145744D02*
Y147941D01*
X331869Y143944D02*
X333669Y145744D01*
Y147941D02*
X334941Y149213D01*
X329626Y141339D02*
Y141535D01*
X333669Y150484D02*
X334941Y149213D01*
X333669Y150484D02*
Y152681D01*
X331869Y154481D02*
X333669Y152681D01*
X331869Y154481D02*
Y154647D01*
X329626Y156890D02*
X331869Y154647D01*
X329626Y156890D02*
Y157087D01*
X326662Y152373D02*
X329626Y149409D01*
Y149213D02*
Y149409D01*
X345374Y146063D02*
Y162205D01*
X361614Y150787D02*
Y150984D01*
X363857Y153227D02*
Y153393D01*
X365657Y155193D01*
X361614Y150984D02*
X363857Y153227D01*
X365657Y155193D02*
Y157390D01*
X366929Y158661D01*
X361614Y166339D02*
X363857Y164095D01*
Y163930D02*
X365657Y162130D01*
X361614Y166339D02*
Y166535D01*
X365657Y159933D02*
Y162130D01*
Y159933D02*
X366929Y158661D01*
X363857Y163930D02*
Y164095D01*
X350689Y162205D02*
X355906D01*
X358650Y161822D02*
X361614Y158858D01*
X356288Y161822D02*
X358650D01*
X361614Y158661D02*
Y158858D01*
X355906Y162205D02*
X356288Y161822D01*
X318504Y136417D02*
Y136614D01*
Y136417D02*
X327274Y127647D01*
Y124399D02*
Y127647D01*
X338583Y117028D02*
Y119101D01*
X336213Y121471D02*
X338583Y119101D01*
X336213Y121471D02*
Y140067D01*
X334941Y141339D02*
X336213Y140067D01*
X350394Y117028D02*
Y145768D01*
X350689Y146063D01*
X360236Y122933D02*
X365657Y128354D01*
Y149516D01*
X255906Y5512D02*
X275362D01*
X276792Y6942D01*
X279035Y9252D02*
Y15748D01*
X276792Y6942D02*
Y7009D01*
X279035Y9252D01*
X322441Y33760D02*
Y37106D01*
X114567Y4586D02*
X148690D01*
X149459Y5354D02*
X150000D01*
X148690Y4586D02*
X149459Y5354D01*
X152362Y18481D02*
Y22461D01*
Y18481D02*
X163166Y7677D01*
X235226D01*
X158268Y16535D02*
X226287D01*
X273228Y16240D02*
Y21654D01*
Y16240D02*
X273721Y15748D01*
X279528Y16240D02*
Y21654D01*
X279035Y15748D02*
X279528Y16240D01*
X273721Y9174D02*
Y15748D01*
D17*
X83563Y77185D02*
D03*
Y72185D02*
D03*
Y67185D02*
D03*
Y62185D02*
D03*
X62106Y77185D02*
D03*
Y72185D02*
D03*
Y67185D02*
D03*
Y62185D02*
D03*
X181988Y119705D02*
D03*
Y114705D02*
D03*
Y109705D02*
D03*
Y104705D02*
D03*
X160531Y119705D02*
D03*
Y114705D02*
D03*
Y109705D02*
D03*
Y104705D02*
D03*
X181988Y72854D02*
D03*
Y67854D02*
D03*
Y62854D02*
D03*
Y57854D02*
D03*
X160531Y72854D02*
D03*
Y67854D02*
D03*
Y62854D02*
D03*
Y57854D02*
D03*
D18*
X64075Y114473D02*
D03*
X58760D02*
D03*
Y91639D02*
D03*
X64075D02*
D03*
X98654Y64567D02*
D03*
X93339D02*
D03*
X94980Y105118D02*
D03*
X100295D02*
D03*
X377461Y47638D02*
D03*
X372146D02*
D03*
X305118Y45669D02*
D03*
X310433D02*
D03*
X173917Y82677D02*
D03*
X168602D02*
D03*
X175000Y97035D02*
D03*
X169685D02*
D03*
X329626Y141339D02*
D03*
X334941D02*
D03*
X329626Y157087D02*
D03*
X334941D02*
D03*
X329626Y149213D02*
D03*
X334941D02*
D03*
X313189Y136614D02*
D03*
X318504D02*
D03*
X318569Y152756D02*
D03*
X313255D02*
D03*
Y144488D02*
D03*
X318569D02*
D03*
X350689Y162205D02*
D03*
X345374D02*
D03*
Y146063D02*
D03*
X350689D02*
D03*
X345374Y153937D02*
D03*
X350689D02*
D03*
X287992Y145276D02*
D03*
X282677D02*
D03*
Y137008D02*
D03*
X287992D02*
D03*
Y76673D02*
D03*
X282677D02*
D03*
Y68405D02*
D03*
X287992D02*
D03*
X288090Y122441D02*
D03*
X282776D02*
D03*
Y114173D02*
D03*
X288090D02*
D03*
X240453Y87697D02*
D03*
X235138D02*
D03*
Y79429D02*
D03*
X240453D02*
D03*
Y156890D02*
D03*
X235138D02*
D03*
Y148622D02*
D03*
X240453D02*
D03*
Y133957D02*
D03*
X235138D02*
D03*
Y125689D02*
D03*
X240453D02*
D03*
X287992Y99606D02*
D03*
X282677D02*
D03*
Y91339D02*
D03*
X287992D02*
D03*
X361614Y166535D02*
D03*
X366929D02*
D03*
X361614Y150787D02*
D03*
X366929D02*
D03*
X361614Y158661D02*
D03*
X366929D02*
D03*
X240453Y111221D02*
D03*
X235138D02*
D03*
Y102953D02*
D03*
X240453D02*
D03*
X362697Y38976D02*
D03*
X368012D02*
D03*
X362697Y9449D02*
D03*
X368012D02*
D03*
X362697Y18898D02*
D03*
X368012D02*
D03*
X362697Y28346D02*
D03*
X368012D02*
D03*
X316634Y37795D02*
D03*
X321949D02*
D03*
X273721Y9449D02*
D03*
X279035D02*
D03*
X273721Y15748D02*
D03*
X279035D02*
D03*
D19*
X115748Y97835D02*
D03*
Y90354D02*
D03*
X107874Y94095D02*
D03*
X84646Y109646D02*
D03*
Y102165D02*
D03*
X76772Y105905D02*
D03*
D20*
X115748Y106524D02*
D03*
Y111839D02*
D03*
X125197Y130413D02*
D03*
Y135728D02*
D03*
X105512Y129823D02*
D03*
Y124508D02*
D03*
X115354D02*
D03*
Y129823D02*
D03*
X129921Y156791D02*
D03*
Y162106D02*
D03*
X110236Y156201D02*
D03*
Y150886D02*
D03*
X120079D02*
D03*
Y156201D02*
D03*
X141732D02*
D03*
Y150886D02*
D03*
X151575D02*
D03*
Y156201D02*
D03*
X161417Y156791D02*
D03*
Y162106D02*
D03*
X191732Y156791D02*
D03*
Y162106D02*
D03*
X172047Y156201D02*
D03*
Y150886D02*
D03*
X181890D02*
D03*
Y156201D02*
D03*
X271161Y138287D02*
D03*
Y143602D02*
D03*
X299114Y138681D02*
D03*
Y143996D02*
D03*
X271161Y69685D02*
D03*
Y75000D02*
D03*
X299114Y70079D02*
D03*
Y75394D02*
D03*
X271260Y115453D02*
D03*
Y120768D02*
D03*
X299213Y115847D02*
D03*
Y121161D02*
D03*
X223622Y80709D02*
D03*
Y86024D02*
D03*
X251575Y81102D02*
D03*
Y86417D02*
D03*
X223622Y149902D02*
D03*
Y155217D02*
D03*
X251575Y150295D02*
D03*
Y155610D02*
D03*
X223622Y126969D02*
D03*
Y132283D02*
D03*
X251575Y127362D02*
D03*
Y132677D02*
D03*
X271161Y92618D02*
D03*
Y97933D02*
D03*
X299114Y93012D02*
D03*
Y98327D02*
D03*
X223622Y104232D02*
D03*
Y109547D02*
D03*
X251575Y104626D02*
D03*
Y109941D02*
D03*
X227559Y35925D02*
D03*
Y30610D02*
D03*
D22*
X375590Y69882D02*
D03*
Y60827D02*
D03*
D24*
X318504Y7854D02*
D03*
D25*
X306102Y37008D02*
D03*
D28*
X333701Y36122D02*
D03*
X338701D02*
D03*
X343701D02*
D03*
X348701D02*
D03*
X353701D02*
D03*
D29*
X343701Y12697D02*
D03*
D58*
X346368Y25502D02*
X351550Y20320D01*
X344551Y25502D02*
X346368D01*
X339370Y30683D02*
X344551Y25502D01*
X351550Y14663D02*
Y20320D01*
X306102Y33760D02*
X322441D01*
X333701D01*
X360236Y99311D02*
Y111122D01*
Y87500D02*
Y99311D01*
Y75689D02*
Y87500D01*
Y63878D02*
Y75689D01*
Y50129D02*
Y52067D01*
X294488Y31496D02*
X298628D01*
X368012Y17717D02*
X368996D01*
X300854Y33722D02*
X306065D01*
X368012Y18898D02*
Y38976D01*
X360283Y5930D02*
X370426D01*
X351550Y14663D02*
X360283Y5930D01*
X370426D02*
X371334Y6838D01*
X368996Y17717D02*
X371334Y15379D01*
Y6838D02*
Y15379D01*
X360236Y50129D02*
X362697Y47668D01*
Y38976D02*
Y47668D01*
X306065Y33722D02*
X306102Y33760D01*
X298628Y31496D02*
X300854Y33722D01*
D59*
X385827Y23524D02*
D03*
Y151476D02*
D03*
D60*
X328740Y122933D02*
D03*
Y111122D02*
D03*
Y99311D02*
D03*
Y87500D02*
D03*
Y75689D02*
D03*
Y63878D02*
D03*
Y52067D02*
D03*
X338583Y117028D02*
D03*
Y105217D02*
D03*
Y93405D02*
D03*
Y81595D02*
D03*
Y69784D02*
D03*
Y57972D02*
D03*
X350394Y117028D02*
D03*
Y105217D02*
D03*
Y93405D02*
D03*
Y81595D02*
D03*
Y69784D02*
D03*
Y57972D02*
D03*
X360236Y122933D02*
D03*
Y111122D02*
D03*
Y99311D02*
D03*
Y87500D02*
D03*
Y75689D02*
D03*
Y63878D02*
D03*
Y52067D02*
D03*
D61*
X305426Y50984D02*
D03*
X185531Y125362D02*
D03*
X206791Y119705D02*
D03*
X53937Y61516D02*
D03*
X52362Y84558D02*
D03*
X73032Y112697D02*
D03*
X230806Y107087D02*
D03*
X254369Y120276D02*
D03*
X245923Y157988D02*
D03*
X305118Y156890D02*
D03*
X162402Y83957D02*
D03*
X261516Y77843D02*
D03*
X262598Y68405D02*
D03*
X253839Y74721D02*
D03*
X258858Y93799D02*
D03*
X226279Y94193D02*
D03*
X283661Y58760D02*
D03*
X274887Y58472D02*
D03*
X217709Y104357D02*
D03*
X234638Y84728D02*
D03*
X167717Y62992D02*
D03*
Y67854D02*
D03*
X174409Y62598D02*
D03*
X124605Y149409D02*
D03*
X167184Y144926D02*
D03*
X92913Y81496D02*
D03*
X88976Y68997D02*
D03*
X260138Y134218D02*
D03*
X276772Y146653D02*
D03*
X219291Y113779D02*
D03*
X234104Y97528D02*
D03*
X211999Y61024D02*
D03*
X229921Y62205D02*
D03*
X208199Y61024D02*
D03*
X200599D02*
D03*
X222834Y66929D02*
D03*
X217716Y72834D02*
D03*
X215799Y61024D02*
D03*
X239763Y70079D02*
D03*
X234252Y73622D02*
D03*
X204399Y61024D02*
D03*
X234252Y61811D02*
D03*
X75197Y81890D02*
D03*
X77953Y74016D02*
D03*
X131496Y106299D02*
D03*
X126772Y104911D02*
D03*
X116929Y64961D02*
D03*
X80709Y118898D02*
D03*
X95996Y98260D02*
D03*
Y70965D02*
D03*
X162992Y137008D02*
D03*
X129921Y74016D02*
D03*
X128740Y82896D02*
D03*
X149050Y82677D02*
D03*
X147933Y145276D02*
D03*
Y132579D02*
D03*
X115748Y162106D02*
D03*
X134946Y113686D02*
D03*
X209449Y45276D02*
D03*
X213385Y34252D02*
D03*
X161811Y93701D02*
D03*
X157844Y98425D02*
D03*
X175591Y91339D02*
D03*
X168504Y104911D02*
D03*
X190945Y87795D02*
D03*
X167717Y58268D02*
D03*
X288386Y19677D02*
D03*
X290005Y5354D02*
D03*
X291339Y14259D02*
D03*
X296850Y36562D02*
D03*
X295674Y44287D02*
D03*
X263386Y10873D02*
D03*
X262381Y43801D02*
D03*
X149050Y47934D02*
D03*
X134308Y58857D02*
D03*
X113779Y53150D02*
D03*
X98819Y41732D02*
D03*
Y28265D02*
D03*
Y15748D02*
D03*
Y3543D02*
D03*
X168504Y109843D02*
D03*
Y114567D02*
D03*
X188210Y71653D02*
D03*
X190945Y78740D02*
D03*
X222835Y45669D02*
D03*
X218504Y45945D02*
D03*
X204724Y45669D02*
D03*
X191732Y96457D02*
D03*
X257461Y140157D02*
D03*
X252362Y144882D02*
D03*
X196799Y61024D02*
D03*
X249618Y98808D02*
D03*
X239764Y98425D02*
D03*
X203543Y162205D02*
D03*
X219685Y138976D02*
D03*
X229178Y141732D02*
D03*
X242520Y139764D02*
D03*
X247244Y142126D02*
D03*
X236221Y116535D02*
D03*
X316929Y96457D02*
D03*
X301181Y110236D02*
D03*
X275590Y110630D02*
D03*
X319685Y69291D02*
D03*
X316929Y90158D02*
D03*
X320505Y17520D02*
D03*
Y21752D02*
D03*
Y25984D02*
D03*
Y30217D02*
D03*
X140551Y37402D02*
D03*
X241339Y50000D02*
D03*
X238652Y52687D02*
D03*
X232972Y30610D02*
D03*
X123622D02*
D03*
X185433Y20472D02*
D03*
X309842Y72441D02*
D03*
X315782Y72338D02*
D03*
X235965Y55374D02*
D03*
X233071Y35236D02*
D03*
X324410Y152756D02*
D03*
X355906Y162205D02*
D03*
X255906Y5512D02*
D03*
X294488Y31496D02*
D03*
X114567Y4586D02*
D03*
X150000Y5354D02*
D03*
X152362Y22461D02*
D03*
X158268Y16535D02*
D03*
X235226Y7677D02*
D03*
X226287Y16535D02*
D03*
X273228Y21654D02*
D03*
X279528D02*
D03*
X315912Y17520D02*
D03*
X311319D02*
D03*
X325098D02*
D03*
X315912Y21752D02*
D03*
X311319D02*
D03*
X325098D02*
D03*
X315912Y25984D02*
D03*
X311319D02*
D03*
X325098D02*
D03*
Y30217D02*
D03*
X311319D02*
D03*
X315912D02*
D03*
D62*
X67126Y102662D02*
D03*
X55709D02*
D03*
D63*
X341201Y31610D02*
Y40634D01*
Y31610D02*
X342023Y30788D01*
X336082Y41456D02*
X340379D01*
X333701Y39075D02*
X336082Y41456D01*
X346201Y31610D02*
Y40634D01*
X342023Y30788D02*
X345379D01*
X347023Y41456D02*
X351320D01*
X340379D02*
X341201Y40634D01*
X346201D02*
X347023Y41456D01*
X351320D02*
X353701Y39075D01*
X345379Y30788D02*
X346201Y31610D01*
X353701Y36122D02*
Y39075D01*
M02*
