G04*
G04 #@! TF.GenerationSoftware,Altium Limited,Altium Designer,19.0.14 (431)*
G04*
G04 Layer_Color=16711935*
%FSLAX25Y25*%
%MOIN*%
G70*
G01*
G75*
%ADD65C,0.00394*%
D65*
X188976Y112787D02*
G03*
X188976Y112787I-1969J0D01*
G01*
X79134Y75984D02*
G03*
X79134Y75984I-1969J0D01*
G01*
X177559Y118504D02*
G03*
X177559Y118504I-1969J0D01*
G01*
Y71653D02*
G03*
X177559Y71653I-1969J0D01*
G01*
X244094Y114567D02*
G03*
X244094Y114567I-1969J0D01*
G01*
X244094Y70822D02*
G03*
X244094Y70822I-1969J0D01*
G01*
X234252Y14173D02*
G03*
X234252Y14173I-1969J0D01*
G01*
X137402Y100000D02*
G03*
X137402Y100000I-1969J0D01*
G01*
X137795Y70866D02*
G03*
X137795Y70866I-1969J0D01*
G01*
X278346Y64567D02*
G03*
X278346Y64567I-1969J0D01*
G01*
X75984Y101575D02*
G03*
X75984Y101575I-1969J0D01*
G01*
X183465Y81685D02*
X199213D01*
X183465Y116331D02*
X199213D01*
Y81685D02*
Y116331D01*
X183465Y81685D02*
Y116331D01*
X68110Y99119D02*
Y106206D01*
X54724Y99119D02*
Y106206D01*
X68110D01*
X54724Y99119D02*
X68110D01*
X114567Y88110D02*
Y100079D01*
X109055Y88110D02*
Y100079D01*
X114567D01*
X109055Y88110D02*
X114567D01*
X80709Y59842D02*
Y79528D01*
X64961Y59842D02*
Y79528D01*
X80709D01*
X64961Y59842D02*
X80709D01*
X83465Y99921D02*
Y111890D01*
X77953Y99921D02*
Y111890D01*
X83465D01*
X77953Y99921D02*
X83465D01*
X57973Y116343D02*
X64862D01*
X57973Y112603D02*
X64862D01*
Y116343D01*
X57973Y112603D02*
Y116343D01*
Y89769D02*
X64862D01*
X57973Y93509D02*
X64862D01*
X57973Y89769D02*
Y93509D01*
X64862Y89769D02*
Y93509D01*
X92551Y66437D02*
X99441D01*
X92551Y62697D02*
X99441D01*
Y66437D01*
X92551Y62697D02*
Y66437D01*
X94193Y103248D02*
X101083D01*
X94193Y106988D02*
X101083D01*
X94193Y103248D02*
Y106988D01*
X101083Y103248D02*
Y106988D01*
X117618Y105737D02*
Y112627D01*
X113878Y105737D02*
Y112627D01*
Y105737D02*
X117618D01*
X113878Y112627D02*
X117618D01*
X127067Y129626D02*
Y136516D01*
X123327Y129626D02*
Y136516D01*
Y129626D02*
X127067D01*
X123327Y136516D02*
X127067D01*
X103642Y123721D02*
Y130610D01*
X107382Y123721D02*
Y130610D01*
X103642D02*
X107382D01*
X103642Y123721D02*
X107382D01*
X117224D02*
Y130610D01*
X113484Y123721D02*
Y130610D01*
Y123721D02*
X117224D01*
X113484Y130610D02*
X117224D01*
X131791Y156004D02*
Y162894D01*
X128051Y156004D02*
Y162894D01*
Y156004D02*
X131791D01*
X128051Y162894D02*
X131791D01*
X108366Y150098D02*
Y156988D01*
X112106Y150098D02*
Y156988D01*
X108366D02*
X112106D01*
X108366Y150098D02*
X112106D01*
X121949D02*
Y156988D01*
X118209Y150098D02*
Y156988D01*
Y150098D02*
X121949D01*
X118209Y156988D02*
X121949D01*
X371358Y49508D02*
X378248D01*
X371358Y45768D02*
X378248D01*
Y49508D01*
X371358Y45768D02*
Y49508D01*
X304331Y43799D02*
Y47539D01*
X311221Y43799D02*
Y47539D01*
X304331Y43799D02*
X311221D01*
X304331Y47539D02*
X311221D01*
X139862Y150098D02*
Y156988D01*
X143602Y150098D02*
Y156988D01*
X139862D02*
X143602D01*
X139862Y150098D02*
X143602D01*
X153445D02*
Y156988D01*
X149705Y150098D02*
Y156988D01*
Y150098D02*
X153445D01*
X149705Y156988D02*
X153445D01*
X163287Y156004D02*
Y162894D01*
X159547Y156004D02*
Y162894D01*
Y156004D02*
X163287D01*
X159547Y162894D02*
X163287D01*
X193602Y156004D02*
Y162894D01*
X189862Y156004D02*
Y162894D01*
Y156004D02*
X193602D01*
X189862Y162894D02*
X193602D01*
X170177Y150098D02*
Y156988D01*
X173917Y150098D02*
Y156988D01*
X170177D02*
X173917D01*
X170177Y150098D02*
X173917D01*
X183760D02*
Y156988D01*
X180020Y150098D02*
Y156988D01*
Y150098D02*
X183760D01*
X180020Y156988D02*
X183760D01*
X167815Y84547D02*
X174705D01*
X167815Y80807D02*
X174705D01*
Y84547D01*
X167815Y80807D02*
Y84547D01*
X168898Y98905D02*
X175787D01*
X168898Y95165D02*
X175787D01*
Y98905D01*
X168898Y95165D02*
Y98905D01*
X179134Y102362D02*
Y122047D01*
X163386Y102362D02*
Y122047D01*
X179134D01*
X163386Y102362D02*
X179134D01*
Y55512D02*
Y75197D01*
X163386Y55512D02*
Y75197D01*
X179134D01*
X163386Y55512D02*
X179134D01*
X245669Y111024D02*
Y130709D01*
X229921Y111024D02*
Y130709D01*
Y111024D02*
X245669D01*
X229921Y130709D02*
X245669D01*
X245669Y67279D02*
Y86964D01*
X229921Y67279D02*
Y86964D01*
Y67279D02*
X245669D01*
X229921Y86964D02*
X245669D01*
X234350Y91240D02*
X241240D01*
X234350Y94980D02*
X241240D01*
Y91240D02*
Y94980D01*
X234350Y91240D02*
Y94980D01*
Y102461D02*
X241240D01*
X234350Y106201D02*
X241240D01*
Y102461D02*
Y106201D01*
X234350Y102461D02*
Y106201D01*
X277559Y90866D02*
Y102835D01*
X283071Y90866D02*
Y102835D01*
X277559D02*
X283071D01*
X277559Y90866D02*
X283071D01*
X285925Y80807D02*
X292815D01*
X285925Y84547D02*
X292815D01*
Y80807D02*
Y84547D01*
X285925Y80807D02*
Y84547D01*
X296457Y90866D02*
Y102835D01*
X301969Y90866D02*
Y102835D01*
X296457D02*
X301969D01*
X296457Y90866D02*
X301969D01*
X313189Y85138D02*
Y92028D01*
X309449Y85138D02*
Y92028D01*
X313189D01*
X309449Y85138D02*
X313189D01*
Y101575D02*
Y108465D01*
X309449Y101575D02*
Y108465D01*
X313189D01*
X309449Y101575D02*
X313189D01*
X277559Y116457D02*
Y128425D01*
X283071Y116457D02*
Y128425D01*
X277559D02*
X283071D01*
X277559Y116457D02*
X283071D01*
X309547Y118209D02*
Y125098D01*
X313287Y118209D02*
Y125098D01*
X309547Y118209D02*
X313287D01*
X309547Y125098D02*
X313287D01*
X296457Y116457D02*
Y128425D01*
X301969Y116457D02*
Y128425D01*
X296457D02*
X301969D01*
X296457Y116457D02*
X301969D01*
X149705Y56861D02*
X156595D01*
X149705Y53121D02*
X156595D01*
X149705D02*
Y56861D01*
X156595Y53121D02*
Y56861D01*
X131024Y51181D02*
X142992D01*
X131024Y45669D02*
X142992D01*
Y51181D01*
X131024Y45669D02*
Y51181D01*
X125138Y27854D02*
X138642D01*
Y2854D02*
Y27854D01*
X125138Y2854D02*
Y27854D01*
Y2854D02*
X138642D01*
X328839Y139469D02*
X335728D01*
X328839Y143209D02*
X335728D01*
X328839Y139469D02*
Y143209D01*
X335728Y139469D02*
Y143209D01*
X328839Y155217D02*
X335728D01*
X328839Y158957D02*
X335728D01*
X328839Y155217D02*
Y158957D01*
X335728Y155217D02*
Y158957D01*
X328839Y147343D02*
X335728D01*
X328839Y151083D02*
X335728D01*
X328839Y147343D02*
Y151083D01*
X335728Y147343D02*
Y151083D01*
X312402Y134744D02*
X319291D01*
X312402Y138484D02*
X319291D01*
X312402Y134744D02*
Y138484D01*
X319291Y134744D02*
Y138484D01*
X312467Y154626D02*
X319357D01*
X312467Y150886D02*
X319357D01*
Y154626D01*
X312467Y150886D02*
Y154626D01*
Y142618D02*
X319357D01*
X312467Y146358D02*
X319357D01*
X312467Y142618D02*
Y146358D01*
X319357Y142618D02*
Y146358D01*
X344587Y164075D02*
X351476D01*
X344587Y160335D02*
X351476D01*
Y164075D01*
X344587Y160335D02*
Y164075D01*
Y144193D02*
X351476D01*
X344587Y147933D02*
X351476D01*
X344587Y144193D02*
Y147933D01*
X351476Y144193D02*
Y147933D01*
X344587Y152067D02*
X351476D01*
X344587Y155807D02*
X351476D01*
X344587Y152067D02*
Y155807D01*
X351476Y152067D02*
Y155807D01*
X281890Y147146D02*
X288779D01*
X281890Y143405D02*
X288779D01*
Y147146D01*
X281890Y143405D02*
Y147146D01*
X273031Y137500D02*
Y144390D01*
X269291Y137500D02*
Y144390D01*
Y137500D02*
X273031D01*
X269291Y144390D02*
X273031D01*
X300984Y137894D02*
Y144783D01*
X297244Y137894D02*
Y144783D01*
Y137894D02*
X300984D01*
X297244Y144783D02*
X300984D01*
X281890Y135138D02*
X288779D01*
X281890Y138878D02*
X288779D01*
X281890Y135138D02*
Y138878D01*
X288779Y135138D02*
Y138878D01*
X281890Y78543D02*
X288779D01*
X281890Y74803D02*
X288779D01*
Y78543D01*
X281890Y74803D02*
Y78543D01*
X273031Y68898D02*
Y75787D01*
X269291Y68898D02*
Y75787D01*
Y68898D02*
X273031D01*
X269291Y75787D02*
X273031D01*
X300984Y69291D02*
Y76181D01*
X297244Y69291D02*
Y76181D01*
Y69291D02*
X300984D01*
X297244Y76181D02*
X300984D01*
X281890Y66535D02*
X288779D01*
X281890Y70276D02*
X288779D01*
X281890Y66535D02*
Y70276D01*
X288779Y66535D02*
Y70276D01*
X281988Y124311D02*
X288878D01*
X281988Y120571D02*
X288878D01*
Y124311D01*
X281988Y120571D02*
Y124311D01*
X273130Y114665D02*
Y121555D01*
X269390Y114665D02*
Y121555D01*
Y114665D02*
X273130D01*
X269390Y121555D02*
X273130D01*
X301083Y115059D02*
Y121949D01*
X297342Y115059D02*
Y121949D01*
Y115059D02*
X301083D01*
X297342Y121949D02*
X301083D01*
X281988Y112303D02*
X288878D01*
X281988Y116043D02*
X288878D01*
X281988Y112303D02*
Y116043D01*
X288878Y112303D02*
Y116043D01*
X234350Y89567D02*
X241240D01*
X234350Y85827D02*
X241240D01*
Y89567D01*
X234350Y85827D02*
Y89567D01*
X225492Y79921D02*
Y86811D01*
X221752Y79921D02*
Y86811D01*
Y79921D02*
X225492D01*
X221752Y86811D02*
X225492D01*
X253445Y80315D02*
Y87205D01*
X249705Y80315D02*
Y87205D01*
Y80315D02*
X253445D01*
X249705Y87205D02*
X253445D01*
X234350Y77559D02*
X241240D01*
X234350Y81299D02*
X241240D01*
X234350Y77559D02*
Y81299D01*
X241240Y77559D02*
Y81299D01*
X234350Y158760D02*
X241240D01*
X234350Y155020D02*
X241240D01*
Y158760D01*
X234350Y155020D02*
Y158760D01*
X225492Y149114D02*
Y156004D01*
X221752Y149114D02*
Y156004D01*
Y149114D02*
X225492D01*
X221752Y156004D02*
X225492D01*
X253445Y149508D02*
Y156398D01*
X249705Y149508D02*
Y156398D01*
Y149508D02*
X253445D01*
X249705Y156398D02*
X253445D01*
X234350Y146752D02*
X241240D01*
X234350Y150492D02*
X241240D01*
X234350Y146752D02*
Y150492D01*
X241240Y146752D02*
Y150492D01*
X234350Y135827D02*
X241240D01*
X234350Y132087D02*
X241240D01*
Y135827D01*
X234350Y132087D02*
Y135827D01*
X225492Y126181D02*
Y133071D01*
X221752Y126181D02*
Y133071D01*
Y126181D02*
X225492D01*
X221752Y133071D02*
X225492D01*
X253445Y126575D02*
Y133465D01*
X249705Y126575D02*
Y133465D01*
Y126575D02*
X253445D01*
X249705Y133465D02*
X253445D01*
X234350Y123819D02*
X241240D01*
X234350Y127559D02*
X241240D01*
X234350Y123819D02*
Y127559D01*
X241240Y123819D02*
Y127559D01*
X281890Y101476D02*
X288779D01*
X281890Y97736D02*
X288779D01*
Y101476D01*
X281890Y97736D02*
Y101476D01*
X273031Y91831D02*
Y98721D01*
X269291Y91831D02*
Y98721D01*
Y91831D02*
X273031D01*
X269291Y98721D02*
X273031D01*
X300984Y92224D02*
Y99114D01*
X297244Y92224D02*
Y99114D01*
Y92224D02*
X300984D01*
X297244Y99114D02*
X300984D01*
X281890Y89468D02*
X288779D01*
X281890Y93209D02*
X288779D01*
X281890Y89468D02*
Y93209D01*
X288779Y89468D02*
Y93209D01*
X360827Y164665D02*
X367717D01*
X360827Y168405D02*
X367717D01*
X360827Y164665D02*
Y168405D01*
X367717Y164665D02*
Y168405D01*
X360827Y148917D02*
X367717D01*
X360827Y152657D02*
X367717D01*
X360827Y148917D02*
Y152657D01*
X367717Y148917D02*
Y152657D01*
X360827Y156791D02*
X367717D01*
X360827Y160531D02*
X367717D01*
X360827Y156791D02*
Y160531D01*
X367717Y156791D02*
Y160531D01*
X225492Y103445D02*
Y110335D01*
X221752Y103445D02*
Y110335D01*
Y103445D02*
X225492D01*
X221752Y110335D02*
X225492D01*
X234350Y113091D02*
X241240D01*
X234350Y109350D02*
X241240D01*
Y113091D01*
X234350Y109350D02*
Y113091D01*
Y101083D02*
X241240D01*
X234350Y104823D02*
X241240D01*
X234350Y101083D02*
Y104823D01*
X241240Y101083D02*
Y104823D01*
X253445Y103839D02*
Y110728D01*
X249705Y103839D02*
Y110728D01*
Y103839D02*
X253445D01*
X249705Y110728D02*
X253445D01*
X257776Y10728D02*
Y17618D01*
X254035Y10728D02*
Y17618D01*
X257776D01*
X254035Y10728D02*
X257776D01*
X259941Y61713D02*
X263681D01*
X259941Y54823D02*
X263681D01*
Y61713D01*
X259941Y54823D02*
Y61713D01*
X361910Y37106D02*
X368799D01*
X361910Y40846D02*
X368799D01*
X361910Y37106D02*
Y40846D01*
X368799Y37106D02*
Y40846D01*
X361910Y7579D02*
Y11319D01*
X368799Y7579D02*
Y11319D01*
X361910Y7579D02*
X368799D01*
X361910Y11319D02*
X368799D01*
X361910Y17028D02*
Y20768D01*
X368799Y17028D02*
Y20768D01*
X361910Y17028D02*
X368799D01*
X361910Y20768D02*
X368799D01*
X361910Y26476D02*
Y30217D01*
X368799Y26476D02*
Y30217D01*
X361910Y26476D02*
X368799D01*
X361910Y30217D02*
X368799D01*
X315846Y35925D02*
Y39665D01*
X322736Y35925D02*
Y39665D01*
X315846Y35925D02*
X322736D01*
X315846Y39665D02*
X322736D01*
X330807Y31398D02*
X356594D01*
X330807Y17421D02*
X356594D01*
X330807D02*
Y31398D01*
X356594Y17421D02*
Y31398D01*
X277854Y36713D02*
Y40453D01*
X270965Y36713D02*
Y40453D01*
Y36713D02*
X277854D01*
X270965Y40453D02*
X277854D01*
X290846Y70571D02*
Y74311D01*
X283957Y70571D02*
Y74311D01*
Y70571D02*
X290846D01*
X283957Y74311D02*
X290846D01*
X296555Y67716D02*
X300295D01*
X296555Y60827D02*
X300295D01*
Y67716D01*
X296555Y60827D02*
Y67716D01*
Y55905D02*
X300295D01*
X296555Y49016D02*
X300295D01*
Y55905D01*
X296555Y49016D02*
Y55905D01*
X300886Y38287D02*
Y42028D01*
X307776Y38287D02*
Y42028D01*
X300886D02*
X307776D01*
X300886Y38287D02*
X307776D01*
X106398Y23720D02*
Y27461D01*
X113287Y23720D02*
Y27461D01*
X106398D02*
X113287D01*
X106398Y23720D02*
X113287D01*
X134941Y29232D02*
Y32972D01*
X128051Y29232D02*
Y32972D01*
Y29232D02*
X134941D01*
X128051Y32972D02*
X134941D01*
X112697Y9171D02*
X116437D01*
X112697Y16061D02*
X116437D01*
X112697Y9171D02*
Y16061D01*
X116437Y9171D02*
Y16061D01*
X162697Y21201D02*
Y24941D01*
X169587Y21201D02*
Y24941D01*
X162697D02*
X169587D01*
X162697Y21201D02*
X169587D01*
X175295Y16240D02*
X179035D01*
X175295Y23130D02*
X179035D01*
X175295Y16240D02*
Y23130D01*
X179035Y16240D02*
Y23130D01*
X172126Y34252D02*
Y39764D01*
X160158Y34252D02*
Y39764D01*
X172126D01*
X160158Y34252D02*
X172126D01*
X175689Y32382D02*
X179429D01*
X175689Y39272D02*
X179429D01*
X175689Y32382D02*
Y39272D01*
X179429Y32382D02*
Y39272D01*
X108366Y45965D02*
X112106D01*
X108366Y39075D02*
X112106D01*
Y45965D01*
X108366Y39075D02*
Y45965D01*
X235827Y10630D02*
Y50000D01*
X196457Y10630D02*
Y50000D01*
Y10630D02*
X235827D01*
X196457Y50000D02*
X235827D01*
X183563Y33366D02*
X187303D01*
X183563Y26476D02*
X187303D01*
Y33366D01*
X183563Y26476D02*
Y33366D01*
X225689Y36713D02*
X229429D01*
X225689Y29823D02*
X229429D01*
X225689D02*
Y36713D01*
X229429Y29823D02*
Y36713D01*
X244587Y35433D02*
X248327D01*
X244587Y28543D02*
X248327D01*
Y35433D01*
X244587Y28543D02*
Y35433D01*
X292618Y19390D02*
X296358D01*
X292618Y26280D02*
X296358D01*
X292618Y19390D02*
Y26280D01*
X296358Y19390D02*
Y26280D01*
X272933Y7579D02*
Y11319D01*
X279823Y7579D02*
Y11319D01*
X272933Y7579D02*
X279823D01*
X272933Y11319D02*
X279823D01*
X272933Y13878D02*
Y17618D01*
X279823Y13878D02*
Y17618D01*
X272933Y13878D02*
X279823D01*
X272933Y17618D02*
X279823D01*
X263583Y25295D02*
X289370D01*
X263583Y11319D02*
X289370D01*
Y25295D01*
X263583Y11319D02*
Y25295D01*
X331004Y5098D02*
Y8838D01*
X324114Y5098D02*
Y8838D01*
Y5098D02*
X331004D01*
X324114Y8838D02*
X331004D01*
X303740Y13760D02*
X319882D01*
X303740Y33445D02*
X319882D01*
Y13760D02*
Y33445D01*
X303740Y13760D02*
Y33445D01*
X298425Y11614D02*
X309449D01*
X298425Y4134D02*
X309449D01*
X298425D02*
Y11614D01*
X309449Y4134D02*
Y11614D01*
X347933Y5098D02*
Y8838D01*
X341043Y5098D02*
Y8838D01*
Y5098D02*
X347933D01*
X341043Y8838D02*
X347933D01*
X335472Y34232D02*
X366890D01*
X335472Y12815D02*
X366890D01*
X335472D02*
Y34232D01*
X366890Y12815D02*
Y34232D01*
X120177Y162894D02*
X123917D01*
X120177Y156004D02*
X123917D01*
Y162894D01*
X120177Y156004D02*
Y162894D01*
Y139272D02*
X123917D01*
X120177Y132382D02*
X123917D01*
Y139272D01*
X120177Y132382D02*
Y139272D01*
X130020Y156988D02*
X133760D01*
X130020Y150098D02*
X133760D01*
Y156988D01*
X130020Y150098D02*
Y156988D01*
X139862Y150098D02*
X143602D01*
X139862Y156988D02*
X143602D01*
X139862Y150098D02*
Y156988D01*
X143602Y150098D02*
Y156988D01*
X130020Y133366D02*
X133760D01*
X130020Y126476D02*
X133760D01*
Y133366D01*
X130020Y126476D02*
Y133366D01*
X139862Y126476D02*
X143602D01*
X139862Y133366D02*
X143602D01*
X139862Y126476D02*
Y133366D01*
X143602Y126476D02*
Y133366D01*
X123228Y116142D02*
X138976D01*
X123228Y96457D02*
X138976D01*
X123228D02*
Y116142D01*
X138976Y96457D02*
Y116142D01*
X100492Y109252D02*
X112500D01*
X100492Y102362D02*
X112500D01*
Y109252D01*
X100492Y102362D02*
Y109252D01*
X123622Y87008D02*
X139370D01*
X123622Y67323D02*
X139370D01*
X123622D02*
Y87008D01*
X139370Y67323D02*
Y87008D01*
X100295Y79823D02*
X112303D01*
X100295Y72933D02*
X112303D01*
Y79823D01*
X100295Y72933D02*
Y79823D01*
X272835Y48425D02*
X288583D01*
X272835Y68110D02*
X288583D01*
Y48425D02*
Y68110D01*
X272835Y48425D02*
Y68110D01*
X70472Y70473D02*
Y105118D01*
X86221Y70473D02*
Y105118D01*
X70472D02*
X86221D01*
X70472Y70473D02*
X86221D01*
X285630Y133169D02*
Y136909D01*
X292520Y133169D02*
Y136909D01*
X285630D02*
X292520D01*
X285630Y133169D02*
X292520D01*
X264522Y93504D02*
X268262D01*
X264522Y100394D02*
X268262D01*
X264522Y93504D02*
Y100394D01*
X268262Y93504D02*
Y100394D01*
M02*
