G04*
G04 #@! TF.GenerationSoftware,Altium Limited,Altium Designer,19.0.14 (431)*
G04*
G04 Layer_Physical_Order=1*
G04 Layer_Color=255*
%FSLAX25Y25*%
%MOIN*%
G70*
G01*
G75*
%ADD15C,0.01000*%
%ADD16R,0.03500X0.01654*%
%ADD17O,0.05709X0.02362*%
%ADD18R,0.03543X0.03937*%
%ADD19R,0.03543X0.03150*%
%ADD20R,0.03937X0.03543*%
%ADD21R,0.03150X0.03543*%
%ADD22R,0.05118X0.04331*%
%ADD23R,0.09449X0.02992*%
%ADD24R,0.08071X0.04528*%
%ADD25R,0.04528X0.08071*%
%ADD26R,0.05315X0.01181*%
%ADD27R,0.01181X0.05315*%
%ADD28R,0.02362X0.08268*%
%ADD29R,0.12598X0.08268*%
%ADD30R,0.18110X0.18504*%
%ADD31R,0.04528X0.02756*%
%ADD32R,0.05315X0.05709*%
%ADD33R,0.13780X0.21457*%
%ADD34R,0.02362X0.03937*%
%ADD57C,0.02000*%
%ADD58C,0.01500*%
%ADD59C,0.12992*%
%ADD60C,0.08661*%
%ADD61C,0.03000*%
G36*
X330196Y160417D02*
X324802Y155023D01*
X324410Y155101D01*
X323512Y154922D01*
X322751Y154414D01*
X322529Y154081D01*
X251552D01*
X251045Y153981D01*
X250615Y153693D01*
X238782Y141861D01*
X238495Y141431D01*
X238394Y140924D01*
Y134895D01*
X231122Y127622D01*
X230661Y127869D01*
X230760Y128366D01*
X230606Y129139D01*
X230169Y129794D01*
X230121Y129826D01*
Y139596D01*
X230836Y140074D01*
X231345Y140835D01*
X231523Y141732D01*
X231345Y142630D01*
X230836Y143391D01*
X230075Y143899D01*
X229178Y144077D01*
X228280Y143899D01*
X227520Y143391D01*
X227327Y143102D01*
X218525D01*
X218018Y143001D01*
X217588Y142714D01*
X209648Y134774D01*
X209361Y134344D01*
X209260Y133837D01*
Y117644D01*
X204587Y112971D01*
X204125Y113162D01*
Y114206D01*
X204150Y114334D01*
Y159980D01*
X204441Y160038D01*
X205202Y160547D01*
X205424Y160879D01*
X330005D01*
X330196Y160417D01*
D02*
G37*
G36*
X354247Y160547D02*
X355008Y160038D01*
X355906Y159860D01*
X356298Y159938D01*
X364542Y151694D01*
Y143335D01*
X273228Y143335D01*
X273228Y143335D01*
X272916Y143273D01*
X272652Y143096D01*
X260707Y131152D01*
X260046Y131198D01*
X249511Y141734D01*
X249589Y142126D01*
X249411Y143023D01*
X248902Y143784D01*
X248142Y144292D01*
X247244Y144471D01*
X246347Y144292D01*
X245586Y143784D01*
X245077Y143023D01*
X244899Y142126D01*
X245022Y141506D01*
X244697Y141012D01*
X244655Y140987D01*
X244474Y140978D01*
X244178Y141422D01*
X243417Y141930D01*
X243256Y141962D01*
X243111Y142441D01*
X252101Y151430D01*
X322529D01*
X322751Y151098D01*
X323512Y150589D01*
X324410Y150411D01*
X325307Y150589D01*
X326068Y151098D01*
X326576Y151858D01*
X326754Y152756D01*
X326676Y153148D01*
X334407Y160879D01*
X354025D01*
X354247Y160547D01*
D02*
G37*
G36*
X398985Y173980D02*
X398985Y143775D01*
X398631Y143335D01*
X398631Y143335D01*
X367192Y143335D01*
Y152243D01*
X367192Y152243D01*
X367091Y152751D01*
X366804Y153181D01*
X358172Y161812D01*
X358251Y162205D01*
X358072Y163102D01*
X357564Y163863D01*
X356803Y164371D01*
X355906Y164550D01*
X355008Y164371D01*
X354247Y163863D01*
X354025Y163530D01*
X333858D01*
X333858Y163530D01*
X333858Y163530D01*
X205424D01*
X205202Y163863D01*
X204441Y164371D01*
X203543Y164550D01*
X202646Y164371D01*
X201885Y163863D01*
X201377Y163102D01*
X201198Y162205D01*
X201377Y161307D01*
X201527Y161083D01*
X201499Y160945D01*
Y115634D01*
X199025D01*
Y115333D01*
X185518D01*
X185010Y115232D01*
X184580Y114945D01*
X184114Y114479D01*
X183652Y114670D01*
Y115634D01*
X178552D01*
Y115613D01*
X170571D01*
X170162Y116225D01*
X169401Y116734D01*
X168504Y116912D01*
X167606Y116734D01*
X166846Y116225D01*
X166337Y115464D01*
X166159Y114567D01*
X166337Y113670D01*
X166846Y112909D01*
X167484Y112483D01*
X167515Y112363D01*
Y112046D01*
X167484Y111927D01*
X166846Y111501D01*
X166337Y110740D01*
X166159Y109843D01*
X166337Y108945D01*
X166846Y108184D01*
X167606Y107676D01*
X167828Y107632D01*
Y107122D01*
X167606Y107078D01*
X166846Y106570D01*
X166337Y105809D01*
X166159Y104911D01*
X166337Y104014D01*
X166846Y103253D01*
X167606Y102745D01*
X168504Y102566D01*
X169401Y102745D01*
X170162Y103253D01*
X170385Y103586D01*
X176083D01*
X176590Y103687D01*
X177020Y103974D01*
X178090Y105044D01*
X178552Y104853D01*
Y102381D01*
X183652D01*
Y105634D01*
X179334D01*
X179142Y106096D01*
X180427Y107381D01*
X183652D01*
Y110608D01*
X183898Y110656D01*
X184328Y110944D01*
X186067Y112682D01*
X196798D01*
X196990Y112220D01*
X186815Y102046D01*
X186528Y101616D01*
X186427Y101109D01*
Y97134D01*
X185965Y96943D01*
X183652Y99255D01*
Y100635D01*
X178552D01*
Y97381D01*
X181778D01*
X183062Y96096D01*
X182871Y95635D01*
X178552D01*
Y92381D01*
X181778D01*
X182827Y91332D01*
Y90635D01*
X178552D01*
Y89255D01*
X177797Y88500D01*
X107889D01*
X107382Y88399D01*
X106952Y88112D01*
X105834Y86994D01*
X91133D01*
Y89343D01*
X174379D01*
X174424Y89352D01*
X174693Y89172D01*
X175591Y88994D01*
X176488Y89172D01*
X177249Y89680D01*
X177757Y90441D01*
X177936Y91339D01*
X177757Y92236D01*
X177249Y92997D01*
X176488Y93505D01*
X175591Y93684D01*
X174693Y93505D01*
X173932Y92997D01*
X173424Y92236D01*
X173376Y91994D01*
X164038D01*
X163771Y92494D01*
X163978Y92803D01*
X164156Y93701D01*
X163978Y94598D01*
X163469Y95359D01*
X162708Y95867D01*
X161811Y96046D01*
X160914Y95867D01*
X160153Y95359D01*
X159931Y95026D01*
X149151D01*
X145500Y98678D01*
X145524Y98799D01*
X145370Y99572D01*
X144932Y100227D01*
X144277Y100665D01*
X143504Y100819D01*
X140157D01*
X139384Y100665D01*
X138729Y100227D01*
X138291Y99572D01*
X138138Y98799D01*
X138291Y98026D01*
X138729Y97371D01*
X139384Y96933D01*
X140157Y96779D01*
X143504D01*
X143625Y96803D01*
X147665Y92764D01*
X148068Y92494D01*
X148075Y92457D01*
X147857Y91994D01*
X97671D01*
X97480Y92456D01*
X102649Y97625D01*
X104737D01*
Y102337D01*
X107206D01*
X108255Y101288D01*
Y97625D01*
X110343D01*
X112587Y95381D01*
X113017Y95094D01*
X113524Y94993D01*
X123075D01*
X123582Y95094D01*
X124012Y95381D01*
X132051Y103419D01*
X132338Y103849D01*
X132395Y104133D01*
X133154Y104641D01*
X133663Y105402D01*
X133841Y106299D01*
X133663Y107197D01*
X133154Y107957D01*
X132394Y108466D01*
X131496Y108644D01*
X131104Y108566D01*
X129933Y109737D01*
X129503Y110024D01*
X128996Y110125D01*
X123544D01*
X123476Y110228D01*
X122820Y110665D01*
X122047Y110819D01*
X118701D01*
X117928Y110665D01*
X117272Y110228D01*
X116835Y109572D01*
X116681Y108799D01*
X116780Y108302D01*
X116319Y108055D01*
X113685Y110689D01*
X113255Y110977D01*
X112748Y111077D01*
X112217D01*
Y113163D01*
X116807D01*
X116835Y113026D01*
X117272Y112371D01*
X117928Y111933D01*
X118701Y111779D01*
X122047D01*
X122820Y111933D01*
X123476Y112371D01*
X123913Y113026D01*
X124067Y113799D01*
X123913Y114572D01*
X123476Y115227D01*
X122820Y115665D01*
X122047Y115819D01*
X118701D01*
X118154Y115710D01*
X118150Y115714D01*
X117642Y115814D01*
X108517D01*
X108009Y115714D01*
X107579Y115426D01*
X106818Y114665D01*
X106530Y114235D01*
X106482Y113989D01*
X104937D01*
Y114189D01*
X103256D01*
Y111221D01*
Y108252D01*
X104937D01*
Y108452D01*
X110789D01*
X110917Y108426D01*
X112199D01*
X116705Y103920D01*
X116681Y103799D01*
X116835Y103026D01*
X117272Y102371D01*
X117928Y101933D01*
X118701Y101779D01*
X122047D01*
X122545Y101878D01*
X122791Y101417D01*
X122169Y100795D01*
X122047Y100819D01*
X118701D01*
X117928Y100665D01*
X117272Y100227D01*
X116835Y99572D01*
X116681Y98799D01*
X116811Y98144D01*
X116535Y97644D01*
X114073D01*
X112217Y99500D01*
Y103162D01*
X110130D01*
X108692Y104599D01*
X108262Y104887D01*
X107755Y104988D01*
X99064D01*
X98557Y104887D01*
X98127Y104599D01*
X97648Y104121D01*
X91133D01*
Y104422D01*
X86033D01*
Y104121D01*
X70660D01*
Y104422D01*
X65560D01*
Y101196D01*
X65315Y101147D01*
X64885Y100859D01*
X64123Y100098D01*
X63836Y99668D01*
X63735Y99160D01*
Y89922D01*
X63836Y89415D01*
X64123Y88985D01*
X65560Y87548D01*
Y86168D01*
X70660D01*
Y89422D01*
X67435D01*
X66386Y90471D01*
Y91168D01*
X70660D01*
Y93641D01*
X71122Y93832D01*
X80223Y84731D01*
X80653Y84444D01*
X81160Y84343D01*
X86033D01*
Y81169D01*
X87257D01*
Y79422D01*
X86033D01*
Y76169D01*
X91133D01*
Y76470D01*
X103447D01*
X108058Y71859D01*
Y68196D01*
X112021D01*
Y70859D01*
X116974D01*
X117212Y70359D01*
X117075Y69665D01*
X117228Y68892D01*
X117666Y68237D01*
X118322Y67799D01*
X119095Y67645D01*
X122441D01*
X123214Y67799D01*
X123869Y68237D01*
X124000Y68432D01*
X125663D01*
X126171Y68533D01*
X126601Y68821D01*
X129529Y71749D01*
X129921Y71671D01*
X130819Y71849D01*
X131579Y72357D01*
X132088Y73118D01*
X132266Y74016D01*
X132088Y74913D01*
X131579Y75674D01*
X130819Y76182D01*
X129921Y76361D01*
X129024Y76182D01*
X128263Y75674D01*
X127755Y74913D01*
X127576Y74016D01*
X127654Y73623D01*
X125380Y71349D01*
X125243Y71377D01*
X125078Y71919D01*
X125859Y72700D01*
X126147Y73130D01*
X126248Y73638D01*
Y77184D01*
X126248Y77184D01*
X126147Y77692D01*
X125859Y78122D01*
X124437Y79544D01*
X124461Y79665D01*
X124437Y79787D01*
X126221Y81571D01*
X126860D01*
X127082Y81238D01*
X127843Y80730D01*
X128740Y80551D01*
X129638Y80730D01*
X130398Y81238D01*
X130907Y81999D01*
X131085Y82896D01*
X130907Y83794D01*
X130398Y84554D01*
X129638Y85063D01*
X128740Y85241D01*
X127843Y85063D01*
X127082Y84554D01*
X126860Y84222D01*
X125672D01*
X125165Y84121D01*
X124816Y83888D01*
X124554Y83995D01*
X124362Y84168D01*
X124461Y84665D01*
X124325Y85349D01*
X124588Y85849D01*
X138404D01*
X138667Y85349D01*
X138531Y84665D01*
X138685Y83892D01*
X139123Y83237D01*
X139778Y82799D01*
X140551Y82645D01*
X143898D01*
X144671Y82799D01*
X145326Y83237D01*
X145356Y83282D01*
X146189D01*
X146720Y82752D01*
X146705Y82677D01*
X146884Y81780D01*
X147392Y81019D01*
X148153Y80511D01*
X149050Y80332D01*
X149948Y80511D01*
X150709Y81019D01*
X151217Y81780D01*
X151396Y82677D01*
X151217Y83575D01*
X150709Y84335D01*
X149948Y84844D01*
X149050Y85022D01*
X148340Y84881D01*
X147871Y85349D01*
X148079Y85849D01*
X177858D01*
X178346Y85835D01*
X178352Y85377D01*
Y84508D01*
X181102D01*
Y83508D01*
X178352D01*
Y82181D01*
X181163D01*
X181354Y81719D01*
X176789Y77154D01*
X171731D01*
X171223Y77053D01*
X170793Y76766D01*
X163979Y69951D01*
X163692Y69521D01*
X163591Y69014D01*
Y61632D01*
X162267D01*
X161832Y62067D01*
Y63056D01*
X161731Y63564D01*
X161444Y63994D01*
X145893Y79544D01*
X145918Y79665D01*
X145764Y80438D01*
X145326Y81094D01*
X144671Y81532D01*
X143898Y81685D01*
X140551D01*
X139778Y81532D01*
X139123Y81094D01*
X138685Y80438D01*
X138531Y79665D01*
X138685Y78892D01*
X139123Y78237D01*
X139778Y77799D01*
X140551Y77645D01*
X143898D01*
X144019Y77670D01*
X144387Y77302D01*
X144141Y76841D01*
X143898Y76889D01*
X142724D01*
Y74665D01*
Y72442D01*
X143898D01*
X144749Y72611D01*
X145470Y73093D01*
X145952Y73814D01*
X146122Y74665D01*
X146073Y74908D01*
X146534Y75155D01*
X150281Y71408D01*
X150034Y70947D01*
X149813Y70991D01*
X145395D01*
X145326Y71094D01*
X144671Y71531D01*
X143898Y71685D01*
X140551D01*
X139778Y71531D01*
X139123Y71094D01*
X138685Y70438D01*
X138531Y69665D01*
X138685Y68892D01*
X139123Y68237D01*
X139778Y67799D01*
X140551Y67645D01*
X143898D01*
X144671Y67799D01*
X145326Y68237D01*
X145395Y68340D01*
X149265D01*
X154154Y63450D01*
X153963Y62988D01*
X119161Y62988D01*
X118898Y62936D01*
X118749Y63112D01*
X118620Y63352D01*
X119096Y64063D01*
X119274Y64961D01*
X119096Y65858D01*
X118587Y66619D01*
X117826Y67127D01*
X116929Y67306D01*
X116032Y67127D01*
X115271Y66619D01*
X115049Y66286D01*
X82417D01*
X77440Y71263D01*
X77687Y71724D01*
X77953Y71671D01*
X78804Y71840D01*
X79207Y71571D01*
X79714Y71470D01*
X79715Y71470D01*
X86033D01*
Y71169D01*
X91133D01*
Y74422D01*
X86033D01*
Y74121D01*
X80277D01*
X80119Y74913D01*
X79611Y75674D01*
X78850Y76182D01*
X77953Y76361D01*
X77055Y76182D01*
X76295Y75674D01*
X75786Y74913D01*
X75608Y74016D01*
X75661Y73750D01*
X75200Y73503D01*
X70660Y78043D01*
Y79422D01*
X65560D01*
Y76169D01*
X68786D01*
X69870Y75084D01*
X69679Y74622D01*
X68610D01*
Y73295D01*
X70860D01*
Y73441D01*
X71322Y73632D01*
X80931Y64023D01*
X81361Y63736D01*
X81868Y63635D01*
X115049D01*
X115271Y63302D01*
X116032Y62794D01*
X116929Y62616D01*
X117826Y62794D01*
X118113Y62985D01*
X118432Y62597D01*
X103894Y48060D01*
X95304D01*
X94992Y47998D01*
X94896Y47934D01*
X94800Y47998D01*
X94488Y48060D01*
X47818D01*
X47634Y48183D01*
X47634Y48183D01*
X47243Y48261D01*
X1020Y48262D01*
X1021Y126739D01*
X94487D01*
X94671Y126776D01*
X94877Y126817D01*
X94877Y126817D01*
X94877Y126817D01*
X95030Y126920D01*
X95208Y127038D01*
X95208Y127038D01*
X95208Y127038D01*
X95326Y127215D01*
X95429Y127369D01*
X95429Y127369D01*
X95429Y127369D01*
X95469Y127574D01*
X95506Y127759D01*
X95511Y173982D01*
X352760D01*
X398985Y173980D01*
D02*
G37*
G36*
X245499Y138001D02*
X246737D01*
X256056Y128681D01*
Y110486D01*
X253321Y107750D01*
X253034Y107320D01*
X252933Y106813D01*
Y91673D01*
X252471Y91481D01*
X250943Y93009D01*
Y96927D01*
X251276Y97149D01*
X251784Y97910D01*
X251963Y98808D01*
X251784Y99705D01*
X251276Y100466D01*
X250943Y100688D01*
Y111495D01*
X250970Y111500D01*
X251625Y111938D01*
X252063Y112593D01*
X252217Y113366D01*
X252063Y114139D01*
X251625Y114794D01*
X250970Y115232D01*
X250197Y115386D01*
X246850D01*
X246077Y115232D01*
X245923Y115129D01*
X245483Y115365D01*
Y116127D01*
X245923Y116362D01*
X245999Y116312D01*
X246850Y116142D01*
X248024D01*
Y118366D01*
Y120590D01*
X246850D01*
X246607Y120542D01*
X246361Y121002D01*
X246729Y121370D01*
X246850Y121346D01*
X250197D01*
X250970Y121500D01*
X251625Y121938D01*
X252063Y122593D01*
X252217Y123366D01*
X252063Y124139D01*
X251625Y124794D01*
X250970Y125232D01*
X250197Y125386D01*
X246850D01*
X246353Y125287D01*
X246107Y125748D01*
X246729Y126370D01*
X246850Y126346D01*
X250197D01*
X250970Y126500D01*
X251625Y126938D01*
X252063Y127593D01*
X252217Y128366D01*
X252063Y129139D01*
X251625Y129794D01*
X250970Y130232D01*
X250197Y130386D01*
X246850D01*
X246077Y130232D01*
X245422Y129794D01*
X244984Y129139D01*
X244830Y128366D01*
X244855Y128245D01*
X235666Y119056D01*
X235445Y118726D01*
X235323Y118702D01*
X234562Y118194D01*
X234054Y117433D01*
X233875Y116535D01*
X234054Y115638D01*
X234562Y114877D01*
X235323Y114369D01*
X236221Y114190D01*
X237118Y114369D01*
X237879Y114877D01*
X238387Y115638D01*
X238565Y116535D01*
X238387Y117433D01*
X238148Y117790D01*
X244469Y124110D01*
X244929Y123864D01*
X244830Y123366D01*
X244855Y123245D01*
X243220Y121610D01*
X242933Y121180D01*
X242832Y120673D01*
Y107099D01*
X237910D01*
Y107299D01*
X235638D01*
Y104331D01*
Y101362D01*
X237910D01*
Y101562D01*
X238438D01*
Y100305D01*
X238106Y100083D01*
X237597Y99322D01*
X237419Y98425D01*
X237597Y97528D01*
X238106Y96767D01*
X238686Y96379D01*
X238535Y95879D01*
X237910D01*
Y96079D01*
X235638D01*
Y93110D01*
Y90142D01*
X237910D01*
Y90342D01*
X241150D01*
X245264Y86227D01*
Y85813D01*
X245179Y85686D01*
X244990D01*
X244483Y85585D01*
X244053Y85298D01*
X234645Y75889D01*
X234252Y75967D01*
X233355Y75789D01*
X233047Y75583D01*
X232909Y75601D01*
X232511Y75827D01*
X232446Y76156D01*
X232158Y76586D01*
X230686Y78058D01*
X230560Y78143D01*
X230463Y78633D01*
X230606Y78848D01*
X230760Y79621D01*
X230736Y79742D01*
X232158Y81165D01*
X232446Y81595D01*
X232547Y82102D01*
X232547Y82102D01*
Y90142D01*
X234638D01*
Y93110D01*
Y96079D01*
X232547D01*
Y98720D01*
Y101362D01*
X234638D01*
Y103831D01*
X232366D01*
Y103750D01*
X231866Y103543D01*
X229331Y106078D01*
Y108574D01*
X232158Y111401D01*
X232446Y111831D01*
X232547Y112338D01*
Y120885D01*
X232547Y120885D01*
X232446Y121392D01*
X232158Y121822D01*
X230736Y123245D01*
X230760Y123366D01*
X230736Y123487D01*
X240657Y133408D01*
X240944Y133838D01*
X241045Y134346D01*
Y137452D01*
X241486Y137688D01*
X241622Y137597D01*
X242520Y137419D01*
X243417Y137597D01*
X244103Y138056D01*
X245221D01*
X245499Y138001D01*
D02*
G37*
G36*
X398985Y142166D02*
X398984Y1018D01*
X227924Y1019D01*
X227733Y1481D01*
X229796Y3544D01*
X230084Y3974D01*
X230133Y4220D01*
X232296D01*
Y6352D01*
X233346D01*
X233568Y6019D01*
X234329Y5511D01*
X235226Y5332D01*
X236123Y5511D01*
X236884Y6019D01*
X237393Y6780D01*
X237571Y7677D01*
X237393Y8575D01*
X236884Y9335D01*
X236123Y9844D01*
X235226Y10022D01*
X234329Y9844D01*
X233568Y9335D01*
X233346Y9003D01*
X232296D01*
Y11135D01*
X228294D01*
Y15313D01*
X228281Y15379D01*
X228454Y15638D01*
X228484Y15791D01*
X229022Y15932D01*
X229315Y15736D01*
X229822Y15635D01*
X231734D01*
X234929Y12441D01*
X235359Y12153D01*
X235866Y12053D01*
X244180D01*
Y5007D01*
X250308D01*
Y10084D01*
X253137D01*
Y8944D01*
X254580D01*
Y7392D01*
X254247Y7170D01*
X253739Y6409D01*
X253560Y5512D01*
X253739Y4614D01*
X254247Y3854D01*
X255008Y3345D01*
X255906Y3167D01*
X256803Y3345D01*
X257564Y3854D01*
X258072Y4614D01*
X258251Y5512D01*
X258072Y6409D01*
X257564Y7170D01*
X257231Y7392D01*
Y8944D01*
X258674D01*
Y14087D01*
X258674D01*
Y14259D01*
X258674D01*
Y19402D01*
X258321D01*
Y27743D01*
X260446D01*
Y33674D01*
X254553D01*
Y36598D01*
X256587D01*
Y39764D01*
Y42929D01*
X256217D01*
X256026Y43391D01*
X262077Y49442D01*
X266810D01*
X266879Y49339D01*
X267534Y48902D01*
X268307Y48748D01*
X271654D01*
X272427Y48902D01*
X273082Y49339D01*
X273520Y49995D01*
X273674Y50768D01*
X273574Y51265D01*
X274035Y51512D01*
X280151Y45396D01*
Y41922D01*
X279839Y41551D01*
X279651Y41551D01*
X277567D01*
Y38583D01*
X276567D01*
Y41551D01*
X274295D01*
Y41351D01*
X269180D01*
Y35814D01*
X270151D01*
Y34954D01*
X269495D01*
Y25086D01*
X270151D01*
Y23947D01*
X270252Y23439D01*
X270539Y23009D01*
X271051Y22497D01*
X270883Y21654D01*
X271062Y20756D01*
X271570Y19995D01*
X272331Y19487D01*
X273228Y19308D01*
X274126Y19487D01*
X274887Y19995D01*
X275395Y20756D01*
X275573Y21654D01*
X275395Y22551D01*
X274887Y23312D01*
X274126Y23820D01*
X273317Y23981D01*
X272802Y24496D01*
Y25086D01*
X273458D01*
Y34954D01*
X272802D01*
Y35814D01*
X273862D01*
X274295Y35614D01*
X274295Y35154D01*
X274295Y35114D01*
Y30520D01*
X278658D01*
Y35114D01*
X278658Y35154D01*
X278752Y35614D01*
X279497Y35614D01*
X279816Y35114D01*
X279741Y34954D01*
X279495D01*
Y25086D01*
X280151D01*
Y24496D01*
X279632Y23978D01*
X279528Y23999D01*
X278630Y23820D01*
X277869Y23312D01*
X277361Y22551D01*
X277183Y21654D01*
X277361Y20756D01*
X277869Y19995D01*
X278630Y19487D01*
X279528Y19308D01*
X280425Y19487D01*
X281186Y19995D01*
X281694Y20756D01*
X281873Y21654D01*
X281737Y22334D01*
X282414Y23010D01*
X282701Y23440D01*
X282802Y23947D01*
Y25086D01*
X283457D01*
Y34954D01*
X282802D01*
Y45945D01*
X282701Y46452D01*
X282414Y46882D01*
X273649Y55646D01*
X273674Y55768D01*
X273520Y56541D01*
X273082Y57196D01*
X272427Y57634D01*
X271654Y57788D01*
X268307D01*
X267534Y57634D01*
X266879Y57196D01*
X266705Y56936D01*
X264580D01*
Y58153D01*
X264779D01*
Y60425D01*
X261811D01*
Y61425D01*
X264779D01*
Y63697D01*
X262043D01*
X261776Y64197D01*
X261831Y64280D01*
X266968D01*
X267534Y63902D01*
X268307Y63748D01*
X271654D01*
X272427Y63902D01*
X273082Y64339D01*
X273520Y64995D01*
X273674Y65768D01*
X273520Y66541D01*
X273082Y67196D01*
X272427Y67634D01*
X271654Y67788D01*
X268307D01*
X267534Y67634D01*
X266879Y67196D01*
X266702Y66931D01*
X264910D01*
X264674Y67372D01*
X264765Y67508D01*
X264944Y68405D01*
X264776Y69249D01*
X265253Y69727D01*
X265540Y70157D01*
X265641Y70664D01*
Y87034D01*
X266103Y87225D01*
X276278Y77051D01*
Y60383D01*
X276379Y59876D01*
X276666Y59446D01*
X284509Y51602D01*
Y40347D01*
X284535Y40218D01*
Y35519D01*
X285151D01*
Y34954D01*
X284495D01*
Y25086D01*
X284894D01*
Y22267D01*
X280192Y17566D01*
X270977D01*
X267862Y20681D01*
Y25086D01*
X268458D01*
Y34954D01*
X264495D01*
Y25086D01*
X265211D01*
Y20132D01*
X265312Y19625D01*
X265599Y19195D01*
X269491Y15303D01*
X269921Y15016D01*
X270428Y14915D01*
X280741D01*
X281249Y15016D01*
X281679Y15303D01*
X287157Y20781D01*
X287444Y21211D01*
X287545Y21719D01*
Y25060D01*
X291720D01*
Y22949D01*
X291520D01*
Y20677D01*
X294488D01*
Y20177D01*
X294988D01*
Y17405D01*
X297457D01*
X297473Y16912D01*
Y11528D01*
X294672D01*
Y4220D01*
X301587D01*
Y11528D01*
X300124D01*
Y13924D01*
X303552D01*
X306261Y11215D01*
Y10031D01*
X306287Y9904D01*
Y4220D01*
X313202D01*
Y6549D01*
X322330D01*
Y4199D01*
X327445D01*
Y3999D01*
X329716D01*
Y6968D01*
Y9936D01*
X327445D01*
Y9736D01*
X322330D01*
Y9200D01*
X313202D01*
Y11528D01*
X308912D01*
Y11764D01*
X308811Y12271D01*
X308524Y12701D01*
X308118Y13107D01*
X308382Y13550D01*
X308703Y13550D01*
X327965D01*
Y21688D01*
X333157D01*
Y11995D01*
X340505D01*
Y9736D01*
X339259D01*
Y4199D01*
X344374D01*
Y3999D01*
X346646D01*
Y6968D01*
Y9936D01*
X344374D01*
Y9736D01*
X343156D01*
Y11995D01*
X348536D01*
Y35052D01*
X333157D01*
Y25359D01*
X327965D01*
Y33654D01*
X308255D01*
Y14032D01*
X308255Y13677D01*
X307812Y13413D01*
X305426Y15799D01*
Y18280D01*
X301607D01*
X301352Y18780D01*
X301456Y18924D01*
X305426D01*
Y23280D01*
X303688D01*
Y23924D01*
X305426D01*
Y28280D01*
X303688D01*
Y28924D01*
X305426D01*
Y33280D01*
X299298D01*
Y32880D01*
X296330D01*
X296146Y33154D01*
X295386Y33663D01*
X294488Y33841D01*
X293591Y33663D01*
X292830Y33154D01*
X292322Y32394D01*
X292143Y31496D01*
X292322Y30599D01*
X292830Y29838D01*
X293591Y29329D01*
X294488Y29151D01*
X295386Y29329D01*
X295968Y29719D01*
X299298D01*
Y28924D01*
X301037D01*
Y28280D01*
X299298D01*
Y27428D01*
X297257D01*
Y28064D01*
X291720D01*
Y27711D01*
X288457D01*
Y34954D01*
X287802D01*
Y35519D01*
X294205D01*
Y41647D01*
X287160D01*
Y50388D01*
X287660Y50649D01*
X287785Y50561D01*
X287898Y49995D01*
X288335Y49339D01*
X288991Y48902D01*
X289764Y48748D01*
X293110D01*
X293883Y48902D01*
X294538Y49339D01*
X294607Y49442D01*
X295657D01*
Y47232D01*
X298568D01*
Y42134D01*
X298669Y41627D01*
X298956Y41197D01*
X299102Y41052D01*
Y37389D01*
X304217D01*
Y37189D01*
X306488D01*
Y40157D01*
Y43126D01*
X304217D01*
Y42926D01*
X301219D01*
Y48531D01*
X301194Y48660D01*
Y52375D01*
X301194D01*
Y52547D01*
X301194D01*
Y54442D01*
X307566D01*
Y48708D01*
X313694D01*
Y50741D01*
X323740D01*
X323742Y50728D01*
X324258Y49479D01*
X325081Y48408D01*
X326153Y47585D01*
X327401Y47068D01*
X328740Y46892D01*
X330080Y47068D01*
X331328Y47585D01*
X332399Y48408D01*
X333222Y49479D01*
X333739Y50728D01*
X333915Y52067D01*
X333739Y53406D01*
X333222Y54654D01*
X332399Y55726D01*
X331328Y56549D01*
X330080Y57066D01*
X328740Y57242D01*
X327401Y57066D01*
X326153Y56549D01*
X325081Y55726D01*
X324258Y54654D01*
X323742Y53406D01*
X323740Y53392D01*
X313694D01*
Y58157D01*
Y62552D01*
X323740D01*
X323742Y62539D01*
X324258Y61291D01*
X325081Y60219D01*
X326153Y59396D01*
X327401Y58879D01*
X328740Y58703D01*
X330080Y58879D01*
X331328Y59396D01*
X332399Y60219D01*
X333222Y61291D01*
X333739Y62539D01*
X333915Y63878D01*
X333739Y65217D01*
X333222Y66465D01*
X332399Y67537D01*
X331328Y68360D01*
X330080Y68877D01*
X328740Y69053D01*
X327401Y68877D01*
X326153Y68360D01*
X325081Y67537D01*
X324258Y66465D01*
X323742Y65217D01*
X323740Y65203D01*
X313694D01*
Y67828D01*
X313196D01*
X313147Y68328D01*
X313593Y68416D01*
X314023Y68704D01*
X315390Y70071D01*
X315782Y69993D01*
X316680Y70171D01*
X317100Y70452D01*
X317352Y70293D01*
X317505Y70121D01*
X317340Y69291D01*
X317518Y68394D01*
X318027Y67633D01*
X318788Y67125D01*
X319685Y66946D01*
X320583Y67125D01*
X321343Y67633D01*
X321852Y68394D01*
X322030Y69291D01*
X321852Y70189D01*
X321343Y70950D01*
X321010Y71172D01*
Y74048D01*
X323154Y76191D01*
X323602Y75970D01*
X323565Y75689D01*
X323742Y74350D01*
X324258Y73102D01*
X325081Y72030D01*
X326153Y71207D01*
X327401Y70690D01*
X328740Y70514D01*
X330080Y70690D01*
X331328Y71207D01*
X332399Y72030D01*
X333222Y73102D01*
X333739Y74350D01*
X333915Y75689D01*
X333739Y77028D01*
X333222Y78276D01*
X332399Y79348D01*
X331851Y79769D01*
X332021Y80269D01*
X333582D01*
X333584Y80255D01*
X334101Y79007D01*
X334923Y77935D01*
X335995Y77113D01*
X337243Y76596D01*
X338583Y76420D01*
X339922Y76596D01*
X341170Y77113D01*
X342242Y77935D01*
X343064Y79007D01*
X343581Y80255D01*
X343758Y81595D01*
X343581Y82934D01*
X343064Y84182D01*
X342242Y85254D01*
X341170Y86076D01*
X339922Y86593D01*
X338583Y86769D01*
X337243Y86593D01*
X335995Y86076D01*
X334923Y85254D01*
X334101Y84182D01*
X333584Y82934D01*
X333582Y82920D01*
X332021D01*
X331851Y83420D01*
X332399Y83841D01*
X333222Y84913D01*
X333739Y86161D01*
X333915Y87500D01*
X333739Y88839D01*
X333222Y90087D01*
X332399Y91159D01*
X331851Y91580D01*
X332021Y92080D01*
X333582D01*
X333584Y92066D01*
X334101Y90818D01*
X334923Y89746D01*
X335995Y88924D01*
X337243Y88407D01*
X338583Y88231D01*
X339922Y88407D01*
X341170Y88924D01*
X342242Y89746D01*
X343064Y90818D01*
X343581Y92066D01*
X343758Y93405D01*
X343581Y94745D01*
X343064Y95993D01*
X342242Y97065D01*
X341170Y97887D01*
X339922Y98404D01*
X338583Y98580D01*
X337243Y98404D01*
X335995Y97887D01*
X334923Y97065D01*
X334101Y95993D01*
X333584Y94745D01*
X333582Y94731D01*
X332021D01*
X331851Y95231D01*
X332399Y95652D01*
X333222Y96724D01*
X333739Y97972D01*
X333915Y99311D01*
X333739Y100650D01*
X333222Y101899D01*
X332399Y102970D01*
X331851Y103391D01*
X332021Y103891D01*
X333582D01*
X333584Y103877D01*
X334101Y102629D01*
X334923Y101557D01*
X335995Y100735D01*
X337243Y100218D01*
X338583Y100041D01*
X339922Y100218D01*
X341170Y100735D01*
X342242Y101557D01*
X343064Y102629D01*
X343581Y103877D01*
X343758Y105217D01*
X343581Y106556D01*
X343064Y107804D01*
X342242Y108876D01*
X341170Y109698D01*
X339922Y110215D01*
X338583Y110391D01*
X337243Y110215D01*
X335995Y109698D01*
X334923Y108876D01*
X334101Y107804D01*
X333584Y106556D01*
X333582Y106542D01*
X332021D01*
X331851Y107042D01*
X332399Y107463D01*
X333222Y108535D01*
X333739Y109783D01*
X333915Y111122D01*
X333739Y112461D01*
X333222Y113709D01*
X332399Y114781D01*
X331328Y115604D01*
X330080Y116121D01*
X328740Y116297D01*
X327401Y116121D01*
X326153Y115604D01*
X325081Y114781D01*
X324258Y113709D01*
X323742Y112461D01*
X323565Y111122D01*
X323742Y109783D01*
X323976Y109215D01*
X323553Y108932D01*
X314186Y118299D01*
Y121539D01*
X314386D01*
Y123811D01*
X308449D01*
Y122692D01*
X305721D01*
Y124816D01*
X300578D01*
Y120066D01*
X304096D01*
X304224Y120041D01*
X308301D01*
X308649Y119693D01*
Y116424D01*
X312311D01*
X324456Y104279D01*
X324886Y103992D01*
X325394Y103891D01*
X325460D01*
X325629Y103391D01*
X325081Y102970D01*
X324258Y101899D01*
X323742Y100650D01*
X323565Y99311D01*
X323742Y97972D01*
X324258Y96724D01*
X325081Y95652D01*
X325629Y95231D01*
X325460Y94731D01*
X319144D01*
X318876Y95231D01*
X319096Y95559D01*
X319274Y96457D01*
X319096Y97354D01*
X318587Y98115D01*
X317827Y98623D01*
X316956Y98796D01*
X314087Y101665D01*
Y104605D01*
X314087Y104934D01*
X314087Y105434D01*
Y110249D01*
X310175D01*
X310047Y110274D01*
X303559D01*
X303509Y110324D01*
X303348Y111134D01*
X302839Y111894D01*
X302079Y112403D01*
X301181Y112581D01*
X300284Y112403D01*
X299523Y111894D01*
X299015Y111134D01*
X298836Y110236D01*
X299015Y109339D01*
X299523Y108578D01*
X300284Y108070D01*
X301181Y107891D01*
X302025Y108059D01*
X302072Y108012D01*
X302502Y107724D01*
X303010Y107623D01*
X308550D01*
Y105434D01*
X308550Y105105D01*
X308550Y104605D01*
Y99791D01*
X312213D01*
X314744Y97260D01*
X314584Y96457D01*
X314763Y95559D01*
X315271Y94798D01*
X315189Y94252D01*
X314775Y93837D01*
X312591D01*
X312462Y93812D01*
X310425D01*
X307524Y96713D01*
X307094Y97000D01*
X306587Y97101D01*
X305721D01*
Y99225D01*
X300578D01*
Y94476D01*
X304096D01*
X304224Y94450D01*
X306038D01*
X308550Y91937D01*
Y88697D01*
X308350D01*
Y86425D01*
X311319D01*
X314287D01*
Y88697D01*
X314087D01*
Y90642D01*
X314177Y90673D01*
X314611Y90294D01*
X314584Y90158D01*
X314763Y89260D01*
X315271Y88499D01*
X315604Y88277D01*
Y80077D01*
X310235Y74708D01*
X309842Y74786D01*
X308945Y74607D01*
X308184Y74099D01*
X307676Y73338D01*
X307498Y72441D01*
X307676Y71544D01*
X307767Y71407D01*
X307531Y70966D01*
X302441D01*
X296761Y76647D01*
X296330Y76934D01*
X295823Y77035D01*
X285719D01*
X269160Y93594D01*
Y96863D01*
X269160D01*
Y97035D01*
X269160D01*
Y99265D01*
X273806D01*
Y98216D01*
X278950D01*
Y102965D01*
X279448Y102969D01*
X292205D01*
X292704Y102965D01*
X292704Y102536D01*
Y100090D01*
X291267Y98653D01*
X290979Y98223D01*
X290879Y97716D01*
Y85799D01*
X290525Y85446D01*
X289456Y85446D01*
X288956Y85446D01*
X286849D01*
Y95776D01*
X286824Y95904D01*
Y99225D01*
X281680D01*
Y94476D01*
X284198D01*
Y85446D01*
X284141D01*
Y79909D01*
X288956D01*
X289284Y79909D01*
X289784Y79909D01*
X294599D01*
Y85446D01*
X293529D01*
Y90736D01*
X297847D01*
Y93611D01*
X299285Y95048D01*
X299572Y95478D01*
X299673Y95985D01*
Y103601D01*
X299572Y104108D01*
X299285Y104538D01*
X296601Y107221D01*
Y116326D01*
X297847D01*
Y121076D01*
X292704D01*
Y116326D01*
X293950D01*
Y107221D01*
X292349Y105620D01*
X265501D01*
X264994Y105519D01*
X264564Y105232D01*
X262186Y102854D01*
X261899Y102424D01*
X261798Y101916D01*
Y93672D01*
X261298Y93443D01*
X261157Y93564D01*
X261203Y93799D01*
X261025Y94697D01*
X260517Y95457D01*
X259756Y95966D01*
X259075Y96101D01*
Y107210D01*
X260288Y108423D01*
X260575Y108853D01*
X260676Y109360D01*
Y129967D01*
X273228Y142520D01*
X364542Y142520D01*
Y126528D01*
X364068Y126367D01*
X363896Y126592D01*
X362824Y127415D01*
X361576Y127932D01*
X360236Y128108D01*
X358897Y127932D01*
X357649Y127415D01*
X356577Y126592D01*
X355755Y125521D01*
X355238Y124273D01*
X355061Y122933D01*
X355238Y121594D01*
X355755Y120346D01*
X356577Y119274D01*
X357649Y118451D01*
X358897Y117934D01*
X360236Y117758D01*
X361576Y117934D01*
X362824Y118451D01*
X363896Y119274D01*
X364068Y119499D01*
X364542Y119338D01*
Y117302D01*
X362835Y115595D01*
X362824Y115604D01*
X361576Y116121D01*
X360236Y116297D01*
X358897Y116121D01*
X357649Y115604D01*
X356577Y114781D01*
X355755Y113709D01*
X355238Y112461D01*
X355061Y111122D01*
X355238Y109783D01*
X355755Y108535D01*
X356577Y107463D01*
X357649Y106640D01*
X358897Y106123D01*
X360236Y105947D01*
X361576Y106123D01*
X362824Y106640D01*
X363896Y107463D01*
X364718Y108535D01*
X365235Y109783D01*
X365411Y111122D01*
X365235Y112461D01*
X364718Y113709D01*
X364709Y113721D01*
X366804Y115815D01*
X367091Y116245D01*
X367192Y116753D01*
Y142520D01*
X398631Y142520D01*
X398985Y142166D01*
D02*
G37*
G36*
X227470Y140149D02*
Y130386D01*
X225394D01*
X224621Y130232D01*
X223965Y129794D01*
X223528Y129139D01*
X223374Y128366D01*
X223528Y127593D01*
X223965Y126938D01*
X224621Y126500D01*
X225394Y126346D01*
X228740D01*
X229238Y126445D01*
X229484Y125984D01*
X228861Y125362D01*
X228740Y125386D01*
X225394D01*
X224621Y125232D01*
X223965Y124794D01*
X223528Y124139D01*
X223374Y123366D01*
X223473Y122869D01*
X223012Y122622D01*
X221010Y124624D01*
Y137096D01*
X221343Y137318D01*
X221852Y138079D01*
X222030Y138976D01*
X221852Y139874D01*
X221761Y140010D01*
X221996Y140451D01*
X227268D01*
X227470Y140149D01*
D02*
G37*
G36*
X217487Y138240D02*
X217518Y138079D01*
X218027Y137318D01*
X218360Y137096D01*
Y124624D01*
X212373Y118637D01*
X211911Y118829D01*
Y133288D01*
X217008Y138385D01*
X217487Y138240D01*
D02*
G37*
G36*
X223398Y118487D02*
X223374Y118366D01*
X223528Y117593D01*
X223965Y116938D01*
X224621Y116500D01*
X225394Y116346D01*
X228740D01*
X229396Y116477D01*
X229896Y116200D01*
Y115532D01*
X229396Y115256D01*
X228740Y115386D01*
X225394D01*
X224621Y115232D01*
X224121Y114898D01*
X221310D01*
X220950Y115438D01*
X220189Y115946D01*
X219291Y116125D01*
X218394Y115946D01*
X217633Y115438D01*
X217125Y114677D01*
X216946Y113779D01*
X217024Y113387D01*
X206844Y103206D01*
X204125D01*
Y103760D01*
X213323Y112958D01*
X213610Y113388D01*
X213711Y113895D01*
Y116226D01*
X219685Y122200D01*
X223398Y118487D01*
D02*
G37*
G36*
X223965Y111938D02*
X224621Y111500D01*
X225394Y111346D01*
X227701D01*
X227893Y110884D01*
X227069Y110060D01*
X226781Y109630D01*
X226680Y109123D01*
Y105529D01*
X226781Y105022D01*
X227069Y104592D01*
X229896Y101765D01*
Y99269D01*
X227018Y96391D01*
X226279Y96538D01*
X225382Y96359D01*
X224621Y95851D01*
X224113Y95090D01*
X223935Y94193D01*
X224113Y93296D01*
X224621Y92535D01*
X225382Y92026D01*
X226279Y91848D01*
X227177Y92026D01*
X227938Y92535D01*
X228446Y93296D01*
X228625Y94193D01*
X228615Y94239D01*
X229434Y95058D01*
X229896Y94866D01*
Y86787D01*
X229396Y86511D01*
X228740Y86641D01*
X225394D01*
X225272Y86617D01*
X216945Y94945D01*
X216514Y95232D01*
X216007Y95333D01*
X204125D01*
Y95635D01*
X199025D01*
Y92381D01*
X204125D01*
Y92682D01*
X215458D01*
X223398Y84742D01*
X223374Y84621D01*
X223398Y84500D01*
X221975Y83077D01*
X221688Y82647D01*
X221587Y82140D01*
Y79641D01*
X221125Y79449D01*
X210630Y89945D01*
X210199Y90232D01*
X209692Y90333D01*
X204125D01*
Y90635D01*
X199025D01*
Y87381D01*
X204125D01*
Y87682D01*
X209143D01*
X222175Y74650D01*
X220536Y73011D01*
X219993Y73175D01*
X219883Y73732D01*
X219374Y74493D01*
X218614Y75001D01*
X217716Y75180D01*
X217324Y75102D01*
X212748Y79677D01*
X212318Y79965D01*
X211810Y80066D01*
X192825D01*
X192603Y80398D01*
X191842Y80907D01*
X190945Y81085D01*
X190048Y80907D01*
X189434Y80497D01*
X189011Y80816D01*
X189078Y81151D01*
Y85675D01*
X189578Y85942D01*
X190047Y85628D01*
X190945Y85450D01*
X191337Y85528D01*
X193795Y83070D01*
X194225Y82783D01*
X194732Y82682D01*
X199025D01*
Y82381D01*
X204125D01*
Y85634D01*
X199025D01*
Y85333D01*
X195281D01*
X193211Y87403D01*
X193290Y87795D01*
X193111Y88692D01*
X192603Y89453D01*
X191842Y89962D01*
X190945Y90140D01*
X190047Y89962D01*
X189578Y89648D01*
X189078Y89915D01*
Y95446D01*
X189540Y95549D01*
X189578Y95541D01*
X190074Y94798D01*
X190835Y94290D01*
X191732Y94112D01*
X192630Y94290D01*
X193391Y94798D01*
X193899Y95559D01*
X194077Y96457D01*
X193999Y96849D01*
X197705Y100555D01*
X199025D01*
Y97381D01*
X204125D01*
Y100555D01*
X207393D01*
X207900Y100656D01*
X208330Y100944D01*
X218899Y111512D01*
X219291Y111434D01*
X220189Y111613D01*
X220950Y112121D01*
X221034Y112247D01*
X223759D01*
X223965Y111938D01*
D02*
G37*
G36*
X178552Y109255D02*
X175534Y106237D01*
X170385D01*
X170162Y106570D01*
X169401Y107078D01*
X169180Y107122D01*
Y107632D01*
X169401Y107676D01*
X170162Y108184D01*
X170670Y108945D01*
X170849Y109843D01*
X170798Y110097D01*
X171257Y110555D01*
X178552D01*
Y109255D01*
D02*
G37*
G36*
X100775Y99500D02*
X98681Y97406D01*
X98220Y97652D01*
X98341Y98260D01*
X98163Y99157D01*
X97654Y99918D01*
X96894Y100426D01*
X95996Y100605D01*
X95099Y100426D01*
X94338Y99918D01*
X93960Y99353D01*
X91133D01*
Y99422D01*
X86033D01*
Y96169D01*
X91133D01*
Y96702D01*
X94271D01*
X94338Y96602D01*
X95099Y96093D01*
X95996Y95915D01*
X96604Y96036D01*
X96850Y95575D01*
X95396Y94121D01*
X91133D01*
Y94422D01*
X86033D01*
Y93458D01*
X85571Y93266D01*
X77978Y100859D01*
X77812Y100970D01*
X77964Y101470D01*
X86033D01*
Y101169D01*
X91133D01*
Y101470D01*
X98197D01*
X98704Y101571D01*
X99134Y101858D01*
X99613Y102337D01*
X100775D01*
Y99500D01*
D02*
G37*
G36*
X199025Y109853D02*
Y107381D01*
X203344D01*
X203535Y106919D01*
X202250Y105634D01*
X199025D01*
Y103206D01*
X197157D01*
X196649Y103105D01*
X196219Y102818D01*
X192125Y98724D01*
X191732Y98802D01*
X190835Y98623D01*
X190074Y98115D01*
X189578Y97372D01*
X189540Y97364D01*
X189078Y97467D01*
Y100559D01*
X198563Y110045D01*
X199025Y109853D01*
D02*
G37*
G36*
X85357Y89731D02*
X85787Y89444D01*
X86033Y89395D01*
Y86994D01*
X81709D01*
X70660Y98043D01*
Y98597D01*
X76492D01*
X85357Y89731D01*
D02*
G37*
G36*
X246077Y111500D02*
X246850Y111346D01*
X248292D01*
Y100688D01*
X247959Y100466D01*
X247451Y99705D01*
X247272Y98808D01*
X247451Y97910D01*
X247959Y97149D01*
X248292Y96927D01*
Y92460D01*
X248393Y91953D01*
X248680Y91523D01*
X251353Y88851D01*
Y86787D01*
X250852Y86511D01*
X250197Y86641D01*
X247915D01*
Y86776D01*
X247814Y87284D01*
X247527Y87714D01*
X243024Y92216D01*
Y94004D01*
X245094Y96074D01*
X245382Y96504D01*
X245483Y97011D01*
Y111367D01*
X245923Y111603D01*
X246077Y111500D01*
D02*
G37*
G36*
X117666Y83237D02*
X118322Y82799D01*
X119095Y82645D01*
X122441D01*
X122938Y82744D01*
X123185Y82284D01*
X122562Y81661D01*
X122441Y81685D01*
X119095D01*
X118322Y81532D01*
X117666Y81094D01*
X117228Y80438D01*
X117075Y79665D01*
X117228Y78892D01*
X117666Y78237D01*
X118322Y77799D01*
X119095Y77645D01*
X122441D01*
X122562Y77670D01*
X123185Y77047D01*
X122938Y76586D01*
X122441Y76685D01*
X119095D01*
X118322Y76531D01*
X117666Y76094D01*
X117597Y75991D01*
X116927D01*
X112021Y80897D01*
Y83734D01*
X117334D01*
X117666Y83237D01*
D02*
G37*
G36*
X262990Y87694D02*
Y80154D01*
X262549Y79918D01*
X262413Y80009D01*
X261516Y80188D01*
X260618Y80009D01*
X260264Y79773D01*
X259764Y80040D01*
Y88730D01*
X259663Y89238D01*
X259376Y89668D01*
X259075Y89969D01*
Y90902D01*
X259575Y91110D01*
X262990Y87694D01*
D02*
G37*
G36*
X100378Y82291D02*
X102559D01*
Y81291D01*
X100378D01*
Y79121D01*
X91133D01*
Y79422D01*
X89908D01*
Y81169D01*
X91133D01*
Y84343D01*
X100378D01*
Y82291D01*
D02*
G37*
G36*
X255313Y87436D02*
Y73103D01*
X252546Y70336D01*
X251996Y70494D01*
X251625Y71049D01*
X250970Y71487D01*
X250197Y71641D01*
X246850D01*
X246729Y71617D01*
X246361Y71985D01*
X246607Y72446D01*
X246850Y72397D01*
X248024D01*
Y74621D01*
X248524D01*
D01*
X248024D01*
Y76845D01*
X246850D01*
X246607Y76797D01*
X246361Y77258D01*
X246729Y77626D01*
X246850Y77601D01*
X250197D01*
X250970Y77755D01*
X251625Y78193D01*
X252063Y78848D01*
X252217Y79621D01*
X252063Y80394D01*
X251922Y80605D01*
X252020Y81095D01*
X252124Y81165D01*
X253615Y82656D01*
X253903Y83086D01*
X254004Y83594D01*
X254003Y83594D01*
Y88092D01*
X254465Y88283D01*
X255313Y87436D01*
D02*
G37*
G36*
X115159Y74010D02*
X114952Y73510D01*
X112021D01*
Y73733D01*
X109933D01*
X105143Y78523D01*
X105350Y79023D01*
X110146D01*
X115159Y74010D01*
D02*
G37*
G36*
X325629Y91580D02*
X325081Y91159D01*
X324258Y90087D01*
X323742Y88839D01*
X323565Y87500D01*
X323742Y86161D01*
X324258Y84913D01*
X325081Y83841D01*
X325883Y83225D01*
X325871Y82616D01*
X325745Y82532D01*
X318748Y75534D01*
X318460Y75104D01*
X318360Y74597D01*
Y73521D01*
X317860Y73369D01*
X317441Y73996D01*
X316680Y74504D01*
X315782Y74683D01*
X314885Y74504D01*
X314124Y73996D01*
X313616Y73235D01*
X313437Y72338D01*
X313515Y71945D01*
X312611Y71040D01*
X312251Y71074D01*
X312012Y71537D01*
X312010Y71549D01*
X312188Y72441D01*
X312109Y72833D01*
X317866Y78590D01*
X318154Y79020D01*
X318255Y79527D01*
Y88277D01*
X318587Y88499D01*
X319096Y89260D01*
X319274Y90158D01*
X319096Y91055D01*
X318745Y91580D01*
X319012Y92080D01*
X325460D01*
X325629Y91580D01*
D02*
G37*
G36*
X299695Y69963D02*
X299504Y69501D01*
X295657D01*
Y66636D01*
X295492Y66513D01*
X295363Y66520D01*
X294881Y66683D01*
X294538Y67196D01*
X293883Y67634D01*
X293110Y67788D01*
X292656D01*
Y71169D01*
X292631Y71297D01*
Y74384D01*
X295274D01*
X299695Y69963D01*
D02*
G37*
G36*
X246573Y67331D02*
X246738Y66789D01*
X242937Y62988D01*
X236894D01*
X236854Y62980D01*
X236814Y62984D01*
X236699Y62949D01*
X236581Y62926D01*
X236548Y62903D01*
X236509Y62892D01*
X236094Y63193D01*
X235910Y63469D01*
X235149Y63978D01*
X234252Y64156D01*
X233355Y63978D01*
X232594Y63469D01*
X232510Y63344D01*
X231917Y63357D01*
X231579Y63863D01*
X230818Y64371D01*
X229921Y64550D01*
X229023Y64371D01*
X228263Y63863D01*
X227754Y63102D01*
X227576Y62205D01*
X227601Y62079D01*
X227219Y61632D01*
X222389D01*
Y62265D01*
X222288Y62773D01*
X222000Y63203D01*
X221360Y63843D01*
Y64618D01*
X221801Y64853D01*
X221937Y64763D01*
X222834Y64584D01*
X223732Y64763D01*
X224492Y65271D01*
X224715Y65604D01*
X244158D01*
X244665Y65704D01*
X245095Y65992D01*
X246458Y67354D01*
X246573Y67331D01*
D02*
G37*
G36*
X188283Y79691D02*
X188676Y79123D01*
X188600Y78740D01*
X188778Y77843D01*
X189287Y77082D01*
X190048Y76574D01*
X190945Y76395D01*
X191842Y76574D01*
X192603Y77082D01*
X192825Y77415D01*
X211261D01*
X215449Y73227D01*
X215371Y72834D01*
X215549Y71937D01*
X216058Y71176D01*
X216819Y70668D01*
X217375Y70557D01*
X217540Y70015D01*
X217297Y69772D01*
X217010Y69342D01*
X216909Y68834D01*
Y63604D01*
X216409Y63247D01*
X215799Y63369D01*
X215540Y63317D01*
X206266Y72591D01*
X205836Y72878D01*
X205329Y72979D01*
X190091D01*
X189868Y73312D01*
X189108Y73820D01*
X188210Y73999D01*
X187313Y73820D01*
X186552Y73312D01*
X186044Y72551D01*
X185865Y71653D01*
X186044Y70756D01*
X186552Y69995D01*
X187313Y69487D01*
X188210Y69309D01*
X189108Y69487D01*
X189868Y69995D01*
X190091Y70328D01*
X204780D01*
X209472Y65636D01*
X209419Y65406D01*
X209252Y65149D01*
X192767D01*
X192260Y65048D01*
X191830Y64761D01*
X190993Y63924D01*
X176290D01*
X176068Y64257D01*
X175307Y64765D01*
X174409Y64943D01*
X174056Y64873D01*
X173810Y65334D01*
X188183Y79708D01*
X188283Y79691D01*
D02*
G37*
G36*
X249135Y67551D02*
X249314Y67104D01*
X243388Y61178D01*
X243101Y60748D01*
X243000Y60241D01*
Y52258D01*
X242500Y51990D01*
X242236Y52166D01*
X241339Y52345D01*
X241198Y52486D01*
X240978Y52783D01*
X240818Y53584D01*
X240310Y54345D01*
X239549Y54854D01*
X238748Y55013D01*
X238485Y55208D01*
X238291Y55470D01*
X238131Y56271D01*
X237623Y57032D01*
X236862Y57541D01*
X235965Y57719D01*
X235067Y57541D01*
X234306Y57032D01*
X233798Y56271D01*
X233619Y55374D01*
X233798Y54477D01*
X234256Y53790D01*
Y53092D01*
X232758Y51593D01*
X232296Y51785D01*
Y56410D01*
X229836D01*
X229644Y56872D01*
X230235Y57463D01*
X231229D01*
X231737Y57564D01*
X232167Y57851D01*
X233859Y59544D01*
X234252Y59466D01*
X235149Y59645D01*
X235910Y60153D01*
X236419Y60914D01*
X236597Y61811D01*
X236894Y62172D01*
X243275D01*
X248696Y67594D01*
X249135Y67551D01*
D02*
G37*
G36*
X301892Y68316D02*
X307537D01*
X307566Y67827D01*
X307566D01*
Y62093D01*
X301194D01*
Y64186D01*
X301194Y64186D01*
Y64358D01*
X301194D01*
X301194Y64686D01*
Y67988D01*
X301694Y68355D01*
X301892Y68316D01*
D02*
G37*
G36*
X262095Y79241D02*
X262096Y79240D01*
X262207Y79194D01*
X262313Y79138D01*
X262353Y79134D01*
X262390Y79118D01*
X262510Y79118D01*
X262629Y79107D01*
X262842Y78917D01*
X262990Y78694D01*
X262990Y78694D01*
Y71213D01*
X262510Y70733D01*
X261701Y70572D01*
X260940Y70064D01*
X260432Y69303D01*
X260253Y68405D01*
X260432Y67508D01*
X260589Y67273D01*
X260533Y67138D01*
X260321Y66774D01*
X259975Y66543D01*
X257605Y64173D01*
X257318Y63743D01*
X257217Y63235D01*
Y61632D01*
X255211D01*
Y65184D01*
X255149Y65496D01*
X254972Y65761D01*
X254861Y66234D01*
X254879Y66375D01*
X259376Y70871D01*
X259663Y71301D01*
X259764Y71809D01*
Y78566D01*
X259798Y78633D01*
X259967Y78820D01*
X260184Y78961D01*
X260303Y78973D01*
X260423D01*
X260461Y78988D01*
X260501Y78992D01*
X260606Y79049D01*
X260717Y79094D01*
X260937Y79241D01*
X261516Y79356D01*
X262095Y79241D01*
D02*
G37*
G36*
X307566Y57093D02*
X301194D01*
Y57690D01*
X295657D01*
Y57093D01*
X294607D01*
X294538Y57196D01*
X293883Y57634D01*
X293110Y57788D01*
X289764D01*
X289108Y57657D01*
X288608Y57934D01*
Y58602D01*
X289108Y58878D01*
X289764Y58748D01*
X293110D01*
X293883Y58902D01*
X294538Y59339D01*
X294607Y59442D01*
X295657D01*
Y59043D01*
X301194D01*
Y59442D01*
X307566D01*
Y57093D01*
D02*
G37*
G36*
X283134Y75871D02*
X282943Y75409D01*
X281972D01*
Y72941D01*
X284744D01*
Y72441D01*
X285244D01*
Y69472D01*
X287516D01*
Y69672D01*
X290005D01*
Y67788D01*
X289764D01*
X288991Y67634D01*
X288335Y67196D01*
X287898Y66541D01*
X287744Y65768D01*
X287898Y64995D01*
X288235Y64490D01*
X287837Y64224D01*
X286345Y62733D01*
X286058Y62303D01*
X285957Y61795D01*
Y54557D01*
X285495Y54365D01*
X278929Y60932D01*
Y77600D01*
X278828Y78107D01*
X278540Y78537D01*
X265820Y91258D01*
X266011Y91720D01*
X267286D01*
X283134Y75871D01*
D02*
G37*
G36*
X254396Y65184D02*
Y53758D01*
X247913Y47275D01*
X247451Y47466D01*
Y58946D01*
X253896Y65391D01*
X254396Y65184D01*
D02*
G37*
G36*
X172149Y62172D02*
X172243Y61701D01*
X172751Y60940D01*
X173512Y60432D01*
X174409Y60253D01*
X175307Y60432D01*
X176068Y60940D01*
X176290Y61273D01*
X191542D01*
X192050Y61374D01*
X192480Y61661D01*
X192991Y62172D01*
X194245D01*
X194583Y61672D01*
X194454Y61024D01*
X194633Y60126D01*
X195141Y59365D01*
X195902Y58857D01*
X195929Y58852D01*
X195957Y58709D01*
X196245Y58279D01*
X199987Y54536D01*
Y49495D01*
X211863D01*
Y46702D01*
X211364Y46550D01*
X211107Y46934D01*
X210346Y47442D01*
X209449Y47621D01*
X208551Y47442D01*
X207791Y46934D01*
X207434Y46400D01*
X206903Y46506D01*
X206891Y46567D01*
X206383Y47328D01*
X205622Y47836D01*
X204724Y48014D01*
X203827Y47836D01*
X203066Y47328D01*
X202558Y46567D01*
X202525Y46404D01*
X196961D01*
Y46469D01*
X190047D01*
Y46404D01*
X177495D01*
X168308Y55591D01*
X168453Y56069D01*
X168614Y56101D01*
X169375Y56609D01*
X169883Y57370D01*
X170062Y58268D01*
X169883Y59165D01*
X169375Y59926D01*
X168737Y60352D01*
X168706Y60471D01*
Y60789D01*
X168737Y60908D01*
X169375Y61334D01*
X169853Y62049D01*
X169976D01*
X170483Y62150D01*
X170516Y62172D01*
X172149D01*
D02*
G37*
G36*
X212060Y43989D02*
Y36132D01*
X211727Y35910D01*
X211219Y35149D01*
X211187Y34989D01*
X210708Y34844D01*
X205441Y40110D01*
X205012Y40398D01*
X204504Y40499D01*
X196961D01*
Y41785D01*
X200446D01*
X200656Y41645D01*
X201163Y41544D01*
X207043D01*
X207550Y41645D01*
X207980Y41932D01*
X209056Y43009D01*
X209449Y42930D01*
X210346Y43109D01*
X211107Y43617D01*
X211471Y44163D01*
X211593Y44183D01*
X212060Y43989D01*
D02*
G37*
G36*
X155432Y62172D02*
X175431Y42173D01*
X175861Y41886D01*
X176369Y41785D01*
X190047D01*
Y40499D01*
X180328D01*
Y41056D01*
X174791D01*
Y38538D01*
X168517D01*
Y43516D01*
X163767D01*
Y42608D01*
X155721D01*
Y44248D01*
X149003D01*
Y38317D01*
X155721D01*
Y39957D01*
X163767D01*
Y38373D01*
X164926D01*
X165133Y37873D01*
X162902Y35642D01*
X160027D01*
Y30499D01*
X164776D01*
Y33768D01*
X166807Y35799D01*
X167307Y35674D01*
X167307Y35387D01*
Y33571D01*
X169882D01*
X172457D01*
X172457Y35842D01*
X172938Y35887D01*
X174591D01*
Y33669D01*
X177559D01*
X180528D01*
Y35941D01*
X180328D01*
Y37848D01*
X190047D01*
Y32890D01*
X189847D01*
Y31799D01*
X193504D01*
X197161D01*
Y32890D01*
X196961D01*
Y37848D01*
X203955D01*
X210685Y31118D01*
X210493Y30656D01*
X197161D01*
Y30799D01*
X193504D01*
X189847D01*
Y30578D01*
X189619D01*
X189112Y30477D01*
X188902Y30337D01*
X188402Y30602D01*
Y32079D01*
X182465D01*
Y29807D01*
X182665D01*
Y27318D01*
X181012D01*
X180505Y27217D01*
X180075Y26929D01*
X178059Y24914D01*
X174397D01*
Y24396D01*
X171371D01*
Y25839D01*
X166556D01*
X166228Y25839D01*
X165727Y25839D01*
X162341D01*
X162213Y25865D01*
X160993D01*
X155721Y31137D01*
Y35193D01*
X149003D01*
Y29262D01*
X153847D01*
X159507Y23602D01*
X159937Y23315D01*
X160444Y23214D01*
X160913D01*
Y20302D01*
X165727D01*
X166056Y20302D01*
X166556Y20302D01*
X171371D01*
Y21745D01*
X174397D01*
Y19799D01*
X174197D01*
Y17528D01*
X177165D01*
X180134D01*
Y19799D01*
X179934D01*
Y23040D01*
X181561Y24667D01*
X184108D01*
Y22353D01*
X183775Y22131D01*
X183266Y21370D01*
X183088Y20472D01*
X183266Y19575D01*
X183775Y18814D01*
X184536Y18306D01*
X185433Y18127D01*
X186330Y18306D01*
X187091Y18814D01*
X187600Y19575D01*
X187778Y20472D01*
X187600Y21370D01*
X187091Y22131D01*
X186758Y22353D01*
Y24692D01*
X188202D01*
Y27210D01*
X188902D01*
X189409Y27311D01*
X189547Y27403D01*
X190047Y27136D01*
Y22035D01*
Y18098D01*
Y14161D01*
X189637Y13941D01*
X180503D01*
X180134Y14256D01*
Y16528D01*
X177165D01*
X174197D01*
Y14256D01*
X173827Y13941D01*
X159383D01*
X159273Y14441D01*
X159926Y14877D01*
X160434Y15638D01*
X160613Y16535D01*
X160434Y17433D01*
X159926Y18194D01*
X159165Y18702D01*
X158268Y18880D01*
X157875Y18802D01*
X156080Y20598D01*
X155650Y20885D01*
X155142Y20986D01*
X154674D01*
X154438Y21427D01*
X154529Y21563D01*
X154707Y22461D01*
X154529Y23358D01*
X154020Y24119D01*
X153260Y24627D01*
X152362Y24806D01*
X151970Y24728D01*
X150406Y26292D01*
X149976Y26579D01*
X149469Y26680D01*
X145091D01*
Y27650D01*
X136751D01*
Y29831D01*
X136725Y29959D01*
Y33871D01*
X131582D01*
Y33871D01*
X131410D01*
Y33871D01*
X126267D01*
Y31936D01*
X125503D01*
X125280Y32269D01*
X124520Y32777D01*
X123622Y32955D01*
X122725Y32777D01*
X121964Y32269D01*
X121456Y31508D01*
X121277Y30610D01*
X121456Y29713D01*
X121964Y28952D01*
X122725Y28444D01*
X123622Y28265D01*
X124520Y28444D01*
X125280Y28952D01*
X125503Y29285D01*
X126242D01*
Y27650D01*
X118688D01*
Y26680D01*
X115072D01*
Y28359D01*
X112554D01*
Y37291D01*
X113005D01*
X113005Y42434D01*
X113444Y42580D01*
X118295D01*
Y40145D01*
X125013D01*
Y46076D01*
X118295D01*
Y45231D01*
X113005D01*
Y47749D01*
X107468D01*
Y42934D01*
X107468Y42606D01*
X107468Y42105D01*
Y37291D01*
X109903D01*
Y28559D01*
X107685D01*
Y25591D01*
Y22622D01*
X109957D01*
Y22822D01*
X112446D01*
Y17845D01*
X111798D01*
Y13030D01*
X111798Y12701D01*
X111798Y12201D01*
Y7387D01*
X113242D01*
Y6466D01*
X112909Y6244D01*
X112400Y5483D01*
X112222Y4586D01*
X112400Y3688D01*
X112909Y2928D01*
X113670Y2419D01*
X114567Y2241D01*
X115464Y2419D01*
X116225Y2928D01*
X116734Y3688D01*
X116912Y4586D01*
X116734Y5483D01*
X116225Y6244D01*
X115892Y6466D01*
Y7387D01*
X117335D01*
Y12201D01*
X117335Y12530D01*
X117335Y13030D01*
Y17845D01*
X115097D01*
Y24029D01*
X118688D01*
Y23268D01*
X118488Y22850D01*
X118488D01*
X118488Y22850D01*
Y20854D01*
X124213D01*
Y19854D01*
X118488D01*
Y18350D01*
X118488Y17858D01*
X118488Y17358D01*
Y15854D01*
X124213D01*
X129937D01*
Y17358D01*
X129937Y17850D01*
X129937Y18350D01*
Y20298D01*
X130385Y20519D01*
X130494Y20436D01*
X131167Y20157D01*
X131890Y20062D01*
X132613Y20157D01*
X133286Y20436D01*
X133543Y20633D01*
X134043Y20386D01*
Y18150D01*
X134043Y18058D01*
Y17650D01*
X134043Y17558D01*
Y13150D01*
X134043Y13058D01*
X134043D01*
Y12650D01*
X134043D01*
Y10322D01*
X133543Y10076D01*
X133286Y10273D01*
X132613Y10552D01*
X131890Y10647D01*
X131167Y10552D01*
X130494Y10273D01*
X130237Y10076D01*
X129737Y10322D01*
X129737Y12441D01*
X129937Y12858D01*
X129937Y13068D01*
Y14854D01*
X124213D01*
X118488D01*
X118488Y12858D01*
X118688Y12441D01*
X118688Y12358D01*
Y8058D01*
X118688D01*
Y7650D01*
X118688D01*
Y3058D01*
X129737D01*
Y5386D01*
X130237Y5633D01*
X130494Y5436D01*
X131167Y5157D01*
X131890Y5062D01*
X132613Y5157D01*
X133286Y5436D01*
X133543Y5633D01*
X134043Y5386D01*
Y3058D01*
X145091D01*
Y4029D01*
X148119D01*
X148342Y3696D01*
X149103Y3188D01*
X150000Y3009D01*
X150392Y3087D01*
X151999Y1481D01*
X151807Y1019D01*
X95304Y1019D01*
Y47244D01*
X104232D01*
X119161Y62173D01*
X155432Y62172D01*
D02*
G37*
G36*
X235322Y43017D02*
Y41720D01*
Y36907D01*
X234822Y36755D01*
X234729Y36894D01*
X233968Y37403D01*
X233071Y37581D01*
X232173Y37403D01*
X231413Y36894D01*
X230904Y36134D01*
X230726Y35236D01*
X230904Y34339D01*
X231413Y33578D01*
X231928Y33234D01*
X231942Y33188D01*
X231893Y32655D01*
X231314Y32269D01*
X230806Y31508D01*
X230627Y30610D01*
X230806Y29713D01*
X231314Y28952D01*
X232075Y28444D01*
X232972Y28265D01*
X233870Y28444D01*
X234631Y28952D01*
X234822Y29239D01*
X235322Y29087D01*
Y28558D01*
X235076Y28509D01*
X234646Y28221D01*
X231346Y24921D01*
X231059Y24491D01*
X230958Y23984D01*
Y18286D01*
X230371D01*
X218993Y29664D01*
X219184Y30126D01*
X221605D01*
X222112Y30227D01*
X222543Y30515D01*
X234503Y42475D01*
X234790Y42905D01*
X234822Y43066D01*
X235322Y43017D01*
D02*
G37*
G36*
X215937Y40132D02*
X216367Y39845D01*
X216874Y39744D01*
X227034D01*
X227385Y39814D01*
X227632Y39353D01*
X221056Y32777D01*
X215697D01*
X215461Y33218D01*
X215552Y33354D01*
X215731Y34252D01*
X215552Y35149D01*
X215044Y35910D01*
X214711Y36132D01*
Y40705D01*
X215173Y40896D01*
X215937Y40132D01*
D02*
G37*
G36*
X156001Y16928D02*
X155923Y16535D01*
X156101Y15638D01*
X156609Y14877D01*
X157262Y14441D01*
X157153Y13941D01*
X146083D01*
X145091Y14933D01*
Y17558D01*
X145091Y17650D01*
Y18058D01*
X145515Y18335D01*
X154594D01*
X156001Y16928D01*
D02*
G37*
G36*
X255671Y19402D02*
X253137D01*
Y14259D01*
X253137D01*
Y14087D01*
X253137D01*
Y12735D01*
X250308D01*
Y14678D01*
X245608D01*
X245480Y14703D01*
X242237D01*
Y18098D01*
Y22100D01*
X248675D01*
X249183Y22201D01*
X249613Y22488D01*
X254165Y27040D01*
X254452Y27470D01*
X254506Y27743D01*
X255671D01*
Y19402D01*
D02*
G37*
G36*
X225696Y19212D02*
X225551Y18734D01*
X225390Y18702D01*
X224629Y18194D01*
X224121Y17433D01*
X223942Y16535D01*
X224121Y15638D01*
X224629Y14877D01*
X225390Y14369D01*
X225643Y14319D01*
Y11135D01*
X220290D01*
X220241Y11380D01*
X219954Y11810D01*
X218211Y13553D01*
X217781Y13840D01*
X217274Y13941D01*
X197371D01*
X196961Y14161D01*
Y16129D01*
Y20066D01*
Y24003D01*
Y28005D01*
X216903D01*
X225696Y19212D01*
D02*
G37*
G36*
X199987Y11135D02*
Y5045D01*
X187344D01*
X181561Y10828D01*
X181753Y11290D01*
X199552D01*
X199987Y11135D01*
D02*
G37*
G36*
X184933Y3707D02*
X184742Y3245D01*
X153984D01*
X152267Y4962D01*
X152345Y5354D01*
X152167Y6252D01*
X151658Y7012D01*
X150897Y7521D01*
X150000Y7699D01*
X149103Y7521D01*
X148342Y7012D01*
X148119Y6680D01*
X145091D01*
Y7650D01*
X145091D01*
Y8058D01*
X145091D01*
Y9029D01*
X179612D01*
X184933Y3707D01*
D02*
G37*
%LPC*%
G36*
X252362Y147227D02*
X251465Y147048D01*
X250704Y146540D01*
X250196Y145779D01*
X250017Y144882D01*
X250196Y143984D01*
X250704Y143224D01*
X251465Y142715D01*
X252362Y142537D01*
X252911Y142646D01*
X255163Y140394D01*
X255116Y140157D01*
X255294Y139260D01*
X255802Y138499D01*
X256563Y137991D01*
X257461Y137812D01*
X258358Y137991D01*
X259119Y138499D01*
X259627Y139260D01*
X259806Y140157D01*
X259627Y141055D01*
X259119Y141816D01*
X258358Y142324D01*
X257461Y142502D01*
X256912Y142393D01*
X254660Y144645D01*
X254707Y144882D01*
X254529Y145779D01*
X254020Y146540D01*
X253260Y147048D01*
X252362Y147227D01*
D02*
G37*
G36*
X124816Y164678D02*
X119279D01*
Y163432D01*
X117629D01*
X117406Y163765D01*
X116646Y164273D01*
X115748Y164451D01*
X114851Y164273D01*
X114090Y163765D01*
X113582Y163004D01*
X113403Y162106D01*
X113582Y161209D01*
X114090Y160448D01*
X114423Y160226D01*
Y144587D01*
X114523Y144079D01*
X114811Y143649D01*
X119279Y139181D01*
Y136241D01*
X119279Y135913D01*
X119279Y135413D01*
Y130598D01*
X124816D01*
Y131844D01*
X129121D01*
Y130035D01*
X128921D01*
Y127764D01*
X134858D01*
Y130035D01*
X134658D01*
Y131253D01*
X138964D01*
Y130035D01*
X138764D01*
Y127764D01*
X141732D01*
X144701D01*
Y130035D01*
X144501D01*
Y131253D01*
X146053D01*
X146275Y130921D01*
X147036Y130412D01*
X147933Y130234D01*
X148830Y130412D01*
X149591Y130921D01*
X150100Y131681D01*
X150278Y132579D01*
X150100Y133476D01*
X149591Y134237D01*
X148830Y134745D01*
X147933Y134924D01*
X147036Y134745D01*
X146275Y134237D01*
X146053Y133904D01*
X144501D01*
Y135150D01*
X138964D01*
Y133904D01*
X134658D01*
Y135150D01*
X129121D01*
Y134495D01*
X125169D01*
X124816Y134848D01*
X124816Y135741D01*
X124816Y136241D01*
Y141056D01*
X121153D01*
X117074Y145136D01*
Y160226D01*
X117406Y160448D01*
X117629Y160781D01*
X118925D01*
X119279Y160427D01*
X119279Y159535D01*
X119279Y159035D01*
Y154220D01*
X124816D01*
Y155466D01*
X129121D01*
Y153657D01*
X128921D01*
Y151386D01*
X134858D01*
Y153657D01*
X134658D01*
Y154875D01*
X138964D01*
Y153657D01*
X138764D01*
Y151386D01*
X141732D01*
Y150886D01*
X142232D01*
Y148114D01*
X144701D01*
Y150968D01*
X145163Y151160D01*
X146608Y149715D01*
Y147156D01*
X146275Y146934D01*
X145766Y146173D01*
X145588Y145276D01*
X145766Y144378D01*
X146275Y143617D01*
X147036Y143109D01*
X147933Y142930D01*
X148830Y143109D01*
X149591Y143617D01*
X150100Y144378D01*
X150278Y145276D01*
X150100Y146173D01*
X149591Y146934D01*
X149258Y147156D01*
Y150264D01*
X149158Y150771D01*
X148870Y151201D01*
X145176Y154895D01*
X144975Y155029D01*
X144501Y155504D01*
Y158772D01*
X138964D01*
Y157526D01*
X134658D01*
Y158772D01*
X129121D01*
Y158117D01*
X125169D01*
X124816Y158470D01*
X124816Y159363D01*
X124816Y159863D01*
Y164678D01*
D02*
G37*
G36*
X141232Y150386D02*
X138764D01*
Y148114D01*
X141232D01*
Y150386D01*
D02*
G37*
G36*
X134858Y150386D02*
X132390D01*
Y148114D01*
X134858D01*
Y150386D01*
D02*
G37*
G36*
X131390D02*
X128921D01*
Y148114D01*
X131390D01*
Y150386D01*
D02*
G37*
G36*
X385827Y158808D02*
X384397Y158667D01*
X383021Y158250D01*
X381754Y157572D01*
X380643Y156660D01*
X379731Y155550D01*
X379053Y154282D01*
X378636Y152907D01*
X378495Y151476D01*
X378636Y150046D01*
X379053Y148671D01*
X379731Y147403D01*
X380643Y146292D01*
X381754Y145381D01*
X383021Y144703D01*
X384397Y144286D01*
X385827Y144145D01*
X387257Y144286D01*
X388632Y144703D01*
X389900Y145381D01*
X391011Y146292D01*
X391923Y147403D01*
X392600Y148671D01*
X393017Y150046D01*
X393158Y151476D01*
X393017Y152907D01*
X392600Y154282D01*
X391923Y155550D01*
X391011Y156660D01*
X389900Y157572D01*
X388632Y158250D01*
X387257Y158667D01*
X385827Y158808D01*
D02*
G37*
G36*
X162992Y139353D02*
X162095Y139174D01*
X161334Y138666D01*
X160826Y137905D01*
X160647Y137008D01*
X160725Y136615D01*
X144333Y120223D01*
X82589D01*
X82367Y120556D01*
X81606Y121064D01*
X80709Y121243D01*
X79811Y121064D01*
X79050Y120556D01*
X78542Y119795D01*
X78364Y118898D01*
X78542Y118000D01*
X79050Y117239D01*
X79811Y116731D01*
X80709Y116553D01*
X81606Y116731D01*
X82367Y117239D01*
X82589Y117572D01*
X144882D01*
X145389Y117673D01*
X145819Y117960D01*
X162600Y134741D01*
X162992Y134663D01*
X163890Y134841D01*
X164650Y135350D01*
X165159Y136110D01*
X165337Y137008D01*
X165159Y137905D01*
X164650Y138666D01*
X163890Y139174D01*
X162992Y139353D01*
D02*
G37*
G36*
X144701Y126764D02*
X142232D01*
Y124492D01*
X144701D01*
Y126764D01*
D02*
G37*
G36*
X141232D02*
X138764D01*
Y124492D01*
X141232D01*
Y126764D01*
D02*
G37*
G36*
X134858D02*
X132390D01*
Y124492D01*
X134858D01*
Y126764D01*
D02*
G37*
G36*
X131390D02*
X128921D01*
Y124492D01*
X131390D01*
Y126764D01*
D02*
G37*
G36*
X134946Y116031D02*
X134048Y115853D01*
X133288Y115344D01*
X132779Y114583D01*
X132601Y113686D01*
X132779Y112789D01*
X133288Y112028D01*
X134048Y111520D01*
X134946Y111341D01*
X135843Y111520D01*
X136604Y112028D01*
X136864Y112417D01*
X138698D01*
X138729Y112371D01*
X139384Y111933D01*
X140157Y111779D01*
X143504D01*
X144277Y111933D01*
X144932Y112371D01*
X145370Y113026D01*
X145524Y113799D01*
X145370Y114572D01*
X144932Y115227D01*
X144277Y115665D01*
X143504Y115819D01*
X140157D01*
X139384Y115665D01*
X138729Y115227D01*
X138623Y115068D01*
X136789D01*
X136604Y115344D01*
X135843Y115853D01*
X134946Y116031D01*
D02*
G37*
G36*
X102256Y114189D02*
X100575D01*
Y111721D01*
X102256D01*
Y114189D01*
D02*
G37*
G36*
Y110721D02*
X100575D01*
Y108252D01*
X102256D01*
Y110721D01*
D02*
G37*
G36*
X143504Y106023D02*
X142331D01*
Y104299D01*
X145628D01*
X145559Y104650D01*
X145076Y105372D01*
X144355Y105854D01*
X143504Y106023D01*
D02*
G37*
G36*
X141331D02*
X140157D01*
X139306Y105854D01*
X138585Y105372D01*
X138103Y104650D01*
X138033Y104299D01*
X141331D01*
Y106023D01*
D02*
G37*
G36*
X145628Y103299D02*
X142331D01*
Y101575D01*
X143504D01*
X144355Y101745D01*
X145076Y102227D01*
X145559Y102948D01*
X145628Y103299D01*
D02*
G37*
G36*
X141331D02*
X138033D01*
X138103Y102948D01*
X138585Y102227D01*
X139306Y101745D01*
X140157Y101575D01*
X141331D01*
Y103299D01*
D02*
G37*
G36*
X143504Y110819D02*
X140157D01*
X139384Y110665D01*
X138729Y110228D01*
X138291Y109572D01*
X138138Y108799D01*
X138291Y108026D01*
X138729Y107371D01*
X139384Y106933D01*
X140157Y106779D01*
X143504D01*
X144277Y106933D01*
X144932Y107371D01*
X145001Y107474D01*
X146922D01*
X155578Y98818D01*
X155499Y98425D01*
X155678Y97528D01*
X156186Y96767D01*
X156947Y96259D01*
X157844Y96080D01*
X158742Y96259D01*
X159503Y96767D01*
X160011Y97528D01*
X160190Y98425D01*
X160011Y99323D01*
X159503Y100083D01*
X158742Y100592D01*
X157844Y100770D01*
X157452Y100692D01*
X148408Y109737D01*
X147978Y110024D01*
X147470Y110125D01*
X145001D01*
X144932Y110228D01*
X144277Y110665D01*
X143504Y110819D01*
D02*
G37*
G36*
X70660Y84422D02*
X65560D01*
Y81169D01*
X70660D01*
Y81470D01*
X72935D01*
X73030Y80992D01*
X73539Y80232D01*
X74299Y79723D01*
X75197Y79545D01*
X76094Y79723D01*
X76855Y80232D01*
X77363Y80992D01*
X77542Y81890D01*
X77363Y82787D01*
X76855Y83548D01*
X76094Y84056D01*
X75197Y84235D01*
X74299Y84056D01*
X74248Y84022D01*
X73750Y84121D01*
X70660D01*
Y84422D01*
D02*
G37*
G36*
X141724Y76889D02*
X140551D01*
X139700Y76720D01*
X138979Y76238D01*
X138497Y75516D01*
X138427Y75165D01*
X141724D01*
Y76889D01*
D02*
G37*
G36*
X67610Y74622D02*
X65360D01*
Y73295D01*
X67610D01*
Y74622D01*
D02*
G37*
G36*
X141724Y74165D02*
X138427D01*
X138497Y73814D01*
X138979Y73093D01*
X139700Y72611D01*
X140551Y72442D01*
X141724D01*
Y74165D01*
D02*
G37*
G36*
X104540Y73733D02*
X100578D01*
Y72290D01*
X97877D01*
X97654Y72623D01*
X96894Y73131D01*
X95996Y73310D01*
X95099Y73131D01*
X94338Y72623D01*
X93830Y71862D01*
X93651Y70965D01*
X93830Y70067D01*
X94338Y69306D01*
X95099Y68798D01*
X95996Y68620D01*
X96894Y68798D01*
X97654Y69306D01*
X97877Y69639D01*
X100578D01*
Y68196D01*
X104540D01*
Y73733D01*
D02*
G37*
G36*
X70860Y72295D02*
X68610D01*
Y70969D01*
X70860D01*
Y72295D01*
D02*
G37*
G36*
X67610D02*
X65360D01*
Y70969D01*
X67610D01*
Y72295D01*
D02*
G37*
G36*
X250197Y120590D02*
X249024D01*
Y118866D01*
X252321D01*
X252251Y119217D01*
X251769Y119939D01*
X251048Y120421D01*
X250197Y120590D01*
D02*
G37*
G36*
X252321Y117866D02*
X249024D01*
Y116142D01*
X250197D01*
X251048Y116312D01*
X251769Y116794D01*
X252251Y117515D01*
X252321Y117866D01*
D02*
G37*
G36*
X234638Y107299D02*
X232366D01*
Y104831D01*
X234638D01*
Y107299D01*
D02*
G37*
G36*
X314386Y127083D02*
X311917D01*
Y124811D01*
X314386D01*
Y127083D01*
D02*
G37*
G36*
X310917D02*
X308449D01*
Y124811D01*
X310917D01*
Y127083D01*
D02*
G37*
G36*
X289161Y137808D02*
X288661Y137808D01*
X283846D01*
Y133896D01*
X283820Y133768D01*
Y124816D01*
X281680D01*
Y120066D01*
X286824D01*
Y124816D01*
X286471D01*
Y132271D01*
X288661D01*
X288989Y132271D01*
X289489Y132271D01*
X292429D01*
X292678Y132022D01*
Y127256D01*
X292704Y127128D01*
Y123806D01*
X297847D01*
Y128556D01*
X295329D01*
Y132571D01*
X295229Y133078D01*
X294941Y133508D01*
X294304Y134145D01*
Y137808D01*
X289489D01*
X289161Y137808D01*
D02*
G37*
G36*
X279150Y121276D02*
X276878D01*
Y119201D01*
X279150D01*
Y121276D01*
D02*
G37*
G36*
X328740Y128108D02*
X327401Y127932D01*
X326153Y127415D01*
X325081Y126592D01*
X324258Y125521D01*
X323742Y124273D01*
X323565Y122933D01*
X323742Y121594D01*
X324258Y120346D01*
X325081Y119274D01*
X326153Y118451D01*
X327401Y117934D01*
X328740Y117758D01*
X330080Y117934D01*
X331328Y118451D01*
X332399Y119274D01*
X333222Y120346D01*
X333739Y121594D01*
X333915Y122933D01*
X333739Y124273D01*
X333222Y125521D01*
X332399Y126592D01*
X331328Y127415D01*
X330080Y127932D01*
X328740Y128108D01*
D02*
G37*
G36*
X279150Y118201D02*
X276878D01*
Y116126D01*
X279150D01*
Y118201D01*
D02*
G37*
G36*
X350394Y122203D02*
X349054Y122026D01*
X347806Y121509D01*
X346734Y120687D01*
X345912Y119615D01*
X345395Y118367D01*
X345219Y117028D01*
X345395Y115688D01*
X345912Y114440D01*
X346734Y113368D01*
X347806Y112546D01*
X349054Y112029D01*
X350394Y111853D01*
X351733Y112029D01*
X352981Y112546D01*
X354053Y113368D01*
X354875Y114440D01*
X355392Y115688D01*
X355569Y117028D01*
X355392Y118367D01*
X354875Y119615D01*
X354053Y120687D01*
X352981Y121509D01*
X351733Y122026D01*
X350394Y122203D01*
D02*
G37*
G36*
X338583D02*
X337243Y122026D01*
X335995Y121509D01*
X334923Y120687D01*
X334101Y119615D01*
X333584Y118367D01*
X333408Y117028D01*
X333584Y115688D01*
X334101Y114440D01*
X334923Y113368D01*
X335995Y112546D01*
X337243Y112029D01*
X338583Y111853D01*
X339922Y112029D01*
X341170Y112546D01*
X342242Y113368D01*
X343064Y114440D01*
X343581Y115688D01*
X343758Y117028D01*
X343581Y118367D01*
X343064Y119615D01*
X342242Y120687D01*
X341170Y121509D01*
X339922Y122026D01*
X338583Y122203D01*
D02*
G37*
G36*
X278950Y128556D02*
X273806D01*
Y125681D01*
X272369Y124244D01*
X272082Y123813D01*
X271981Y123306D01*
Y112914D01*
X272082Y112407D01*
X272369Y111977D01*
X273324Y111022D01*
X273246Y110630D01*
X273424Y109732D01*
X273932Y108972D01*
X274693Y108463D01*
X275590Y108285D01*
X276488Y108463D01*
X277249Y108972D01*
X277757Y109732D01*
X277936Y110630D01*
X277757Y111527D01*
X277249Y112288D01*
X276488Y112796D01*
X275590Y112975D01*
X275198Y112897D01*
X274632Y113463D01*
Y116126D01*
X275878D01*
Y118701D01*
Y121276D01*
X274632D01*
Y122757D01*
X275681Y123806D01*
X278950D01*
Y128556D01*
D02*
G37*
G36*
X350894Y110527D02*
Y105717D01*
X355705D01*
X355587Y106608D01*
X355050Y107905D01*
X354196Y109018D01*
X353082Y109873D01*
X351785Y110410D01*
X350894Y110527D01*
D02*
G37*
G36*
X349894Y110527D02*
X349002Y110410D01*
X347705Y109873D01*
X346592Y109018D01*
X345737Y107905D01*
X345200Y106608D01*
X345083Y105717D01*
X349894D01*
Y110527D01*
D02*
G37*
G36*
Y104717D02*
X345083D01*
X345200Y103825D01*
X345737Y102528D01*
X346592Y101415D01*
X347705Y100560D01*
X349002Y100023D01*
X349894Y99906D01*
Y104717D01*
D02*
G37*
G36*
X355705D02*
X350894D01*
Y99906D01*
X351785Y100023D01*
X353082Y100560D01*
X354196Y101415D01*
X355050Y102528D01*
X355587Y103825D01*
X355705Y104717D01*
D02*
G37*
G36*
X360236Y104486D02*
X358897Y104310D01*
X357649Y103793D01*
X356577Y102970D01*
X355755Y101899D01*
X355238Y100650D01*
X355061Y99311D01*
X355238Y97972D01*
X355755Y96724D01*
X356577Y95652D01*
X357649Y94829D01*
X358897Y94312D01*
X360236Y94136D01*
X361576Y94312D01*
X362824Y94829D01*
X363896Y95652D01*
X364718Y96724D01*
X365235Y97972D01*
X365411Y99311D01*
X365235Y100650D01*
X364718Y101899D01*
X363896Y102970D01*
X362824Y103793D01*
X361576Y104310D01*
X360236Y104486D01*
D02*
G37*
G36*
X350894Y98716D02*
Y93906D01*
X355705D01*
X355587Y94797D01*
X355050Y96094D01*
X354196Y97207D01*
X353082Y98062D01*
X351785Y98599D01*
X350894Y98716D01*
D02*
G37*
G36*
X349894D02*
X349002Y98599D01*
X347705Y98062D01*
X346592Y97207D01*
X345737Y96094D01*
X345200Y94797D01*
X345083Y93906D01*
X349894D01*
Y98716D01*
D02*
G37*
G36*
X279150Y95685D02*
X276878D01*
Y93610D01*
X279150D01*
Y95685D01*
D02*
G37*
G36*
X275878D02*
X273606D01*
Y93610D01*
X275878D01*
Y95685D01*
D02*
G37*
G36*
X279150Y92610D02*
X276878D01*
Y90535D01*
X279150D01*
Y92610D01*
D02*
G37*
G36*
X275878D02*
X273606D01*
Y90535D01*
X275878D01*
Y92610D01*
D02*
G37*
G36*
X355705Y92905D02*
X350894D01*
Y88095D01*
X351785Y88212D01*
X353082Y88749D01*
X354196Y89604D01*
X355050Y90717D01*
X355587Y92014D01*
X355705Y92905D01*
D02*
G37*
G36*
X349894D02*
X345083D01*
X345200Y92014D01*
X345737Y90717D01*
X346592Y89604D01*
X347705Y88749D01*
X349002Y88212D01*
X349894Y88095D01*
Y92905D01*
D02*
G37*
G36*
X314287Y85425D02*
X311819D01*
Y83153D01*
X314287D01*
Y85425D01*
D02*
G37*
G36*
X310819D02*
X308350D01*
Y83153D01*
X310819D01*
Y85425D01*
D02*
G37*
G36*
X360236Y92675D02*
X358897Y92499D01*
X357649Y91982D01*
X356577Y91159D01*
X355755Y90087D01*
X355238Y88839D01*
X355061Y87500D01*
X355238Y86161D01*
X355755Y84913D01*
X356577Y83841D01*
X357649Y83018D01*
X358897Y82501D01*
X360236Y82325D01*
X361576Y82501D01*
X362824Y83018D01*
X363896Y83841D01*
X364718Y84913D01*
X365235Y86161D01*
X365411Y87500D01*
X365235Y88839D01*
X364718Y90087D01*
X363896Y91159D01*
X362824Y91982D01*
X361576Y92499D01*
X360236Y92675D01*
D02*
G37*
G36*
X350894Y86905D02*
Y82095D01*
X355705D01*
X355587Y82986D01*
X355050Y84283D01*
X354196Y85396D01*
X353082Y86251D01*
X351785Y86788D01*
X350894Y86905D01*
D02*
G37*
G36*
X349894Y86905D02*
X349002Y86788D01*
X347705Y86251D01*
X346592Y85396D01*
X345737Y84283D01*
X345200Y82986D01*
X345083Y82095D01*
X349894D01*
Y86905D01*
D02*
G37*
G36*
Y81094D02*
X345083D01*
X345200Y80203D01*
X345737Y78906D01*
X346592Y77793D01*
X347705Y76938D01*
X349002Y76401D01*
X349894Y76284D01*
Y81094D01*
D02*
G37*
G36*
X355705D02*
X350894D01*
Y76284D01*
X351785Y76401D01*
X353082Y76938D01*
X354196Y77793D01*
X355050Y78906D01*
X355587Y80203D01*
X355705Y81094D01*
D02*
G37*
G36*
X360236Y80864D02*
X358897Y80688D01*
X357649Y80171D01*
X356577Y79348D01*
X355755Y78276D01*
X355238Y77028D01*
X355061Y75689D01*
X355238Y74350D01*
X355755Y73102D01*
X356577Y72030D01*
X357649Y71207D01*
X358897Y70690D01*
X360236Y70514D01*
X361576Y70690D01*
X362824Y71207D01*
X363896Y72030D01*
X364718Y73102D01*
X365235Y74350D01*
X365411Y75689D01*
X365235Y77028D01*
X364718Y78276D01*
X363896Y79348D01*
X362824Y80171D01*
X361576Y80688D01*
X360236Y80864D01*
D02*
G37*
G36*
X350894Y75094D02*
Y70284D01*
X355705D01*
X355587Y71175D01*
X355050Y72472D01*
X354196Y73585D01*
X353082Y74440D01*
X351785Y74977D01*
X350894Y75094D01*
D02*
G37*
G36*
X349894D02*
X349002Y74977D01*
X347705Y74440D01*
X346592Y73585D01*
X345737Y72472D01*
X345200Y71175D01*
X345083Y70284D01*
X349894D01*
Y75094D01*
D02*
G37*
G36*
X339083D02*
Y70284D01*
X343894D01*
X343776Y71175D01*
X343239Y72472D01*
X342385Y73585D01*
X341271Y74440D01*
X339974Y74977D01*
X339083Y75094D01*
D02*
G37*
G36*
X338083D02*
X337191Y74977D01*
X335894Y74440D01*
X334781Y73585D01*
X333926Y72472D01*
X333389Y71175D01*
X333272Y70284D01*
X338083D01*
Y75094D01*
D02*
G37*
G36*
X343894Y69283D02*
X339083D01*
Y64473D01*
X339974Y64590D01*
X341271Y65127D01*
X342385Y65982D01*
X343239Y67095D01*
X343776Y68392D01*
X343894Y69283D01*
D02*
G37*
G36*
X349894Y69283D02*
X345083D01*
X345200Y68392D01*
X345737Y67095D01*
X346592Y65982D01*
X347705Y65127D01*
X349002Y64590D01*
X349894Y64473D01*
Y69283D01*
D02*
G37*
G36*
X355705D02*
X350894D01*
Y64473D01*
X351785Y64590D01*
X353082Y65127D01*
X354196Y65982D01*
X355050Y67095D01*
X355587Y68392D01*
X355705Y69283D01*
D02*
G37*
G36*
X338083Y69283D02*
X333272D01*
X333389Y68392D01*
X333926Y67095D01*
X334781Y65982D01*
X335894Y65127D01*
X337191Y64590D01*
X338083Y64473D01*
Y69283D01*
D02*
G37*
G36*
X271654Y62991D02*
X270480D01*
Y61268D01*
X273778D01*
X273708Y61619D01*
X273226Y62340D01*
X272505Y62822D01*
X271654Y62991D01*
D02*
G37*
G36*
X269480D02*
X268307D01*
X267456Y62822D01*
X266735Y62340D01*
X266252Y61619D01*
X266183Y61268D01*
X269480D01*
Y62991D01*
D02*
G37*
G36*
X273778Y60268D02*
X270480D01*
Y58544D01*
X271654D01*
X272505Y58713D01*
X273226Y59195D01*
X273708Y59917D01*
X273778Y60268D01*
D02*
G37*
G36*
X269480D02*
X266183D01*
X266252Y59917D01*
X266735Y59195D01*
X267456Y58713D01*
X268307Y58544D01*
X269480D01*
Y60268D01*
D02*
G37*
G36*
X339083Y63283D02*
Y58472D01*
X343894D01*
X343776Y59364D01*
X343239Y60661D01*
X342385Y61774D01*
X341271Y62629D01*
X339974Y63166D01*
X339083Y63283D01*
D02*
G37*
G36*
X338083D02*
X337191Y63166D01*
X335894Y62629D01*
X334781Y61774D01*
X333926Y60661D01*
X333389Y59364D01*
X333272Y58472D01*
X338083D01*
Y63283D01*
D02*
G37*
G36*
X343894Y57472D02*
X339083D01*
Y52662D01*
X339974Y52779D01*
X341271Y53316D01*
X342385Y54171D01*
X343239Y55284D01*
X343776Y56581D01*
X343894Y57472D01*
D02*
G37*
G36*
X338083D02*
X333272D01*
X333389Y56581D01*
X333926Y55284D01*
X334781Y54171D01*
X335894Y53316D01*
X337191Y52779D01*
X338083Y52662D01*
Y57472D01*
D02*
G37*
G36*
X360236Y69053D02*
X358897Y68877D01*
X357649Y68360D01*
X356577Y67537D01*
X355755Y66465D01*
X355238Y65217D01*
X355061Y63878D01*
X355238Y62539D01*
X355755Y61291D01*
X356577Y60219D01*
X357649Y59396D01*
X358401Y59085D01*
Y56860D01*
X357649Y56549D01*
X356577Y55726D01*
X355755Y54654D01*
X355238Y53406D01*
X355061Y52067D01*
X355238Y50728D01*
X355755Y49479D01*
X356577Y48408D01*
X357649Y47585D01*
X358897Y47068D01*
X360236Y46892D01*
X361576Y47068D01*
X362824Y47585D01*
X363896Y48408D01*
X364718Y49479D01*
X365235Y50728D01*
X365411Y52067D01*
X365235Y53406D01*
X364718Y54654D01*
X363896Y55726D01*
X362824Y56549D01*
X362071Y56860D01*
Y59085D01*
X362824Y59396D01*
X363896Y60219D01*
X364718Y61291D01*
X365235Y62539D01*
X365411Y63878D01*
X365235Y65217D01*
X364718Y66465D01*
X363896Y67537D01*
X362824Y68360D01*
X361576Y68877D01*
X360236Y69053D01*
D02*
G37*
G36*
X309760Y43126D02*
X307488D01*
Y40657D01*
X309760D01*
Y43126D01*
D02*
G37*
G36*
X260646Y42929D02*
X257587D01*
Y40264D01*
X260646D01*
Y42929D01*
D02*
G37*
G36*
X309760Y39658D02*
X307488D01*
Y37189D01*
X309760D01*
Y39658D01*
D02*
G37*
G36*
X260646Y39264D02*
X257587D01*
Y36598D01*
X260646D01*
Y39264D01*
D02*
G37*
G36*
X278658Y29520D02*
X276976D01*
Y24886D01*
X278658D01*
Y29520D01*
D02*
G37*
G36*
X275976D02*
X274295D01*
Y24886D01*
X275976D01*
Y29520D01*
D02*
G37*
G36*
X293988Y19677D02*
X291520D01*
Y17405D01*
X293988D01*
Y19677D01*
D02*
G37*
G36*
X385827Y30855D02*
X384397Y30714D01*
X383021Y30297D01*
X381754Y29619D01*
X380643Y28708D01*
X379731Y27597D01*
X379053Y26329D01*
X378636Y24954D01*
X378495Y23524D01*
X378636Y22093D01*
X379053Y20718D01*
X379731Y19451D01*
X380643Y18340D01*
X381754Y17428D01*
X383021Y16750D01*
X384397Y16333D01*
X385827Y16192D01*
X387257Y16333D01*
X388632Y16750D01*
X389900Y17428D01*
X391011Y18340D01*
X391923Y19451D01*
X392600Y20718D01*
X393017Y22093D01*
X393158Y23524D01*
X393017Y24954D01*
X392600Y26329D01*
X391923Y27597D01*
X391011Y28708D01*
X389900Y29619D01*
X388632Y30297D01*
X387257Y30714D01*
X385827Y30855D01*
D02*
G37*
G36*
X350394Y63147D02*
X349054Y62971D01*
X347806Y62454D01*
X346734Y61632D01*
X345912Y60560D01*
X345395Y59312D01*
X345219Y57972D01*
X345395Y56633D01*
X345912Y55385D01*
X346734Y54313D01*
X347806Y53491D01*
X348558Y53179D01*
Y38484D01*
X348698Y37782D01*
X349096Y37187D01*
X353826Y32456D01*
Y11995D01*
X369205D01*
Y35052D01*
X356421D01*
X352229Y39244D01*
Y53179D01*
X352981Y53491D01*
X354053Y54313D01*
X354875Y55385D01*
X355392Y56633D01*
X355569Y57972D01*
X355392Y59312D01*
X354875Y60560D01*
X354053Y61632D01*
X352981Y62454D01*
X351733Y62971D01*
X350394Y63147D01*
D02*
G37*
G36*
X349917Y9936D02*
X347646D01*
Y7468D01*
X349917D01*
Y9936D01*
D02*
G37*
G36*
X332988D02*
X330716D01*
Y7468D01*
X332988D01*
Y9936D01*
D02*
G37*
G36*
X349917Y6468D02*
X347646D01*
Y3999D01*
X349917D01*
Y6468D01*
D02*
G37*
G36*
X332988Y6468D02*
X330716D01*
Y3999D01*
X332988D01*
Y6468D01*
D02*
G37*
G36*
X283576Y11528D02*
X269377D01*
Y1661D01*
X283576D01*
Y11528D01*
D02*
G37*
G36*
X250197Y76845D02*
X249024D01*
Y75121D01*
X252321D01*
X252251Y75472D01*
X251769Y76194D01*
X251048Y76676D01*
X250197Y76845D01*
D02*
G37*
G36*
X252321Y74121D02*
X249024D01*
Y72397D01*
X250197D01*
X251048Y72567D01*
X251769Y73049D01*
X252251Y73770D01*
X252321Y74121D01*
D02*
G37*
G36*
X284244Y71941D02*
X281972D01*
Y69472D01*
X284244D01*
Y71941D01*
D02*
G37*
G36*
X158579Y57960D02*
X156307D01*
Y55491D01*
X158579D01*
Y57960D01*
D02*
G37*
G36*
X135843Y55134D02*
X133768D01*
Y52862D01*
X135843D01*
Y55134D01*
D02*
G37*
G36*
X132768D02*
X130693D01*
Y52862D01*
X132768D01*
Y55134D01*
D02*
G37*
G36*
X158579Y54491D02*
X156307D01*
Y52023D01*
X158579D01*
Y54491D01*
D02*
G37*
G36*
X135843Y51862D02*
X133768D01*
Y49591D01*
X135843D01*
Y51862D01*
D02*
G37*
G36*
X132768D02*
X130693D01*
Y49591D01*
X132768D01*
Y51862D01*
D02*
G37*
G36*
X155307Y57960D02*
X153035D01*
Y57760D01*
X147921D01*
Y54959D01*
X141823D01*
X141695Y54934D01*
X138373D01*
Y49791D01*
X139226D01*
Y47060D01*
X136061D01*
X135933Y47085D01*
X129002D01*
X125013Y51074D01*
Y55131D01*
X118295D01*
Y49200D01*
X123138D01*
X127515Y44823D01*
X127945Y44535D01*
X128453Y44434D01*
X134633D01*
Y41916D01*
X139226D01*
Y39282D01*
X138893Y39060D01*
X138385Y38299D01*
X138206Y37402D01*
X138385Y36504D01*
X138893Y35743D01*
X139654Y35235D01*
X140551Y35056D01*
X141449Y35235D01*
X142209Y35743D01*
X142718Y36504D01*
X142896Y37402D01*
X142718Y38299D01*
X142209Y39060D01*
X141877Y39282D01*
Y49791D01*
X143123D01*
Y52308D01*
X147921D01*
Y52223D01*
X153035D01*
Y52023D01*
X155307D01*
Y54991D01*
Y57960D01*
D02*
G37*
G36*
X188402Y35350D02*
X185933D01*
Y33079D01*
X188402D01*
Y35350D01*
D02*
G37*
G36*
X184933D02*
X182465D01*
Y33079D01*
X184933D01*
Y35350D01*
D02*
G37*
G36*
X180528Y32669D02*
X178059D01*
Y30398D01*
X180528D01*
Y32669D01*
D02*
G37*
G36*
X177059D02*
X174591D01*
Y30398D01*
X177059D01*
Y32669D01*
D02*
G37*
G36*
X172457Y32571D02*
X170382D01*
Y30299D01*
X172457D01*
Y32571D01*
D02*
G37*
G36*
X169382D02*
X167307D01*
Y30299D01*
X169382D01*
Y32571D01*
D02*
G37*
G36*
X106685Y28559D02*
X104413D01*
Y26091D01*
X106685D01*
Y28559D01*
D02*
G37*
G36*
Y25091D02*
X104413D01*
Y22622D01*
X106685D01*
Y25091D01*
D02*
G37*
%LPD*%
D15*
X245499Y139326D02*
X247286D01*
X245444Y139381D02*
X245499Y139326D01*
X242902Y139381D02*
X245444D01*
X242520Y139764D02*
X242902Y139381D01*
X228006Y109123D02*
X231221Y112338D01*
X228006Y105529D02*
X231221Y102314D01*
Y98720D02*
Y102314D01*
X231221Y112338D02*
Y120885D01*
X228006Y105529D02*
Y109123D01*
X228740Y123366D02*
X231221Y120885D01*
X247286Y139326D02*
X257382Y129230D01*
Y109937D02*
Y129230D01*
X254258Y106813D02*
X257382Y109937D01*
X247244Y142126D02*
X259350Y130020D01*
Y109360D02*
Y130020D01*
X256058Y106068D02*
X259350Y109360D01*
X254258Y90365D02*
Y106813D01*
X244325Y45538D02*
Y60241D01*
X256639Y72554D02*
Y87985D01*
X246125Y44792D02*
Y59495D01*
X256058Y91111D02*
Y106068D01*
X215799Y61024D02*
Y61183D01*
Y60864D02*
Y61024D01*
X264316Y70664D02*
Y88243D01*
X258858Y93701D02*
X264316Y88243D01*
X262598Y68947D02*
X264316Y70664D01*
X262598Y68405D02*
Y68947D01*
X255721Y65886D02*
X261516Y71680D01*
Y77843D01*
X241975Y43188D02*
X244325Y45538D01*
X256058Y91111D02*
X258439Y88730D01*
X246125Y59495D02*
X258439Y71809D01*
Y88730D01*
X255721Y53209D02*
Y65886D01*
X254258Y90365D02*
X256639Y87985D01*
X258542Y63235D02*
X260913Y65605D01*
X269818D01*
X269980Y65768D01*
X258542Y52612D02*
Y63235D01*
X247925Y45413D02*
X255721Y53209D01*
X247925Y35917D02*
Y45413D01*
X261528Y50768D02*
X269980D01*
X253228Y42468D02*
X261528Y50768D01*
X277603Y60383D02*
Y77600D01*
X263983Y91220D02*
X277603Y77600D01*
X258858Y93701D02*
Y93799D01*
X263123Y91981D02*
Y101916D01*
X263885Y91220D02*
X263983D01*
X263123Y91981D02*
X263885Y91220D01*
X251428Y45497D02*
X258542Y52612D01*
X270428Y16240D02*
X280741D01*
X266536Y20132D02*
X270428Y16240D01*
X266536Y20132D02*
Y29960D01*
X286220Y21719D02*
Y27045D01*
X280741Y16240D02*
X286220Y21719D01*
X286476Y30020D02*
Y36819D01*
Y27067D02*
Y30020D01*
X246654Y34646D02*
X247925Y35917D01*
X201575Y114008D02*
X202498D01*
X200652D02*
X201575D01*
X110236Y100394D02*
Y101181D01*
Y99606D02*
Y100394D01*
X88583Y102795D02*
X98197D01*
X68110D02*
X88583D01*
X137008Y44488D02*
Y44685D01*
X135933Y45760D02*
X137008Y44685D01*
X337808Y105217D02*
X338083Y105491D01*
X301181Y110236D02*
X301722D01*
X303010Y108949D01*
X337831Y93405D02*
X338083Y93657D01*
X118332Y113799D02*
X120374D01*
X118726Y84665D02*
X120768D01*
X147933Y145276D02*
Y150264D01*
X125663Y69758D02*
X129921Y74016D01*
X204399Y60482D02*
Y61024D01*
X257274Y140157D02*
X257461D01*
X208199Y60482D02*
Y61024D01*
X239535Y69850D02*
X239763Y70079D01*
X301673Y40157D02*
Y40354D01*
X232283Y16961D02*
X235866Y13378D01*
X184161Y25992D02*
X185433Y27264D01*
X212386Y116775D02*
X219685Y124075D01*
X218504Y45945D02*
Y46486D01*
X310630Y59518D02*
Y62114D01*
Y53831D02*
Y57018D01*
X249618Y92460D02*
Y112737D01*
X210586Y133837D02*
X218525Y141776D01*
X231221Y82102D02*
Y98720D01*
X226695Y94193D02*
X231221Y98720D01*
X226279Y94193D02*
X226695D01*
X283661Y58760D02*
Y71358D01*
X276476Y37992D02*
X277067Y38583D01*
X276476Y30020D02*
Y37992D01*
X167717Y62992D02*
X168099Y63375D01*
X164917Y61068D02*
Y69014D01*
Y61068D02*
X167717Y58268D01*
X171910Y67854D02*
X185952Y81897D01*
X164917Y69014D02*
X171731Y75828D01*
X174409Y62598D02*
X191542D01*
X211999Y60864D02*
Y61183D01*
X244325Y60241D02*
X256639Y72554D01*
X246260Y34646D02*
X246654D01*
X248098Y25394D02*
X251428Y28723D01*
X242553Y41220D02*
X246125Y44792D01*
X248675Y23425D02*
X253228Y27977D01*
X283661Y71358D02*
X284744Y72441D01*
X277603Y60383D02*
X285835Y52151D01*
Y40347D02*
Y52151D01*
X271654Y55768D02*
X281476Y45945D01*
X271496Y55610D02*
X271654Y55768D01*
X288774Y63287D02*
X294519D01*
X263779Y55610D02*
X271496D01*
X253228Y27977D02*
Y42468D01*
X238779Y25394D02*
X248098D01*
X251428Y28723D02*
Y45497D01*
X228740Y79621D02*
X231221Y82102D01*
X240453Y92913D02*
X246590Y86776D01*
X219291Y113779D02*
X219498Y113573D01*
X207393Y101881D02*
X219291Y113779D01*
X197157Y101881D02*
X207393D01*
X219498Y113573D02*
X226860D01*
X227067Y113366D01*
X244157Y120673D02*
X246850Y123366D01*
X244157Y97011D02*
Y120673D01*
X240846Y93701D02*
X244157Y97011D01*
X297461Y50768D02*
X298425Y49803D01*
X287283Y61795D02*
X288774Y63287D01*
X294519D02*
X295918Y64686D01*
X295985D01*
X298228Y66929D01*
X298425D01*
X287283Y53249D02*
Y61795D01*
Y53249D02*
X289764Y50768D01*
X297461D01*
X298425Y49803D02*
X298622D01*
X299894Y42134D02*
Y48531D01*
Y42134D02*
X301673Y40354D01*
X298622Y49803D02*
X299894Y48531D01*
X224079Y74621D02*
X226546D01*
X209692Y89008D02*
X224079Y74621D01*
X224048Y72102D02*
X229730D01*
X220034Y68089D02*
X224048Y72102D01*
X222913Y78594D02*
Y82140D01*
Y78594D02*
X224385Y77121D01*
X229749D01*
X252678Y83594D02*
Y89400D01*
X251187Y82102D02*
X252678Y83594D01*
X249618Y92460D02*
X252678Y89400D01*
X220034Y63294D02*
X221063Y62265D01*
Y52953D02*
Y62265D01*
X218234Y62548D02*
X219094Y61688D01*
Y52953D02*
Y61688D01*
X225000Y52953D02*
X225078Y53031D01*
Y57362D02*
X229921Y62205D01*
X225078Y53031D02*
Y57362D01*
X220034Y63294D02*
Y68089D01*
X218234Y62548D02*
Y68834D01*
X205329Y71653D02*
X215799Y61183D01*
X211298Y56363D02*
X215799Y60864D01*
X218234Y68834D02*
X223302Y73902D01*
X209359Y63824D02*
X211999Y61183D01*
X209252Y58117D02*
X211999Y60864D01*
X207283Y59567D02*
X208199Y60482D01*
X200599Y60864D02*
Y61024D01*
X222834Y66929D02*
X244158D01*
X231229Y58789D02*
X234252Y61811D01*
X223620Y73902D02*
X224079Y74361D01*
X223302Y73902D02*
X223620D01*
X211810Y78740D02*
X217716Y72834D01*
X229749Y77121D02*
X231221Y75649D01*
X227296Y69850D02*
X239535D01*
X231221Y73594D02*
Y75649D01*
X229730Y72102D02*
X231221Y73594D01*
X192767Y63824D02*
X209359D01*
X209252Y52953D02*
Y58117D01*
X205315Y52953D02*
Y59567D01*
X204399Y60482D02*
X205315Y59567D01*
X239763Y70079D02*
Y76043D01*
X234252Y73622D02*
X244990Y84361D01*
X203346Y52953D02*
Y58117D01*
X200599Y60864D02*
X203346Y58117D01*
X244158Y66929D02*
X246850Y69621D01*
X229686Y58789D02*
X231229D01*
X227046Y56149D02*
X229686Y58789D01*
X211298Y53031D02*
Y56363D01*
X188210Y71653D02*
X205329D01*
X190945Y78740D02*
X211810D01*
X217452Y29331D02*
X229822Y16961D01*
X221605Y31452D02*
X233565Y43412D01*
X212226Y31452D02*
X221605D01*
X204504Y39173D02*
X212226Y31452D01*
X233565Y43412D02*
Y44951D01*
X285835Y40347D02*
X287919Y38262D01*
X286220Y27045D02*
X286242Y27067D01*
X266476Y30020D02*
X266536Y29960D01*
X74656Y81890D02*
X75197D01*
X73750Y82795D02*
X74656Y81890D01*
X68110Y82795D02*
X73750D01*
X77953Y74016D02*
X78494D01*
X79714Y72795D01*
X88583D01*
X81868Y64961D02*
X116929D01*
X69033Y77795D02*
X81868Y64961D01*
X113524Y96318D02*
X123075D01*
X131113Y105917D02*
X131496Y106299D01*
X123075Y96318D02*
X131113Y104357D01*
X110236Y99606D02*
X113524Y96318D01*
X131113Y104357D02*
Y105917D01*
X128996Y108799D02*
X131496Y106299D01*
X120374Y108799D02*
X128996D01*
X126389Y104529D02*
X126772Y104911D01*
X126389Y103141D02*
Y104529D01*
X121870Y98622D02*
X126389Y103141D01*
X68110Y77795D02*
X69033D01*
X107889Y87175D02*
X178346D01*
X86294Y90668D02*
X174379D01*
X178346Y87175D02*
X180179Y89008D01*
X77041Y99922D02*
X86294Y90668D01*
X175049Y91339D02*
X175591D01*
X174379Y90668D02*
X175049Y91339D01*
X180179Y89008D02*
X181102D01*
X80709Y118898D02*
X144882D01*
X95764Y98028D02*
X95996Y98260D01*
X88815Y98028D02*
X95764D01*
X88583Y97795D02*
X88815Y98028D01*
X95996Y70965D02*
X102559D01*
X69033Y97795D02*
X81160Y85668D01*
X68110Y97795D02*
X69033D01*
X81160Y85668D02*
X106383D01*
X65822Y99922D02*
X77041D01*
X65060Y99160D02*
X65822Y99922D01*
X65060Y89922D02*
Y99160D01*
Y89922D02*
X67187Y87795D01*
X144882Y118898D02*
X162992Y137008D01*
X120860Y69758D02*
X125663D01*
X120768Y69665D02*
X120860Y69758D01*
X125672Y82896D02*
X128740D01*
X122441Y79665D02*
X125672Y82896D01*
X110039Y71503D02*
Y71752D01*
X148669Y82677D02*
X149050D01*
X146739Y84608D02*
X148669Y82677D01*
X142282Y84608D02*
X146739D01*
X142224Y84665D02*
X142282Y84608D01*
X144239Y153957D02*
X147933Y150264D01*
X144172Y153957D02*
X144239D01*
X141929Y156201D02*
X144172Y153957D01*
X131890Y156201D02*
X141929D01*
X131299Y156791D02*
X131890Y156201D01*
X122047Y156791D02*
X131299D01*
X131890Y132579D02*
X147933D01*
X131299Y133169D02*
X131890Y132579D01*
X122047Y133169D02*
X131299D01*
X115748Y144587D02*
Y162106D01*
Y144587D02*
X121850Y138484D01*
X122047D01*
X115748Y162106D02*
X122047D01*
X67187Y87795D02*
X68110D01*
X106383Y85668D02*
X107889Y87175D01*
X88583Y92795D02*
X95945D01*
X102756Y99606D01*
Y100394D01*
X124922Y73638D02*
Y77184D01*
X134946Y113686D02*
X135002Y113743D01*
X141774D01*
X141831Y113799D01*
X98197Y102795D02*
X99064Y103662D01*
X107755D01*
X110236Y101181D01*
X110039Y81004D02*
Y81791D01*
Y81004D02*
X116378Y74665D01*
X120768D01*
X110039Y70965D02*
Y71503D01*
X110721Y72184D01*
X123469D02*
X124922Y73638D01*
X122441Y79665D02*
X124922Y77184D01*
X120768Y79665D02*
X122441D01*
X110721Y72184D02*
X123469D01*
X106299Y81791D02*
Y82579D01*
X107558Y83838D02*
Y84298D01*
X106299Y82579D02*
X107558Y83838D01*
Y84298D02*
X108320Y85060D01*
X118331D01*
X118726Y84665D01*
X106496Y111221D02*
Y112008D01*
X107755Y113267D01*
Y113727D01*
X108517Y114489D01*
X117642D01*
X118332Y113799D01*
X110236Y110433D02*
Y111221D01*
Y110433D02*
X110917Y109752D01*
X112748D01*
X118701Y103799D01*
X120374D01*
X88583Y77795D02*
Y82795D01*
Y77795D02*
X103996D01*
X110039Y71752D01*
X207043Y42869D02*
X209449Y45276D01*
X213385Y34252D02*
Y44558D01*
X213189Y44754D02*
X213385Y44558D01*
X143504Y98799D02*
X148602Y93701D01*
X161811D01*
X141831Y108799D02*
X147470D01*
X141831Y98799D02*
X143504D01*
X147470Y108799D02*
X157844Y98425D01*
X168504Y104911D02*
X176083D01*
X190945Y87795D02*
X194732Y84008D01*
X182026Y99008D02*
X185952Y95081D01*
X177338Y75828D02*
X184152Y82642D01*
Y91881D01*
X169976Y63375D02*
X187752Y81151D01*
X185952Y81897D02*
Y95081D01*
X182026Y94008D02*
X184152Y91881D01*
X194732Y84008D02*
X201575D01*
X144181Y79220D02*
X144343D01*
X240445Y103543D02*
X240453D01*
X142638Y69665D02*
X149813D01*
X160507Y61518D02*
X176946Y45079D01*
X149813Y69665D02*
X176369Y43110D01*
X200922D01*
X144343Y79220D02*
X160507Y63056D01*
Y61518D02*
Y63056D01*
X176946Y45079D02*
X203593D01*
X191542Y62598D02*
X192767Y63824D01*
X168099Y63375D02*
X169976D01*
X244990Y84361D02*
X246958D01*
X247219Y84621D01*
X187752Y81151D02*
Y101109D01*
X167717Y67854D02*
X171910D01*
X171731Y75828D02*
X177338D01*
X168504Y114567D02*
X168784Y114287D01*
X180823D01*
X181102Y114008D01*
X178248Y39173D02*
X204504D01*
X176287Y37213D02*
X178248Y39173D01*
X168504Y109843D02*
X168670D01*
X183391Y111881D02*
X185518Y114008D01*
X170708Y111881D02*
X183391D01*
X168670Y109843D02*
X170708Y111881D01*
X185518Y114008D02*
X200652D01*
X176083Y104911D02*
X180179Y109008D01*
X207283Y52953D02*
Y59567D01*
X187752Y101109D02*
X200652Y114008D01*
X239763Y76043D02*
X245823Y82102D01*
X227067Y69621D02*
X227296Y69850D01*
X246850Y69621D02*
X248524D01*
X227046Y53031D02*
Y56149D01*
X226969Y52953D02*
X227046Y53031D01*
X180179Y109008D02*
X181102D01*
X222835Y45669D02*
X222954Y45788D01*
X217126Y47864D02*
X218504Y46486D01*
X235582Y52543D02*
Y54991D01*
X213385Y44558D02*
X216874Y41069D01*
X225908Y42869D02*
X235582Y52543D01*
X213189Y44754D02*
Y52953D01*
X222954Y45788D02*
Y52875D01*
X223031Y52953D01*
X181102Y99008D02*
X182026D01*
X181102Y94008D02*
X182026D01*
X215158Y45331D02*
X217620Y42869D01*
X225908D01*
X204183Y45669D02*
X204724D01*
X200922Y43110D02*
X201163Y42869D01*
X207043D01*
X203593Y45079D02*
X204183Y45669D01*
X191732Y96457D02*
X197157Y101881D01*
X202498Y104008D02*
X212386Y113895D01*
Y116775D01*
X202498Y114008D02*
X202825Y114334D01*
X210586Y117095D02*
Y133837D01*
X202498Y109008D02*
X210586Y117095D01*
X218525Y141776D02*
X229134D01*
X201575Y109008D02*
X202498D01*
X202825Y114334D02*
Y160945D01*
X197182Y59216D02*
Y60641D01*
Y59216D02*
X201378Y55020D01*
Y52953D02*
Y55020D01*
X211221Y52953D02*
X211298Y53031D01*
X252362Y144882D02*
X252549D01*
X257274Y140157D01*
X196799Y61024D02*
X197182Y60641D01*
X248988Y113366D02*
X249618Y112737D01*
X248524Y113366D02*
X248988D01*
X245823Y82102D02*
X251187D01*
X239764Y102862D02*
X240445Y103543D01*
X239764Y98425D02*
Y102862D01*
X203543Y162205D02*
X333858D01*
X201575Y89008D02*
X209692D01*
X201575Y94008D02*
X216007D01*
X225394Y84621D01*
X227067D01*
X324410Y152756D02*
X333858Y162205D01*
X355906D01*
X229134Y141776D02*
X229178Y141732D01*
X219685Y124075D02*
X225394Y118366D01*
X219685Y124075D02*
Y138976D01*
X201575Y104008D02*
X202498D01*
X227034Y41069D02*
X238652Y52687D01*
X228795Y141350D02*
X229178Y141732D01*
X228795Y128995D02*
Y141350D01*
X228166Y128366D02*
X228795Y128995D01*
X227067Y128366D02*
X228166D01*
X225394Y118366D02*
X227067D01*
X238858Y41220D02*
X242553D01*
X238779Y41142D02*
X238858Y41220D01*
Y43188D02*
X241975D01*
X238779Y43110D02*
X238858Y43188D01*
X228740Y123366D02*
X239720Y134346D01*
Y140924D02*
X251552Y152756D01*
X324410D01*
X239720Y134346D02*
Y140924D01*
X227067Y123366D02*
X228740D01*
X233565Y44951D02*
X238339Y49724D01*
X216874Y41069D02*
X227034D01*
X238339Y49724D02*
X241063D01*
X241339Y50000D01*
X222913Y82140D02*
X225394Y84621D01*
X236221Y116535D02*
X236603Y116918D01*
Y118119D01*
X246850Y128366D01*
X248524D01*
X227067Y79621D02*
X228740D01*
X246850Y123366D02*
X248524D01*
X240453Y93701D02*
X240846D01*
X246590Y85251D02*
X247219Y84621D01*
X240453Y92913D02*
Y93701D01*
X246590Y85251D02*
Y86776D01*
X244369Y77140D02*
X246850Y79621D01*
X248524D01*
X244369Y72102D02*
Y77140D01*
Y72102D02*
X246850Y69621D01*
X168799Y23071D02*
X178091D01*
X265501Y104294D02*
X292898D01*
X266392Y94291D02*
X266589D01*
X285171Y75709D01*
X266392Y99606D02*
X267376Y100591D01*
X276378D01*
X292204Y97716D02*
X295079Y100591D01*
X292204Y82854D02*
Y97716D01*
X292028Y82677D02*
X292204Y82854D01*
X295079Y100591D02*
X295276D01*
X285524Y83866D02*
Y95776D01*
Y83866D02*
X286713Y82677D01*
X284449Y96850D02*
X285524Y95776D01*
X284252Y96850D02*
X284449D01*
X298347Y95985D02*
Y103601D01*
X295472Y93110D02*
X298347Y95985D01*
X315324Y92512D02*
X316217Y93405D01*
X337831D01*
X312591Y92512D02*
X315324D01*
X311319Y91240D02*
X312591Y92512D01*
X311122Y91240D02*
X311319D01*
X306587Y95776D02*
X311122Y91240D01*
X304224Y95776D02*
X306587D01*
X303150Y96850D02*
X304224Y95776D01*
X295276Y106672D02*
X298347Y103601D01*
X295276Y93110D02*
X295472D01*
X295276Y106672D02*
Y118701D01*
X291732Y134843D02*
X294004Y132571D01*
Y127256D02*
Y132571D01*
Y127256D02*
X295079Y126181D01*
X295276D01*
X291732Y134843D02*
Y135039D01*
X285146Y133768D02*
X286417Y135039D01*
X285146Y123335D02*
Y133768D01*
X284252Y122441D02*
X285146Y123335D01*
X273306Y112914D02*
X275590Y110630D01*
X273306Y112914D02*
Y123306D01*
X276181Y126181D01*
X276378D01*
X303010Y108949D02*
X310047D01*
X311319Y107677D01*
X316929Y96457D02*
Y96949D01*
X311516Y102362D02*
X316929Y96949D01*
X311319Y102362D02*
X311516D01*
X325394Y105217D02*
X337808D01*
X311614Y118996D02*
X325394Y105217D01*
X311221Y118996D02*
X311614D01*
X308850Y121366D02*
X311221Y118996D01*
X304224Y121366D02*
X308850D01*
X303150Y122441D02*
X304224Y121366D01*
X295823Y75709D02*
X301892Y69641D01*
X285171Y75709D02*
X295823D01*
X301892Y69641D02*
X313086D01*
X166347Y37213D02*
X176287D01*
X162402Y33268D02*
X166347Y37213D01*
X162402Y33071D02*
Y33268D01*
X319685Y74597D02*
X326683Y81595D01*
X319685Y69291D02*
Y74597D01*
X316929Y79527D02*
Y90158D01*
X309842Y72441D02*
X316929Y79527D01*
X313086Y69641D02*
X315782Y72338D01*
X288240Y38583D02*
X289370D01*
X292898Y104294D02*
X295276Y106672D01*
X263123Y101916D02*
X265501Y104294D01*
X287919Y38262D02*
X287919D01*
X302362Y21102D02*
Y26102D01*
Y31102D01*
X140551Y52362D02*
X141823Y53634D01*
X140551Y37402D02*
Y52362D01*
X149221Y53634D02*
X150492Y54905D01*
X141823Y53634D02*
X149221D01*
X150492Y54905D02*
Y54991D01*
X111228Y26862D02*
X113772Y24319D01*
X111228Y26862D02*
Y38870D01*
X110236Y39862D02*
X111228Y38870D01*
X110236Y45177D02*
X111508Y43905D01*
X120858D01*
X121653Y43110D01*
X128453Y45760D02*
X135933D01*
X121653Y52165D02*
X122047D01*
X128453Y45760D01*
X238779Y29331D02*
Y31299D01*
X232972Y30610D02*
X233514D01*
X234203Y31299D01*
X238779D01*
X232283Y23984D02*
X235584Y27284D01*
X232283Y16961D02*
Y23984D01*
X235584Y27284D02*
X238702D01*
X127567Y29831D02*
X128347Y30610D01*
X128839Y31102D01*
X123622Y30610D02*
X128347D01*
X185433Y20472D02*
Y27264D01*
X326683Y81595D02*
X338583D01*
X235582Y54991D02*
X235965Y55374D01*
X215158Y45331D02*
Y52953D01*
X269823Y60925D02*
X269980Y60768D01*
X263779Y60925D02*
X269823D01*
X281476Y23947D02*
Y45945D01*
X217126Y47864D02*
Y52953D01*
X233071Y35236D02*
X233532D01*
X355906Y162205D02*
X365867Y152243D01*
Y116753D02*
Y152243D01*
X360236Y111122D02*
X365867Y116753D01*
X193504Y29331D02*
X217452D01*
X163484Y23071D02*
Y23268D01*
X162213Y24539D02*
X163484Y23268D01*
X160444Y24539D02*
X162213D01*
X152756Y32228D02*
X160444Y24539D01*
X152362Y32228D02*
X152756D01*
X165804Y41283D02*
X166142Y40945D01*
X152362Y41283D02*
X165804D01*
X255906Y5512D02*
Y11516D01*
X255799Y11409D02*
X255906Y11516D01*
X246850Y11409D02*
X255799D01*
X256996Y29437D02*
X258661Y31102D01*
X256996Y17921D02*
Y29437D01*
X255906Y16831D02*
X256996Y17921D01*
X245480Y13378D02*
X246850Y12008D01*
X238779Y23425D02*
X248675D01*
X238779Y29331D02*
X246457D01*
X294488Y31496D02*
X294882Y31102D01*
X291331Y65874D02*
X291437Y65768D01*
X291331Y65874D02*
Y71169D01*
X312394Y52067D02*
X328740D01*
X310630Y53831D02*
X312394Y52067D01*
X309380Y55768D02*
X310630Y57018D01*
X291437Y55768D02*
X309380D01*
X312394Y63878D02*
X328740D01*
X310630Y62114D02*
X312394Y63878D01*
X309380Y60768D02*
X310630Y59518D01*
X291437Y60768D02*
X309380D01*
X112736Y25354D02*
X126571D01*
X113772Y16068D02*
Y24319D01*
Y16068D02*
X114567Y15273D01*
Y4586D02*
Y9958D01*
X153435Y1920D02*
X226297D01*
X139567Y5354D02*
X150000D01*
X135425Y26350D02*
X136421Y25354D01*
X135425Y26350D02*
Y29831D01*
X134153Y31102D02*
X135425Y29831D01*
X127567Y26350D02*
Y29831D01*
X126571Y25354D02*
X127567Y26350D01*
X271476Y23947D02*
Y38307D01*
Y23947D02*
X273228Y22195D01*
Y21654D02*
Y22195D01*
X136421Y25354D02*
X149469D01*
X152362Y22461D01*
X140261Y19661D02*
X155142D01*
X139567Y20354D02*
X140261Y19661D01*
X155142D02*
X158268Y16535D01*
X186795Y3720D02*
X224161D01*
X139567Y10354D02*
X180161D01*
X145534Y12616D02*
X217274D01*
X230906Y7677D02*
X235226D01*
X226287Y15994D02*
X226969Y15313D01*
X226287Y15994D02*
Y16535D01*
X226969Y7677D02*
Y15313D01*
X229822Y16961D02*
X232283D01*
X217274Y12616D02*
X219017Y10873D01*
X142795Y15354D02*
X145534Y12616D01*
X180161Y10354D02*
X186795Y3720D01*
X150000Y5354D02*
X153435Y1920D01*
X139567Y15354D02*
X142795D01*
X219017Y7755D02*
Y10873D01*
Y7755D02*
X219094Y7677D01*
X226297Y1920D02*
X228859Y4481D01*
X224161Y3720D02*
X224922Y4481D01*
Y5520D01*
X228859Y7599D02*
X228937Y7677D01*
X228859Y4481D02*
Y7599D01*
X178091Y23071D02*
X181012Y25992D01*
X184161D01*
X193426Y29253D02*
X193504Y29331D01*
X189619Y29253D02*
X193426D01*
X185433Y27264D02*
X186705Y28535D01*
X188902D01*
X189619Y29253D01*
X193496Y31307D02*
X193504Y31299D01*
X186705Y31307D02*
X193496D01*
X185433Y32579D02*
X186705Y31307D01*
X246457Y29331D02*
X246457Y29331D01*
X244882Y33268D02*
X246260Y34646D01*
X238779Y33268D02*
X244882D01*
X233532Y35236D02*
X235423Y33346D01*
X238702D01*
X238779Y33268D01*
X238702Y27284D02*
X238779Y27362D01*
X235866Y13378D02*
X245480D01*
X246850Y11409D02*
Y12008D01*
X286476Y36819D02*
X287919Y38262D01*
X293595Y26386D02*
X294488Y25492D01*
X286476Y27067D02*
X287158Y26386D01*
X293595D01*
X294488Y25492D02*
X295098Y26102D01*
X302362D01*
X279528Y21998D02*
X281476Y23947D01*
X279528Y21654D02*
Y21998D01*
X271476Y38307D02*
X271752Y38583D01*
X340846Y23524D02*
X341831Y22539D01*
Y6968D02*
Y22539D01*
X323995Y7874D02*
X324902Y6968D01*
X309744Y7874D02*
X323995D01*
X302362Y16102D02*
X303248D01*
X301476Y21102D02*
X302362D01*
X298798Y18424D02*
X301476Y21102D01*
X298798Y8542D02*
Y18424D01*
X298130Y7874D02*
X298798Y8542D01*
X307587Y10031D02*
Y11764D01*
Y10031D02*
X309744Y7874D01*
X303248Y16102D02*
X307587Y11764D01*
D16*
X201575Y84008D02*
D03*
Y89008D02*
D03*
Y94008D02*
D03*
Y99008D02*
D03*
Y104008D02*
D03*
Y109008D02*
D03*
Y114008D02*
D03*
X181102Y84008D02*
D03*
Y89008D02*
D03*
Y94008D02*
D03*
Y99008D02*
D03*
Y104008D02*
D03*
Y109008D02*
D03*
Y114008D02*
D03*
X68110Y102795D02*
D03*
Y97795D02*
D03*
Y92795D02*
D03*
Y87795D02*
D03*
Y82795D02*
D03*
Y77795D02*
D03*
Y72795D02*
D03*
X88583Y102795D02*
D03*
Y97795D02*
D03*
Y92795D02*
D03*
Y87795D02*
D03*
Y82795D02*
D03*
Y77795D02*
D03*
Y72795D02*
D03*
D17*
X248524Y113366D02*
D03*
Y118366D02*
D03*
Y123366D02*
D03*
Y128366D02*
D03*
X227067Y113366D02*
D03*
Y118366D02*
D03*
Y123366D02*
D03*
Y128366D02*
D03*
X248524Y69621D02*
D03*
Y74621D02*
D03*
Y79621D02*
D03*
Y84621D02*
D03*
X227067Y69621D02*
D03*
Y74621D02*
D03*
Y79621D02*
D03*
Y84621D02*
D03*
X120374Y113799D02*
D03*
Y108799D02*
D03*
Y103799D02*
D03*
Y98799D02*
D03*
X141831Y113799D02*
D03*
Y108799D02*
D03*
Y103799D02*
D03*
Y98799D02*
D03*
X120768Y84665D02*
D03*
Y79665D02*
D03*
Y74665D02*
D03*
Y69665D02*
D03*
X142224Y84665D02*
D03*
Y79665D02*
D03*
Y74665D02*
D03*
Y69665D02*
D03*
X291437Y50768D02*
D03*
Y55768D02*
D03*
Y60768D02*
D03*
Y65768D02*
D03*
X269980Y50768D02*
D03*
Y55768D02*
D03*
Y60768D02*
D03*
Y65768D02*
D03*
D18*
X240453Y93110D02*
D03*
X235138D02*
D03*
X240453Y104331D02*
D03*
X235138D02*
D03*
X292028Y82677D02*
D03*
X286713D02*
D03*
X150492Y54991D02*
D03*
X155807D02*
D03*
X277067Y38583D02*
D03*
X271752D02*
D03*
X290059Y72441D02*
D03*
X284744D02*
D03*
X301673Y40157D02*
D03*
X306988D02*
D03*
X107185Y25591D02*
D03*
X112500D02*
D03*
X134153Y31102D02*
D03*
X128839D02*
D03*
X163484Y23071D02*
D03*
X168799D02*
D03*
X330217Y6968D02*
D03*
X324902D02*
D03*
X347146D02*
D03*
X341831D02*
D03*
X286417Y135039D02*
D03*
X291732D02*
D03*
D19*
X276378Y100591D02*
D03*
Y93110D02*
D03*
X284252Y96850D02*
D03*
X295276Y100591D02*
D03*
Y93110D02*
D03*
X303150Y96850D02*
D03*
X276378Y126181D02*
D03*
Y118701D02*
D03*
X284252Y122441D02*
D03*
X295276Y126181D02*
D03*
Y118701D02*
D03*
X303150Y122441D02*
D03*
D20*
X311319Y91240D02*
D03*
Y85925D02*
D03*
Y107677D02*
D03*
Y102362D02*
D03*
X311417Y118996D02*
D03*
Y124311D02*
D03*
X255906Y16831D02*
D03*
Y11516D02*
D03*
X261811Y60925D02*
D03*
Y55610D02*
D03*
X298425Y66929D02*
D03*
Y61614D02*
D03*
Y55118D02*
D03*
Y49803D02*
D03*
X114567Y9958D02*
D03*
Y15273D02*
D03*
X177165Y17028D02*
D03*
Y22343D02*
D03*
X177559Y33169D02*
D03*
Y38484D02*
D03*
X110236Y45177D02*
D03*
Y39862D02*
D03*
X185433Y32579D02*
D03*
Y27264D02*
D03*
X246457Y34646D02*
D03*
Y29331D02*
D03*
X294488Y20177D02*
D03*
Y25492D02*
D03*
X122047Y162106D02*
D03*
Y156791D02*
D03*
Y138484D02*
D03*
Y133169D02*
D03*
X131890Y156201D02*
D03*
Y150886D02*
D03*
X141732D02*
D03*
Y156201D02*
D03*
X131890Y132579D02*
D03*
Y127264D02*
D03*
X141732D02*
D03*
Y132579D02*
D03*
X266392Y94291D02*
D03*
Y99606D02*
D03*
D21*
X140748Y52362D02*
D03*
X133268D02*
D03*
X137008Y44488D02*
D03*
X166142Y40945D02*
D03*
X169882Y33071D02*
D03*
X162402D02*
D03*
D22*
X121653Y52165D02*
D03*
Y43110D02*
D03*
X257087Y39764D02*
D03*
Y30709D02*
D03*
X152362Y32228D02*
D03*
Y41283D02*
D03*
D23*
X124213Y25354D02*
D03*
X139567D02*
D03*
X124213Y20354D02*
D03*
X139567D02*
D03*
X124213Y15354D02*
D03*
X139567D02*
D03*
X124213Y10354D02*
D03*
X139567D02*
D03*
X124213Y5354D02*
D03*
X139567D02*
D03*
D24*
X289370Y38583D02*
D03*
D25*
X310630Y62992D02*
D03*
Y53543D02*
D03*
X247244Y9843D02*
D03*
D26*
X238779Y15551D02*
D03*
Y17520D02*
D03*
Y19488D02*
D03*
Y21457D02*
D03*
Y23425D02*
D03*
Y25394D02*
D03*
Y27362D02*
D03*
Y29331D02*
D03*
Y31299D02*
D03*
Y33268D02*
D03*
Y35236D02*
D03*
Y37205D02*
D03*
Y39173D02*
D03*
Y41142D02*
D03*
Y43110D02*
D03*
Y45079D02*
D03*
X193504D02*
D03*
Y43110D02*
D03*
Y41142D02*
D03*
Y39173D02*
D03*
Y37205D02*
D03*
Y35236D02*
D03*
Y33268D02*
D03*
Y31299D02*
D03*
Y29331D02*
D03*
Y27362D02*
D03*
Y25394D02*
D03*
Y23425D02*
D03*
Y21457D02*
D03*
Y19488D02*
D03*
Y17520D02*
D03*
Y15551D02*
D03*
D27*
X230906Y52953D02*
D03*
X228937D02*
D03*
X226969D02*
D03*
X225000D02*
D03*
X223031D02*
D03*
X221063D02*
D03*
X219094D02*
D03*
X217126D02*
D03*
X215158D02*
D03*
X213189D02*
D03*
X211221D02*
D03*
X209252D02*
D03*
X207283D02*
D03*
X205315D02*
D03*
X203346D02*
D03*
X201378D02*
D03*
Y7677D02*
D03*
X203346D02*
D03*
X205315D02*
D03*
X207283D02*
D03*
X209252D02*
D03*
X211221D02*
D03*
X213189D02*
D03*
X215158D02*
D03*
X217126D02*
D03*
X219094D02*
D03*
X221063D02*
D03*
X223031D02*
D03*
X225000D02*
D03*
X226969D02*
D03*
X228937D02*
D03*
X230906D02*
D03*
D28*
X286476Y30020D02*
D03*
X281476D02*
D03*
X276476D02*
D03*
X271476D02*
D03*
X266476D02*
D03*
D29*
X276476Y6594D02*
D03*
D30*
X318110Y23602D02*
D03*
D31*
X302362Y16102D02*
D03*
Y21102D02*
D03*
Y26102D02*
D03*
Y31102D02*
D03*
D32*
X298130Y7874D02*
D03*
X309744D02*
D03*
D33*
X340846Y23524D02*
D03*
X361516D02*
D03*
D34*
X110236Y111221D02*
D03*
X106496D02*
D03*
X102756D02*
D03*
Y100394D02*
D03*
X110236D02*
D03*
X110039Y81791D02*
D03*
X106299D02*
D03*
X102559D02*
D03*
Y70965D02*
D03*
X110039D02*
D03*
D57*
X360236Y52067D02*
Y63878D01*
X318110Y23602D02*
X318189Y23524D01*
X340846D01*
X350394Y38484D02*
Y57972D01*
Y38484D02*
X361516Y27362D01*
Y23524D02*
Y27362D01*
D58*
X294882Y31102D02*
X295079Y31299D01*
X302165D01*
X302362Y31102D01*
D59*
X385827Y23524D02*
D03*
Y151476D02*
D03*
D60*
X328740Y122933D02*
D03*
Y111122D02*
D03*
Y99311D02*
D03*
Y87500D02*
D03*
Y75689D02*
D03*
Y63878D02*
D03*
Y52067D02*
D03*
X338583Y117028D02*
D03*
Y105217D02*
D03*
Y93405D02*
D03*
Y81595D02*
D03*
Y69784D02*
D03*
Y57972D02*
D03*
X350394Y117028D02*
D03*
Y105217D02*
D03*
Y93405D02*
D03*
Y81595D02*
D03*
Y69784D02*
D03*
Y57972D02*
D03*
X360236Y122933D02*
D03*
Y111122D02*
D03*
Y99311D02*
D03*
Y87500D02*
D03*
Y75689D02*
D03*
Y63878D02*
D03*
Y52067D02*
D03*
D61*
X305426Y50984D02*
D03*
X185531Y125362D02*
D03*
X206791Y119705D02*
D03*
X53937Y61516D02*
D03*
X52362Y84558D02*
D03*
X73032Y112697D02*
D03*
X230806Y107087D02*
D03*
X254369Y120276D02*
D03*
X245923Y157988D02*
D03*
X305118Y156890D02*
D03*
X162402Y83957D02*
D03*
X261516Y77843D02*
D03*
X262598Y68405D02*
D03*
X253839Y74721D02*
D03*
X258858Y93799D02*
D03*
X226279Y94193D02*
D03*
X283661Y58760D02*
D03*
X274887Y58472D02*
D03*
X217709Y104357D02*
D03*
X234638Y84728D02*
D03*
X167717Y62992D02*
D03*
Y67854D02*
D03*
X174409Y62598D02*
D03*
X124605Y149409D02*
D03*
X167184Y144926D02*
D03*
X92913Y81496D02*
D03*
X88976Y68997D02*
D03*
X260138Y134218D02*
D03*
X276772Y146653D02*
D03*
X219291Y113779D02*
D03*
X234104Y97528D02*
D03*
X211999Y61024D02*
D03*
X229921Y62205D02*
D03*
X208199Y61024D02*
D03*
X200599D02*
D03*
X222834Y66929D02*
D03*
X217716Y72834D02*
D03*
X215799Y61024D02*
D03*
X239763Y70079D02*
D03*
X234252Y73622D02*
D03*
X204399Y61024D02*
D03*
X234252Y61811D02*
D03*
X75197Y81890D02*
D03*
X77953Y74016D02*
D03*
X131496Y106299D02*
D03*
X126772Y104911D02*
D03*
X116929Y64961D02*
D03*
X80709Y118898D02*
D03*
X95996Y98260D02*
D03*
Y70965D02*
D03*
X162992Y137008D02*
D03*
X129921Y74016D02*
D03*
X128740Y82896D02*
D03*
X149050Y82677D02*
D03*
X147933Y145276D02*
D03*
Y132579D02*
D03*
X115748Y162106D02*
D03*
X134946Y113686D02*
D03*
X209449Y45276D02*
D03*
X213385Y34252D02*
D03*
X161811Y93701D02*
D03*
X157844Y98425D02*
D03*
X175591Y91339D02*
D03*
X168504Y104911D02*
D03*
X190945Y87795D02*
D03*
X167717Y58268D02*
D03*
X288386Y19677D02*
D03*
X290005Y5354D02*
D03*
X291339Y14259D02*
D03*
X296850Y36562D02*
D03*
X295674Y44287D02*
D03*
X263386Y10873D02*
D03*
X262381Y43801D02*
D03*
X149050Y47934D02*
D03*
X134308Y58857D02*
D03*
X113779Y53150D02*
D03*
X98819Y41732D02*
D03*
Y28265D02*
D03*
Y15748D02*
D03*
Y3543D02*
D03*
X168504Y109843D02*
D03*
Y114567D02*
D03*
X188210Y71653D02*
D03*
X190945Y78740D02*
D03*
X222835Y45669D02*
D03*
X218504Y45945D02*
D03*
X204724Y45669D02*
D03*
X191732Y96457D02*
D03*
X257461Y140157D02*
D03*
X252362Y144882D02*
D03*
X196799Y61024D02*
D03*
X249618Y98808D02*
D03*
X239764Y98425D02*
D03*
X203543Y162205D02*
D03*
X219685Y138976D02*
D03*
X229178Y141732D02*
D03*
X242520Y139764D02*
D03*
X247244Y142126D02*
D03*
X236221Y116535D02*
D03*
X316929Y96457D02*
D03*
X301181Y110236D02*
D03*
X275590Y110630D02*
D03*
X319685Y69291D02*
D03*
X316929Y90158D02*
D03*
X320505Y17520D02*
D03*
Y21752D02*
D03*
Y25984D02*
D03*
Y30217D02*
D03*
X140551Y37402D02*
D03*
X241339Y50000D02*
D03*
X238652Y52687D02*
D03*
X232972Y30610D02*
D03*
X123622D02*
D03*
X185433Y20472D02*
D03*
X309842Y72441D02*
D03*
X315782Y72338D02*
D03*
X235965Y55374D02*
D03*
X233071Y35236D02*
D03*
X324410Y152756D02*
D03*
X355906Y162205D02*
D03*
X255906Y5512D02*
D03*
X294488Y31496D02*
D03*
X114567Y4586D02*
D03*
X150000Y5354D02*
D03*
X152362Y22461D02*
D03*
X158268Y16535D02*
D03*
X235226Y7677D02*
D03*
X226287Y16535D02*
D03*
X273228Y21654D02*
D03*
X279528D02*
D03*
X315912Y17520D02*
D03*
X311319D02*
D03*
X325098D02*
D03*
X315912Y21752D02*
D03*
X311319D02*
D03*
X325098D02*
D03*
X315912Y25984D02*
D03*
X311319D02*
D03*
X325098D02*
D03*
Y30217D02*
D03*
X311319D02*
D03*
X315912D02*
D03*
M02*
