%FSLAX23Y23*%
%MOIN*%
%SFA1B1*%

%IPPOS*%
%AMD32*
4,1,8,-0.005900,-0.042400,0.005900,-0.042400,0.016800,-0.031500,0.016800,0.031500,0.005900,0.042400,-0.005900,0.042400,-0.016800,0.031500,-0.016800,-0.031500,-0.005900,-0.042400,0.0*
1,1,0.021820,-0.005900,-0.031500*
1,1,0.021820,0.005900,-0.031500*
1,1,0.021820,0.005900,0.031500*
1,1,0.021820,-0.005900,0.031500*
%
%AMD65*
4,1,8,-0.022500,0.004100,-0.022500,-0.004100,-0.013400,-0.013300,0.013400,-0.013300,0.022500,-0.004100,0.022500,0.004100,0.013400,0.013300,-0.013400,0.013300,-0.022500,0.004100,0.0*
1,1,0.018260,-0.013400,0.004100*
1,1,0.018260,-0.013400,-0.004100*
1,1,0.018260,0.013400,-0.004100*
1,1,0.018260,0.013400,0.004100*
%
%AMD66*
4,1,8,-0.004100,-0.022500,0.004100,-0.022500,0.013300,-0.013400,0.013300,0.013400,0.004100,0.022500,-0.004100,0.022500,-0.013300,0.013400,-0.013300,-0.013400,-0.004100,-0.022500,0.0*
1,1,0.018260,-0.004100,-0.013400*
1,1,0.018260,0.004100,-0.013400*
1,1,0.018260,0.004100,0.013400*
1,1,0.018260,-0.004100,0.013400*
%
G04~CAMADD=32~8~0.0~0.0~336.2~848.0~109.1~0.0~15~0.0~0.0~0.0~0.0~0~0.0~0.0~0.0~0.0~0~0.0~0.0~0.0~180.0~336.0~848.0*
%ADD32D32*%
%ADD36R,0.047400X0.043470*%
%ADD37R,0.049370X0.045430*%
%ADD38R,0.045430X0.049370*%
%ADD39R,0.043470X0.047400*%
%ADD49C,0.139920*%
%ADD50C,0.096610*%
%ADD51C,0.045430*%
%ADD52R,0.045430X0.045430*%
G04~CAMADD=65~8~0.0~0.0~265.3~450.0~91.3~0.0~15~0.0~0.0~0.0~0.0~0~0.0~0.0~0.0~0.0~0~0.0~0.0~0.0~90.0~450.0~266.0*
%ADD65D65*%
G04~CAMADD=66~8~0.0~0.0~265.3~450.0~91.3~0.0~15~0.0~0.0~0.0~0.0~0~0.0~0.0~0.0~0.0~0~0.0~0.0~0.0~180.0~266.0~450.0*
%ADD66D66*%
%LNrev1_0-1*%
%LPD*%
G54D32*
X819Y735D03*
X769D03*
X719D03*
X669D03*
X619D03*
X569D03*
X519D03*
X469D03*
X419D03*
X369D03*
X819Y1109D03*
X769D03*
X719D03*
X669D03*
X619D03*
X569D03*
X519D03*
X469D03*
X419D03*
X369D03*
G54D36*
X3013Y1251D03*
Y1200D03*
X3084Y1201D03*
Y1252D03*
Y1634D03*
Y1685D03*
X3013Y1684D03*
Y1633D03*
Y2118D03*
Y2066D03*
X3084Y2067D03*
Y2118D03*
X2232Y2471D03*
Y2420D03*
X2306D03*
Y2471D03*
X2379D03*
Y2420D03*
X2453D03*
Y2471D03*
X1574Y2420D03*
Y2471D03*
X1503D03*
Y2420D03*
X1645Y2471D03*
Y2420D03*
X1076Y2066D03*
Y2117D03*
X1005Y2117D03*
Y2066D03*
Y1684D03*
Y1633D03*
X1076Y1633D03*
Y1684D03*
X1005Y1251D03*
Y1200D03*
X1076Y1251D03*
Y1200D03*
X1432Y2471D03*
Y2420D03*
G54D37*
X2687Y1168D03*
Y1115D03*
Y1601D03*
Y1548D03*
X1405Y2124D03*
Y2177D03*
Y1691D03*
Y1744D03*
Y1258D03*
Y1311D03*
X468Y620D03*
Y567D03*
X567Y620D03*
Y567D03*
X665Y620D03*
Y567D03*
X763Y620D03*
Y567D03*
X2687Y2019D03*
Y2072D03*
G54D38*
X2376Y2809D03*
X2429D03*
X1593Y2802D03*
X1646D03*
G54D39*
X2347Y1333D03*
X2296D03*
Y1266D03*
X2347D03*
Y1198D03*
X2296D03*
Y1131D03*
X2347D03*
Y1766D03*
X2296D03*
Y1699D03*
X2347D03*
Y1631D03*
X2296D03*
Y1564D03*
X2347D03*
X2296Y1997D03*
X2347D03*
Y2064D03*
X2296D03*
Y2132D03*
X2347D03*
Y2199D03*
X2296D03*
X2266Y3040D03*
X2215D03*
Y2962D03*
X2266D03*
X1689Y3035D03*
X1638D03*
X1638Y2963D03*
X1689D03*
X1746Y1989D03*
X1797D03*
Y2057D03*
X1746D03*
Y2124D03*
X1797D03*
Y2192D03*
X1746D03*
X1797Y1759D03*
X1746D03*
Y1691D03*
X1797D03*
Y1624D03*
X1746D03*
Y1556D03*
X1797D03*
X1746Y1123D03*
X1797D03*
Y1190D03*
X1746D03*
X1797Y1326D03*
X1746D03*
Y1258D03*
X1797D03*
X392Y463D03*
X444D03*
X516D03*
X567D03*
X639D03*
X690D03*
X762D03*
X813D03*
G54D49*
X1190Y3759D03*
X2706D03*
G54D50*
X2421Y3503D03*
X2303D03*
X2185D03*
X2066D03*
X1948D03*
X1830D03*
X1712D03*
X1594D03*
X1476D03*
X2362Y3405D03*
X2244D03*
X2125D03*
X2007D03*
X1889D03*
X1771D03*
X1653D03*
X1535D03*
X2362Y3287D03*
X2244D03*
X2125D03*
X2007D03*
X1889D03*
X1771D03*
X1653D03*
X1535D03*
X2421Y3188D03*
X2303D03*
X2185D03*
X2066D03*
X1948D03*
X1830D03*
X1712D03*
X1594D03*
X1476D03*
G54D51*
X2695Y214D03*
Y164D03*
X2745Y214D03*
Y164D03*
X2795Y214D03*
Y164D03*
X2845Y214D03*
Y164D03*
X2895D03*
G54D52*
X2895Y214D03*
G54D65*
X2601Y1273D03*
Y1248D03*
Y1222D03*
Y1197D03*
X2435Y1273D03*
Y1248D03*
Y1222D03*
Y1197D03*
X2601Y1706D03*
Y1681D03*
Y1655D03*
Y1630D03*
X2435Y1706D03*
Y1681D03*
Y1655D03*
Y1630D03*
X2601Y2140D03*
Y2114D03*
Y2088D03*
Y2063D03*
X2435Y2140D03*
Y2114D03*
Y2088D03*
Y2063D03*
X1492Y2068D03*
Y2094D03*
Y2119D03*
Y2145D03*
X1658Y2068D03*
Y2094D03*
Y2119D03*
Y2145D03*
X1492Y1635D03*
Y1661D03*
Y1686D03*
Y1712D03*
X1658Y1635D03*
Y1661D03*
Y1686D03*
Y1712D03*
X1492Y1202D03*
Y1228D03*
Y1253D03*
Y1279D03*
X1658Y1202D03*
Y1228D03*
Y1253D03*
Y1279D03*
G54D66*
X2285Y2731D03*
X2311D03*
X2337D03*
X2362D03*
X2285Y2565D03*
X2311D03*
X2337D03*
X2362D03*
X1596D03*
X1571D03*
X1545D03*
X1519D03*
X1596Y2731D03*
X1571D03*
X1545D03*
X1519D03*
M02*