%FSLAX23Y23*%
%MOIN*%
%SFA1B1*%

%IPPOS*%
%ADD10C,0.009840*%
%ADD11C,0.023620*%
%ADD12C,0.007870*%
%ADD13C,0.005910*%
%ADD14C,0.010000*%
%LNrev1_0-1*%
%LPD*%
G54D10*
X3256Y826D02*
X3248Y830D01*
Y822*
X3256Y826*
X1194Y1773D02*
X1187Y1777D01*
Y1769*
X1194Y1773*
Y1340D02*
X1187Y1344D01*
Y1336*
X1194Y1340*
X2909Y1150D02*
X2902Y1154D01*
Y1145*
X2909Y1150*
Y1583D02*
X2902Y1587D01*
Y1578*
X2909Y1583*
Y2016D02*
X2902Y2020D01*
Y2012*
X2909Y2016*
X2491Y3033D02*
X2484Y3037D01*
Y3029*
X2491Y3033*
X1194Y2206D02*
X1187Y2210D01*
Y2202*
X1194Y2206*
X1653Y3033D02*
X1645Y3037D01*
Y3029*
X1653Y3033*
X2254Y272D02*
X2246Y276D01*
Y268*
X2254Y272*
X3717Y3451D02*
X3710Y3455D01*
Y3446*
X3717Y3451*
X1431Y619D02*
X1424Y623D01*
Y615*
X1431Y619*
G54D11*
X3305Y918D02*
X3300Y928D01*
X3290Y930*
X3282Y924*
Y913*
X3290Y907*
X3300Y909*
X3305Y918*
X2179Y303D02*
X2175Y312D01*
X2165Y314*
X2157Y308*
Y297*
X2165Y291*
X2175Y293*
X2179Y303*
X3640Y3500D02*
X3636Y3509D01*
X3626Y3512*
X3618Y3505*
Y3495*
X3626Y3489*
X3636Y3491*
X3640Y3500*
G54D12*
X3253Y879D02*
X3765D01*
X3253Y1147D02*
X3765D01*
X3253Y879D02*
Y1147D01*
X3765Y879D02*
Y1147D01*
X1533Y1640D02*
X1627D01*
X1533Y1735D02*
X1627D01*
X1533Y1207D02*
X1627D01*
X1533Y1302D02*
X1627D01*
X2575Y606D02*
Y820D01*
Y606D02*
X2657D01*
X2753D02*
X2835D01*
Y820*
X2622Y866D02*
X2657D01*
X2575Y820D02*
X2622Y866D01*
X2788D02*
X2835Y820D01*
X2753Y866D02*
X2788D01*
X2466Y1309D02*
X2561D01*
X2466Y1215D02*
X2561D01*
X2466Y1742D02*
X2561D01*
X2466Y1648D02*
X2561D01*
X2466Y2175D02*
X2561D01*
X2466Y2081D02*
X2561D01*
X2332Y2591D02*
Y2685D01*
X2426Y2591D02*
Y2685D01*
X1533Y2073D02*
X1627D01*
X1533Y2168D02*
X1627D01*
X1491Y2589D02*
Y2684D01*
X1586Y2589D02*
Y2684D01*
X508Y1045D02*
X543D01*
X589Y998*
X330D02*
X376Y1045D01*
X411*
X589Y785D02*
Y998D01*
X508Y785D02*
X589D01*
X330D02*
X411D01*
X330D02*
Y998D01*
X865Y1045D02*
X900D01*
X947Y998*
X687D02*
X734Y1045D01*
X769*
X947Y785D02*
Y998D01*
X865Y785D02*
X947D01*
X687D02*
X769D01*
X687D02*
Y998D01*
X3088Y866D02*
X3123D01*
X3170Y819*
X2910D02*
X2957Y866D01*
X2992*
X3170Y606D02*
Y819D01*
X3088Y606D02*
X3170D01*
X2910D02*
X2992D01*
X2910D02*
Y819D01*
X2940Y114D02*
Y254D01*
X2655D02*
X2940D01*
X2655Y114D02*
Y254D01*
Y114D02*
X2940D01*
X2207Y263D02*
Y631D01*
X1838Y263D02*
Y631D01*
Y263D02*
X2207D01*
X1838Y631D02*
X2207D01*
X3542Y3658D02*
X3668D01*
X3542Y3461D02*
X3668D01*
X3542D02*
Y3658D01*
X3668Y3461D02*
Y3658D01*
X1233Y633D02*
Y889D01*
X1371*
Y633D02*
Y887D01*
X1233Y633D02*
X1371D01*
X2176Y1091D02*
X2136D01*
Y1111*
X2143Y1118*
X2156*
X2163Y1111*
Y1091*
Y1104D02*
X2176Y1118D01*
X2136Y1157D02*
X2143Y1144D01*
X2156Y1131*
X2169*
X2176Y1137*
Y1150*
X2169Y1157*
X2163*
X2156Y1150*
Y1131*
X2169Y1170D02*
X2176Y1177D01*
Y1190*
X2169Y1196*
X2143*
X2136Y1190*
Y1177*
X2143Y1170*
X2150*
X2156Y1177*
Y1196*
X1949Y1093D02*
X1910D01*
Y1112*
X1916Y1119*
X1929*
X1936Y1112*
Y1093*
Y1106D02*
X1949Y1119D01*
X1910Y1158D02*
X1916Y1145D01*
X1929Y1132*
X1942*
X1949Y1139*
Y1152*
X1942Y1158*
X1936*
X1929Y1152*
Y1132*
X1916Y1171D02*
X1910Y1178D01*
Y1191*
X1916Y1198*
X1923*
X1929Y1191*
X1936Y1198*
X1942*
X1949Y1191*
Y1178*
X1942Y1171*
X1936*
X1929Y1178*
X1923Y1171*
X1916*
X1929Y1178D02*
Y1191D01*
X3650Y3806D02*
X3644Y3812D01*
X3630*
X3624Y3806*
Y3780*
X3630Y3773*
X3644*
X3650Y3780*
X3663Y3773D02*
X3676D01*
X3670*
Y3812*
X3663Y3806*
X324Y1177D02*
X317Y1184D01*
X304*
X298Y1177*
Y1151*
X304Y1145*
X317*
X324Y1151*
X337Y1145D02*
X350D01*
X343*
Y1184*
X337Y1177*
X370Y1151D02*
X376Y1145D01*
X389*
X396Y1151*
Y1177*
X389Y1184*
X376*
X370Y1177*
Y1171*
X376Y1164*
X396*
X2904Y998D02*
X2898Y1005D01*
X2885*
X2878Y998*
Y972*
X2885Y965*
X2898*
X2904Y972*
X2917Y965D02*
X2930D01*
X2924*
Y1005*
X2917Y998*
X2950D02*
X2957Y1005D01*
X2970*
X2976Y998*
Y992*
X2970Y985*
X2963*
X2970*
X2976Y979*
Y972*
X2970Y965*
X2957*
X2950Y972*
X681Y1177D02*
X674Y1184D01*
X661*
X655Y1177*
Y1151*
X661Y1145*
X674*
X681Y1151*
X694Y1145D02*
X707D01*
X700*
Y1184*
X694Y1177*
X727D02*
X733Y1184D01*
X746*
X753Y1177*
Y1171*
X746Y1164*
X753Y1158*
Y1151*
X746Y1145*
X733*
X727Y1151*
Y1158*
X733Y1164*
X727Y1171*
Y1177*
X733Y1164D02*
X746D01*
X2569Y998D02*
X2562Y1005D01*
X2549*
X2542Y998*
Y972*
X2549Y966*
X2562*
X2569Y972*
X2582Y966D02*
X2595D01*
X2588*
Y1005*
X2582Y998*
X2641Y966D02*
X2615D01*
X2641Y992*
Y998*
X2634Y1005*
X2621*
X2615Y998*
X984Y3853D02*
X1010Y3813D01*
Y3853D02*
X984Y3813D01*
X1023D02*
X1036D01*
X1030*
Y3853*
X1023Y3846*
X2658Y376D02*
X2684Y337D01*
Y376D02*
X2658Y337D01*
X2723D02*
X2697D01*
X2723Y363*
Y369*
X2717Y376*
X2703*
X2697Y369*
X1768Y777D02*
Y744D01*
X1774Y738*
X1787*
X1794Y744*
Y777*
X1807Y738D02*
X1820D01*
X1813*
Y777*
X1807Y770*
X1840D02*
X1846Y777D01*
X1859*
X1866Y770*
Y764*
X1859Y757*
X1853*
X1859*
X1866Y751*
Y744*
X1859Y738*
X1846*
X1840Y744*
X3466Y3735D02*
Y3703D01*
X3472Y3696*
X3486*
X3492Y3703*
Y3735*
X3505Y3696D02*
X3518D01*
X3512*
Y3735*
X3505Y3729*
X1142Y960D02*
Y928D01*
X1148Y921*
X1162*
X1168Y928*
Y960*
X1207Y921D02*
X1181D01*
X1207Y947*
Y954*
X1201Y960*
X1188*
X1181Y954*
X3716Y1311D02*
Y1278D01*
X3722Y1272*
X3735*
X3742Y1278*
Y1311*
X3755Y1272D02*
X3768D01*
X3762*
Y1311*
X3755Y1305*
X3788Y1272D02*
X3801D01*
X3795*
Y1311*
X3788Y1305*
X3113Y159D02*
Y199D01*
X3133*
X3139Y192*
Y179*
X3133Y172*
X3113*
X3126D02*
X3139Y159D01*
X3178Y199D02*
X3165Y192D01*
X3152Y179*
Y166*
X3159Y159*
X3172*
X3178Y166*
Y172*
X3172Y179*
X3152*
X3192Y199D02*
X3218D01*
Y192*
X3192Y166*
Y159*
X3113Y247D02*
Y286D01*
X3133*
X3139Y279*
Y266*
X3133Y260*
X3113*
X3126D02*
X3139Y247D01*
X3178Y286D02*
X3165Y279D01*
X3152Y266*
Y253*
X3159Y247*
X3172*
X3178Y253*
Y260*
X3172Y266*
X3152*
X3218Y286D02*
X3205Y279D01*
X3192Y266*
Y253*
X3198Y247*
X3211*
X3218Y253*
Y260*
X3211Y266*
X3192*
X3347Y3641D02*
Y3680D01*
X3367*
X3373Y3674*
Y3661*
X3367Y3654*
X3347*
X3360D02*
X3373Y3641D01*
X3386D02*
X3399D01*
X3393*
Y3680*
X3386Y3674*
X1362Y2627D02*
Y2666D01*
X1382*
X1389Y2659*
Y2646*
X1382Y2640*
X1362*
X1375D02*
X1389Y2627D01*
X1428Y2666D02*
X1402D01*
Y2646*
X1415Y2653*
X1421*
X1428Y2646*
Y2633*
X1421Y2627*
X1408*
X1402Y2633*
X1441Y2627D02*
X1454D01*
X1448*
Y2666*
X1441Y2659*
X2456Y2620D02*
Y2659D01*
X2476*
X2482Y2652*
Y2639*
X2476Y2633*
X2456*
X2469D02*
X2482Y2620D01*
X2515D02*
Y2659D01*
X2495Y2639*
X2521*
X2554Y2620D02*
Y2659D01*
X2535Y2639*
X2561*
X1534Y2207D02*
Y2246D01*
X1554*
X1560Y2239*
Y2226*
X1554Y2220*
X1534*
X1547D02*
X1560Y2207D01*
X1573Y2239D02*
X1580Y2246D01*
X1593*
X1599Y2239*
Y2233*
X1593Y2226*
X1586*
X1593*
X1599Y2220*
Y2213*
X1593Y2207*
X1580*
X1573Y2213*
X1613Y2246D02*
X1639D01*
Y2239*
X1613Y2213*
Y2207*
X2457Y2219D02*
Y2258D01*
X2477*
X2484Y2252*
Y2239*
X2477Y2232*
X2457*
X2470D02*
X2484Y2219D01*
X2497Y2252D02*
X2503Y2258D01*
X2516*
X2523Y2252*
Y2245*
X2516Y2239*
X2510*
X2516*
X2523Y2232*
Y2226*
X2516Y2219*
X2503*
X2497Y2226*
X2536Y2252D02*
X2543Y2258D01*
X2556*
X2562Y2252*
Y2226*
X2556Y2219*
X2543*
X2536Y2226*
Y2252*
X1503Y1765D02*
Y1804D01*
X1523*
X1530Y1797*
Y1784*
X1523Y1778*
X1503*
X1517D02*
X1530Y1765D01*
X1569D02*
X1543D01*
X1569Y1791*
Y1797*
X1562Y1804*
X1549*
X1543Y1797*
X1582D02*
X1589Y1804D01*
X1602*
X1608Y1797*
Y1791*
X1602Y1784*
X1595*
X1602*
X1608Y1778*
Y1771*
X1602Y1765*
X1589*
X1582Y1771*
X2409Y1802D02*
Y1841D01*
X2429*
X2435Y1834*
Y1821*
X2429Y1815*
X2409*
X2422D02*
X2435Y1802D01*
X2448D02*
X2462D01*
X2455*
Y1841*
X2448Y1834*
X2508Y1841D02*
X2494Y1834D01*
X2481Y1821*
Y1808*
X2488Y1802*
X2501*
X2508Y1808*
Y1815*
X2501Y1821*
X2481*
X1534Y1336D02*
Y1375D01*
X1553*
X1560Y1369*
Y1356*
X1553Y1349*
X1534*
X1547D02*
X1560Y1336D01*
X1573Y1342D02*
X1580Y1336D01*
X1593*
X1599Y1342*
Y1369*
X1593Y1375*
X1580*
X1573Y1369*
Y1362*
X1580Y1356*
X1599*
X2440Y1364D02*
Y1403D01*
X2459*
X2466Y1396*
Y1383*
X2459Y1377*
X2440*
X2453D02*
X2466Y1364D01*
X2505D02*
X2479D01*
X2505Y1390*
Y1396*
X2499Y1403*
X2486*
X2479Y1396*
X3560Y405D02*
Y444D01*
X3580*
X3586Y438*
Y425*
X3580Y418*
X3560*
X3573D02*
X3586Y405D01*
X3626Y444D02*
X3613Y438D01*
X3599Y425*
Y411*
X3606Y405*
X3619*
X3626Y411*
Y418*
X3619Y425*
X3599*
X3639Y405D02*
X3652D01*
X3645*
Y444*
X3639Y438*
X3438Y405D02*
Y444D01*
X3458*
X3464Y438*
Y425*
X3458Y418*
X3438*
X3451D02*
X3464Y405D01*
X3504Y444D02*
X3490Y438D01*
X3477Y425*
Y411*
X3484Y405*
X3497*
X3504Y411*
Y418*
X3497Y425*
X3477*
X3517Y438D02*
X3523Y444D01*
X3536*
X3543Y438*
Y411*
X3536Y405*
X3523*
X3517Y411*
Y438*
X3316Y405D02*
Y444D01*
X3335*
X3342Y438*
Y425*
X3335Y418*
X3316*
X3329D02*
X3342Y405D01*
X3381Y444D02*
X3355D01*
Y425*
X3368Y431*
X3375*
X3381Y425*
Y411*
X3375Y405*
X3362*
X3355Y411*
X3394D02*
X3401Y405D01*
X3414*
X3421Y411*
Y438*
X3414Y444*
X3401*
X3394Y438*
Y431*
X3401Y425*
X3421*
X3193Y405D02*
Y444D01*
X3213*
X3220Y438*
Y425*
X3213Y418*
X3193*
X3206D02*
X3220Y405D01*
X3259Y444D02*
X3233D01*
Y425*
X3246Y431*
X3252*
X3259Y425*
Y411*
X3252Y405*
X3239*
X3233Y411*
X3272Y438D02*
X3279Y444D01*
X3292*
X3298Y438*
Y431*
X3292Y425*
X3298Y418*
Y411*
X3292Y405*
X3279*
X3272Y411*
Y418*
X3279Y425*
X3272Y431*
Y438*
X3279Y425D02*
X3292D01*
X1344Y2869D02*
Y2895D01*
X1338Y2902*
X1325*
X1318Y2895*
Y2869*
X1325Y2863*
X1338*
X1331Y2876D02*
X1344Y2863D01*
X1338D02*
X1344Y2869D01*
X1357Y2895D02*
X1364Y2902D01*
X1377*
X1384Y2895*
Y2889*
X1377Y2882*
X1384Y2876*
Y2869*
X1377Y2863*
X1364*
X1357Y2869*
Y2876*
X1364Y2882*
X1357Y2889*
Y2895*
X1364Y2882D02*
X1377D01*
X2555Y2902D02*
Y2928D01*
X2548Y2935*
X2535*
X2529Y2928*
Y2902*
X2535Y2895*
X2548*
X2542Y2909D02*
X2555Y2895D01*
X2548D02*
X2555Y2902D01*
X2568Y2935D02*
X2594D01*
Y2928*
X2568Y2902*
Y2895*
X1305Y2255D02*
Y2281D01*
X1298Y2288*
X1285*
X1278Y2281*
Y2255*
X1285Y2248*
X1298*
X1291Y2262D02*
X1305Y2248D01*
X1298D02*
X1305Y2255D01*
X1344Y2288D02*
X1331Y2281D01*
X1318Y2268*
Y2255*
X1324Y2248*
X1337*
X1344Y2255*
Y2262*
X1337Y2268*
X1318*
X2738Y2283D02*
Y2309D01*
X2731Y2316*
X2718*
X2711Y2309*
Y2283*
X2718Y2276*
X2731*
X2725Y2289D02*
X2738Y2276D01*
X2731D02*
X2738Y2283D01*
X2777Y2316D02*
X2751D01*
Y2296*
X2764Y2302*
X2770*
X2777Y2296*
Y2283*
X2770Y2276*
X2757*
X2751Y2283*
X1283Y1816D02*
Y1842D01*
X1277Y1849*
X1264*
X1257Y1842*
Y1816*
X1264Y1809*
X1277*
X1270Y1822D02*
X1283Y1809D01*
X1277D02*
X1283Y1816D01*
X1316Y1809D02*
Y1849D01*
X1297Y1829*
X1323*
X2761Y1844D02*
Y1871D01*
X2754Y1877*
X2741*
X2734Y1871*
Y1844*
X2741Y1838*
X2754*
X2747Y1851D02*
X2761Y1838D01*
X2754D02*
X2761Y1844D01*
X2774Y1871D02*
X2780Y1877D01*
X2793*
X2800Y1871*
Y1864*
X2793Y1858*
X2787*
X2793*
X2800Y1851*
Y1844*
X2793Y1838*
X2780*
X2774Y1844*
X1301Y1380D02*
Y1407D01*
X1294Y1413*
X1281*
X1275Y1407*
Y1380*
X1281Y1374*
X1294*
X1288Y1387D02*
X1301Y1374D01*
X1294D02*
X1301Y1380D01*
X1340Y1374D02*
X1314D01*
X1340Y1400*
Y1407*
X1334Y1413*
X1321*
X1314Y1407*
X2755Y1406D02*
Y1432D01*
X2748Y1438*
X2735*
X2729Y1432*
Y1406*
X2735Y1399*
X2748*
X2742Y1412D02*
X2755Y1399D01*
X2748D02*
X2755Y1406D01*
X2768Y1399D02*
X2781D01*
X2774*
Y1438*
X2768Y1432*
X2525Y413D02*
X2518Y419D01*
X2505*
X2498Y413*
Y386*
X2505Y380*
X2518*
X2525Y386*
X2564Y380D02*
X2538D01*
X2564Y406*
Y413*
X2557Y419*
X2544*
X2538Y413*
X2577D02*
X2584Y419D01*
X2597*
X2603Y413*
Y406*
X2597Y400*
X2603Y393*
Y386*
X2597Y380*
X2584*
X2577Y386*
Y393*
X2584Y400*
X2577Y406*
Y413*
X2584Y400D02*
X2597D01*
X2525Y475D02*
X2518Y482D01*
X2505*
X2498Y475*
Y449*
X2505Y442*
X2518*
X2525Y449*
X2564Y442D02*
X2538D01*
X2564Y469*
Y475*
X2557Y482*
X2544*
X2538Y475*
X2577Y482D02*
X2603D01*
Y475*
X2577Y449*
Y442*
X2525Y545D02*
X2518Y552D01*
X2505*
X2498Y545*
Y519*
X2505Y512*
X2518*
X2525Y519*
X2564Y512D02*
X2538D01*
X2564Y539*
Y545*
X2557Y552*
X2544*
X2538Y545*
X2603Y552D02*
X2590Y545D01*
X2577Y532*
Y519*
X2584Y512*
X2597*
X2603Y519*
Y526*
X2597Y532*
X2577*
X1493Y443D02*
X1487Y449D01*
X1474*
X1467Y443*
Y417*
X1474Y410*
X1487*
X1493Y417*
X1533Y410D02*
X1507D01*
X1533Y436*
Y443*
X1526Y449*
X1513*
X1507Y443*
X1572Y449D02*
X1546D01*
Y430*
X1559Y436*
X1566*
X1572Y430*
Y417*
X1566Y410*
X1552*
X1546Y417*
X3139Y109D02*
X3133Y115D01*
X3119*
X3113Y109*
Y82*
X3119Y76*
X3133*
X3139Y82*
X3178Y76D02*
X3152D01*
X3178Y102*
Y109*
X3172Y115*
X3159*
X3152Y109*
X3211Y76D02*
Y115D01*
X3192Y95*
X3218*
X1635Y721D02*
X1629Y714D01*
Y701*
X1635Y695*
X1662*
X1668Y701*
Y714*
X1662Y721*
X1635Y734D02*
X1629Y741D01*
Y754*
X1635Y760*
X1642*
X1649Y754*
Y747*
Y754*
X1655Y760*
X1662*
X1668Y754*
Y741*
X1662Y734*
X1630Y880D02*
X1623Y873D01*
Y860*
X1630Y854*
X1656*
X1663Y860*
Y873*
X1656Y880*
X1663Y919D02*
Y893D01*
X1637Y919*
X1630*
X1623Y913*
Y900*
X1630Y893*
X3833Y660D02*
X3826Y653D01*
Y640*
X3833Y634*
X3859*
X3866Y640*
Y653*
X3859Y660*
X3866Y673D02*
Y686D01*
Y679*
X3826*
X3833Y673*
X3826Y706D02*
Y732D01*
X3833*
X3859Y706*
X3866*
X3783Y660D02*
X3777Y653D01*
Y640*
X3783Y634*
X3809*
X3816Y640*
Y653*
X3809Y660*
X3816Y673D02*
Y686D01*
Y679*
X3777*
X3783Y673*
X3777Y732D02*
X3783Y719D01*
X3796Y706*
X3809*
X3816Y712*
Y725*
X3809Y732*
X3803*
X3796Y725*
Y706*
X3732Y660D02*
X3725Y653D01*
Y640*
X3732Y634*
X3758*
X3765Y640*
Y653*
X3758Y660*
X3765Y673D02*
Y686D01*
Y679*
X3725*
X3732Y673*
X3725Y732D02*
Y706D01*
X3745*
X3739Y719*
Y725*
X3745Y732*
X3758*
X3765Y725*
Y712*
X3758Y706*
X3681Y660D02*
X3674Y653D01*
Y640*
X3681Y634*
X3707*
X3713Y640*
Y653*
X3707Y660*
X3713Y673D02*
Y686D01*
Y679*
X3674*
X3681Y673*
X3713Y725D02*
X3674D01*
X3694Y706*
Y732*
G54D13*
X2021Y1094D02*
X2028D01*
Y1194*
X2021D02*
X2028D01*
X1973D02*
X1981D01*
X1973Y1094D02*
Y1194D01*
Y1094D02*
X1981D01*
X1973Y1144D02*
X2028D01*
X2049Y1194D02*
X2056D01*
X2049Y1094D02*
Y1194D01*
Y1094D02*
X2056D01*
X2096D02*
X2104D01*
Y1194*
X2096D02*
X2104D01*
X2049Y1144D02*
X2104D01*
X1546Y934D02*
X1557D01*
X1546Y823D02*
Y934D01*
Y823D02*
X1557D01*
X1589D02*
X1601D01*
Y934*
X1589D02*
X1601D01*
X1546Y878D02*
X1601D01*
X1594Y671D02*
X1606D01*
Y781*
X1594D02*
X1606D01*
X1551D02*
X1563D01*
X1551Y671D02*
Y781D01*
Y671D02*
X1563D01*
X1551Y726D02*
X1606D01*
X1594Y400D02*
Y412D01*
Y400D02*
X1704D01*
Y412*
Y444D02*
Y456D01*
X1594D02*
X1704D01*
X1594Y444D02*
Y456D01*
X1649Y400D02*
Y456D01*
X2481Y547D02*
Y558D01*
X2370D02*
X2481D01*
X2370Y547D02*
Y558D01*
Y503D02*
Y515D01*
Y503D02*
X2481D01*
Y515*
X2426Y503D02*
Y558D01*
X2481Y479D02*
Y491D01*
X2370D02*
X2481D01*
X2370Y479D02*
Y491D01*
Y436D02*
Y447D01*
Y436D02*
X2481D01*
Y447*
X2426Y436D02*
Y491D01*
X2481Y411D02*
Y423D01*
X2370D02*
X2481D01*
X2370Y411D02*
Y423D01*
Y368D02*
Y380D01*
Y368D02*
X2481D01*
Y380*
X2426Y368D02*
Y423D01*
X3037Y233D02*
Y288D01*
X2987Y281D02*
Y288D01*
X3087*
Y281D02*
Y288D01*
Y233D02*
Y241D01*
X2987Y233D02*
X3087D01*
X2987D02*
Y241D01*
X3037Y148D02*
Y203D01*
X2987Y196D02*
Y203D01*
X3087*
Y196D02*
Y203D01*
Y148D02*
Y156D01*
X2987Y148D02*
X3087D01*
X2987D02*
Y156D01*
X2977Y63D02*
Y75D01*
Y63D02*
X3087D01*
Y75*
Y107D02*
Y119D01*
X2977D02*
X3087D01*
X2977Y107D02*
Y119D01*
X3032Y63D02*
Y119D01*
X3637Y517D02*
Y525D01*
Y517D02*
X3737D01*
Y525*
Y565D02*
Y572D01*
X3637D02*
X3737D01*
X3637Y565D02*
Y572D01*
X3687Y517D02*
Y572D01*
X3519Y517D02*
Y525D01*
Y517D02*
X3619D01*
Y525*
Y565D02*
Y572D01*
X3519D02*
X3619D01*
X3519Y565D02*
Y572D01*
X3569Y517D02*
Y572D01*
X3607Y684D02*
X3662D01*
X3607Y629D02*
X3619D01*
X3607D02*
Y739D01*
X3619*
X3650D02*
X3662D01*
Y629D02*
Y739D01*
X3650Y629D02*
X3662D01*
X3509Y684D02*
X3564D01*
X3509Y629D02*
X3521D01*
X3509D02*
Y739D01*
X3521*
X3552D02*
X3564D01*
Y629D02*
Y739D01*
X3552Y629D02*
X3564D01*
X3411Y684D02*
X3466D01*
X3411Y629D02*
X3422D01*
X3411D02*
Y739D01*
X3422*
X3454D02*
X3466D01*
Y629D02*
Y739D01*
X3454Y629D02*
X3466D01*
X3401Y517D02*
Y525D01*
Y517D02*
X3501D01*
Y525*
Y565D02*
Y572D01*
X3401D02*
X3501D01*
X3401Y565D02*
Y572D01*
X3451Y517D02*
Y572D01*
X3282Y517D02*
Y525D01*
Y517D02*
X3382D01*
Y525*
Y565D02*
Y572D01*
X3282D02*
X3382D01*
X3282Y565D02*
Y572D01*
X3332Y517D02*
Y572D01*
X3312Y684D02*
X3367D01*
X3312Y629D02*
X3324D01*
X3312D02*
Y739D01*
X3324*
X3356D02*
X3367D01*
Y629D02*
Y739D01*
X3356Y629D02*
X3367D01*
X3619Y3687D02*
Y3699D01*
Y3687D02*
X3729D01*
Y3699*
Y3731D02*
Y3743D01*
X3619D02*
X3729D01*
X3619Y3731D02*
Y3743D01*
X3674Y3687D02*
Y3743D01*
X3390Y3509D02*
X3397D01*
Y3609*
X3390D02*
X3397D01*
X3342D02*
X3350D01*
X3342Y3509D02*
Y3609D01*
Y3509D02*
X3350D01*
X3342Y3559D02*
X3397D01*
G54D14*
X2846Y3088D02*
Y3893D01*
X1056D02*
X2846D01*
X1056Y3088D02*
Y3893D01*
Y3088D02*
X2846D01*
M02*