%FSLAX23Y23*%
%MOIN*%
%SFA1B1*%

%IPPOS*%
%ADD10C,0.009840*%
%ADD11C,0.023620*%
%ADD12C,0.007870*%
%ADD13C,0.005910*%
%LNrev1_0-1*%
%LPD*%
G54D10*
X2606Y1303D02*
X2599Y1308D01*
Y1299*
X2606Y1303*
Y1736D02*
X2599Y1741D01*
Y1732*
X2606Y1736*
Y2169D02*
X2599Y2174D01*
Y2165*
X2606Y2169*
X2260Y2731D02*
X2253Y2735D01*
Y2726*
X2260Y2731*
X1494D02*
X1487Y2735D01*
Y2726*
X1494Y2731*
X1497Y2038D02*
X1490Y2043D01*
Y2034*
X1497Y2038*
Y1605D02*
X1490Y1610D01*
Y1601*
X1497Y1605*
Y1172D02*
X1490Y1176D01*
Y1168*
X1497Y1172*
X857Y735D02*
X850Y739D01*
Y731*
X857Y735*
G54D11*
X822Y828D02*
X818Y837D01*
X808Y839*
X800Y833*
Y823*
X808Y816*
X818Y818*
X822Y828*
G54D12*
X2563Y1174D02*
Y1296D01*
X2473Y1174D02*
Y1296D01*
X2563*
X2473Y1174D02*
X2563D01*
Y1607D02*
Y1729D01*
X2473Y1607D02*
Y1729D01*
X2563*
X2473Y1607D02*
X2563D01*
Y2040D02*
Y2162D01*
X2473Y2040D02*
Y2162D01*
X2563*
X2473Y2040D02*
X2563D01*
X2263Y2693D02*
X2385D01*
X2263Y2603D02*
X2385D01*
X2263D02*
Y2693D01*
X2385Y2603D02*
Y2693D01*
X1619Y2603D02*
Y2693D01*
X1497Y2603D02*
Y2693D01*
Y2603D02*
X1619D01*
X1497Y2693D02*
X1619D01*
X1530Y2046D02*
Y2168D01*
X1621Y2046D02*
Y2168D01*
X1530Y2046D02*
X1621D01*
X1530Y2168D02*
X1621D01*
X1530Y1613D02*
Y1735D01*
X1621Y1613D02*
Y1735D01*
X1530Y1613D02*
X1621D01*
X1530Y1735D02*
X1621D01*
X1530Y1179D02*
Y1302D01*
X1621Y1179D02*
Y1302D01*
X1530Y1179D02*
X1621D01*
X1530Y1302D02*
X1621D01*
X338Y788D02*
X850D01*
X338Y1056D02*
X850D01*
Y788D02*
Y1056D01*
X338Y788D02*
Y1056D01*
X1462Y2669D02*
Y2637D01*
X1455Y2630*
X1442*
X1436Y2637*
Y2669*
X1423Y2630D02*
X1410D01*
X1416*
Y2669*
X1423Y2663*
X1390D02*
X1383Y2669D01*
X1370*
X1364Y2663*
Y2637*
X1370Y2630*
X1383*
X1390Y2637*
Y2663*
X2493Y2678D02*
Y2645D01*
X2487Y2638*
X2474*
X2467Y2645*
Y2678*
X2454Y2645D02*
X2447Y2638D01*
X2434*
X2428Y2645*
Y2671*
X2434Y2678*
X2447*
X2454Y2671*
Y2665*
X2447Y2658*
X2428*
X1541Y2241D02*
Y2209D01*
X1535Y2202*
X1522*
X1515Y2209*
Y2241*
X1502Y2235D02*
X1495Y2241D01*
X1482*
X1476Y2235*
Y2228*
X1482Y2222*
X1476Y2215*
Y2209*
X1482Y2202*
X1495*
X1502Y2209*
Y2215*
X1495Y2222*
X1502Y2228*
Y2235*
X1495Y2222D02*
X1482D01*
X2534Y2244D02*
Y2211D01*
X2527Y2205*
X2514*
X2508Y2211*
Y2244*
X2495D02*
X2468D01*
Y2237*
X2495Y2211*
Y2205*
X1546Y1815D02*
Y1782D01*
X1540Y1776*
X1527*
X1520Y1782*
Y1815*
X1481D02*
X1494Y1808D01*
X1507Y1795*
Y1782*
X1500Y1776*
X1487*
X1481Y1782*
Y1789*
X1487Y1795*
X1507*
X2487Y1811D02*
Y1778D01*
X2481Y1772*
X2468*
X2461Y1778*
Y1811*
X2422D02*
X2448D01*
Y1792*
X2435Y1798*
X2428*
X2422Y1792*
Y1778*
X2428Y1772*
X2441*
X2448Y1778*
X1532Y1383D02*
Y1350D01*
X1525Y1344*
X1512*
X1505Y1350*
Y1383*
X1473Y1344D02*
Y1383D01*
X1492Y1364*
X1466*
X2489Y1382D02*
Y1349D01*
X2483Y1343*
X2470*
X2463Y1349*
Y1382*
X2450Y1375D02*
X2443Y1382D01*
X2430*
X2424Y1375*
Y1369*
X2430Y1362*
X2437*
X2430*
X2424Y1356*
Y1349*
X2430Y1343*
X2443*
X2450Y1349*
X400Y1224D02*
Y1192D01*
X393Y1185*
X380*
X373Y1192*
Y1224*
X360Y1185D02*
X347D01*
X354*
Y1224*
X360Y1218*
X301Y1185D02*
X328D01*
X301Y1211*
Y1218*
X308Y1224*
X321*
X328Y1218*
X1836Y2940D02*
Y2979D01*
X1817*
X1810Y2973*
Y2960*
X1817Y2953*
X1836*
X1823D02*
X1810Y2940D01*
X1771Y2979D02*
X1797D01*
Y2960*
X1784Y2966*
X1777*
X1771Y2960*
Y2947*
X1777Y2940*
X1790*
X1797Y2947*
X1758Y2979D02*
X1731D01*
Y2973*
X1758Y2947*
Y2940*
X2167Y2944D02*
Y2983D01*
X2147*
X2141Y2977*
Y2964*
X2147Y2957*
X2167*
X2154D02*
X2141Y2944D01*
X2101Y2983D02*
X2127D01*
Y2964*
X2114Y2970*
X2108*
X2101Y2964*
Y2951*
X2108Y2944*
X2121*
X2127Y2951*
X2088Y2977D02*
X2082Y2983D01*
X2068*
X2062Y2977*
Y2951*
X2068Y2944*
X2082*
X2088Y2951*
Y2977*
X1026Y2170D02*
Y2209D01*
X1006*
X1000Y2203*
Y2189*
X1006Y2183*
X1026*
X1013D02*
X1000Y2170D01*
X967D02*
Y2209D01*
X987Y2189*
X960*
X947Y2203D02*
X941Y2209D01*
X928*
X921Y2203*
Y2196*
X928Y2189*
X934*
X928*
X921Y2183*
Y2176*
X928Y2170*
X941*
X947Y2176*
X3176Y1984D02*
Y2024D01*
X3156*
X3150Y2017*
Y2004*
X3156Y1997*
X3176*
X3163D02*
X3150Y1984D01*
X3137Y2017D02*
X3130Y2024D01*
X3117*
X3110Y2017*
Y2011*
X3117Y2004*
X3124*
X3117*
X3110Y1997*
Y1991*
X3117Y1984*
X3130*
X3137Y1991*
X3071Y2024D02*
X3084Y2017D01*
X3097Y2004*
Y1991*
X3091Y1984*
X3078*
X3071Y1991*
Y1997*
X3078Y2004*
X3097*
X1024Y1735D02*
Y1774D01*
X1004*
X998Y1767*
Y1754*
X1004Y1748*
X1024*
X1011D02*
X998Y1735D01*
X958D02*
X984D01*
X958Y1761*
Y1767*
X965Y1774*
X978*
X984Y1767*
X945Y1741D02*
X938Y1735D01*
X925*
X919Y1741*
Y1767*
X925Y1774*
X938*
X945Y1767*
Y1761*
X938Y1754*
X919*
X3167Y1552D02*
Y1591D01*
X3147*
X3140Y1585*
Y1572*
X3147Y1565*
X3167*
X3154D02*
X3140Y1552D01*
X3101D02*
X3127D01*
X3101Y1578*
Y1585*
X3108Y1591*
X3121*
X3127Y1585*
X3062Y1552D02*
X3088D01*
X3062Y1578*
Y1585*
X3068Y1591*
X3081*
X3088Y1585*
X1022Y1305D02*
Y1345D01*
X1002*
X996Y1338*
Y1325*
X1002Y1318*
X1022*
X1009D02*
X996Y1305D01*
X983D02*
X969D01*
X976*
Y1345*
X983Y1338*
X924Y1345D02*
X950D01*
Y1325*
X937Y1332*
X930*
X924Y1325*
Y1312*
X930Y1305*
X943*
X950Y1312*
X3136Y1120D02*
Y1159D01*
X3116*
X3110Y1153*
Y1139*
X3116Y1133*
X3136*
X3123D02*
X3110Y1120D01*
X3097Y1153D02*
X3090Y1159D01*
X3077*
X3070Y1153*
Y1146*
X3077Y1139*
X3070Y1133*
Y1126*
X3077Y1120*
X3090*
X3097Y1126*
Y1133*
X3090Y1139*
X3097Y1146*
Y1153*
X3090Y1139D02*
X3077D01*
X1836Y3014D02*
Y3053D01*
X1817*
X1810Y3047*
Y3034*
X1817Y3027*
X1836*
X1823D02*
X1810Y3014D01*
X1771Y3053D02*
X1797D01*
Y3034*
X1784Y3040*
X1777*
X1771Y3034*
Y3021*
X1777Y3014*
X1790*
X1797Y3021*
X1731Y3053D02*
X1745Y3047D01*
X1758Y3034*
Y3021*
X1751Y3014*
X1738*
X1731Y3021*
Y3027*
X1738Y3034*
X1758*
X2167Y3022D02*
Y3061D01*
X2147*
X2141Y3055*
Y3042*
X2147Y3035*
X2167*
X2154D02*
X2141Y3022D01*
X2108D02*
Y3061D01*
X2127Y3042*
X2101*
X2088Y3028D02*
X2082Y3022D01*
X2068*
X2062Y3028*
Y3055*
X2068Y3061*
X2082*
X2088Y3055*
Y3048*
X2082Y3042*
X2062*
X1165Y2170D02*
Y2209D01*
X1145*
X1139Y2203*
Y2189*
X1145Y2183*
X1165*
X1152D02*
X1139Y2170D01*
X1106D02*
Y2209D01*
X1126Y2189*
X1099*
X1060Y2170D02*
X1086D01*
X1060Y2196*
Y2203*
X1067Y2209*
X1080*
X1086Y2203*
X3043Y1982D02*
Y2021D01*
X3023*
X3017Y2015*
Y2002*
X3023Y1995*
X3043*
X3030D02*
X3017Y1982D01*
X3004Y2015D02*
X2997Y2021D01*
X2984*
X2977Y2015*
Y2008*
X2984Y2002*
X2991*
X2984*
X2977Y1995*
Y1989*
X2984Y1982*
X2997*
X3004Y1989*
X2938Y2021D02*
X2964D01*
Y2002*
X2951Y2008*
X2945*
X2938Y2002*
Y1989*
X2945Y1982*
X2958*
X2964Y1989*
X1160Y1735D02*
Y1774D01*
X1141*
X1134Y1767*
Y1754*
X1141Y1748*
X1160*
X1147D02*
X1134Y1735D01*
X1095D02*
X1121D01*
X1095Y1761*
Y1767*
X1101Y1774*
X1114*
X1121Y1767*
X1082D02*
X1075Y1774D01*
X1062*
X1055Y1767*
Y1761*
X1062Y1754*
X1055Y1748*
Y1741*
X1062Y1735*
X1075*
X1082Y1741*
Y1748*
X1075Y1754*
X1082Y1761*
Y1767*
X1075Y1754D02*
X1062D01*
X3038Y1552D02*
Y1591D01*
X3018*
X3012Y1585*
Y1572*
X3018Y1565*
X3038*
X3025D02*
X3012Y1552D01*
X2972D02*
X2999D01*
X2972Y1578*
Y1585*
X2979Y1591*
X2992*
X2999Y1585*
X2959Y1552D02*
X2946D01*
X2953*
Y1591*
X2959Y1585*
X1153Y1308D02*
Y1347D01*
X1133*
X1126Y1340*
Y1327*
X1133Y1321*
X1153*
X1139D02*
X1126Y1308D01*
X1113D02*
X1100D01*
X1107*
Y1347*
X1113Y1340*
X1061Y1308D02*
Y1347D01*
X1080Y1327*
X1054*
X3031Y1117D02*
Y1156D01*
X3011*
X3005Y1150*
Y1136*
X3011Y1130*
X3031*
X3018D02*
X3005Y1117D01*
X2992Y1156D02*
X2965D01*
Y1150*
X2992Y1123*
Y1117*
X1386Y2498D02*
X1346D01*
Y2478*
X1353Y2472*
X1366*
X1373Y2478*
Y2498*
Y2485D02*
X1386Y2472D01*
X1346Y2432D02*
Y2459D01*
X1366*
X1360Y2445*
Y2439*
X1366Y2432*
X1379*
X1386Y2439*
Y2452*
X1379Y2459*
X1346Y2393D02*
Y2419D01*
X1366*
X1360Y2406*
Y2400*
X1366Y2393*
X1379*
X1386Y2400*
Y2413*
X1379Y2419*
X2185Y2496D02*
X2146D01*
Y2476*
X2152Y2470*
X2165*
X2172Y2476*
Y2496*
Y2483D02*
X2185Y2470D01*
Y2437D02*
X2146D01*
X2165Y2457*
Y2430*
X2152Y2417D02*
X2146Y2411D01*
Y2398*
X2152Y2391*
X2159*
X2165Y2398*
X2172Y2391*
X2179*
X2185Y2398*
Y2411*
X2179Y2417*
X2172*
X2165Y2411*
X2159Y2417*
X2152*
X2165Y2411D02*
Y2398D01*
X1942Y1968D02*
Y2007D01*
X1922*
X1916Y2000*
Y1987*
X1922Y1981*
X1942*
X1929D02*
X1916Y1968D01*
X1883D02*
Y2007D01*
X1902Y1987*
X1876*
X1863Y1968D02*
X1850D01*
X1857*
Y2007*
X1863Y2000*
X2252Y2186D02*
Y2225D01*
X2232*
X2226Y2218*
Y2205*
X2232Y2199*
X2252*
X2239D02*
X2226Y2186D01*
X2213Y2218D02*
X2206Y2225D01*
X2193*
X2186Y2218*
Y2212*
X2193Y2205*
X2199*
X2193*
X2186Y2199*
Y2192*
X2193Y2186*
X2206*
X2213Y2192*
X2154Y2186D02*
Y2225D01*
X2173Y2205*
X2147*
X1951Y1540D02*
Y1579D01*
X1932*
X1925Y1572*
Y1559*
X1932Y1553*
X1951*
X1938D02*
X1925Y1540D01*
X1886D02*
X1912D01*
X1886Y1566*
Y1572*
X1892Y1579*
X1905*
X1912Y1572*
X1873Y1579D02*
X1846D01*
Y1572*
X1873Y1546*
Y1540*
X2253Y1747D02*
Y1786D01*
X2233*
X2227Y1779*
Y1766*
X2233Y1760*
X2253*
X2240D02*
X2227Y1747D01*
X2187D02*
X2214D01*
X2187Y1773*
Y1779*
X2194Y1786*
X2207*
X2214Y1779*
X2174D02*
X2168Y1786D01*
X2155*
X2148Y1779*
Y1753*
X2155Y1747*
X2168*
X2174Y1753*
Y1779*
X1944Y1106D02*
Y1146D01*
X1924*
X1918Y1139*
Y1126*
X1924Y1119*
X1944*
X1931D02*
X1918Y1106D01*
X1905D02*
X1891D01*
X1898*
Y1146*
X1905Y1139*
X1872D02*
X1865Y1146D01*
X1852*
X1846Y1139*
Y1133*
X1852Y1126*
X1859*
X1852*
X1846Y1119*
Y1113*
X1852Y1106*
X1865*
X1872Y1113*
X2249Y1313D02*
Y1352D01*
X2229*
X2223Y1346*
Y1332*
X2229Y1326*
X2249*
X2236D02*
X2223Y1313D01*
X2183Y1352D02*
X2197Y1346D01*
X2210Y1332*
Y1319*
X2203Y1313*
X2190*
X2183Y1319*
Y1326*
X2190Y1332*
X2210*
X1649Y2337D02*
Y2376D01*
X1629*
X1622Y2369*
Y2356*
X1629Y2350*
X1649*
X1636D02*
X1622Y2337D01*
X1583Y2376D02*
X1609D01*
Y2356*
X1596Y2363*
X1590*
X1583Y2356*
Y2343*
X1590Y2337*
X1603*
X1609Y2343*
X1550Y2337D02*
Y2376D01*
X1570Y2356*
X1544*
X2457Y2337D02*
Y2376D01*
X2438*
X2431Y2369*
Y2356*
X2438Y2350*
X2457*
X2444D02*
X2431Y2337D01*
X2398D02*
Y2376D01*
X2418Y2356*
X2392*
X2379Y2376D02*
X2352D01*
Y2369*
X2379Y2343*
Y2337*
X1955Y2103D02*
Y2142D01*
X1935*
X1929Y2135*
Y2122*
X1935Y2116*
X1955*
X1942D02*
X1929Y2103D01*
X1896D02*
Y2142D01*
X1915Y2122*
X1889*
X1876Y2135D02*
X1870Y2142D01*
X1856*
X1850Y2135*
Y2109*
X1856Y2103*
X1870*
X1876Y2109*
Y2135*
X2252Y2047D02*
Y2087D01*
X2232*
X2226Y2080*
Y2067*
X2232Y2060*
X2252*
X2239D02*
X2226Y2047D01*
X2213Y2080D02*
X2206Y2087D01*
X2193*
X2186Y2080*
Y2073*
X2193Y2067*
X2199*
X2193*
X2186Y2060*
Y2054*
X2193Y2047*
X2206*
X2213Y2054*
X2173Y2080D02*
X2167Y2087D01*
X2154*
X2147Y2080*
Y2073*
X2154Y2067*
X2160*
X2154*
X2147Y2060*
Y2054*
X2154Y2047*
X2167*
X2173Y2054*
X1951Y1675D02*
Y1714D01*
X1932*
X1925Y1708*
Y1694*
X1932Y1688*
X1951*
X1938D02*
X1925Y1675D01*
X1886D02*
X1912D01*
X1886Y1701*
Y1708*
X1892Y1714*
X1905*
X1912Y1708*
X1846Y1714D02*
X1859Y1708D01*
X1873Y1694*
Y1681*
X1866Y1675*
X1853*
X1846Y1681*
Y1688*
X1853Y1694*
X1873*
X2246Y1612D02*
Y1651D01*
X2226*
X2220Y1644*
Y1631*
X2226Y1625*
X2246*
X2233D02*
X2220Y1612D01*
X2207D02*
X2194D01*
X2200*
Y1651*
X2207Y1644*
X2174Y1618D02*
X2167Y1612D01*
X2154*
X2148Y1618*
Y1644*
X2154Y1651*
X2167*
X2174Y1644*
Y1638*
X2167Y1631*
X2148*
X1944Y1241D02*
Y1281D01*
X1924*
X1918Y1274*
Y1261*
X1924Y1254*
X1944*
X1931D02*
X1918Y1241D01*
X1905D02*
X1891D01*
X1898*
Y1281*
X1905Y1274*
X1846Y1241D02*
X1872D01*
X1846Y1268*
Y1274*
X1852Y1281*
X1865*
X1872Y1274*
X2249Y1178D02*
Y1217D01*
X2229*
X2223Y1211*
Y1197*
X2229Y1191*
X2249*
X2236D02*
X2223Y1178D01*
X2183Y1217D02*
X2210D01*
Y1197*
X2197Y1204*
X2190*
X2183Y1197*
Y1184*
X2190Y1178*
X2203*
X2210Y1184*
X1526Y2337D02*
Y2376D01*
X1506*
X1499Y2369*
Y2356*
X1506Y2350*
X1526*
X1513D02*
X1499Y2337D01*
X1460Y2376D02*
X1486D01*
Y2356*
X1473Y2363*
X1467*
X1460Y2356*
Y2343*
X1467Y2337*
X1480*
X1486Y2343*
X1447Y2369D02*
X1440Y2376D01*
X1427*
X1421Y2369*
Y2363*
X1427Y2356*
X1434*
X1427*
X1421Y2350*
Y2343*
X1427Y2337*
X1440*
X1447Y2343*
X2337Y2337D02*
Y2377D01*
X2317*
X2311Y2370*
Y2357*
X2317Y2350*
X2337*
X2324D02*
X2311Y2337D01*
X2278D02*
Y2377D01*
X2298Y2357*
X2271*
X2232Y2377D02*
X2245Y2370D01*
X2258Y2357*
Y2344*
X2252Y2337*
X2238*
X2232Y2344*
Y2350*
X2238Y2357*
X2258*
X1955Y2035D02*
Y2074D01*
X1935*
X1929Y2067*
Y2054*
X1935Y2048*
X1955*
X1942D02*
X1929Y2035D01*
X1915Y2067D02*
X1909Y2074D01*
X1896*
X1889Y2067*
Y2061*
X1896Y2054*
X1902*
X1896*
X1889Y2048*
Y2041*
X1896Y2035*
X1909*
X1915Y2041*
X1876D02*
X1870Y2035D01*
X1856*
X1850Y2041*
Y2067*
X1856Y2074*
X1870*
X1876Y2067*
Y2061*
X1870Y2054*
X1850*
X2252Y2117D02*
Y2156D01*
X2232*
X2226Y2150*
Y2137*
X2232Y2130*
X2252*
X2239D02*
X2226Y2117D01*
X2213Y2150D02*
X2206Y2156D01*
X2193*
X2186Y2150*
Y2143*
X2193Y2137*
X2199*
X2193*
X2186Y2130*
Y2124*
X2193Y2117*
X2206*
X2213Y2124*
X2147Y2117D02*
X2173D01*
X2147Y2143*
Y2150*
X2154Y2156*
X2167*
X2173Y2150*
X1951Y1607D02*
Y1646D01*
X1932*
X1925Y1639*
Y1626*
X1932Y1620*
X1951*
X1938D02*
X1925Y1607D01*
X1886D02*
X1912D01*
X1886Y1633*
Y1639*
X1892Y1646*
X1905*
X1912Y1639*
X1846Y1646D02*
X1873D01*
Y1626*
X1859Y1633*
X1853*
X1846Y1626*
Y1613*
X1853Y1607*
X1866*
X1873Y1613*
X2246Y1680D02*
Y1719D01*
X2226*
X2220Y1712*
Y1699*
X2226Y1693*
X2246*
X2233D02*
X2220Y1680D01*
X2207D02*
X2194D01*
X2200*
Y1719*
X2207Y1712*
X2174D02*
X2167Y1719D01*
X2154*
X2148Y1712*
Y1706*
X2154Y1699*
X2148Y1693*
Y1686*
X2154Y1680*
X2167*
X2174Y1686*
Y1693*
X2167Y1699*
X2174Y1706*
Y1712*
X2167Y1699D02*
X2154D01*
X1931Y1173D02*
Y1213D01*
X1911*
X1905Y1206*
Y1193*
X1911Y1186*
X1931*
X1918D02*
X1905Y1173D01*
X1891D02*
X1878D01*
X1885*
Y1213*
X1891Y1206*
X1859Y1173D02*
X1846D01*
X1852*
Y1213*
X1859Y1206*
X2249Y1246D02*
Y1285D01*
X2229*
X2223Y1279*
Y1265*
X2229Y1259*
X2249*
X2236D02*
X2223Y1246D01*
X2190D02*
Y1285D01*
X2210Y1265*
X2183*
X1733Y2498D02*
X1694D01*
Y2478*
X1700Y2472*
X1713*
X1720Y2478*
Y2498*
Y2485D02*
X1733Y2472D01*
X1694Y2432D02*
Y2459D01*
X1713*
X1707Y2445*
Y2439*
X1713Y2432*
X1727*
X1733Y2439*
Y2452*
X1727Y2459*
X1733Y2393D02*
Y2419D01*
X1707Y2393*
X1700*
X1694Y2400*
Y2413*
X1700Y2419*
X2538Y2498D02*
X2498D01*
Y2478*
X2505Y2471*
X2518*
X2524Y2478*
Y2498*
Y2484D02*
X2538Y2471D01*
Y2438D02*
X2498D01*
X2518Y2458*
Y2432*
X2498Y2393D02*
Y2419D01*
X2518*
X2511Y2406*
Y2399*
X2518Y2393*
X2531*
X2538Y2399*
Y2412*
X2531Y2419*
X1955Y2171D02*
Y2210D01*
X1935*
X1929Y2203*
Y2190*
X1935Y2184*
X1955*
X1942D02*
X1929Y2171D01*
X1915Y2203D02*
X1909Y2210D01*
X1896*
X1889Y2203*
Y2197*
X1896Y2190*
X1902*
X1896*
X1889Y2184*
Y2177*
X1896Y2171*
X1909*
X1915Y2177*
X1876Y2203D02*
X1870Y2210D01*
X1856*
X1850Y2203*
Y2197*
X1856Y2190*
X1850Y2184*
Y2177*
X1856Y2171*
X1870*
X1876Y2177*
Y2184*
X1870Y2190*
X1876Y2197*
Y2203*
X1870Y2190D02*
X1856D01*
X2252Y1975D02*
Y2014D01*
X2232*
X2226Y2008*
Y1995*
X2232Y1988*
X2252*
X2239D02*
X2226Y1975D01*
X2213Y2008D02*
X2206Y2014D01*
X2193*
X2186Y2008*
Y2001*
X2193Y1995*
X2199*
X2193*
X2186Y1988*
Y1982*
X2193Y1975*
X2206*
X2213Y1982*
X2173Y1975D02*
X2160D01*
X2167*
Y2014*
X2173Y2008*
X1951Y1742D02*
Y1781D01*
X1932*
X1925Y1774*
Y1761*
X1932Y1755*
X1951*
X1938D02*
X1925Y1742D01*
X1886D02*
X1912D01*
X1886Y1768*
Y1774*
X1892Y1781*
X1905*
X1912Y1774*
X1853Y1742D02*
Y1781D01*
X1873Y1761*
X1846*
X2246Y1545D02*
Y1584D01*
X2226*
X2220Y1577*
Y1564*
X2226Y1558*
X2246*
X2233D02*
X2220Y1545D01*
X2207D02*
X2194D01*
X2200*
Y1584*
X2207Y1577*
X2174Y1584D02*
X2148D01*
Y1577*
X2174Y1551*
Y1545*
X1944Y1308D02*
Y1348D01*
X1924*
X1918Y1341*
Y1328*
X1924Y1321*
X1944*
X1931D02*
X1918Y1308D01*
X1905D02*
X1891D01*
X1898*
Y1348*
X1905Y1341*
X1872D02*
X1865Y1348D01*
X1852*
X1846Y1341*
Y1315*
X1852Y1308*
X1865*
X1872Y1315*
Y1341*
X2249Y1110D02*
Y1149D01*
X2229*
X2223Y1143*
Y1129*
X2229Y1123*
X2249*
X2236D02*
X2223Y1110D01*
X2210Y1143D02*
X2203Y1149D01*
X2190*
X2183Y1143*
Y1136*
X2190Y1129*
X2197*
X2190*
X2183Y1123*
Y1116*
X2190Y1110*
X2203*
X2210Y1116*
X474Y369D02*
Y409D01*
X454*
X447Y402*
Y389*
X454Y382*
X474*
X461D02*
X447Y369D01*
X408Y409D02*
X421Y402D01*
X434Y389*
Y376*
X428Y369*
X415*
X408Y376*
Y382*
X415Y389*
X434*
X369Y409D02*
X395D01*
Y389*
X382Y396*
X375*
X369Y389*
Y376*
X375Y369*
X388*
X395Y376*
X597Y369D02*
Y409D01*
X577*
X570Y402*
Y389*
X577Y382*
X597*
X584D02*
X570Y369D01*
X531Y409D02*
X544Y402D01*
X557Y389*
Y376*
X551Y369*
X538*
X531Y376*
Y382*
X538Y389*
X557*
X498Y369D02*
Y409D01*
X518Y389*
X492*
X721Y369D02*
Y409D01*
X701*
X694Y402*
Y389*
X701Y382*
X721*
X708D02*
X694Y369D01*
X655Y409D02*
X668Y402D01*
X681Y389*
Y376*
X675Y369*
X662*
X655Y376*
Y382*
X662Y389*
X681*
X642Y402D02*
X635Y409D01*
X622*
X616Y402*
Y396*
X622Y389*
X629*
X622*
X616Y382*
Y376*
X622Y369*
X635*
X642Y376*
X844Y369D02*
Y409D01*
X824*
X817Y402*
Y389*
X824Y382*
X844*
X831D02*
X817Y369D01*
X778Y409D02*
X791Y402D01*
X804Y389*
Y376*
X798Y369*
X785*
X778Y376*
Y382*
X785Y389*
X804*
X739Y369D02*
X765D01*
X739Y396*
Y402*
X745Y409*
X758*
X765Y402*
X1638Y2884D02*
X1644Y2891D01*
X1657*
X1664Y2884*
Y2858*
X1657Y2851*
X1644*
X1638Y2858*
X1625Y2851D02*
X1612D01*
X1618*
Y2891*
X1625Y2884*
X1592Y2851D02*
X1579D01*
X1585*
Y2891*
X1592Y2884*
X2431Y2897D02*
X2437Y2903D01*
X2450*
X2457Y2897*
Y2870*
X2450Y2864*
X2437*
X2431Y2870*
X2418Y2864D02*
X2404D01*
X2411*
Y2903*
X2418Y2897*
X2385D02*
X2378Y2903D01*
X2365*
X2359Y2897*
Y2870*
X2365Y2864*
X2378*
X2385Y2870*
Y2897*
X1403Y2267D02*
X1409Y2274D01*
X1423*
X1429Y2267*
Y2241*
X1423Y2234*
X1409*
X1403Y2241*
X1390D02*
X1383Y2234D01*
X1370*
X1364Y2241*
Y2267*
X1370Y2274*
X1383*
X1390Y2267*
Y2261*
X1383Y2254*
X1364*
X2703Y2164D02*
X2710Y2171D01*
X2723*
X2730Y2164*
Y2138*
X2723Y2132*
X2710*
X2703Y2138*
X2690Y2164D02*
X2684Y2171D01*
X2670*
X2664Y2164*
Y2158*
X2670Y2151*
X2664Y2145*
Y2138*
X2670Y2132*
X2684*
X2690Y2138*
Y2145*
X2684Y2151*
X2690Y2158*
Y2164*
X2684Y2151D02*
X2670D01*
X1405Y1834D02*
X1412Y1840D01*
X1425*
X1431Y1834*
Y1807*
X1425Y1801*
X1412*
X1405Y1807*
X1392Y1840D02*
X1366D01*
Y1834*
X1392Y1807*
Y1801*
X2738Y1577D02*
X2731Y1584D01*
Y1597*
X2738Y1604*
X2764*
X2771Y1597*
Y1584*
X2764Y1577*
X2731Y1538D02*
X2738Y1551D01*
X2751Y1564*
X2764*
X2771Y1558*
Y1545*
X2764Y1538*
X2758*
X2751Y1545*
Y1564*
X1403Y1403D02*
X1409Y1409D01*
X1422*
X1429Y1403*
Y1376*
X1422Y1370*
X1409*
X1403Y1376*
X1363Y1409D02*
X1389D01*
Y1390*
X1376Y1396*
X1370*
X1363Y1390*
Y1376*
X1370Y1370*
X1383*
X1389Y1376*
X2741Y1149D02*
X2735Y1156D01*
Y1169*
X2741Y1175*
X2768*
X2774Y1169*
Y1156*
X2768Y1149*
X2774Y1116D02*
X2735D01*
X2754Y1136*
Y1110*
X844Y569D02*
X851Y563D01*
Y550*
X844Y543*
X818*
X811Y550*
Y563*
X818Y569*
X811Y609D02*
Y582D01*
X838Y609*
X844*
X851Y602*
Y589*
X844Y582*
Y622D02*
X851Y628D01*
Y641*
X844Y648*
X838*
X831Y641*
Y635*
Y641*
X824Y648*
X818*
X811Y641*
Y628*
X818Y622*
X907Y569D02*
X913Y563D01*
Y550*
X907Y543*
X880*
X874Y550*
Y563*
X880Y569*
X874Y609D02*
Y582D01*
X900Y609*
X907*
X913Y602*
Y589*
X907Y582*
X874Y648D02*
Y622D01*
X900Y648*
X907*
X913Y641*
Y628*
X907Y622*
X964Y569D02*
X970Y563D01*
Y550*
X964Y543*
X938*
X931Y550*
Y563*
X938Y569*
X931Y609D02*
Y582D01*
X957Y609*
X964*
X970Y602*
Y589*
X964Y582*
X931Y622D02*
Y635D01*
Y628*
X970*
X964Y622*
X1019Y569D02*
X1026Y563D01*
Y550*
X1019Y543*
X993*
X987Y550*
Y563*
X993Y569*
X987Y609D02*
Y582D01*
X1013Y609*
X1019*
X1026Y602*
Y589*
X1019Y582*
Y622D02*
X1026Y628D01*
Y641*
X1019Y648*
X993*
X987Y641*
Y628*
X993Y622*
X1019*
G54D13*
X2985Y1176D02*
X2993D01*
X2985D02*
Y1276D01*
X2993*
X3033D02*
X3040D01*
Y1176D02*
Y1276D01*
X3033Y1176D02*
X3040D01*
X2985Y1226D02*
X3040D01*
X3104Y1276D02*
X3112D01*
Y1176D02*
Y1276D01*
X3104Y1176D02*
X3112D01*
X3056D02*
X3064D01*
X3056D02*
Y1276D01*
X3064*
X3056Y1226D02*
X3112D01*
X2660Y1141D02*
X2715D01*
X2703Y1086D02*
X2715D01*
Y1196*
X2703D02*
X2715D01*
X2660D02*
X2672D01*
X2660Y1086D02*
Y1196D01*
Y1086D02*
X2672D01*
X2272Y1353D02*
Y1361D01*
X2372*
Y1353D02*
Y1361D01*
Y1306D02*
Y1313D01*
X2272Y1306D02*
X2372D01*
X2272D02*
Y1313D01*
X2322Y1306D02*
Y1361D01*
X2372Y1238D02*
Y1246D01*
X2272Y1238D02*
X2372D01*
X2272D02*
Y1246D01*
Y1286D02*
Y1293D01*
X2372*
Y1286D02*
Y1293D01*
X2322Y1238D02*
Y1293D01*
X2272Y1218D02*
Y1226D01*
X2372*
Y1218D02*
Y1226D01*
Y1171D02*
Y1178D01*
X2272Y1171D02*
X2372D01*
X2272D02*
Y1178D01*
X2322Y1171D02*
Y1226D01*
X2372Y1103D02*
Y1111D01*
X2272Y1103D02*
X2372D01*
X2272D02*
Y1111D01*
Y1151D02*
Y1158D01*
X2372*
Y1151D02*
Y1158D01*
X2322Y1103D02*
Y1158D01*
X2272Y1786D02*
Y1794D01*
X2372*
Y1786D02*
Y1794D01*
Y1739D02*
Y1746D01*
X2272Y1739D02*
X2372D01*
X2272D02*
Y1746D01*
X2322Y1739D02*
Y1794D01*
X2372Y1671D02*
Y1679D01*
X2272Y1671D02*
X2372D01*
X2272D02*
Y1679D01*
Y1719D02*
Y1726D01*
X2372*
Y1719D02*
Y1726D01*
X2322Y1671D02*
Y1726D01*
X2272Y1651D02*
Y1659D01*
X2372*
Y1651D02*
Y1659D01*
Y1604D02*
Y1611D01*
X2272Y1604D02*
X2372D01*
X2272D02*
Y1611D01*
X2322Y1604D02*
Y1659D01*
X2372Y1536D02*
Y1544D01*
X2272Y1536D02*
X2372D01*
X2272D02*
Y1544D01*
Y1584D02*
Y1591D01*
X2372*
Y1584D02*
Y1591D01*
X2322Y1536D02*
Y1591D01*
X2660Y1574D02*
X2715D01*
X2703Y1519D02*
X2715D01*
Y1629*
X2703D02*
X2715D01*
X2660D02*
X2672D01*
X2660Y1519D02*
Y1629D01*
Y1519D02*
X2672D01*
X3104Y1709D02*
X3112D01*
Y1609D02*
Y1709D01*
X3104Y1609D02*
X3112D01*
X3056D02*
X3064D01*
X3056D02*
Y1709D01*
X3064*
X3056Y1659D02*
X3112D01*
X2985Y1609D02*
X2993D01*
X2985D02*
Y1709D01*
X2993*
X3033D02*
X3040D01*
Y1609D02*
Y1709D01*
X3033Y1609D02*
X3040D01*
X2985Y1659D02*
X3040D01*
X2985Y2042D02*
X2993D01*
X2985D02*
Y2142D01*
X2993*
X3033D02*
X3040D01*
Y2042D02*
Y2142D01*
X3033Y2042D02*
X3040D01*
X2985Y2092D02*
X3040D01*
X3104Y2143D02*
X3112D01*
Y2043D02*
Y2143D01*
X3104Y2043D02*
X3112D01*
X3056D02*
X3064D01*
X3056D02*
Y2143D01*
X3064*
X3056Y2093D02*
X3112D01*
X2372Y1969D02*
Y1977D01*
X2272Y1969D02*
X2372D01*
X2272D02*
Y1977D01*
Y2017D02*
Y2024D01*
X2372*
Y2017D02*
Y2024D01*
X2322Y1969D02*
Y2024D01*
X2272Y2084D02*
Y2092D01*
X2372*
Y2084D02*
Y2092D01*
Y2037D02*
Y2044D01*
X2272Y2037D02*
X2372D01*
X2272D02*
Y2044D01*
X2322Y2037D02*
Y2092D01*
X2372Y2104D02*
Y2112D01*
X2272Y2104D02*
X2372D01*
X2272D02*
Y2112D01*
Y2152D02*
Y2159D01*
X2372*
Y2152D02*
Y2159D01*
X2322Y2104D02*
Y2159D01*
X2272Y2219D02*
Y2227D01*
X2372*
Y2219D02*
Y2227D01*
Y2172D02*
Y2179D01*
X2272Y2172D02*
X2372D01*
X2272D02*
Y2179D01*
X2322Y2172D02*
Y2227D01*
X2205Y2395D02*
X2212D01*
X2205D02*
Y2495D01*
X2212*
X2252D02*
X2260D01*
Y2395D02*
Y2495D01*
X2252Y2395D02*
X2260D01*
X2205Y2445D02*
X2260D01*
X2326Y2495D02*
X2333D01*
Y2395D02*
Y2495D01*
X2326Y2395D02*
X2333D01*
X2278D02*
X2286D01*
X2278D02*
Y2495D01*
X2286*
X2278Y2445D02*
X2333D01*
X2352Y2395D02*
X2359D01*
X2352D02*
Y2495D01*
X2359*
X2399D02*
X2407D01*
Y2395D02*
Y2495D01*
X2399Y2395D02*
X2407D01*
X2352Y2445D02*
X2407D01*
X2473Y2495D02*
X2481D01*
Y2395D02*
Y2495D01*
X2473Y2395D02*
X2481D01*
X2426D02*
X2433D01*
X2426D02*
Y2495D01*
X2433*
X2426Y2445D02*
X2481D01*
X2403Y2782D02*
Y2837D01*
X2458Y2825D02*
Y2837D01*
X2347D02*
X2458D01*
X2347Y2825D02*
Y2837D01*
Y2782D02*
Y2794D01*
Y2782D02*
X2458D01*
Y2794*
X2190Y3060D02*
Y3067D01*
X2290*
Y3060D02*
Y3067D01*
Y3012D02*
Y3020D01*
X2190Y3012D02*
X2290D01*
X2190D02*
Y3020D01*
X2240Y3012D02*
Y3067D01*
X2290Y2935D02*
Y2942D01*
X2190Y2935D02*
X2290D01*
X2190D02*
Y2942D01*
Y2982D02*
Y2990D01*
X2290*
Y2982D02*
Y2990D01*
X2240Y2935D02*
Y2990D01*
X1663Y3008D02*
Y3063D01*
X1713Y3055D02*
Y3063D01*
X1613D02*
X1713D01*
X1613Y3055D02*
Y3063D01*
Y3008D02*
Y3015D01*
Y3008D02*
X1713D01*
Y3015*
X1663Y2936D02*
Y2991D01*
X1613Y2936D02*
Y2943D01*
Y2936D02*
X1713D01*
Y2943*
Y2983D02*
Y2991D01*
X1613D02*
X1713D01*
X1613Y2983D02*
Y2991D01*
X1546Y2445D02*
X1601D01*
X1594Y2395D02*
X1601D01*
Y2495*
X1594D02*
X1601D01*
X1546D02*
X1554D01*
X1546Y2395D02*
Y2495D01*
Y2395D02*
X1554D01*
X1475Y2445D02*
X1530D01*
X1475Y2495D02*
X1483D01*
X1475Y2395D02*
Y2495D01*
Y2395D02*
X1483D01*
X1523D02*
X1530D01*
Y2495*
X1523D02*
X1530D01*
X1617Y2445D02*
X1672D01*
X1617Y2495D02*
X1625D01*
X1617Y2395D02*
Y2495D01*
Y2395D02*
X1625D01*
X1665D02*
X1672D01*
Y2495*
X1665D02*
X1672D01*
X1822Y1961D02*
Y1969D01*
X1722Y1961D02*
X1822D01*
X1722D02*
Y1969D01*
Y2009D02*
Y2017D01*
X1822*
Y2009D02*
Y2017D01*
X1772Y1961D02*
Y2017D01*
X1722Y2077D02*
Y2084D01*
X1822*
Y2077D02*
Y2084D01*
Y2029D02*
Y2037D01*
X1722Y2029D02*
X1822D01*
X1722D02*
Y2037D01*
X1772Y2029D02*
Y2084D01*
X1822Y2097D02*
Y2104D01*
X1722Y2097D02*
X1822D01*
X1722D02*
Y2104D01*
Y2144D02*
Y2152D01*
X1822*
Y2144D02*
Y2152D01*
X1772Y2097D02*
Y2152D01*
X1722Y2212D02*
Y2219D01*
X1822*
Y2212D02*
Y2219D01*
Y2164D02*
Y2172D01*
X1722Y2164D02*
X1822D01*
X1722D02*
Y2172D01*
X1772Y2164D02*
Y2219D01*
X1377Y2151D02*
X1432D01*
X1377Y2206D02*
X1389D01*
X1377Y2096D02*
Y2206D01*
Y2096D02*
X1389D01*
X1420D02*
X1432D01*
Y2206*
X1420D02*
X1432D01*
X1096Y2142D02*
X1104D01*
Y2042D02*
Y2142D01*
X1096Y2042D02*
X1104D01*
X1049D02*
X1056D01*
X1049D02*
Y2142D01*
X1056*
X1049Y2092D02*
X1104D01*
X977Y2041D02*
X985D01*
X977D02*
Y2141D01*
X985*
X1025D02*
X1032D01*
Y2041D02*
Y2141D01*
X1025Y2041D02*
X1032D01*
X977Y2091D02*
X1032D01*
X977Y1608D02*
X985D01*
X977D02*
Y1708D01*
X985*
X1025D02*
X1032D01*
Y1608D02*
Y1708D01*
X1025Y1608D02*
X1032D01*
X977Y1658D02*
X1032D01*
X1096Y1709D02*
X1104D01*
Y1609D02*
Y1709D01*
X1096Y1609D02*
X1104D01*
X1049D02*
X1056D01*
X1049D02*
Y1709D01*
X1056*
X1049Y1659D02*
X1104D01*
X1377Y1718D02*
X1432D01*
X1377Y1773D02*
X1389D01*
X1377Y1662D02*
Y1773D01*
Y1662D02*
X1389D01*
X1420D02*
X1432D01*
Y1773*
X1420D02*
X1432D01*
X1722Y1779D02*
Y1786D01*
X1822*
Y1779D02*
Y1786D01*
Y1731D02*
Y1739D01*
X1722Y1731D02*
X1822D01*
X1722D02*
Y1739D01*
X1772Y1731D02*
Y1786D01*
X1822Y1663D02*
Y1671D01*
X1722Y1663D02*
X1822D01*
X1722D02*
Y1671D01*
Y1711D02*
Y1719D01*
X1822*
Y1711D02*
Y1719D01*
X1772Y1663D02*
Y1719D01*
X1722Y1644D02*
Y1651D01*
X1822*
Y1644D02*
Y1651D01*
Y1596D02*
Y1604D01*
X1722Y1596D02*
X1822D01*
X1722D02*
Y1604D01*
X1772Y1596D02*
Y1651D01*
X1822Y1528D02*
Y1536D01*
X1722Y1528D02*
X1822D01*
X1722D02*
Y1536D01*
Y1576D02*
Y1584D01*
X1822*
Y1576D02*
Y1584D01*
X1772Y1528D02*
Y1584D01*
X1822Y1095D02*
Y1103D01*
X1722Y1095D02*
X1822D01*
X1722D02*
Y1103D01*
Y1143D02*
Y1150D01*
X1822*
Y1143D02*
Y1150D01*
X1772Y1095D02*
Y1150D01*
X1722Y1210D02*
Y1218D01*
X1822*
Y1210D02*
Y1218D01*
Y1163D02*
Y1170D01*
X1722Y1163D02*
X1822D01*
X1722D02*
Y1170D01*
X1772Y1163D02*
Y1218D01*
X1722Y1346D02*
Y1353D01*
X1822*
Y1346D02*
Y1353D01*
Y1298D02*
Y1306D01*
X1722Y1298D02*
X1822D01*
X1722D02*
Y1306D01*
X1772Y1298D02*
Y1353D01*
X1822Y1230D02*
Y1238D01*
X1722Y1230D02*
X1822D01*
X1722D02*
Y1238D01*
Y1278D02*
Y1286D01*
X1822*
Y1278D02*
Y1286D01*
X1772Y1230D02*
Y1286D01*
X1377Y1284D02*
X1432D01*
X1377Y1340D02*
X1389D01*
X1377Y1229D02*
Y1340D01*
Y1229D02*
X1389D01*
X1420D02*
X1432D01*
Y1340*
X1420D02*
X1432D01*
X977Y1175D02*
X985D01*
X977D02*
Y1275D01*
X985*
X1025D02*
X1032D01*
Y1175D02*
Y1275D01*
X1025Y1175D02*
X1032D01*
X977Y1225D02*
X1032D01*
X441Y593D02*
X496D01*
X484Y538D02*
X496D01*
Y648*
X484D02*
X496D01*
X441D02*
X453D01*
X441Y538D02*
Y648D01*
Y538D02*
X453D01*
X539Y593D02*
X594D01*
X582Y538D02*
X594D01*
Y648*
X582D02*
X594D01*
X539D02*
X551D01*
X539Y538D02*
Y648D01*
Y538D02*
X551D01*
X637Y593D02*
X692D01*
X681Y538D02*
X692D01*
Y648*
X681D02*
X692D01*
X637D02*
X649D01*
X637Y538D02*
Y648D01*
Y538D02*
X649D01*
X736Y593D02*
X791D01*
X779Y538D02*
X791D01*
Y648*
X779D02*
X791D01*
X736D02*
X747D01*
X736Y538D02*
Y648D01*
Y538D02*
X747D01*
X468Y436D02*
Y443D01*
X368Y436D02*
X468D01*
X368D02*
Y443D01*
Y483D02*
Y491D01*
X468*
Y483D02*
Y491D01*
X418Y436D02*
Y491D01*
X591Y436D02*
Y443D01*
X491Y436D02*
X591D01*
X491D02*
Y443D01*
Y483D02*
Y491D01*
X591*
Y483D02*
Y491D01*
X541Y436D02*
Y491D01*
X714Y436D02*
Y443D01*
X614Y436D02*
X714D01*
X614D02*
Y443D01*
Y483D02*
Y491D01*
X714*
Y483D02*
Y491D01*
X664Y436D02*
Y491D01*
X838Y436D02*
Y443D01*
X738Y436D02*
X838D01*
X738D02*
Y443D01*
Y483D02*
Y491D01*
X838*
Y483D02*
Y491D01*
X788Y436D02*
Y491D01*
X1049Y1226D02*
X1104D01*
X1049Y1276D02*
X1056D01*
X1049Y1176D02*
Y1276D01*
Y1176D02*
X1056D01*
X1096D02*
X1104D01*
Y1276*
X1096D02*
X1104D01*
X2659Y1990D02*
X2671D01*
X2659D02*
Y2100D01*
X2671*
X2702D02*
X2714D01*
Y1990D02*
Y2100D01*
X2702Y1990D02*
X2714D01*
X2659Y2045D02*
X2714D01*
X1619Y2774D02*
Y2829D01*
X1674Y2817D02*
Y2829D01*
X1564D02*
X1674D01*
X1564Y2817D02*
Y2829D01*
Y2774D02*
Y2786D01*
Y2774D02*
X1674D01*
Y2786*
X1404Y2395D02*
X1412D01*
X1404D02*
Y2495D01*
X1412*
X1452D02*
X1459D01*
Y2395D02*
Y2495D01*
X1452Y2395D02*
X1459D01*
X1404Y2445D02*
X1459D01*
M02*