%FSLAX23Y23*%
%MOIN*%
%SFA1B1*%

%IPPOS*%
%AMD15*
4,1,8,-0.005900,-0.037400,0.005900,-0.037400,0.011800,-0.031500,0.011800,0.031500,0.005900,0.037400,-0.005900,0.037400,-0.011800,0.031500,-0.011800,-0.031500,-0.005900,-0.037400,0.0*
1,1,0.011820,-0.005900,-0.031500*
1,1,0.011820,0.005900,-0.031500*
1,1,0.011820,0.005900,0.031500*
1,1,0.011820,-0.005900,0.031500*
%
%AMD63*
4,1,8,-0.017500,0.004100,-0.017500,-0.004100,-0.013400,-0.008300,0.013400,-0.008300,0.017500,-0.004100,0.017500,0.004100,0.013400,0.008300,-0.013400,0.008300,-0.017500,0.004100,0.0*
1,1,0.008260,-0.013400,0.004100*
1,1,0.008260,-0.013400,-0.004100*
1,1,0.008260,0.013400,-0.004100*
1,1,0.008260,0.013400,0.004100*
%
%AMD64*
4,1,8,-0.004100,-0.017500,0.004100,-0.017500,0.008300,-0.013400,0.008300,0.013400,0.004100,0.017500,-0.004100,0.017500,-0.008300,0.013400,-0.008300,-0.013400,-0.004100,-0.017500,0.0*
1,1,0.008260,-0.004100,-0.013400*
1,1,0.008260,0.004100,-0.013400*
1,1,0.008260,0.004100,0.013400*
1,1,0.008260,-0.004100,0.013400*
%
%ADD11C,0.023620*%
G04~CAMADD=15~8~0.0~0.0~236.2~748.0~59.1~0.0~15~0.0~0.0~0.0~0.0~0~0.0~0.0~0.0~0.0~0~0.0~0.0~0.0~180.0~236.0~748.0*
%ADD15D15*%
%ADD19R,0.037400X0.033470*%
%ADD20R,0.039370X0.035430*%
%ADD21R,0.035430X0.039370*%
%ADD22R,0.033470X0.037400*%
%ADD53C,0.011810*%
%ADD54C,0.019680*%
%ADD58C,0.129920*%
%ADD59C,0.086610*%
%ADD60C,0.035430*%
%ADD61R,0.035430X0.035430*%
%ADD62C,0.020000*%
G04~CAMADD=63~8~0.0~0.0~165.4~350.0~41.3~0.0~15~0.0~0.0~0.0~0.0~0~0.0~0.0~0.0~0.0~0~0.0~0.0~0.0~90.0~350.0~166.0*
%ADD63D63*%
G04~CAMADD=64~8~0.0~0.0~165.4~350.0~41.3~0.0~15~0.0~0.0~0.0~0.0~0~0.0~0.0~0.0~0.0~0~0.0~0.0~0.0~180.0~166.0~350.0*
%ADD64D64*%
%LNrev1_0-1*%
%LPD*%
G36*
X3796Y3866D02*
X3813Y3861D01*
X3828Y3853*
X3842Y3842*
X3853Y3828*
X3861Y3813*
X3866Y3796*
X3867Y3780*
X3867Y3779*
Y118*
X3867Y117*
X3866Y100*
X3861Y84*
X3853Y68*
X3842Y55*
X3828Y44*
X3813Y36*
X3796Y31*
X3780Y29*
X3779Y29*
X118*
X117Y29*
X100Y31*
X84Y36*
X68Y44*
X55Y55*
X44Y68*
X36Y84*
X31Y100*
X29Y117*
X29Y118*
Y3779*
X29Y3780*
X31Y3796*
X36Y3813*
X44Y3828*
X55Y3842*
X68Y3853*
X84Y3861*
X100Y3866*
X117Y3867*
X118Y3867*
X3779*
X3780Y3867*
X3796Y3866*
G37*
%LNrev1_0-2*%
%LPC*%
G36*
X2706Y3831D02*
X2692Y3829D01*
X2679Y3825*
X2667Y3819*
X2656Y3810*
X2647Y3799*
X2640Y3787*
X2636Y3773*
X2635Y3759*
X2636Y3745*
X2640Y3732*
X2647Y3720*
X2656Y3709*
X2667Y3700*
X2679Y3693*
X2692Y3689*
X2706Y3688*
X2720Y3689*
X2733Y3693*
X2746Y3700*
X2757Y3709*
X2765Y3720*
X2772Y3732*
X2776Y3745*
X2778Y3759*
X2776Y3773*
X2772Y3787*
X2765Y3799*
X2757Y3810*
X2746Y3819*
X2733Y3825*
X2720Y3829*
X2706Y3831*
G37*
G36*
X1190D02*
X1177Y3829D01*
X1163Y3825*
X1151Y3819*
X1140Y3810*
X1131Y3799*
X1125Y3787*
X1121Y3773*
X1119Y3759*
X1121Y3745*
X1125Y3732*
X1131Y3720*
X1140Y3709*
X1151Y3700*
X1163Y3693*
X1177Y3689*
X1190Y3688*
X1204Y3689*
X1218Y3693*
X1230Y3700*
X1241Y3709*
X1250Y3720*
X1256Y3732*
X1260Y3745*
X1262Y3759*
X1260Y3773*
X1256Y3787*
X1250Y3799*
X1241Y3810*
X1230Y3819*
X1218Y3825*
X1204Y3829*
X1190Y3831*
G37*
G36*
X1527Y3671D02*
X1520Y3670D01*
X1515Y3666*
X1511Y3661*
Y3661*
X1509Y3659*
X1500Y3651*
X962*
X951Y3662*
X950Y3663*
X947Y3666*
X942Y3670*
X936Y3671*
X930Y3670*
X924Y3666*
X921Y3661*
X920Y3655*
X921Y3649*
X924Y3643*
Y3640*
X921Y3635*
X920Y3629*
X921Y3623*
X924Y3617*
Y3614*
X921Y3609*
X920Y3603*
X921Y3597*
X924Y3591*
Y3588*
X921Y3583*
X920Y3577*
X921Y3571*
X924Y3565*
X930Y3562*
X936Y3561*
X942Y3562*
X947Y3565*
X951Y3571*
Y3571*
X952Y3572*
X1510*
X1511Y3570*
Y3570*
X1512Y3569*
X1515Y3565*
X1520Y3562*
X1527Y3561*
X1533Y3562*
X1537Y3565*
X1644*
X1674Y3535*
X1669Y3528*
X1664Y3516*
X1662Y3503*
X1664Y3491*
X1669Y3479*
X1677Y3468*
X1687Y3460*
X1699Y3455*
X1712Y3454*
X1725Y3455*
X1737Y3460*
X1747Y3468*
X1755Y3479*
X1760Y3491*
X1762Y3503*
X1760Y3516*
X1755Y3528*
X1747Y3539*
X1737Y3547*
X1725Y3551*
X1712Y3553*
X1699Y3551*
X1694Y3549*
X1658Y3585*
X1657Y3586*
X1659Y3591*
X1747*
X1784Y3554*
X1785Y3551*
X1787Y3547*
X1795Y3539*
X1795Y3539*
X1787Y3528*
X1782Y3516*
X1780Y3503*
X1782Y3491*
X1787Y3479*
X1795Y3468*
X1805Y3460*
X1817Y3455*
X1830Y3454*
X1843Y3455*
X1855Y3460*
X1865Y3468*
X1873Y3479*
X1878Y3491*
X1880Y3503*
X1878Y3516*
X1873Y3528*
X1865Y3539*
X1855Y3547*
X1843Y3551*
X1830Y3553*
X1817Y3551*
X1817Y3551*
X1808Y3561*
X1807Y3564*
X1805Y3568*
X1761Y3611*
X1760Y3612*
X1762Y3617*
X1835*
X1913Y3539*
X1905Y3528*
X1900Y3516*
X1899Y3503*
X1900Y3491*
X1905Y3479*
X1913Y3468*
X1923Y3460*
X1935Y3455*
X1948Y3454*
X1961Y3455*
X1973Y3460*
X1983Y3468*
X1991Y3479*
X1996Y3491*
X1998Y3503*
X1996Y3516*
X1991Y3528*
X1983Y3539*
X1973Y3547*
X1961Y3551*
X1948Y3553*
X1935Y3551*
X1935Y3551*
X1849Y3637*
X1848Y3638*
X1850Y3643*
X1926*
X2031Y3538*
X2023Y3528*
X2018Y3516*
X2017Y3503*
X2018Y3491*
X2023Y3479*
X2031Y3468*
X2042Y3460*
X2054Y3455*
X2066Y3454*
X2079Y3455*
X2091Y3460*
X2102Y3468*
X2110Y3479*
X2114Y3491*
X2116Y3503*
X2114Y3516*
X2110Y3528*
X2102Y3539*
X2091Y3547*
X2079Y3551*
X2066Y3553*
X2054Y3551*
X2052Y3551*
X1939Y3663*
X1935Y3666*
X1931Y3667*
X1537*
X1533Y3670*
X1527Y3671*
G37*
G36*
X2922Y3636D02*
X2916Y3634D01*
X2911Y3631*
X2269*
X2264Y3630*
X2260Y3628*
X2189Y3557*
X2187Y3553*
X2185Y3553*
X2172Y3551*
X2160Y3547*
X2149Y3539*
X2141Y3528*
X2137Y3516*
X2135Y3503*
X2137Y3491*
X2141Y3479*
X2149Y3468*
X2160Y3460*
X2172Y3455*
X2185Y3454*
X2197Y3455*
X2209Y3460*
X2220Y3468*
X2228Y3479*
X2233Y3491*
X2234Y3503*
X2233Y3516*
X2228Y3528*
X2220Y3539*
X2215Y3543*
X2214Y3548*
X2274Y3607*
X2911*
X2916Y3604*
X2922Y3603*
X2928Y3604*
X2934Y3608*
X2937Y3613*
X2938Y3619*
X2937Y3626*
X2934Y3631*
X2928Y3634*
X2922Y3636*
G37*
G36*
X2891Y3594D02*
D01*
X2366*
X2361Y3593*
X2358Y3591*
X2317Y3551*
X2316Y3551*
X2303Y3553*
X2290Y3551*
X2278Y3547*
X2267Y3539*
X2260Y3528*
X2255Y3516*
X2253Y3503*
X2255Y3491*
X2260Y3479*
X2267Y3468*
X2278Y3460*
X2290Y3455*
X2303Y3454*
X2316Y3455*
X2328Y3460*
X2338Y3468*
X2346Y3479*
X2351Y3491*
X2352Y3503*
X2351Y3516*
X2346Y3528*
X2339Y3538*
X2371Y3570*
X2886*
X2891Y3565*
X2891Y3562*
X2895Y3557*
X2900Y3553*
X2906Y3552*
X2913Y3553*
X2918Y3557*
X2921Y3562*
X2923Y3569*
X2921Y3575*
X2918Y3580*
X2913Y3584*
X2906Y3585*
X2905Y3585*
X2899Y3591*
X2895Y3593*
X2891Y3594*
G37*
G36*
X1604Y3556D02*
Y3513D01*
X1646*
X1646Y3517*
X1641Y3530*
X1632Y3541*
X1621Y3550*
X1608Y3555*
X1604Y3556*
G37*
G36*
X1584D02*
X1580Y3555D01*
X1567Y3550*
X1556Y3541*
X1547Y3530*
X1542Y3517*
X1542Y3513*
X1584*
Y3556*
G37*
G36*
X2421Y3553D02*
X2408Y3551D01*
X2396Y3547*
X2386Y3539*
X2378Y3528*
X2373Y3516*
X2371Y3503*
X2373Y3491*
X2378Y3479*
X2386Y3468*
X2396Y3460*
X2408Y3455*
X2421Y3454*
X2434Y3455*
X2446Y3460*
X2456Y3468*
X2464Y3479*
X2469Y3491*
X2470Y3503*
X2469Y3516*
X2464Y3528*
X2456Y3539*
X2446Y3547*
X2434Y3551*
X2421Y3553*
G37*
G36*
X1476D02*
X1463Y3551D01*
X1451Y3547*
X1441Y3539*
X1433Y3528*
X1428Y3516*
X1426Y3503*
X1428Y3491*
X1433Y3479*
X1441Y3468*
X1451Y3460*
X1463Y3455*
X1476Y3454*
X1489Y3455*
X1501Y3460*
X1511Y3468*
X1519Y3479*
X1524Y3491*
X1526Y3503*
X1524Y3516*
X1519Y3528*
X1511Y3539*
X1501Y3547*
X1489Y3551*
X1476Y3553*
G37*
G36*
X1646Y3494D02*
X1604D01*
Y3451*
X1608Y3452*
X1621Y3457*
X1632Y3465*
X1641Y3477*
X1646Y3490*
X1646Y3494*
G37*
G36*
X1584D02*
X1542D01*
X1542Y3490*
X1547Y3477*
X1556Y3465*
X1567Y3457*
X1580Y3452*
X1584Y3451*
Y3494*
G37*
G36*
X2017Y3457D02*
Y3415D01*
X2060*
X2059Y3419*
X2054Y3432*
X2045Y3443*
X2034Y3452*
X2021Y3457*
X2017Y3457*
G37*
G36*
X1781D02*
Y3415D01*
X1824*
X1823Y3419*
X1818Y3432*
X1809Y3443*
X1798Y3452*
X1785Y3457*
X1781Y3457*
G37*
G36*
X2253D02*
Y3415D01*
X2296*
X2296Y3419*
X2290Y3432*
X2282Y3443*
X2270Y3452*
X2258Y3457*
X2253Y3457*
G37*
G36*
X1663D02*
Y3415D01*
X1706*
X1705Y3419*
X1700Y3432*
X1691Y3443*
X1680Y3452*
X1667Y3457*
X1663Y3457*
G37*
G36*
X1899D02*
Y3415D01*
X1942*
X1941Y3419*
X1936Y3432*
X1927Y3443*
X1916Y3452*
X1903Y3457*
X1899Y3457*
G37*
G36*
X2135D02*
Y3415D01*
X2178*
X2177Y3419*
X2172Y3432*
X2164Y3443*
X2152Y3452*
X2139Y3457*
X2135Y3457*
G37*
G36*
X1879D02*
X1875Y3457D01*
X1862Y3452*
X1851Y3443*
X1843Y3432*
X1837Y3419*
X1837Y3415*
X1879*
Y3457*
G37*
G36*
X2116D02*
X2112Y3457D01*
X2099Y3452*
X2087Y3443*
X2079Y3432*
X2074Y3419*
X2073Y3415*
X2116*
Y3457*
G37*
G36*
X1761D02*
X1757Y3457D01*
X1744Y3452*
X1733Y3443*
X1725Y3432*
X1719Y3419*
X1719Y3415*
X1761*
Y3457*
G37*
G36*
X2234D02*
X2230Y3457D01*
X2217Y3452*
X2206Y3443*
X2197Y3432*
X2192Y3419*
X2191Y3415*
X2234*
Y3457*
G37*
G36*
X1643D02*
X1639Y3457D01*
X1626Y3452*
X1615Y3443*
X1606Y3432*
X1601Y3419*
X1601Y3415*
X1643*
Y3457*
G37*
G36*
X1998D02*
X1993Y3457D01*
X1980Y3452*
X1969Y3443*
X1961Y3432*
X1955Y3419*
X1955Y3415*
X1998*
Y3457*
G37*
G36*
X2362Y3455D02*
X2349Y3453D01*
X2337Y3448*
X2327Y3440*
X2319Y3430*
X2314Y3418*
X2312Y3405*
X2314Y3392*
X2319Y3380*
X2327Y3370*
X2337Y3362*
X2349Y3357*
X2362Y3355*
X2375Y3357*
X2387Y3362*
X2397Y3370*
X2405Y3380*
X2410Y3392*
X2411Y3405*
X2410Y3418*
X2405Y3430*
X2397Y3440*
X2387Y3448*
X2375Y3453*
X2362Y3455*
G37*
G36*
X1535D02*
X1522Y3453D01*
X1510Y3448*
X1500Y3440*
X1492Y3430*
X1487Y3418*
X1485Y3405*
X1487Y3392*
X1492Y3380*
X1500Y3370*
X1510Y3362*
X1522Y3357*
X1535Y3355*
X1548Y3357*
X1560Y3362*
X1570Y3370*
X1578Y3380*
X1583Y3392*
X1585Y3405*
X1583Y3418*
X1578Y3430*
X1570Y3440*
X1560Y3448*
X1548Y3453*
X1535Y3455*
G37*
G36*
X2060Y3395D02*
X2017D01*
Y3353*
X2021Y3353*
X2034Y3358*
X2045Y3367*
X2054Y3378*
X2059Y3391*
X2060Y3395*
G37*
G36*
X2116D02*
X2073D01*
X2074Y3391*
X2079Y3378*
X2087Y3367*
X2099Y3358*
X2112Y3353*
X2116Y3353*
Y3395*
G37*
G36*
X1879D02*
X1837D01*
X1837Y3391*
X1843Y3378*
X1851Y3367*
X1862Y3358*
X1875Y3353*
X1879Y3353*
Y3395*
G37*
G36*
X2296D02*
X2253D01*
Y3353*
X2258Y3353*
X2270Y3358*
X2282Y3367*
X2290Y3378*
X2296Y3391*
X2296Y3395*
G37*
G36*
X1824D02*
X1781D01*
Y3353*
X1785Y3353*
X1798Y3358*
X1809Y3367*
X1818Y3378*
X1823Y3391*
X1824Y3395*
G37*
G36*
X1706D02*
X1663D01*
Y3353*
X1667Y3353*
X1680Y3358*
X1691Y3367*
X1700Y3378*
X1705Y3391*
X1706Y3395*
G37*
G36*
X2234D02*
X2191D01*
X2192Y3391*
X2197Y3378*
X2206Y3367*
X2217Y3358*
X2230Y3353*
X2234Y3353*
Y3395*
G37*
G36*
X1761D02*
X1719D01*
X1719Y3391*
X1725Y3378*
X1733Y3367*
X1744Y3358*
X1757Y3353*
X1761Y3353*
Y3395*
G37*
G36*
X1643D02*
X1601D01*
X1601Y3391*
X1606Y3378*
X1615Y3367*
X1626Y3358*
X1639Y3353*
X1643Y3353*
Y3395*
G37*
G36*
X2178D02*
X2135D01*
Y3353*
X2139Y3353*
X2152Y3358*
X2164Y3367*
X2172Y3378*
X2177Y3391*
X2178Y3395*
G37*
G36*
X1942D02*
X1899D01*
Y3353*
X1903Y3353*
X1916Y3358*
X1927Y3367*
X1936Y3378*
X1941Y3391*
X1942Y3395*
G37*
G36*
X1998D02*
X1955D01*
X1955Y3391*
X1961Y3378*
X1969Y3367*
X1980Y3358*
X1993Y3353*
X1998Y3353*
Y3395*
G37*
G36*
X2017Y3339D02*
Y3297D01*
X2060*
X2059Y3301*
X2054Y3314*
X2045Y3325*
X2034Y3333*
X2021Y3339*
X2017Y3339*
G37*
G36*
X1781D02*
Y3297D01*
X1824*
X1823Y3301*
X1818Y3314*
X1809Y3325*
X1798Y3333*
X1785Y3339*
X1781Y3339*
G37*
G36*
X2253D02*
Y3297D01*
X2296*
X2296Y3301*
X2290Y3314*
X2282Y3325*
X2270Y3333*
X2258Y3339*
X2253Y3339*
G37*
G36*
X1663D02*
Y3297D01*
X1706*
X1705Y3301*
X1700Y3314*
X1691Y3325*
X1680Y3333*
X1667Y3339*
X1663Y3339*
G37*
G36*
X1899D02*
Y3297D01*
X1942*
X1941Y3301*
X1936Y3314*
X1927Y3325*
X1916Y3333*
X1903Y3339*
X1899Y3339*
G37*
G36*
X2135D02*
Y3297D01*
X2178*
X2177Y3301*
X2172Y3314*
X2164Y3325*
X2152Y3333*
X2139Y3339*
X2135Y3339*
G37*
G36*
X1879D02*
X1875Y3339D01*
X1862Y3333*
X1851Y3325*
X1843Y3314*
X1837Y3301*
X1837Y3297*
X1879*
Y3339*
G37*
G36*
X2116D02*
X2112Y3339D01*
X2099Y3333*
X2087Y3325*
X2079Y3314*
X2074Y3301*
X2073Y3297*
X2116*
Y3339*
G37*
G36*
X1761D02*
X1757Y3339D01*
X1744Y3333*
X1733Y3325*
X1725Y3314*
X1719Y3301*
X1719Y3297*
X1761*
Y3339*
G37*
G36*
X2234D02*
X2230Y3339D01*
X2217Y3333*
X2206Y3325*
X2197Y3314*
X2192Y3301*
X2191Y3297*
X2234*
Y3339*
G37*
G36*
X1643D02*
X1639Y3339D01*
X1626Y3333*
X1615Y3325*
X1606Y3314*
X1601Y3301*
X1601Y3297*
X1643*
Y3339*
G37*
G36*
X1998D02*
X1993Y3339D01*
X1980Y3333*
X1969Y3325*
X1961Y3314*
X1955Y3301*
X1955Y3297*
X1998*
Y3339*
G37*
G36*
X2362Y3337D02*
X2349Y3335D01*
X2337Y3330*
X2327Y3322*
X2319Y3312*
X2314Y3300*
X2312Y3287*
X2314Y3274*
X2319Y3262*
X2327Y3252*
X2337Y3244*
X2349Y3239*
X2362Y3237*
X2375Y3239*
X2387Y3244*
X2397Y3252*
X2405Y3262*
X2410Y3274*
X2411Y3287*
X2410Y3300*
X2405Y3312*
X2397Y3322*
X2387Y3330*
X2375Y3335*
X2362Y3337*
G37*
G36*
X1535D02*
X1522Y3335D01*
X1510Y3330*
X1500Y3322*
X1492Y3312*
X1487Y3300*
X1485Y3287*
X1487Y3274*
X1492Y3262*
X1500Y3252*
X1510Y3244*
X1522Y3239*
X1535Y3237*
X1548Y3239*
X1560Y3244*
X1570Y3252*
X1578Y3262*
X1583Y3274*
X1585Y3287*
X1583Y3300*
X1578Y3312*
X1570Y3322*
X1560Y3330*
X1548Y3335*
X1535Y3337*
G37*
G36*
X2060Y3277D02*
X2017D01*
Y3234*
X2021Y3235*
X2034Y3240*
X2045Y3249*
X2054Y3260*
X2059Y3273*
X2060Y3277*
G37*
G36*
X2116D02*
X2073D01*
X2074Y3273*
X2079Y3260*
X2087Y3249*
X2099Y3240*
X2112Y3235*
X2116Y3234*
Y3277*
G37*
G36*
X1879D02*
X1837D01*
X1837Y3273*
X1843Y3260*
X1851Y3249*
X1862Y3240*
X1875Y3235*
X1879Y3234*
Y3277*
G37*
G36*
X2296D02*
X2253D01*
Y3234*
X2258Y3235*
X2270Y3240*
X2282Y3249*
X2290Y3260*
X2296Y3273*
X2296Y3277*
G37*
G36*
X1824D02*
X1781D01*
Y3234*
X1785Y3235*
X1798Y3240*
X1809Y3249*
X1818Y3260*
X1823Y3273*
X1824Y3277*
G37*
G36*
X1706D02*
X1663D01*
Y3234*
X1667Y3235*
X1680Y3240*
X1691Y3249*
X1700Y3260*
X1705Y3273*
X1706Y3277*
G37*
G36*
X2234D02*
X2191D01*
X2192Y3273*
X2197Y3260*
X2206Y3249*
X2217Y3240*
X2230Y3235*
X2234Y3234*
Y3277*
G37*
G36*
X1761D02*
X1719D01*
X1719Y3273*
X1725Y3260*
X1733Y3249*
X1744Y3240*
X1757Y3235*
X1761Y3234*
Y3277*
G37*
G36*
X1643D02*
X1601D01*
X1601Y3273*
X1606Y3260*
X1615Y3249*
X1626Y3240*
X1639Y3235*
X1643Y3234*
Y3277*
G37*
G36*
X2178D02*
X2135D01*
Y3234*
X2139Y3235*
X2152Y3240*
X2164Y3249*
X2172Y3260*
X2177Y3273*
X2178Y3277*
G37*
G36*
X1942D02*
X1899D01*
Y3234*
X1903Y3235*
X1916Y3240*
X1927Y3249*
X1936Y3260*
X1941Y3273*
X1942Y3277*
G37*
G36*
X1998D02*
X1955D01*
X1955Y3273*
X1961Y3260*
X1969Y3249*
X1980Y3240*
X1993Y3235*
X1998Y3234*
Y3277*
G37*
G36*
X1722Y3241D02*
Y3198D01*
X1765*
X1764Y3202*
X1759Y3215*
X1750Y3226*
X1739Y3235*
X1726Y3240*
X1722Y3241*
G37*
G36*
X1702D02*
X1698Y3240D01*
X1685Y3235*
X1674Y3226*
X1666Y3215*
X1660Y3202*
X1660Y3198*
X1702*
Y3241*
G37*
G36*
X2421Y3238D02*
X2408Y3237D01*
X2396Y3232*
X2386Y3224*
X2378Y3213*
X2373Y3201*
X2371Y3188*
X2373Y3176*
X2378Y3164*
X2386Y3153*
X2396Y3145*
X2408Y3140*
X2421Y3139*
X2434Y3140*
X2446Y3145*
X2456Y3153*
X2464Y3164*
X2469Y3176*
X2470Y3188*
X2469Y3201*
X2464Y3213*
X2456Y3224*
X2446Y3232*
X2434Y3237*
X2421Y3238*
G37*
G36*
X2303D02*
X2290Y3237D01*
X2278Y3232*
X2267Y3224*
X2260Y3213*
X2255Y3201*
X2253Y3188*
X2255Y3176*
X2260Y3164*
X2266Y3156*
X2257Y3147*
X2255Y3144*
X2254Y3139*
Y3064*
X2243*
Y3015*
X2289*
Y3064*
X2278*
Y3072*
X2279Y3072*
X2283Y3074*
X2287Y3071*
X2293Y3070*
X2299Y3071*
X2304Y3074*
X2497*
X2897Y2674*
X2901Y2671*
X2906Y2671*
X2952*
X3446Y2176*
X3672Y1951*
Y1294*
X3670Y1292*
X3669Y1286*
X3670Y1280*
X3674Y1275*
X3679Y1271*
X3685Y1270*
X3692Y1271*
X3697Y1275*
X3701Y1280*
X3702Y1286*
X3701Y1292*
X3697Y1298*
X3696Y1299*
Y1956*
X3695Y1961*
X3692Y1965*
X3466Y2191*
X3464Y2193*
X3462Y2195*
X2966Y2691*
X2962Y2694*
X2957Y2695*
X2911*
X2511Y3095*
X2507Y3098*
X2502Y3099*
X2304*
X2299Y3101*
X2293Y3103*
X2287Y3101*
X2283Y3099*
X2279Y3101*
X2278Y3101*
Y3134*
X2286Y3142*
X2290Y3140*
X2303Y3139*
X2316Y3140*
X2328Y3145*
X2338Y3153*
X2346Y3164*
X2351Y3176*
X2352Y3188*
X2351Y3201*
X2346Y3213*
X2338Y3224*
X2328Y3232*
X2316Y3237*
X2303Y3238*
G37*
G36*
X2185D02*
X2172Y3237D01*
X2160Y3232*
X2149Y3224*
X2141Y3213*
X2137Y3201*
X2135Y3188*
X2137Y3176*
X2141Y3164*
X2149Y3153*
X2160Y3145*
X2172Y3140*
X2185Y3139*
X2197Y3140*
X2209Y3145*
X2220Y3153*
X2228Y3164*
X2233Y3176*
X2234Y3188*
X2233Y3201*
X2228Y3213*
X2220Y3224*
X2209Y3232*
X2197Y3237*
X2185Y3238*
G37*
G36*
X2066D02*
X2054Y3237D01*
X2042Y3232*
X2031Y3224*
X2023Y3213*
X2018Y3201*
X2017Y3188*
X2018Y3176*
X2023Y3164*
X2031Y3153*
X2042Y3145*
X2054Y3140*
X2066Y3139*
X2079Y3140*
X2091Y3145*
X2102Y3153*
X2110Y3164*
X2114Y3176*
X2116Y3188*
X2114Y3201*
X2110Y3213*
X2102Y3224*
X2091Y3232*
X2079Y3237*
X2066Y3238*
G37*
G36*
X1948D02*
X1935Y3237D01*
X1923Y3232*
X1913Y3224*
X1905Y3213*
X1900Y3201*
X1899Y3188*
X1900Y3176*
X1905Y3164*
X1913Y3153*
X1923Y3145*
X1935Y3140*
X1948Y3139*
X1961Y3140*
X1973Y3145*
X1983Y3153*
X1991Y3164*
X1996Y3176*
X1998Y3188*
X1996Y3201*
X1991Y3213*
X1983Y3224*
X1973Y3232*
X1961Y3237*
X1948Y3238*
G37*
G36*
X1830D02*
X1817Y3237D01*
X1805Y3232*
X1795Y3224*
X1787Y3213*
X1782Y3201*
X1780Y3188*
X1782Y3176*
X1787Y3164*
X1795Y3153*
X1805Y3145*
X1817Y3140*
X1830Y3139*
X1843Y3140*
X1855Y3145*
X1865Y3153*
X1873Y3164*
X1878Y3176*
X1880Y3188*
X1878Y3201*
X1873Y3213*
X1865Y3224*
X1855Y3232*
X1843Y3237*
X1830Y3238*
G37*
G36*
X1476D02*
X1463Y3237D01*
X1451Y3232*
X1441Y3224*
X1433Y3213*
X1428Y3201*
X1426Y3188*
X1428Y3176*
X1433Y3164*
X1441Y3153*
X1451Y3145*
X1463Y3140*
X1476Y3139*
X1489Y3140*
X1501Y3145*
X1511Y3153*
X1519Y3164*
X1524Y3176*
X1526Y3188*
X1524Y3201*
X1519Y3213*
X1511Y3224*
X1501Y3232*
X1489Y3237*
X1476Y3238*
G37*
G36*
X1765Y3179D02*
X1722D01*
Y3136*
X1726Y3137*
X1739Y3142*
X1750Y3150*
X1759Y3162*
X1764Y3175*
X1765Y3179*
G37*
G36*
X1702D02*
X1660D01*
X1660Y3175*
X1666Y3162*
X1674Y3150*
X1685Y3142*
X1698Y3137*
X1702Y3136*
Y3179*
G37*
G36*
X1594Y3238D02*
X1581Y3237D01*
X1569Y3232*
X1559Y3224*
X1551Y3213*
X1546Y3201*
X1544Y3188*
X1546Y3176*
X1551Y3164*
X1559Y3153*
X1569Y3145*
X1581Y3140*
X1594Y3139*
X1607Y3140*
X1619Y3145*
X1619Y3146*
X1625Y3140*
Y3060*
X1615*
Y3011*
X1660*
Y3060*
X1650*
Y3145*
X1649Y3150*
X1646Y3154*
X1637Y3163*
X1637Y3164*
X1642Y3176*
X1644Y3188*
X1642Y3201*
X1637Y3213*
X1629Y3224*
X1619Y3232*
X1607Y3237*
X1594Y3238*
G37*
G36*
X1711Y3060D02*
X1666D01*
Y3011*
X1677*
Y2991*
X1673Y2988*
X1667*
X1664Y2992*
X1664*
X1648*
Y2963*
X1638*
X1648*
Y2934*
X1664*
X1664*
X1667Y2938*
X1669*
X1677*
Y2909*
X1678Y2904*
X1680Y2900*
X1733Y2848*
Y2741*
X1730Y2737*
X1728Y2730*
X1730Y2724*
X1730Y2723*
X1728Y2718*
X1701*
X1694Y2717*
X1688Y2713*
X1648Y2673*
X1557*
Y2705*
X1562Y2708*
X1563Y2708*
X1567Y2707*
X1575*
X1579Y2708*
X1582Y2707*
X1582Y2707*
X1586Y2704*
Y2731*
X1596*
Y2741*
X1615*
Y2744*
X1614Y2750*
X1611Y2754*
X1606Y2757*
X1600Y2758*
X1595*
X1593Y2762*
X1593Y2763*
X1595Y2767*
X1596Y2772*
Y2776*
X1616*
X1618Y2772*
X1619*
X1636*
Y2802*
Y2831*
X1619*
X1618*
X1616Y2827*
X1613*
X1569*
Y2776*
X1567Y2772*
X1562Y2767*
X1559Y2763*
X1559Y2758*
Y2756*
X1554Y2753*
X1553Y2754*
X1549Y2754*
X1541*
X1537Y2754*
X1534Y2751*
X1531*
X1528Y2754*
X1524Y2754*
X1515*
X1511Y2754*
X1508Y2751*
X1506Y2748*
X1505Y2744*
Y2743*
X1447*
X1442Y2742*
X1442Y2742*
X1440Y2742*
X1433Y2741*
X1429Y2738*
X1361*
X1356Y2737*
X1352Y2734*
X831Y2213*
X829Y2209*
X828Y2205*
Y1810*
X460Y1443*
X457Y1439*
X457Y1434*
Y1151*
X454Y1149*
X452Y1145*
X451Y1141*
Y1078*
X452Y1073*
X454Y1069*
X458Y1066*
X463Y1065*
X475*
X479Y1066*
X483Y1069*
X486Y1073*
X487Y1078*
Y1141*
X486Y1145*
X483Y1149*
X481Y1151*
Y1429*
X848Y1796*
X851Y1800*
X852Y1805*
Y2200*
X1366Y2714*
X1429*
X1433Y2711*
X1440Y2710*
X1446Y2711*
X1451Y2714*
X1454Y2719*
X1505*
Y2717*
X1506Y2713*
X1508Y2710*
X1511Y2708*
X1515Y2707*
X1524*
X1528Y2708*
X1528Y2708*
X1533Y2705*
Y2673*
X1397*
X1390Y2672*
X1384Y2668*
X1301Y2584*
X1297Y2578*
X1296Y2571*
Y2351*
X1297Y2345*
X1301Y2339*
X1354Y2286*
X1360Y2282*
X1367Y2280*
X1476*
X1552Y2204*
Y2106*
X1518*
X1515Y2111*
X1515Y2111*
X1516Y2115*
Y2124*
X1515Y2128*
X1516Y2131*
X1516Y2131*
X1519Y2135*
X1492*
X1465*
X1463Y2132*
X1430*
Y2147*
X1434Y2149*
Y2150*
Y2167*
X1405*
X1375*
Y2150*
Y2149*
X1379Y2147*
Y2144*
Y2100*
X1430*
Y2107*
X1467*
X1470Y2102*
X1470Y2102*
X1469Y2098*
Y2090*
X1470Y2086*
X1472Y2082*
Y2080*
X1470Y2076*
X1469Y2072*
Y2064*
X1470Y2060*
X1472Y2057*
X1475Y2055*
X1479Y2054*
X1480*
Y2035*
X1478Y2031*
X1476Y2024*
X1478Y2018*
X1481Y2013*
X1486Y2009*
X1493Y2008*
X1499Y2009*
X1504Y2013*
X1508Y2018*
X1509Y2024*
X1508Y2031*
X1505Y2035*
Y2054*
X1506*
X1510Y2055*
X1513Y2057*
X1515Y2060*
X1516Y2064*
Y2072*
X1515Y2076*
X1515Y2077*
X1518Y2082*
X1552*
Y1906*
X1553Y1899*
X1557Y1893*
X1563Y1889*
X1570Y1887*
X1577Y1889*
X1583Y1893*
X1587Y1899*
X1588Y1906*
Y2093*
Y2212*
X1587Y2219*
X1583Y2225*
X1496Y2311*
X1491Y2315*
X1484Y2317*
X1374*
X1332Y2359*
Y2564*
X1405Y2637*
X1656*
X1663Y2638*
X1668Y2642*
X1708Y2682*
X2246*
X2275Y2652*
X2281Y2648*
X2288Y2647*
X2463*
X2560Y2550*
Y2265*
X2519Y2224*
X2515Y2218*
X2514Y2212*
X2509Y2212*
Y2234*
X2508Y2239*
X2506Y2242*
X2465Y2283*
X2461Y2286*
X2457Y2286*
X2249*
X2244Y2286*
X2240Y2283*
X2211Y2254*
X2209Y2250*
X2208Y2246*
Y2156*
X2209Y2151*
X2211Y2147*
X2235Y2123*
X2239Y2121*
X2244Y2120*
X2273*
Y2107*
X2319*
Y2157*
X2273*
Y2144*
X2249*
X2232Y2161*
Y2241*
X2254Y2262*
X2452*
X2485Y2229*
Y2102*
X2463Y2080*
X2459Y2083*
X2459Y2084*
Y2093*
X2458Y2096*
X2457Y2098*
X2456Y2101*
X2457Y2105*
X2458Y2106*
X2459Y2110*
Y2118*
X2458Y2122*
X2456Y2125*
Y2128*
X2458Y2131*
X2459Y2135*
Y2144*
X2458Y2148*
X2456Y2151*
X2453Y2153*
X2449Y2154*
X2447*
Y2163*
X2449Y2166*
X2450Y2172*
X2449Y2178*
X2446Y2184*
X2440Y2187*
X2434Y2188*
X2428Y2187*
X2422Y2184*
X2419Y2178*
X2418Y2172*
X2419Y2166*
X2422Y2161*
X2423Y2160*
Y2154*
X2422*
X2418Y2153*
X2415Y2151*
X2412Y2148*
X2412Y2144*
Y2135*
Y2135*
X2408Y2130*
X2406Y2130*
X2394Y2141*
X2391Y2144*
X2386Y2145*
X2370*
Y2157*
X2359*
Y2175*
X2370*
Y2224*
X2325*
X2323Y2228*
X2322*
X2306*
Y2199*
Y2171*
X2322*
X2323*
X2325Y2175*
X2328*
X2335*
Y2157*
X2324*
Y2107*
X2370*
Y2120*
X2381*
X2396Y2105*
X2396Y2105*
X2395Y2100*
X2394Y2100*
X2390Y2097*
X2375Y2081*
X2370Y2083*
Y2089*
X2325*
X2323Y2093*
X2322*
X2306*
Y2064*
Y2036*
X2322*
X2323*
X2325Y2040*
X2328*
X2335*
Y2021*
X2324*
Y1972*
X2370*
Y2021*
X2359*
Y2040*
X2370*
Y2052*
X2375*
Y2052*
X2379Y2053*
X2383Y2056*
X2404Y2076*
X2410*
X2413Y2071*
X2412Y2071*
X2412Y2067*
Y2059*
X2412Y2055*
X2415Y2051*
X2418Y2049*
X2422Y2048*
X2423*
Y1972*
X2399Y1947*
X2314*
X2308Y1953*
Y1972*
X2319*
Y2021*
X2273*
Y2009*
X2173*
X2168Y2008*
X2165Y2005*
X2100Y1941*
X2095Y1942*
Y2181*
X2225Y2312*
X2420*
X2425Y2313*
X2429Y2315*
X2531Y2417*
X2533Y2421*
X2534Y2426*
Y2426*
Y2521*
X2533Y2526*
X2531Y2530*
X2524Y2536*
X2523Y2542*
X2520Y2547*
X2515Y2550*
X2508Y2552*
X2502Y2550*
X2497Y2547*
X2493Y2542*
X2492Y2537*
X2487Y2535*
X2449Y2574*
X2445Y2576*
X2441Y2577*
X2441*
X2377*
Y2578*
X2376Y2582*
X2374Y2586*
X2370Y2588*
X2366Y2589*
X2358*
X2354Y2588*
X2351Y2586*
X2348*
X2345Y2588*
X2341Y2589*
X2333*
X2329Y2588*
X2328Y2587*
X2324Y2586*
X2320Y2587*
X2319Y2588*
X2315Y2589*
X2307*
X2303Y2588*
X2300Y2586*
X2297*
X2294Y2588*
X2290Y2589*
X2281*
X2277Y2588*
X2274Y2586*
X2272Y2582*
X2271Y2578*
Y2577*
X2251*
X2250Y2578*
X2247Y2583*
X2242Y2586*
X2235Y2588*
X2229Y2586*
X2224Y2583*
X2220Y2578*
X2219Y2571*
X2220Y2565*
X2224Y2560*
X2229Y2556*
X2235Y2555*
X2237Y2554*
X2242Y2553*
X2271*
Y2552*
X2272Y2548*
X2274Y2544*
X2277Y2542*
X2281Y2541*
X2290*
X2294Y2542*
X2294Y2542*
X2299Y2540*
Y2494*
X2281*
Y2483*
X2257*
Y2494*
X2208*
Y2449*
X2204Y2447*
Y2446*
Y2430*
X2261*
Y2446*
Y2447*
X2257Y2449*
Y2452*
Y2459*
X2281*
Y2448*
X2331*
Y2494*
X2323*
Y2527*
X2324Y2528*
X2330Y2527*
X2359Y2498*
X2358Y2494*
X2355*
Y2449*
X2351Y2447*
Y2446*
Y2430*
X2408*
Y2446*
Y2447*
X2404Y2449*
Y2452*
Y2459*
X2428*
Y2448*
X2478*
Y2494*
X2428*
Y2483*
X2404*
Y2494*
X2389*
Y2499*
X2388Y2503*
X2385Y2507*
X2355Y2537*
X2358Y2541*
X2358Y2541*
X2366*
X2370Y2542*
X2374Y2544*
X2376Y2548*
X2377Y2552*
Y2553*
X2436*
X2492Y2496*
Y2439*
X2485Y2432*
X2478*
Y2443*
X2428*
Y2397*
X2439*
Y2385*
X2432Y2378*
X2325*
X2318Y2385*
Y2397*
X2331*
Y2443*
X2281*
Y2397*
X2294*
Y2380*
X2295Y2376*
X2297Y2372*
X2301Y2369*
Y2364*
X2291Y2354*
X2213*
X2208Y2353*
X2204Y2350*
X2064Y2210*
X2060Y2212*
Y2319*
X2059Y2324*
X2056Y2328*
X1741Y2642*
X1740Y2648*
X1737Y2653*
X1731Y2657*
X1725Y2658*
X1719Y2657*
X1714Y2653*
X1710Y2648*
X1709Y2641*
X1710Y2635*
X1714Y2630*
X1719Y2626*
X1724Y2625*
X2035Y2314*
Y2229*
X2031Y2227*
X1816Y2442*
X1812Y2445*
X1807Y2446*
X1715*
Y2514*
X1714Y2519*
X1711Y2523*
X1660Y2574*
X1656Y2576*
X1652Y2577*
X1611*
Y2578*
X1610Y2582*
X1608Y2586*
X1604Y2588*
X1600Y2589*
X1592*
X1588Y2588*
X1585Y2586*
X1582*
X1579Y2588*
X1575Y2589*
X1567*
X1563Y2588*
X1562Y2587*
X1558Y2586*
X1554Y2587*
X1553Y2588*
X1549Y2589*
X1541*
X1537Y2588*
X1534Y2586*
X1531*
X1528Y2588*
X1524Y2589*
X1515*
X1511Y2588*
X1508Y2586*
X1506Y2582*
X1505Y2578*
Y2577*
X1440*
X1437Y2582*
X1432Y2585*
X1425Y2586*
X1419Y2585*
X1414Y2582*
X1410Y2576*
X1409Y2570*
X1410Y2564*
X1414Y2558*
X1419Y2555*
X1425Y2554*
X1426Y2554*
X1426Y2554*
X1430Y2553*
X1505*
Y2552*
X1506Y2548*
X1508Y2544*
X1511Y2542*
X1515Y2541*
X1524*
X1527Y2542*
X1528Y2542*
X1529Y2537*
X1499Y2507*
X1497Y2503*
X1496Y2499*
Y2494*
X1478*
Y2483*
X1456*
Y2494*
X1407*
Y2449*
X1403Y2447*
Y2446*
Y2430*
X1460*
Y2446*
Y2447*
X1456Y2449*
Y2452*
Y2459*
X1478*
Y2448*
X1527*
Y2494*
X1527*
X1525Y2498*
X1554Y2527*
X1554Y2527*
X1559Y2525*
Y2523*
X1559Y2518*
X1562Y2514*
X1562Y2514*
Y2494*
X1549*
Y2449*
X1545Y2447*
Y2446*
Y2430*
X1602*
Y2446*
Y2447*
X1598Y2449*
Y2452*
Y2459*
X1620*
Y2448*
X1669*
Y2494*
X1620*
Y2483*
X1598*
Y2494*
X1586*
Y2519*
X1586Y2524*
X1583Y2528*
X1583Y2528*
Y2540*
X1588Y2542*
X1588Y2542*
X1592Y2541*
X1600*
X1604Y2542*
X1608Y2544*
X1610Y2548*
X1611Y2552*
Y2553*
X1647*
X1690Y2509*
Y2439*
X1684Y2432*
X1669*
Y2443*
X1620*
Y2397*
X1632*
Y2389*
X1622Y2379*
X1532*
X1519Y2392*
X1521Y2397*
X1527*
Y2443*
X1478*
Y2397*
X1491*
Y2391*
Y2391*
X1491Y2387*
X1494Y2383*
X1519Y2358*
X1519*
X1523Y2355*
X1527Y2354*
X1627*
X1631Y2355*
X1635Y2358*
X1653Y2376*
X1656Y2380*
X1657Y2384*
Y2397*
X1669*
Y2408*
X1689*
X1693Y2409*
X1697Y2411*
X1708Y2422*
X1802*
X2017Y2206*
Y1829*
X2013Y1827*
X1898Y1941*
X1894Y1944*
X1889Y1945*
X1871*
Y2038*
X1870Y2042*
X1868Y2046*
X1849Y2065*
X1845Y2068*
X1840Y2069*
X1820*
Y2081*
X1775*
Y2032*
X1820*
Y2044*
X1835*
X1847Y2033*
Y1938*
X1832Y1924*
X1687*
X1618Y1993*
Y2120*
X1629Y2131*
X1631Y2130*
X1632Y2130*
X1635Y2125*
X1635Y2124*
Y2115*
X1635Y2111*
X1636Y2110*
X1637Y2107*
X1636Y2103*
X1635Y2102*
X1635Y2098*
Y2090*
X1635Y2086*
X1638Y2082*
Y2080*
X1635Y2076*
X1635Y2072*
Y2064*
X1635Y2060*
X1638Y2057*
X1641Y2055*
X1645Y2054*
X1646*
Y2034*
X1644Y2031*
X1642Y2024*
X1644Y2018*
X1647Y2013*
X1652Y2009*
X1659Y2008*
X1665Y2009*
X1670Y2013*
X1674Y2018*
X1675Y2024*
X1674Y2031*
X1670Y2036*
Y2054*
X1672*
X1676Y2055*
X1679Y2057*
X1681Y2060*
X1682Y2064*
Y2072*
X1681Y2076*
X1681Y2077*
X1684Y2082*
X1692*
X1693Y2080*
Y2068*
X1694Y2063*
X1697Y2059*
X1708Y2048*
X1712Y2045*
X1717Y2044*
X1724*
Y2032*
X1734*
Y2014*
X1724*
Y1964*
X1768*
X1771Y1960*
X1771*
X1788*
Y1989*
Y2018*
X1771*
X1771*
X1768Y2014*
X1766*
X1758*
Y2032*
X1769*
Y2081*
X1724*
Y2079*
X1719Y2076*
X1718Y2077*
Y2085*
X1717Y2090*
X1714Y2094*
X1705Y2102*
X1705Y2102*
X1706Y2108*
X1708Y2108*
X1712Y2111*
X1713Y2112*
X1724*
Y2099*
X1768*
X1771Y2095*
X1771*
X1788*
Y2124*
Y2153*
X1771*
X1771*
X1768Y2149*
X1766*
X1758*
Y2167*
X1769*
Y2216*
X1724*
Y2167*
X1734*
Y2149*
X1724*
Y2136*
X1708*
X1704Y2135*
X1700Y2133*
X1699Y2132*
X1684*
X1681Y2137*
X1681Y2137*
X1682Y2141*
Y2149*
X1681Y2153*
X1679Y2156*
X1676Y2159*
X1672Y2159*
X1670*
Y2219*
X1690Y2239*
X1780*
X1785Y2233*
Y2216*
X1775*
Y2167*
X1820*
Y2216*
X1810*
Y2238*
X1809Y2243*
X1806Y2247*
X1793Y2260*
X1789Y2262*
X1785Y2263*
X1685*
X1681Y2262*
X1677Y2260*
X1677*
X1650Y2233*
X1647Y2229*
X1646Y2224*
Y2159*
X1645*
X1641Y2159*
X1639Y2157*
X1626*
X1621Y2156*
X1617Y2154*
X1597Y2133*
X1594Y2130*
X1593Y2125*
Y1988*
X1594Y1983*
X1597Y1979*
X1673Y1903*
X1677Y1900*
X1682Y1899*
X1837*
X1842Y1900*
X1846Y1903*
X1864Y1921*
X1884*
X2000Y1805*
Y1762*
X1995Y1760*
X1884Y1871*
X1880Y1874*
X1875Y1875*
X1507*
X1417Y1964*
X1413Y1967*
X1408Y1968*
X1002*
X942Y2029*
Y2090*
X956Y2105*
X977*
X980Y2101*
Y2095*
X976Y2092*
Y2092*
Y2076*
X1034*
Y2092*
Y2092*
X1030Y2095*
Y2097*
Y2105*
X1052*
Y2095*
X1101*
Y2140*
X1052*
Y2129*
X1030*
Y2140*
X980*
Y2129*
X951*
X946Y2128*
X942Y2125*
X921Y2104*
X918Y2100*
X917Y2095*
Y2024*
X918Y2019*
X921Y2015*
X989Y1947*
X993Y1945*
X997Y1944*
X1403*
X1437Y1910*
X1435Y1905*
X1433Y1906*
X1427Y1904*
X1422Y1901*
X1418Y1896*
X1417Y1890*
X1413Y1887*
X1078*
X1073Y1886*
X1069Y1883*
X560Y1374*
X557Y1370*
X557Y1365*
Y1151*
X554Y1149*
X552Y1145*
X551Y1141*
Y1078*
X552Y1073*
X554Y1069*
X558Y1066*
X563Y1065*
X575*
X579Y1066*
X583Y1069*
X586Y1073*
X587Y1078*
Y1141*
X586Y1145*
X583Y1149*
X581Y1151*
Y1360*
X1083Y1862*
X1418*
X1423Y1863*
X1427Y1866*
X1434Y1873*
X1439Y1874*
X1445Y1878*
X1448Y1883*
X1450Y1889*
X1449Y1891*
X1454Y1893*
X1493Y1854*
X1497Y1851*
X1502Y1850*
X1870*
X1982Y1739*
Y1580*
X1977Y1578*
X1908Y1648*
X1904Y1650*
X1899Y1651*
X1866*
X1862Y1650*
X1858Y1648*
X1846Y1636*
X1820*
Y1648*
X1775*
Y1599*
X1820*
Y1611*
X1839*
Y1514*
X1823Y1498*
X1644*
X1612Y1530*
Y1675*
X1630Y1694*
X1635Y1691*
X1635Y1690*
Y1682*
X1635Y1678*
X1636Y1677*
X1637Y1674*
X1636Y1670*
X1635Y1669*
X1635Y1665*
Y1657*
X1635Y1653*
X1638Y1649*
Y1647*
X1635Y1643*
X1635Y1639*
Y1631*
X1635Y1627*
X1638Y1624*
X1641Y1622*
X1645Y1621*
X1646*
Y1595*
X1647Y1590*
X1649Y1588*
X1650Y1582*
X1653Y1577*
X1659Y1573*
X1665Y1572*
X1671Y1573*
X1676Y1577*
X1680Y1582*
X1681Y1588*
X1680Y1594*
X1676Y1600*
X1671Y1603*
X1670Y1603*
Y1621*
X1672*
X1676Y1622*
X1679Y1624*
X1681Y1627*
X1682Y1631*
Y1639*
X1681Y1643*
X1681Y1644*
X1684Y1649*
X1692*
X1699Y1642*
Y1630*
X1700Y1626*
X1702Y1622*
X1709Y1615*
X1713Y1612*
X1718Y1611*
X1724*
Y1599*
X1734*
Y1581*
X1724*
Y1531*
X1768*
X1771Y1527*
X1771*
X1788*
Y1556*
Y1585*
X1771*
X1771*
X1768Y1581*
X1766*
X1758*
Y1599*
X1769*
Y1648*
X1728*
X1724*
X1722Y1651*
X1720Y1655*
X1706Y1669*
X1706Y1670*
X1707Y1674*
X1714*
X1714*
X1719Y1675*
X1719Y1675*
X1724Y1672*
Y1666*
X1768*
X1771Y1662*
X1771*
X1788*
Y1691*
Y1720*
X1771*
X1771*
X1768Y1716*
X1766*
X1758*
Y1734*
X1769*
Y1783*
X1724*
Y1734*
X1734*
Y1716*
X1724*
Y1703*
X1719*
X1714Y1702*
X1710Y1700*
X1710*
X1709Y1699*
X1684*
X1681Y1704*
X1681Y1704*
X1682Y1708*
Y1716*
X1681Y1720*
X1679Y1723*
X1676Y1726*
X1672Y1726*
X1670*
Y1781*
X1695Y1805*
X1776*
X1785Y1796*
Y1783*
X1775*
Y1734*
X1820*
Y1783*
X1810*
Y1801*
X1809Y1806*
X1806Y1810*
X1790Y1826*
X1786Y1829*
X1781Y1830*
X1690*
X1685Y1829*
X1681Y1826*
X1650Y1794*
X1647Y1790*
X1646Y1786*
Y1726*
X1645*
X1641Y1726*
X1639Y1724*
X1631*
X1627Y1723*
X1623Y1721*
X1593Y1691*
X1588Y1693*
Y1824*
X1587Y1831*
X1583Y1836*
X1581Y1838*
X1575Y1842*
X1569Y1843*
X1562Y1842*
X1556Y1838*
X1552Y1832*
X1550Y1825*
X1552Y1818*
X1552Y1818*
Y1673*
X1518*
X1515Y1678*
X1515Y1678*
X1516Y1682*
Y1690*
X1515Y1694*
X1516Y1698*
X1516Y1698*
X1519Y1702*
X1492*
X1465*
X1463Y1699*
X1430*
Y1714*
X1434Y1716*
Y1717*
Y1734*
X1405*
X1375*
Y1717*
Y1716*
X1379Y1714*
Y1711*
Y1667*
X1430*
Y1674*
X1467*
X1470Y1669*
X1470Y1669*
X1469Y1665*
Y1657*
X1470Y1653*
X1470Y1652*
X1471Y1648*
X1470Y1644*
X1470Y1643*
X1469Y1639*
Y1631*
X1470Y1627*
X1472Y1624*
X1475Y1622*
X1479Y1621*
X1479*
X1480Y1616*
X1477Y1612*
X1476Y1605*
X1477Y1599*
X1480Y1595*
Y1540*
X1443Y1503*
X943*
X938Y1502*
X934Y1500*
X660Y1226*
X657Y1222*
X657Y1217*
Y1151*
X654Y1149*
X652Y1145*
X651Y1141*
Y1078*
X652Y1073*
X654Y1069*
X658Y1066*
X663Y1065*
X675*
X679Y1066*
X683Y1069*
X686Y1073*
X687Y1078*
Y1141*
X686Y1145*
X683Y1149*
X681Y1151*
Y1212*
X948Y1479*
X1071*
X1073Y1474*
X1073Y1474*
X1069Y1469*
X1068Y1462*
X1069Y1456*
X1073Y1451*
X1078Y1447*
X1084Y1446*
X1090Y1447*
X1095Y1450*
X1516*
X1526Y1441*
X1527Y1436*
X1530Y1430*
X1535Y1427*
X1542Y1426*
X1547Y1427*
X1552Y1424*
Y1240*
X1518*
X1515Y1245*
X1515Y1245*
X1516Y1249*
Y1257*
X1515Y1261*
X1516Y1265*
X1516Y1265*
X1519Y1269*
X1492*
X1465*
X1463Y1265*
X1430*
Y1281*
X1434Y1283*
Y1284*
Y1301*
X1405*
X1375*
Y1284*
Y1283*
X1379Y1281*
Y1278*
Y1234*
X1430*
Y1241*
X1467*
X1470Y1236*
X1470Y1236*
X1469Y1232*
Y1224*
X1470Y1220*
X1472Y1216*
Y1214*
X1470Y1210*
X1469Y1206*
Y1198*
X1470Y1194*
X1472Y1191*
X1475Y1188*
X1479Y1188*
X1480*
Y1162*
X1477Y1157*
X1476Y1151*
X1477Y1145*
X1480Y1141*
Y1138*
X1432Y1090*
X1431Y1090*
X1427Y1095*
X1427Y1096*
X1426Y1102*
X1422Y1108*
X1417Y1111*
X1411Y1112*
X1404Y1111*
X1399Y1108*
X1398Y1107*
X1163*
X1158Y1112*
Y1230*
X1157Y1234*
X1154Y1238*
X1133Y1260*
X1129Y1263*
X1124Y1263*
X1101*
Y1274*
X1052*
Y1263*
X1030*
Y1273*
X980*
Y1229*
X976Y1226*
Y1226*
Y1209*
X1034*
Y1226*
Y1226*
X1030Y1229*
Y1231*
Y1239*
X1052*
Y1229*
X1101*
Y1239*
X1119*
X1134Y1225*
Y1107*
X1135Y1102*
X1137Y1098*
X1148Y1087*
X1147Y1083*
X1147Y1082*
X989*
X869Y1203*
X865Y1205*
X860Y1206*
X784*
X780Y1205*
X776Y1203*
X760Y1187*
X757Y1183*
X757Y1178*
Y1151*
X754Y1149*
X752Y1145*
X751Y1141*
Y1078*
X752Y1073*
X754Y1069*
X758Y1066*
X763Y1065*
X775*
X779Y1066*
X783Y1069*
X786Y1073*
X787Y1078*
Y1141*
X786Y1145*
X783Y1149*
X781Y1151*
Y1173*
X789Y1182*
X855*
X976Y1061*
X980Y1059*
X984Y1058*
X1429*
X1429*
X1434Y1059*
X1438Y1061*
X1501Y1125*
X1504Y1128*
X1505Y1133*
Y1141*
X1508Y1145*
X1509Y1151*
X1508Y1157*
X1505Y1162*
Y1188*
X1506*
X1510Y1188*
X1513Y1191*
X1515Y1194*
X1516Y1198*
Y1206*
X1515Y1210*
X1515Y1211*
X1518Y1216*
X1552*
Y1163*
X1334Y944*
X1330Y938*
X1328Y932*
X1330Y925*
X1334Y919*
X1339Y915*
X1346Y913*
X1353Y915*
X1359Y919*
X1583Y1142*
X1587Y1148*
X1588Y1155*
Y1229*
Y1427*
X1590Y1428*
X1593Y1429*
X1598Y1426*
X1604Y1425*
X1610Y1426*
X1615Y1429*
X1867*
X1946Y1349*
Y1079*
X1942Y1077*
X1918Y1100*
X1915Y1103*
X1910Y1104*
X1886*
Y1167*
X1885Y1172*
X1883Y1176*
X1859Y1199*
X1855Y1202*
X1851Y1203*
X1820*
Y1215*
X1775*
Y1166*
X1820*
Y1178*
X1846*
X1862Y1162*
Y1097*
X1850Y1084*
X1714*
X1711Y1085*
X1705*
X1621Y1169*
Y1257*
X1627Y1263*
X1632Y1263*
X1635Y1259*
X1635Y1257*
Y1249*
X1635Y1245*
X1636Y1244*
X1637Y1240*
X1636Y1237*
X1635Y1236*
X1635Y1232*
Y1224*
X1635Y1220*
X1638Y1216*
Y1214*
X1635Y1210*
X1635Y1206*
Y1198*
X1635Y1194*
X1638Y1191*
X1641Y1188*
X1645Y1188*
X1648*
Y1172*
X1647Y1170*
X1646Y1164*
X1647Y1158*
X1650Y1153*
X1656Y1149*
X1662Y1148*
X1668Y1149*
X1674Y1153*
X1677Y1158*
X1678Y1164*
X1677Y1170*
X1674Y1176*
X1673Y1176*
Y1188*
X1676Y1188*
X1679Y1191*
X1681Y1194*
X1682Y1198*
Y1206*
X1681Y1210*
X1681Y1211*
X1684Y1216*
X1689*
X1692Y1213*
X1698Y1207*
Y1202*
X1699Y1197*
X1702Y1193*
X1709Y1186*
X1713Y1184*
X1717Y1183*
Y1183*
X1724*
Y1166*
X1734*
Y1148*
X1724*
Y1098*
X1768*
X1771Y1094*
X1771*
X1788*
Y1123*
Y1152*
X1771*
X1771*
X1768Y1148*
X1766*
X1758*
Y1166*
X1769*
Y1215*
X1724*
X1720Y1219*
X1719Y1220*
X1709Y1230*
X1703Y1236*
X1703Y1237*
X1705Y1241*
X1724*
Y1233*
X1768*
X1771Y1229*
X1771*
X1788*
Y1258*
Y1287*
X1771*
X1771*
X1768Y1283*
X1766*
X1758*
Y1301*
X1769*
Y1350*
X1724*
Y1301*
X1734*
Y1283*
X1724*
Y1265*
X1684*
X1681Y1270*
X1681Y1271*
X1682Y1275*
Y1283*
X1681Y1287*
X1679Y1290*
X1676Y1293*
X1672Y1293*
X1670*
Y1353*
X1698Y1381*
X1774*
X1785Y1369*
Y1350*
X1775*
Y1301*
X1820*
Y1350*
X1810*
Y1374*
Y1374*
X1809Y1379*
X1806Y1383*
X1788Y1401*
X1784Y1404*
X1779Y1405*
X1693*
X1688Y1404*
X1684Y1401*
X1684*
X1650Y1367*
X1647Y1363*
X1646Y1358*
Y1293*
X1645*
X1641Y1293*
X1638Y1290*
X1637Y1289*
X1624*
X1619Y1288*
X1615Y1285*
X1615*
X1600Y1270*
X1597Y1266*
X1597Y1262*
Y1164*
X1597Y1159*
X1600Y1156*
X1660Y1095*
X1658Y1091*
X1658Y1091*
X1653Y1092*
X1600*
X1596Y1095*
X1590Y1096*
X1583Y1095*
X1578Y1091*
X1575Y1086*
X1573Y1080*
X1575Y1073*
X1578Y1068*
X1583Y1065*
X1590Y1063*
X1596Y1065*
X1600Y1068*
X1648*
X1678Y1038*
X1682Y1035*
X1687Y1034*
X1899*
X1911Y1022*
Y977*
X1706Y772*
X1703Y769*
X1702Y764*
Y614*
X1699Y610*
X1698Y604*
X1698Y603*
X1694Y601*
X1690Y601*
X1684Y600*
X1678Y596*
X1676Y593*
X1676Y593*
X1670Y593*
X1668Y597*
X1663Y600*
X1656Y601*
X1650Y600*
X1645Y597*
X1641Y591*
X1640Y585*
X1641Y579*
X1645Y574*
X1650Y570*
X1655Y569*
X1666Y559*
X1664Y554*
X1656*
X1651Y553*
X1647Y550*
X1645Y548*
X1643Y547*
X1637Y544*
X1634Y539*
X1633Y532*
X1634Y526*
X1637Y521*
X1643Y517*
X1649Y516*
X1650Y516*
X1655Y512*
X1654Y511*
X1652Y508*
X1647Y508*
X1642Y512*
X1635Y513*
X1629Y512*
X1624Y508*
X1620Y503*
X1619Y496*
X1620Y490*
X1624Y485*
X1629Y481*
X1635Y480*
X1642Y481*
X1644Y483*
X1650*
X1653Y480*
X1657Y478*
X1662Y477*
X1697*
X1702Y474*
X1702Y472*
X1703Y467*
X1707Y462*
X1712Y459*
X1718Y457*
X1724Y459*
X1730Y462*
X1733Y467*
X1734Y473*
X1738Y476*
X1756*
X1761Y477*
X1765Y480*
X1834Y549*
X1837Y553*
X1837Y557*
Y719*
X1939Y820*
X1944Y818*
X1945Y814*
X1948Y809*
X1954Y805*
X1960Y804*
X1966Y805*
X1971Y809*
X1974*
X1976Y806*
X1982Y802*
X1988Y801*
X1994Y802*
X1999Y806*
X2002Y810*
X2006Y811*
X2008Y811*
X2010Y808*
X2015Y805*
X2021Y803*
X2027Y805*
X2033Y808*
X2036Y813*
X2038Y820*
X2037Y824*
X2040Y827*
X2046Y826*
X2048Y821*
X2052Y819*
X2054Y813*
X2032Y791*
X2026Y790*
X2021Y786*
X2018Y781*
X2016Y775*
X2018Y769*
X2021Y763*
X2026Y760*
X2033Y759*
X2039Y760*
X2044Y763*
X2048Y769*
X2053Y769*
X2055Y766*
X2059Y763*
X2061Y762*
X2061Y757*
X2059Y754*
X2057Y748*
X2059Y742*
X2062Y736*
X2067Y733*
X2074Y732*
X2080Y733*
X2085Y736*
X2089Y742*
X2090Y748*
X2090Y749*
X2097Y756*
X2101Y756*
X2107Y752*
X2113Y751*
X2119Y752*
X2124Y756*
X2128Y761*
X2129Y767*
X2128Y770*
X2133Y772*
X2135Y770*
X2140Y767*
X2146Y765*
X2152Y767*
X2158Y770*
X2161Y776*
X2162Y782*
X2162Y786*
X2198Y823*
X2201Y827*
X2202Y831*
Y1016*
X2209Y1023*
X2950*
X2955Y1024*
X2958Y1027*
X3021Y1089*
X3024Y1093*
X3025Y1098*
Y1178*
X3037*
Y1188*
X3059*
Y1178*
X3109*
Y1223*
X3113Y1225*
Y1226*
Y1242*
X3084*
X3055*
Y1226*
Y1225*
X3059Y1223*
Y1220*
Y1213*
X3037*
Y1223*
X2988*
Y1178*
X3000*
Y1103*
X2945Y1047*
X2204*
X2199Y1046*
X2195Y1044*
X2189Y1037*
X2184Y1039*
Y1092*
X2211Y1118*
X2273*
Y1106*
X2284*
Y1078*
X2285Y1073*
X2287Y1069*
X2294Y1062*
X2294*
X2298Y1060*
X2303Y1059*
X2397*
X2402Y1060*
X2406Y1062*
X2444Y1100*
X2446Y1104*
X2447Y1109*
Y1182*
X2449*
X2453Y1183*
X2455Y1185*
X2464*
X2469Y1185*
X2472Y1188*
X2497Y1213*
X2500Y1217*
X2501Y1221*
Y1369*
X2500Y1373*
X2497Y1377*
X2467Y1407*
X2463Y1410*
X2459Y1411*
X2260*
X2255Y1410*
X2251Y1407*
X2210Y1366*
X2207Y1362*
X2207Y1358*
Y1297*
X2207Y1293*
X2210Y1289*
X2239Y1260*
X2243Y1257*
X2248Y1256*
X2273*
Y1241*
X2319*
Y1290*
X2273*
Y1280*
X2253*
X2231Y1302*
Y1353*
X2265Y1387*
X2374*
X2376Y1382*
X2375Y1379*
X2410*
X2408Y1382*
X2410Y1387*
X2454*
X2476Y1364*
Y1226*
X2463Y1213*
X2458Y1215*
X2459Y1218*
Y1226*
X2458Y1230*
X2457Y1231*
X2456Y1235*
X2457Y1239*
X2458Y1240*
X2459Y1244*
Y1252*
X2458Y1256*
X2456Y1259*
Y1262*
X2458Y1265*
X2459Y1269*
Y1278*
X2458Y1282*
X2456Y1285*
X2453Y1287*
X2449Y1288*
X2447*
Y1308*
X2446Y1313*
X2444Y1316*
X2443Y1322*
X2439Y1327*
X2434Y1330*
X2428Y1332*
X2422Y1330*
X2416Y1327*
X2413Y1322*
X2412Y1315*
X2413Y1309*
X2416Y1304*
X2422Y1300*
X2423Y1300*
Y1288*
X2422*
X2418Y1287*
X2415Y1285*
X2412Y1282*
X2412Y1278*
Y1269*
X2412Y1265*
X2413Y1265*
X2410Y1260*
X2402*
X2392Y1270*
X2387Y1274*
X2383Y1277*
X2379Y1278*
X2370*
Y1290*
X2359*
Y1309*
X2370*
Y1353*
X2370Y1353*
X2375Y1357*
X2376Y1357*
X2378Y1355*
X2382Y1352*
Y1359*
X2371*
X2370Y1358*
X2365*
X2325*
X2323Y1362*
X2322*
X2306*
Y1333*
Y1305*
X2322*
X2323*
X2325Y1309*
X2328*
X2335*
Y1290*
X2324*
Y1241*
X2370*
Y1251*
X2374Y1252*
X2375Y1252*
X2388Y1239*
X2392Y1237*
X2392Y1234*
X2392Y1231*
X2391Y1231*
X2375Y1214*
X2370Y1216*
Y1223*
X2325*
X2323Y1227*
X2322*
X2306*
Y1198*
Y1169*
X2322*
X2323*
X2325Y1173*
X2328*
X2335*
Y1155*
X2324*
Y1106*
X2370*
Y1155*
X2359*
Y1173*
X2370*
Y1186*
X2376*
X2381Y1187*
X2385Y1190*
X2405Y1210*
X2410*
X2413Y1205*
X2412Y1205*
X2412Y1201*
Y1193*
X2412Y1189*
X2415Y1185*
X2418Y1183*
X2422Y1182*
X2423*
Y1114*
X2392Y1083*
X2308*
Y1106*
X2319*
Y1155*
X2273*
Y1143*
X2206*
X2201Y1142*
X2197Y1139*
X2171Y1113*
X2166Y1115*
Y1380*
X2219Y1433*
X2879*
X2884Y1433*
X2887Y1436*
X3021Y1570*
X3024Y1574*
X3025Y1578*
Y1611*
X3037*
Y1621*
X3059*
Y1611*
X3109*
Y1656*
X3113Y1658*
Y1659*
Y1675*
X3084*
X3055*
Y1659*
Y1658*
X3059Y1656*
Y1653*
Y1646*
X3037*
Y1656*
X2988*
Y1611*
X3000*
Y1583*
X2874Y1457*
X2214*
X2210Y1456*
X2206Y1453*
X2153Y1401*
X2149Y1403*
Y1499*
X2201Y1552*
X2273*
Y1539*
X2284*
Y1525*
X2285Y1521*
X2287Y1517*
X2300Y1504*
X2304Y1501*
X2309Y1500*
X2412*
X2417Y1501*
X2421Y1504*
X2444Y1527*
X2446Y1531*
X2447Y1535*
Y1615*
X2449*
X2453Y1616*
X2456Y1618*
X2466*
X2471Y1619*
X2475Y1622*
X2504Y1650*
X2506Y1654*
X2507Y1659*
Y1787*
X2506Y1791*
X2504Y1795*
X2458Y1841*
X2454Y1843*
X2450Y1844*
X2246*
X2242Y1843*
X2238Y1841*
X2192Y1795*
X2190Y1791*
X2189Y1787*
Y1735*
X2190Y1730*
X2192Y1726*
X2228Y1690*
X2232Y1688*
X2237Y1687*
X2273*
Y1674*
X2319*
Y1723*
X2273*
Y1711*
X2242*
X2213Y1740*
Y1782*
X2251Y1820*
X2445*
X2483Y1782*
Y1664*
X2465Y1646*
X2463Y1646*
X2459Y1651*
Y1659*
X2458Y1663*
X2457Y1664*
X2456Y1668*
X2457Y1672*
X2458Y1673*
X2459Y1677*
Y1685*
X2458Y1689*
X2456Y1692*
Y1695*
X2458Y1698*
X2459Y1702*
Y1711*
X2458Y1715*
X2456Y1718*
X2453Y1720*
X2449Y1721*
X2447*
Y1729*
X2448Y1730*
X2449Y1736*
X2448Y1743*
X2444Y1748*
X2439Y1751*
X2433Y1753*
X2427Y1751*
X2421Y1748*
X2418Y1743*
X2417Y1736*
X2418Y1730*
X2421Y1726*
X2420Y1722*
X2419Y1720*
X2418Y1720*
X2415Y1718*
X2412Y1715*
X2412Y1711*
Y1702*
X2412Y1701*
X2409Y1696*
X2408Y1696*
X2405Y1695*
X2393Y1707*
X2390Y1710*
X2385Y1711*
X2370*
Y1723*
X2359*
Y1742*
X2370*
Y1791*
X2325*
X2323Y1795*
X2322*
X2306*
Y1766*
Y1738*
X2322*
X2323*
X2325Y1742*
X2328*
X2335*
Y1723*
X2324*
Y1674*
X2370*
Y1687*
X2380*
X2394Y1672*
X2396Y1671*
X2396Y1670*
X2395Y1666*
X2393Y1664*
X2375Y1646*
X2370Y1648*
Y1656*
X2325*
X2323Y1660*
X2322*
X2306*
Y1631*
Y1603*
X2322*
X2323*
X2325Y1607*
X2328*
X2335*
Y1588*
X2324*
Y1539*
X2370*
Y1588*
X2359*
Y1607*
X2370*
Y1619*
X2377*
X2382Y1620*
X2386Y1623*
X2405Y1642*
X2409Y1642*
X2412Y1637*
X2412Y1634*
Y1626*
X2412Y1622*
X2415Y1618*
X2418Y1616*
X2422Y1615*
X2423*
Y1540*
X2407Y1525*
X2314*
X2308Y1530*
Y1539*
X2319*
Y1588*
X2273*
Y1576*
X2196*
X2191Y1575*
X2187Y1572*
X2135Y1520*
X2131Y1522*
Y1795*
X2212Y1876*
X2518*
X2520Y1871*
X2517Y1867*
X2516Y1860*
Y1677*
Y1491*
X2517Y1484*
X2521Y1478*
X2527Y1474*
X2534Y1473*
X2541Y1474*
X2547Y1478*
X2551Y1484*
X2552Y1491*
Y1669*
X2576*
X2578Y1664*
X2578Y1663*
X2577Y1659*
Y1651*
X2578Y1647*
X2577Y1644*
X2577Y1644*
X2574Y1640*
X2601*
X2629*
X2631Y1643*
X2667*
X2675Y1635*
Y1625*
X2662*
Y1578*
X2658Y1575*
Y1575*
Y1558*
X2717*
Y1575*
Y1575*
X2713Y1578*
Y1580*
Y1625*
X2699*
Y1640*
X2698Y1645*
X2696Y1649*
X2681Y1664*
X2677Y1667*
X2672Y1667*
X2626*
X2624Y1672*
X2624Y1673*
X2625Y1677*
Y1685*
X2624Y1689*
X2622Y1692*
Y1695*
X2624Y1698*
X2625Y1702*
Y1711*
X2624Y1715*
X2622Y1718*
X2618Y1720*
X2614Y1721*
X2613*
Y1764*
X2612Y1768*
X2611Y1770*
X2642Y1802*
X3110*
X3434Y1478*
Y1303*
X3431Y1303*
X3425Y1299*
X3422Y1294*
X3421Y1287*
X3422Y1281*
X3425Y1276*
X3431Y1272*
X3437Y1271*
X3443Y1272*
X3448Y1276*
X3452Y1281*
X3453Y1286*
X3454Y1288*
X3457Y1292*
X3458Y1296*
Y1483*
X3457Y1488*
X3454Y1491*
X3124Y1822*
X3120Y1825*
X3116Y1826*
X3117Y1831*
X3154*
X3471Y1514*
Y1297*
X3468Y1293*
X3467Y1287*
X3468Y1281*
X3471Y1275*
X3477Y1272*
X3483Y1271*
X3489Y1272*
X3495Y1275*
X3498Y1281*
X3499Y1287*
X3498Y1293*
X3495Y1297*
Y1519*
X3494Y1524*
X3492Y1528*
X3168Y1851*
X3164Y1854*
X3159Y1855*
X2929*
X2924Y1858*
X2918Y1859*
X2912Y1858*
X2907Y1854*
X2903Y1849*
X2902Y1843*
X2903Y1836*
X2907Y1831*
X2907Y1831*
X2905Y1826*
X2637*
X2633Y1825*
X2629Y1822*
X2593Y1786*
X2588Y1785*
X2582Y1782*
X2579Y1776*
X2578Y1770*
X2579Y1764*
X2582Y1759*
X2588Y1755*
X2589Y1755*
Y1721*
X2588*
X2584Y1720*
X2580Y1718*
X2578Y1715*
X2577Y1711*
Y1702*
X2578Y1698*
X2578Y1698*
X2576Y1693*
X2552*
Y1860*
X2551Y1867*
X2548Y1871*
X2551Y1876*
X2914*
X2919Y1877*
X2923Y1879*
X3021Y1978*
X3024Y1982*
X3025Y1986*
Y2044*
X3037*
Y2055*
X3059*
Y2044*
X3109*
Y2089*
X3113Y2091*
Y2092*
Y2108*
X3084*
X3055*
Y2092*
Y2091*
X3059Y2089*
Y2086*
Y2079*
X3037*
Y2089*
X2988*
Y2044*
X3000*
Y1991*
X2909Y1900*
X2549*
X2547Y1902*
X2547Y1905*
X2550Y1910*
X2551Y1917*
X2550Y1922*
Y2102*
X2576*
X2578Y2097*
X2578Y2096*
X2577Y2093*
Y2084*
X2578Y2080*
X2577Y2077*
X2577Y2077*
X2574Y2073*
X2601*
X2630*
X2632Y2074*
X2635Y2074*
X2646Y2063*
X2650Y2061*
X2655Y2060*
X2657*
X2661Y2056*
Y2049*
X2657Y2046*
Y2046*
Y2029*
X2716*
Y2046*
Y2046*
X2712Y2049*
Y2051*
Y2096*
X2661*
Y2090*
X2656Y2088*
X2651Y2093*
X2647Y2097*
X2643Y2100*
X2638Y2101*
X2626*
X2624Y2106*
X2624Y2106*
X2625Y2110*
Y2118*
X2624Y2122*
X2622Y2125*
Y2128*
X2624Y2131*
X2625Y2135*
Y2144*
X2624Y2148*
X2622Y2151*
X2618Y2153*
X2614Y2154*
X2613*
Y2195*
X2616Y2199*
X2617Y2204*
X2676Y2263*
X3160*
X3390Y2032*
X3520Y1903*
Y1298*
X3517Y1294*
X3516Y1287*
X3517Y1281*
X3521Y1276*
X3526Y1272*
X3532Y1271*
X3538Y1272*
X3544Y1276*
X3547Y1281*
X3549Y1287*
X3547Y1294*
X3544Y1298*
Y1899*
X3549Y1901*
X3571Y1879*
Y1298*
X3568Y1293*
X3567Y1287*
X3568Y1281*
X3572Y1275*
X3577Y1272*
X3583Y1271*
X3589Y1272*
X3595Y1275*
X3598Y1281*
X3599Y1287*
X3598Y1293*
X3595Y1298*
Y1884*
X3594Y1888*
X3592Y1892*
X3156Y2328*
X3152Y2330*
X3148Y2331*
X2926*
X2922Y2334*
X2916Y2336*
X2910Y2334*
X2904Y2331*
X2901Y2326*
X2899Y2319*
X2901Y2313*
X2904Y2308*
X2910Y2304*
X2916Y2303*
X2922Y2304*
X2926Y2307*
X3142*
X3158Y2292*
X3156Y2287*
X2671*
X2666Y2286*
X2662Y2284*
X2600Y2221*
X2594Y2220*
X2589Y2217*
X2586Y2211*
X2584Y2205*
X2586Y2199*
X2589Y2194*
Y2154*
X2588*
X2584Y2153*
X2580Y2151*
X2578Y2148*
X2577Y2144*
Y2135*
X2578Y2131*
X2578Y2131*
X2576Y2126*
X2550*
Y2204*
X2591Y2244*
X2595Y2250*
X2596Y2257*
Y2541*
X2670*
X2676Y2542*
X2681Y2546*
X2706Y2571*
X2707Y2571*
X2711Y2576*
X2712Y2583*
X2711Y2589*
X2707Y2594*
X2702Y2598*
X2696Y2599*
X2689Y2598*
X2684Y2594*
X2684Y2593*
X2663Y2573*
X2588*
X2483Y2678*
X2477Y2682*
X2470Y2683*
X2323*
Y2705*
X2328Y2708*
X2329Y2708*
X2333Y2707*
X2341*
X2345Y2708*
X2348Y2707*
X2348Y2707*
X2352Y2704*
Y2731*
Y2758*
X2349Y2760*
Y2780*
X2352Y2784*
X2399*
X2401Y2780*
X2402*
X2419*
Y2809*
Y2839*
X2402*
X2401*
X2399Y2835*
X2396*
X2352*
Y2822*
X2349*
X2345Y2821*
X2341Y2818*
X2328Y2805*
X2325Y2801*
X2325Y2797*
Y2756*
X2320Y2753*
X2319Y2754*
X2315Y2754*
X2312*
X2310Y2758*
X2310Y2759*
X2311Y2765*
X2309Y2771*
X2307Y2776*
Y2821*
X2337Y2852*
X2495*
X2990Y2357*
X2994Y2354*
X2999Y2353*
X3197*
X3421Y2129*
X3623Y1927*
Y1295*
X3620Y1291*
X3619Y1285*
X3620Y1279*
X3623Y1273*
X3629Y1270*
X3635Y1269*
X3641Y1270*
X3646Y1273*
X3650Y1279*
X3651Y1285*
X3650Y1291*
X3647Y1295*
Y1932*
X3646Y1937*
X3644Y1941*
X3441Y2144*
X3439Y2146*
X3436Y2148*
X3211Y2374*
X3207Y2376*
X3202Y2377*
X3004*
X2508Y2873*
X2505Y2875*
X2500Y2876*
X2332*
X2328Y2875*
X2324Y2873*
X2286Y2835*
X2283Y2831*
X2282Y2826*
Y2776*
X2279Y2771*
X2278Y2765*
X2278Y2764*
X2277Y2761*
X2276Y2756*
Y2752*
X2274Y2751*
X2272Y2748*
X2271Y2744*
Y2717*
X2267Y2713*
X2266Y2713*
X2260Y2717*
X2253Y2718*
X1762*
X1759Y2723*
X1760Y2724*
X1761Y2730*
X1760Y2737*
X1757Y2741*
Y2853*
X1756Y2858*
X1753Y2862*
X1701Y2914*
Y2938*
X1712*
Y2988*
X1701*
Y3011*
X1711*
Y3060*
G37*
G36*
X1628Y2992D02*
X1611D01*
Y2973*
X1628*
Y2992*
G37*
G36*
X2293Y2991D02*
X2276D01*
Y2972*
X2293*
Y2991*
G37*
G36*
X1628Y2953D02*
X1611D01*
Y2934*
X1628*
Y2953*
G37*
G36*
X2293Y2953D02*
X2276D01*
Y2934*
X2293*
Y2953*
G37*
G36*
X2237Y3064D02*
X2192D01*
Y3015*
X2203*
Y2987*
X2192*
Y2938*
X2203*
Y2929*
X2204Y2925*
X2206Y2921*
X2240Y2887*
X2244Y2884*
X2249Y2883*
X2521*
X2630Y2775*
X2631Y2771*
X2634Y2765*
X2640Y2762*
X2646Y2760*
X2652Y2762*
X2657Y2765*
X2661Y2771*
X2662Y2777*
X2661Y2783*
X2657Y2788*
X2652Y2792*
X2646Y2793*
X2535Y2904*
X2531Y2907*
X2526Y2908*
X2254*
X2229Y2933*
X2231Y2938*
X2237*
X2239Y2934*
X2240*
X2256*
Y2962*
Y2991*
X2240*
X2239*
X2237Y2987*
X2234*
X2227*
Y3015*
X2237*
Y3064*
G37*
G36*
X2457Y2839D02*
X2439D01*
Y2819*
X2457*
Y2839*
G37*
G36*
X1674Y2831D02*
X1656D01*
Y2811*
X1674*
Y2831*
G37*
G36*
X2457Y2800D02*
X2439D01*
Y2780*
X2457*
Y2800*
G37*
G36*
X1674Y2792D02*
X1656D01*
Y2772*
X1674*
Y2792*
G37*
G36*
X3631Y3592D02*
X3625Y3591D01*
X3619Y3587*
X3616Y3582*
X3615Y3576*
X3615Y3575*
Y3542*
X3596Y3523*
X3592Y3518*
X3591Y3512*
Y3432*
X3559Y3400*
X3500*
X3494Y3399*
X3488Y3395*
X2867Y2773*
X2866Y2773*
X2862Y2768*
X2861Y2761*
X2862Y2755*
X2866Y2750*
X2871Y2746*
X2878Y2745*
X2884Y2746*
X2889Y2750*
X2890Y2751*
X3507Y3368*
X3565*
X3572Y3369*
X3577Y3372*
X3618Y3414*
X3622Y3419*
X3623Y3425*
Y3505*
X3642Y3524*
X3646Y3529*
X3647Y3536*
Y3575*
X3647Y3576*
X3646Y3582*
X3643Y3587*
X3637Y3591*
X3631Y3592*
G37*
G36*
X2372Y2757D02*
Y2741D01*
X2381*
Y2744*
X2380Y2750*
X2377Y2754*
X2372Y2757*
G37*
G36*
X2381Y2721D02*
X2372D01*
Y2704*
X2377Y2707*
X2380Y2712*
X2381Y2717*
Y2721*
G37*
G36*
X1615D02*
X1606D01*
Y2704*
X1611Y2707*
X1614Y2712*
X1615Y2717*
Y2721*
G37*
G36*
X2408Y2410D02*
X2389D01*
Y2393*
X2408*
Y2410*
G37*
G36*
X2370D02*
X2351D01*
Y2393*
X2370*
Y2410*
G37*
G36*
X2261D02*
X2242D01*
Y2393*
X2261*
Y2410*
G37*
G36*
X2222D02*
X2204D01*
Y2393*
X2222*
Y2410*
G37*
G36*
X1602D02*
X1583D01*
Y2393*
X1602*
Y2410*
G37*
G36*
X1564D02*
X1545D01*
Y2393*
X1564*
Y2410*
G37*
G36*
X1460D02*
X1442D01*
Y2393*
X1460*
Y2410*
G37*
G36*
X1422D02*
X1403D01*
Y2393*
X1422*
Y2410*
G37*
G36*
X2286Y2228D02*
X2269D01*
Y2209*
X2286*
Y2228*
G37*
G36*
X1434Y2205D02*
X1414D01*
Y2187*
X1434*
Y2205*
G37*
G36*
X1395D02*
X1375D01*
Y2187*
X1395*
Y2205*
G37*
G36*
X2286Y2190D02*
X2269D01*
Y2171*
X2286*
Y2190*
G37*
G36*
X1506Y2164D02*
X1502D01*
Y2155*
X1519*
X1516Y2159*
X1511Y2162*
X1506Y2164*
G37*
G36*
X1483D02*
X1479D01*
X1474Y2162*
X1469Y2159*
X1466Y2155*
X1483*
Y2164*
G37*
G36*
X1824Y2153D02*
X1807D01*
Y2134*
X1824*
Y2153*
G37*
G36*
X3113Y2145D02*
X3094D01*
Y2128*
X3113*
Y2145*
G37*
G36*
X3074D02*
X3055D01*
Y2128*
X3074*
Y2145*
G37*
G36*
X1824Y2114D02*
X1807D01*
Y2095*
X1824*
Y2114*
G37*
G36*
X3011Y2175D02*
X3005Y2174D01*
X3000Y2170*
X2996Y2165*
X2995Y2159*
X2996Y2152*
X3000Y2147*
X3000Y2147*
Y2140*
X2988*
Y2095*
X3037*
Y2140*
X3025*
Y2150*
X3026Y2152*
X3028Y2159*
X3026Y2165*
X3023Y2170*
X3018Y2174*
X3011Y2175*
G37*
G36*
X2286Y2093D02*
X2269D01*
Y2074*
X2286*
Y2093*
G37*
G36*
X2628Y2053D02*
X2611D01*
Y2044*
X2614*
X2620Y2045*
X2625Y2048*
X2628Y2053*
G37*
G36*
X2591D02*
X2574D01*
X2577Y2048*
X2582Y2045*
X2588Y2044*
X2591*
Y2053*
G37*
G36*
X1034Y2056D02*
X1015D01*
Y2039*
X1034*
Y2056*
G37*
G36*
X995D02*
X976D01*
Y2039*
X995*
Y2056*
G37*
G36*
X2286Y2054D02*
X2269D01*
Y2036*
X2286*
Y2054*
G37*
G36*
X1101Y2089D02*
X1052D01*
Y2044*
X1064*
Y2033*
X1065Y2028*
X1068Y2024*
X1079Y2012*
X1083Y2010*
X1085Y2009*
X1090Y2006*
X1097Y2005*
X1103Y2006*
X1108Y2010*
X1112Y2015*
X1113Y2021*
X1112Y2027*
X1108Y2033*
X1103Y2036*
X1097Y2037*
X1096Y2037*
X1092Y2041*
X1093Y2044*
X1101*
Y2089*
G37*
G36*
X1824Y2018D02*
X1807D01*
Y1999*
X1824*
Y2018*
G37*
G36*
X2716Y2009D02*
X2696D01*
Y1991*
X2716*
Y2009*
G37*
G36*
X2677D02*
X2657D01*
Y1991*
X2677*
Y2009*
G37*
G36*
X1824Y1979D02*
X1807D01*
Y1960*
X1824*
Y1979*
G37*
G36*
X1161Y1931D02*
X1155Y1930D01*
X1150Y1927*
X1026*
X1021Y1926*
X1017Y1923*
X510Y1416*
X507Y1412*
X507Y1407*
Y1151*
X504Y1149*
X502Y1145*
X501Y1141*
Y1078*
X502Y1073*
X504Y1069*
X508Y1066*
X513Y1065*
X525*
X529Y1066*
X533Y1069*
X536Y1073*
X537Y1078*
Y1141*
X536Y1145*
X533Y1149*
X531Y1151*
Y1402*
X1031Y1902*
X1150*
X1155Y1899*
X1161Y1898*
X1167Y1899*
X1172Y1903*
X1176Y1908*
X1177Y1915*
X1176Y1921*
X1172Y1926*
X1167Y1930*
X1161Y1931*
G37*
G36*
X2286Y1795D02*
X2269D01*
Y1776*
X2286*
Y1795*
G37*
G36*
X1434Y1772D02*
X1414D01*
Y1754*
X1434*
Y1772*
G37*
G36*
X1395D02*
X1375D01*
Y1754*
X1395*
Y1772*
G37*
G36*
X2286Y1756D02*
X2269D01*
Y1738*
X2286*
Y1756*
G37*
G36*
X1506Y1730D02*
X1502D01*
Y1722*
X1519*
X1516Y1726*
X1511Y1729*
X1506Y1730*
G37*
G36*
X1483D02*
X1479D01*
X1474Y1729*
X1469Y1726*
X1466Y1722*
X1483*
Y1730*
G37*
G36*
X1824Y1720D02*
X1807D01*
Y1701*
X1824*
Y1720*
G37*
G36*
X1101Y1707D02*
X1052D01*
Y1696*
X1030*
Y1707*
X980*
Y1696*
X947*
X942Y1695*
X938Y1692*
X909Y1663*
X907Y1660*
X906Y1655*
Y1602*
X907Y1597*
X909Y1593*
X954Y1548*
X958Y1546*
X963Y1545*
X1056*
X1056Y1544*
X1053Y1539*
X902*
X897Y1538*
X893Y1536*
X610Y1253*
X607Y1249*
X607Y1244*
Y1151*
X604Y1149*
X602Y1145*
X601Y1141*
Y1078*
X602Y1073*
X604Y1069*
X608Y1066*
X613Y1065*
X625*
X629Y1066*
X633Y1069*
X636Y1073*
X637Y1078*
Y1141*
X636Y1145*
X633Y1149*
X631Y1151*
Y1239*
X907Y1515*
X1172*
X1177Y1516*
X1181Y1518*
X1185Y1523*
X1190Y1524*
X1195Y1527*
X1199Y1533*
X1200Y1539*
X1199Y1545*
X1195Y1550*
X1190Y1554*
X1184Y1555*
X1178Y1554*
X1172Y1550*
X1169Y1545*
X1168Y1540*
X1167Y1539*
X1092*
X1089Y1544*
X1090Y1546*
X1091Y1552*
X1090Y1558*
X1086Y1564*
X1081Y1567*
X1075Y1568*
X1075Y1568*
X1074Y1568*
X1070Y1569*
X968*
X930Y1607*
Y1650*
X952Y1672*
X977*
X980Y1668*
Y1662*
X976Y1659*
Y1659*
Y1642*
X1034*
Y1659*
Y1659*
X1030Y1662*
Y1664*
Y1672*
X1052*
Y1662*
X1101*
Y1707*
G37*
G36*
X3113Y1712D02*
X3094D01*
Y1695*
X3113*
Y1712*
G37*
G36*
X3074D02*
X3055D01*
Y1695*
X3074*
Y1712*
G37*
G36*
X1824Y1681D02*
X1807D01*
Y1662*
X1824*
Y1681*
G37*
G36*
X2997Y1781D02*
X2990Y1779D01*
X2985Y1776*
X2981Y1771*
X2980Y1764*
X2981Y1758*
X2985Y1753*
X2990Y1749*
X2995Y1748*
X3000Y1743*
Y1707*
X2988*
Y1662*
X3037*
Y1707*
X3025*
Y1748*
X3024Y1753*
X3021Y1757*
X3013Y1765*
X3012Y1771*
X3008Y1776*
X3003Y1779*
X2997Y1781*
G37*
G36*
X2286Y1660D02*
X2269D01*
Y1641*
X2286*
Y1660*
G37*
G36*
X2628Y1620D02*
X2611D01*
Y1611*
X2614*
X2620Y1612*
X2625Y1615*
X2628Y1620*
G37*
G36*
X2591D02*
X2574D01*
X2577Y1615*
X2582Y1612*
X2588Y1611*
X2591*
Y1620*
G37*
G36*
X1034Y1623D02*
X1015D01*
Y1606*
X1034*
Y1623*
G37*
G36*
X995D02*
X976D01*
Y1606*
X995*
Y1623*
G37*
G36*
X2286Y1621D02*
X2269D01*
Y1603*
X2286*
Y1621*
G37*
G36*
X1101Y1656D02*
X1052D01*
Y1610*
X1064*
Y1602*
X1065Y1598*
X1067Y1595*
X1068Y1590*
X1071Y1585*
X1077Y1581*
X1083Y1580*
X1089Y1581*
X1094Y1585*
X1098Y1590*
X1099Y1597*
X1098Y1603*
X1096Y1605*
X1099Y1610*
X1101*
Y1656*
G37*
G36*
X1824Y1585D02*
X1807D01*
Y1566*
X1824*
Y1585*
G37*
G36*
Y1546D02*
X1807D01*
Y1527*
X1824*
Y1546*
G37*
G36*
X2717Y1538D02*
X2697D01*
Y1520*
X2717*
Y1538*
G37*
G36*
X2677D02*
X2658D01*
Y1520*
X2677*
Y1538*
G37*
G36*
X2410Y1359D02*
X2402D01*
Y1352*
X2407Y1355*
X2410Y1359*
G37*
G36*
X2286Y1362D02*
X2269D01*
Y1343*
X2286*
Y1362*
G37*
G36*
X1434Y1339D02*
X1414D01*
Y1321*
X1434*
Y1339*
G37*
G36*
X1395D02*
X1375D01*
Y1321*
X1395*
Y1339*
G37*
G36*
X2286Y1323D02*
X2269D01*
Y1305*
X2286*
Y1323*
G37*
G36*
X1506Y1297D02*
X1502D01*
Y1289*
X1519*
X1516Y1293*
X1511Y1296*
X1506Y1297*
G37*
G36*
X1483D02*
X1479D01*
X1474Y1296*
X1469Y1293*
X1466Y1289*
X1483*
Y1297*
G37*
G36*
X1824Y1287D02*
X1807D01*
Y1268*
X1824*
Y1287*
G37*
G36*
X2951Y1452D02*
X2945Y1451D01*
X2940Y1447*
X2936Y1442*
X2935Y1436*
X2936Y1430*
X2940Y1424*
X2945Y1421*
X2951Y1420*
X2958Y1421*
X2962Y1424*
X3357*
X3378Y1403*
Y1292*
X3376Y1289*
X3375Y1282*
X3376Y1276*
X3379Y1271*
X3385Y1267*
X3391Y1266*
X3397Y1267*
X3402Y1271*
X3406Y1276*
X3407Y1282*
X3406Y1289*
X3403Y1294*
Y1408*
X3402Y1413*
X3399Y1417*
X3371Y1445*
X3367Y1447*
X3362Y1448*
X2962*
X2958Y1451*
X2951Y1452*
G37*
G36*
X3113Y1279D02*
X3094D01*
Y1262*
X3113*
Y1279*
G37*
G36*
X3074D02*
X3055D01*
Y1262*
X3074*
Y1279*
G37*
G36*
X2534Y1411D02*
X2527Y1409D01*
X2521Y1405*
X2517Y1399*
X2516Y1393*
Y1283*
X2517Y1276*
X2521Y1270*
X2527Y1266*
X2534Y1265*
X2535Y1265*
X2561Y1239*
X2565Y1237*
X2569Y1236*
X2576*
X2578Y1231*
X2578Y1230*
X2577Y1226*
Y1218*
X2578Y1214*
X2577Y1211*
X2577Y1211*
X2574Y1206*
X2601*
X2629*
X2631Y1210*
X2675*
Y1192*
X2662*
Y1145*
X2658Y1142*
Y1142*
Y1124*
X2717*
Y1142*
Y1142*
X2713Y1145*
Y1147*
Y1192*
X2699*
Y1215*
X2698Y1220*
X2696Y1224*
X2689Y1231*
X2685Y1233*
X2680Y1234*
X2626*
X2624Y1239*
X2624Y1240*
X2625Y1244*
Y1252*
X2624Y1256*
X2622Y1259*
Y1262*
X2624Y1265*
X2625Y1269*
Y1278*
X2624Y1282*
X2622Y1285*
X2618Y1287*
X2614Y1288*
X2613*
Y1325*
X2615Y1328*
X2616Y1334*
X2660Y1377*
X3268*
X3322Y1323*
Y1287*
X3319Y1283*
X3318Y1277*
X3319Y1270*
X3323Y1265*
X3328Y1262*
X3334Y1260*
X3340Y1262*
X3346Y1265*
X3349Y1270*
X3350Y1277*
X3349Y1283*
X3346Y1287*
Y1328*
X3345Y1333*
X3343Y1337*
X3282Y1398*
X3278Y1400*
X3273Y1401*
X2655*
X2650Y1400*
X2646Y1398*
X2646*
X2599Y1351*
X2594Y1350*
X2589Y1346*
X2585Y1341*
X2584Y1335*
X2585Y1328*
X2589Y1323*
X2589Y1323*
Y1288*
X2588*
X2584Y1287*
X2580Y1285*
X2578Y1282*
X2577Y1278*
Y1269*
X2577Y1269*
X2574Y1263*
X2574Y1263*
X2572Y1263*
X2552Y1282*
X2552Y1283*
Y1393*
X2551Y1399*
X2547Y1405*
X2541Y1409*
X2534Y1411*
G37*
G36*
X1824Y1248D02*
X1807D01*
Y1229*
X1824*
Y1248*
G37*
G36*
X2988Y1350D02*
X2982Y1349D01*
X2976Y1345*
X2973Y1340*
X2972Y1334*
X2973Y1328*
X2976Y1322*
X2982Y1319*
X2987Y1318*
X3000Y1304*
Y1274*
X2988*
Y1229*
X3037*
Y1274*
X3025*
Y1309*
X3024Y1314*
X3021Y1318*
X3004Y1335*
X3003Y1340*
X2999Y1345*
X2994Y1349*
X2988Y1350*
G37*
G36*
X2286Y1227D02*
X2269D01*
Y1208*
X2286*
Y1227*
G37*
G36*
X2628Y1187D02*
X2611D01*
Y1178*
X2614*
X2620Y1179*
X2625Y1182*
X2628Y1187*
G37*
G36*
X2591D02*
X2574D01*
X2577Y1182*
X2582Y1179*
X2588Y1178*
X2591*
Y1187*
G37*
G36*
X1034Y1190D02*
X1015D01*
Y1173*
X1034*
Y1190*
G37*
G36*
X995D02*
X976D01*
Y1173*
X995*
Y1190*
G37*
G36*
X2286Y1188D02*
X2269D01*
Y1169*
X2286*
Y1188*
G37*
G36*
X1101Y1223D02*
X1052D01*
Y1177*
X1064*
Y1168*
X1065Y1166*
X1064Y1164*
X1066Y1158*
X1069Y1153*
X1074Y1149*
X1081Y1148*
X1087Y1149*
X1092Y1153*
X1096Y1158*
X1097Y1164*
X1096Y1170*
X1094Y1172*
X1097Y1177*
X1101*
Y1223*
G37*
G36*
X1824Y1152D02*
X1807D01*
Y1133*
X1824*
Y1152*
G37*
G36*
X881Y1238D02*
D01*
X744*
X740Y1237*
X736Y1234*
X710Y1209*
X707Y1205*
X707Y1200*
Y1151*
X704Y1149*
X702Y1145*
X701Y1141*
Y1078*
X702Y1073*
X704Y1069*
X708Y1066*
X713Y1065*
X725*
X729Y1066*
X733Y1069*
X736Y1073*
X737Y1078*
Y1141*
X736Y1145*
X733Y1149*
X731Y1151*
Y1195*
X749Y1214*
X876*
X982Y1108*
X986Y1105*
X990Y1104*
X1074*
X1079Y1101*
X1085Y1100*
X1091Y1101*
X1096Y1105*
X1100Y1110*
X1101Y1116*
X1100Y1122*
X1096Y1128*
X1091Y1131*
X1085Y1132*
X1079Y1131*
X1074Y1128*
X996*
X889Y1234*
X885Y1237*
X881Y1238*
G37*
G36*
X1824Y1113D02*
X1807D01*
Y1094*
X1824*
Y1113*
G37*
G36*
X825Y1153D02*
X813D01*
X808Y1152*
X804Y1149*
X802Y1145*
X801Y1141*
Y1078*
X802Y1073*
X804Y1069*
X808Y1066*
X813Y1065*
X825*
X829Y1066*
X833Y1069*
X836Y1073*
X837Y1078*
Y1093*
X850*
X854Y1090*
X861Y1089*
X867Y1090*
X872Y1094*
X876Y1099*
X877Y1105*
X876Y1112*
X872Y1117*
X871Y1118*
X868Y1121*
X863Y1124*
X857Y1125*
X837*
Y1141*
X836Y1145*
X833Y1149*
X829Y1152*
X825Y1153*
G37*
G36*
X2717Y1105D02*
X2697D01*
Y1087*
X2717*
Y1105*
G37*
G36*
X2677D02*
X2658D01*
Y1087*
X2677*
Y1105*
G37*
G36*
X1387Y3028D02*
X1380Y3027D01*
X1375Y3023*
X1372Y3018*
X1371Y3013*
X1145Y2787*
X1143Y2784*
X1142Y2779*
Y2624*
X767Y2249*
X764Y2245*
X763Y2240*
Y1845*
X410Y1492*
X407Y1488*
X407Y1483*
Y1151*
X404Y1149*
X402Y1145*
X401Y1141*
Y1078*
X402Y1073*
X404Y1069*
X408Y1066*
X413Y1065*
X425*
X429Y1066*
X433Y1069*
X436Y1073*
X437Y1078*
Y1141*
X436Y1145*
X433Y1149*
X431Y1151*
Y1478*
X784Y1831*
X786Y1835*
X787Y1840*
Y2235*
X1162Y2610*
X1165Y2614*
X1166Y2619*
Y2774*
X1388Y2996*
X1393Y2997*
X1398Y3000*
X1402Y3005*
X1403Y3012*
X1402Y3018*
X1398Y3023*
X1393Y3027*
X1387Y3028*
G37*
G36*
X375Y1153D02*
X363D01*
X358Y1152*
X354Y1149*
X352Y1145*
X351Y1141*
Y1078*
X352Y1073*
X353Y1072*
Y1032*
X354Y1026*
X357Y1021*
X380Y998*
X380Y997*
X386Y994*
X392Y993*
X398Y994*
X403Y997*
X407Y1003*
X408Y1009*
X407Y1015*
X403Y1020*
X403Y1021*
X385Y1039*
Y1072*
X386Y1073*
X387Y1078*
Y1141*
X386Y1145*
X383Y1149*
X379Y1152*
X375Y1153*
G37*
G36*
X829Y782D02*
Y745D01*
X841*
Y767*
X840Y773*
X836Y778*
X831Y782*
X829Y782*
G37*
G36*
X809D02*
X807Y782D01*
X801Y778*
X798Y773*
X797Y767*
Y745*
X809*
Y782*
G37*
G36*
X379D02*
Y745D01*
X391*
Y767*
X390Y773*
X386Y778*
X381Y782*
X379Y782*
G37*
G36*
X359D02*
X357Y782D01*
X351Y778*
X348Y773*
X347Y767*
Y745*
X359*
Y782*
G37*
G36*
X841Y725D02*
X829D01*
Y688*
X831Y689*
X836Y692*
X840Y697*
X841Y704*
Y725*
G37*
G36*
X809D02*
X797D01*
Y704*
X798Y697*
X801Y692*
X807Y689*
X809Y688*
Y725*
G37*
G36*
X391D02*
X379D01*
Y688*
X381Y689*
X386Y692*
X390Y697*
X391Y704*
Y725*
G37*
G36*
X359D02*
X347D01*
Y704*
X348Y697*
X351Y692*
X357Y689*
X359Y688*
Y725*
G37*
G36*
X775Y779D02*
X763D01*
X758Y778*
X754Y775*
X752Y771*
X751Y767*
Y704*
X752Y699*
X754Y695*
X757Y693*
Y643*
X737*
Y599*
X733Y597*
X731Y598*
Y693*
X733Y695*
X736Y699*
X737Y704*
Y767*
X736Y771*
X733Y775*
X729Y778*
X725Y779*
X713*
X708Y778*
X704Y775*
X702Y771*
X701Y767*
Y704*
X702Y699*
X704Y695*
X707Y693*
Y526*
X707Y521*
X710Y517*
X723Y504*
X727Y501*
X732Y500*
X732*
X747*
X750Y497*
Y488*
X739*
Y438*
X750*
Y420*
X751Y416*
X754Y412*
X773Y392*
X771Y388*
X694*
X651Y430*
Y435*
X655Y438*
X661*
X663Y434*
X664*
X680*
Y463*
Y492*
X664*
X663*
X661Y488*
X658*
X651*
Y500*
X650Y504*
X647Y508*
X631Y525*
Y537*
X635Y539*
X636*
X655*
Y567*
X665*
Y576*
X695*
Y594*
Y594*
X691Y597*
Y599*
Y643*
X681*
Y693*
X683Y695*
X686Y699*
X687Y704*
Y767*
X686Y771*
X683Y775*
X679Y778*
X675Y779*
X663*
X658Y778*
X654Y775*
X652Y771*
X651Y767*
Y704*
X652Y699*
X654Y695*
X657Y693*
Y643*
X639*
Y597*
X635Y594*
X631Y596*
Y693*
X633Y695*
X636Y699*
X637Y704*
Y767*
X636Y771*
X633Y775*
X629Y778*
X625Y779*
X613*
X608Y778*
X604Y775*
X602Y771*
X601Y767*
Y704*
X602Y699*
X604Y695*
X607Y693*
Y520*
X607Y515*
X610Y511*
X627Y495*
Y488*
X616*
Y438*
X627*
Y425*
Y425*
X628Y421*
X630Y417*
X672Y374*
X671Y370*
X581*
X528Y424*
Y435*
X531Y438*
X538*
X540Y434*
X541*
X557*
Y463*
Y492*
X541*
X540*
X538Y488*
X535*
X529*
Y692*
X533Y695*
X536Y699*
X537Y704*
Y767*
X536Y771*
X533Y775*
X529Y778*
X525Y779*
X513*
X508Y778*
X504Y775*
X502Y771*
X501Y767*
Y704*
X502Y699*
X504Y695*
X505Y694*
Y488*
X493*
Y438*
X503*
Y418*
X504Y414*
X507Y410*
X560Y357*
X558Y352*
X468*
X404Y416*
Y435*
X408Y438*
X414*
X417Y434*
X417*
X434*
Y463*
Y492*
X417*
X417*
X414Y488*
X412*
X404*
Y514*
X427Y537*
X430Y541*
X431Y545*
Y693*
X433Y695*
X436Y699*
X437Y704*
Y767*
X436Y771*
X433Y775*
X429Y778*
X425Y779*
X413*
X408Y778*
X404Y775*
X402Y771*
X401Y767*
Y704*
X402Y699*
X404Y695*
X407Y693*
Y550*
X384Y527*
X381Y523*
X380Y519*
Y488*
X370*
Y438*
X380*
Y411*
X381Y406*
X384Y402*
X455Y331*
X459Y329*
X463Y328*
X1104*
X1106Y325*
X1107Y320*
X1111Y315*
X1116Y311*
X1122Y310*
X1128Y311*
X1134Y315*
X1137Y320*
X1138Y326*
X1138Y329*
X1139Y333*
X1142Y334*
X1145Y335*
X1150Y338*
X1154Y344*
X1155Y349*
X1158Y350*
X1159Y350*
X1160Y350*
X1165Y347*
X1171Y346*
X1177Y347*
X1183Y351*
X1186Y356*
X1187Y360*
X1190Y361*
X1192Y361*
X1195Y356*
X1201Y353*
X1207Y352*
X1213Y353*
X1218Y356*
X1222Y362*
X1223Y368*
X1222Y374*
X1218Y379*
X1213Y383*
X1208Y384*
X1190Y402*
X1186Y405*
X1181Y405*
X1024*
X1023Y405*
X1023Y405*
X794*
X774Y426*
Y435*
X778Y438*
X784*
X787Y434*
X787*
X803*
Y463*
Y492*
X787*
X787*
X784Y488*
X782*
X774*
Y502*
X773Y507*
X771Y511*
X760Y521*
X756Y524*
X752Y524*
X737*
X731Y531*
Y535*
X733Y539*
X736*
X753*
Y567*
X763*
Y576*
X793*
Y594*
Y594*
X789Y597*
Y599*
Y643*
X781*
Y693*
X783Y695*
X786Y699*
X787Y704*
Y767*
X786Y771*
X783Y775*
X779Y778*
X775Y779*
G37*
G36*
X575D02*
X563D01*
X558Y778*
X554Y775*
X552Y771*
X551Y767*
Y704*
X552Y699*
X554Y695*
X557Y693*
Y643*
X541*
Y597*
X537Y594*
Y594*
Y576*
X596*
Y594*
Y594*
X592Y597*
Y599*
Y643*
X581*
Y693*
X583Y695*
X586Y699*
X587Y704*
Y767*
X586Y771*
X583Y775*
X579Y778*
X575Y779*
G37*
G36*
X475D02*
X463D01*
X458Y778*
X454Y775*
X452Y771*
X451Y767*
Y704*
X452Y699*
X454Y695*
X457Y693*
Y643*
X443*
Y597*
X439Y594*
Y594*
Y576*
X498*
Y594*
Y594*
X494Y597*
Y599*
Y643*
X481*
Y693*
X483Y695*
X486Y699*
X487Y704*
Y767*
X486Y771*
X483Y775*
X479Y778*
X475Y779*
G37*
G36*
X793Y557D02*
X773D01*
Y539*
X793*
Y557*
G37*
G36*
X695D02*
X675D01*
Y539*
X695*
Y557*
G37*
G36*
X596D02*
X576D01*
Y539*
X596*
Y557*
G37*
G36*
X557D02*
X537D01*
Y539*
X557*
Y557*
G37*
G36*
X498D02*
X478D01*
Y539*
X498*
Y557*
G37*
G36*
X459D02*
X439D01*
Y539*
X459*
Y557*
G37*
G36*
X3333Y488D02*
X3327Y487D01*
X3322Y483*
X3318Y478*
X3318Y476*
X3312Y474*
X3310Y477*
X3306Y479*
X3301Y480*
X3290*
X3286Y483*
X3279Y484*
X3273Y483*
X3268Y479*
X3264Y474*
X3263Y468*
X3264Y462*
X3268Y456*
X3273Y453*
X3279Y452*
X3286Y453*
X3290Y456*
X3296*
X3351Y401*
X3355Y398*
X3360Y398*
X3662*
X3667Y395*
X3673Y393*
X3679Y395*
X3684Y398*
X3688Y403*
X3689Y410*
X3688Y415*
X3690Y418*
X3692Y419*
X3692Y419*
X3698Y420*
X3703Y424*
X3707Y429*
X3708Y435*
X3707Y442*
X3703Y447*
X3698Y451*
X3692Y452*
X3686Y451*
X3681Y448*
X3375*
X3349Y473*
X3348Y478*
X3345Y483*
X3339Y487*
X3333Y488*
G37*
G36*
X840Y492D02*
X823D01*
Y473*
X840*
Y492*
G37*
G36*
X717D02*
X700D01*
Y473*
X717*
Y492*
G37*
G36*
X594D02*
X577D01*
Y473*
X594*
Y492*
G37*
G36*
X470D02*
X453D01*
Y473*
X470*
Y492*
G37*
G36*
X840Y453D02*
X823D01*
Y434*
X840*
Y453*
G37*
G36*
X717D02*
X700D01*
Y434*
X717*
Y453*
G37*
G36*
X594D02*
X577D01*
Y434*
X594*
Y453*
G37*
G36*
X470D02*
X453D01*
Y434*
X470*
Y453*
G37*
G36*
X3037Y522D02*
X3030Y521D01*
X3025Y517*
X3022Y512*
X3020Y506*
X3022Y500*
X3025Y494*
X3030Y491*
X3036Y490*
X3041Y484*
Y341*
X3038Y336*
X3037Y330*
X3038Y324*
X3042Y319*
X3047Y315*
X3053Y314*
X3059Y315*
X3065Y319*
X3068Y324*
X3069Y330*
X3068Y336*
X3065Y341*
Y489*
X3064Y494*
X3062Y498*
X3053Y507*
X3052Y512*
X3048Y517*
X3043Y521*
X3037Y522*
G37*
G36*
X3783Y314D02*
X3775D01*
X3768Y313*
X3760Y310*
X3754Y306*
X3748Y300*
X3744Y294*
X3741Y287*
X3740Y279*
Y271*
X3741Y264*
X3744Y256*
X3748Y250*
X3754Y245*
X3760Y240*
X3768Y237*
X3775Y236*
X3783*
X3791Y237*
X3798Y240*
X3804Y245*
X3810Y250*
X3814Y256*
X3817Y264*
X3818Y271*
Y279*
X3817Y287*
X3814Y294*
X3810Y300*
X3804Y306*
X3798Y310*
X3791Y313*
X3783Y314*
G37*
G36*
X3350D02*
X3342D01*
X3334Y313*
X3327Y310*
X3321Y306*
X3315Y300*
X3311Y294*
X3308Y287*
X3307Y279*
Y271*
X3308Y264*
X3311Y256*
X3315Y250*
X3321Y245*
X3327Y240*
X3334Y237*
X3342Y236*
X3350*
X3357Y237*
X3365Y240*
X3371Y245*
X3377Y250*
X3381Y256*
X3384Y264*
X3385Y271*
Y279*
X3384Y287*
X3381Y294*
X3377Y300*
X3371Y306*
X3365Y310*
X3357Y313*
X3350Y314*
G37*
G36*
X2855Y240D02*
Y214D01*
X2835*
Y240*
X2831Y238*
X2825Y234*
X2823Y231*
X2817*
X2815Y234*
X2809Y238*
X2805Y240*
Y214*
X2785*
Y240*
X2781Y238*
X2775Y234*
X2771Y228*
X2771Y227*
X2765Y227*
X2762Y231*
X2754Y236*
X2745Y238*
X2736Y236*
X2728Y231*
X2723Y223*
X2723Y223*
X2717*
X2717Y223*
X2712Y231*
X2704Y236*
X2695Y238*
X2686Y236*
X2678Y231*
X2673Y223*
X2671Y214*
X2673Y205*
X2678Y197*
X2686Y192*
X2686Y191*
Y186*
X2686Y186*
X2678Y181*
X2673Y173*
X2671Y164*
X2673Y155*
X2678Y147*
X2686Y142*
X2695Y140*
X2704Y142*
X2712Y147*
X2717Y155*
X2717Y155*
X2723*
X2723Y155*
X2728Y147*
X2728Y146*
Y129*
X2716Y116*
X2643*
X2640Y119*
X2639Y121*
X2640Y126*
X2642Y127*
X2647Y130*
X2651Y136*
X2652Y142*
X2651Y148*
X2648Y152*
Y170*
X2647Y174*
X2644Y178*
X2632Y191*
X2631Y196*
X2627Y202*
X2622Y205*
X2615Y207*
X2609Y205*
X2604Y202*
X2600Y196*
X2599Y190*
X2600Y184*
X2604Y179*
X2609Y175*
X2614Y174*
X2624Y165*
Y152*
X2621Y148*
X2620Y142*
X2621Y136*
X2621Y135*
X2619Y130*
X2571*
X2567Y133*
X2561Y134*
X2555Y133*
X2549Y129*
X2546Y124*
X2544Y118*
X2546Y111*
X2549Y106*
X2555Y103*
X2561Y101*
X2567Y103*
X2571Y106*
X2619*
X2623Y102*
X2630Y95*
X2634Y93*
X2638Y92*
X2721*
X2726Y93*
X2730Y95*
X2749Y115*
X2752Y119*
X2753Y124*
Y141*
X2754Y142*
X2762Y147*
X2767Y155*
X2767Y155*
X2773*
X2773Y155*
X2776Y150*
X2775Y145*
Y66*
X2773Y64*
X2769Y59*
X2768Y53*
X2769Y46*
X2773Y41*
X2778Y38*
X2784Y36*
X2791Y38*
X2796Y41*
X2800Y46*
X2801Y53*
X2800Y59*
X2799Y60*
X2799Y61*
Y99*
X2804Y100*
X2805Y100*
X2810Y96*
X2816Y95*
X2823Y96*
X2827Y99*
X2876*
X2880Y100*
X2884Y103*
X2901Y120*
X2904Y124*
X2905Y128*
Y142*
X2912Y147*
X2917Y155*
X2919Y164*
X2917Y173*
X2912Y181*
X2906Y185*
X2907Y190*
X2919*
Y238*
X2871*
Y233*
X2866Y232*
X2865Y234*
X2859Y238*
X2855Y240*
G37*
G36*
X3669Y275D02*
X3653D01*
X3638Y272*
X3624Y266*
X3611Y258*
X3600Y247*
X3591Y234*
X3585Y219*
X3582Y204*
Y189*
X3585Y173*
X3591Y159*
X3600Y146*
X3611Y135*
X3624Y127*
X3638Y121*
X3653Y118*
X3669*
X3684Y121*
X3698Y127*
X3711Y135*
X3722Y146*
X3731Y159*
X3737Y173*
X3740Y189*
Y204*
X3737Y219*
X3731Y234*
X3722Y247*
X3711Y258*
X3698Y266*
X3684Y272*
X3669Y275*
G37*
G36*
X3472D02*
X3456D01*
X3441Y272*
X3427Y266*
X3414Y258*
X3403Y247*
X3394Y234*
X3388Y219*
X3385Y204*
Y189*
X3388Y173*
X3394Y159*
X3403Y146*
X3414Y135*
X3427Y127*
X3441Y121*
X3456Y118*
X3472*
X3487Y121*
X3501Y127*
X3514Y135*
X3525Y146*
X3534Y159*
X3540Y173*
X3543Y189*
Y204*
X3540Y219*
X3534Y234*
X3525Y247*
X3514Y258*
X3501Y266*
X3487Y272*
X3472Y275*
G37*
%LNrev1_0-3*%
%LPD*%
G36*
X2514Y2096D02*
Y1918D01*
X2515Y1911*
X2519Y1905*
X2520Y1905*
X2519Y1902*
X2518Y1900*
X2207*
X2202Y1899*
X2198Y1896*
X2118Y1816*
X2113Y1818*
Y1919*
X2178Y1985*
X2273*
Y1972*
X2284*
Y1948*
X2285Y1943*
X2287Y1939*
X2300Y1926*
X2300*
X2304Y1924*
X2309Y1923*
X2404*
X2408Y1924*
X2412Y1926*
X2444Y1958*
X2446Y1962*
X2447Y1966*
Y2048*
X2449*
X2453Y2049*
X2456Y2051*
X2456Y2052*
X2465*
X2469Y2053*
X2473Y2056*
X2506Y2088*
X2508Y2092*
X2509Y2096*
X2514Y2096*
G37*
G36*
X1964Y1557D02*
Y1372D01*
X1959Y1371*
X1880Y1449*
X1877Y1452*
X1872Y1453*
X1615*
X1610Y1456*
X1604Y1457*
X1598Y1456*
X1593Y1453*
X1590Y1454*
X1588Y1455*
Y1513*
X1593Y1515*
X1630Y1478*
X1634Y1475*
X1639Y1474*
X1828*
X1833Y1475*
X1837Y1478*
X1859Y1500*
X1862Y1504*
X1863Y1508*
Y1618*
X1871Y1627*
X1894*
X1964Y1557*
G37*
G36*
X1552Y1460D02*
X1547Y1457D01*
X1543Y1458*
X1530Y1471*
X1526Y1474*
X1521Y1474*
X1451*
X1450Y1479*
X1453Y1480*
X1457Y1483*
X1501Y1527*
X1504Y1531*
X1505Y1535*
Y1595*
X1508Y1599*
X1509Y1605*
X1508Y1612*
X1505Y1616*
X1506Y1621*
X1506*
X1510Y1622*
X1513Y1624*
X1515Y1627*
X1516Y1631*
Y1639*
X1515Y1643*
X1515Y1644*
X1518Y1649*
X1552*
Y1460*
G37*
G54D11*
X2534Y1491D02*
Y1677D01*
X2534Y1283D02*
Y1393D01*
X2316Y2665D02*
X2470D01*
X2288D02*
X2316D01*
X2532Y2111D02*
Y2211D01*
Y1918D02*
Y2111D01*
X2534Y1677D02*
Y1860D01*
X2532Y1918D02*
X2533Y1917D01*
X2532Y2211D02*
X2578Y2257D01*
Y2557*
X2470Y2665D02*
X2578Y2557D01*
X2253Y2700D02*
X2288Y2665D01*
X1701Y2700D02*
X2253D01*
X1656Y2655D02*
X1701Y2700D01*
X1539Y2655D02*
X1656D01*
X1346Y932D02*
X1570Y1155D01*
Y1229*
Y1654*
Y1824*
Y2093D02*
Y2212D01*
Y1906D02*
Y2093D01*
X1314Y2571D02*
X1397Y2655D01*
X1539*
X1314Y2351D02*
Y2571D01*
Y2351D02*
X1367Y2298D01*
X1484*
X1570Y2212*
X1569Y1825D02*
X1570Y1824D01*
G54D15*
X819Y735D03*
X769D03*
X719D03*
X669D03*
X619D03*
X569D03*
X519D03*
X469D03*
X419D03*
X369D03*
X819Y1109D03*
X769D03*
X719D03*
X669D03*
X619D03*
X569D03*
X519D03*
X469D03*
X419D03*
X369D03*
G54D19*
X3013Y1251D03*
Y1200D03*
X3084Y1201D03*
Y1252D03*
Y1634D03*
Y1685D03*
X3013Y1684D03*
Y1633D03*
Y2118D03*
Y2066D03*
X3084Y2067D03*
Y2118D03*
X2232Y2471D03*
Y2420D03*
X2306D03*
Y2471D03*
X2379D03*
Y2420D03*
X2453D03*
Y2471D03*
X1574Y2420D03*
Y2471D03*
X1503D03*
Y2420D03*
X1645Y2471D03*
Y2420D03*
X1076Y2066D03*
Y2117D03*
X1005Y2117D03*
Y2066D03*
Y1684D03*
Y1633D03*
X1076Y1633D03*
Y1684D03*
X1005Y1251D03*
Y1200D03*
X1076Y1251D03*
Y1200D03*
X1432Y2471D03*
Y2420D03*
G54D20*
X2687Y1168D03*
Y1115D03*
Y1601D03*
Y1548D03*
X1405Y2124D03*
Y2177D03*
Y1691D03*
Y1744D03*
Y1258D03*
Y1311D03*
X468Y620D03*
Y567D03*
X567Y620D03*
Y567D03*
X665Y620D03*
Y567D03*
X763Y620D03*
Y567D03*
X2687Y2019D03*
Y2072D03*
G54D21*
X2376Y2809D03*
X2429D03*
X1593Y2802D03*
X1646D03*
G54D22*
X2347Y1333D03*
X2296D03*
Y1266D03*
X2347D03*
Y1198D03*
X2296D03*
Y1131D03*
X2347D03*
Y1766D03*
X2296D03*
Y1699D03*
X2347D03*
Y1631D03*
X2296D03*
Y1564D03*
X2347D03*
X2296Y1997D03*
X2347D03*
Y2064D03*
X2296D03*
Y2132D03*
X2347D03*
Y2199D03*
X2296D03*
X2266Y3040D03*
X2215D03*
Y2962D03*
X2266D03*
X1689Y3035D03*
X1638D03*
X1638Y2963D03*
X1689D03*
X1746Y1989D03*
X1797D03*
Y2057D03*
X1746D03*
Y2124D03*
X1797D03*
Y2192D03*
X1746D03*
X1797Y1759D03*
X1746D03*
Y1691D03*
X1797D03*
Y1624D03*
X1746D03*
Y1556D03*
X1797D03*
X1746Y1123D03*
X1797D03*
Y1190D03*
X1746D03*
X1797Y1326D03*
X1746D03*
Y1258D03*
X1797D03*
X392Y463D03*
X444D03*
X516D03*
X567D03*
X639D03*
X690D03*
X762D03*
X813D03*
G54D53*
X2534Y1283D02*
X2569Y1248D01*
X2601*
X2392Y1369D02*
Y1369D01*
X2392*
X1590Y1080D02*
X1653D01*
X1687Y1046*
X2347Y1997D02*
D01*
Y2064D01*
X2522Y2426D02*
Y2521D01*
X2508Y2535D02*
X2522Y2521D01*
X2220Y2324D02*
X2420D01*
X2522Y2426*
X2047Y908D02*
Y2319D01*
X1725Y2641D02*
X2047Y2319D01*
X2366Y3582D02*
X2891D01*
X2303Y3503D02*
Y3519D01*
X2366Y3582*
X2185Y3503D02*
X2198Y3516D01*
Y3548*
X2066Y3503D02*
Y3519D01*
X1948Y3503D02*
Y3521D01*
X1830Y3503D02*
Y3521D01*
X1796Y3556D02*
X1830Y3521D01*
X1796Y3556D02*
Y3559D01*
X1712Y3503D02*
Y3514D01*
X1527Y3577D02*
X1649D01*
X1712Y3514*
X1527Y3603D02*
X1752D01*
X1796Y3559*
X1527Y3629D02*
X1840D01*
X1948Y3521*
X1527Y3655D02*
X1931D01*
X2066Y3519*
X942Y3653D02*
X957Y3639D01*
X1505D02*
X1517Y3651D01*
X1520*
X957Y3639D02*
X1505D01*
X1524Y3655D02*
X1527D01*
X937Y3653D02*
X942D01*
X1520Y3651D02*
X1524Y3655D01*
X936D02*
X937Y3653D01*
X1524Y3629D02*
X1527D01*
X1517Y3625D02*
X1520D01*
X937Y3627D02*
X942D01*
X1514Y3621D02*
X1517Y3625D01*
X936Y3629D02*
X937Y3627D01*
X949Y3621D02*
X1514D01*
X1520Y3625D02*
X1524Y3629D01*
X942Y3627D02*
X949Y3621D01*
X1520Y3578D02*
X1525D01*
X942Y3581D02*
X945D01*
X948Y3584*
X936Y3577D02*
X938D01*
X942Y3581*
X948Y3584D02*
X1515D01*
X1520Y3578*
X1525D02*
X1527Y3577D01*
X936Y3603D02*
X1527D01*
X463Y340D02*
X1109D01*
X1122Y326*
X576Y358D02*
X1131D01*
X1139Y350*
X1158Y376D02*
X1171Y362D01*
X1023Y393D02*
X1181D01*
X1207Y368*
X3053Y330D02*
Y489D01*
X3037Y506D02*
X3053Y489D01*
X2790Y159D02*
X2795Y164D01*
X2790Y148D02*
Y159D01*
X2787Y145D02*
X2790Y148D01*
X2787Y61D02*
Y145D01*
X2786Y60D02*
X2787Y61D01*
X2786Y54D02*
Y60D01*
X2784Y53D02*
X2786Y54D01*
X3333Y472D02*
X3370Y435D01*
X3692*
X2741Y160D02*
X2745Y164D01*
X2631Y111D02*
D01*
X2561Y118D02*
X2624D01*
X2741Y124D02*
Y160D01*
X2638Y104D02*
X2721D01*
X2741Y124*
X2631Y111D02*
X2638Y104D01*
X2624Y118D02*
X2631Y111D01*
X2876Y111D02*
X2893Y128D01*
Y162*
X2816Y111D02*
X2876D01*
X2893Y162D02*
X2895Y164D01*
X2615Y190D02*
X2636Y170D01*
Y142D02*
Y170D01*
X3279Y468D02*
X3301D01*
X3360Y410*
X3673*
X3583Y1287D02*
Y1884D01*
X3148Y2319D02*
X3583Y1884D01*
X2916Y2319D02*
X3148D01*
X2296Y2342D02*
X2320Y2366D01*
X2213Y2342D02*
X2296D01*
X2065Y2194D02*
X2213Y2342D01*
X2065Y895D02*
Y2194D01*
X2091Y767D02*
Y783D01*
X2074Y750D02*
X2091Y767D01*
X2074Y748D02*
Y750D01*
X2073Y790D02*
X2136Y853D01*
X2073Y786D02*
Y790D01*
X2067Y780D02*
X2073Y786D01*
X2067Y778D02*
Y780D01*
X2904Y3569D02*
X2906D01*
X2891Y3582D02*
X2904Y3569D01*
X2269Y3619D02*
X2922D01*
X2198Y3548D02*
X2269Y3619D01*
X2146Y788D02*
X2190Y831D01*
X2146Y782D02*
Y788D01*
X2190Y831D02*
Y1021D01*
X2033Y775D02*
X2119Y861D01*
X2112Y768D02*
X2113Y767D01*
X2112Y768D02*
Y778D01*
X2172Y839D02*
Y1097D01*
X2112Y778D02*
X2172Y839D01*
X2154Y846D02*
Y1385D01*
X2091Y783D02*
X2154Y846D01*
X2119Y861D02*
Y1800D01*
X1960Y820D02*
X2047Y908D01*
X1825Y724D02*
X2030Y928D01*
X1808Y731D02*
X2012Y935D01*
X1790Y738D02*
X1994Y943D01*
X1772Y746D02*
X1976Y950D01*
X1754Y753D02*
X1958Y957D01*
X1736Y761D02*
X1941Y965D01*
X1714Y764D02*
X1923Y972D01*
X2030Y928D02*
Y2211D01*
X2012Y935D02*
Y1811D01*
X1994Y943D02*
Y1744D01*
X1976Y950D02*
Y1562D01*
X1958Y957D02*
Y1354D01*
X1941Y965D02*
Y1061D01*
X1923Y972D02*
Y1027D01*
X1904Y1046D02*
X1923Y1027D01*
X1687Y1046D02*
X1904D01*
X1714Y603D02*
Y764D01*
X1910Y1092D02*
X1941Y1061D01*
X1874Y1092D02*
X1910D01*
X1736Y594D02*
Y761D01*
X1754Y587D02*
Y753D01*
X1772Y579D02*
Y746D01*
X1790Y572D02*
Y738D01*
X1808Y565D02*
Y731D01*
X1825Y557D02*
Y724D01*
X2060Y839D02*
X2101Y880D01*
X2060Y833D02*
Y839D01*
X2021Y825D02*
X2083Y887D01*
X2021Y820D02*
Y825D01*
X1988Y817D02*
X2065Y895D01*
X1872Y1441D02*
X1958Y1354D01*
X1899Y1639D02*
X1976Y1562D01*
X1866Y1639D02*
X1899D01*
X1851Y1624D02*
X1866Y1639D01*
X1875Y1863D02*
X1994Y1744D01*
X1889Y1933D02*
X2012Y1811D01*
X1859Y1933D02*
X1889D01*
X1756Y488D02*
X1825Y557D01*
X1733Y488D02*
X1756D01*
X1718Y474D02*
X1733Y488D01*
X1749Y506D02*
X1808Y565D01*
X1637Y495D02*
X1656D01*
X1662Y489*
X1635Y496D02*
X1637Y495D01*
X1662Y489D02*
X1702D01*
X1720Y506*
X1749*
X1684Y524D02*
X1742D01*
X1671Y511D02*
X1684Y524D01*
X1671Y511D02*
Y511D01*
X1742Y524D02*
X1790Y572D01*
X1703Y583D02*
X1705Y581D01*
X1690Y585D02*
X1691Y583D01*
X1723Y581D02*
X1736Y594D01*
X1705Y581D02*
X1723D01*
X1691Y583D02*
X1703D01*
X1649Y532D02*
Y535D01*
X1652Y538*
Y539*
X1656Y542*
X1734D02*
X1772Y579D01*
X1656Y542D02*
X1734D01*
X1656Y585D02*
X1682Y560D01*
X1727*
X1754Y587*
X2204Y1035D02*
X2950D01*
X2190Y1021D02*
X2204Y1035D01*
X2172Y1097D02*
X2206Y1131D01*
X2296*
X2154Y1385D02*
X2214Y1445D01*
X2136Y1504D02*
X2196Y1564D01*
X2136Y853D02*
Y1504D01*
X2119Y1800D02*
X2207Y1888D01*
X2950Y1035D02*
X3013Y1098D01*
X392Y411D02*
X463Y340D01*
X392Y411D02*
Y463D01*
X516Y418D02*
X576Y358D01*
X516Y418D02*
Y463D01*
X639Y425D02*
X689Y376D01*
X1158*
X639Y425D02*
Y463D01*
X789Y393D02*
X1023D01*
X1023Y393*
X762Y420D02*
Y463D01*
Y420D02*
X789Y393D01*
X1658Y1595D02*
Y1635D01*
Y1595D02*
X1665Y1588D01*
X2101Y1924D02*
X2173Y1997D01*
X2101Y880D02*
Y1924D01*
X1807Y2434D02*
X2030Y2211D01*
X2083Y887D02*
Y2186D01*
X984Y1070D02*
X1429D01*
X1493Y1133D02*
Y1151D01*
X1429Y1070D02*
X1493Y1133D01*
X2196Y1564D02*
X2296D01*
X1656Y1277D02*
X1658Y1279D01*
X1624Y1277D02*
X1656D01*
X1609Y1164D02*
Y1262D01*
X1624Y1277*
X1609Y1164D02*
X1700Y1073D01*
X1711*
X1712Y1072D02*
X1855D01*
X1711Y1073D02*
X1712Y1072D01*
X1874Y1092D02*
Y1167D01*
X1855Y1072D02*
X1874Y1092D01*
X1797Y1190D02*
X1851D01*
X1874Y1167*
X1158Y1095D02*
X1409D01*
X1411Y1096*
X1146Y1107D02*
X1158Y1095D01*
X1146Y1107D02*
Y1230D01*
X1076Y1251D02*
X1124D01*
X1146Y1230*
X1076Y1168D02*
Y1200D01*
Y1168D02*
X1081Y1164D01*
X1604Y1441D02*
X1872D01*
X1084Y1462D02*
X1521D01*
X1542Y1442*
X1070Y1557D02*
X1075Y1552D01*
X963Y1557D02*
X1070D01*
X918Y1602D02*
X963Y1557D01*
X918Y1602D02*
Y1655D01*
X947Y1684*
X1005*
X1600Y1680D02*
X1631Y1712D01*
X1658*
X1600Y1525D02*
Y1680D01*
X1639Y1486D02*
X1828D01*
X1600Y1525D02*
X1639Y1486D01*
X1828D02*
X1851Y1508D01*
Y1624*
X1689Y2909D02*
Y2963D01*
Y2909D02*
X1745Y2853D01*
Y2730D02*
Y2853D01*
X1689Y2963D02*
X1689Y2963D01*
X2083Y2186D02*
X2220Y2324D01*
X2526Y2895D02*
X2645Y2777D01*
X2646*
X2249Y2895D02*
X2526D01*
X2215Y2929D02*
X2249Y2895D01*
X2215Y2929D02*
Y2962D01*
X2311Y2670D02*
Y2731D01*
Y2670D02*
X2316Y2665D01*
X2535Y2114D02*
X2601D01*
X2532Y2111D02*
X2535Y2114D01*
X2538Y1681D02*
X2601D01*
X2534Y1677D02*
X2538Y1681D01*
X2294Y2826D02*
X2332Y2864D01*
X2285Y2731D02*
X2288Y2733D01*
Y2756*
X2294Y2763*
Y2765*
Y2826*
X2332Y2864D02*
X2500D01*
X1492Y1228D02*
X1569D01*
X1570Y1229*
X1492Y1661D02*
X1563D01*
X1570Y1654*
X1492Y2094D02*
X1569D01*
X1570Y2093*
X1545Y2661D02*
Y2731D01*
X1539Y2655D02*
X1545Y2661D01*
X3684Y1288D02*
Y1956D01*
Y1288D02*
X3685Y1286D01*
X3455Y2185D02*
X3684Y1956D01*
X3430Y2138D02*
X3635Y1932D01*
Y1285D02*
Y1932D01*
X3399Y2041D02*
X3532Y1908D01*
Y1287D02*
Y1908D01*
X3483Y1287D02*
Y1519D01*
X3437Y1287D02*
X3446Y1296D01*
X3390Y1283D02*
X3391Y1282D01*
X3390Y1283D02*
Y1408D01*
X3334Y1277D02*
Y1328D01*
X2655Y1389D02*
X3273D01*
X3334Y1328*
X775Y2240D02*
X1154Y2619D01*
Y2779*
X775Y1840D02*
Y2240D01*
X419Y1483D02*
X775Y1840D01*
X419Y1109D02*
Y1483D01*
X1361Y2726D02*
X1440D01*
X840Y2205D02*
X1361Y2726D01*
X840Y1805D02*
Y2205D01*
X469Y1434D02*
X840Y1805D01*
X469Y1109D02*
Y1434D01*
X519Y1109D02*
Y1407D01*
X1026Y1915*
X1161*
X1078Y1875D02*
X1418D01*
X1433Y1889*
X569Y1365D02*
X1078Y1875D01*
X569Y1109D02*
Y1365D01*
X902Y1527D02*
X1172D01*
X1184Y1539*
X619Y1244D02*
X902Y1527D01*
X619Y1109D02*
Y1244D01*
X1492Y1605D02*
Y1635D01*
Y1535D02*
Y1605D01*
X1448Y1491D02*
X1492Y1535D01*
X943Y1491D02*
X1448D01*
X669Y1217D02*
X943Y1491D01*
X669Y1109D02*
Y1217D01*
X719Y1109D02*
Y1200D01*
X744Y1226D02*
X881D01*
X719Y1200D02*
X744Y1226D01*
X881D02*
X990Y1116D01*
X1085*
X784Y1194D02*
X860D01*
X984Y1070*
X769Y1109D02*
Y1178D01*
X784Y1194*
X2600Y1335D02*
X2655Y1389D01*
X2951Y1436D02*
X3362D01*
X3390Y1408*
X3446Y1296D02*
Y1483D01*
X2637Y1814D02*
X3115D01*
X3446Y1483*
X2594Y1770D02*
X2637Y1814D01*
X2918Y1843D02*
X3159D01*
X3483Y1519*
X3455Y2185D02*
X3456D01*
X2502Y3086D02*
X2906Y2683D01*
X2957*
X3455Y2185*
X3202Y2365D02*
X3430Y2138D01*
X3430*
X2999Y2365D02*
X3202D01*
X3165Y2275D02*
X3399Y2041D01*
X3401*
X2601Y2205D02*
X2671Y2275D01*
X3165*
X2601Y1273D02*
Y1334D01*
X2600Y1335D02*
X2601Y1334D01*
X2435Y1273D02*
Y1308D01*
X2428Y1315D02*
X2435Y1308D01*
Y1197D02*
X2464D01*
X2489Y1221*
Y1369*
X2459Y1399D02*
X2489Y1369D01*
X2260Y1399D02*
X2459D01*
X2219Y1358D02*
X2260Y1399D01*
X2219Y1297D02*
Y1358D01*
Y1297D02*
X2248Y1268D01*
X3013Y1098D02*
Y1200D01*
Y1251D02*
Y1309D01*
X2988Y1334D02*
X3013Y1309D01*
X2435Y1630D02*
X2436Y1630D01*
X2466*
X2495Y1659*
X2450Y1832D02*
X2495Y1787D01*
Y1659D02*
Y1787D01*
X2246Y1832D02*
X2450D01*
X2201Y1787D02*
X2246Y1832D01*
X2201Y1735D02*
Y1787D01*
Y1735D02*
X2237Y1699D01*
X2879Y1445D02*
X3013Y1578D01*
X2214Y1445D02*
X2879D01*
X3013Y1578D02*
Y1633D01*
Y1684D02*
Y1748D01*
X2997Y1764D02*
X3013Y1748D01*
X2596Y1769D02*
X2601Y1764D01*
X2594Y1770D02*
X2596Y1769D01*
X2594Y1770D02*
X2594D01*
X2601Y1706D02*
Y1764D01*
X2435Y1706D02*
Y1734D01*
X2433Y1736D02*
X2435Y1734D01*
X1502Y1863D02*
X1875D01*
X997Y1956D02*
X1408D01*
X1502Y1863*
X929Y2024D02*
X997Y1956D01*
X929Y2024D02*
Y2095D01*
X951Y2117D02*
X1005D01*
X929Y2095D02*
X951Y2117D01*
X1005D02*
X1005Y2117D01*
X1076*
X1076Y2117*
Y2033D02*
X1088Y2021D01*
X1097*
X1076Y2033D02*
Y2066D01*
X1082Y1597D02*
X1083D01*
X1076Y1602D02*
X1082Y1597D01*
X1076Y1602D02*
Y1633D01*
X1702Y2434D02*
X1807D01*
X1797Y2057D02*
X1840D01*
X1859Y1933D02*
Y2038D01*
X1840Y2057D02*
X1859Y2038D01*
X2173Y1997D02*
X2296D01*
X1527Y2367D02*
X1627D01*
X1645Y2384*
X1503Y2391D02*
Y2420D01*
Y2391D02*
X1527Y2367D01*
X1645Y2384D02*
Y2420D01*
X2914Y1888D02*
X3013Y1986D01*
X2207Y1888D02*
X2914D01*
X3013Y1986D02*
Y2066D01*
Y2118D02*
Y2157D01*
X3011Y2159D02*
X3013Y2157D01*
X2435Y2140D02*
Y2171D01*
X2434Y2172D02*
X2435Y2171D01*
Y2063D02*
X2437Y2064D01*
X2465*
X2497Y2097D02*
Y2234D01*
X2465Y2064D02*
X2497Y2097D01*
X2457Y2274D02*
X2497Y2234D01*
X2249Y2274D02*
X2457D01*
X2220Y2246D02*
X2249Y2274D01*
X2220Y2156D02*
Y2246D01*
X2244Y2132D02*
X2296D01*
X2220Y2156D02*
X2244Y2132D01*
X1658Y2025D02*
X1659Y2024D01*
X1658Y2025D02*
Y2068D01*
X1492Y2025D02*
X1493Y2024D01*
X1492Y2025D02*
Y2068D01*
X1626Y2145D02*
X1658D01*
X1606Y2125D02*
X1626Y2145D01*
X1606Y1988D02*
Y2125D01*
X1682Y1911D02*
X1837D01*
X1606Y1988D02*
X1682Y1911D01*
X1837D02*
X1859Y1933D01*
X2500Y2864D02*
X2999Y2365D01*
X2293Y3086D02*
X2502D01*
X2601Y2140D02*
Y2205D01*
X2601Y2205D02*
X2601Y2205D01*
X2242Y2565D02*
X2285D01*
X2235Y2571D02*
X2242Y2565D01*
X2320Y2366D02*
X2437D01*
X2306Y2380D02*
Y2420D01*
Y2380D02*
X2320Y2366D01*
X2451Y2380D02*
Y2418D01*
X2437Y2366D02*
X2451Y2380D01*
X1430Y2565D02*
X1519D01*
X1425Y2570D02*
X1430Y2565D01*
X1154Y2779D02*
X1387Y3012D01*
X1447Y2731D02*
X1519D01*
X1442Y2726D02*
X1447Y2731D01*
X1440Y2726D02*
X1442D01*
X2215Y2962D02*
Y3040D01*
Y2962D02*
D01*
X2266Y3040D02*
Y3139D01*
X2303Y3176*
Y3188*
X1638Y3035D02*
Y3145D01*
X1594Y3188D02*
X1638Y3145D01*
X1658Y1202D02*
X1660Y1200D01*
Y1166D02*
Y1200D01*
Y1166D02*
X1662Y1164D01*
X1492Y1202D02*
X1493Y1202D01*
Y1151D02*
Y1202D01*
Y1151D02*
X1493Y1151D01*
X1005Y1251D02*
X1005Y1251D01*
X1076*
X1076Y1251*
X419Y545D02*
Y735D01*
X392Y519D02*
X419Y545D01*
X392Y463D02*
Y519D01*
X516Y463D02*
X517Y465D01*
Y734*
X519Y735*
X619Y520D02*
Y735D01*
Y520D02*
X639Y500D01*
Y463D02*
Y500D01*
X762Y463D02*
Y502D01*
X752Y512D02*
X762Y502D01*
X732Y512D02*
X752D01*
X719Y526D02*
Y735D01*
Y526D02*
X732Y512D01*
X769Y625D02*
Y735D01*
X763Y620D02*
X769Y625D01*
X669Y623D02*
Y735D01*
X665Y620D02*
X669Y623D01*
X569Y622D02*
Y735D01*
X567Y620D02*
X569Y622D01*
X468Y620D02*
X469Y620D01*
Y735*
X1405Y1258D02*
X1409Y1253D01*
X1492*
X1693Y1393D02*
X1779D01*
X1797Y1326D02*
Y1374D01*
X1779Y1393D02*
X1797Y1374D01*
X1658Y1358D02*
X1693Y1393D01*
X1658Y1279D02*
Y1358D01*
X1746Y1258D02*
Y1326D01*
D01*
X1658Y1253D02*
X1742D01*
X1746Y1258*
Y1190D02*
D01*
Y1123D02*
Y1190D01*
X1742Y1195D02*
X1746Y1190D01*
X1717Y1195D02*
X1742D01*
X1710Y1202D02*
X1717Y1195D01*
X1694Y1228D02*
X1701Y1221D01*
X1710Y1212*
Y1202D02*
Y1212D01*
X1658Y1228D02*
X1694D01*
X1005Y1684D02*
X1005Y1684D01*
X1076*
X1076Y1684*
X1405Y1691D02*
X1409Y1686D01*
X1492*
X1797Y1624D02*
X1851D01*
X1690Y1817D02*
X1781D01*
X1797Y1759D02*
Y1801D01*
X1781Y1817D02*
X1797Y1801D01*
X1658Y1786D02*
X1690Y1817D01*
X1658Y1712D02*
Y1786D01*
X1746Y1624D02*
D01*
Y1556D02*
Y1624D01*
Y1691D02*
Y1759D01*
D01*
Y1691D02*
D01*
X1719D02*
X1746D01*
X1658Y1686D02*
X1714D01*
X1719Y1691*
X1711Y1630D02*
Y1647D01*
X1718Y1624D02*
X1746D01*
X1711Y1630D02*
X1718Y1624D01*
X1697Y1661D02*
X1711Y1647D01*
X1658Y1661D02*
X1697D01*
X1405Y2124D02*
X1409Y2119D01*
X1492*
X1658Y2145D02*
Y2224D01*
X1685Y2251D02*
X1785D01*
X1658Y2224D02*
X1685Y2251D01*
X1797Y2192D02*
Y2238D01*
X1785Y2251D02*
X1797Y2238D01*
X1746Y2057D02*
D01*
Y1989D02*
Y2057D01*
Y2124D02*
Y2192D01*
D01*
X1658Y2119D02*
X1704D01*
X1708Y2124*
X1746*
X1717Y2057D02*
X1746D01*
X1705Y2068D02*
X1717Y2057D01*
X1705Y2068D02*
Y2085D01*
X1697Y2094D02*
X1705Y2085D01*
X1658Y2094D02*
X1697D01*
X2672Y1655D02*
X2687Y1640D01*
Y1601D02*
Y1640D01*
X2601Y1655D02*
X2672D01*
X2347Y1699D02*
Y1766D01*
Y1699D02*
D01*
X2237D02*
X2296D01*
X2309Y1513D02*
X2412D01*
X2296Y1525D02*
Y1564D01*
Y1525D02*
X2309Y1513D01*
X2412D02*
X2435Y1535D01*
Y1630*
X2397Y1687D02*
X2403Y1681D01*
X2347Y1699D02*
X2385D01*
X2397Y1687*
X2403Y1681D02*
X2435D01*
X2401Y1655D02*
X2435D01*
X2377Y1631D02*
X2401Y1655D01*
X2347Y1631D02*
X2377D01*
X2347Y1564D02*
Y1631D01*
Y1564D02*
D01*
X2638Y2088D02*
X2642Y2084D01*
X2655Y2072D02*
X2687D01*
X2642Y2084D02*
X2655Y2072D01*
X2601Y2088D02*
X2638D01*
X2347Y2132D02*
Y2199D01*
Y2132D02*
D01*
X2296Y1948D02*
Y1997D01*
Y1948D02*
X2309Y1935D01*
X2404D02*
X2435Y1966D01*
X2309Y1935D02*
X2404D01*
X2435Y1966D02*
Y2063D01*
X2347Y2132D02*
X2348Y2133D01*
X2386*
X2399Y2120*
X2405Y2114*
X2435*
X2399Y2088D02*
X2435D01*
X2375Y2064D02*
X2399Y2088D01*
X2347Y2064D02*
X2375D01*
X2687Y1168D02*
Y1215D01*
X2680Y1222D02*
X2687Y1215D01*
X2601Y1222D02*
X2680D01*
X2379Y1266D02*
X2383Y1261D01*
X2397Y1248D02*
X2435D01*
X2383Y1261D02*
X2397Y1248D01*
X2347Y1266D02*
X2379D01*
X2347D02*
Y1333D01*
Y1266D02*
D01*
X2294Y1268D02*
X2296Y1266D01*
X2248Y1268D02*
X2294D01*
X2303Y1071D02*
X2397D01*
X2296Y1078D02*
Y1131D01*
Y1078D02*
X2303Y1071D01*
X2397D02*
X2435Y1109D01*
Y1197*
X2400Y1222D02*
X2435D01*
X2376Y1198D02*
X2400Y1222D01*
X2347Y1198D02*
X2376D01*
X2347Y1131D02*
D01*
Y1198D01*
X3013Y1200D02*
X3013Y1201D01*
X3084*
X3084Y1201*
X3013Y1633D02*
X3013Y1634D01*
X3084*
X3084Y1634*
X3013Y2066D02*
X3013Y2067D01*
X3084*
X3084Y2067*
X2362Y2565D02*
X2441D01*
X2504Y2501*
Y2434D02*
Y2501D01*
X2453Y2420D02*
X2490D01*
X2504Y2434*
X2451Y2418D02*
X2453Y2420D01*
X2306Y2471D02*
X2311Y2476D01*
X2306Y2471D02*
D01*
X2311Y2476D02*
Y2565D01*
X2232Y2471D02*
X2306D01*
X2376Y2474D02*
X2379Y2471D01*
X2376Y2474D02*
Y2499D01*
X2339Y2536D02*
X2376Y2499D01*
X2337Y2565D02*
X2339Y2563D01*
Y2536D02*
Y2563D01*
X2379Y2471D02*
X2453D01*
X2349Y2809D02*
X2376D01*
X2337Y2731D02*
Y2797D01*
X2349Y2809*
X2215Y3040D02*
X2216Y3040D01*
X1689Y3035D02*
X1689Y3035D01*
Y2963D02*
Y3035D01*
X1571Y2758D02*
X1584Y2772D01*
X1571Y2731D02*
Y2758D01*
X1584Y2793D02*
X1593Y2802D01*
X1584Y2772D02*
Y2793D01*
X1645Y2420D02*
X1689D01*
X1702Y2434*
Y2514*
X1652Y2565D02*
X1702Y2514D01*
X1596Y2565D02*
X1652D01*
X1574Y2471D02*
X1645D01*
X1508Y2476D02*
Y2499D01*
X1503Y2471D02*
X1508Y2476D01*
Y2499D02*
X1545Y2536D01*
Y2565*
X1574Y2471D02*
X1574Y2472D01*
Y2519*
X1571Y2523D02*
Y2565D01*
Y2523D02*
X1574Y2519D01*
X1432Y2471D02*
X1503D01*
G54D54*
X2670Y2557D02*
X2696Y2583D01*
X3631Y3536D02*
Y3576D01*
X3607Y3512D02*
X3631Y3536D01*
X3565Y3384D02*
X3607Y3425D01*
Y3512*
X3500Y3384D02*
X3565D01*
X2878Y2761D02*
X3500Y3384D01*
X2578Y2557D02*
X2670D01*
X819Y1109D02*
X857D01*
X861Y1105*
X861*
X369Y1032D02*
Y1109D01*
Y1032D02*
X392Y1009D01*
G54D58*
X1190Y3759D03*
X2706D03*
G54D59*
X2421Y3503D03*
X2303D03*
X2185D03*
X2066D03*
X1948D03*
X1830D03*
X1712D03*
X1594D03*
X1476D03*
X2362Y3405D03*
X2244D03*
X2125D03*
X2007D03*
X1889D03*
X1771D03*
X1653D03*
X1535D03*
X2362Y3287D03*
X2244D03*
X2125D03*
X2007D03*
X1889D03*
X1771D03*
X1653D03*
X1535D03*
X2421Y3188D03*
X2303D03*
X2185D03*
X2066D03*
X1948D03*
X1830D03*
X1712D03*
X1594D03*
X1476D03*
G54D60*
X2695Y214D03*
Y164D03*
X2745Y214D03*
Y164D03*
X2795Y214D03*
Y164D03*
X2845Y214D03*
Y164D03*
X2895D03*
G54D61*
X2895Y214D03*
G54D62*
X2534Y1491D03*
X2534Y1393D03*
X2392Y1369D03*
X1590Y1080D03*
X2696Y2583D03*
X2508Y2535D03*
X1725Y2641D03*
X1527Y3655D03*
Y3629D03*
Y3577D03*
Y3603D03*
X936Y3655D03*
Y3629D03*
Y3603D03*
Y3577D03*
X3631Y3576D03*
X2878Y2761D03*
X1122Y326D03*
X1139Y350D03*
X1171Y362D03*
X1207Y368D03*
X3037Y506D03*
X3053Y330D03*
X2816Y111D03*
X2636Y142D03*
X2615Y190D03*
X2784Y53D03*
X2561Y118D03*
X3333Y472D03*
X3692Y435D03*
X3279Y468D03*
X3673Y410D03*
X2906Y3569D03*
X2922Y3619D03*
X2146Y782D03*
X2074Y748D03*
X2067Y778D03*
X2033Y775D03*
X2113Y767D03*
X1960Y820D03*
X2060Y833D03*
X2021Y820D03*
X1988Y817D03*
X1718Y474D03*
X1635Y496D03*
X1671Y511D03*
X1649Y532D03*
X1656Y585D03*
X1690Y585D03*
X1714Y603D03*
X1665Y1588D03*
X1411Y1096D03*
X1081Y1164D03*
X1604Y1441D03*
X1542Y1442D03*
X1084Y1462D03*
X1075Y1552D03*
X1745Y2730D03*
X2646Y2777D03*
X2534Y1860D03*
X2533Y1917D03*
X2294Y2765D03*
X861Y1105D03*
X392Y1009D03*
X1346Y932D03*
X1570Y1906D03*
X1569Y1825D03*
X3685Y1286D03*
X3635Y1285D03*
X3583Y1287D03*
X3532Y1287D03*
X3483Y1287D03*
X3437Y1287D03*
X3391Y1282D03*
X3334Y1277D03*
X1161Y1915D03*
X1433Y1889D03*
X1184Y1539D03*
X1492Y1605D03*
X1085Y1116D03*
X2951Y1436D03*
X2918Y1843D03*
X2916Y2319D03*
X2600Y1335D03*
X2428Y1315D03*
X2988Y1334D03*
X2997Y1764D03*
X2594Y1770D03*
X2433Y1736D03*
X1097Y2021D03*
X1083Y1597D03*
X3011Y2159D03*
X2434Y2172D03*
X1659Y2024D03*
X1493Y2024D03*
X2293Y3086D03*
X2601Y2205D03*
X2235Y2571D03*
X1425Y2570D03*
X1387Y3012D03*
X1440Y2726D03*
X1662Y1164D03*
X1493Y1151D03*
G54D63*
X2601Y1273D03*
Y1248D03*
Y1222D03*
Y1197D03*
X2435Y1273D03*
Y1248D03*
Y1222D03*
Y1197D03*
X2601Y1706D03*
Y1681D03*
Y1655D03*
Y1630D03*
X2435Y1706D03*
Y1681D03*
Y1655D03*
Y1630D03*
X2601Y2140D03*
Y2114D03*
Y2088D03*
Y2063D03*
X2435Y2140D03*
Y2114D03*
Y2088D03*
Y2063D03*
X1492Y2068D03*
Y2094D03*
Y2119D03*
Y2145D03*
X1658Y2068D03*
Y2094D03*
Y2119D03*
Y2145D03*
X1492Y1635D03*
Y1661D03*
Y1686D03*
Y1712D03*
X1658Y1635D03*
Y1661D03*
Y1686D03*
Y1712D03*
X1492Y1202D03*
Y1228D03*
Y1253D03*
Y1279D03*
X1658Y1202D03*
Y1228D03*
Y1253D03*
Y1279D03*
G54D64*
X2285Y2731D03*
X2311D03*
X2337D03*
X2362D03*
X2285Y2565D03*
X2311D03*
X2337D03*
X2362D03*
X1596D03*
X1571D03*
X1545D03*
X1519D03*
X1596Y2731D03*
X1571D03*
X1545D03*
X1519D03*
M02*