%FSLAX23Y23*%
%MOIN*%
%SFA1B1*%

%IPPOS*%
%AMD32*
4,1,8,-0.005900,-0.042400,0.005900,-0.042400,0.016800,-0.031500,0.016800,0.031500,0.005900,0.042400,-0.005900,0.042400,-0.016800,0.031500,-0.016800,-0.031500,-0.005900,-0.042400,0.0*
1,1,0.021820,-0.005900,-0.031500*
1,1,0.021820,0.005900,-0.031500*
1,1,0.021820,0.005900,0.031500*
1,1,0.021820,-0.005900,0.031500*
%
G04~CAMADD=32~8~0.0~0.0~336.2~848.0~109.1~0.0~15~0.0~0.0~0.0~0.0~0~0.0~0.0~0.0~0.0~0~0.0~0.0~0.0~180.0~336.0~848.0*
%ADD32D32*%
%ADD33R,0.057240X0.112360*%
%ADD34R,0.055280X0.037560*%
%ADD35R,0.191100X0.195040*%
%ADD36R,0.047400X0.043470*%
%ADD37R,0.049370X0.045430*%
%ADD38R,0.045430X0.049370*%
%ADD39R,0.043470X0.047400*%
%ADD40R,0.082840X0.137950*%
%ADD41R,0.037560X0.055280*%
%ADD42R,0.195040X0.191100*%
%ADD43R,0.112360X0.057240*%
%ADD44R,0.063150X0.021810*%
%ADD45R,0.021810X0.063150*%
%ADD46O,0.067090X0.033620*%
%ADD47R,0.088740X0.069060*%
%ADD48R,0.088740X0.159610*%
%ADD49C,0.139920*%
%ADD50C,0.096610*%
%ADD51C,0.045430*%
%ADD52R,0.045430X0.045430*%
%LNrev1_0-1*%
%LPD*%
G54D32*
X3284Y826D03*
X3334D03*
X3384D03*
X3434D03*
X3484D03*
X3534D03*
X3584D03*
X3634D03*
X3684D03*
X3734D03*
X3284Y1200D03*
X3334D03*
X3384D03*
X3434D03*
X3484D03*
X3534D03*
X3584D03*
X3634D03*
X3684D03*
X3734D03*
G54D33*
X1667Y1687D03*
X1493D03*
X1667Y1254D03*
X1493D03*
X2427Y1262D03*
X2600D03*
X2427Y1695D03*
X2600D03*
X2427Y2128D03*
X2600D03*
X1667Y2120D03*
X1493D03*
G54D34*
X1187Y1739D03*
Y1689D03*
Y1639D03*
Y1589D03*
Y1306D03*
Y1256D03*
Y1206D03*
Y1156D03*
X2906Y1184D03*
Y1234D03*
Y1284D03*
Y1334D03*
Y1617D03*
Y1667D03*
Y1717D03*
Y1767D03*
Y2050D03*
Y2100D03*
Y2150D03*
Y2200D03*
X1187Y2172D03*
Y2122D03*
Y2072D03*
Y2022D03*
G54D35*
X1345Y1664D03*
Y1231D03*
X2749Y1259D03*
Y1692D03*
Y2125D03*
X1345Y2097D03*
G54D36*
X2001Y1169D03*
Y1118D03*
X2076D03*
Y1169D03*
X3370Y3585D03*
Y3534D03*
G54D37*
X1573Y905D03*
Y852D03*
X1579Y700D03*
Y753D03*
X3635Y710D03*
Y657D03*
X3536Y710D03*
Y657D03*
X3438Y710D03*
Y657D03*
X3340Y710D03*
Y657D03*
G54D38*
X1623Y428D03*
X1676D03*
X2452Y531D03*
X2399D03*
X2452Y463D03*
X2399D03*
X2452Y396D03*
X2399D03*
X3006Y91D03*
X3059D03*
X3647Y3715D03*
X3701D03*
G54D39*
X3012Y261D03*
X3063D03*
X3012Y176D03*
X3063D03*
X3713Y545D03*
X3662D03*
X3595D03*
X3543D03*
X3476D03*
X3425D03*
X3358D03*
X3307D03*
G54D40*
X2705Y640D03*
Y833D03*
X459Y1011D03*
Y818D03*
X817Y1011D03*
Y818D03*
X3040Y833D03*
Y640D03*
G54D41*
X2452Y3035D03*
X2402D03*
X2352D03*
X2302D03*
X1613D03*
X1563D03*
X1513D03*
X1463D03*
G54D42*
X2377Y2877D03*
X1538D03*
G54D43*
X2379Y2551D03*
Y2725D03*
X1539Y2550D03*
Y2723D03*
G54D44*
X2249Y300D03*
Y319D03*
Y339D03*
Y359D03*
Y378D03*
Y398D03*
Y418D03*
Y437D03*
Y457D03*
Y477D03*
Y496D03*
Y516D03*
Y536D03*
Y556D03*
Y575D03*
Y595D03*
X1796D03*
Y575D03*
Y556D03*
Y536D03*
Y516D03*
Y496D03*
Y477D03*
Y457D03*
Y437D03*
Y418D03*
Y398D03*
Y378D03*
Y359D03*
Y339D03*
Y319D03*
Y300D03*
G54D45*
X2170Y674D03*
X2150D03*
X2131D03*
X2111D03*
X2091D03*
X2072D03*
X2052D03*
X2032D03*
X2013D03*
X1993D03*
X1973D03*
X1954D03*
X1934D03*
X1914D03*
X1895D03*
X1875D03*
Y221D03*
X1895D03*
X1914D03*
X1934D03*
X1954D03*
X1973D03*
X1993D03*
X2013D03*
X2032D03*
X2052D03*
X2072D03*
X2091D03*
X2111D03*
X2131D03*
X2150D03*
X2170D03*
G54D46*
X3498Y3634D03*
Y3584D03*
Y3534D03*
Y3484D03*
X3712Y3634D03*
Y3584D03*
Y3534D03*
Y3484D03*
G54D47*
X1426Y670D03*
Y761D03*
Y851D03*
G54D48*
X1178Y761D03*
G54D49*
X1190Y3759D03*
X2706D03*
G54D50*
X2421Y3503D03*
X2303D03*
X2185D03*
X2066D03*
X1948D03*
X1830D03*
X1712D03*
X1594D03*
X1476D03*
X2362Y3405D03*
X2244D03*
X2125D03*
X2007D03*
X1889D03*
X1771D03*
X1653D03*
X1535D03*
X2362Y3287D03*
X2244D03*
X2125D03*
X2007D03*
X1889D03*
X1771D03*
X1653D03*
X1535D03*
X2421Y3188D03*
X2303D03*
X2185D03*
X2066D03*
X1948D03*
X1830D03*
X1712D03*
X1594D03*
X1476D03*
G54D51*
X2695Y214D03*
Y164D03*
X2745Y214D03*
Y164D03*
X2795Y214D03*
Y164D03*
X2845Y214D03*
Y164D03*
X2895D03*
G54D52*
X2895Y214D03*
M02*