%FSLAX23Y23*%
%MOIN*%
%SFA1B1*%

%IPPOS*%
%AMD15*
4,1,8,-0.005900,-0.037400,0.005900,-0.037400,0.011800,-0.031500,0.011800,0.031500,0.005900,0.037400,-0.005900,0.037400,-0.011800,0.031500,-0.011800,-0.031500,-0.005900,-0.037400,0.0*
1,1,0.011820,-0.005900,-0.031500*
1,1,0.011820,0.005900,-0.031500*
1,1,0.011820,0.005900,0.031500*
1,1,0.011820,-0.005900,0.031500*
%
%AMD63*
4,1,8,-0.017500,0.004100,-0.017500,-0.004100,-0.013400,-0.008300,0.013400,-0.008300,0.017500,-0.004100,0.017500,0.004100,0.013400,0.008300,-0.013400,0.008300,-0.017500,0.004100,0.0*
1,1,0.008260,-0.013400,0.004100*
1,1,0.008260,-0.013400,-0.004100*
1,1,0.008260,0.013400,-0.004100*
1,1,0.008260,0.013400,0.004100*
%
%AMD64*
4,1,8,-0.004100,-0.017500,0.004100,-0.017500,0.008300,-0.013400,0.008300,0.013400,0.004100,0.017500,-0.004100,0.017500,-0.008300,0.013400,-0.008300,-0.013400,-0.004100,-0.017500,0.0*
1,1,0.008260,-0.004100,-0.013400*
1,1,0.008260,0.004100,-0.013400*
1,1,0.008260,0.004100,0.013400*
1,1,0.008260,-0.004100,0.013400*
%
G04~CAMADD=15~8~0.0~0.0~236.2~748.0~59.1~0.0~15~0.0~0.0~0.0~0.0~0~0.0~0.0~0.0~0.0~0~0.0~0.0~0.0~180.0~236.0~748.0*
%ADD15D15*%
%ADD19R,0.037400X0.033470*%
%ADD20R,0.039370X0.035430*%
%ADD21R,0.035430X0.039370*%
%ADD22R,0.033470X0.037400*%
G04~CAMADD=63~8~0.0~0.0~165.4~350.0~41.3~0.0~15~0.0~0.0~0.0~0.0~0~0.0~0.0~0.0~0.0~0~0.0~0.0~0.0~90.0~350.0~166.0*
%ADD63D63*%
G04~CAMADD=64~8~0.0~0.0~165.4~350.0~41.3~0.0~15~0.0~0.0~0.0~0.0~0~0.0~0.0~0.0~0.0~0~0.0~0.0~0.0~180.0~166.0~350.0*
%ADD64D64*%
%LNrev1_0-1*%
%LPD*%
G54D15*
X819Y735D03*
X769D03*
X719D03*
X669D03*
X619D03*
X569D03*
X519D03*
X469D03*
X419D03*
X369D03*
X819Y1109D03*
X769D03*
X719D03*
X669D03*
X619D03*
X569D03*
X519D03*
X469D03*
X419D03*
X369D03*
G54D19*
X3013Y1251D03*
Y1200D03*
X3084Y1201D03*
Y1252D03*
Y1634D03*
Y1685D03*
X3013Y1684D03*
Y1633D03*
Y2118D03*
Y2066D03*
X3084Y2067D03*
Y2118D03*
X2232Y2471D03*
Y2420D03*
X2306D03*
Y2471D03*
X2379D03*
Y2420D03*
X2453D03*
Y2471D03*
X1574Y2420D03*
Y2471D03*
X1503D03*
Y2420D03*
X1645Y2471D03*
Y2420D03*
X1076Y2066D03*
Y2117D03*
X1005Y2117D03*
Y2066D03*
Y1684D03*
Y1633D03*
X1076Y1633D03*
Y1684D03*
X1005Y1251D03*
Y1200D03*
X1076Y1251D03*
Y1200D03*
X1432Y2471D03*
Y2420D03*
G54D20*
X2687Y1168D03*
Y1115D03*
Y1601D03*
Y1548D03*
X1405Y2124D03*
Y2177D03*
Y1691D03*
Y1744D03*
Y1258D03*
Y1311D03*
X468Y620D03*
Y567D03*
X567Y620D03*
Y567D03*
X665Y620D03*
Y567D03*
X763Y620D03*
Y567D03*
X2687Y2019D03*
Y2072D03*
G54D21*
X2376Y2809D03*
X2429D03*
X1593Y2802D03*
X1646D03*
G54D22*
X2347Y1333D03*
X2296D03*
Y1266D03*
X2347D03*
Y1198D03*
X2296D03*
Y1131D03*
X2347D03*
Y1766D03*
X2296D03*
Y1699D03*
X2347D03*
Y1631D03*
X2296D03*
Y1564D03*
X2347D03*
X2296Y1997D03*
X2347D03*
Y2064D03*
X2296D03*
Y2132D03*
X2347D03*
Y2199D03*
X2296D03*
X2266Y3040D03*
X2215D03*
Y2962D03*
X2266D03*
X1689Y3035D03*
X1638D03*
X1638Y2963D03*
X1689D03*
X1746Y1989D03*
X1797D03*
Y2057D03*
X1746D03*
Y2124D03*
X1797D03*
Y2192D03*
X1746D03*
X1797Y1759D03*
X1746D03*
Y1691D03*
X1797D03*
Y1624D03*
X1746D03*
Y1556D03*
X1797D03*
X1746Y1123D03*
X1797D03*
Y1190D03*
X1746D03*
X1797Y1326D03*
X1746D03*
Y1258D03*
X1797D03*
X392Y463D03*
X444D03*
X516D03*
X567D03*
X639D03*
X690D03*
X762D03*
X813D03*
G54D63*
X2601Y1273D03*
Y1248D03*
Y1222D03*
Y1197D03*
X2435Y1273D03*
Y1248D03*
Y1222D03*
Y1197D03*
X2601Y1706D03*
Y1681D03*
Y1655D03*
Y1630D03*
X2435Y1706D03*
Y1681D03*
Y1655D03*
Y1630D03*
X2601Y2140D03*
Y2114D03*
Y2088D03*
Y2063D03*
X2435Y2140D03*
Y2114D03*
Y2088D03*
Y2063D03*
X1492Y2068D03*
Y2094D03*
Y2119D03*
Y2145D03*
X1658Y2068D03*
Y2094D03*
Y2119D03*
Y2145D03*
X1492Y1635D03*
Y1661D03*
Y1686D03*
Y1712D03*
X1658Y1635D03*
Y1661D03*
Y1686D03*
Y1712D03*
X1492Y1202D03*
Y1228D03*
Y1253D03*
Y1279D03*
X1658Y1202D03*
Y1228D03*
Y1253D03*
Y1279D03*
G54D64*
X2285Y2731D03*
X2311D03*
X2337D03*
X2362D03*
X2285Y2565D03*
X2311D03*
X2337D03*
X2362D03*
X1596D03*
X1571D03*
X1545D03*
X1519D03*
X1596Y2731D03*
X1571D03*
X1545D03*
X1519D03*
M02*