M48
;Layer_Color=9474304
;FILE_FORMAT=2:5
INCH,TZ
;TYPE=PLATED
T1F00S00C0.02800
T2F00S00C0.03858
T3F00S00C0.06929
;TYPE=NON_PLATED
T4F00S00C0.13500
%
T01
X42500Y38000
X42000Y54500
Y86500
Y103500
Y136000
Y150500
X132000Y126000
X145000Y126500
X132500Y28000
X125000Y5500
X83500Y6500
X68000Y15000
X94500Y38500
X172441Y14173
X215500Y8000
X245000Y41500
X272000Y31500
X243000Y235000
X227000
X42000Y232500
Y201000
Y185000
T02
X15000Y64500
X25000
Y113000
X15000
X56000Y104500
X66000
X82500Y83000
X92500
X115760Y72000
X125760
Y100500
X115760
X151500
X152000Y65500
X132000Y46500
X122000
X76000Y54500
X66000
X92500Y123000
X102500
X102000Y150500
X92000
X70500Y147000
X60500
X188500Y150500
X198500
Y123000
X188500
X193000Y83500
X203000
X224000Y101500
X234000
X255500Y125000
X265500
Y75000
X255500
X235000Y56000
X225000
X193500Y52000
X183500
X162000Y65500
X161500Y100500
X225333Y155750
X235333
X255500Y185000
X265500
Y235000
X255500
X241000Y257500
X231000
X202500Y235000
X192500
X179000Y210000
X169000
X161500Y183000
X197167Y191500
X207167
X225333Y210000
X235333
X176333Y257500
X166333
X143500Y235000
X133500
X108000Y257500
X98000
X76500Y235000
X66500
X47000Y257500
X37000
X25000Y210000
X15000
Y161500
X25000
X58083Y190500
X68083
X98000Y210000
X108000
X115760Y183000
X125760
X151500
T03
X119843Y129035
Y146555
X155748
Y129035
T04
X95787Y103740
X179803
Y171850
X95787
M30
