%TF.GenerationSoftware,Altium Limited,Altium Designer,19.0.10 (269)*%
G04 Layer_Color=255*
%FSLAX26Y26*%
%MOIN*%
%TF.FileFunction,Pads,Top*%
%TF.Part,Single*%
G01*
G75*
%TA.AperFunction,SMDPad,CuDef*%
%ADD10R,0.035433X0.039370*%
%ADD11R,0.037402X0.033465*%
%ADD12R,0.033465X0.037402*%
%ADD13R,0.078740X0.149606*%
%ADD14R,0.078740X0.059055*%
%ADD15O,0.057087X0.023622*%
%TA.AperFunction,ComponentPad*%
%ADD17C,0.058268*%
%ADD18C,0.039370*%
%ADD19C,0.103937*%
%ADD20R,0.103937X0.103937*%
D10*
X613425Y295000D02*
D03*
X666575D02*
D03*
X821575D02*
D03*
X768425D02*
D03*
D11*
X1470000Y94409D02*
D03*
Y145591D02*
D03*
X760000Y165591D02*
D03*
Y114409D02*
D03*
X605000Y109409D02*
D03*
Y160590D02*
D03*
D12*
X1645591Y95000D02*
D03*
X1594409D02*
D03*
X420591Y295000D02*
D03*
X369409D02*
D03*
X420591Y791250D02*
D03*
X369409D02*
D03*
X420591Y1287500D02*
D03*
X369409D02*
D03*
X420591Y1783750D02*
D03*
X369409D02*
D03*
X420591Y2250000D02*
D03*
X369409D02*
D03*
D13*
X2073032Y205000D02*
D03*
D14*
X1825000Y114449D02*
D03*
Y205000D02*
D03*
Y295551D02*
D03*
D15*
X902717Y275000D02*
D03*
Y225000D02*
D03*
Y175000D02*
D03*
Y125000D02*
D03*
X1117284Y275000D02*
D03*
Y225000D02*
D03*
Y175000D02*
D03*
Y125000D02*
D03*
D17*
X1157598Y1830000D02*
D03*
X1257598D02*
D03*
X2310000Y2575000D02*
D03*
X2410000D02*
D03*
X1663333D02*
D03*
X1763333D02*
D03*
X980000D02*
D03*
X1080000D02*
D03*
X1885000Y1505000D02*
D03*
X1985000D02*
D03*
X1885000Y1230000D02*
D03*
X1985000D02*
D03*
X1157598Y720000D02*
D03*
X1257598D02*
D03*
X1220000Y465000D02*
D03*
X1320000D02*
D03*
X925000Y1230000D02*
D03*
X1025000D02*
D03*
X920000Y1505000D02*
D03*
X1020000D02*
D03*
X765000Y2350000D02*
D03*
X665000D02*
D03*
X470000Y2575000D02*
D03*
X370000D02*
D03*
X2025000Y2350000D02*
D03*
X1925000D02*
D03*
X2655000D02*
D03*
X2555000D02*
D03*
X1435000D02*
D03*
X1335000D02*
D03*
X2071667Y1915000D02*
D03*
X1971667D02*
D03*
X1615000Y1830000D02*
D03*
X1515000D02*
D03*
X680833Y1905000D02*
D03*
X580833D02*
D03*
X2353333Y2100000D02*
D03*
X2253333D02*
D03*
X1790000D02*
D03*
X1690000D02*
D03*
X1080000D02*
D03*
X980000D02*
D03*
X250000D02*
D03*
X150000D02*
D03*
X2353333Y1557500D02*
D03*
X2253333D02*
D03*
X705000Y1470000D02*
D03*
X605000D02*
D03*
X2655000Y1850000D02*
D03*
X2555000D02*
D03*
X250000Y1615000D02*
D03*
X150000D02*
D03*
X2340000Y1015000D02*
D03*
X2240000D02*
D03*
X2030000Y835000D02*
D03*
X1930000D02*
D03*
X925000Y830000D02*
D03*
X825000D02*
D03*
X660000Y1045000D02*
D03*
X560000D02*
D03*
X2655000Y1250000D02*
D03*
X2555000D02*
D03*
X1615000Y1005000D02*
D03*
X1515000D02*
D03*
X1257598D02*
D03*
X1157598D02*
D03*
X250000Y1130000D02*
D03*
X150000D02*
D03*
X2350000Y560000D02*
D03*
X2250000D02*
D03*
X1935000Y520000D02*
D03*
X1835000D02*
D03*
X760000Y545000D02*
D03*
X660000D02*
D03*
X2655000Y750000D02*
D03*
X2555000D02*
D03*
X1620000Y655000D02*
D03*
X1520000D02*
D03*
X250000Y645000D02*
D03*
X150000D02*
D03*
D18*
X1798032Y1037402D02*
D03*
X957874D02*
D03*
Y1718504D02*
D03*
X1798032D02*
D03*
D19*
X1198425Y1290354D02*
D03*
X1557480D02*
D03*
Y1465551D02*
D03*
D20*
X1198425D02*
D03*
%TF.MD5,a2ff923bf5889602e04a3d3f1d944b89*%
M02*
