G04*
G04 #@! TF.GenerationSoftware,Altium Limited,Altium Designer,19.1.8 (144)*
G04*
G04 Layer_Physical_Order=1*
G04 Layer_Color=255*
%FSLAX25Y25*%
%MOIN*%
G70*
G01*
G75*
%ADD15R,0.03543X0.03937*%
%ADD16R,0.03740X0.03347*%
%ADD17R,0.03347X0.03740*%
%ADD18R,0.07874X0.14961*%
%ADD19R,0.07874X0.05906*%
%ADD20O,0.05709X0.02362*%
%ADD32C,0.02000*%
%ADD33C,0.05827*%
%ADD34C,0.03937*%
%ADD35C,0.10394*%
%ADD36R,0.10394X0.10394*%
%ADD37C,0.05000*%
D15*
X61343Y29500D02*
D03*
X66658D02*
D03*
X82157D02*
D03*
X76842D02*
D03*
D16*
X147000Y9441D02*
D03*
Y14559D02*
D03*
X76000Y16559D02*
D03*
Y11441D02*
D03*
X60500Y10941D02*
D03*
Y16059D02*
D03*
D17*
X164559Y9500D02*
D03*
X159441D02*
D03*
X42059Y29500D02*
D03*
X36941D02*
D03*
X42059Y79125D02*
D03*
X36941D02*
D03*
X42059Y128750D02*
D03*
X36941D02*
D03*
X42059Y178375D02*
D03*
X36941D02*
D03*
X42059Y225000D02*
D03*
X36941D02*
D03*
D18*
X207303Y20500D02*
D03*
D19*
X182500Y11445D02*
D03*
Y20500D02*
D03*
Y29555D02*
D03*
D20*
X90272Y27500D02*
D03*
Y22500D02*
D03*
Y17500D02*
D03*
Y12500D02*
D03*
X111728Y27500D02*
D03*
Y22500D02*
D03*
Y17500D02*
D03*
Y12500D02*
D03*
D32*
X36970Y257470D02*
X37000Y257500D01*
X36941Y225000D02*
X36970Y225029D01*
Y257470D01*
X214500Y7500D02*
Y8188D01*
X145000Y65551D02*
Y125114D01*
X172346Y14366D02*
X172441Y14272D01*
Y14173D02*
Y38111D01*
X145000Y65551D02*
X172441Y38111D01*
Y14173D02*
X173253D01*
X175563Y11863D01*
X181450D01*
X147193Y14366D02*
X172346D01*
X147000Y14559D02*
X147193Y14366D01*
X77000Y29000D02*
Y29854D01*
X108000Y210000D02*
X169000D01*
X182929Y29000D02*
X185437Y31508D01*
X182000Y29000D02*
X182929D01*
X185437Y31508D02*
Y35437D01*
X187000Y37000D01*
X202500D01*
X207000Y41500D01*
X245000D01*
X272000Y28000D02*
Y30000D01*
X268480Y24480D02*
X272000Y28000D01*
X254480Y24480D02*
X268480D01*
X252000Y22000D02*
X254480Y24480D01*
X252000Y9500D02*
Y22000D01*
X246000Y3500D02*
X252000Y9500D01*
X170362Y3500D02*
X246000D01*
X164559Y9303D02*
X170362Y3500D01*
X164559Y9303D02*
Y9500D01*
X131188Y126000D02*
X132000D01*
X128153Y129035D02*
X131188Y126000D01*
X121035Y129035D02*
X128153D01*
X120500Y128500D02*
X121035Y129035D01*
X110000Y105578D02*
Y129371D01*
X119637Y139008D01*
X133008D01*
X101000Y96578D02*
X110000Y105578D01*
X144614Y125500D02*
X145000Y125114D01*
X144500Y125500D02*
X144614D01*
X118902Y28000D02*
X132500D01*
X113402Y22500D02*
X118902Y28000D01*
X112500Y22500D02*
X113402D01*
X84589Y38500D02*
X94500D01*
X78386Y32297D02*
X84589Y38500D01*
X78386Y31240D02*
Y32297D01*
X77000Y29854D02*
X78386Y31240D01*
X120402Y5500D02*
X124000D01*
X113402Y12500D02*
X120402Y5500D01*
X111728Y12500D02*
X113402D01*
X156000Y129500D02*
X156465Y129035D01*
X101000Y47000D02*
Y96578D01*
X164535Y129035D02*
X171500Y136000D01*
X156465Y129035D02*
X164535D01*
X171500Y136000D02*
Y146000D01*
X160500Y157000D02*
X171500Y146000D01*
X151000Y157000D02*
X160500D01*
X133008Y139008D02*
X151000Y157000D01*
X101000Y47000D02*
X111728Y36272D01*
Y27500D02*
Y36272D01*
X155000Y145807D02*
Y147000D01*
X139000Y8000D02*
Y129807D01*
X155000Y145807D01*
X139000Y8000D02*
X144500Y2500D01*
X152441D01*
X158571Y8630D01*
X158768D01*
X159441Y9303D01*
Y9500D01*
X88730Y27000D02*
X90000D01*
X87698Y28032D02*
X88730Y27000D01*
X83429Y28032D02*
X87698D01*
X82157Y29303D02*
X83429Y28032D01*
X82157Y29303D02*
Y29500D01*
X76319Y16681D02*
X82138Y22500D01*
X76197Y16559D02*
X76319Y16681D01*
X76000Y16559D02*
X76197D01*
X75362Y17000D02*
X76000D01*
X73000Y21500D02*
X74630Y19870D01*
Y17732D02*
Y19870D01*
Y17732D02*
X75362Y17000D01*
X63500Y21500D02*
X73000D01*
X61343Y23658D02*
X63500Y21500D01*
X61343Y23658D02*
Y29500D01*
X76319Y16681D02*
X76500Y16500D01*
X61343Y22658D02*
X61500Y22500D01*
X74000Y9500D02*
X76000Y11500D01*
X61941Y9500D02*
X74000D01*
X60500Y10941D02*
X61941Y9500D01*
X90272Y22500D02*
X91945D01*
X96945Y17500D02*
X111500D01*
X91945Y22500D02*
X96945Y17500D01*
X90272Y12500D02*
X90500D01*
X88967D02*
X90272D01*
X83500Y6500D02*
Y7033D01*
X88967Y12500D01*
X66441Y16059D02*
X68000Y14500D01*
X55362Y16000D02*
X60500D01*
Y16059D02*
X66441D01*
X77173Y12614D02*
X83713D01*
X76000Y11441D02*
X77173Y12614D01*
X90272Y17500D02*
X90500D01*
X88598D02*
X90272D01*
X83713Y12614D02*
X88598Y17500D01*
X76221Y16780D02*
X76319Y16681D01*
X82138Y22500D02*
X90272D01*
X66658Y29500D02*
X76842D01*
X42059Y29303D02*
X55362Y16000D01*
X42059Y29303D02*
Y29500D01*
X254500Y125000D02*
X255000Y125500D01*
X198611Y94000D02*
X229611Y125000D01*
X177008Y94000D02*
X198611D01*
X170508Y100500D02*
X177008Y94000D01*
X42000Y224500D02*
Y232500D01*
X211668Y11020D02*
X214500Y8188D01*
X182925Y11020D02*
X211668D01*
X182500Y11445D02*
X182925Y11020D01*
X161500Y100500D02*
X170508D01*
X42000Y150500D02*
Y184500D01*
X42059Y201059D02*
Y225000D01*
X42000Y184500D02*
X42500Y185000D01*
X42000Y201000D02*
Y201500D01*
Y185000D02*
Y201000D01*
Y136000D02*
X109000D01*
X114858Y141858D01*
X115146D01*
X119500Y146213D01*
Y146500D01*
X158941Y9441D02*
X159000Y9500D01*
X147000Y9441D02*
X158941D01*
X171500Y75000D02*
X255000D01*
X162000Y65500D02*
X171500Y75000D01*
X42000Y201000D02*
X42059Y201059D01*
X42000Y185000D02*
X42059Y184941D01*
X42000Y135000D02*
X42059Y134941D01*
Y128750D02*
Y134941D01*
X42000Y103500D02*
Y128500D01*
Y86500D02*
X42059Y86441D01*
Y79125D02*
Y86441D01*
X42000Y54500D02*
Y79000D01*
X42500Y29941D02*
Y38000D01*
X42059Y29500D02*
X42500Y29941D01*
X14500Y64500D02*
X15000Y64000D01*
Y51638D02*
Y64000D01*
Y51638D02*
X36941Y29697D01*
Y29500D02*
Y29697D01*
X15000Y113000D02*
Y113500D01*
Y101263D02*
Y113000D01*
Y101263D02*
X36941Y79322D01*
Y79125D02*
Y79322D01*
X15000Y161500D02*
Y162000D01*
Y150888D02*
Y161500D01*
Y150888D02*
X36941Y128947D01*
Y128750D02*
Y128947D01*
X14500Y210500D02*
X15000Y210000D01*
Y200513D02*
Y210000D01*
Y200513D02*
X36941Y178572D01*
Y178375D02*
Y178572D01*
X222576Y100576D02*
X224000Y102000D01*
X220076Y100576D02*
X222576D01*
X203000Y83500D02*
X220076Y100576D01*
X229611Y125000D02*
X254500D01*
X225333Y155750D02*
X225500Y155917D01*
X198500Y128917D02*
X225333Y155750D01*
X198500Y123000D02*
Y128917D01*
X225500Y155917D02*
Y156500D01*
X254500Y185000D02*
X255500Y186000D01*
X198500Y150500D02*
X233000Y185000D01*
X254500D01*
X202500Y235000D02*
X227000D01*
X243500D02*
X255500D01*
X182500Y20500D02*
X207303D01*
X260395Y27480D02*
X265500Y32586D01*
X210740Y27480D02*
X260395D01*
X207500Y24240D02*
X210740Y27480D01*
X207500Y21500D02*
Y24240D01*
X265500Y32586D02*
Y75000D01*
X235333Y211167D02*
X236500Y210000D01*
X235000Y211500D02*
X235333Y211167D01*
Y210000D02*
Y211167D01*
Y251833D01*
X241000Y257500D01*
Y258500D01*
X236500Y210000D02*
X240500D01*
X265500Y185000D01*
Y124500D02*
X266000Y125000D01*
X265500D02*
Y185000D01*
Y75000D02*
Y124500D01*
X192500Y235000D02*
X193000D01*
X143500D02*
X192500D01*
X132500D02*
X133000Y235500D01*
X76500Y235000D02*
X132500D01*
X176333Y257500D02*
X231000D01*
X166000D02*
X166500Y258000D01*
X108000Y257500D02*
X166000D01*
X98000D02*
X98500D01*
X47000D02*
X98000D01*
D33*
X115760Y183000D02*
D03*
X125760D02*
D03*
X231000Y257500D02*
D03*
X241000D02*
D03*
X166333D02*
D03*
X176333D02*
D03*
X98000D02*
D03*
X108000D02*
D03*
X188500Y150500D02*
D03*
X198500D02*
D03*
X188500Y123000D02*
D03*
X198500D02*
D03*
X115760Y72000D02*
D03*
X125760D02*
D03*
X122000Y46500D02*
D03*
X132000D02*
D03*
X92500Y123000D02*
D03*
X102500D02*
D03*
X92000Y150500D02*
D03*
X102000D02*
D03*
X76500Y235000D02*
D03*
X66500D02*
D03*
X47000Y257500D02*
D03*
X37000D02*
D03*
X202500Y235000D02*
D03*
X192500D02*
D03*
X265500D02*
D03*
X255500D02*
D03*
X143500D02*
D03*
X133500D02*
D03*
X207167Y191500D02*
D03*
X197167D02*
D03*
X161500Y183000D02*
D03*
X151500D02*
D03*
X68083Y190500D02*
D03*
X58083D02*
D03*
X235333Y210000D02*
D03*
X225333D02*
D03*
X179000D02*
D03*
X169000D02*
D03*
X108000D02*
D03*
X98000D02*
D03*
X25000D02*
D03*
X15000D02*
D03*
X235333Y155750D02*
D03*
X225333D02*
D03*
X70500Y147000D02*
D03*
X60500D02*
D03*
X265500Y185000D02*
D03*
X255500D02*
D03*
X25000Y161500D02*
D03*
X15000D02*
D03*
X234000Y101500D02*
D03*
X224000D02*
D03*
X203000Y83500D02*
D03*
X193000D02*
D03*
X92500Y83000D02*
D03*
X82500D02*
D03*
X66000Y104500D02*
D03*
X56000D02*
D03*
X265500Y125000D02*
D03*
X255500D02*
D03*
X161500Y100500D02*
D03*
X151500D02*
D03*
X125760D02*
D03*
X115760D02*
D03*
X25000Y113000D02*
D03*
X15000D02*
D03*
X235000Y56000D02*
D03*
X225000D02*
D03*
X193500Y52000D02*
D03*
X183500D02*
D03*
X76000Y54500D02*
D03*
X66000D02*
D03*
X265500Y75000D02*
D03*
X255500D02*
D03*
X162000Y65500D02*
D03*
X152000D02*
D03*
X25000Y64500D02*
D03*
X15000D02*
D03*
D34*
X179803Y103740D02*
D03*
X95787D02*
D03*
Y171850D02*
D03*
X179803D02*
D03*
D35*
X119843Y129035D02*
D03*
X155748D02*
D03*
Y146555D02*
D03*
D36*
X119843D02*
D03*
D37*
X172441Y14173D02*
D03*
X245000Y41500D02*
D03*
X272000Y31500D02*
D03*
X132000Y126000D02*
D03*
X145000Y126500D02*
D03*
X132500Y28000D02*
D03*
X94500Y38500D02*
D03*
X125000Y5500D02*
D03*
X83500Y6500D02*
D03*
X68000Y15000D02*
D03*
X42000Y232500D02*
D03*
X215500Y8000D02*
D03*
X42000Y201000D02*
D03*
Y185000D02*
D03*
Y150500D02*
D03*
Y136000D02*
D03*
Y103500D02*
D03*
Y86500D02*
D03*
Y54500D02*
D03*
X42500Y38000D02*
D03*
X243000Y235000D02*
D03*
X227000D02*
D03*
M02*
