G04*
G04 #@! TF.GenerationSoftware,Altium Limited,Altium Designer,19.1.8 (144)*
G04*
G04 Layer_Color=16711935*
%FSLAX25Y25*%
%MOIN*%
G70*
G01*
G75*
%ADD22R,0.04540X0.04147*%
%ADD23R,0.04147X0.04540*%
%ADD24R,0.08674X0.15761*%
%ADD25R,0.08674X0.06706*%
%ADD27C,0.06627*%
%ADD28C,0.04737*%
%ADD29C,0.11194*%
%ADD30R,0.11194X0.11194*%
%ADD31C,0.05800*%
D22*
X132500Y14941D02*
D03*
Y20059D02*
D03*
D23*
X36941Y239389D02*
D03*
X42059D02*
D03*
X36941Y144000D02*
D03*
X42059D02*
D03*
X36941Y94722D02*
D03*
X42059D02*
D03*
X36941Y46500D02*
D03*
X42059D02*
D03*
X165059Y21500D02*
D03*
X159941D02*
D03*
X42059Y193000D02*
D03*
X36941D02*
D03*
D24*
X219598Y22500D02*
D03*
D25*
X244402Y13445D02*
D03*
Y22500D02*
D03*
Y31555D02*
D03*
D27*
X115760Y183000D02*
D03*
X125760D02*
D03*
X231000Y257500D02*
D03*
X241000D02*
D03*
X166333D02*
D03*
X176333D02*
D03*
X98000D02*
D03*
X108000D02*
D03*
X188500Y150500D02*
D03*
X198500D02*
D03*
X188500Y123000D02*
D03*
X198500D02*
D03*
X115760Y72000D02*
D03*
X125760D02*
D03*
X122000Y46500D02*
D03*
X132000D02*
D03*
X92500Y123000D02*
D03*
X102500D02*
D03*
X92000Y150500D02*
D03*
X102000D02*
D03*
X76500Y235000D02*
D03*
X66500D02*
D03*
X47000Y257500D02*
D03*
X37000D02*
D03*
X202500Y235000D02*
D03*
X192500D02*
D03*
X265500D02*
D03*
X255500D02*
D03*
X143500D02*
D03*
X133500D02*
D03*
X207167Y191500D02*
D03*
X197167D02*
D03*
X161500Y183000D02*
D03*
X151500D02*
D03*
X68083Y190500D02*
D03*
X58083D02*
D03*
X235333Y210000D02*
D03*
X225333D02*
D03*
X179000D02*
D03*
X169000D02*
D03*
X108000D02*
D03*
X98000D02*
D03*
X25000D02*
D03*
X15000D02*
D03*
X235333Y155750D02*
D03*
X225333D02*
D03*
X70500Y147000D02*
D03*
X60500D02*
D03*
X265500Y185000D02*
D03*
X255500D02*
D03*
X25000Y161500D02*
D03*
X15000D02*
D03*
X234000Y101500D02*
D03*
X224000D02*
D03*
X203000Y83500D02*
D03*
X193000D02*
D03*
X92500Y83000D02*
D03*
X82500D02*
D03*
X66000Y104500D02*
D03*
X56000D02*
D03*
X265500Y125000D02*
D03*
X255500D02*
D03*
X161500Y100500D02*
D03*
X151500D02*
D03*
X125760D02*
D03*
X115760D02*
D03*
X25000Y113000D02*
D03*
X15000D02*
D03*
X235000Y56000D02*
D03*
X225000D02*
D03*
X193500Y52000D02*
D03*
X183500D02*
D03*
X76000Y54500D02*
D03*
X66000D02*
D03*
X265500Y75000D02*
D03*
X255500D02*
D03*
X162000Y65500D02*
D03*
X152000D02*
D03*
X25000Y64500D02*
D03*
X15000D02*
D03*
D28*
X179803Y103740D02*
D03*
X95787D02*
D03*
Y171850D02*
D03*
X179803D02*
D03*
D29*
X119843Y129035D02*
D03*
X155748D02*
D03*
Y146555D02*
D03*
D30*
X119843D02*
D03*
D31*
X172441Y14173D02*
D03*
X245000Y41500D02*
D03*
X272000Y31500D02*
D03*
X132000Y126000D02*
D03*
X145000Y126500D02*
D03*
X132500Y28000D02*
D03*
X94500Y38500D02*
D03*
X125000Y5500D02*
D03*
X83500Y6500D02*
D03*
X68000Y15000D02*
D03*
X42000Y232500D02*
D03*
X215500Y8000D02*
D03*
X42000Y201000D02*
D03*
Y185000D02*
D03*
Y150500D02*
D03*
Y136000D02*
D03*
Y103500D02*
D03*
Y86500D02*
D03*
Y54500D02*
D03*
X42500Y38000D02*
D03*
X243000Y235000D02*
D03*
X227000D02*
D03*
M02*
