%TF.GenerationSoftware,Altium Limited,Altium Designer,19.0.10 (269)*%
G04 Layer_Color=8388736*
%FSLAX26Y26*%
%MOIN*%
%TF.FileFunction,Soldermask,Top*%
%TF.Part,Single*%
G01*
G75*
%TA.AperFunction,SMDPad,CuDef*%
%ADD28R,0.041465X0.045402*%
%ADD29R,0.086740X0.157606*%
%ADD30R,0.086740X0.067055*%
%ADD31R,0.045402X0.041465*%
%TA.AperFunction,ComponentPad*%
%ADD32C,0.066268*%
%ADD33C,0.047370*%
%ADD34C,0.111937*%
%ADD35R,0.111937X0.111937*%
%TA.AperFunction,ViaPad*%
%ADD36C,0.058000*%
%TA.AperFunction,SMDPad,CuDef*%
%ADD38R,0.043433X0.047370*%
%ADD39O,0.065087X0.031622*%
D28*
X1645591Y95000D02*
D03*
X1594409D02*
D03*
X420591Y295000D02*
D03*
X369409D02*
D03*
X420591Y791250D02*
D03*
X369409D02*
D03*
X420591Y1287500D02*
D03*
X369409D02*
D03*
X420591Y1783750D02*
D03*
X369409D02*
D03*
X420591Y2250000D02*
D03*
X369409D02*
D03*
D29*
X2073032Y205000D02*
D03*
D30*
X1825000Y114449D02*
D03*
Y205000D02*
D03*
Y295551D02*
D03*
D31*
X1470000Y94409D02*
D03*
Y145591D02*
D03*
X760000Y165591D02*
D03*
Y114409D02*
D03*
X605000Y109409D02*
D03*
Y160590D02*
D03*
D32*
X1157598Y1830000D02*
D03*
X1257598D02*
D03*
X2310000Y2575000D02*
D03*
X2410000D02*
D03*
X1663333D02*
D03*
X1763333D02*
D03*
X980000D02*
D03*
X1080000D02*
D03*
X1885000Y1505000D02*
D03*
X1985000D02*
D03*
X1885000Y1230000D02*
D03*
X1985000D02*
D03*
X1157598Y720000D02*
D03*
X1257598D02*
D03*
X1220000Y465000D02*
D03*
X1320000D02*
D03*
X925000Y1230000D02*
D03*
X1025000D02*
D03*
X920000Y1505000D02*
D03*
X1020000D02*
D03*
X765000Y2350000D02*
D03*
X665000D02*
D03*
X470000Y2575000D02*
D03*
X370000D02*
D03*
X2025000Y2350000D02*
D03*
X1925000D02*
D03*
X2655000D02*
D03*
X2555000D02*
D03*
X1435000D02*
D03*
X1335000D02*
D03*
X2071667Y1915000D02*
D03*
X1971667D02*
D03*
X1615000Y1830000D02*
D03*
X1515000D02*
D03*
X680833Y1905000D02*
D03*
X580833D02*
D03*
X2353333Y2100000D02*
D03*
X2253333D02*
D03*
X1790000D02*
D03*
X1690000D02*
D03*
X1080000D02*
D03*
X980000D02*
D03*
X250000D02*
D03*
X150000D02*
D03*
X2353333Y1557500D02*
D03*
X2253333D02*
D03*
X705000Y1470000D02*
D03*
X605000D02*
D03*
X2655000Y1850000D02*
D03*
X2555000D02*
D03*
X250000Y1615000D02*
D03*
X150000D02*
D03*
X2340000Y1015000D02*
D03*
X2240000D02*
D03*
X2030000Y835000D02*
D03*
X1930000D02*
D03*
X925000Y830000D02*
D03*
X825000D02*
D03*
X660000Y1045000D02*
D03*
X560000D02*
D03*
X2655000Y1250000D02*
D03*
X2555000D02*
D03*
X1615000Y1005000D02*
D03*
X1515000D02*
D03*
X1257598D02*
D03*
X1157598D02*
D03*
X250000Y1130000D02*
D03*
X150000D02*
D03*
X2350000Y560000D02*
D03*
X2250000D02*
D03*
X1935000Y520000D02*
D03*
X1835000D02*
D03*
X760000Y545000D02*
D03*
X660000D02*
D03*
X2655000Y750000D02*
D03*
X2555000D02*
D03*
X1620000Y655000D02*
D03*
X1520000D02*
D03*
X250000Y645000D02*
D03*
X150000D02*
D03*
D33*
X1798032Y1037402D02*
D03*
X957874D02*
D03*
Y1718504D02*
D03*
X1798032D02*
D03*
D34*
X1198425Y1290354D02*
D03*
X1557480D02*
D03*
Y1465551D02*
D03*
D35*
X1198425D02*
D03*
D36*
X1724409Y141732D02*
D03*
X2450000Y415000D02*
D03*
X2720000Y315000D02*
D03*
X1320000Y1260000D02*
D03*
X1450000Y1265000D02*
D03*
X1325000Y280000D02*
D03*
X945000Y385000D02*
D03*
X1250000Y55000D02*
D03*
X835000Y65000D02*
D03*
X680000Y150000D02*
D03*
X420000Y2325000D02*
D03*
X2155000Y80000D02*
D03*
X420000Y2010000D02*
D03*
Y1850000D02*
D03*
Y1505000D02*
D03*
Y1360000D02*
D03*
Y1035000D02*
D03*
Y865000D02*
D03*
Y545000D02*
D03*
X425000Y380000D02*
D03*
X2430000Y2350000D02*
D03*
X2270000D02*
D03*
D38*
X613425Y295000D02*
D03*
X666575D02*
D03*
X821575D02*
D03*
X768425D02*
D03*
D39*
X902717Y275000D02*
D03*
Y225000D02*
D03*
Y175000D02*
D03*
Y125000D02*
D03*
X1117284Y275000D02*
D03*
Y225000D02*
D03*
Y175000D02*
D03*
Y125000D02*
D03*
%TF.MD5,29d6906cc3512d907e9fae843b95ac45*%
M02*
