%FSLAX23Y23*%
%MOIN*%
%SFA1B1*%

%IPPOS*%
%ADD14C,0.010000*%
%ADD16R,0.080710X0.045280*%
%ADD18R,0.016540X0.035000*%
%ADD27C,0.090000*%
%ADD28C,0.103940*%
%ADD29C,0.085040*%
%ADD30R,0.103940X0.103940*%
%ADD31C,0.050000*%
%ADD32R,0.045280X0.080710*%
%ADD33R,0.037400X0.033470*%
%ADD34R,0.039370X0.035430*%
%LNegt_can-1*%
%LPD*%
G36*
X1887Y1353D02*
X1889Y1347D01*
X1892Y1342*
X1897Y1339*
X1903Y1337*
X2084*
Y212*
X1903*
X1897Y210*
X1892Y207*
X1889Y202*
X1887Y196*
Y15*
X212*
Y196*
X210Y202*
X207Y207*
X202Y210*
X196Y212*
X15*
Y1337*
X196*
X202Y1339*
X207Y1342*
X210Y1347*
X212Y1353*
Y1534*
X1887*
Y1353*
G37*
%LNegt_can-2*%
%LPC*%
G36*
X1075Y1051D02*
Y1022D01*
X1104*
X1104Y1026*
X1100Y1034*
X1094Y1041*
X1087Y1047*
X1079Y1051*
X1075Y1051*
G37*
G36*
X1065D02*
X1060Y1051D01*
X1052Y1047*
X1045Y1041*
X1039Y1034*
X1035Y1026*
X1035Y1022*
X1065*
Y1051*
G37*
G36*
X1104Y1012D02*
X1075D01*
Y982*
X1079Y982*
X1087Y986*
X1094Y992*
X1100Y999*
X1104Y1007*
X1104Y1012*
G37*
G36*
X1065D02*
X1035D01*
X1035Y1007*
X1039Y999*
X1045Y992*
X1052Y986*
X1060Y982*
X1065Y982*
Y1012*
G37*
G36*
X1228Y1096D02*
X1216Y1095D01*
X1204Y1091*
X1194Y1086*
X1185Y1078*
X1177Y1069*
X1172Y1059*
X1168Y1047*
X1167Y1036*
X1168Y1024*
X1172Y1012*
X1177Y1002*
X1185Y993*
X1194Y985*
X1204Y980*
X1216Y976*
X1228Y975*
X1239Y976*
X1251Y980*
X1261Y985*
X1270Y993*
X1278Y1002*
X1283Y1012*
X1287Y1024*
X1288Y1036*
X1287Y1047*
X1283Y1059*
X1278Y1069*
X1270Y1078*
X1261Y1086*
X1251Y1091*
X1239Y1095*
X1228Y1096*
G37*
G36*
X868D02*
X857Y1095D01*
X845Y1091*
X835Y1086*
X826Y1078*
X818Y1069*
X813Y1059*
X809Y1047*
X808Y1036*
X809Y1024*
X813Y1012*
X818Y1002*
X826Y993*
X835Y985*
X845Y980*
X857Y976*
X868Y975*
X880Y976*
X892Y980*
X902Y985*
X911Y993*
X919Y1002*
X924Y1012*
X928Y1024*
X929Y1036*
X928Y1047*
X924Y1059*
X919Y1069*
X911Y1078*
X902Y1086*
X892Y1091*
X880Y1095*
X868Y1096*
G37*
G36*
X1458Y999D02*
X1445Y997D01*
X1433Y992*
X1422Y984*
X1414Y973*
X1409Y961*
X1407Y948*
X1409Y935*
X1414Y922*
X1422Y912*
X1433Y904*
X1445Y899*
X1458Y897*
X1471Y899*
X1484Y904*
X1494Y912*
X1502Y922*
X1507Y935*
X1509Y948*
X1507Y961*
X1502Y973*
X1494Y984*
X1484Y992*
X1471Y997*
X1458Y999*
G37*
G36*
X638D02*
X625Y997D01*
X613Y992*
X602Y984*
X594Y973*
X589Y961*
X587Y948*
X589Y935*
X594Y922*
X602Y912*
X613Y904*
X625Y899*
X638Y897*
X651Y899*
X663Y904*
X674Y912*
X682Y922*
X687Y935*
X689Y948*
X687Y961*
X682Y973*
X674Y984*
X663Y992*
X651Y997*
X638Y999*
G37*
G36*
X1685Y919D02*
Y890D01*
X1714*
X1714Y894*
X1710Y902*
X1704Y909*
X1697Y915*
X1689Y919*
X1685Y919*
G37*
G36*
X1675D02*
X1670Y919D01*
X1662Y915*
X1655Y909*
X1649Y902*
X1645Y894*
X1645Y890*
X1675*
Y919*
G37*
G36*
X1235Y922D02*
Y868D01*
X1289*
X1289Y872*
X1285Y884*
X1279Y895*
X1272Y904*
X1262Y912*
X1251Y918*
X1240Y921*
X1235Y922*
G37*
G36*
X1220D02*
X1215Y921D01*
X1204Y918*
X1193Y912*
X1183Y904*
X1176Y895*
X1170Y884*
X1166Y872*
X1166Y868*
X1220*
Y922*
G37*
G36*
X1714Y880D02*
X1685D01*
Y850*
X1689Y850*
X1697Y854*
X1704Y860*
X1710Y867*
X1714Y875*
X1714Y880*
G37*
G36*
X1675D02*
X1645D01*
X1645Y875*
X1649Y867*
X1655Y860*
X1662Y854*
X1670Y850*
X1675Y850*
Y880*
G37*
G36*
X1084Y863D02*
Y834D01*
X1113*
X1113Y838*
X1109Y846*
X1103Y853*
X1096Y859*
X1088Y863*
X1084Y863*
G37*
G36*
X1074D02*
X1069Y863D01*
X1061Y859*
X1054Y853*
X1048Y846*
X1044Y838*
X1044Y834*
X1074*
Y863*
G37*
G36*
X1289Y853D02*
X1235D01*
Y799*
X1240Y799*
X1251Y803*
X1262Y809*
X1272Y816*
X1279Y826*
X1285Y836*
X1289Y848*
X1289Y853*
G37*
G36*
X1220D02*
X1166D01*
X1166Y848*
X1170Y836*
X1176Y826*
X1183Y816*
X1193Y809*
X1204Y803*
X1215Y799*
X1220Y799*
Y853*
G37*
G36*
X1113Y824D02*
X1084D01*
Y794*
X1088Y794*
X1096Y798*
X1103Y804*
X1109Y811*
X1113Y819*
X1113Y824*
G37*
G36*
X1074D02*
X1044D01*
X1044Y819*
X1048Y811*
X1054Y804*
X1061Y798*
X1069Y794*
X1074Y794*
Y824*
G37*
G36*
X704Y771D02*
Y742D01*
X733*
X733Y746*
X729Y754*
X723Y761*
X716Y767*
X708Y771*
X704Y771*
G37*
G36*
X694D02*
X689Y771D01*
X681Y767*
X674Y761*
X668Y754*
X664Y746*
X664Y742*
X694*
Y771*
G37*
G36*
X733Y732D02*
X704D01*
Y702*
X708Y702*
X716Y706*
X723Y712*
X729Y719*
X733Y727*
X733Y732*
G37*
G36*
X694D02*
X664D01*
X664Y727*
X668Y719*
X674Y712*
X681Y706*
X689Y702*
X694Y702*
Y732*
G37*
G36*
X1772Y636D02*
Y607D01*
X1801*
X1801Y611*
X1797Y619*
X1791Y626*
X1784Y632*
X1776Y636*
X1772Y636*
G37*
G36*
X1762D02*
X1757Y636D01*
X1749Y632*
X1742Y626*
X1736Y619*
X1732Y611*
X1732Y607*
X1762*
Y636*
G37*
G36*
X1801Y597D02*
X1772D01*
Y567*
X1776Y567*
X1784Y571*
X1791Y577*
X1797Y584*
X1801Y592*
X1801Y597*
G37*
G36*
X1762D02*
X1732D01*
X1732Y592*
X1736Y584*
X1742Y577*
X1749Y571*
X1757Y567*
X1762Y567*
Y597*
G37*
G36*
X934Y563D02*
X911D01*
Y541*
X934*
Y563*
G37*
G36*
X901D02*
X877D01*
Y541*
X901*
Y563*
G37*
G36*
X1254Y560D02*
X1231D01*
Y538*
X1254*
Y560*
G37*
G36*
X1221D02*
X1197D01*
Y538*
X1221*
Y560*
G37*
G36*
X1019Y539D02*
Y510D01*
X1048*
X1048Y514*
X1044Y522*
X1038Y529*
X1031Y535*
X1023Y539*
X1019Y539*
G37*
G36*
X1009D02*
X1004Y539D01*
X996Y535*
X989Y529*
X983Y522*
X979Y514*
X979Y510*
X1009*
Y539*
G37*
G36*
X1127Y536D02*
Y507D01*
X1156*
X1156Y511*
X1152Y519*
X1146Y526*
X1139Y532*
X1131Y536*
X1127Y536*
G37*
G36*
X1117D02*
X1112Y536D01*
X1104Y532*
X1097Y526*
X1091Y519*
X1087Y511*
X1087Y507*
X1117*
Y536*
G37*
G36*
X721Y512D02*
X697D01*
Y489*
X721*
Y512*
G37*
G36*
X687D02*
X662D01*
Y489*
X687*
Y512*
G37*
G36*
X1476Y496D02*
X1452D01*
Y473*
X1476*
Y496*
G37*
G36*
X1442D02*
X1417D01*
Y473*
X1442*
Y496*
G37*
G36*
X1048Y500D02*
X1019D01*
Y470*
X1023Y470*
X1031Y474*
X1038Y480*
X1044Y487*
X1048Y495*
X1048Y500*
G37*
G36*
X1009D02*
X979D01*
X979Y495*
X983Y487*
X989Y480*
X996Y474*
X1004Y470*
X1009Y470*
Y500*
G37*
G36*
X1156Y497D02*
X1127D01*
Y467*
X1131Y467*
X1139Y471*
X1146Y477*
X1152Y484*
X1156Y492*
X1156Y497*
G37*
G36*
X1117D02*
X1087D01*
X1087Y492*
X1091Y484*
X1097Y477*
X1104Y471*
X1112Y467*
X1117Y467*
Y497*
G37*
G36*
X934Y531D02*
X906D01*
X877*
Y509*
X879*
Y460*
X891*
Y412*
X886Y410*
X840Y456*
X836Y459*
X831Y460*
X825*
Y483*
X772*
Y437*
Y433*
X768Y431*
X719*
Y456*
X721*
Y479*
X692*
X662*
Y456*
X664*
Y405*
X681*
Y377*
X678Y375*
X671Y370*
X666Y363*
X662Y355*
X661Y347*
X662Y338*
X666Y330*
X671Y323*
X678Y318*
X686Y314*
X695Y313*
X703Y314*
X711Y318*
X718Y323*
X723Y330*
X727Y338*
X728Y347*
X727Y355*
X723Y363*
X718Y370*
X711Y375*
X708Y377*
Y405*
X772*
Y382*
X785*
Y335*
X769*
Y287*
Y283*
Y278*
Y230*
X783*
Y195*
X771*
Y183*
X733*
X728Y182*
X724Y179*
X714Y170*
X710Y172*
Y209*
X713Y211*
X720Y216*
X725Y223*
X729Y231*
X730Y240*
X729Y248*
X725Y256*
X720Y263*
X713Y268*
X705Y272*
X697Y273*
X688Y272*
X680Y268*
X673Y263*
X668Y256*
X664Y248*
X663Y240*
X664Y231*
X668Y223*
X673Y216*
X680Y211*
X683Y209*
Y162*
X670*
Y111*
X668*
Y89*
X698*
X727*
Y111*
X725*
Y144*
X738Y157*
X767*
X771Y153*
Y145*
Y140*
Y94*
X824*
Y117*
X858*
X863Y118*
X867Y121*
X886Y141*
X891Y138*
Y93*
X877*
Y32*
X974*
Y93*
X918*
Y141*
X918Y141*
X931Y146*
X942Y155*
X951Y166*
X956Y179*
X958Y193*
X956Y206*
X951Y219*
X942Y230*
X931Y239*
X918Y244*
X905Y246*
X891Y244*
X878Y239*
X867Y230*
X858Y219*
X853Y206*
X851Y193*
X853Y179*
X858Y166*
X865Y157*
X852Y144*
X829*
X824Y145*
Y149*
Y195*
X810*
Y230*
X824*
Y278*
Y282*
Y287*
Y335*
X812*
Y382*
X825*
Y426*
X830Y428*
X865Y393*
X858Y384*
X853Y371*
X851Y358*
X853Y344*
X858Y331*
X867Y320*
X878Y311*
X891Y306*
X905Y304*
X918Y306*
X931Y311*
X942Y320*
X951Y331*
X956Y344*
X956Y344*
X985*
Y307*
X1046*
Y404*
X985*
Y371*
X956*
X956Y371*
X951Y384*
X942Y395*
X931Y404*
X918Y409*
X918Y409*
Y460*
X932*
Y509*
X934*
Y531*
G37*
G36*
X1603Y395D02*
X1589D01*
Y367*
Y340*
X1603*
Y342*
X1626*
Y393*
X1603*
Y395*
G37*
G36*
X1579D02*
X1564D01*
Y367*
Y340*
X1579*
Y367*
Y395*
G37*
G36*
X1226Y533D02*
D01*
Y528*
X1197*
Y506*
X1199*
Y457*
X1216*
Y409*
X1216Y409*
X1203Y404*
X1192Y395*
X1183Y384*
X1178Y371*
X1177Y367*
X1165*
Y402*
X1104*
Y305*
X1165*
Y341*
X1179*
X1183Y331*
X1192Y320*
X1203Y311*
X1216Y306*
X1230Y304*
X1243Y306*
X1256Y311*
X1267Y320*
X1276Y331*
X1281Y344*
X1283Y358*
X1281Y371*
X1276Y384*
X1269Y393*
X1312Y436*
X1317Y434*
Y390*
X1330*
Y337*
X1316*
Y289*
Y285*
Y280*
Y232*
X1330*
Y193*
X1317*
Y147*
Y143*
Y138*
Y130*
X1296*
X1269Y157*
X1276Y166*
X1281Y179*
X1283Y193*
X1281Y206*
X1276Y219*
X1267Y230*
X1256Y239*
X1243Y244*
X1230Y246*
X1216Y244*
X1203Y239*
X1192Y230*
X1183Y219*
X1178Y206*
X1176Y193*
X1178Y179*
X1183Y166*
X1192Y155*
X1203Y146*
X1216Y141*
X1216Y141*
Y105*
X1180*
Y44*
X1277*
Y100*
Y102*
X1277Y105*
X1280Y107*
X1280Y107*
X1282Y107*
X1285Y105*
X1290Y104*
X1317*
Y92*
X1370*
Y138*
Y142*
Y147*
Y155*
X1420*
Y140*
X1418*
Y117*
X1448*
X1477*
Y140*
X1475*
Y172*
X1491Y188*
X1517*
Y176*
X1520*
Y130*
X1500*
Y33*
X1561*
Y130*
X1546*
Y167*
X1551Y169*
X1552Y169*
X1596Y124*
X1600Y122*
X1605Y121*
X1608*
Y96*
X1606*
Y73*
X1665*
Y96*
X1663*
Y108*
X1708*
X1720Y97*
X1718Y93*
X1717Y85*
X1718Y76*
X1722Y68*
X1727Y61*
X1734Y56*
X1742Y52*
X1751Y51*
X1759Y52*
X1767Y56*
X1774Y61*
X1779Y68*
X1783Y76*
X1784Y85*
X1783Y93*
X1779Y101*
X1774Y108*
X1767Y113*
X1759Y117*
X1751Y118*
X1742Y117*
X1739Y115*
X1723Y130*
X1719Y133*
X1714Y134*
X1663*
Y147*
X1624*
X1623Y147*
X1611*
X1586Y171*
X1588Y176*
X1626*
Y188*
X1706*
Y157*
X1803*
Y218*
X1769*
Y269*
X1772Y271*
X1779Y276*
X1784Y283*
X1788Y291*
X1789Y300*
X1788Y308*
X1784Y316*
X1779Y323*
X1772Y328*
X1764Y332*
X1756Y333*
X1747Y332*
X1739Y328*
X1732Y323*
X1727Y316*
X1723Y308*
X1722Y300*
X1723Y291*
X1727Y283*
X1732Y276*
X1739Y271*
X1742Y269*
Y218*
X1706*
Y215*
X1626*
Y227*
X1517*
Y215*
X1486*
X1481Y214*
X1477Y211*
X1456Y191*
X1420*
Y181*
X1370*
Y193*
X1357*
Y232*
X1371*
Y280*
Y284*
Y289*
Y337*
X1357*
Y390*
X1370*
Y402*
X1419*
Y389*
X1474*
Y402*
X1489*
X1517Y374*
Y342*
X1540*
Y340*
X1554*
Y367*
Y395*
X1546*
Y407*
X1572*
Y504*
X1511*
Y424*
X1506Y422*
X1504Y424*
X1500Y427*
X1495Y428*
X1474*
Y440*
X1476*
Y463*
X1447*
Y468*
Y463*
X1417*
Y440*
X1419*
Y428*
X1374*
X1370Y432*
Y440*
Y445*
Y491*
X1317*
Y468*
X1311*
X1306Y467*
X1302Y464*
X1248Y410*
X1243Y412*
Y457*
X1252*
Y506*
X1254*
Y528*
X1226*
Y533*
G37*
G36*
X1139Y259D02*
Y230D01*
X1168*
X1168Y234*
X1164Y242*
X1158Y249*
X1151Y255*
X1143Y259*
X1139Y259*
G37*
G36*
X1129D02*
X1124Y259D01*
X1116Y255*
X1109Y249*
X1103Y242*
X1099Y234*
X1099Y230*
X1129*
Y259*
G37*
G36*
X1017Y256D02*
Y227D01*
X1046*
X1046Y231*
X1042Y239*
X1036Y246*
X1029Y252*
X1021Y256*
X1017Y256*
G37*
G36*
X1007D02*
X1002Y256D01*
X994Y252*
X987Y246*
X981Y239*
X977Y231*
X977Y227*
X1007*
Y256*
G37*
G36*
X1168Y220D02*
X1139D01*
Y190*
X1143Y190*
X1151Y194*
X1158Y200*
X1164Y207*
X1168Y215*
X1168Y220*
G37*
G36*
X1129D02*
X1099D01*
X1099Y215*
X1103Y207*
X1109Y200*
X1116Y194*
X1124Y190*
X1129Y190*
Y220*
G37*
G36*
X1046Y217D02*
X1017D01*
Y187*
X1021Y187*
X1029Y191*
X1036Y197*
X1042Y204*
X1046Y212*
X1046Y217*
G37*
G36*
X1007D02*
X977D01*
X977Y212*
X981Y204*
X987Y197*
X994Y191*
X1002Y187*
X1007Y187*
Y217*
G37*
G36*
X1477Y107D02*
X1453D01*
Y84*
X1477*
Y107*
G37*
G36*
X1443D02*
X1418D01*
Y84*
X1443*
Y107*
G37*
G36*
X727Y79D02*
X703D01*
Y56*
X727*
Y79*
G37*
G36*
X693D02*
X668D01*
Y56*
X693*
Y79*
G37*
G36*
X1665Y63D02*
X1641D01*
Y40*
X1665*
Y63*
G37*
G36*
X1631D02*
X1606D01*
Y40*
X1631*
Y63*
G37*
G36*
X928Y920D02*
X808D01*
Y815*
X808Y813*
Y727*
X265Y184*
X262Y180*
X261Y175*
Y99*
X258Y97*
X251Y92*
X246Y85*
X242Y77*
X241Y69*
X242Y60*
X246Y52*
X251Y45*
X258Y40*
X266Y36*
X275Y35*
X283Y36*
X291Y40*
X298Y45*
X303Y52*
X307Y60*
X308Y69*
X307Y77*
X303Y85*
X298Y92*
X291Y97*
X288Y99*
Y169*
X831Y712*
X834Y717*
X835Y722*
Y800*
X928*
Y920*
G37*
%LNegt_can-3*%
%LPD*%
G54D14*
X1584Y202D02*
X1610D01*
X695Y347D02*
Y428D01*
X692Y431D02*
X695Y428D01*
X1014Y358D02*
X1016Y356D01*
X905Y358D02*
X1014D01*
X275Y175D02*
X821Y722D01*
X275Y69D02*
Y175D01*
X821Y722D02*
Y813D01*
X868Y860*
X697Y138D02*
X700D01*
X733Y170*
X798*
X697Y138D02*
Y240D01*
X692Y431D02*
X704Y418D01*
X787*
X799Y407*
X905Y67D02*
Y178D01*
Y193*
X858Y131D02*
X905Y178D01*
X809Y131D02*
X858D01*
X798Y119D02*
X809Y131D01*
X797Y171D02*
X798Y170D01*
X797Y171D02*
Y256D01*
Y309D02*
X799Y311D01*
Y407*
X905Y373D02*
Y484D01*
Y358D02*
Y373D01*
Y484D02*
X906Y485D01*
X799Y458D02*
X810Y446D01*
X831*
X905Y373*
X904Y66D02*
X905Y67D01*
X1226Y354D02*
X1230Y358D01*
X1135Y354D02*
X1226D01*
X1714Y121D02*
X1751Y85D01*
X1636Y121D02*
X1714D01*
X1756Y189D02*
Y300D01*
X1755Y188D02*
X1756Y189D01*
X1559Y367D02*
X1584D01*
X1230Y178D02*
Y193D01*
Y358D02*
Y373D01*
X1740Y202D02*
X1755Y188D01*
X1610Y202D02*
X1740D01*
X1533Y84D02*
Y202D01*
X1531Y82D02*
X1533Y84D01*
X1623Y134D02*
X1636Y121D01*
X1605Y134D02*
X1623D01*
X1561Y178D02*
X1605Y134D01*
X1561Y178D02*
Y199D01*
X1559Y202D02*
X1561Y199D01*
X1230Y76D02*
Y178D01*
X1229Y75D02*
X1230Y76D01*
Y178D02*
X1290Y117D01*
X1344*
X1486Y202D02*
X1533D01*
X1449Y165D02*
X1486Y202D01*
X1448Y165D02*
X1449D01*
X1444Y168D02*
X1448Y165D01*
X1344Y168D02*
X1444D01*
X1344D02*
Y258D01*
Y311D02*
Y415D01*
X1533Y377D02*
Y447D01*
Y367D02*
Y377D01*
Y447D02*
X1542Y456D01*
X1447Y415D02*
X1495D01*
X1533Y377*
X1446Y415D02*
X1447Y415D01*
X1344Y415D02*
X1446D01*
X1230Y373D02*
Y478D01*
X1332Y454D02*
X1344Y466D01*
X1311Y454D02*
X1332D01*
X1230Y373D02*
X1311Y454D01*
X1226Y482D02*
X1230Y478D01*
G54D16*
X1229Y75D03*
X1755Y188D03*
X926Y63D03*
G54D18*
X1610Y202D03*
X1584D03*
X1559D03*
X1533D03*
X1610Y367D03*
X1584D03*
X1559D03*
X1533D03*
G54D27*
X905Y358D03*
Y193D03*
X1230Y358D03*
Y193D03*
G54D28*
X868Y1036D03*
X1228D03*
Y860D03*
G54D29*
X638Y948D03*
X1458D03*
G54D30*
X868Y860D03*
G54D31*
X699Y737D03*
X1680Y885D03*
X1070Y1017D03*
X1079Y829D03*
X1122Y502D03*
X1012Y222D03*
X1134Y225D03*
X1014Y505D03*
X1767Y602D03*
X695Y347D03*
X275Y69D03*
X697Y240D03*
X1756Y300D03*
X1751Y85D03*
G54D32*
X1016Y356D03*
X1135Y354D03*
X1531Y82D03*
X1542Y456D03*
G54D33*
X1344Y117D03*
Y168D03*
Y415D03*
Y466D03*
X1226Y533D03*
Y482D03*
X906Y536D03*
Y485D03*
X798Y170D03*
Y119D03*
X799Y458D03*
Y407D03*
G54D34*
X1447Y415D03*
Y468D03*
X1344Y258D03*
Y311D03*
X1448Y112D03*
Y165D03*
X1636Y68D03*
Y121D03*
X698Y137D03*
Y84D03*
X692Y484D03*
Y431D03*
X797Y309D03*
Y256D03*
M02*