%FSLAX23Y23*%
%MOIN*%
%SFA1B1*%

%IPPOS*%
%ADD29R,0.043470X0.047400*%
%ADD30R,0.047400X0.043470*%
%ADD32R,0.045430X0.049370*%
%ADD33R,0.049370X0.045430*%
%ADD39C,0.010000*%
%ADD40C,0.057090*%
%ADD41C,0.088740*%
%ADD42C,0.128110*%
%ADD60R,0.047240X0.023620*%
%ADD61R,0.159610X0.088740*%
%ADD62R,0.069060X0.088740*%
%ADD63O,0.029690X0.061180*%
%ADD64R,0.029690X0.061180*%
%ADD65O,0.061180X0.029690*%
%ADD66R,0.061180X0.029690*%
%ADD67R,0.059000X0.135000*%
%LNbms-1*%
%LPD*%
G54D29*
X1457Y1377D03*
X1508D03*
X2271Y273D03*
X2322D03*
X1540Y416D03*
X1489D03*
G54D30*
X1273Y1491D03*
Y1439D03*
X1356Y1438D03*
Y1490D03*
G54D32*
X877Y69D03*
X931D03*
X1762Y1651D03*
X1815D03*
G54D33*
X1787Y222D03*
Y275D03*
X1875Y1510D03*
Y1457D03*
X1390Y1185D03*
Y1238D03*
X1452Y1185D03*
Y1238D03*
G54D39*
X137Y909D03*
Y1649D03*
X2051Y909D03*
Y1649D03*
X196Y2007D03*
X2362D03*
Y590D03*
X196D03*
G54D40*
X196Y846D03*
Y1712D03*
X2110Y846D03*
Y1712D03*
G54D41*
X2288Y1543D03*
Y1425D03*
Y1133D03*
Y1015D03*
G54D42*
X2459Y1484D03*
Y1074D03*
G54D60*
X271Y980D03*
X122D03*
X271Y1011D03*
X122D03*
X271Y1043D03*
X122D03*
X271Y1074D03*
X122D03*
X271Y1106D03*
X122D03*
X271Y1137D03*
X122D03*
X271Y1169D03*
X122D03*
X271Y1200D03*
X122D03*
X271Y1232D03*
X122D03*
X271Y1263D03*
X122D03*
X271Y1295D03*
X122D03*
X271Y1326D03*
X122D03*
X271Y1358D03*
X122D03*
X271Y1389D03*
X122D03*
X271Y1421D03*
X122D03*
X271Y1452D03*
X122D03*
X271Y1484D03*
X122D03*
X271Y1515D03*
X122D03*
X271Y1547D03*
X122D03*
X271Y1578D03*
X122D03*
X2185Y980D03*
X2035D03*
X2185Y1011D03*
X2035D03*
X2185Y1043D03*
X2035D03*
X2185Y1074D03*
X2035D03*
X2185Y1106D03*
X2035D03*
X2185Y1137D03*
X2035D03*
X2185Y1169D03*
X2035D03*
X2185Y1200D03*
X2035D03*
X2185Y1232D03*
X2035D03*
X2185Y1263D03*
X2035D03*
X2185Y1295D03*
X2035D03*
X2185Y1326D03*
X2035D03*
X2185Y1358D03*
X2035D03*
X2185Y1389D03*
X2035D03*
X2185Y1421D03*
X2035D03*
X2185Y1452D03*
X2035D03*
X2185Y1484D03*
X2035D03*
X2185Y1515D03*
X2035D03*
X2185Y1547D03*
X2035D03*
X2185Y1578D03*
X2035D03*
G54D61*
X2026Y2392D03*
G54D62*
X1936Y2144D03*
X2026D03*
X2117D03*
G54D63*
X2208Y273D03*
X2158D03*
X2108D03*
X2058D03*
X2008D03*
X1958D03*
X1908D03*
X1858D03*
X2208Y517D03*
X2158D03*
X2108D03*
X2058D03*
X2008D03*
X1958D03*
X1908D03*
G54D64*
X1858Y517D03*
G54D65*
X1481Y477D03*
Y527D03*
Y577D03*
Y627D03*
Y677D03*
Y727D03*
Y777D03*
Y827D03*
X1725Y477D03*
Y527D03*
Y577D03*
Y627D03*
Y677D03*
Y727D03*
Y777D03*
G54D66*
X1725Y827D03*
G54D67*
X522Y2380D03*
X773D03*
X522Y2180D03*
X773D03*
X522Y1979D03*
X773D03*
X522Y1778D03*
X773D03*
X522Y1577D03*
X773D03*
X522Y1376D03*
X773D03*
X522Y1176D03*
X773D03*
X522Y975D03*
X773D03*
X522Y774D03*
X773D03*
X522Y573D03*
X773D03*
X522Y373D03*
X773D03*
X522Y172D03*
X773D03*
M02*