%FSLAX23Y23*%
%MOIN*%
%SFA1B1*%

%IPPOS*%
%ADD10C,0.009840*%
%ADD12C,0.007870*%
%ADD13C,0.005910*%
%ADD15C,0.010000*%
%LNbms-1*%
%LPD*%
G54D10*
X2173Y2144D02*
D01*
X2173Y2145*
X2173Y2145*
X2173Y2145*
X2173Y2146*
X2172Y2146*
X2172Y2146*
X2172Y2146*
X2172Y2147*
X2172Y2147*
X2172Y2147*
X2171Y2148*
X2171Y2148*
X2171Y2148*
X2171Y2148*
X2170Y2148*
X2170Y2149*
X2170Y2149*
X2169Y2149*
X2169Y2149*
X2169Y2149*
X2168Y2149*
X2168Y2149*
X2168*
X2167Y2149*
X2167Y2149*
X2167Y2149*
X2166Y2149*
X2166Y2149*
X2166Y2149*
X2165Y2148*
X2165Y2148*
X2165Y2148*
X2165Y2148*
X2164Y2148*
X2164Y2147*
X2164Y2147*
X2164Y2147*
X2163Y2146*
X2163Y2146*
X2163Y2146*
X2163Y2146*
X2163Y2145*
X2163Y2145*
X2163Y2145*
X2163Y2144*
X2163Y2144*
X2163Y2144*
X2163Y2143*
X2163Y2143*
X2163Y2143*
X2163Y2142*
X2163Y2142*
X2164Y2142*
X2164Y2141*
X2164Y2141*
X2164Y2141*
X2165Y2141*
X2165Y2140*
X2165Y2140*
X2165Y2140*
X2166Y2140*
X2166Y2140*
X2166Y2140*
X2167Y2139*
X2167Y2139*
X2167Y2139*
X2168Y2139*
X2168*
X2168Y2139*
X2169Y2139*
X2169Y2139*
X2169Y2140*
X2170Y2140*
X2170Y2140*
X2170Y2140*
X2171Y2140*
X2171Y2140*
X2171Y2141*
X2171Y2141*
X2172Y2141*
X2172Y2141*
X2172Y2142*
X2172Y2142*
X2172Y2142*
X2172Y2143*
X2173Y2143*
X2173Y2143*
X2173Y2144*
X2173Y2144*
X2173Y2144*
X263Y767D02*
X326Y830D01*
Y1791*
X66D02*
X326D01*
X66Y767D02*
Y1791D01*
Y767D02*
X263D01*
X2177D02*
X2240Y830D01*
Y1791*
X1980D02*
X2240D01*
X1980Y767D02*
Y1791D01*
Y767D02*
X2177D01*
G54D12*
X1833Y383D02*
D01*
X1834Y383*
X1835Y383*
X1835Y383*
X1836Y383*
X1837Y383*
X1838Y384*
X1839Y384*
X1839Y385*
X1840Y385*
X1841Y386*
X1841Y386*
X1842Y387*
X1843Y388*
X1843Y388*
X1844Y389*
X1844Y390*
X1844Y391*
X1845Y391*
X1845Y392*
X1845Y393*
X1845Y394*
X1845Y395*
Y396*
X1845Y397*
X1845Y397*
X1845Y398*
X1845Y399*
X1844Y400*
X1844Y401*
X1844Y401*
X1843Y402*
X1843Y403*
X1842Y404*
X1841Y404*
X1841Y405*
X1840Y405*
X1839Y406*
X1839Y406*
X1838Y407*
X1837Y407*
X1836Y407*
X1835Y407*
X1835Y408*
X1834Y408*
X1833Y408*
X1590Y852D02*
D01*
X1590Y852*
X1591Y851*
X1591Y850*
X1591Y849*
X1591Y848*
X1591Y847*
X1592Y847*
X1592Y846*
X1593Y845*
X1593Y844*
X1594Y844*
X1595Y843*
X1595Y843*
X1596Y842*
X1597Y842*
X1597Y841*
X1598Y841*
X1599Y841*
X1600Y840*
X1601Y840*
X1602Y840*
X1602Y840*
X1603*
X1604Y840*
X1605Y840*
X1606Y840*
X1607Y841*
X1608Y841*
X1608Y841*
X1609Y842*
X1610Y842*
X1611Y843*
X1611Y843*
X1612Y844*
X1612Y844*
X1613Y845*
X1614Y846*
X1614Y847*
X1614Y847*
X1615Y848*
X1615Y849*
X1615Y850*
X1615Y851*
X1615Y852*
X1615Y852*
X2154Y2199D02*
Y2337D01*
X1900Y2199D02*
X2154D01*
X1898D02*
Y2337D01*
X2154*
X1833Y459D02*
X2233D01*
Y332D02*
Y459D01*
X1833Y332D02*
X2233D01*
X1833D02*
Y383D01*
Y408D02*
Y459D01*
X1666Y452D02*
Y852D01*
X1539Y452D02*
X1666D01*
X1539D02*
Y852D01*
X1590*
X1615D02*
X1666D01*
G54D13*
X1759Y193D02*
X1771D01*
X1759D02*
Y304D01*
X1771*
X1803D02*
X1814D01*
Y193D02*
Y304D01*
X1803Y193D02*
X1814D01*
X1759Y249D02*
X1814D01*
X1533Y1350D02*
Y1357D01*
X1433Y1350D02*
X1533D01*
X1433D02*
Y1357D01*
Y1397D02*
Y1405D01*
X1533*
Y1397D02*
Y1405D01*
X1483Y1350D02*
Y1405D01*
X1891Y1539D02*
X1903D01*
Y1429D02*
Y1539D01*
X1891Y1429D02*
X1903D01*
X1848D02*
X1860D01*
X1848D02*
Y1539D01*
X1860*
X1848Y1484D02*
X1903D01*
X2347Y246D02*
Y253D01*
X2247Y246D02*
X2347D01*
X2247D02*
Y253D01*
Y293D02*
Y301D01*
X2347*
Y293D02*
Y301D01*
X2297Y246D02*
Y301D01*
X849Y85D02*
Y97D01*
X959*
Y85D02*
Y97D01*
Y42D02*
Y54D01*
X849Y42D02*
X959D01*
X849D02*
Y54D01*
X904Y42D02*
Y97D01*
X1514Y388D02*
Y443D01*
X1564Y436D02*
Y443D01*
X1464D02*
X1564D01*
X1464Y436D02*
Y443D01*
Y388D02*
Y396D01*
Y388D02*
X1564D01*
Y396*
X1246Y1465D02*
X1301D01*
X1246Y1515D02*
X1253D01*
X1246Y1415D02*
Y1515D01*
Y1415D02*
X1253D01*
X1293D02*
X1301D01*
Y1515*
X1293D02*
X1301D01*
X1328Y1464D02*
X1383D01*
X1376Y1414D02*
X1383D01*
Y1514*
X1376D02*
X1383D01*
X1328D02*
X1336D01*
X1328Y1414D02*
Y1514D01*
Y1414D02*
X1336D01*
X1363Y1156D02*
X1375D01*
X1363D02*
Y1266D01*
X1375*
X1406D02*
X1418D01*
Y1156D02*
Y1266D01*
X1406Y1156D02*
X1418D01*
X1363Y1211D02*
X1418D01*
X1425Y1156D02*
X1437D01*
X1425D02*
Y1266D01*
X1437*
X1468D02*
X1480D01*
Y1156D02*
Y1266D01*
X1468Y1156D02*
X1480D01*
X1425Y1211D02*
X1480D01*
X1734Y1667D02*
Y1679D01*
X1844*
Y1667D02*
Y1679D01*
Y1624D02*
Y1635D01*
X1734Y1624D02*
X1844D01*
X1734D02*
Y1635D01*
X1789Y1624D02*
Y1679D01*
G54D15*
X523Y2455D02*
X773D01*
X523Y2305D02*
X773D01*
X523Y2255D02*
X773D01*
X523Y2105D02*
X773D01*
X523Y2054D02*
X773D01*
X523Y1904D02*
X773D01*
X523Y1853D02*
X773D01*
X523Y1703D02*
X773D01*
X523Y1652D02*
X773D01*
X523Y1502D02*
X773D01*
X523Y1451D02*
X773D01*
X523Y1301D02*
X773D01*
X523Y1251D02*
X773D01*
X523Y1101D02*
X773D01*
X523Y1050D02*
X773D01*
X523Y900D02*
X773D01*
X523Y849D02*
X773D01*
X523Y699D02*
X773D01*
X523Y648D02*
X773D01*
X523Y498D02*
X773D01*
X523Y448D02*
X773D01*
X523Y298D02*
X773D01*
X523Y247D02*
X773D01*
X523Y97D02*
X773D01*
X1776Y355D02*
X1781Y361D01*
X1792*
X1797Y355*
Y334*
X1792Y329*
X1781*
X1776Y334*
X1745Y329D02*
X1766D01*
X1745Y350*
Y355*
X1750Y361*
X1760*
X1766Y355*
X1734Y329D02*
X1724D01*
X1729*
Y361*
X1734Y355*
X1578Y1431D02*
Y1462D01*
X1563*
X1557Y1457*
Y1446*
X1563Y1441*
X1578*
X1568D02*
X1557Y1431D01*
X1526Y1462D02*
X1547D01*
Y1446*
X1536Y1452*
X1531*
X1526Y1446*
Y1436*
X1531Y1431*
X1542*
X1547Y1436*
X1515Y1457D02*
X1510Y1462D01*
X1500*
X1494Y1457*
Y1436*
X1500Y1431*
X1510*
X1515Y1436*
Y1457*
X2132Y2455D02*
Y2473D01*
X2136Y2478*
X2146*
X2150Y2473*
Y2455*
X2146Y2450*
X2136*
X2141Y2459D02*
X2132Y2450D01*
X2136D02*
X2132Y2455D01*
X2123Y2450D02*
X2113D01*
X2118*
Y2478*
X2123Y2473*
X2100D02*
X2095Y2478D01*
X2086*
X2081Y2473*
Y2469*
X2086Y2464*
X2090*
X2086*
X2081Y2459*
Y2455*
X2086Y2450*
X2095*
X2100Y2455*
X312Y1843D02*
X294Y1815D01*
Y1843D02*
X312Y1815D01*
X271D02*
Y1843D01*
X285Y1829*
X267*
X2232Y1831D02*
X2213Y1804D01*
Y1831D02*
X2232Y1804D01*
X2204Y1827D02*
X2200Y1831D01*
X2190*
X2186Y1827*
Y1822*
X2190Y1817*
X2195*
X2190*
X2186Y1813*
Y1808*
X2190Y1804*
X2200*
X2204Y1808*
X1614Y409D02*
Y432D01*
X1618Y437*
X1627*
X1632Y432*
Y409*
X1655Y437D02*
Y409D01*
X1641Y423*
X1660*
X2275Y367D02*
X2252D01*
X2248Y371*
Y380*
X2252Y385*
X2275*
X2270Y394D02*
X2275Y399D01*
Y408*
X2270Y413*
X2266*
X2261Y408*
Y403*
Y408*
X2257Y413*
X2252*
X2248Y408*
Y399*
X2252Y394*
X1477Y373D02*
Y345D01*
X1491*
X1495Y350*
Y359*
X1491Y363*
X1477*
X1486D02*
X1495Y373D01*
X1518D02*
Y345D01*
X1504Y359*
X1523*
X1532Y368D02*
X1537Y373D01*
X1546*
X1550Y368*
Y350*
X1546Y345*
X1537*
X1532Y350*
Y354*
X1537Y359*
X1550*
X2274Y199D02*
Y227D01*
X2260*
X2256Y222*
Y213*
X2260Y208*
X2274*
X2265D02*
X2256Y199D01*
X2233D02*
Y227D01*
X2247Y213*
X2228*
X2219Y222D02*
X2214Y227D01*
X2205*
X2201Y222*
Y218*
X2205Y213*
X2201Y208*
Y204*
X2205Y199*
X2214*
X2219Y204*
Y208*
X2214Y213*
X2219Y218*
Y222*
X2214Y213D02*
X2205D01*
X457Y2419D02*
X430D01*
Y2405*
X434Y2400*
X443*
X448Y2405*
Y2419*
Y2410D02*
X457Y2400D01*
X430Y2373D02*
X434Y2382D01*
X443Y2391*
X453*
X457Y2387*
Y2377*
X453Y2373*
X448*
X443Y2377*
Y2391*
X457Y2350D02*
X430D01*
X443Y2364*
Y2345*
X457Y2229D02*
X430D01*
Y2215*
X434Y2210*
X443*
X448Y2215*
Y2229*
Y2220D02*
X457Y2210D01*
X430Y2183D02*
X434Y2192D01*
X443Y2201*
X453*
X457Y2197*
Y2188*
X453Y2183*
X448*
X443Y2188*
Y2201*
X434Y2174D02*
X430Y2169D01*
Y2160*
X434Y2155*
X439*
X443Y2160*
Y2165*
Y2160*
X448Y2155*
X453*
X457Y2160*
Y2169*
X453Y2174*
X457Y2029D02*
X430D01*
Y2015*
X434Y2011*
X443*
X448Y2015*
Y2029*
Y2020D02*
X457Y2011D01*
X430Y1983D02*
X434Y1992D01*
X443Y2001*
X453*
X457Y1997*
Y1988*
X453Y1983*
X448*
X443Y1988*
Y2001*
X457Y1956D02*
Y1974D01*
X439Y1956*
X434*
X430Y1960*
Y1969*
X434Y1974*
X457Y1819D02*
X430D01*
Y1806*
X434Y1801*
X443*
X448Y1806*
Y1819*
Y1810D02*
X457Y1801D01*
X430Y1773D02*
X434Y1783D01*
X443Y1792*
X453*
X457Y1787*
Y1778*
X453Y1773*
X448*
X443Y1778*
Y1792*
X457Y1764D02*
Y1755D01*
Y1760*
X430*
X434Y1764*
X457Y1622D02*
X430D01*
Y1608*
X434Y1603*
X443*
X448Y1608*
Y1622*
Y1612D02*
X457Y1603D01*
X430Y1576D02*
X434Y1585D01*
X443Y1594*
X453*
X457Y1589*
Y1580*
X453Y1576*
X448*
X443Y1580*
Y1594*
X434Y1566D02*
X430Y1562D01*
Y1553*
X434Y1548*
X453*
X457Y1553*
Y1562*
X453Y1566*
X434*
X457Y1413D02*
X430D01*
Y1399*
X434Y1395*
X443*
X448Y1399*
Y1413*
Y1404D02*
X457Y1395D01*
X430Y1367D02*
Y1385D01*
X443*
X439Y1376*
Y1372*
X443Y1367*
X453*
X457Y1372*
Y1381*
X453Y1385*
Y1358D02*
X457Y1353D01*
Y1344*
X453Y1339*
X434*
X430Y1344*
Y1353*
X434Y1358*
X439*
X443Y1353*
Y1339*
X457Y1216D02*
X430D01*
Y1202*
X434Y1198*
X443*
X448Y1202*
Y1216*
Y1207D02*
X457Y1198D01*
X430Y1170D02*
Y1188D01*
X443*
X439Y1179*
Y1175*
X443Y1170*
X453*
X457Y1175*
Y1184*
X453Y1188*
X434Y1161D02*
X430Y1156D01*
Y1147*
X434Y1143*
X439*
X443Y1147*
X448Y1143*
X453*
X457Y1147*
Y1156*
X453Y1161*
X448*
X443Y1156*
X439Y1161*
X434*
X443Y1156D02*
Y1147D01*
X457Y1014D02*
X430D01*
Y1000*
X434Y996*
X443*
X448Y1000*
Y1014*
Y1005D02*
X457Y996D01*
X430Y968D02*
Y987D01*
X443*
X439Y978*
Y973*
X443Y968*
X453*
X457Y973*
Y982*
X453Y987*
X430Y959D02*
Y941D01*
X434*
X453Y959*
X457*
Y798D02*
X430D01*
Y784*
X434Y779*
X443*
X448Y784*
Y798*
Y789D02*
X457Y779D01*
X430Y752D02*
Y770D01*
X443*
X439Y761*
Y756*
X443Y752*
X453*
X457Y756*
Y766*
X453Y770*
X430Y724D02*
X434Y733D01*
X443Y743*
X453*
X457Y738*
Y729*
X453Y724*
X448*
X443Y729*
Y743*
X457Y616D02*
X430D01*
Y602*
X434Y597*
X443*
X448Y602*
Y616*
Y606D02*
X457Y597D01*
X430Y570D02*
Y588D01*
X443*
X439Y579*
Y574*
X443Y570*
X453*
X457Y574*
Y584*
X453Y588*
X430Y542D02*
Y561D01*
X443*
X439Y551*
Y547*
X443Y542*
X453*
X457Y547*
Y556*
X453Y561*
X457Y414D02*
X430D01*
Y400*
X434Y396*
X443*
X448Y400*
Y414*
Y405D02*
X457Y396D01*
X430Y368D02*
Y386D01*
X443*
X439Y377*
Y373*
X443Y368*
X453*
X457Y373*
Y382*
X453Y386*
X457Y345D02*
X430D01*
X443Y359*
Y340*
X457Y211D02*
X430D01*
Y197*
X434Y193*
X443*
X448Y197*
Y211*
Y202D02*
X457Y193D01*
X430Y165D02*
Y184D01*
X443*
X439Y174*
Y170*
X443Y165*
X453*
X457Y170*
Y179*
X453Y184*
X434Y156D02*
X430Y151D01*
Y142*
X434Y138*
X439*
X443Y142*
Y147*
Y142*
X448Y138*
X453*
X457Y142*
Y151*
X453Y156*
X1300Y1530D02*
Y1558D01*
X1286*
X1281Y1553*
Y1544*
X1286Y1539*
X1300*
X1291D02*
X1281Y1530D01*
X1254Y1558D02*
X1272D01*
Y1544*
X1263Y1548*
X1258*
X1254Y1544*
Y1535*
X1258Y1530*
X1268*
X1272Y1535*
X1226Y1530D02*
X1245D01*
X1226Y1548*
Y1553*
X1231Y1558*
X1240*
X1245Y1553*
X1392Y1533D02*
Y1561D01*
X1378*
X1374Y1556*
Y1547*
X1378Y1542*
X1392*
X1383D02*
X1374Y1533D01*
X1346Y1561D02*
X1365D01*
Y1547*
X1355Y1551*
X1351*
X1346Y1547*
Y1538*
X1351Y1533*
X1360*
X1365Y1538*
X1337Y1533D02*
X1328D01*
X1333*
Y1561*
X1337Y1556*
X1008Y49D02*
X981D01*
Y67*
Y76D02*
Y85D01*
Y81*
X1008*
X1004Y76*
X1847Y1724D02*
X1852Y1729D01*
X1861*
X1866Y1724*
Y1706*
X1861Y1701*
X1852*
X1847Y1706*
X1820Y1701D02*
X1838D01*
X1820Y1720*
Y1724*
X1824Y1729*
X1834*
X1838Y1724*
X1811D02*
X1806Y1729D01*
X1797*
X1792Y1724*
Y1706*
X1797Y1701*
X1806*
X1811Y1706*
Y1724*
X1944Y1470D02*
X1948Y1465D01*
Y1456*
X1944Y1451*
X1925*
X1921Y1456*
Y1465*
X1925Y1470*
X1921Y1479D02*
Y1488D01*
Y1483*
X1948*
X1944Y1479*
X1925Y1502D02*
X1921Y1506D01*
Y1516*
X1925Y1520*
X1944*
X1948Y1516*
Y1506*
X1944Y1502*
X1939*
X1935Y1506*
Y1520*
X1398Y1129D02*
X1403Y1133D01*
X1412*
X1417Y1129*
Y1110*
X1412Y1106*
X1403*
X1398Y1110*
X1371Y1106D02*
X1389D01*
X1371Y1124*
Y1129*
X1376Y1133*
X1385*
X1389Y1129*
X1362D02*
X1357Y1133D01*
X1348*
X1343Y1129*
Y1124*
X1348Y1120*
X1353*
X1348*
X1343Y1115*
Y1110*
X1348Y1106*
X1357*
X1362Y1110*
X1494Y1130D02*
X1499Y1134D01*
X1508*
X1512Y1130*
Y1111*
X1508Y1107*
X1499*
X1494Y1111*
X1466Y1107D02*
X1485D01*
X1466Y1125*
Y1130*
X1471Y1134*
X1480*
X1485Y1130*
X1439Y1107D02*
X1457D01*
X1439Y1125*
Y1130*
X1443Y1134*
X1453*
X1457Y1130*
M02*