G04*
G04 #@! TF.GenerationSoftware,Altium Limited,Altium Designer,19.1.8 (144)*
G04*
G04 Layer_Color=8388736*
%FSLAX25Y25*%
%MOIN*%
G70*
G01*
G75*
%ADD35R,0.04147X0.04540*%
%ADD36R,0.04540X0.04147*%
G04:AMPARAMS|DCode=37|XSize=19.81mil|YSize=61.15mil|CornerRadius=0mil|HoleSize=0mil|Usage=FLASHONLY|Rotation=315.000|XOffset=0mil|YOffset=0mil|HoleType=Round|Shape=Rectangle|*
%AMROTATEDRECTD37*
4,1,4,-0.02862,-0.01462,0.01462,0.02862,0.02862,0.01462,-0.01462,-0.02862,-0.02862,-0.01462,0.0*
%
%ADD37ROTATEDRECTD37*%

G04:AMPARAMS|DCode=38|XSize=19.81mil|YSize=61.15mil|CornerRadius=0mil|HoleSize=0mil|Usage=FLASHONLY|Rotation=45.000|XOffset=0mil|YOffset=0mil|HoleType=Round|Shape=Rectangle|*
%AMROTATEDRECTD38*
4,1,4,0.01462,-0.02862,-0.02862,0.01462,-0.01462,0.02862,0.02862,-0.01462,0.01462,-0.02862,0.0*
%
%ADD38ROTATEDRECTD38*%

%ADD39R,0.04737X0.04343*%
%ADD40R,0.01981X0.07296*%
%ADD41O,0.03162X0.06509*%
%ADD42O,0.06509X0.03162*%
%ADD43R,0.03792X0.10249*%
%ADD44R,0.03950X0.04343*%
%ADD45R,0.02375X0.06115*%
%ADD46R,0.07099X0.06312*%
%ADD47R,0.06509X0.05918*%
%ADD48R,0.08280X0.08280*%
%ADD49R,0.05918X0.05131*%
%ADD50R,0.05131X0.05918*%
%ADD51R,0.04343X0.04737*%
%ADD52C,0.07099*%
%ADD53C,0.04737*%
%ADD54C,0.18800*%
%ADD55C,0.03556*%
D35*
X44685Y174016D02*
D03*
X49803D02*
D03*
X40157Y208661D02*
D03*
X45276D02*
D03*
X117913Y302362D02*
D03*
X123032D02*
D03*
X307677Y233071D02*
D03*
X312795D02*
D03*
X342323Y255118D02*
D03*
X347441D02*
D03*
X312402Y255118D02*
D03*
X317520D02*
D03*
X330906Y338583D02*
D03*
X325787D02*
D03*
X341535Y300787D02*
D03*
X346654D02*
D03*
X312402Y300787D02*
D03*
X317520D02*
D03*
D36*
X176378Y324213D02*
D03*
Y329331D02*
D03*
X144095Y345866D02*
D03*
Y340748D02*
D03*
X126772Y346063D02*
D03*
Y340945D02*
D03*
X155905Y329331D02*
D03*
Y324213D02*
D03*
X162992Y269882D02*
D03*
Y275000D02*
D03*
D37*
X202418Y223297D02*
D03*
X203810Y221905D02*
D03*
X205202Y220513D02*
D03*
X206594Y219121D02*
D03*
X207986Y217729D02*
D03*
X209378Y216337D02*
D03*
X210770Y214946D02*
D03*
X212162Y213554D02*
D03*
X213554Y212162D02*
D03*
X214946Y210770D02*
D03*
X216337Y209378D02*
D03*
X217729Y207986D02*
D03*
X219121Y206594D02*
D03*
X220513Y205202D02*
D03*
X221905Y203810D02*
D03*
X223297Y202418D02*
D03*
X191283Y170403D02*
D03*
X189891Y171795D02*
D03*
X188499Y173187D02*
D03*
X187107Y174579D02*
D03*
X185715Y175971D02*
D03*
X184323Y177363D02*
D03*
X182931Y178755D02*
D03*
X181539Y180147D02*
D03*
X180147Y181539D02*
D03*
X178755Y182931D02*
D03*
X177363Y184323D02*
D03*
X175971Y185715D02*
D03*
X174579Y187107D02*
D03*
X173187Y188499D02*
D03*
X171795Y189891D02*
D03*
X170403Y191283D02*
D03*
D38*
X223297D02*
D03*
X221905Y189891D02*
D03*
X220513Y188499D02*
D03*
X219122Y187107D02*
D03*
X217729Y185715D02*
D03*
X216338Y184323D02*
D03*
X214946Y182931D02*
D03*
X213554Y181539D02*
D03*
X212162Y180147D02*
D03*
X210770Y178755D02*
D03*
X209378Y177363D02*
D03*
X207986Y175971D02*
D03*
X206594Y174579D02*
D03*
X205202Y173187D02*
D03*
X203810Y171795D02*
D03*
X202418Y170403D02*
D03*
X170403Y202418D02*
D03*
X171795Y203810D02*
D03*
X173187Y205202D02*
D03*
X174579Y206594D02*
D03*
X175971Y207986D02*
D03*
X177363Y209378D02*
D03*
X178755Y210770D02*
D03*
X180147Y212162D02*
D03*
X181539Y213554D02*
D03*
X182931Y214946D02*
D03*
X184323Y216338D02*
D03*
X185715Y217729D02*
D03*
X187107Y219122D02*
D03*
X188499Y220513D02*
D03*
X189891Y221905D02*
D03*
X191283Y223297D02*
D03*
D39*
X216535Y346949D02*
D03*
Y352264D02*
D03*
X207086Y346949D02*
D03*
Y352264D02*
D03*
X235433Y199016D02*
D03*
Y193701D02*
D03*
X329921Y254823D02*
D03*
Y260138D02*
D03*
X348819Y215945D02*
D03*
Y221260D02*
D03*
X163780Y324114D02*
D03*
Y329429D02*
D03*
X329921Y300591D02*
D03*
Y295276D02*
D03*
X70079Y218110D02*
D03*
Y223425D02*
D03*
X70079Y183957D02*
D03*
Y189272D02*
D03*
D40*
X162894Y349508D02*
D03*
X165453D02*
D03*
X168012D02*
D03*
X170571D02*
D03*
X173130D02*
D03*
X175689D02*
D03*
X178248D02*
D03*
X180807D02*
D03*
X183366D02*
D03*
X185925D02*
D03*
X188484D02*
D03*
X191043D02*
D03*
X193602D02*
D03*
X196161D02*
D03*
X162894Y378051D02*
D03*
X165453D02*
D03*
X168012D02*
D03*
X170571D02*
D03*
X173130D02*
D03*
X175689D02*
D03*
X178248D02*
D03*
X180807D02*
D03*
X183366D02*
D03*
X185925D02*
D03*
X188484D02*
D03*
X191043D02*
D03*
X193602D02*
D03*
X196161D02*
D03*
D41*
X338996Y234350D02*
D03*
X333996D02*
D03*
X328996D02*
D03*
X323996D02*
D03*
X338996Y212894D02*
D03*
X333996D02*
D03*
X328996D02*
D03*
X323996D02*
D03*
D42*
X313878Y323209D02*
D03*
Y328209D02*
D03*
Y333209D02*
D03*
Y338209D02*
D03*
X292421Y323209D02*
D03*
Y328209D02*
D03*
Y333209D02*
D03*
Y338209D02*
D03*
D43*
X123071Y272835D02*
D03*
Y288189D02*
D03*
X128071Y272835D02*
D03*
Y288189D02*
D03*
X133071Y272835D02*
D03*
Y288189D02*
D03*
X138071Y272835D02*
D03*
Y288189D02*
D03*
X143071Y272835D02*
D03*
Y288189D02*
D03*
D44*
X55118Y216535D02*
D03*
X51378Y224409D02*
D03*
X58858D02*
D03*
X56693Y181890D02*
D03*
X52953Y189764D02*
D03*
X60433D02*
D03*
D45*
X239370Y367815D02*
D03*
X236811D02*
D03*
X234252D02*
D03*
X231693D02*
D03*
X229134D02*
D03*
D46*
X246850Y368701D02*
D03*
X221654D02*
D03*
D47*
X247736Y378346D02*
D03*
X220768D02*
D03*
D48*
X238976D02*
D03*
X229528D02*
D03*
D49*
X144882Y355315D02*
D03*
Y364370D02*
D03*
X127559Y364370D02*
D03*
Y355315D02*
D03*
D50*
X37598Y222047D02*
D03*
X28543D02*
D03*
X37598Y186614D02*
D03*
X28543D02*
D03*
D51*
X194193Y237008D02*
D03*
X199508D02*
D03*
X194193Y244882D02*
D03*
X199508D02*
D03*
X140453Y302362D02*
D03*
X135138D02*
D03*
X297146Y312598D02*
D03*
X291831D02*
D03*
D52*
X334646Y365354D02*
D03*
X324646D02*
D03*
X37402Y324646D02*
D03*
Y334646D02*
D03*
Y285276D02*
D03*
Y295275D02*
D03*
Y245905D02*
D03*
Y255906D02*
D03*
X311811Y281653D02*
D03*
Y271654D02*
D03*
X348032Y281653D02*
D03*
Y271654D02*
D03*
X354488Y118110D02*
D03*
Y108110D02*
D03*
Y98110D02*
D03*
Y88110D02*
D03*
Y78110D02*
D03*
Y68110D02*
D03*
Y58110D02*
D03*
Y48110D02*
D03*
X344488D02*
D03*
Y58110D02*
D03*
Y68110D02*
D03*
Y78110D02*
D03*
Y88110D02*
D03*
Y98110D02*
D03*
Y108110D02*
D03*
Y118110D02*
D03*
X256063D02*
D03*
Y108110D02*
D03*
Y98110D02*
D03*
Y88110D02*
D03*
Y78110D02*
D03*
Y68110D02*
D03*
Y58110D02*
D03*
Y48110D02*
D03*
X246063D02*
D03*
Y58110D02*
D03*
Y68110D02*
D03*
Y78110D02*
D03*
Y88110D02*
D03*
Y98110D02*
D03*
Y108110D02*
D03*
Y118110D02*
D03*
X157638D02*
D03*
Y108110D02*
D03*
Y98110D02*
D03*
Y88110D02*
D03*
Y78110D02*
D03*
Y68110D02*
D03*
Y58110D02*
D03*
Y48110D02*
D03*
X147638D02*
D03*
Y58110D02*
D03*
Y68110D02*
D03*
Y78110D02*
D03*
Y88110D02*
D03*
Y98110D02*
D03*
Y108110D02*
D03*
Y118110D02*
D03*
X59213D02*
D03*
Y108110D02*
D03*
Y98110D02*
D03*
Y88110D02*
D03*
Y78110D02*
D03*
Y68110D02*
D03*
Y58110D02*
D03*
Y48110D02*
D03*
X49213D02*
D03*
Y58110D02*
D03*
Y68110D02*
D03*
Y78110D02*
D03*
Y88110D02*
D03*
Y98110D02*
D03*
Y108110D02*
D03*
Y118110D02*
D03*
X196850Y286614D02*
D03*
X216535D02*
D03*
X196850Y306299D02*
D03*
X216535D02*
D03*
D53*
X78740Y295275D02*
D03*
X88740D02*
D03*
X68740D02*
D03*
X78740Y255906D02*
D03*
X88740D02*
D03*
X68740D02*
D03*
X78740Y334646D02*
D03*
X88740D02*
D03*
X68740D02*
D03*
D54*
X15748Y15748D02*
D03*
X374016D02*
D03*
Y374016D02*
D03*
X15748D02*
D03*
D55*
X119685Y317323D02*
D03*
X111024Y181102D02*
D03*
X181890Y202362D02*
D03*
X204724Y200787D02*
D03*
X151969Y295276D02*
D03*
X172441Y266142D02*
D03*
X181102Y311024D02*
D03*
X183070Y320078D02*
D03*
X155905Y264567D02*
D03*
X187402Y294488D02*
D03*
X129921Y297638D02*
D03*
X125984Y240158D02*
D03*
X108661Y240945D02*
D03*
X103150Y235433D02*
D03*
X121260Y234646D02*
D03*
X98425Y230709D02*
D03*
X114961Y229921D02*
D03*
X192913Y198425D02*
D03*
Y183465D02*
D03*
X203937Y188976D02*
D03*
X148819Y244094D02*
D03*
X195276Y203150D02*
D03*
X199213Y206299D02*
D03*
X196850Y193701D02*
D03*
X157480Y244094D02*
D03*
Y249606D02*
D03*
X196063Y211374D02*
D03*
X162205Y312598D02*
D03*
X194488Y229921D02*
D03*
X200787Y227409D02*
D03*
X190932Y231240D02*
D03*
X251181Y200787D02*
D03*
X259842Y189764D02*
D03*
X255905Y197637D02*
D03*
X233858Y243307D02*
D03*
X234646Y249606D02*
D03*
X251181Y190551D02*
D03*
X225197Y249606D02*
D03*
X207087Y237795D02*
D03*
X240945Y204724D02*
D03*
X244882Y201575D02*
D03*
X217323Y255118D02*
D03*
X218110Y260630D02*
D03*
X63779Y177165D02*
D03*
X225984Y350394D02*
D03*
X333996Y204488D02*
D03*
X337795Y250394D02*
D03*
Y240945D02*
D03*
X229921Y199213D02*
D03*
X76378Y216535D02*
D03*
X338583Y192126D02*
D03*
X344488Y194882D02*
D03*
M02*
