G04*
G04 #@! TF.GenerationSoftware,Altium Limited,Altium Designer,19.1.8 (144)*
G04*
G04 Layer_Color=255*
%FSLAX25Y25*%
%MOIN*%
G70*
G01*
G75*
%ADD56C,0.06299*%
%ADD57C,0.03937*%
%ADD58C,0.18000*%
D56*
X334646Y365354D02*
D03*
X324646D02*
D03*
X37402Y324646D02*
D03*
Y334646D02*
D03*
Y285276D02*
D03*
Y295275D02*
D03*
Y245905D02*
D03*
Y255906D02*
D03*
X311811Y281653D02*
D03*
Y271654D02*
D03*
X348032Y281653D02*
D03*
Y271654D02*
D03*
X354488Y118110D02*
D03*
Y108110D02*
D03*
Y98110D02*
D03*
Y88110D02*
D03*
Y78110D02*
D03*
Y68110D02*
D03*
Y58110D02*
D03*
Y48110D02*
D03*
X344488D02*
D03*
Y58110D02*
D03*
Y68110D02*
D03*
Y78110D02*
D03*
Y88110D02*
D03*
Y98110D02*
D03*
Y108110D02*
D03*
Y118110D02*
D03*
X256063D02*
D03*
Y108110D02*
D03*
Y98110D02*
D03*
Y88110D02*
D03*
Y78110D02*
D03*
Y68110D02*
D03*
Y58110D02*
D03*
Y48110D02*
D03*
X246063D02*
D03*
Y58110D02*
D03*
Y68110D02*
D03*
Y78110D02*
D03*
Y88110D02*
D03*
Y98110D02*
D03*
Y108110D02*
D03*
Y118110D02*
D03*
X157638D02*
D03*
Y108110D02*
D03*
Y98110D02*
D03*
Y88110D02*
D03*
Y78110D02*
D03*
Y68110D02*
D03*
Y58110D02*
D03*
Y48110D02*
D03*
X147638D02*
D03*
Y58110D02*
D03*
Y68110D02*
D03*
Y78110D02*
D03*
Y88110D02*
D03*
Y98110D02*
D03*
Y108110D02*
D03*
Y118110D02*
D03*
X59213D02*
D03*
Y108110D02*
D03*
Y98110D02*
D03*
Y88110D02*
D03*
Y78110D02*
D03*
Y68110D02*
D03*
Y58110D02*
D03*
Y48110D02*
D03*
X49213D02*
D03*
Y58110D02*
D03*
Y68110D02*
D03*
Y78110D02*
D03*
Y88110D02*
D03*
Y98110D02*
D03*
Y108110D02*
D03*
Y118110D02*
D03*
X196850Y286614D02*
D03*
X216535D02*
D03*
X196850Y306299D02*
D03*
X216535D02*
D03*
D57*
X78740Y295275D02*
D03*
X88740D02*
D03*
X68740D02*
D03*
X78740Y255906D02*
D03*
X88740D02*
D03*
X68740D02*
D03*
X78740Y334646D02*
D03*
X88740D02*
D03*
X68740D02*
D03*
D58*
X15748Y15748D02*
D03*
X374016D02*
D03*
Y374016D02*
D03*
X15748D02*
D03*
M02*
