M48
;Layer_Color=9474304
;FILE_FORMAT=2:5
INCH,TZ
;TYPE=PLATED
T1F00S00C0.01500
T2F00S00C0.01575
T3F00S00C0.02008
T4F00S00C0.03937
T5F00S00C0.04016
T6F00S00C0.16000
;TYPE=NON_PLATED
T7F00S00C0.03937
%
T01
X98425Y230709
X103150Y235433
X108661Y240945
X114961Y229921
X121260Y234646
X125984Y240158
X148819Y244094
X157480
Y249606
X190932Y231240
X200787Y227409
X207087Y237795
X217323Y255118
X218110Y260630
X225197Y249606
X234646
X233858Y243307
X240945Y204724
X244882Y201575
X251181Y200787
Y190551
X203937Y188976
X192913Y183465
Y198425
X195276Y203150
X199213Y206299
X196063Y211374
X162205Y312598
X119685Y317323
X255905Y197637
X259842Y189764
X338583Y192126
X344488Y194882
X333996Y204488
X337795Y240945
Y250394
T02
X63779Y177165
X76378Y216535
X111024Y181102
X181890Y202362
X196850Y193701
X204724Y200787
X229921Y199213
X194488Y229921
X172441Y266142
X155905Y264567
X151969Y295276
X129921Y297638
X187402Y294488
X181102Y311024
X183070Y320078
X225984Y350394
T03
X68740Y255906
X78740
X88740
Y295275
X78740
X68740
Y334646
X78740
X88740
T04
X37402Y245905
Y255906
Y285276
Y295275
Y324646
X311811Y281653
Y271654
X348032
Y281653
X334646Y365354
X324646
X37402Y334646
T05
X256063Y48110
Y58110
Y68110
Y78110
Y88110
Y98110
Y108110
Y118110
X344488
X354488
Y108110
Y98110
Y88110
Y78110
Y68110
Y58110
Y48110
X344488
Y58110
Y68110
Y78110
Y88110
Y98110
Y108110
X246063
Y98110
Y88110
Y78110
Y68110
Y58110
Y48110
Y118110
X157638
Y108110
Y98110
Y88110
Y78110
Y68110
Y58110
Y48110
X147638
Y58110
Y68110
Y78110
Y88110
Y98110
Y108110
Y118110
X59213
Y108110
Y98110
Y88110
Y78110
Y68110
Y58110
Y48110
X49213
Y58110
Y68110
Y78110
Y88110
Y98110
Y108110
Y118110
X196850Y286614
X216535
Y306299
X196850
T06
X15748Y15748
X374016
Y374016
X15748
T07
X125571Y280512
X140571
M30
