G04*
G04 #@! TF.GenerationSoftware,Altium Limited,Altium Designer,19.1.8 (144)*
G04*
G04 Layer_Physical_Order=1*
G04 Layer_Color=255*
%FSLAX25Y25*%
%MOIN*%
G70*
G01*
G75*
%ADD14C,0.01000*%
%ADD18R,0.02953X0.02362*%
%ADD19R,0.01181X0.06496*%
%ADD20R,0.05315X0.01181*%
%ADD21R,0.01181X0.05315*%
%ADD22O,0.02362X0.05709*%
%ADD23R,0.05315X0.04528*%
%ADD24R,0.03740X0.03347*%
%ADD25R,0.02362X0.02953*%
%ADD26R,0.09449X0.02992*%
%ADD27R,0.03543X0.03150*%
%ADD28R,0.01575X0.05315*%
%ADD29R,0.06299X0.05512*%
%ADD30R,0.05709X0.05118*%
%ADD31R,0.07480X0.07480*%
%ADD32R,0.05118X0.04331*%
%ADD33R,0.03937X0.03543*%
%ADD34R,0.03543X0.03937*%
%ADD58C,0.06299*%
%ADD59C,0.03937*%
%ADD60C,0.05906*%
%ADD61R,0.05906X0.05906*%
%ADD62C,0.18000*%
%ADD63C,0.03000*%
G36*
X389764Y389764D02*
X389764Y0D01*
X0D01*
X-1079Y1079D01*
X-0Y389764D01*
X389764Y389764D01*
D02*
G37*
%LPC*%
G36*
X251378Y381693D02*
X244094D01*
Y375000D01*
X251378D01*
Y381693D01*
D02*
G37*
G36*
X188643Y387505D02*
X129252D01*
X128745Y387404D01*
X128315Y387117D01*
X103264Y362066D01*
X102977Y361636D01*
X102953Y361517D01*
X101445D01*
Y356415D01*
X101233D01*
Y354143D01*
X104201D01*
Y353643D01*
X104701D01*
Y350871D01*
X105716D01*
X105907Y350410D01*
X103703Y348205D01*
X80974D01*
X80467Y348104D01*
X80037Y347817D01*
X69534Y337314D01*
X69463Y337343D01*
X68740Y337438D01*
X68017Y337343D01*
X67344Y337064D01*
X66766Y336620D01*
X66322Y336042D01*
X66043Y335368D01*
X65948Y334646D01*
X66043Y333923D01*
X66322Y333249D01*
X66766Y332671D01*
X67344Y332227D01*
X67415Y332198D01*
Y297723D01*
X67344Y297694D01*
X66766Y297250D01*
X66322Y296672D01*
X66043Y295998D01*
X65948Y295275D01*
X66043Y294553D01*
X66322Y293879D01*
X66766Y293301D01*
X67344Y292857D01*
X67415Y292828D01*
Y291779D01*
Y258353D01*
X67344Y258324D01*
X66766Y257880D01*
X66322Y257302D01*
X66043Y256628D01*
X65948Y255906D01*
X66043Y255183D01*
X66322Y254509D01*
X66766Y253931D01*
X67344Y253487D01*
X68017Y253208D01*
X68740Y253113D01*
X69463Y253208D01*
X70136Y253487D01*
X70715Y253931D01*
X71158Y254509D01*
X71437Y255183D01*
X71533Y255906D01*
X71437Y256628D01*
X71158Y257302D01*
X70715Y257880D01*
X70136Y258324D01*
X70066Y258353D01*
Y287926D01*
X70528Y288118D01*
X114026Y244619D01*
Y231480D01*
X114127Y230972D01*
X114415Y230542D01*
X119315Y225642D01*
X119745Y225355D01*
X120252Y225254D01*
X138661D01*
X139169Y225355D01*
X139599Y225642D01*
X141043Y227087D01*
X150827D01*
Y210131D01*
X150327Y209863D01*
X149903Y210146D01*
X149777Y210171D01*
X149586Y210633D01*
X149618Y210682D01*
X149797Y211579D01*
X149618Y212477D01*
X149110Y213238D01*
X148349Y213746D01*
X147452Y213925D01*
X146555Y213746D01*
X145794Y213238D01*
X145571Y212905D01*
X117552D01*
X117045Y212804D01*
X116719Y212587D01*
X116401Y212975D01*
X118180Y214754D01*
X133571D01*
X133794Y214421D01*
X134555Y213913D01*
X135452Y213735D01*
X136349Y213913D01*
X137110Y214421D01*
X137619Y215182D01*
X137797Y216079D01*
X137619Y216977D01*
X137110Y217738D01*
X136349Y218246D01*
X135452Y218425D01*
X134555Y218246D01*
X133794Y217738D01*
X133571Y217405D01*
X117631D01*
X117123Y217304D01*
X116693Y217017D01*
X97515Y197838D01*
X97477Y197782D01*
X96977Y197934D01*
Y239779D01*
X96877Y240287D01*
X96589Y240717D01*
X90463Y246843D01*
X90033Y247130D01*
X89526Y247231D01*
X41128D01*
X40852Y247897D01*
X40218Y248722D01*
X39393Y249356D01*
X38433Y249753D01*
X37402Y249889D01*
X36371Y249753D01*
X35410Y249356D01*
X34777Y248870D01*
X34277Y249114D01*
Y252697D01*
X34777Y252941D01*
X35410Y252456D01*
X36371Y252058D01*
X37402Y251922D01*
X38433Y252058D01*
X39393Y252456D01*
X40218Y253089D01*
X40852Y253914D01*
X41249Y254874D01*
X41385Y255906D01*
X41249Y256937D01*
X40852Y257897D01*
X40218Y258722D01*
X39393Y259355D01*
X38433Y259753D01*
X37402Y259889D01*
X36371Y259753D01*
X35410Y259355D01*
X34777Y258870D01*
X34277Y259114D01*
Y282067D01*
X34777Y282311D01*
X35410Y281826D01*
X36371Y281428D01*
X37402Y281292D01*
X38433Y281428D01*
X39393Y281826D01*
X40218Y282459D01*
X40852Y283284D01*
X41249Y284244D01*
X41385Y285276D01*
X41249Y286307D01*
X40852Y287267D01*
X40218Y288092D01*
X39393Y288725D01*
X38433Y289124D01*
X37402Y289259D01*
X36371Y289124D01*
X35410Y288725D01*
X34777Y288240D01*
X34277Y288484D01*
Y292067D01*
X34777Y292311D01*
X35410Y291826D01*
X36371Y291428D01*
X37402Y291292D01*
X38433Y291428D01*
X39393Y291826D01*
X40218Y292459D01*
X40852Y293284D01*
X41249Y294245D01*
X41385Y295275D01*
X41249Y296307D01*
X40852Y297267D01*
X40218Y298092D01*
X39393Y298726D01*
X38433Y299124D01*
X37402Y299259D01*
X36371Y299124D01*
X35410Y298726D01*
X34777Y298240D01*
X34277Y298484D01*
Y319647D01*
X35704Y321074D01*
X36371Y320798D01*
X37402Y320662D01*
X38433Y320798D01*
X39393Y321196D01*
X40218Y321829D01*
X40852Y322654D01*
X41249Y323615D01*
X41385Y324646D01*
X41249Y325677D01*
X40852Y326638D01*
X40218Y327463D01*
X39393Y328096D01*
X38433Y328494D01*
X37402Y328629D01*
X36371Y328494D01*
X35410Y328096D01*
X34585Y327463D01*
X33952Y326638D01*
X33554Y325677D01*
X33418Y324646D01*
X33554Y323615D01*
X33830Y322948D01*
X32015Y321133D01*
X31727Y320703D01*
X31626Y320196D01*
Y188634D01*
X31727Y188127D01*
X32015Y187697D01*
X42145Y177567D01*
X41953Y177105D01*
X34152D01*
X33645Y177004D01*
X33215Y176717D01*
X31215Y174717D01*
X30927Y174287D01*
X30827Y173779D01*
Y19279D01*
X30927Y18772D01*
X31215Y18342D01*
X42315Y7242D01*
X42745Y6955D01*
X43252Y6854D01*
X260252D01*
X260759Y6955D01*
X261189Y7242D01*
X266889Y12942D01*
X267177Y13372D01*
X267277Y13880D01*
Y68221D01*
X267177Y68729D01*
X266889Y69159D01*
X261602Y74446D01*
X261848Y74907D01*
X262113Y74854D01*
X274115D01*
X274622Y74955D01*
X275052Y75242D01*
X284776Y84966D01*
X285063Y85396D01*
X285164Y85903D01*
Y154353D01*
X287185D01*
Y160259D01*
X286959D01*
X286768Y160721D01*
X289089Y163042D01*
X289376Y163472D01*
X289477Y163979D01*
Y175180D01*
X289376Y175687D01*
X289089Y176117D01*
X285577Y179629D01*
Y185039D01*
X287598D01*
Y190152D01*
X294489Y197042D01*
X295160Y197713D01*
X295552Y197634D01*
X296449Y197813D01*
X296926Y198132D01*
X297427Y197864D01*
Y79580D01*
X297527Y79072D01*
X297815Y78642D01*
X303485Y72972D01*
X303407Y72579D01*
X303585Y71682D01*
X304094Y70921D01*
X304855Y70413D01*
X305752Y70235D01*
X306649Y70413D01*
X307410Y70921D01*
X307919Y71682D01*
X307957Y71876D01*
X308436Y72021D01*
X311985Y68472D01*
X311907Y68080D01*
X312085Y67182D01*
X312594Y66421D01*
X313355Y65913D01*
X314252Y65734D01*
X315149Y65913D01*
X315910Y66421D01*
X316419Y67182D01*
X316597Y68080D01*
X316419Y68977D01*
X315910Y69738D01*
X315149Y70246D01*
X314252Y70425D01*
X313860Y70346D01*
X301877Y82329D01*
Y145026D01*
X302339Y145218D01*
X325626Y121931D01*
Y49595D01*
X325727Y49088D01*
X326015Y48658D01*
X333749Y40924D01*
X334179Y40636D01*
X334686Y40535D01*
X348239D01*
X348746Y40636D01*
X349176Y40924D01*
X352791Y44538D01*
X353457Y44262D01*
X354488Y44127D01*
X355519Y44262D01*
X356480Y44660D01*
X357305Y45293D01*
X357938Y46119D01*
X358336Y47079D01*
X358472Y48110D01*
X358336Y49141D01*
X357938Y50102D01*
X357305Y50927D01*
X356480Y51560D01*
X355519Y51958D01*
X354488Y52094D01*
X354284Y52067D01*
X354063Y52516D01*
X355425Y53878D01*
X355713Y54308D01*
X355720Y54346D01*
X356480Y54660D01*
X357305Y55293D01*
X357938Y56119D01*
X358336Y57079D01*
X358472Y58110D01*
X358336Y59141D01*
X357938Y60102D01*
X357305Y60927D01*
X356480Y61560D01*
X355519Y61958D01*
X354488Y62094D01*
X353457Y61958D01*
X352496Y61560D01*
X351671Y60927D01*
X351377Y60544D01*
X350877Y60714D01*
Y65507D01*
X351377Y65676D01*
X351671Y65293D01*
X352496Y64660D01*
X353457Y64262D01*
X354488Y64127D01*
X355519Y64262D01*
X356480Y64660D01*
X357305Y65293D01*
X357938Y66119D01*
X358336Y67079D01*
X358472Y68110D01*
X358336Y69141D01*
X357938Y70102D01*
X357305Y70927D01*
X356480Y71560D01*
X355519Y71958D01*
X354488Y72094D01*
X353457Y71958D01*
X352496Y71560D01*
X351671Y70927D01*
X351377Y70544D01*
X350877Y70714D01*
Y75507D01*
X351377Y75676D01*
X351671Y75293D01*
X352496Y74660D01*
X353457Y74262D01*
X354488Y74127D01*
X355519Y74262D01*
X356480Y74660D01*
X357305Y75293D01*
X357938Y76118D01*
X358336Y77079D01*
X358472Y78110D01*
X358336Y79141D01*
X357938Y80102D01*
X357305Y80927D01*
X356480Y81560D01*
X355519Y81958D01*
X354488Y82094D01*
X353457Y81958D01*
X352496Y81560D01*
X351671Y80927D01*
X351377Y80544D01*
X350877Y80714D01*
Y85507D01*
X351377Y85676D01*
X351671Y85293D01*
X352496Y84660D01*
X353457Y84262D01*
X354488Y84127D01*
X355519Y84262D01*
X356480Y84660D01*
X357305Y85293D01*
X357938Y86119D01*
X358336Y87079D01*
X358472Y88110D01*
X358336Y89141D01*
X358060Y89808D01*
X361889Y93637D01*
X361927Y93693D01*
X362426Y93541D01*
Y58560D01*
X362094Y58338D01*
X361585Y57577D01*
X361407Y56679D01*
X361585Y55782D01*
X362094Y55021D01*
X362855Y54513D01*
X363752Y54334D01*
X364649Y54513D01*
X365410Y55021D01*
X365918Y55782D01*
X366097Y56679D01*
X365918Y57577D01*
X365410Y58338D01*
X365077Y58560D01*
Y299780D01*
X364977Y300287D01*
X364689Y300717D01*
X361489Y303917D01*
X361059Y304204D01*
X360552Y304305D01*
X350920D01*
Y306353D01*
X350768Y307121D01*
X350333Y307772D01*
X349681Y308207D01*
X348913Y308360D01*
X348145Y308207D01*
X347494Y307772D01*
X347059Y307121D01*
X346906Y306353D01*
Y303006D01*
X347059Y302238D01*
X347494Y301587D01*
X348145Y301152D01*
X348913Y300999D01*
X349681Y301152D01*
X350333Y301587D01*
X350377Y301654D01*
X355143D01*
Y300310D01*
X361342D01*
X361345Y300312D01*
X362426Y299231D01*
Y275087D01*
X361927Y274880D01*
X359139Y277667D01*
X357189Y279617D01*
X356759Y279904D01*
X356252Y280005D01*
X350850D01*
X350583Y280505D01*
X350768Y280782D01*
X350920Y281550D01*
Y284896D01*
X350768Y285664D01*
X350333Y286315D01*
X350239Y286378D01*
Y289230D01*
X354375Y293367D01*
X355356D01*
Y292231D01*
X360671D01*
Y297137D01*
X360883D01*
Y299310D01*
X355143D01*
Y297137D01*
X355356D01*
Y296018D01*
X353826D01*
X353319Y295917D01*
X352889Y295629D01*
X347976Y290717D01*
X347689Y290287D01*
X347588Y289779D01*
Y286378D01*
X347494Y286315D01*
X347059Y285664D01*
X346906Y284896D01*
Y281550D01*
X347059Y280782D01*
X347244Y280505D01*
X346977Y280005D01*
X345850D01*
X345583Y280505D01*
X345768Y280782D01*
X345920Y281550D01*
Y284896D01*
X345768Y285664D01*
X345333Y286315D01*
X344681Y286751D01*
X343913Y286903D01*
X343421Y286805D01*
X343174Y287266D01*
X344851Y288942D01*
X345138Y289372D01*
X345239Y289879D01*
Y301269D01*
X345486Y301434D01*
X345968Y302155D01*
X346137Y303006D01*
Y304180D01*
X341689D01*
Y303006D01*
X341859Y302155D01*
X342341Y301434D01*
X342588Y301269D01*
Y290429D01*
X341725Y289566D01*
X341189Y290102D01*
X340759Y290389D01*
X340252Y290490D01*
X332966D01*
X332814Y290990D01*
X333010Y291121D01*
X333519Y291882D01*
X333697Y292779D01*
X333619Y293172D01*
X334851Y294404D01*
X335138Y294834D01*
X335239Y295341D01*
Y301524D01*
X335333Y301587D01*
X335768Y302238D01*
X335920Y303006D01*
Y306353D01*
X335768Y307121D01*
X335333Y307772D01*
X334681Y308207D01*
X333913Y308360D01*
X333145Y308207D01*
X332494Y307772D01*
X332059Y307121D01*
X331906Y306353D01*
Y303006D01*
X332059Y302238D01*
X332494Y301587D01*
X332588Y301524D01*
Y295890D01*
X331745Y295046D01*
X331352Y295125D01*
X330455Y294946D01*
X329694Y294438D01*
X329185Y293677D01*
X329007Y292779D01*
X329185Y291882D01*
X329694Y291121D01*
X330027Y290898D01*
X330028Y290665D01*
X329960Y290342D01*
X329600Y290102D01*
X317715Y278217D01*
X317427Y277787D01*
X317326Y277279D01*
Y251986D01*
X316827Y251937D01*
X316818Y251977D01*
X316310Y252738D01*
X315549Y253246D01*
X314652Y253425D01*
X313755Y253246D01*
X312994Y252738D01*
X312771Y252405D01*
X308552D01*
X308045Y252304D01*
X307615Y252017D01*
X303539Y247941D01*
X303077Y248133D01*
Y250430D01*
X304360Y251712D01*
X304752Y251635D01*
X305649Y251813D01*
X306410Y252321D01*
X306919Y253082D01*
X307097Y253979D01*
X306919Y254877D01*
X306410Y255638D01*
X305649Y256146D01*
X305267Y256222D01*
X304903Y256804D01*
X304997Y257279D01*
X304819Y258177D01*
X304310Y258938D01*
X303549Y259446D01*
X302652Y259625D01*
X301755Y259446D01*
X300994Y258938D01*
X300485Y258177D01*
X300307Y257279D01*
X300385Y256887D01*
X295339Y251841D01*
X294877Y252033D01*
Y311230D01*
X298873Y315226D01*
X336097D01*
Y313795D01*
X337331D01*
Y310737D01*
X337431Y310230D01*
X337588Y309996D01*
Y307835D01*
X337494Y307772D01*
X337059Y307121D01*
X336906Y306353D01*
Y303006D01*
X337059Y302238D01*
X337494Y301587D01*
X338145Y301152D01*
X338913Y300999D01*
X339681Y301152D01*
X340333Y301587D01*
X340768Y302238D01*
X340920Y303006D01*
Y306353D01*
X340768Y307121D01*
X340333Y307772D01*
X340239Y307835D01*
Y310479D01*
X340138Y310987D01*
X339981Y311221D01*
Y313795D01*
X341199D01*
Y313583D01*
X342645D01*
Y308129D01*
X342341Y307925D01*
X341859Y307204D01*
X341689Y306353D01*
Y305180D01*
X346137D01*
Y306353D01*
X345968Y307204D01*
X345486Y307925D01*
X345296Y308052D01*
Y313583D01*
X346742D01*
Y316051D01*
X343971D01*
Y316551D01*
X343471D01*
Y319520D01*
X341199D01*
Y319307D01*
X336097D01*
Y317877D01*
X294779D01*
X294777Y317887D01*
X294489Y318317D01*
X291689Y321117D01*
X291259Y321404D01*
X290752Y321505D01*
X249315D01*
Y322640D01*
X244000D01*
Y321505D01*
X242498D01*
X241990Y321404D01*
X241923Y321359D01*
X241104D01*
Y322593D01*
X240770D01*
X240579Y323055D01*
X272827Y355302D01*
X278457D01*
Y362808D01*
X270952D01*
Y360381D01*
X244144D01*
X240696Y363829D01*
Y364370D01*
X240945D01*
Y371260D01*
X235577D01*
Y371280D01*
X235476Y371787D01*
X235189Y372217D01*
X234087Y373319D01*
X234294Y373819D01*
X234449D01*
X234555Y373819D01*
X243504D01*
Y382874D01*
X234555D01*
X234449Y382874D01*
X234055D01*
X233949Y382874D01*
X225000D01*
Y375461D01*
X224881Y375381D01*
X224660Y375322D01*
X224410Y375552D01*
Y381693D01*
X217126D01*
X217126Y375000D01*
X216665Y374905D01*
X201101D01*
X199689Y376317D01*
X199259Y376604D01*
X198752Y376705D01*
X197539D01*
Y382087D01*
X192369D01*
Y383780D01*
X192268Y384287D01*
X191981Y384717D01*
X189581Y387117D01*
X189151Y387404D01*
X188643Y387505D01*
D02*
G37*
G36*
X250787Y372244D02*
X242913D01*
Y365157D01*
X250787D01*
Y372244D01*
D02*
G37*
G36*
X374016Y383863D02*
X372095Y383674D01*
X370247Y383114D01*
X368545Y382204D01*
X367053Y380979D01*
X365828Y379487D01*
X364918Y377784D01*
X364358Y375937D01*
X364168Y374016D01*
X364358Y372095D01*
X364918Y370247D01*
X365828Y368545D01*
X367053Y367053D01*
X368545Y365828D01*
X370247Y364918D01*
X372095Y364357D01*
X374016Y364168D01*
X375937Y364357D01*
X377784Y364918D01*
X379487Y365828D01*
X380979Y367053D01*
X382204Y368545D01*
X383114Y370247D01*
X383674Y372095D01*
X383863Y374016D01*
X383674Y375937D01*
X383114Y377784D01*
X382204Y379487D01*
X380979Y380979D01*
X379487Y382204D01*
X377784Y383114D01*
X375937Y383674D01*
X374016Y383863D01*
D02*
G37*
G36*
X15748D02*
X13827Y383674D01*
X11980Y383114D01*
X10277Y382204D01*
X8785Y380979D01*
X7560Y379487D01*
X6650Y377784D01*
X6090Y375937D01*
X5900Y374016D01*
X6090Y372095D01*
X6650Y370247D01*
X7560Y368545D01*
X8785Y367053D01*
X10277Y365828D01*
X11980Y364918D01*
X13827Y364357D01*
X15748Y364168D01*
X17669Y364357D01*
X19516Y364918D01*
X21219Y365828D01*
X22711Y367053D01*
X23936Y368545D01*
X24846Y370247D01*
X25406Y372095D01*
X25595Y374016D01*
X25406Y375937D01*
X24846Y377784D01*
X23936Y379487D01*
X22711Y380979D01*
X21219Y382204D01*
X19516Y383114D01*
X17669Y383674D01*
X15748Y383863D01*
D02*
G37*
G36*
X338583Y363826D02*
X337552Y363690D01*
X336591Y363293D01*
X335766Y362659D01*
X335133Y361834D01*
X334735Y360874D01*
X334599Y359842D01*
X334735Y358811D01*
X335133Y357851D01*
X335766Y357026D01*
X336591Y356393D01*
X337552Y355995D01*
X338583Y355859D01*
X339614Y355995D01*
X340575Y356393D01*
X341400Y357026D01*
X342033Y357851D01*
X342431Y358811D01*
X342566Y359842D01*
X342431Y360874D01*
X342033Y361834D01*
X341400Y362659D01*
X340575Y363293D01*
X339614Y363690D01*
X338583Y363826D01*
D02*
G37*
G36*
X320571Y362840D02*
X319591Y362711D01*
X318678Y362333D01*
X317895Y361732D01*
X317293Y360948D01*
X316915Y360035D01*
X316786Y359055D01*
X316915Y358075D01*
X317293Y357163D01*
X317895Y356379D01*
X318678Y355777D01*
X319591Y355399D01*
X320571Y355270D01*
X321551Y355399D01*
X322463Y355777D01*
X323248Y356379D01*
X323849Y357163D01*
X324227Y358075D01*
X324356Y359055D01*
X324227Y360035D01*
X323849Y360948D01*
X323248Y361732D01*
X322463Y362333D01*
X321551Y362711D01*
X320571Y362840D01*
D02*
G37*
G36*
X103701Y353143D02*
X101233D01*
Y350871D01*
X103701D01*
Y353143D01*
D02*
G37*
G36*
X339083Y353962D02*
Y350342D01*
X342702D01*
X342626Y350926D01*
X342207Y351935D01*
X341542Y352802D01*
X340675Y353467D01*
X339666Y353885D01*
X339083Y353962D01*
D02*
G37*
G36*
X338083D02*
X337499Y353885D01*
X336490Y353467D01*
X335623Y352802D01*
X334958Y351935D01*
X334540Y350926D01*
X334463Y350342D01*
X338083D01*
Y353962D01*
D02*
G37*
G36*
X342702Y349342D02*
X339083D01*
Y345723D01*
X339666Y345800D01*
X340675Y346218D01*
X341542Y346883D01*
X342207Y347750D01*
X342626Y348759D01*
X342702Y349342D01*
D02*
G37*
G36*
X338083D02*
X334463D01*
X334540Y348759D01*
X334958Y347750D01*
X335623Y346883D01*
X336490Y346218D01*
X337499Y345800D01*
X338083Y345723D01*
Y349342D01*
D02*
G37*
G36*
X37402Y338629D02*
X36371Y338494D01*
X35410Y338096D01*
X34585Y337463D01*
X33952Y336638D01*
X33554Y335677D01*
X33418Y334646D01*
X33554Y333615D01*
X33952Y332654D01*
X34585Y331829D01*
X35410Y331196D01*
X36371Y330798D01*
X37402Y330662D01*
X38433Y330798D01*
X39393Y331196D01*
X40218Y331829D01*
X40852Y332654D01*
X41249Y333615D01*
X41385Y334646D01*
X41249Y335677D01*
X40852Y336638D01*
X40218Y337463D01*
X39393Y338096D01*
X38433Y338494D01*
X37402Y338629D01*
D02*
G37*
G36*
X346742Y319520D02*
X344471D01*
Y317051D01*
X346742D01*
Y319520D01*
D02*
G37*
G36*
X89240Y258834D02*
Y256405D01*
X91668D01*
X91632Y256680D01*
X91333Y257403D01*
X90857Y258023D01*
X90237Y258499D01*
X89515Y258798D01*
X89240Y258834D01*
D02*
G37*
G36*
X88240D02*
X87965Y258798D01*
X87243Y258499D01*
X86623Y258023D01*
X86147Y257403D01*
X85848Y256680D01*
X85812Y256405D01*
X88240D01*
Y258834D01*
D02*
G37*
G36*
X78740Y258698D02*
X78017Y258603D01*
X77344Y258324D01*
X76766Y257880D01*
X76322Y257302D01*
X76043Y256628D01*
X75948Y255906D01*
X76043Y255183D01*
X76322Y254509D01*
X76766Y253931D01*
X77344Y253487D01*
X78017Y253208D01*
X78740Y253113D01*
X79463Y253208D01*
X80136Y253487D01*
X80715Y253931D01*
X81159Y254509D01*
X81437Y255183D01*
X81533Y255906D01*
X81437Y256628D01*
X81159Y257302D01*
X80715Y257880D01*
X80136Y258324D01*
X79463Y258603D01*
X78740Y258698D01*
D02*
G37*
G36*
X91668Y255405D02*
X89240D01*
Y252977D01*
X89515Y253013D01*
X90237Y253313D01*
X90857Y253788D01*
X91333Y254409D01*
X91632Y255131D01*
X91668Y255405D01*
D02*
G37*
G36*
X88240D02*
X85812D01*
X85848Y255131D01*
X86147Y254409D01*
X86623Y253788D01*
X87243Y253313D01*
X87965Y253013D01*
X88240Y252977D01*
Y255405D01*
D02*
G37*
G36*
X374016Y25596D02*
X372095Y25406D01*
X370247Y24846D01*
X368545Y23936D01*
X367053Y22711D01*
X365828Y21219D01*
X364918Y19517D01*
X364358Y17669D01*
X364168Y15748D01*
X364358Y13827D01*
X364918Y11980D01*
X365828Y10277D01*
X367053Y8785D01*
X368545Y7560D01*
X370247Y6650D01*
X372095Y6090D01*
X374016Y5901D01*
X375937Y6090D01*
X377784Y6650D01*
X379487Y7560D01*
X380979Y8785D01*
X382204Y10277D01*
X383114Y11980D01*
X383674Y13827D01*
X383863Y15748D01*
X383674Y17669D01*
X383114Y19517D01*
X382204Y21219D01*
X380979Y22711D01*
X379487Y23936D01*
X377784Y24846D01*
X375937Y25406D01*
X374016Y25596D01*
D02*
G37*
G36*
X15748D02*
X13827Y25406D01*
X11980Y24846D01*
X10277Y23936D01*
X8785Y22711D01*
X7560Y21219D01*
X6650Y19517D01*
X6090Y17669D01*
X5900Y15748D01*
X6090Y13827D01*
X6650Y11980D01*
X7560Y10277D01*
X8785Y8785D01*
X10277Y7560D01*
X11980Y6650D01*
X13827Y6090D01*
X15748Y5901D01*
X17669Y6090D01*
X19516Y6650D01*
X21219Y7560D01*
X22711Y8785D01*
X23936Y10277D01*
X24846Y11980D01*
X25406Y13827D01*
X25595Y15748D01*
X25406Y17669D01*
X24846Y19517D01*
X23936Y21219D01*
X22711Y22711D01*
X21219Y23936D01*
X19516Y24846D01*
X17669Y25406D01*
X15748Y25596D01*
D02*
G37*
%LPD*%
G36*
X189691Y383257D02*
X189641Y382774D01*
X189206Y382600D01*
X188189Y383617D01*
X187759Y383904D01*
X187252Y384005D01*
X170571D01*
X170064Y383904D01*
X169634Y383617D01*
X169346Y383187D01*
X169246Y382680D01*
Y382299D01*
X168512D01*
Y378051D01*
Y373803D01*
X170071D01*
Y378051D01*
X171071D01*
Y373803D01*
X172161D01*
Y374016D01*
X172761D01*
X172952Y373554D01*
X167304Y367905D01*
X126252D01*
X125745Y367804D01*
X125315Y367517D01*
X123711Y365913D01*
X123423Y365483D01*
X123322Y364976D01*
Y364796D01*
X121301D01*
Y359305D01*
X120367D01*
X118989Y360683D01*
X118559Y360970D01*
X118052Y361071D01*
X116745D01*
Y362797D01*
X109856D01*
Y360992D01*
X109745Y360970D01*
X109315Y360683D01*
X107515Y358883D01*
X107457Y358797D01*
X106957Y358948D01*
Y361517D01*
X106957D01*
X106813Y361866D01*
X129801Y384854D01*
X188094D01*
X189691Y383257D01*
D02*
G37*
G36*
X181307Y373803D02*
X182041D01*
Y367924D01*
X173822Y359705D01*
X151218D01*
Y360560D01*
X170953D01*
X171460Y360661D01*
X171890Y360949D01*
X179185Y368244D01*
X179472Y368674D01*
X179573Y369181D01*
Y373803D01*
X180307D01*
Y378051D01*
X181307D01*
Y373803D01*
D02*
G37*
G36*
X199615Y372642D02*
X200045Y372355D01*
X200552Y372254D01*
X217221D01*
X217717Y372244D01*
Y365157D01*
X225591D01*
Y371954D01*
X227302D01*
X227346Y371472D01*
X227346D01*
Y368315D01*
X229134D01*
Y367315D01*
X227346D01*
Y364158D01*
X227808D01*
Y360801D01*
X227331Y360482D01*
X226779Y359655D01*
X226684Y359179D01*
X229134D01*
Y358179D01*
X226684D01*
X226779Y357704D01*
X226845Y357605D01*
X226609Y357164D01*
X200192D01*
X194928Y362429D01*
Y374016D01*
X197539D01*
Y374054D01*
X198203D01*
X199615Y372642D01*
D02*
G37*
G36*
X143015Y357442D02*
X143445Y357155D01*
X143952Y357054D01*
X167703D01*
X169246Y355511D01*
Y353543D01*
X161516D01*
Y345473D01*
X161568D01*
Y331658D01*
X127827Y297917D01*
X127539Y297487D01*
X127438Y296979D01*
Y288180D01*
X125319D01*
Y283788D01*
X124819Y283412D01*
X124252Y283525D01*
X123354Y283346D01*
X122594Y282838D01*
X122295Y282391D01*
X121795Y282543D01*
Y282585D01*
X121583D01*
Y287688D01*
X116071D01*
X116071Y287688D01*
Y287688D01*
X115696Y287959D01*
X104138Y299517D01*
X103708Y299804D01*
X103201Y299905D01*
X72044D01*
X71537Y299804D01*
X71107Y299517D01*
X70528Y298937D01*
X70066Y299129D01*
Y332198D01*
X70136Y332227D01*
X70715Y332671D01*
X71158Y333249D01*
X71437Y333923D01*
X71533Y334646D01*
X71437Y335368D01*
X71408Y335439D01*
X81523Y345554D01*
X104252D01*
X104759Y345655D01*
X105189Y345942D01*
X109356Y350109D01*
X109498Y350095D01*
X109856Y349940D01*
Y349805D01*
X116745D01*
Y351530D01*
X118580D01*
X118919Y351463D01*
X121301D01*
Y349836D01*
X127994D01*
Y355741D01*
X121301D01*
Y354114D01*
X119191D01*
X118852Y354181D01*
X116745D01*
Y355907D01*
X110099Y355907D01*
X109869Y356301D01*
X110099Y356694D01*
X116745D01*
Y358420D01*
X117503D01*
X118881Y357042D01*
X119311Y356755D01*
X119818Y356654D01*
X129352D01*
X129859Y356755D01*
X130289Y357042D01*
X131667Y358420D01*
X132511D01*
Y356694D01*
X139401D01*
Y358420D01*
X142037D01*
X143015Y357442D01*
D02*
G37*
G36*
X192277Y361879D02*
X192378Y361372D01*
X192665Y360942D01*
X198706Y354902D01*
X199136Y354614D01*
X199643Y354514D01*
X231411D01*
X231919Y354614D01*
X232349Y354902D01*
X237748Y360301D01*
X238036Y360731D01*
X238136Y361239D01*
Y361932D01*
X238636Y362139D01*
X242657Y358118D01*
X243087Y357831D01*
X243595Y357730D01*
X270952D01*
Y357177D01*
X237410Y323635D01*
X237123Y323205D01*
X237022Y322698D01*
Y322593D01*
X235592D01*
Y321359D01*
X234792D01*
X234552Y321407D01*
X233666D01*
Y322641D01*
X228154D01*
Y321407D01*
X227053D01*
X226546Y321306D01*
X226545Y321306D01*
X226012D01*
Y322539D01*
X220500D01*
Y321306D01*
X218012D01*
Y322539D01*
X212500D01*
Y321306D01*
X209913D01*
Y322441D01*
X204598D01*
Y317520D01*
X204598D01*
Y317323D01*
X204598D01*
Y312402D01*
X205930D01*
Y306979D01*
X206031Y306472D01*
X206319Y306042D01*
X238022Y274339D01*
Y263760D01*
X237690Y263538D01*
X237181Y262777D01*
X237003Y261879D01*
X237181Y260982D01*
X237690Y260221D01*
X238451Y259713D01*
X239348Y259535D01*
X240245Y259713D01*
X241006Y260221D01*
X241514Y260982D01*
X241693Y261879D01*
X241514Y262777D01*
X241006Y263538D01*
X240673Y263760D01*
Y271034D01*
X241135Y271226D01*
X244527Y267834D01*
Y263760D01*
X244194Y263538D01*
X243685Y262777D01*
X243507Y261879D01*
X243685Y260982D01*
X244194Y260221D01*
X244527Y259999D01*
Y234560D01*
X244194Y234338D01*
X243685Y233577D01*
X243507Y232680D01*
X243685Y231782D01*
X244194Y231021D01*
X244955Y230513D01*
X245852Y230334D01*
X246063Y230377D01*
X246439Y229941D01*
X246307Y229279D01*
X246485Y228382D01*
X246994Y227621D01*
X247755Y227113D01*
X248652Y226935D01*
X249549Y227113D01*
X250310Y227621D01*
X250818Y228382D01*
X250997Y229279D01*
X250818Y230177D01*
X250310Y230938D01*
X249977Y231160D01*
Y273368D01*
Y288680D01*
X249876Y289187D01*
X249589Y289617D01*
X247983Y291223D01*
Y312601D01*
X249315D01*
Y317522D01*
X249315D01*
Y317719D01*
X249315D01*
Y318854D01*
X290203D01*
X292227Y316831D01*
Y311779D01*
Y203860D01*
X291894Y203638D01*
X291385Y202877D01*
X291207Y201979D01*
X291385Y201082D01*
X291894Y200321D01*
X292227Y200099D01*
Y198529D01*
X288098Y194401D01*
X287598Y194608D01*
Y200000D01*
X280906D01*
Y198373D01*
X279046D01*
X278539Y198272D01*
X278109Y197985D01*
X278103Y197979D01*
X275472D01*
Y198917D01*
X271535D01*
Y194889D01*
X271535Y194390D01*
X271535Y193805D01*
X271182Y193451D01*
X265802D01*
Y194488D01*
X260683D01*
Y189763D01*
X265802D01*
Y190800D01*
X271535D01*
Y189862D01*
X275472D01*
Y193889D01*
X275472Y194389D01*
X275472Y194974D01*
X275826Y195328D01*
X278652D01*
X279159Y195429D01*
X279589Y195716D01*
X279595Y195722D01*
X280906D01*
Y194095D01*
X287085D01*
X287293Y193595D01*
X284643Y190945D01*
X280906D01*
Y185039D01*
X282927D01*
Y179079D01*
X283027Y178572D01*
X283315Y178142D01*
X286826Y174630D01*
Y169314D01*
X280492D01*
Y167687D01*
X274904D01*
Y168625D01*
X270967D01*
Y164597D01*
X270967Y164098D01*
X270967Y163513D01*
X270614Y163159D01*
X265388D01*
Y164196D01*
X260270D01*
Y159471D01*
X265388D01*
Y160508D01*
X270967D01*
Y159570D01*
X274904D01*
Y163598D01*
X274904Y164097D01*
X274904Y164682D01*
X275258Y165036D01*
X280492D01*
Y163409D01*
X285053D01*
X285245Y162947D01*
X282902Y160604D01*
X282671Y160259D01*
X280492D01*
Y154353D01*
X282513D01*
Y86452D01*
X273566Y77505D01*
X265188D01*
X265036Y78005D01*
X265210Y78121D01*
X265719Y78882D01*
X265897Y79779D01*
X265719Y80677D01*
X265210Y81438D01*
X264877Y81660D01*
Y107780D01*
X264776Y108287D01*
X264489Y108717D01*
X259189Y114017D01*
X258759Y114304D01*
X258483Y114359D01*
X258359Y114894D01*
X258880Y115293D01*
X259513Y116119D01*
X259911Y117079D01*
X260047Y118110D01*
X259911Y119141D01*
X259513Y120102D01*
X258880Y120927D01*
X258055Y121560D01*
X257388Y121836D01*
Y149942D01*
X258989Y151542D01*
X259277Y151972D01*
X259377Y152480D01*
Y167780D01*
X259277Y168287D01*
X258989Y168717D01*
X242432Y185274D01*
X242751Y185662D01*
X243513Y185153D01*
X243988Y185059D01*
Y187508D01*
X244488D01*
Y188008D01*
X246937D01*
X246843Y188484D01*
X246290Y189311D01*
X245501Y189838D01*
X245446Y190059D01*
X245416Y190382D01*
X245708Y190577D01*
X246260Y191404D01*
X246355Y191879D01*
X243905D01*
Y192879D01*
X246355D01*
X246271Y193301D01*
X246391Y193475D01*
X246633Y193697D01*
X247452Y193535D01*
X248349Y193713D01*
X249110Y194221D01*
X249323Y194541D01*
X252810D01*
Y193504D01*
X257928D01*
Y198228D01*
X252810D01*
Y197191D01*
X249342D01*
X249110Y197538D01*
X248349Y198046D01*
X247452Y198225D01*
X246555Y198046D01*
X245794Y197538D01*
X245504Y197104D01*
X243022Y197007D01*
X242661Y197354D01*
Y198118D01*
X237877D01*
Y207314D01*
X237776Y207821D01*
X237489Y208251D01*
X233189Y212551D01*
X228477Y217263D01*
Y223480D01*
Y279299D01*
X228810Y279521D01*
X229318Y280282D01*
X229497Y281179D01*
X229318Y282077D01*
X228810Y282838D01*
X228049Y283346D01*
X227152Y283525D01*
X226255Y283346D01*
X225494Y282838D01*
X224985Y282077D01*
X224807Y281179D01*
X224985Y280282D01*
X225056Y280176D01*
X225016Y280091D01*
X224726Y279771D01*
X223952Y279925D01*
X223055Y279746D01*
X222501Y279376D01*
X221960Y279559D01*
X221954Y279566D01*
X221943Y279621D01*
X221655Y280051D01*
X189810Y311896D01*
Y345473D01*
X197539D01*
Y353543D01*
X179839D01*
Y353756D01*
X179573D01*
Y355230D01*
X181697Y357354D01*
X187263D01*
X187582Y356877D01*
X188409Y356325D01*
X188884Y356230D01*
Y358680D01*
X189384D01*
Y359179D01*
X191834D01*
X191739Y359655D01*
X191187Y360482D01*
X190360Y361034D01*
X189810Y361144D01*
Y366016D01*
Y373803D01*
X190075D01*
Y374016D01*
X192277D01*
Y361879D01*
D02*
G37*
G36*
X178748Y345260D02*
X179839D01*
Y345473D01*
X187159D01*
Y311347D01*
X187260Y310840D01*
X187547Y310410D01*
X205887Y292070D01*
X205691Y291559D01*
X204822Y291444D01*
X203813Y291026D01*
X202946Y290361D01*
X202281Y289494D01*
X201863Y288485D01*
X201786Y287901D01*
X205906D01*
Y287402D01*
X206406D01*
Y283282D01*
X206989Y283359D01*
X207998Y283777D01*
X208865Y284442D01*
X209530Y285309D01*
X209948Y286318D01*
X210063Y287187D01*
X210574Y287383D01*
X219393Y278564D01*
Y250162D01*
X218893Y250012D01*
X218689Y250317D01*
X205971Y263035D01*
X206150Y263563D01*
X206989Y263674D01*
X207998Y264092D01*
X208865Y264757D01*
X209530Y265624D01*
X209948Y266633D01*
X210025Y267216D01*
X205906D01*
Y267717D01*
X205406D01*
Y271836D01*
X204822Y271759D01*
X203813Y271341D01*
X202946Y270676D01*
X202281Y269809D01*
X201863Y268800D01*
X201752Y267961D01*
X201224Y267781D01*
X200677Y268329D01*
Y290680D01*
X200576Y291187D01*
X200289Y291617D01*
X169337Y322569D01*
Y345473D01*
X171804D01*
Y331438D01*
X171472Y331216D01*
X170963Y330455D01*
X170785Y329557D01*
X170963Y328660D01*
X171472Y327899D01*
X172232Y327391D01*
X173130Y327213D01*
X174027Y327391D01*
X174788Y327899D01*
X175296Y328660D01*
X175475Y329557D01*
X175296Y330455D01*
X174788Y331216D01*
X174455Y331438D01*
Y345473D01*
X176657D01*
Y345260D01*
X177748D01*
Y349508D01*
X178748D01*
Y345260D01*
D02*
G37*
G36*
X244000Y317719D02*
X244000D01*
Y317522D01*
X244000D01*
Y312601D01*
X245332D01*
Y294527D01*
X244870Y294336D01*
X236019Y303187D01*
X236097Y303579D01*
X235918Y304477D01*
X235410Y305238D01*
X234649Y305746D01*
X233752Y305925D01*
X232855Y305746D01*
X232094Y305238D01*
X231585Y304477D01*
X231407Y303579D01*
X231585Y302682D01*
X232094Y301921D01*
X232855Y301413D01*
X233752Y301235D01*
X234144Y301312D01*
X245332Y290125D01*
Y275362D01*
Y273368D01*
X245433Y272861D01*
X245721Y272431D01*
X246150Y272143D01*
X246658Y272042D01*
X247326D01*
Y269417D01*
X246827Y269265D01*
X246789Y269321D01*
X240285Y275825D01*
X218466Y297643D01*
X218584Y297863D01*
Y300079D01*
X216367D01*
X216147Y299962D01*
X208581Y307529D01*
Y312402D01*
X209913D01*
Y317323D01*
X209913D01*
Y317520D01*
X209913D01*
Y318655D01*
X212500D01*
Y317437D01*
X212287D01*
Y315165D01*
X215256D01*
Y314665D01*
X215756D01*
Y311894D01*
X217758D01*
Y302701D01*
X217281Y302382D01*
X216729Y301555D01*
X216634Y301080D01*
X221533D01*
X221439Y301555D01*
X220886Y302382D01*
X220409Y302701D01*
Y311894D01*
X222756D01*
Y314665D01*
X223756D01*
Y311894D01*
X226224D01*
Y313340D01*
X226952D01*
X227459Y313441D01*
X227941Y313330D01*
Y311995D01*
X230410D01*
Y314767D01*
X230910D01*
Y315267D01*
X233878D01*
Y317538D01*
X233666D01*
Y318756D01*
X234360D01*
X234600Y318708D01*
X235592D01*
Y317491D01*
X235379D01*
Y315219D01*
X238348D01*
X241316D01*
Y317491D01*
X241104D01*
Y318708D01*
X242352D01*
X242859Y318809D01*
X242926Y318854D01*
X244000D01*
Y317719D01*
D02*
G37*
G36*
X115715Y284191D02*
X116071Y283953D01*
Y282585D01*
X115858D01*
Y281139D01*
X104751D01*
X91561Y294329D01*
X91632Y294501D01*
X91668Y294776D01*
X89240D01*
Y292347D01*
X89515Y292383D01*
X89687Y292455D01*
X103265Y278876D01*
X103695Y278589D01*
X104202Y278488D01*
X115858D01*
Y277042D01*
X118327D01*
Y279814D01*
X119327D01*
Y277042D01*
X121795D01*
Y279816D01*
X122295Y279968D01*
X122594Y279521D01*
X123354Y279013D01*
X124252Y278835D01*
X124819Y278947D01*
X125319Y278571D01*
Y275188D01*
X131678D01*
X131886Y274688D01*
X129961Y272763D01*
X129652Y272825D01*
X128754Y272646D01*
X127994Y272138D01*
X127586Y271527D01*
X127110Y271468D01*
X127007Y271493D01*
X126710Y271938D01*
X125949Y272446D01*
X125052Y272625D01*
X124154Y272446D01*
X123394Y271938D01*
X122885Y271177D01*
X122707Y270280D01*
X122785Y269887D01*
X116312Y263414D01*
X116024Y262984D01*
X115923Y262476D01*
Y247124D01*
X115461Y246933D01*
X70066Y292329D01*
Y292828D01*
X70136Y292857D01*
X70715Y293301D01*
X71158Y293879D01*
X71437Y294553D01*
X71533Y295275D01*
X71437Y295998D01*
X71408Y296069D01*
X72593Y297254D01*
X76139D01*
X76385Y296754D01*
X76322Y296672D01*
X76043Y295998D01*
X75948Y295275D01*
X76043Y294553D01*
X76322Y293879D01*
X76766Y293301D01*
X77344Y292857D01*
X78017Y292578D01*
X78740Y292483D01*
X79463Y292578D01*
X80136Y292857D01*
X80715Y293301D01*
X81159Y293879D01*
X81437Y294553D01*
X81533Y295275D01*
X81437Y295998D01*
X81159Y296672D01*
X81095Y296754D01*
X81342Y297254D01*
X85951D01*
X86172Y296806D01*
X86147Y296773D01*
X85848Y296051D01*
X85812Y295776D01*
X88740D01*
X91668D01*
X91632Y296051D01*
X91333Y296773D01*
X91308Y296806D01*
X91529Y297254D01*
X102652D01*
X115715Y284191D01*
D02*
G37*
G36*
X337034Y285539D02*
X336906Y284896D01*
Y281550D01*
X337059Y280782D01*
X337494Y280131D01*
X338145Y279695D01*
X338913Y279543D01*
X339588Y279677D01*
X340088Y279411D01*
Y273227D01*
X340026Y272918D01*
Y268775D01*
X339333D01*
Y266503D01*
X345270D01*
Y268775D01*
X342739D01*
Y272979D01*
Y278372D01*
X343239Y278580D01*
X344076Y277742D01*
X344506Y277455D01*
X345013Y277354D01*
X355703D01*
X356876Y276181D01*
Y268224D01*
X355544D01*
Y263303D01*
X355544D01*
Y263106D01*
X355544D01*
Y261971D01*
X350366D01*
X350152Y262014D01*
X345057D01*
Y263231D01*
X345270D01*
Y265503D01*
X339333D01*
Y264135D01*
X338871Y263944D01*
X335519Y267296D01*
X335294Y280105D01*
X335333Y280131D01*
X335768Y280782D01*
X335920Y281550D01*
Y284896D01*
X335792Y285539D01*
X336073Y286039D01*
X336754D01*
X337034Y285539D01*
D02*
G37*
G36*
X317326Y250173D02*
Y248629D01*
X315015Y246317D01*
X314727Y245887D01*
X314627Y245379D01*
Y194486D01*
X314727Y193979D01*
X315015Y193549D01*
X319315Y189249D01*
X319745Y188962D01*
X320252Y188861D01*
X325787D01*
Y187513D01*
X328157D01*
Y190187D01*
X329157D01*
Y187513D01*
X331527D01*
Y188861D01*
X337001D01*
X338915Y186947D01*
X342631Y183230D01*
Y177328D01*
X342384Y177163D01*
X341902Y176442D01*
X341733Y175591D01*
Y174417D01*
X343957D01*
X346181D01*
Y175591D01*
X346011Y176442D01*
X345529Y177163D01*
X345282Y177328D01*
Y183780D01*
X345181Y184287D01*
X344894Y184717D01*
X344431Y185180D01*
X344576Y185659D01*
X344849Y185713D01*
X345610Y186221D01*
X345832Y186554D01*
X347108D01*
X350337Y183325D01*
X350018Y182937D01*
X349854Y183046D01*
X348957Y183225D01*
X348059Y183046D01*
X347299Y182538D01*
X346790Y181777D01*
X346612Y180879D01*
X346790Y179982D01*
X347299Y179221D01*
X347631Y178999D01*
Y177072D01*
X347538Y177010D01*
X347102Y176359D01*
X346950Y175591D01*
Y172244D01*
X347102Y171476D01*
X347538Y170825D01*
X347631Y170762D01*
Y168659D01*
X347596Y168480D01*
Y165879D01*
X346378D01*
Y166092D01*
X344106D01*
Y163124D01*
Y160155D01*
X346378D01*
Y160368D01*
X351480D01*
Y165879D01*
X350246D01*
Y168335D01*
X350282Y168515D01*
Y170762D01*
X350376Y170825D01*
X350811Y171476D01*
X350964Y172244D01*
Y175591D01*
X350811Y176359D01*
X350376Y177010D01*
X350282Y177072D01*
Y178999D01*
X350615Y179221D01*
X351123Y179982D01*
X351302Y180879D01*
X351123Y181777D01*
X351014Y181941D01*
X351402Y182260D01*
X352631Y181030D01*
Y177072D01*
X352538Y177010D01*
X352102Y176359D01*
X351950Y175591D01*
Y172244D01*
X352102Y171476D01*
X352538Y170825D01*
X352631Y170762D01*
Y139824D01*
X348615Y135807D01*
X348327Y135377D01*
X348226Y134870D01*
Y120548D01*
X347726Y120378D01*
X347305Y120927D01*
X346480Y121560D01*
X345519Y121958D01*
X344488Y122094D01*
X343457Y121958D01*
X342496Y121560D01*
X341671Y120927D01*
X341038Y120102D01*
X340782Y119484D01*
X340282Y119584D01*
Y170762D01*
X340376Y170825D01*
X340811Y171476D01*
X340964Y172244D01*
Y175591D01*
X340811Y176359D01*
X340376Y177010D01*
X340282Y177072D01*
Y179780D01*
X340181Y180287D01*
X339894Y180717D01*
X337694Y182917D01*
X337264Y183204D01*
X336757Y183305D01*
X319101D01*
X307677Y194729D01*
Y242999D01*
X308010Y243221D01*
X308519Y243982D01*
X308697Y244880D01*
X308519Y245777D01*
X308010Y246538D01*
X307249Y247046D01*
X307055Y247085D01*
X306910Y247563D01*
X309101Y249754D01*
X312771D01*
X312994Y249421D01*
X313755Y248913D01*
X314652Y248734D01*
X315549Y248913D01*
X316310Y249421D01*
X316818Y250182D01*
X316827Y250222D01*
X317326Y250173D01*
D02*
G37*
G36*
X136990Y244452D02*
X137663Y244173D01*
X138386Y244078D01*
X139109Y244173D01*
X139782Y244452D01*
X140051Y244658D01*
X140551Y244412D01*
X140551Y242278D01*
X140339Y241866D01*
X140339Y241675D01*
Y239870D01*
X146063D01*
Y238870D01*
X140339D01*
Y237366D01*
X140339Y236874D01*
X140339Y236374D01*
Y234427D01*
X139890Y234205D01*
X139782Y234288D01*
X139109Y234567D01*
X138386Y234663D01*
X137663Y234567D01*
X136990Y234288D01*
X136720Y234082D01*
X136220Y234328D01*
Y236654D01*
X136220D01*
Y237087D01*
X136220D01*
Y241654D01*
X136220D01*
Y242087D01*
X136220D01*
Y244412D01*
X136720Y244658D01*
X136990Y244452D01*
D02*
G37*
G36*
X339346Y215760D02*
X339133D01*
Y213488D01*
X342101D01*
Y212988D01*
X342601D01*
Y210216D01*
X345070D01*
X345127Y209740D01*
Y200891D01*
X344626Y200684D01*
X331287Y214024D01*
X330857Y214311D01*
X330350Y214412D01*
X327259D01*
Y215547D01*
X327259D01*
Y215744D01*
X327259D01*
Y216879D01*
X333252D01*
X333747Y216978D01*
X339346D01*
Y215760D01*
D02*
G37*
G36*
X255559Y168398D02*
X255368Y167936D01*
X252396D01*
Y164722D01*
X242548D01*
Y165294D01*
X243692D01*
X244199Y165395D01*
X244629Y165682D01*
X245889Y166943D01*
X245952Y166930D01*
Y168879D01*
X244002D01*
X244015Y168817D01*
X243143Y167945D01*
X240578D01*
X240393Y168445D01*
X240819Y169082D01*
X240997Y169980D01*
X240819Y170877D01*
X240310Y171638D01*
X239977Y171860D01*
Y183326D01*
X240439Y183518D01*
X255559Y168398D01*
D02*
G37*
G36*
X250226Y155547D02*
Y119686D01*
X249727Y119587D01*
X249513Y120102D01*
X248880Y120927D01*
X248055Y121560D01*
X247094Y121958D01*
X246063Y122094D01*
X245032Y121958D01*
X244071Y121560D01*
X243246Y120927D01*
X242613Y120102D01*
X242215Y119141D01*
X242079Y118110D01*
X242215Y117079D01*
X242613Y116119D01*
X243246Y115293D01*
X244071Y114660D01*
X245032Y114262D01*
X246063Y114127D01*
X247094Y114262D01*
X248055Y114660D01*
X248880Y115293D01*
X249513Y116119D01*
X249727Y116634D01*
X250226Y116535D01*
Y115779D01*
X250327Y115272D01*
X250615Y114842D01*
X253315Y112142D01*
X253685Y111895D01*
X253763Y111594D01*
X253781Y111338D01*
X253246Y110927D01*
X252613Y110102D01*
X252215Y109141D01*
X252079Y108110D01*
X252215Y107079D01*
X252613Y106119D01*
X253246Y105293D01*
X254071Y104660D01*
X255032Y104262D01*
X256063Y104127D01*
X257094Y104262D01*
X258055Y104660D01*
X258880Y105293D01*
X259513Y106119D01*
X259911Y107079D01*
X260047Y108110D01*
X259957Y108793D01*
X260430Y109027D01*
X262227Y107230D01*
Y81713D01*
X261826Y81420D01*
X261283Y81423D01*
X259189Y83517D01*
X258759Y83804D01*
X258252Y83905D01*
X257538D01*
X257438Y84405D01*
X258055Y84660D01*
X258880Y85293D01*
X259513Y86119D01*
X259911Y87079D01*
X260047Y88110D01*
X259911Y89141D01*
X259513Y90102D01*
X258880Y90927D01*
X258055Y91560D01*
X257094Y91958D01*
X256063Y92094D01*
X255032Y91958D01*
X254071Y91560D01*
X253246Y90927D01*
X252613Y90102D01*
X252215Y89141D01*
X252079Y88110D01*
X252215Y87079D01*
X252613Y86119D01*
X253246Y85293D01*
X254071Y84660D01*
X254688Y84405D01*
X254588Y83905D01*
X247538D01*
X247438Y84405D01*
X248055Y84660D01*
X248880Y85293D01*
X249513Y86119D01*
X249911Y87079D01*
X250047Y88110D01*
X249911Y89141D01*
X249513Y90102D01*
X248880Y90927D01*
X248055Y91560D01*
X247094Y91958D01*
X246063Y92094D01*
X245032Y91958D01*
X244071Y91560D01*
X243246Y90927D01*
X242613Y90102D01*
X242215Y89141D01*
X242079Y88110D01*
X242215Y87079D01*
X242613Y86119D01*
X243246Y85293D01*
X244071Y84660D01*
X244688Y84405D01*
X244588Y83905D01*
X243252D01*
X242745Y83804D01*
X242315Y83517D01*
X241580Y82782D01*
X241118Y82973D01*
Y155309D01*
X242761D01*
Y157581D01*
X239792D01*
Y158581D01*
X242761D01*
Y160853D01*
X242548D01*
Y162071D01*
X243703D01*
X250226Y155547D01*
D02*
G37*
G36*
X218227Y146502D02*
X217894Y146280D01*
X217385Y145519D01*
X217207Y144621D01*
X217385Y143724D01*
X217894Y142963D01*
X218655Y142455D01*
X219552Y142276D01*
X220449Y142455D01*
X221210Y142963D01*
X221626Y143586D01*
X222127Y143435D01*
Y132602D01*
X221794Y132379D01*
X221285Y131619D01*
X221107Y130721D01*
X221285Y129824D01*
X221794Y129063D01*
X222555Y128555D01*
X223452Y128376D01*
X224349Y128555D01*
X225110Y129063D01*
X225619Y129824D01*
X225797Y130721D01*
X225619Y131619D01*
X225110Y132379D01*
X224777Y132602D01*
Y177326D01*
X225239Y177518D01*
X226827Y175931D01*
Y117902D01*
X226494Y117680D01*
X225985Y116919D01*
X225807Y116021D01*
X225985Y115124D01*
X226494Y114363D01*
X227255Y113855D01*
X228152Y113676D01*
X229049Y113855D01*
X229810Y114363D01*
X230318Y115124D01*
X230497Y116021D01*
X230318Y116919D01*
X229810Y117680D01*
X229477Y117902D01*
Y165666D01*
X229939Y165857D01*
X231526Y164270D01*
Y83780D01*
X231627Y83272D01*
X231795Y83022D01*
X231707Y82579D01*
X231885Y81682D01*
X232394Y80921D01*
X233155Y80413D01*
X234052Y80234D01*
X234949Y80413D01*
X235086Y80504D01*
X235526Y80268D01*
Y79202D01*
X235194Y78979D01*
X234685Y78219D01*
X234507Y77321D01*
X234685Y76424D01*
X235194Y75663D01*
X235955Y75155D01*
X236852Y74976D01*
X237749Y75155D01*
X238026Y75339D01*
X238467Y75104D01*
Y54381D01*
X238568Y53874D01*
X238855Y53444D01*
X242338Y49961D01*
X242020Y49194D01*
X241943Y48610D01*
X246063D01*
Y48110D01*
X246563D01*
Y43991D01*
X247146Y44067D01*
X248156Y44486D01*
X249023Y45151D01*
X249688Y46018D01*
X249727Y46111D01*
X250226Y46012D01*
Y40329D01*
X246903Y37005D01*
X47301D01*
X42514Y41792D01*
X42705Y42254D01*
X153107D01*
X153614Y42355D01*
X154044Y42642D01*
X155940Y44538D01*
X156607Y44262D01*
X157638Y44127D01*
X158669Y44262D01*
X159630Y44660D01*
X160455Y45293D01*
X161088Y46119D01*
X161486Y47079D01*
X161621Y48110D01*
X161486Y49141D01*
X161088Y50102D01*
X160553Y50799D01*
X160734Y51299D01*
X188711D01*
X189218Y51400D01*
X189648Y51687D01*
X196803Y58842D01*
X197091Y59272D01*
X197192Y59780D01*
Y86272D01*
X197692Y86424D01*
X197894Y86121D01*
X198654Y85613D01*
X199552Y85435D01*
X200449Y85613D01*
X201210Y86121D01*
X201718Y86882D01*
X201897Y87779D01*
X201718Y88677D01*
X201210Y89438D01*
X200877Y89660D01*
Y101935D01*
X201318Y102171D01*
X201554Y102013D01*
X202452Y101834D01*
X203349Y102013D01*
X204110Y102521D01*
X204619Y103282D01*
X204797Y104180D01*
X204619Y105077D01*
X204110Y105838D01*
X203777Y106060D01*
Y111131D01*
X204277Y111398D01*
X204555Y111213D01*
X205452Y111035D01*
X206349Y111213D01*
X207110Y111721D01*
X207618Y112482D01*
X207690Y112841D01*
X207759Y112855D01*
X208189Y113142D01*
X210226Y115180D01*
X210726Y114972D01*
Y91729D01*
X201145Y82147D01*
X200752Y82225D01*
X199855Y82046D01*
X199094Y81538D01*
X198585Y80777D01*
X198407Y79879D01*
X198585Y78982D01*
X199094Y78221D01*
X199855Y77713D01*
X200752Y77535D01*
X201649Y77713D01*
X202410Y78221D01*
X202919Y78982D01*
X203097Y79879D01*
X203019Y80272D01*
X212989Y90242D01*
X212998Y90255D01*
X213599D01*
X213634Y90202D01*
X214395Y89694D01*
X215292Y89516D01*
X216190Y89694D01*
X216951Y90202D01*
X217459Y90963D01*
X217637Y91861D01*
X217459Y92758D01*
X216951Y93519D01*
X216618Y93741D01*
Y180709D01*
X218227D01*
Y146502D01*
D02*
G37*
G36*
X135276Y81813D02*
X135185Y81677D01*
X135007Y80779D01*
X135185Y79882D01*
X135694Y79121D01*
X136027Y78899D01*
Y59780D01*
X136127Y59272D01*
X136415Y58842D01*
X142534Y52723D01*
X142964Y52436D01*
X143471Y52335D01*
X146210D01*
X146310Y51835D01*
X145646Y51560D01*
X144821Y50927D01*
X144188Y50102D01*
X143790Y49141D01*
X143654Y48110D01*
X143790Y47079D01*
X144188Y46119D01*
X144735Y45405D01*
X144570Y44905D01*
X62614D01*
X62367Y45405D01*
X62837Y46018D01*
X63255Y47027D01*
X63332Y47610D01*
X55093D01*
X55170Y47027D01*
X55588Y46018D01*
X56058Y45405D01*
X55811Y44905D01*
X52281D01*
X52115Y45405D01*
X52662Y46119D01*
X53061Y47079D01*
X53196Y48110D01*
X53061Y49141D01*
X52662Y50102D01*
X52030Y50927D01*
X51204Y51560D01*
X50538Y51836D01*
Y54384D01*
X51204Y54660D01*
X52030Y55293D01*
X52662Y56119D01*
X53061Y57079D01*
X53196Y58110D01*
X53061Y59141D01*
X52662Y60102D01*
X52030Y60927D01*
X51204Y61560D01*
X50737Y61754D01*
X50836Y62254D01*
X57066D01*
X57166Y61754D01*
X57120Y61735D01*
X56253Y61070D01*
X55588Y60203D01*
X55170Y59194D01*
X55093Y58610D01*
X63332D01*
X63255Y59194D01*
X62837Y60203D01*
X62172Y61070D01*
X61305Y61735D01*
X61259Y61754D01*
X61359Y62254D01*
X112452D01*
X112959Y62355D01*
X113389Y62642D01*
X133001Y82254D01*
X135041D01*
X135276Y81813D01*
D02*
G37*
%LPC*%
G36*
X167512Y382299D02*
X166421D01*
Y382087D01*
X161516D01*
Y374016D01*
X166421D01*
Y373803D01*
X167512D01*
Y378051D01*
Y382299D01*
D02*
G37*
G36*
X139401Y355907D02*
X132511D01*
Y349805D01*
X139401D01*
Y351530D01*
X141751D01*
X141877Y351505D01*
X144525D01*
Y349878D01*
X151218D01*
Y355784D01*
X144525D01*
Y354156D01*
X141978D01*
X141852Y354181D01*
X139401D01*
Y355907D01*
D02*
G37*
G36*
X89240Y337574D02*
Y335146D01*
X91668D01*
X91632Y335421D01*
X91333Y336143D01*
X90857Y336763D01*
X90237Y337239D01*
X89515Y337538D01*
X89240Y337574D01*
D02*
G37*
G36*
X88240D02*
X87965Y337538D01*
X87243Y337239D01*
X86623Y336763D01*
X86147Y336143D01*
X85848Y335421D01*
X85812Y335146D01*
X88240D01*
Y337574D01*
D02*
G37*
G36*
X78740Y337438D02*
X78017Y337343D01*
X77344Y337064D01*
X76766Y336620D01*
X76322Y336042D01*
X76043Y335368D01*
X75948Y334646D01*
X76043Y333923D01*
X76322Y333249D01*
X76766Y332671D01*
X77344Y332227D01*
X78017Y331948D01*
X78740Y331853D01*
X79463Y331948D01*
X80136Y332227D01*
X80715Y332671D01*
X81159Y333249D01*
X81437Y333923D01*
X81533Y334646D01*
X81437Y335368D01*
X81159Y336042D01*
X80715Y336620D01*
X80136Y337064D01*
X79463Y337343D01*
X78740Y337438D01*
D02*
G37*
G36*
X91668Y334146D02*
X89240D01*
Y331717D01*
X89515Y331754D01*
X90237Y332053D01*
X90857Y332529D01*
X91333Y333149D01*
X91632Y333871D01*
X91668Y334146D01*
D02*
G37*
G36*
X88240D02*
X85812D01*
X85848Y333871D01*
X86147Y333149D01*
X86623Y332529D01*
X87243Y332053D01*
X87965Y331754D01*
X88240Y331717D01*
Y334146D01*
D02*
G37*
G36*
X191834Y358179D02*
X189884D01*
Y356230D01*
X190360Y356325D01*
X191187Y356877D01*
X191739Y357704D01*
X191834Y358179D01*
D02*
G37*
G36*
X260162Y313155D02*
X260086Y313155D01*
X259849D01*
X259560Y313035D01*
X259338Y312814D01*
X259218Y312524D01*
X259218Y312211D01*
X259338Y311922D01*
X259449Y311811D01*
X259786Y312148D01*
X260226Y312588D01*
Y312588D01*
X260562Y312925D01*
X260452Y313035D01*
X260162Y313155D01*
X260162Y313155D01*
D02*
G37*
G36*
X276846D02*
X276556Y313035D01*
X276446Y312925D01*
X276782Y312588D01*
X277222Y312148D01*
X277222D01*
X277559Y311811D01*
X277670Y311922D01*
X277790Y312211D01*
X277790Y312287D01*
Y312524D01*
X277670Y312814D01*
X277448Y313035D01*
X277159Y313155D01*
X276922Y313155D01*
X276846Y313155D01*
D02*
G37*
G36*
X276297Y311811D02*
X275671D01*
X275092Y311571D01*
X274649Y311128D01*
X274410Y310549D01*
Y309923D01*
X274649Y309344D01*
X275092Y308901D01*
X275671Y308661D01*
X276297D01*
X276876Y308901D01*
X277319Y309344D01*
X277559Y309923D01*
Y310549D01*
X277319Y311128D01*
X276876Y311571D01*
X276297Y311811D01*
D02*
G37*
G36*
X261337D02*
X260710D01*
X260132Y311571D01*
X259689Y311128D01*
X259449Y310549D01*
Y309923D01*
X259689Y309344D01*
X260132Y308901D01*
X260710Y308661D01*
X261337D01*
X261916Y308901D01*
X262359Y309344D01*
X262598Y309923D01*
Y310549D01*
X262359Y311128D01*
X261916Y311571D01*
X261337Y311811D01*
D02*
G37*
G36*
X266335Y311631D02*
X265395D01*
X264527Y311272D01*
X263862Y310607D01*
X263502Y309739D01*
Y308799D01*
X263862Y307931D01*
X264527Y307266D01*
X265395Y306907D01*
X266335D01*
X267203Y307266D01*
X267867Y307931D01*
X268227Y308799D01*
Y309739D01*
X267867Y310607D01*
X267203Y311272D01*
X266335Y311631D01*
D02*
G37*
G36*
X271730Y311576D02*
X270790D01*
X269922Y311216D01*
X269257Y310552D01*
X268898Y309684D01*
Y308744D01*
X269257Y307876D01*
X269922Y307211D01*
X270790Y306852D01*
X271730D01*
X272598Y307211D01*
X273262Y307876D01*
X273622Y308744D01*
Y309684D01*
X273262Y310552D01*
X272598Y311216D01*
X271730Y311576D01*
D02*
G37*
G36*
X257928Y190748D02*
X252810D01*
Y186023D01*
X257928D01*
Y190748D01*
D02*
G37*
G36*
X246937Y187008D02*
X244988D01*
Y185059D01*
X245463Y185153D01*
X246290Y185706D01*
X246843Y186533D01*
X246937Y187008D01*
D02*
G37*
G36*
X205406Y286901D02*
X201786D01*
X201863Y286318D01*
X202281Y285309D01*
X202946Y284442D01*
X203813Y283777D01*
X204822Y283359D01*
X205406Y283282D01*
Y286901D01*
D02*
G37*
G36*
X206406Y271836D02*
Y268216D01*
X210025D01*
X209948Y268800D01*
X209530Y269809D01*
X208865Y270676D01*
X207998Y271341D01*
X206989Y271759D01*
X206406Y271836D01*
D02*
G37*
G36*
X233878Y314267D02*
X231410D01*
Y311995D01*
X233878D01*
Y314267D01*
D02*
G37*
G36*
X241316Y314219D02*
X238848D01*
Y311947D01*
X241316D01*
Y314219D01*
D02*
G37*
G36*
X237848D02*
X235379D01*
Y311947D01*
X237848D01*
Y314219D01*
D02*
G37*
G36*
X214756Y314165D02*
X212287D01*
Y311894D01*
X214756D01*
Y314165D01*
D02*
G37*
G36*
X221533Y300079D02*
X219584D01*
Y298130D01*
X220059Y298225D01*
X220886Y298777D01*
X221439Y299604D01*
X221533Y300079D01*
D02*
G37*
G36*
X88240Y294776D02*
X85812D01*
X85848Y294501D01*
X86147Y293778D01*
X86623Y293158D01*
X87243Y292683D01*
X87965Y292383D01*
X88240Y292347D01*
Y294776D01*
D02*
G37*
G36*
X346181Y173417D02*
X344457D01*
Y170120D01*
X344808Y170190D01*
X345529Y170672D01*
X346011Y171393D01*
X346181Y172244D01*
Y173417D01*
D02*
G37*
G36*
X343457D02*
X341733D01*
Y172244D01*
X341902Y171393D01*
X342384Y170672D01*
X343106Y170190D01*
X343457Y170120D01*
Y173417D01*
D02*
G37*
G36*
X343106Y166092D02*
X340834D01*
Y163623D01*
X343106D01*
Y166092D01*
D02*
G37*
G36*
Y162624D02*
X340834D01*
Y160155D01*
X343106D01*
Y162624D01*
D02*
G37*
G36*
X341601Y212488D02*
X339133D01*
Y210216D01*
X341601D01*
Y212488D01*
D02*
G37*
G36*
X246952Y171829D02*
Y169879D01*
X248902D01*
X248807Y170355D01*
X248254Y171182D01*
X247427Y171734D01*
X246952Y171829D01*
D02*
G37*
G36*
X245952D02*
X245477Y171734D01*
X244650Y171182D01*
X244097Y170355D01*
X244002Y169879D01*
X245952D01*
Y171829D01*
D02*
G37*
G36*
X248902Y168879D02*
X246952D01*
Y166930D01*
X247427Y167025D01*
X248254Y167577D01*
X248807Y168404D01*
X248902Y168879D01*
D02*
G37*
G36*
X246063Y112094D02*
X245032Y111958D01*
X244071Y111560D01*
X243246Y110927D01*
X242613Y110102D01*
X242215Y109141D01*
X242079Y108110D01*
X242215Y107079D01*
X242613Y106119D01*
X243246Y105293D01*
X244071Y104660D01*
X245032Y104262D01*
X246063Y104127D01*
X247094Y104262D01*
X248055Y104660D01*
X248880Y105293D01*
X249513Y106119D01*
X249911Y107079D01*
X250047Y108110D01*
X249911Y109141D01*
X249513Y110102D01*
X248880Y110927D01*
X248055Y111560D01*
X247094Y111958D01*
X246063Y112094D01*
D02*
G37*
G36*
X256063Y102094D02*
X255032Y101958D01*
X254071Y101560D01*
X253246Y100927D01*
X252613Y100102D01*
X252215Y99141D01*
X252079Y98110D01*
X252215Y97079D01*
X252613Y96118D01*
X253246Y95293D01*
X254071Y94660D01*
X255032Y94262D01*
X256063Y94127D01*
X257094Y94262D01*
X258055Y94660D01*
X258880Y95293D01*
X259513Y96118D01*
X259911Y97079D01*
X260047Y98110D01*
X259911Y99141D01*
X259513Y100102D01*
X258880Y100927D01*
X258055Y101560D01*
X257094Y101958D01*
X256063Y102094D01*
D02*
G37*
G36*
X246063D02*
X245032Y101958D01*
X244071Y101560D01*
X243246Y100927D01*
X242613Y100102D01*
X242215Y99141D01*
X242079Y98110D01*
X242215Y97079D01*
X242613Y96118D01*
X243246Y95293D01*
X244071Y94660D01*
X245032Y94262D01*
X246063Y94127D01*
X247094Y94262D01*
X248055Y94660D01*
X248880Y95293D01*
X249513Y96118D01*
X249911Y97079D01*
X250047Y98110D01*
X249911Y99141D01*
X249513Y100102D01*
X248880Y100927D01*
X248055Y101560D01*
X247094Y101958D01*
X246063Y102094D01*
D02*
G37*
G36*
X245563Y47610D02*
X241943D01*
X242020Y47027D01*
X242438Y46018D01*
X243103Y45151D01*
X243970Y44486D01*
X244980Y44067D01*
X245563Y43991D01*
Y47610D01*
D02*
G37*
G36*
X58713Y57610D02*
X55093D01*
X55170Y57027D01*
X55588Y56018D01*
X56253Y55151D01*
X57120Y54486D01*
X58129Y54067D01*
X58713Y53991D01*
Y57610D01*
D02*
G37*
G36*
X64682Y55529D02*
Y53579D01*
X66631D01*
X66537Y54055D01*
X65984Y54882D01*
X65157Y55435D01*
X64682Y55529D01*
D02*
G37*
G36*
X63332Y57610D02*
X59713D01*
Y53991D01*
X60296Y54067D01*
X61305Y54486D01*
X61732Y54813D01*
X62102Y54467D01*
X61827Y54055D01*
X61732Y53579D01*
X63682D01*
Y55529D01*
X63206Y55435D01*
X62824Y55179D01*
X62478Y55549D01*
X62837Y56018D01*
X63255Y57027D01*
X63332Y57610D01*
D02*
G37*
G36*
X63682Y52579D02*
X61732D01*
X61745Y52517D01*
X61063Y51835D01*
X60296Y52153D01*
X59713Y52230D01*
Y48610D01*
X63332D01*
X63255Y49194D01*
X62938Y49961D01*
X63619Y50643D01*
X63682Y50630D01*
Y52579D01*
D02*
G37*
G36*
X66631D02*
X64682D01*
Y50630D01*
X65157Y50725D01*
X65984Y51277D01*
X66537Y52104D01*
X66631Y52579D01*
D02*
G37*
G36*
X58713Y52230D02*
X58129Y52153D01*
X57120Y51735D01*
X56253Y51070D01*
X55588Y50203D01*
X55170Y49194D01*
X55093Y48610D01*
X58713D01*
Y52230D01*
D02*
G37*
%LPD*%
D14*
X213102Y228430D02*
X217752Y233080D01*
X220718Y225984D02*
Y231780D01*
X214923Y225984D02*
X220718Y231780D01*
X211614Y222675D02*
X214923Y225984D01*
X227152Y216714D02*
X232252Y211614D01*
X227152Y223480D02*
Y281179D01*
Y216714D02*
Y223480D01*
X221552Y211614D02*
Y217880D01*
X195444Y209646D02*
X219488D01*
X191252D02*
X195444D01*
X189452Y203654D02*
X195444Y209646D01*
X239348Y274887D02*
X245852Y268384D01*
X223952Y261879D02*
Y277579D01*
Y232680D02*
Y261879D01*
X246658Y290674D02*
X248652Y288680D01*
X233752Y303579D02*
X246658Y290674D01*
Y275362D02*
Y290674D01*
Y273368D02*
Y275362D01*
X248652Y229279D02*
Y273368D01*
X158152Y279062D02*
X177881D01*
X133752Y274679D02*
Y287779D01*
Y259780D02*
Y274679D01*
X130752Y249370D02*
Y271679D01*
X132452Y249370D02*
Y258479D01*
X130752Y249370D02*
X132452D01*
X130709D02*
X130752D01*
X222887Y189961D02*
X224998D01*
X219488D02*
X222887D01*
X225313Y189645D02*
X227079Y187880D01*
X224998Y189961D02*
X225313Y189645D01*
X193898Y219488D02*
Y246771D01*
X124761Y239370D02*
X125179D01*
X219552Y144621D02*
Y182087D01*
X209646Y117573D02*
Y174213D01*
Y116473D02*
Y117573D01*
X139418Y203913D02*
X140418Y202913D01*
X133252D02*
X140418D01*
X131252D02*
X133252D01*
X134252Y203913D01*
X132252Y201913D02*
X133252Y202913D01*
X130252Y191120D02*
X132252Y193120D01*
X124664Y185532D02*
X130252Y191120D01*
X260552Y38179D02*
X261152Y38780D01*
X47352Y227953D02*
Y236080D01*
X90152Y183780D02*
Y185432D01*
X86452Y210279D02*
Y213680D01*
X88552Y227953D02*
Y231979D01*
X186024Y259108D02*
Y261779D01*
Y259080D02*
Y259108D01*
X187356Y260537D02*
X190752Y264179D01*
X186024Y259108D02*
X187356Y260537D01*
X186024Y219488D02*
Y259080D01*
X195524Y268580D01*
X119252Y258179D02*
X120752Y259680D01*
X124652Y234370D02*
X130709D01*
X121452D02*
X124652D01*
X120752Y238270D02*
Y259680D01*
Y235070D02*
Y238270D01*
X124652Y234370D01*
X119252Y239770D02*
X120752Y238270D01*
X127652Y256979D02*
Y266079D01*
X124652Y245580D02*
Y251979D01*
Y244980D02*
Y245580D01*
X127657Y244980D02*
X130709Y244370D01*
X124652Y245580D02*
X127657Y244980D01*
X124652Y251979D02*
Y253979D01*
X127657Y244980D02*
X130099D01*
X124652D02*
X127657D01*
X89252Y144580D02*
Y152362D01*
X88152Y167079D02*
Y170079D01*
X202346Y190674D02*
X202652Y190980D01*
X201452Y189779D02*
X202346Y190674D01*
X208807D02*
X213492Y185988D01*
X208501Y190980D02*
X208807Y190674D01*
X202346D02*
X208807D01*
X201252D02*
X202346D01*
X201452Y182580D02*
X201772Y182260D01*
X199546Y184485D02*
X201452Y182580D01*
X358201Y276730D02*
X361452Y273480D01*
X356252Y278679D02*
X358201Y276730D01*
X164013Y216219D02*
X169013Y211219D01*
X156952Y211779D02*
Y219280D01*
Y207979D02*
Y211779D01*
X171852Y211614D02*
Y215680D01*
X142352Y211579D02*
X147452D01*
X205709Y184317D02*
Y186317D01*
Y174213D02*
Y184317D01*
X84952Y165380D02*
Y170079D01*
X244252Y163396D02*
X251552D01*
Y156096D02*
Y163396D01*
X247452Y195559D02*
X247759Y195866D01*
X249260D02*
X255369D01*
X247759D02*
X249260D01*
X247425Y195853D02*
X247452Y195879D01*
X247132Y195559D02*
X247425Y195853D01*
X247132Y195559D02*
X247452D01*
X247453Y195854D02*
X247759Y195866D01*
X247425Y195853D02*
X247453Y195854D01*
X239905Y195559D02*
X247425Y195853D01*
X196161Y375379D02*
X198752D01*
X189961Y208562D02*
Y215479D01*
X191929Y257257D02*
Y257279D01*
X145173Y187992D02*
X147173D01*
X333352Y294779D02*
X333913Y295341D01*
X331352Y292779D02*
X333352Y294779D01*
X91652Y238779D02*
Y239380D01*
Y197780D02*
Y238779D01*
X348913Y302979D02*
X360552D01*
X44252Y149279D02*
Y152252D01*
X45752Y196990D02*
Y199606D01*
X46752Y181480D02*
Y183714D01*
X343971Y304679D02*
Y316551D01*
X341413Y287380D02*
Y288003D01*
Y272979D02*
Y287380D01*
Y266003D02*
Y272979D01*
X341352Y266003D02*
Y272918D01*
X239905Y192379D02*
X243905D01*
X342847Y190879D02*
X345252D01*
X339852D02*
X342847D01*
X337550Y190187D02*
X339852Y187884D01*
X180807Y382680D02*
X187252D01*
X188484Y359579D02*
Y366016D01*
X181148Y358680D02*
X188484Y366016D01*
X178248Y355780D02*
X181148Y358680D01*
X152352Y204279D02*
X162734Y193898D01*
X152152Y204480D02*
X152352Y204279D01*
X162734Y193898D02*
X174213D01*
X159134D02*
X162734D01*
X154252Y242880D02*
Y244880D01*
X152152Y234370D02*
X152252D01*
X146063D02*
X152152D01*
X152352Y204279D02*
Y234270D01*
Y200679D02*
Y204279D01*
X293552Y316551D02*
X298324D01*
X293552Y201979D02*
Y311779D01*
Y316551D01*
Y197979D02*
Y201979D01*
Y197979D02*
X295552Y199979D01*
X260513Y52560D02*
Y55840D01*
X170571Y354579D02*
X174371Y358380D01*
X170571Y354579D02*
Y356061D01*
Y349508D02*
Y354579D01*
X168252Y358380D02*
X174371D01*
X159528Y199803D02*
X164252D01*
X358395Y213380D02*
X361652D01*
X358395D02*
Y213450D01*
Y203480D02*
Y213380D01*
X330350Y213087D02*
X343857Y199580D01*
X320252Y238879D02*
X322252D01*
X340154Y260787D02*
X342301D01*
X340154D02*
X340252Y260688D01*
X334203Y266737D02*
X340154Y260787D01*
X333913Y267027D02*
X334203Y266737D01*
X328252Y260787D02*
X340154D01*
X203352Y203780D02*
X204252D01*
X214644Y201979D02*
X214852D01*
X206052D02*
X214644D01*
X205152D02*
X206052D01*
X193752Y203780D02*
X203352D01*
X193452D02*
X193752D01*
X214852Y201772D02*
X215060D01*
X83421Y231780D02*
Y236080D01*
Y228783D02*
Y231780D01*
X85752Y141879D02*
Y152362D01*
X49452Y219679D02*
Y222679D01*
Y213779D02*
Y219679D01*
X50752Y152252D02*
Y153779D01*
X164352Y211779D02*
Y212579D01*
Y211779D02*
X170423Y205709D01*
X163552Y212579D02*
X164352Y211779D01*
X49952Y199606D02*
Y206879D01*
X178252Y226480D02*
Y228929D01*
X50952Y179780D02*
Y183714D01*
X214923Y225984D02*
X220718D01*
X128764Y278239D02*
Y281179D01*
X236552Y186880D02*
Y207314D01*
X232252Y211614D02*
X236552Y207314D01*
X238952Y186880D02*
X258052Y167780D01*
X207256Y306979D02*
X239348Y274887D01*
Y261879D02*
Y274887D01*
X180752Y246480D02*
X182087Y245145D01*
Y219488D02*
Y245145D01*
X246658Y290674D02*
Y315061D01*
Y275362D02*
X248652Y273368D01*
X227079Y181796D02*
X230195Y178680D01*
X232852Y83780D02*
X234052Y82579D01*
X122769Y255131D02*
X124335Y256697D01*
X122769Y241779D02*
Y255131D01*
Y241779D02*
X125179Y239370D01*
X130709D01*
X193898Y248480D02*
X196498Y251080D01*
X303552Y246079D02*
X308552Y251080D01*
X303552Y242580D02*
X304552Y241580D01*
Y168280D02*
Y241580D01*
Y168280D02*
X332952Y139880D01*
Y52866D02*
X342157Y43661D01*
X347333D01*
X349452Y45779D02*
Y49779D01*
X354488Y54816D02*
Y58110D01*
X205452Y113380D02*
X209646Y117573D01*
X261152Y38780D02*
X262352Y39979D01*
X40152Y227953D02*
X45669D01*
X87352Y180980D02*
X90067Y185432D01*
X137352Y59780D02*
Y80779D01*
X143471Y53661D02*
X152052D01*
X156502Y58110D02*
X157638D01*
X187992Y243820D02*
X188852Y244679D01*
X124652Y251979D02*
X129652Y256979D01*
X130099Y244980D02*
X130709Y244370D01*
X354488Y88110D02*
X360952Y94574D01*
X129652Y256979D02*
Y270479D01*
X187992Y219488D02*
Y243820D01*
X345013Y278679D02*
X356252D01*
X358201Y265764D02*
Y276730D01*
X49213Y108110D02*
X53982Y112880D01*
X64352D01*
X105452Y153980D01*
X156952Y211779D02*
X161391Y216219D01*
X164013D01*
X170586Y209646D02*
X174213D01*
X263552Y79779D02*
Y107780D01*
X258252Y113080D02*
X263552Y107780D01*
X251552Y115779D02*
X254252Y113080D01*
X251552Y163396D02*
X254955D01*
Y165574D01*
X186652Y205254D02*
X189961Y208562D01*
X115652Y187580D02*
X125386Y197313D01*
X45752Y180480D02*
X46752Y181480D01*
X46739Y183714D02*
X46752D01*
X59213Y48110D02*
X64182Y53079D01*
X181148Y358680D02*
X189384D01*
X229134D02*
Y367815D01*
X342101Y212988D02*
X344252D01*
X346452Y210788D01*
X345252Y190879D02*
X346452Y192079D01*
X339852Y187884D02*
X342847Y190879D01*
X339852Y187884D02*
X343957Y183780D01*
Y173917D02*
Y183780D01*
X328657Y190187D02*
X337550D01*
X339159D02*
X339852Y190879D01*
X256063Y48110D02*
X260513Y52560D01*
X258252Y62560D02*
X260513Y60299D01*
X251052Y61960D02*
X251652Y62560D01*
X251052Y54080D02*
Y61960D01*
X250552Y53579D02*
X251052Y54080D01*
X241613Y55779D02*
X243813Y53579D01*
X241613Y80941D02*
X243252Y82579D01*
X258252D02*
X260513Y80319D01*
Y77780D02*
X262113Y76179D01*
X274115D02*
X283839Y85903D01*
X284252Y187992D02*
Y188680D01*
X298324Y316551D02*
X338656D01*
X293552Y311779D02*
X298324Y316551D01*
X154152Y237179D02*
X159452Y242479D01*
X154152Y205180D02*
Y237179D01*
Y205180D02*
X159528Y199803D01*
X183366Y367375D02*
Y378051D01*
X353983Y238879D02*
X358395Y234468D01*
X322252Y238879D02*
X353983D01*
X320252Y236879D02*
X322252Y238879D01*
X320252Y215087D02*
Y236879D01*
Y215087D02*
X322252Y213087D01*
X324601D01*
X324864Y260787D02*
X328252D01*
X334203Y266737D01*
X333913Y283223D02*
X334203Y266737D01*
X333913Y267027D02*
Y283223D01*
X340252Y260688D02*
X342301D01*
X353957Y195374D02*
Y216272D01*
X355987Y218303D02*
X358130D01*
X358395Y218568D01*
X342101Y218303D02*
X355987D01*
X215060Y201772D02*
X219488D01*
X214852Y201979D02*
X215060Y201772D01*
X204252Y203780D02*
X206052Y201979D01*
X52979Y227953D02*
X64952Y215980D01*
X50197Y227953D02*
X52979D01*
X225828Y199803D02*
X225952Y199680D01*
X54252Y169919D02*
X74352Y190019D01*
X193474Y192579D02*
X194474Y191579D01*
X189152Y192579D02*
X193474D01*
X187352Y190779D02*
X189152Y192579D01*
X187352Y178879D02*
X187992Y178239D01*
X54252Y211179D02*
Y219079D01*
X182052Y200654D02*
X203278D01*
X55575Y160980D02*
X67987Y173393D01*
X55575Y147203D02*
Y160980D01*
X41152Y132780D02*
X55575Y147203D01*
X184052Y202454D02*
X188252D01*
X152252Y234370D02*
X152352Y234270D01*
Y200679D02*
X159134Y193898D01*
X154252Y241370D02*
Y242880D01*
X152252Y239370D02*
X154252Y241370D01*
X146063Y239370D02*
X152252D01*
X174213Y207677D02*
X178252D01*
X159252Y247929D02*
X178252Y228929D01*
X42952Y84371D02*
X49213Y78110D01*
X42952Y84371D02*
Y128379D01*
X57636Y152663D02*
X81400Y176427D01*
X98452Y196901D02*
X117631Y216079D01*
X135452D01*
X49213Y118110D02*
Y125840D01*
X65152Y141779D01*
Y157080D01*
X81152Y173080D01*
X96252D01*
X171852Y211614D02*
X174213D01*
X49409Y213779D02*
X49452D01*
X208552Y206780D02*
X211552Y203780D01*
X216852D02*
X219488Y203740D01*
X196752Y206780D02*
X208552D01*
X211552Y203780D02*
X216852D01*
X133052Y200113D02*
X145173Y187992D01*
X54763Y96267D02*
Y99954D01*
X57389Y102579D01*
X130252Y191120D02*
Y201913D01*
X131252Y202913D01*
X140418D02*
X153371Y189961D01*
X174213D01*
X50705Y152252D02*
X50752D01*
X49752Y154780D02*
X50752Y153779D01*
X43452Y154780D02*
X49752D01*
X42452Y153779D02*
X43452Y154780D01*
X42452Y152180D02*
Y153779D01*
X39352Y149080D02*
X42452Y152180D01*
X39352Y67779D02*
X43552Y63579D01*
X112452D02*
X132452Y83579D01*
X151452D01*
X150352Y92580D02*
X152152Y90780D01*
X143152Y95780D02*
X146352Y92580D01*
X143152Y140279D02*
X180252Y177380D01*
Y193180D01*
X182252Y195179D01*
X194952D01*
X197352Y192780D01*
X213734D01*
X214852Y193898D01*
X363752Y56679D02*
Y299780D01*
X295352Y249979D02*
X302652Y257279D01*
X298752Y79580D02*
Y237129D01*
Y79580D02*
X305752Y72579D01*
X174213Y201772D02*
X180934D01*
X203278Y200654D02*
X204752Y199179D01*
X208752D01*
X120752Y235070D02*
X121452Y234370D01*
X120752Y259680D02*
X122852Y261779D01*
X213492Y164479D02*
Y185988D01*
X199546Y188968D02*
X201252Y190674D01*
X199546Y184485D02*
Y188968D01*
X201772Y174213D02*
Y182260D01*
X84952Y165380D02*
X88252Y162080D01*
X202346Y187680D02*
X205709Y184317D01*
X37402Y245905D02*
X89526D01*
X132152Y182980D02*
X135196Y186023D01*
X174213D01*
X239905Y195559D02*
X247132D01*
X126840Y165738D02*
Y172356D01*
X132452Y258479D02*
X133752Y259780D01*
Y287779D02*
X137852Y291880D01*
X142852D01*
X143952Y290779D01*
Y281362D02*
Y290779D01*
X146252Y279062D02*
X148449D01*
X199352Y267779D02*
X217752Y249379D01*
X199352Y267779D02*
Y290680D01*
X168012Y322020D02*
X199352Y290680D01*
X168012Y322020D02*
Y349508D01*
X188484Y311347D02*
Y349508D01*
X219488Y209646D02*
X224029D01*
X234752Y198923D01*
X177881Y259333D02*
Y279062D01*
X186221Y267717D02*
Y287402D01*
X236852Y77321D02*
Y151979D01*
X234652Y154180D02*
X236852Y151979D01*
X234652Y154180D02*
Y174823D01*
X231995Y177480D02*
X234652Y174823D01*
X231995Y177480D02*
Y180736D01*
X229552Y183179D02*
X231995Y180736D01*
X226602Y191929D02*
X229552Y188979D01*
X195866Y244094D02*
X205752Y253979D01*
X301752Y241529D02*
Y250979D01*
X302552Y146879D02*
Y240729D01*
X334686Y41861D02*
X348239D01*
X197835Y235062D02*
X200252Y237479D01*
X205452D01*
X347657Y187880D02*
X353957Y181579D01*
Y173917D02*
Y181579D01*
Y139275D02*
Y173917D01*
X199803Y219488D02*
Y234089D01*
X208252Y235150D02*
Y241179D01*
X336757Y181980D02*
X338957Y179780D01*
Y63642D02*
Y173917D01*
Y63642D02*
X344488Y58110D01*
X223452Y130721D02*
Y184055D01*
X219488D02*
X223452D01*
X210652Y181117D02*
X211614Y180155D01*
Y174213D02*
Y180155D01*
X156005Y113661D02*
X162087D01*
X186024Y137597D02*
Y174213D01*
X152405Y138729D02*
X184055Y170379D01*
Y174213D01*
X59213Y68110D02*
X66983D01*
X133552Y134679D01*
X135934Y168161D02*
X166634D01*
X43691Y169919D02*
X45364D01*
X35752Y46679D02*
Y161979D01*
X247452Y35680D02*
X251552Y39779D01*
Y50269D01*
X37552Y47580D02*
Y151880D01*
X44252Y158580D01*
X46452D01*
X78052Y200180D02*
X80252Y202379D01*
X87252D01*
X88552Y199725D01*
X213315Y215543D02*
X214552Y216779D01*
X205709Y215586D02*
Y219488D01*
X215292Y187120D02*
X216165Y187992D01*
X215292Y91861D02*
Y187120D01*
X219488Y186023D02*
X225108D01*
X225254Y179378D02*
X228152Y176479D01*
X89252Y152362D02*
X89567D01*
X88152Y170079D02*
X89567D01*
X199552Y87779D02*
Y162620D01*
X203740Y166808D01*
Y174213D01*
X321652Y247610D02*
X324895Y244368D01*
X321652Y247610D02*
Y264779D01*
X322777Y265905D01*
X324864D01*
Y279792D01*
X332437Y287365D02*
X338913D01*
X358201Y265764D02*
X360252D01*
X219488Y207677D02*
X223452D01*
X232752Y183780D02*
X235352Y181179D01*
X214552Y206579D02*
X215423Y205709D01*
X260252Y8179D02*
X265952Y13880D01*
X43252Y8179D02*
X260252D01*
X32152Y19279D02*
X43252Y8179D01*
X32152Y19279D02*
Y173779D01*
X50352Y175779D02*
X54752Y180180D01*
X52352Y190180D02*
X54752Y187779D01*
X38952Y211779D02*
X40952Y213779D01*
X151388Y51861D02*
X153124D01*
X153887Y52624D01*
X188711D01*
X195866Y59780D02*
Y174213D01*
X152152Y62625D02*
X162087D01*
X193898Y94435D02*
Y174213D01*
X154283Y83661D02*
X167810D01*
X191929Y107780D02*
Y174213D01*
X144728Y184055D02*
X174213D01*
X56952Y73580D02*
X68952D01*
X54752Y75779D02*
X56952Y73580D01*
X54752Y75779D02*
Y91161D01*
X52252Y93661D02*
X54752Y91161D01*
X44763Y95780D02*
Y101071D01*
X46252Y102560D01*
X53662D01*
X59213Y108110D01*
X193602Y361879D02*
Y378051D01*
X199643Y355839D02*
X231411D01*
X236811Y361239D02*
Y367815D01*
X196161Y375379D02*
Y378051D01*
X200552Y373580D02*
X224152D01*
X224452Y373280D01*
X232252D02*
X234252Y371280D01*
X201772Y219488D02*
Y229999D01*
X204552Y232780D01*
X208652D01*
X210452Y234579D01*
Y243880D01*
X298552Y240930D02*
Y243880D01*
X300552Y81779D02*
Y238930D01*
Y81779D02*
X314252Y68080D01*
X203740Y214991D02*
X206252Y212479D01*
X246063Y61590D02*
X251552Y67080D01*
Y70880D01*
X253252Y72579D01*
X258735D02*
X264152Y67163D01*
X258652Y16780D02*
X264152Y22279D01*
X33952Y23079D02*
X40252Y16780D01*
X33952Y23079D02*
Y171080D01*
X36852Y173979D02*
X54052D01*
X45252Y148280D02*
X52052D01*
X44252Y152252D02*
X46177D01*
X147638Y118110D02*
Y137731D01*
X182087Y172179D01*
X148252Y181079D02*
X149259Y182087D01*
X174213D01*
X126252Y366580D02*
X167853D01*
X175689Y374416D02*
Y378051D01*
X147872Y361886D02*
X170953D01*
X178248Y369181D01*
X239792Y54381D02*
X246063Y48110D01*
X239792Y54381D02*
Y158081D01*
X236536D02*
X239792D01*
X236536D02*
Y165779D01*
X237376Y166619D01*
X239905Y190244D02*
X241752D01*
X239905D02*
Y192379D01*
X212865Y194580D02*
X214152Y195866D01*
X202104Y194580D02*
X212865D01*
X199630Y197054D02*
X202104Y194580D01*
X178252Y193898D02*
X181408Y197054D01*
X187252Y382680D02*
X188484Y381447D01*
X180807Y378051D02*
Y382680D01*
X219084Y300580D02*
Y312834D01*
X227053Y314767D02*
X230910D01*
X320252Y190187D02*
X328657D01*
X315952Y194486D02*
Y245379D01*
X318652Y248079D01*
Y277279D01*
X330537Y289165D02*
X340252D01*
X341413Y266003D02*
X342301D01*
X343913Y304679D02*
X343971D01*
X273504Y196653D02*
X278652D01*
X279046Y197047D01*
X284252D01*
X272936Y166361D02*
X283839D01*
X263243Y192126D02*
X273504D01*
X262829Y161834D02*
X272936D01*
X129252Y386179D02*
X188643D01*
X191043Y383780D01*
X283839Y157306D02*
Y159666D01*
X288152Y163979D01*
X290752Y320180D02*
X293552Y317380D01*
X338656Y310737D02*
Y316551D01*
X238348Y320034D02*
X242352D01*
X348957Y168515D02*
Y173917D01*
X348921Y168480D02*
X348957Y168515D01*
X348921Y163124D02*
Y168480D01*
X238348Y320034D02*
Y322698D01*
X274705Y359055D01*
X234552Y320082D02*
X234600Y320034D01*
X230910Y320082D02*
X234552D01*
X239370Y363280D02*
Y367815D01*
X227053Y320082D02*
X230910D01*
X223256Y319980D02*
X226952D01*
X215256D02*
X223256D01*
X207256D02*
X215256D01*
X68740Y295275D02*
X72044Y298580D01*
X103201D01*
X116652Y285128D02*
X118827D01*
X80974Y346880D02*
X104252D01*
X108452Y357945D02*
X110252Y359746D01*
X113301D01*
X138661Y226579D02*
X141452Y229370D01*
X146063D01*
X68740Y291779D02*
Y295275D01*
X115352Y231480D02*
Y245168D01*
X174213Y195866D02*
Y197835D01*
X135956Y359746D02*
X142586D01*
X174371Y358380D02*
X183366Y367375D01*
X174213Y199803D02*
X179728D01*
X201430Y198854D02*
X203904Y196379D01*
X213307Y197835D02*
X219488D01*
X348957Y191779D02*
Y195374D01*
Y191779D02*
X350962Y189775D01*
X354447D02*
X356452Y191779D01*
X324895Y234368D02*
X348464D01*
X342301Y260688D02*
X350152D01*
X148449Y284377D02*
Y308177D01*
X165453Y325180D01*
X118852Y352856D02*
X118919Y352788D01*
X124648D01*
X141852Y352856D02*
X141877Y352831D01*
X147872D01*
X348913Y283223D02*
Y289779D01*
X353826Y294692D01*
X358013D01*
X128764Y285128D02*
Y296979D01*
X162894Y331109D01*
X173130Y329557D02*
Y349508D01*
X138703Y286080D02*
X141152Y288529D01*
X328657Y195305D02*
X333752D01*
X333821Y195374D01*
X338957D01*
X85852Y185432D02*
X87252Y186832D01*
X80852Y198679D02*
X81897Y199725D01*
X197835Y174213D02*
Y180796D01*
X81152Y213680D02*
X83567D01*
X81152Y206080D02*
Y213680D01*
X202452Y118180D02*
X207677Y123405D01*
Y174213D01*
X32952Y320196D02*
X37402Y324646D01*
X32952Y188634D02*
X44006Y177579D01*
X48752D01*
X193898Y246771D02*
Y248480D01*
X221552Y211614D02*
X232252D01*
X219488D02*
X221552D01*
X245852Y261879D02*
Y268384D01*
Y232680D02*
Y261879D01*
X248652Y273368D02*
Y288680D01*
X158152Y279062D02*
X177881Y259333D01*
X361452Y264564D02*
Y273480D01*
Y247525D02*
Y264564D01*
X239792Y163396D02*
X244252D01*
X341352Y266003D02*
X341413D01*
X337550Y190187D02*
X339159D01*
X188484Y366016D02*
Y378051D01*
X143952Y358380D02*
X168252D01*
X68740Y255906D02*
Y291779D01*
X189452Y207846D02*
X191252Y209646D01*
X189452Y203654D02*
Y207846D01*
X188252Y202454D02*
X189452Y203654D01*
X180139Y206366D02*
X184052Y202454D01*
X180139Y206366D02*
Y231198D01*
X138703Y272634D02*
X180139Y231198D01*
X138703Y272634D02*
Y278030D01*
X246658Y273368D02*
X248652D01*
X219488Y191929D02*
X226602D01*
X229552Y183179D02*
Y188979D01*
X308552Y251080D02*
X314652D01*
X303552Y242580D02*
Y246079D01*
X332952Y52866D02*
Y139880D01*
X347333Y43661D02*
X349452Y45779D01*
Y49779D02*
X354488Y54816D01*
X193898Y246771D02*
X194752Y247625D01*
X122252Y241880D02*
X124761Y239370D01*
X348239Y41861D02*
X354488Y48110D01*
X326952Y49595D02*
X334686Y41861D01*
X326952Y49595D02*
Y122479D01*
X302552Y146879D02*
X326952Y122479D01*
X301752Y241529D02*
X302552Y240729D01*
X301752Y250979D02*
X304752Y253979D01*
X195866Y219488D02*
Y244094D01*
X349552Y134870D02*
X353957Y139275D01*
X349552Y53174D02*
Y134870D01*
X344488Y48110D02*
X349552Y53174D01*
X199803Y234089D02*
X200302Y234588D01*
X207690D01*
X208252Y235150D01*
X204552Y244880D02*
X208252Y241179D01*
X306352Y194179D02*
Y244880D01*
Y194179D02*
X318552Y181980D01*
X336757D01*
X338957Y173917D02*
Y179780D01*
X133552Y134679D02*
Y165779D01*
X135934Y168161D01*
X166634D02*
X178252Y179780D01*
Y191929D01*
X174213D02*
X178252D01*
X45669Y227953D02*
X47352D01*
X262352Y39979D02*
Y61821D01*
X256063Y68110D02*
X262352Y61821D01*
X88552Y199725D02*
X88843D01*
X78052Y190180D02*
Y200180D01*
X46452Y158580D02*
X78052Y190180D01*
X37552Y47580D02*
X41552Y43580D01*
X153107D01*
X157638Y48110D01*
X360952Y94574D02*
Y196379D01*
X124652Y253979D02*
X127652Y256979D01*
X207677Y219488D02*
Y228705D01*
X225108Y186023D02*
X225254Y185878D01*
Y179378D02*
Y185878D01*
X228152Y116021D02*
Y176479D01*
X360252Y265764D02*
X361452Y264564D01*
X96252Y173080D02*
X102352Y179180D01*
Y196379D01*
X117552Y211579D01*
X142352D01*
X95652Y187779D02*
Y239779D01*
X204346Y187680D02*
X205709Y186317D01*
X84952Y170079D02*
X85039D01*
X88252Y162080D02*
X98552Y171080D01*
X89526Y245905D02*
X95652Y239779D01*
X126840Y172356D02*
X132152Y177668D01*
X59213Y98110D02*
X126840Y165738D01*
X231411Y355839D02*
X236811Y361239D01*
X193602Y361879D02*
X199643Y355839D01*
X115652Y165980D02*
Y187580D01*
X186652Y205254D02*
Y212171D01*
X189961Y215479D01*
Y219488D01*
X298552Y240930D02*
X300552Y238930D01*
X180934Y201772D02*
X182052Y200654D01*
X41152Y76171D02*
X49213Y68110D01*
X41152Y76171D02*
Y132780D01*
X67987Y173393D02*
X91652Y197780D01*
X333913Y295341D02*
Y304679D01*
X169052Y203740D02*
X174213D01*
X168634Y203322D02*
X169052Y203740D01*
X98452Y183780D02*
Y196901D01*
X91100Y176427D02*
X98452Y183780D01*
X81400Y176427D02*
X91100D01*
X57636Y143063D02*
Y152663D01*
X42952Y128379D02*
X57636Y143063D01*
X348913Y302979D02*
Y304679D01*
X360552Y302979D02*
X363752Y299780D01*
X219488Y195866D02*
X227165D01*
X229952Y193079D01*
X188484Y359579D02*
X189384Y358680D01*
X104202Y279814D02*
X118827D01*
X88740Y295275D02*
X104202Y279814D01*
X258873Y54200D02*
X260513Y52560D01*
Y55840D02*
Y60299D01*
X283839Y85903D02*
Y157306D01*
X262113Y76179D02*
X274115D01*
X260513Y77780D02*
Y80319D01*
X243252Y82579D02*
X258252D01*
X241613Y55779D02*
Y80941D01*
X243813Y53579D02*
X250552D01*
X251652Y62560D02*
X258252D01*
X258873Y54200D02*
X260513Y55840D01*
X348957Y173917D02*
Y180879D01*
X246658Y320180D02*
X290752D01*
X293552Y316551D02*
Y317380D01*
X284252Y188680D02*
X293552Y197979D01*
X68740Y291779D02*
X115352Y245168D01*
Y231480D02*
X120252Y226579D01*
X138661D01*
X159752Y204303D02*
Y217779D01*
Y204303D02*
X164252Y199803D01*
X174213D01*
X361652Y213380D02*
Y221180D01*
X348464Y234368D02*
X361652Y221180D01*
X343957Y195374D02*
Y199479D01*
X324601Y213087D02*
X330350D01*
X342301Y260688D02*
Y260787D01*
X353957Y216272D02*
X355987Y218303D01*
X203352Y203780D02*
X205152Y201979D01*
X214644D02*
X214852Y201772D01*
X219488Y199803D02*
X225828D01*
X74352Y190019D02*
Y229579D01*
X49891Y169919D02*
X54252D01*
X85539Y185432D02*
X85852D01*
X87252Y186832D02*
Y188880D01*
X199803Y168231D02*
Y174213D01*
X192851Y185780D02*
X197835Y180796D01*
X81897Y199725D02*
X84316D01*
X189961Y188988D02*
X190152Y189180D01*
X189961Y174213D02*
Y188988D01*
X187992Y174213D02*
Y178239D01*
X187352Y178879D02*
Y190779D01*
X83421Y236080D02*
X83452D01*
X83421Y228783D02*
X84252Y227953D01*
X84355D01*
X202452Y104180D02*
Y118180D01*
X85039Y152362D02*
X85752D01*
X36252Y232879D02*
X49452Y219679D01*
X39352Y67779D02*
Y149080D01*
X43552Y63579D02*
X112452D01*
X151452Y83579D02*
X152152Y84280D01*
Y90780D01*
X146352Y92580D02*
X150352D01*
X143152Y95780D02*
Y140279D01*
X214852Y193898D02*
X219488D01*
X49952Y199606D02*
X50000D01*
X49952Y206879D02*
X54252Y211179D01*
X170423Y205709D02*
X174213D01*
X50952Y183714D02*
X51267D01*
X48752Y177579D02*
X50952Y179780D01*
X32952Y188634D02*
Y320196D01*
X142586Y359746D02*
X143952Y358380D01*
X178248Y349508D02*
Y355780D01*
X178252Y207677D02*
Y226480D01*
X159252Y245479D02*
X178252Y226480D01*
X215256Y314665D02*
X217252D01*
X219084Y312834D01*
X103201Y298580D02*
X116652Y285128D01*
X123861Y229370D02*
X130709D01*
X117249Y235983D02*
X123861Y229370D01*
X117249Y235983D02*
Y262476D01*
X125052Y270280D01*
X346452Y192079D02*
Y210788D01*
X256063Y54779D02*
Y58110D01*
X251552Y50269D02*
X256063Y54779D01*
X46752Y35680D02*
X247452D01*
X35752Y46679D02*
X46752Y35680D01*
X35752Y161979D02*
X43691Y169919D01*
X86452Y213680D02*
X88095D01*
X152052Y53661D02*
X156502Y58110D01*
X137352Y59780D02*
X143471Y53661D01*
X82952Y180980D02*
X87352D01*
X90152Y183780D01*
X90067Y185432D02*
X90152D01*
X100452Y151779D02*
Y166680D01*
X66783Y118110D02*
X100452Y151779D01*
X59213Y118110D02*
X66783D01*
X45472Y199606D02*
X45752D01*
X42952Y194190D02*
X45752Y196990D01*
X44252Y149279D02*
X45252Y148280D01*
X33952Y171080D02*
X36852Y173979D01*
X40252Y16780D02*
X258652D01*
X264152Y22279D02*
Y67163D01*
X253252Y72579D02*
X258735D01*
X246063Y58110D02*
Y61590D01*
X254252Y113080D02*
X258252D01*
X251552Y115779D02*
Y156096D01*
X244252Y163396D02*
X251552Y156096D01*
X40952Y213779D02*
X44882D01*
X38952Y193480D02*
Y211779D01*
Y193480D02*
X42252Y190180D01*
X52352D01*
X54752Y180180D02*
Y187779D01*
X34152Y175779D02*
X50352D01*
X32152Y173779D02*
X34152Y175779D01*
X265952Y13880D02*
Y68221D01*
X256063Y78110D02*
X265952Y68221D01*
X169013Y211219D02*
X170586Y209646D01*
X169013Y211219D02*
Y216219D01*
X164652Y220580D02*
X169013Y216219D01*
X158252Y220580D02*
X164652D01*
X156952Y219280D02*
X158252Y220580D01*
X119652Y207979D02*
X149006D01*
X105452Y193780D02*
X119652Y207979D01*
X105452Y153980D02*
Y193780D01*
X59213Y78110D02*
X63752Y82650D01*
Y91079D01*
X62252Y92580D02*
X63752Y91079D01*
X58451Y92580D02*
X62252D01*
X54763Y96267D02*
X58451Y92580D01*
X57389Y102579D02*
X60053D01*
X124664Y167191D01*
Y185532D01*
X132252Y193120D02*
Y201913D01*
X134252Y203913D02*
X139418D01*
X152152Y204480D02*
Y234370D01*
X200752Y79879D02*
X212052Y91180D01*
Y163039D01*
X213492Y164479D01*
X202652Y190980D02*
X208501D01*
X201452Y182580D02*
Y189779D01*
X88552Y227953D02*
X88882D01*
X136852Y98896D02*
Y164779D01*
Y98896D02*
X147638Y88110D01*
X179728Y199803D02*
X180678Y198854D01*
X201430D01*
X203904Y196379D02*
X211852D01*
X213307Y197835D01*
X214152Y195866D02*
X219488D01*
X181408Y197054D02*
X199630D01*
X174213Y193898D02*
X178252D01*
X147173Y187992D02*
X174213D01*
X135052Y200113D02*
X147173Y187992D01*
X237376Y166619D02*
X243692D01*
X246452Y169379D01*
X241752Y190244D02*
X244488Y187508D01*
X232752Y183780D02*
Y198377D01*
X223452Y207677D02*
X232752Y198377D01*
X222887Y189961D02*
X223202Y189645D01*
X225313D01*
X227079Y181796D02*
Y187880D01*
X230195Y167476D02*
Y178680D01*
Y167476D02*
X232852Y164819D01*
Y83780D02*
Y164819D01*
X234752Y185080D02*
Y198923D01*
Y185080D02*
X238052D01*
X238652Y184479D01*
Y169980D02*
Y184479D01*
X256063Y118110D02*
Y150490D01*
X258052Y152480D01*
Y167780D01*
X236552Y186880D02*
X238952D01*
X147638Y68110D02*
X152483Y72956D01*
Y81861D01*
X154283Y83661D01*
X167810D02*
X191929Y107780D01*
X147638Y58110D02*
X152152Y62625D01*
X162087D02*
X193898Y94435D01*
X147638Y48110D02*
X151388Y51861D01*
X188711Y52624D02*
X195866Y59780D01*
X207252Y114079D02*
X209646Y116473D01*
X219488Y182087D02*
X219552D01*
X216165Y187992D02*
X219488D01*
X295352Y240529D02*
X298752Y237129D01*
X295352Y240529D02*
Y249979D01*
X191929Y219488D02*
Y257257D01*
X119252Y239770D02*
Y258179D01*
X324864Y279792D02*
X332437Y287365D01*
X338913Y283223D02*
Y287365D01*
X340252Y289165D02*
X341413Y288003D01*
X318652Y277279D02*
X330537Y289165D01*
X315952Y194486D02*
X320252Y190187D01*
X170571Y378051D02*
Y382680D01*
X180807D01*
X221552Y217880D02*
X227152Y223480D01*
X124252Y281179D02*
X128764D01*
X217752Y233080D02*
Y249379D01*
X209646Y219488D02*
Y224973D01*
X213102Y228430D01*
X188484Y311347D02*
X220718Y279113D01*
X211614Y219488D02*
Y222675D01*
X220718Y231780D02*
Y279113D01*
X207256Y306979D02*
Y314862D01*
X130752Y271679D02*
X133752Y274679D01*
X143952Y281362D02*
X146252Y279062D01*
X177881D02*
X186221Y287402D01*
X177881Y259333D02*
X184055Y253158D01*
Y219488D02*
Y253158D01*
X148449Y279062D02*
X158152D01*
X343952Y187880D02*
X347657D01*
X197835Y219488D02*
Y235062D01*
X147638Y98110D02*
X152087Y102560D01*
Y109743D01*
X156005Y113661D01*
X162087D02*
X186024Y137597D01*
X147638Y108110D02*
X152405Y112877D01*
Y138729D01*
X205752Y215543D02*
X213315D01*
X205709Y215586D02*
X205752Y215543D01*
X343913Y279780D02*
Y283223D01*
Y279780D02*
X345013Y278679D01*
X358395Y244468D02*
X361452Y247525D01*
X215423Y205709D02*
X219488D01*
X128752Y168079D02*
X144728Y184055D01*
X128752Y133379D02*
Y168079D01*
X68952Y73580D02*
X128752Y133379D01*
X46882Y93661D02*
X52252D01*
X44763Y95780D02*
X46882Y93661D01*
X198752Y375379D02*
X200552Y373580D01*
X224452Y373280D02*
X232252D01*
X234252Y367815D02*
Y371280D01*
X203740Y214991D02*
Y219488D01*
X206252Y212479D02*
X212852D01*
X182087Y172179D02*
Y174213D01*
X124648Y361843D02*
Y364976D01*
X126252Y366580D01*
X167853D02*
X175689Y374416D01*
X178248Y369181D02*
Y378051D01*
X188484D02*
Y381447D01*
X223256Y314665D02*
X226952D01*
X227053Y314767D01*
X341352Y272918D02*
X341413Y272979D01*
Y287380D02*
X343913Y289879D01*
Y304679D01*
X104201Y358958D02*
Y361129D01*
X129252Y386179D01*
X191043Y378051D02*
Y383780D01*
X49213Y48110D02*
Y58110D01*
X288152Y163979D02*
Y175180D01*
X284252Y179079D02*
X288152Y175180D01*
X284252Y179079D02*
Y187992D01*
X338656Y310737D02*
X338913Y310479D01*
Y304679D02*
Y310479D01*
X242498Y320180D02*
X246658D01*
X242352Y320034D02*
X242498Y320180D01*
X234600Y320034D02*
X238348D01*
X243595Y359055D02*
X274705D01*
X239370Y363280D02*
X243595Y359055D01*
X226952Y319980D02*
X227053Y320082D01*
X183366Y378051D02*
X185925D01*
X168252Y358380D02*
X170571Y356061D01*
X131118Y359746D02*
X135956D01*
X129352Y357979D02*
X131118Y359746D01*
X119818Y357979D02*
X129352D01*
X118052Y359746D02*
X119818Y357979D01*
X113301Y359746D02*
X118052D01*
X108452Y351080D02*
Y357945D01*
X104252Y346880D02*
X108452Y351080D01*
X68740Y334646D02*
X80974Y346880D01*
X68740Y295275D02*
Y334646D01*
X174213Y197835D02*
Y199803D01*
X350962Y189775D02*
X354447D01*
X356452Y191779D02*
Y201537D01*
X358395Y203480D01*
X317752Y236380D02*
X320252Y238879D01*
X317752Y205780D02*
Y236380D01*
Y205780D02*
X323952Y199580D01*
X343857D01*
X343957Y199479D01*
X350152Y260688D02*
X350195Y260646D01*
X358201D01*
X165453Y325180D02*
Y349508D01*
X324601Y218205D02*
X333252D01*
X333350Y218303D01*
X342101D01*
X113301Y352856D02*
X118852D01*
X135956D02*
X141852D01*
X162894Y331109D02*
Y349508D01*
X138703Y284920D02*
Y286080D01*
D18*
X84316Y199725D02*
D03*
X88843D02*
D03*
X85039Y152362D02*
D03*
X89567D02*
D03*
X50000Y199606D02*
D03*
X45472D02*
D03*
X51267Y183714D02*
D03*
X46739D02*
D03*
X50705Y152252D02*
D03*
X46177D02*
D03*
X84355Y227953D02*
D03*
X88882D02*
D03*
X83567Y213680D02*
D03*
X88095D02*
D03*
X85539Y185432D02*
D03*
X90067D02*
D03*
X85039Y170079D02*
D03*
X89567D02*
D03*
X50197Y227953D02*
D03*
X45669D02*
D03*
X49409Y213779D02*
D03*
X44882D02*
D03*
X49891Y169919D02*
D03*
X45364D02*
D03*
D19*
X162894Y349508D02*
D03*
X165453D02*
D03*
X168012D02*
D03*
X170571D02*
D03*
X173130D02*
D03*
X175689D02*
D03*
X178248D02*
D03*
X180807D02*
D03*
X183366D02*
D03*
X185925D02*
D03*
X188484D02*
D03*
X191043D02*
D03*
X193602D02*
D03*
X196161D02*
D03*
X162894Y378051D02*
D03*
X165453D02*
D03*
X168012D02*
D03*
X170571D02*
D03*
X173130D02*
D03*
X175689D02*
D03*
X178248D02*
D03*
X180807D02*
D03*
X183366D02*
D03*
X185925D02*
D03*
X188484D02*
D03*
X191043D02*
D03*
X193602D02*
D03*
X196161D02*
D03*
D20*
X174213Y211614D02*
D03*
Y209646D02*
D03*
Y207677D02*
D03*
Y205709D02*
D03*
Y203740D02*
D03*
Y201772D02*
D03*
Y199803D02*
D03*
Y197835D02*
D03*
Y195866D02*
D03*
Y193898D02*
D03*
Y191929D02*
D03*
Y189961D02*
D03*
Y187992D02*
D03*
Y186023D02*
D03*
Y184055D02*
D03*
Y182087D02*
D03*
X219488D02*
D03*
Y184055D02*
D03*
Y186023D02*
D03*
Y187992D02*
D03*
Y189961D02*
D03*
Y191929D02*
D03*
Y193898D02*
D03*
Y195866D02*
D03*
Y197835D02*
D03*
Y199803D02*
D03*
Y201772D02*
D03*
Y203740D02*
D03*
Y205709D02*
D03*
Y207677D02*
D03*
Y209646D02*
D03*
Y211614D02*
D03*
D21*
X182087Y174213D02*
D03*
X184055D02*
D03*
X186024D02*
D03*
X187992D02*
D03*
X189961D02*
D03*
X191929D02*
D03*
X193898D02*
D03*
X195866D02*
D03*
X197835D02*
D03*
X199803D02*
D03*
X201772D02*
D03*
X203740D02*
D03*
X205709D02*
D03*
X207677D02*
D03*
X209646D02*
D03*
X211614D02*
D03*
Y219488D02*
D03*
X209646D02*
D03*
X207677D02*
D03*
X205709D02*
D03*
X203740D02*
D03*
X201772D02*
D03*
X199803D02*
D03*
X197835D02*
D03*
X195866D02*
D03*
X193898D02*
D03*
X191929D02*
D03*
X189961D02*
D03*
X187992D02*
D03*
X186024D02*
D03*
X184055D02*
D03*
X182087D02*
D03*
D22*
X353957Y195374D02*
D03*
X348957D02*
D03*
X343957D02*
D03*
X338957D02*
D03*
X353957Y173917D02*
D03*
X348957D02*
D03*
X343957D02*
D03*
X338957D02*
D03*
X333913Y283223D02*
D03*
X338913D02*
D03*
X343913D02*
D03*
X348913D02*
D03*
X333913Y304679D02*
D03*
X338913D02*
D03*
X343913D02*
D03*
X348913D02*
D03*
D23*
X135956Y359746D02*
D03*
Y352856D02*
D03*
X113301Y359746D02*
D03*
Y352856D02*
D03*
X138703Y278030D02*
D03*
Y284920D02*
D03*
X128764Y278239D02*
D03*
Y285128D02*
D03*
D24*
X246658Y315061D02*
D03*
Y320180D02*
D03*
X207256Y314862D02*
D03*
Y319980D02*
D03*
X328657Y190187D02*
D03*
Y195305D02*
D03*
X324601Y218205D02*
D03*
Y213087D02*
D03*
X358395Y213450D02*
D03*
Y218568D02*
D03*
X358013Y299810D02*
D03*
Y294692D02*
D03*
X358201Y260646D02*
D03*
Y265764D02*
D03*
X324864Y265905D02*
D03*
Y260787D02*
D03*
D25*
X272936Y166361D02*
D03*
Y161834D02*
D03*
X273504Y196653D02*
D03*
Y192126D02*
D03*
D26*
X130709Y249370D02*
D03*
X146063D02*
D03*
X130709Y244370D02*
D03*
X146063D02*
D03*
X130709Y239370D02*
D03*
X146063D02*
D03*
X130709Y234370D02*
D03*
X146063D02*
D03*
X130709Y229370D02*
D03*
X146063D02*
D03*
D27*
X262829Y161834D02*
D03*
X254955Y158094D02*
D03*
Y165574D02*
D03*
X263243Y192126D02*
D03*
X255369Y188385D02*
D03*
Y195866D02*
D03*
D28*
X239370Y367815D02*
D03*
X236811D02*
D03*
X234252D02*
D03*
X231693D02*
D03*
X229134D02*
D03*
D29*
X246850Y368701D02*
D03*
X221654D02*
D03*
D30*
X247736Y378346D02*
D03*
X220768D02*
D03*
D31*
X238976D02*
D03*
X229528D02*
D03*
D32*
X147872Y352831D02*
D03*
Y361886D02*
D03*
X124648Y361843D02*
D03*
Y352788D02*
D03*
X283839Y157306D02*
D03*
Y166361D02*
D03*
X284252Y187992D02*
D03*
Y197047D02*
D03*
D33*
X223256Y319980D02*
D03*
Y314665D02*
D03*
X230910Y320082D02*
D03*
Y314767D02*
D03*
X238348Y320034D02*
D03*
Y314719D02*
D03*
X215256Y319980D02*
D03*
Y314665D02*
D03*
X342101Y218303D02*
D03*
Y212988D02*
D03*
X104201Y358958D02*
D03*
Y353643D02*
D03*
X118827Y285128D02*
D03*
Y279814D02*
D03*
X148449Y279062D02*
D03*
Y284377D02*
D03*
X342301Y260688D02*
D03*
Y266003D02*
D03*
X239792Y158081D02*
D03*
Y163396D02*
D03*
X239905Y190244D02*
D03*
Y195559D02*
D03*
D34*
X348921Y163124D02*
D03*
X343606D02*
D03*
X338656Y316551D02*
D03*
X343971D02*
D03*
D58*
X37402Y324646D02*
D03*
Y334646D02*
D03*
Y285276D02*
D03*
Y295275D02*
D03*
Y245905D02*
D03*
Y255906D02*
D03*
X324895Y244368D02*
D03*
Y234368D02*
D03*
X358395Y244468D02*
D03*
Y234468D02*
D03*
X338583Y359842D02*
D03*
Y349843D02*
D03*
X354488Y118110D02*
D03*
Y108110D02*
D03*
Y98110D02*
D03*
Y88110D02*
D03*
Y78110D02*
D03*
Y68110D02*
D03*
Y58110D02*
D03*
Y48110D02*
D03*
X344488D02*
D03*
Y58110D02*
D03*
Y68110D02*
D03*
Y78110D02*
D03*
Y88110D02*
D03*
Y98110D02*
D03*
Y108110D02*
D03*
Y118110D02*
D03*
X256063D02*
D03*
Y108110D02*
D03*
Y98110D02*
D03*
Y88110D02*
D03*
Y78110D02*
D03*
Y68110D02*
D03*
Y58110D02*
D03*
Y48110D02*
D03*
X246063D02*
D03*
Y58110D02*
D03*
Y68110D02*
D03*
Y78110D02*
D03*
Y88110D02*
D03*
Y98110D02*
D03*
Y108110D02*
D03*
Y118110D02*
D03*
X157638D02*
D03*
Y108110D02*
D03*
Y98110D02*
D03*
Y88110D02*
D03*
Y78110D02*
D03*
Y68110D02*
D03*
Y58110D02*
D03*
Y48110D02*
D03*
X147638D02*
D03*
Y58110D02*
D03*
Y68110D02*
D03*
Y78110D02*
D03*
Y88110D02*
D03*
Y98110D02*
D03*
Y108110D02*
D03*
Y118110D02*
D03*
X59213D02*
D03*
Y108110D02*
D03*
Y98110D02*
D03*
Y88110D02*
D03*
Y78110D02*
D03*
Y68110D02*
D03*
Y58110D02*
D03*
Y48110D02*
D03*
X49213D02*
D03*
Y58110D02*
D03*
Y68110D02*
D03*
Y78110D02*
D03*
Y88110D02*
D03*
Y98110D02*
D03*
Y108110D02*
D03*
Y118110D02*
D03*
X186221Y267717D02*
D03*
X205906D02*
D03*
X186221Y287402D02*
D03*
X205906D02*
D03*
D59*
X78740Y295275D02*
D03*
X88740D02*
D03*
X68740D02*
D03*
X78740Y255906D02*
D03*
X88740D02*
D03*
X68740D02*
D03*
X78740Y334646D02*
D03*
X88740D02*
D03*
X68740D02*
D03*
D60*
X320571Y359055D02*
D03*
D61*
X274705D02*
D03*
D62*
X15748Y15748D02*
D03*
X374016D02*
D03*
Y374016D02*
D03*
X15748D02*
D03*
D63*
X124252Y281179D02*
D03*
X227152D02*
D03*
X239348Y261879D02*
D03*
X125052Y270280D02*
D03*
X223952Y277579D02*
D03*
Y261879D02*
D03*
X245852Y232680D02*
D03*
Y261879D02*
D03*
X180752Y246480D02*
D03*
X233752Y303579D02*
D03*
X248652Y229279D02*
D03*
X234052Y82579D02*
D03*
X124335Y256697D02*
D03*
X196498Y251080D02*
D03*
X314652D02*
D03*
X205452Y113380D02*
D03*
X261152Y38780D02*
D03*
X40152Y227953D02*
D03*
X82952Y180980D02*
D03*
X137352Y80779D02*
D03*
X88552Y231979D02*
D03*
X136852Y164779D02*
D03*
X129652Y256979D02*
D03*
X360952Y196379D02*
D03*
X129652Y270479D02*
D03*
X188852Y244679D02*
D03*
X149006Y207979D02*
D03*
X156952D02*
D03*
X263552Y79779D02*
D03*
X186652Y205254D02*
D03*
X125386Y197313D02*
D03*
X115652Y165980D02*
D03*
X45752Y180480D02*
D03*
X64182Y53079D02*
D03*
X229134Y358680D02*
D03*
X189384D02*
D03*
X295552Y199979D02*
D03*
X348957Y180879D02*
D03*
X159452Y242479D02*
D03*
X193752Y203780D02*
D03*
X64952Y215980D02*
D03*
X225952Y199680D02*
D03*
X74352Y229579D02*
D03*
X83421Y231780D02*
D03*
X194474Y191579D02*
D03*
X54252Y219079D02*
D03*
X163552Y212579D02*
D03*
X208752Y199179D02*
D03*
X91652Y239380D02*
D03*
X154252Y242880D02*
D03*
X159252Y247929D02*
D03*
X195524Y268580D02*
D03*
X135452Y216079D02*
D03*
X147452Y211579D02*
D03*
X171852Y215680D02*
D03*
X49452Y222679D02*
D03*
X196752Y206780D02*
D03*
X133052Y200113D02*
D03*
X191929Y257279D02*
D03*
X302652D02*
D03*
X305752Y72579D02*
D03*
X331352Y292779D02*
D03*
X122852Y261779D02*
D03*
X186024D02*
D03*
X200752Y79879D02*
D03*
X98552Y171080D02*
D03*
X202346Y187680D02*
D03*
X95652Y187779D02*
D03*
X247452Y195879D02*
D03*
X132152Y182980D02*
D03*
Y177668D02*
D03*
X217752Y233080D02*
D03*
X220718Y225984D02*
D03*
X238652Y169980D02*
D03*
X236852Y77321D02*
D03*
X205752Y253979D02*
D03*
X304752D02*
D03*
X205452Y237479D02*
D03*
X343952Y187880D02*
D03*
X204552Y244880D02*
D03*
X306352D02*
D03*
X223452Y130721D02*
D03*
X219552Y144621D02*
D03*
X210652Y181117D02*
D03*
X86452Y210279D02*
D03*
X214552Y216779D02*
D03*
X207677Y228705D02*
D03*
X215292Y91861D02*
D03*
X228152Y116021D02*
D03*
X89252Y144580D02*
D03*
X88152Y167079D02*
D03*
X199552Y87779D02*
D03*
X235352Y181179D02*
D03*
X214552Y206579D02*
D03*
X210452Y243880D02*
D03*
X298552D02*
D03*
X314252Y68080D02*
D03*
X363752Y56679D02*
D03*
X212852Y212479D02*
D03*
X54052Y173979D02*
D03*
X52052Y148280D02*
D03*
X100452Y166680D02*
D03*
X148252Y181079D02*
D03*
X42952Y194190D02*
D03*
X246452Y169379D02*
D03*
X244488Y187508D02*
D03*
X243905Y192379D02*
D03*
X229952Y193079D02*
D03*
X219084Y300580D02*
D03*
X293552Y201979D02*
D03*
X173130Y329557D02*
D03*
X87252Y188880D02*
D03*
X199803Y168231D02*
D03*
X80852Y198679D02*
D03*
X192851Y185780D02*
D03*
X81152Y206080D02*
D03*
X190152Y189180D02*
D03*
X85752Y141879D02*
D03*
X202452Y104180D02*
D03*
M02*
