G04*
G04 #@! TF.GenerationSoftware,Altium Limited,Altium Designer,19.1.8 (144)*
G04*
G04 Layer_Physical_Order=2*
G04 Layer_Color=16711680*
%FSLAX25Y25*%
%MOIN*%
G70*
G01*
G75*
%ADD14C,0.01000*%
%ADD58C,0.06299*%
%ADD59C,0.03937*%
%ADD60C,0.05906*%
%ADD61R,0.05906X0.05906*%
%ADD62C,0.18000*%
%ADD63C,0.03000*%
G36*
X389764Y389764D02*
X389764Y-0D01*
X-728Y-0D01*
X-1081Y354D01*
X0Y389764D01*
X389764Y389764D01*
D02*
G37*
%LPC*%
G36*
X374016Y383863D02*
X372095Y383674D01*
X370247Y383114D01*
X368545Y382204D01*
X367053Y380979D01*
X365828Y379487D01*
X364918Y377784D01*
X364358Y375937D01*
X364168Y374016D01*
X364358Y372095D01*
X364918Y370247D01*
X365828Y368545D01*
X367053Y367053D01*
X368545Y365828D01*
X370247Y364918D01*
X372095Y364357D01*
X374016Y364168D01*
X375937Y364357D01*
X377784Y364918D01*
X379487Y365828D01*
X380979Y367053D01*
X382204Y368545D01*
X383114Y370247D01*
X383674Y372095D01*
X383863Y374016D01*
X383674Y375937D01*
X383114Y377784D01*
X382204Y379487D01*
X380979Y380979D01*
X379487Y382204D01*
X377784Y383114D01*
X375937Y383674D01*
X374016Y383863D01*
D02*
G37*
G36*
X15748D02*
X13827Y383674D01*
X11980Y383114D01*
X10277Y382204D01*
X8785Y380979D01*
X7560Y379487D01*
X6650Y377784D01*
X6090Y375937D01*
X5900Y374016D01*
X6090Y372095D01*
X6650Y370247D01*
X7560Y368545D01*
X8785Y367053D01*
X10277Y365828D01*
X11980Y364918D01*
X13827Y364357D01*
X15748Y364168D01*
X17669Y364357D01*
X19516Y364918D01*
X21219Y365828D01*
X22711Y367053D01*
X23936Y368545D01*
X24846Y370247D01*
X25406Y372095D01*
X25595Y374016D01*
X25406Y375937D01*
X24846Y377784D01*
X23936Y379487D01*
X22711Y380979D01*
X21219Y382204D01*
X19516Y383114D01*
X17669Y383674D01*
X15748Y383863D01*
D02*
G37*
G36*
X338583Y363826D02*
X337552Y363690D01*
X336591Y363293D01*
X335766Y362659D01*
X335133Y361834D01*
X334857Y361168D01*
X329939D01*
X329432Y361067D01*
X329002Y360780D01*
X328603Y360381D01*
X324084D01*
X323849Y360948D01*
X323248Y361732D01*
X322463Y362333D01*
X321551Y362711D01*
X320571Y362840D01*
X319591Y362711D01*
X318678Y362333D01*
X317895Y361732D01*
X317293Y360948D01*
X316915Y360035D01*
X316786Y359055D01*
X316915Y358075D01*
X317293Y357163D01*
X317895Y356379D01*
X318678Y355777D01*
X319591Y355399D01*
X320571Y355270D01*
X321551Y355399D01*
X322463Y355777D01*
X323248Y356379D01*
X323849Y357163D01*
X324084Y357730D01*
X329152D01*
X329659Y357831D01*
X330089Y358118D01*
X330488Y358517D01*
X334857D01*
X335133Y357851D01*
X335766Y357026D01*
X336591Y356393D01*
X337552Y355995D01*
X338583Y355859D01*
X339614Y355995D01*
X340575Y356393D01*
X341400Y357026D01*
X342033Y357851D01*
X342431Y358811D01*
X342566Y359842D01*
X342431Y360874D01*
X342033Y361834D01*
X341400Y362659D01*
X340575Y363293D01*
X339614Y363690D01*
X338583Y363826D01*
D02*
G37*
G36*
X278457Y362808D02*
X270952D01*
Y360381D01*
X235733D01*
X233696Y362417D01*
X233266Y362704D01*
X232759Y362805D01*
X184652D01*
X184145Y362704D01*
X183715Y362417D01*
X153203Y331905D01*
X90866D01*
X90696Y332405D01*
X90857Y332529D01*
X91333Y333149D01*
X91632Y333871D01*
X91668Y334146D01*
X88740D01*
X85812D01*
X85848Y333871D01*
X86147Y333149D01*
X86623Y332529D01*
X86784Y332405D01*
X86614Y331905D01*
X80537D01*
X80368Y332405D01*
X80715Y332671D01*
X81159Y333249D01*
X81437Y333923D01*
X81533Y334646D01*
X81437Y335368D01*
X81159Y336042D01*
X80715Y336620D01*
X80136Y337064D01*
X79463Y337343D01*
X78740Y337438D01*
X78017Y337343D01*
X77947Y337314D01*
X76344Y338917D01*
X75914Y339204D01*
X75406Y339305D01*
X40735D01*
X40735Y339305D01*
X40228Y339204D01*
X39798Y338917D01*
X39099Y338218D01*
X38433Y338494D01*
X37402Y338629D01*
X36371Y338494D01*
X35410Y338096D01*
X34585Y337463D01*
X33952Y336638D01*
X33554Y335677D01*
X33418Y334646D01*
X33554Y333615D01*
X33952Y332654D01*
X34585Y331829D01*
X35410Y331196D01*
X36371Y330798D01*
X37402Y330662D01*
X38433Y330798D01*
X39393Y331196D01*
X40218Y331829D01*
X40852Y332654D01*
X41249Y333615D01*
X41385Y334646D01*
X41249Y335677D01*
X41004Y336270D01*
X41316Y336654D01*
X66161D01*
X66408Y336154D01*
X66322Y336042D01*
X66043Y335368D01*
X65948Y334646D01*
X66043Y333923D01*
X66322Y333249D01*
X66766Y332671D01*
X67344Y332227D01*
X68017Y331948D01*
X68740Y331853D01*
X69463Y331948D01*
X69534Y331978D01*
X71869Y329642D01*
X72299Y329355D01*
X72806Y329254D01*
X72806Y329254D01*
X153752D01*
X154259Y329355D01*
X154689Y329642D01*
X185201Y360154D01*
X186761D01*
X187029Y359655D01*
X186935Y359179D01*
X189384D01*
Y358680D01*
X189884D01*
Y356230D01*
X190360Y356325D01*
X191187Y356877D01*
X191505Y357354D01*
X227013D01*
X227331Y356877D01*
X228158Y356325D01*
X228634Y356230D01*
Y358680D01*
X229134D01*
Y359179D01*
X231583D01*
X231489Y359655D01*
X231450Y359713D01*
X231686Y360154D01*
X232210D01*
X234246Y358118D01*
X234676Y357831D01*
X235184Y357730D01*
X270952D01*
Y355302D01*
X278457D01*
Y362808D01*
D02*
G37*
G36*
X231583Y358179D02*
X229634D01*
Y356230D01*
X230109Y356325D01*
X230936Y356877D01*
X231489Y357704D01*
X231583Y358179D01*
D02*
G37*
G36*
X188884D02*
X186935D01*
X187029Y357704D01*
X187582Y356877D01*
X188409Y356325D01*
X188884Y356230D01*
Y358179D01*
D02*
G37*
G36*
X339083Y353962D02*
Y350342D01*
X342702D01*
X342626Y350926D01*
X342207Y351935D01*
X341542Y352802D01*
X340675Y353467D01*
X339666Y353885D01*
X339083Y353962D01*
D02*
G37*
G36*
X338083D02*
X337499Y353885D01*
X336490Y353467D01*
X335623Y352802D01*
X334958Y351935D01*
X334540Y350926D01*
X334463Y350342D01*
X338083D01*
Y353962D01*
D02*
G37*
G36*
X342702Y349342D02*
X339083D01*
Y345723D01*
X339666Y345800D01*
X340675Y346218D01*
X341542Y346883D01*
X342207Y347750D01*
X342626Y348759D01*
X342702Y349342D01*
D02*
G37*
G36*
X338083D02*
X334463D01*
X334540Y348759D01*
X334958Y347750D01*
X335623Y346883D01*
X336490Y346218D01*
X337499Y345800D01*
X338083Y345723D01*
Y349342D01*
D02*
G37*
G36*
X89240Y337574D02*
Y335146D01*
X91668D01*
X91632Y335421D01*
X91333Y336143D01*
X90857Y336763D01*
X90237Y337239D01*
X89515Y337538D01*
X89240Y337574D01*
D02*
G37*
G36*
X88240D02*
X87965Y337538D01*
X87243Y337239D01*
X86623Y336763D01*
X86147Y336143D01*
X85848Y335421D01*
X85812Y335146D01*
X88240D01*
Y337574D01*
D02*
G37*
G36*
X173130Y331903D02*
X172232Y331724D01*
X171472Y331216D01*
X170963Y330455D01*
X170785Y329557D01*
X170863Y329165D01*
X140215Y298517D01*
X139927Y298087D01*
X139827Y297580D01*
Y288529D01*
X139927Y288022D01*
X140215Y287592D01*
X140645Y287304D01*
X141152Y287204D01*
X141659Y287304D01*
X142089Y287592D01*
X142376Y288022D01*
X142477Y288529D01*
Y297030D01*
X172738Y327291D01*
X173130Y327213D01*
X174027Y327391D01*
X174788Y327899D01*
X175296Y328660D01*
X175475Y329557D01*
X175296Y330455D01*
X174788Y331216D01*
X174027Y331724D01*
X173130Y331903D01*
D02*
G37*
G36*
X276846Y313155D02*
X276556Y313035D01*
X276446Y312925D01*
X276782Y312588D01*
X277559Y311811D01*
X277670Y311922D01*
X277790Y312211D01*
X277790Y312287D01*
Y312524D01*
X277670Y312814D01*
X277448Y313035D01*
X277159Y313155D01*
X276922Y313155D01*
X276846Y313155D01*
D02*
G37*
G36*
X260162D02*
X260086Y313155D01*
X259849D01*
X259560Y313035D01*
X259338Y312814D01*
X259218Y312524D01*
X259218Y312211D01*
X259338Y311922D01*
X259449Y311811D01*
X260562Y312925D01*
X260452Y313035D01*
X260162Y313155D01*
X260162Y313155D01*
D02*
G37*
G36*
X276297Y311811D02*
X275671D01*
X275092Y311571D01*
X274649Y311128D01*
X274410Y310549D01*
Y309923D01*
X274649Y309344D01*
X275092Y308901D01*
X275671Y308661D01*
X276297D01*
X276876Y308901D01*
X277319Y309344D01*
X277559Y309923D01*
Y310549D01*
X277319Y311128D01*
X276876Y311571D01*
X276297Y311811D01*
D02*
G37*
G36*
X261337D02*
X260710D01*
X260132Y311571D01*
X259689Y311128D01*
X259449Y310549D01*
Y309923D01*
X259689Y309344D01*
X260132Y308901D01*
X260710Y308661D01*
X261337D01*
X261916Y308901D01*
X262359Y309344D01*
X262598Y309923D01*
Y310549D01*
X262359Y311128D01*
X261916Y311571D01*
X261337Y311811D01*
D02*
G37*
G36*
X266335Y311631D02*
X265395D01*
X264527Y311272D01*
X263862Y310607D01*
X263502Y309739D01*
Y308799D01*
X263862Y307931D01*
X264527Y307266D01*
X265395Y306907D01*
X266335D01*
X267203Y307266D01*
X267867Y307931D01*
X268227Y308799D01*
Y309739D01*
X267867Y310607D01*
X267203Y311272D01*
X266335Y311631D01*
D02*
G37*
G36*
X271730Y311576D02*
X270790D01*
X269922Y311216D01*
X269257Y310552D01*
X268898Y309684D01*
Y308744D01*
X269257Y307876D01*
X269922Y307211D01*
X270790Y306852D01*
X271730D01*
X272598Y307211D01*
X273262Y307876D01*
X273622Y308744D01*
Y309684D01*
X273262Y310552D01*
X272598Y311216D01*
X271730Y311576D01*
D02*
G37*
G36*
X233752Y305925D02*
X232855Y305746D01*
X232094Y305238D01*
X231871Y304905D01*
X202399D01*
X201891Y304804D01*
X201461Y304517D01*
X187918Y290973D01*
X187252Y291249D01*
X186221Y291385D01*
X185189Y291249D01*
X184229Y290851D01*
X183404Y290218D01*
X182771Y289393D01*
X182373Y288433D01*
X182237Y287402D01*
X182373Y286370D01*
X182771Y285410D01*
X183404Y284585D01*
X184229Y283952D01*
X185189Y283554D01*
X186221Y283418D01*
X187252Y283554D01*
X188212Y283952D01*
X189038Y284585D01*
X189671Y285410D01*
X190068Y286370D01*
X190204Y287402D01*
X190068Y288433D01*
X189793Y289099D01*
X202948Y302254D01*
X216665D01*
X216901Y301813D01*
X216729Y301555D01*
X216634Y301080D01*
X221533D01*
X221439Y301555D01*
X221266Y301813D01*
X221502Y302254D01*
X231871D01*
X232094Y301921D01*
X232855Y301413D01*
X233752Y301235D01*
X234649Y301413D01*
X235410Y301921D01*
X235918Y302682D01*
X236097Y303579D01*
X235918Y304477D01*
X235410Y305238D01*
X234649Y305746D01*
X233752Y305925D01*
D02*
G37*
G36*
X75436Y299905D02*
X40706D01*
X40198Y299804D01*
X39768Y299517D01*
X39099Y298847D01*
X38433Y299124D01*
X37402Y299259D01*
X36371Y299124D01*
X35410Y298726D01*
X34585Y298092D01*
X33952Y297267D01*
X33554Y296307D01*
X33418Y295275D01*
X33554Y294245D01*
X33952Y293284D01*
X34585Y292459D01*
X35410Y291826D01*
X36371Y291428D01*
X37402Y291292D01*
X38433Y291428D01*
X39393Y291826D01*
X40218Y292459D01*
X40852Y293284D01*
X41249Y294245D01*
X41385Y295275D01*
X41249Y296307D01*
X41025Y296849D01*
X41346Y297254D01*
X66138D01*
X66385Y296754D01*
X66322Y296672D01*
X66043Y295998D01*
X65948Y295275D01*
X66043Y294553D01*
X66322Y293879D01*
X66766Y293301D01*
X67344Y292857D01*
X68017Y292578D01*
X68740Y292483D01*
X69463Y292578D01*
X70136Y292857D01*
X70715Y293301D01*
X71158Y293879D01*
X71437Y294553D01*
X71533Y295275D01*
X71437Y295998D01*
X71158Y296672D01*
X71095Y296754D01*
X71342Y297254D01*
X74887D01*
X76072Y296069D01*
X76043Y295998D01*
X75948Y295275D01*
X76043Y294553D01*
X76322Y293879D01*
X76766Y293301D01*
X77344Y292857D01*
X78017Y292578D01*
X78740Y292483D01*
X79463Y292578D01*
X80136Y292857D01*
X80715Y293301D01*
X81159Y293879D01*
X81437Y294553D01*
X81533Y295275D01*
X81437Y295998D01*
X81159Y296672D01*
X80715Y297250D01*
X80136Y297694D01*
X79463Y297973D01*
X78740Y298068D01*
X78017Y297973D01*
X77947Y297943D01*
X76373Y299517D01*
X75943Y299804D01*
X75436Y299905D01*
D02*
G37*
G36*
X221533Y300079D02*
X219584D01*
Y298130D01*
X220059Y298225D01*
X220886Y298777D01*
X221439Y299604D01*
X221533Y300079D01*
D02*
G37*
G36*
X218584D02*
X216634D01*
X216647Y300017D01*
X207756Y291126D01*
X206989Y291444D01*
X206406Y291521D01*
Y287901D01*
X210025D01*
X209948Y288485D01*
X209631Y289252D01*
X218521Y298143D01*
X218584Y298130D01*
Y300079D01*
D02*
G37*
G36*
X89240Y298204D02*
Y295776D01*
X91668D01*
X91632Y296051D01*
X91333Y296773D01*
X90857Y297393D01*
X90237Y297868D01*
X89515Y298168D01*
X89240Y298204D01*
D02*
G37*
G36*
X88240D02*
X87965Y298168D01*
X87243Y297868D01*
X86623Y297393D01*
X86147Y296773D01*
X85848Y296051D01*
X85812Y295776D01*
X88240D01*
Y298204D01*
D02*
G37*
G36*
X205406Y291521D02*
X204822Y291444D01*
X203813Y291026D01*
X202946Y290361D01*
X202281Y289494D01*
X201863Y288485D01*
X201786Y287901D01*
X205406D01*
Y291521D01*
D02*
G37*
G36*
X210025Y286901D02*
X206406D01*
Y283282D01*
X206989Y283359D01*
X207998Y283777D01*
X208865Y284442D01*
X209530Y285309D01*
X209948Y286318D01*
X210025Y286901D01*
D02*
G37*
G36*
X205406D02*
X201786D01*
X201863Y286318D01*
X202281Y285309D01*
X202946Y284442D01*
X203813Y283777D01*
X204822Y283359D01*
X205406Y283282D01*
Y286901D01*
D02*
G37*
G36*
X186221Y271700D02*
X185189Y271565D01*
X184229Y271166D01*
X183404Y270533D01*
X182771Y269708D01*
X182373Y268748D01*
X182237Y267717D01*
X182373Y266686D01*
X182771Y265725D01*
X183404Y264900D01*
X184229Y264267D01*
X184589Y264117D01*
X184638Y263620D01*
X184365Y263438D01*
X184143Y263105D01*
X124732D01*
X124510Y263438D01*
X123749Y263946D01*
X122852Y264125D01*
X121955Y263946D01*
X121194Y263438D01*
X120685Y262677D01*
X120507Y261779D01*
X120685Y260882D01*
X121194Y260121D01*
X121955Y259613D01*
X122852Y259435D01*
X123749Y259613D01*
X124510Y260121D01*
X124732Y260454D01*
X184143D01*
X184365Y260121D01*
X185126Y259613D01*
X186024Y259435D01*
X186921Y259613D01*
X187682Y260121D01*
X188190Y260882D01*
X188369Y261779D01*
X188190Y262677D01*
X187682Y263438D01*
X187619Y263480D01*
X187675Y264044D01*
X188212Y264267D01*
X189038Y264900D01*
X189671Y265725D01*
X190068Y266686D01*
X190204Y267717D01*
X190068Y268748D01*
X189671Y269708D01*
X189038Y270533D01*
X188212Y271166D01*
X187252Y271565D01*
X186221Y271700D01*
D02*
G37*
G36*
X37402Y328629D02*
X36371Y328494D01*
X35410Y328096D01*
X34585Y327463D01*
X33952Y326638D01*
X33554Y325677D01*
X33418Y324646D01*
X33554Y323615D01*
X33952Y322654D01*
X34585Y321829D01*
X35410Y321196D01*
X36371Y320798D01*
X37402Y320662D01*
X38433Y320798D01*
X39393Y321196D01*
X40218Y321829D01*
X40852Y322654D01*
X41128Y323320D01*
X73337D01*
X98826Y297831D01*
Y256179D01*
X98927Y255672D01*
X99215Y255242D01*
X102490Y251967D01*
X102299Y251505D01*
X95015D01*
X91561Y254959D01*
X91632Y255131D01*
X91668Y255405D01*
X89240D01*
Y252977D01*
X89515Y253013D01*
X89687Y253084D01*
X93529Y249242D01*
X93959Y248955D01*
X94466Y248854D01*
X135788D01*
X136035Y248354D01*
X135968Y248266D01*
X135688Y247593D01*
X135593Y246870D01*
X135688Y246147D01*
X135968Y245474D01*
X136411Y244896D01*
X136990Y244452D01*
X137663Y244173D01*
X138386Y244078D01*
X139109Y244173D01*
X139782Y244452D01*
X140360Y244896D01*
X140804Y245474D01*
X141083Y246147D01*
X141178Y246870D01*
X141083Y247593D01*
X140804Y248266D01*
X140737Y248354D01*
X140983Y248854D01*
X146403D01*
X151815Y243442D01*
X151802Y243379D01*
X153752D01*
Y245329D01*
X153689Y245317D01*
X148714Y250292D01*
X148905Y250754D01*
X154552D01*
X156985Y248321D01*
X156907Y247929D01*
X157085Y247031D01*
X157594Y246270D01*
X158354Y245762D01*
X159252Y245584D01*
X160149Y245762D01*
X160910Y246270D01*
X161418Y247031D01*
X161597Y247929D01*
X161418Y248826D01*
X160910Y249587D01*
X160149Y250095D01*
X159252Y250274D01*
X158860Y250196D01*
X156663Y252392D01*
X156854Y252854D01*
X158434D01*
X170346Y240942D01*
X170776Y240655D01*
X171284Y240554D01*
X191852D01*
X192359Y240655D01*
X192789Y240942D01*
X196089Y244242D01*
X196377Y244672D01*
X196477Y245180D01*
Y248718D01*
X196498Y248734D01*
X197395Y248913D01*
X198156Y249421D01*
X198378Y249754D01*
X312771D01*
X312994Y249421D01*
X313755Y248913D01*
X314652Y248734D01*
X315549Y248913D01*
X316310Y249421D01*
X316818Y250182D01*
X316997Y251080D01*
X316818Y251977D01*
X316310Y252738D01*
X315549Y253246D01*
X314652Y253425D01*
X313755Y253246D01*
X312994Y252738D01*
X312771Y252405D01*
X306996D01*
X306761Y252846D01*
X306919Y253082D01*
X307097Y253979D01*
X306919Y254877D01*
X306410Y255638D01*
X305649Y256146D01*
X305267Y256222D01*
X304903Y256804D01*
X304997Y257279D01*
X304819Y258177D01*
X304310Y258938D01*
X303549Y259446D01*
X302652Y259625D01*
X301755Y259446D01*
X300994Y258938D01*
X300771Y258605D01*
X193810D01*
X193587Y258938D01*
X192827Y259446D01*
X192654Y259481D01*
X192508Y259959D01*
X193103Y260554D01*
X222071D01*
X222294Y260221D01*
X223055Y259713D01*
X223952Y259535D01*
X224849Y259713D01*
X225610Y260221D01*
X225833Y260554D01*
X237467D01*
X237690Y260221D01*
X238451Y259713D01*
X239348Y259535D01*
X240245Y259713D01*
X241006Y260221D01*
X241229Y260554D01*
X243971D01*
X244194Y260221D01*
X244955Y259713D01*
X245852Y259535D01*
X246749Y259713D01*
X247510Y260221D01*
X248019Y260982D01*
X248197Y261879D01*
X248019Y262777D01*
X247510Y263538D01*
X246749Y264046D01*
X245852Y264225D01*
X244955Y264046D01*
X244194Y263538D01*
X243971Y263205D01*
X241229D01*
X241006Y263538D01*
X240245Y264046D01*
X239348Y264225D01*
X238451Y264046D01*
X237690Y263538D01*
X237467Y263205D01*
X225833D01*
X225610Y263538D01*
X224849Y264046D01*
X223952Y264225D01*
X223055Y264046D01*
X222294Y263538D01*
X222071Y263205D01*
X207101D01*
X206989Y263674D01*
X207998Y264092D01*
X208865Y264757D01*
X209530Y265624D01*
X209948Y266633D01*
X210025Y267216D01*
X205906D01*
X201786D01*
X201863Y266633D01*
X202281Y265624D01*
X202946Y264757D01*
X203813Y264092D01*
X204822Y263674D01*
X204710Y263205D01*
X192554D01*
X192047Y263104D01*
X191617Y262817D01*
X179815Y251014D01*
X179527Y250584D01*
X179427Y250077D01*
Y248360D01*
X179094Y248138D01*
X178585Y247377D01*
X178478Y246835D01*
X177935Y246671D01*
X166689Y257917D01*
X166259Y258204D01*
X165752Y258305D01*
X131533D01*
X131310Y258638D01*
X130549Y259146D01*
X129652Y259325D01*
X128754Y259146D01*
X127994Y258638D01*
X127485Y257877D01*
X127307Y256979D01*
X127381Y256605D01*
X126984Y256042D01*
X126982Y256041D01*
X126623Y256410D01*
X126680Y256697D01*
X126501Y257594D01*
X125993Y258355D01*
X125232Y258863D01*
X124335Y259042D01*
X123437Y258863D01*
X122677Y258355D01*
X122168Y257594D01*
X121990Y256697D01*
X122168Y255799D01*
X122677Y255038D01*
X123437Y254530D01*
X124335Y254352D01*
X124727Y254430D01*
X125290Y253867D01*
X125099Y253405D01*
X104801D01*
X101477Y256729D01*
Y298379D01*
X101376Y298887D01*
X101089Y299317D01*
X74823Y325583D01*
X74393Y325870D01*
X73886Y325971D01*
X41128D01*
X40852Y326638D01*
X40218Y327463D01*
X39393Y328096D01*
X38433Y328494D01*
X37402Y328629D01*
D02*
G37*
G36*
X91668Y294776D02*
X88740D01*
X85812D01*
X85848Y294501D01*
X86147Y293778D01*
X86623Y293158D01*
X87243Y292683D01*
X87415Y292612D01*
Y258570D01*
X87243Y258499D01*
X86623Y258023D01*
X86147Y257403D01*
X85848Y256680D01*
X85812Y256405D01*
X88740D01*
X91668D01*
X91632Y256680D01*
X91333Y257403D01*
X90857Y258023D01*
X90237Y258499D01*
X90066Y258570D01*
Y292612D01*
X90237Y292683D01*
X90857Y293158D01*
X91333Y293778D01*
X91632Y294501D01*
X91668Y294776D01*
D02*
G37*
G36*
X88240Y255405D02*
X85812D01*
X85848Y255131D01*
X86147Y254409D01*
X86623Y253788D01*
X87243Y253313D01*
X87965Y253013D01*
X88240Y252977D01*
Y255405D01*
D02*
G37*
G36*
X339552Y299705D02*
X272152D01*
X271645Y299604D01*
X271215Y299317D01*
X248003Y276105D01*
X226263D01*
X226028Y276546D01*
X226118Y276682D01*
X226297Y277579D01*
X226118Y278477D01*
X226048Y278583D01*
X226088Y278668D01*
X226378Y278988D01*
X227152Y278835D01*
X228049Y279013D01*
X228810Y279521D01*
X229318Y280282D01*
X229497Y281179D01*
X229318Y282077D01*
X228810Y282838D01*
X228049Y283346D01*
X227152Y283525D01*
X226255Y283346D01*
X225494Y282838D01*
X225271Y282505D01*
X126133D01*
X125910Y282838D01*
X125149Y283346D01*
X124252Y283525D01*
X123354Y283346D01*
X122594Y282838D01*
X122085Y282077D01*
X121907Y281179D01*
X122085Y280282D01*
X122594Y279521D01*
X123354Y279013D01*
X124252Y278835D01*
X125149Y279013D01*
X125910Y279521D01*
X126133Y279854D01*
X222316D01*
X222468Y279354D01*
X222294Y279238D01*
X222071Y278905D01*
X132352D01*
X131845Y278804D01*
X131415Y278517D01*
X125444Y272547D01*
X125052Y272625D01*
X124154Y272446D01*
X123394Y271938D01*
X122885Y271177D01*
X122707Y270280D01*
X122885Y269382D01*
X123394Y268621D01*
X124154Y268113D01*
X125052Y267934D01*
X125949Y268113D01*
X126710Y268621D01*
X127118Y269232D01*
X127594Y269291D01*
X127697Y269266D01*
X127994Y268821D01*
X128754Y268313D01*
X129652Y268134D01*
X130549Y268313D01*
X131310Y268821D01*
X131818Y269582D01*
X131997Y270479D01*
X131919Y270872D01*
X134501Y273454D01*
X197870D01*
X198062Y272992D01*
X195916Y270847D01*
X195524Y270925D01*
X194626Y270746D01*
X193865Y270238D01*
X193357Y269477D01*
X193178Y268580D01*
X193357Y267682D01*
X193865Y266921D01*
X194626Y266413D01*
X195524Y266234D01*
X196421Y266413D01*
X197182Y266921D01*
X197690Y267682D01*
X197869Y268580D01*
X197791Y268972D01*
X200473Y271654D01*
X203399D01*
X203569Y271154D01*
X202946Y270676D01*
X202281Y269809D01*
X201863Y268800D01*
X201786Y268216D01*
X205906D01*
X210025D01*
X209948Y268800D01*
X209530Y269809D01*
X208865Y270676D01*
X208242Y271154D01*
X208412Y271654D01*
X287552D01*
X288059Y271755D01*
X288489Y272042D01*
X311701Y295254D01*
X330015D01*
X330167Y294754D01*
X329694Y294438D01*
X329185Y293677D01*
X329007Y292779D01*
X329185Y291882D01*
X329694Y291121D01*
X330027Y290899D01*
Y260329D01*
X312103Y242405D01*
X307688D01*
X307537Y242905D01*
X308010Y243221D01*
X308519Y243982D01*
X308697Y244880D01*
X308519Y245777D01*
X308010Y246538D01*
X307249Y247046D01*
X306352Y247225D01*
X305960Y247147D01*
X305003Y248103D01*
X304573Y248390D01*
X304066Y248491D01*
X206838D01*
X206838Y248491D01*
X206331Y248390D01*
X205901Y248103D01*
X204944Y247147D01*
X204552Y247225D01*
X203655Y247046D01*
X202894Y246538D01*
X202385Y245777D01*
X202207Y244880D01*
X202385Y243982D01*
X202894Y243221D01*
X203490Y242823D01*
X203457Y242449D01*
X203421Y242288D01*
X203015Y242017D01*
X201715Y240717D01*
X201427Y240287D01*
X201326Y239779D01*
Y232833D01*
X200865Y232641D01*
X194289Y239217D01*
X193859Y239504D01*
X193352Y239605D01*
X159633D01*
X159396Y240105D01*
X159425Y240140D01*
X159452Y240135D01*
X160349Y240313D01*
X161110Y240821D01*
X161618Y241582D01*
X161797Y242479D01*
X161618Y243377D01*
X161110Y244138D01*
X160349Y244646D01*
X159452Y244825D01*
X158554Y244646D01*
X157794Y244138D01*
X157285Y243377D01*
X157249Y243192D01*
X156739D01*
X156607Y243855D01*
X156054Y244682D01*
X155227Y245234D01*
X154752Y245329D01*
Y242880D01*
X154252D01*
Y242379D01*
X151802D01*
X151897Y241904D01*
X151936Y241846D01*
X151700Y241405D01*
X112501D01*
X107689Y246217D01*
X107259Y246504D01*
X106752Y246605D01*
X79915D01*
X71408Y255112D01*
X71437Y255183D01*
X71533Y255906D01*
X71437Y256628D01*
X71158Y257302D01*
X71079Y257406D01*
X71300Y257854D01*
X74917D01*
X76072Y256699D01*
X76043Y256628D01*
X75948Y255906D01*
X76043Y255183D01*
X76322Y254509D01*
X76766Y253931D01*
X77344Y253487D01*
X78017Y253208D01*
X78740Y253113D01*
X79463Y253208D01*
X80136Y253487D01*
X80715Y253931D01*
X81159Y254509D01*
X81437Y255183D01*
X81533Y255906D01*
X81437Y256628D01*
X81159Y257302D01*
X80715Y257880D01*
X80136Y258324D01*
X79463Y258603D01*
X78740Y258698D01*
X78017Y258603D01*
X77947Y258574D01*
X76403Y260117D01*
X75973Y260404D01*
X75466Y260505D01*
X40676D01*
X40676Y260505D01*
X40168Y260404D01*
X39738Y260117D01*
X39099Y259477D01*
X38433Y259753D01*
X37402Y259889D01*
X36371Y259753D01*
X35410Y259355D01*
X34777Y258870D01*
X34277Y259114D01*
Y280277D01*
X35704Y281704D01*
X36371Y281428D01*
X37402Y281292D01*
X38433Y281428D01*
X39393Y281826D01*
X40218Y282459D01*
X40852Y283284D01*
X41249Y284244D01*
X41385Y285276D01*
X41249Y286307D01*
X40852Y287267D01*
X40218Y288092D01*
X39393Y288725D01*
X38433Y289124D01*
X37402Y289259D01*
X36371Y289124D01*
X35410Y288725D01*
X34585Y288092D01*
X33952Y287267D01*
X33676Y286601D01*
X32952D01*
X32445Y286500D01*
X32015Y286213D01*
X31727Y285783D01*
X31626Y285276D01*
Y280826D01*
Y253780D01*
X31727Y253272D01*
X32015Y252842D01*
X34415Y250442D01*
X34845Y250155D01*
X35352Y250054D01*
X35790D01*
X35889Y249554D01*
X35410Y249356D01*
X34585Y248722D01*
X33952Y247897D01*
X33554Y246937D01*
X33418Y245905D01*
X33554Y244875D01*
X33952Y243914D01*
X34585Y243089D01*
X35410Y242456D01*
X36371Y242058D01*
X37402Y241922D01*
X38433Y242058D01*
X39393Y242456D01*
X40218Y243089D01*
X40852Y243914D01*
X41249Y244875D01*
X41385Y245905D01*
X41346Y246204D01*
X41820Y246438D01*
X63790Y224467D01*
X63599Y224005D01*
X51332D01*
X51110Y224338D01*
X50349Y224846D01*
X49452Y225025D01*
X48555Y224846D01*
X47794Y224338D01*
X47285Y223577D01*
X47107Y222679D01*
X47285Y221782D01*
X47794Y221021D01*
X48555Y220513D01*
X49452Y220335D01*
X50349Y220513D01*
X51110Y221021D01*
X51332Y221354D01*
X52616D01*
X52768Y220854D01*
X52594Y220738D01*
X52085Y219977D01*
X51907Y219079D01*
X52085Y218182D01*
X52594Y217421D01*
X53355Y216913D01*
X54252Y216735D01*
X55149Y216913D01*
X55910Y217421D01*
X56133Y217754D01*
X62770D01*
X63037Y217254D01*
X62785Y216877D01*
X62607Y215980D01*
X62785Y215082D01*
X63294Y214321D01*
X64055Y213813D01*
X64952Y213634D01*
X65849Y213813D01*
X66610Y214321D01*
X66833Y214654D01*
X73952D01*
X74459Y214755D01*
X74889Y215042D01*
X75713Y215865D01*
X75730Y215862D01*
X75895Y215319D01*
X73515Y212940D01*
X73227Y212510D01*
X73127Y212002D01*
Y119329D01*
X67703Y113905D01*
X60687D01*
X60588Y114405D01*
X61204Y114660D01*
X62029Y115293D01*
X62663Y116119D01*
X63060Y117079D01*
X63196Y118110D01*
X63060Y119141D01*
X62663Y120102D01*
X62029Y120927D01*
X61204Y121560D01*
X60244Y121958D01*
X59213Y122094D01*
X58182Y121958D01*
X57221Y121560D01*
X56396Y120927D01*
X55763Y120102D01*
X55365Y119141D01*
X55229Y118110D01*
X55365Y117079D01*
X55763Y116119D01*
X56396Y115293D01*
X57221Y114660D01*
X57837Y114405D01*
X57738Y113905D01*
X56252D01*
X55745Y113804D01*
X55315Y113517D01*
X53826Y112028D01*
X53538Y111598D01*
X53438Y111091D01*
Y109538D01*
X52938Y109438D01*
X52662Y110102D01*
X52030Y110927D01*
X51204Y111560D01*
X50244Y111958D01*
X49213Y112094D01*
X48182Y111958D01*
X47221Y111560D01*
X46577Y111067D01*
X46077Y111300D01*
Y114921D01*
X46577Y115154D01*
X47221Y114660D01*
X48182Y114262D01*
X49213Y114127D01*
X50244Y114262D01*
X51204Y114660D01*
X52030Y115293D01*
X52662Y116119D01*
X53061Y117079D01*
X53196Y118110D01*
X53061Y119141D01*
X52662Y120102D01*
X52030Y120927D01*
X51204Y121560D01*
X50244Y121958D01*
X49213Y122094D01*
X48182Y121958D01*
X47221Y121560D01*
X46577Y121067D01*
X46077Y121300D01*
Y178199D01*
X46649Y178313D01*
X47410Y178821D01*
X47918Y179582D01*
X48097Y180480D01*
X47918Y181377D01*
X47410Y182138D01*
X46649Y182646D01*
X45752Y182825D01*
X44855Y182646D01*
X44718Y182555D01*
X44277Y182791D01*
Y192309D01*
X44610Y192532D01*
X45118Y193292D01*
X45297Y194190D01*
X45118Y195087D01*
X44610Y195848D01*
X43849Y196356D01*
X42952Y196535D01*
X42055Y196356D01*
X41918Y196265D01*
X41477Y196501D01*
Y226072D01*
X41810Y226294D01*
X42318Y227055D01*
X42497Y227953D01*
X42318Y228850D01*
X41810Y229611D01*
X41049Y230119D01*
X40152Y230298D01*
X39255Y230119D01*
X38494Y229611D01*
X37985Y228850D01*
X37807Y227953D01*
X37985Y227055D01*
X38494Y226294D01*
X38827Y226072D01*
Y44480D01*
X38927Y43972D01*
X39215Y43542D01*
X44915Y37842D01*
X45345Y37555D01*
X45852Y37454D01*
X259271D01*
X259494Y37121D01*
X260255Y36613D01*
X261152Y36435D01*
X262049Y36613D01*
X262810Y37121D01*
X263318Y37882D01*
X263497Y38780D01*
X263318Y39677D01*
X262810Y40438D01*
X262049Y40946D01*
X261152Y41125D01*
X260255Y40946D01*
X259494Y40438D01*
X259271Y40105D01*
X250213D01*
X250164Y40605D01*
X250321Y40636D01*
X250751Y40924D01*
X254365Y44538D01*
X255032Y44262D01*
X256063Y44127D01*
X257094Y44262D01*
X258055Y44660D01*
X258880Y45293D01*
X259513Y46119D01*
X259911Y47079D01*
X260047Y48110D01*
X259911Y49141D01*
X259513Y50102D01*
X258880Y50927D01*
X258055Y51560D01*
X257391Y51835D01*
X257490Y52335D01*
X343061D01*
X343160Y51835D01*
X342496Y51560D01*
X341671Y50927D01*
X341038Y50102D01*
X340640Y49141D01*
X340505Y48110D01*
X340640Y47079D01*
X341038Y46119D01*
X341671Y45293D01*
X342496Y44660D01*
X343457Y44262D01*
X344488Y44127D01*
X345519Y44262D01*
X346480Y44660D01*
X347305Y45293D01*
X347938Y46119D01*
X348336Y47079D01*
X348472Y48110D01*
X348336Y49141D01*
X347938Y50102D01*
X347305Y50927D01*
X346480Y51560D01*
X345816Y51835D01*
X345916Y52335D01*
X353061D01*
X353160Y51835D01*
X352496Y51560D01*
X351671Y50927D01*
X351038Y50102D01*
X350640Y49141D01*
X350504Y48110D01*
X350640Y47079D01*
X351038Y46119D01*
X351671Y45293D01*
X352496Y44660D01*
X353457Y44262D01*
X354488Y44127D01*
X355519Y44262D01*
X356480Y44660D01*
X357305Y45293D01*
X357938Y46119D01*
X358336Y47079D01*
X358472Y48110D01*
X358336Y49141D01*
X357938Y50102D01*
X357305Y50927D01*
X356480Y51560D01*
X355816Y51835D01*
X355916Y52335D01*
X360733D01*
X361240Y52436D01*
X361670Y52723D01*
X363359Y54413D01*
X363752Y54334D01*
X364649Y54513D01*
X365410Y55021D01*
X365918Y55782D01*
X366097Y56679D01*
X365918Y57577D01*
X365410Y58338D01*
X364649Y58846D01*
X363752Y59025D01*
X362855Y58846D01*
X362094Y58338D01*
X361585Y57577D01*
X361407Y56679D01*
X361485Y56287D01*
X360184Y54986D01*
X357697D01*
X357453Y55486D01*
X357938Y56119D01*
X358336Y57079D01*
X358472Y58110D01*
X358336Y59141D01*
X357938Y60102D01*
X357305Y60927D01*
X356480Y61560D01*
X355519Y61958D01*
X354488Y62094D01*
X353457Y61958D01*
X352496Y61560D01*
X351671Y60927D01*
X351038Y60102D01*
X350640Y59141D01*
X350504Y58110D01*
X350640Y57079D01*
X351038Y56119D01*
X351523Y55486D01*
X351280Y54986D01*
X347697D01*
X347453Y55486D01*
X347938Y56119D01*
X348336Y57079D01*
X348472Y58110D01*
X348336Y59141D01*
X347938Y60102D01*
X347305Y60927D01*
X346480Y61560D01*
X345519Y61958D01*
X344488Y62094D01*
X343457Y61958D01*
X342496Y61560D01*
X341671Y60927D01*
X341038Y60102D01*
X340640Y59141D01*
X340505Y58110D01*
X340640Y57079D01*
X341038Y56119D01*
X341523Y55486D01*
X341280Y54986D01*
X259272D01*
X259028Y55486D01*
X259513Y56119D01*
X259911Y57079D01*
X260047Y58110D01*
X259911Y59141D01*
X259513Y60102D01*
X258880Y60927D01*
X258055Y61560D01*
X257094Y61958D01*
X256063Y62094D01*
X255032Y61958D01*
X254071Y61560D01*
X253246Y60927D01*
X252613Y60102D01*
X252215Y59141D01*
X252079Y58110D01*
X252215Y57079D01*
X252613Y56119D01*
X253246Y55293D01*
X253279Y55268D01*
X253259Y54654D01*
X253175Y54598D01*
X249650Y51073D01*
X249076Y51000D01*
X249023Y51070D01*
X248156Y51735D01*
X247146Y52153D01*
X246563Y52230D01*
Y48110D01*
X246063D01*
Y47610D01*
X241943D01*
X242020Y47027D01*
X242438Y46018D01*
X242846Y45486D01*
X242600Y44986D01*
X160846D01*
X160603Y45486D01*
X161088Y46119D01*
X161486Y47079D01*
X161621Y48110D01*
X161486Y49141D01*
X161088Y50102D01*
X160455Y50927D01*
X160029Y51254D01*
X160198Y51754D01*
X240545D01*
X242338Y49961D01*
X242020Y49194D01*
X241943Y48610D01*
X245563D01*
Y52230D01*
X244980Y52153D01*
X244213Y51835D01*
X242031Y54017D01*
X241601Y54304D01*
X241094Y54405D01*
X160118D01*
X159948Y54905D01*
X160455Y55293D01*
X161088Y56119D01*
X161486Y57079D01*
X161621Y58110D01*
X161486Y59141D01*
X161088Y60102D01*
X160455Y60927D01*
X160029Y61254D01*
X160198Y61754D01*
X243502D01*
X243672Y61254D01*
X243246Y60927D01*
X242613Y60102D01*
X242215Y59141D01*
X242079Y58110D01*
X242215Y57079D01*
X242613Y56119D01*
X243246Y55293D01*
X244071Y54660D01*
X245032Y54262D01*
X246063Y54127D01*
X247094Y54262D01*
X248055Y54660D01*
X248880Y55293D01*
X249513Y56119D01*
X249911Y57079D01*
X250047Y58110D01*
X249911Y59141D01*
X249513Y60102D01*
X248880Y60927D01*
X248214Y61439D01*
X248175Y61926D01*
X248211Y62037D01*
X248369Y62142D01*
X252179Y65952D01*
X252804Y65870D01*
X253246Y65293D01*
X254071Y64660D01*
X255032Y64262D01*
X256063Y64127D01*
X257094Y64262D01*
X258055Y64660D01*
X258880Y65293D01*
X259513Y66119D01*
X259911Y67079D01*
X260047Y68110D01*
X259911Y69141D01*
X259513Y70102D01*
X258941Y70847D01*
X258921Y70942D01*
X258938Y71152D01*
X259016Y71453D01*
X259270Y71623D01*
X264489Y76842D01*
X264776Y77272D01*
X264877Y77780D01*
Y77899D01*
X265210Y78121D01*
X265719Y78882D01*
X265897Y79779D01*
X265719Y80677D01*
X265210Y81438D01*
X264737Y81754D01*
X264889Y82254D01*
X342865D01*
X342964Y81754D01*
X342496Y81560D01*
X341671Y80927D01*
X341038Y80102D01*
X340640Y79141D01*
X340505Y78110D01*
X340640Y77079D01*
X341038Y76118D01*
X341671Y75293D01*
X342496Y74660D01*
X343113Y74405D01*
X343013Y73905D01*
X307632D01*
X307410Y74238D01*
X306649Y74746D01*
X305752Y74925D01*
X304855Y74746D01*
X304094Y74238D01*
X303585Y73477D01*
X303407Y72579D01*
X303585Y71682D01*
X304094Y70921D01*
X304855Y70413D01*
X305752Y70235D01*
X306649Y70413D01*
X307410Y70921D01*
X307632Y71254D01*
X341314D01*
X341538Y70754D01*
X341038Y70102D01*
X340762Y69436D01*
X316112D01*
X315910Y69738D01*
X315149Y70246D01*
X314252Y70425D01*
X313355Y70246D01*
X312594Y69738D01*
X312085Y68977D01*
X311907Y68080D01*
X312085Y67182D01*
X312594Y66421D01*
X313355Y65913D01*
X314252Y65734D01*
X315149Y65913D01*
X315910Y66421D01*
X316153Y66785D01*
X340762D01*
X341038Y66119D01*
X341671Y65293D01*
X342496Y64660D01*
X343457Y64262D01*
X344488Y64127D01*
X345519Y64262D01*
X346480Y64660D01*
X347305Y65293D01*
X347938Y66119D01*
X348336Y67079D01*
X348472Y68110D01*
X348336Y69141D01*
X347946Y70084D01*
X347976Y70157D01*
X348236Y70536D01*
X348239Y70535D01*
X350189D01*
X350916Y69808D01*
X350640Y69141D01*
X350504Y68110D01*
X350640Y67079D01*
X351038Y66119D01*
X351671Y65293D01*
X352496Y64660D01*
X353457Y64262D01*
X354488Y64127D01*
X355519Y64262D01*
X356480Y64660D01*
X357305Y65293D01*
X357938Y66119D01*
X358336Y67079D01*
X358472Y68110D01*
X358336Y69141D01*
X357938Y70102D01*
X357305Y70927D01*
X356480Y71560D01*
X355816Y71835D01*
X355916Y72335D01*
X356833D01*
X357340Y72436D01*
X357770Y72724D01*
X359889Y74842D01*
X360176Y75272D01*
X360277Y75779D01*
Y90380D01*
X360176Y90887D01*
X359889Y91317D01*
X357189Y94017D01*
X356801Y94276D01*
X356746Y94414D01*
X356696Y94826D01*
X357305Y95293D01*
X357938Y96118D01*
X358336Y97079D01*
X358472Y98110D01*
X358336Y99141D01*
X358060Y99808D01*
X361689Y103437D01*
X361977Y103867D01*
X362077Y104374D01*
Y180780D01*
X361977Y181287D01*
X361689Y181717D01*
X353077Y190329D01*
Y279979D01*
X353077Y279979D01*
X352976Y280487D01*
X352689Y280917D01*
X337014Y296592D01*
X337205Y297054D01*
X339003D01*
X361526Y274531D01*
Y247663D01*
X361027Y247427D01*
X360386Y247918D01*
X359426Y248316D01*
X358395Y248451D01*
X357364Y248316D01*
X356403Y247918D01*
X355578Y247285D01*
X354945Y246460D01*
X354547Y245499D01*
X354411Y244468D01*
X354547Y243437D01*
X354945Y242476D01*
X355578Y241651D01*
X356403Y241018D01*
X357364Y240620D01*
X358395Y240484D01*
X359426Y240620D01*
X360386Y241018D01*
X361027Y241509D01*
X361526Y241273D01*
Y237663D01*
X361027Y237426D01*
X360386Y237918D01*
X359426Y238316D01*
X358395Y238451D01*
X357364Y238316D01*
X356403Y237918D01*
X355578Y237285D01*
X354945Y236460D01*
X354547Y235499D01*
X354411Y234468D01*
X354547Y233437D01*
X354945Y232476D01*
X355578Y231651D01*
X356403Y231018D01*
X357364Y230620D01*
X358395Y230484D01*
X359426Y230620D01*
X360386Y231018D01*
X361027Y231509D01*
X361526Y231273D01*
Y199081D01*
X361080Y198699D01*
X360952Y198725D01*
X360055Y198546D01*
X359294Y198038D01*
X358785Y197277D01*
X358607Y196379D01*
X358785Y195482D01*
X359294Y194721D01*
X360055Y194213D01*
X360952Y194035D01*
X361849Y194213D01*
X362610Y194721D01*
X363119Y195482D01*
X363297Y196379D01*
X363219Y196772D01*
X363789Y197342D01*
X364076Y197772D01*
X364177Y198280D01*
Y275079D01*
X364076Y275587D01*
X363789Y276017D01*
X340489Y299317D01*
X340059Y299604D01*
X339552Y299705D01*
D02*
G37*
G36*
X54052Y176325D02*
X53154Y176146D01*
X52394Y175638D01*
X51885Y174877D01*
X51707Y173979D01*
X51885Y173082D01*
X52394Y172321D01*
X52727Y172099D01*
Y150914D01*
X52334Y150568D01*
X52052Y150625D01*
X51155Y150446D01*
X50394Y149938D01*
X49885Y149177D01*
X49707Y148280D01*
X49885Y147382D01*
X50394Y146621D01*
X51155Y146113D01*
X52052Y145934D01*
X52949Y146113D01*
X53710Y146621D01*
X54219Y147382D01*
X54397Y148280D01*
X54319Y148672D01*
X54989Y149342D01*
X55277Y149772D01*
X55377Y150279D01*
Y172099D01*
X55710Y172321D01*
X56218Y173082D01*
X56397Y173979D01*
X56218Y174877D01*
X55710Y175638D01*
X54949Y176146D01*
X54052Y176325D01*
D02*
G37*
G36*
X374016Y25596D02*
X372095Y25406D01*
X370247Y24846D01*
X368545Y23936D01*
X367053Y22711D01*
X365828Y21219D01*
X364918Y19517D01*
X364358Y17669D01*
X364168Y15748D01*
X364358Y13827D01*
X364918Y11980D01*
X365828Y10277D01*
X367053Y8785D01*
X368545Y7560D01*
X370247Y6650D01*
X372095Y6090D01*
X374016Y5901D01*
X375937Y6090D01*
X377784Y6650D01*
X379487Y7560D01*
X380979Y8785D01*
X382204Y10277D01*
X383114Y11980D01*
X383674Y13827D01*
X383863Y15748D01*
X383674Y17669D01*
X383114Y19517D01*
X382204Y21219D01*
X380979Y22711D01*
X379487Y23936D01*
X377784Y24846D01*
X375937Y25406D01*
X374016Y25596D01*
D02*
G37*
G36*
X15748D02*
X13827Y25406D01*
X11980Y24846D01*
X10277Y23936D01*
X8785Y22711D01*
X7560Y21219D01*
X6650Y19517D01*
X6090Y17669D01*
X5900Y15748D01*
X6090Y13827D01*
X6650Y11980D01*
X7560Y10277D01*
X8785Y8785D01*
X10277Y7560D01*
X11980Y6650D01*
X13827Y6090D01*
X15748Y5901D01*
X17669Y6090D01*
X19516Y6650D01*
X21219Y7560D01*
X22711Y8785D01*
X23936Y10277D01*
X24846Y11980D01*
X25406Y13827D01*
X25595Y15748D01*
X25406Y17669D01*
X24846Y19517D01*
X23936Y21219D01*
X22711Y22711D01*
X21219Y23936D01*
X19516Y24846D01*
X17669Y25406D01*
X15748Y25596D01*
D02*
G37*
%LPD*%
G36*
X210215Y208742D02*
X210645Y208455D01*
X211152Y208354D01*
X212370D01*
X212637Y207854D01*
X212385Y207477D01*
X212207Y206579D01*
X212385Y205682D01*
X212894Y204921D01*
X213655Y204413D01*
X214552Y204235D01*
X215449Y204413D01*
X216210Y204921D01*
X216432Y205254D01*
X246103D01*
X261027Y190331D01*
Y149541D01*
X260565Y149350D01*
X244013Y165901D01*
Y167629D01*
X244513Y167781D01*
X244650Y167577D01*
X245477Y167025D01*
X245952Y166930D01*
Y169379D01*
Y172198D01*
X245813Y172311D01*
Y185387D01*
X246290Y185706D01*
X246843Y186533D01*
X246937Y187008D01*
X242038D01*
X242133Y186533D01*
X242686Y185706D01*
X243162Y185387D01*
Y175897D01*
X242701Y175705D01*
X237619Y180787D01*
X237697Y181179D01*
X237519Y182077D01*
X237010Y182838D01*
X236249Y183346D01*
X235352Y183525D01*
X234455Y183346D01*
X233694Y182838D01*
X233185Y182077D01*
X233007Y181179D01*
X233185Y180282D01*
X233694Y179521D01*
X234455Y179013D01*
X235352Y178834D01*
X235745Y178912D01*
X241363Y173294D01*
Y170705D01*
X240862Y170656D01*
X240819Y170877D01*
X240310Y171638D01*
X239549Y172146D01*
X238652Y172325D01*
X237755Y172146D01*
X236994Y171638D01*
X236485Y170877D01*
X236307Y169980D01*
X236485Y169082D01*
X236994Y168321D01*
X237327Y168099D01*
Y161779D01*
X237427Y161272D01*
X237715Y160842D01*
X249727Y148830D01*
Y120645D01*
X249226Y120475D01*
X248880Y120927D01*
X248055Y121560D01*
X247094Y121958D01*
X246063Y122094D01*
X245032Y121958D01*
X244366Y121682D01*
X221819Y144229D01*
X221897Y144621D01*
X221719Y145519D01*
X221210Y146280D01*
X220449Y146788D01*
X219552Y146966D01*
X218655Y146788D01*
X217894Y146280D01*
X217385Y145519D01*
X217207Y144621D01*
X217385Y143724D01*
X217894Y142963D01*
X218655Y142455D01*
X219552Y142276D01*
X219945Y142354D01*
X242491Y119808D01*
X242215Y119141D01*
X242079Y118110D01*
X242215Y117079D01*
X242613Y116119D01*
X243246Y115293D01*
X244071Y114660D01*
X245032Y114262D01*
X246063Y114127D01*
X247094Y114262D01*
X248055Y114660D01*
X248880Y115293D01*
X249226Y115745D01*
X249727Y115576D01*
Y113121D01*
X249827Y112614D01*
X250115Y112184D01*
X252491Y109808D01*
X252215Y109141D01*
X252079Y108110D01*
X252215Y107079D01*
X252613Y106119D01*
X253246Y105293D01*
X254071Y104660D01*
X255032Y104262D01*
X256063Y104127D01*
X257094Y104262D01*
X258055Y104660D01*
X258727Y105176D01*
X259226Y104970D01*
Y103148D01*
X257760Y101682D01*
X257094Y101958D01*
X256063Y102094D01*
X255032Y101958D01*
X254071Y101560D01*
X253246Y100927D01*
X252613Y100102D01*
X252215Y99141D01*
X252079Y98110D01*
X252215Y97079D01*
X252613Y96118D01*
X253246Y95293D01*
X254071Y94660D01*
X255032Y94262D01*
X256063Y94127D01*
X257094Y94262D01*
X258055Y94660D01*
X258880Y95293D01*
X259513Y96118D01*
X259911Y97079D01*
X260047Y98110D01*
X259911Y99141D01*
X259635Y99808D01*
X260565Y100737D01*
X261027Y100546D01*
Y94948D01*
X257760Y91682D01*
X257094Y91958D01*
X256063Y92094D01*
X255032Y91958D01*
X254071Y91560D01*
X253246Y90927D01*
X252613Y90102D01*
X252377Y89534D01*
X251877Y89633D01*
Y91361D01*
X251777Y91868D01*
X251489Y92298D01*
X249189Y94598D01*
X248978Y94739D01*
X248894Y95214D01*
X248904Y95309D01*
X248914Y95338D01*
X249513Y96118D01*
X249911Y97079D01*
X250047Y98110D01*
X249911Y99141D01*
X249513Y100102D01*
X248880Y100927D01*
X248055Y101560D01*
X247094Y101958D01*
X246063Y102094D01*
X245032Y101958D01*
X244366Y101682D01*
X230419Y115629D01*
X230497Y116021D01*
X230318Y116919D01*
X229810Y117680D01*
X229049Y118188D01*
X228152Y118366D01*
X227255Y118188D01*
X226494Y117680D01*
X225985Y116919D01*
X225807Y116021D01*
X225985Y115124D01*
X226494Y114363D01*
X227255Y113855D01*
X228152Y113676D01*
X228544Y113754D01*
X242491Y99808D01*
X242215Y99141D01*
X242079Y98110D01*
X242215Y97079D01*
X242613Y96118D01*
X243098Y95486D01*
X242854Y94986D01*
X230220D01*
X207189Y118017D01*
X206759Y118304D01*
X206252Y118405D01*
X163452D01*
X162945Y118304D01*
X162515Y118017D01*
X162053Y117555D01*
X161579Y117788D01*
X161621Y118110D01*
X161486Y119141D01*
X161210Y119808D01*
X211589Y170187D01*
X211877Y170617D01*
X211977Y171124D01*
Y179237D01*
X212310Y179459D01*
X212819Y180220D01*
X212997Y181117D01*
X212819Y182015D01*
X212310Y182775D01*
X211549Y183284D01*
X210652Y183462D01*
X209983Y183329D01*
X209737Y183790D01*
X220501Y194554D01*
X227400D01*
X227636Y194113D01*
X227597Y194055D01*
X227502Y193579D01*
X229952D01*
Y193079D01*
X230452D01*
Y190630D01*
X230927Y190725D01*
X231420Y191054D01*
X241784D01*
X242103Y190577D01*
X242892Y190050D01*
X242948Y189829D01*
X242977Y189505D01*
X242686Y189311D01*
X242133Y188484D01*
X242038Y188008D01*
X246937D01*
X246843Y188484D01*
X246290Y189311D01*
X245501Y189838D01*
X245446Y190059D01*
X245416Y190382D01*
X245708Y190577D01*
X246260Y191404D01*
X246355Y191879D01*
X243905D01*
Y192879D01*
X246355D01*
X246271Y193301D01*
X246391Y193475D01*
X246633Y193697D01*
X247452Y193535D01*
X248349Y193713D01*
X249110Y194221D01*
X249619Y194982D01*
X249797Y195879D01*
X249619Y196777D01*
X249110Y197538D01*
X248349Y198046D01*
X247452Y198225D01*
X246555Y198046D01*
X245794Y197538D01*
X245571Y197205D01*
X227289D01*
X227137Y197705D01*
X227610Y198021D01*
X228118Y198782D01*
X228297Y199680D01*
X228118Y200577D01*
X227610Y201338D01*
X226849Y201846D01*
X225952Y202025D01*
X225055Y201846D01*
X224294Y201338D01*
X224071Y201005D01*
X213552D01*
X213045Y200904D01*
X212615Y200617D01*
X211536Y199538D01*
X210993Y199702D01*
X210918Y200077D01*
X210410Y200838D01*
X209649Y201346D01*
X209077Y201460D01*
Y209172D01*
X209577Y209380D01*
X210215Y208742D01*
D02*
G37*
G36*
X57221Y104660D02*
X58182Y104262D01*
X59213Y104127D01*
X60244Y104262D01*
X60910Y104538D01*
X103306Y62142D01*
X103736Y61855D01*
X104243Y61754D01*
X145077D01*
X145247Y61254D01*
X144821Y60927D01*
X144188Y60102D01*
X143790Y59141D01*
X143654Y58110D01*
X143790Y57079D01*
X144188Y56119D01*
X144821Y55293D01*
X145327Y54905D01*
X145157Y54405D01*
X66303D01*
X65984Y54882D01*
X65157Y55435D01*
X64682Y55529D01*
Y53079D01*
Y50630D01*
X65157Y50725D01*
X65984Y51277D01*
X66303Y51754D01*
X145077D01*
X145247Y51254D01*
X144821Y50927D01*
X144188Y50102D01*
X143790Y49141D01*
X143654Y48110D01*
X143790Y47079D01*
X144188Y46119D01*
X144673Y45486D01*
X144429Y44986D01*
X62676D01*
X62429Y45486D01*
X62837Y46018D01*
X63255Y47027D01*
X63332Y47610D01*
X59213D01*
Y48610D01*
X63332D01*
X63255Y49194D01*
X62837Y50203D01*
X62575Y50545D01*
X62921Y50915D01*
X63206Y50725D01*
X63682Y50630D01*
Y53079D01*
Y55529D01*
X63206Y55435D01*
X62824Y55179D01*
X62478Y55549D01*
X62837Y56018D01*
X63255Y57027D01*
X63332Y57610D01*
X59213D01*
Y58110D01*
X58713D01*
Y62230D01*
X58129Y62153D01*
X57120Y61735D01*
X56253Y61070D01*
X56077Y60841D01*
X55577Y61011D01*
Y65539D01*
X56077Y65708D01*
X56396Y65293D01*
X57221Y64660D01*
X58182Y64262D01*
X59213Y64127D01*
X60244Y64262D01*
X61204Y64660D01*
X62029Y65293D01*
X62663Y66119D01*
X63060Y67079D01*
X63196Y68110D01*
X63060Y69141D01*
X62663Y70102D01*
X62029Y70927D01*
X61204Y71560D01*
X60244Y71958D01*
X59213Y72094D01*
X58182Y71958D01*
X57221Y71560D01*
X56396Y70927D01*
X56077Y70512D01*
X55577Y70682D01*
Y73071D01*
X55476Y73578D01*
X55189Y74008D01*
X52785Y76413D01*
X53061Y77079D01*
X53196Y78110D01*
X53061Y79141D01*
X52662Y80102D01*
X52030Y80927D01*
X51204Y81560D01*
X50244Y81958D01*
X49213Y82094D01*
X48182Y81958D01*
X47221Y81560D01*
X46396Y80927D01*
X45763Y80102D01*
X45365Y79141D01*
X45229Y78110D01*
X45365Y77079D01*
X45763Y76118D01*
X46396Y75293D01*
X47221Y74660D01*
X48182Y74262D01*
X49213Y74127D01*
X50244Y74262D01*
X50910Y74538D01*
X52926Y72522D01*
Y70579D01*
X52426Y70410D01*
X52030Y70927D01*
X51204Y71560D01*
X50244Y71958D01*
X49213Y72094D01*
X48182Y71958D01*
X47221Y71560D01*
X46396Y70927D01*
X45763Y70102D01*
X45365Y69141D01*
X45229Y68110D01*
X45365Y67079D01*
X45763Y66119D01*
X46396Y65293D01*
X47221Y64660D01*
X48182Y64262D01*
X49213Y64127D01*
X50244Y64262D01*
X51204Y64660D01*
X52030Y65293D01*
X52426Y65811D01*
X52926Y65641D01*
Y60580D01*
X52426Y60410D01*
X52030Y60927D01*
X51204Y61560D01*
X50244Y61958D01*
X49213Y62094D01*
X48182Y61958D01*
X47221Y61560D01*
X46396Y60927D01*
X45763Y60102D01*
X45365Y59141D01*
X45229Y58110D01*
X45365Y57079D01*
X45763Y56119D01*
X46396Y55293D01*
X47221Y54660D01*
X48182Y54262D01*
X49213Y54127D01*
X50244Y54262D01*
X51204Y54660D01*
X52030Y55293D01*
X52426Y55811D01*
X52926Y55641D01*
Y50580D01*
X52426Y50410D01*
X52030Y50927D01*
X51204Y51560D01*
X50244Y51958D01*
X49213Y52094D01*
X48182Y51958D01*
X47221Y51560D01*
X46396Y50927D01*
X45763Y50102D01*
X45365Y49141D01*
X45229Y48110D01*
X45365Y47079D01*
X45763Y46119D01*
X46396Y45293D01*
X47221Y44660D01*
X48182Y44262D01*
X49213Y44127D01*
X50244Y44262D01*
X50910Y44538D01*
X54525Y40924D01*
X54955Y40636D01*
X55111Y40605D01*
X55062Y40105D01*
X46401D01*
X41477Y45029D01*
Y93338D01*
X41977Y93489D01*
X42015Y93434D01*
X45641Y89808D01*
X45365Y89141D01*
X45229Y88110D01*
X45365Y87079D01*
X45763Y86119D01*
X46396Y85293D01*
X47221Y84660D01*
X48182Y84262D01*
X49213Y84127D01*
X50244Y84262D01*
X51204Y84660D01*
X52030Y85293D01*
X52662Y86119D01*
X53061Y87079D01*
X53196Y88110D01*
X53061Y89141D01*
X52662Y90102D01*
X52030Y90927D01*
X51204Y91560D01*
X50244Y91958D01*
X49213Y92094D01*
X48182Y91958D01*
X47515Y91682D01*
X44277Y94920D01*
Y100518D01*
X44739Y100709D01*
X45641Y99808D01*
X45365Y99141D01*
X45229Y98110D01*
X45365Y97079D01*
X45763Y96118D01*
X46396Y95293D01*
X47221Y94660D01*
X48182Y94262D01*
X49213Y94127D01*
X50244Y94262D01*
X51204Y94660D01*
X52030Y95293D01*
X52662Y96118D01*
X52938Y96782D01*
X53438Y96683D01*
Y92560D01*
X53538Y92053D01*
X53826Y91623D01*
X55641Y89808D01*
X55365Y89141D01*
X55229Y88110D01*
X55365Y87079D01*
X55763Y86119D01*
X56396Y85293D01*
X57221Y84660D01*
X58182Y84262D01*
X59213Y84127D01*
X60244Y84262D01*
X61204Y84660D01*
X62029Y85293D01*
X62663Y86119D01*
X63060Y87079D01*
X63196Y88110D01*
X63060Y89141D01*
X62663Y90102D01*
X62029Y90927D01*
X61204Y91560D01*
X60244Y91958D01*
X59213Y92094D01*
X58182Y91958D01*
X57515Y91682D01*
X56088Y93109D01*
Y94902D01*
X56588Y95145D01*
X57221Y94660D01*
X58182Y94262D01*
X59213Y94127D01*
X60244Y94262D01*
X61204Y94660D01*
X62029Y95293D01*
X62663Y96118D01*
X63060Y97079D01*
X63196Y98110D01*
X63060Y99141D01*
X62663Y100102D01*
X62029Y100927D01*
X61204Y101560D01*
X60244Y101958D01*
X59213Y102094D01*
X58182Y101958D01*
X57221Y101560D01*
X56588Y101075D01*
X56088Y101319D01*
Y104902D01*
X56588Y105146D01*
X57221Y104660D01*
D02*
G37*
%LPC*%
G36*
X229452Y192579D02*
X227502D01*
X227597Y192104D01*
X228150Y191277D01*
X228976Y190725D01*
X229452Y190630D01*
Y192579D01*
D02*
G37*
G36*
X246952Y171829D02*
Y169879D01*
X248902D01*
X248807Y170355D01*
X248254Y171182D01*
X247427Y171734D01*
X246952Y171829D01*
D02*
G37*
G36*
X248902Y168879D02*
X246952D01*
Y166930D01*
X247427Y167025D01*
X248254Y167577D01*
X248807Y168404D01*
X248902Y168879D01*
D02*
G37*
G36*
X223452Y133066D02*
X222555Y132888D01*
X221794Y132379D01*
X221285Y131619D01*
X221107Y130721D01*
X221285Y129824D01*
X221794Y129063D01*
X222555Y128555D01*
X223452Y128376D01*
X223845Y128454D01*
X242491Y109808D01*
X242215Y109141D01*
X242079Y108110D01*
X242215Y107079D01*
X242613Y106119D01*
X243246Y105293D01*
X244071Y104660D01*
X245032Y104262D01*
X246063Y104127D01*
X247094Y104262D01*
X248055Y104660D01*
X248880Y105293D01*
X249513Y106119D01*
X249911Y107079D01*
X250047Y108110D01*
X249911Y109141D01*
X249513Y110102D01*
X248880Y110927D01*
X248055Y111560D01*
X247094Y111958D01*
X246063Y112094D01*
X245032Y111958D01*
X244366Y111682D01*
X225719Y130329D01*
X225797Y130721D01*
X225619Y131619D01*
X225110Y132379D01*
X224349Y132888D01*
X223452Y133066D01*
D02*
G37*
G36*
X59213Y82094D02*
X58182Y81958D01*
X57221Y81560D01*
X56396Y80927D01*
X55763Y80102D01*
X55365Y79141D01*
X55229Y78110D01*
X55365Y77079D01*
X55763Y76118D01*
X56396Y75293D01*
X57221Y74660D01*
X58182Y74262D01*
X59213Y74127D01*
X60244Y74262D01*
X61204Y74660D01*
X62029Y75293D01*
X62663Y76118D01*
X63060Y77079D01*
X63196Y78110D01*
X63060Y79141D01*
X62663Y80102D01*
X62029Y80927D01*
X61204Y81560D01*
X60244Y81958D01*
X59213Y82094D01*
D02*
G37*
G36*
X59713Y62230D02*
Y58610D01*
X63332D01*
X63255Y59194D01*
X62837Y60203D01*
X62172Y61070D01*
X61305Y61735D01*
X60296Y62153D01*
X59713Y62230D01*
D02*
G37*
%LPD*%
D14*
X239348Y261879D02*
X245852D01*
X223952D02*
X239348D01*
X192554D02*
X223952D01*
X138222Y77979D02*
X147638D01*
X134552D02*
X138222D01*
X95652Y187779D02*
X113953D01*
X132152Y177668D02*
Y182980D01*
Y163680D02*
Y177668D01*
X202652Y228979D02*
Y239779D01*
Y217880D02*
Y228979D01*
X207752Y223880D01*
X193352Y238280D02*
X202652Y228979D01*
X207752Y212779D02*
Y223880D01*
Y200180D02*
Y212779D01*
X189404Y359559D02*
X229134Y358680D01*
X188484Y359579D02*
X189404Y359559D01*
X293552Y201979D02*
X295552Y199979D01*
X314652Y180879D01*
X67452Y222679D02*
X180852D01*
X49452D02*
X67452D01*
X32952Y280826D02*
Y285276D01*
Y253780D02*
Y280826D01*
X248319Y225984D02*
X344488Y129815D01*
X124252Y281179D02*
X227152D01*
X180752Y250077D02*
X192554Y261879D01*
X125052Y270280D02*
X132352Y277579D01*
X223952D01*
X180752Y246480D02*
Y250077D01*
X354488Y118110D02*
Y131380D01*
X253189Y232680D02*
X354488Y131380D01*
X245852Y232680D02*
X253189D01*
X186221Y287402D02*
X202399Y303579D01*
X233752D01*
X350039Y112560D02*
Y127893D01*
Y112560D02*
X354488Y108110D01*
X248652Y229279D02*
X350039Y127893D01*
X234052Y82579D02*
X241594D01*
X246063Y78110D01*
X195152Y249734D02*
X196498Y251080D01*
X195152Y245180D02*
Y249734D01*
X191852Y241880D02*
X195152Y245180D01*
X171284Y241880D02*
X191852D01*
X158984Y254180D02*
X171284Y241880D01*
X126852Y254180D02*
X158984D01*
X124335Y256697D02*
X126852Y254180D01*
X196498Y251080D02*
X314652D01*
X157638Y108110D02*
X200183D01*
X205452Y113380D01*
X45852Y38780D02*
X261152D01*
X40152Y44480D02*
X45852Y38780D01*
X40152Y44480D02*
Y227953D01*
X82952Y135179D02*
Y180980D01*
Y135179D02*
X137352Y80779D01*
X88552Y231979D02*
X92552Y227979D01*
X186706D01*
X203952Y210734D01*
Y192480D02*
Y210734D01*
Y192480D02*
X205852Y190579D01*
Y184479D02*
Y190579D01*
X186152Y164779D02*
X205852Y184479D01*
X136852Y164779D02*
X186152D01*
X360952Y196379D02*
X362852Y198280D01*
Y275079D01*
X339552Y298379D02*
X362852Y275079D01*
X272152Y298379D02*
X339552D01*
X248552Y274780D02*
X272152Y298379D01*
X133952Y274780D02*
X248552D01*
X129652Y270479D02*
X133952Y274780D01*
X129652Y256979D02*
X165752D01*
X179052Y243679D01*
X187852D01*
X188852Y244679D01*
X149006Y207979D02*
X156952D01*
X59213Y108110D02*
X104243Y63080D01*
X247432D01*
X251613Y67261D01*
Y70921D01*
X253252Y72560D01*
X258332D01*
X263552Y77780D01*
Y79779D01*
X178711Y197313D02*
X186652Y205254D01*
X125386Y197313D02*
X178711D01*
X115652Y165980D02*
X153152Y128480D01*
Y115779D02*
Y128480D01*
Y115779D02*
X155852Y113080D01*
X159452D01*
X163452Y117079D01*
X206252D01*
X229671Y93661D01*
X248252D01*
X250552Y91361D01*
Y85780D02*
Y91361D01*
Y85780D02*
X252752Y83579D01*
X349019D01*
X354488Y78110D01*
X44752Y102571D02*
X49213Y98110D01*
X44752Y102571D02*
Y179480D01*
X45752Y180480D01*
X64182Y53079D02*
X241094D01*
X246063Y48110D01*
X188484Y359579D02*
X189384Y358680D01*
X229134D01*
X314652Y180879D02*
X348957D01*
X68740Y255906D02*
X79366Y245280D01*
X106752D01*
X111952Y240079D01*
X157052D01*
X159452Y242479D01*
X189452Y208080D02*
X193752Y203780D01*
X184252Y208080D02*
X189452D01*
X177152Y200979D02*
X184252Y208080D01*
X137593Y200979D02*
X177152D01*
X121052Y217521D02*
X137593Y200979D01*
X75493Y217521D02*
X121052D01*
X73952Y215980D02*
X75493Y217521D01*
X64952Y215980D02*
X73952D01*
X213552Y199680D02*
X225952D01*
X210252Y196379D02*
X213552Y199680D01*
X207252Y196379D02*
X210252D01*
X205952Y197679D02*
X207252Y196379D01*
X205952Y197679D02*
Y211280D01*
X189891Y227341D02*
X205952Y211280D01*
X189891Y227341D02*
Y229780D01*
X183691Y235980D02*
X189891Y229780D01*
X80752Y235980D02*
X183691D01*
X74352Y229579D02*
X80752Y235980D01*
X83421Y231780D02*
X83452D01*
X89352Y225880D01*
X184852D01*
X201187Y209545D01*
Y198292D02*
Y209545D01*
X194474Y191579D02*
X201187Y198292D01*
X54252Y219079D02*
X73088D01*
X73329Y219321D01*
X156811D01*
X163552Y212579D01*
X207752Y200180D02*
X208752Y199179D01*
X92752Y238280D02*
X193352D01*
X91652Y239380D02*
X92752Y238280D01*
X88740Y255906D02*
X94466Y250180D01*
X146952D01*
X154252Y242880D01*
X155101Y252080D02*
X159252Y247929D01*
X104252Y252080D02*
X155101D01*
X100152Y256179D02*
X104252Y252080D01*
X100152Y256179D02*
Y298379D01*
X73886Y324646D02*
X100152Y298379D01*
X37402Y324646D02*
X73886D01*
X354488Y98110D02*
X360752Y104374D01*
Y180780D01*
X351752Y189779D02*
X360752Y180780D01*
X351752Y189779D02*
Y279979D01*
X335152Y296580D02*
X351752Y279979D01*
X311152Y296580D02*
X335152D01*
X287552Y272979D02*
X311152Y296580D01*
X199924Y272979D02*
X287552D01*
X195524Y268580D02*
X199924Y272979D01*
X135452Y216079D02*
X147791Y203740D01*
X169052D01*
X147452Y211579D02*
X148252Y210780D01*
X159452D01*
X160452Y209780D01*
X165952D01*
X171852Y215680D01*
X180852Y222679D02*
X196752Y206780D01*
X32952Y285276D02*
X37402D01*
X32952Y253780D02*
X35352Y251379D01*
X38752D01*
X32952Y280826D02*
X37402Y285276D01*
X38752Y251379D02*
X67452Y222679D01*
X54763Y92560D02*
X59213Y88110D01*
X54763Y92560D02*
Y111091D01*
X56252Y112580D01*
X68252D01*
X74452Y118780D01*
Y212002D01*
X78170Y215721D01*
X117444D01*
X133052Y200113D01*
X360733Y53661D02*
X363752Y56679D01*
X250513Y45779D02*
Y50061D01*
X248394Y43661D02*
X250513Y45779D01*
X54252Y45661D02*
Y73071D01*
X191929Y257279D02*
X302652D01*
X305752Y72579D02*
X347520D01*
X348239Y71861D01*
X350738D01*
X354488Y68110D01*
X202652Y217880D02*
X207752Y212779D01*
X202652Y239779D02*
X203952Y241079D01*
X312652D01*
X331352Y259780D01*
Y292779D01*
X122852Y261779D02*
X186024D01*
X157638Y68110D02*
X188983D01*
X200752Y79879D01*
X98552Y171080D02*
Y172379D01*
X113953Y187779D01*
X150452D01*
X157152Y181079D01*
X195746D02*
X202346Y187680D01*
X157152Y181079D02*
X195746D01*
X219952Y195879D02*
X247452D01*
X185652Y161580D02*
X219952Y195879D01*
X132152Y163680D02*
X134252Y161580D01*
X185652D01*
X290186Y162413D02*
X344488Y108110D01*
X290186Y162413D02*
Y180123D01*
X252629Y217680D02*
X290186Y180123D01*
X223852Y217680D02*
X252629D01*
X217752Y223780D02*
X223852Y217680D01*
X217752Y223780D02*
Y233080D01*
X220718Y225984D02*
X248319D01*
X344488Y118110D02*
Y129815D01*
X238652Y161779D02*
Y169980D01*
Y161779D02*
X251052Y149380D01*
Y113121D02*
Y149380D01*
Y113121D02*
X256063Y108110D01*
X236852Y77321D02*
X246063Y68110D01*
X205752Y253979D02*
X304752D01*
X205452Y237479D02*
X207252Y239280D01*
X292552D01*
X343952Y187880D01*
X204552Y244880D02*
X206838Y247166D01*
X304066D01*
X306352Y244880D01*
X223452Y130721D02*
X246063Y108110D01*
X219552Y144621D02*
X246063Y118110D01*
X157638D02*
X210652Y171124D01*
Y181117D01*
X138353Y78110D02*
X147638D01*
X138222Y77979D02*
X138353Y78110D01*
X78052Y134479D02*
Y208080D01*
X80252Y210279D02*
X86452D01*
X147638Y77979D02*
Y78110D01*
X78052Y134479D02*
X134552Y77979D01*
X78052Y208080D02*
X80252Y210279D01*
X294821Y88110D02*
X344488D01*
X268252Y114680D02*
X294821Y88110D01*
X268252Y114680D02*
Y188579D01*
X247152Y209680D02*
X268252Y188579D01*
X211152Y209680D02*
X247152D01*
X210052Y210780D02*
X211152Y209680D01*
X210052Y210780D02*
Y214580D01*
X212252Y216779D01*
X214552D01*
X207677Y228705D02*
X214852Y235879D01*
X253852D01*
X358938Y130794D01*
Y105780D02*
Y130794D01*
X356819Y103661D02*
X358938Y105780D01*
X350039Y103661D02*
X356819D01*
X344488Y98110D02*
X350039Y103661D01*
X215292Y91861D02*
X242313D01*
X246063Y88110D01*
X228152Y116021D02*
X246063Y98110D01*
X89252Y144580D02*
X140252Y93580D01*
X153107D01*
X157638Y98110D01*
X88152Y160679D02*
Y167079D01*
Y160679D02*
X146252Y102579D01*
X160352D01*
X162152Y100779D01*
Y92624D02*
Y100779D01*
X157638Y88110D02*
X162152Y92624D01*
X157638Y78110D02*
X189883D01*
X199552Y87779D01*
X235352Y181179D02*
X242688Y173844D01*
Y165352D02*
Y173844D01*
Y165352D02*
X260552Y147488D01*
Y102599D02*
Y147488D01*
X256063Y98110D02*
X260552Y102599D01*
X214552Y206579D02*
X246652D01*
X262352Y190879D01*
Y94399D02*
Y190879D01*
X256063Y88110D02*
X262352Y94399D01*
X210452Y243880D02*
X298552D01*
X314252Y68080D02*
X314283Y68110D01*
X344488D01*
X49213Y78110D02*
X54252Y73071D01*
Y45661D02*
X56252Y43661D01*
X248394D01*
X250513Y50061D02*
X254113Y53661D01*
X360733D01*
X212852Y212479D02*
X251052D01*
X273352Y190180D01*
Y142780D02*
Y190180D01*
Y142780D02*
X323052Y93080D01*
X356252D01*
X358952Y90380D01*
Y75779D02*
Y90380D01*
X356833Y73661D02*
X358952Y75779D01*
X350052Y73661D02*
X356833D01*
X347833Y75880D02*
X350052Y73661D01*
X346719Y75880D02*
X347833D01*
X344488Y78110D02*
X346719Y75880D01*
X54052Y150279D02*
Y173979D01*
X52052Y148280D02*
X54052Y150279D01*
X100452Y166680D02*
X119552Y185780D01*
X143552D01*
X148252Y181079D01*
X42952Y94371D02*
X49213Y88110D01*
X42952Y94371D02*
Y194190D01*
X244488Y171344D02*
X246452Y169379D01*
X244488Y171344D02*
Y187508D01*
X230652Y192379D02*
X243905D01*
X229952Y193079D02*
X230652Y192379D01*
X205906Y287402D02*
X219084Y300580D01*
X88740Y255906D02*
Y295275D01*
X320571Y359055D02*
X329152D01*
X329939Y359842D01*
X338583D01*
X49213Y48110D02*
X55462Y41861D01*
X249813D01*
X256063Y48110D01*
X235184Y359055D02*
X274705D01*
X232759Y361479D02*
X235184Y359055D01*
X184652Y361479D02*
X232759D01*
X153752Y330579D02*
X184652Y361479D01*
X72806Y330579D02*
X153752D01*
X68740Y334646D02*
X72806Y330579D01*
X141152Y297580D02*
X173130Y329557D01*
X141152Y288529D02*
Y297580D01*
X87252Y188880D02*
X92752Y183379D01*
Y167579D02*
Y183379D01*
Y167579D02*
X100252Y160080D01*
X103652D01*
X114252Y170679D01*
X118552D01*
X130452Y158780D01*
X190352D01*
X199803Y168231D01*
X80852Y198679D02*
X109152D01*
X116452Y191379D01*
X172452D01*
X178052Y185780D01*
X192851D01*
X81152Y206080D02*
X84952Y202279D01*
X110352D01*
X119452Y193180D01*
X186152D01*
X190152Y189180D01*
X85752Y141879D02*
X144552Y83079D01*
X181352D01*
X202452Y104180D01*
X37402Y334646D02*
X40735Y337980D01*
X75406D01*
X78740Y334646D01*
X37402Y295275D02*
X40706Y298580D01*
X75436D01*
X78740Y295275D01*
X37402Y255906D02*
X40676Y259179D01*
X75466D01*
X78740Y255906D01*
D58*
X37402Y324646D02*
D03*
Y334646D02*
D03*
Y285276D02*
D03*
Y295275D02*
D03*
Y245905D02*
D03*
Y255906D02*
D03*
X324895Y244368D02*
D03*
Y234368D02*
D03*
X358395Y244468D02*
D03*
Y234468D02*
D03*
X338583Y359842D02*
D03*
Y349843D02*
D03*
X354488Y118110D02*
D03*
Y108110D02*
D03*
Y98110D02*
D03*
Y88110D02*
D03*
Y78110D02*
D03*
Y68110D02*
D03*
Y58110D02*
D03*
Y48110D02*
D03*
X344488D02*
D03*
Y58110D02*
D03*
Y68110D02*
D03*
Y78110D02*
D03*
Y88110D02*
D03*
Y98110D02*
D03*
Y108110D02*
D03*
Y118110D02*
D03*
X256063D02*
D03*
Y108110D02*
D03*
Y98110D02*
D03*
Y88110D02*
D03*
Y78110D02*
D03*
Y68110D02*
D03*
Y58110D02*
D03*
Y48110D02*
D03*
X246063D02*
D03*
Y58110D02*
D03*
Y68110D02*
D03*
Y78110D02*
D03*
Y88110D02*
D03*
Y98110D02*
D03*
Y108110D02*
D03*
Y118110D02*
D03*
X157638D02*
D03*
Y108110D02*
D03*
Y98110D02*
D03*
Y88110D02*
D03*
Y78110D02*
D03*
Y68110D02*
D03*
Y58110D02*
D03*
Y48110D02*
D03*
X147638D02*
D03*
Y58110D02*
D03*
Y68110D02*
D03*
Y78110D02*
D03*
Y88110D02*
D03*
Y98110D02*
D03*
Y108110D02*
D03*
Y118110D02*
D03*
X59213D02*
D03*
Y108110D02*
D03*
Y98110D02*
D03*
Y88110D02*
D03*
Y78110D02*
D03*
Y68110D02*
D03*
Y58110D02*
D03*
Y48110D02*
D03*
X49213D02*
D03*
Y58110D02*
D03*
Y68110D02*
D03*
Y78110D02*
D03*
Y88110D02*
D03*
Y98110D02*
D03*
Y108110D02*
D03*
Y118110D02*
D03*
X186221Y267717D02*
D03*
X205906D02*
D03*
X186221Y287402D02*
D03*
X205906D02*
D03*
D59*
X78740Y295275D02*
D03*
X88740D02*
D03*
X68740D02*
D03*
X78740Y255906D02*
D03*
X88740D02*
D03*
X68740D02*
D03*
X78740Y334646D02*
D03*
X88740D02*
D03*
X68740D02*
D03*
D60*
X320571Y359055D02*
D03*
D61*
X274705D02*
D03*
D62*
X15748Y15748D02*
D03*
X374016D02*
D03*
Y374016D02*
D03*
X15748D02*
D03*
D63*
X124252Y281179D02*
D03*
X227152D02*
D03*
X239348Y261879D02*
D03*
X125052Y270280D02*
D03*
X223952Y277579D02*
D03*
Y261879D02*
D03*
X245852Y232680D02*
D03*
Y261879D02*
D03*
X180752Y246480D02*
D03*
X233752Y303579D02*
D03*
X248652Y229279D02*
D03*
X234052Y82579D02*
D03*
X124335Y256697D02*
D03*
X196498Y251080D02*
D03*
X314652D02*
D03*
X205452Y113380D02*
D03*
X261152Y38780D02*
D03*
X40152Y227953D02*
D03*
X82952Y180980D02*
D03*
X137352Y80779D02*
D03*
X88552Y231979D02*
D03*
X136852Y164779D02*
D03*
X129652Y256979D02*
D03*
X360952Y196379D02*
D03*
X129652Y270479D02*
D03*
X188852Y244679D02*
D03*
X149006Y207979D02*
D03*
X156952D02*
D03*
X263552Y79779D02*
D03*
X186652Y205254D02*
D03*
X125386Y197313D02*
D03*
X115652Y165980D02*
D03*
X45752Y180480D02*
D03*
X64182Y53079D02*
D03*
X229134Y358680D02*
D03*
X189384D02*
D03*
X295552Y199979D02*
D03*
X348957Y180879D02*
D03*
X159452Y242479D02*
D03*
X193752Y203780D02*
D03*
X64952Y215980D02*
D03*
X225952Y199680D02*
D03*
X74352Y229579D02*
D03*
X83421Y231780D02*
D03*
X194474Y191579D02*
D03*
X54252Y219079D02*
D03*
X163552Y212579D02*
D03*
X208752Y199179D02*
D03*
X91652Y239380D02*
D03*
X154252Y242880D02*
D03*
X159252Y247929D02*
D03*
X195524Y268580D02*
D03*
X135452Y216079D02*
D03*
X147452Y211579D02*
D03*
X171852Y215680D02*
D03*
X49452Y222679D02*
D03*
X196752Y206780D02*
D03*
X133052Y200113D02*
D03*
X191929Y257279D02*
D03*
X302652D02*
D03*
X305752Y72579D02*
D03*
X331352Y292779D02*
D03*
X122852Y261779D02*
D03*
X186024D02*
D03*
X200752Y79879D02*
D03*
X98552Y171080D02*
D03*
X202346Y187680D02*
D03*
X95652Y187779D02*
D03*
X247452Y195879D02*
D03*
X132152Y182980D02*
D03*
Y177668D02*
D03*
X217752Y233080D02*
D03*
X220718Y225984D02*
D03*
X238652Y169980D02*
D03*
X236852Y77321D02*
D03*
X205752Y253979D02*
D03*
X304752D02*
D03*
X205452Y237479D02*
D03*
X343952Y187880D02*
D03*
X204552Y244880D02*
D03*
X306352D02*
D03*
X223452Y130721D02*
D03*
X219552Y144621D02*
D03*
X210652Y181117D02*
D03*
X86452Y210279D02*
D03*
X214552Y216779D02*
D03*
X207677Y228705D02*
D03*
X215292Y91861D02*
D03*
X228152Y116021D02*
D03*
X89252Y144580D02*
D03*
X88152Y167079D02*
D03*
X199552Y87779D02*
D03*
X235352Y181179D02*
D03*
X214552Y206579D02*
D03*
X210452Y243880D02*
D03*
X298552D02*
D03*
X314252Y68080D02*
D03*
X363752Y56679D02*
D03*
X212852Y212479D02*
D03*
X54052Y173979D02*
D03*
X52052Y148280D02*
D03*
X100452Y166680D02*
D03*
X148252Y181079D02*
D03*
X42952Y194190D02*
D03*
X246452Y169379D02*
D03*
X244488Y187508D02*
D03*
X243905Y192379D02*
D03*
X229952Y193079D02*
D03*
X219084Y300580D02*
D03*
X293552Y201979D02*
D03*
X173130Y329557D02*
D03*
X87252Y188880D02*
D03*
X199803Y168231D02*
D03*
X80852Y198679D02*
D03*
X192851Y185780D02*
D03*
X81152Y206080D02*
D03*
X190152Y189180D02*
D03*
X85752Y141879D02*
D03*
X202452Y104180D02*
D03*
M02*
