G04*
G04 #@! TF.GenerationSoftware,Altium Limited,Altium Designer,19.1.8 (144)*
G04*
G04 Layer_Color=16711935*
%FSLAX25Y25*%
%MOIN*%
G70*
G01*
G75*
%ADD13C,0.00394*%
D13*
X198819Y219678D02*
G03*
X198819Y219678I-1969J0D01*
G01*
X164370Y356299D02*
G03*
X164370Y356299I-1969J0D01*
G01*
X327165Y219291D02*
G03*
X327165Y219291I-1969J0D01*
G01*
X300787Y337008D02*
G03*
X300787Y337008I-1969J0D01*
G01*
X43799Y175886D02*
X50689D01*
X43799Y172146D02*
X50689D01*
X43799D02*
Y175886D01*
X50689Y172146D02*
Y175886D01*
X39272Y210531D02*
X46161D01*
X39272Y206791D02*
X46161D01*
X39272D02*
Y210531D01*
X46161Y206791D02*
Y210531D01*
X174508Y323327D02*
Y330217D01*
X178248Y323327D02*
Y330217D01*
X174508Y323327D02*
X178248D01*
X174508Y330217D02*
X178248D01*
X169011Y196850D02*
X196850Y169012D01*
X196851Y224689D02*
X224689Y196851D01*
X196850Y169012D02*
X224689Y196851D01*
X169011Y196850D02*
X196851Y224689D01*
X214665Y346162D02*
X218406D01*
X214665Y353051D02*
X218406D01*
X214665Y346162D02*
Y353051D01*
X218406Y346162D02*
Y353051D01*
X205217Y346161D02*
X208957D01*
X205217Y353051D02*
X208957D01*
X205217Y346161D02*
Y353051D01*
X208957Y346161D02*
Y353051D01*
X142224Y346752D02*
X145965D01*
X142224Y339862D02*
X145965D01*
Y346752D01*
X142224Y339862D02*
Y346752D01*
X124902Y346949D02*
X128642D01*
X124902Y340059D02*
X128642D01*
Y346949D01*
X124902Y340059D02*
Y346949D01*
X154035Y330217D02*
X157776D01*
X154035Y323327D02*
X157776D01*
Y330217D01*
X154035Y323327D02*
Y330217D01*
X158858Y352756D02*
X200197D01*
X158858Y374803D02*
X200197D01*
X158858Y352756D02*
Y374803D01*
X200197Y352756D02*
Y374803D01*
X341338Y215748D02*
Y231496D01*
X321654Y215748D02*
Y231496D01*
X341338D01*
X321654Y215748D02*
X341338D01*
X295276Y320866D02*
X311024D01*
X295276Y340551D02*
X311024D01*
Y320866D02*
Y340551D01*
X295276Y320866D02*
Y340551D01*
X117028Y300492D02*
Y304232D01*
X123917Y300492D02*
Y304232D01*
X117028D02*
X123917D01*
X117028Y300492D02*
X123917D01*
X161122Y268996D02*
X164862D01*
X161122Y275886D02*
X164862D01*
X161122Y268996D02*
Y275886D01*
X164862Y268996D02*
Y275886D01*
X306791Y231201D02*
Y234941D01*
X313681Y231201D02*
Y234941D01*
X306791D02*
X313681D01*
X306791Y231201D02*
X313681D01*
X341437Y253248D02*
Y256988D01*
X348327Y253248D02*
Y256988D01*
X341437D02*
X348327D01*
X341437Y253248D02*
X348327D01*
X311516Y253248D02*
Y256988D01*
X318406Y253248D02*
Y256988D01*
X311516D02*
X318406D01*
X311516Y253248D02*
X318406D01*
X331791Y336713D02*
Y340453D01*
X324902Y336713D02*
Y340453D01*
Y336713D02*
X331791D01*
X324902Y340453D02*
X331791D01*
X340650Y298917D02*
Y302658D01*
X347539Y298917D02*
Y302658D01*
X340650D02*
X347539D01*
X340650Y298917D02*
X347539D01*
X311516Y298917D02*
Y302658D01*
X318406Y298917D02*
Y302658D01*
X311516D02*
X318406D01*
X311516Y298917D02*
X318406D01*
X120571Y273760D02*
Y287264D01*
X145571D01*
X120571Y273760D02*
X145571D01*
Y287264D01*
X49134Y217717D02*
Y223228D01*
X61102Y217717D02*
Y223228D01*
X49134Y217717D02*
X61102D01*
X49134Y223228D02*
X61102D01*
X50709Y183071D02*
Y188583D01*
X62677Y183071D02*
Y188583D01*
X50709Y183071D02*
X62677D01*
X50709Y188583D02*
X62677D01*
X218504Y366732D02*
Y389961D01*
X250000Y366732D02*
Y389961D01*
X218504Y366732D02*
X250000D01*
X218504Y389961D02*
X250000D01*
X193405Y238878D02*
X200295D01*
X193405Y235138D02*
X200295D01*
X193405D02*
Y238878D01*
X200295Y235138D02*
Y238878D01*
X237303Y192913D02*
Y199803D01*
X233563Y192913D02*
Y199803D01*
X237303D01*
X233563Y192913D02*
X237303D01*
X193406Y246752D02*
X200295D01*
X193406Y243012D02*
X200295D01*
X193406D02*
Y246752D01*
X200295Y243012D02*
Y246752D01*
X134350Y300492D02*
X141240D01*
X134350Y304232D02*
X141240D01*
Y300492D02*
Y304232D01*
X134350Y300492D02*
Y304232D01*
X328051Y254035D02*
Y260925D01*
X331791Y254035D02*
Y260925D01*
X328051Y254035D02*
X331791D01*
X328051Y260925D02*
X331791D01*
X346949Y215157D02*
Y222047D01*
X350689Y215157D02*
Y222047D01*
X346949Y215157D02*
X350689D01*
X346949Y222047D02*
X350689D01*
X161909Y323327D02*
Y330217D01*
X165650Y323327D02*
Y330217D01*
X161909Y323327D02*
X165650D01*
X161909Y330217D02*
X165650D01*
X331791Y294488D02*
Y301378D01*
X328051Y294488D02*
Y301378D01*
X331791D01*
X328051Y294488D02*
X331791D01*
X291043Y310728D02*
X297933D01*
X291043Y314469D02*
X297933D01*
Y310728D02*
Y314469D01*
X291043Y310728D02*
Y314469D01*
X68209Y217323D02*
X71949D01*
X68209Y224213D02*
X71949D01*
X68209Y217323D02*
Y224213D01*
X71949Y217323D02*
Y224213D01*
X68209Y183169D02*
X71949D01*
X68209Y190059D02*
X71949D01*
X68209Y183169D02*
Y190059D01*
X71949Y183169D02*
Y190059D01*
M02*
