G04*
G04 #@! TF.GenerationSoftware,Altium Limited,Altium Designer,19.1.8 (144)*
G04*
G04 Layer_Color=32768*
%FSLAX25Y25*%
%MOIN*%
G70*
G01*
G75*
%ADD13C,0.00394*%
%ADD64C,0.00197*%
D13*
X81757Y197559D02*
Y201890D01*
X91402Y197559D02*
Y201890D01*
X81757D02*
X91402D01*
X81757Y197559D02*
X91402D01*
X85497Y199725D02*
X87662D01*
X86580Y198642D02*
Y200807D01*
X82480Y150197D02*
Y154527D01*
X92126Y150197D02*
Y154527D01*
X82480D02*
X92126D01*
X82480Y150197D02*
X92126D01*
X86221Y152362D02*
X88386D01*
X87303Y151279D02*
Y153445D01*
X52559Y197441D02*
Y201772D01*
X42913Y197441D02*
Y201772D01*
Y197441D02*
X52559D01*
X42913Y201772D02*
X52559D01*
X46653Y199606D02*
X48819D01*
X47736Y198524D02*
Y200689D01*
X53826Y181549D02*
Y185879D01*
X44180Y181549D02*
Y185879D01*
Y181549D02*
X53826D01*
X44180Y185879D02*
X53826D01*
X47921Y183714D02*
X50086D01*
X49003Y182631D02*
Y184797D01*
X53264Y150086D02*
Y154417D01*
X43618Y150086D02*
Y154417D01*
Y150086D02*
X53264D01*
X43618Y154417D02*
X53264D01*
X47358Y152252D02*
X49524D01*
X48441Y151169D02*
Y153335D01*
X81796Y225787D02*
Y230118D01*
X91441Y225787D02*
Y230118D01*
X81796D02*
X91441D01*
X81796Y225787D02*
X91441D01*
X85536Y227953D02*
X87701D01*
X86619Y226870D02*
Y229035D01*
X81008Y211514D02*
Y215845D01*
X90654Y211514D02*
Y215845D01*
X81008D02*
X90654D01*
X81008Y211514D02*
X90654D01*
X84748Y213680D02*
X86914D01*
X85831Y212597D02*
Y214762D01*
X82980Y183267D02*
Y187598D01*
X92626Y183267D02*
Y187598D01*
X82980D02*
X92626D01*
X82980Y183267D02*
X92626D01*
X86721Y185432D02*
X88886D01*
X87803Y184350D02*
Y186515D01*
X82480Y167913D02*
Y172244D01*
X92126Y167913D02*
Y172244D01*
X82480D02*
X92126D01*
X82480Y167913D02*
X92126D01*
X86221Y170079D02*
X88386D01*
X87303Y168996D02*
Y171161D01*
X52756Y225787D02*
Y230118D01*
X43110Y225787D02*
Y230118D01*
Y225787D02*
X52756D01*
X43110Y230118D02*
X52756D01*
X46850Y227953D02*
X49016D01*
X47933Y226870D02*
Y229035D01*
X51969Y211614D02*
Y215945D01*
X42323Y211614D02*
Y215945D01*
Y211614D02*
X51969D01*
X42323Y215945D02*
X51969D01*
X46063Y213779D02*
X48228D01*
X47146Y212697D02*
Y214862D01*
X52450Y167754D02*
Y172084D01*
X42805Y167754D02*
Y172084D01*
Y167754D02*
X52450D01*
X42805Y172084D02*
X52450D01*
X46545Y169919D02*
X48710D01*
X47628Y168836D02*
Y171002D01*
X179528Y361811D02*
Y365748D01*
X177559Y363779D02*
X181496D01*
X194882Y196850D02*
X198819D01*
X196850Y194882D02*
Y198819D01*
X344488Y184646D02*
X348425D01*
X346457Y182677D02*
Y186614D01*
X339445Y293951D02*
X343382D01*
X341413Y291983D02*
Y295920D01*
X133987Y356300D02*
X137924D01*
X135956Y354332D02*
Y358269D01*
X246658Y315751D02*
Y319491D01*
X244788Y317620D02*
X248528D01*
X207256Y315551D02*
Y319291D01*
X205386Y317421D02*
X209126D01*
X328657Y190875D02*
Y194616D01*
X326787Y192746D02*
X330527D01*
X324601Y213775D02*
Y217516D01*
X322731Y215646D02*
X326471D01*
X358395Y214139D02*
Y217879D01*
X356524Y216009D02*
X360265D01*
X111332Y356300D02*
X115269D01*
X113301Y354332D02*
Y358269D01*
X136734Y281475D02*
X140671D01*
X138703Y279506D02*
Y283443D01*
X126796Y281683D02*
X130733D01*
X128764Y279715D02*
Y283652D01*
X358013Y295381D02*
Y299121D01*
X356143Y297251D02*
X359883D01*
X358201Y261334D02*
Y265075D01*
X356331Y263205D02*
X360071D01*
X324864Y261475D02*
Y265216D01*
X322994Y263346D02*
X326734D01*
X271853Y164097D02*
X274018D01*
X272936Y163015D02*
Y165180D01*
X275101Y159275D02*
Y168920D01*
X270770Y159275D02*
Y168920D01*
X275101D01*
X270770Y159275D02*
X275101D01*
X272421Y194389D02*
X274587D01*
X273504Y193307D02*
Y195472D01*
X275669Y189567D02*
Y199212D01*
X271339Y189567D02*
Y199212D01*
X275669D01*
X271339Y189567D02*
X275669D01*
X138386Y237402D02*
Y241338D01*
X136417Y239370D02*
X140354D01*
X258892Y159865D02*
Y163802D01*
X256924Y161834D02*
X260861D01*
X259306Y190157D02*
Y194094D01*
X257337Y192126D02*
X261274D01*
X232284Y367815D02*
X236221D01*
X234252Y365846D02*
Y369783D01*
X221386Y317323D02*
X225126D01*
X223256Y315453D02*
Y319193D01*
X229040Y317424D02*
X232780D01*
X230910Y315554D02*
Y319294D01*
X236477Y317376D02*
X240218D01*
X238348Y315506D02*
Y319247D01*
X213386Y317323D02*
X217126D01*
X215256Y315453D02*
Y319193D01*
X340231Y215646D02*
X343971D01*
X342101Y213775D02*
Y217516D01*
X346264Y161253D02*
Y164994D01*
X344393Y163124D02*
X348134D01*
X102331Y356300D02*
X106072D01*
X104201Y354431D02*
Y358171D01*
X116957Y282471D02*
X120697D01*
X118827Y280601D02*
Y284341D01*
X146579Y281719D02*
X150319D01*
X148449Y279849D02*
Y283589D01*
X340431Y263346D02*
X344171D01*
X342301Y261475D02*
Y265216D01*
X341313Y314681D02*
Y318421D01*
X339443Y316551D02*
X343183D01*
X239792Y158869D02*
Y162609D01*
X237922Y160739D02*
X241662D01*
X239905Y191032D02*
Y194772D01*
X238035Y192902D02*
X241775D01*
D64*
X157874Y345275D02*
X201181D01*
X157874Y382283D02*
X201181D01*
X157874Y345275D02*
Y382283D01*
X201181Y345275D02*
Y382283D01*
X170669Y170669D02*
Y223031D01*
X223032Y170669D02*
Y223031D01*
X170669D02*
X223032D01*
X170669Y170669D02*
X223032D01*
X357283Y170079D02*
Y199213D01*
X335630Y170079D02*
Y199213D01*
X357283D01*
X335630Y170079D02*
X357283D01*
X330587Y279384D02*
Y308518D01*
X352240Y279384D02*
Y308518D01*
X330587Y279384D02*
X352240D01*
X330587Y308518D02*
X352240D01*
X139696Y349608D02*
Y362994D01*
X132216Y349608D02*
Y362994D01*
X139696D01*
X132216Y349608D02*
X139696D01*
X243705Y312306D02*
X249611D01*
X243705Y322936D02*
X249611D01*
X243705Y312306D02*
Y322936D01*
X249611Y312306D02*
Y322936D01*
X204303Y312106D02*
X210209D01*
X204303Y322736D02*
X210209D01*
X204303Y312106D02*
Y322736D01*
X210209Y312106D02*
Y322736D01*
X325704Y187431D02*
X331609D01*
X325704Y198061D02*
X331609D01*
X325704Y187431D02*
Y198061D01*
X331609Y187431D02*
Y198061D01*
X321649Y220960D02*
X327554D01*
X321649Y210331D02*
X327554D01*
Y220960D01*
X321649Y210331D02*
Y220960D01*
X355442Y210694D02*
X361347D01*
X355442Y221324D02*
X361347D01*
X355442Y210694D02*
Y221324D01*
X361347Y210694D02*
Y221324D01*
X117041Y349608D02*
Y362994D01*
X109561Y349608D02*
Y362994D01*
X117041D01*
X109561Y349608D02*
X117041D01*
X134963Y274782D02*
Y288168D01*
X142443Y274782D02*
Y288168D01*
X134963Y274782D02*
X142443D01*
X134963Y288168D02*
X142443D01*
X125024Y274991D02*
Y288376D01*
X132504Y274991D02*
Y288376D01*
X125024Y274991D02*
X132504D01*
X125024Y288376D02*
X132504D01*
X355061Y302566D02*
X360966D01*
X355061Y291936D02*
X360966D01*
Y302566D01*
X355061Y291936D02*
Y302566D01*
X355249Y257890D02*
X361154D01*
X355249Y268519D02*
X361154D01*
X355249Y257890D02*
Y268519D01*
X361154Y257890D02*
Y268519D01*
X321912Y268660D02*
X327817D01*
X321912Y258031D02*
X327817D01*
Y268660D01*
X321912Y258031D02*
Y268660D01*
X125591Y226476D02*
X151181D01*
Y252264D01*
X125591D02*
X151181D01*
X125591Y226476D02*
Y252264D01*
X251314Y154944D02*
X266471D01*
X251314Y168723D02*
X266471D01*
Y154944D02*
Y168723D01*
X251314Y154944D02*
Y168723D01*
X251727Y185236D02*
X266884D01*
X251727Y199015D02*
X266884D01*
Y185236D02*
Y199015D01*
X251727Y185236D02*
Y199015D01*
X217520Y364764D02*
X250984D01*
X217520Y390354D02*
X250984D01*
X217520Y364764D02*
Y390354D01*
X250984Y364764D02*
Y390354D01*
X226209Y312008D02*
Y322638D01*
X220303Y312008D02*
Y322638D01*
X226209D01*
X220303Y312008D02*
X226209D01*
X233863Y312109D02*
Y322739D01*
X227957Y312109D02*
Y322739D01*
X233863D01*
X227957Y312109D02*
X233863D01*
X241300Y312062D02*
Y322691D01*
X235395Y312062D02*
Y322691D01*
X241300D01*
X235395Y312062D02*
X241300D01*
X218209Y312008D02*
Y322638D01*
X212303Y312008D02*
Y322638D01*
X218209D01*
X212303Y312008D02*
X218209D01*
X345054Y210331D02*
Y220960D01*
X339149Y210331D02*
Y220960D01*
X345054D01*
X339149Y210331D02*
X345054D01*
X340949Y160171D02*
X351578D01*
X340949Y166076D02*
X351578D01*
Y160171D02*
Y166076D01*
X340949Y160171D02*
Y166076D01*
X107154Y350986D02*
Y361615D01*
X101249Y350986D02*
Y361615D01*
X107154D01*
X101249Y350986D02*
X107154D01*
X121780Y277156D02*
Y287786D01*
X115874Y277156D02*
Y287786D01*
X121780D01*
X115874Y277156D02*
X121780D01*
X145496Y276404D02*
Y287034D01*
X151402Y276404D02*
Y287034D01*
X145496Y276404D02*
X151402D01*
X145496Y287034D02*
X151402D01*
X339349Y258031D02*
Y268660D01*
X345254Y258031D02*
Y268660D01*
X339349Y258031D02*
X345254D01*
X339349Y268660D02*
X345254D01*
X335998Y319504D02*
X346628D01*
X335998Y313598D02*
X346628D01*
X335998D02*
Y319504D01*
X346628Y313598D02*
Y319504D01*
X236839Y155424D02*
X242745D01*
X236839Y166053D02*
X242745D01*
X236839Y155424D02*
Y166053D01*
X242745Y155424D02*
Y166053D01*
X236953Y187587D02*
X242858D01*
X236953Y198217D02*
X242858D01*
X236953Y187587D02*
Y198217D01*
X242858Y187587D02*
Y198217D01*
M02*
