%FSLAX23Y23*%
%MOIN*%
%SFA1B1*%

%IPPOS*%
%AMD26*
4,1,8,0.004900,0.014800,-0.004900,0.014800,-0.009800,0.009800,-0.009800,-0.009800,-0.004900,-0.014800,0.004900,-0.014800,0.009800,-0.009800,0.009800,0.009800,0.004900,0.014800,0.0*
1,1,0.009840,0.004900,0.009800*
1,1,0.009840,-0.004900,0.009800*
1,1,0.009840,-0.004900,-0.009800*
1,1,0.009840,0.004900,-0.009800*
%
%ADD17R,0.033470X0.037400*%
%ADD18R,0.037400X0.033470*%
%ADD19R,0.065750X0.029920*%
%ADD20R,0.080710X0.045280*%
%ADD21R,0.051180X0.043310*%
%ADD22O,0.062990X0.013390*%
%ADD23R,0.045280X0.080710*%
%ADD24R,0.039370X0.035430*%
%ADD25R,0.043310X0.051180*%
G04~CAMADD=26~8~0.0~0.0~196.8~295.3~49.2~0.0~15~0.0~0.0~0.0~0.0~0~0.0~0.0~0.0~0.0~0~0.0~0.0~0.0~0.0~196.8~295.3*
%ADD26D26*%
%ADD44C,0.051180*%
%ADD45C,0.137800*%
%ADD46C,0.068900*%
%LNbms-1*%
%LPD*%
G54D17*
X2002Y1785D03*
X2054D03*
X1939D03*
X1888D03*
X899Y2433D03*
X950D03*
X899Y2330D03*
X950D03*
X899Y2232D03*
X950D03*
X899Y2129D03*
X950D03*
X899Y2031D03*
X950D03*
X899Y1929D03*
X950D03*
X899Y1830D03*
X950D03*
X899Y1728D03*
X950D03*
X899Y1629D03*
X950D03*
X899Y1527D03*
X950D03*
X899Y1429D03*
X950D03*
X899Y1326D03*
X950D03*
X899Y1125D03*
X950D03*
X899Y1228D03*
X950D03*
X899Y1027D03*
X950D03*
X899Y925D03*
X950D03*
X899Y826D03*
X950D03*
X899Y724D03*
X950D03*
X899Y625D03*
X950D03*
X899Y523D03*
X950D03*
X899Y425D03*
X950D03*
X899Y322D03*
X950D03*
X899Y224D03*
X950D03*
X899Y122D03*
X950D03*
G54D18*
X1821Y1682D03*
Y1733D03*
Y1618D03*
Y1566D03*
X1415Y1652D03*
Y1703D03*
X1432Y586D03*
Y637D03*
X1342Y143D03*
Y194D03*
X472Y201D03*
Y150D03*
Y402D03*
Y351D03*
Y603D03*
Y552D03*
Y804D03*
Y752D03*
Y1004D03*
Y953D03*
Y1205D03*
Y1154D03*
Y1406D03*
Y1355D03*
Y1607D03*
Y1556D03*
Y1808D03*
Y1756D03*
Y2008D03*
Y1957D03*
Y2209D03*
Y2158D03*
Y2410D03*
Y2359D03*
G54D19*
X1825Y1204D03*
Y1454D03*
X2161D03*
X1825Y1104D03*
Y1154D03*
Y1254D03*
Y1304D03*
Y1354D03*
Y1404D03*
X2161D03*
Y1354D03*
Y1304D03*
Y1254D03*
Y1204D03*
Y1154D03*
Y1104D03*
G54D20*
X1584Y1945D03*
G54D21*
X1510Y1717D03*
Y1626D03*
G54D22*
X1647Y1407D03*
X1360Y1525D03*
Y1505D03*
Y1486D03*
Y1466D03*
Y1446D03*
Y1427D03*
Y1407D03*
Y1387D03*
Y1368D03*
Y1348D03*
Y1328D03*
Y1309D03*
Y1289D03*
Y1269D03*
Y1250D03*
Y1230D03*
Y1210D03*
Y1190D03*
Y1171D03*
Y1151D03*
Y1131D03*
Y1112D03*
Y1092D03*
Y1072D03*
X1647Y1525D03*
Y1505D03*
Y1486D03*
Y1466D03*
Y1446D03*
Y1427D03*
Y1387D03*
Y1368D03*
Y1348D03*
Y1328D03*
Y1309D03*
Y1289D03*
Y1269D03*
Y1250D03*
Y1230D03*
Y1210D03*
Y1190D03*
Y1171D03*
Y1151D03*
Y1131D03*
Y1112D03*
Y1092D03*
Y1072D03*
G54D23*
X1431Y740D03*
G54D24*
X1192Y195D03*
Y142D03*
X1047Y143D03*
Y196D03*
Y344D03*
Y397D03*
Y545D03*
Y598D03*
Y746D03*
Y799D03*
Y946D03*
Y1000D03*
Y1147D03*
Y1200D03*
Y1348D03*
Y1401D03*
Y1549D03*
Y1602D03*
Y1750D03*
Y1803D03*
Y1950D03*
Y2003D03*
Y2151D03*
Y2204D03*
Y2352D03*
Y2405D03*
G54D25*
X581Y2381D03*
X671D03*
X581Y2181D03*
X671D03*
X581Y1980D03*
X671D03*
X581Y1779D03*
X671D03*
X581Y1578D03*
X671D03*
X581Y1377D03*
X671D03*
X581Y1177D03*
X671D03*
X581Y976D03*
X671D03*
X581Y775D03*
X671D03*
X581Y574D03*
X671D03*
X581Y374D03*
X671D03*
X581Y173D03*
X671D03*
G54D26*
X779Y2346D03*
X759Y2414D03*
X798D03*
X779Y2146D03*
X759Y2214D03*
X798D03*
X779Y1945D03*
X759Y2013D03*
X798D03*
X779Y1744D03*
X759Y1812D03*
X798D03*
X779Y1543D03*
X759Y1611D03*
X798D03*
X779Y1342D03*
X759Y1411D03*
X798D03*
X779Y1142D03*
X759Y1210D03*
X798D03*
X779Y941D03*
X759Y1009D03*
X798D03*
X779Y740D03*
X759Y808D03*
X798D03*
X779Y539D03*
X759Y607D03*
X798D03*
X779Y338D03*
X759Y407D03*
X798D03*
X779Y138D03*
X759Y206D03*
X798D03*
G54D44*
X2110Y846D03*
Y1712D03*
X196Y846D03*
Y1712D03*
G54D45*
X2453Y1187D03*
Y899D03*
Y1698D03*
Y1411D03*
G54D46*
X2283Y984D03*
Y1102D03*
Y1496D03*
Y1614D03*
M02*