%FSLAX23Y23*%
%MOIN*%
%SFA1B1*%

%IPPOS*%
%AMD37*
4,1,4,0.028600,0.014600,0.014600,0.028600,-0.028600,-0.014600,-0.014600,-0.028600,0.028600,0.014600,0.0*
%
%AMD38*
4,1,4,-0.014600,0.028600,-0.028600,0.014600,0.014600,-0.028600,0.028600,-0.014600,-0.014600,0.028600,0.0*
%
%ADD35R,0.041470X0.045400*%
%ADD36R,0.045400X0.041470*%
G04~CAMADD=37~9~0.0~0.0~198.1~611.5~0.0~0.0~0~0.0~0.0~0.0~0.0~0~0.0~0.0~0.0~0.0~0~0.0~0.0~0.0~315.0~572.0~571.0*
%ADD37D37*%
G04~CAMADD=38~9~0.0~0.0~198.1~611.5~0.0~0.0~0~0.0~0.0~0.0~0.0~0~0.0~0.0~0.0~0.0~0~0.0~0.0~0.0~45.0~572.0~571.0*
%ADD38D38*%
%ADD39R,0.047370X0.043430*%
%ADD40R,0.019810X0.072960*%
%ADD41O,0.031620X0.065090*%
%ADD42O,0.065090X0.031620*%
%ADD43R,0.037920X0.102490*%
%ADD44R,0.039500X0.043430*%
%ADD45R,0.023750X0.061150*%
%ADD46R,0.070990X0.063120*%
%ADD47R,0.065090X0.059180*%
%ADD48R,0.082800X0.082800*%
%ADD49R,0.059180X0.051310*%
%ADD50R,0.051310X0.059180*%
%ADD51R,0.043430X0.047370*%
%ADD52C,0.070990*%
%ADD53C,0.047370*%
%ADD54C,0.188000*%
%ADD55C,0.035560*%
%LNdev_board_pcb-1*%
%LPD*%
G54D35*
X446Y1740D03*
X498D03*
X401Y2086D03*
X452D03*
X1179Y3023D03*
X1230D03*
X3076Y2330D03*
X3127D03*
X3423Y2551D03*
X3474D03*
X3124D03*
X3175D03*
X3309Y3385D03*
X3257D03*
X3415Y3007D03*
X3466D03*
X3124D03*
X3175D03*
G54D36*
X1763Y3242D03*
Y3293D03*
X1440Y3458D03*
Y3407D03*
X1267Y3460D03*
Y3409D03*
X1559Y3293D03*
Y3242D03*
X1629Y2698D03*
Y2750D03*
G54D37*
X2024Y2232D03*
X2038Y2219D03*
X2052Y2205D03*
X2065Y2191D03*
X2079Y2177D03*
X2093Y2163D03*
X2107Y2149D03*
X2121Y2135D03*
X2135Y2121D03*
X2149Y2107D03*
X2163Y2093D03*
X2177Y2079D03*
X2191Y2065D03*
X2205Y2052D03*
X2219Y2038D03*
X2232Y2024D03*
X1912Y1704D03*
X1898Y1717D03*
X1884Y1731D03*
X1871Y1745D03*
X1857Y1759D03*
X1843Y1773D03*
X1829Y1787D03*
X1815Y1801D03*
X1801Y1815D03*
X1787Y1829D03*
X1773Y1843D03*
X1759Y1857D03*
X1745Y1871D03*
X1731Y1884D03*
X1717Y1898D03*
X1704Y1912D03*
G54D38*
X2232Y1912D03*
X2219Y1898D03*
X2205Y1884D03*
X2191Y1871D03*
X2177Y1857D03*
X2163Y1843D03*
X2149Y1829D03*
X2135Y1815D03*
X2121Y1801D03*
X2107Y1787D03*
X2093Y1773D03*
X2079Y1759D03*
X2065Y1745D03*
X2052Y1731D03*
X2038Y1717D03*
X2024Y1704D03*
X1704Y2024D03*
X1717Y2038D03*
X1731Y2052D03*
X1745Y2065D03*
X1759Y2079D03*
X1773Y2093D03*
X1787Y2107D03*
X1801Y2121D03*
X1815Y2135D03*
X1829Y2149D03*
X1843Y2163D03*
X1857Y2177D03*
X1871Y2191D03*
X1884Y2205D03*
X1898Y2219D03*
X1912Y2232D03*
G54D39*
X2165Y3469D03*
Y3522D03*
X2070Y3469D03*
Y3522D03*
X2354Y1990D03*
Y1937D03*
X3299Y2548D03*
Y2601D03*
X3488Y2159D03*
Y2212D03*
X1637Y3241D03*
Y3294D03*
X3299Y3005D03*
Y2952D03*
X700Y2181D03*
Y2234D03*
Y1839D03*
Y1892D03*
G54D40*
X1628Y3495D03*
X1654D03*
X1680D03*
X1705D03*
X1731D03*
X1756D03*
X1782D03*
X1808D03*
X1833D03*
X1859D03*
X1884D03*
X1910D03*
X1936D03*
X1961D03*
X1628Y3780D03*
X1654D03*
X1680D03*
X1705D03*
X1731D03*
X1756D03*
X1782D03*
X1808D03*
X1833D03*
X1859D03*
X1884D03*
X1910D03*
X1936D03*
X1961D03*
G54D41*
X3389Y2343D03*
X3339D03*
X3289D03*
X3239D03*
X3389Y2128D03*
X3339D03*
X3289D03*
X3239D03*
G54D42*
X3138Y3232D03*
Y3282D03*
Y3332D03*
Y3382D03*
X2924Y3232D03*
Y3282D03*
Y3332D03*
Y3382D03*
G54D43*
X1230Y2728D03*
Y2881D03*
X1280Y2728D03*
Y2881D03*
X1330Y2728D03*
Y2881D03*
X1380Y2728D03*
Y2881D03*
X1430Y2728D03*
Y2881D03*
G54D44*
X551Y2165D03*
X513Y2244D03*
X588D03*
X566Y1818D03*
X529Y1897D03*
X604D03*
G54D45*
X2393Y3678D03*
X2368D03*
X2342D03*
X2316D03*
X2291D03*
G54D46*
X2468Y3687D03*
X2216D03*
G54D47*
X2477Y3783D03*
X2207D03*
G54D48*
X2389Y3783D03*
X2295D03*
G54D49*
X1448Y3553D03*
Y3643D03*
X1275D03*
Y3553D03*
G54D50*
X375Y2220D03*
X285D03*
X375Y1866D03*
X285D03*
G54D51*
X1941Y2370D03*
X1995D03*
X1941Y2448D03*
X1995D03*
X1404Y3023D03*
X1351D03*
X2971Y3125D03*
X2918D03*
G54D52*
X3346Y3653D03*
X3246D03*
X374Y3246D03*
Y3346D03*
Y2852D03*
Y2952D03*
Y2459D03*
Y2559D03*
X3118Y2816D03*
Y2716D03*
X3480Y2816D03*
Y2716D03*
X3544Y1181D03*
Y1081D03*
Y981D03*
Y881D03*
Y781D03*
Y681D03*
Y581D03*
Y481D03*
X3444D03*
Y581D03*
Y681D03*
Y781D03*
Y881D03*
Y981D03*
Y1081D03*
Y1181D03*
X2560D03*
Y1081D03*
Y981D03*
Y881D03*
Y781D03*
Y681D03*
Y581D03*
Y481D03*
X2460D03*
Y581D03*
Y681D03*
Y781D03*
Y881D03*
Y981D03*
Y1081D03*
Y1181D03*
X1576D03*
Y1081D03*
Y981D03*
Y881D03*
Y781D03*
Y681D03*
Y581D03*
Y481D03*
X1476D03*
Y581D03*
Y681D03*
Y781D03*
Y881D03*
Y981D03*
Y1081D03*
Y1181D03*
X592D03*
Y1081D03*
Y981D03*
Y881D03*
Y781D03*
Y681D03*
Y581D03*
Y481D03*
X492D03*
Y581D03*
Y681D03*
Y781D03*
Y881D03*
Y981D03*
Y1081D03*
Y1181D03*
X1968Y2866D03*
X2165D03*
X1968Y3062D03*
X2165D03*
G54D53*
X787Y2952D03*
X887D03*
X687D03*
X787Y2559D03*
X887D03*
X687D03*
X787Y3346D03*
X887D03*
X687D03*
G54D54*
X157Y157D03*
X3740D03*
Y3740D03*
X157D03*
G54D55*
X1196Y3173D03*
X1110Y1811D03*
X1818Y2023D03*
X2047Y2007D03*
X1519Y2952D03*
X1724Y2661D03*
X1811Y3110D03*
X1830Y3200D03*
X1559Y2645D03*
X1874Y2944D03*
X1299Y2976D03*
X1259Y2401D03*
X1086Y2409D03*
X1031Y2354D03*
X1212Y2346D03*
X984Y2307D03*
X1149Y2299D03*
X1929Y1984D03*
Y1834D03*
X2039Y1889D03*
X1488Y2440D03*
X1952Y2031D03*
X1992Y2062D03*
X1968Y1937D03*
X1574Y2440D03*
Y2496D03*
X1960Y2113D03*
X1622Y3125D03*
X1944Y2299D03*
X2007Y2274D03*
X1909Y2312D03*
X2511Y2007D03*
X2598Y1897D03*
X2559Y1976D03*
X2338Y2433D03*
X2346Y2496D03*
X2511Y1905D03*
X2251Y2496D03*
X2070Y2377D03*
X2409Y2047D03*
X2448Y2015D03*
X2173Y2551D03*
X2181Y2606D03*
X637Y1771D03*
X2259Y3503D03*
X3339Y2044D03*
X3377Y2503D03*
Y2409D03*
X2299Y1992D03*
X763Y2165D03*
X3385Y1921D03*
X3444Y1948D03*
M02*