%FSLAX23Y23*%
%MOIN*%
%SFA1B1*%

%IPPOS*%
%ADD9500C,0.015000*%
%ADD9501C,0.015750*%
%ADD9502C,0.020080*%
%ADD9503C,0.039370*%
%ADD9504C,0.040160*%
%ADD9505C,0.160000*%
%ADD9506C,0.039370*%
%LNdev_board_pcb-1*%
%LPD*%
G54D9500*
X984Y2307D03*
X1031Y2354D03*
X1086Y2409D03*
X1149Y2299D03*
X1212Y2346D03*
X1259Y2401D03*
X1488Y2440D03*
X1574D03*
Y2496D03*
X1909Y2312D03*
X2007Y2274D03*
X2070Y2377D03*
X2173Y2551D03*
X2181Y2606D03*
X2251Y2496D03*
X2346D03*
X2338Y2433D03*
X2409Y2047D03*
X2448Y2015D03*
X2511Y2007D03*
Y1905D03*
X2039Y1889D03*
X1929Y1834D03*
Y1984D03*
X1952Y2031D03*
X1992Y2062D03*
X1960Y2113D03*
X1622Y3125D03*
X1196Y3173D03*
X2559Y1976D03*
X2598Y1897D03*
X3385Y1921D03*
X3444Y1948D03*
X3339Y2044D03*
X3377Y2409D03*
Y2503D03*
G54D9501*
X637Y1771D03*
X763Y2165D03*
X1110Y1811D03*
X1818Y2023D03*
X1968Y1937D03*
X2047Y2007D03*
X2299Y1992D03*
X1944Y2299D03*
X1724Y2661D03*
X1559Y2645D03*
X1519Y2952D03*
X1299Y2976D03*
X1874Y2944D03*
X1811Y3110D03*
X1830Y3200D03*
X2259Y3503D03*
G54D9502*
X687Y2559D03*
X787D03*
X887D03*
Y2952D03*
X787D03*
X687D03*
Y3346D03*
X787D03*
X887D03*
G54D9503*
X374Y2459D03*
Y2559D03*
Y2852D03*
Y2952D03*
Y3246D03*
X3118Y2816D03*
Y2716D03*
X3480D03*
Y2816D03*
X3346Y3653D03*
X3246D03*
X374Y3346D03*
G54D9504*
X2560Y481D03*
Y581D03*
Y681D03*
Y781D03*
Y881D03*
Y981D03*
Y1081D03*
Y1181D03*
X3444D03*
X3544D03*
Y1081D03*
Y981D03*
Y881D03*
Y781D03*
Y681D03*
Y581D03*
Y481D03*
X3444D03*
Y581D03*
Y681D03*
Y781D03*
Y881D03*
Y981D03*
Y1081D03*
X2460D03*
Y981D03*
Y881D03*
Y781D03*
Y681D03*
Y581D03*
Y481D03*
Y1181D03*
X1576D03*
Y1081D03*
Y981D03*
Y881D03*
Y781D03*
Y681D03*
Y581D03*
Y481D03*
X1476D03*
Y581D03*
Y681D03*
Y781D03*
Y881D03*
Y981D03*
Y1081D03*
Y1181D03*
X592D03*
Y1081D03*
Y981D03*
Y881D03*
Y781D03*
Y681D03*
Y581D03*
Y481D03*
X492D03*
Y581D03*
Y681D03*
Y781D03*
Y881D03*
Y981D03*
Y1081D03*
Y1181D03*
X1968Y2866D03*
X2165D03*
Y3062D03*
X1968D03*
G54D9505*
X157Y157D03*
X3740D03*
Y3740D03*
X157D03*
G54D9506*
X1255Y2805D03*
X1405D03*
M02*