%FSLAX23Y23*%
%MOIN*%
%SFA1B1*%

%IPPOS*%
%AMD20*
4,1,4,0.022900,0.014600,0.014600,0.022900,-0.022900,-0.014600,-0.014600,-0.022900,0.022900,0.014600,0.0*
%
%AMD21*
4,1,4,-0.014600,0.022900,-0.022900,0.014600,0.014600,-0.022900,0.022900,-0.014600,-0.014600,0.022900,0.0*
%
%ADD18R,0.033470X0.037400*%
%ADD19R,0.037400X0.033470*%
G04~CAMADD=20~9~0.0~0.0~118.1~531.5~0.0~0.0~0~0.0~0.0~0.0~0.0~0~0.0~0.0~0.0~0.0~0~0.0~0.0~0.0~315.0~458.0~457.0*
%ADD20D20*%
G04~CAMADD=21~9~0.0~0.0~118.1~531.5~0.0~0.0~0~0.0~0.0~0.0~0.0~0~0.0~0.0~0.0~0.0~0~0.0~0.0~0.0~45.0~458.0~457.0*
%ADD21D21*%
%ADD22R,0.039370X0.035430*%
%ADD23R,0.011810X0.064960*%
%ADD24O,0.023620X0.057090*%
%ADD25O,0.057090X0.023620*%
%ADD26R,0.029920X0.094490*%
%ADD27R,0.031500X0.035430*%
%ADD28R,0.015750X0.053150*%
%ADD29R,0.062990X0.055120*%
%ADD30R,0.057090X0.051180*%
%ADD31R,0.074800X0.074800*%
%ADD32R,0.051180X0.043310*%
%ADD33R,0.043310X0.051180*%
%ADD34R,0.035430X0.039370*%
%ADD56C,0.062990*%
%ADD57C,0.039370*%
%ADD58C,0.180000*%
%LNdev_board_pcb-1*%
%LPD*%
G54D18*
X446Y1740D03*
X498D03*
X401Y2086D03*
X452D03*
X1179Y3023D03*
X1230D03*
X3076Y2330D03*
X3127D03*
X3423Y2551D03*
X3474D03*
X3124D03*
X3175D03*
X3309Y3385D03*
X3257D03*
X3415Y3007D03*
X3466D03*
X3124D03*
X3175D03*
G54D19*
X1763Y3242D03*
Y3293D03*
X1440Y3458D03*
Y3407D03*
X1267Y3460D03*
Y3409D03*
X1559Y3293D03*
Y3242D03*
X1629Y2698D03*
Y2750D03*
G54D20*
X2024Y2232D03*
X2038Y2219D03*
X2052Y2205D03*
X2065Y2191D03*
X2079Y2177D03*
X2093Y2163D03*
X2107Y2149D03*
X2121Y2135D03*
X2135Y2121D03*
X2149Y2107D03*
X2163Y2093D03*
X2177Y2079D03*
X2191Y2065D03*
X2205Y2052D03*
X2219Y2038D03*
X2232Y2024D03*
X1912Y1704D03*
X1898Y1717D03*
X1884Y1731D03*
X1871Y1745D03*
X1857Y1759D03*
X1843Y1773D03*
X1829Y1787D03*
X1815Y1801D03*
X1801Y1815D03*
X1787Y1829D03*
X1773Y1843D03*
X1759Y1857D03*
X1745Y1871D03*
X1731Y1884D03*
X1717Y1898D03*
X1704Y1912D03*
G54D21*
X2232Y1912D03*
X2219Y1898D03*
X2205Y1884D03*
X2191Y1871D03*
X2177Y1857D03*
X2163Y1843D03*
X2149Y1829D03*
X2135Y1815D03*
X2121Y1801D03*
X2107Y1787D03*
X2093Y1773D03*
X2079Y1759D03*
X2065Y1745D03*
X2052Y1731D03*
X2038Y1717D03*
X2024Y1704D03*
X1704Y2024D03*
X1717Y2038D03*
X1731Y2052D03*
X1745Y2065D03*
X1759Y2079D03*
X1773Y2093D03*
X1787Y2107D03*
X1801Y2121D03*
X1815Y2135D03*
X1829Y2149D03*
X1843Y2163D03*
X1857Y2177D03*
X1871Y2191D03*
X1884Y2205D03*
X1898Y2219D03*
X1912Y2232D03*
G54D22*
X2165Y3469D03*
Y3522D03*
X2070Y3469D03*
Y3522D03*
X2354Y1990D03*
Y1937D03*
X3299Y2548D03*
Y2601D03*
X3488Y2159D03*
Y2212D03*
X1637Y3241D03*
Y3294D03*
X3299Y3005D03*
Y2952D03*
X700Y2181D03*
Y2234D03*
Y1839D03*
Y1892D03*
G54D23*
X1628Y3495D03*
X1654D03*
X1680D03*
X1705D03*
X1731D03*
X1756D03*
X1782D03*
X1808D03*
X1833D03*
X1859D03*
X1884D03*
X1910D03*
X1936D03*
X1961D03*
X1628Y3780D03*
X1654D03*
X1680D03*
X1705D03*
X1731D03*
X1756D03*
X1782D03*
X1808D03*
X1833D03*
X1859D03*
X1884D03*
X1910D03*
X1936D03*
X1961D03*
G54D24*
X3389Y2343D03*
X3339D03*
X3289D03*
X3239D03*
X3389Y2128D03*
X3339D03*
X3289D03*
X3239D03*
G54D25*
X3138Y3232D03*
Y3282D03*
Y3332D03*
Y3382D03*
X2924Y3232D03*
Y3282D03*
Y3332D03*
Y3382D03*
G54D26*
X1230Y2728D03*
Y2881D03*
X1280Y2728D03*
Y2881D03*
X1330Y2728D03*
Y2881D03*
X1380Y2728D03*
Y2881D03*
X1430Y2728D03*
Y2881D03*
G54D27*
X551Y2165D03*
X513Y2244D03*
X588D03*
X566Y1818D03*
X529Y1897D03*
X604D03*
G54D28*
X2393Y3678D03*
X2368D03*
X2342D03*
X2316D03*
X2291D03*
G54D29*
X2468Y3687D03*
X2216D03*
G54D30*
X2477Y3783D03*
X2207D03*
G54D31*
X2389Y3783D03*
X2295D03*
G54D32*
X1448Y3553D03*
Y3643D03*
X1275D03*
Y3553D03*
G54D33*
X375Y2220D03*
X285D03*
X375Y1866D03*
X285D03*
G54D34*
X1941Y2370D03*
X1995D03*
X1941Y2448D03*
X1995D03*
X1404Y3023D03*
X1351D03*
X2971Y3125D03*
X2918D03*
G54D56*
X3346Y3653D03*
X3246D03*
X374Y3246D03*
Y3346D03*
Y2852D03*
Y2952D03*
Y2459D03*
Y2559D03*
X3118Y2816D03*
Y2716D03*
X3480Y2816D03*
Y2716D03*
X3544Y1181D03*
Y1081D03*
Y981D03*
Y881D03*
Y781D03*
Y681D03*
Y581D03*
Y481D03*
X3444D03*
Y581D03*
Y681D03*
Y781D03*
Y881D03*
Y981D03*
Y1081D03*
Y1181D03*
X2560D03*
Y1081D03*
Y981D03*
Y881D03*
Y781D03*
Y681D03*
Y581D03*
Y481D03*
X2460D03*
Y581D03*
Y681D03*
Y781D03*
Y881D03*
Y981D03*
Y1081D03*
Y1181D03*
X1576D03*
Y1081D03*
Y981D03*
Y881D03*
Y781D03*
Y681D03*
Y581D03*
Y481D03*
X1476D03*
Y581D03*
Y681D03*
Y781D03*
Y881D03*
Y981D03*
Y1081D03*
Y1181D03*
X592D03*
Y1081D03*
Y981D03*
Y881D03*
Y781D03*
Y681D03*
Y581D03*
Y481D03*
X492D03*
Y581D03*
Y681D03*
Y781D03*
Y881D03*
Y981D03*
Y1081D03*
Y1181D03*
X1968Y2866D03*
X2165D03*
X1968Y3062D03*
X2165D03*
G54D57*
X787Y2952D03*
X887D03*
X687D03*
X787Y2559D03*
X887D03*
X687D03*
X787Y3346D03*
X887D03*
X687D03*
G54D58*
X157Y157D03*
X3740D03*
Y3740D03*
X157D03*
M02*