%FSLAX23Y23*%
%MOIN*%
%SFA1B1*%

%IPPOS*%
%ADD52C,0.070990*%
%ADD53C,0.047370*%
%ADD54C,0.188000*%
%ADD55C,0.035560*%
%LNdev_board_pcb-1*%
%LPD*%
G54D52*
X3346Y3653D03*
X3246D03*
X374Y3246D03*
Y3346D03*
Y2852D03*
Y2952D03*
Y2459D03*
Y2559D03*
X3118Y2816D03*
Y2716D03*
X3480Y2816D03*
Y2716D03*
X3544Y1181D03*
Y1081D03*
Y981D03*
Y881D03*
Y781D03*
Y681D03*
Y581D03*
Y481D03*
X3444D03*
Y581D03*
Y681D03*
Y781D03*
Y881D03*
Y981D03*
Y1081D03*
Y1181D03*
X2560D03*
Y1081D03*
Y981D03*
Y881D03*
Y781D03*
Y681D03*
Y581D03*
Y481D03*
X2460D03*
Y581D03*
Y681D03*
Y781D03*
Y881D03*
Y981D03*
Y1081D03*
Y1181D03*
X1576D03*
Y1081D03*
Y981D03*
Y881D03*
Y781D03*
Y681D03*
Y581D03*
Y481D03*
X1476D03*
Y581D03*
Y681D03*
Y781D03*
Y881D03*
Y981D03*
Y1081D03*
Y1181D03*
X592D03*
Y1081D03*
Y981D03*
Y881D03*
Y781D03*
Y681D03*
Y581D03*
Y481D03*
X492D03*
Y581D03*
Y681D03*
Y781D03*
Y881D03*
Y981D03*
Y1081D03*
Y1181D03*
X1968Y2866D03*
X2165D03*
X1968Y3062D03*
X2165D03*
G54D53*
X787Y2952D03*
X887D03*
X687D03*
X787Y2559D03*
X887D03*
X687D03*
X787Y3346D03*
X887D03*
X687D03*
G54D54*
X157Y157D03*
X3740D03*
Y3740D03*
X157D03*
G54D55*
X1196Y3173D03*
X1110Y1811D03*
X1818Y2023D03*
X2047Y2007D03*
X1519Y2952D03*
X1724Y2661D03*
X1811Y3110D03*
X1830Y3200D03*
X1559Y2645D03*
X1874Y2944D03*
X1299Y2976D03*
X1259Y2401D03*
X1086Y2409D03*
X1031Y2354D03*
X1212Y2346D03*
X984Y2307D03*
X1149Y2299D03*
X1929Y1984D03*
Y1834D03*
X2039Y1889D03*
X1488Y2440D03*
X1952Y2031D03*
X1992Y2062D03*
X1968Y1937D03*
X1574Y2440D03*
Y2496D03*
X1960Y2113D03*
X1622Y3125D03*
X1944Y2299D03*
X2007Y2274D03*
X1909Y2312D03*
X2511Y2007D03*
X2598Y1897D03*
X2559Y1976D03*
X2338Y2433D03*
X2346Y2496D03*
X2511Y1905D03*
X2251Y2496D03*
X2070Y2377D03*
X2409Y2047D03*
X2448Y2015D03*
X2173Y2551D03*
X2181Y2606D03*
X637Y1771D03*
X2259Y3503D03*
X3339Y2044D03*
X3377Y2503D03*
Y2409D03*
X2299Y1992D03*
X763Y2165D03*
X3385Y1921D03*
X3444Y1948D03*
M02*