%TF.GenerationSoftware,Altium Limited,Altium Designer,19.1.8 (144)*%
G04 Layer_Color=32768*
%FSLAX26Y26*%
%MOIN*%
%TF.FileFunction,Other,Mechanical_15*%
%TF.Part,Single*%
G01*
G75*
%TA.AperFunction,NonConductor*%
%ADD50C,0.003937*%
%ADD59C,0.001968*%
D50*
X1842000Y1667323D02*
Y1706693D01*
X1822315Y1687008D02*
X1861685D01*
X2083331Y1631000D02*
X2122701D01*
X2103016Y1611315D02*
Y1650685D01*
X2707315Y3152000D02*
X2746685D01*
X2727000Y3132315D02*
Y3171685D01*
X1932000Y636315D02*
Y675685D01*
X1912315Y656000D02*
X1951685D01*
X2060000Y3130315D02*
Y3169685D01*
X2040315Y3150000D02*
X2079685D01*
X1365276Y3215315D02*
Y3254685D01*
X1345591Y3235000D02*
X1384961D01*
X2009315Y1614000D02*
X2048685D01*
X2029000Y1594315D02*
Y1633685D01*
X1593187Y3686000D02*
X1632557D01*
X1612872Y3666315D02*
Y3705685D01*
X1258896Y3686000D02*
X1298266D01*
X1278581Y3666315D02*
Y3705685D01*
X924606Y3686000D02*
X963976D01*
X944291Y3666315D02*
Y3705685D01*
X879016Y3856039D02*
Y3895410D01*
X859331Y3875724D02*
X898701D01*
X1213307Y3856039D02*
Y3895410D01*
X1193622Y3875724D02*
X1232992D01*
X1547597Y3856039D02*
Y3895410D01*
X1527912Y3875724D02*
X1567282D01*
X1881888Y3856039D02*
Y3895410D01*
X1862203Y3875724D02*
X1901573D01*
X1927477Y3686000D02*
X1966848D01*
X1947162Y3666315D02*
Y3705685D01*
X2216179Y3856039D02*
Y3895410D01*
X2196494Y3875724D02*
X2235864D01*
X3280930Y3685173D02*
X3320300D01*
X3300615Y3665488D02*
Y3704858D01*
X4267512Y3686000D02*
X4306882D01*
X4287197Y3666315D02*
Y3705685D01*
X3933221Y3686000D02*
X3972591D01*
X3952906Y3666315D02*
Y3705685D01*
X3887632Y3856039D02*
Y3895410D01*
X3867947Y3875724D02*
X3907317D01*
X4221922Y3856039D02*
Y3895410D01*
X4202237Y3875724D02*
X4241607D01*
X3235341Y3855213D02*
Y3894583D01*
X3215656Y3874898D02*
X3255026D01*
X2550709Y3855038D02*
Y3894408D01*
X2531023Y3874723D02*
X2570394D01*
X3572709Y3851865D02*
Y3891235D01*
X3553023Y3871550D02*
X3592394D01*
X2938298Y3684999D02*
X2977668D01*
X2957983Y3665314D02*
Y3704684D01*
X2261768Y3686000D02*
X2301138D01*
X2281453Y3666315D02*
Y3705685D01*
X2596298Y3684998D02*
X2635668D01*
X2615983Y3665313D02*
Y3704683D01*
X3618298Y3681826D02*
X3657668D01*
X3637983Y3662141D02*
Y3701511D01*
X2892709Y3855039D02*
Y3894409D01*
X2873023Y3874724D02*
X2912394D01*
X4077174Y1368000D02*
X4116544D01*
X4096859Y1348315D02*
Y1387685D01*
X3294948Y3874898D02*
X3334318D01*
X3314633Y3855213D02*
Y3894584D01*
X3947238Y3875725D02*
X3986608D01*
X3966923Y3856040D02*
Y3895410D01*
X4281529Y3875725D02*
X4320899D01*
X4301214Y3856040D02*
Y3895410D01*
X1941495Y3875725D02*
X1980864D01*
X1961179Y3856040D02*
Y3895410D01*
X2275785Y3875725D02*
X2315155D01*
X2295470Y3856040D02*
Y3895410D01*
X2952315Y3874724D02*
X2991685D01*
X2972000Y3855039D02*
Y3894410D01*
X3632315Y3871551D02*
X3671685D01*
X3652000Y3851866D02*
Y3891236D01*
X2610315Y3874724D02*
X2649685D01*
X2630000Y3855039D02*
Y3894409D01*
X1607204Y3875725D02*
X1646574D01*
X1626889Y3856040D02*
Y3895410D01*
X938623Y3875725D02*
X977993D01*
X958308Y3856040D02*
Y3895410D01*
X1251693Y3856040D02*
Y3895410D01*
X1232008Y3875725D02*
X1271378D01*
X917402Y3856040D02*
Y3895410D01*
X897717Y3875725D02*
X937087D01*
X1585983Y3856040D02*
Y3895410D01*
X1566298Y3875725D02*
X1605668D01*
X2589094Y3855039D02*
Y3894409D01*
X2569409Y3874724D02*
X2608779D01*
X3611094Y3851866D02*
Y3891236D01*
X3591409Y3871551D02*
X3630779D01*
X2931094Y3855039D02*
Y3894410D01*
X2911409Y3874724D02*
X2950779D01*
X2254564Y3856040D02*
Y3895410D01*
X2234879Y3875725D02*
X2274249D01*
X1920274Y3856040D02*
Y3895410D01*
X1900589Y3875725D02*
X1939959D01*
X4260308Y3856040D02*
Y3895410D01*
X4240623Y3875725D02*
X4279993D01*
X3926017Y3856040D02*
Y3895410D01*
X3906332Y3875725D02*
X3945702D01*
X3273727Y3855213D02*
Y3894584D01*
X3254042Y3874899D02*
X3293412D01*
X1272913Y3875725D02*
X1312283D01*
X1292598Y3856040D02*
Y3895410D01*
D59*
X1723890Y1523622D02*
X1960110D01*
X1723890Y1850394D02*
X1960110D01*
X1723890Y1523622D02*
Y1850394D01*
X1960110Y1523622D02*
Y1850394D01*
X2036087Y1593598D02*
Y1668402D01*
X2169945Y1593598D02*
Y1668402D01*
X2036087Y1593598D02*
X2169945D01*
X2036087Y1668402D02*
X2169945D01*
X2819520Y3106724D02*
Y3197276D01*
X2634480Y3106724D02*
Y3197276D01*
X2819520D01*
X2634480Y3106724D02*
X2819520D01*
X1839480Y701276D02*
X2024520D01*
X1839480Y610724D02*
X2024520D01*
Y701276D01*
X1839480Y610724D02*
Y701276D01*
X1967480Y3104724D02*
X2152520D01*
X1967480Y3195276D02*
X2152520D01*
X1967480Y3104724D02*
Y3195276D01*
X2152520Y3104724D02*
Y3195276D01*
X1272756Y3189724D02*
X1457795D01*
X1272756Y3280276D02*
X1457795D01*
X1272756Y3189724D02*
Y3280276D01*
X1457795Y3189724D02*
Y3280276D01*
X2074276Y1521480D02*
Y1706520D01*
X1983724Y1521480D02*
Y1706520D01*
X2074276D01*
X1983724Y1521480D02*
X2074276D01*
X1705391Y3640724D02*
Y3731276D01*
X1520352Y3640724D02*
Y3731276D01*
Y3640724D02*
X1705391D01*
X1520352Y3731276D02*
X1705391D01*
X1371101Y3640724D02*
Y3731276D01*
X1186062Y3640724D02*
Y3731276D01*
Y3640724D02*
X1371101D01*
X1186062Y3731276D02*
X1371101D01*
X1036810Y3640724D02*
Y3731276D01*
X851771Y3640724D02*
Y3731276D01*
Y3640724D02*
X1036810D01*
X851771Y3731276D02*
X1036810D01*
X841615Y3808795D02*
X916418D01*
X841615Y3942654D02*
X916418D01*
X841615Y3808795D02*
Y3942654D01*
X916418Y3808795D02*
Y3942654D01*
X1175905Y3808795D02*
X1250708D01*
X1175905Y3942654D02*
X1250708D01*
X1175905Y3808795D02*
Y3942654D01*
X1250708Y3808795D02*
Y3942654D01*
X1510196Y3808795D02*
X1584999D01*
X1510196Y3942654D02*
X1584999D01*
X1510196Y3808795D02*
Y3942654D01*
X1584999Y3808795D02*
Y3942654D01*
X1844486Y3808795D02*
X1919290D01*
X1844486Y3942654D02*
X1919290D01*
X1844486Y3808795D02*
Y3942654D01*
X1919290Y3808795D02*
Y3942654D01*
X2039682Y3640724D02*
Y3731276D01*
X1854643Y3640724D02*
Y3731276D01*
Y3640724D02*
X2039682D01*
X1854643Y3731276D02*
X2039682D01*
X2178777Y3808795D02*
X2253580D01*
X2178777Y3942654D02*
X2253580D01*
X2178777Y3808795D02*
Y3942654D01*
X2253580Y3808795D02*
Y3942654D01*
X3393135Y3639898D02*
Y3730449D01*
X3208096Y3639898D02*
Y3730449D01*
Y3639898D02*
X3393135D01*
X3208096Y3730449D02*
X3393135D01*
X4379716Y3640724D02*
Y3731276D01*
X4194677Y3640724D02*
Y3731276D01*
Y3640724D02*
X4379716D01*
X4194677Y3731276D02*
X4379716D01*
X4045426Y3640724D02*
Y3731276D01*
X3860386Y3640724D02*
Y3731276D01*
Y3640724D02*
X4045426D01*
X3860386Y3731276D02*
X4045426D01*
X3850230Y3808795D02*
X3925033D01*
X3850230Y3942654D02*
X3925033D01*
X3850230Y3808795D02*
Y3942654D01*
X3925033Y3808795D02*
Y3942654D01*
X4184521Y3808795D02*
X4259324D01*
X4184521Y3942654D02*
X4259324D01*
X4184521Y3808795D02*
Y3942654D01*
X4259324Y3808795D02*
Y3942654D01*
X3197939Y3807968D02*
X3272743D01*
X3197939Y3941827D02*
X3272743D01*
X3197939Y3807968D02*
Y3941827D01*
X3272743Y3807968D02*
Y3941827D01*
X2513307Y3807794D02*
X2588110D01*
X2513307Y3941652D02*
X2588110D01*
X2513307Y3807794D02*
Y3941652D01*
X2588110Y3807794D02*
Y3941652D01*
X3535307Y3804621D02*
X3610110D01*
X3535307Y3938480D02*
X3610110D01*
X3535307Y3804621D02*
Y3938480D01*
X3610110Y3804621D02*
Y3938480D01*
X3050503Y3639724D02*
Y3730275D01*
X2865463Y3639724D02*
Y3730275D01*
Y3639724D02*
X3050503D01*
X2865463Y3730275D02*
X3050503D01*
X2373973Y3640724D02*
Y3731276D01*
X2188933Y3640724D02*
Y3731276D01*
Y3640724D02*
X2373973D01*
X2188933Y3731276D02*
X2373973D01*
X2708503Y3639723D02*
Y3730274D01*
X2523463Y3639723D02*
Y3730274D01*
Y3639723D02*
X2708503D01*
X2523463Y3730274D02*
X2708503D01*
X3730503Y3636550D02*
Y3727102D01*
X3545463Y3636550D02*
Y3727102D01*
Y3636550D02*
X3730503D01*
X3545463Y3727102D02*
X3730503D01*
X2855307Y3807794D02*
X2930110D01*
X2855307Y3941653D02*
X2930110D01*
X2855307Y3807794D02*
Y3941653D01*
X2930110Y3807794D02*
Y3941653D01*
X4029930Y1330598D02*
Y1405402D01*
X4163789Y1330598D02*
Y1405402D01*
X4029930D02*
X4163789D01*
X4029930Y1330598D02*
X4163789D01*
X3352034Y3807969D02*
Y3941828D01*
X3277231Y3807969D02*
Y3941828D01*
X3352034D01*
X3277231Y3807969D02*
X3352034D01*
X4004325Y3808796D02*
Y3942654D01*
X3929521Y3808796D02*
Y3942654D01*
X4004325D01*
X3929521Y3808796D02*
X4004325D01*
X4338615D02*
Y3942654D01*
X4263812Y3808796D02*
Y3942654D01*
X4338615D01*
X4263812Y3808796D02*
X4338615D01*
X1998581D02*
Y3942654D01*
X1923778Y3808796D02*
Y3942654D01*
X1998581D01*
X1923778Y3808796D02*
X1998581D01*
X2332872D02*
Y3942654D01*
X2258068Y3808796D02*
Y3942654D01*
X2332872D01*
X2258068Y3808796D02*
X2332872D01*
X3009402Y3807795D02*
Y3941654D01*
X2934598Y3807795D02*
Y3941654D01*
X3009402D01*
X2934598Y3807795D02*
X3009402D01*
X3689402Y3804622D02*
Y3938480D01*
X3614598Y3804622D02*
Y3938480D01*
X3689402D01*
X3614598Y3804622D02*
X3689402D01*
X2667402Y3807794D02*
Y3941653D01*
X2592598Y3807794D02*
Y3941653D01*
X2667402D01*
X2592598Y3807794D02*
X2667402D01*
X1664291Y3808796D02*
Y3942654D01*
X1589487Y3808796D02*
Y3942654D01*
X1664291D01*
X1589487Y3808796D02*
X1664291D01*
X995709D02*
Y3942654D01*
X920906Y3808796D02*
Y3942654D01*
X995709D01*
X920906Y3808796D02*
X995709D01*
X1175905Y3944623D02*
X1327480D01*
X1175905Y3806828D02*
X1327480D01*
Y3944623D01*
X1175905Y3806828D02*
Y3944623D01*
X841615Y3944623D02*
X993189D01*
X841615Y3806828D02*
X993189D01*
Y3944623D01*
X841615Y3806828D02*
Y3944623D01*
X1510196Y3944623D02*
X1661771D01*
X1510196Y3806828D02*
X1661771D01*
Y3944623D01*
X1510196Y3806828D02*
Y3944623D01*
X2513307Y3943621D02*
X2664882D01*
X2513307Y3805826D02*
X2664882D01*
Y3943621D01*
X2513307Y3805826D02*
Y3943621D01*
X3535307Y3940449D02*
X3686882D01*
X3535307Y3802654D02*
X3686882D01*
Y3940449D01*
X3535307Y3802654D02*
Y3940449D01*
X2855307Y3943622D02*
X3006882D01*
X2855307Y3805827D02*
X3006882D01*
Y3943622D01*
X2855307Y3805827D02*
Y3943622D01*
X2178777Y3944623D02*
X2330352D01*
X2178777Y3806828D02*
X2330352D01*
Y3944623D01*
X2178777Y3806828D02*
Y3944623D01*
X1844486D02*
X1996061D01*
X1844486Y3806828D02*
X1996061D01*
Y3944623D01*
X1844486Y3806828D02*
Y3944623D01*
X4184521Y3944623D02*
X4336096D01*
X4184521Y3806828D02*
X4336096D01*
Y3944623D01*
X4184521Y3806828D02*
Y3944623D01*
X3850230D02*
X4001805D01*
X3850230Y3806828D02*
X4001805D01*
Y3944623D01*
X3850230Y3806828D02*
Y3944623D01*
X3197939Y3943796D02*
X3349514D01*
X3197939Y3806001D02*
X3349514D01*
Y3943796D01*
X3197939Y3806001D02*
Y3943796D01*
X1330000Y3808796D02*
Y3942654D01*
X1255197Y3808796D02*
Y3942654D01*
X1330000D01*
X1255197Y3808796D02*
X1330000D01*
%TF.MD5,8deed5747239dd40f793a9105d997d5f*%
M02*
