%TF.GenerationSoftware,Altium Limited,Altium Designer,19.0.10 (269)*%
G04 Layer_Color=16711935*
%FSLAX26Y26*%
%MOIN*%
%TF.FileFunction,Soldermask,Bot*%
%TF.Part,Single*%
G01*
G75*
%TA.AperFunction,SMDPad,CuDef*%
%ADD38R,0.053276X0.061150*%
%ADD39R,0.061150X0.065087*%
%ADD40R,0.043433X0.039496*%
%TA.AperFunction,ComponentPad*%
%ADD41C,0.102488*%
%ADD42C,0.094614*%
%ADD43C,0.137921*%
%TA.AperFunction,ViaPad*%
%ADD44C,0.258000*%
%TA.AperFunction,ComponentPad*%
%ADD45C,0.106425*%
%ADD46C,0.086740*%
%TA.AperFunction,ViaPad*%
%ADD47C,0.058000*%
%ADD48C,0.038000*%
G36*
X1944000Y1798000D02*
X1944000Y1660590D01*
X1928410Y1645000D01*
X1759000Y1645000D01*
X1742000Y1662000D01*
X1742000Y1798000D01*
X1758000Y1814000D01*
X1928000D01*
X1944000Y1798000D01*
D02*
G37*
D38*
X2068567Y1631000D02*
D03*
X2137465D02*
D03*
D39*
X2785071Y3152000D02*
D03*
X2668929D02*
D03*
X1990071Y656000D02*
D03*
X1873929D02*
D03*
X2001929Y3150000D02*
D03*
X2118071D02*
D03*
X1307205Y3235000D02*
D03*
X1423347D02*
D03*
D40*
X1291063Y3875725D02*
D03*
X1212323Y3913127D02*
D03*
Y3838324D02*
D03*
X956772Y3875725D02*
D03*
X878032Y3913127D02*
D03*
Y3838324D02*
D03*
X1625353Y3875725D02*
D03*
X1546613Y3913127D02*
D03*
Y3838324D02*
D03*
X2628465Y3874724D02*
D03*
X2549724Y3912125D02*
D03*
Y3837322D02*
D03*
X3650465Y3871551D02*
D03*
X3571724Y3908953D02*
D03*
Y3834150D02*
D03*
X2970465Y3874724D02*
D03*
X2891724Y3912126D02*
D03*
Y3837323D02*
D03*
X2293935Y3875725D02*
D03*
X2215194Y3913127D02*
D03*
Y3838324D02*
D03*
X1959644Y3875725D02*
D03*
X1880904Y3913127D02*
D03*
Y3838324D02*
D03*
X4299678Y3875725D02*
D03*
X4220938Y3913127D02*
D03*
Y3838324D02*
D03*
X3965388Y3875725D02*
D03*
X3886647Y3913127D02*
D03*
Y3838324D02*
D03*
X3313097Y3874899D02*
D03*
X3234357Y3912300D02*
D03*
Y3837497D02*
D03*
D41*
X1357276Y2052071D02*
D03*
X966724D02*
D03*
X1357276Y2185929D02*
D03*
X966724D02*
D03*
X1624843Y2186206D02*
D03*
Y2576757D02*
D03*
X1758701Y2186206D02*
D03*
Y2576757D02*
D03*
X2313490Y2181724D02*
D03*
Y2572276D02*
D03*
X2447348Y2181724D02*
D03*
Y2572276D02*
D03*
X2979165Y2183724D02*
D03*
Y2574276D02*
D03*
X3113023Y2183724D02*
D03*
Y2574276D02*
D03*
X3299361Y2184449D02*
D03*
Y2575000D02*
D03*
X3433220Y2184449D02*
D03*
Y2575000D02*
D03*
X3638246Y2184724D02*
D03*
Y2575276D02*
D03*
X3772104Y2184724D02*
D03*
Y2575276D02*
D03*
X3978379Y2184898D02*
D03*
Y2575450D02*
D03*
X4112237Y2184898D02*
D03*
Y2575450D02*
D03*
X3731237Y1771450D02*
D03*
Y1380898D02*
D03*
X3597378Y1771450D02*
D03*
Y1380898D02*
D03*
X3376886Y1771000D02*
D03*
Y1380449D02*
D03*
X3243028Y1771000D02*
D03*
Y1380449D02*
D03*
X3022570Y1771450D02*
D03*
Y1380898D02*
D03*
X2888712Y1771450D02*
D03*
Y1380898D02*
D03*
X2667701Y1771757D02*
D03*
Y1381206D02*
D03*
X2533843Y1771757D02*
D03*
Y1381206D02*
D03*
X2312929Y1771456D02*
D03*
Y1380905D02*
D03*
X2179071Y1771456D02*
D03*
Y1380905D02*
D03*
D42*
X720866Y2269685D02*
D03*
Y2387795D02*
D03*
Y2505905D02*
D03*
Y2624016D02*
D03*
Y2742126D02*
D03*
Y2860236D02*
D03*
Y2978347D02*
D03*
Y3096457D02*
D03*
Y3214567D02*
D03*
X622441Y2328740D02*
D03*
Y2446850D02*
D03*
Y2564961D02*
D03*
Y2683071D02*
D03*
Y2801181D02*
D03*
Y2919291D02*
D03*
Y3037402D02*
D03*
Y3155512D02*
D03*
X504331Y2328740D02*
D03*
Y2446850D02*
D03*
Y2564961D02*
D03*
Y2683071D02*
D03*
Y2801181D02*
D03*
Y2919291D02*
D03*
Y3037402D02*
D03*
Y3155512D02*
D03*
X405906Y2269685D02*
D03*
Y2387795D02*
D03*
Y2505905D02*
D03*
Y2624016D02*
D03*
Y2742126D02*
D03*
Y2860236D02*
D03*
Y2978347D02*
D03*
Y3096457D02*
D03*
Y3214567D02*
D03*
Y1698819D02*
D03*
Y1580709D02*
D03*
Y1462599D02*
D03*
Y1344488D02*
D03*
Y1226378D02*
D03*
Y1108268D02*
D03*
Y990158D02*
D03*
X504331Y1639764D02*
D03*
Y1521654D02*
D03*
Y1403543D02*
D03*
Y1285433D02*
D03*
Y1167323D02*
D03*
Y1049213D02*
D03*
X622441Y1639764D02*
D03*
Y1521654D02*
D03*
Y1403543D02*
D03*
Y1285433D02*
D03*
Y1167323D02*
D03*
Y1049213D02*
D03*
X720866Y1698819D02*
D03*
Y1580709D02*
D03*
Y1462599D02*
D03*
Y1344488D02*
D03*
Y1226378D02*
D03*
Y1108268D02*
D03*
Y990158D02*
D03*
D43*
X150000Y704724D02*
D03*
Y1984252D02*
D03*
Y3500000D02*
D03*
D44*
X4700000Y300000D02*
D03*
Y3900000D02*
D03*
X300000D02*
D03*
Y300000D02*
D03*
D45*
X2644656Y2449512D02*
D03*
X2619065Y2823528D02*
D03*
X2768671Y2685732D02*
D03*
X1979001Y2452449D02*
D03*
X1953410Y2826465D02*
D03*
X2103016Y2688670D02*
D03*
X1287000Y2531449D02*
D03*
X1261409Y2905465D02*
D03*
X1411016Y2767669D02*
D03*
X2011929Y1364551D02*
D03*
X2037520Y990535D02*
D03*
X1887913Y1128331D02*
D03*
D46*
X2813947Y3040063D02*
D03*
X2644656D02*
D03*
X2148292Y3043001D02*
D03*
X1979001D02*
D03*
X1456291Y3122000D02*
D03*
X1287000D02*
D03*
X1842638Y774000D02*
D03*
X2011929D02*
D03*
D47*
X4609000Y3395000D02*
D03*
X4609000Y3497586D02*
D03*
X1820000Y1318000D02*
D03*
X3706054Y3595826D02*
D03*
X2674054Y3598998D02*
D03*
X2293935Y3768482D02*
D03*
X2140000Y1551000D02*
D03*
X1122000D02*
D03*
X1224000Y1440000D02*
D03*
X1178000Y1647000D02*
D03*
X1754000Y1506000D02*
D03*
X1454000Y1322000D02*
D03*
X1224000D02*
D03*
X1454000Y1440000D02*
D03*
X1110000Y1381206D02*
D03*
X2156000Y966000D02*
D03*
X206000Y2978000D02*
D03*
X297000Y3037402D02*
D03*
X1876294Y3570439D02*
D03*
X1763000Y3160000D02*
D03*
X934000Y3524000D02*
D03*
X3528000Y1553000D02*
D03*
X2367000Y3048000D02*
D03*
X2476217Y3214567D02*
D03*
X164695Y2380000D02*
D03*
X180000Y2769010D02*
D03*
X4344456Y3600000D02*
D03*
X597000Y3810000D02*
D03*
X4860000Y2850000D02*
D03*
X227000Y1634278D02*
D03*
X490000Y2162952D02*
D03*
X390000Y1990000D02*
D03*
X3873000Y2396000D02*
D03*
X3202201Y2400000D02*
D03*
X2780726Y1510000D02*
D03*
X4710000Y1420000D02*
D03*
X4510000Y2710000D02*
D03*
X3930000Y3120000D02*
D03*
X3420000Y2980000D02*
D03*
X2990000Y2840465D02*
D03*
X2440000Y2884821D02*
D03*
X1170000Y1984252D02*
D03*
X986000Y2570000D02*
D03*
X969000Y1381206D02*
D03*
X920000Y1000000D02*
D03*
X1340000Y930000D02*
D03*
X2180000Y1060000D02*
D03*
X1420000Y700000D02*
D03*
X2601000Y1215000D02*
D03*
X2560000Y822000D02*
D03*
X2883776Y820000D02*
D03*
X4304000Y1270000D02*
D03*
X3040000Y290000D02*
D03*
X1995969Y240000D02*
D03*
X1110000Y250000D02*
D03*
X3965388Y3768482D02*
D03*
X1959644D02*
D03*
X1625353D02*
D03*
X1881888Y3770726D02*
D03*
X4610000Y3080000D02*
D03*
Y3185000D02*
D03*
Y3290000D02*
D03*
X4010977Y3600000D02*
D03*
X3358686Y3599173D02*
D03*
X2628465Y3767480D02*
D03*
X3016054Y3598999D02*
D03*
X1291063Y3768482D02*
D03*
X1212323Y3989740D02*
D03*
X1213307Y3770726D02*
D03*
X1546613Y3989740D02*
D03*
X1547597Y3770726D02*
D03*
X3313097Y3767655D02*
D03*
X3234357Y3988913D02*
D03*
X3235341Y3769899D02*
D03*
X3886647Y3989740D02*
D03*
X3887632Y3770726D02*
D03*
X4299678Y3768482D02*
D03*
X4220938Y3989740D02*
D03*
X4221922Y3770726D02*
D03*
X1880904Y3989740D02*
D03*
X2215194D02*
D03*
X2216179Y3770726D02*
D03*
X2970465Y3767481D02*
D03*
X2891724Y3988739D02*
D03*
X2892709Y3769725D02*
D03*
X3650465Y3764308D02*
D03*
X3571724Y3985566D02*
D03*
X3572709Y3766552D02*
D03*
X2549724Y3988739D02*
D03*
X2550709Y3769724D02*
D03*
X956772Y3768482D02*
D03*
X878032Y3989740D02*
D03*
X879016Y3770726D02*
D03*
D48*
X1919000Y1669000D02*
D03*
X1842000Y1709250D02*
D03*
X1919000Y1749500D02*
D03*
Y1789750D02*
D03*
Y1709250D02*
D03*
X1880000D02*
D03*
X1766000D02*
D03*
Y1789750D02*
D03*
Y1749500D02*
D03*
X1842000D02*
D03*
X1880000D02*
D03*
X1804000D02*
D03*
Y1789750D02*
D03*
X1880000D02*
D03*
X1842000D02*
D03*
X1804000Y1709250D02*
D03*
X1880000Y1669000D02*
D03*
X1842000D02*
D03*
X1804000D02*
D03*
X1766000D02*
D03*
%TF.MD5,360fb474e4dfc0ad0c2ac6d77a47aff6*%
M02*
