%TF.GenerationSoftware,Altium Limited,Altium Designer,19.0.10 (269)*%
G04 Layer_Color=56026*
%FSLAX26Y26*%
%MOIN*%
%TF.FileFunction,Legend,Bot*%
%TF.Part,Single*%
G01*
G75*
%TA.AperFunction,NonConductor*%
%ADD33C,0.019685*%
%ADD34C,0.009842*%
%ADD35C,0.005906*%
%ADD36C,0.010000*%
%ADD37C,0.007874*%
G36*
X2189536Y1678380D02*
X2214411D01*
Y1674517D01*
X2189536Y1657002D01*
X2185207D01*
Y1673652D01*
X2176016D01*
Y1678380D01*
X2185207D01*
Y1683575D01*
X2189536D01*
Y1678380D01*
D02*
G37*
G36*
X2180545Y1634691D02*
X2181011Y1634990D01*
X2181477Y1635323D01*
X2181910Y1635656D01*
X2182277Y1635956D01*
X2182610Y1636222D01*
X2182876Y1636456D01*
X2183009Y1636589D01*
X2183076Y1636655D01*
X2183342Y1636922D01*
X2183642Y1637221D01*
X2184008Y1637621D01*
X2184374Y1638021D01*
X2185174Y1638920D01*
X2185973Y1639852D01*
X2186339Y1640285D01*
X2186706Y1640718D01*
X2187039Y1641084D01*
X2187338Y1641417D01*
X2187571Y1641717D01*
X2187738Y1641917D01*
X2187871Y1642083D01*
X2187904Y1642117D01*
X2188704Y1643049D01*
X2189436Y1643881D01*
X2190135Y1644681D01*
X2190768Y1645380D01*
X2191367Y1646046D01*
X2191934Y1646612D01*
X2192433Y1647145D01*
X2192899Y1647644D01*
X2193299Y1648044D01*
X2193665Y1648377D01*
X2193965Y1648677D01*
X2194198Y1648943D01*
X2194398Y1649110D01*
X2194564Y1649243D01*
X2194631Y1649309D01*
X2194664Y1649343D01*
X2195563Y1650109D01*
X2196429Y1650774D01*
X2197228Y1651307D01*
X2197928Y1651740D01*
X2198227Y1651907D01*
X2198494Y1652073D01*
X2198727Y1652206D01*
X2198960Y1652306D01*
X2199093Y1652373D01*
X2199226Y1652439D01*
X2199293Y1652473D01*
X2199326D01*
X2200159Y1652806D01*
X2200991Y1653039D01*
X2201757Y1653205D01*
X2202456Y1653305D01*
X2203023Y1653405D01*
X2203289D01*
X2203489Y1653438D01*
X2203655D01*
X2203788D01*
X2203855D01*
X2203888D01*
X2204721Y1653405D01*
X2205520Y1653305D01*
X2206286Y1653139D01*
X2206985Y1652939D01*
X2207651Y1652706D01*
X2208284Y1652406D01*
X2208850Y1652140D01*
X2209383Y1651840D01*
X2209849Y1651507D01*
X2210282Y1651241D01*
X2210648Y1650974D01*
X2210948Y1650708D01*
X2211181Y1650508D01*
X2211347Y1650342D01*
X2211447Y1650242D01*
X2211481Y1650208D01*
X2212014Y1649576D01*
X2212480Y1648910D01*
X2212913Y1648210D01*
X2213246Y1647478D01*
X2213545Y1646745D01*
X2213812Y1646013D01*
X2214012Y1645313D01*
X2214178Y1644614D01*
X2214278Y1643981D01*
X2214378Y1643382D01*
X2214444Y1642816D01*
X2214511Y1642350D01*
Y1641983D01*
X2214544Y1641684D01*
Y1641450D01*
X2214511Y1640451D01*
X2214411Y1639519D01*
X2214278Y1638620D01*
X2214111Y1637787D01*
X2213878Y1637022D01*
X2213645Y1636289D01*
X2213379Y1635623D01*
X2213112Y1635057D01*
X2212846Y1634524D01*
X2212580Y1634058D01*
X2212347Y1633658D01*
X2212113Y1633325D01*
X2211947Y1633059D01*
X2211814Y1632892D01*
X2211714Y1632759D01*
X2211680Y1632726D01*
X2211114Y1632160D01*
X2210515Y1631627D01*
X2209882Y1631194D01*
X2209183Y1630794D01*
X2208517Y1630428D01*
X2207818Y1630129D01*
X2207152Y1629895D01*
X2206486Y1629662D01*
X2205853Y1629496D01*
X2205287Y1629363D01*
X2204754Y1629229D01*
X2204321Y1629163D01*
X2203955Y1629096D01*
X2203655Y1629063D01*
X2203489Y1629030D01*
X2203422D01*
X2202923Y1633891D01*
X2203589Y1633925D01*
X2204188Y1633991D01*
X2204787Y1634091D01*
X2205320Y1634224D01*
X2205820Y1634358D01*
X2206286Y1634524D01*
X2206719Y1634724D01*
X2207118Y1634924D01*
X2207451Y1635090D01*
X2207751Y1635290D01*
X2207984Y1635457D01*
X2208217Y1635623D01*
X2208384Y1635723D01*
X2208484Y1635823D01*
X2208550Y1635889D01*
X2208584Y1635923D01*
X2208950Y1636322D01*
X2209250Y1636755D01*
X2209549Y1637188D01*
X2209782Y1637621D01*
X2209982Y1638087D01*
X2210149Y1638520D01*
X2210382Y1639386D01*
X2210482Y1639785D01*
X2210548Y1640185D01*
X2210582Y1640518D01*
X2210615Y1640784D01*
X2210648Y1641018D01*
Y1641351D01*
X2210615Y1641950D01*
X2210582Y1642516D01*
X2210482Y1643049D01*
X2210349Y1643515D01*
X2210215Y1643981D01*
X2210049Y1644414D01*
X2209849Y1644814D01*
X2209682Y1645180D01*
X2209516Y1645513D01*
X2209316Y1645780D01*
X2209150Y1646013D01*
X2209017Y1646212D01*
X2208883Y1646379D01*
X2208817Y1646479D01*
X2208750Y1646545D01*
X2208717Y1646579D01*
X2208351Y1646945D01*
X2207951Y1647245D01*
X2207551Y1647511D01*
X2207152Y1647744D01*
X2206752Y1647944D01*
X2206386Y1648077D01*
X2205620Y1648344D01*
X2205287Y1648410D01*
X2204987Y1648477D01*
X2204688Y1648510D01*
X2204454Y1648543D01*
X2204255Y1648577D01*
X2204121D01*
X2204021D01*
X2203988D01*
X2203489Y1648543D01*
X2202989Y1648477D01*
X2202490Y1648377D01*
X2201990Y1648244D01*
X2201024Y1647877D01*
X2200159Y1647478D01*
X2199759Y1647278D01*
X2199426Y1647078D01*
X2199093Y1646878D01*
X2198827Y1646712D01*
X2198627Y1646579D01*
X2198460Y1646479D01*
X2198360Y1646412D01*
X2198327Y1646379D01*
X2197728Y1645913D01*
X2197128Y1645380D01*
X2196462Y1644781D01*
X2195796Y1644148D01*
X2195097Y1643448D01*
X2194431Y1642749D01*
X2193765Y1642017D01*
X2193132Y1641317D01*
X2192533Y1640651D01*
X2191967Y1640019D01*
X2191467Y1639453D01*
X2191035Y1638920D01*
X2190668Y1638520D01*
X2190402Y1638187D01*
X2190235Y1637987D01*
X2190169Y1637954D01*
Y1637921D01*
X2189569Y1637188D01*
X2188970Y1636489D01*
X2188404Y1635856D01*
X2187871Y1635257D01*
X2187372Y1634724D01*
X2186872Y1634191D01*
X2186439Y1633758D01*
X2186039Y1633325D01*
X2185673Y1632959D01*
X2185340Y1632659D01*
X2185041Y1632393D01*
X2184807Y1632160D01*
X2184641Y1631993D01*
X2184474Y1631860D01*
X2184408Y1631793D01*
X2184374Y1631760D01*
X2183442Y1631028D01*
X2182510Y1630395D01*
X2181677Y1629829D01*
X2180878Y1629429D01*
X2180545Y1629229D01*
X2180245Y1629096D01*
X2179946Y1628963D01*
X2179713Y1628863D01*
X2179546Y1628763D01*
X2179413Y1628697D01*
X2179313Y1628663D01*
X2179280D01*
X2178680Y1628464D01*
X2178114Y1628330D01*
X2177548Y1628230D01*
X2177048Y1628164D01*
X2176649Y1628130D01*
X2176316D01*
X2176183D01*
X2176083D01*
X2176050D01*
X2176016D01*
Y1653505D01*
X2180545D01*
Y1634691D01*
D02*
G37*
G36*
X2186472Y1619106D02*
X2187571Y1618374D01*
X2188570Y1617608D01*
X2189436Y1616908D01*
X2189802Y1616575D01*
X2190169Y1616276D01*
X2190502Y1615976D01*
X2190768Y1615710D01*
X2191001Y1615476D01*
X2191201Y1615277D01*
X2191367Y1615143D01*
X2191467Y1615010D01*
X2191534Y1614944D01*
X2191567Y1614910D01*
X2191934Y1614477D01*
X2192267Y1614011D01*
X2192600Y1613478D01*
X2192899Y1612979D01*
X2193132Y1612546D01*
X2193332Y1612180D01*
X2193399Y1612047D01*
X2193465Y1611947D01*
X2193499Y1611880D01*
Y1611847D01*
X2193665Y1612846D01*
X2193865Y1613778D01*
X2194098Y1614644D01*
X2194365Y1615443D01*
X2194631Y1616176D01*
X2194931Y1616875D01*
X2195230Y1617475D01*
X2195530Y1618007D01*
X2195830Y1618474D01*
X2196096Y1618873D01*
X2196363Y1619239D01*
X2196596Y1619506D01*
X2196762Y1619739D01*
X2196895Y1619872D01*
X2196995Y1619972D01*
X2197028Y1620005D01*
X2197561Y1620472D01*
X2198127Y1620871D01*
X2198727Y1621237D01*
X2199293Y1621537D01*
X2199892Y1621803D01*
X2200458Y1622037D01*
X2201024Y1622203D01*
X2201524Y1622336D01*
X2202023Y1622436D01*
X2202490Y1622536D01*
X2202889Y1622603D01*
X2203256Y1622636D01*
X2203522Y1622669D01*
X2203755D01*
X2203888D01*
X2203922D01*
X2204521Y1622636D01*
X2205087Y1622603D01*
X2206153Y1622436D01*
X2207152Y1622170D01*
X2207585Y1622037D01*
X2207984Y1621870D01*
X2208351Y1621737D01*
X2208684Y1621570D01*
X2208983Y1621437D01*
X2209216Y1621337D01*
X2209416Y1621204D01*
X2209549Y1621138D01*
X2209649Y1621104D01*
X2209682Y1621071D01*
X2210149Y1620771D01*
X2210582Y1620438D01*
X2211015Y1620072D01*
X2211381Y1619739D01*
X2211714Y1619373D01*
X2212014Y1619006D01*
X2212513Y1618340D01*
X2212879Y1617741D01*
X2213012Y1617475D01*
X2213146Y1617241D01*
X2213246Y1617075D01*
X2213312Y1616942D01*
X2213345Y1616842D01*
Y1616809D01*
X2213545Y1616276D01*
X2213712Y1615710D01*
X2213845Y1615110D01*
X2213978Y1614477D01*
X2214145Y1613179D01*
X2214278Y1611913D01*
X2214311Y1611314D01*
X2214345Y1610781D01*
X2214378Y1610282D01*
X2214411Y1609849D01*
Y1592000D01*
X2176016D01*
Y1597095D01*
X2193066D01*
Y1603655D01*
X2193032Y1604221D01*
X2192999Y1604721D01*
X2192966Y1605120D01*
X2192933Y1605420D01*
X2192899Y1605620D01*
X2192866Y1605753D01*
Y1605786D01*
X2192733Y1606219D01*
X2192566Y1606652D01*
X2192400Y1607018D01*
X2192233Y1607385D01*
X2192067Y1607651D01*
X2191967Y1607884D01*
X2191867Y1608051D01*
X2191834Y1608084D01*
X2191534Y1608517D01*
X2191134Y1608983D01*
X2190702Y1609416D01*
X2190302Y1609815D01*
X2189902Y1610182D01*
X2189569Y1610448D01*
X2189436Y1610548D01*
X2189336Y1610615D01*
X2189303Y1610681D01*
X2189270D01*
X2188903Y1610948D01*
X2188504Y1611247D01*
X2187671Y1611847D01*
X2186805Y1612479D01*
X2185940Y1613046D01*
X2185573Y1613312D01*
X2185207Y1613578D01*
X2184874Y1613778D01*
X2184574Y1613978D01*
X2184341Y1614145D01*
X2184175Y1614244D01*
X2184041Y1614311D01*
X2184008Y1614344D01*
X2176016Y1619406D01*
Y1625766D01*
X2186472Y1619106D01*
D02*
G37*
G36*
X2763718Y3244062D02*
X2764018Y3243596D01*
X2764650Y3242663D01*
X2765350Y3241798D01*
X2766049Y3240998D01*
X2766382Y3240665D01*
X2766682Y3240332D01*
X2766948Y3240066D01*
X2767181Y3239833D01*
X2767414Y3239633D01*
X2767548Y3239500D01*
X2767647Y3239400D01*
X2767681Y3239367D01*
X2768813Y3238434D01*
X2770012Y3237568D01*
X2771177Y3236802D01*
X2771710Y3236436D01*
X2772243Y3236137D01*
X2772742Y3235837D01*
X2773175Y3235604D01*
X2773575Y3235371D01*
X2773908Y3235204D01*
X2774174Y3235071D01*
X2774407Y3234971D01*
X2774541Y3234904D01*
X2774574Y3234871D01*
Y3230309D01*
X2773741Y3230642D01*
X2772876Y3231042D01*
X2772043Y3231441D01*
X2771277Y3231841D01*
X2770944Y3232007D01*
X2770611Y3232207D01*
X2770345Y3232340D01*
X2770112Y3232474D01*
X2769912Y3232573D01*
X2769779Y3232673D01*
X2769679Y3232707D01*
X2769645Y3232740D01*
X2768646Y3233339D01*
X2767781Y3233939D01*
X2767015Y3234505D01*
X2766349Y3234971D01*
X2766082Y3235204D01*
X2765849Y3235404D01*
X2765649Y3235570D01*
X2765450Y3235737D01*
X2765316Y3235837D01*
X2765216Y3235937D01*
X2765183Y3235970D01*
X2765150Y3236003D01*
Y3206000D01*
X2760421D01*
Y3244528D01*
X2763485D01*
X2763718Y3244062D01*
D02*
G37*
G36*
X2815000Y3206000D02*
X2801180D01*
X2799915Y3206033D01*
X2798750Y3206100D01*
X2798217Y3206133D01*
X2797684Y3206200D01*
X2797218Y3206266D01*
X2796785Y3206333D01*
X2796385Y3206366D01*
X2796052Y3206433D01*
X2795753Y3206499D01*
X2795486Y3206533D01*
X2795286Y3206566D01*
X2795153Y3206599D01*
X2795053Y3206633D01*
X2795020D01*
X2794054Y3206899D01*
X2793155Y3207232D01*
X2792389Y3207532D01*
X2791723Y3207865D01*
X2791424Y3207998D01*
X2791157Y3208131D01*
X2790957Y3208264D01*
X2790758Y3208364D01*
X2790624Y3208431D01*
X2790524Y3208497D01*
X2790458Y3208564D01*
X2790425D01*
X2789725Y3209064D01*
X2789093Y3209630D01*
X2788493Y3210229D01*
X2787960Y3210762D01*
X2787528Y3211261D01*
X2787195Y3211661D01*
X2787095Y3211827D01*
X2786995Y3211927D01*
X2786961Y3211994D01*
X2786928Y3212027D01*
X2786362Y3212893D01*
X2785829Y3213859D01*
X2785396Y3214791D01*
X2784997Y3215657D01*
X2784863Y3216057D01*
X2784697Y3216456D01*
X2784597Y3216789D01*
X2784497Y3217056D01*
X2784397Y3217289D01*
X2784331Y3217488D01*
X2784297Y3217588D01*
Y3217622D01*
X2783964Y3218920D01*
X2783698Y3220252D01*
X2783532Y3221584D01*
X2783432Y3222184D01*
X2783398Y3222783D01*
X2783365Y3223316D01*
X2783332Y3223816D01*
X2783298Y3224282D01*
X2783265Y3224648D01*
Y3224948D01*
Y3225181D01*
Y3225347D01*
Y3225381D01*
Y3226313D01*
X2783332Y3227245D01*
X2783398Y3228144D01*
X2783498Y3228977D01*
X2783631Y3229776D01*
X2783765Y3230509D01*
X2783898Y3231208D01*
X2784031Y3231874D01*
X2784164Y3232440D01*
X2784297Y3232973D01*
X2784431Y3233406D01*
X2784564Y3233805D01*
X2784664Y3234105D01*
X2784730Y3234338D01*
X2784764Y3234472D01*
X2784797Y3234505D01*
X2785097Y3235237D01*
X2785430Y3235937D01*
X2785763Y3236603D01*
X2786129Y3237202D01*
X2786495Y3237802D01*
X2786895Y3238334D01*
X2787261Y3238834D01*
X2787627Y3239300D01*
X2787960Y3239700D01*
X2788293Y3240033D01*
X2788560Y3240366D01*
X2788826Y3240599D01*
X2789026Y3240798D01*
X2789193Y3240932D01*
X2789292Y3241032D01*
X2789326Y3241065D01*
X2790225Y3241764D01*
X2791191Y3242330D01*
X2792123Y3242830D01*
X2793022Y3243196D01*
X2793422Y3243363D01*
X2793788Y3243496D01*
X2794121Y3243596D01*
X2794387Y3243696D01*
X2794620Y3243762D01*
X2794820Y3243796D01*
X2794920Y3243829D01*
X2794953D01*
X2795420Y3243929D01*
X2795919Y3244029D01*
X2797018Y3244162D01*
X2798150Y3244262D01*
X2799249Y3244328D01*
X2799782Y3244362D01*
X2800248D01*
X2800681Y3244395D01*
X2815000D01*
Y3206000D01*
D02*
G37*
G36*
X2749898Y3219520D02*
Y3215191D01*
X2733249D01*
Y3206000D01*
X2728520D01*
Y3215191D01*
X2723325D01*
Y3219520D01*
X2728520D01*
Y3244395D01*
X2732383D01*
X2749898Y3219520D01*
D02*
G37*
G36*
X2100718Y3243062D02*
X2101018Y3242596D01*
X2101650Y3241663D01*
X2102350Y3240798D01*
X2103049Y3239998D01*
X2103382Y3239665D01*
X2103682Y3239332D01*
X2103948Y3239066D01*
X2104181Y3238833D01*
X2104414Y3238633D01*
X2104548Y3238500D01*
X2104647Y3238400D01*
X2104681Y3238367D01*
X2105813Y3237434D01*
X2107012Y3236568D01*
X2108177Y3235802D01*
X2108710Y3235436D01*
X2109243Y3235137D01*
X2109742Y3234837D01*
X2110175Y3234604D01*
X2110575Y3234371D01*
X2110908Y3234204D01*
X2111174Y3234071D01*
X2111407Y3233971D01*
X2111541Y3233904D01*
X2111574Y3233871D01*
Y3229309D01*
X2110741Y3229642D01*
X2109876Y3230042D01*
X2109043Y3230441D01*
X2108277Y3230841D01*
X2107944Y3231007D01*
X2107611Y3231207D01*
X2107345Y3231340D01*
X2107112Y3231474D01*
X2106912Y3231573D01*
X2106779Y3231673D01*
X2106679Y3231707D01*
X2106645Y3231740D01*
X2105646Y3232339D01*
X2104781Y3232939D01*
X2104015Y3233505D01*
X2103349Y3233971D01*
X2103082Y3234204D01*
X2102849Y3234404D01*
X2102649Y3234570D01*
X2102450Y3234737D01*
X2102316Y3234837D01*
X2102216Y3234937D01*
X2102183Y3234970D01*
X2102150Y3235003D01*
Y3205000D01*
X2097421D01*
Y3243528D01*
X2100485D01*
X2100718Y3243062D01*
D02*
G37*
G36*
X2084501Y3223182D02*
X2080072Y3222616D01*
X2079639Y3223215D01*
X2079173Y3223715D01*
X2078707Y3224181D01*
X2078240Y3224547D01*
X2077841Y3224880D01*
X2077508Y3225080D01*
X2077375Y3225180D01*
X2077275Y3225246D01*
X2077242Y3225280D01*
X2077208D01*
X2076509Y3225613D01*
X2075810Y3225879D01*
X2075110Y3226046D01*
X2074478Y3226179D01*
X2073912Y3226245D01*
X2073678Y3226279D01*
X2073479Y3226312D01*
X2073112D01*
X2072446Y3226279D01*
X2071780Y3226212D01*
X2071181Y3226079D01*
X2070615Y3225946D01*
X2070082Y3225779D01*
X2069616Y3225579D01*
X2069150Y3225346D01*
X2068750Y3225146D01*
X2068384Y3224913D01*
X2068051Y3224680D01*
X2067784Y3224481D01*
X2067551Y3224314D01*
X2067385Y3224181D01*
X2067251Y3224048D01*
X2067185Y3223981D01*
X2067152Y3223948D01*
X2066752Y3223481D01*
X2066419Y3223015D01*
X2066086Y3222483D01*
X2065853Y3221983D01*
X2065620Y3221450D01*
X2065453Y3220917D01*
X2065154Y3219885D01*
X2065087Y3219419D01*
X2065020Y3218986D01*
X2064954Y3218586D01*
X2064921Y3218253D01*
X2064887Y3217987D01*
Y3217754D01*
Y3217621D01*
Y3217587D01*
X2064921Y3216822D01*
X2064987Y3216089D01*
X2065120Y3215390D01*
X2065253Y3214757D01*
X2065420Y3214124D01*
X2065620Y3213591D01*
X2065853Y3213059D01*
X2066053Y3212592D01*
X2066286Y3212193D01*
X2066519Y3211827D01*
X2066719Y3211527D01*
X2066885Y3211260D01*
X2067018Y3211061D01*
X2067152Y3210927D01*
X2067218Y3210827D01*
X2067251Y3210794D01*
X2067684Y3210328D01*
X2068151Y3209962D01*
X2068650Y3209595D01*
X2069150Y3209329D01*
X2069616Y3209063D01*
X2070082Y3208863D01*
X2070548Y3208696D01*
X2071014Y3208563D01*
X2071414Y3208430D01*
X2071814Y3208363D01*
X2072147Y3208297D01*
X2072446Y3208263D01*
X2072679D01*
X2072846Y3208230D01*
X2073012D01*
X2073545Y3208263D01*
X2074045Y3208297D01*
X2074944Y3208497D01*
X2075776Y3208796D01*
X2076476Y3209129D01*
X2076775Y3209296D01*
X2077075Y3209462D01*
X2077275Y3209629D01*
X2077475Y3209762D01*
X2077641Y3209862D01*
X2077741Y3209962D01*
X2077808Y3209995D01*
X2077841Y3210028D01*
X2078207Y3210395D01*
X2078507Y3210794D01*
X2079073Y3211660D01*
X2079506Y3212559D01*
X2079839Y3213458D01*
X2079972Y3213891D01*
X2080105Y3214257D01*
X2080172Y3214624D01*
X2080272Y3214923D01*
X2080305Y3215190D01*
X2080338Y3215356D01*
X2080372Y3215490D01*
Y3215523D01*
X2085333Y3215090D01*
X2085200Y3214191D01*
X2085034Y3213358D01*
X2084801Y3212559D01*
X2084534Y3211827D01*
X2084268Y3211127D01*
X2083935Y3210494D01*
X2083602Y3209895D01*
X2083269Y3209362D01*
X2082936Y3208896D01*
X2082636Y3208497D01*
X2082336Y3208130D01*
X2082103Y3207831D01*
X2081870Y3207597D01*
X2081704Y3207431D01*
X2081604Y3207331D01*
X2081570Y3207298D01*
X2080938Y3206798D01*
X2080238Y3206332D01*
X2079539Y3205932D01*
X2078840Y3205599D01*
X2078107Y3205333D01*
X2077408Y3205100D01*
X2076709Y3204900D01*
X2076043Y3204734D01*
X2075410Y3204600D01*
X2074844Y3204534D01*
X2074311Y3204467D01*
X2073878Y3204401D01*
X2073512D01*
X2073245Y3204367D01*
X2073012D01*
X2071847Y3204434D01*
X2070748Y3204567D01*
X2069716Y3204800D01*
X2068750Y3205100D01*
X2067851Y3205433D01*
X2067018Y3205832D01*
X2066253Y3206265D01*
X2065586Y3206698D01*
X2064987Y3207098D01*
X2064454Y3207531D01*
X2063988Y3207930D01*
X2063622Y3208263D01*
X2063322Y3208563D01*
X2063122Y3208796D01*
X2062989Y3208929D01*
X2062956Y3208996D01*
X2062423Y3209729D01*
X2061957Y3210494D01*
X2061524Y3211260D01*
X2061191Y3212026D01*
X2060891Y3212792D01*
X2060625Y3213525D01*
X2060425Y3214257D01*
X2060258Y3214957D01*
X2060159Y3215589D01*
X2060059Y3216189D01*
X2059992Y3216688D01*
X2059925Y3217155D01*
Y3217521D01*
X2059892Y3217787D01*
Y3217954D01*
Y3218020D01*
X2059925Y3219019D01*
X2060025Y3219985D01*
X2060225Y3220884D01*
X2060425Y3221717D01*
X2060691Y3222516D01*
X2060991Y3223248D01*
X2061291Y3223948D01*
X2061624Y3224547D01*
X2061957Y3225113D01*
X2062256Y3225579D01*
X2062556Y3226012D01*
X2062823Y3226345D01*
X2063022Y3226612D01*
X2063189Y3226811D01*
X2063322Y3226945D01*
X2063355Y3226978D01*
X2064021Y3227611D01*
X2064721Y3228144D01*
X2065420Y3228610D01*
X2066153Y3229009D01*
X2066852Y3229342D01*
X2067551Y3229609D01*
X2068251Y3229842D01*
X2068883Y3230042D01*
X2069516Y3230175D01*
X2070082Y3230275D01*
X2070581Y3230375D01*
X2071014Y3230408D01*
X2071347Y3230441D01*
X2071614Y3230474D01*
X2071847D01*
X2072546Y3230441D01*
X2073245Y3230375D01*
X2073912Y3230241D01*
X2074577Y3230108D01*
X2075210Y3229908D01*
X2075810Y3229709D01*
X2076376Y3229476D01*
X2076909Y3229276D01*
X2077375Y3229043D01*
X2077808Y3228809D01*
X2078174Y3228610D01*
X2078507Y3228410D01*
X2078773Y3228277D01*
X2078940Y3228144D01*
X2079073Y3228077D01*
X2079106Y3228044D01*
X2077042Y3238400D01*
X2061690D01*
Y3242895D01*
X2080771D01*
X2084501Y3223182D01*
D02*
G37*
G36*
X2152000Y3205000D02*
X2138180D01*
X2136915Y3205033D01*
X2135750Y3205100D01*
X2135217Y3205133D01*
X2134684Y3205200D01*
X2134218Y3205266D01*
X2133785Y3205333D01*
X2133385Y3205366D01*
X2133052Y3205433D01*
X2132753Y3205499D01*
X2132486Y3205533D01*
X2132286Y3205566D01*
X2132153Y3205599D01*
X2132053Y3205633D01*
X2132020D01*
X2131054Y3205899D01*
X2130155Y3206232D01*
X2129389Y3206532D01*
X2128723Y3206865D01*
X2128424Y3206998D01*
X2128157Y3207131D01*
X2127957Y3207264D01*
X2127758Y3207364D01*
X2127624Y3207431D01*
X2127524Y3207497D01*
X2127458Y3207564D01*
X2127425D01*
X2126725Y3208064D01*
X2126093Y3208630D01*
X2125493Y3209229D01*
X2124960Y3209762D01*
X2124528Y3210261D01*
X2124195Y3210661D01*
X2124095Y3210827D01*
X2123995Y3210927D01*
X2123961Y3210994D01*
X2123928Y3211027D01*
X2123362Y3211893D01*
X2122829Y3212859D01*
X2122396Y3213791D01*
X2121997Y3214657D01*
X2121863Y3215057D01*
X2121697Y3215456D01*
X2121597Y3215789D01*
X2121497Y3216056D01*
X2121397Y3216289D01*
X2121331Y3216488D01*
X2121297Y3216588D01*
Y3216622D01*
X2120964Y3217920D01*
X2120698Y3219252D01*
X2120532Y3220584D01*
X2120432Y3221184D01*
X2120398Y3221783D01*
X2120365Y3222316D01*
X2120332Y3222816D01*
X2120298Y3223282D01*
X2120265Y3223648D01*
Y3223948D01*
Y3224181D01*
Y3224347D01*
Y3224381D01*
Y3225313D01*
X2120332Y3226245D01*
X2120398Y3227144D01*
X2120498Y3227977D01*
X2120631Y3228776D01*
X2120765Y3229509D01*
X2120898Y3230208D01*
X2121031Y3230874D01*
X2121164Y3231440D01*
X2121297Y3231973D01*
X2121431Y3232406D01*
X2121564Y3232805D01*
X2121664Y3233105D01*
X2121730Y3233338D01*
X2121764Y3233472D01*
X2121797Y3233505D01*
X2122097Y3234237D01*
X2122430Y3234937D01*
X2122763Y3235603D01*
X2123129Y3236202D01*
X2123495Y3236802D01*
X2123895Y3237334D01*
X2124261Y3237834D01*
X2124627Y3238300D01*
X2124960Y3238700D01*
X2125293Y3239033D01*
X2125560Y3239366D01*
X2125826Y3239599D01*
X2126026Y3239798D01*
X2126193Y3239932D01*
X2126292Y3240032D01*
X2126326Y3240065D01*
X2127225Y3240764D01*
X2128191Y3241330D01*
X2129123Y3241830D01*
X2130022Y3242196D01*
X2130422Y3242363D01*
X2130788Y3242496D01*
X2131121Y3242596D01*
X2131387Y3242696D01*
X2131620Y3242762D01*
X2131820Y3242796D01*
X2131920Y3242829D01*
X2131953D01*
X2132420Y3242929D01*
X2132919Y3243029D01*
X2134018Y3243162D01*
X2135150Y3243262D01*
X2136249Y3243328D01*
X2136782Y3243362D01*
X2137248D01*
X2137681Y3243395D01*
X2152000D01*
Y3205000D01*
D02*
G37*
G36*
X1397064Y3327062D02*
X1397364Y3326596D01*
X1397997Y3325663D01*
X1398696Y3324798D01*
X1399396Y3323998D01*
X1399728Y3323665D01*
X1400028Y3323332D01*
X1400295Y3323066D01*
X1400528Y3322833D01*
X1400761Y3322633D01*
X1400894Y3322500D01*
X1400994Y3322400D01*
X1401027Y3322367D01*
X1402159Y3321434D01*
X1403358Y3320568D01*
X1404524Y3319802D01*
X1405056Y3319436D01*
X1405589Y3319137D01*
X1406089Y3318837D01*
X1406522Y3318604D01*
X1406921Y3318371D01*
X1407254Y3318204D01*
X1407521Y3318071D01*
X1407754Y3317971D01*
X1407887Y3317904D01*
X1407920Y3317871D01*
Y3313309D01*
X1407088Y3313642D01*
X1406222Y3314042D01*
X1405389Y3314441D01*
X1404624Y3314841D01*
X1404291Y3315007D01*
X1403958Y3315207D01*
X1403691Y3315340D01*
X1403458Y3315474D01*
X1403258Y3315573D01*
X1403125Y3315673D01*
X1403025Y3315707D01*
X1402992Y3315740D01*
X1401993Y3316339D01*
X1401127Y3316939D01*
X1400361Y3317505D01*
X1399695Y3317971D01*
X1399429Y3318204D01*
X1399196Y3318404D01*
X1398996Y3318570D01*
X1398796Y3318737D01*
X1398663Y3318837D01*
X1398563Y3318937D01*
X1398530Y3318970D01*
X1398496Y3319003D01*
Y3289000D01*
X1393768D01*
Y3327528D01*
X1396831D01*
X1397064Y3327062D01*
D02*
G37*
G36*
X1448347Y3289000D02*
X1434527D01*
X1433262Y3289033D01*
X1432096Y3289100D01*
X1431563Y3289133D01*
X1431031Y3289200D01*
X1430564Y3289266D01*
X1430131Y3289333D01*
X1429732Y3289366D01*
X1429399Y3289433D01*
X1429099Y3289499D01*
X1428833Y3289533D01*
X1428633Y3289566D01*
X1428500Y3289599D01*
X1428400Y3289633D01*
X1428367D01*
X1427401Y3289899D01*
X1426502Y3290232D01*
X1425736Y3290532D01*
X1425070Y3290865D01*
X1424770Y3290998D01*
X1424504Y3291131D01*
X1424304Y3291264D01*
X1424104Y3291364D01*
X1423971Y3291431D01*
X1423871Y3291497D01*
X1423804Y3291564D01*
X1423771D01*
X1423072Y3292064D01*
X1422439Y3292630D01*
X1421840Y3293229D01*
X1421307Y3293762D01*
X1420874Y3294261D01*
X1420541Y3294661D01*
X1420441Y3294827D01*
X1420341Y3294927D01*
X1420308Y3294994D01*
X1420275Y3295027D01*
X1419708Y3295893D01*
X1419176Y3296859D01*
X1418743Y3297791D01*
X1418343Y3298657D01*
X1418210Y3299057D01*
X1418043Y3299456D01*
X1417944Y3299789D01*
X1417844Y3300056D01*
X1417744Y3300289D01*
X1417677Y3300488D01*
X1417644Y3300588D01*
Y3300622D01*
X1417311Y3301920D01*
X1417044Y3303252D01*
X1416878Y3304584D01*
X1416778Y3305184D01*
X1416745Y3305783D01*
X1416711Y3306316D01*
X1416678Y3306816D01*
X1416645Y3307282D01*
X1416612Y3307648D01*
Y3307948D01*
Y3308181D01*
Y3308347D01*
Y3308381D01*
Y3309313D01*
X1416678Y3310245D01*
X1416745Y3311144D01*
X1416845Y3311977D01*
X1416978Y3312776D01*
X1417111Y3313509D01*
X1417244Y3314208D01*
X1417378Y3314874D01*
X1417511Y3315440D01*
X1417644Y3315973D01*
X1417777Y3316406D01*
X1417910Y3316805D01*
X1418010Y3317105D01*
X1418077Y3317338D01*
X1418110Y3317472D01*
X1418143Y3317505D01*
X1418443Y3318237D01*
X1418776Y3318937D01*
X1419109Y3319603D01*
X1419475Y3320202D01*
X1419842Y3320802D01*
X1420241Y3321334D01*
X1420608Y3321834D01*
X1420974Y3322300D01*
X1421307Y3322700D01*
X1421640Y3323033D01*
X1421906Y3323366D01*
X1422173Y3323599D01*
X1422372Y3323798D01*
X1422539Y3323932D01*
X1422639Y3324032D01*
X1422672Y3324065D01*
X1423571Y3324764D01*
X1424537Y3325330D01*
X1425469Y3325830D01*
X1426369Y3326196D01*
X1426768Y3326363D01*
X1427134Y3326496D01*
X1427467Y3326596D01*
X1427734Y3326696D01*
X1427967Y3326762D01*
X1428167Y3326796D01*
X1428267Y3326829D01*
X1428300D01*
X1428766Y3326929D01*
X1429266Y3327029D01*
X1430364Y3327162D01*
X1431497Y3327262D01*
X1432596Y3327328D01*
X1433128Y3327362D01*
X1433595D01*
X1434027Y3327395D01*
X1448347D01*
Y3289000D01*
D02*
G37*
G36*
X1381380Y3322367D02*
X1362566D01*
X1363232Y3321567D01*
X1363898Y3320768D01*
X1365130Y3319070D01*
X1365729Y3318204D01*
X1366295Y3317372D01*
X1366828Y3316572D01*
X1367294Y3315807D01*
X1367761Y3315074D01*
X1368160Y3314408D01*
X1368493Y3313809D01*
X1368793Y3313309D01*
X1369026Y3312876D01*
X1369226Y3312576D01*
X1369326Y3312377D01*
X1369359Y3312343D01*
Y3312310D01*
X1369925Y3311178D01*
X1370491Y3310079D01*
X1370991Y3308947D01*
X1371457Y3307848D01*
X1371923Y3306782D01*
X1372323Y3305783D01*
X1372689Y3304784D01*
X1372989Y3303885D01*
X1373288Y3303053D01*
X1373555Y3302287D01*
X1373755Y3301587D01*
X1373921Y3301021D01*
X1374088Y3300555D01*
X1374187Y3300222D01*
X1374221Y3300089D01*
Y3299989D01*
X1374254Y3299956D01*
Y3299922D01*
X1374554Y3298757D01*
X1374820Y3297625D01*
X1375053Y3296526D01*
X1375253Y3295527D01*
X1375419Y3294561D01*
X1375553Y3293662D01*
X1375686Y3292829D01*
X1375786Y3292064D01*
X1375852Y3291364D01*
X1375919Y3290765D01*
X1375952Y3290232D01*
X1375986Y3289799D01*
Y3289466D01*
X1376019Y3289200D01*
Y3289067D01*
Y3289000D01*
X1371157D01*
X1370957Y3291098D01*
X1370857Y3292097D01*
X1370724Y3293063D01*
X1370591Y3293995D01*
X1370425Y3294861D01*
X1370258Y3295660D01*
X1370125Y3296426D01*
X1369958Y3297092D01*
X1369825Y3297691D01*
X1369692Y3298224D01*
X1369592Y3298690D01*
X1369492Y3299057D01*
X1369426Y3299323D01*
X1369359Y3299456D01*
Y3299523D01*
X1368959Y3300788D01*
X1368560Y3302054D01*
X1368127Y3303286D01*
X1367661Y3304485D01*
X1367194Y3305650D01*
X1366728Y3306749D01*
X1366295Y3307781D01*
X1365829Y3308747D01*
X1365429Y3309646D01*
X1365030Y3310445D01*
X1364697Y3311144D01*
X1364397Y3311744D01*
X1364131Y3312210D01*
X1364031Y3312410D01*
X1363964Y3312543D01*
X1363898Y3312676D01*
X1363831Y3312776D01*
X1363798Y3312809D01*
Y3312843D01*
X1363132Y3314008D01*
X1362466Y3315140D01*
X1361800Y3316206D01*
X1361134Y3317172D01*
X1360501Y3318104D01*
X1359902Y3318970D01*
X1359336Y3319736D01*
X1358803Y3320435D01*
X1358303Y3321068D01*
X1357870Y3321634D01*
X1357471Y3322100D01*
X1357138Y3322500D01*
X1356871Y3322800D01*
X1356672Y3323033D01*
X1356538Y3323166D01*
X1356505Y3323199D01*
Y3326895D01*
X1381380D01*
Y3322367D01*
D02*
G37*
G36*
X1922718Y747062D02*
X1923018Y746596D01*
X1923650Y745663D01*
X1924350Y744798D01*
X1925049Y743998D01*
X1925382Y743665D01*
X1925682Y743332D01*
X1925948Y743066D01*
X1926181Y742833D01*
X1926414Y742633D01*
X1926547Y742500D01*
X1926647Y742400D01*
X1926681Y742367D01*
X1927813Y741434D01*
X1929012Y740568D01*
X1930177Y739803D01*
X1930710Y739436D01*
X1931243Y739136D01*
X1931742Y738837D01*
X1932175Y738604D01*
X1932575Y738371D01*
X1932908Y738204D01*
X1933174Y738071D01*
X1933407Y737971D01*
X1933541Y737904D01*
X1933574Y737871D01*
Y733309D01*
X1932741Y733642D01*
X1931876Y734042D01*
X1931043Y734441D01*
X1930277Y734841D01*
X1929944Y735007D01*
X1929611Y735207D01*
X1929345Y735340D01*
X1929112Y735473D01*
X1928912Y735573D01*
X1928779Y735673D01*
X1928679Y735707D01*
X1928645Y735740D01*
X1927646Y736339D01*
X1926781Y736939D01*
X1926015Y737505D01*
X1925349Y737971D01*
X1925082Y738204D01*
X1924849Y738404D01*
X1924649Y738570D01*
X1924450Y738737D01*
X1924316Y738837D01*
X1924216Y738937D01*
X1924183Y738970D01*
X1924150Y739003D01*
Y709000D01*
X1919421D01*
Y747528D01*
X1922485D01*
X1922718Y747062D01*
D02*
G37*
G36*
X1894846Y747495D02*
X1895911Y747328D01*
X1896910Y747129D01*
X1897843Y746829D01*
X1898709Y746496D01*
X1899475Y746130D01*
X1900207Y745730D01*
X1900873Y745330D01*
X1901473Y744931D01*
X1901972Y744531D01*
X1902405Y744165D01*
X1902771Y743832D01*
X1903071Y743532D01*
X1903271Y743332D01*
X1903404Y743199D01*
X1903437Y743133D01*
X1903804Y742633D01*
X1904170Y742134D01*
X1904803Y741001D01*
X1905335Y739769D01*
X1905802Y738471D01*
X1906201Y737139D01*
X1906534Y735773D01*
X1906801Y734441D01*
X1907034Y733143D01*
X1907200Y731910D01*
X1907300Y730745D01*
X1907367Y730179D01*
X1907400Y729679D01*
X1907433Y729213D01*
X1907467Y728780D01*
X1907500Y728381D01*
Y728014D01*
Y727715D01*
X1907533Y727448D01*
Y727215D01*
Y727082D01*
Y726982D01*
Y726949D01*
X1907500Y725150D01*
X1907367Y723486D01*
X1907200Y721954D01*
X1906967Y720522D01*
X1906667Y719256D01*
X1906368Y718091D01*
X1906035Y717025D01*
X1905668Y716093D01*
X1905335Y715294D01*
X1905002Y714594D01*
X1904703Y713995D01*
X1904403Y713529D01*
X1904170Y713163D01*
X1904003Y712896D01*
X1903870Y712763D01*
X1903837Y712696D01*
X1903104Y711930D01*
X1902338Y711264D01*
X1901572Y710698D01*
X1900773Y710199D01*
X1899941Y709766D01*
X1899142Y709433D01*
X1898376Y709133D01*
X1897610Y708900D01*
X1896910Y708734D01*
X1896278Y708600D01*
X1895678Y708500D01*
X1895179Y708434D01*
X1894779Y708401D01*
X1894480Y708367D01*
X1894213D01*
X1893581Y708401D01*
X1892948Y708434D01*
X1891782Y708634D01*
X1891249Y708734D01*
X1890717Y708900D01*
X1890251Y709033D01*
X1889818Y709200D01*
X1889418Y709333D01*
X1889052Y709500D01*
X1888752Y709633D01*
X1888486Y709733D01*
X1888286Y709866D01*
X1888153Y709932D01*
X1888053Y709966D01*
X1888019Y709999D01*
X1887520Y710332D01*
X1887054Y710698D01*
X1886188Y711431D01*
X1885455Y712230D01*
X1884856Y712996D01*
X1884356Y713695D01*
X1884157Y713995D01*
X1884023Y714261D01*
X1883890Y714461D01*
X1883790Y714628D01*
X1883757Y714728D01*
X1883724Y714761D01*
X1883457Y715360D01*
X1883191Y715926D01*
X1882825Y717125D01*
X1882525Y718224D01*
X1882425Y718757D01*
X1882358Y719256D01*
X1882292Y719723D01*
X1882225Y720155D01*
X1882192Y720522D01*
Y720855D01*
X1882159Y721088D01*
Y721288D01*
Y721421D01*
Y721454D01*
X1882192Y722453D01*
X1882292Y723419D01*
X1882458Y724318D01*
X1882691Y725184D01*
X1882925Y725983D01*
X1883224Y726716D01*
X1883524Y727382D01*
X1883824Y727981D01*
X1884123Y728547D01*
X1884423Y729013D01*
X1884723Y729446D01*
X1884956Y729779D01*
X1885189Y730046D01*
X1885355Y730245D01*
X1885455Y730379D01*
X1885489Y730412D01*
X1886121Y731045D01*
X1886787Y731577D01*
X1887453Y732044D01*
X1888153Y732443D01*
X1888819Y732776D01*
X1889485Y733043D01*
X1890151Y733276D01*
X1890750Y733476D01*
X1891316Y733609D01*
X1891849Y733709D01*
X1892315Y733808D01*
X1892715Y733842D01*
X1893048Y733875D01*
X1893314Y733908D01*
X1893514D01*
X1894513Y733842D01*
X1895445Y733709D01*
X1896344Y733509D01*
X1897110Y733276D01*
X1897443Y733143D01*
X1897743Y733043D01*
X1898009Y732943D01*
X1898243Y732843D01*
X1898442Y732776D01*
X1898575Y732710D01*
X1898642Y732643D01*
X1898675D01*
X1899574Y732110D01*
X1900374Y731511D01*
X1901073Y730878D01*
X1901672Y730245D01*
X1902172Y729679D01*
X1902372Y729413D01*
X1902538Y729213D01*
X1902671Y729013D01*
X1902771Y728880D01*
X1902805Y728813D01*
X1902838Y728780D01*
X1902805Y729846D01*
X1902771Y730812D01*
X1902705Y731744D01*
X1902605Y732610D01*
X1902505Y733376D01*
X1902405Y734108D01*
X1902305Y734774D01*
X1902172Y735374D01*
X1902072Y735906D01*
X1901939Y736339D01*
X1901839Y736739D01*
X1901739Y737072D01*
X1901639Y737305D01*
X1901606Y737505D01*
X1901539Y737605D01*
Y737638D01*
X1901273Y738204D01*
X1901006Y738737D01*
X1900740Y739236D01*
X1900440Y739703D01*
X1900141Y740135D01*
X1899841Y740535D01*
X1899574Y740868D01*
X1899275Y741201D01*
X1899008Y741467D01*
X1898775Y741734D01*
X1898575Y741934D01*
X1898376Y742100D01*
X1898209Y742233D01*
X1898109Y742333D01*
X1898043Y742367D01*
X1898009Y742400D01*
X1897343Y742833D01*
X1896677Y743133D01*
X1896011Y743366D01*
X1895379Y743499D01*
X1894846Y743599D01*
X1894613Y743632D01*
X1894413D01*
X1894280Y743665D01*
X1894047D01*
X1893547Y743632D01*
X1893048Y743565D01*
X1892582Y743466D01*
X1892115Y743366D01*
X1891316Y743033D01*
X1890617Y742666D01*
X1890350Y742466D01*
X1890084Y742267D01*
X1889851Y742100D01*
X1889651Y741967D01*
X1889518Y741834D01*
X1889418Y741734D01*
X1889351Y741667D01*
X1889318Y741634D01*
X1889118Y741368D01*
X1888918Y741101D01*
X1888552Y740468D01*
X1888253Y739803D01*
X1887986Y739136D01*
X1887786Y738537D01*
X1887686Y738271D01*
X1887620Y738071D01*
X1887586Y737871D01*
X1887553Y737738D01*
X1887520Y737638D01*
Y737605D01*
X1882825Y737971D01*
X1882958Y738770D01*
X1883158Y739569D01*
X1883357Y740269D01*
X1883624Y740935D01*
X1883890Y741567D01*
X1884190Y742134D01*
X1884490Y742666D01*
X1884789Y743133D01*
X1885089Y743565D01*
X1885355Y743932D01*
X1885622Y744231D01*
X1885855Y744498D01*
X1886055Y744698D01*
X1886188Y744864D01*
X1886288Y744931D01*
X1886321Y744964D01*
X1886887Y745430D01*
X1887487Y745797D01*
X1888086Y746163D01*
X1888719Y746462D01*
X1889318Y746696D01*
X1889951Y746895D01*
X1890550Y747062D01*
X1891116Y747195D01*
X1891649Y747328D01*
X1892149Y747395D01*
X1892615Y747462D01*
X1892981Y747495D01*
X1893314Y747528D01*
X1893747D01*
X1894846Y747495D01*
D02*
G37*
G36*
X1974000Y709000D02*
X1960180D01*
X1958915Y709033D01*
X1957750Y709100D01*
X1957217Y709133D01*
X1956684Y709200D01*
X1956218Y709266D01*
X1955785Y709333D01*
X1955385Y709366D01*
X1955052Y709433D01*
X1954753Y709500D01*
X1954486Y709533D01*
X1954286Y709566D01*
X1954153Y709599D01*
X1954053Y709633D01*
X1954020D01*
X1953054Y709899D01*
X1952155Y710232D01*
X1951389Y710532D01*
X1950723Y710865D01*
X1950424Y710998D01*
X1950157Y711131D01*
X1949957Y711264D01*
X1949758Y711364D01*
X1949624Y711431D01*
X1949524Y711497D01*
X1949458Y711564D01*
X1949425D01*
X1948725Y712064D01*
X1948093Y712630D01*
X1947493Y713229D01*
X1946960Y713762D01*
X1946527Y714261D01*
X1946195Y714661D01*
X1946095Y714827D01*
X1945995Y714927D01*
X1945961Y714994D01*
X1945928Y715027D01*
X1945362Y715893D01*
X1944829Y716859D01*
X1944396Y717791D01*
X1943997Y718657D01*
X1943863Y719057D01*
X1943697Y719456D01*
X1943597Y719789D01*
X1943497Y720056D01*
X1943397Y720289D01*
X1943331Y720489D01*
X1943297Y720588D01*
Y720622D01*
X1942964Y721920D01*
X1942698Y723252D01*
X1942532Y724584D01*
X1942432Y725184D01*
X1942398Y725783D01*
X1942365Y726316D01*
X1942332Y726816D01*
X1942298Y727282D01*
X1942265Y727648D01*
Y727948D01*
Y728181D01*
Y728347D01*
Y728381D01*
Y729313D01*
X1942332Y730245D01*
X1942398Y731144D01*
X1942498Y731977D01*
X1942631Y732776D01*
X1942765Y733509D01*
X1942898Y734208D01*
X1943031Y734874D01*
X1943164Y735440D01*
X1943297Y735973D01*
X1943431Y736406D01*
X1943564Y736806D01*
X1943664Y737105D01*
X1943730Y737338D01*
X1943764Y737471D01*
X1943797Y737505D01*
X1944097Y738237D01*
X1944430Y738937D01*
X1944763Y739603D01*
X1945129Y740202D01*
X1945495Y740802D01*
X1945895Y741334D01*
X1946261Y741834D01*
X1946627Y742300D01*
X1946960Y742700D01*
X1947293Y743033D01*
X1947560Y743366D01*
X1947826Y743599D01*
X1948026Y743798D01*
X1948193Y743932D01*
X1948292Y744032D01*
X1948326Y744065D01*
X1949225Y744764D01*
X1950190Y745330D01*
X1951123Y745830D01*
X1952022Y746196D01*
X1952422Y746363D01*
X1952788Y746496D01*
X1953121Y746596D01*
X1953387Y746696D01*
X1953620Y746762D01*
X1953820Y746795D01*
X1953920Y746829D01*
X1953953D01*
X1954420Y746929D01*
X1954919Y747029D01*
X1956018Y747162D01*
X1957150Y747262D01*
X1958249Y747328D01*
X1958782Y747362D01*
X1959248D01*
X1959681Y747395D01*
X1974000D01*
Y709000D01*
D02*
G37*
G36*
X2631093Y3983180D02*
X2626664Y3982614D01*
X2626231Y3983213D01*
X2625765Y3983713D01*
X2625298Y3984179D01*
X2624832Y3984546D01*
X2624433Y3984878D01*
X2624100Y3985078D01*
X2623966Y3985178D01*
X2623867Y3985245D01*
X2623833Y3985278D01*
X2623800D01*
X2623101Y3985611D01*
X2622401Y3985878D01*
X2621702Y3986044D01*
X2621069Y3986177D01*
X2620503Y3986244D01*
X2620270Y3986277D01*
X2620070Y3986310D01*
X2619704D01*
X2619038Y3986277D01*
X2618372Y3986211D01*
X2617773Y3986077D01*
X2617207Y3985944D01*
X2616674Y3985778D01*
X2616208Y3985578D01*
X2615741Y3985345D01*
X2615342Y3985145D01*
X2614976Y3984912D01*
X2614642Y3984679D01*
X2614376Y3984479D01*
X2614143Y3984312D01*
X2613977Y3984179D01*
X2613843Y3984046D01*
X2613777Y3983979D01*
X2613743Y3983946D01*
X2613344Y3983480D01*
X2613011Y3983014D01*
X2612678Y3982481D01*
X2612445Y3981981D01*
X2612212Y3981449D01*
X2612045Y3980916D01*
X2611745Y3979883D01*
X2611679Y3979417D01*
X2611612Y3978984D01*
X2611546Y3978585D01*
X2611512Y3978252D01*
X2611479Y3977985D01*
Y3977752D01*
Y3977619D01*
Y3977586D01*
X2611512Y3976820D01*
X2611579Y3976087D01*
X2611712Y3975388D01*
X2611845Y3974755D01*
X2612012Y3974123D01*
X2612212Y3973590D01*
X2612445Y3973057D01*
X2612644Y3972591D01*
X2612878Y3972191D01*
X2613111Y3971825D01*
X2613311Y3971525D01*
X2613477Y3971259D01*
X2613610Y3971059D01*
X2613743Y3970926D01*
X2613810Y3970826D01*
X2613843Y3970793D01*
X2614276Y3970326D01*
X2614742Y3969960D01*
X2615242Y3969594D01*
X2615741Y3969327D01*
X2616208Y3969061D01*
X2616674Y3968861D01*
X2617140Y3968695D01*
X2617606Y3968561D01*
X2618006Y3968428D01*
X2618405Y3968362D01*
X2618738Y3968295D01*
X2619038Y3968262D01*
X2619271D01*
X2619438Y3968229D01*
X2619604D01*
X2620137Y3968262D01*
X2620637Y3968295D01*
X2621536Y3968495D01*
X2622368Y3968795D01*
X2623067Y3969128D01*
X2623367Y3969294D01*
X2623667Y3969461D01*
X2623867Y3969627D01*
X2624066Y3969760D01*
X2624233Y3969860D01*
X2624333Y3969960D01*
X2624399Y3969993D01*
X2624433Y3970027D01*
X2624799Y3970393D01*
X2625099Y3970793D01*
X2625665Y3971658D01*
X2626098Y3972557D01*
X2626431Y3973457D01*
X2626564Y3973890D01*
X2626697Y3974256D01*
X2626764Y3974622D01*
X2626864Y3974922D01*
X2626897Y3975188D01*
X2626930Y3975355D01*
X2626963Y3975488D01*
Y3975521D01*
X2631925Y3975088D01*
X2631792Y3974189D01*
X2631626Y3973357D01*
X2631392Y3972557D01*
X2631126Y3971825D01*
X2630860Y3971126D01*
X2630527Y3970493D01*
X2630194Y3969894D01*
X2629861Y3969361D01*
X2629528Y3968894D01*
X2629228Y3968495D01*
X2628928Y3968129D01*
X2628695Y3967829D01*
X2628462Y3967596D01*
X2628296Y3967429D01*
X2628196Y3967329D01*
X2628162Y3967296D01*
X2627530Y3966797D01*
X2626830Y3966330D01*
X2626131Y3965931D01*
X2625432Y3965598D01*
X2624699Y3965331D01*
X2624000Y3965098D01*
X2623300Y3964898D01*
X2622635Y3964732D01*
X2622002Y3964599D01*
X2621436Y3964532D01*
X2620903Y3964466D01*
X2620470Y3964399D01*
X2620104D01*
X2619837Y3964366D01*
X2619604D01*
X2618439Y3964432D01*
X2617340Y3964566D01*
X2616307Y3964799D01*
X2615342Y3965098D01*
X2614443Y3965431D01*
X2613610Y3965831D01*
X2612844Y3966264D01*
X2612178Y3966697D01*
X2611579Y3967096D01*
X2611046Y3967529D01*
X2610580Y3967929D01*
X2610214Y3968262D01*
X2609914Y3968561D01*
X2609714Y3968795D01*
X2609581Y3968928D01*
X2609548Y3968994D01*
X2609015Y3969727D01*
X2608549Y3970493D01*
X2608116Y3971259D01*
X2607783Y3972025D01*
X2607483Y3972791D01*
X2607217Y3973523D01*
X2607017Y3974256D01*
X2606850Y3974955D01*
X2606750Y3975588D01*
X2606651Y3976187D01*
X2606584Y3976687D01*
X2606517Y3977153D01*
Y3977519D01*
X2606484Y3977786D01*
Y3977952D01*
Y3978019D01*
X2606517Y3979018D01*
X2606617Y3979983D01*
X2606817Y3980883D01*
X2607017Y3981715D01*
X2607283Y3982514D01*
X2607583Y3983247D01*
X2607883Y3983946D01*
X2608216Y3984546D01*
X2608549Y3985112D01*
X2608848Y3985578D01*
X2609148Y3986011D01*
X2609414Y3986344D01*
X2609614Y3986610D01*
X2609781Y3986810D01*
X2609914Y3986943D01*
X2609947Y3986976D01*
X2610613Y3987609D01*
X2611312Y3988142D01*
X2612012Y3988608D01*
X2612744Y3989008D01*
X2613444Y3989341D01*
X2614143Y3989607D01*
X2614842Y3989840D01*
X2615475Y3990040D01*
X2616108Y3990173D01*
X2616674Y3990273D01*
X2617173Y3990373D01*
X2617606Y3990406D01*
X2617939Y3990440D01*
X2618206Y3990473D01*
X2618439D01*
X2619138Y3990440D01*
X2619837Y3990373D01*
X2620503Y3990240D01*
X2621169Y3990107D01*
X2621802Y3989907D01*
X2622401Y3989707D01*
X2622968Y3989474D01*
X2623500Y3989274D01*
X2623966Y3989041D01*
X2624399Y3988808D01*
X2624766Y3988608D01*
X2625099Y3988408D01*
X2625365Y3988275D01*
X2625532Y3988142D01*
X2625665Y3988075D01*
X2625698Y3988042D01*
X2623633Y3998398D01*
X2608282D01*
Y4002894D01*
X2627363D01*
X2631093Y3983180D01*
D02*
G37*
G36*
X2665658Y3998865D02*
X2653004D01*
Y3964998D01*
X2647909D01*
Y3998865D01*
X2635189D01*
Y4003393D01*
X2665658D01*
Y3998865D01*
D02*
G37*
G36*
X3350000Y3999039D02*
X3337346D01*
Y3965173D01*
X3332251D01*
Y3999039D01*
X3319530D01*
Y4003568D01*
X3350000D01*
Y3999039D01*
D02*
G37*
G36*
X3317832Y3978693D02*
Y3974364D01*
X3301182D01*
Y3965173D01*
X3296454D01*
Y3974364D01*
X3291259D01*
Y3978693D01*
X3296454D01*
Y4003568D01*
X3300316D01*
X3317832Y3978693D01*
D02*
G37*
G36*
X3958078Y4004495D02*
X3958878Y4004428D01*
X3959643Y4004295D01*
X3960376Y4004128D01*
X3961042Y4003929D01*
X3961675Y4003696D01*
X3962241Y4003463D01*
X3962774Y4003229D01*
X3963240Y4002963D01*
X3963673Y4002730D01*
X3964006Y4002497D01*
X3964305Y4002297D01*
X3964572Y4002131D01*
X3964738Y4001997D01*
X3964838Y4001931D01*
X3964872Y4001897D01*
X3965404Y4001398D01*
X3965904Y4000832D01*
X3966370Y4000266D01*
X3966770Y3999666D01*
X3967136Y3999034D01*
X3967436Y3998434D01*
X3967735Y3997835D01*
X3967968Y3997269D01*
X3968168Y3996703D01*
X3968335Y3996203D01*
X3968468Y3995737D01*
X3968601Y3995337D01*
X3968668Y3995038D01*
X3968734Y3994771D01*
X3968768Y3994638D01*
Y3994571D01*
X3964039Y3993739D01*
X3963939Y3994372D01*
X3963806Y3994971D01*
X3963639Y3995504D01*
X3963473Y3996003D01*
X3963273Y3996470D01*
X3963073Y3996902D01*
X3962874Y3997302D01*
X3962674Y3997635D01*
X3962507Y3997935D01*
X3962307Y3998201D01*
X3962141Y3998434D01*
X3962008Y3998601D01*
X3961874Y3998767D01*
X3961775Y3998867D01*
X3961741Y3998900D01*
X3961708Y3998934D01*
X3961342Y3999233D01*
X3960975Y3999500D01*
X3960609Y3999733D01*
X3960209Y3999933D01*
X3959444Y4000232D01*
X3958744Y4000465D01*
X3958112Y4000565D01*
X3957845Y4000599D01*
X3957612Y4000632D01*
X3957412Y4000665D01*
X3957146D01*
X3956646Y4000632D01*
X3956147Y4000599D01*
X3955281Y4000399D01*
X3954482Y4000133D01*
X3953849Y3999800D01*
X3953550Y3999633D01*
X3953316Y3999466D01*
X3953117Y3999333D01*
X3952950Y3999200D01*
X3952784Y3999100D01*
X3952684Y3999000D01*
X3952650Y3998967D01*
X3952617Y3998934D01*
X3952317Y3998601D01*
X3952018Y3998268D01*
X3951785Y3997901D01*
X3951585Y3997568D01*
X3951285Y3996836D01*
X3951085Y3996170D01*
X3950952Y3995570D01*
X3950919Y3995304D01*
X3950885Y3995104D01*
X3950852Y3994904D01*
Y3994771D01*
Y3994705D01*
Y3994671D01*
X3950885Y3994072D01*
X3950952Y3993506D01*
X3951085Y3993006D01*
X3951218Y3992507D01*
X3951418Y3992074D01*
X3951618Y3991674D01*
X3951818Y3991341D01*
X3952051Y3991008D01*
X3952284Y3990709D01*
X3952484Y3990476D01*
X3952684Y3990276D01*
X3952883Y3990109D01*
X3953017Y3989976D01*
X3953150Y3989876D01*
X3953216Y3989843D01*
X3953250Y3989809D01*
X3953716Y3989543D01*
X3954182Y3989310D01*
X3955115Y3988910D01*
X3956014Y3988644D01*
X3956846Y3988444D01*
X3957213Y3988378D01*
X3957579Y3988344D01*
X3957878Y3988278D01*
X3958145D01*
X3958345Y3988244D01*
X3958878D01*
X3959144Y3988278D01*
X3959344Y3988311D01*
X3959410D01*
X3959943Y3984182D01*
X3959211Y3984348D01*
X3958578Y3984481D01*
X3958012Y3984548D01*
X3957512Y3984615D01*
X3957146Y3984648D01*
X3956846Y3984681D01*
X3956613D01*
X3956014Y3984648D01*
X3955448Y3984581D01*
X3954915Y3984481D01*
X3954382Y3984348D01*
X3953916Y3984182D01*
X3953483Y3984015D01*
X3953050Y3983816D01*
X3952684Y3983649D01*
X3952351Y3983449D01*
X3952051Y3983249D01*
X3951818Y3983083D01*
X3951585Y3982916D01*
X3951452Y3982783D01*
X3951318Y3982683D01*
X3951252Y3982617D01*
X3951218Y3982583D01*
X3950852Y3982184D01*
X3950519Y3981751D01*
X3950220Y3981318D01*
X3949986Y3980852D01*
X3949787Y3980419D01*
X3949620Y3979953D01*
X3949354Y3979120D01*
X3949254Y3978721D01*
X3949187Y3978354D01*
X3949154Y3978055D01*
X3949121Y3977755D01*
X3949087Y3977522D01*
Y3977355D01*
Y3977255D01*
Y3977222D01*
X3949121Y3976589D01*
X3949187Y3975990D01*
X3949287Y3975424D01*
X3949454Y3974891D01*
X3949620Y3974392D01*
X3949820Y3973925D01*
X3950020Y3973492D01*
X3950220Y3973093D01*
X3950453Y3972760D01*
X3950652Y3972427D01*
X3950852Y3972160D01*
X3951019Y3971927D01*
X3951185Y3971761D01*
X3951285Y3971628D01*
X3951352Y3971561D01*
X3951385Y3971528D01*
X3951818Y3971128D01*
X3952284Y3970762D01*
X3952750Y3970462D01*
X3953216Y3970196D01*
X3953716Y3969963D01*
X3954182Y3969796D01*
X3954615Y3969630D01*
X3955048Y3969530D01*
X3955481Y3969430D01*
X3955847Y3969363D01*
X3956180Y3969297D01*
X3956447Y3969263D01*
X3956680Y3969230D01*
X3957013D01*
X3957512Y3969263D01*
X3958012Y3969297D01*
X3958944Y3969497D01*
X3959743Y3969796D01*
X3960443Y3970129D01*
X3960742Y3970262D01*
X3961009Y3970429D01*
X3961242Y3970595D01*
X3961408Y3970729D01*
X3961575Y3970829D01*
X3961675Y3970928D01*
X3961741Y3970962D01*
X3961775Y3970995D01*
X3962108Y3971361D01*
X3962441Y3971761D01*
X3962740Y3972194D01*
X3963007Y3972660D01*
X3963473Y3973592D01*
X3963872Y3974558D01*
X3964006Y3974991D01*
X3964139Y3975424D01*
X3964272Y3975790D01*
X3964339Y3976123D01*
X3964405Y3976423D01*
X3964472Y3976623D01*
X3964505Y3976756D01*
Y3976789D01*
X3969234Y3976157D01*
X3969101Y3975291D01*
X3968934Y3974458D01*
X3968701Y3973659D01*
X3968435Y3972926D01*
X3968135Y3972227D01*
X3967835Y3971561D01*
X3967502Y3970995D01*
X3967169Y3970462D01*
X3966836Y3969963D01*
X3966503Y3969530D01*
X3966237Y3969197D01*
X3965970Y3968897D01*
X3965737Y3968631D01*
X3965571Y3968464D01*
X3965471Y3968364D01*
X3965438Y3968331D01*
X3964805Y3967798D01*
X3964106Y3967332D01*
X3963440Y3966932D01*
X3962707Y3966599D01*
X3962008Y3966300D01*
X3961308Y3966067D01*
X3960642Y3965867D01*
X3959976Y3965700D01*
X3959377Y3965600D01*
X3958811Y3965501D01*
X3958311Y3965434D01*
X3957878Y3965367D01*
X3957546D01*
X3957279Y3965334D01*
X3957046D01*
X3956014Y3965367D01*
X3955048Y3965501D01*
X3954116Y3965667D01*
X3953250Y3965867D01*
X3952417Y3966133D01*
X3951651Y3966433D01*
X3950952Y3966733D01*
X3950319Y3967066D01*
X3949753Y3967399D01*
X3949254Y3967698D01*
X3948821Y3967998D01*
X3948455Y3968264D01*
X3948155Y3968464D01*
X3947955Y3968664D01*
X3947822Y3968764D01*
X3947789Y3968797D01*
X3947123Y3969463D01*
X3946557Y3970162D01*
X3946090Y3970895D01*
X3945657Y3971594D01*
X3945291Y3972327D01*
X3944991Y3973026D01*
X3944758Y3973726D01*
X3944559Y3974358D01*
X3944392Y3974991D01*
X3944292Y3975557D01*
X3944192Y3976057D01*
X3944159Y3976490D01*
X3944126Y3976823D01*
X3944092Y3977089D01*
Y3977255D01*
Y3977322D01*
X3944126Y3978021D01*
X3944159Y3978654D01*
X3944259Y3979287D01*
X3944392Y3979853D01*
X3944525Y3980419D01*
X3944692Y3980918D01*
X3944858Y3981385D01*
X3945025Y3981818D01*
X3945224Y3982217D01*
X3945391Y3982550D01*
X3945557Y3982816D01*
X3945691Y3983083D01*
X3945824Y3983249D01*
X3945924Y3983416D01*
X3945957Y3983483D01*
X3945990Y3983516D01*
X3946357Y3983949D01*
X3946756Y3984348D01*
X3947189Y3984748D01*
X3947622Y3985081D01*
X3948055Y3985381D01*
X3948488Y3985647D01*
X3949354Y3986080D01*
X3949753Y3986246D01*
X3950120Y3986413D01*
X3950453Y3986513D01*
X3950719Y3986613D01*
X3950952Y3986679D01*
X3951119Y3986746D01*
X3951252Y3986779D01*
X3951285D01*
X3950386Y3987279D01*
X3949587Y3987778D01*
X3948887Y3988344D01*
X3948355Y3988844D01*
X3947922Y3989310D01*
X3947589Y3989676D01*
X3947489Y3989809D01*
X3947422Y3989909D01*
X3947356Y3989976D01*
Y3990009D01*
X3946890Y3990809D01*
X3946557Y3991574D01*
X3946323Y3992340D01*
X3946157Y3993040D01*
X3946057Y3993639D01*
X3946024Y3993905D01*
Y3994139D01*
X3945990Y3994305D01*
Y3994438D01*
Y3994505D01*
Y3994538D01*
Y3995038D01*
X3946057Y3995504D01*
X3946224Y3996436D01*
X3946457Y3997269D01*
X3946690Y3998001D01*
X3946823Y3998334D01*
X3946956Y3998634D01*
X3947089Y3998867D01*
X3947189Y3999100D01*
X3947289Y3999267D01*
X3947356Y3999400D01*
X3947389Y3999466D01*
X3947422Y3999500D01*
X3947988Y4000332D01*
X3948654Y4001065D01*
X3949320Y4001698D01*
X3949953Y4002197D01*
X3950552Y4002630D01*
X3950786Y4002796D01*
X3951019Y4002930D01*
X3951185Y4003030D01*
X3951318Y4003096D01*
X3951418Y4003163D01*
X3951452D01*
X3952451Y4003629D01*
X3953450Y4003962D01*
X3954449Y4004195D01*
X3955348Y4004362D01*
X3955747Y4004428D01*
X3956114Y4004461D01*
X3956447Y4004495D01*
X3956713D01*
X3956946Y4004528D01*
X3957246D01*
X3958078Y4004495D01*
D02*
G37*
G36*
X4003000Y3999866D02*
X3990346D01*
Y3966000D01*
X3985251D01*
Y3999866D01*
X3972530D01*
Y4004395D01*
X4003000D01*
Y3999866D01*
D02*
G37*
G36*
X4291546Y4004495D02*
X4292478Y4004395D01*
X4293377Y4004262D01*
X4294209Y4004095D01*
X4294975Y4003862D01*
X4295708Y4003629D01*
X4296374Y4003363D01*
X4296940Y4003096D01*
X4297473Y4002830D01*
X4297939Y4002563D01*
X4298339Y4002330D01*
X4298672Y4002097D01*
X4298938Y4001931D01*
X4299105Y4001798D01*
X4299238Y4001698D01*
X4299271Y4001664D01*
X4299837Y4001098D01*
X4300370Y4000499D01*
X4300803Y3999866D01*
X4301203Y3999167D01*
X4301569Y3998501D01*
X4301868Y3997802D01*
X4302102Y3997135D01*
X4302335Y3996470D01*
X4302501Y3995837D01*
X4302634Y3995271D01*
X4302768Y3994738D01*
X4302834Y3994305D01*
X4302901Y3993939D01*
X4302934Y3993639D01*
X4302967Y3993472D01*
Y3993406D01*
X4298106Y3992906D01*
X4298072Y3993572D01*
X4298006Y3994172D01*
X4297906Y3994771D01*
X4297773Y3995304D01*
X4297639Y3995803D01*
X4297473Y3996270D01*
X4297273Y3996703D01*
X4297073Y3997102D01*
X4296907Y3997435D01*
X4296707Y3997735D01*
X4296541Y3997968D01*
X4296374Y3998201D01*
X4296274Y3998368D01*
X4296174Y3998468D01*
X4296108Y3998534D01*
X4296074Y3998567D01*
X4295675Y3998934D01*
X4295242Y3999233D01*
X4294809Y3999533D01*
X4294376Y3999766D01*
X4293910Y3999966D01*
X4293477Y4000133D01*
X4292611Y4000366D01*
X4292212Y4000465D01*
X4291812Y4000532D01*
X4291479Y4000565D01*
X4291212Y4000599D01*
X4290979Y4000632D01*
X4290646D01*
X4290047Y4000599D01*
X4289481Y4000565D01*
X4288948Y4000465D01*
X4288482Y4000332D01*
X4288016Y4000199D01*
X4287583Y4000033D01*
X4287183Y3999833D01*
X4286817Y3999666D01*
X4286484Y3999500D01*
X4286217Y3999300D01*
X4285984Y3999133D01*
X4285785Y3999000D01*
X4285618Y3998867D01*
X4285518Y3998800D01*
X4285452Y3998734D01*
X4285418Y3998701D01*
X4285052Y3998334D01*
X4284752Y3997935D01*
X4284486Y3997535D01*
X4284253Y3997135D01*
X4284053Y3996736D01*
X4283920Y3996370D01*
X4283653Y3995604D01*
X4283587Y3995271D01*
X4283520Y3994971D01*
X4283487Y3994671D01*
X4283454Y3994438D01*
X4283420Y3994238D01*
Y3994105D01*
Y3994005D01*
Y3993972D01*
X4283454Y3993472D01*
X4283520Y3992973D01*
X4283620Y3992474D01*
X4283753Y3991974D01*
X4284120Y3991008D01*
X4284519Y3990142D01*
X4284719Y3989743D01*
X4284919Y3989410D01*
X4285119Y3989077D01*
X4285285Y3988811D01*
X4285418Y3988611D01*
X4285518Y3988444D01*
X4285585Y3988344D01*
X4285618Y3988311D01*
X4286084Y3987712D01*
X4286617Y3987112D01*
X4287217Y3986446D01*
X4287849Y3985780D01*
X4288548Y3985081D01*
X4289248Y3984415D01*
X4289980Y3983749D01*
X4290680Y3983116D01*
X4291346Y3982517D01*
X4291978Y3981951D01*
X4292544Y3981451D01*
X4293077Y3981018D01*
X4293477Y3980652D01*
X4293810Y3980386D01*
X4294010Y3980219D01*
X4294043Y3980153D01*
X4294076D01*
X4294809Y3979553D01*
X4295508Y3978954D01*
X4296141Y3978388D01*
X4296740Y3977855D01*
X4297273Y3977355D01*
X4297806Y3976856D01*
X4298239Y3976423D01*
X4298672Y3976023D01*
X4299038Y3975657D01*
X4299338Y3975324D01*
X4299604Y3975024D01*
X4299837Y3974791D01*
X4300004Y3974625D01*
X4300137Y3974458D01*
X4300203Y3974392D01*
X4300237Y3974358D01*
X4300969Y3973426D01*
X4301602Y3972494D01*
X4302168Y3971661D01*
X4302568Y3970862D01*
X4302768Y3970529D01*
X4302901Y3970229D01*
X4303034Y3969929D01*
X4303134Y3969696D01*
X4303234Y3969530D01*
X4303300Y3969397D01*
X4303334Y3969297D01*
Y3969263D01*
X4303533Y3968664D01*
X4303667Y3968098D01*
X4303767Y3967532D01*
X4303833Y3967032D01*
X4303867Y3966633D01*
Y3966300D01*
Y3966166D01*
Y3966067D01*
Y3966033D01*
Y3966000D01*
X4278492D01*
Y3970529D01*
X4297306D01*
X4297007Y3970995D01*
X4296674Y3971461D01*
X4296341Y3971894D01*
X4296041Y3972260D01*
X4295775Y3972593D01*
X4295542Y3972860D01*
X4295408Y3972993D01*
X4295342Y3973060D01*
X4295075Y3973326D01*
X4294776Y3973626D01*
X4294376Y3973992D01*
X4293976Y3974358D01*
X4293077Y3975157D01*
X4292145Y3975957D01*
X4291712Y3976323D01*
X4291279Y3976689D01*
X4290913Y3977022D01*
X4290580Y3977322D01*
X4290280Y3977555D01*
X4290080Y3977722D01*
X4289914Y3977855D01*
X4289881Y3977888D01*
X4288948Y3978687D01*
X4288116Y3979420D01*
X4287316Y3980119D01*
X4286617Y3980752D01*
X4285951Y3981351D01*
X4285385Y3981917D01*
X4284852Y3982417D01*
X4284353Y3982883D01*
X4283953Y3983283D01*
X4283620Y3983649D01*
X4283320Y3983949D01*
X4283054Y3984182D01*
X4282887Y3984382D01*
X4282754Y3984548D01*
X4282688Y3984615D01*
X4282654Y3984648D01*
X4281889Y3985547D01*
X4281222Y3986413D01*
X4280690Y3987212D01*
X4280257Y3987911D01*
X4280090Y3988211D01*
X4279924Y3988477D01*
X4279791Y3988711D01*
X4279691Y3988944D01*
X4279624Y3989077D01*
X4279557Y3989210D01*
X4279524Y3989277D01*
Y3989310D01*
X4279191Y3990142D01*
X4278958Y3990975D01*
X4278792Y3991741D01*
X4278692Y3992440D01*
X4278592Y3993006D01*
Y3993273D01*
X4278559Y3993472D01*
Y3993639D01*
Y3993772D01*
Y3993839D01*
Y3993872D01*
X4278592Y3994705D01*
X4278692Y3995504D01*
X4278858Y3996270D01*
X4279058Y3996969D01*
X4279291Y3997635D01*
X4279591Y3998268D01*
X4279857Y3998834D01*
X4280157Y3999367D01*
X4280490Y3999833D01*
X4280756Y4000266D01*
X4281023Y4000632D01*
X4281289Y4000932D01*
X4281489Y4001165D01*
X4281655Y4001331D01*
X4281755Y4001431D01*
X4281789Y4001465D01*
X4282421Y4001997D01*
X4283087Y4002463D01*
X4283787Y4002896D01*
X4284519Y4003229D01*
X4285252Y4003529D01*
X4285984Y4003796D01*
X4286684Y4003995D01*
X4287383Y4004162D01*
X4288016Y4004262D01*
X4288615Y4004362D01*
X4289181Y4004428D01*
X4289647Y4004495D01*
X4290014D01*
X4290313Y4004528D01*
X4290547D01*
X4291546Y4004495D01*
D02*
G37*
G36*
X4337000Y3999866D02*
X4324346D01*
Y3966000D01*
X4319251D01*
Y3999866D01*
X4306530D01*
Y4004395D01*
X4337000D01*
Y3999866D01*
D02*
G37*
G36*
X1952178Y4004495D02*
X1953077Y4004362D01*
X1953943Y4004195D01*
X1954742Y4003962D01*
X1955508Y4003696D01*
X1956207Y4003396D01*
X1956873Y4003096D01*
X1957473Y4002763D01*
X1958006Y4002430D01*
X1958472Y4002097D01*
X1958871Y4001798D01*
X1959205Y4001531D01*
X1959471Y4001298D01*
X1959671Y4001131D01*
X1959804Y4000998D01*
X1959837Y4000965D01*
X1960437Y4000266D01*
X1960969Y3999533D01*
X1961436Y3998767D01*
X1961835Y3998001D01*
X1962135Y3997202D01*
X1962435Y3996436D01*
X1962668Y3995670D01*
X1962834Y3994938D01*
X1962967Y3994238D01*
X1963101Y3993606D01*
X1963167Y3993040D01*
X1963200Y3992540D01*
X1963234Y3992140D01*
X1963267Y3991841D01*
Y3991641D01*
Y3991608D01*
Y3991574D01*
X1963234Y3990542D01*
X1963134Y3989543D01*
X1962967Y3988644D01*
X1962734Y3987778D01*
X1962501Y3986946D01*
X1962235Y3986213D01*
X1961935Y3985514D01*
X1961602Y3984881D01*
X1961302Y3984348D01*
X1961003Y3983849D01*
X1960736Y3983416D01*
X1960470Y3983083D01*
X1960270Y3982816D01*
X1960104Y3982617D01*
X1960004Y3982483D01*
X1959970Y3982450D01*
X1959338Y3981851D01*
X1958672Y3981318D01*
X1958006Y3980852D01*
X1957306Y3980452D01*
X1956640Y3980153D01*
X1955974Y3979853D01*
X1955308Y3979620D01*
X1954709Y3979453D01*
X1954110Y3979320D01*
X1953577Y3979187D01*
X1953111Y3979120D01*
X1952711Y3979087D01*
X1952378Y3979054D01*
X1952112Y3979020D01*
X1951912D01*
X1950880Y3979087D01*
X1949880Y3979253D01*
X1949015Y3979453D01*
X1948216Y3979720D01*
X1947882Y3979853D01*
X1947583Y3979986D01*
X1947283Y3980086D01*
X1947083Y3980186D01*
X1946883Y3980286D01*
X1946750Y3980352D01*
X1946684Y3980419D01*
X1946650D01*
X1945785Y3980985D01*
X1944985Y3981584D01*
X1944319Y3982184D01*
X1943787Y3982750D01*
X1943320Y3983283D01*
X1943154Y3983483D01*
X1943021Y3983682D01*
X1942888Y3983849D01*
X1942821Y3983949D01*
X1942754Y3984015D01*
Y3983649D01*
Y3983349D01*
Y3983183D01*
Y3983116D01*
X1942788Y3982017D01*
X1942854Y3980985D01*
X1942987Y3980019D01*
X1943054Y3979553D01*
X1943087Y3979153D01*
X1943154Y3978754D01*
X1943220Y3978421D01*
X1943287Y3978088D01*
X1943354Y3977855D01*
X1943387Y3977622D01*
X1943420Y3977488D01*
X1943454Y3977389D01*
Y3977355D01*
X1943720Y3976356D01*
X1944020Y3975457D01*
X1944319Y3974691D01*
X1944586Y3974059D01*
X1944719Y3973759D01*
X1944852Y3973526D01*
X1944952Y3973326D01*
X1945052Y3973160D01*
X1945119Y3973026D01*
X1945185Y3972926D01*
X1945218Y3972893D01*
Y3972860D01*
X1945618Y3972260D01*
X1946084Y3971728D01*
X1946517Y3971295D01*
X1946950Y3970895D01*
X1947316Y3970595D01*
X1947616Y3970396D01*
X1947816Y3970229D01*
X1947849Y3970196D01*
X1947882D01*
X1948515Y3969863D01*
X1949181Y3969630D01*
X1949814Y3969463D01*
X1950413Y3969363D01*
X1950946Y3969297D01*
X1951146Y3969263D01*
X1951346Y3969230D01*
X1951712D01*
X1952178Y3969263D01*
X1952611Y3969297D01*
X1953444Y3969463D01*
X1954143Y3969696D01*
X1954742Y3969963D01*
X1955208Y3970196D01*
X1955408Y3970329D01*
X1955575Y3970429D01*
X1955708Y3970529D01*
X1955808Y3970595D01*
X1955841Y3970662D01*
X1955874D01*
X1956174Y3970962D01*
X1956441Y3971261D01*
X1956873Y3971994D01*
X1957273Y3972760D01*
X1957540Y3973526D01*
X1957773Y3974225D01*
X1957872Y3974525D01*
X1957939Y3974791D01*
X1957972Y3975024D01*
X1958006Y3975191D01*
X1958039Y3975291D01*
Y3975324D01*
X1962568Y3974891D01*
X1962435Y3974059D01*
X1962268Y3973293D01*
X1962035Y3972560D01*
X1961802Y3971894D01*
X1961535Y3971261D01*
X1961236Y3970695D01*
X1960936Y3970162D01*
X1960670Y3969696D01*
X1960370Y3969263D01*
X1960104Y3968897D01*
X1959837Y3968597D01*
X1959637Y3968331D01*
X1959438Y3968131D01*
X1959304Y3967998D01*
X1959205Y3967898D01*
X1959171Y3967865D01*
X1958605Y3967432D01*
X1958039Y3967032D01*
X1957440Y3966699D01*
X1956807Y3966433D01*
X1956174Y3966166D01*
X1955575Y3965967D01*
X1954975Y3965800D01*
X1954409Y3965667D01*
X1953843Y3965567D01*
X1953377Y3965501D01*
X1952911Y3965434D01*
X1952544Y3965401D01*
X1952211D01*
X1951978Y3965367D01*
X1951779D01*
X1951013Y3965401D01*
X1950247Y3965467D01*
X1949514Y3965567D01*
X1948848Y3965734D01*
X1948182Y3965900D01*
X1947583Y3966100D01*
X1947017Y3966300D01*
X1946484Y3966499D01*
X1946018Y3966699D01*
X1945618Y3966932D01*
X1945252Y3967099D01*
X1944952Y3967265D01*
X1944719Y3967432D01*
X1944519Y3967532D01*
X1944419Y3967598D01*
X1944386Y3967632D01*
X1943820Y3968065D01*
X1943287Y3968564D01*
X1942754Y3969097D01*
X1942321Y3969630D01*
X1941889Y3970162D01*
X1941489Y3970729D01*
X1941123Y3971261D01*
X1940823Y3971794D01*
X1940523Y3972294D01*
X1940290Y3972760D01*
X1940090Y3973193D01*
X1939924Y3973559D01*
X1939791Y3973825D01*
X1939691Y3974059D01*
X1939657Y3974225D01*
X1939624Y3974258D01*
X1939358Y3975124D01*
X1939091Y3976023D01*
X1938891Y3976956D01*
X1938692Y3977921D01*
X1938425Y3979886D01*
X1938325Y3980852D01*
X1938226Y3981751D01*
X1938159Y3982617D01*
X1938092Y3983416D01*
X1938059Y3984148D01*
Y3984748D01*
X1938026Y3985281D01*
Y3985481D01*
Y3985647D01*
Y3985780D01*
Y3985913D01*
Y3985947D01*
Y3985980D01*
X1938059Y3987279D01*
X1938092Y3988477D01*
X1938159Y3989610D01*
X1938292Y3990642D01*
X1938392Y3991608D01*
X1938525Y3992507D01*
X1938692Y3993306D01*
X1938825Y3994039D01*
X1938991Y3994671D01*
X1939125Y3995204D01*
X1939291Y3995704D01*
X1939391Y3996070D01*
X1939491Y3996370D01*
X1939591Y3996603D01*
X1939624Y3996736D01*
X1939657Y3996769D01*
X1939957Y3997435D01*
X1940323Y3998101D01*
X1940690Y3998667D01*
X1941056Y3999233D01*
X1941456Y3999766D01*
X1941855Y4000232D01*
X1942255Y4000665D01*
X1942621Y4001032D01*
X1942987Y4001365D01*
X1943320Y4001664D01*
X1943620Y4001931D01*
X1943887Y4002131D01*
X1944086Y4002297D01*
X1944253Y4002397D01*
X1944353Y4002463D01*
X1944386Y4002497D01*
X1944985Y4002863D01*
X1945552Y4003163D01*
X1946151Y4003429D01*
X1946750Y4003662D01*
X1947350Y4003862D01*
X1947916Y4004029D01*
X1948449Y4004162D01*
X1948948Y4004262D01*
X1949448Y4004362D01*
X1949880Y4004428D01*
X1950247Y4004461D01*
X1950580Y4004495D01*
X1950846Y4004528D01*
X1951213D01*
X1952178Y4004495D01*
D02*
G37*
G36*
X1997000Y3999866D02*
X1984346D01*
Y3966000D01*
X1979251D01*
Y3999866D01*
X1966531D01*
Y4004395D01*
X1997000D01*
Y3999866D01*
D02*
G37*
G36*
X2331000D02*
X2318346D01*
Y3966000D01*
X2313251D01*
Y3999866D01*
X2300530D01*
Y4004395D01*
X2331000D01*
Y3999866D01*
D02*
G37*
G36*
X2285679Y4004495D02*
X2286544Y4004395D01*
X2287377Y4004262D01*
X2288143Y4004095D01*
X2288842Y4003862D01*
X2289508Y4003629D01*
X2290108Y4003363D01*
X2290674Y4003096D01*
X2291140Y4002830D01*
X2291573Y4002563D01*
X2291939Y4002330D01*
X2292239Y4002097D01*
X2292505Y4001931D01*
X2292672Y4001798D01*
X2292772Y4001698D01*
X2292805Y4001664D01*
X2293338Y4001098D01*
X2293804Y4000532D01*
X2294204Y3999966D01*
X2294537Y3999367D01*
X2294836Y3998767D01*
X2295069Y3998168D01*
X2295269Y3997602D01*
X2295436Y3997069D01*
X2295535Y3996569D01*
X2295635Y3996103D01*
X2295702Y3995704D01*
X2295769Y3995337D01*
Y3995038D01*
X2295802Y3994838D01*
Y3994671D01*
Y3994638D01*
X2295735Y3993639D01*
X2295569Y3992740D01*
X2295369Y3991907D01*
X2295103Y3991208D01*
X2294969Y3990908D01*
X2294836Y3990642D01*
X2294736Y3990409D01*
X2294636Y3990242D01*
X2294537Y3990076D01*
X2294470Y3989976D01*
X2294403Y3989909D01*
Y3989876D01*
X2294104Y3989510D01*
X2293804Y3989177D01*
X2293105Y3988544D01*
X2292372Y3988045D01*
X2291673Y3987612D01*
X2291007Y3987245D01*
X2290740Y3987112D01*
X2290507Y3987012D01*
X2290274Y3986912D01*
X2290141Y3986879D01*
X2290041Y3986812D01*
X2290008D01*
X2290640Y3986613D01*
X2291240Y3986413D01*
X2291806Y3986146D01*
X2292339Y3985913D01*
X2292838Y3985614D01*
X2293271Y3985347D01*
X2293671Y3985048D01*
X2294037Y3984748D01*
X2294370Y3984481D01*
X2294636Y3984248D01*
X2294903Y3983982D01*
X2295069Y3983782D01*
X2295236Y3983616D01*
X2295336Y3983483D01*
X2295402Y3983416D01*
X2295436Y3983383D01*
X2295769Y3982883D01*
X2296068Y3982384D01*
X2296301Y3981851D01*
X2296535Y3981318D01*
X2296701Y3980818D01*
X2296867Y3980286D01*
X2297101Y3979287D01*
X2297167Y3978820D01*
X2297234Y3978421D01*
X2297267Y3978055D01*
X2297300Y3977722D01*
X2297334Y3977455D01*
Y3977255D01*
Y3977122D01*
Y3977089D01*
X2297300Y3976157D01*
X2297167Y3975291D01*
X2297001Y3974458D01*
X2296801Y3973692D01*
X2296535Y3972926D01*
X2296235Y3972260D01*
X2295935Y3971628D01*
X2295602Y3971028D01*
X2295269Y3970529D01*
X2294969Y3970063D01*
X2294670Y3969663D01*
X2294403Y3969330D01*
X2294204Y3969064D01*
X2294004Y3968897D01*
X2293904Y3968764D01*
X2293870Y3968731D01*
X2293204Y3968131D01*
X2292472Y3967632D01*
X2291739Y3967166D01*
X2290973Y3966799D01*
X2290174Y3966466D01*
X2289408Y3966200D01*
X2288676Y3965967D01*
X2287976Y3965800D01*
X2287277Y3965634D01*
X2286678Y3965534D01*
X2286112Y3965467D01*
X2285612Y3965434D01*
X2285213Y3965401D01*
X2284946Y3965367D01*
X2284680D01*
X2283647Y3965401D01*
X2282648Y3965501D01*
X2281716Y3965667D01*
X2280850Y3965900D01*
X2280051Y3966133D01*
X2279285Y3966433D01*
X2278619Y3966733D01*
X2277986Y3967032D01*
X2277420Y3967332D01*
X2276921Y3967632D01*
X2276521Y3967931D01*
X2276155Y3968164D01*
X2275889Y3968398D01*
X2275689Y3968564D01*
X2275555Y3968664D01*
X2275522Y3968697D01*
X2274890Y3969330D01*
X2274357Y3970029D01*
X2273890Y3970729D01*
X2273491Y3971428D01*
X2273158Y3972127D01*
X2272892Y3972793D01*
X2272658Y3973459D01*
X2272459Y3974092D01*
X2272325Y3974691D01*
X2272226Y3975257D01*
X2272126Y3975757D01*
X2272092Y3976157D01*
X2272059Y3976523D01*
X2272026Y3976756D01*
Y3976922D01*
Y3976989D01*
X2272059Y3977655D01*
X2272092Y3978254D01*
X2272325Y3979420D01*
X2272459Y3979953D01*
X2272625Y3980485D01*
X2272792Y3980918D01*
X2272958Y3981351D01*
X2273125Y3981751D01*
X2273291Y3982084D01*
X2273458Y3982384D01*
X2273591Y3982617D01*
X2273724Y3982816D01*
X2273824Y3982983D01*
X2273857Y3983050D01*
X2273890Y3983083D01*
X2274257Y3983549D01*
X2274656Y3983982D01*
X2275522Y3984748D01*
X2276421Y3985381D01*
X2277287Y3985913D01*
X2277687Y3986113D01*
X2278053Y3986313D01*
X2278419Y3986479D01*
X2278719Y3986579D01*
X2278952Y3986679D01*
X2279119Y3986746D01*
X2279252Y3986812D01*
X2279285D01*
X2278752Y3987012D01*
X2278286Y3987245D01*
X2277820Y3987479D01*
X2277420Y3987745D01*
X2277021Y3987978D01*
X2276688Y3988244D01*
X2276355Y3988477D01*
X2276088Y3988744D01*
X2275822Y3988944D01*
X2275622Y3989177D01*
X2275422Y3989343D01*
X2275289Y3989510D01*
X2275156Y3989643D01*
X2275089Y3989743D01*
X2275023Y3989809D01*
Y3989843D01*
X2274756Y3990209D01*
X2274557Y3990609D01*
X2274190Y3991408D01*
X2273924Y3992207D01*
X2273757Y3992940D01*
X2273657Y3993572D01*
X2273624Y3993839D01*
Y3994072D01*
X2273591Y3994238D01*
Y3994372D01*
Y3994472D01*
Y3994505D01*
X2273624Y3995271D01*
X2273724Y3996003D01*
X2273890Y3996703D01*
X2274057Y3997369D01*
X2274323Y3998001D01*
X2274557Y3998567D01*
X2274856Y3999133D01*
X2275123Y3999600D01*
X2275422Y4000066D01*
X2275722Y4000465D01*
X2275955Y4000798D01*
X2276188Y4001065D01*
X2276388Y4001298D01*
X2276555Y4001465D01*
X2276654Y4001564D01*
X2276688Y4001598D01*
X2277287Y4002131D01*
X2277920Y4002563D01*
X2278586Y4002963D01*
X2279252Y4003296D01*
X2279918Y4003562D01*
X2280584Y4003829D01*
X2281250Y4003995D01*
X2281883Y4004162D01*
X2282482Y4004295D01*
X2283015Y4004362D01*
X2283514Y4004428D01*
X2283947Y4004495D01*
X2284280D01*
X2284546Y4004528D01*
X2284780D01*
X2285679Y4004495D01*
D02*
G37*
G36*
X3008239Y3998865D02*
X2995585D01*
Y3964999D01*
X2990490D01*
Y3998865D01*
X2977770D01*
Y4003394D01*
X3008239D01*
Y3998865D01*
D02*
G37*
G36*
X2974207Y3998366D02*
X2955392D01*
X2956058Y3997567D01*
X2956724Y3996767D01*
X2957956Y3995069D01*
X2958556Y3994203D01*
X2959122Y3993371D01*
X2959655Y3992572D01*
X2960121Y3991806D01*
X2960587Y3991073D01*
X2960987Y3990407D01*
X2961320Y3989808D01*
X2961619Y3989308D01*
X2961852Y3988875D01*
X2962052Y3988576D01*
X2962152Y3988376D01*
X2962185Y3988343D01*
Y3988309D01*
X2962751Y3987177D01*
X2963318Y3986078D01*
X2963817Y3984946D01*
X2964283Y3983847D01*
X2964749Y3982781D01*
X2965149Y3981782D01*
X2965515Y3980783D01*
X2965815Y3979884D01*
X2966115Y3979052D01*
X2966381Y3978286D01*
X2966581Y3977587D01*
X2966747Y3977021D01*
X2966914Y3976554D01*
X2967014Y3976221D01*
X2967047Y3976088D01*
Y3975988D01*
X2967081Y3975955D01*
Y3975922D01*
X2967380Y3974756D01*
X2967647Y3973624D01*
X2967880Y3972525D01*
X2968079Y3971526D01*
X2968246Y3970560D01*
X2968379Y3969661D01*
X2968512Y3968829D01*
X2968612Y3968063D01*
X2968679Y3967363D01*
X2968745Y3966764D01*
X2968779Y3966231D01*
X2968812Y3965798D01*
Y3965465D01*
X2968845Y3965199D01*
Y3965066D01*
Y3964999D01*
X2963984D01*
X2963784Y3967097D01*
X2963684Y3968096D01*
X2963551Y3969062D01*
X2963418Y3969994D01*
X2963251Y3970860D01*
X2963084Y3971659D01*
X2962951Y3972425D01*
X2962785Y3973091D01*
X2962652Y3973691D01*
X2962518Y3974223D01*
X2962419Y3974689D01*
X2962319Y3975056D01*
X2962252Y3975322D01*
X2962185Y3975455D01*
Y3975522D01*
X2961786Y3976787D01*
X2961386Y3978053D01*
X2960953Y3979285D01*
X2960487Y3980484D01*
X2960021Y3981649D01*
X2959555Y3982748D01*
X2959122Y3983780D01*
X2958656Y3984746D01*
X2958256Y3985645D01*
X2957856Y3986444D01*
X2957523Y3987144D01*
X2957224Y3987743D01*
X2956957Y3988209D01*
X2956857Y3988409D01*
X2956791Y3988542D01*
X2956724Y3988675D01*
X2956658Y3988775D01*
X2956624Y3988809D01*
Y3988842D01*
X2955958Y3990008D01*
X2955292Y3991140D01*
X2954626Y3992205D01*
X2953960Y3993171D01*
X2953328Y3994103D01*
X2952728Y3994969D01*
X2952162Y3995735D01*
X2951629Y3996434D01*
X2951130Y3997067D01*
X2950697Y3997633D01*
X2950297Y3998099D01*
X2949964Y3998499D01*
X2949698Y3998799D01*
X2949498Y3999032D01*
X2949365Y3999165D01*
X2949332Y3999198D01*
Y4002895D01*
X2974207D01*
Y3998366D01*
D02*
G37*
G36*
X3641728Y4000321D02*
X3642794Y4000154D01*
X3643793Y3999954D01*
X3644725Y3999655D01*
X3645591Y3999322D01*
X3646357Y3998956D01*
X3647090Y3998556D01*
X3647756Y3998156D01*
X3648355Y3997757D01*
X3648854Y3997357D01*
X3649287Y3996991D01*
X3649654Y3996658D01*
X3649953Y3996358D01*
X3650153Y3996158D01*
X3650286Y3996025D01*
X3650320Y3995959D01*
X3650686Y3995459D01*
X3651052Y3994959D01*
X3651685Y3993827D01*
X3652218Y3992595D01*
X3652684Y3991296D01*
X3653084Y3989965D01*
X3653417Y3988599D01*
X3653683Y3987267D01*
X3653916Y3985968D01*
X3654083Y3984736D01*
X3654182Y3983571D01*
X3654249Y3983005D01*
X3654282Y3982505D01*
X3654316Y3982039D01*
X3654349Y3981606D01*
X3654382Y3981207D01*
Y3980840D01*
Y3980541D01*
X3654416Y3980274D01*
Y3980041D01*
Y3979908D01*
Y3979808D01*
Y3979775D01*
X3654382Y3977977D01*
X3654249Y3976311D01*
X3654083Y3974780D01*
X3653849Y3973348D01*
X3653550Y3972082D01*
X3653250Y3970917D01*
X3652917Y3969851D01*
X3652551Y3968919D01*
X3652218Y3968120D01*
X3651885Y3967420D01*
X3651585Y3966821D01*
X3651285Y3966355D01*
X3651052Y3965988D01*
X3650886Y3965722D01*
X3650753Y3965589D01*
X3650719Y3965522D01*
X3649987Y3964756D01*
X3649221Y3964090D01*
X3648455Y3963524D01*
X3647656Y3963025D01*
X3646823Y3962592D01*
X3646024Y3962259D01*
X3645258Y3961959D01*
X3644492Y3961726D01*
X3643793Y3961560D01*
X3643160Y3961426D01*
X3642561Y3961327D01*
X3642061Y3961260D01*
X3641662Y3961227D01*
X3641362Y3961193D01*
X3641096D01*
X3640463Y3961227D01*
X3639830Y3961260D01*
X3638665Y3961460D01*
X3638132Y3961560D01*
X3637599Y3961726D01*
X3637133Y3961859D01*
X3636700Y3962026D01*
X3636300Y3962159D01*
X3635934Y3962325D01*
X3635634Y3962459D01*
X3635368Y3962559D01*
X3635168Y3962692D01*
X3635035Y3962758D01*
X3634935Y3962792D01*
X3634902Y3962825D01*
X3634402Y3963158D01*
X3633936Y3963524D01*
X3633070Y3964257D01*
X3632338Y3965056D01*
X3631738Y3965822D01*
X3631239Y3966521D01*
X3631039Y3966821D01*
X3630906Y3967087D01*
X3630773Y3967287D01*
X3630673Y3967454D01*
X3630639Y3967554D01*
X3630606Y3967587D01*
X3630340Y3968186D01*
X3630073Y3968752D01*
X3629707Y3969951D01*
X3629407Y3971050D01*
X3629307Y3971583D01*
X3629241Y3972082D01*
X3629174Y3972549D01*
X3629108Y3972981D01*
X3629074Y3973348D01*
Y3973681D01*
X3629041Y3973914D01*
Y3974114D01*
Y3974247D01*
Y3974280D01*
X3629074Y3975279D01*
X3629174Y3976245D01*
X3629341Y3977144D01*
X3629574Y3978010D01*
X3629807Y3978809D01*
X3630107Y3979542D01*
X3630406Y3980208D01*
X3630706Y3980807D01*
X3631006Y3981373D01*
X3631305Y3981839D01*
X3631605Y3982272D01*
X3631838Y3982605D01*
X3632071Y3982872D01*
X3632238Y3983071D01*
X3632338Y3983205D01*
X3632371Y3983238D01*
X3633004Y3983871D01*
X3633670Y3984403D01*
X3634336Y3984870D01*
X3635035Y3985269D01*
X3635701Y3985602D01*
X3636367Y3985869D01*
X3637033Y3986102D01*
X3637632Y3986302D01*
X3638198Y3986435D01*
X3638731Y3986535D01*
X3639198Y3986635D01*
X3639597Y3986668D01*
X3639930Y3986701D01*
X3640197Y3986734D01*
X3640396D01*
X3641395Y3986668D01*
X3642328Y3986535D01*
X3643227Y3986335D01*
X3643993Y3986102D01*
X3644326Y3985968D01*
X3644625Y3985869D01*
X3644892Y3985769D01*
X3645125Y3985669D01*
X3645325Y3985602D01*
X3645458Y3985536D01*
X3645524Y3985469D01*
X3645558D01*
X3646457Y3984936D01*
X3647256Y3984337D01*
X3647955Y3983704D01*
X3648555Y3983071D01*
X3649054Y3982505D01*
X3649254Y3982239D01*
X3649421Y3982039D01*
X3649554Y3981839D01*
X3649654Y3981706D01*
X3649687Y3981640D01*
X3649720Y3981606D01*
X3649687Y3982672D01*
X3649654Y3983637D01*
X3649587Y3984570D01*
X3649487Y3985436D01*
X3649387Y3986202D01*
X3649287Y3986934D01*
X3649188Y3987600D01*
X3649054Y3988200D01*
X3648954Y3988732D01*
X3648821Y3989165D01*
X3648721Y3989565D01*
X3648621Y3989898D01*
X3648521Y3990131D01*
X3648488Y3990331D01*
X3648422Y3990431D01*
Y3990464D01*
X3648155Y3991030D01*
X3647889Y3991563D01*
X3647622Y3992062D01*
X3647323Y3992529D01*
X3647023Y3992961D01*
X3646723Y3993361D01*
X3646457Y3993694D01*
X3646157Y3994027D01*
X3645891Y3994294D01*
X3645658Y3994560D01*
X3645458Y3994760D01*
X3645258Y3994926D01*
X3645092Y3995059D01*
X3644992Y3995159D01*
X3644925Y3995193D01*
X3644892Y3995226D01*
X3644226Y3995659D01*
X3643560Y3995959D01*
X3642894Y3996192D01*
X3642261Y3996325D01*
X3641728Y3996425D01*
X3641495Y3996458D01*
X3641295D01*
X3641162Y3996491D01*
X3640929D01*
X3640430Y3996458D01*
X3639930Y3996391D01*
X3639464Y3996291D01*
X3638998Y3996192D01*
X3638198Y3995859D01*
X3637499Y3995492D01*
X3637233Y3995293D01*
X3636966Y3995093D01*
X3636733Y3994926D01*
X3636534Y3994793D01*
X3636400Y3994660D01*
X3636300Y3994560D01*
X3636234Y3994493D01*
X3636200Y3994460D01*
X3636001Y3994194D01*
X3635801Y3993927D01*
X3635435Y3993294D01*
X3635135Y3992628D01*
X3634869Y3991963D01*
X3634669Y3991363D01*
X3634569Y3991097D01*
X3634502Y3990897D01*
X3634469Y3990697D01*
X3634436Y3990564D01*
X3634402Y3990464D01*
Y3990431D01*
X3629707Y3990797D01*
X3629840Y3991596D01*
X3630040Y3992395D01*
X3630240Y3993095D01*
X3630506Y3993761D01*
X3630773Y3994393D01*
X3631072Y3994959D01*
X3631372Y3995492D01*
X3631672Y3995959D01*
X3631971Y3996391D01*
X3632238Y3996758D01*
X3632504Y3997057D01*
X3632737Y3997324D01*
X3632937Y3997524D01*
X3633070Y3997690D01*
X3633170Y3997757D01*
X3633204Y3997790D01*
X3633770Y3998256D01*
X3634369Y3998622D01*
X3634968Y3998989D01*
X3635601Y3999289D01*
X3636200Y3999522D01*
X3636833Y3999721D01*
X3637433Y3999888D01*
X3637999Y4000021D01*
X3638532Y4000154D01*
X3639031Y4000221D01*
X3639497Y4000287D01*
X3639863Y4000321D01*
X3640197Y4000354D01*
X3640629D01*
X3641728Y4000321D01*
D02*
G37*
G36*
X3687949Y3995692D02*
X3675295D01*
Y3961826D01*
X3670200D01*
Y3995692D01*
X3657479D01*
Y4000221D01*
X3687949D01*
Y3995692D01*
D02*
G37*
G36*
X1614815Y4004062D02*
X1615115Y4003596D01*
X1615747Y4002663D01*
X1616447Y4001798D01*
X1617146Y4000998D01*
X1617479Y4000665D01*
X1617779Y4000332D01*
X1618045Y4000066D01*
X1618278Y3999833D01*
X1618511Y3999633D01*
X1618644Y3999500D01*
X1618744Y3999400D01*
X1618778Y3999367D01*
X1619910Y3998434D01*
X1621109Y3997568D01*
X1622274Y3996802D01*
X1622807Y3996436D01*
X1623340Y3996137D01*
X1623839Y3995837D01*
X1624272Y3995604D01*
X1624672Y3995371D01*
X1625005Y3995204D01*
X1625271Y3995071D01*
X1625504Y3994971D01*
X1625637Y3994904D01*
X1625671Y3994871D01*
Y3990309D01*
X1624838Y3990642D01*
X1623972Y3991042D01*
X1623140Y3991441D01*
X1622374Y3991841D01*
X1622041Y3992007D01*
X1621708Y3992207D01*
X1621442Y3992340D01*
X1621208Y3992474D01*
X1621009Y3992573D01*
X1620876Y3992673D01*
X1620776Y3992707D01*
X1620742Y3992740D01*
X1619743Y3993339D01*
X1618878Y3993939D01*
X1618112Y3994505D01*
X1617446Y3994971D01*
X1617179Y3995204D01*
X1616946Y3995404D01*
X1616746Y3995570D01*
X1616546Y3995737D01*
X1616413Y3995837D01*
X1616313Y3995937D01*
X1616280Y3995970D01*
X1616247Y3996003D01*
Y3966000D01*
X1611518D01*
Y4004528D01*
X1614582D01*
X1614815Y4004062D01*
D02*
G37*
G36*
X1663000Y3999866D02*
X1650346D01*
Y3966000D01*
X1645251D01*
Y3999866D01*
X1632531D01*
Y4004395D01*
X1663000D01*
Y3999866D01*
D02*
G37*
G36*
X1587675Y4004495D02*
X1588408Y4004428D01*
X1589107Y4004328D01*
X1589773Y4004162D01*
X1590373Y4003995D01*
X1590939Y4003829D01*
X1591472Y4003596D01*
X1591971Y4003396D01*
X1592404Y4003196D01*
X1592770Y4002996D01*
X1593103Y4002796D01*
X1593370Y4002630D01*
X1593570Y4002463D01*
X1593736Y4002364D01*
X1593836Y4002297D01*
X1593869Y4002264D01*
X1594369Y4001831D01*
X1594835Y4001365D01*
X1595701Y4000332D01*
X1596400Y3999267D01*
X1596999Y3998234D01*
X1597233Y3997735D01*
X1597432Y3997302D01*
X1597632Y3996902D01*
X1597765Y3996569D01*
X1597899Y3996270D01*
X1597965Y3996070D01*
X1597998Y3995903D01*
X1598032Y3995870D01*
X1598265Y3995071D01*
X1598498Y3994205D01*
X1598664Y3993306D01*
X1598831Y3992407D01*
X1599097Y3990575D01*
X1599164Y3989676D01*
X1599264Y3988844D01*
X1599297Y3988011D01*
X1599364Y3987279D01*
X1599397Y3986613D01*
Y3986047D01*
X1599430Y3985580D01*
Y3985214D01*
Y3985081D01*
Y3984981D01*
Y3984948D01*
Y3984914D01*
Y3983915D01*
X1599397Y3982950D01*
X1599330Y3982051D01*
X1599264Y3981151D01*
X1599164Y3980286D01*
X1599064Y3979453D01*
X1598964Y3978687D01*
X1598831Y3977921D01*
X1598564Y3976523D01*
X1598232Y3975224D01*
X1597899Y3974092D01*
X1597532Y3973060D01*
X1597166Y3972160D01*
X1596833Y3971395D01*
X1596500Y3970762D01*
X1596234Y3970229D01*
X1595967Y3969829D01*
X1595801Y3969530D01*
X1595667Y3969363D01*
X1595634Y3969297D01*
X1595001Y3968597D01*
X1594335Y3967998D01*
X1593669Y3967465D01*
X1592937Y3967032D01*
X1592204Y3966633D01*
X1591472Y3966333D01*
X1590772Y3966067D01*
X1590073Y3965867D01*
X1589440Y3965700D01*
X1588841Y3965567D01*
X1588308Y3965501D01*
X1587842Y3965434D01*
X1587442Y3965401D01*
X1587143Y3965367D01*
X1586909D01*
X1586144Y3965401D01*
X1585411Y3965467D01*
X1584712Y3965567D01*
X1584046Y3965734D01*
X1583446Y3965900D01*
X1582847Y3966067D01*
X1582347Y3966266D01*
X1581848Y3966499D01*
X1581415Y3966699D01*
X1581049Y3966899D01*
X1580716Y3967066D01*
X1580449Y3967265D01*
X1580216Y3967399D01*
X1580083Y3967499D01*
X1579983Y3967565D01*
X1579950Y3967598D01*
X1579450Y3968031D01*
X1578984Y3968531D01*
X1578118Y3969563D01*
X1577419Y3970629D01*
X1576820Y3971661D01*
X1576586Y3972127D01*
X1576387Y3972560D01*
X1576187Y3972960D01*
X1576054Y3973326D01*
X1575920Y3973592D01*
X1575854Y3973825D01*
X1575787Y3973959D01*
Y3973992D01*
X1575554Y3974791D01*
X1575321Y3975657D01*
X1575121Y3976556D01*
X1574988Y3977455D01*
X1574722Y3979287D01*
X1574622Y3980153D01*
X1574555Y3981018D01*
X1574489Y3981818D01*
X1574455Y3982550D01*
X1574422Y3983216D01*
Y3983782D01*
X1574389Y3984248D01*
Y3984615D01*
Y3984748D01*
Y3984848D01*
Y3984881D01*
Y3984914D01*
Y3985947D01*
X1574422Y3986946D01*
X1574455Y3987878D01*
X1574522Y3988744D01*
X1574589Y3989543D01*
X1574655Y3990276D01*
X1574755Y3990975D01*
X1574822Y3991574D01*
X1574888Y3992140D01*
X1574988Y3992607D01*
X1575055Y3993006D01*
X1575121Y3993373D01*
X1575188Y3993639D01*
X1575221Y3993805D01*
X1575255Y3993939D01*
Y3993972D01*
X1575621Y3995171D01*
X1575987Y3996270D01*
X1576187Y3996769D01*
X1576387Y3997269D01*
X1576586Y3997702D01*
X1576786Y3998068D01*
X1576953Y3998434D01*
X1577119Y3998767D01*
X1577286Y3999034D01*
X1577386Y3999267D01*
X1577519Y3999433D01*
X1577585Y3999566D01*
X1577619Y3999633D01*
X1577652Y3999666D01*
X1578252Y4000499D01*
X1578884Y4001231D01*
X1579517Y4001831D01*
X1580150Y4002364D01*
X1580682Y4002763D01*
X1580916Y4002896D01*
X1581115Y4003030D01*
X1581282Y4003130D01*
X1581415Y4003196D01*
X1581482Y4003263D01*
X1581515D01*
X1582414Y4003696D01*
X1583346Y4003995D01*
X1584245Y4004228D01*
X1585078Y4004362D01*
X1585478Y4004428D01*
X1585811Y4004461D01*
X1586110Y4004495D01*
X1586377D01*
X1586610Y4004528D01*
X1586909D01*
X1587675Y4004495D01*
D02*
G37*
G36*
X918709D02*
X919641Y4004395D01*
X920540Y4004262D01*
X921373Y4004095D01*
X922139Y4003862D01*
X922871Y4003629D01*
X923537Y4003363D01*
X924103Y4003096D01*
X924636Y4002830D01*
X925102Y4002563D01*
X925502Y4002330D01*
X925835Y4002097D01*
X926101Y4001931D01*
X926268Y4001798D01*
X926401Y4001698D01*
X926434Y4001664D01*
X927000Y4001098D01*
X927533Y4000499D01*
X927966Y3999866D01*
X928366Y3999167D01*
X928732Y3998501D01*
X929032Y3997802D01*
X929265Y3997135D01*
X929498Y3996470D01*
X929664Y3995837D01*
X929798Y3995271D01*
X929931Y3994738D01*
X929997Y3994305D01*
X930064Y3993939D01*
X930097Y3993639D01*
X930131Y3993472D01*
Y3993406D01*
X925269Y3992906D01*
X925236Y3993572D01*
X925169Y3994172D01*
X925069Y3994771D01*
X924936Y3995304D01*
X924803Y3995803D01*
X924636Y3996270D01*
X924436Y3996703D01*
X924236Y3997102D01*
X924070Y3997435D01*
X923870Y3997735D01*
X923704Y3997968D01*
X923537Y3998201D01*
X923437Y3998368D01*
X923337Y3998468D01*
X923271Y3998534D01*
X923237Y3998567D01*
X922838Y3998934D01*
X922405Y3999233D01*
X921972Y3999533D01*
X921539Y3999766D01*
X921073Y3999966D01*
X920640Y4000133D01*
X919774Y4000366D01*
X919375Y4000465D01*
X918975Y4000532D01*
X918642Y4000565D01*
X918376Y4000599D01*
X918143Y4000632D01*
X917810D01*
X917210Y4000599D01*
X916644Y4000565D01*
X916111Y4000465D01*
X915645Y4000332D01*
X915179Y4000199D01*
X914746Y4000033D01*
X914346Y3999833D01*
X913980Y3999666D01*
X913647Y3999500D01*
X913381Y3999300D01*
X913148Y3999133D01*
X912948Y3999000D01*
X912781Y3998867D01*
X912681Y3998800D01*
X912615Y3998734D01*
X912582Y3998701D01*
X912215Y3998334D01*
X911915Y3997935D01*
X911649Y3997535D01*
X911416Y3997135D01*
X911216Y3996736D01*
X911083Y3996370D01*
X910817Y3995604D01*
X910750Y3995271D01*
X910683Y3994971D01*
X910650Y3994671D01*
X910617Y3994438D01*
X910583Y3994238D01*
Y3994105D01*
Y3994005D01*
Y3993972D01*
X910617Y3993472D01*
X910683Y3992973D01*
X910783Y3992474D01*
X910917Y3991974D01*
X911283Y3991008D01*
X911682Y3990142D01*
X911882Y3989743D01*
X912082Y3989410D01*
X912282Y3989077D01*
X912448Y3988811D01*
X912582Y3988611D01*
X912681Y3988444D01*
X912748Y3988344D01*
X912781Y3988311D01*
X913247Y3987712D01*
X913780Y3987112D01*
X914380Y3986446D01*
X915012Y3985780D01*
X915712Y3985081D01*
X916411Y3984415D01*
X917144Y3983749D01*
X917843Y3983116D01*
X918509Y3982517D01*
X919142Y3981951D01*
X919708Y3981451D01*
X920240Y3981018D01*
X920640Y3980652D01*
X920973Y3980386D01*
X921173Y3980219D01*
X921206Y3980153D01*
X921240D01*
X921972Y3979553D01*
X922671Y3978954D01*
X923304Y3978388D01*
X923904Y3977855D01*
X924436Y3977355D01*
X924969Y3976856D01*
X925402Y3976423D01*
X925835Y3976023D01*
X926201Y3975657D01*
X926501Y3975324D01*
X926767Y3975024D01*
X927000Y3974791D01*
X927167Y3974625D01*
X927300Y3974458D01*
X927367Y3974392D01*
X927400Y3974358D01*
X928133Y3973426D01*
X928765Y3972494D01*
X929331Y3971661D01*
X929731Y3970862D01*
X929931Y3970529D01*
X930064Y3970229D01*
X930197Y3969929D01*
X930297Y3969696D01*
X930397Y3969530D01*
X930464Y3969397D01*
X930497Y3969297D01*
Y3969263D01*
X930697Y3968664D01*
X930830Y3968098D01*
X930930Y3967532D01*
X930996Y3967032D01*
X931030Y3966633D01*
Y3966300D01*
Y3966166D01*
Y3966067D01*
Y3966033D01*
Y3966000D01*
X905655D01*
Y3970529D01*
X924470D01*
X924170Y3970995D01*
X923837Y3971461D01*
X923504Y3971894D01*
X923204Y3972260D01*
X922938Y3972593D01*
X922705Y3972860D01*
X922572Y3972993D01*
X922505Y3973060D01*
X922239Y3973326D01*
X921939Y3973626D01*
X921539Y3973992D01*
X921140Y3974358D01*
X920240Y3975157D01*
X919308Y3975957D01*
X918875Y3976323D01*
X918442Y3976689D01*
X918076Y3977022D01*
X917743Y3977322D01*
X917443Y3977555D01*
X917244Y3977722D01*
X917077Y3977855D01*
X917044Y3977888D01*
X916111Y3978687D01*
X915279Y3979420D01*
X914480Y3980119D01*
X913780Y3980752D01*
X913114Y3981351D01*
X912548Y3981917D01*
X912015Y3982417D01*
X911516Y3982883D01*
X911116Y3983283D01*
X910783Y3983649D01*
X910484Y3983949D01*
X910217Y3984182D01*
X910051Y3984382D01*
X909918Y3984548D01*
X909851Y3984615D01*
X909818Y3984648D01*
X909052Y3985547D01*
X908386Y3986413D01*
X907853Y3987212D01*
X907420Y3987911D01*
X907254Y3988211D01*
X907087Y3988477D01*
X906954Y3988711D01*
X906854Y3988944D01*
X906787Y3989077D01*
X906721Y3989210D01*
X906687Y3989277D01*
Y3989310D01*
X906354Y3990142D01*
X906121Y3990975D01*
X905955Y3991741D01*
X905855Y3992440D01*
X905755Y3993006D01*
Y3993273D01*
X905722Y3993472D01*
Y3993639D01*
Y3993772D01*
Y3993839D01*
Y3993872D01*
X905755Y3994705D01*
X905855Y3995504D01*
X906021Y3996270D01*
X906221Y3996969D01*
X906454Y3997635D01*
X906754Y3998268D01*
X907020Y3998834D01*
X907320Y3999367D01*
X907653Y3999833D01*
X907919Y4000266D01*
X908186Y4000632D01*
X908452Y4000932D01*
X908652Y4001165D01*
X908819Y4001331D01*
X908918Y4001431D01*
X908952Y4001465D01*
X909585Y4001997D01*
X910250Y4002463D01*
X910950Y4002896D01*
X911682Y4003229D01*
X912415Y4003529D01*
X913148Y4003796D01*
X913847Y4003995D01*
X914546Y4004162D01*
X915179Y4004262D01*
X915778Y4004362D01*
X916344Y4004428D01*
X916811Y4004495D01*
X917177D01*
X917477Y4004528D01*
X917710D01*
X918709Y4004495D01*
D02*
G37*
G36*
X945815Y4004062D02*
X946115Y4003596D01*
X946747Y4002663D01*
X947447Y4001798D01*
X948146Y4000998D01*
X948479Y4000665D01*
X948779Y4000332D01*
X949045Y4000066D01*
X949278Y3999833D01*
X949511Y3999633D01*
X949644Y3999500D01*
X949744Y3999400D01*
X949778Y3999367D01*
X950910Y3998434D01*
X952109Y3997568D01*
X953274Y3996802D01*
X953807Y3996436D01*
X954340Y3996137D01*
X954839Y3995837D01*
X955272Y3995604D01*
X955672Y3995371D01*
X956005Y3995204D01*
X956271Y3995071D01*
X956504Y3994971D01*
X956637Y3994904D01*
X956671Y3994871D01*
Y3990309D01*
X955838Y3990642D01*
X954972Y3991042D01*
X954140Y3991441D01*
X953374Y3991841D01*
X953041Y3992007D01*
X952708Y3992207D01*
X952442Y3992340D01*
X952208Y3992474D01*
X952009Y3992573D01*
X951875Y3992673D01*
X951776Y3992707D01*
X951742Y3992740D01*
X950743Y3993339D01*
X949878Y3993939D01*
X949112Y3994505D01*
X948446Y3994971D01*
X948179Y3995204D01*
X947946Y3995404D01*
X947746Y3995570D01*
X947547Y3995737D01*
X947413Y3995837D01*
X947313Y3995937D01*
X947280Y3995970D01*
X947247Y3996003D01*
Y3966000D01*
X942518D01*
Y4004528D01*
X945582D01*
X945815Y4004062D01*
D02*
G37*
G36*
X994000Y3999866D02*
X981346D01*
Y3966000D01*
X976251D01*
Y3999866D01*
X963530D01*
Y4004395D01*
X994000D01*
Y3999866D01*
D02*
G37*
G36*
X1279815Y4004062D02*
X1280115Y4003596D01*
X1280747Y4002663D01*
X1281447Y4001798D01*
X1282146Y4000998D01*
X1282479Y4000665D01*
X1282779Y4000332D01*
X1283045Y4000066D01*
X1283278Y3999833D01*
X1283511Y3999633D01*
X1283644Y3999500D01*
X1283744Y3999400D01*
X1283778Y3999367D01*
X1284910Y3998434D01*
X1286109Y3997568D01*
X1287274Y3996802D01*
X1287807Y3996436D01*
X1288340Y3996137D01*
X1288839Y3995837D01*
X1289272Y3995604D01*
X1289672Y3995371D01*
X1290005Y3995204D01*
X1290271Y3995071D01*
X1290504Y3994971D01*
X1290637Y3994904D01*
X1290671Y3994871D01*
Y3990309D01*
X1289838Y3990642D01*
X1288972Y3991042D01*
X1288140Y3991441D01*
X1287374Y3991841D01*
X1287041Y3992007D01*
X1286708Y3992207D01*
X1286442Y3992340D01*
X1286208Y3992474D01*
X1286009Y3992573D01*
X1285876Y3992673D01*
X1285776Y3992707D01*
X1285742Y3992740D01*
X1284743Y3993339D01*
X1283878Y3993939D01*
X1283112Y3994505D01*
X1282446Y3994971D01*
X1282179Y3995204D01*
X1281946Y3995404D01*
X1281746Y3995570D01*
X1281546Y3995737D01*
X1281413Y3995837D01*
X1281313Y3995937D01*
X1281280Y3995970D01*
X1281247Y3996003D01*
Y3966000D01*
X1276518D01*
Y4004528D01*
X1279582D01*
X1279815Y4004062D01*
D02*
G37*
G36*
X1249978D02*
X1250278Y4003596D01*
X1250910Y4002663D01*
X1251610Y4001798D01*
X1252309Y4000998D01*
X1252642Y4000665D01*
X1252942Y4000332D01*
X1253208Y4000066D01*
X1253441Y3999833D01*
X1253674Y3999633D01*
X1253808Y3999500D01*
X1253908Y3999400D01*
X1253941Y3999367D01*
X1255073Y3998434D01*
X1256272Y3997568D01*
X1257437Y3996802D01*
X1257970Y3996436D01*
X1258503Y3996137D01*
X1259002Y3995837D01*
X1259435Y3995604D01*
X1259835Y3995371D01*
X1260168Y3995204D01*
X1260434Y3995071D01*
X1260667Y3994971D01*
X1260801Y3994904D01*
X1260834Y3994871D01*
Y3990309D01*
X1260001Y3990642D01*
X1259136Y3991042D01*
X1258303Y3991441D01*
X1257537Y3991841D01*
X1257204Y3992007D01*
X1256871Y3992207D01*
X1256605Y3992340D01*
X1256372Y3992474D01*
X1256172Y3992573D01*
X1256039Y3992673D01*
X1255939Y3992707D01*
X1255906Y3992740D01*
X1254907Y3993339D01*
X1254041Y3993939D01*
X1253275Y3994505D01*
X1252609Y3994971D01*
X1252342Y3995204D01*
X1252109Y3995404D01*
X1251909Y3995570D01*
X1251710Y3995737D01*
X1251576Y3995837D01*
X1251477Y3995937D01*
X1251443Y3995970D01*
X1251410Y3996003D01*
Y3966000D01*
X1246681D01*
Y4004528D01*
X1249745D01*
X1249978Y4004062D01*
D02*
G37*
G36*
X1328000Y3999866D02*
X1315346D01*
Y3966000D01*
X1310251D01*
Y3999866D01*
X1297531D01*
Y4004395D01*
X1328000D01*
Y3999866D01*
D02*
G37*
%LPC*%
G36*
X2206819Y1673652D02*
X2189536D01*
Y1661630D01*
X2206819Y1673652D01*
D02*
G37*
G36*
X2204188Y1617441D02*
X2204055D01*
X2203955D01*
X2203922D01*
X2203222Y1617408D01*
X2202590Y1617275D01*
X2202023Y1617108D01*
X2201491Y1616942D01*
X2201058Y1616742D01*
X2200725Y1616575D01*
X2200625Y1616509D01*
X2200525Y1616442D01*
X2200492Y1616409D01*
X2200458D01*
X2199926Y1615976D01*
X2199426Y1615510D01*
X2199060Y1615010D01*
X2198727Y1614511D01*
X2198460Y1614078D01*
X2198294Y1613745D01*
X2198227Y1613612D01*
X2198194Y1613512D01*
X2198161Y1613445D01*
Y1613412D01*
X2198028Y1613012D01*
X2197928Y1612613D01*
X2197761Y1611747D01*
X2197628Y1610848D01*
X2197561Y1609949D01*
X2197528Y1609549D01*
X2197495Y1609183D01*
Y1608850D01*
X2197461Y1608550D01*
Y1597095D01*
X2210182D01*
Y1609216D01*
X2210149Y1609982D01*
X2210115Y1610715D01*
X2210015Y1611381D01*
X2209916Y1611980D01*
X2209782Y1612546D01*
X2209616Y1613046D01*
X2209449Y1613512D01*
X2209316Y1613945D01*
X2209150Y1614278D01*
X2208983Y1614611D01*
X2208817Y1614844D01*
X2208684Y1615077D01*
X2208584Y1615243D01*
X2208484Y1615343D01*
X2208450Y1615410D01*
X2208417Y1615443D01*
X2208084Y1615810D01*
X2207718Y1616109D01*
X2207352Y1616376D01*
X2206985Y1616609D01*
X2206586Y1616809D01*
X2206219Y1616942D01*
X2205520Y1617208D01*
X2204887Y1617341D01*
X2204621Y1617375D01*
X2204388Y1617408D01*
X2204188Y1617441D01*
D02*
G37*
G36*
X2809905Y3239866D02*
X2801014D01*
X2800248Y3239833D01*
X2799549Y3239800D01*
X2798916Y3239733D01*
X2798317Y3239666D01*
X2797784Y3239600D01*
X2797284Y3239533D01*
X2796852Y3239466D01*
X2796485Y3239400D01*
X2796152Y3239333D01*
X2795886Y3239267D01*
X2795686Y3239200D01*
X2795486Y3239133D01*
X2795386Y3239100D01*
X2795320Y3239067D01*
X2795286D01*
X2794754Y3238834D01*
X2794254Y3238567D01*
X2793788Y3238268D01*
X2793355Y3237935D01*
X2792523Y3237202D01*
X2791823Y3236503D01*
X2791523Y3236137D01*
X2791257Y3235803D01*
X2791024Y3235537D01*
X2790858Y3235271D01*
X2790691Y3235038D01*
X2790591Y3234871D01*
X2790524Y3234771D01*
X2790491Y3234738D01*
X2790125Y3234105D01*
X2789825Y3233406D01*
X2789559Y3232673D01*
X2789326Y3231941D01*
X2789126Y3231175D01*
X2788993Y3230376D01*
X2788860Y3229643D01*
X2788726Y3228910D01*
X2788660Y3228211D01*
X2788593Y3227545D01*
X2788560Y3226979D01*
X2788526Y3226479D01*
X2788493Y3226047D01*
Y3225747D01*
Y3225547D01*
Y3225514D01*
Y3225481D01*
Y3224681D01*
X2788526Y3223915D01*
X2788593Y3223183D01*
X2788660Y3222483D01*
X2788726Y3221818D01*
X2788826Y3221218D01*
X2788926Y3220652D01*
X2788993Y3220119D01*
X2789093Y3219653D01*
X2789193Y3219253D01*
X2789292Y3218887D01*
X2789359Y3218587D01*
X2789426Y3218354D01*
X2789492Y3218188D01*
X2789526Y3218088D01*
Y3218055D01*
X2789925Y3216989D01*
X2790391Y3216023D01*
X2790624Y3215590D01*
X2790858Y3215191D01*
X2791091Y3214825D01*
X2791290Y3214492D01*
X2791490Y3214225D01*
X2791690Y3213959D01*
X2791890Y3213726D01*
X2792023Y3213559D01*
X2792156Y3213426D01*
X2792256Y3213326D01*
X2792289Y3213259D01*
X2792323Y3213226D01*
X2792856Y3212760D01*
X2793422Y3212360D01*
X2793988Y3212027D01*
X2794554Y3211728D01*
X2795020Y3211528D01*
X2795420Y3211361D01*
X2795586Y3211295D01*
X2795686Y3211261D01*
X2795753Y3211228D01*
X2795786D01*
X2796219Y3211095D01*
X2796652Y3210995D01*
X2797617Y3210829D01*
X2798583Y3210695D01*
X2799549Y3210629D01*
X2799982Y3210595D01*
X2800415Y3210562D01*
X2800781D01*
X2801081Y3210529D01*
X2809905D01*
Y3239866D01*
D02*
G37*
G36*
X2733249Y3236802D02*
Y3219520D01*
X2745270D01*
X2733249Y3236802D01*
D02*
G37*
G36*
X2146905Y3238866D02*
X2138014D01*
X2137248Y3238833D01*
X2136549Y3238800D01*
X2135916Y3238733D01*
X2135317Y3238666D01*
X2134784Y3238600D01*
X2134284Y3238533D01*
X2133852Y3238466D01*
X2133485Y3238400D01*
X2133152Y3238333D01*
X2132886Y3238267D01*
X2132686Y3238200D01*
X2132486Y3238133D01*
X2132386Y3238100D01*
X2132320Y3238067D01*
X2132286D01*
X2131754Y3237834D01*
X2131254Y3237567D01*
X2130788Y3237268D01*
X2130355Y3236935D01*
X2129523Y3236202D01*
X2128823Y3235503D01*
X2128523Y3235137D01*
X2128257Y3234803D01*
X2128024Y3234537D01*
X2127858Y3234271D01*
X2127691Y3234038D01*
X2127591Y3233871D01*
X2127524Y3233771D01*
X2127491Y3233738D01*
X2127125Y3233105D01*
X2126825Y3232406D01*
X2126559Y3231673D01*
X2126326Y3230941D01*
X2126126Y3230175D01*
X2125993Y3229376D01*
X2125860Y3228643D01*
X2125726Y3227910D01*
X2125660Y3227211D01*
X2125593Y3226545D01*
X2125560Y3225979D01*
X2125526Y3225479D01*
X2125493Y3225047D01*
Y3224747D01*
Y3224547D01*
Y3224514D01*
Y3224481D01*
Y3223681D01*
X2125526Y3222915D01*
X2125593Y3222183D01*
X2125660Y3221483D01*
X2125726Y3220818D01*
X2125826Y3220218D01*
X2125926Y3219652D01*
X2125993Y3219119D01*
X2126093Y3218653D01*
X2126193Y3218253D01*
X2126292Y3217887D01*
X2126359Y3217587D01*
X2126426Y3217354D01*
X2126492Y3217188D01*
X2126526Y3217088D01*
Y3217055D01*
X2126925Y3215989D01*
X2127391Y3215023D01*
X2127624Y3214590D01*
X2127858Y3214191D01*
X2128091Y3213825D01*
X2128290Y3213492D01*
X2128490Y3213225D01*
X2128690Y3212959D01*
X2128890Y3212726D01*
X2129023Y3212559D01*
X2129156Y3212426D01*
X2129256Y3212326D01*
X2129289Y3212259D01*
X2129323Y3212226D01*
X2129856Y3211760D01*
X2130422Y3211360D01*
X2130988Y3211027D01*
X2131554Y3210728D01*
X2132020Y3210528D01*
X2132420Y3210361D01*
X2132586Y3210295D01*
X2132686Y3210261D01*
X2132753Y3210228D01*
X2132786D01*
X2133219Y3210095D01*
X2133652Y3209995D01*
X2134617Y3209829D01*
X2135583Y3209695D01*
X2136549Y3209629D01*
X2136982Y3209595D01*
X2137415Y3209562D01*
X2137781D01*
X2138081Y3209529D01*
X2146905D01*
Y3238866D01*
D02*
G37*
G36*
X1443252Y3322866D02*
X1434361D01*
X1433595Y3322833D01*
X1432895Y3322800D01*
X1432263Y3322733D01*
X1431663Y3322666D01*
X1431130Y3322600D01*
X1430631Y3322533D01*
X1430198Y3322466D01*
X1429832Y3322400D01*
X1429499Y3322333D01*
X1429232Y3322267D01*
X1429033Y3322200D01*
X1428833Y3322133D01*
X1428733Y3322100D01*
X1428666Y3322067D01*
X1428633D01*
X1428100Y3321834D01*
X1427601Y3321567D01*
X1427134Y3321268D01*
X1426701Y3320935D01*
X1425869Y3320202D01*
X1425170Y3319503D01*
X1424870Y3319137D01*
X1424604Y3318803D01*
X1424370Y3318537D01*
X1424204Y3318271D01*
X1424037Y3318038D01*
X1423938Y3317871D01*
X1423871Y3317771D01*
X1423838Y3317738D01*
X1423471Y3317105D01*
X1423172Y3316406D01*
X1422905Y3315673D01*
X1422672Y3314941D01*
X1422472Y3314175D01*
X1422339Y3313376D01*
X1422206Y3312643D01*
X1422073Y3311910D01*
X1422006Y3311211D01*
X1421940Y3310545D01*
X1421906Y3309979D01*
X1421873Y3309479D01*
X1421840Y3309047D01*
Y3308747D01*
Y3308547D01*
Y3308514D01*
Y3308481D01*
Y3307681D01*
X1421873Y3306915D01*
X1421940Y3306183D01*
X1422006Y3305483D01*
X1422073Y3304818D01*
X1422173Y3304218D01*
X1422273Y3303652D01*
X1422339Y3303119D01*
X1422439Y3302653D01*
X1422539Y3302253D01*
X1422639Y3301887D01*
X1422706Y3301587D01*
X1422772Y3301354D01*
X1422839Y3301188D01*
X1422872Y3301088D01*
Y3301055D01*
X1423272Y3299989D01*
X1423738Y3299023D01*
X1423971Y3298590D01*
X1424204Y3298191D01*
X1424437Y3297825D01*
X1424637Y3297492D01*
X1424837Y3297225D01*
X1425036Y3296959D01*
X1425236Y3296726D01*
X1425370Y3296559D01*
X1425503Y3296426D01*
X1425603Y3296326D01*
X1425636Y3296259D01*
X1425669Y3296226D01*
X1426202Y3295760D01*
X1426768Y3295360D01*
X1427334Y3295027D01*
X1427900Y3294728D01*
X1428367Y3294528D01*
X1428766Y3294361D01*
X1428933Y3294295D01*
X1429033Y3294261D01*
X1429099Y3294228D01*
X1429132D01*
X1429565Y3294095D01*
X1429998Y3293995D01*
X1430964Y3293829D01*
X1431930Y3293695D01*
X1432895Y3293629D01*
X1433328Y3293595D01*
X1433761Y3293562D01*
X1434127D01*
X1434427Y3293529D01*
X1443252D01*
Y3322866D01*
D02*
G37*
G36*
X1894779Y729746D02*
X1894480D01*
X1893880Y729713D01*
X1893314Y729646D01*
X1892781Y729546D01*
X1892282Y729380D01*
X1891816Y729213D01*
X1891383Y729013D01*
X1890983Y728813D01*
X1890617Y728614D01*
X1890284Y728381D01*
X1889984Y728181D01*
X1889751Y727981D01*
X1889518Y727814D01*
X1889351Y727648D01*
X1889252Y727548D01*
X1889185Y727481D01*
X1889152Y727448D01*
X1888785Y727015D01*
X1888452Y726516D01*
X1888153Y726016D01*
X1887919Y725484D01*
X1887720Y724984D01*
X1887553Y724451D01*
X1887287Y723452D01*
X1887187Y722986D01*
X1887120Y722553D01*
X1887087Y722154D01*
X1887054Y721821D01*
X1887020Y721554D01*
Y721321D01*
Y721188D01*
Y721154D01*
X1887054Y720389D01*
X1887120Y719689D01*
X1887220Y719023D01*
X1887353Y718391D01*
X1887520Y717824D01*
X1887720Y717292D01*
X1887886Y716792D01*
X1888086Y716359D01*
X1888319Y715960D01*
X1888486Y715593D01*
X1888685Y715327D01*
X1888852Y715061D01*
X1888985Y714861D01*
X1889085Y714728D01*
X1889152Y714661D01*
X1889185Y714628D01*
X1889584Y714195D01*
X1890017Y713828D01*
X1890450Y713529D01*
X1890883Y713229D01*
X1891316Y712996D01*
X1891749Y712830D01*
X1892149Y712663D01*
X1892548Y712530D01*
X1892915Y712430D01*
X1893247Y712363D01*
X1893547Y712297D01*
X1893814Y712263D01*
X1894013D01*
X1894180Y712230D01*
X1894313D01*
X1895079Y712263D01*
X1895778Y712397D01*
X1896444Y712596D01*
X1897010Y712796D01*
X1897510Y712996D01*
X1897710Y713096D01*
X1897876Y713196D01*
X1898009Y713262D01*
X1898109Y713329D01*
X1898176Y713362D01*
X1898209D01*
X1898842Y713828D01*
X1899441Y714395D01*
X1899908Y714961D01*
X1900340Y715494D01*
X1900640Y715993D01*
X1900873Y716393D01*
X1900973Y716559D01*
X1901040Y716659D01*
X1901073Y716726D01*
Y716759D01*
X1901406Y717591D01*
X1901672Y718424D01*
X1901839Y719223D01*
X1901972Y719922D01*
X1902005Y720255D01*
X1902039Y720522D01*
X1902072Y720788D01*
Y721021D01*
X1902105Y721188D01*
Y721321D01*
Y721388D01*
Y721421D01*
X1902072Y722120D01*
X1902005Y722753D01*
X1901906Y723352D01*
X1901772Y723952D01*
X1901606Y724485D01*
X1901406Y724984D01*
X1901206Y725417D01*
X1901006Y725850D01*
X1900807Y726216D01*
X1900607Y726516D01*
X1900407Y726816D01*
X1900241Y727049D01*
X1900107Y727215D01*
X1900007Y727348D01*
X1899941Y727415D01*
X1899908Y727448D01*
X1899475Y727848D01*
X1899042Y728214D01*
X1898575Y728514D01*
X1898109Y728780D01*
X1897643Y729013D01*
X1897210Y729180D01*
X1896777Y729346D01*
X1896344Y729446D01*
X1895978Y729546D01*
X1895612Y729613D01*
X1895279Y729679D01*
X1895012Y729713D01*
X1894779Y729746D01*
D02*
G37*
G36*
X1968905Y742866D02*
X1960014D01*
X1959248Y742833D01*
X1958549Y742799D01*
X1957916Y742733D01*
X1957317Y742666D01*
X1956784Y742600D01*
X1956284Y742533D01*
X1955851Y742466D01*
X1955485Y742400D01*
X1955152Y742333D01*
X1954886Y742267D01*
X1954686Y742200D01*
X1954486Y742134D01*
X1954386Y742100D01*
X1954320Y742067D01*
X1954286D01*
X1953754Y741834D01*
X1953254Y741567D01*
X1952788Y741268D01*
X1952355Y740935D01*
X1951523Y740202D01*
X1950823Y739503D01*
X1950524Y739136D01*
X1950257Y738803D01*
X1950024Y738537D01*
X1949858Y738271D01*
X1949691Y738038D01*
X1949591Y737871D01*
X1949524Y737771D01*
X1949491Y737738D01*
X1949125Y737105D01*
X1948825Y736406D01*
X1948559Y735673D01*
X1948326Y734941D01*
X1948126Y734175D01*
X1947993Y733376D01*
X1947860Y732643D01*
X1947726Y731910D01*
X1947660Y731211D01*
X1947593Y730545D01*
X1947560Y729979D01*
X1947526Y729480D01*
X1947493Y729047D01*
Y728747D01*
Y728547D01*
Y728514D01*
Y728481D01*
Y727681D01*
X1947526Y726915D01*
X1947593Y726183D01*
X1947660Y725484D01*
X1947726Y724817D01*
X1947826Y724218D01*
X1947926Y723652D01*
X1947993Y723119D01*
X1948093Y722653D01*
X1948193Y722253D01*
X1948292Y721887D01*
X1948359Y721587D01*
X1948426Y721354D01*
X1948492Y721188D01*
X1948525Y721088D01*
Y721055D01*
X1948925Y719989D01*
X1949391Y719023D01*
X1949624Y718590D01*
X1949858Y718191D01*
X1950091Y717824D01*
X1950290Y717491D01*
X1950490Y717225D01*
X1950690Y716959D01*
X1950890Y716726D01*
X1951023Y716559D01*
X1951156Y716426D01*
X1951256Y716326D01*
X1951289Y716259D01*
X1951323Y716226D01*
X1951855Y715760D01*
X1952422Y715360D01*
X1952988Y715027D01*
X1953554Y714728D01*
X1954020Y714528D01*
X1954420Y714361D01*
X1954586Y714295D01*
X1954686Y714261D01*
X1954753Y714228D01*
X1954786D01*
X1955219Y714095D01*
X1955652Y713995D01*
X1956617Y713828D01*
X1957583Y713695D01*
X1958549Y713629D01*
X1958982Y713595D01*
X1959415Y713562D01*
X1959781D01*
X1960081Y713529D01*
X1968905D01*
Y742866D01*
D02*
G37*
G36*
X3301182Y3995976D02*
Y3978693D01*
X3313204D01*
X3301182Y3995976D01*
D02*
G37*
G36*
X1950913Y4000632D02*
X1950613D01*
X1950047Y4000599D01*
X1949514Y4000532D01*
X1949015Y4000399D01*
X1948515Y4000266D01*
X1947649Y3999866D01*
X1947250Y3999666D01*
X1946883Y3999433D01*
X1946551Y3999200D01*
X1946251Y3999000D01*
X1946018Y3998800D01*
X1945818Y3998601D01*
X1945651Y3998468D01*
X1945518Y3998334D01*
X1945452Y3998268D01*
X1945418Y3998234D01*
X1945052Y3997768D01*
X1944719Y3997269D01*
X1944419Y3996769D01*
X1944153Y3996236D01*
X1943953Y3995704D01*
X1943787Y3995171D01*
X1943520Y3994139D01*
X1943420Y3993672D01*
X1943354Y3993206D01*
X1943320Y3992807D01*
X1943287Y3992474D01*
X1943254Y3992207D01*
Y3991974D01*
Y3991841D01*
Y3991807D01*
X1943287Y3991075D01*
X1943354Y3990376D01*
X1943454Y3989710D01*
X1943587Y3989110D01*
X1943753Y3988544D01*
X1943920Y3988011D01*
X1944120Y3987545D01*
X1944319Y3987112D01*
X1944519Y3986713D01*
X1944719Y3986380D01*
X1944886Y3986113D01*
X1945052Y3985880D01*
X1945185Y3985680D01*
X1945285Y3985547D01*
X1945352Y3985481D01*
X1945385Y3985447D01*
X1945785Y3985048D01*
X1946217Y3984715D01*
X1946650Y3984415D01*
X1947117Y3984148D01*
X1947550Y3983915D01*
X1948016Y3983749D01*
X1948848Y3983483D01*
X1949248Y3983383D01*
X1949614Y3983316D01*
X1949914Y3983249D01*
X1950214Y3983216D01*
X1950447Y3983183D01*
X1950746D01*
X1951346Y3983216D01*
X1951912Y3983283D01*
X1952445Y3983383D01*
X1952977Y3983549D01*
X1953444Y3983716D01*
X1953910Y3983915D01*
X1954309Y3984115D01*
X1954709Y3984315D01*
X1955042Y3984515D01*
X1955342Y3984748D01*
X1955608Y3984914D01*
X1955808Y3985081D01*
X1955974Y3985247D01*
X1956108Y3985347D01*
X1956174Y3985414D01*
X1956207Y3985447D01*
X1956607Y3985880D01*
X1956940Y3986380D01*
X1957240Y3986846D01*
X1957473Y3987345D01*
X1957706Y3987845D01*
X1957872Y3988344D01*
X1958139Y3989277D01*
X1958206Y3989743D01*
X1958272Y3990142D01*
X1958339Y3990476D01*
X1958372Y3990809D01*
X1958405Y3991042D01*
Y3991241D01*
Y3991375D01*
Y3991408D01*
X1958372Y3992174D01*
X1958305Y3992873D01*
X1958206Y3993539D01*
X1958039Y3994172D01*
X1957872Y3994771D01*
X1957673Y3995304D01*
X1957473Y3995803D01*
X1957240Y3996270D01*
X1957040Y3996669D01*
X1956840Y3997036D01*
X1956640Y3997335D01*
X1956474Y3997602D01*
X1956307Y3997802D01*
X1956207Y3997935D01*
X1956141Y3998035D01*
X1956108Y3998068D01*
X1955675Y3998534D01*
X1955208Y3998900D01*
X1954742Y3999267D01*
X1954276Y3999566D01*
X1953810Y3999800D01*
X1953344Y3999999D01*
X1952911Y4000166D01*
X1952478Y4000299D01*
X1952078Y4000432D01*
X1951745Y4000499D01*
X1951412Y4000565D01*
X1951146Y4000599D01*
X1950913Y4000632D01*
D02*
G37*
G36*
X2284979Y4000665D02*
X2284713D01*
X2284213Y4000632D01*
X2283747Y4000599D01*
X2282881Y4000399D01*
X2282116Y4000099D01*
X2281483Y3999800D01*
X2281183Y3999633D01*
X2280950Y3999466D01*
X2280750Y3999300D01*
X2280584Y3999167D01*
X2280417Y3999067D01*
X2280317Y3998967D01*
X2280284Y3998934D01*
X2280251Y3998900D01*
X2279918Y3998567D01*
X2279651Y3998201D01*
X2279418Y3997835D01*
X2279218Y3997468D01*
X2278885Y3996736D01*
X2278686Y3996070D01*
X2278552Y3995470D01*
X2278519Y3995204D01*
X2278486Y3994971D01*
X2278453Y3994805D01*
Y3994638D01*
Y3994571D01*
Y3994538D01*
X2278486Y3994072D01*
X2278519Y3993639D01*
X2278719Y3992840D01*
X2278985Y3992107D01*
X2279318Y3991508D01*
X2279651Y3991008D01*
X2279785Y3990809D01*
X2279918Y3990642D01*
X2280018Y3990509D01*
X2280118Y3990409D01*
X2280151Y3990376D01*
X2280184Y3990342D01*
X2280517Y3990043D01*
X2280883Y3989776D01*
X2281250Y3989543D01*
X2281616Y3989377D01*
X2282349Y3989044D01*
X2283048Y3988844D01*
X2283681Y3988744D01*
X2283947Y3988711D01*
X2284180Y3988677D01*
X2284380Y3988644D01*
X2284646D01*
X2285179Y3988677D01*
X2285645Y3988711D01*
X2286544Y3988910D01*
X2287344Y3989177D01*
X2287976Y3989510D01*
X2288276Y3989643D01*
X2288509Y3989809D01*
X2288709Y3989943D01*
X2288909Y3990076D01*
X2289042Y3990176D01*
X2289142Y3990276D01*
X2289175Y3990309D01*
X2289209Y3990342D01*
X2289508Y3990675D01*
X2289775Y3991042D01*
X2290008Y3991408D01*
X2290207Y3991774D01*
X2290507Y3992507D01*
X2290707Y3993239D01*
X2290840Y3993839D01*
X2290874Y3994105D01*
X2290907Y3994338D01*
X2290940Y3994538D01*
Y3994671D01*
Y3994771D01*
Y3994805D01*
X2290907Y3995237D01*
X2290874Y3995670D01*
X2290674Y3996470D01*
X2290374Y3997169D01*
X2290041Y3997768D01*
X2289741Y3998268D01*
X2289575Y3998468D01*
X2289442Y3998634D01*
X2289342Y3998767D01*
X2289242Y3998867D01*
X2289209Y3998900D01*
X2289175Y3998934D01*
X2288842Y3999233D01*
X2288476Y3999500D01*
X2288110Y3999733D01*
X2287743Y3999933D01*
X2286977Y4000232D01*
X2286278Y4000465D01*
X2285645Y4000565D01*
X2285379Y4000599D01*
X2285146Y4000632D01*
X2284979Y4000665D01*
D02*
G37*
G36*
X2285146Y3984781D02*
X2284813D01*
X2284180Y3984748D01*
X2283581Y3984681D01*
X2283015Y3984581D01*
X2282482Y3984448D01*
X2281982Y3984248D01*
X2281516Y3984082D01*
X2281083Y3983882D01*
X2280717Y3983682D01*
X2280351Y3983449D01*
X2280051Y3983249D01*
X2279785Y3983083D01*
X2279552Y3982916D01*
X2279385Y3982750D01*
X2279252Y3982650D01*
X2279185Y3982583D01*
X2279152Y3982550D01*
X2278752Y3982117D01*
X2278419Y3981684D01*
X2278086Y3981218D01*
X2277853Y3980719D01*
X2277620Y3980252D01*
X2277454Y3979786D01*
X2277154Y3978887D01*
X2277087Y3978488D01*
X2277021Y3978121D01*
X2276954Y3977788D01*
X2276921Y3977488D01*
X2276887Y3977255D01*
Y3977089D01*
Y3976956D01*
Y3976922D01*
X2276921Y3976323D01*
X2276987Y3975724D01*
X2277087Y3975157D01*
X2277220Y3974625D01*
X2277387Y3974159D01*
X2277587Y3973692D01*
X2277787Y3973293D01*
X2277986Y3972893D01*
X2278186Y3972560D01*
X2278386Y3972260D01*
X2278586Y3971994D01*
X2278752Y3971794D01*
X2278885Y3971628D01*
X2278985Y3971494D01*
X2279052Y3971428D01*
X2279085Y3971395D01*
X2279518Y3971028D01*
X2279951Y3970695D01*
X2280417Y3970396D01*
X2280883Y3970129D01*
X2281350Y3969929D01*
X2281816Y3969763D01*
X2282682Y3969497D01*
X2283081Y3969397D01*
X2283481Y3969330D01*
X2283814Y3969297D01*
X2284080Y3969263D01*
X2284313Y3969230D01*
X2284646D01*
X2285446Y3969263D01*
X2286178Y3969397D01*
X2286878Y3969563D01*
X2287477Y3969763D01*
X2288010Y3969929D01*
X2288209Y3970029D01*
X2288376Y3970096D01*
X2288509Y3970162D01*
X2288609Y3970229D01*
X2288676Y3970262D01*
X2288709D01*
X2289375Y3970695D01*
X2289941Y3971162D01*
X2290441Y3971628D01*
X2290840Y3972094D01*
X2291140Y3972527D01*
X2291373Y3972860D01*
X2291440Y3972993D01*
X2291506Y3973093D01*
X2291539Y3973126D01*
Y3973160D01*
X2291839Y3973859D01*
X2292072Y3974558D01*
X2292239Y3975224D01*
X2292339Y3975823D01*
X2292405Y3976323D01*
X2292439Y3976523D01*
X2292472Y3976723D01*
Y3976856D01*
Y3976956D01*
Y3977022D01*
Y3977056D01*
X2292439Y3977655D01*
X2292372Y3978254D01*
X2292272Y3978787D01*
X2292139Y3979320D01*
X2291972Y3979786D01*
X2291773Y3980252D01*
X2291606Y3980652D01*
X2291373Y3981052D01*
X2291173Y3981385D01*
X2291007Y3981684D01*
X2290807Y3981951D01*
X2290640Y3982151D01*
X2290507Y3982317D01*
X2290407Y3982450D01*
X2290341Y3982517D01*
X2290307Y3982550D01*
X2289874Y3982950D01*
X2289442Y3983283D01*
X2289009Y3983582D01*
X2288543Y3983849D01*
X2288076Y3984049D01*
X2287610Y3984248D01*
X2286744Y3984515D01*
X2286345Y3984581D01*
X2285978Y3984648D01*
X2285645Y3984715D01*
X2285379Y3984748D01*
X2285146Y3984781D01*
D02*
G37*
G36*
X3641662Y3982572D02*
X3641362D01*
X3640763Y3982539D01*
X3640197Y3982472D01*
X3639664Y3982372D01*
X3639164Y3982206D01*
X3638698Y3982039D01*
X3638265Y3981839D01*
X3637865Y3981640D01*
X3637499Y3981440D01*
X3637166Y3981207D01*
X3636867Y3981007D01*
X3636633Y3980807D01*
X3636400Y3980640D01*
X3636234Y3980474D01*
X3636134Y3980374D01*
X3636067Y3980307D01*
X3636034Y3980274D01*
X3635668Y3979841D01*
X3635335Y3979342D01*
X3635035Y3978842D01*
X3634802Y3978309D01*
X3634602Y3977810D01*
X3634436Y3977277D01*
X3634169Y3976278D01*
X3634069Y3975812D01*
X3634003Y3975379D01*
X3633969Y3974979D01*
X3633936Y3974646D01*
X3633903Y3974380D01*
Y3974147D01*
Y3974014D01*
Y3973981D01*
X3633936Y3973215D01*
X3634003Y3972515D01*
X3634103Y3971849D01*
X3634236Y3971217D01*
X3634402Y3970651D01*
X3634602Y3970118D01*
X3634769Y3969618D01*
X3634968Y3969185D01*
X3635202Y3968786D01*
X3635368Y3968419D01*
X3635568Y3968153D01*
X3635734Y3967887D01*
X3635867Y3967687D01*
X3635967Y3967554D01*
X3636034Y3967487D01*
X3636067Y3967454D01*
X3636467Y3967021D01*
X3636900Y3966655D01*
X3637333Y3966355D01*
X3637766Y3966055D01*
X3638198Y3965822D01*
X3638631Y3965655D01*
X3639031Y3965489D01*
X3639431Y3965356D01*
X3639797Y3965256D01*
X3640130Y3965189D01*
X3640430Y3965123D01*
X3640696Y3965089D01*
X3640896D01*
X3641062Y3965056D01*
X3641195D01*
X3641961Y3965089D01*
X3642661Y3965223D01*
X3643327Y3965422D01*
X3643893Y3965622D01*
X3644392Y3965822D01*
X3644592Y3965922D01*
X3644759Y3966022D01*
X3644892Y3966088D01*
X3644992Y3966155D01*
X3645058Y3966188D01*
X3645092D01*
X3645724Y3966655D01*
X3646324Y3967221D01*
X3646790Y3967787D01*
X3647223Y3968320D01*
X3647523Y3968819D01*
X3647756Y3969219D01*
X3647856Y3969385D01*
X3647922Y3969485D01*
X3647955Y3969552D01*
Y3969585D01*
X3648288Y3970417D01*
X3648555Y3971250D01*
X3648721Y3972049D01*
X3648854Y3972748D01*
X3648888Y3973081D01*
X3648921Y3973348D01*
X3648954Y3973614D01*
Y3973847D01*
X3648988Y3974014D01*
Y3974147D01*
Y3974214D01*
Y3974247D01*
X3648954Y3974946D01*
X3648888Y3975579D01*
X3648788Y3976178D01*
X3648655Y3976778D01*
X3648488Y3977311D01*
X3648288Y3977810D01*
X3648089Y3978243D01*
X3647889Y3978676D01*
X3647689Y3979042D01*
X3647489Y3979342D01*
X3647289Y3979642D01*
X3647123Y3979875D01*
X3646990Y3980041D01*
X3646890Y3980174D01*
X3646823Y3980241D01*
X3646790Y3980274D01*
X3646357Y3980674D01*
X3645924Y3981040D01*
X3645458Y3981340D01*
X3644992Y3981606D01*
X3644526Y3981839D01*
X3644093Y3982006D01*
X3643660Y3982172D01*
X3643227Y3982272D01*
X3642860Y3982372D01*
X3642494Y3982439D01*
X3642161Y3982505D01*
X3641895Y3982539D01*
X3641662Y3982572D01*
D02*
G37*
G36*
X1587109Y4000632D02*
X1586976D01*
X1586377Y4000599D01*
X1585777Y4000499D01*
X1585245Y4000332D01*
X1584712Y4000133D01*
X1584245Y3999899D01*
X1583779Y3999633D01*
X1583380Y3999367D01*
X1582980Y3999067D01*
X1582647Y3998767D01*
X1582347Y3998501D01*
X1582081Y3998234D01*
X1581881Y3998001D01*
X1581715Y3997802D01*
X1581582Y3997635D01*
X1581515Y3997535D01*
X1581482Y3997502D01*
X1581282Y3997202D01*
X1581082Y3996836D01*
X1580749Y3996070D01*
X1580449Y3995171D01*
X1580183Y3994205D01*
X1579983Y3993206D01*
X1579783Y3992140D01*
X1579650Y3991075D01*
X1579517Y3990043D01*
X1579450Y3989010D01*
X1579384Y3988078D01*
X1579317Y3987212D01*
X1579284Y3986446D01*
Y3986113D01*
X1579251Y3985814D01*
Y3985547D01*
Y3985314D01*
Y3985148D01*
Y3985014D01*
Y3984948D01*
Y3984914D01*
Y3984049D01*
X1579284Y3983216D01*
X1579317Y3982417D01*
X1579350Y3981684D01*
X1579384Y3980952D01*
X1579450Y3980252D01*
X1579517Y3979586D01*
X1579583Y3978987D01*
X1579783Y3977822D01*
X1579950Y3976789D01*
X1580150Y3975890D01*
X1580349Y3975091D01*
X1580582Y3974425D01*
X1580782Y3973859D01*
X1580949Y3973359D01*
X1581115Y3972993D01*
X1581282Y3972727D01*
X1581382Y3972527D01*
X1581448Y3972394D01*
X1581482Y3972360D01*
X1581915Y3971794D01*
X1582347Y3971328D01*
X1582814Y3970895D01*
X1583246Y3970562D01*
X1583713Y3970262D01*
X1584179Y3969996D01*
X1584612Y3969796D01*
X1585011Y3969630D01*
X1585411Y3969497D01*
X1585777Y3969397D01*
X1586077Y3969330D01*
X1586377Y3969297D01*
X1586610Y3969263D01*
X1586776Y3969230D01*
X1586909D01*
X1587509Y3969263D01*
X1588075Y3969363D01*
X1588608Y3969530D01*
X1589141Y3969730D01*
X1589607Y3969963D01*
X1590073Y3970196D01*
X1590473Y3970495D01*
X1590872Y3970795D01*
X1591205Y3971062D01*
X1591505Y3971361D01*
X1591771Y3971594D01*
X1591971Y3971861D01*
X1592138Y3972027D01*
X1592271Y3972194D01*
X1592337Y3972294D01*
X1592371Y3972327D01*
X1592571Y3972627D01*
X1592770Y3972993D01*
X1593103Y3973759D01*
X1593403Y3974658D01*
X1593636Y3975624D01*
X1593869Y3976623D01*
X1594036Y3977688D01*
X1594169Y3978754D01*
X1594302Y3979786D01*
X1594369Y3980818D01*
X1594435Y3981751D01*
X1594502Y3982617D01*
X1594535Y3983383D01*
Y3983716D01*
X1594569Y3984015D01*
Y3984282D01*
Y3984515D01*
Y3984681D01*
Y3984814D01*
Y3984881D01*
Y3984914D01*
Y3985780D01*
X1594535Y3986613D01*
X1594502Y3987412D01*
X1594469Y3988178D01*
X1594335Y3989610D01*
X1594202Y3990942D01*
X1594002Y3992107D01*
X1593803Y3993173D01*
X1593603Y3994105D01*
X1593370Y3994938D01*
X1593137Y3995670D01*
X1592937Y3996270D01*
X1592737Y3996769D01*
X1592537Y3997169D01*
X1592404Y3997468D01*
X1592271Y3997702D01*
X1592204Y3997835D01*
X1592171Y3997868D01*
X1591771Y3998368D01*
X1591372Y3998767D01*
X1590972Y3999167D01*
X1590539Y3999466D01*
X1590106Y3999733D01*
X1589673Y3999966D01*
X1589241Y4000133D01*
X1588841Y4000299D01*
X1588441Y4000399D01*
X1588108Y4000499D01*
X1587775Y4000532D01*
X1587509Y4000599D01*
X1587276D01*
X1587109Y4000632D01*
D02*
G37*
%LPD*%
D33*
X2665937Y3207000D02*
G03*
X2665937Y3207000I-3937J0D01*
G01*
X2000937Y601000D02*
G03*
X2000937Y601000I-3937J0D01*
G01*
X1998937Y3205000D02*
G03*
X1998937Y3205000I-3937J0D01*
G01*
X1304213Y3290000D02*
G03*
X1304213Y3290000I-3937J0D01*
G01*
D34*
X1217244Y3800922D02*
G03*
X1217244Y3800922I-4921J0D01*
G01*
X882953Y3800922D02*
G03*
X882953Y3800922I-4921J0D01*
G01*
X1551534Y3800922D02*
G03*
X1551534Y3800922I-4921J0D01*
G01*
X2554646Y3799921D02*
G03*
X2554646Y3799921I-4921J0D01*
G01*
X3576646Y3796748D02*
G03*
X3576646Y3796748I-4921J0D01*
G01*
X2896646Y3799921D02*
G03*
X2896646Y3799921I-4921J0D01*
G01*
X2220116Y3800922D02*
G03*
X2220116Y3800922I-4921J0D01*
G01*
X1885825D02*
G03*
X1885825Y3800922I-4921J0D01*
G01*
X4225859Y3800922D02*
G03*
X4225859Y3800922I-4921J0D01*
G01*
X3891569D02*
G03*
X3891569Y3800922I-4921J0D01*
G01*
X3239278Y3800095D02*
G03*
X3239278Y3800095I-4921J0D01*
G01*
D35*
X2036087Y1595567D02*
Y1603441D01*
Y1595567D02*
X2169945D01*
Y1603441D01*
X2036087Y1658559D02*
Y1666433D01*
X2169945D01*
Y1658559D02*
Y1666433D01*
X2103016Y1595567D02*
Y1666433D01*
D36*
X2742000Y3122000D02*
Y3177000D01*
X2712000Y3152000D02*
X2742000Y3122000D01*
X2712000Y3152000D02*
X2742000Y3182000D01*
Y3177000D02*
Y3182000D01*
X1917000Y626000D02*
Y631000D01*
Y626000D02*
X1947000Y656000D01*
X1917000Y686000D02*
X1947000Y656000D01*
X1917000Y631000D02*
Y686000D01*
X2075000Y3175000D02*
Y3180000D01*
X2045000Y3150000D02*
X2075000Y3180000D01*
X2045000Y3150000D02*
X2075000Y3120000D01*
Y3175000D01*
X1380276Y3260000D02*
Y3265000D01*
X1350276Y3235000D02*
X1380276Y3265000D01*
X1350276Y3235000D02*
X1380276Y3205000D01*
Y3260000D01*
D37*
X1279252Y3907221D02*
Y3934780D01*
X1239882D02*
X1279252D01*
Y3816670D02*
Y3844229D01*
X1239882Y3816670D02*
X1279252D01*
X944961Y3907221D02*
Y3934780D01*
X905591D02*
X944961D01*
Y3816670D02*
Y3844229D01*
X905591Y3816670D02*
X944961D01*
X1613542Y3907221D02*
Y3934780D01*
X1574172D02*
X1613542D01*
Y3816670D02*
Y3844229D01*
X1574172Y3816670D02*
X1613542D01*
X2616653Y3906220D02*
Y3933779D01*
X2577283D02*
X2616653D01*
Y3815669D02*
Y3843228D01*
X2577283Y3815669D02*
X2616653D01*
X3638653Y3903047D02*
Y3930606D01*
X3599283D02*
X3638653D01*
Y3812496D02*
Y3840055D01*
X3599283Y3812496D02*
X3638653D01*
X2958653Y3906220D02*
Y3933780D01*
X2919283D02*
X2958653D01*
Y3815669D02*
Y3843228D01*
X2919283Y3815669D02*
X2958653D01*
X2282124Y3907221D02*
Y3934780D01*
X2242753D02*
X2282124D01*
Y3816670D02*
Y3844229D01*
X2242753Y3816670D02*
X2282124D01*
X1947833Y3907221D02*
Y3934780D01*
X1908463D02*
X1947833D01*
Y3816670D02*
Y3844229D01*
X1908463Y3816670D02*
X1947833D01*
X4287867Y3907221D02*
Y3934780D01*
X4248497D02*
X4287867D01*
Y3816670D02*
Y3844229D01*
X4248497Y3816670D02*
X4287867D01*
X3953577Y3907221D02*
Y3934780D01*
X3914206D02*
X3953577D01*
Y3816670D02*
Y3844229D01*
X3914206Y3816670D02*
X3953577D01*
X3301286Y3906395D02*
Y3933954D01*
X3261916D02*
X3301286D01*
Y3815843D02*
Y3843403D01*
X3261916Y3815843D02*
X3301286D01*
%TF.MD5,11127846c16570df127c31ada5aa4cff*%
M02*
