%TF.GenerationSoftware,Altium Limited,Altium Designer,19.0.10 (269)*%
G04 Layer_Color=128*
%FSLAX26Y26*%
%MOIN*%
%TF.FileFunction,Drillmap*%
%TF.Part,Single*%
G01*
G75*
%TA.AperFunction,NonConductor*%
%ADD72C,0.005000*%
D72*
X1323811Y2052071D02*
X1390740D01*
X1357276Y2018606D02*
Y2085535D01*
X933260Y2052071D02*
X1000189D01*
X966724Y2018606D02*
Y2085535D01*
X1323811Y2185929D02*
X1390740D01*
X1357276Y2152465D02*
Y2219394D01*
X933260Y2185929D02*
X1000189D01*
X966724Y2152465D02*
Y2219394D01*
X1591379Y2186206D02*
X1658308D01*
X1624843Y2152742D02*
Y2219671D01*
X1591379Y2576757D02*
X1658308D01*
X1624843Y2543293D02*
Y2610222D01*
X1725237Y2186206D02*
X1792166D01*
X1758701Y2152742D02*
Y2219671D01*
X1725237Y2576757D02*
X1792166D01*
X1758701Y2543293D02*
Y2610222D01*
X2280025Y2181724D02*
X2346954D01*
X2313490Y2148260D02*
Y2215189D01*
X2280025Y2572276D02*
X2346954D01*
X2313490Y2538811D02*
Y2605740D01*
X2413883Y2181724D02*
X2480812D01*
X2447348Y2148260D02*
Y2215189D01*
X2413883Y2572276D02*
X2480812D01*
X2447348Y2538811D02*
Y2605740D01*
X2945700Y2183724D02*
X3012629D01*
X2979165Y2150260D02*
Y2217189D01*
X2945700Y2574276D02*
X3012629D01*
X2979165Y2540811D02*
Y2607740D01*
X3079559Y2183724D02*
X3146488D01*
X3113023Y2150260D02*
Y2217189D01*
X3079559Y2574276D02*
X3146488D01*
X3113023Y2540811D02*
Y2607740D01*
X3265897Y2184449D02*
X3332826D01*
X3299361Y2150984D02*
Y2217913D01*
X3265897Y2575000D02*
X3332826D01*
X3299361Y2541535D02*
Y2608465D01*
X3399755Y2184449D02*
X3466684D01*
X3433220Y2150984D02*
Y2217913D01*
X3399755Y2575000D02*
X3466684D01*
X3433220Y2541535D02*
Y2608465D01*
X3604782Y2184724D02*
X3671711D01*
X3638246Y2151260D02*
Y2218189D01*
X3604782Y2575276D02*
X3671711D01*
X3638246Y2541811D02*
Y2608740D01*
X3738640Y2184724D02*
X3805569D01*
X3772104Y2151260D02*
Y2218189D01*
X3738640Y2575276D02*
X3805569D01*
X3772104Y2541811D02*
Y2608740D01*
X3944914Y2184898D02*
X4011843D01*
X3978379Y2151434D02*
Y2218363D01*
X3944914Y2575450D02*
X4011843D01*
X3978379Y2541985D02*
Y2608914D01*
X4078772Y2184898D02*
X4145701D01*
X4112237Y2151434D02*
Y2218363D01*
X4078772Y2575450D02*
X4145701D01*
X4112237Y2541985D02*
Y2608914D01*
X3697772Y1771450D02*
X3764701D01*
X3731237Y1737985D02*
Y1804914D01*
X3697772Y1380898D02*
X3764701D01*
X3731237Y1347434D02*
Y1414363D01*
X3563914Y1771450D02*
X3630843D01*
X3597378Y1737985D02*
Y1804914D01*
X3563914Y1380898D02*
X3630843D01*
X3597378Y1347434D02*
Y1414363D01*
X3343422Y1771000D02*
X3410351D01*
X3376886Y1737535D02*
Y1804465D01*
X3343422Y1380449D02*
X3410351D01*
X3376886Y1346984D02*
Y1413913D01*
X3209564Y1771000D02*
X3276492D01*
X3243028Y1737535D02*
Y1804465D01*
X3209564Y1380449D02*
X3276492D01*
X3243028Y1346984D02*
Y1413913D01*
X2989106Y1771450D02*
X3056035D01*
X3022570Y1737985D02*
Y1804914D01*
X2989106Y1380898D02*
X3056035D01*
X3022570Y1347434D02*
Y1414363D01*
X2855247Y1771450D02*
X2922176D01*
X2888712Y1737985D02*
Y1804914D01*
X2855247Y1380898D02*
X2922176D01*
X2888712Y1347434D02*
Y1414363D01*
X2634237Y1771757D02*
X2701166D01*
X2667701Y1738293D02*
Y1805222D01*
X2634237Y1381206D02*
X2701166D01*
X2667701Y1347742D02*
Y1414670D01*
X2500378Y1771757D02*
X2567307D01*
X2533843Y1738293D02*
Y1805222D01*
X2500378Y1381206D02*
X2567307D01*
X2533843Y1347742D02*
Y1414670D01*
X2279465Y1771456D02*
X2346394D01*
X2312929Y1737992D02*
Y1804920D01*
X2279465Y1380905D02*
X2346394D01*
X2312929Y1347440D02*
Y1414369D01*
X2145606Y1771456D02*
X2212535D01*
X2179071Y1737992D02*
Y1804920D01*
X2145606Y1380905D02*
X2212535D01*
X2179071Y1347440D02*
Y1414369D01*
X695276Y2269685D02*
X746457D01*
X720866Y2244095D02*
Y2295276D01*
X695276Y2387795D02*
X746457D01*
X720866Y2362205D02*
Y2413386D01*
X695276Y2505905D02*
X746457D01*
X720866Y2480315D02*
Y2531496D01*
X695276Y2624016D02*
X746457D01*
X720866Y2598425D02*
Y2649606D01*
X695276Y2742126D02*
X746457D01*
X720866Y2716535D02*
Y2767716D01*
X695276Y2860236D02*
X746457D01*
X720866Y2834646D02*
Y2885827D01*
X695276Y2978347D02*
X746457D01*
X720866Y2952756D02*
Y3003937D01*
X695276Y3096457D02*
X746457D01*
X720866Y3070866D02*
Y3122047D01*
X695276Y3214567D02*
X746457D01*
X720866Y3188976D02*
Y3240157D01*
X596850Y2328740D02*
X648031D01*
X622441Y2303150D02*
Y2354331D01*
X596850Y2446850D02*
X648031D01*
X622441Y2421260D02*
Y2472441D01*
X596850Y2564961D02*
X648031D01*
X622441Y2539370D02*
Y2590551D01*
X596850Y2683071D02*
X648031D01*
X622441Y2657480D02*
Y2708661D01*
X596850Y2801181D02*
X648031D01*
X622441Y2775591D02*
Y2826772D01*
X596850Y2919291D02*
X648031D01*
X622441Y2893701D02*
Y2944882D01*
X596850Y3037402D02*
X648031D01*
X622441Y3011811D02*
Y3062992D01*
X596850Y3155512D02*
X648031D01*
X622441Y3129921D02*
Y3181102D01*
X478740Y2328740D02*
X529921D01*
X504331Y2303150D02*
Y2354331D01*
X478740Y2446850D02*
X529921D01*
X504331Y2421260D02*
Y2472441D01*
X478740Y2564961D02*
X529921D01*
X504331Y2539370D02*
Y2590551D01*
X478740Y2683071D02*
X529921D01*
X504331Y2657480D02*
Y2708661D01*
X478740Y2801181D02*
X529921D01*
X504331Y2775591D02*
Y2826772D01*
X478740Y2919291D02*
X529921D01*
X504331Y2893701D02*
Y2944882D01*
X478740Y3037402D02*
X529921D01*
X504331Y3011811D02*
Y3062992D01*
X478740Y3155512D02*
X529921D01*
X504331Y3129921D02*
Y3181102D01*
X380315Y2269685D02*
X431496D01*
X405906Y2244095D02*
Y2295276D01*
X380315Y2387795D02*
X431496D01*
X405906Y2362205D02*
Y2413386D01*
X380315Y2505905D02*
X431496D01*
X405906Y2480315D02*
Y2531496D01*
X380315Y2624016D02*
X431496D01*
X405906Y2598425D02*
Y2649606D01*
X380315Y2742126D02*
X431496D01*
X405906Y2716535D02*
Y2767716D01*
X380315Y2860236D02*
X431496D01*
X405906Y2834646D02*
Y2885827D01*
X380315Y2978347D02*
X431496D01*
X405906Y2952756D02*
Y3003937D01*
X380315Y3096457D02*
X431496D01*
X405906Y3070866D02*
Y3122047D01*
X380315Y3214567D02*
X431496D01*
X405906Y3188976D02*
Y3240157D01*
X85039Y704724D02*
X214961D01*
X150000Y639764D02*
Y769685D01*
X380315Y1698819D02*
X431496D01*
X405906Y1673228D02*
Y1724409D01*
X380315Y1580709D02*
X431496D01*
X405906Y1555118D02*
Y1606299D01*
X380315Y1462599D02*
X431496D01*
X405906Y1437008D02*
Y1488189D01*
X380315Y1344488D02*
X431496D01*
X405906Y1318898D02*
Y1370079D01*
X380315Y1226378D02*
X431496D01*
X405906Y1200787D02*
Y1251968D01*
X380315Y1108268D02*
X431496D01*
X405906Y1082677D02*
Y1133858D01*
X380315Y990158D02*
X431496D01*
X405906Y964567D02*
Y1015748D01*
X478740Y1639764D02*
X529921D01*
X504331Y1614173D02*
Y1665354D01*
X478740Y1521654D02*
X529921D01*
X504331Y1496063D02*
Y1547244D01*
X478740Y1403543D02*
X529921D01*
X504331Y1377953D02*
Y1429134D01*
X478740Y1285433D02*
X529921D01*
X504331Y1259843D02*
Y1311024D01*
X478740Y1167323D02*
X529921D01*
X504331Y1141732D02*
Y1192913D01*
X478740Y1049213D02*
X529921D01*
X504331Y1023622D02*
Y1074803D01*
X596850Y1639764D02*
X648031D01*
X622441Y1614173D02*
Y1665354D01*
X596850Y1521654D02*
X648031D01*
X622441Y1496063D02*
Y1547244D01*
X596850Y1403543D02*
X648031D01*
X622441Y1377953D02*
Y1429134D01*
X596850Y1285433D02*
X648031D01*
X622441Y1259843D02*
Y1311024D01*
X596850Y1167323D02*
X648031D01*
X622441Y1141732D02*
Y1192913D01*
X596850Y1049213D02*
X648031D01*
X622441Y1023622D02*
Y1074803D01*
X695276Y1698819D02*
X746457D01*
X720866Y1673228D02*
Y1724409D01*
X695276Y1580709D02*
X746457D01*
X720866Y1555118D02*
Y1606299D01*
X695276Y1462599D02*
X746457D01*
X720866Y1437008D02*
Y1488189D01*
X695276Y1344488D02*
X746457D01*
X720866Y1318898D02*
Y1370079D01*
X695276Y1226378D02*
X746457D01*
X720866Y1200787D02*
Y1251968D01*
X695276Y1108268D02*
X746457D01*
X720866Y1082677D02*
Y1133858D01*
X695276Y990158D02*
X746457D01*
X720866Y964567D02*
Y1015748D01*
X85039Y1984252D02*
X214961D01*
X150000Y1919291D02*
Y2049213D01*
X85039Y3500000D02*
X214961D01*
X150000Y3435039D02*
Y3564961D01*
X4637500Y300000D02*
X4762500D01*
X4700000Y237500D02*
Y362500D01*
X4637500Y3900000D02*
X4762500D01*
X4700000Y3837500D02*
Y3962500D01*
X237500Y3900000D02*
X362500D01*
X300000Y3837500D02*
Y3962500D01*
X237500Y300000D02*
X362500D01*
X300000Y237500D02*
Y362500D01*
X2617097Y2449512D02*
X2672215D01*
X2644656Y2421953D02*
Y2477071D01*
X2591506Y2823528D02*
X2646624D01*
X2619065Y2795968D02*
Y2851086D01*
X2741112Y2685732D02*
X2796230D01*
X2768671Y2658173D02*
Y2713291D01*
X2792293Y3040063D02*
X2835600D01*
X2813947Y3018410D02*
Y3061716D01*
X2623002Y3040063D02*
X2666309D01*
X2644656Y3018410D02*
Y3061716D01*
X1951441Y2452449D02*
X2006560D01*
X1979001Y2424890D02*
Y2480008D01*
X1925851Y2826465D02*
X1980969D01*
X1953410Y2798906D02*
Y2854024D01*
X2075457Y2688670D02*
X2130575D01*
X2103016Y2661111D02*
Y2716229D01*
X2126638Y3043001D02*
X2169945D01*
X2148292Y3021347D02*
Y3064654D01*
X1957347Y3043001D02*
X2000654D01*
X1979001Y3021347D02*
Y3064654D01*
X1259441Y2531449D02*
X1314559D01*
X1287000Y2503890D02*
Y2559008D01*
X1233850Y2905465D02*
X1288968D01*
X1261409Y2877905D02*
Y2933023D01*
X1383457Y2767669D02*
X1438575D01*
X1411016Y2740110D02*
Y2795228D01*
X1434638Y3122000D02*
X1477945D01*
X1456291Y3100347D02*
Y3143653D01*
X1265347Y3122000D02*
X1308653D01*
X1287000Y3100347D02*
Y3143653D01*
X1984370Y1364551D02*
X2039488D01*
X2011929Y1336992D02*
Y1392110D01*
X2009961Y990535D02*
X2065079D01*
X2037520Y962976D02*
Y1018095D01*
X1860354Y1128331D02*
X1915472D01*
X1887913Y1100772D02*
Y1155890D01*
X1820984Y774000D02*
X1864291D01*
X1842638Y752346D02*
Y795654D01*
X1990275Y774000D02*
X2033582D01*
X2011929Y752346D02*
Y795654D01*
X4595000Y3395000D02*
X4623000D01*
X4609000Y3381000D02*
Y3409000D01*
X4595000Y3497586D02*
X4623000D01*
X4609000Y3483586D02*
Y3511586D01*
X1911500Y1669000D02*
X1926500D01*
X1919000Y1661500D02*
Y1676500D01*
X1834500Y1709250D02*
X1849500D01*
X1842000Y1701750D02*
Y1716750D01*
X1911500Y1749500D02*
X1926500D01*
X1919000Y1742000D02*
Y1757000D01*
X1911500Y1789750D02*
X1926500D01*
X1919000Y1782250D02*
Y1797250D01*
X1911500Y1709250D02*
X1926500D01*
X1919000Y1701750D02*
Y1716750D01*
X1872500Y1709250D02*
X1887500D01*
X1880000Y1701750D02*
Y1716750D01*
X1758500Y1709250D02*
X1773500D01*
X1766000Y1701750D02*
Y1716750D01*
X1758500Y1789750D02*
X1773500D01*
X1766000Y1782250D02*
Y1797250D01*
X1758500Y1749500D02*
X1773500D01*
X1766000Y1742000D02*
Y1757000D01*
X1834500Y1749500D02*
X1849500D01*
X1842000Y1742000D02*
Y1757000D01*
X1872500Y1749500D02*
X1887500D01*
X1880000Y1742000D02*
Y1757000D01*
X1796500Y1749500D02*
X1811500D01*
X1804000Y1742000D02*
Y1757000D01*
X1796500Y1789750D02*
X1811500D01*
X1804000Y1782250D02*
Y1797250D01*
X1872500Y1789750D02*
X1887500D01*
X1880000Y1782250D02*
Y1797250D01*
X1834500Y1789750D02*
X1849500D01*
X1842000Y1782250D02*
Y1797250D01*
X1796500Y1709250D02*
X1811500D01*
X1804000Y1701750D02*
Y1716750D01*
X1872500Y1669000D02*
X1887500D01*
X1880000Y1661500D02*
Y1676500D01*
X1834500Y1669000D02*
X1849500D01*
X1842000Y1661500D02*
Y1676500D01*
X1796500Y1669000D02*
X1811500D01*
X1804000Y1661500D02*
Y1676500D01*
X1758500Y1669000D02*
X1773500D01*
X1766000Y1661500D02*
Y1676500D01*
X1806000Y1318000D02*
X1834000D01*
X1820000Y1304000D02*
Y1332000D01*
X3692054Y3595826D02*
X3720054D01*
X3706054Y3581826D02*
Y3609826D01*
X2660054Y3598998D02*
X2688054D01*
X2674054Y3584998D02*
Y3612998D01*
X2279935Y3768482D02*
X2307935D01*
X2293935Y3754482D02*
Y3782482D01*
X2126000Y1551000D02*
X2154000D01*
X2140000Y1537000D02*
Y1565000D01*
X1108000Y1551000D02*
X1136000D01*
X1122000Y1537000D02*
Y1565000D01*
X1210000Y1440000D02*
X1238000D01*
X1224000Y1426000D02*
Y1454000D01*
X1164000Y1647000D02*
X1192000D01*
X1178000Y1633000D02*
Y1661000D01*
X1740000Y1506000D02*
X1768000D01*
X1754000Y1492000D02*
Y1520000D01*
X1440000Y1322000D02*
X1468000D01*
X1454000Y1308000D02*
Y1336000D01*
X1210000Y1322000D02*
X1238000D01*
X1224000Y1308000D02*
Y1336000D01*
X1440000Y1440000D02*
X1468000D01*
X1454000Y1426000D02*
Y1454000D01*
X1096000Y1381206D02*
X1124000D01*
X1110000Y1367206D02*
Y1395206D01*
X2142000Y966000D02*
X2170000D01*
X2156000Y952000D02*
Y980000D01*
X192000Y2978000D02*
X220000D01*
X206000Y2964000D02*
Y2992000D01*
X283000Y3037402D02*
X311000D01*
X297000Y3023402D02*
Y3051402D01*
X1862294Y3570439D02*
X1890294D01*
X1876294Y3556439D02*
Y3584439D01*
X1749000Y3160000D02*
X1777000D01*
X1763000Y3146000D02*
Y3174000D01*
X920000Y3524000D02*
X948000D01*
X934000Y3510000D02*
Y3538000D01*
X3514000Y1553000D02*
X3542000D01*
X3528000Y1539000D02*
Y1567000D01*
X2353000Y3048000D02*
X2381000D01*
X2367000Y3034000D02*
Y3062000D01*
X2462217Y3214567D02*
X2490217D01*
X2476217Y3200567D02*
Y3228567D01*
X150695Y2380000D02*
X178695D01*
X164695Y2366000D02*
Y2394000D01*
X166000Y2769010D02*
X194000D01*
X180000Y2755010D02*
Y2783010D01*
X4330456Y3600000D02*
X4358456D01*
X4344456Y3586000D02*
Y3614000D01*
X583000Y3810000D02*
X611000D01*
X597000Y3796000D02*
Y3824000D01*
X4846000Y2850000D02*
X4874000D01*
X4860000Y2836000D02*
Y2864000D01*
X213000Y1634278D02*
X241000D01*
X227000Y1620278D02*
Y1648278D01*
X476000Y2162952D02*
X504000D01*
X490000Y2148952D02*
Y2176952D01*
X376000Y1990000D02*
X404000D01*
X390000Y1976000D02*
Y2004000D01*
X3859000Y2396000D02*
X3887000D01*
X3873000Y2382000D02*
Y2410000D01*
X3188201Y2400000D02*
X3216201D01*
X3202201Y2386000D02*
Y2414000D01*
X2766726Y1510000D02*
X2794726D01*
X2780726Y1496000D02*
Y1524000D01*
X4696000Y1420000D02*
X4724000D01*
X4710000Y1406000D02*
Y1434000D01*
X4496000Y2710000D02*
X4524000D01*
X4510000Y2696000D02*
Y2724000D01*
X3916000Y3120000D02*
X3944000D01*
X3930000Y3106000D02*
Y3134000D01*
X3406000Y2980000D02*
X3434000D01*
X3420000Y2966000D02*
Y2994000D01*
X2976000Y2840465D02*
X3004000D01*
X2990000Y2826465D02*
Y2854465D01*
X2426000Y2884821D02*
X2454000D01*
X2440000Y2870821D02*
Y2898821D01*
X1156000Y1984252D02*
X1184000D01*
X1170000Y1970252D02*
Y1998252D01*
X972000Y2570000D02*
X1000000D01*
X986000Y2556000D02*
Y2584000D01*
X955000Y1381206D02*
X983000D01*
X969000Y1367206D02*
Y1395206D01*
X906000Y1000000D02*
X934000D01*
X920000Y986000D02*
Y1014000D01*
X1326000Y930000D02*
X1354000D01*
X1340000Y916000D02*
Y944000D01*
X2166000Y1060000D02*
X2194000D01*
X2180000Y1046000D02*
Y1074000D01*
X1406000Y700000D02*
X1434000D01*
X1420000Y686000D02*
Y714000D01*
X2587000Y1215000D02*
X2615000D01*
X2601000Y1201000D02*
Y1229000D01*
X2546000Y822000D02*
X2574000D01*
X2560000Y808000D02*
Y836000D01*
X2869776Y820000D02*
X2897776D01*
X2883776Y806000D02*
Y834000D01*
X4290000Y1270000D02*
X4318000D01*
X4304000Y1256000D02*
Y1284000D01*
X3026000Y290000D02*
X3054000D01*
X3040000Y276000D02*
Y304000D01*
X1981969Y240000D02*
X2009969D01*
X1995969Y226000D02*
Y254000D01*
X1096000Y250000D02*
X1124000D01*
X1110000Y236000D02*
Y264000D01*
X3951388Y3768482D02*
X3979388D01*
X3965388Y3754482D02*
Y3782482D01*
X1945644Y3768482D02*
X1973644D01*
X1959644Y3754482D02*
Y3782482D01*
X1611353Y3768482D02*
X1639353D01*
X1625353Y3754482D02*
Y3782482D01*
X1867888Y3770726D02*
X1895888D01*
X1881888Y3756726D02*
Y3784726D01*
X4596000Y3080000D02*
X4624000D01*
X4610000Y3066000D02*
Y3094000D01*
X4596000Y3185000D02*
X4624000D01*
X4610000Y3171000D02*
Y3199000D01*
X4596000Y3290000D02*
X4624000D01*
X4610000Y3276000D02*
Y3304000D01*
X3996977Y3600000D02*
X4024977D01*
X4010977Y3586000D02*
Y3614000D01*
X3344686Y3599173D02*
X3372686D01*
X3358686Y3585173D02*
Y3613173D01*
X2614465Y3767480D02*
X2642465D01*
X2628465Y3753480D02*
Y3781480D01*
X3002054Y3598999D02*
X3030054D01*
X3016054Y3584999D02*
Y3612999D01*
X1277063Y3768482D02*
X1305063D01*
X1291063Y3754482D02*
Y3782482D01*
X1198323Y3989740D02*
X1226323D01*
X1212323Y3975740D02*
Y4003740D01*
X1199307Y3770726D02*
X1227307D01*
X1213307Y3756726D02*
Y3784726D01*
X1532613Y3989740D02*
X1560613D01*
X1546613Y3975740D02*
Y4003740D01*
X1533597Y3770726D02*
X1561597D01*
X1547597Y3756726D02*
Y3784726D01*
X3299097Y3767655D02*
X3327097D01*
X3313097Y3753655D02*
Y3781655D01*
X3220357Y3988913D02*
X3248357D01*
X3234357Y3974913D02*
Y4002913D01*
X3221341Y3769899D02*
X3249341D01*
X3235341Y3755899D02*
Y3783899D01*
X3872647Y3989740D02*
X3900647D01*
X3886647Y3975740D02*
Y4003740D01*
X3873632Y3770726D02*
X3901632D01*
X3887632Y3756726D02*
Y3784726D01*
X4285678Y3768482D02*
X4313678D01*
X4299678Y3754482D02*
Y3782482D01*
X4206938Y3989740D02*
X4234938D01*
X4220938Y3975740D02*
Y4003740D01*
X4207922Y3770726D02*
X4235922D01*
X4221922Y3756726D02*
Y3784726D01*
X1866904Y3989740D02*
X1894904D01*
X1880904Y3975740D02*
Y4003740D01*
X2201194Y3989740D02*
X2229194D01*
X2215194Y3975740D02*
Y4003740D01*
X2202179Y3770726D02*
X2230179D01*
X2216179Y3756726D02*
Y3784726D01*
X2956465Y3767481D02*
X2984465D01*
X2970465Y3753481D02*
Y3781481D01*
X2877724Y3988739D02*
X2905724D01*
X2891724Y3974739D02*
Y4002739D01*
X2878709Y3769725D02*
X2906709D01*
X2892709Y3755725D02*
Y3783725D01*
X3636465Y3764308D02*
X3664465D01*
X3650465Y3750308D02*
Y3778308D01*
X3557724Y3985566D02*
X3585724D01*
X3571724Y3971566D02*
Y3999566D01*
X3558709Y3766552D02*
X3586709D01*
X3572709Y3752552D02*
Y3780552D01*
X2535724Y3988739D02*
X2563724D01*
X2549724Y3974739D02*
Y4002739D01*
X2536709Y3769724D02*
X2564709D01*
X2550709Y3755724D02*
Y3783724D01*
X942772Y3768482D02*
X970772D01*
X956772Y3754482D02*
Y3782482D01*
X864032Y3989740D02*
X892032D01*
X878032Y3975740D02*
Y4003740D01*
X865016Y3770726D02*
X893016D01*
X879016Y3756726D02*
Y3784726D01*
%TF.MD5,8c2ee5a207fd1febf9f1cb9e44438524*%
M02*
