%TF.GenerationSoftware,Altium Limited,Altium Designer,19.1.8 (144)*%
G04 Layer_Color=128*
%FSLAX26Y26*%
%MOIN*%
%TF.FileFunction,Drillmap*%
%TF.Part,Single*%
G01*
G75*
%TA.AperFunction,NonConductor*%
%ADD73C,0.005000*%
D73*
X5637953Y4070000D02*
X5677323D01*
X5657638Y4050315D02*
Y4089685D01*
X5342677Y4070000D02*
X5382047D01*
X5362362Y4050315D02*
Y4089685D01*
X6385945Y4881060D02*
X6504055D01*
X6445000Y4822005D02*
Y4940115D01*
X6385945Y4385000D02*
X6504055D01*
X6445000Y4325945D02*
Y4444055D01*
X5904645Y4385000D02*
X5977475D01*
X5941060Y4348585D02*
Y4421415D01*
X5904645Y4550350D02*
X5977475D01*
X5941060Y4513935D02*
Y4586765D01*
X5904645Y4715710D02*
X5977475D01*
X5941060Y4679295D02*
Y4752125D01*
X5904645Y4881060D02*
X5977475D01*
X5941060Y4844645D02*
Y4917475D01*
X6121185Y4385000D02*
X6194015D01*
X6157600Y4348585D02*
Y4421415D01*
X6121185Y4550350D02*
X6194015D01*
X6157600Y4513935D02*
Y4586765D01*
X6121185Y4715710D02*
X6194015D01*
X6157600Y4679295D02*
Y4752125D01*
X6121185Y4881060D02*
X6194015D01*
X6157600Y4844645D02*
Y4917475D01*
X6470945Y4045000D02*
X6589055D01*
X6530000Y3985945D02*
Y4104055D01*
X6468976Y3859961D02*
X6591024D01*
X6530000Y3798937D02*
Y3920984D01*
X6339843Y4129646D02*
X6380000D01*
X6359921Y4109567D02*
Y4149724D01*
X6339843Y4011535D02*
X6380000D01*
X6359921Y3991457D02*
Y4031614D01*
X6339843Y3893425D02*
X6380000D01*
X6359921Y3873346D02*
Y3913504D01*
X6339843Y3775315D02*
X6380000D01*
X6359921Y3755236D02*
Y3795394D01*
X6145315Y3795000D02*
X6184685D01*
X6165000Y3775315D02*
Y3814685D01*
X6145315Y3895000D02*
X6184685D01*
X6165000Y3875315D02*
Y3914685D01*
X6145315Y3995000D02*
X6184685D01*
X6165000Y3975315D02*
Y4014685D01*
X6145315Y4095000D02*
X6184685D01*
X6165000Y4075315D02*
Y4114685D01*
X3022047Y4844961D02*
X3101968D01*
X3062008Y4805000D02*
Y4884921D01*
X3032087Y4584331D02*
X3091929D01*
X3062008Y4554409D02*
Y4614252D01*
X3032087Y4475669D02*
X3091929D01*
X3062008Y4445748D02*
Y4505591D01*
X3032087Y4367402D02*
X3091929D01*
X3062008Y4337480D02*
Y4397323D01*
X3022047Y4215039D02*
X3101968D01*
X3062008Y4175079D02*
Y4255000D01*
X4848032Y4854803D02*
X4927953D01*
X4887992Y4814842D02*
Y4894764D01*
X4848032Y4638268D02*
X4927953D01*
X4887992Y4598307D02*
Y4678228D01*
X4848032Y4421732D02*
X4927953D01*
X4887992Y4381772D02*
Y4461693D01*
X4848032Y4205197D02*
X4927953D01*
X4887992Y4165236D02*
Y4245158D01*
X1820315Y4630000D02*
X1859685D01*
X1840000Y4610315D02*
Y4649685D01*
X1820315Y4530000D02*
X1859685D01*
X1840000Y4510315D02*
Y4549685D01*
X1820315Y3980000D02*
X1859685D01*
X1840000Y3960315D02*
Y3999685D01*
X1820315Y3880000D02*
X1859685D01*
X1840000Y3860315D02*
Y3899685D01*
X2579410Y3885000D02*
X2630590D01*
X2605000Y3859410D02*
Y3910590D01*
X2579410Y4475551D02*
X2630590D01*
X2605000Y4449961D02*
Y4501142D01*
%TF.MD5,fa1914458559ac6ad8380b79a84f5aa6*%
M02*
