%TF.GenerationSoftware,Altium Limited,Altium Designer,19.1.8 (144)*%
G04 Layer_Color=2752767*
%FSLAX26Y26*%
%MOIN*%
%TF.FileFunction,Drawing*%
%TF.Part,Single*%
G01*
G75*
%TA.AperFunction,NonConductor*%
%ADD73C,0.005000*%
%ADD74C,0.006667*%
D73*
X5637638Y4050000D02*
Y4090000D01*
X5677638D01*
Y4050000D01*
X5637638D01*
X5342362D02*
Y4090000D01*
X5382362D01*
Y4050000D01*
X5342362D01*
X5941060Y4365000D02*
X5921060Y4405000D01*
X5961060D01*
X5941060Y4365000D01*
Y4530350D02*
X5921060Y4570350D01*
X5961060D01*
X5941060Y4530350D01*
Y4695710D02*
X5921060Y4735710D01*
X5961060D01*
X5941060Y4695710D01*
Y4861060D02*
X5921060Y4901060D01*
X5961060D01*
X5941060Y4861060D01*
X6157600Y4365000D02*
X6137600Y4405000D01*
X6177600D01*
X6157600Y4365000D01*
Y4530350D02*
X6137600Y4570350D01*
X6177600D01*
X6157600Y4530350D01*
Y4695710D02*
X6137600Y4735710D01*
X6177600D01*
X6157600Y4695710D01*
Y4861060D02*
X6137600Y4901060D01*
X6177600D01*
X6157600Y4861060D01*
X6530000Y3839961D02*
X6540000Y3849961D01*
X6550000D01*
X6540000Y3859961D01*
X6550000Y3869961D01*
X6540000D01*
X6530000Y3879961D01*
X6520000Y3869961D01*
X6510000D01*
X6520000Y3859961D01*
X6510000Y3849961D01*
X6520000D01*
X6530000Y3839961D01*
X6339921Y4109646D02*
X6349921Y4129646D01*
X6339921Y4149646D01*
X6359921Y4139646D01*
X6379921Y4149646D01*
X6369921Y4129646D01*
X6379921Y4109646D01*
X6359921Y4119646D01*
X6339921Y4109646D01*
Y3991535D02*
X6349921Y4011535D01*
X6339921Y4031535D01*
X6359921Y4021535D01*
X6379921Y4031535D01*
X6369921Y4011535D01*
X6379921Y3991535D01*
X6359921Y4001535D01*
X6339921Y3991535D01*
Y3873425D02*
X6349921Y3893425D01*
X6339921Y3913425D01*
X6359921Y3903425D01*
X6379921Y3913425D01*
X6369921Y3893425D01*
X6379921Y3873425D01*
X6359921Y3883425D01*
X6339921Y3873425D01*
Y3755315D02*
X6349921Y3775315D01*
X6339921Y3795315D01*
X6359921Y3785315D01*
X6379921Y3795315D01*
X6369921Y3775315D01*
X6379921Y3755315D01*
X6359921Y3765315D01*
X6339921Y3755315D01*
X6145000Y3775000D02*
Y3815000D01*
X6185000D01*
Y3775000D01*
X6145000D01*
Y3875000D02*
Y3915000D01*
X6185000D01*
Y3875000D01*
X6145000D01*
Y3975000D02*
Y4015000D01*
X6185000D01*
Y3975000D01*
X6145000D01*
Y4075000D02*
Y4115000D01*
X6185000D01*
Y4075000D01*
X6145000D01*
X3052008Y4834961D02*
Y4824961D01*
X3072008D01*
Y4834961D01*
X3082008D01*
Y4854961D01*
X3072008D01*
Y4864961D01*
X3052008D01*
Y4854961D01*
X3042008D01*
Y4834961D01*
X3052008D01*
X3042008Y4564331D02*
X3052008D01*
X3062008Y4574331D01*
X3072008Y4564331D01*
X3082008D01*
Y4574331D01*
X3072008Y4584331D01*
X3082008Y4594331D01*
Y4604331D01*
X3072008D01*
X3062008Y4594331D01*
X3052008Y4604331D01*
X3042008D01*
Y4594331D01*
X3052008Y4584331D01*
X3042008Y4574331D01*
Y4564331D01*
Y4455669D02*
X3052008D01*
X3062008Y4465669D01*
X3072008Y4455669D01*
X3082008D01*
Y4465669D01*
X3072008Y4475669D01*
X3082008Y4485669D01*
Y4495669D01*
X3072008D01*
X3062008Y4485669D01*
X3052008Y4495669D01*
X3042008D01*
Y4485669D01*
X3052008Y4475669D01*
X3042008Y4465669D01*
Y4455669D01*
Y4347402D02*
X3052008D01*
X3062008Y4357402D01*
X3072008Y4347402D01*
X3082008D01*
Y4357402D01*
X3072008Y4367402D01*
X3082008Y4377402D01*
Y4387402D01*
X3072008D01*
X3062008Y4377402D01*
X3052008Y4387402D01*
X3042008D01*
Y4377402D01*
X3052008Y4367402D01*
X3042008Y4357402D01*
Y4347402D01*
X3052008Y4205039D02*
Y4195039D01*
X3072008D01*
Y4205039D01*
X3082008D01*
Y4225039D01*
X3072008D01*
Y4235039D01*
X3052008D01*
Y4225039D01*
X3042008D01*
Y4205039D01*
X3052008D01*
X4877992Y4844803D02*
Y4834803D01*
X4897992D01*
Y4844803D01*
X4907992D01*
Y4864803D01*
X4897992D01*
Y4874803D01*
X4877992D01*
Y4864803D01*
X4867992D01*
Y4844803D01*
X4877992D01*
Y4628268D02*
Y4618268D01*
X4897992D01*
Y4628268D01*
X4907992D01*
Y4648268D01*
X4897992D01*
Y4658268D01*
X4877992D01*
Y4648268D01*
X4867992D01*
Y4628268D01*
X4877992D01*
Y4411732D02*
Y4401732D01*
X4897992D01*
Y4411732D01*
X4907992D01*
Y4431732D01*
X4897992D01*
Y4441732D01*
X4877992D01*
Y4431732D01*
X4867992D01*
Y4411732D01*
X4877992D01*
Y4195197D02*
Y4185197D01*
X4897992D01*
Y4195197D01*
X4907992D01*
Y4215197D01*
X4897992D01*
Y4225197D01*
X4877992D01*
Y4215197D01*
X4867992D01*
Y4195197D01*
X4877992D01*
X1820000Y4610000D02*
Y4650000D01*
X1860000D01*
Y4610000D01*
X1820000D01*
Y4510000D02*
Y4550000D01*
X1860000D01*
Y4510000D01*
X1820000D01*
Y3960000D02*
Y4000000D01*
X1860000D01*
Y3960000D01*
X1820000D01*
Y3860000D02*
Y3900000D01*
X1860000D01*
Y3860000D01*
X1820000D01*
X2585000Y3885000D02*
X2605000Y3905000D01*
X2625000Y3885000D01*
X2605000Y3865000D01*
X2585000Y3885000D01*
Y4475551D02*
X2605000Y4495551D01*
X2625000Y4475551D01*
X2605000Y4455551D01*
X2585000Y4475551D01*
D74*
X6465000Y4881060D02*
G03*
X6465000Y4881060I-20000J0D01*
G01*
Y4385000D02*
G03*
X6465000Y4385000I-20000J0D01*
G01*
X6550000Y4045000D02*
G03*
X6550000Y4045000I-20000J0D01*
G01*
%TF.MD5,5a91a7c3eff6fc94143ecf1b645c9d6a*%
M02*
