%TF.GenerationSoftware,Altium Limited,Altium Designer,19.1.8 (144)*%
G04 Layer_Color=65535*
%FSLAX26Y26*%
%MOIN*%
%TF.FileFunction,Legend,Top*%
%TF.Part,Single*%
G01*
G75*
%TA.AperFunction,NonConductor*%
%ADD27C,0.010000*%
%ADD32C,0.007874*%
%ADD33C,0.005906*%
%ADD47C,0.009842*%
%ADD48C,0.023622*%
%ADD49C,0.039370*%
%ADD50C,0.015748*%
%ADD51C,0.019685*%
G36*
X5775748Y3902677D02*
Y4237323D01*
X5805276Y4178268D01*
X5824961Y4109370D01*
Y4070000D01*
X5815118Y4001102D01*
X5805276Y3961732D01*
X5775748Y3902677D01*
D02*
G37*
G36*
X5411427Y4146988D02*
X5425132D01*
Y4141228D01*
X5411427D01*
Y4127377D01*
X5405595D01*
Y4141228D01*
X5391890D01*
Y4146988D01*
X5405595D01*
Y4160693D01*
X5411427D01*
Y4146988D01*
D02*
G37*
G36*
X3590490Y4004017D02*
Y4003961D01*
Y4003794D01*
Y4003628D01*
X3590434Y4003017D01*
X3590378Y4002296D01*
X3590267Y4001352D01*
X3590212Y4000187D01*
X3590046Y3998910D01*
X3589879Y3997523D01*
X3589934D01*
X3589990Y3997579D01*
X3590157Y3997634D01*
X3590378Y3997745D01*
X3590934Y3998023D01*
X3591655Y3998356D01*
X3592543Y3998744D01*
X3593597Y3999188D01*
X3594763Y3999632D01*
X3596039Y4000076D01*
X3597260Y3996358D01*
X3597205D01*
X3597094Y3996302D01*
X3596927Y3996247D01*
X3596706Y3996191D01*
X3596372Y3996080D01*
X3596039Y3995969D01*
X3595207Y3995747D01*
X3594208Y3995525D01*
X3593098Y3995247D01*
X3591932Y3995026D01*
X3590711Y3994859D01*
X3590767Y3994803D01*
X3590989Y3994581D01*
X3591378Y3994249D01*
X3591877Y3993749D01*
X3592543Y3993028D01*
X3593265Y3992195D01*
X3594208Y3991140D01*
X3595207Y3989919D01*
X3592099Y3987755D01*
X3592044Y3987866D01*
X3591822Y3988144D01*
X3591488Y3988588D01*
X3591044Y3989198D01*
X3590545Y3990030D01*
X3589934Y3990974D01*
X3589213Y3992084D01*
X3588492Y3993305D01*
Y3993249D01*
X3588436Y3993139D01*
X3588325Y3992972D01*
X3588159Y3992695D01*
X3587825Y3992028D01*
X3587381Y3991251D01*
X3586827Y3990363D01*
X3586271Y3989420D01*
X3585661Y3988532D01*
X3585106Y3987755D01*
X3582053Y3989919D01*
X3582109Y3989975D01*
X3582164Y3990086D01*
X3582331Y3990253D01*
X3582553Y3990530D01*
X3583052Y3991196D01*
X3583718Y3991973D01*
X3584440Y3992805D01*
X3585162Y3993582D01*
X3585827Y3994304D01*
X3586105Y3994637D01*
X3586383Y3994859D01*
X3586327D01*
X3586216Y3994914D01*
X3586050D01*
X3585827Y3994970D01*
X3585494Y3995026D01*
X3585162Y3995137D01*
X3584329Y3995303D01*
X3583330Y3995525D01*
X3582276Y3995747D01*
X3580000Y3996358D01*
X3581166Y4000076D01*
X3581221D01*
X3581332Y4000021D01*
X3581554Y3999910D01*
X3581831Y3999854D01*
X3582164Y3999688D01*
X3582608Y3999521D01*
X3583497Y3999188D01*
X3584495Y3998800D01*
X3585494Y3998356D01*
X3586438Y3997912D01*
X3587215Y3997523D01*
Y3997579D01*
Y3997745D01*
X3587160Y3997967D01*
Y3998300D01*
X3587104Y3998689D01*
X3587048Y3999133D01*
X3586993Y4000131D01*
X3586882Y4001186D01*
X3586771Y4002296D01*
X3586715Y4003240D01*
Y4003684D01*
Y4004072D01*
X3590490D01*
Y4004017D01*
D02*
G37*
D27*
X6086260Y3716260D02*
Y4173740D01*
X6243740D01*
Y3716260D02*
Y4173740D01*
X6086260Y3716260D02*
X6243740D01*
X1761260Y4451260D02*
X1918740D01*
Y4708740D01*
X1761260D02*
X1918740D01*
X1761260Y4451260D02*
Y4708740D01*
Y3801260D02*
X1918740D01*
Y4058740D01*
X1761260D02*
X1918740D01*
X1761260Y3801260D02*
Y4058740D01*
X4261969Y3710787D02*
X4282172D01*
X4272070D01*
Y3771398D01*
X4261969D01*
X4322579Y3710787D02*
X4342782D01*
X4352884Y3720889D01*
Y3741093D01*
X4342782Y3751194D01*
X4322579D01*
X4312477Y3741093D01*
Y3720889D01*
X4322579Y3710787D01*
X4373087Y3751194D02*
Y3720889D01*
X4383189Y3710787D01*
X4393291Y3720889D01*
X4403393Y3710787D01*
X4413494Y3720889D01*
Y3751194D01*
X3317087Y3692657D02*
X3337290Y3652251D01*
X3357494Y3692657D01*
X3387799Y3652251D02*
X3408002D01*
X3418104Y3662352D01*
Y3682556D01*
X3408002Y3692657D01*
X3387799D01*
X3377697Y3682556D01*
Y3662352D01*
X3387799Y3652251D01*
X3438307D02*
X3458511D01*
X3448409D01*
Y3712861D01*
X3438307D01*
X3498918Y3702759D02*
Y3692657D01*
X3488816D01*
X3509019D01*
X3498918D01*
Y3662352D01*
X3509019Y3652251D01*
X3549426Y3692657D02*
X3569630D01*
X3579731Y3682556D01*
Y3652251D01*
X3549426D01*
X3539324Y3662352D01*
X3549426Y3672454D01*
X3579731D01*
X3620138Y3632047D02*
X3630240D01*
X3640342Y3642149D01*
Y3692657D01*
X3610036D01*
X3599935Y3682556D01*
Y3662352D01*
X3610036Y3652251D01*
X3640342D01*
X3690850D02*
X3670647D01*
X3660545Y3662352D01*
Y3682556D01*
X3670647Y3692657D01*
X3690850D01*
X3700952Y3682556D01*
Y3672454D01*
X3660545D01*
X4261969Y3692657D02*
X4282172Y3652251D01*
X4302376Y3692657D01*
X4332681Y3652251D02*
X4352884D01*
X4362986Y3662352D01*
Y3682556D01*
X4352884Y3692657D01*
X4332681D01*
X4322579Y3682556D01*
Y3662352D01*
X4332681Y3652251D01*
X4383189D02*
X4403393D01*
X4393291D01*
Y3712861D01*
X4383189D01*
X4443800Y3702759D02*
Y3692657D01*
X4433698D01*
X4453901D01*
X4443800D01*
Y3662352D01*
X4453901Y3652251D01*
X4494308Y3692657D02*
X4514512D01*
X4524613Y3682556D01*
Y3652251D01*
X4494308D01*
X4484206Y3662352D01*
X4494308Y3672454D01*
X4524613D01*
X4565020Y3632047D02*
X4575122D01*
X4585224Y3642149D01*
Y3692657D01*
X4554918D01*
X4544817Y3682556D01*
Y3662352D01*
X4554918Y3652251D01*
X4585224D01*
X4635732D02*
X4615529D01*
X4605427Y3662352D01*
Y3682556D01*
X4615529Y3692657D01*
X4635732D01*
X4645834Y3682556D01*
Y3672454D01*
X4605427D01*
X3488816Y3791601D02*
Y3730991D01*
Y3761296D01*
X3498918Y3771398D01*
X3519121D01*
X3529223Y3761296D01*
Y3730991D01*
X3549426D02*
X3569630D01*
X3559528D01*
Y3771398D01*
X3549426D01*
X3620138Y3710787D02*
X3630240D01*
X3640342Y3720889D01*
Y3771398D01*
X3610036D01*
X3599935Y3761296D01*
Y3741093D01*
X3610036Y3730991D01*
X3640342D01*
X3660545Y3791601D02*
Y3730991D01*
Y3761296D01*
X3670647Y3771398D01*
X3690850D01*
X3700952Y3761296D01*
Y3730991D01*
X5020000Y4869990D02*
X5059987D01*
X5039993Y4889984D02*
Y4849997D01*
X5020000Y4434990D02*
X5059987D01*
X5039993Y4454984D02*
Y4414997D01*
X5020000Y4219990D02*
X5059987D01*
X5020000Y4654990D02*
X5059987D01*
X2904987Y4509981D02*
Y4450000D01*
X2874997D01*
X2865000Y4459997D01*
Y4479990D01*
X2874997Y4489987D01*
X2904987D01*
X2934977D02*
X2954971D01*
X2964968Y4479990D01*
Y4450000D01*
X2934977D01*
X2924981Y4459997D01*
X2934977Y4469993D01*
X2964968D01*
X2815000Y4874951D02*
X2854987D01*
X2834994Y4894944D02*
Y4854957D01*
X2874981Y4844961D02*
X2894974D01*
X2884977D01*
Y4884948D01*
X2874981D01*
X2924964Y4844961D02*
Y4884948D01*
X2954955D01*
X2964952Y4874951D01*
Y4844961D01*
X2874997Y4599987D02*
X2894990D01*
X2904987Y4589990D01*
Y4560000D01*
X2874997D01*
X2865000Y4569997D01*
X2874997Y4579993D01*
X2904987D01*
X2964968Y4619981D02*
Y4560000D01*
X2934977D01*
X2924981Y4569997D01*
Y4589990D01*
X2934977Y4599987D01*
X2964968D01*
X2924987Y4374987D02*
X2894997D01*
X2885000Y4364990D01*
Y4344997D01*
X2894997Y4335000D01*
X2924987D01*
X2944981D02*
X2964974D01*
X2954977D01*
Y4394981D01*
X2944981D01*
X2815000Y4224990D02*
X2854987D01*
X2874981Y4195000D02*
X2894974D01*
X2884977D01*
Y4234987D01*
X2874981D01*
X2924964Y4195000D02*
Y4234987D01*
X2954955D01*
X2964952Y4224990D01*
Y4195000D01*
X2520987Y4609535D02*
X2510990Y4619532D01*
X2490997D01*
X2481000Y4609535D01*
Y4569548D01*
X2490997Y4559551D01*
X2510990D01*
X2520987Y4569548D01*
X2540981Y4559551D02*
X2560974D01*
X2550977D01*
Y4619532D01*
X2540981Y4609535D01*
X5088128Y4025281D02*
X5078131Y4035278D01*
X5058138D01*
X5048141Y4025281D01*
Y3985294D01*
X5058138Y3975297D01*
X5078131D01*
X5088128Y3985294D01*
X5108122Y4025281D02*
X5118118Y4035278D01*
X5138112D01*
X5148109Y4025281D01*
Y4015284D01*
X5138112Y4005287D01*
X5148109Y3995291D01*
Y3985294D01*
X5138112Y3975297D01*
X5118118D01*
X5108122Y3985294D01*
Y3995291D01*
X5118118Y4005287D01*
X5108122Y4015284D01*
Y4025281D01*
X5118118Y4005287D02*
X5138112D01*
X6194248Y4252343D02*
X6234235Y4192362D01*
Y4252343D02*
X6194248Y4192362D01*
X6294216D02*
X6254229D01*
X6294216Y4232349D01*
Y4242346D01*
X6284219Y4252343D01*
X6264225D01*
X6254229Y4242346D01*
X4243141Y3931087D02*
Y3881103D01*
X4253138Y3871106D01*
X4273131D01*
X4283128Y3881103D01*
Y3931087D01*
X4303122Y3921090D02*
X4313118Y3931087D01*
X4333112D01*
X4343109Y3921090D01*
Y3911093D01*
X4333112Y3901096D01*
X4323115D01*
X4333112D01*
X4343109Y3891099D01*
Y3881103D01*
X4333112Y3871106D01*
X4313118D01*
X4303122Y3881103D01*
X2937028Y4051404D02*
Y4001420D01*
X2947025Y3991423D01*
X2967018D01*
X2977015Y4001420D01*
Y4051404D01*
X2997009Y3991423D02*
X3017002D01*
X3007005D01*
Y4051404D01*
X2997009Y4041407D01*
X4580524Y3833895D02*
Y3893876D01*
X4610514D01*
X4620511Y3883879D01*
Y3863885D01*
X4610514Y3853889D01*
X4580524D01*
X4600517D02*
X4620511Y3833895D01*
X4680492Y3893876D02*
X4640505D01*
Y3863885D01*
X4660498Y3873882D01*
X4670495D01*
X4680492Y3863885D01*
Y3843892D01*
X4670495Y3833895D01*
X4650501D01*
X4640505Y3843892D01*
X3110236Y3937008D02*
Y3996988D01*
X3140227D01*
X3150223Y3986992D01*
Y3966998D01*
X3140227Y3957001D01*
X3110236D01*
X3130230D02*
X3150223Y3937008D01*
X3170217Y3986992D02*
X3180214Y3996988D01*
X3200207D01*
X3210204Y3986992D01*
Y3976995D01*
X3200207Y3966998D01*
X3190210D01*
X3200207D01*
X3210204Y3957001D01*
Y3947005D01*
X3200207Y3937008D01*
X3180214D01*
X3170217Y3947005D01*
X2649911Y4306951D02*
Y4366932D01*
X2679901D01*
X2689898Y4356935D01*
Y4336941D01*
X2679901Y4326944D01*
X2649911D01*
X2669905D02*
X2689898Y4306951D01*
X2749879D02*
X2709892D01*
X2749879Y4346938D01*
Y4356935D01*
X2739882Y4366932D01*
X2719888D01*
X2709892Y4356935D01*
X2707560Y4620293D02*
Y4680274D01*
X2737550D01*
X2747547Y4670277D01*
Y4650283D01*
X2737550Y4640287D01*
X2707560D01*
X2727553D02*
X2747547Y4620293D01*
X2767541D02*
X2787534D01*
X2777537D01*
Y4680274D01*
X2767541Y4670277D01*
X5974702Y4134508D02*
X6014689Y4074527D01*
Y4134508D02*
X5974702Y4074527D01*
X6034683D02*
X6054676D01*
X6044679D01*
Y4134508D01*
X6034683Y4124511D01*
X1886433Y4088174D02*
Y4148155D01*
X1916423D01*
X1926420Y4138158D01*
Y4118164D01*
X1916423Y4108167D01*
X1886433D01*
X1986401Y4088174D02*
X1946414D01*
X1986401Y4128161D01*
Y4138158D01*
X1976404Y4148155D01*
X1956410D01*
X1946414Y4138158D01*
X1880222Y4738120D02*
Y4798101D01*
X1910212D01*
X1920209Y4788104D01*
Y4768110D01*
X1910212Y4758114D01*
X1880222D01*
X1940203Y4738120D02*
X1960196D01*
X1950199D01*
Y4798101D01*
X1940203Y4788104D01*
X2737329Y4794388D02*
Y4734407D01*
X2777316D01*
X2797310D02*
X2817303D01*
X2807306D01*
Y4794388D01*
X2797310Y4784391D01*
X5154803Y4401178D02*
Y4341197D01*
X5194790D01*
X5254771D02*
X5214784D01*
X5254771Y4381184D01*
Y4391181D01*
X5244774Y4401178D01*
X5224780D01*
X5214784Y4391181D01*
X5971266Y4251094D02*
X5951273D01*
X5961269D01*
Y4201110D01*
X5951273Y4191113D01*
X5941276D01*
X5931279Y4201110D01*
X5991260Y4191113D02*
X6011253D01*
X6001256D01*
Y4251094D01*
X5991260Y4241097D01*
X2242887Y4209904D02*
X2202900D01*
Y4179913D01*
X2222894D01*
X2202900D01*
Y4149923D01*
X2262881D02*
X2282874D01*
X2272877D01*
Y4209904D01*
X2262881Y4199907D01*
X3661417Y4036359D02*
Y3976378D01*
X3691408D01*
X3701404Y3986375D01*
Y4026362D01*
X3691408Y4036359D01*
X3661417D01*
X3721398Y3976378D02*
X3741391D01*
X3731395D01*
Y4036359D01*
X3721398Y4026362D01*
D32*
X5824961Y4070000D02*
G03*
X5824961Y4070000I-314961J0D01*
G01*
X5775748Y3902677D02*
Y4237323D01*
X3840079Y3809449D02*
Y3990551D01*
X4099921Y3809449D02*
Y3990551D01*
X3840079D02*
X4099921D01*
X3840079Y3809449D02*
X4099921D01*
X3438976Y3980000D02*
X3600000D01*
Y3910000D02*
Y3980000D01*
X3438976Y3910000D02*
X3600000D01*
X3438976D02*
Y3980000D01*
X2740000Y3835551D02*
Y4524528D01*
X2475000Y3835551D02*
Y4524528D01*
X2476220Y4525551D02*
X2740000D01*
X2476220Y3835551D02*
X2740000D01*
D33*
X3350000Y3960000D02*
Y3967559D01*
X3250000D02*
X3350000D01*
X3250000Y3960000D02*
Y3967559D01*
Y3912441D02*
Y3920000D01*
Y3912441D02*
X3350000D01*
Y3920000D01*
X3300000Y3912441D02*
Y3967559D01*
X2570000Y4602441D02*
Y4610000D01*
Y4602441D02*
X2670000D01*
Y4610000D01*
Y4650000D02*
Y4657559D01*
X2570000D02*
X2670000D01*
X2570000Y4650000D02*
Y4657559D01*
X2620000Y4602441D02*
Y4657559D01*
X4707548Y3807658D02*
X4762666D01*
X4755107Y3857658D02*
X4762666D01*
Y3757658D02*
Y3857658D01*
X4755107Y3757658D02*
X4762666D01*
X4707548D02*
X4715107D01*
X4707548D02*
Y3857658D01*
X4715107D01*
X2785429Y4369735D02*
X2840547D01*
X2832988Y4419735D02*
X2840547D01*
Y4319735D02*
Y4419735D01*
X2832988Y4319735D02*
X2840547D01*
X2785429D02*
X2792988D01*
X2785429D02*
Y4419735D01*
X2792988D01*
D47*
X3799724Y3995276D02*
G03*
X3799724Y3995276I-4921J0D01*
G01*
X3610000Y3905000D02*
Y3985000D01*
D48*
X3891260Y3951181D02*
G03*
X3891260Y3951181I-11811J0D01*
G01*
D49*
X3976378Y3622047D02*
Y3700787D01*
Y3779528D02*
Y3858268D01*
Y3937008D02*
Y4015748D01*
Y4094488D02*
Y4173228D01*
Y4251968D02*
Y4330709D01*
Y4409449D02*
Y4488189D01*
Y4566929D02*
Y4645669D01*
Y4724409D02*
Y4803150D01*
Y4881890D02*
Y4960630D01*
D50*
X5685905Y4444095D02*
Y4955905D01*
X5174095Y4444095D02*
X5685905D01*
X5174095D02*
Y4955905D01*
X5685905D01*
D51*
X3024213Y5002441D02*
X4925787D01*
X3030118Y4096929D02*
Y4999685D01*
X4925787Y4096929D02*
Y4999685D01*
X3030118Y4096929D02*
X4931693D01*
%TF.MD5,cce671495a2f6081724451cf43397568*%
M02*
