G04*
G04 #@! TF.GenerationSoftware,Altium Limited,Altium Designer,20.0.13 (296)*
G04*
G04 Layer_Color=16711935*
%FSLAX25Y25*%
%MOIN*%
G70*
G01*
G75*
%ADD67C,0.00394*%
D67*
X256390Y126112D02*
X256126Y127096D01*
X255405Y127816D01*
X254421Y128080D01*
X253437Y127816D01*
X252716Y127096D01*
X252453Y126112D01*
X252716Y125127D01*
X253437Y124407D01*
X254421Y124143D01*
X255405Y124407D01*
X256126Y125127D01*
X256390Y126112D01*
Y169419D02*
X256126Y170403D01*
X255405Y171124D01*
X254421Y171387D01*
X253437Y171124D01*
X252716Y170403D01*
X252453Y169419D01*
X252716Y168435D01*
X253437Y167714D01*
X254421Y167450D01*
X255405Y167714D01*
X256126Y168435D01*
X256390Y169419D01*
Y212726D02*
X256126Y213710D01*
X255405Y214431D01*
X254421Y214694D01*
X253437Y214431D01*
X252716Y213710D01*
X252453Y212726D01*
X252716Y211742D01*
X253437Y211021D01*
X254421Y210757D01*
X255405Y211021D01*
X256126Y211742D01*
X256390Y212726D01*
X231845Y267390D02*
X231581Y268374D01*
X230861Y269095D01*
X229876Y269359D01*
X228892Y269095D01*
X228172Y268374D01*
X227908Y267390D01*
X228172Y266406D01*
X228892Y265685D01*
X229876Y265422D01*
X230861Y265685D01*
X231581Y266406D01*
X231845Y267390D01*
X155247D02*
X154984Y268374D01*
X154263Y269095D01*
X153279Y269359D01*
X152295Y269095D01*
X151574Y268374D01*
X151310Y267390D01*
X151574Y266406D01*
X152295Y265685D01*
X153279Y265422D01*
X154263Y265685D01*
X154984Y266406D01*
X155247Y267390D01*
X156996Y208154D02*
X156732Y209138D01*
X156012Y209859D01*
X155027Y210123D01*
X154043Y209859D01*
X153323Y209138D01*
X153059Y208154D01*
X153323Y207170D01*
X154043Y206450D01*
X155027Y206186D01*
X156012Y206450D01*
X156732Y207170D01*
X156996Y208154D01*
Y164847D02*
X156732Y165831D01*
X156012Y166552D01*
X155027Y166816D01*
X154043Y166552D01*
X153323Y165831D01*
X153059Y164847D01*
X153323Y163863D01*
X154043Y163142D01*
X155027Y162879D01*
X156012Y163142D01*
X156732Y163863D01*
X156996Y164847D01*
Y121540D02*
X156732Y122524D01*
X156012Y123245D01*
X155027Y123509D01*
X154043Y123245D01*
X153323Y122524D01*
X153059Y121540D01*
X153323Y120556D01*
X154043Y119835D01*
X155027Y119571D01*
X156012Y119835D01*
X156732Y120556D01*
X156996Y121540D01*
X83433Y80844D02*
X83170Y81829D01*
X82449Y82549D01*
X81465Y82813D01*
X80480Y82549D01*
X79760Y81829D01*
X79496Y80844D01*
X79760Y79860D01*
X80480Y79140D01*
X81465Y78876D01*
X82449Y79140D01*
X83170Y79860D01*
X83433Y80844D01*
X330896Y89926D02*
X330632Y90911D01*
X329912Y91631D01*
X328928Y91895D01*
X327943Y91631D01*
X327223Y90911D01*
X326959Y89926D01*
X327223Y88942D01*
X327943Y88222D01*
X328928Y87958D01*
X329912Y88222D01*
X330632Y88942D01*
X330896Y89926D01*
X220411Y28631D02*
X220147Y29616D01*
X219426Y30336D01*
X218442Y30600D01*
X217458Y30336D01*
X216738Y29616D01*
X216474Y28631D01*
X216738Y27647D01*
X217458Y26926D01*
X218442Y26663D01*
X219426Y26926D01*
X220147Y27647D01*
X220411Y28631D01*
X366855Y349670D02*
X366591Y350654D01*
X365871Y351375D01*
X364887Y351639D01*
X363902Y351375D01*
X363182Y350654D01*
X362918Y349670D01*
X363182Y348686D01*
X363902Y347965D01*
X364887Y347702D01*
X365871Y347965D01*
X366591Y348686D01*
X366855Y349670D01*
X299430Y119188D02*
Y126078D01*
X303170Y119188D02*
Y126078D01*
X299430D02*
X303170D01*
X299430Y119188D02*
X303170D01*
X310320Y119244D02*
Y126134D01*
X306580Y119244D02*
Y126134D01*
Y119244D02*
X310320D01*
X306580Y126134D02*
X310320D01*
X266906Y110726D02*
Y117615D01*
X270647Y110726D02*
Y117615D01*
X266906D02*
X270647D01*
X266906Y110726D02*
X270647D01*
X257965Y117450D02*
Y129655D01*
X245760Y117450D02*
Y129655D01*
X257965D01*
X245760Y117450D02*
X257965D01*
X228766Y135244D02*
X235656D01*
X228766Y131503D02*
X235656D01*
Y135244D01*
X228766Y131503D02*
Y135244D01*
X228766Y124749D02*
X235656D01*
X228766Y128489D02*
X235656D01*
X228766Y124749D02*
Y128489D01*
X235656Y124749D02*
Y128489D01*
X228766Y121735D02*
X235656D01*
X228766Y117995D02*
X235656D01*
Y121735D01*
X228766Y117995D02*
Y121735D01*
X228766Y111241D02*
X235656D01*
X228766Y114981D02*
X235656D01*
X228766Y111241D02*
Y114981D01*
X235656Y111241D02*
Y114981D01*
X257965Y160757D02*
Y172962D01*
X245760Y160757D02*
Y172962D01*
X257965D01*
X245760Y160757D02*
X257965D01*
X228766Y178551D02*
X235656D01*
X228766Y174811D02*
X235656D01*
Y178551D01*
X228766Y174811D02*
Y178551D01*
X228766Y168056D02*
X235656D01*
X228766Y171797D02*
X235656D01*
X228766Y168056D02*
Y171797D01*
X235656Y168056D02*
Y171797D01*
X228766Y165042D02*
X235656D01*
X228766Y161302D02*
X235656D01*
Y165042D01*
X228766Y161302D02*
Y165042D01*
X228766Y154548D02*
X235656D01*
X228766Y158288D02*
X235656D01*
X228766Y154548D02*
Y158288D01*
X235656Y154548D02*
Y158288D01*
X266906Y154033D02*
Y160923D01*
X270647Y154033D02*
Y160923D01*
X266906D02*
X270647D01*
X266906Y154033D02*
X270647D01*
X310320Y162551D02*
Y169441D01*
X306580Y162551D02*
Y169441D01*
Y162551D02*
X310320D01*
X306580Y169441D02*
X310320D01*
X299430Y162495D02*
Y169385D01*
X303170Y162495D02*
Y169385D01*
X299430D02*
X303170D01*
X299430Y162495D02*
X303170D01*
X299430Y205802D02*
Y212692D01*
X303170Y205802D02*
Y212692D01*
X299430D02*
X303170D01*
X299430Y205802D02*
X303170D01*
X310320Y205858D02*
Y212748D01*
X306580Y205858D02*
Y212748D01*
Y205858D02*
X310320D01*
X306580Y212748D02*
X310320D01*
X257965Y204064D02*
Y216269D01*
X245760Y204064D02*
Y216269D01*
X257965D01*
X245760Y204064D02*
X257965D01*
X228766Y197855D02*
X235656D01*
X228766Y201595D02*
X235656D01*
X228766Y197855D02*
Y201595D01*
X235656Y197855D02*
Y201595D01*
X228766Y208349D02*
X235656D01*
X228766Y204609D02*
X235656D01*
Y208349D01*
X228766Y204609D02*
Y208349D01*
X228766Y211364D02*
X235656D01*
X228766Y215104D02*
X235656D01*
X228766Y211364D02*
Y215104D01*
X235656Y211364D02*
Y215104D01*
X228766Y221858D02*
X235656D01*
X228766Y218118D02*
X235656D01*
Y221858D01*
X228766Y218118D02*
Y221858D01*
X221401Y241143D02*
Y248033D01*
X225142Y241143D02*
Y248033D01*
X221401D02*
X225142D01*
X221401Y241143D02*
X225142D01*
X232505Y241143D02*
Y248033D01*
X228764Y241143D02*
Y248033D01*
Y241143D02*
X232505D01*
X228764Y248033D02*
X232505D01*
X236127Y241143D02*
Y248033D01*
X239867Y241143D02*
Y248033D01*
X236127D02*
X239867D01*
X236127Y241143D02*
X239867D01*
X247231Y241143D02*
Y248033D01*
X243490Y241143D02*
Y248033D01*
Y241143D02*
X247231D01*
X243490Y248033D02*
X247231D01*
X226333Y270934D02*
X238538D01*
X226333Y258729D02*
X238538D01*
X226333D02*
Y270934D01*
X238538Y258729D02*
Y270934D01*
X236857Y279127D02*
X243746D01*
X236857Y282867D02*
X243746D01*
X236857Y279127D02*
Y282867D01*
X243746Y279127D02*
Y282867D01*
X220638Y305877D02*
X227528D01*
X220638Y302137D02*
X227528D01*
Y305877D01*
X220638Y302137D02*
Y305877D01*
X220638Y294428D02*
X227528D01*
X220638Y298168D02*
X227528D01*
X220638Y294428D02*
Y298168D01*
X227528Y294428D02*
Y298168D01*
X169804Y301718D02*
Y305458D01*
X162914Y301718D02*
Y305458D01*
X169804D01*
X162914Y301718D02*
X169804D01*
X162930Y294492D02*
Y298232D01*
X169819Y294492D02*
Y298232D01*
X162930Y294492D02*
X169819D01*
X162930Y298232D02*
X169819D01*
X161940Y258729D02*
Y270934D01*
X149735Y258729D02*
Y270934D01*
Y258729D02*
X161940D01*
X149735Y270934D02*
X161940D01*
X155543Y241143D02*
X159283D01*
X155543Y248033D02*
X159283D01*
Y241143D02*
Y248033D01*
X155543Y241143D02*
Y248033D01*
X148444Y248033D02*
X152184D01*
X148444Y241143D02*
X152184D01*
X148444D02*
Y248033D01*
X152184Y241143D02*
Y248033D01*
X162642D02*
X166382D01*
X162642Y241143D02*
X166382D01*
X162642D02*
Y248033D01*
X166382Y241143D02*
Y248033D01*
X173793Y197083D02*
X180683D01*
X173793Y200823D02*
X180683D01*
X173793Y197083D02*
Y200823D01*
X180683Y197083D02*
Y200823D01*
X173793Y207577D02*
X180683D01*
X173793Y203837D02*
X180683D01*
Y207577D01*
X173793Y203837D02*
Y207577D01*
X173793Y210591D02*
X180683D01*
X173793Y214331D02*
X180683D01*
X173793Y210591D02*
Y214331D01*
X180683Y210591D02*
Y214331D01*
X173793Y221085D02*
X180683D01*
X173793Y217345D02*
X180683D01*
Y221085D01*
X173793Y217345D02*
Y221085D01*
X151484Y204611D02*
Y216816D01*
X163689Y204611D02*
Y216816D01*
X151484Y204611D02*
X163689D01*
X151484Y216816D02*
X163689D01*
X142373Y211667D02*
Y218557D01*
X138633Y211667D02*
Y218557D01*
Y211667D02*
X142373D01*
X138633Y218557D02*
X142373D01*
X109555Y205789D02*
Y212679D01*
X105815Y205789D02*
Y212679D01*
Y205789D02*
X109555D01*
X105815Y212679D02*
X109555D01*
X98665Y205734D02*
Y212624D01*
X102406Y205734D02*
Y212624D01*
X98665D02*
X102406D01*
X98665Y205734D02*
X102406D01*
X98665Y162427D02*
Y169316D01*
X102406Y162427D02*
Y169316D01*
X98665D02*
X102406D01*
X98665Y162427D02*
X102406D01*
X109555Y162482D02*
Y169372D01*
X105815Y162482D02*
Y169372D01*
Y162482D02*
X109555D01*
X105815Y169372D02*
X109555D01*
X142373Y168360D02*
Y175250D01*
X138633Y168360D02*
Y175250D01*
Y168360D02*
X142373D01*
X138633Y175250D02*
X142373D01*
X151484Y161304D02*
Y173509D01*
X163689Y161304D02*
Y173509D01*
X151484Y161304D02*
X163689D01*
X151484Y173509D02*
X163689D01*
X173793Y177778D02*
X180683D01*
X173793Y174038D02*
X180683D01*
Y177778D01*
X173793Y174038D02*
Y177778D01*
X173793Y167284D02*
X180683D01*
X173793Y171024D02*
X180683D01*
X173793Y167284D02*
Y171024D01*
X180683Y167284D02*
Y171024D01*
X173793Y164270D02*
X180683D01*
X173793Y160530D02*
X180683D01*
Y164270D01*
X173793Y160530D02*
Y164270D01*
X173793Y153776D02*
X180683D01*
X173793Y157516D02*
X180683D01*
X173793Y153776D02*
Y157516D01*
X180683Y153776D02*
Y157516D01*
X173793Y110469D02*
X180683D01*
X173793Y114209D02*
X180683D01*
X173793Y110469D02*
Y114209D01*
X180683Y110469D02*
Y114209D01*
X173793Y120963D02*
X180683D01*
X173793Y117223D02*
X180683D01*
Y120963D01*
X173793Y117223D02*
Y120963D01*
Y134471D02*
X180683D01*
X173793Y130731D02*
X180683D01*
Y134471D01*
X173793Y130731D02*
Y134471D01*
X173793Y123977D02*
X180683D01*
X173793Y127717D02*
X180683D01*
X173793Y123977D02*
Y127717D01*
X180683Y123977D02*
Y127717D01*
X151484Y117997D02*
Y130201D01*
X163689Y117997D02*
Y130201D01*
X151484Y117997D02*
X163689D01*
X151484Y130201D02*
X163689D01*
X142373Y125053D02*
Y131943D01*
X138633Y125053D02*
Y131943D01*
Y125053D02*
X142373D01*
X138633Y131943D02*
X142373D01*
X98665Y119120D02*
Y126009D01*
X102406Y119120D02*
Y126009D01*
X98665D02*
X102406D01*
X98665Y119120D02*
X102406D01*
X33827Y77301D02*
X85008D01*
X33827Y107222D02*
X85008D01*
Y77301D02*
Y107222D01*
X33827Y77301D02*
Y107222D01*
X45015Y55913D02*
Y62802D01*
X48755Y55913D02*
Y62802D01*
X45015D02*
X48755D01*
X45015Y55913D02*
X48755D01*
X54840D02*
Y62802D01*
X58580Y55913D02*
Y62802D01*
X54840D02*
X58580D01*
X54840Y55913D02*
X58580D01*
X64666D02*
Y62802D01*
X68406Y55913D02*
Y62802D01*
X64666D02*
X68406D01*
X64666Y55913D02*
X68406D01*
X74491D02*
Y62802D01*
X78232Y55913D02*
Y62802D01*
X74491D02*
X78232D01*
X74491Y55913D02*
X78232D01*
X38396Y44498D02*
X45286D01*
X38396Y48238D02*
X45286D01*
X38396Y44498D02*
Y48238D01*
X45286Y44498D02*
Y48238D01*
X50723Y44498D02*
X57613D01*
X50723Y48238D02*
X57613D01*
X50723Y44498D02*
Y48238D01*
X57613Y44498D02*
Y48238D01*
X63049Y44498D02*
X69939D01*
X63049Y48238D02*
X69939D01*
X63049Y44498D02*
Y48238D01*
X69939Y44498D02*
Y48238D01*
X75376Y44498D02*
X82266D01*
X75376Y48238D02*
X82266D01*
X75376Y44498D02*
Y48238D01*
X82266Y44498D02*
Y48238D01*
X325384Y86383D02*
X376566D01*
X325384Y116304D02*
X376566D01*
X325384Y86383D02*
Y116304D01*
X376566Y86383D02*
Y116304D01*
X147911Y163566D02*
X168186D01*
X147911Y173999D02*
X168186D01*
Y163566D02*
Y173999D01*
X147911Y163566D02*
Y173999D01*
X120141Y156568D02*
Y176252D01*
X136283Y156568D02*
Y176252D01*
X120141D02*
X136283D01*
X120141Y156568D02*
X136283D01*
X120141Y113260D02*
Y132945D01*
X136283Y113260D02*
Y132945D01*
X120141D02*
X136283D01*
X120141Y113260D02*
X136283D01*
X147911Y120258D02*
X168186D01*
X147911Y130692D02*
X168186D01*
Y120258D02*
Y130692D01*
X147911Y120258D02*
Y130692D01*
X201999Y110973D02*
Y117863D01*
X198258Y110973D02*
Y117863D01*
X201999D01*
X198258Y110973D02*
X201999D01*
X205806Y110973D02*
Y117863D01*
X209546Y110973D02*
Y117863D01*
X205806Y110973D02*
X209546D01*
X205806Y117863D02*
X209546D01*
X155494Y91344D02*
X159234D01*
X155494Y84454D02*
X159234D01*
Y91344D01*
X155494Y84454D02*
Y91344D01*
X156035Y69227D02*
X159775D01*
X156035Y76117D02*
X159775D01*
X156035Y69227D02*
Y76117D01*
X159775Y69227D02*
Y76117D01*
X161541Y40985D02*
Y44725D01*
X168431Y40985D02*
Y44725D01*
X161541D02*
X168431D01*
X161541Y40985D02*
X168431D01*
X246056Y51263D02*
Y55003D01*
X239166Y51263D02*
Y55003D01*
Y51263D02*
X246056D01*
X239166Y55003D02*
X246056D01*
Y44497D02*
Y48237D01*
X239166Y44497D02*
Y48237D01*
Y44497D02*
X246056D01*
X239166Y48237D02*
X246056D01*
Y37730D02*
Y41471D01*
X239166Y37730D02*
Y41471D01*
Y37730D02*
X246056D01*
X239166Y41471D02*
X246056D01*
X300345Y24234D02*
Y27974D01*
X307235Y24234D02*
Y27974D01*
X300345D02*
X307235D01*
X300345Y24234D02*
X307235D01*
X300345Y15757D02*
Y19497D01*
X307235Y15757D02*
Y19497D01*
X300345D02*
X307235D01*
X300345Y15757D02*
X307235D01*
X299833Y7280D02*
Y11020D01*
X306723Y7280D02*
Y11020D01*
X299833D02*
X306723D01*
X299833Y7280D02*
X306723D01*
X365335Y52652D02*
X372225D01*
X365335Y56392D02*
X372225D01*
Y52652D02*
Y56392D01*
X365335Y52652D02*
Y56392D01*
X353508Y52652D02*
X360398D01*
X353508Y56392D02*
X360398D01*
Y52652D02*
Y56392D01*
X353508Y52652D02*
Y56392D01*
X365378Y64995D02*
Y71884D01*
X361638Y64995D02*
Y71884D01*
X365378D01*
X361638Y64995D02*
X365378D01*
X355552D02*
Y71884D01*
X351812Y64995D02*
Y71884D01*
X355552D01*
X351812Y64995D02*
X355552D01*
X345727D02*
Y71884D01*
X341987Y64995D02*
Y71884D01*
X345727D01*
X341987Y64995D02*
X345727D01*
X341680Y52652D02*
X348570D01*
X341680Y56392D02*
X348570D01*
Y52652D02*
Y56392D01*
X341680Y52652D02*
Y56392D01*
X329853Y52652D02*
X336743D01*
X329853Y56392D02*
X336743D01*
Y52652D02*
Y56392D01*
X329853Y52652D02*
Y56392D01*
X335901Y64995D02*
Y71884D01*
X332161Y64995D02*
Y71884D01*
X335901D01*
X332161Y64995D02*
X335901D01*
X262230Y86675D02*
X278864D01*
X257555Y82000D02*
X262230Y86675D01*
X257555Y60690D02*
Y82000D01*
Y60690D02*
X283540D01*
Y82000D01*
X278864Y86675D02*
X283540Y82000D01*
X241262Y131464D02*
X261538D01*
X241262Y121031D02*
X261538D01*
X241262D02*
Y131464D01*
X261538Y121031D02*
Y131464D01*
X289308Y116119D02*
Y135804D01*
X273166Y116119D02*
Y135804D01*
Y116119D02*
X289308D01*
X273166Y135804D02*
X289308D01*
X241262Y174771D02*
X261538D01*
X241262Y164338D02*
X261538D01*
X241262D02*
Y174771D01*
X261538Y164338D02*
Y174771D01*
X289308Y159426D02*
Y179112D01*
X273166Y159426D02*
Y179112D01*
Y159426D02*
X289308D01*
X273166Y179112D02*
X289308D01*
Y202733D02*
Y222419D01*
X273166Y202733D02*
Y222419D01*
Y202733D02*
X289308D01*
X273166Y222419D02*
X289308D01*
X241262Y218078D02*
X261538D01*
X241262Y207645D02*
X261538D01*
X241262D02*
Y218078D01*
X261538Y207645D02*
Y218078D01*
X227919Y302154D02*
X247604D01*
X227919Y286012D02*
X247604D01*
Y302154D01*
X227919Y286012D02*
Y302154D01*
X232731Y253709D02*
Y273985D01*
X243164Y253709D02*
Y273985D01*
X232731Y253709D02*
X243164D01*
X232731Y273985D02*
X243164D01*
X147911Y206873D02*
X168186D01*
X147911Y217306D02*
X168186D01*
Y206873D02*
Y217306D01*
X147911Y206873D02*
Y217306D01*
X120141Y199874D02*
Y219560D01*
X136283Y199874D02*
Y219560D01*
X120141D02*
X136283D01*
X120141Y199874D02*
X136283D01*
X144027Y302154D02*
X163712D01*
X144027Y286012D02*
X163712D01*
Y302154D01*
X144027Y286012D02*
Y302154D01*
X148684Y253552D02*
Y273828D01*
X159117Y253552D02*
Y273828D01*
X148684Y253552D02*
X159117D01*
X148684Y273828D02*
X159117D01*
X364011Y369674D02*
Y373415D01*
X370900Y369674D02*
Y373415D01*
X364011D02*
X370900D01*
X364011Y369674D02*
X370900D01*
X105815Y126065D02*
X109555D01*
X105815Y119175D02*
X109555D01*
X105815D02*
Y126065D01*
X109555Y119175D02*
Y126065D01*
X266830Y201128D02*
X270570D01*
X266830Y208018D02*
X270570D01*
Y201128D02*
Y208018D01*
X266830Y201128D02*
Y208018D01*
X54312Y104516D02*
X58987Y99841D01*
Y78532D02*
Y99841D01*
X33003Y78532D02*
X58987D01*
X33003D02*
Y99841D01*
X37678Y104516D01*
X54312D01*
X90090D02*
X94765Y99841D01*
Y78532D02*
Y99841D01*
X68781Y78532D02*
X94765D01*
X68781D02*
Y99841D01*
X73456Y104516D01*
X90090D01*
X312380Y86671D02*
X317056Y81996D01*
Y60687D02*
Y81996D01*
X291071Y60687D02*
X317056D01*
X291071D02*
Y81996D01*
X295746Y86671D01*
X312380D01*
X158538Y278343D02*
X165428D01*
X158538Y282083D02*
X165428D01*
X158538Y278343D02*
Y282083D01*
X165428Y278343D02*
Y282083D01*
X141345Y241143D02*
Y248033D01*
X145086Y241143D02*
Y248033D01*
X141345D02*
X145086D01*
X141345Y241143D02*
X145086D01*
X221986Y25088D02*
Y64458D01*
X182615Y25088D02*
Y64458D01*
Y25088D02*
X221986D01*
X182615Y64458D02*
X221986D01*
X352682Y365812D02*
X368430D01*
X352682Y346127D02*
X368430D01*
X352682D02*
Y365812D01*
X368430Y346127D02*
Y365812D01*
X338907Y352523D02*
Y359413D01*
X335167Y352523D02*
Y359413D01*
X338907D01*
X335167Y352523D02*
X338907D01*
X123368Y88907D02*
X137147D01*
X123368Y63317D02*
Y88907D01*
Y63317D02*
X137147D01*
Y88907D01*
M02*
