G04*
G04 #@! TF.GenerationSoftware,Altium Limited,Altium Designer,20.0.13 (296)*
G04*
G04 Layer_Color=65535*
%FSLAX25Y25*%
%MOIN*%
G70*
G01*
G75*
%ADD10C,0.00984*%
%ADD11C,0.02362*%
%ADD12C,0.00787*%
%ADD13C,0.00591*%
%ADD14C,0.01000*%
D10*
X325621Y82643D02*
X324883Y83069D01*
Y82217D01*
X325621Y82643D01*
X119452Y177355D02*
X118714Y177781D01*
Y176929D01*
X119452Y177355D01*
Y134048D02*
X118714Y134474D01*
Y133622D01*
X119452Y134048D01*
X290981Y115017D02*
X290243Y115443D01*
Y114591D01*
X290981Y115017D01*
Y158324D02*
X290243Y158750D01*
Y157898D01*
X290981Y158324D01*
Y201631D02*
X290243Y202057D01*
Y201205D01*
X290981Y201631D01*
X249198Y303335D02*
X248460Y303761D01*
Y302909D01*
X249198Y303335D01*
X119452Y220662D02*
X118714Y221088D01*
Y220236D01*
X119452Y220662D01*
X165306Y303335D02*
X164568Y303761D01*
Y302909D01*
X165306Y303335D01*
X225430Y27253D02*
X224692Y27680D01*
Y26827D01*
X225430Y27253D01*
X371776Y345123D02*
X371038Y345549D01*
Y344697D01*
X371776Y345123D01*
X143151Y61939D02*
X142413Y62365D01*
Y61512D01*
X143151Y61939D01*
D11*
X330503Y91895D02*
X330058Y92818D01*
X329059Y93046D01*
X328257Y92407D01*
Y91382D01*
X329059Y90743D01*
X330058Y90971D01*
X330503Y91895D01*
X217950Y30305D02*
X217505Y31228D01*
X216506Y31456D01*
X215705Y30817D01*
Y29792D01*
X216506Y29153D01*
X217505Y29381D01*
X217950Y30305D01*
X364099Y350064D02*
X363654Y350987D01*
X362655Y351215D01*
X361854Y350576D01*
Y349551D01*
X362655Y348912D01*
X363654Y349140D01*
X364099Y350064D01*
D12*
X325384Y87958D02*
X376566D01*
X325384Y114729D02*
X376566D01*
X325384Y87958D02*
Y114729D01*
X376566Y87958D02*
Y114729D01*
X153324Y164058D02*
X162773D01*
X153324Y173507D02*
X162773D01*
X153324Y120751D02*
X162773D01*
X153324Y130200D02*
X162773D01*
X257555Y60690D02*
Y82000D01*
Y60690D02*
X265725D01*
X275370D02*
X283540D01*
Y82000D01*
X262230Y86675D02*
X265725D01*
X257555Y82000D02*
X262230Y86675D01*
X278864D02*
X283540Y82000D01*
X275370Y86675D02*
X278864D01*
X246676Y130972D02*
X256124D01*
X246676Y121523D02*
X256124D01*
X246676Y174279D02*
X256124D01*
X246676Y164830D02*
X256124D01*
X246676Y217586D02*
X256124D01*
X246676Y208137D02*
X256124D01*
X233223Y259122D02*
Y268571D01*
X242672Y259122D02*
Y268571D01*
X153324Y207365D02*
X162773D01*
X153324Y216814D02*
X162773D01*
X149177Y258966D02*
Y268414D01*
X158625Y258966D02*
Y268414D01*
X50818Y104516D02*
X54312D01*
X58987Y99841D01*
X33003D02*
X37678Y104516D01*
X41172D01*
X58987Y78532D02*
Y99841D01*
X50818Y78532D02*
X58987D01*
X33003D02*
X41172D01*
X33003D02*
Y99841D01*
X86596Y104516D02*
X90090D01*
X94765Y99841D01*
X68781D02*
X73456Y104516D01*
X76950D01*
X94765Y78532D02*
Y99841D01*
X86596Y78532D02*
X94765D01*
X68781D02*
X76950D01*
X68781D02*
Y99841D01*
X308886Y86671D02*
X312380D01*
X317056Y81996D01*
X291071D02*
X295746Y86671D01*
X299241D01*
X317056Y60687D02*
Y81996D01*
X308886Y60687D02*
X317056D01*
X291071D02*
X299241D01*
X291071D02*
Y81996D01*
X294050Y11440D02*
Y25440D01*
X265550D02*
X294050D01*
X265550Y11440D02*
Y25440D01*
Y11440D02*
X294050D01*
X220706Y26368D02*
Y63178D01*
X183895Y26368D02*
Y63178D01*
Y26368D02*
X220706D01*
X183895Y63178D02*
X220706D01*
X354257Y365812D02*
X366855D01*
X354257Y346127D02*
X366855D01*
X354257D02*
Y365812D01*
X366855Y346127D02*
Y365812D01*
X123368Y63317D02*
Y88907D01*
X137147D01*
Y63317D02*
Y88712D01*
X123368Y63317D02*
X137147D01*
X217627Y109181D02*
X213691D01*
Y111149D01*
X214348Y111805D01*
X215659D01*
X216315Y111149D01*
Y109181D01*
Y110493D02*
X217627Y111805D01*
X213691Y115741D02*
X214348Y114429D01*
X215659Y113117D01*
X216971D01*
X217627Y113773D01*
Y115085D01*
X216971Y115741D01*
X216315D01*
X215659Y115085D01*
Y113117D01*
X216971Y117053D02*
X217627Y117709D01*
Y119021D01*
X216971Y119676D01*
X214348D01*
X213691Y119021D01*
Y117709D01*
X214348Y117053D01*
X215003D01*
X215659Y117709D01*
Y119676D01*
X194949Y109320D02*
X191014D01*
Y111288D01*
X191670Y111944D01*
X192982D01*
X193638Y111288D01*
Y109320D01*
Y110632D02*
X194949Y111944D01*
X191014Y115880D02*
X191670Y114568D01*
X192982Y113256D01*
X194294D01*
X194949Y113912D01*
Y115224D01*
X194294Y115880D01*
X193638D01*
X192982Y115224D01*
Y113256D01*
X191670Y117192D02*
X191014Y117848D01*
Y119160D01*
X191670Y119816D01*
X192326D01*
X192982Y119160D01*
X193638Y119816D01*
X194294D01*
X194949Y119160D01*
Y117848D01*
X194294Y117192D01*
X193638D01*
X192982Y117848D01*
X192326Y117192D01*
X191670D01*
X192982Y117848D02*
Y119160D01*
X365065Y380625D02*
X364409Y381280D01*
X363097D01*
X362441Y380625D01*
Y378001D01*
X363097Y377345D01*
X364409D01*
X365065Y378001D01*
X366377Y377345D02*
X367688D01*
X367033D01*
Y381280D01*
X366377Y380625D01*
X32424Y117780D02*
X31768Y118436D01*
X30456D01*
X29800Y117780D01*
Y115156D01*
X30456Y114500D01*
X31768D01*
X32424Y115156D01*
X33736Y114500D02*
X35048D01*
X34392D01*
Y118436D01*
X33736Y117780D01*
X37016Y115156D02*
X37672Y114500D01*
X38983D01*
X39639Y115156D01*
Y117780D01*
X38983Y118436D01*
X37672D01*
X37016Y117780D01*
Y117124D01*
X37672Y116468D01*
X39639D01*
X290473Y99876D02*
X289816Y100532D01*
X288505D01*
X287849Y99876D01*
Y97252D01*
X288505Y96596D01*
X289816D01*
X290473Y97252D01*
X291784Y96596D02*
X293096D01*
X292440D01*
Y100532D01*
X291784Y99876D01*
X295064D02*
X295720Y100532D01*
X297032D01*
X297688Y99876D01*
Y99220D01*
X297032Y98564D01*
X296376D01*
X297032D01*
X297688Y97908D01*
Y97252D01*
X297032Y96596D01*
X295720D01*
X295064Y97252D01*
X68124Y117780D02*
X67468Y118436D01*
X66156D01*
X65500Y117780D01*
Y115156D01*
X66156Y114500D01*
X67468D01*
X68124Y115156D01*
X69436Y114500D02*
X70748D01*
X70092D01*
Y118436D01*
X69436Y117780D01*
X72716D02*
X73371Y118436D01*
X74683D01*
X75339Y117780D01*
Y117124D01*
X74683Y116468D01*
X75339Y115812D01*
Y115156D01*
X74683Y114500D01*
X73371D01*
X72716Y115156D01*
Y115812D01*
X73371Y116468D01*
X72716Y117124D01*
Y117780D01*
X73371Y116468D02*
X74683D01*
X256923Y99880D02*
X256267Y100536D01*
X254955D01*
X254299Y99880D01*
Y97256D01*
X254955Y96600D01*
X256267D01*
X256923Y97256D01*
X258235Y96600D02*
X259547D01*
X258891D01*
Y100536D01*
X258235Y99880D01*
X264139Y96600D02*
X261515D01*
X264139Y99224D01*
Y99880D01*
X263483Y100536D01*
X262171D01*
X261515Y99880D01*
X98433Y385333D02*
X101057Y381397D01*
Y385333D02*
X98433Y381397D01*
X102369D02*
X103681D01*
X103025D01*
Y385333D01*
X102369Y384677D01*
X265800Y37636D02*
X268424Y33700D01*
Y37636D02*
X265800Y33700D01*
X272360D02*
X269736D01*
X272360Y36324D01*
Y36980D01*
X271704Y37636D01*
X270392D01*
X269736Y36980D01*
X176800Y77736D02*
Y74456D01*
X177456Y73800D01*
X178768D01*
X179424Y74456D01*
Y77736D01*
X180736Y73800D02*
X182048D01*
X181392D01*
Y77736D01*
X180736Y77080D01*
X184016D02*
X184671Y77736D01*
X185983D01*
X186639Y77080D01*
Y76424D01*
X185983Y75768D01*
X185327D01*
X185983D01*
X186639Y75112D01*
Y74456D01*
X185983Y73800D01*
X184671D01*
X184016Y74456D01*
X346641Y373580D02*
Y370301D01*
X347297Y369645D01*
X348609D01*
X349265Y370301D01*
Y373580D01*
X350577Y369645D02*
X351888D01*
X351233D01*
Y373580D01*
X350577Y372924D01*
X114236Y96095D02*
Y92815D01*
X114892Y92159D01*
X116204D01*
X116860Y92815D01*
Y96095D01*
X120796Y92159D02*
X118172D01*
X120796Y94783D01*
Y95439D01*
X120140Y96095D01*
X118828D01*
X118172Y95439D01*
X371631Y131167D02*
Y127888D01*
X372287Y127232D01*
X373599D01*
X374254Y127888D01*
Y131167D01*
X375566Y127232D02*
X376878D01*
X376222D01*
Y131167D01*
X375566Y130511D01*
X378846Y127232D02*
X380158D01*
X379502D01*
Y131167D01*
X378846Y130511D01*
X311332Y15977D02*
Y19913D01*
X313300D01*
X313956Y19257D01*
Y17945D01*
X313300Y17289D01*
X311332D01*
X312644D02*
X313956Y15977D01*
X317891Y19913D02*
X316580Y19257D01*
X315268Y17945D01*
Y16633D01*
X315924Y15977D01*
X317235D01*
X317891Y16633D01*
Y17289D01*
X317235Y17945D01*
X315268D01*
X319203Y19913D02*
X321827D01*
Y19257D01*
X319203Y16633D01*
Y15977D01*
X311332Y24707D02*
Y28643D01*
X313300D01*
X313956Y27987D01*
Y26675D01*
X313300Y26019D01*
X311332D01*
X312644D02*
X313956Y24707D01*
X317891Y28643D02*
X316580Y27987D01*
X315268Y26675D01*
Y25363D01*
X315924Y24707D01*
X317235D01*
X317891Y25363D01*
Y26019D01*
X317235Y26675D01*
X315268D01*
X321827Y28643D02*
X320515Y27987D01*
X319203Y26675D01*
Y25363D01*
X319859Y24707D01*
X321171D01*
X321827Y25363D01*
Y26019D01*
X321171Y26675D01*
X319203D01*
X334741Y364145D02*
Y368080D01*
X336709D01*
X337365Y367425D01*
Y366113D01*
X336709Y365457D01*
X334741D01*
X336053D02*
X337365Y364145D01*
X338677D02*
X339988D01*
X339333D01*
Y368080D01*
X338677Y367425D01*
X136285Y262714D02*
Y266650D01*
X138253D01*
X138909Y265994D01*
Y264682D01*
X138253Y264026D01*
X136285D01*
X137597D02*
X138909Y262714D01*
X142845Y266650D02*
X140221D01*
Y264682D01*
X141533Y265338D01*
X142189D01*
X142845Y264682D01*
Y263370D01*
X142189Y262714D01*
X140877D01*
X140221Y263370D01*
X144157Y262714D02*
X145468D01*
X144813D01*
Y266650D01*
X144157Y265994D01*
X245635Y262019D02*
Y265955D01*
X247603D01*
X248259Y265299D01*
Y263987D01*
X247603Y263331D01*
X245635D01*
X246947D02*
X248259Y262019D01*
X251539D02*
Y265955D01*
X249571Y263987D01*
X252195D01*
X255474Y262019D02*
Y265955D01*
X253506Y263987D01*
X256130D01*
X153434Y220701D02*
Y224637D01*
X155402D01*
X156058Y223981D01*
Y222669D01*
X155402Y222013D01*
X153434D01*
X154746D02*
X156058Y220701D01*
X157369Y223981D02*
X158026Y224637D01*
X159337D01*
X159993Y223981D01*
Y223325D01*
X159337Y222669D01*
X158681D01*
X159337D01*
X159993Y222013D01*
Y221357D01*
X159337Y220701D01*
X158026D01*
X157369Y221357D01*
X161305Y224637D02*
X163929D01*
Y223981D01*
X161305Y221357D01*
Y220701D01*
X245782Y221952D02*
Y225888D01*
X247749D01*
X248406Y225232D01*
Y223920D01*
X247749Y223264D01*
X245782D01*
X247094D02*
X248406Y221952D01*
X249717Y225232D02*
X250373Y225888D01*
X251685D01*
X252341Y225232D01*
Y224576D01*
X251685Y223920D01*
X251029D01*
X251685D01*
X252341Y223264D01*
Y222608D01*
X251685Y221952D01*
X250373D01*
X249717Y222608D01*
X253653Y225232D02*
X254309Y225888D01*
X255621D01*
X256277Y225232D01*
Y222608D01*
X255621Y221952D01*
X254309D01*
X253653Y222608D01*
Y225232D01*
X150392Y176512D02*
Y180447D01*
X152360D01*
X153016Y179791D01*
Y178479D01*
X152360Y177823D01*
X150392D01*
X151704D02*
X153016Y176512D01*
X156951D02*
X154327D01*
X156951Y179135D01*
Y179791D01*
X156295Y180447D01*
X154983D01*
X154327Y179791D01*
X158263D02*
X158919Y180447D01*
X160231D01*
X160887Y179791D01*
Y179135D01*
X160231Y178479D01*
X159575D01*
X160231D01*
X160887Y177823D01*
Y177167D01*
X160231Y176512D01*
X158919D01*
X158263Y177167D01*
X240963Y180215D02*
Y184151D01*
X242931D01*
X243587Y183495D01*
Y182183D01*
X242931Y181527D01*
X240963D01*
X242275D02*
X243587Y180215D01*
X244899D02*
X246211D01*
X245555D01*
Y184151D01*
X244899Y183495D01*
X250802Y184151D02*
X249491Y183495D01*
X248179Y182183D01*
Y180871D01*
X248835Y180215D01*
X250147D01*
X250802Y180871D01*
Y181527D01*
X250147Y182183D01*
X248179D01*
X153430Y133637D02*
Y137573D01*
X155398D01*
X156054Y136917D01*
Y135605D01*
X155398Y134949D01*
X153430D01*
X154742D02*
X156054Y133637D01*
X157366Y134293D02*
X158022Y133637D01*
X159334D01*
X159990Y134293D01*
Y136917D01*
X159334Y137573D01*
X158022D01*
X157366Y136917D01*
Y136261D01*
X158022Y135605D01*
X159990D01*
X244017Y136405D02*
Y140340D01*
X245985D01*
X246641Y139684D01*
Y138373D01*
X245985Y137716D01*
X244017D01*
X245329D02*
X246641Y136405D01*
X250577D02*
X247953D01*
X250577Y139028D01*
Y139684D01*
X249921Y140340D01*
X248609D01*
X247953Y139684D01*
X356053Y40540D02*
Y44476D01*
X358021D01*
X358677Y43820D01*
Y42508D01*
X358021Y41852D01*
X356053D01*
X357365D02*
X358677Y40540D01*
X362613Y44476D02*
X361301Y43820D01*
X359989Y42508D01*
Y41196D01*
X360645Y40540D01*
X361957D01*
X362613Y41196D01*
Y41852D01*
X361957Y42508D01*
X359989D01*
X363925Y40540D02*
X365236D01*
X364580D01*
Y44476D01*
X363925Y43820D01*
X343848Y40540D02*
Y44476D01*
X345816D01*
X346472Y43820D01*
Y42508D01*
X345816Y41852D01*
X343848D01*
X345161D02*
X346472Y40540D01*
X350408Y44476D02*
X349096Y43820D01*
X347784Y42508D01*
Y41196D01*
X348440Y40540D01*
X349752D01*
X350408Y41196D01*
Y41852D01*
X349752Y42508D01*
X347784D01*
X351720Y43820D02*
X352376Y44476D01*
X353688D01*
X354344Y43820D01*
Y41196D01*
X353688Y40540D01*
X352376D01*
X351720Y41196D01*
Y43820D01*
X331613Y40540D02*
Y44476D01*
X333581D01*
X334237Y43820D01*
Y42508D01*
X333581Y41852D01*
X331613D01*
X332925D02*
X334237Y40540D01*
X338173Y44476D02*
X335549D01*
Y42508D01*
X336861Y43164D01*
X337517D01*
X338173Y42508D01*
Y41196D01*
X337517Y40540D01*
X336205D01*
X335549Y41196D01*
X339485D02*
X340141Y40540D01*
X341453D01*
X342109Y41196D01*
Y43820D01*
X341453Y44476D01*
X340141D01*
X339485Y43820D01*
Y43164D01*
X340141Y42508D01*
X342109D01*
X319378Y40540D02*
Y44476D01*
X321346D01*
X322002Y43820D01*
Y42508D01*
X321346Y41852D01*
X319378D01*
X320690D02*
X322002Y40540D01*
X325938Y44476D02*
X323314D01*
Y42508D01*
X324626Y43164D01*
X325282D01*
X325938Y42508D01*
Y41196D01*
X325282Y40540D01*
X323970D01*
X323314Y41196D01*
X327249Y43820D02*
X327905Y44476D01*
X329217D01*
X329873Y43820D01*
Y43164D01*
X329217Y42508D01*
X329873Y41852D01*
Y41196D01*
X329217Y40540D01*
X327905D01*
X327249Y41196D01*
Y41852D01*
X327905Y42508D01*
X327249Y43164D01*
Y43820D01*
X327905Y42508D02*
X329217D01*
X134481Y286964D02*
Y289588D01*
X133825Y290244D01*
X132513D01*
X131857Y289588D01*
Y286964D01*
X132513Y286308D01*
X133825D01*
X133169Y287620D02*
X134481Y286308D01*
X133825D02*
X134481Y286964D01*
X135793Y289588D02*
X136449Y290244D01*
X137761D01*
X138417Y289588D01*
Y288932D01*
X137761Y288276D01*
X138417Y287620D01*
Y286964D01*
X137761Y286308D01*
X136449D01*
X135793Y286964D01*
Y287620D01*
X136449Y288276D01*
X135793Y288932D01*
Y289588D01*
X136449Y288276D02*
X137761D01*
X255534Y290246D02*
Y292869D01*
X254878Y293526D01*
X253566D01*
X252910Y292869D01*
Y290246D01*
X253566Y289590D01*
X254878D01*
X254222Y290902D02*
X255534Y289590D01*
X254878D02*
X255534Y290246D01*
X256846Y293526D02*
X259470D01*
Y292869D01*
X256846Y290246D01*
Y289590D01*
X130500Y225545D02*
Y228169D01*
X129844Y228825D01*
X128532D01*
X127876Y228169D01*
Y225545D01*
X128532Y224889D01*
X129844D01*
X129188Y226201D02*
X130500Y224889D01*
X129844D02*
X130500Y225545D01*
X134436Y228825D02*
X133124Y228169D01*
X131812Y226857D01*
Y225545D01*
X132468Y224889D01*
X133780D01*
X134436Y225545D01*
Y226201D01*
X133780Y226857D01*
X131812D01*
X273813Y228325D02*
Y230948D01*
X273157Y231604D01*
X271846D01*
X271189Y230948D01*
Y228325D01*
X271846Y227669D01*
X273157D01*
X272501Y228980D02*
X273813Y227669D01*
X273157D02*
X273813Y228325D01*
X277749Y231604D02*
X275125D01*
Y229637D01*
X276437Y230293D01*
X277093D01*
X277749Y229637D01*
Y228325D01*
X277093Y227669D01*
X275781D01*
X275125Y228325D01*
X128390Y181624D02*
Y184248D01*
X127734Y184904D01*
X126422D01*
X125766Y184248D01*
Y181624D01*
X126422Y180968D01*
X127734D01*
X127078Y182280D02*
X128390Y180968D01*
X127734D02*
X128390Y181624D01*
X131670Y180968D02*
Y184904D01*
X129702Y182936D01*
X132326D01*
X276101Y184493D02*
Y187117D01*
X275445Y187773D01*
X274133D01*
X273477Y187117D01*
Y184493D01*
X274133Y183837D01*
X275445D01*
X274789Y185149D02*
X276101Y183837D01*
X275445D02*
X276101Y184493D01*
X277413Y187117D02*
X278069Y187773D01*
X279381D01*
X280037Y187117D01*
Y186461D01*
X279381Y185805D01*
X278725D01*
X279381D01*
X280037Y185149D01*
Y184493D01*
X279381Y183837D01*
X278069D01*
X277413Y184493D01*
X130143Y138085D02*
Y140708D01*
X129488Y141365D01*
X128176D01*
X127520Y140708D01*
Y138085D01*
X128176Y137429D01*
X129488D01*
X128832Y138741D02*
X130143Y137429D01*
X129488D02*
X130143Y138085D01*
X134079Y137429D02*
X131456D01*
X134079Y140052D01*
Y140708D01*
X133423Y141365D01*
X132111D01*
X131456Y140708D01*
X275527Y140605D02*
Y143228D01*
X274871Y143885D01*
X273559D01*
X272903Y143228D01*
Y140605D01*
X273559Y139949D01*
X274871D01*
X274215Y141261D02*
X275527Y139949D01*
X274871D02*
X275527Y140605D01*
X276839Y139949D02*
X278151D01*
X277495D01*
Y143885D01*
X276839Y143228D01*
X252518Y41318D02*
X251862Y41974D01*
X250550D01*
X249894Y41318D01*
Y38694D01*
X250550Y38038D01*
X251862D01*
X252518Y38694D01*
X256454Y38038D02*
X253830D01*
X256454Y40662D01*
Y41318D01*
X255798Y41974D01*
X254486D01*
X253830Y41318D01*
X257766D02*
X258422Y41974D01*
X259734D01*
X260390Y41318D01*
Y40662D01*
X259734Y40006D01*
X260390Y39350D01*
Y38694D01*
X259734Y38038D01*
X258422D01*
X257766Y38694D01*
Y39350D01*
X258422Y40006D01*
X257766Y40662D01*
Y41318D01*
X258422Y40006D02*
X259734D01*
X252518Y47573D02*
X251862Y48229D01*
X250550D01*
X249894Y47573D01*
Y44949D01*
X250550Y44293D01*
X251862D01*
X252518Y44949D01*
X256454Y44293D02*
X253830D01*
X256454Y46917D01*
Y47573D01*
X255798Y48229D01*
X254486D01*
X253830Y47573D01*
X257766Y48229D02*
X260390D01*
Y47573D01*
X257766Y44949D01*
Y44293D01*
X252518Y54575D02*
X251862Y55231D01*
X250550D01*
X249894Y54575D01*
Y51951D01*
X250550Y51295D01*
X251862D01*
X252518Y51951D01*
X256454Y51295D02*
X253830D01*
X256454Y53919D01*
Y54575D01*
X255798Y55231D01*
X254486D01*
X253830Y54575D01*
X260390Y55231D02*
X259078Y54575D01*
X257766Y53263D01*
Y51951D01*
X258422Y51295D01*
X259734D01*
X260390Y51951D01*
Y52607D01*
X259734Y53263D01*
X257766D01*
X149392Y44332D02*
X148737Y44988D01*
X147425D01*
X146769Y44332D01*
Y41708D01*
X147425Y41052D01*
X148737D01*
X149392Y41708D01*
X153328Y41052D02*
X150704D01*
X153328Y43676D01*
Y44332D01*
X152672Y44988D01*
X151360D01*
X150704Y44332D01*
X157264Y44988D02*
X154640D01*
Y43020D01*
X155952Y43676D01*
X156608D01*
X157264Y43020D01*
Y41708D01*
X156608Y41052D01*
X155296D01*
X154640Y41708D01*
X313956Y10903D02*
X313300Y11559D01*
X311988D01*
X311332Y10903D01*
Y8279D01*
X311988Y7623D01*
X313300D01*
X313956Y8279D01*
X317891Y7623D02*
X315268D01*
X317891Y10247D01*
Y10903D01*
X317235Y11559D01*
X315924D01*
X315268Y10903D01*
X321171Y7623D02*
Y11559D01*
X319203Y9591D01*
X321827D01*
X163598Y72150D02*
X162942Y71494D01*
Y70182D01*
X163598Y69526D01*
X166222D01*
X166878Y70182D01*
Y71494D01*
X166222Y72150D01*
X163598Y73462D02*
X162942Y74118D01*
Y75430D01*
X163598Y76086D01*
X164254D01*
X164910Y75430D01*
Y74774D01*
Y75430D01*
X165566Y76086D01*
X166222D01*
X166878Y75430D01*
Y74118D01*
X166222Y73462D01*
X163045Y88053D02*
X162389Y87397D01*
Y86085D01*
X163045Y85429D01*
X165669D01*
X166325Y86085D01*
Y87397D01*
X165669Y88053D01*
X166325Y91989D02*
Y89365D01*
X163701Y91989D01*
X163045D01*
X162389Y91333D01*
Y90021D01*
X163045Y89365D01*
X383331Y66031D02*
X382675Y65375D01*
Y64063D01*
X383331Y63407D01*
X385955D01*
X386611Y64063D01*
Y65375D01*
X385955Y66031D01*
X386611Y67343D02*
Y68655D01*
Y67999D01*
X382675D01*
X383331Y67343D01*
X382675Y70623D02*
Y73246D01*
X383331D01*
X385955Y70623D01*
X386611D01*
X378368Y66031D02*
X377712Y65375D01*
Y64063D01*
X378368Y63407D01*
X380992D01*
X381648Y64063D01*
Y65375D01*
X380992Y66031D01*
X381648Y67343D02*
Y68655D01*
Y67999D01*
X377712D01*
X378368Y67343D01*
X377712Y73246D02*
X378368Y71934D01*
X379680Y70623D01*
X380992D01*
X381648Y71279D01*
Y72590D01*
X380992Y73246D01*
X380336D01*
X379680Y72590D01*
Y70623D01*
X373247Y66031D02*
X372591Y65375D01*
Y64063D01*
X373247Y63407D01*
X375871D01*
X376527Y64063D01*
Y65375D01*
X375871Y66031D01*
X376527Y67343D02*
Y68655D01*
Y67999D01*
X372591D01*
X373247Y67343D01*
X372591Y73246D02*
Y70623D01*
X374559D01*
X373903Y71934D01*
Y72590D01*
X374559Y73246D01*
X375871D01*
X376527Y72590D01*
Y71279D01*
X375871Y70623D01*
X368102Y66031D02*
X367446Y65375D01*
Y64063D01*
X368102Y63407D01*
X370726D01*
X371382Y64063D01*
Y65375D01*
X370726Y66031D01*
X371382Y67343D02*
Y68655D01*
Y67999D01*
X367446D01*
X368102Y67343D01*
X371382Y72590D02*
X367446D01*
X369414Y70623D01*
Y73246D01*
D13*
X202129Y109418D02*
X202885D01*
Y119418D01*
X202129D02*
X202885D01*
X197373D02*
X198129D01*
X197373Y109418D02*
Y119418D01*
Y109418D02*
X198129D01*
X197373Y114418D02*
X202885D01*
X204920Y119418D02*
X205676D01*
X204920Y109418D02*
Y119418D01*
Y109418D02*
X205676D01*
X209676D02*
X210432D01*
Y119418D01*
X209676D02*
X210432D01*
X204920Y114418D02*
X210432D01*
X154608Y93410D02*
X155789D01*
X154608Y82387D02*
Y93410D01*
Y82387D02*
X155789D01*
X158939D02*
X160120D01*
Y93410D01*
X158939D02*
X160120D01*
X154608Y87899D02*
X160120D01*
X159480Y67160D02*
X160661D01*
Y78184D01*
X159480D02*
X160661D01*
X155149D02*
X156331D01*
X155149Y67160D02*
Y78184D01*
Y67160D02*
X156331D01*
X155149Y72672D02*
X160661D01*
X159474Y40099D02*
Y41280D01*
Y40099D02*
X170498D01*
Y41280D01*
Y44430D02*
Y45611D01*
X159474D02*
X170498D01*
X159474Y44430D02*
Y45611D01*
X164986Y40099D02*
Y45611D01*
X248123Y54708D02*
Y55889D01*
X237099D02*
X248123D01*
X237099Y54708D02*
Y55889D01*
Y50377D02*
Y51559D01*
Y50377D02*
X248123D01*
Y51559D01*
X242611Y50377D02*
Y55889D01*
X248123Y47942D02*
Y49123D01*
X237099D02*
X248123D01*
X237099Y47942D02*
Y49123D01*
Y43611D02*
Y44792D01*
Y43611D02*
X248123D01*
Y44792D01*
X242611Y43611D02*
Y49123D01*
X248123Y41175D02*
Y42356D01*
X237099D02*
X248123D01*
X237099Y41175D02*
Y42356D01*
Y36845D02*
Y38026D01*
Y36845D02*
X248123D01*
Y38026D01*
X242611Y36845D02*
Y42356D01*
X303790Y23348D02*
Y28860D01*
X298790Y28104D02*
Y28860D01*
X308790D01*
Y28104D02*
Y28860D01*
Y23348D02*
Y24104D01*
X298790Y23348D02*
X308790D01*
X298790D02*
Y24104D01*
X303790Y14871D02*
Y20383D01*
X298790Y19627D02*
Y20383D01*
X308790D01*
Y19627D02*
Y20383D01*
Y14871D02*
Y15627D01*
X298790Y14871D02*
X308790D01*
X298790D02*
Y15627D01*
X297766Y6394D02*
Y7575D01*
Y6394D02*
X308790D01*
Y7575D01*
Y10725D02*
Y11906D01*
X297766D02*
X308790D01*
X297766Y10725D02*
Y11906D01*
X303278Y6394D02*
Y11906D01*
X363780Y51766D02*
Y52522D01*
Y51766D02*
X373780D01*
Y52522D01*
Y56522D02*
Y57278D01*
X363780D02*
X373780D01*
X363780Y56522D02*
Y57278D01*
X368780Y51766D02*
Y57278D01*
X351953Y51766D02*
Y52522D01*
Y51766D02*
X361953D01*
Y52522D01*
Y56522D02*
Y57278D01*
X351953D02*
X361953D01*
X351953Y56522D02*
Y57278D01*
X356953Y51766D02*
Y57278D01*
X360752Y68439D02*
X366264D01*
X360752Y62928D02*
X361933D01*
X360752D02*
Y73951D01*
X361933D01*
X365083D02*
X366264D01*
Y62928D02*
Y73951D01*
X365083Y62928D02*
X366264D01*
X350926Y68439D02*
X356438D01*
X350926Y62928D02*
X352107D01*
X350926D02*
Y73951D01*
X352107D01*
X355257D02*
X356438D01*
Y62928D02*
Y73951D01*
X355257Y62928D02*
X356438D01*
X341101Y68439D02*
X346613D01*
X341101Y62928D02*
X342282D01*
X341101D02*
Y73951D01*
X342282D01*
X345431D02*
X346613D01*
Y62928D02*
Y73951D01*
X345431Y62928D02*
X346613D01*
X340125Y51766D02*
Y52522D01*
Y51766D02*
X350125D01*
Y52522D01*
Y56522D02*
Y57278D01*
X340125D02*
X350125D01*
X340125Y56522D02*
Y57278D01*
X345125Y51766D02*
Y57278D01*
X328298Y51766D02*
Y52522D01*
Y51766D02*
X338298D01*
Y52522D01*
Y56522D02*
Y57278D01*
X328298D02*
X338298D01*
X328298Y56522D02*
Y57278D01*
X333298Y51766D02*
Y57278D01*
X331275Y68439D02*
X336787D01*
X331275Y62928D02*
X332456D01*
X331275D02*
Y73951D01*
X332456D01*
X335606D02*
X336787D01*
Y62928D02*
Y73951D01*
X335606Y62928D02*
X336787D01*
X361944Y368789D02*
Y369970D01*
Y368789D02*
X372967D01*
Y369970D01*
Y373119D02*
Y374300D01*
X361944D02*
X372967D01*
X361944Y373119D02*
Y374300D01*
X367455Y368789D02*
Y374300D01*
X339037Y350968D02*
X339793D01*
Y360968D01*
X339037D02*
X339793D01*
X334281D02*
X335037D01*
X334281Y350968D02*
Y360968D01*
Y350968D02*
X335037D01*
X334281Y355968D02*
X339793D01*
D14*
X284626Y308898D02*
Y389398D01*
X105626D02*
X284626D01*
X105626Y308898D02*
Y389398D01*
Y308898D02*
X284626D01*
M02*
