G04*
G04 #@! TF.GenerationSoftware,Altium Limited,Altium Designer,20.0.13 (296)*
G04*
G04 Layer_Physical_Order=2*
G04 Layer_Color=16711680*
%FSLAX25Y25*%
%MOIN*%
G70*
G01*
G75*
%ADD11C,0.02362*%
G04:AMPARAMS|DCode=15|XSize=23.62mil|YSize=74.8mil|CornerRadius=5.91mil|HoleSize=0mil|Usage=FLASHONLY|Rotation=180.000|XOffset=0mil|YOffset=0mil|HoleType=Round|Shape=RoundedRectangle|*
%AMROUNDEDRECTD15*
21,1,0.02362,0.06299,0,0,180.0*
21,1,0.01181,0.07480,0,0,180.0*
1,1,0.01181,-0.00591,0.03150*
1,1,0.01181,0.00591,0.03150*
1,1,0.01181,0.00591,-0.03150*
1,1,0.01181,-0.00591,-0.03150*
%
%ADD15ROUNDEDRECTD15*%
%ADD19R,0.03740X0.03347*%
%ADD20R,0.03937X0.03543*%
%ADD21R,0.03543X0.03937*%
%ADD22R,0.03347X0.03740*%
%ADD53C,0.01181*%
%ADD54C,0.01968*%
%ADD58C,0.12992*%
%ADD59C,0.08661*%
%ADD60C,0.03543*%
%ADD61R,0.03543X0.03543*%
%ADD62C,0.02000*%
G04:AMPARAMS|DCode=63|XSize=16.54mil|YSize=35mil|CornerRadius=4.13mil|HoleSize=0mil|Usage=FLASHONLY|Rotation=90.000|XOffset=0mil|YOffset=0mil|HoleType=Round|Shape=RoundedRectangle|*
%AMROUNDEDRECTD63*
21,1,0.01654,0.02673,0,0,90.0*
21,1,0.00827,0.03500,0,0,90.0*
1,1,0.00827,0.01337,0.00413*
1,1,0.00827,0.01337,-0.00413*
1,1,0.00827,-0.01337,-0.00413*
1,1,0.00827,-0.01337,0.00413*
%
%ADD63ROUNDEDRECTD63*%
G04:AMPARAMS|DCode=64|XSize=16.54mil|YSize=35mil|CornerRadius=4.13mil|HoleSize=0mil|Usage=FLASHONLY|Rotation=180.000|XOffset=0mil|YOffset=0mil|HoleType=Round|Shape=RoundedRectangle|*
%AMROUNDEDRECTD64*
21,1,0.01654,0.02673,0,0,180.0*
21,1,0.00827,0.03500,0,0,180.0*
1,1,0.00827,-0.00413,0.01337*
1,1,0.00827,0.00413,0.01337*
1,1,0.00827,0.00413,-0.01337*
1,1,0.00827,-0.00413,-0.01337*
%
%ADD64ROUNDEDRECTD64*%
G36*
X379678Y386624D02*
X381336Y386121D01*
X382865Y385304D01*
X384205Y384205D01*
X385304Y382865D01*
X386121Y381336D01*
X386624Y379678D01*
X386786Y378031D01*
X386776Y377953D01*
Y11811D01*
X386786Y11732D01*
X386624Y10086D01*
X386121Y8428D01*
X385304Y6899D01*
X384205Y5559D01*
X382865Y4460D01*
X381336Y3643D01*
X379678Y3139D01*
X378031Y2977D01*
X377953Y2988D01*
X11811D01*
X11732Y2977D01*
X10086Y3139D01*
X8428Y3643D01*
X6899Y4460D01*
X5559Y5559D01*
X4460Y6899D01*
X3643Y8428D01*
X3139Y10086D01*
X2977Y11732D01*
X2988Y11811D01*
Y377953D01*
X2977Y378031D01*
X3139Y379678D01*
X3643Y381336D01*
X4460Y382865D01*
X5559Y384205D01*
X6899Y385304D01*
X8428Y386121D01*
X10086Y386624D01*
X11732Y386786D01*
X11811Y386776D01*
X377953D01*
X378031Y386786D01*
X379678Y386624D01*
D02*
G37*
%LPC*%
G36*
X270669Y383115D02*
X269278Y382978D01*
X267941Y382572D01*
X266708Y381913D01*
X265627Y381026D01*
X264741Y379946D01*
X264082Y378713D01*
X263676Y377375D01*
X263539Y375984D01*
X263676Y374593D01*
X264082Y373256D01*
X264741Y372023D01*
X265627Y370942D01*
X266708Y370056D01*
X267941Y369397D01*
X269278Y368991D01*
X270669Y368854D01*
X272060Y368991D01*
X273398Y369397D01*
X274631Y370056D01*
X275711Y370942D01*
X276598Y372023D01*
X277257Y373256D01*
X277663Y374593D01*
X277800Y375984D01*
X277663Y377375D01*
X277257Y378713D01*
X276598Y379946D01*
X275711Y381026D01*
X274631Y381913D01*
X273398Y382572D01*
X272060Y382978D01*
X270669Y383115D01*
D02*
G37*
G36*
X119095D02*
X117703Y382978D01*
X116366Y382572D01*
X115133Y381913D01*
X114052Y381026D01*
X113166Y379946D01*
X112507Y378713D01*
X112101Y377375D01*
X111964Y375984D01*
X112101Y374593D01*
X112507Y373256D01*
X113166Y372023D01*
X114052Y370942D01*
X115133Y370056D01*
X116366Y369397D01*
X117703Y368991D01*
X119095Y368854D01*
X120485Y368991D01*
X121823Y369397D01*
X123056Y370056D01*
X124136Y370942D01*
X125023Y372023D01*
X125682Y373256D01*
X126088Y374593D01*
X126225Y375984D01*
X126088Y377375D01*
X125682Y378713D01*
X125023Y379946D01*
X124136Y381026D01*
X123056Y381913D01*
X121823Y382572D01*
X120485Y382978D01*
X119095Y383115D01*
D02*
G37*
G36*
X152702Y367172D02*
X152078Y367047D01*
X151549Y366694D01*
X151195Y366164D01*
X151195Y366161D01*
X150937Y365989D01*
X150937Y365989D01*
X150080Y365132D01*
X96264D01*
X95154Y366242D01*
X95051Y366311D01*
X94795Y366694D01*
X94266Y367047D01*
X93642Y367172D01*
X93017Y367047D01*
X92488Y366694D01*
X92134Y366164D01*
X92010Y365540D01*
X92134Y364916D01*
X92488Y364387D01*
Y364094D01*
X92134Y363564D01*
X92010Y362940D01*
X92134Y362316D01*
X92488Y361787D01*
Y361494D01*
X92134Y360964D01*
X92010Y360340D01*
X92134Y359716D01*
X92488Y359187D01*
Y358894D01*
X92134Y358365D01*
X92010Y357740D01*
X92134Y357116D01*
X92488Y356587D01*
X93017Y356233D01*
X93642Y356109D01*
X94266Y356233D01*
X94795Y356587D01*
X95149Y357116D01*
X95149Y357119D01*
X95298Y357219D01*
X151010D01*
X151190Y357039D01*
X151190Y357038D01*
X151293Y356969D01*
X151549Y356587D01*
X152078Y356233D01*
X152702Y356109D01*
X153327Y356233D01*
X153766Y356526D01*
X164454D01*
X167451Y353530D01*
X166953Y352880D01*
X166456Y351681D01*
X166287Y350394D01*
X166456Y349107D01*
X166953Y347907D01*
X167743Y346877D01*
X168773Y346087D01*
X169973Y345590D01*
X171260Y345420D01*
X172547Y345590D01*
X173747Y346087D01*
X174776Y346877D01*
X175567Y347907D01*
X176064Y349107D01*
X176233Y350394D01*
X176064Y351681D01*
X175567Y352880D01*
X174776Y353910D01*
X173747Y354701D01*
X172547Y355198D01*
X171260Y355367D01*
X169973Y355198D01*
X169438Y354976D01*
X165815Y358598D01*
X165774Y358626D01*
X165926Y359126D01*
X174771D01*
X178473Y355424D01*
X178530Y355140D01*
X178793Y354746D01*
X179559Y353980D01*
X179554Y353910D01*
X178764Y352880D01*
X178267Y351681D01*
X178098Y350394D01*
X178267Y349107D01*
X178764Y347907D01*
X179554Y346877D01*
X180584Y346087D01*
X181784Y345590D01*
X183071Y345420D01*
X184358Y345590D01*
X185557Y346087D01*
X186588Y346877D01*
X187378Y347907D01*
X187875Y349107D01*
X188044Y350394D01*
X187875Y351681D01*
X187378Y352880D01*
X186588Y353910D01*
X185557Y354701D01*
X184358Y355198D01*
X183071Y355367D01*
X181784Y355198D01*
X181777Y355195D01*
X180829Y356143D01*
X180773Y356427D01*
X180509Y356821D01*
X180509Y356821D01*
X176132Y361198D01*
X176090Y361226D01*
X176242Y361726D01*
X183541D01*
X191361Y353906D01*
X190575Y352880D01*
X190078Y351681D01*
X189909Y350394D01*
X190078Y349107D01*
X190575Y347907D01*
X191365Y346877D01*
X192395Y346087D01*
X193595Y345590D01*
X194882Y345420D01*
X196169Y345590D01*
X197369Y346087D01*
X198398Y346877D01*
X199189Y347907D01*
X199686Y349107D01*
X199855Y350394D01*
X199686Y351681D01*
X199189Y352880D01*
X198398Y353910D01*
X197369Y354701D01*
X196169Y355198D01*
X194882Y355367D01*
X193595Y355198D01*
X193530Y355171D01*
X184902Y363798D01*
X184860Y363826D01*
X185012Y364326D01*
X192604D01*
X203108Y353822D01*
X202386Y352880D01*
X201889Y351681D01*
X201720Y350394D01*
X201889Y349107D01*
X202386Y347907D01*
X203176Y346877D01*
X204206Y346087D01*
X205406Y345590D01*
X206693Y345420D01*
X207980Y345590D01*
X209179Y346087D01*
X210209Y346877D01*
X211000Y347907D01*
X211497Y349107D01*
X211666Y350394D01*
X211497Y351681D01*
X211000Y352880D01*
X210209Y353910D01*
X209179Y354701D01*
X207980Y355198D01*
X206693Y355367D01*
X205406Y355198D01*
X205236Y355127D01*
X193965Y366399D01*
X193571Y366662D01*
X193107Y366754D01*
X193107Y366754D01*
X153766D01*
X153327Y367047D01*
X152702Y367172D01*
D02*
G37*
G36*
X292253Y363608D02*
X291629Y363484D01*
X291190Y363191D01*
X226935D01*
X226935Y363191D01*
X226470Y363098D01*
X226076Y362835D01*
X226076Y362835D01*
X218945Y355703D01*
X218702Y355341D01*
X218504Y355367D01*
X217217Y355198D01*
X216017Y354701D01*
X214987Y353910D01*
X214197Y352880D01*
X213700Y351681D01*
X213531Y350394D01*
X213700Y349107D01*
X214197Y347907D01*
X214987Y346877D01*
X216017Y346087D01*
X217217Y345590D01*
X218504Y345420D01*
X219791Y345590D01*
X220991Y346087D01*
X222021Y346877D01*
X222811Y347907D01*
X223308Y349107D01*
X223477Y350394D01*
X223308Y351681D01*
X222811Y352880D01*
X222021Y353910D01*
X221509Y354303D01*
X221476Y354802D01*
X227437Y360763D01*
X291190D01*
X291629Y360470D01*
X292253Y360346D01*
X292877Y360470D01*
X293407Y360823D01*
X293760Y361353D01*
X293884Y361977D01*
X293760Y362601D01*
X293407Y363130D01*
X292877Y363484D01*
X292253Y363608D01*
D02*
G37*
G36*
X289103Y359480D02*
X289103Y359480D01*
X236658D01*
X236194Y359387D01*
X235800Y359124D01*
X235800Y359124D01*
X231794Y355118D01*
X231602Y355198D01*
X230315Y355367D01*
X229028Y355198D01*
X227828Y354701D01*
X226798Y353910D01*
X226008Y352880D01*
X225511Y351681D01*
X225342Y350394D01*
X225511Y349107D01*
X226008Y347907D01*
X226798Y346877D01*
X227828Y346087D01*
X229028Y345590D01*
X230315Y345420D01*
X231602Y345590D01*
X232802Y346087D01*
X233832Y346877D01*
X234622Y347907D01*
X235119Y349107D01*
X235288Y350394D01*
X235119Y351681D01*
X234622Y352880D01*
X233913Y353804D01*
X237161Y357052D01*
X288600D01*
X289136Y356517D01*
X289184Y356276D01*
X289537Y355746D01*
X290067Y355393D01*
X290691Y355268D01*
X291315Y355393D01*
X291844Y355746D01*
X292198Y356276D01*
X292322Y356900D01*
X292198Y357524D01*
X291844Y358053D01*
X291315Y358407D01*
X290691Y358531D01*
X290577Y358508D01*
X289962Y359124D01*
X289568Y359387D01*
X289103Y359480D01*
D02*
G37*
G36*
X160433Y355641D02*
Y351378D01*
X164696D01*
X164642Y351785D01*
X164105Y353082D01*
X163251Y354196D01*
X162137Y355050D01*
X160840Y355587D01*
X160433Y355641D01*
D02*
G37*
G36*
X158465D02*
X158057Y355587D01*
X156761Y355050D01*
X155647Y354196D01*
X154792Y353082D01*
X154255Y351785D01*
X154202Y351378D01*
X158465D01*
Y355641D01*
D02*
G37*
G36*
X242126Y355367D02*
X240839Y355198D01*
X239639Y354701D01*
X238609Y353910D01*
X237819Y352880D01*
X237322Y351681D01*
X237153Y350394D01*
X237322Y349107D01*
X237819Y347907D01*
X238609Y346877D01*
X239639Y346087D01*
X240839Y345590D01*
X242126Y345420D01*
X243413Y345590D01*
X244613Y346087D01*
X245643Y346877D01*
X246433Y347907D01*
X246930Y349107D01*
X247099Y350394D01*
X246930Y351681D01*
X246433Y352880D01*
X245643Y353910D01*
X244613Y354701D01*
X243413Y355198D01*
X242126Y355367D01*
D02*
G37*
G36*
X147638D02*
X146351Y355198D01*
X145151Y354701D01*
X144121Y353910D01*
X143331Y352880D01*
X142834Y351681D01*
X142665Y350394D01*
X142834Y349107D01*
X143331Y347907D01*
X144121Y346877D01*
X145151Y346087D01*
X146351Y345590D01*
X147638Y345420D01*
X148925Y345590D01*
X150124Y346087D01*
X151154Y346877D01*
X151945Y347907D01*
X152442Y349107D01*
X152611Y350394D01*
X152442Y351681D01*
X151945Y352880D01*
X151154Y353910D01*
X150124Y354701D01*
X148925Y355198D01*
X147638Y355367D01*
D02*
G37*
G36*
X164696Y349409D02*
X160433D01*
Y345147D01*
X160840Y345200D01*
X162137Y345737D01*
X163251Y346592D01*
X164105Y347705D01*
X164642Y349002D01*
X164696Y349409D01*
D02*
G37*
G36*
X158465D02*
X154202D01*
X154255Y349002D01*
X154792Y347705D01*
X155647Y346592D01*
X156761Y345737D01*
X158057Y345200D01*
X158465Y345147D01*
Y349409D01*
D02*
G37*
G36*
X201772Y345798D02*
Y341535D01*
X206034D01*
X205981Y341943D01*
X205444Y343239D01*
X204589Y344353D01*
X203476Y345208D01*
X202179Y345745D01*
X201772Y345798D01*
D02*
G37*
G36*
X178150D02*
Y341535D01*
X182413D01*
X182359Y341943D01*
X181822Y343239D01*
X180967Y344353D01*
X179854Y345208D01*
X178557Y345745D01*
X178150Y345798D01*
D02*
G37*
G36*
X225394D02*
Y341535D01*
X229657D01*
X229603Y341943D01*
X229066Y343239D01*
X228211Y344353D01*
X227098Y345208D01*
X225801Y345745D01*
X225394Y345798D01*
D02*
G37*
G36*
X166339D02*
Y341535D01*
X170601D01*
X170548Y341943D01*
X170011Y343239D01*
X169156Y344353D01*
X168043Y345208D01*
X166746Y345745D01*
X166339Y345798D01*
D02*
G37*
G36*
X189961D02*
Y341535D01*
X194223D01*
X194170Y341943D01*
X193633Y343239D01*
X192778Y344353D01*
X191665Y345208D01*
X190368Y345745D01*
X189961Y345798D01*
D02*
G37*
G36*
X213583D02*
Y341535D01*
X217846D01*
X217792Y341943D01*
X217255Y343239D01*
X216400Y344353D01*
X215287Y345208D01*
X213990Y345745D01*
X213583Y345798D01*
D02*
G37*
G36*
X187992D02*
X187585Y345745D01*
X186288Y345208D01*
X185175Y344353D01*
X184320Y343239D01*
X183783Y341943D01*
X183729Y341535D01*
X187992D01*
Y345798D01*
D02*
G37*
G36*
X211614D02*
X211207Y345745D01*
X209910Y345208D01*
X208797Y344353D01*
X207942Y343239D01*
X207405Y341943D01*
X207351Y341535D01*
X211614D01*
Y345798D01*
D02*
G37*
G36*
X176181D02*
X175774Y345745D01*
X174477Y345208D01*
X173363Y344353D01*
X172509Y343239D01*
X171972Y341943D01*
X171918Y341535D01*
X176181D01*
Y345798D01*
D02*
G37*
G36*
X223425D02*
X223018Y345745D01*
X221721Y345208D01*
X220607Y344353D01*
X219753Y343239D01*
X219216Y341943D01*
X219162Y341535D01*
X223425D01*
Y345798D01*
D02*
G37*
G36*
X164370D02*
X163963Y345745D01*
X162666Y345208D01*
X161552Y344353D01*
X160698Y343239D01*
X160161Y341943D01*
X160107Y341535D01*
X164370D01*
Y345798D01*
D02*
G37*
G36*
X199803D02*
X199396Y345745D01*
X198099Y345208D01*
X196985Y344353D01*
X196131Y343239D01*
X195594Y341943D01*
X195540Y341535D01*
X199803D01*
Y345798D01*
D02*
G37*
G36*
X236221Y345524D02*
X234933Y345355D01*
X233734Y344858D01*
X232704Y344068D01*
X231913Y343038D01*
X231417Y341838D01*
X231247Y340551D01*
X231417Y339264D01*
X231913Y338065D01*
X232704Y337035D01*
X233734Y336244D01*
X234933Y335747D01*
X236221Y335578D01*
X237508Y335747D01*
X238707Y336244D01*
X239737Y337035D01*
X240527Y338065D01*
X241024Y339264D01*
X241194Y340551D01*
X241024Y341838D01*
X240527Y343038D01*
X239737Y344068D01*
X238707Y344858D01*
X237508Y345355D01*
X236221Y345524D01*
D02*
G37*
G36*
X153543D02*
X152256Y345355D01*
X151057Y344858D01*
X150027Y344068D01*
X149236Y343038D01*
X148740Y341838D01*
X148570Y340551D01*
X148740Y339264D01*
X149236Y338065D01*
X150027Y337035D01*
X151057Y336244D01*
X152256Y335747D01*
X153543Y335578D01*
X154831Y335747D01*
X156030Y336244D01*
X157060Y337035D01*
X157850Y338065D01*
X158347Y339264D01*
X158517Y340551D01*
X158347Y341838D01*
X157850Y343038D01*
X157060Y344068D01*
X156030Y344858D01*
X154831Y345355D01*
X153543Y345524D01*
D02*
G37*
G36*
X206034Y339567D02*
X201772D01*
Y335304D01*
X202179Y335358D01*
X203476Y335895D01*
X204589Y336749D01*
X205444Y337863D01*
X205981Y339160D01*
X206034Y339567D01*
D02*
G37*
G36*
X211614D02*
X207351D01*
X207405Y339160D01*
X207942Y337863D01*
X208797Y336749D01*
X209910Y335895D01*
X211207Y335358D01*
X211614Y335304D01*
Y339567D01*
D02*
G37*
G36*
X187992D02*
X183729D01*
X183783Y339160D01*
X184320Y337863D01*
X185175Y336749D01*
X186288Y335895D01*
X187585Y335358D01*
X187992Y335304D01*
Y339567D01*
D02*
G37*
G36*
X229657D02*
X225394D01*
Y335304D01*
X225801Y335358D01*
X227098Y335895D01*
X228211Y336749D01*
X229066Y337863D01*
X229603Y339160D01*
X229657Y339567D01*
D02*
G37*
G36*
X182413D02*
X178150D01*
Y335304D01*
X178557Y335358D01*
X179854Y335895D01*
X180967Y336749D01*
X181822Y337863D01*
X182359Y339160D01*
X182413Y339567D01*
D02*
G37*
G36*
X170601D02*
X166339D01*
Y335304D01*
X166746Y335358D01*
X168043Y335895D01*
X169156Y336749D01*
X170011Y337863D01*
X170548Y339160D01*
X170601Y339567D01*
D02*
G37*
G36*
X223425D02*
X219162D01*
X219216Y339160D01*
X219753Y337863D01*
X220607Y336749D01*
X221721Y335895D01*
X223018Y335358D01*
X223425Y335304D01*
Y339567D01*
D02*
G37*
G36*
X176181D02*
X171918D01*
X171972Y339160D01*
X172509Y337863D01*
X173363Y336749D01*
X174477Y335895D01*
X175774Y335358D01*
X176181Y335304D01*
Y339567D01*
D02*
G37*
G36*
X164370D02*
X160107D01*
X160161Y339160D01*
X160698Y337863D01*
X161552Y336749D01*
X162666Y335895D01*
X163963Y335358D01*
X164370Y335304D01*
Y339567D01*
D02*
G37*
G36*
X217846D02*
X213583D01*
Y335304D01*
X213990Y335358D01*
X215287Y335895D01*
X216400Y336749D01*
X217255Y337863D01*
X217792Y339160D01*
X217846Y339567D01*
D02*
G37*
G36*
X194223D02*
X189961D01*
Y335304D01*
X190368Y335358D01*
X191665Y335895D01*
X192778Y336749D01*
X193633Y337863D01*
X194170Y339160D01*
X194223Y339567D01*
D02*
G37*
G36*
X199803D02*
X195540D01*
X195594Y339160D01*
X196131Y337863D01*
X196985Y336749D01*
X198099Y335895D01*
X199396Y335358D01*
X199803Y335304D01*
Y339567D01*
D02*
G37*
G36*
X201772Y333987D02*
Y329724D01*
X206034D01*
X205981Y330132D01*
X205444Y331429D01*
X204589Y332542D01*
X203476Y333397D01*
X202179Y333934D01*
X201772Y333987D01*
D02*
G37*
G36*
X178150D02*
Y329724D01*
X182413D01*
X182359Y330132D01*
X181822Y331429D01*
X180967Y332542D01*
X179854Y333397D01*
X178557Y333934D01*
X178150Y333987D01*
D02*
G37*
G36*
X225394D02*
Y329724D01*
X229657D01*
X229603Y330132D01*
X229066Y331429D01*
X228211Y332542D01*
X227098Y333397D01*
X225801Y333934D01*
X225394Y333987D01*
D02*
G37*
G36*
X166339D02*
Y329724D01*
X170601D01*
X170548Y330132D01*
X170011Y331429D01*
X169156Y332542D01*
X168043Y333397D01*
X166746Y333934D01*
X166339Y333987D01*
D02*
G37*
G36*
X189961D02*
Y329724D01*
X194223D01*
X194170Y330132D01*
X193633Y331429D01*
X192778Y332542D01*
X191665Y333397D01*
X190368Y333934D01*
X189961Y333987D01*
D02*
G37*
G36*
X213583D02*
Y329724D01*
X217846D01*
X217792Y330132D01*
X217255Y331429D01*
X216400Y332542D01*
X215287Y333397D01*
X213990Y333934D01*
X213583Y333987D01*
D02*
G37*
G36*
X187992D02*
X187585Y333934D01*
X186288Y333397D01*
X185175Y332542D01*
X184320Y331429D01*
X183783Y330132D01*
X183729Y329724D01*
X187992D01*
Y333987D01*
D02*
G37*
G36*
X211614D02*
X211207Y333934D01*
X209910Y333397D01*
X208797Y332542D01*
X207942Y331429D01*
X207405Y330132D01*
X207351Y329724D01*
X211614D01*
Y333987D01*
D02*
G37*
G36*
X176181D02*
X175774Y333934D01*
X174477Y333397D01*
X173363Y332542D01*
X172509Y331429D01*
X171972Y330132D01*
X171918Y329724D01*
X176181D01*
Y333987D01*
D02*
G37*
G36*
X223425D02*
X223018Y333934D01*
X221721Y333397D01*
X220607Y332542D01*
X219753Y331429D01*
X219216Y330132D01*
X219162Y329724D01*
X223425D01*
Y333987D01*
D02*
G37*
G36*
X164370D02*
X163963Y333934D01*
X162666Y333397D01*
X161552Y332542D01*
X160698Y331429D01*
X160161Y330132D01*
X160107Y329724D01*
X164370D01*
Y333987D01*
D02*
G37*
G36*
X199803D02*
X199396Y333934D01*
X198099Y333397D01*
X196985Y332542D01*
X196131Y331429D01*
X195594Y330132D01*
X195540Y329724D01*
X199803D01*
Y333987D01*
D02*
G37*
G36*
X236221Y333713D02*
X234933Y333544D01*
X233734Y333047D01*
X232704Y332257D01*
X231913Y331227D01*
X231417Y330027D01*
X231247Y328740D01*
X231417Y327453D01*
X231913Y326254D01*
X232704Y325223D01*
X233734Y324433D01*
X234933Y323936D01*
X236221Y323767D01*
X237508Y323936D01*
X238707Y324433D01*
X239737Y325223D01*
X240527Y326254D01*
X241024Y327453D01*
X241194Y328740D01*
X241024Y330027D01*
X240527Y331227D01*
X239737Y332257D01*
X238707Y333047D01*
X237508Y333544D01*
X236221Y333713D01*
D02*
G37*
G36*
X153543D02*
X152256Y333544D01*
X151057Y333047D01*
X150027Y332257D01*
X149236Y331227D01*
X148740Y330027D01*
X148570Y328740D01*
X148740Y327453D01*
X149236Y326254D01*
X150027Y325223D01*
X151057Y324433D01*
X152256Y323936D01*
X153543Y323767D01*
X154831Y323936D01*
X156030Y324433D01*
X157060Y325223D01*
X157850Y326254D01*
X158347Y327453D01*
X158517Y328740D01*
X158347Y330027D01*
X157850Y331227D01*
X157060Y332257D01*
X156030Y333047D01*
X154831Y333544D01*
X153543Y333713D01*
D02*
G37*
G36*
X206034Y327756D02*
X201772D01*
Y323493D01*
X202179Y323547D01*
X203476Y324084D01*
X204589Y324938D01*
X205444Y326052D01*
X205981Y327349D01*
X206034Y327756D01*
D02*
G37*
G36*
X211614D02*
X207351D01*
X207405Y327349D01*
X207942Y326052D01*
X208797Y324938D01*
X209910Y324084D01*
X211207Y323547D01*
X211614Y323493D01*
Y327756D01*
D02*
G37*
G36*
X187992D02*
X183729D01*
X183783Y327349D01*
X184320Y326052D01*
X185175Y324938D01*
X186288Y324084D01*
X187585Y323547D01*
X187992Y323493D01*
Y327756D01*
D02*
G37*
G36*
X229657D02*
X225394D01*
Y323493D01*
X225801Y323547D01*
X227098Y324084D01*
X228211Y324938D01*
X229066Y326052D01*
X229603Y327349D01*
X229657Y327756D01*
D02*
G37*
G36*
X182413D02*
X178150D01*
Y323493D01*
X178557Y323547D01*
X179854Y324084D01*
X180967Y324938D01*
X181822Y326052D01*
X182359Y327349D01*
X182413Y327756D01*
D02*
G37*
G36*
X170601D02*
X166339D01*
Y323493D01*
X166746Y323547D01*
X168043Y324084D01*
X169156Y324938D01*
X170011Y326052D01*
X170548Y327349D01*
X170601Y327756D01*
D02*
G37*
G36*
X223425D02*
X219162D01*
X219216Y327349D01*
X219753Y326052D01*
X220607Y324938D01*
X221721Y324084D01*
X223018Y323547D01*
X223425Y323493D01*
Y327756D01*
D02*
G37*
G36*
X176181D02*
X171918D01*
X171972Y327349D01*
X172509Y326052D01*
X173363Y324938D01*
X174477Y324084D01*
X175774Y323547D01*
X176181Y323493D01*
Y327756D01*
D02*
G37*
G36*
X164370D02*
X160107D01*
X160161Y327349D01*
X160698Y326052D01*
X161552Y324938D01*
X162666Y324084D01*
X163963Y323547D01*
X164370Y323493D01*
Y327756D01*
D02*
G37*
G36*
X217846D02*
X213583D01*
Y323493D01*
X213990Y323547D01*
X215287Y324084D01*
X216400Y324938D01*
X217255Y326052D01*
X217792Y327349D01*
X217846Y327756D01*
D02*
G37*
G36*
X194223D02*
X189961D01*
Y323493D01*
X190368Y323547D01*
X191665Y324084D01*
X192778Y324938D01*
X193633Y326052D01*
X194170Y327349D01*
X194223Y327756D01*
D02*
G37*
G36*
X199803D02*
X195540D01*
X195594Y327349D01*
X196131Y326052D01*
X196985Y324938D01*
X198099Y324084D01*
X199396Y323547D01*
X199803Y323493D01*
Y327756D01*
D02*
G37*
G36*
X172244Y324145D02*
Y319882D01*
X176507D01*
X176453Y320289D01*
X175916Y321586D01*
X175062Y322699D01*
X173948Y323554D01*
X172651Y324091D01*
X172244Y324145D01*
D02*
G37*
G36*
X170276D02*
X169868Y324091D01*
X168571Y323554D01*
X167458Y322699D01*
X166604Y321586D01*
X166066Y320289D01*
X166013Y319882D01*
X170276D01*
Y324145D01*
D02*
G37*
G36*
X242126Y323871D02*
X240839Y323701D01*
X239639Y323205D01*
X238609Y322414D01*
X237819Y321384D01*
X237322Y320185D01*
X237153Y318898D01*
X237322Y317611D01*
X237819Y316411D01*
X238609Y315381D01*
X239639Y314591D01*
X240839Y314094D01*
X242126Y313924D01*
X243413Y314094D01*
X244613Y314591D01*
X245643Y315381D01*
X246433Y316411D01*
X246930Y317611D01*
X247099Y318898D01*
X246930Y320185D01*
X246433Y321384D01*
X245643Y322414D01*
X244613Y323205D01*
X243413Y323701D01*
X242126Y323871D01*
D02*
G37*
G36*
X230315D02*
X229028Y323701D01*
X227828Y323205D01*
X226798Y322414D01*
X226008Y321384D01*
X225511Y320185D01*
X225342Y318898D01*
X225511Y317611D01*
X226008Y316411D01*
X226611Y315626D01*
X225784Y314799D01*
X225521Y314405D01*
X225428Y313941D01*
X225428Y313941D01*
Y306477D01*
X224369D01*
Y301537D01*
X228915D01*
Y306477D01*
X227856D01*
Y307224D01*
X227909Y307269D01*
X228356Y307445D01*
X228748Y307183D01*
X229373Y307059D01*
X229997Y307183D01*
X230436Y307476D01*
X249776D01*
X289792Y267460D01*
X289792Y267460D01*
X290186Y267197D01*
X290650Y267105D01*
X295261D01*
X344684Y217682D01*
X344684Y217682D01*
X367200Y195166D01*
Y129462D01*
X367087Y129292D01*
X366962Y128668D01*
X367087Y128043D01*
X367440Y127514D01*
X367969Y127161D01*
X368594Y127036D01*
X369218Y127161D01*
X369747Y127514D01*
X370101Y128043D01*
X370225Y128668D01*
X370101Y129292D01*
X369747Y129821D01*
X369628Y129901D01*
Y195668D01*
X369535Y196133D01*
X369272Y196527D01*
X369272Y196527D01*
X346606Y219193D01*
X346469Y219398D01*
X346264Y219535D01*
X296622Y269177D01*
X296228Y269440D01*
X295764Y269533D01*
X295764Y269533D01*
X291153D01*
X251137Y309548D01*
X250744Y309811D01*
X250279Y309904D01*
X250279Y309904D01*
X230436D01*
X229997Y310197D01*
X229373Y310321D01*
X228748Y310197D01*
X228356Y309935D01*
X227909Y310111D01*
X227856Y310156D01*
Y313438D01*
X228663Y314245D01*
X229028Y314094D01*
X230315Y313924D01*
X231602Y314094D01*
X232802Y314591D01*
X233832Y315381D01*
X234622Y316411D01*
X235119Y317611D01*
X235288Y318898D01*
X235119Y320185D01*
X234622Y321384D01*
X233832Y322414D01*
X232802Y323205D01*
X231602Y323701D01*
X230315Y323871D01*
D02*
G37*
G36*
X218504D02*
X217217Y323701D01*
X216017Y323205D01*
X214987Y322414D01*
X214197Y321384D01*
X213700Y320185D01*
X213531Y318898D01*
X213700Y317611D01*
X214197Y316411D01*
X214987Y315381D01*
X216017Y314591D01*
X217217Y314094D01*
X218504Y313924D01*
X219791Y314094D01*
X220991Y314591D01*
X222021Y315381D01*
X222811Y316411D01*
X223308Y317611D01*
X223477Y318898D01*
X223308Y320185D01*
X222811Y321384D01*
X222021Y322414D01*
X220991Y323205D01*
X219791Y323701D01*
X218504Y323871D01*
D02*
G37*
G36*
X206693D02*
X205406Y323701D01*
X204206Y323205D01*
X203176Y322414D01*
X202386Y321384D01*
X201889Y320185D01*
X201720Y318898D01*
X201889Y317611D01*
X202386Y316411D01*
X203176Y315381D01*
X204206Y314591D01*
X205406Y314094D01*
X206693Y313924D01*
X207980Y314094D01*
X209179Y314591D01*
X210209Y315381D01*
X211000Y316411D01*
X211497Y317611D01*
X211666Y318898D01*
X211497Y320185D01*
X211000Y321384D01*
X210209Y322414D01*
X209179Y323205D01*
X207980Y323701D01*
X206693Y323871D01*
D02*
G37*
G36*
X194882D02*
X193595Y323701D01*
X192395Y323205D01*
X191365Y322414D01*
X190575Y321384D01*
X190078Y320185D01*
X189909Y318898D01*
X190078Y317611D01*
X190575Y316411D01*
X191365Y315381D01*
X192395Y314591D01*
X193595Y314094D01*
X194882Y313924D01*
X196169Y314094D01*
X197369Y314591D01*
X198398Y315381D01*
X199189Y316411D01*
X199686Y317611D01*
X199855Y318898D01*
X199686Y320185D01*
X199189Y321384D01*
X198398Y322414D01*
X197369Y323205D01*
X196169Y323701D01*
X194882Y323871D01*
D02*
G37*
G36*
X183071D02*
X181784Y323701D01*
X180584Y323205D01*
X179554Y322414D01*
X178764Y321384D01*
X178267Y320185D01*
X178098Y318898D01*
X178267Y317611D01*
X178764Y316411D01*
X179554Y315381D01*
X180584Y314591D01*
X181784Y314094D01*
X183071Y313924D01*
X184358Y314094D01*
X185557Y314591D01*
X186588Y315381D01*
X187378Y316411D01*
X187875Y317611D01*
X188044Y318898D01*
X187875Y320185D01*
X187378Y321384D01*
X186588Y322414D01*
X185557Y323205D01*
X184358Y323701D01*
X183071Y323871D01*
D02*
G37*
G36*
X147638D02*
X146351Y323701D01*
X145151Y323205D01*
X144121Y322414D01*
X143331Y321384D01*
X142834Y320185D01*
X142665Y318898D01*
X142834Y317611D01*
X143331Y316411D01*
X144121Y315381D01*
X145151Y314591D01*
X146351Y314094D01*
X147638Y313924D01*
X148925Y314094D01*
X150124Y314591D01*
X151154Y315381D01*
X151945Y316411D01*
X152442Y317611D01*
X152611Y318898D01*
X152442Y320185D01*
X151945Y321384D01*
X151154Y322414D01*
X150124Y323205D01*
X148925Y323701D01*
X147638Y323871D01*
D02*
G37*
G36*
X176507Y317913D02*
X172244D01*
Y313650D01*
X172651Y313704D01*
X173948Y314241D01*
X175062Y315096D01*
X175916Y316209D01*
X176453Y317506D01*
X176507Y317913D01*
D02*
G37*
G36*
X170276D02*
X166013D01*
X166066Y317506D01*
X166604Y316209D01*
X167458Y315096D01*
X168571Y314241D01*
X169868Y313704D01*
X170276Y313650D01*
Y317913D01*
D02*
G37*
G36*
X159449Y323871D02*
X158162Y323701D01*
X156962Y323205D01*
X155932Y322414D01*
X155142Y321384D01*
X154645Y320185D01*
X154475Y318898D01*
X154645Y317611D01*
X155142Y316411D01*
X155932Y315381D01*
X156962Y314591D01*
X158162Y314094D01*
X159449Y313924D01*
X160736Y314094D01*
X161935Y314591D01*
X161994Y314636D01*
X162586Y314044D01*
Y306058D01*
X161527D01*
Y301118D01*
X166073D01*
Y306058D01*
X165014D01*
Y314547D01*
X164921Y315011D01*
X164658Y315405D01*
X164658Y315405D01*
X163711Y316352D01*
X163756Y316411D01*
X164253Y317611D01*
X164422Y318898D01*
X164253Y320185D01*
X163756Y321384D01*
X162965Y322414D01*
X161935Y323205D01*
X160736Y323701D01*
X159449Y323871D01*
D02*
G37*
G36*
X171191Y306058D02*
X166645D01*
Y301118D01*
X167712D01*
Y299185D01*
X167358Y298832D01*
X166730Y298832D01*
X166489Y299232D01*
X166419Y299232D01*
X166419Y299232D01*
X164800D01*
Y296362D01*
X163815D01*
D01*
X164800D01*
Y293492D01*
X166419D01*
X166419Y293492D01*
X166489D01*
X166730Y293892D01*
X166989Y293892D01*
X167720D01*
Y290934D01*
X167720Y290934D01*
X167812Y290469D01*
X168075Y290075D01*
X173307Y284844D01*
Y274145D01*
X173014Y273706D01*
X172889Y273081D01*
X173014Y272457D01*
X173087Y272347D01*
X172820Y271847D01*
X170123D01*
X169428Y271709D01*
X168839Y271315D01*
X164863Y267338D01*
X155772D01*
Y270586D01*
X156272Y270854D01*
X156309Y270829D01*
X156704Y270751D01*
X157531D01*
X157926Y270829D01*
X158243Y270766D01*
X158244Y270765D01*
X158692Y270465D01*
Y273120D01*
X159677D01*
Y274105D01*
X161531D01*
Y274457D01*
X161421Y275009D01*
X161109Y275476D01*
X160641Y275788D01*
X160090Y275898D01*
X159547D01*
X159355Y276286D01*
X159331Y276398D01*
X159576Y276764D01*
X159669Y277229D01*
Y277644D01*
X161627Y277644D01*
X161869Y277244D01*
X161939Y277244D01*
X161939Y277244D01*
X163656D01*
Y280213D01*
Y283182D01*
X161939D01*
X161939Y283182D01*
X161869D01*
X161627Y282782D01*
X161369Y282782D01*
X156954D01*
Y277644D01*
X156954Y277644D01*
X156954D01*
X156742Y277233D01*
X156259Y276750D01*
X155996Y276356D01*
X155903Y275892D01*
X155903Y275892D01*
Y275655D01*
X155403Y275387D01*
X155367Y275412D01*
X154972Y275490D01*
X154145D01*
X153750Y275412D01*
X153414Y275188D01*
X153143D01*
X152808Y275412D01*
X152413Y275490D01*
X151586D01*
X151190Y275412D01*
X150855Y275188D01*
X150631Y274852D01*
X150553Y274457D01*
Y274334D01*
X144719D01*
X144719Y274334D01*
X144254Y274242D01*
X144230Y274226D01*
X144014Y274269D01*
X143390Y274145D01*
X142951Y273851D01*
X136152D01*
X135687Y273759D01*
X135293Y273496D01*
X135293Y273496D01*
X83170Y221373D01*
X82907Y220979D01*
X82815Y220514D01*
X82815Y220514D01*
Y181057D01*
X46059Y144301D01*
X45796Y143907D01*
X45704Y143443D01*
X45704Y143443D01*
Y115128D01*
X45469Y114971D01*
X45206Y114577D01*
X45113Y114112D01*
Y107813D01*
X45206Y107348D01*
X45469Y106955D01*
X45862Y106692D01*
X46327Y106599D01*
X47508D01*
X47973Y106692D01*
X48366Y106955D01*
X48630Y107348D01*
X48722Y107813D01*
Y114112D01*
X48630Y114577D01*
X48366Y114971D01*
X48131Y115128D01*
Y142940D01*
X84887Y179696D01*
X85150Y180089D01*
X85242Y180554D01*
X85242Y180554D01*
Y220012D01*
X136654Y271424D01*
X142951D01*
X143390Y271130D01*
X144014Y271006D01*
X144639Y271130D01*
X145168Y271484D01*
X145450Y271907D01*
X150553D01*
Y271784D01*
X150631Y271389D01*
X150855Y271053D01*
X151190Y270829D01*
X151586Y270751D01*
X152413D01*
X152808Y270829D01*
X152845Y270854D01*
X153345Y270586D01*
Y267338D01*
X139754D01*
X139059Y267200D01*
X138470Y266807D01*
X130137Y258473D01*
X129743Y257884D01*
X129605Y257189D01*
Y235196D01*
X129743Y234501D01*
X130137Y233911D01*
X135446Y228602D01*
X136036Y228208D01*
X136731Y228070D01*
X147656D01*
X155239Y220487D01*
Y210648D01*
X151831D01*
X151564Y211148D01*
X151588Y211184D01*
X151667Y211579D01*
Y212406D01*
X151588Y212802D01*
X151652Y213119D01*
X151653Y213120D01*
X151952Y213568D01*
X149297D01*
X146528D01*
X146328Y213207D01*
X143071D01*
X143071Y214756D01*
X143471Y214998D01*
X143471Y215068D01*
X143471Y215068D01*
Y216785D01*
X140503D01*
X137534D01*
Y215068D01*
X137534Y215068D01*
Y214998D01*
X137934Y214756D01*
X137934Y214498D01*
Y210083D01*
X143071D01*
Y210779D01*
X146763D01*
X147030Y210279D01*
X147006Y210243D01*
X146927Y209847D01*
Y209020D01*
X147006Y208625D01*
X147230Y208290D01*
Y208019D01*
X147006Y207683D01*
X146927Y207288D01*
Y206461D01*
X147006Y206066D01*
X147230Y205731D01*
X147565Y205507D01*
X147961Y205428D01*
X148083D01*
Y203525D01*
X147808Y203113D01*
X147684Y202488D01*
X147808Y201864D01*
X148161Y201335D01*
X148691Y200981D01*
X149315Y200857D01*
X149939Y200981D01*
X150469Y201335D01*
X150822Y201864D01*
X150946Y202488D01*
X150822Y203113D01*
X150511Y203578D01*
Y205428D01*
X150634D01*
X151029Y205507D01*
X151364Y205731D01*
X151588Y206066D01*
X151667Y206461D01*
Y207288D01*
X151588Y207683D01*
X151564Y207720D01*
X151831Y208220D01*
X155239D01*
Y190601D01*
X155377Y189906D01*
X155771Y189317D01*
X156360Y188924D01*
X157055Y188785D01*
X157750Y188924D01*
X158339Y189317D01*
X158733Y189906D01*
X158871Y190601D01*
Y209302D01*
Y221239D01*
X158733Y221934D01*
X158339Y222523D01*
X149692Y231170D01*
X149103Y231564D01*
X148408Y231702D01*
X137483D01*
X133237Y235948D01*
Y256437D01*
X140506Y263707D01*
X165615D01*
X166310Y263845D01*
X166899Y264238D01*
X170875Y268215D01*
X224604D01*
X227567Y265253D01*
X228156Y264859D01*
X228851Y264721D01*
X246323D01*
X256038Y255006D01*
Y226512D01*
X251986Y222460D01*
X251592Y221870D01*
X251465Y221234D01*
X250965Y221283D01*
Y223439D01*
X250873Y223903D01*
X250610Y224297D01*
X250610Y224297D01*
X246564Y228343D01*
X246170Y228606D01*
X245706Y228698D01*
X245706Y228698D01*
X224918D01*
X224918Y228698D01*
X224453Y228606D01*
X224059Y228343D01*
X224059Y228343D01*
X221186Y225470D01*
X220923Y225076D01*
X220831Y224611D01*
X220831Y224611D01*
Y215623D01*
X220831Y215623D01*
X220923Y215158D01*
X221186Y214764D01*
X223576Y212375D01*
X223576Y212375D01*
X223970Y212112D01*
X224434Y212020D01*
X227379D01*
Y210764D01*
X231925D01*
Y215704D01*
X227379D01*
Y214447D01*
X224937D01*
X223259Y216126D01*
Y224109D01*
X225420Y226270D01*
X245203D01*
X248537Y222936D01*
Y210225D01*
X246370Y208057D01*
X245909Y208303D01*
X245943Y208474D01*
Y209301D01*
X245864Y209696D01*
X245793Y209803D01*
X245682Y210167D01*
X245793Y210531D01*
X245864Y210637D01*
X245943Y211033D01*
Y211860D01*
X245864Y212255D01*
X245640Y212590D01*
Y212861D01*
X245864Y213197D01*
X245943Y213592D01*
Y214419D01*
X245864Y214814D01*
X245640Y215149D01*
X245305Y215373D01*
X244910Y215452D01*
X244787D01*
Y216380D01*
X244957Y216635D01*
X245081Y217259D01*
X244957Y217883D01*
X244603Y218412D01*
X244074Y218766D01*
X243450Y218890D01*
X242826Y218766D01*
X242296Y218412D01*
X241943Y217883D01*
X241819Y217259D01*
X241943Y216635D01*
X242296Y216106D01*
X242359Y216064D01*
Y215452D01*
X242236D01*
X241841Y215373D01*
X241506Y215149D01*
X241282Y214814D01*
X241203Y214419D01*
Y213592D01*
X241203Y213591D01*
X240836Y213033D01*
X240657Y213006D01*
X239496Y214166D01*
X239102Y214430D01*
X238638Y214522D01*
X238638Y214522D01*
X237043D01*
Y215704D01*
X235984D01*
Y217518D01*
X237043D01*
Y222458D01*
X232567Y222458D01*
X232325Y222858D01*
X232255Y222858D01*
X232255Y222858D01*
X230636D01*
Y219988D01*
Y217118D01*
X232255D01*
X232255Y217118D01*
X232325D01*
X232567Y217518D01*
X232825Y217518D01*
X233556D01*
Y215704D01*
X232497D01*
Y210764D01*
X237043D01*
Y212094D01*
X238135D01*
X239641Y210588D01*
X239641Y210588D01*
X239682Y210561D01*
X239576Y210030D01*
X239468Y210009D01*
X239074Y209746D01*
X239074Y209746D01*
X237505Y208177D01*
X237043Y208368D01*
Y208949D01*
X232567Y208949D01*
X232325Y209349D01*
X232255Y209349D01*
X232255Y209349D01*
X230636D01*
Y206479D01*
Y203609D01*
X232255D01*
X232255Y203609D01*
X232325D01*
X232567Y204009D01*
X232825Y204009D01*
X233556D01*
Y202195D01*
X232497D01*
Y197255D01*
X237043D01*
Y202195D01*
X235984D01*
Y204009D01*
X237043D01*
Y205266D01*
X237524D01*
X237524Y205265D01*
X237989Y205358D01*
X238383Y205621D01*
X240435Y207673D01*
X241039D01*
X241306Y207173D01*
X241282Y207137D01*
X241203Y206742D01*
Y205915D01*
X241282Y205519D01*
X241506Y205184D01*
X241841Y204960D01*
X242236Y204882D01*
X242359D01*
Y197200D01*
X239921Y194762D01*
X231442D01*
X230866Y195338D01*
Y197255D01*
X231925D01*
Y202195D01*
X227379D01*
Y200939D01*
X217363D01*
X216899Y200847D01*
X216505Y200584D01*
X216505Y200584D01*
X210026Y194105D01*
X209564Y194296D01*
Y218195D01*
X222584Y231215D01*
X242088D01*
X242088Y231215D01*
X242553Y231307D01*
X242947Y231570D01*
X253124Y241747D01*
X253387Y242141D01*
X253479Y242605D01*
X253479Y242606D01*
Y252199D01*
X253387Y252663D01*
X253124Y253057D01*
X253124Y253057D01*
X252493Y253688D01*
X252390Y254206D01*
X252036Y254735D01*
X251507Y255088D01*
X250883Y255213D01*
X250258Y255088D01*
X249729Y254735D01*
X249376Y254206D01*
X249291Y253779D01*
X248780Y253583D01*
X244963Y257400D01*
X244569Y257663D01*
X244105Y257756D01*
X244104Y257756D01*
X237721D01*
Y257878D01*
X237642Y258274D01*
X237418Y258609D01*
X237083Y258833D01*
X236688Y258912D01*
X235861D01*
X235465Y258833D01*
X235130Y258609D01*
X234859D01*
X234524Y258833D01*
X234128Y258912D01*
X233302D01*
X232906Y258833D01*
X232800Y258762D01*
X232436Y258650D01*
X232072Y258762D01*
X231965Y258833D01*
X231570Y258912D01*
X230743D01*
X230347Y258833D01*
X230012Y258609D01*
X229741D01*
X229406Y258833D01*
X229010Y258912D01*
X228184D01*
X227788Y258833D01*
X227453Y258609D01*
X227229Y258274D01*
X227150Y257878D01*
Y257756D01*
X225103D01*
X225092Y257811D01*
X224738Y258341D01*
X224209Y258694D01*
X223585Y258818D01*
X222960Y258694D01*
X222431Y258341D01*
X222077Y257811D01*
X221953Y257187D01*
X222077Y256563D01*
X222431Y256033D01*
X222960Y255680D01*
X223553Y255562D01*
X223765Y255420D01*
X224230Y255328D01*
X224230Y255328D01*
X227150D01*
Y255205D01*
X227229Y254810D01*
X227453Y254474D01*
X227788Y254251D01*
X228184Y254172D01*
X229010D01*
X229406Y254251D01*
X229442Y254275D01*
X229942Y254008D01*
Y249420D01*
X228164D01*
Y248361D01*
X225742D01*
Y249420D01*
X220801D01*
X220801Y244944D01*
X220401Y244702D01*
X220401Y244633D01*
X220401Y244633D01*
Y243013D01*
X226142D01*
Y244633D01*
X226142Y244633D01*
Y244702D01*
X225742Y244944D01*
X225742Y245202D01*
Y245933D01*
X228164D01*
Y244874D01*
X233104D01*
Y249420D01*
X232370D01*
Y252737D01*
X232470Y252819D01*
X233093Y252786D01*
X235997Y249882D01*
X235806Y249420D01*
X235527D01*
X235527Y244944D01*
X235127Y244702D01*
X235127Y244633D01*
X235127Y244633D01*
Y243013D01*
X240867D01*
Y244633D01*
X240867Y244633D01*
Y244702D01*
X240468Y244944D01*
X240468Y245202D01*
Y245933D01*
X242890D01*
Y244874D01*
X247831D01*
Y249420D01*
X242890D01*
Y248361D01*
X240468D01*
Y249420D01*
X238907D01*
Y249903D01*
X238907Y249903D01*
X238815Y250368D01*
X238551Y250762D01*
X235599Y253714D01*
X235845Y254175D01*
X235861Y254172D01*
X236688D01*
X237083Y254251D01*
X237418Y254474D01*
X237642Y254810D01*
X237721Y255205D01*
Y255328D01*
X243602D01*
X249270Y249659D01*
Y243961D01*
X248552Y243243D01*
X247831D01*
Y244302D01*
X242890D01*
Y239756D01*
X243943D01*
Y238518D01*
X243292Y237867D01*
X232580D01*
X231848Y238599D01*
Y239756D01*
X233104D01*
Y244302D01*
X228164D01*
Y239756D01*
X229421D01*
Y238097D01*
X229421Y238097D01*
X229513Y237632D01*
X229776Y237238D01*
X230111Y236904D01*
Y236404D01*
X229131Y235424D01*
X221343D01*
X221343Y235424D01*
X220879Y235331D01*
X220485Y235068D01*
X220485Y235068D01*
X206464Y221047D01*
X206002Y221239D01*
Y231975D01*
X205910Y232440D01*
X205646Y232834D01*
X205646Y232834D01*
X174181Y264299D01*
X174078Y264817D01*
X173724Y265346D01*
X173195Y265700D01*
X172571Y265824D01*
X171947Y265700D01*
X171417Y265346D01*
X171064Y264817D01*
X170940Y264193D01*
X171064Y263568D01*
X171417Y263039D01*
X171947Y262685D01*
X172464Y262582D01*
X203574Y231472D01*
Y222985D01*
X203112Y222794D01*
X181632Y244274D01*
X181238Y244537D01*
X180774Y244629D01*
X180774Y244629D01*
X171511D01*
Y251474D01*
X171511Y251474D01*
X171418Y251938D01*
X171155Y252332D01*
X171155Y252332D01*
X166087Y257400D01*
X165693Y257663D01*
X165229Y257756D01*
X165229Y257756D01*
X161123D01*
Y257878D01*
X161044Y258274D01*
X160820Y258609D01*
X160485Y258833D01*
X160090Y258912D01*
X159263D01*
X158868Y258833D01*
X158533Y258609D01*
X158261D01*
X157926Y258833D01*
X157531Y258912D01*
X156704D01*
X156309Y258833D01*
X156202Y258762D01*
X155838Y258650D01*
X155474Y258762D01*
X155367Y258833D01*
X154972Y258912D01*
X154145D01*
X153750Y258833D01*
X153414Y258609D01*
X153143D01*
X152808Y258833D01*
X152413Y258912D01*
X151586D01*
X151190Y258833D01*
X150855Y258609D01*
X150631Y258274D01*
X150553Y257878D01*
Y257756D01*
X144031D01*
X143733Y258202D01*
X143204Y258556D01*
X142579Y258680D01*
X141955Y258556D01*
X141426Y258202D01*
X141072Y257673D01*
X140948Y257049D01*
X141072Y256425D01*
X141426Y255895D01*
X141955Y255542D01*
X142579Y255417D01*
X142615Y255425D01*
X142622Y255420D01*
X143087Y255328D01*
X143087Y255328D01*
X150553D01*
Y255205D01*
X150631Y254810D01*
X150855Y254474D01*
X151190Y254251D01*
X151586Y254172D01*
X152413D01*
X152772Y254243D01*
X152802Y254221D01*
X152944Y253708D01*
X149995Y250759D01*
X149731Y250365D01*
X149639Y249900D01*
X149639Y249900D01*
Y249420D01*
X147844D01*
Y248361D01*
X145686D01*
Y249420D01*
X140745D01*
X140745Y244944D01*
X140345Y244702D01*
X140345Y244633D01*
X140345Y244633D01*
Y243013D01*
X146086D01*
Y244633D01*
X146086Y244633D01*
Y244702D01*
X145686Y244944D01*
X145686Y245202D01*
Y245933D01*
X147844D01*
Y244874D01*
X152784D01*
Y249420D01*
X152743D01*
X152552Y249882D01*
X155403Y252734D01*
X155460Y252732D01*
X155903Y252576D01*
Y252344D01*
X155903Y252344D01*
X155996Y251879D01*
X156259Y251485D01*
X156269Y251476D01*
Y249420D01*
X154943D01*
X154943Y244944D01*
X154543Y244702D01*
X154543Y244633D01*
X154543Y244633D01*
Y243013D01*
X160283D01*
Y244633D01*
X160283Y244633D01*
Y244702D01*
X159883Y244944D01*
X159883Y245202D01*
Y245933D01*
X162042D01*
Y244874D01*
X166982D01*
Y249420D01*
X162042D01*
Y248361D01*
X159883D01*
Y249420D01*
X158696D01*
Y251979D01*
X158696Y251979D01*
X158604Y252443D01*
X158341Y252837D01*
X158341Y252837D01*
X158331Y252847D01*
Y254008D01*
X158831Y254275D01*
X158868Y254251D01*
X159263Y254172D01*
X160090D01*
X160485Y254251D01*
X160820Y254474D01*
X161044Y254810D01*
X161123Y255205D01*
Y255328D01*
X164726D01*
X169083Y250971D01*
Y243918D01*
X168407Y243243D01*
X166982D01*
Y244302D01*
X162042D01*
Y239756D01*
X163298D01*
Y238999D01*
X162224Y237925D01*
X153283D01*
X151952Y239256D01*
X152159Y239756D01*
X152784D01*
Y244302D01*
X147844D01*
Y239756D01*
X149100D01*
Y239177D01*
X149100Y239176D01*
X149193Y238712D01*
X149456Y238318D01*
X151921Y235853D01*
X151922Y235853D01*
X152315Y235589D01*
X152780Y235497D01*
X162727D01*
X162727Y235497D01*
X163191Y235589D01*
X163585Y235853D01*
X165370Y237638D01*
X165370Y237638D01*
X165634Y238032D01*
X165726Y238496D01*
X165726Y238496D01*
Y239756D01*
X166982D01*
Y240815D01*
X168910D01*
X168910Y240815D01*
X169375Y240908D01*
X169769Y241171D01*
X170800Y242202D01*
X180271D01*
X201793Y220679D01*
Y182905D01*
X201331Y182714D01*
X189848Y194197D01*
X189454Y194460D01*
X188990Y194552D01*
X188990Y194552D01*
X187162D01*
Y203815D01*
X187162Y203815D01*
X187070Y204280D01*
X186807Y204674D01*
X184915Y206565D01*
X184521Y206828D01*
X184057Y206921D01*
X184057Y206921D01*
X182070D01*
Y208177D01*
X177524D01*
Y203237D01*
X182070D01*
Y204493D01*
X183554D01*
X184735Y203312D01*
Y193841D01*
X183293Y192400D01*
X168750D01*
X161825Y199325D01*
Y212035D01*
X162900Y213111D01*
X163169Y213078D01*
X163236Y213033D01*
X163538Y212567D01*
X163506Y212406D01*
Y211579D01*
X163585Y211184D01*
X163656Y211077D01*
X163767Y210713D01*
X163656Y210349D01*
X163585Y210243D01*
X163506Y209847D01*
Y209020D01*
X163585Y208625D01*
X163809Y208290D01*
Y208019D01*
X163585Y207683D01*
X163506Y207288D01*
Y206461D01*
X163585Y206066D01*
X163809Y205731D01*
X164144Y205507D01*
X164539Y205428D01*
X164662D01*
Y203494D01*
X164408Y203114D01*
X164284Y202489D01*
X164408Y201865D01*
X164762Y201336D01*
X165291Y200982D01*
X165915Y200858D01*
X166540Y200982D01*
X167069Y201336D01*
X167422Y201865D01*
X167547Y202489D01*
X167422Y203114D01*
X167090Y203611D01*
Y205428D01*
X167213D01*
X167608Y205507D01*
X167943Y205731D01*
X168167Y206066D01*
X168246Y206461D01*
Y207288D01*
X168167Y207683D01*
X168143Y207720D01*
X168410Y208220D01*
X169209D01*
X169375Y208054D01*
Y206829D01*
X169375Y206829D01*
X169467Y206364D01*
X169731Y205971D01*
X170853Y204849D01*
X170853Y204849D01*
X171246Y204586D01*
X171711Y204493D01*
X171711Y204493D01*
X172406D01*
Y203237D01*
X173465D01*
Y201423D01*
X172406D01*
Y196483D01*
X176882Y196483D01*
X177124Y196083D01*
X177193Y196083D01*
X177193Y196083D01*
X178813D01*
Y198953D01*
Y201823D01*
X177193D01*
X177193Y201823D01*
X177124D01*
X176882Y201423D01*
X176624Y201423D01*
X175893D01*
Y203237D01*
X176952D01*
Y208177D01*
X172406D01*
Y207926D01*
X171906Y207659D01*
X171803Y207728D01*
Y208557D01*
X171711Y209021D01*
X171447Y209415D01*
X171447Y209415D01*
X170570Y210292D01*
X170564Y210296D01*
X170669Y210827D01*
X170892Y210871D01*
X171286Y211135D01*
X171398Y211247D01*
X172406D01*
Y209991D01*
X176882Y209991D01*
X177124Y209591D01*
X177193Y209591D01*
X177193Y209591D01*
X178813D01*
Y212461D01*
Y215331D01*
X177193D01*
X177193Y215331D01*
X177124D01*
X176882Y214931D01*
X176624Y214931D01*
X175893D01*
Y216745D01*
X176952D01*
Y221685D01*
X172406D01*
Y216745D01*
X173465D01*
Y214931D01*
X172406D01*
Y213675D01*
X170896D01*
X170431Y213583D01*
X170037Y213319D01*
X170037Y213319D01*
X169924Y213207D01*
X168410D01*
X168143Y213707D01*
X168167Y213743D01*
X168246Y214139D01*
Y214965D01*
X168167Y215361D01*
X167943Y215696D01*
X167608Y215920D01*
X167213Y215999D01*
X167090D01*
Y221978D01*
X169070Y223958D01*
X178001D01*
X178583Y223376D01*
Y221685D01*
X177524D01*
Y216745D01*
X182070D01*
Y221685D01*
X181011D01*
Y223879D01*
X181011Y223879D01*
X180918Y224344D01*
X180655Y224738D01*
X180655Y224738D01*
X179362Y226030D01*
X178968Y226294D01*
X178504Y226386D01*
X178504Y226386D01*
X168567D01*
X168567Y226386D01*
X168102Y226294D01*
X167709Y226030D01*
X167708Y226030D01*
X165018Y223340D01*
X164754Y222946D01*
X164662Y222481D01*
X164662Y222481D01*
Y215999D01*
X164539D01*
X164144Y215920D01*
X163913Y215766D01*
X162625D01*
X162625Y215766D01*
X162160Y215673D01*
X161766Y215410D01*
X161766Y215410D01*
X159752Y213396D01*
X159489Y213002D01*
X159397Y212538D01*
X159397Y212538D01*
Y198822D01*
X159397Y198822D01*
X159489Y198358D01*
X159752Y197964D01*
X167389Y190327D01*
X167389Y190327D01*
X167783Y190064D01*
X168247Y189972D01*
X183796D01*
X183796Y189972D01*
X184260Y190064D01*
X184654Y190327D01*
X186451Y192125D01*
X188487D01*
X200012Y180599D01*
Y176223D01*
X199550Y176031D01*
X188419Y187162D01*
X188025Y187426D01*
X187561Y187518D01*
X187561Y187518D01*
X150728D01*
X141749Y196497D01*
X141355Y196760D01*
X140891Y196852D01*
X140891Y196852D01*
X100284D01*
X94206Y202931D01*
Y209091D01*
X95639Y210524D01*
X97712D01*
X98065Y210170D01*
X98065Y209534D01*
X97665Y209293D01*
X97665Y209223D01*
X97665Y209223D01*
Y207604D01*
X103406D01*
Y209223D01*
X103406Y209223D01*
Y209293D01*
X103006Y209534D01*
X103006Y209793D01*
Y210552D01*
X105215D01*
Y209520D01*
X110155D01*
Y214067D01*
X105215D01*
Y212979D01*
X103006D01*
Y214011D01*
X98065D01*
Y212952D01*
X95136D01*
X95136Y212952D01*
X94671Y212859D01*
X94277Y212596D01*
X94277Y212596D01*
X92134Y210452D01*
X91870Y210058D01*
X91778Y209594D01*
X91778Y209594D01*
Y202428D01*
X91778Y202428D01*
X91870Y201964D01*
X92134Y201570D01*
X98923Y194780D01*
X98923Y194780D01*
X99317Y194517D01*
X99782Y194425D01*
X140388D01*
X143763Y191050D01*
X143516Y190589D01*
X143369Y190618D01*
X142745Y190494D01*
X142216Y190140D01*
X141862Y189611D01*
X141759Y189093D01*
X141387Y188721D01*
X107836D01*
X107836Y188721D01*
X107371Y188629D01*
X106977Y188365D01*
X56059Y137447D01*
X55796Y137053D01*
X55704Y136589D01*
X55704Y136589D01*
Y115128D01*
X55469Y114971D01*
X55206Y114577D01*
X55113Y114112D01*
Y107813D01*
X55206Y107348D01*
X55469Y106955D01*
X55862Y106692D01*
X56327Y106599D01*
X57508D01*
X57973Y106692D01*
X58366Y106955D01*
X58630Y107348D01*
X58722Y107813D01*
Y114112D01*
X58630Y114577D01*
X58366Y114971D01*
X58131Y115128D01*
Y136086D01*
X108338Y186293D01*
X141890D01*
X141890Y186293D01*
X142354Y186386D01*
X142748Y186649D01*
X143476Y187377D01*
X143994Y187480D01*
X144523Y187833D01*
X144877Y188363D01*
X145001Y188987D01*
X144972Y189134D01*
X145432Y189380D01*
X149367Y185446D01*
X149367Y185446D01*
X149760Y185183D01*
X150225Y185090D01*
X150225Y185090D01*
X187058D01*
X198231Y173917D01*
Y158070D01*
X197769Y157878D01*
X190840Y164807D01*
X190446Y165070D01*
X189982Y165163D01*
X189982Y165163D01*
X186666D01*
X186666Y165163D01*
X186202Y165070D01*
X185808Y164807D01*
X185808Y164807D01*
X184614Y163614D01*
X182070D01*
Y164870D01*
X177524D01*
Y159930D01*
X182070D01*
Y161186D01*
X183903D01*
Y151400D01*
X182393Y149890D01*
X164424D01*
X161231Y153083D01*
Y167587D01*
X163059Y169416D01*
X163520Y169169D01*
X163506Y169099D01*
Y168272D01*
X163585Y167877D01*
X163656Y167770D01*
X163767Y167406D01*
X163656Y167042D01*
X163585Y166936D01*
X163506Y166540D01*
Y165713D01*
X163585Y165318D01*
X163809Y164983D01*
Y164712D01*
X163585Y164376D01*
X163506Y163981D01*
Y163154D01*
X163585Y162759D01*
X163809Y162424D01*
X164144Y162200D01*
X164539Y162121D01*
X164662D01*
Y159509D01*
X164662Y159509D01*
X164754Y159044D01*
X164905Y158819D01*
X165022Y158231D01*
X165375Y157702D01*
X165905Y157349D01*
X166529Y157224D01*
X167153Y157349D01*
X167683Y157702D01*
X168036Y158231D01*
X168160Y158856D01*
X168036Y159480D01*
X167683Y160009D01*
X167153Y160363D01*
X167090Y160375D01*
Y162121D01*
X167213D01*
X167608Y162200D01*
X167943Y162424D01*
X168167Y162759D01*
X168246Y163154D01*
Y163981D01*
X168167Y164376D01*
X168143Y164413D01*
X168410Y164913D01*
X169257D01*
X169938Y164232D01*
Y163092D01*
X169938Y163092D01*
X170030Y162627D01*
X170293Y162233D01*
X170985Y161542D01*
X170985Y161542D01*
X171379Y161278D01*
X171844Y161186D01*
X171844Y161186D01*
X172406D01*
Y159930D01*
X173465D01*
Y158116D01*
X172406D01*
Y153176D01*
X176882Y153176D01*
X177124Y152776D01*
X177193Y152776D01*
X177193Y152776D01*
X178813D01*
Y155646D01*
Y158516D01*
X177193D01*
X177193Y158516D01*
X177124D01*
X176882Y158116D01*
X176624Y158116D01*
X175893D01*
Y159930D01*
X176952D01*
Y164870D01*
X172810D01*
X172406Y164870D01*
X172273Y165199D01*
X172010Y165593D01*
X172010Y165593D01*
X170631Y166972D01*
X170633Y167028D01*
X170790Y167472D01*
X171454D01*
X171455Y167472D01*
X171906Y167562D01*
X171920Y167564D01*
X172406Y167288D01*
Y166684D01*
X176882Y166684D01*
X177124Y166284D01*
X177193Y166284D01*
X177193Y166284D01*
X178813D01*
Y169154D01*
Y172024D01*
X177193D01*
X177193Y172024D01*
X177124D01*
X176882Y171624D01*
X176624Y171624D01*
X175893D01*
Y173438D01*
X176952D01*
Y178378D01*
X172406D01*
Y173438D01*
X173465D01*
Y171624D01*
X172406D01*
Y170368D01*
X171923D01*
X171923Y170368D01*
X171458Y170276D01*
X171065Y170012D01*
X171064Y170012D01*
X170952Y169900D01*
X168410D01*
X168143Y170400D01*
X168167Y170436D01*
X168246Y170831D01*
Y171658D01*
X168167Y172054D01*
X167943Y172389D01*
X167608Y172613D01*
X167213Y172691D01*
X167090D01*
Y178109D01*
X169559Y180578D01*
X177671D01*
X178583Y179666D01*
Y178378D01*
X177524D01*
Y173438D01*
X182070D01*
Y178378D01*
X181011D01*
Y180168D01*
X181011Y180168D01*
X180918Y180633D01*
X180655Y181027D01*
X180655Y181027D01*
X179032Y182650D01*
X178638Y182913D01*
X178173Y183006D01*
X178173Y183006D01*
X169056D01*
X169056Y183006D01*
X168591Y182913D01*
X168198Y182650D01*
X165018Y179470D01*
X164754Y179076D01*
X164662Y178612D01*
X164662Y178612D01*
Y172691D01*
X164539D01*
X164144Y172613D01*
X163913Y172459D01*
X163172D01*
X163172Y172459D01*
X162707Y172366D01*
X162313Y172103D01*
X162313Y172103D01*
X159371Y169161D01*
X158871Y169368D01*
Y182411D01*
X158733Y183106D01*
X158339Y183695D01*
X158187Y183846D01*
X157598Y184240D01*
X156903Y184378D01*
X156208Y184240D01*
X155619Y183846D01*
X155226Y183257D01*
X155087Y182562D01*
X155226Y181867D01*
X155239Y181847D01*
Y167341D01*
X151831D01*
X151564Y167841D01*
X151588Y167877D01*
X151667Y168272D01*
Y169099D01*
X151588Y169494D01*
X151652Y169811D01*
X151653Y169812D01*
X151952Y170261D01*
X149297D01*
X146528D01*
X146328Y169900D01*
X143071D01*
X143071Y171449D01*
X143471Y171691D01*
X143471Y171760D01*
X143471Y171760D01*
Y173478D01*
X140503D01*
X137534D01*
Y171760D01*
X137534Y171760D01*
Y171691D01*
X137934Y171449D01*
X137934Y171191D01*
Y166776D01*
X143071D01*
Y167472D01*
X146763D01*
X147030Y166972D01*
X147006Y166936D01*
X146927Y166540D01*
Y165713D01*
X147006Y165318D01*
X147077Y165211D01*
X147189Y164847D01*
X147077Y164483D01*
X147006Y164376D01*
X146927Y163981D01*
Y163154D01*
X147006Y162759D01*
X147230Y162424D01*
X147565Y162200D01*
X147961Y162121D01*
X147974D01*
X148072Y161621D01*
X147790Y161200D01*
X147666Y160575D01*
X147790Y159951D01*
X148083Y159512D01*
Y154079D01*
X144390Y150386D01*
X94301D01*
X93837Y150293D01*
X93443Y150030D01*
X93443Y150030D01*
X66059Y122646D01*
X65796Y122252D01*
X65704Y121788D01*
X65704Y121788D01*
Y115128D01*
X65469Y114971D01*
X65206Y114577D01*
X65113Y114112D01*
Y107813D01*
X65206Y107348D01*
X65469Y106955D01*
X65862Y106692D01*
X66327Y106599D01*
X67508D01*
X67973Y106692D01*
X68366Y106955D01*
X68629Y107348D01*
X68722Y107813D01*
Y114112D01*
X68629Y114577D01*
X68366Y114971D01*
X68131Y115128D01*
Y121285D01*
X94804Y147958D01*
X107193D01*
X107345Y147458D01*
X107308Y147433D01*
X106954Y146904D01*
X106830Y146279D01*
X106954Y145655D01*
X107308Y145126D01*
X107837Y144772D01*
X108461Y144648D01*
X109085Y144772D01*
X109524Y145065D01*
X151679D01*
X152610Y144134D01*
X152713Y143617D01*
X153066Y143087D01*
X153595Y142734D01*
X154220Y142610D01*
X154739Y142713D01*
X155239Y142442D01*
Y124033D01*
X151831D01*
X151564Y124533D01*
X151588Y124570D01*
X151667Y124965D01*
Y125792D01*
X151588Y126187D01*
X151652Y126504D01*
X151653Y126505D01*
X151952Y126953D01*
X149297D01*
X146528D01*
X146328Y126593D01*
X143071D01*
X143071Y128142D01*
X143471Y128384D01*
X143471Y128453D01*
X143471Y128453D01*
Y130171D01*
X140503D01*
X137534D01*
Y128453D01*
X137534Y128453D01*
Y128384D01*
X137934Y128142D01*
X137934Y127884D01*
Y123469D01*
X143071D01*
Y124165D01*
X146763D01*
X147030Y123665D01*
X147006Y123628D01*
X146927Y123233D01*
Y122406D01*
X147006Y122011D01*
X147230Y121676D01*
Y121405D01*
X147006Y121069D01*
X146927Y120674D01*
Y119847D01*
X147006Y119452D01*
X147230Y119116D01*
X147565Y118893D01*
X147961Y118814D01*
X148087D01*
Y116230D01*
X147798Y115797D01*
X147674Y115173D01*
X147798Y114549D01*
X148091Y114110D01*
Y113862D01*
X143258Y109029D01*
X143130Y109041D01*
X142728Y109583D01*
X142744Y109666D01*
X142620Y110290D01*
X142266Y110819D01*
X141737Y111173D01*
X141113Y111297D01*
X140489Y111173D01*
X139959Y110819D01*
X139898Y110728D01*
X116353D01*
X115850Y111230D01*
Y123018D01*
X115850Y123018D01*
X115758Y123482D01*
X115494Y123876D01*
X115494Y123876D01*
X113333Y126037D01*
X112939Y126301D01*
X112475Y126393D01*
X112475Y126393D01*
X110155D01*
Y127452D01*
X105215D01*
Y126365D01*
X103006D01*
Y127397D01*
X98065D01*
X98065Y122920D01*
X97665Y122679D01*
X97665Y122609D01*
X97665Y122609D01*
Y120990D01*
X103406D01*
Y122609D01*
X103406Y122609D01*
Y122679D01*
X103006Y122920D01*
X103006Y123179D01*
Y123937D01*
X105215D01*
Y122906D01*
X110155D01*
Y123965D01*
X111972D01*
X113422Y122515D01*
Y110728D01*
X113422Y110728D01*
X113514Y110263D01*
X113778Y109869D01*
X114891Y108756D01*
X114778Y108360D01*
X114703Y108256D01*
X98986D01*
X86928Y120315D01*
X86534Y120578D01*
X86070Y120670D01*
X86070Y120670D01*
X78478D01*
X78478Y120670D01*
X78013Y120578D01*
X77619Y120315D01*
X77619Y120315D01*
X76059Y118754D01*
X75796Y118360D01*
X75704Y117896D01*
X75704Y117896D01*
Y115128D01*
X75469Y114971D01*
X75205Y114577D01*
X75113Y114112D01*
Y107813D01*
X75205Y107348D01*
X75469Y106955D01*
X75862Y106692D01*
X76327Y106599D01*
X77508D01*
X77973Y106692D01*
X78366Y106955D01*
X78629Y107348D01*
X78722Y107813D01*
Y114112D01*
X78629Y114577D01*
X78366Y114971D01*
X78131Y115128D01*
Y117393D01*
X78980Y118242D01*
X85567D01*
X97625Y106184D01*
X97625Y106184D01*
X98019Y105921D01*
X98484Y105828D01*
X98484Y105828D01*
X142988D01*
X142989Y105828D01*
X143453Y105921D01*
X143847Y106184D01*
X150164Y112501D01*
X150164Y112501D01*
X150427Y112895D01*
X150519Y113359D01*
X150519Y113359D01*
Y114110D01*
X150813Y114549D01*
X150937Y115173D01*
X150813Y115797D01*
X150515Y116242D01*
Y118814D01*
X150634D01*
X151029Y118893D01*
X151364Y119116D01*
X151588Y119452D01*
X151667Y119847D01*
Y120674D01*
X151588Y121069D01*
X151564Y121106D01*
X151831Y121606D01*
X155239D01*
Y116323D01*
X133400Y94484D01*
X133007Y93895D01*
X132868Y93200D01*
X133007Y92505D01*
X133400Y91916D01*
X133989Y91522D01*
X134684Y91384D01*
X135379Y91522D01*
X135968Y91916D01*
X158339Y114286D01*
X158733Y114875D01*
X158871Y115570D01*
Y122958D01*
Y142705D01*
X159049Y142826D01*
X159371Y142927D01*
X159812Y142632D01*
X160436Y142508D01*
X161061Y142632D01*
X161500Y142925D01*
X186737D01*
X194669Y134993D01*
Y107960D01*
X194207Y107768D01*
X191898Y110077D01*
X191505Y110340D01*
X191040Y110432D01*
X191040Y110432D01*
X188690D01*
Y116749D01*
X188690Y116749D01*
X188597Y117214D01*
X188334Y117607D01*
X188334Y117607D01*
X185991Y119951D01*
X185597Y120214D01*
X185132Y120307D01*
X185132Y120307D01*
X182070D01*
Y121563D01*
X177524D01*
Y116623D01*
X182070D01*
Y117879D01*
X184629D01*
X186262Y116246D01*
Y109721D01*
X185019Y108478D01*
X171439D01*
X171150Y108535D01*
X171150Y108535D01*
X170560D01*
X162131Y116965D01*
Y125732D01*
X162799Y126399D01*
X163227Y126362D01*
X163533Y125926D01*
X163506Y125792D01*
Y124965D01*
X163585Y124570D01*
X163656Y124463D01*
X163767Y124099D01*
X163656Y123735D01*
X163585Y123628D01*
X163506Y123233D01*
Y122406D01*
X163585Y122011D01*
X163809Y121676D01*
Y121405D01*
X163585Y121069D01*
X163506Y120674D01*
Y119847D01*
X163585Y119452D01*
X163809Y119116D01*
X164144Y118893D01*
X164539Y118814D01*
X164882D01*
Y117282D01*
X164745Y117078D01*
X164621Y116453D01*
X164745Y115829D01*
X165099Y115300D01*
X165628Y114946D01*
X166252Y114822D01*
X166877Y114946D01*
X167406Y115300D01*
X167760Y115829D01*
X167884Y116453D01*
X167760Y117078D01*
X167406Y117607D01*
X167309Y117671D01*
Y118833D01*
X167608Y118893D01*
X167943Y119116D01*
X168167Y119452D01*
X168246Y119847D01*
Y120674D01*
X168167Y121069D01*
X168143Y121106D01*
X168410Y121606D01*
X168980D01*
X169250Y121336D01*
X169250Y121336D01*
X169878Y120707D01*
Y120229D01*
X169878Y120229D01*
X169971Y119765D01*
X170234Y119371D01*
X170926Y118679D01*
X170926Y118679D01*
X171320Y118416D01*
X171784Y118323D01*
X171784Y118324D01*
X172406D01*
Y116623D01*
X173465D01*
Y114809D01*
X172406D01*
Y109869D01*
X176882Y109869D01*
X177124Y109469D01*
X177193Y109469D01*
X177193Y109469D01*
X178813D01*
Y112339D01*
Y115209D01*
X177193D01*
X177193Y115209D01*
X177124D01*
X176882Y114809D01*
X176624Y114809D01*
X175893D01*
Y116623D01*
X176952D01*
Y121563D01*
X172406Y121563D01*
X172052Y121917D01*
X171951Y122069D01*
X171951Y122069D01*
X170967Y123053D01*
X170967Y123053D01*
X170354Y123665D01*
X170357Y123721D01*
X170513Y124165D01*
X172406D01*
Y123377D01*
X176882Y123377D01*
X177124Y122977D01*
X177193Y122977D01*
X177193Y122977D01*
X178813D01*
Y125847D01*
Y128717D01*
X177193D01*
X177193Y128717D01*
X177124D01*
X176882Y128317D01*
X176624Y128317D01*
X175893D01*
Y130131D01*
X176952D01*
Y135071D01*
X172406D01*
Y130131D01*
X173465D01*
Y128317D01*
X172406D01*
Y126593D01*
X168410D01*
X168143Y127093D01*
X168167Y127129D01*
X168246Y127524D01*
Y128351D01*
X168167Y128746D01*
X167943Y129082D01*
X167608Y129306D01*
X167213Y129384D01*
X167090D01*
Y135381D01*
X169821Y138112D01*
X177450D01*
X178583Y136979D01*
Y135071D01*
X177524D01*
Y130131D01*
X182070D01*
Y135071D01*
X181011D01*
Y137481D01*
X181011Y137482D01*
X180918Y137946D01*
X180655Y138340D01*
X178811Y140184D01*
X178417Y140447D01*
X177953Y140540D01*
X177953Y140540D01*
X169318D01*
X168853Y140447D01*
X168460Y140184D01*
X168459Y140184D01*
X165018Y136742D01*
X164754Y136348D01*
X164662Y135884D01*
X164662Y135884D01*
Y129384D01*
X164539D01*
X164144Y129306D01*
X163809Y129082D01*
X163716Y128943D01*
X162412D01*
X162412Y128943D01*
X161947Y128851D01*
X161554Y128587D01*
X161553Y128587D01*
X160059Y127093D01*
X159796Y126699D01*
X159703Y126234D01*
X159703Y126234D01*
Y116462D01*
X159703Y116462D01*
X159796Y115997D01*
X160059Y115603D01*
X166096Y109566D01*
X165842Y109167D01*
X165810Y109145D01*
X165366Y109234D01*
X165366Y109234D01*
X160077D01*
X159638Y109527D01*
X159013Y109651D01*
X158389Y109527D01*
X157860Y109173D01*
X157506Y108644D01*
X157382Y108020D01*
X157506Y107395D01*
X157860Y106866D01*
X158389Y106512D01*
X159013Y106388D01*
X159638Y106512D01*
X160077Y106806D01*
X164864D01*
X167869Y103800D01*
X167869Y103800D01*
X168263Y103537D01*
X168728Y103445D01*
X168728Y103445D01*
X189916D01*
X191107Y102254D01*
Y97775D01*
X170631Y77298D01*
X170367Y76905D01*
X170275Y76440D01*
X170275Y76440D01*
Y61442D01*
X169982Y61003D01*
X169877Y60477D01*
X169809Y60349D01*
X169403Y60100D01*
X169027Y60175D01*
X168402Y60051D01*
X167873Y59697D01*
X167645Y59356D01*
X167623Y59348D01*
X167087Y59360D01*
X166846Y59720D01*
X166316Y60074D01*
X165692Y60198D01*
X165068Y60074D01*
X164539Y59720D01*
X164185Y59191D01*
X164061Y58567D01*
X164185Y57942D01*
X164539Y57413D01*
X165068Y57060D01*
X165586Y56957D01*
X166629Y55913D01*
X166438Y55451D01*
X165621D01*
X165621Y55451D01*
X165157Y55359D01*
X164763Y55096D01*
X164763Y55096D01*
X164501Y54833D01*
X164328Y54799D01*
X163799Y54445D01*
X163445Y53916D01*
X163321Y53292D01*
X163445Y52668D01*
X163799Y52138D01*
X164328Y51785D01*
X164952Y51661D01*
X165089Y51688D01*
X165515Y51263D01*
X165487Y51122D01*
X165266Y50853D01*
X164750Y50852D01*
X164221Y51206D01*
X163596Y51330D01*
X162972Y51206D01*
X162443Y50852D01*
X162089Y50323D01*
X161965Y49698D01*
X162089Y49074D01*
X162443Y48545D01*
X162972Y48191D01*
X163596Y48067D01*
X164221Y48191D01*
X164425Y48328D01*
X165098D01*
X165352Y48074D01*
X165352Y48074D01*
X165746Y47811D01*
X166211Y47718D01*
X166211Y47718D01*
X169774D01*
X170223Y47412D01*
X170255Y47251D01*
X170347Y46788D01*
X170701Y46258D01*
X171230Y45905D01*
X171854Y45781D01*
X172478Y45905D01*
X173008Y46258D01*
X173361Y46788D01*
X173464Y47305D01*
X173839Y47680D01*
X175696D01*
X175696Y47680D01*
X176161Y47773D01*
X176555Y48036D01*
X183443Y54924D01*
X183443Y54924D01*
X183706Y55318D01*
X183799Y55783D01*
Y71920D01*
X193923Y82045D01*
X194438Y81853D01*
X194521Y81435D01*
X194875Y80906D01*
X195404Y80553D01*
X196028Y80428D01*
X196653Y80553D01*
X197182Y80906D01*
X197489D01*
X197683Y80616D01*
X198212Y80263D01*
X198837Y80138D01*
X199461Y80263D01*
X199990Y80616D01*
X200284Y81056D01*
X200650Y81125D01*
X200847Y81112D01*
X201019Y80855D01*
X201549Y80501D01*
X202173Y80377D01*
X202797Y80501D01*
X203326Y80855D01*
X203680Y81384D01*
X203804Y82008D01*
X203722Y82420D01*
X204053Y82751D01*
X204613Y82603D01*
X204883Y82199D01*
X205287Y81929D01*
X205435Y81370D01*
X203212Y79147D01*
X202694Y79044D01*
X202165Y78691D01*
X201811Y78161D01*
X201687Y77537D01*
X201811Y76913D01*
X202165Y76384D01*
X202694Y76030D01*
X203318Y75906D01*
X203943Y76030D01*
X204472Y76384D01*
X204826Y76913D01*
X205351Y76994D01*
X205573Y76663D01*
X205972Y76396D01*
X206107Y76201D01*
X206125Y75795D01*
X205901Y75458D01*
X205776Y74834D01*
X205901Y74210D01*
X206254Y73681D01*
X206783Y73327D01*
X207408Y73203D01*
X208032Y73327D01*
X208561Y73681D01*
X208915Y74210D01*
X209039Y74834D01*
X209016Y74948D01*
X209737Y75668D01*
X210175Y75625D01*
X210704Y75271D01*
X211329Y75147D01*
X211953Y75271D01*
X212482Y75625D01*
X212836Y76154D01*
X212960Y76779D01*
X212896Y77099D01*
X213367Y77294D01*
X213513Y77077D01*
X214042Y76723D01*
X214666Y76599D01*
X215290Y76723D01*
X215820Y77077D01*
X216173Y77606D01*
X216297Y78230D01*
X216215Y78642D01*
X219895Y82322D01*
X219895Y82322D01*
X220159Y82716D01*
X220251Y83180D01*
X220251Y83180D01*
Y101655D01*
X220941Y102345D01*
X295040D01*
X295040Y102345D01*
X295504Y102438D01*
X295898Y102701D01*
X302159Y108961D01*
X302422Y109355D01*
X302514Y109820D01*
X302514Y109820D01*
Y117801D01*
X303770D01*
Y118888D01*
X305980D01*
Y117856D01*
X310920D01*
X310920Y122333D01*
X311320Y122574D01*
X311320Y122644D01*
X311320Y122644D01*
Y124264D01*
X308450D01*
X305580D01*
Y122644D01*
X305580Y122644D01*
Y122574D01*
X305980Y122333D01*
X305980Y122074D01*
Y121316D01*
X303770D01*
Y122347D01*
X298830D01*
Y117801D01*
X300086D01*
Y110323D01*
X294537Y104773D01*
X220439D01*
X220439Y104773D01*
X219974Y104681D01*
X219580Y104418D01*
X218932Y103769D01*
X218470Y103961D01*
Y109248D01*
X221119Y111897D01*
X227379D01*
Y110641D01*
X228438D01*
Y107836D01*
X228438Y107836D01*
X228531Y107372D01*
X228794Y106978D01*
X229485Y106286D01*
X229486Y106286D01*
X229879Y106023D01*
X230344Y105930D01*
X230344Y105930D01*
X239764D01*
X239764Y105930D01*
X240229Y106023D01*
X240623Y106286D01*
X244431Y110094D01*
X244431Y110094D01*
X244694Y110488D01*
X244787Y110953D01*
X244787Y110953D01*
Y118267D01*
X244910D01*
X245305Y118346D01*
X245535Y118500D01*
X246435D01*
X246435Y118500D01*
X246900Y118593D01*
X247293Y118856D01*
X249771Y121333D01*
X249771Y121333D01*
X250034Y121727D01*
X250127Y122192D01*
Y136926D01*
X250034Y137390D01*
X249771Y137784D01*
X249771Y137784D01*
X246766Y140789D01*
X246372Y141052D01*
X245908Y141145D01*
X245908Y141145D01*
X226036D01*
X226036Y141145D01*
X225571Y141052D01*
X225177Y140789D01*
X225177Y140789D01*
X221058Y136670D01*
X220795Y136276D01*
X220702Y135811D01*
X220702Y135811D01*
Y129792D01*
X220702Y129792D01*
X220795Y129327D01*
X221058Y128934D01*
X223984Y126007D01*
X224378Y125744D01*
X224842Y125652D01*
X224842Y125652D01*
X227379D01*
Y124149D01*
X231925D01*
Y129089D01*
X227379D01*
Y128080D01*
X225345D01*
X223130Y130295D01*
Y135308D01*
X226538Y138717D01*
X237443D01*
X237692Y138217D01*
X237519Y137959D01*
X241014D01*
X240842Y138217D01*
X241090Y138717D01*
X245405D01*
X247699Y136423D01*
Y122695D01*
X246321Y121316D01*
X245889Y121592D01*
X245943Y121860D01*
Y122687D01*
X245864Y123082D01*
X245793Y123189D01*
X245682Y123553D01*
X245793Y123916D01*
X245864Y124023D01*
X245943Y124419D01*
Y125245D01*
X245864Y125641D01*
X245640Y125976D01*
Y126247D01*
X245864Y126582D01*
X245943Y126978D01*
Y127805D01*
X245864Y128200D01*
X245640Y128535D01*
X245305Y128759D01*
X244910Y128838D01*
X244787D01*
Y130843D01*
X244787Y130843D01*
X244694Y131307D01*
X244444Y131683D01*
X244339Y132208D01*
X243986Y132737D01*
X243456Y133091D01*
X242832Y133215D01*
X242208Y133091D01*
X241679Y132737D01*
X241325Y132208D01*
X241201Y131584D01*
X241325Y130959D01*
X241679Y130430D01*
X242208Y130077D01*
X242359Y130046D01*
Y128838D01*
X242236D01*
X241841Y128759D01*
X241506Y128535D01*
X241282Y128200D01*
X241203Y127805D01*
Y126978D01*
X241282Y126582D01*
X241306Y126546D01*
X241039Y126046D01*
X240224D01*
X239244Y127026D01*
X239244Y127026D01*
X238792Y127478D01*
X238398Y127741D01*
X237934Y127833D01*
X237934Y127833D01*
X237043D01*
Y129089D01*
X235984D01*
Y130903D01*
X237043D01*
Y135337D01*
X237046Y135362D01*
X237543Y135785D01*
X237665Y135772D01*
X237825Y135532D01*
X238282Y135227D01*
Y135990D01*
X237169D01*
X237015Y135844D01*
X236561Y135844D01*
X232567Y135844D01*
X232325Y136244D01*
X232255Y136244D01*
X232255Y136244D01*
X230636D01*
Y133374D01*
Y130503D01*
X232255D01*
X232255Y130503D01*
X232325D01*
X232567Y130903D01*
X232825Y130903D01*
X233556D01*
Y129089D01*
X232497D01*
Y124149D01*
X237043D01*
Y125134D01*
X237474Y125290D01*
X237543Y125293D01*
X238863Y123974D01*
X239207Y123743D01*
X239270Y123482D01*
X239286Y123195D01*
X239191Y123131D01*
X239191Y123131D01*
X237543Y121483D01*
X237043Y121690D01*
Y122335D01*
X232567Y122335D01*
X232325Y122735D01*
X232255Y122735D01*
X232255Y122735D01*
X230636D01*
Y119865D01*
Y116995D01*
X232255D01*
X232255Y116995D01*
X232325D01*
X232567Y117395D01*
X232825Y117395D01*
X233556D01*
Y115581D01*
X232497D01*
Y110641D01*
X237043D01*
Y115581D01*
X235984D01*
Y117395D01*
X237043D01*
Y118651D01*
X237642D01*
X237642Y118651D01*
X238106Y118744D01*
X238500Y119007D01*
X240552Y121059D01*
X241039D01*
X241306Y120559D01*
X241282Y120523D01*
X241203Y120127D01*
Y119301D01*
X241282Y118905D01*
X241506Y118570D01*
X241841Y118346D01*
X242236Y118267D01*
X242359D01*
Y111456D01*
X239262Y108358D01*
X230866D01*
Y110641D01*
X231925D01*
Y115581D01*
X227379D01*
Y114325D01*
X220616D01*
X220152Y114233D01*
X219758Y113969D01*
X219758Y113969D01*
X217151Y111362D01*
X216689Y111553D01*
Y138005D01*
X221986Y143302D01*
X287940D01*
X287940Y143302D01*
X288405Y143394D01*
X288799Y143658D01*
X302159Y157018D01*
X302422Y157411D01*
X302514Y157876D01*
X302514Y157876D01*
Y161108D01*
X303770D01*
Y162195D01*
X305980D01*
Y161163D01*
X310920D01*
X310920Y165640D01*
X311320Y165882D01*
X311320Y165951D01*
X311320Y165951D01*
Y167571D01*
X308450D01*
X305580D01*
Y165951D01*
X305580Y165951D01*
Y165882D01*
X305980Y165640D01*
X305980Y165382D01*
Y164623D01*
X303770D01*
Y165654D01*
X298830D01*
Y161108D01*
X300086D01*
Y158379D01*
X287438Y145730D01*
X221483D01*
X221483Y145730D01*
X221019Y145637D01*
X220625Y145374D01*
X220625Y145374D01*
X215370Y140119D01*
X214908Y140310D01*
Y149976D01*
X220136Y155204D01*
X227379D01*
Y153948D01*
X228438D01*
Y152587D01*
X228438Y152587D01*
X228531Y152122D01*
X228794Y151728D01*
X230078Y150444D01*
X230078Y150444D01*
X230472Y150181D01*
X230937Y150088D01*
X241281D01*
X241281Y150088D01*
X241745Y150181D01*
X242139Y150444D01*
X244431Y152736D01*
X244694Y153130D01*
X244787Y153595D01*
X244787Y153595D01*
Y161574D01*
X244910D01*
X245305Y161653D01*
X245601Y161851D01*
X246681D01*
X246681Y161851D01*
X247146Y161943D01*
X247539Y162206D01*
X250417Y165084D01*
X250417Y165084D01*
X250680Y165478D01*
X250773Y165943D01*
X250773Y165943D01*
Y178716D01*
X250773Y178716D01*
X250680Y179180D01*
X250417Y179574D01*
X250417Y179574D01*
X245884Y184107D01*
X245490Y184371D01*
X245025Y184463D01*
X245025Y184463D01*
X224667D01*
X224203Y184371D01*
X223809Y184107D01*
X223809Y184107D01*
X219274Y179573D01*
X219011Y179179D01*
X218919Y178715D01*
X218919Y178715D01*
Y173529D01*
X218919Y173529D01*
X219011Y173064D01*
X219274Y172670D01*
X222877Y169068D01*
X222877Y169068D01*
X223271Y168805D01*
X223735Y168713D01*
X227379D01*
Y167456D01*
X231925D01*
Y172397D01*
X227379D01*
Y171140D01*
X224238D01*
X221347Y174032D01*
Y178212D01*
X225170Y182035D01*
X244523D01*
X248345Y178213D01*
Y166445D01*
X246519Y164619D01*
X246335Y164645D01*
X245943Y165167D01*
Y165993D01*
X245864Y166389D01*
X245793Y166496D01*
X245682Y166860D01*
X245793Y167224D01*
X245864Y167330D01*
X245943Y167726D01*
Y168553D01*
X245864Y168948D01*
X245640Y169283D01*
Y169554D01*
X245864Y169889D01*
X245943Y170285D01*
Y171112D01*
X245864Y171507D01*
X245640Y171842D01*
X245305Y172066D01*
X244910Y172145D01*
X244787D01*
Y172974D01*
X244843Y173057D01*
X244967Y173681D01*
X244843Y174306D01*
X244489Y174835D01*
X243960Y175189D01*
X243336Y175313D01*
X242711Y175189D01*
X242182Y174835D01*
X241828Y174306D01*
X241704Y173681D01*
X241828Y173057D01*
X242114Y172630D01*
X242028Y172244D01*
X241943Y172087D01*
X241841Y172066D01*
X241506Y171842D01*
X241282Y171507D01*
X241203Y171112D01*
Y170285D01*
X241235Y170126D01*
X240931Y169658D01*
X240865Y169615D01*
X240597Y169582D01*
X239394Y170785D01*
X239001Y171048D01*
X238536Y171140D01*
X238536Y171140D01*
X237043D01*
Y172397D01*
X235984D01*
Y174211D01*
X237043D01*
Y179151D01*
X232567Y179151D01*
X232325Y179551D01*
X232255Y179551D01*
X232255Y179551D01*
X230636D01*
Y176681D01*
Y173811D01*
X232255D01*
X232255Y173811D01*
X232325D01*
X232567Y174211D01*
X232825Y174211D01*
X233556D01*
Y172397D01*
X232497D01*
Y167456D01*
X237043D01*
Y168713D01*
X238033D01*
X239465Y167281D01*
X239610Y167184D01*
X239643Y167038D01*
X239576Y166605D01*
X239326Y166438D01*
X239326Y166438D01*
X237543Y164656D01*
X237043Y164863D01*
Y165642D01*
X232567Y165642D01*
X232325Y166042D01*
X232255Y166042D01*
X232255Y166042D01*
X230636D01*
Y163172D01*
Y160302D01*
X232255D01*
X232255Y160302D01*
X232325D01*
X232567Y160702D01*
X232825Y160702D01*
X233556D01*
Y158888D01*
X232497D01*
Y153948D01*
X237043D01*
Y158888D01*
X235984D01*
Y160702D01*
X237043D01*
Y161959D01*
X237776D01*
X237776Y161959D01*
X238241Y162051D01*
X238635Y162314D01*
X240585Y164264D01*
X240989Y164223D01*
X241270Y163772D01*
X241203Y163435D01*
Y162608D01*
X241282Y162212D01*
X241506Y161877D01*
X241841Y161653D01*
X242236Y161574D01*
X242359D01*
Y154097D01*
X240778Y152516D01*
X231439D01*
X230866Y153090D01*
Y153948D01*
X231925D01*
Y158888D01*
X227379D01*
Y157632D01*
X219634D01*
X219634Y157632D01*
X219169Y157540D01*
X218775Y157276D01*
X218775Y157276D01*
X213588Y152090D01*
X213126Y152281D01*
Y179501D01*
X221244Y187618D01*
X251817D01*
X252053Y187118D01*
X251782Y186713D01*
X251644Y186018D01*
Y167701D01*
Y149144D01*
X251782Y148449D01*
X252176Y147860D01*
X252765Y147466D01*
X253460Y147328D01*
X254155Y147466D01*
X254744Y147860D01*
X255138Y148449D01*
X255276Y149144D01*
Y166925D01*
X257617D01*
X257885Y166425D01*
X257860Y166389D01*
X257782Y165993D01*
Y165167D01*
X257860Y164771D01*
X257797Y164454D01*
X257796Y164453D01*
X257497Y164005D01*
X260152D01*
X262921D01*
X263121Y164366D01*
X266768D01*
X267563Y163572D01*
Y162507D01*
X266208D01*
X266208Y157833D01*
X265808Y157592D01*
X265808Y157522D01*
X265808Y157522D01*
Y155804D01*
X271745D01*
Y157522D01*
X271745Y157522D01*
Y157592D01*
X271345Y157833D01*
X271345Y158092D01*
Y162507D01*
X269990D01*
Y164074D01*
X269990Y164074D01*
X269898Y164539D01*
X269635Y164933D01*
X269635Y164933D01*
X268129Y166438D01*
X267735Y166702D01*
X267271Y166794D01*
X267271Y166794D01*
X262686D01*
X262419Y167294D01*
X262443Y167330D01*
X262522Y167726D01*
Y168553D01*
X262443Y168948D01*
X262219Y169283D01*
Y169554D01*
X262443Y169889D01*
X262522Y170285D01*
Y171112D01*
X262443Y171507D01*
X262219Y171842D01*
X261884Y172066D01*
X261488Y172145D01*
X261366D01*
Y176405D01*
X261366Y176405D01*
X261273Y176870D01*
X261147Y177058D01*
X264291Y180202D01*
X311047D01*
X343414Y147836D01*
Y130360D01*
X343120Y130302D01*
X342591Y129948D01*
X342237Y129419D01*
X342113Y128795D01*
X342237Y128170D01*
X342591Y127641D01*
X343120Y127287D01*
X343744Y127163D01*
X344368Y127287D01*
X344898Y127641D01*
X345251Y128170D01*
X345354Y128688D01*
X345486Y128820D01*
X345486Y128820D01*
X345749Y129214D01*
X345841Y129678D01*
X345841Y129678D01*
Y148339D01*
X345841Y148339D01*
X345749Y148803D01*
X345486Y149197D01*
X345486Y149197D01*
X312408Y182274D01*
X312015Y182537D01*
X311685Y182603D01*
X311734Y183103D01*
X315482D01*
X347134Y151451D01*
Y129796D01*
X346841Y129357D01*
X346717Y128733D01*
X346841Y128108D01*
X347195Y127579D01*
X347724Y127225D01*
X348348Y127101D01*
X348973Y127225D01*
X349502Y127579D01*
X349855Y128108D01*
X349980Y128733D01*
X349855Y129357D01*
X349562Y129796D01*
Y151953D01*
X349562Y151953D01*
X349470Y152418D01*
X349206Y152812D01*
X349206Y152812D01*
X316843Y185175D01*
X316449Y185438D01*
X315985Y185531D01*
X315985Y185531D01*
X292917D01*
X292478Y185824D01*
X291854Y185948D01*
X291230Y185824D01*
X290701Y185470D01*
X290347Y184941D01*
X290223Y184317D01*
X290347Y183693D01*
X290701Y183163D01*
X290751Y183130D01*
X290599Y182630D01*
X263788D01*
X263324Y182537D01*
X262930Y182274D01*
X262930Y182274D01*
X259339Y178683D01*
X258821Y178580D01*
X258292Y178227D01*
X257938Y177697D01*
X257814Y177073D01*
X257938Y176449D01*
X258292Y175919D01*
X258821Y175566D01*
X258938Y175543D01*
Y172145D01*
X258815D01*
X258420Y172066D01*
X258084Y171842D01*
X257860Y171507D01*
X257782Y171112D01*
Y170285D01*
X257860Y169889D01*
X257885Y169853D01*
X257617Y169353D01*
X255276D01*
Y186018D01*
X255138Y186713D01*
X254867Y187118D01*
X255103Y187618D01*
X291446D01*
X291446Y187618D01*
X291911Y187710D01*
X292304Y187973D01*
X302159Y197827D01*
X302159Y197827D01*
X302422Y198221D01*
X302514Y198686D01*
X302514Y198686D01*
Y204415D01*
X303770D01*
Y205502D01*
X305980D01*
Y204470D01*
X310920D01*
X310920Y208947D01*
X311320Y209189D01*
X311320Y209258D01*
X311320Y209258D01*
Y210878D01*
X308450D01*
X305580D01*
Y209258D01*
X305580Y209258D01*
Y209189D01*
X305980Y208947D01*
X305980Y208689D01*
Y207930D01*
X303770D01*
Y208962D01*
X298830D01*
Y204415D01*
X300086D01*
Y199189D01*
X290943Y190046D01*
X254919D01*
X254791Y190245D01*
X254702Y190546D01*
X255043Y191056D01*
X255181Y191751D01*
X255086Y192232D01*
Y210232D01*
X257617D01*
X257885Y209732D01*
X257860Y209696D01*
X257782Y209301D01*
Y208474D01*
X257860Y208079D01*
X257797Y207762D01*
X257796Y207761D01*
X257497Y207312D01*
X260152D01*
X263089D01*
X263209Y207458D01*
X263563Y207470D01*
X264660Y206372D01*
X264660Y206372D01*
X265054Y206109D01*
X265519Y206017D01*
X265519Y206017D01*
X265778D01*
X266131Y205663D01*
X266131Y204928D01*
X265731Y204687D01*
X265731Y204617D01*
X265731Y204617D01*
Y202900D01*
X271668D01*
Y204617D01*
X271668Y204617D01*
Y204687D01*
X271268Y204928D01*
X271268Y205187D01*
Y209602D01*
X266131D01*
Y209042D01*
X265631Y208835D01*
X265154Y209312D01*
X265154Y209312D01*
X264720Y209746D01*
X264326Y210009D01*
X263862Y210101D01*
X263862Y210101D01*
X262686D01*
X262419Y210601D01*
X262443Y210637D01*
X262522Y211033D01*
Y211860D01*
X262443Y212255D01*
X262219Y212590D01*
Y212861D01*
X262443Y213197D01*
X262522Y213592D01*
Y214419D01*
X262443Y214814D01*
X262219Y215149D01*
X261884Y215373D01*
X261488Y215452D01*
X261366D01*
Y219549D01*
X261621Y219931D01*
X261724Y220449D01*
X267614Y226339D01*
X316024D01*
X339078Y203284D01*
X339078Y203284D01*
X352060Y190303D01*
Y129862D01*
X351767Y129423D01*
X351643Y128798D01*
X351767Y128174D01*
X352121Y127645D01*
X352650Y127291D01*
X353274Y127167D01*
X353898Y127291D01*
X354428Y127645D01*
X354781Y128174D01*
X354906Y128798D01*
X354781Y129423D01*
X354488Y129862D01*
Y189921D01*
X354950Y190112D01*
X357146Y187916D01*
Y129815D01*
X356853Y129376D01*
X356729Y128752D01*
X356853Y128127D01*
X357207Y127598D01*
X357736Y127244D01*
X358360Y127120D01*
X358984Y127244D01*
X359514Y127598D01*
X359867Y128127D01*
X359992Y128752D01*
X359867Y129376D01*
X359574Y129815D01*
Y188418D01*
X359482Y188883D01*
X359219Y189277D01*
X359219Y189277D01*
X315660Y232835D01*
X315266Y233099D01*
X314802Y233191D01*
X314802Y233191D01*
X292693D01*
X292254Y233484D01*
X291629Y233608D01*
X291005Y233484D01*
X290476Y233131D01*
X290122Y232601D01*
X289998Y231977D01*
X290122Y231353D01*
X290476Y230823D01*
X291005Y230470D01*
X291629Y230346D01*
X292254Y230470D01*
X292693Y230763D01*
X314299D01*
X315833Y229229D01*
X315642Y228767D01*
X267111D01*
X266647Y228674D01*
X266253Y228411D01*
X266253Y228411D01*
X260007Y222165D01*
X259489Y222062D01*
X258960Y221709D01*
X258607Y221180D01*
X258482Y220555D01*
X258607Y219931D01*
X258938Y219435D01*
Y215452D01*
X258815D01*
X258420Y215373D01*
X258084Y215149D01*
X257860Y214814D01*
X257782Y214419D01*
Y213592D01*
X257860Y213197D01*
X257885Y213160D01*
X257617Y212660D01*
X255086D01*
Y220423D01*
X259138Y224476D01*
X259532Y225065D01*
X259670Y225760D01*
Y254143D01*
X267054D01*
X267672Y254266D01*
X268196Y254616D01*
X270693Y257113D01*
X270762Y257159D01*
X271115Y257688D01*
X271239Y258313D01*
X271115Y258937D01*
X270762Y259466D01*
X270232Y259820D01*
X269608Y259944D01*
X268984Y259820D01*
X268455Y259466D01*
X268409Y259398D01*
X266385Y257373D01*
X258807D01*
X248359Y267821D01*
X247770Y268215D01*
X247075Y268353D01*
X232370D01*
Y270586D01*
X232870Y270854D01*
X232906Y270829D01*
X233302Y270751D01*
X234128D01*
X234524Y270829D01*
X234841Y270766D01*
X234842Y270765D01*
X235290Y270465D01*
Y273120D01*
Y275889D01*
X234929Y276090D01*
Y278071D01*
X235272Y278429D01*
X239946Y278429D01*
X240187Y278028D01*
X240257Y278028D01*
X240257Y278028D01*
X241975D01*
Y280997D01*
Y283965D01*
X240257D01*
X240257Y283965D01*
X240187D01*
X239946Y283565D01*
X239687Y283565D01*
X235272D01*
Y282211D01*
X234986D01*
X234522Y282119D01*
X234128Y281855D01*
X234128Y281855D01*
X232857Y280584D01*
X232594Y280190D01*
X232501Y279726D01*
X232501Y279726D01*
Y275655D01*
X232001Y275387D01*
X231965Y275412D01*
X231570Y275490D01*
X231297D01*
X231025Y275896D01*
X231006Y275990D01*
X231120Y276564D01*
X230996Y277188D01*
X230703Y277627D01*
Y282153D01*
X233798Y285248D01*
X249536D01*
X299080Y235704D01*
X299474Y235441D01*
X299938Y235349D01*
X299938Y235349D01*
X319746D01*
X342145Y212949D01*
X342145Y212949D01*
X362328Y192766D01*
Y129596D01*
X362035Y129157D01*
X361911Y128533D01*
X362035Y127908D01*
X362389Y127379D01*
X362918Y127025D01*
X363542Y126901D01*
X364167Y127025D01*
X364696Y127379D01*
X365050Y127908D01*
X365174Y128533D01*
X365050Y129157D01*
X364756Y129596D01*
Y193269D01*
X364756Y193269D01*
X364664Y193733D01*
X364401Y194127D01*
X344122Y214406D01*
X343948Y214666D01*
X343688Y214840D01*
X321107Y237421D01*
X320713Y237684D01*
X320249Y237776D01*
X320249Y237776D01*
X300441D01*
X250897Y287320D01*
X250503Y287583D01*
X250039Y287676D01*
X250039Y287676D01*
X233295D01*
X233295Y287676D01*
X232830Y287583D01*
X232436Y287320D01*
X232436Y287320D01*
X228631Y283514D01*
X228367Y283121D01*
X228275Y282656D01*
X228275Y282656D01*
Y277627D01*
X227982Y277188D01*
X227858Y276564D01*
X227887Y276414D01*
X227712Y276151D01*
X227619Y275686D01*
X227619Y275686D01*
Y275299D01*
X227453Y275188D01*
X227229Y274852D01*
X227150Y274457D01*
Y271784D01*
X226737Y271333D01*
X226641Y271315D01*
X226051Y271709D01*
X225357Y271847D01*
X176222D01*
X175954Y272347D01*
X176028Y272457D01*
X176152Y273081D01*
X176028Y273706D01*
X175735Y274145D01*
Y285346D01*
X175735Y285346D01*
X175642Y285811D01*
X175379Y286205D01*
X175379Y286205D01*
X170147Y291437D01*
Y293892D01*
X171207D01*
Y298832D01*
X170140D01*
Y301118D01*
X171191D01*
Y306058D01*
D02*
G37*
G36*
X162831Y299232D02*
X161142D01*
Y297346D01*
X162831D01*
Y299232D01*
D02*
G37*
G36*
X229315Y299168D02*
X227626D01*
Y297282D01*
X229315D01*
Y299168D01*
D02*
G37*
G36*
X162831Y295377D02*
X161142D01*
Y293492D01*
X162831D01*
Y295377D01*
D02*
G37*
G36*
X229315Y295314D02*
X227626D01*
Y293428D01*
X229315D01*
Y295314D01*
D02*
G37*
G36*
X223797Y306477D02*
X219251D01*
Y301537D01*
X220310D01*
Y298768D01*
X219251D01*
Y293828D01*
X220310D01*
Y292996D01*
X220310Y292996D01*
X220403Y292531D01*
X220666Y292137D01*
X224065Y288738D01*
X224065Y288738D01*
X224459Y288475D01*
X224923Y288382D01*
X224923Y288382D01*
X252170D01*
X263035Y277518D01*
X263117Y277104D01*
X263471Y276575D01*
X264000Y276221D01*
X264624Y276097D01*
X265248Y276221D01*
X265778Y276575D01*
X266131Y277104D01*
X266255Y277728D01*
X266131Y278352D01*
X265778Y278882D01*
X265248Y279235D01*
X264627Y279359D01*
X253531Y290455D01*
X253137Y290718D01*
X252673Y290810D01*
X252673Y290810D01*
X225426D01*
X222909Y293328D01*
X223116Y293828D01*
X223727Y293828D01*
X223969Y293428D01*
X224039Y293428D01*
X224039Y293428D01*
X225658D01*
Y296298D01*
Y299168D01*
X224039D01*
X224039Y299168D01*
X223969D01*
X223727Y298768D01*
X223469Y298768D01*
X222738D01*
Y301537D01*
X223797D01*
Y306477D01*
D02*
G37*
G36*
X245730Y283965D02*
X243943D01*
Y281981D01*
X245730D01*
Y283965D01*
D02*
G37*
G36*
X167412Y283182D02*
X165625D01*
Y281197D01*
X167412D01*
Y283182D01*
D02*
G37*
G36*
X245730Y280013D02*
X243943D01*
Y278028D01*
X245730D01*
Y280013D01*
D02*
G37*
G36*
X167412Y279229D02*
X165625D01*
Y277244D01*
X167412D01*
Y279229D01*
D02*
G37*
G36*
X363150Y359244D02*
X362525Y359120D01*
X361996Y358767D01*
X361643Y358237D01*
X361518Y357613D01*
X361534Y357532D01*
Y354283D01*
X359608Y352356D01*
X359258Y351832D01*
X359135Y351214D01*
Y343245D01*
X355921Y340031D01*
X350031D01*
X349413Y339908D01*
X348889Y339558D01*
X286717Y277386D01*
X286649Y277341D01*
X286295Y276811D01*
X286171Y276187D01*
X286295Y275563D01*
X286649Y275034D01*
X287178Y274680D01*
X287803Y274556D01*
X288427Y274680D01*
X288956Y275034D01*
X289002Y275102D01*
X350700Y336800D01*
X356590D01*
X357208Y336923D01*
X357732Y337274D01*
X361892Y341434D01*
X362242Y341958D01*
X362365Y342576D01*
Y350545D01*
X364292Y352472D01*
X364642Y352996D01*
X364765Y353614D01*
Y357532D01*
X364781Y357613D01*
X364657Y358237D01*
X364303Y358767D01*
X363774Y359120D01*
X363150Y359244D01*
D02*
G37*
G36*
X237259Y275776D02*
Y274105D01*
X238129D01*
Y274457D01*
X238019Y275009D01*
X237707Y275476D01*
X237259Y275776D01*
D02*
G37*
G36*
X238129Y272136D02*
X237259D01*
Y270465D01*
X237707Y270765D01*
X238019Y271232D01*
X238129Y271784D01*
Y272136D01*
D02*
G37*
G36*
X161531D02*
X160661D01*
Y270465D01*
X161109Y270765D01*
X161421Y271232D01*
X161531Y271784D01*
Y272136D01*
D02*
G37*
G36*
X240867Y241045D02*
X238982D01*
Y239356D01*
X240867D01*
Y241045D01*
D02*
G37*
G36*
X237013D02*
X235127D01*
Y239356D01*
X237013D01*
Y241045D01*
D02*
G37*
G36*
X226142D02*
X224256D01*
Y239356D01*
X226142D01*
Y241045D01*
D02*
G37*
G36*
X222287D02*
X220401D01*
Y239356D01*
X222287D01*
Y241045D01*
D02*
G37*
G36*
X160283D02*
X158397D01*
Y239356D01*
X160283D01*
Y241045D01*
D02*
G37*
G36*
X156429D02*
X154543D01*
Y239356D01*
X156429D01*
Y241045D01*
D02*
G37*
G36*
X146086D02*
X144200D01*
Y239356D01*
X146086D01*
Y241045D01*
D02*
G37*
G36*
X142231D02*
X140345D01*
Y239356D01*
X142231D01*
Y241045D01*
D02*
G37*
G36*
X228668Y222858D02*
X226979D01*
Y220972D01*
X228668D01*
Y222858D01*
D02*
G37*
G36*
X143471Y220541D02*
X141487D01*
Y218754D01*
X143471D01*
Y220541D01*
D02*
G37*
G36*
X139518D02*
X137534D01*
Y218754D01*
X139518D01*
Y220541D01*
D02*
G37*
G36*
X228668Y219004D02*
X226979D01*
Y217118D01*
X228668D01*
Y219004D01*
D02*
G37*
G36*
X150634Y216406D02*
X150281D01*
Y215536D01*
X151952D01*
X151653Y215984D01*
X151185Y216297D01*
X150634Y216406D01*
D02*
G37*
G36*
X148313D02*
X147961D01*
X147409Y216297D01*
X146942Y215984D01*
X146642Y215536D01*
X148313D01*
Y216406D01*
D02*
G37*
G36*
X182470Y215331D02*
X180781D01*
Y213445D01*
X182470D01*
Y215331D01*
D02*
G37*
G36*
X311320Y214535D02*
X309434D01*
Y212846D01*
X311320D01*
Y214535D01*
D02*
G37*
G36*
X307466D02*
X305580D01*
Y212846D01*
X307466D01*
Y214535D01*
D02*
G37*
G36*
X182470Y211477D02*
X180781D01*
Y209591D01*
X182470D01*
Y211477D01*
D02*
G37*
G36*
X301178Y217551D02*
X300554Y217427D01*
X300025Y217073D01*
X299671Y216544D01*
X299547Y215920D01*
X299671Y215295D01*
X300025Y214766D01*
X300086Y214725D01*
Y214080D01*
X298830D01*
Y209533D01*
X303770D01*
Y214080D01*
X302514D01*
Y215039D01*
X302686Y215295D01*
X302810Y215920D01*
X302686Y216544D01*
X302332Y217073D01*
X301803Y217427D01*
X301178Y217551D01*
D02*
G37*
G36*
X228668Y209349D02*
X226979D01*
Y207464D01*
X228668D01*
Y209349D01*
D02*
G37*
G36*
X262807Y205344D02*
X261136D01*
Y204474D01*
X261488D01*
X262040Y204583D01*
X262507Y204896D01*
X262807Y205344D01*
D02*
G37*
G36*
X259167D02*
X257497D01*
X257796Y204896D01*
X258263Y204583D01*
X258815Y204474D01*
X259167D01*
Y205344D01*
D02*
G37*
G36*
X103406Y205635D02*
X101520D01*
Y203946D01*
X103406D01*
Y205635D01*
D02*
G37*
G36*
X99551D02*
X97665D01*
Y203946D01*
X99551D01*
Y205635D01*
D02*
G37*
G36*
X228668Y205495D02*
X226979D01*
Y203609D01*
X228668D01*
Y205495D01*
D02*
G37*
G36*
X110155Y208948D02*
X105215D01*
Y204402D01*
X106471D01*
Y203321D01*
X106471Y203321D01*
X106564Y202857D01*
X106827Y202463D01*
X107991Y201299D01*
X107991Y201299D01*
X108385Y201035D01*
X108569Y200999D01*
X109091Y200650D01*
X109716Y200525D01*
X110340Y200650D01*
X110869Y201003D01*
X111223Y201533D01*
X111347Y202157D01*
X111223Y202781D01*
X110869Y203310D01*
X110340Y203664D01*
X109716Y203788D01*
X109612Y203768D01*
X109233Y204190D01*
X109308Y204402D01*
X110155D01*
Y208948D01*
D02*
G37*
G36*
X182470Y201823D02*
X180781D01*
Y199937D01*
X182470D01*
Y201823D01*
D02*
G37*
G36*
X271668Y200931D02*
X269684D01*
Y199144D01*
X271668D01*
Y200931D01*
D02*
G37*
G36*
X267716D02*
X265731D01*
Y199144D01*
X267716D01*
Y200931D01*
D02*
G37*
G36*
X182470Y197969D02*
X180781D01*
Y196083D01*
X182470D01*
Y197969D01*
D02*
G37*
G36*
X116127Y193136D02*
X115503Y193012D01*
X115064Y192719D01*
X102654D01*
X102654Y192719D01*
X102189Y192626D01*
X101795Y192363D01*
X101795Y192363D01*
X51059Y141627D01*
X50796Y141233D01*
X50704Y140769D01*
X50704Y140769D01*
Y115128D01*
X50469Y114971D01*
X50205Y114577D01*
X50113Y114112D01*
Y107813D01*
X50205Y107348D01*
X50469Y106955D01*
X50862Y106692D01*
X51327Y106599D01*
X52508D01*
X52973Y106692D01*
X53366Y106955D01*
X53629Y107348D01*
X53722Y107813D01*
Y114112D01*
X53629Y114577D01*
X53366Y114971D01*
X53131Y115128D01*
Y140266D01*
X103156Y190291D01*
X115064D01*
X115503Y189997D01*
X116127Y189873D01*
X116751Y189997D01*
X117281Y190351D01*
X117634Y190880D01*
X117758Y191505D01*
X117634Y192129D01*
X117281Y192658D01*
X116751Y193012D01*
X116127Y193136D01*
D02*
G37*
G36*
X228668Y179551D02*
X226979D01*
Y177665D01*
X228668D01*
Y179551D01*
D02*
G37*
G36*
X143471Y177234D02*
X141487D01*
Y175447D01*
X143471D01*
Y177234D01*
D02*
G37*
G36*
X139518D02*
X137534D01*
Y175447D01*
X139518D01*
Y177234D01*
D02*
G37*
G36*
X228668Y175696D02*
X226979D01*
Y173811D01*
X228668D01*
Y175696D01*
D02*
G37*
G36*
X150634Y173099D02*
X150282D01*
Y172229D01*
X151952D01*
X151653Y172677D01*
X151185Y172990D01*
X150634Y173099D01*
D02*
G37*
G36*
X148313D02*
X147961D01*
X147409Y172990D01*
X146942Y172677D01*
X146642Y172229D01*
X148313D01*
Y173099D01*
D02*
G37*
G36*
X182470Y172024D02*
X180781D01*
Y170138D01*
X182470D01*
Y172024D01*
D02*
G37*
G36*
X110155Y170759D02*
X105215D01*
Y169672D01*
X103006D01*
Y170704D01*
X98065D01*
Y169644D01*
X94739D01*
X94274Y169552D01*
X93881Y169289D01*
X93881Y169289D01*
X90991Y166399D01*
X90728Y166005D01*
X90635Y165541D01*
X90635Y165541D01*
Y160241D01*
X90635Y160241D01*
X90728Y159777D01*
X90991Y159383D01*
X95475Y154899D01*
X95475Y154899D01*
X95869Y154636D01*
X96333Y154543D01*
X96333Y154543D01*
X105611D01*
X105655Y154470D01*
X105372Y153970D01*
X90202D01*
X90202Y153970D01*
X89738Y153878D01*
X89344Y153614D01*
X89344Y153614D01*
X61059Y125330D01*
X60796Y124936D01*
X60704Y124472D01*
X60704Y124472D01*
Y115128D01*
X60469Y114971D01*
X60206Y114577D01*
X60113Y114112D01*
Y107813D01*
X60206Y107348D01*
X60469Y106955D01*
X60862Y106692D01*
X61327Y106599D01*
X62508D01*
X62973Y106692D01*
X63366Y106955D01*
X63630Y107348D01*
X63722Y107813D01*
Y114112D01*
X63630Y114577D01*
X63366Y114971D01*
X63131Y115128D01*
Y123969D01*
X90705Y151542D01*
X117262D01*
X117262Y151542D01*
X117726Y151635D01*
X118120Y151898D01*
X118537Y152315D01*
X119055Y152418D01*
X119584Y152771D01*
X119938Y153301D01*
X120062Y153925D01*
X119938Y154549D01*
X119584Y155078D01*
X119055Y155432D01*
X118430Y155556D01*
X117806Y155432D01*
X117277Y155078D01*
X116923Y154549D01*
X116820Y154031D01*
X116759Y153970D01*
X109216D01*
X108949Y154470D01*
X109051Y154623D01*
X109175Y155248D01*
X109051Y155872D01*
X108697Y156401D01*
X108168Y156755D01*
X107544Y156879D01*
X107509Y156872D01*
X107499Y156879D01*
X107034Y156971D01*
X107034Y156971D01*
X96836D01*
X93063Y160744D01*
Y165038D01*
X95242Y167217D01*
X97712D01*
X98065Y166863D01*
X98065Y166227D01*
X97665Y165986D01*
X97665Y165916D01*
X97665Y165916D01*
Y164297D01*
X103406D01*
Y165916D01*
X103406Y165916D01*
Y165986D01*
X103006Y166227D01*
X103006Y166486D01*
Y167245D01*
X105215D01*
Y166213D01*
X110155D01*
Y170759D01*
D02*
G37*
G36*
X311320Y171228D02*
X309434D01*
Y169539D01*
X311320D01*
Y171228D01*
D02*
G37*
G36*
X307466D02*
X305580D01*
Y169539D01*
X307466D01*
Y171228D01*
D02*
G37*
G36*
X182470Y168170D02*
X180781D01*
Y166284D01*
X182470D01*
Y168170D01*
D02*
G37*
G36*
X299706Y178108D02*
X299081Y177984D01*
X298552Y177630D01*
X298198Y177101D01*
X298074Y176476D01*
X298198Y175852D01*
X298552Y175323D01*
X299081Y174969D01*
X299599Y174866D01*
X300086Y174379D01*
Y170773D01*
X298830D01*
Y166226D01*
X303770D01*
Y170773D01*
X302514D01*
Y174882D01*
X302422Y175346D01*
X302159Y175740D01*
X302159Y175740D01*
X301316Y176583D01*
X301213Y177101D01*
X300859Y177630D01*
X300330Y177984D01*
X299706Y178108D01*
D02*
G37*
G36*
X228668Y166042D02*
X226979D01*
Y164157D01*
X228668D01*
Y166042D01*
D02*
G37*
G36*
X262807Y162037D02*
X261136D01*
Y161167D01*
X261488D01*
X262040Y161276D01*
X262507Y161589D01*
X262807Y162037D01*
D02*
G37*
G36*
X259167D02*
X257497D01*
X257796Y161589D01*
X258263Y161276D01*
X258815Y161167D01*
X259167D01*
Y162037D01*
D02*
G37*
G36*
X103406Y162328D02*
X101520D01*
Y160639D01*
X103406D01*
Y162328D01*
D02*
G37*
G36*
X99551D02*
X97665D01*
Y160639D01*
X99551D01*
Y162328D01*
D02*
G37*
G36*
X228668Y162188D02*
X226979D01*
Y160302D01*
X228668D01*
Y162188D01*
D02*
G37*
G36*
X110155Y165641D02*
X105215D01*
Y161095D01*
X106471D01*
Y160292D01*
X106471Y160292D01*
X106564Y159827D01*
X106724Y159588D01*
X106825Y159081D01*
X107178Y158552D01*
X107708Y158198D01*
X108332Y158074D01*
X108956Y158198D01*
X109485Y158552D01*
X109839Y159081D01*
X109963Y159705D01*
X109839Y160330D01*
X109662Y160595D01*
X109929Y161095D01*
X110155D01*
Y165641D01*
D02*
G37*
G36*
X182470Y158516D02*
X180781D01*
Y156630D01*
X182470D01*
Y158516D01*
D02*
G37*
G36*
Y154662D02*
X180781D01*
Y152776D01*
X182470D01*
Y154662D01*
D02*
G37*
G36*
X271745Y153836D02*
X269761D01*
Y152049D01*
X271745D01*
Y153836D01*
D02*
G37*
G36*
X267792D02*
X265808D01*
Y152049D01*
X267792D01*
Y153836D01*
D02*
G37*
G36*
X241014Y135990D02*
X240251D01*
Y135227D01*
X240708Y135532D01*
X241014Y135990D01*
D02*
G37*
G36*
X228668Y136244D02*
X226979D01*
Y134358D01*
X228668D01*
Y136244D01*
D02*
G37*
G36*
X143471Y133927D02*
X141487D01*
Y132140D01*
X143471D01*
Y133927D01*
D02*
G37*
G36*
X139518D02*
X137534D01*
Y132140D01*
X139518D01*
Y133927D01*
D02*
G37*
G36*
X228668Y132389D02*
X226979D01*
Y130503D01*
X228668D01*
Y132389D01*
D02*
G37*
G36*
X150634Y129792D02*
X150282D01*
Y128922D01*
X151952D01*
X151653Y129370D01*
X151185Y129682D01*
X150634Y129792D01*
D02*
G37*
G36*
X148313D02*
X147961D01*
X147409Y129682D01*
X146942Y129370D01*
X146642Y128922D01*
X148313D01*
Y129792D01*
D02*
G37*
G36*
X182470Y128717D02*
X180781D01*
Y126831D01*
X182470D01*
Y128717D01*
D02*
G37*
G36*
X295189Y145274D02*
X294564Y145150D01*
X294035Y144796D01*
X293682Y144267D01*
X293557Y143642D01*
X293682Y143018D01*
X294035Y142489D01*
X294564Y142135D01*
X295189Y142011D01*
X295813Y142135D01*
X296252Y142429D01*
X335784D01*
X337874Y140338D01*
Y129273D01*
X337635Y128915D01*
X337511Y128291D01*
X337635Y127667D01*
X337988Y127138D01*
X338518Y126784D01*
X339142Y126660D01*
X339766Y126784D01*
X340295Y127138D01*
X340649Y127667D01*
X340773Y128291D01*
X340649Y128915D01*
X340301Y129436D01*
Y140841D01*
X340301Y140841D01*
X340209Y141306D01*
X339946Y141700D01*
X339946Y141700D01*
X337145Y144501D01*
X336751Y144764D01*
X336286Y144856D01*
X336286Y144856D01*
X296252D01*
X295813Y145150D01*
X295189Y145274D01*
D02*
G37*
G36*
X311320Y127921D02*
X309434D01*
Y126232D01*
X311320D01*
Y127921D01*
D02*
G37*
G36*
X307466D02*
X305580D01*
Y126232D01*
X307466D01*
Y127921D01*
D02*
G37*
G36*
X253461Y141118D02*
X252766Y140979D01*
X252177Y140586D01*
X251783Y139997D01*
X251645Y139302D01*
Y128353D01*
X251783Y127658D01*
X252177Y127069D01*
X252766Y126675D01*
X253461Y126537D01*
X253543Y126554D01*
X256123Y123974D01*
X256123Y123974D01*
X256517Y123711D01*
X256982Y123618D01*
X256982Y123618D01*
X257617D01*
X257885Y123118D01*
X257860Y123082D01*
X257782Y122687D01*
Y121860D01*
X257860Y121464D01*
X257797Y121147D01*
X257796Y121146D01*
X257497Y120698D01*
X260152D01*
X262921D01*
X263121Y121059D01*
X267563D01*
Y119200D01*
X266208D01*
X266208Y114526D01*
X265808Y114285D01*
X265808Y114215D01*
X265808Y114215D01*
Y112497D01*
X271745D01*
Y114215D01*
X271745Y114215D01*
Y114285D01*
X271345Y114526D01*
X271345Y114785D01*
Y119200D01*
X269990D01*
Y121578D01*
X269990Y121578D01*
X269898Y122042D01*
X269635Y122436D01*
X269635Y122436D01*
X268940Y123131D01*
X268546Y123395D01*
X268081Y123487D01*
X268081Y123487D01*
X262686D01*
X262419Y123987D01*
X262443Y124023D01*
X262522Y124419D01*
Y125245D01*
X262443Y125641D01*
X262219Y125976D01*
Y126247D01*
X262443Y126582D01*
X262522Y126978D01*
Y127805D01*
X262443Y128200D01*
X262219Y128535D01*
X261884Y128759D01*
X261488Y128838D01*
X261366D01*
Y132588D01*
X261568Y132891D01*
X261671Y133409D01*
X266021Y137758D01*
X326886D01*
X332253Y132392D01*
Y128787D01*
X331960Y128348D01*
X331835Y127724D01*
X331960Y127099D01*
X332313Y126570D01*
X332842Y126216D01*
X333467Y126092D01*
X334091Y126216D01*
X334620Y126570D01*
X334974Y127099D01*
X335098Y127724D01*
X334974Y128348D01*
X334681Y128787D01*
Y132894D01*
X334681Y132894D01*
X334588Y133359D01*
X334325Y133753D01*
X334325Y133753D01*
X328247Y139831D01*
X327853Y140094D01*
X327389Y140186D01*
X327389Y140186D01*
X265518D01*
X265053Y140094D01*
X264660Y139831D01*
X264659Y139831D01*
X259954Y135125D01*
X259436Y135022D01*
X258907Y134669D01*
X258554Y134139D01*
X258429Y133515D01*
X258554Y132891D01*
X258907Y132362D01*
X258938Y132341D01*
Y128838D01*
X258815D01*
X258420Y128759D01*
X258084Y128535D01*
X257860Y128200D01*
X257782Y127805D01*
Y126978D01*
X257797Y126902D01*
X257455Y126375D01*
X257433Y126363D01*
X257202Y126329D01*
X255260Y128270D01*
X255277Y128353D01*
Y139302D01*
X255138Y139997D01*
X254745Y140586D01*
X254156Y140979D01*
X253461Y141118D01*
D02*
G37*
G36*
X182470Y124863D02*
X180781D01*
Y122977D01*
X182470D01*
Y124863D01*
D02*
G37*
G36*
X298834Y135066D02*
X298209Y134942D01*
X297680Y134588D01*
X297326Y134059D01*
X297202Y133435D01*
X297326Y132811D01*
X297680Y132281D01*
X298209Y131928D01*
X298727Y131825D01*
X300086Y130465D01*
Y127465D01*
X298830D01*
Y122919D01*
X303770D01*
Y127465D01*
X302514D01*
Y130968D01*
X302514Y130968D01*
X302422Y131433D01*
X302159Y131826D01*
X302159Y131826D01*
X300444Y133541D01*
X300341Y134059D01*
X299987Y134588D01*
X299458Y134942D01*
X298834Y135066D01*
D02*
G37*
G36*
X228668Y122735D02*
X226979D01*
Y120850D01*
X228668D01*
Y122735D01*
D02*
G37*
G36*
X262807Y118730D02*
X261136D01*
Y117859D01*
X261488D01*
X262040Y117969D01*
X262507Y118282D01*
X262807Y118730D01*
D02*
G37*
G36*
X259167D02*
X257497D01*
X257796Y118282D01*
X258263Y117969D01*
X258815Y117859D01*
X259167D01*
Y118730D01*
D02*
G37*
G36*
X103406Y119021D02*
X101520D01*
Y117332D01*
X103406D01*
Y119021D01*
D02*
G37*
G36*
X99551D02*
X97665D01*
Y117332D01*
X99551D01*
Y119021D01*
D02*
G37*
G36*
X228668Y118881D02*
X226979D01*
Y116995D01*
X228668D01*
Y118881D01*
D02*
G37*
G36*
X110155Y122334D02*
X105215D01*
Y117788D01*
X106471D01*
Y116877D01*
X106471Y116877D01*
X106516Y116656D01*
X106476Y116455D01*
X106600Y115831D01*
X106954Y115302D01*
X107483Y114948D01*
X108107Y114824D01*
X108731Y114948D01*
X109261Y115302D01*
X109614Y115831D01*
X109738Y116455D01*
X109614Y117080D01*
X109475Y117288D01*
X109743Y117788D01*
X110155D01*
Y122334D01*
D02*
G37*
G36*
X182470Y115209D02*
X180781D01*
Y113323D01*
X182470D01*
Y115209D01*
D02*
G37*
G36*
X88121Y123851D02*
X88121Y123851D01*
X74476D01*
X74012Y123758D01*
X73618Y123495D01*
X73618Y123495D01*
X71059Y120936D01*
X70796Y120542D01*
X70704Y120078D01*
X70704Y120078D01*
Y115128D01*
X70469Y114971D01*
X70205Y114577D01*
X70113Y114112D01*
Y107813D01*
X70205Y107348D01*
X70469Y106955D01*
X70862Y106692D01*
X71327Y106599D01*
X72508D01*
X72973Y106692D01*
X73366Y106955D01*
X73629Y107348D01*
X73722Y107813D01*
Y114112D01*
X73629Y114577D01*
X73366Y114971D01*
X73131Y115128D01*
Y119575D01*
X74979Y121423D01*
X87619D01*
X98241Y110801D01*
X98634Y110538D01*
X99099Y110445D01*
X99099Y110445D01*
X107475D01*
X107913Y110152D01*
X108538Y110028D01*
X109162Y110152D01*
X109691Y110505D01*
X110045Y111035D01*
X110169Y111659D01*
X110045Y112283D01*
X109691Y112812D01*
X109162Y113166D01*
X108538Y113290D01*
X107913Y113166D01*
X107475Y112873D01*
X99602D01*
X88980Y123495D01*
X88586Y123758D01*
X88121Y123851D01*
D02*
G37*
G36*
X182470Y111354D02*
X180781D01*
Y109469D01*
X182470D01*
Y111354D01*
D02*
G37*
G36*
X82508Y115326D02*
X81327D01*
X80862Y115234D01*
X80469Y114971D01*
X80206Y114577D01*
X80113Y114112D01*
Y107813D01*
X80206Y107348D01*
X80469Y106955D01*
X80862Y106692D01*
X81327Y106599D01*
X82508D01*
X82973Y106692D01*
X83366Y106955D01*
X83630Y107348D01*
X83722Y107813D01*
Y109347D01*
X85097D01*
X85491Y109084D01*
X86115Y108960D01*
X86739Y109084D01*
X87269Y109438D01*
X87622Y109967D01*
X87746Y110591D01*
X87622Y111216D01*
X87269Y111745D01*
X87174Y111808D01*
X86877Y112105D01*
X86353Y112455D01*
X85735Y112578D01*
X83722D01*
Y114112D01*
X83630Y114577D01*
X83366Y114971D01*
X82973Y115234D01*
X82508Y115326D01*
D02*
G37*
G36*
X271745Y110529D02*
X269761D01*
Y108741D01*
X271745D01*
Y110529D01*
D02*
G37*
G36*
X267792D02*
X265808D01*
Y108741D01*
X267792D01*
Y110529D01*
D02*
G37*
G36*
X138722Y302852D02*
X138098Y302728D01*
X137569Y302374D01*
X137215Y301845D01*
X137112Y301327D01*
X114583Y278797D01*
X114320Y278404D01*
X114227Y277939D01*
X114227Y277939D01*
Y262451D01*
X76717Y224941D01*
X76454Y224547D01*
X76362Y224082D01*
X76362Y224082D01*
Y184550D01*
X41059Y149248D01*
X40796Y148854D01*
X40704Y148389D01*
X40704Y148389D01*
Y115128D01*
X40469Y114971D01*
X40205Y114577D01*
X40113Y114112D01*
Y107813D01*
X40205Y107348D01*
X40469Y106955D01*
X40862Y106692D01*
X41327Y106599D01*
X42508D01*
X42973Y106692D01*
X43366Y106955D01*
X43630Y107348D01*
X43722Y107813D01*
Y114112D01*
X43630Y114577D01*
X43366Y114971D01*
X43131Y115128D01*
Y147887D01*
X78434Y183189D01*
X78434Y183189D01*
X78697Y183583D01*
X78789Y184047D01*
X78789Y184047D01*
Y223580D01*
X116299Y261090D01*
X116299Y261090D01*
X116562Y261483D01*
X116655Y261948D01*
Y277436D01*
X138829Y299610D01*
X139347Y299713D01*
X139876Y300067D01*
X140229Y300596D01*
X140354Y301220D01*
X140229Y301845D01*
X139876Y302374D01*
X139347Y302728D01*
X138722Y302852D01*
D02*
G37*
G36*
X37508Y115326D02*
X36327D01*
X35862Y115234D01*
X35469Y114971D01*
X35206Y114577D01*
X35113Y114112D01*
Y107813D01*
X35206Y107348D01*
X35302Y107204D01*
Y103266D01*
X35425Y102648D01*
X35775Y102124D01*
X38043Y99856D01*
X38089Y99788D01*
X38618Y99434D01*
X39242Y99310D01*
X39867Y99434D01*
X40396Y99788D01*
X40750Y100317D01*
X40874Y100941D01*
X40750Y101565D01*
X40396Y102095D01*
X40328Y102140D01*
X38533Y103935D01*
Y107204D01*
X38629Y107348D01*
X38722Y107813D01*
Y114112D01*
X38629Y114577D01*
X38366Y114971D01*
X37973Y115234D01*
X37508Y115326D01*
D02*
G37*
G36*
X82902Y78254D02*
Y74545D01*
X84130D01*
Y76711D01*
X84006Y77331D01*
X83655Y77857D01*
X83129Y78209D01*
X82902Y78254D01*
D02*
G37*
G36*
X80933D02*
X80706Y78209D01*
X80180Y77857D01*
X79829Y77331D01*
X79705Y76711D01*
Y74545D01*
X80933D01*
Y78254D01*
D02*
G37*
G36*
X37902D02*
Y74545D01*
X39130D01*
Y76711D01*
X39006Y77331D01*
X38655Y77857D01*
X38129Y78209D01*
X37902Y78254D01*
D02*
G37*
G36*
X35933D02*
X35706Y78209D01*
X35180Y77857D01*
X34829Y77331D01*
X34705Y76711D01*
Y74545D01*
X35933D01*
Y78254D01*
D02*
G37*
G36*
X84130Y72577D02*
X82902D01*
Y68868D01*
X83129Y68913D01*
X83655Y69265D01*
X84006Y69791D01*
X84130Y70411D01*
Y72577D01*
D02*
G37*
G36*
X80933D02*
X79705D01*
Y70411D01*
X79829Y69791D01*
X80180Y69265D01*
X80706Y68913D01*
X80933Y68868D01*
Y72577D01*
D02*
G37*
G36*
X39130D02*
X37902D01*
Y68868D01*
X38129Y68913D01*
X38655Y69265D01*
X39006Y69791D01*
X39130Y70411D01*
Y72577D01*
D02*
G37*
G36*
X35933D02*
X34705D01*
Y70411D01*
X34829Y69791D01*
X35180Y69265D01*
X35706Y68913D01*
X35933Y68868D01*
Y72577D01*
D02*
G37*
G36*
X77508Y77924D02*
X76327D01*
X75862Y77832D01*
X75469Y77569D01*
X75205Y77175D01*
X75113Y76711D01*
Y70411D01*
X75205Y69947D01*
X75469Y69553D01*
X75704Y69396D01*
Y64387D01*
X73793D01*
X73793Y59942D01*
X73320Y59707D01*
X73131Y59896D01*
Y69396D01*
X73366Y69553D01*
X73629Y69947D01*
X73722Y70411D01*
Y76711D01*
X73629Y77175D01*
X73366Y77569D01*
X72973Y77832D01*
X72508Y77924D01*
X71327D01*
X70862Y77832D01*
X70469Y77569D01*
X70205Y77175D01*
X70113Y76711D01*
Y70411D01*
X70205Y69947D01*
X70469Y69553D01*
X70704Y69396D01*
Y52610D01*
X70704Y52610D01*
X70796Y52146D01*
X71059Y51752D01*
X72390Y50421D01*
X72784Y50158D01*
X73248Y50065D01*
X73249Y50065D01*
X74731D01*
X75048Y49748D01*
Y48838D01*
X73988D01*
Y43898D01*
X75048D01*
Y42099D01*
X75048Y42099D01*
X75140Y41635D01*
X75403Y41241D01*
X77368Y39276D01*
X77177Y38814D01*
X69405D01*
X65167Y43052D01*
Y43563D01*
X65503Y43898D01*
X66139Y43898D01*
X66380Y43498D01*
X66450Y43498D01*
X66450Y43498D01*
X68069D01*
Y46368D01*
Y49238D01*
X66450D01*
X66450Y49238D01*
X66380D01*
X66139Y48838D01*
X65880Y48838D01*
X65149D01*
Y50004D01*
X65149Y50004D01*
X65057Y50468D01*
X64793Y50862D01*
X64793Y50862D01*
X63131Y52524D01*
Y53774D01*
X63567Y53928D01*
X63631Y53928D01*
X65552D01*
Y56700D01*
X66536D01*
Y57684D01*
X69504D01*
Y59402D01*
X69504Y59402D01*
Y59472D01*
X69104Y59713D01*
X69104Y59972D01*
Y64387D01*
X68131D01*
Y69396D01*
X68366Y69553D01*
X68629Y69947D01*
X68722Y70411D01*
Y76711D01*
X68629Y77175D01*
X68366Y77569D01*
X67973Y77832D01*
X67508Y77924D01*
X66327D01*
X65862Y77832D01*
X65469Y77569D01*
X65206Y77175D01*
X65113Y76711D01*
Y70411D01*
X65206Y69947D01*
X65469Y69553D01*
X65704Y69396D01*
Y64387D01*
X63967D01*
X63967Y59733D01*
X63567Y59472D01*
X63131Y59659D01*
Y69396D01*
X63366Y69553D01*
X63630Y69947D01*
X63722Y70411D01*
Y76711D01*
X63630Y77175D01*
X63366Y77569D01*
X62973Y77832D01*
X62508Y77924D01*
X61327D01*
X60862Y77832D01*
X60469Y77569D01*
X60206Y77175D01*
X60113Y76711D01*
Y70411D01*
X60206Y69947D01*
X60469Y69553D01*
X60704Y69396D01*
Y52022D01*
X60704Y52022D01*
X60796Y51557D01*
X61059Y51163D01*
X62721Y49501D01*
Y48838D01*
X61662D01*
Y43898D01*
X62721D01*
Y42568D01*
X62721Y42567D01*
X62814Y42103D01*
X63077Y41709D01*
X67291Y37495D01*
X67100Y37033D01*
X58191D01*
X52823Y42401D01*
Y43544D01*
X53176Y43898D01*
X53812Y43898D01*
X54053Y43498D01*
X54123Y43498D01*
X54123Y43498D01*
X55743D01*
Y46368D01*
Y49238D01*
X54123D01*
X54123Y49238D01*
X54053D01*
X53812Y48838D01*
X53553Y48838D01*
X52977D01*
Y69293D01*
X53366Y69553D01*
X53629Y69947D01*
X53722Y70411D01*
Y76711D01*
X53629Y77175D01*
X53366Y77569D01*
X52973Y77832D01*
X52508Y77924D01*
X51327D01*
X50862Y77832D01*
X50469Y77569D01*
X50205Y77175D01*
X50113Y76711D01*
Y70411D01*
X50205Y69947D01*
X50469Y69553D01*
X50549Y69499D01*
Y48838D01*
X49335D01*
Y43898D01*
X50395D01*
Y41899D01*
X50395Y41899D01*
X50487Y41434D01*
X50750Y41040D01*
X56077Y35714D01*
X55885Y35252D01*
X46888D01*
X40496Y41644D01*
Y43544D01*
X40850Y43898D01*
X41486Y43898D01*
X41727Y43498D01*
X41797Y43498D01*
X41797Y43498D01*
X43416D01*
Y46368D01*
Y49238D01*
X41797D01*
X41797Y49238D01*
X41727D01*
X41486Y48838D01*
X41227Y48838D01*
X40496D01*
Y51429D01*
X42776Y53709D01*
X42776Y53709D01*
X43039Y54103D01*
X43131Y54568D01*
Y69396D01*
X43366Y69553D01*
X43630Y69947D01*
X43722Y70411D01*
Y76711D01*
X43630Y77175D01*
X43366Y77569D01*
X42973Y77832D01*
X42508Y77924D01*
X41327D01*
X40862Y77832D01*
X40469Y77569D01*
X40205Y77175D01*
X40113Y76711D01*
Y70411D01*
X40205Y69947D01*
X40469Y69553D01*
X40704Y69396D01*
Y55070D01*
X38424Y52791D01*
X38161Y52397D01*
X38068Y51932D01*
X38068Y51932D01*
Y48838D01*
X37009D01*
Y43898D01*
X38068D01*
Y41141D01*
X38068Y41141D01*
X38161Y40677D01*
X38424Y40283D01*
X45527Y33180D01*
X45921Y32916D01*
X46385Y32824D01*
X46385Y32824D01*
X110410D01*
X110650Y32584D01*
X110753Y32066D01*
X111107Y31537D01*
X111636Y31183D01*
X112260Y31059D01*
X112885Y31183D01*
X113414Y31537D01*
X113768Y32066D01*
X113892Y32690D01*
X113848Y32912D01*
X113938Y33369D01*
X114210Y33456D01*
X114569Y33527D01*
X115099Y33881D01*
X115452Y34410D01*
X115553Y34917D01*
X115898Y35073D01*
X115909Y35077D01*
X116060Y35096D01*
X116544Y34772D01*
X117168Y34648D01*
X117792Y34772D01*
X118322Y35126D01*
X118675Y35655D01*
X118761Y36086D01*
X119003Y36148D01*
X119281Y36138D01*
X119589Y35678D01*
X120118Y35324D01*
X120742Y35200D01*
X121367Y35324D01*
X121896Y35678D01*
X122250Y36207D01*
X122374Y36831D01*
X122250Y37456D01*
X121896Y37985D01*
X121367Y38339D01*
X120849Y38442D01*
X119051Y40240D01*
X118657Y40503D01*
X118193Y40595D01*
X118193Y40595D01*
X102401D01*
X102386Y40598D01*
X102370Y40595D01*
X79483D01*
X77476Y42602D01*
Y43544D01*
X77829Y43898D01*
X78465Y43898D01*
X78707Y43498D01*
X78776Y43498D01*
X78776Y43498D01*
X80396D01*
Y46368D01*
Y49238D01*
X78776D01*
X78776Y49238D01*
X78707D01*
X78465Y48838D01*
X78207Y48838D01*
X77476D01*
Y50251D01*
X77476Y50251D01*
X77383Y50716D01*
X77120Y51109D01*
X77120Y51109D01*
X76092Y52137D01*
X75698Y52401D01*
X75234Y52493D01*
X75234Y52493D01*
X73751D01*
X73131Y53113D01*
Y53537D01*
X73393Y53928D01*
X73631Y53928D01*
X75377D01*
Y56700D01*
X76361D01*
Y57684D01*
X79330D01*
Y59402D01*
X79330Y59402D01*
Y59472D01*
X78930Y59713D01*
X78930Y59972D01*
Y64387D01*
X78131D01*
Y69396D01*
X78366Y69553D01*
X78629Y69947D01*
X78722Y70411D01*
Y76711D01*
X78629Y77175D01*
X78366Y77569D01*
X77973Y77832D01*
X77508Y77924D01*
D02*
G37*
G36*
X57508D02*
X56327D01*
X55862Y77832D01*
X55469Y77569D01*
X55206Y77175D01*
X55113Y76711D01*
Y70411D01*
X55206Y69947D01*
X55469Y69553D01*
X55704Y69396D01*
Y64387D01*
X54142D01*
X54142Y59713D01*
X53742Y59472D01*
X53742Y59402D01*
X53742Y59402D01*
Y57684D01*
X59679D01*
Y59402D01*
X59679Y59402D01*
Y59472D01*
X59279Y59713D01*
X59279Y59972D01*
Y64387D01*
X58131D01*
Y69396D01*
X58366Y69553D01*
X58630Y69947D01*
X58722Y70411D01*
Y76711D01*
X58630Y77175D01*
X58366Y77569D01*
X57973Y77832D01*
X57508Y77924D01*
D02*
G37*
G36*
X47508D02*
X46327D01*
X45862Y77832D01*
X45469Y77569D01*
X45206Y77175D01*
X45113Y76711D01*
Y70411D01*
X45206Y69947D01*
X45469Y69553D01*
X45704Y69396D01*
Y64387D01*
X44316D01*
X44316Y59713D01*
X43916Y59472D01*
X43916Y59402D01*
X43916Y59402D01*
Y57684D01*
X49853D01*
Y59402D01*
X49853Y59402D01*
Y59472D01*
X49453Y59713D01*
X49453Y59972D01*
Y64387D01*
X48131D01*
Y69396D01*
X48366Y69553D01*
X48630Y69947D01*
X48722Y70411D01*
Y76711D01*
X48630Y77175D01*
X48366Y77569D01*
X47973Y77832D01*
X47508Y77924D01*
D02*
G37*
G36*
X79330Y55716D02*
X77346D01*
Y53928D01*
X79330D01*
Y55716D01*
D02*
G37*
G36*
X69504D02*
X67520D01*
Y53928D01*
X69504D01*
Y55716D01*
D02*
G37*
G36*
X59679D02*
X57695D01*
Y53928D01*
X59679D01*
Y55716D01*
D02*
G37*
G36*
X55726D02*
X53742D01*
Y53928D01*
X55726D01*
Y55716D01*
D02*
G37*
G36*
X49853D02*
X47869D01*
Y53928D01*
X49853D01*
Y55716D01*
D02*
G37*
G36*
X45900D02*
X43916D01*
Y53928D01*
X45900D01*
Y55716D01*
D02*
G37*
G36*
X333372Y48858D02*
X332748Y48734D01*
X332218Y48380D01*
X331865Y47851D01*
X331821Y47633D01*
X331279Y47469D01*
X331046Y47702D01*
X330652Y47965D01*
X330187Y48057D01*
X330187Y48057D01*
X329042D01*
X328603Y48351D01*
X327978Y48475D01*
X327354Y48351D01*
X326825Y47997D01*
X326471Y47468D01*
X326347Y46843D01*
X326471Y46219D01*
X326825Y45690D01*
X327354Y45336D01*
X327978Y45212D01*
X328603Y45336D01*
X329042Y45630D01*
X329684D01*
X335152Y40162D01*
X335152Y40162D01*
X335546Y39899D01*
X336010Y39806D01*
X336010Y39806D01*
X366274D01*
X366713Y39513D01*
X367337Y39389D01*
X367962Y39513D01*
X368491Y39867D01*
X368845Y40396D01*
X368969Y41020D01*
X368868Y41528D01*
X369091Y41848D01*
X369232Y41965D01*
X369238Y41964D01*
X369862Y42088D01*
X370391Y42442D01*
X370745Y42971D01*
X370869Y43595D01*
X370745Y44219D01*
X370391Y44749D01*
X369862Y45102D01*
X369238Y45226D01*
X368613Y45102D01*
X368174Y44809D01*
X337506D01*
X334982Y47333D01*
X334879Y47851D01*
X334525Y48380D01*
X333996Y48734D01*
X333372Y48858D01*
D02*
G37*
G36*
X84053Y49238D02*
X82364D01*
Y47352D01*
X84053D01*
Y49238D01*
D02*
G37*
G36*
X71727D02*
X70038D01*
Y47352D01*
X71727D01*
Y49238D01*
D02*
G37*
G36*
X59400D02*
X57711D01*
Y47352D01*
X59400D01*
Y49238D01*
D02*
G37*
G36*
X47074D02*
X45384D01*
Y47352D01*
X47074D01*
Y49238D01*
D02*
G37*
G36*
X84053Y45384D02*
X82364D01*
Y43498D01*
X84053D01*
Y45384D01*
D02*
G37*
G36*
X71727D02*
X70038D01*
Y43498D01*
X71727D01*
Y45384D01*
D02*
G37*
G36*
X59400D02*
X57711D01*
Y43498D01*
X59400D01*
Y45384D01*
D02*
G37*
G36*
X47074D02*
X45384D01*
Y43498D01*
X47074D01*
Y45384D01*
D02*
G37*
G36*
X303714Y52256D02*
X303089Y52132D01*
X302560Y51778D01*
X302206Y51249D01*
X302082Y50625D01*
X302206Y50000D01*
X302560Y49471D01*
X303089Y49117D01*
X303607Y49014D01*
X304151Y48470D01*
Y34122D01*
X303858Y33683D01*
X303734Y33058D01*
X303858Y32434D01*
X304212Y31905D01*
X304741Y31551D01*
X305365Y31427D01*
X305990Y31551D01*
X306519Y31905D01*
X306872Y32434D01*
X306996Y33058D01*
X306872Y33683D01*
X306579Y34122D01*
Y48973D01*
X306487Y49437D01*
X306224Y49831D01*
X306224Y49831D01*
X305324Y50731D01*
X305221Y51249D01*
X304867Y51778D01*
X304338Y52132D01*
X303714Y52256D01*
D02*
G37*
G36*
X378341Y31496D02*
X377565D01*
X376804Y31345D01*
X376088Y31048D01*
X375443Y30617D01*
X374895Y30069D01*
X374464Y29424D01*
X374167Y28707D01*
X374016Y27947D01*
Y27171D01*
X374167Y26411D01*
X374464Y25694D01*
X374895Y25049D01*
X375443Y24501D01*
X376088Y24070D01*
X376804Y23773D01*
X377565Y23622D01*
X378341D01*
X379101Y23773D01*
X379818Y24070D01*
X380462Y24501D01*
X381011Y25049D01*
X381442Y25694D01*
X381738Y26411D01*
X381890Y27171D01*
Y27947D01*
X381738Y28707D01*
X381442Y29424D01*
X381011Y30069D01*
X380462Y30617D01*
X379818Y31048D01*
X379101Y31345D01*
X378341Y31496D01*
D02*
G37*
G36*
X335033D02*
X334258D01*
X333497Y31345D01*
X332781Y31048D01*
X332136Y30617D01*
X331588Y30069D01*
X331157Y29424D01*
X330860Y28707D01*
X330709Y27947D01*
Y27171D01*
X330860Y26411D01*
X331157Y25694D01*
X331588Y25049D01*
X332136Y24501D01*
X332781Y24070D01*
X333497Y23773D01*
X334258Y23622D01*
X335033D01*
X335794Y23773D01*
X336510Y24070D01*
X337155Y24501D01*
X337704Y25049D01*
X338135Y25694D01*
X338431Y26411D01*
X338583Y27171D01*
Y27947D01*
X338431Y28707D01*
X338135Y29424D01*
X337704Y30069D01*
X337155Y30617D01*
X336510Y31048D01*
X335794Y31345D01*
X335033Y31496D01*
D02*
G37*
G36*
X285534Y24032D02*
Y21440D01*
X283565D01*
Y24032D01*
X283152Y23860D01*
X282573Y23416D01*
X282365Y23145D01*
X281734D01*
X281526Y23416D01*
X280947Y23860D01*
X280534Y24032D01*
Y21440D01*
X278565D01*
Y24032D01*
X278152Y23860D01*
X277573Y23416D01*
X277129Y22837D01*
X277106Y22783D01*
X276542Y22727D01*
X276259Y23149D01*
X275475Y23674D01*
X274550Y23858D01*
X273624Y23674D01*
X272840Y23149D01*
X272316Y22365D01*
X272305Y22309D01*
X271795D01*
X271784Y22365D01*
X271259Y23149D01*
X270475Y23674D01*
X269550Y23858D01*
X268624Y23674D01*
X267840Y23149D01*
X267316Y22365D01*
X267131Y21440D01*
X267316Y20514D01*
X267840Y19730D01*
X268624Y19206D01*
X268680Y19194D01*
Y18685D01*
X268624Y18674D01*
X267840Y18149D01*
X267316Y17365D01*
X267131Y16440D01*
X267316Y15514D01*
X267840Y14730D01*
X268624Y14206D01*
X269550Y14021D01*
X270475Y14206D01*
X271259Y14730D01*
X271784Y15514D01*
X271795Y15570D01*
X272305D01*
X272316Y15514D01*
X272840Y14730D01*
X272896Y14692D01*
Y12913D01*
X271645Y11662D01*
X264377D01*
X264040Y11998D01*
X264040Y11998D01*
X263901Y12138D01*
X264066Y12680D01*
X264257Y12718D01*
X264786Y13072D01*
X265140Y13601D01*
X265264Y14225D01*
X265140Y14850D01*
X264846Y15289D01*
Y17033D01*
X264754Y17497D01*
X264491Y17891D01*
X264491Y17891D01*
X263206Y19176D01*
X263103Y19694D01*
X262749Y20223D01*
X262220Y20577D01*
X261595Y20701D01*
X260971Y20577D01*
X260442Y20223D01*
X260088Y19694D01*
X259964Y19070D01*
X260088Y18446D01*
X260442Y17917D01*
X260971Y17563D01*
X261489Y17460D01*
X262419Y16530D01*
Y15289D01*
X262125Y14850D01*
X262001Y14225D01*
X262125Y13601D01*
X262168Y13536D01*
X261901Y13036D01*
X257193D01*
X256754Y13330D01*
X256130Y13454D01*
X255505Y13330D01*
X254976Y12976D01*
X254622Y12447D01*
X254498Y11823D01*
X254622Y11198D01*
X254976Y10669D01*
X255505Y10316D01*
X256130Y10191D01*
X256754Y10316D01*
X257193Y10609D01*
X261997D01*
X262324Y10282D01*
X262324Y10282D01*
X262324Y10282D01*
X263016Y9590D01*
X263016Y9590D01*
X263410Y9327D01*
X263874Y9234D01*
X272148D01*
X272148Y9234D01*
X272612Y9327D01*
X273006Y9590D01*
X274969Y11552D01*
X274969Y11552D01*
X275232Y11946D01*
X275324Y12410D01*
Y14175D01*
X275475Y14206D01*
X276259Y14730D01*
X276784Y15514D01*
X276795Y15570D01*
X277305D01*
X277316Y15514D01*
X277650Y15014D01*
X277561Y14567D01*
X277561Y14567D01*
Y6611D01*
X277344Y6466D01*
X276990Y5937D01*
X276866Y5312D01*
X276990Y4688D01*
X277344Y4159D01*
X277873Y3805D01*
X278497Y3681D01*
X279122Y3805D01*
X279651Y4159D01*
X280005Y4688D01*
X280129Y5312D01*
X280005Y5937D01*
X279957Y6008D01*
X279989Y6169D01*
Y9927D01*
X280488Y10078D01*
X280527Y10021D01*
X281056Y9667D01*
X281680Y9543D01*
X282305Y9667D01*
X282744Y9960D01*
X287617D01*
X287617Y9960D01*
X288081Y10053D01*
X288475Y10316D01*
X290197Y12038D01*
X290460Y12432D01*
X290552Y12896D01*
X290552Y12896D01*
Y14257D01*
X291260Y14730D01*
X291784Y15514D01*
X291968Y16440D01*
X291784Y17365D01*
X291260Y18149D01*
X290633Y18568D01*
X290785Y19068D01*
X291921D01*
Y23811D01*
X287178D01*
Y23389D01*
X286678Y23219D01*
X286526Y23416D01*
X285947Y23860D01*
X285534Y24032D01*
D02*
G37*
G36*
X366917Y27559D02*
X365366D01*
X363845Y27257D01*
X362412Y26663D01*
X361122Y25801D01*
X360026Y24704D01*
X359164Y23415D01*
X358570Y21982D01*
X358268Y20461D01*
Y18910D01*
X358570Y17388D01*
X359164Y15955D01*
X360026Y14666D01*
X361122Y13569D01*
X362412Y12707D01*
X363845Y12114D01*
X365366Y11811D01*
X366917D01*
X368439Y12114D01*
X369871Y12707D01*
X371161Y13569D01*
X372258Y14666D01*
X373120Y15955D01*
X373713Y17388D01*
X374016Y18910D01*
Y20461D01*
X373713Y21982D01*
X373120Y23415D01*
X372258Y24704D01*
X371161Y25801D01*
X369871Y26663D01*
X368439Y27257D01*
X366917Y27559D01*
D02*
G37*
G36*
X347232D02*
X345681D01*
X344160Y27257D01*
X342727Y26663D01*
X341437Y25801D01*
X340340Y24704D01*
X339479Y23415D01*
X338885Y21982D01*
X338583Y20461D01*
Y18910D01*
X338885Y17388D01*
X339479Y15955D01*
X340340Y14666D01*
X341437Y13569D01*
X342727Y12707D01*
X344160Y12114D01*
X345681Y11811D01*
X347232D01*
X348753Y12114D01*
X350186Y12707D01*
X351476Y13569D01*
X352573Y14666D01*
X353434Y15955D01*
X354028Y17388D01*
X354331Y18910D01*
Y20461D01*
X354028Y21982D01*
X353434Y23415D01*
X352573Y24704D01*
X351476Y25801D01*
X350186Y26663D01*
X348753Y27257D01*
X347232Y27559D01*
D02*
G37*
%LPD*%
G36*
X251454Y209615D02*
Y191847D01*
X251592Y191151D01*
X251986Y190562D01*
X252002Y190546D01*
X251933Y190236D01*
X251812Y190046D01*
X220741D01*
X220741Y190046D01*
X220276Y189953D01*
X219882Y189690D01*
X211807Y181615D01*
X211345Y181806D01*
Y191991D01*
X217866Y198511D01*
X227379D01*
Y197255D01*
X228438D01*
Y194835D01*
X228438Y194835D01*
X228531Y194370D01*
X228794Y193976D01*
X230080Y192690D01*
X230081Y192690D01*
X230474Y192426D01*
X230939Y192334D01*
X240424D01*
X240424Y192334D01*
X240888Y192426D01*
X241282Y192690D01*
X244431Y195839D01*
X244431Y195839D01*
X244694Y196232D01*
X244787Y196697D01*
X244787Y196697D01*
Y204882D01*
X244910D01*
X245305Y204960D01*
X245640Y205184D01*
X245694Y205265D01*
X246508D01*
X246508Y205265D01*
X246972Y205357D01*
X247366Y205620D01*
X250610Y208864D01*
X250610Y208864D01*
X250873Y209258D01*
X250954Y209664D01*
X251454Y209615D01*
D02*
G37*
G36*
X196450Y155764D02*
Y137299D01*
X195988Y137107D01*
X188098Y144997D01*
X187704Y145261D01*
X187240Y145353D01*
X187240Y145353D01*
X161500D01*
X161061Y145646D01*
X160436Y145771D01*
X159812Y145646D01*
X159371Y145351D01*
X159049Y145452D01*
X158871Y145573D01*
Y151303D01*
X159371Y151510D01*
X163063Y147818D01*
X163063Y147818D01*
X163457Y147555D01*
X163921Y147462D01*
X163921Y147462D01*
X182895D01*
X182895Y147462D01*
X183360Y147555D01*
X183754Y147818D01*
X185975Y150039D01*
X185975Y150039D01*
X186239Y150433D01*
X186331Y150898D01*
X186331Y150898D01*
Y161897D01*
X187169Y162735D01*
X189479D01*
X196450Y155764D01*
D02*
G37*
G36*
X155239Y146040D02*
X154739Y145769D01*
X154326Y145851D01*
X153040Y147138D01*
X152646Y147401D01*
X152181Y147493D01*
X152181Y147493D01*
X145119D01*
X145070Y147993D01*
X145357Y148050D01*
X145751Y148313D01*
X150155Y152718D01*
X150155Y152718D01*
X150419Y153112D01*
X150511Y153577D01*
Y159512D01*
X150804Y159951D01*
X150929Y160575D01*
X150804Y161200D01*
X150523Y161621D01*
X150621Y162121D01*
X150634D01*
X151029Y162200D01*
X151364Y162424D01*
X151588Y162759D01*
X151667Y163154D01*
Y163981D01*
X151588Y164376D01*
X151564Y164413D01*
X151831Y164913D01*
X155239D01*
Y146040D01*
D02*
G37*
D11*
X253460Y149144D02*
Y167701D01*
X253461Y128353D02*
Y139302D01*
X231651Y266537D02*
X247075D01*
X228851D02*
X231651D01*
X253270Y211129D02*
Y221175D01*
Y191847D02*
Y211129D01*
X253460Y167701D02*
Y186018D01*
X253270Y191847D02*
X253365Y191751D01*
X253270Y221175D02*
X257854Y225760D01*
Y255758D01*
X247075Y266537D02*
X257854Y255758D01*
X225357Y270031D02*
X228851Y266537D01*
X170123Y270031D02*
X225357D01*
X165615Y265523D02*
X170123Y270031D01*
X153901Y265523D02*
X165615D01*
X134684Y93200D02*
X157055Y115570D01*
Y122958D01*
Y165438D01*
Y182411D01*
Y209302D02*
Y221239D01*
Y190601D02*
Y209302D01*
X131421Y257189D02*
X139754Y265523D01*
X153901D01*
X131421Y235196D02*
Y257189D01*
Y235196D02*
X136731Y229886D01*
X148408D01*
X157055Y221239D01*
X156903Y182562D02*
X157055Y182411D01*
D15*
X81918Y73561D02*
D03*
X76917D02*
D03*
X71917D02*
D03*
X66918D02*
D03*
X61918D02*
D03*
X56918D02*
D03*
X51917D02*
D03*
X46918D02*
D03*
X41917D02*
D03*
X36917D02*
D03*
X81918Y110962D02*
D03*
X76917D02*
D03*
X71917D02*
D03*
X66918D02*
D03*
X61918D02*
D03*
X56918D02*
D03*
X51917D02*
D03*
X46918D02*
D03*
X41917D02*
D03*
X36917D02*
D03*
D19*
X301300Y125192D02*
D03*
Y120074D02*
D03*
X308450Y120130D02*
D03*
Y125248D02*
D03*
Y163437D02*
D03*
Y168555D02*
D03*
X301300Y168499D02*
D03*
Y163381D02*
D03*
Y211806D02*
D03*
Y206688D02*
D03*
X308450Y206744D02*
D03*
Y211862D02*
D03*
X223271Y247147D02*
D03*
Y242029D02*
D03*
X230634Y242029D02*
D03*
Y247147D02*
D03*
X237997Y247147D02*
D03*
Y242029D02*
D03*
X245360Y242029D02*
D03*
Y247147D02*
D03*
X157413Y242029D02*
D03*
Y247147D02*
D03*
X150314Y247147D02*
D03*
Y242029D02*
D03*
X164512Y247147D02*
D03*
Y242029D02*
D03*
X107685Y206675D02*
D03*
Y211793D02*
D03*
X100536Y211738D02*
D03*
Y206620D02*
D03*
Y168431D02*
D03*
Y163313D02*
D03*
X107685Y163368D02*
D03*
Y168486D02*
D03*
X100536Y125124D02*
D03*
Y120006D02*
D03*
X107685Y125179D02*
D03*
Y120061D02*
D03*
X143215Y247147D02*
D03*
Y242029D02*
D03*
D20*
X268776Y116828D02*
D03*
Y111513D02*
D03*
Y160135D02*
D03*
Y154820D02*
D03*
X140503Y212455D02*
D03*
Y217769D02*
D03*
Y169147D02*
D03*
Y174462D02*
D03*
Y125840D02*
D03*
Y131155D02*
D03*
X46885Y62015D02*
D03*
Y56700D02*
D03*
X56710Y62015D02*
D03*
Y56700D02*
D03*
X66536Y62015D02*
D03*
Y56700D02*
D03*
X76361Y62015D02*
D03*
Y56700D02*
D03*
X268700Y201916D02*
D03*
Y207230D02*
D03*
D21*
X237644Y280997D02*
D03*
X242959D02*
D03*
X159325Y280213D02*
D03*
X164640D02*
D03*
D22*
X234770Y133374D02*
D03*
X229652D02*
D03*
X229652Y126619D02*
D03*
X234770D02*
D03*
X234770Y119865D02*
D03*
X229652D02*
D03*
X229652Y113111D02*
D03*
X234770D02*
D03*
X234770Y176681D02*
D03*
X229652D02*
D03*
X229652Y169927D02*
D03*
X234770D02*
D03*
X234770Y163172D02*
D03*
X229652D02*
D03*
X229652Y156418D02*
D03*
X234770D02*
D03*
X229652Y199725D02*
D03*
X234770D02*
D03*
X234770Y206479D02*
D03*
X229652D02*
D03*
X229652Y213234D02*
D03*
X234770D02*
D03*
X234770Y219988D02*
D03*
X229652D02*
D03*
X226642Y304007D02*
D03*
X221524D02*
D03*
X221524Y296298D02*
D03*
X226642D02*
D03*
X168918Y303588D02*
D03*
X163800D02*
D03*
X163815Y296362D02*
D03*
X168933D02*
D03*
X174679Y198953D02*
D03*
X179797D02*
D03*
X179797Y205707D02*
D03*
X174679D02*
D03*
X174679Y212461D02*
D03*
X179797D02*
D03*
X179797Y219215D02*
D03*
X174679D02*
D03*
X179797Y175908D02*
D03*
X174679D02*
D03*
X174679Y169154D02*
D03*
X179797D02*
D03*
X179797Y162400D02*
D03*
X174679D02*
D03*
X174679Y155646D02*
D03*
X179797D02*
D03*
X174679Y112339D02*
D03*
X179797D02*
D03*
X179797Y119093D02*
D03*
X174679D02*
D03*
X179797Y132601D02*
D03*
X174679D02*
D03*
X174679Y125847D02*
D03*
X179797D02*
D03*
X39282Y46368D02*
D03*
X44400D02*
D03*
X51609D02*
D03*
X56727D02*
D03*
X63935D02*
D03*
X69053D02*
D03*
X76262D02*
D03*
X81380D02*
D03*
D53*
X253461Y128353D02*
X256982Y124832D01*
X260152D01*
X239267Y136974D02*
X239267Y136975D01*
X239289D01*
X159013Y108020D02*
X165366D01*
X168728Y104658D01*
X234770Y199725D02*
X234770Y199725D01*
X234770Y199725D02*
Y206479D01*
X252265Y242605D02*
Y252199D01*
X250883Y253581D02*
X252265Y252199D01*
X222081Y232429D02*
X242088D01*
X252265Y242605D01*
X204788Y90819D02*
Y231975D01*
X172571Y264193D02*
X204788Y231975D01*
X236658Y358266D02*
X289103D01*
X230315Y350394D02*
Y351922D01*
X236658Y358266D01*
X218504Y350394D02*
X219803Y351693D01*
Y354845D01*
X206693Y350394D02*
Y351954D01*
X194882Y350394D02*
Y352102D01*
X183071Y350394D02*
Y352184D01*
X179651Y355604D02*
X183071Y352184D01*
X179651Y355604D02*
Y355962D01*
X171260Y350394D02*
Y351437D01*
X152702Y357740D02*
X164957D01*
X171260Y351437D01*
X152702Y360340D02*
X175274D01*
X179651Y355962D01*
X152702Y362940D02*
X184044D01*
X194882Y352102D01*
X152702Y365540D02*
X193107D01*
X206693Y351954D01*
X94296Y365384D02*
X95761Y363918D01*
X150583D02*
X151795Y365131D01*
X152071D01*
X95761Y363918D02*
X150583D01*
X152481Y365540D02*
X152702D01*
X93798Y365384D02*
X94296D01*
X152071Y365131D02*
X152481Y365540D01*
X93642D02*
X93798Y365384D01*
X152481Y362940D02*
X152702D01*
X151795Y362531D02*
X152071D01*
X93798Y362784D02*
X94296D01*
X151402Y362137D02*
X151795Y362531D01*
X93642Y362940D02*
X93798Y362784D01*
X94942Y362137D02*
X151402D01*
X152071Y362531D02*
X152481Y362940D01*
X94296Y362784D02*
X94942Y362137D01*
X152048Y357897D02*
X152546D01*
X94273Y358150D02*
X94549D01*
X94832Y358433D01*
X93642Y357740D02*
X93863D01*
X94273Y358150D01*
X94832Y358433D02*
X151512D01*
X152048Y357897D01*
X152546D02*
X152702Y357740D01*
X93642Y360340D02*
X152702D01*
X46385Y34038D02*
X110913D01*
X112260Y32690D01*
X57688Y35819D02*
X113160D01*
X113945Y35034D01*
X115847Y37600D02*
X117168Y36279D01*
X102383Y39381D02*
X118193D01*
X120742Y36831D01*
X305365Y33058D02*
Y48973D01*
X303714Y50625D02*
X305365Y48973D01*
X279098Y15988D02*
X279550Y16440D01*
X279098Y14889D02*
Y15988D01*
X278775Y14567D02*
X279098Y14889D01*
X278775Y6169D02*
Y14567D01*
X278654Y6048D02*
X278775Y6169D01*
X278654Y5469D02*
Y6048D01*
X278497Y5312D02*
X278654Y5469D01*
X333372Y47226D02*
X337003Y43595D01*
X369238D01*
X274110Y16000D02*
X274550Y16440D01*
X263182Y11140D02*
X263182D01*
X256130Y11823D02*
X262499D01*
X274110Y12410D02*
Y16000D01*
X263874Y10448D02*
X272148D01*
X274110Y12410D01*
X263182Y11140D02*
X263874Y10448D01*
X262499Y11823D02*
X263182Y11140D01*
X287617Y11174D02*
X289338Y12896D01*
Y16228D01*
X281680Y11174D02*
X287617D01*
X289338Y16228D02*
X289550Y16440D01*
X261595Y19070D02*
X263632Y17033D01*
Y14225D02*
Y17033D01*
X327978Y46843D02*
X330187D01*
X336010Y41020D01*
X367337D01*
X358360Y128752D02*
Y188418D01*
X314802Y231977D02*
X358360Y188418D01*
X291629Y231977D02*
X314802D01*
X229634Y234210D02*
X232078Y236654D01*
X221343Y234210D02*
X229634D01*
X206569Y219436D02*
X221343Y234210D01*
X206569Y89503D02*
Y219436D01*
X209138Y76786D02*
Y78319D01*
X207408Y75056D02*
X209138Y76786D01*
X207408Y74834D02*
Y75056D01*
X207357Y79057D02*
X213694Y85394D01*
X207357Y78669D02*
Y79057D01*
X206726Y78038D02*
X207357Y78669D01*
X206726Y77816D02*
Y78038D01*
X290469Y356900D02*
X290691D01*
X289103Y358266D02*
X290469Y356900D01*
X226935Y361977D02*
X292253D01*
X219803Y354845D02*
X226935Y361977D01*
X214666Y78809D02*
X219037Y83180D01*
X214666Y78230D02*
Y78809D01*
X219037Y83180D02*
Y102158D01*
X203318Y77537D02*
X211913Y86131D01*
X211212Y76895D02*
X211329Y76779D01*
X211212Y76895D02*
Y77874D01*
X217256Y83918D02*
Y109751D01*
X211212Y77874D02*
X217256Y83918D01*
X215475Y84656D02*
Y138508D01*
X209138Y78319D02*
X215475Y84656D01*
X211913Y86131D02*
Y180003D01*
X196028Y82060D02*
X204788Y90819D01*
X182585Y72423D02*
X203007Y92845D01*
X180804Y73161D02*
X201226Y93583D01*
X179023Y73899D02*
X199445Y94321D01*
X177242Y74636D02*
X197664Y95059D01*
X175461Y75374D02*
X195883Y95796D01*
X173679Y76112D02*
X194102Y96534D01*
X171489Y76440D02*
X192321Y97272D01*
X203007Y92845D02*
Y221182D01*
X201226Y93583D02*
Y181102D01*
X199445Y94321D02*
Y174420D01*
X197664Y95059D02*
Y156267D01*
X195883Y95796D02*
Y135496D01*
X194102Y96534D02*
Y106157D01*
X192321Y97272D02*
Y102757D01*
X190419Y104658D02*
X192321Y102757D01*
X168728Y104658D02*
X190419D01*
X171489Y60379D02*
Y76440D01*
X191040Y109218D02*
X194102Y106157D01*
X187476Y109218D02*
X191040D01*
X173679Y59471D02*
Y76112D01*
X175461Y58734D02*
Y75374D01*
X177242Y57996D02*
Y74636D01*
X179023Y57258D02*
Y73899D01*
X180804Y56520D02*
Y73161D01*
X182585Y55783D02*
Y72423D01*
X206036Y83932D02*
X210132Y88027D01*
X206036Y83353D02*
Y83932D01*
X202173Y82587D02*
X208350Y88765D01*
X202173Y82008D02*
Y82587D01*
X198837Y81770D02*
X206569Y89503D01*
X187240Y144139D02*
X195883Y135496D01*
X189982Y163949D02*
X197664Y156267D01*
X186666Y163949D02*
X189982D01*
X185117Y162400D02*
X186666Y163949D01*
X187561Y186304D02*
X199445Y174420D01*
X188990Y193339D02*
X201226Y181102D01*
X185949Y193339D02*
X188990D01*
X175696Y48894D02*
X182585Y55783D01*
X173336Y48894D02*
X175696D01*
X171854Y47412D02*
X173336Y48894D01*
X174959Y50675D02*
X180804Y56520D01*
X163753Y49542D02*
X165601D01*
X166211Y48932D01*
X163596Y49698D02*
X163753Y49542D01*
X166211Y48932D02*
X170276D01*
X172019Y50675D01*
X174959D01*
X168448Y52456D02*
X174221D01*
X167118Y51127D02*
X168448Y52456D01*
X167118Y51122D02*
Y51127D01*
X174221Y52456D02*
X179023Y57258D01*
X170383Y58387D02*
X170581Y58188D01*
X169027Y58544D02*
X169183Y58387D01*
X172396Y58188D02*
X173679Y59471D01*
X170581Y58188D02*
X172396D01*
X169183Y58387D02*
X170383D01*
X164952Y53292D02*
Y53513D01*
X165298Y53859D01*
Y53914D01*
X165621Y54237D01*
X173483D02*
X177242Y57996D01*
X165621Y54237D02*
X173483D01*
X165692Y58567D02*
X168240Y56019D01*
X172745D01*
X175461Y58734D01*
X220439Y103559D02*
X295040D01*
X219037Y102158D02*
X220439Y103559D01*
X217256Y109751D02*
X220616Y113111D01*
X229652D01*
X215475Y138508D02*
X221483Y144516D01*
X213694Y150478D02*
X219634Y156418D01*
X213694Y85394D02*
Y150478D01*
X211913Y180003D02*
X220741Y188832D01*
X295040Y103559D02*
X301300Y109820D01*
X39282Y41141D02*
X46385Y34038D01*
X39282Y41141D02*
Y46368D01*
X51609Y41899D02*
X57688Y35819D01*
X51609Y41899D02*
Y46368D01*
X63935Y42567D02*
X68902Y37600D01*
X115847D01*
X63935Y42567D02*
Y46368D01*
X78980Y39381D02*
X102383D01*
X102386Y39384D01*
X76262Y42099D02*
Y46368D01*
Y42099D02*
X78980Y39381D01*
X165876Y159509D02*
Y163568D01*
Y159509D02*
X166529Y158856D01*
X210132Y192493D02*
X217363Y199725D01*
X210132Y88027D02*
Y192493D01*
X180774Y243415D02*
X203007Y221182D01*
X208350Y88765D02*
Y218698D01*
X98484Y107042D02*
X142989D01*
X149305Y113359D02*
Y115173D01*
X142989Y107042D02*
X149305Y113359D01*
X219634Y156418D02*
X229652D01*
X165667Y127729D02*
X165876Y127938D01*
X162412Y127729D02*
X165667D01*
X160917Y116462D02*
Y126234D01*
X162412Y127729D01*
X160917Y116462D02*
X170057Y107321D01*
X171150D01*
X171207Y107264D02*
X185521D01*
X171150Y107321D02*
X171207Y107264D01*
X187476Y109218D02*
Y116749D01*
X185521Y107264D02*
X187476Y109218D01*
X179797Y119093D02*
X185132D01*
X187476Y116749D01*
X115850Y109514D02*
X140961D01*
X141113Y109666D01*
X114636Y110728D02*
X115850Y109514D01*
X114636Y110728D02*
Y123018D01*
X107685Y125179D02*
X112475D01*
X114636Y123018D01*
X107685Y116877D02*
Y120061D01*
Y116877D02*
X108107Y116455D01*
X160436Y144139D02*
X187240D01*
X108461Y146279D02*
X152181D01*
X154220Y144241D01*
X107034Y155757D02*
X107544Y155248D01*
X96333Y155757D02*
X107034D01*
X91849Y160241D02*
X96333Y155757D01*
X91849Y160241D02*
Y165541D01*
X94739Y168431D01*
X100536D01*
X160017Y168090D02*
X163172Y171245D01*
X165876D01*
X160017Y152580D02*
Y168090D01*
X163921Y148676D02*
X182895D01*
X160017Y152580D02*
X163921Y148676D01*
X182895D02*
X185117Y150898D01*
Y162400D01*
X168933Y290934D02*
Y296362D01*
Y290934D02*
X174521Y285346D01*
Y273081D02*
Y285346D01*
X168926Y296370D02*
X168933Y296362D01*
X208350Y218698D02*
X222081Y232429D01*
X252673Y289596D02*
X264541Y277728D01*
X264624D01*
X224923Y289596D02*
X252673D01*
X221524Y292996D02*
X224923Y289596D01*
X221524Y292996D02*
Y296298D01*
X231156Y267032D02*
Y273120D01*
Y267032D02*
X231651Y266537D01*
X253587Y211446D02*
X260152D01*
X253270Y211129D02*
X253587Y211446D01*
X253898Y168139D02*
X260152D01*
X253460Y167701D02*
X253898Y168139D01*
X229489Y282656D02*
X233295Y286462D01*
X228597Y273120D02*
X228833Y273357D01*
Y275686D01*
X229489Y276342D01*
Y276564D01*
Y282656D01*
X233295Y286462D02*
X250039D01*
X149297Y122820D02*
X156917D01*
X157055Y122958D01*
X149297Y166127D02*
X156366D01*
X157055Y165438D01*
X149297Y209434D02*
X156923D01*
X157055Y209302D01*
X154558Y266180D02*
Y273120D01*
X153901Y265523D02*
X154558Y266180D01*
X368414Y128848D02*
Y195668D01*
Y128848D02*
X368594Y128668D01*
X345543Y218540D02*
X368414Y195668D01*
X343004Y213808D02*
X363542Y193269D01*
Y128533D02*
Y193269D01*
X339937Y204143D02*
X353274Y190805D01*
Y128798D02*
Y190805D01*
X348348Y128733D02*
Y151953D01*
X343744Y128795D02*
X344627Y129678D01*
X339088Y128346D02*
X339142Y128291D01*
X339088Y128346D02*
Y140841D01*
X333467Y127724D02*
Y132894D01*
X265518Y138972D02*
X327389D01*
X333467Y132894D01*
X77575Y224082D02*
X115441Y261948D01*
Y277939D01*
X77575Y184047D02*
Y224082D01*
X41917Y148389D02*
X77575Y184047D01*
X41917Y110962D02*
Y148389D01*
X136152Y272638D02*
X144014D01*
X84028Y220514D02*
X136152Y272638D01*
X84028Y180554D02*
Y220514D01*
X46918Y143443D02*
X84028Y180554D01*
X46918Y110962D02*
Y143443D01*
X51917Y110962D02*
Y140769D01*
X102654Y191505D01*
X116127D01*
X107836Y187507D02*
X141890D01*
X143369Y188987D01*
X56918Y136589D02*
X107836Y187507D01*
X56918Y110962D02*
Y136589D01*
X90202Y152756D02*
X117262D01*
X118430Y153925D01*
X61918Y124472D02*
X90202Y152756D01*
X61918Y110962D02*
Y124472D01*
X149297Y160575D02*
Y163568D01*
Y153577D02*
Y160575D01*
X144892Y149172D02*
X149297Y153577D01*
X94301Y149172D02*
X144892D01*
X66918Y121788D02*
X94301Y149172D01*
X66918Y110962D02*
Y121788D01*
X71917Y110962D02*
Y120078D01*
X74476Y122637D02*
X88121D01*
X71917Y120078D02*
X74476Y122637D01*
X88121D02*
X99099Y111659D01*
X108538D01*
X78478Y119456D02*
X86070D01*
X98484Y107042D01*
X76917Y110962D02*
Y117896D01*
X78478Y119456D01*
X260061Y133515D02*
X265518Y138972D01*
X295189Y143642D02*
X336286D01*
X339088Y140841D01*
X344627Y129678D02*
Y148339D01*
X263788Y181416D02*
X311550D01*
X344627Y148339D01*
X259445Y177073D02*
X263788Y181416D01*
X291854Y184317D02*
X315985D01*
X348348Y151953D01*
X345543Y218540D02*
X345611D01*
X250279Y308690D02*
X290650Y268319D01*
X295764D01*
X345543Y218540D01*
X320249Y236562D02*
X343004Y213808D01*
X343090D01*
X299938Y236562D02*
X320249D01*
X316527Y227553D02*
X339937Y204143D01*
X340117D01*
X260114Y220555D02*
X267111Y227553D01*
X316527D01*
X260152Y127391D02*
Y133424D01*
X260061Y133515D02*
X260152Y133424D01*
X243573Y127391D02*
Y130843D01*
X242832Y131584D02*
X243573Y130843D01*
Y119714D02*
X246435D01*
X248913Y122192D01*
Y136926D01*
X245908Y139931D02*
X248913Y136926D01*
X226036Y139931D02*
X245908D01*
X221916Y135811D02*
X226036Y139931D01*
X221916Y129792D02*
Y135811D01*
Y129792D02*
X224842Y126866D01*
X301300Y109820D02*
Y120074D01*
Y125192D02*
Y130968D01*
X298834Y133435D02*
X301300Y130968D01*
X243573Y163021D02*
X243616Y163065D01*
X246681D01*
X249559Y165943D01*
X245025Y183249D02*
X249559Y178716D01*
Y165943D02*
Y178716D01*
X224667Y183249D02*
X245025D01*
X220133Y178715D02*
X224667Y183249D01*
X220133Y173529D02*
Y178715D01*
Y173529D02*
X223735Y169927D01*
X287940Y144516D02*
X301300Y157876D01*
X221483Y144516D02*
X287940D01*
X301300Y157876D02*
Y163381D01*
Y168499D02*
Y174882D01*
X299706Y176476D02*
X301300Y174882D01*
X259643Y176914D02*
X260152Y176405D01*
X259484Y177073D02*
X259643Y176914D01*
X259445Y177073D02*
X259484D01*
X260152Y170698D02*
Y176405D01*
X243573Y170698D02*
Y173444D01*
X243336Y173681D02*
X243573Y173444D01*
X150225Y186304D02*
X187561D01*
X99782Y195639D02*
X140891D01*
X150225Y186304D01*
X92992Y202428D02*
X99782Y195639D01*
X92992Y202428D02*
Y209594D01*
X95136Y211738D02*
X100536D01*
X92992Y209594D02*
X95136Y211738D01*
X100536D02*
X100563Y211766D01*
X107658D01*
X107685Y211793D01*
Y203321D02*
X108850Y202157D01*
X109716D01*
X107685Y203321D02*
Y206675D01*
X108272Y159705D02*
X108332D01*
X107685Y160292D02*
X108272Y159705D01*
X107685Y160292D02*
Y163368D01*
X170297Y243415D02*
X180774D01*
X179797Y205707D02*
X184057D01*
X185949Y193339D02*
Y203815D01*
X184057Y205707D02*
X185949Y203815D01*
X217363Y199725D02*
X229652D01*
X152780Y236711D02*
X162727D01*
X164512Y238496D01*
X150314Y239176D02*
Y242029D01*
Y239176D02*
X152780Y236711D01*
X164512Y238496D02*
Y242029D01*
X291446Y188832D02*
X301300Y198686D01*
X220741Y188832D02*
X291446D01*
X301300Y198686D02*
Y206688D01*
Y211806D02*
Y215798D01*
X301178Y215920D02*
X301300Y215798D01*
X243573Y214005D02*
Y217136D01*
X243450Y217259D02*
X243573Y217136D01*
Y206328D02*
X243723Y206479D01*
X246508D01*
X249751Y209722D02*
Y223439D01*
X246508Y206479D02*
X249751Y209722D01*
X245706Y227484D02*
X249751Y223439D01*
X224918Y227484D02*
X245706D01*
X222045Y224611D02*
X224918Y227484D01*
X222045Y215623D02*
Y224611D01*
X224434Y213234D02*
X229652D01*
X222045Y215623D02*
X224434Y213234D01*
X165876Y202529D02*
X165915Y202489D01*
X165876Y202529D02*
Y206875D01*
X149297Y202506D02*
X149315Y202488D01*
X149297Y202506D02*
Y206875D01*
X162625Y214552D02*
X165876D01*
X160611Y212538D02*
X162625Y214552D01*
X160611Y198822D02*
Y212538D01*
X168247Y191186D02*
X183796D01*
X160611Y198822D02*
X168247Y191186D01*
X183796D02*
X185949Y193339D01*
X250039Y286462D02*
X299938Y236562D01*
X229373Y308690D02*
X250279D01*
X260152Y214005D02*
Y220517D01*
X260114Y220555D02*
X260152Y220517D01*
X224230Y256542D02*
X228597D01*
X223585Y257187D02*
X224230Y256542D01*
X232078Y236654D02*
X243794D01*
X230634Y238097D02*
Y242029D01*
Y238097D02*
X232078Y236654D01*
X245157Y238016D02*
Y241825D01*
X243794Y236654D02*
X245157Y238016D01*
X143087Y256542D02*
X151999D01*
X142579Y257049D02*
X143087Y256542D01*
X115441Y277939D02*
X138722Y301220D01*
X144719Y273120D02*
X151999D01*
X144236Y272638D02*
X144719Y273120D01*
X144014Y272638D02*
X144236D01*
X221524Y296298D02*
Y304007D01*
Y296298D02*
X221524Y296298D01*
X226642Y304007D02*
Y313941D01*
X230315Y317613D01*
Y318898D01*
X163800Y303588D02*
Y314547D01*
X159449Y318898D02*
X163800Y314547D01*
X165876Y120261D02*
X166096Y120041D01*
Y116610D02*
Y120041D01*
Y116610D02*
X166252Y116453D01*
X149297Y120261D02*
X149301Y120256D01*
Y115177D02*
Y120256D01*
Y115177D02*
X149305Y115173D01*
X100536Y125124D02*
X100563Y125151D01*
X107658D01*
X107685Y125179D01*
X41917Y54568D02*
Y73561D01*
X39282Y51932D02*
X41917Y54568D01*
X39282Y46368D02*
Y51932D01*
X51609Y46368D02*
X51763Y46522D01*
Y73406D01*
X51917Y73561D01*
X61918Y52022D02*
Y73561D01*
Y52022D02*
X63935Y50004D01*
Y46368D02*
Y50004D01*
X76262Y46368D02*
Y50251D01*
X75234Y51279D02*
X76262Y50251D01*
X73248Y51279D02*
X75234D01*
X71917Y52610D02*
Y73561D01*
Y52610D02*
X73248Y51279D01*
X76917Y62571D02*
Y73561D01*
X76361Y62015D02*
X76917Y62571D01*
X66918Y62397D02*
Y73561D01*
X66536Y62015D02*
X66918Y62397D01*
X56918Y62222D02*
Y73561D01*
X56710Y62015D02*
X56918Y62222D01*
X46885Y62015D02*
X46918Y62048D01*
Y73561D01*
X140503Y125840D02*
X140964Y125379D01*
X149297D01*
X169318Y139326D02*
X177953D01*
X179797Y132601D02*
Y137482D01*
X177953Y139326D02*
X179797Y137482D01*
X165876Y135884D02*
X169318Y139326D01*
X165876Y127938D02*
Y135884D01*
X174679Y125847D02*
Y132601D01*
X174679Y132601D02*
X174679Y132601D01*
X165876Y125379D02*
X174210D01*
X174679Y125847D01*
X174679Y119093D02*
X174679Y119093D01*
Y112339D02*
Y119093D01*
X174234Y119537D02*
X174679Y119093D01*
X171784Y119537D02*
X174234D01*
X171092Y120229D02*
X171784Y119537D01*
X169483Y122820D02*
X170108Y122194D01*
X171092Y121210D01*
Y120229D02*
Y121210D01*
X165876Y122820D02*
X169483D01*
X100536Y168431D02*
X100563Y168458D01*
X107658D01*
X107685Y168486D01*
X140503Y169147D02*
X140964Y168686D01*
X149297D01*
X179797Y162400D02*
X185117D01*
X169056Y181792D02*
X178173D01*
X179797Y175908D02*
Y180168D01*
X178173Y181792D02*
X179797Y180168D01*
X165876Y178612D02*
X169056Y181792D01*
X165876Y171245D02*
Y178612D01*
X174679Y162400D02*
X174679Y162400D01*
Y155646D02*
Y162400D01*
Y169154D02*
Y175908D01*
X174679Y175908D02*
X174679Y175908D01*
X174679Y169154D02*
X174679Y169154D01*
X171923Y169154D02*
X174679D01*
X165876Y168686D02*
X171455D01*
X171923Y169154D01*
X171152Y163092D02*
Y164735D01*
X171844Y162400D02*
X174679D01*
X171152Y163092D02*
X171844Y162400D01*
X169760Y166127D02*
X171152Y164735D01*
X165876Y166127D02*
X169760D01*
X140503Y212455D02*
X140964Y211993D01*
X149297D01*
X165876Y214552D02*
Y222481D01*
X168567Y225172D02*
X178504D01*
X165876Y222481D02*
X168567Y225172D01*
X179797Y219215D02*
Y223879D01*
X178504Y225172D02*
X179797Y223879D01*
X174679Y205707D02*
X174679Y205707D01*
Y198953D02*
Y205707D01*
Y212461D02*
Y219215D01*
X174679Y219215D02*
X174679Y219215D01*
X165876Y211993D02*
X170427D01*
X170896Y212461D01*
X174679D01*
X171711Y205707D02*
X174679D01*
X170589Y206829D02*
X171711Y205707D01*
X170589Y206829D02*
Y208557D01*
X169712Y209434D02*
X170589Y208557D01*
X165876Y209434D02*
X169712D01*
X267271Y165580D02*
X268776Y164074D01*
Y160135D02*
Y164074D01*
X260152Y165580D02*
X267271D01*
X234770Y169927D02*
Y176681D01*
Y169927D02*
X234770Y169927D01*
X223735D02*
X229652D01*
X230937Y151302D02*
X241281D01*
X229652Y152587D02*
Y156418D01*
Y152587D02*
X230937Y151302D01*
X241281D02*
X243573Y153595D01*
Y163021D01*
X239724Y168738D02*
X240323Y168139D01*
X234770Y169927D02*
X238536D01*
X239724Y168738D01*
X240323Y168139D02*
X243573D01*
X240184Y165580D02*
X243573D01*
X237776Y163172D02*
X240184Y165580D01*
X234770Y163172D02*
X237776D01*
X234770Y156418D02*
Y163172D01*
Y156418D02*
X234770Y156418D01*
X263862Y208887D02*
X264296Y208453D01*
X265519Y207230D02*
X268700D01*
X264296Y208453D02*
X265519Y207230D01*
X260152Y208887D02*
X263862D01*
X234770Y213234D02*
Y219988D01*
Y213234D02*
X234770Y213234D01*
X229652Y194835D02*
Y199725D01*
Y194835D02*
X230939Y193548D01*
X240424D02*
X243573Y196697D01*
X230939Y193548D02*
X240424D01*
X243573Y196697D02*
Y206328D01*
X234770Y213234D02*
X234845Y213308D01*
X238638D01*
X239929Y212018D01*
X240500Y211446D01*
X243573D01*
X239932Y208887D02*
X243573D01*
X237524Y206479D02*
X239932Y208887D01*
X234770Y206479D02*
X237524D01*
X268776Y116828D02*
Y121578D01*
X268081Y122273D02*
X268776Y121578D01*
X260152Y122273D02*
X268081D01*
X237934Y126619D02*
X238386Y126168D01*
X239721Y124832D02*
X243573D01*
X238386Y126168D02*
X239721Y124832D01*
X234770Y126619D02*
X237934D01*
X234770Y126619D02*
Y133374D01*
Y126619D02*
X234770Y126619D01*
X229406Y126866D02*
X229652Y126619D01*
X224842Y126866D02*
X229406D01*
X230344Y107144D02*
X239764D01*
X229652Y107836D02*
Y113111D01*
Y107836D02*
X230344Y107144D01*
X239764D02*
X243573Y110953D01*
Y119714D01*
X240050Y122273D02*
X243573D01*
X237642Y119865D02*
X240050Y122273D01*
X234770Y119865D02*
X237642D01*
X234770Y113111D02*
X234770Y113111D01*
X234770Y113111D02*
Y119865D01*
X301300Y120074D02*
X301328Y120102D01*
X308422D01*
X308450Y120130D01*
X301300Y163381D02*
X301328Y163409D01*
X308422D01*
X308450Y163437D01*
X301300Y206688D02*
X301328Y206716D01*
X308422D01*
X308450Y206744D01*
X236274Y256542D02*
X244105D01*
X250484Y250162D01*
Y243458D02*
Y250162D01*
X245360Y242029D02*
X249055D01*
X250484Y243458D01*
X245157Y241825D02*
X245360Y242029D01*
X230634Y247147D02*
X231156Y247669D01*
X230634Y247147D02*
X230634Y247147D01*
X231156Y247669D02*
Y256542D01*
X223271Y247147D02*
X230634D01*
X237693Y247451D02*
X237997Y247147D01*
X237693Y247451D02*
Y249903D01*
X233951Y253645D02*
X237693Y249903D01*
X233715Y256542D02*
X233951Y256306D01*
Y253645D02*
Y256306D01*
X237997Y247147D02*
X245360D01*
X245360Y247147D01*
X234986Y280997D02*
X237644D01*
X233715Y273120D02*
Y279726D01*
X234986Y280997D01*
X221561Y304007D02*
X221608Y304053D01*
X168918Y303588D02*
X168926Y303580D01*
Y296370D02*
Y303580D01*
X157117Y275892D02*
X158455Y277229D01*
X157117Y273120D02*
Y275892D01*
X158455Y279342D02*
X159325Y280213D01*
X158455Y277229D02*
Y279342D01*
X164512Y242029D02*
X168910D01*
X170297Y243415D01*
Y251474D01*
X165229Y256542D02*
X170297Y251474D01*
X159677Y256542D02*
X165229D01*
X157413Y247147D02*
X164512D01*
X164512Y247147D01*
X150853Y247686D02*
Y249900D01*
X150314Y247147D02*
X150853Y247686D01*
Y249900D02*
X154558Y253606D01*
Y256542D01*
X157413Y247147D02*
X157483Y247217D01*
Y251979D01*
X157117Y252344D02*
Y256542D01*
Y252344D02*
X157483Y251979D01*
X143215Y247147D02*
X150314D01*
D54*
X267054Y255758D02*
X269608Y258313D01*
X363150Y353614D02*
Y357613D01*
X360750Y351214D02*
X363150Y353614D01*
X356590Y338416D02*
X360750Y342576D01*
Y351214D01*
X350031Y338416D02*
X356590D01*
X287803Y276187D02*
X350031Y338416D01*
X257854Y255758D02*
X267054D01*
X81918Y110962D02*
X85735D01*
X86106Y110591D01*
X86115D01*
X36917Y103266D02*
Y110962D01*
Y103266D02*
X39242Y100941D01*
D58*
X119095Y375984D02*
D03*
X270669D02*
D03*
D59*
X242126Y350394D02*
D03*
X230315D02*
D03*
X218504D02*
D03*
X206693D02*
D03*
X194882D02*
D03*
X183071D02*
D03*
X171260D02*
D03*
X159449D02*
D03*
X147638D02*
D03*
X236221Y340551D02*
D03*
X224409D02*
D03*
X212598D02*
D03*
X200787D02*
D03*
X188976D02*
D03*
X177165D02*
D03*
X165354D02*
D03*
X153543D02*
D03*
X236221Y328740D02*
D03*
X224409D02*
D03*
X212598D02*
D03*
X200787D02*
D03*
X188976D02*
D03*
X177165D02*
D03*
X165354D02*
D03*
X153543D02*
D03*
X242126Y318898D02*
D03*
X230315D02*
D03*
X218504D02*
D03*
X206693D02*
D03*
X194882D02*
D03*
X183071D02*
D03*
X171260D02*
D03*
X159449D02*
D03*
X147638D02*
D03*
D60*
X269550Y21440D02*
D03*
Y16440D02*
D03*
X274550Y21440D02*
D03*
Y16440D02*
D03*
X279550Y21440D02*
D03*
Y16440D02*
D03*
X284550Y21440D02*
D03*
Y16440D02*
D03*
X289550D02*
D03*
D61*
Y21440D02*
D03*
D62*
X253460Y149144D02*
D03*
X253461Y139302D02*
D03*
X239267Y136974D02*
D03*
X159013Y108020D02*
D03*
X269608Y258313D02*
D03*
X250883Y253581D02*
D03*
X172571Y264193D02*
D03*
X152702Y365540D02*
D03*
Y362940D02*
D03*
Y357740D02*
D03*
Y360340D02*
D03*
X93642Y365540D02*
D03*
Y362940D02*
D03*
Y360340D02*
D03*
Y357740D02*
D03*
X363150Y357613D02*
D03*
X287803Y276187D02*
D03*
X112260Y32690D02*
D03*
X113945Y35034D02*
D03*
X117168Y36279D02*
D03*
X120742Y36831D02*
D03*
X303714Y50625D02*
D03*
X305365Y33058D02*
D03*
X281680Y11174D02*
D03*
X263632Y14225D02*
D03*
X261595Y19070D02*
D03*
X278497Y5312D02*
D03*
X256130Y11823D02*
D03*
X333372Y47226D02*
D03*
X369238Y43595D02*
D03*
X327978Y46843D02*
D03*
X367337Y41020D02*
D03*
X290691Y356900D02*
D03*
X292253Y361977D02*
D03*
X214666Y78230D02*
D03*
X207408Y74834D02*
D03*
X206726Y77816D02*
D03*
X203318Y77537D02*
D03*
X211329Y76779D02*
D03*
X196028Y82060D02*
D03*
X206036Y83353D02*
D03*
X202173Y82008D02*
D03*
X198837Y81770D02*
D03*
X171854Y47412D02*
D03*
X163596Y49698D02*
D03*
X167118Y51122D02*
D03*
X164952Y53292D02*
D03*
X165692Y58567D02*
D03*
X169027Y58544D02*
D03*
X171489Y60379D02*
D03*
X166529Y158856D02*
D03*
X141113Y109666D02*
D03*
X108107Y116455D02*
D03*
X160436Y144139D02*
D03*
X154220Y144241D02*
D03*
X108461Y146279D02*
D03*
X107544Y155248D02*
D03*
X174521Y273081D02*
D03*
X264624Y277728D02*
D03*
X253460Y186018D02*
D03*
X253365Y191751D02*
D03*
X229489Y276564D02*
D03*
X86115Y110591D02*
D03*
X39242Y100941D02*
D03*
X134684Y93200D02*
D03*
X157055Y190601D02*
D03*
X156903Y182562D02*
D03*
X368594Y128668D02*
D03*
X363542Y128533D02*
D03*
X358360Y128752D02*
D03*
X353274Y128798D02*
D03*
X348348Y128733D02*
D03*
X343744Y128795D02*
D03*
X339142Y128291D02*
D03*
X333467Y127724D02*
D03*
X116127Y191505D02*
D03*
X143369Y188987D02*
D03*
X118430Y153925D02*
D03*
X149297Y160575D02*
D03*
X108538Y111659D02*
D03*
X295189Y143642D02*
D03*
X291854Y184317D02*
D03*
X291629Y231977D02*
D03*
X260061Y133515D02*
D03*
X242832Y131584D02*
D03*
X298834Y133435D02*
D03*
X299706Y176476D02*
D03*
X259445Y177073D02*
D03*
X243336Y173681D02*
D03*
X109716Y202157D02*
D03*
X108332Y159705D02*
D03*
X301178Y215920D02*
D03*
X243450Y217259D02*
D03*
X165915Y202489D02*
D03*
X149315Y202488D02*
D03*
X229373Y308690D02*
D03*
X260114Y220555D02*
D03*
X223585Y257187D02*
D03*
X142579Y257049D02*
D03*
X138722Y301220D02*
D03*
X144014Y272638D02*
D03*
X166252Y116453D02*
D03*
X149305Y115173D02*
D03*
D63*
X260152Y127391D02*
D03*
Y124832D02*
D03*
Y122273D02*
D03*
Y119714D02*
D03*
X243573Y127391D02*
D03*
Y124832D02*
D03*
Y122273D02*
D03*
Y119714D02*
D03*
X260152Y170698D02*
D03*
Y168139D02*
D03*
Y165580D02*
D03*
Y163021D02*
D03*
X243573Y170698D02*
D03*
Y168139D02*
D03*
Y165580D02*
D03*
Y163021D02*
D03*
X260152Y214005D02*
D03*
Y211446D02*
D03*
Y208887D02*
D03*
Y206328D02*
D03*
X243573Y214005D02*
D03*
Y211446D02*
D03*
Y208887D02*
D03*
Y206328D02*
D03*
X149297Y206875D02*
D03*
Y209434D02*
D03*
Y211993D02*
D03*
Y214552D02*
D03*
X165876Y206875D02*
D03*
Y209434D02*
D03*
Y211993D02*
D03*
Y214552D02*
D03*
X149297Y163568D02*
D03*
Y166127D02*
D03*
Y168686D02*
D03*
Y171245D02*
D03*
X165876Y163568D02*
D03*
Y166127D02*
D03*
Y168686D02*
D03*
Y171245D02*
D03*
X149297Y120261D02*
D03*
Y122820D02*
D03*
Y125379D02*
D03*
Y127938D02*
D03*
X165876Y120261D02*
D03*
Y122820D02*
D03*
Y125379D02*
D03*
Y127938D02*
D03*
D64*
X228597Y273120D02*
D03*
X231156D02*
D03*
X233715D02*
D03*
X236274D02*
D03*
X228597Y256542D02*
D03*
X231156D02*
D03*
X233715D02*
D03*
X236274D02*
D03*
X159677D02*
D03*
X157117D02*
D03*
X154558D02*
D03*
X151999D02*
D03*
X159677Y273120D02*
D03*
X157117D02*
D03*
X154558D02*
D03*
X151999D02*
D03*
M02*
