G04*
G04 #@! TF.GenerationSoftware,Altium Limited,Altium Designer,20.0.13 (296)*
G04*
G04 Layer_Physical_Order=1*
G04 Layer_Color=255*
%FSLAX25Y25*%
%MOIN*%
G70*
G01*
G75*
%ADD11C,0.02362*%
G04:AMPARAMS|DCode=15|XSize=23.62mil|YSize=74.8mil|CornerRadius=5.91mil|HoleSize=0mil|Usage=FLASHONLY|Rotation=180.000|XOffset=0mil|YOffset=0mil|HoleType=Round|Shape=RoundedRectangle|*
%AMROUNDEDRECTD15*
21,1,0.02362,0.06299,0,0,180.0*
21,1,0.01181,0.07480,0,0,180.0*
1,1,0.01181,-0.00591,0.03150*
1,1,0.01181,0.00591,0.03150*
1,1,0.01181,0.00591,-0.03150*
1,1,0.01181,-0.00591,-0.03150*
%
%ADD15ROUNDEDRECTD15*%
%ADD16R,0.04724X0.10236*%
%ADD17R,0.04528X0.02756*%
%ADD18R,0.18110X0.18504*%
%ADD19R,0.03740X0.03347*%
%ADD20R,0.03937X0.03543*%
%ADD21R,0.03543X0.03937*%
%ADD22R,0.03347X0.03740*%
%ADD23R,0.07284X0.12795*%
%ADD24R,0.02756X0.04528*%
%ADD25R,0.18504X0.18110*%
%ADD26R,0.10236X0.04724*%
%ADD27R,0.05315X0.01181*%
%ADD28R,0.01181X0.05315*%
%ADD29O,0.05709X0.02362*%
%ADD30R,0.07874X0.05906*%
%ADD31R,0.07874X0.14961*%
%ADD53C,0.01181*%
%ADD54C,0.01968*%
%ADD55C,0.03937*%
%ADD56C,0.15000*%
%ADD57C,0.07874*%
%ADD58C,0.12992*%
%ADD59C,0.08661*%
%ADD60C,0.03543*%
%ADD61R,0.03543X0.03543*%
%ADD62C,0.02000*%
G36*
X379678Y386624D02*
X381336Y386121D01*
X382865Y385304D01*
X384205Y384205D01*
X385304Y382865D01*
X386121Y381336D01*
X386624Y379678D01*
X386786Y378031D01*
X386776Y377953D01*
Y11811D01*
X386786Y11732D01*
X386624Y10086D01*
X386121Y8428D01*
X385304Y6899D01*
X384205Y5559D01*
X382865Y4460D01*
X381336Y3643D01*
X379678Y3139D01*
X378031Y2977D01*
X377953Y2988D01*
X11811D01*
X11732Y2977D01*
X10086Y3139D01*
X8428Y3643D01*
X6899Y4460D01*
X5559Y5559D01*
X4460Y6899D01*
X3643Y8428D01*
X3139Y10086D01*
X2977Y11732D01*
X2988Y11811D01*
Y377953D01*
X2977Y378031D01*
X3139Y379678D01*
X3643Y381336D01*
X4460Y382865D01*
X5559Y384205D01*
X6899Y385304D01*
X8428Y386121D01*
X10086Y386624D01*
X11732Y386786D01*
X11811Y386776D01*
X377953D01*
X378031Y386786D01*
X379678Y386624D01*
D02*
G37*
%LPC*%
G36*
X371097Y374513D02*
Y372529D01*
X372884D01*
Y374513D01*
X371097D01*
D02*
G37*
G36*
X270669Y383115D02*
X269278Y382978D01*
X267941Y382572D01*
X266708Y381913D01*
X265627Y381026D01*
X264741Y379946D01*
X264082Y378713D01*
X263676Y377375D01*
X263539Y375984D01*
X263676Y374593D01*
X264082Y373256D01*
X264741Y372023D01*
X265627Y370942D01*
X266708Y370056D01*
X267941Y369397D01*
X269278Y368991D01*
X270669Y368854D01*
X272060Y368991D01*
X273398Y369397D01*
X274631Y370056D01*
X275711Y370942D01*
X276598Y372023D01*
X277257Y373256D01*
X277663Y374593D01*
X277800Y375984D01*
X277663Y377375D01*
X277257Y378713D01*
X276598Y379946D01*
X275711Y381026D01*
X274631Y381913D01*
X273398Y382572D01*
X272060Y382978D01*
X270669Y383115D01*
D02*
G37*
G36*
X119095D02*
X117703Y382978D01*
X116366Y382572D01*
X115133Y381913D01*
X114052Y381026D01*
X113166Y379946D01*
X112507Y378713D01*
X112101Y377375D01*
X111964Y375984D01*
X112101Y374593D01*
X112507Y373256D01*
X113166Y372023D01*
X114052Y370942D01*
X115133Y370056D01*
X116366Y369397D01*
X117703Y368991D01*
X119095Y368854D01*
X120485Y368991D01*
X121823Y369397D01*
X123056Y370056D01*
X124136Y370942D01*
X125023Y372023D01*
X125682Y373256D01*
X126088Y374593D01*
X126225Y375984D01*
X126088Y377375D01*
X125682Y378713D01*
X125023Y379946D01*
X124136Y381026D01*
X123056Y381913D01*
X121823Y382572D01*
X120485Y382978D01*
X119095Y383115D01*
D02*
G37*
G36*
X372884Y370560D02*
X371097D01*
Y368576D01*
X372884D01*
Y370560D01*
D02*
G37*
G36*
X367341Y374513D02*
X367100Y374113D01*
X366841Y374113D01*
X362426D01*
Y370898D01*
X362399Y370761D01*
Y359138D01*
X362090Y358830D01*
X361996Y358767D01*
X361643Y358237D01*
X361518Y357613D01*
X361643Y356989D01*
X361996Y356460D01*
X362525Y356106D01*
X363150Y355982D01*
X363774Y356106D01*
X364303Y356460D01*
X364332Y356502D01*
X364683Y356854D01*
X368823D01*
X368916Y356791D01*
X369611Y356653D01*
X372957D01*
X373652Y356791D01*
X374242Y357185D01*
X374635Y357774D01*
X374774Y358469D01*
X374635Y359164D01*
X374242Y359753D01*
X373652Y360147D01*
X372957Y360285D01*
X369611D01*
X368916Y360147D01*
X368823Y360085D01*
X365630D01*
Y368622D01*
X365983Y368976D01*
X367100Y368976D01*
X367341Y368576D01*
X367411Y368576D01*
X367411Y368576D01*
X369129D01*
Y371545D01*
Y374513D01*
X367411D01*
Y374513D01*
X367411D01*
X367341D01*
D02*
G37*
G36*
X255826Y366941D02*
X255797Y366927D01*
X255766Y366934D01*
X250577Y366060D01*
X250449Y365980D01*
X250303Y365944D01*
X238810Y357565D01*
X238767Y357494D01*
X238693Y357455D01*
X238642Y357290D01*
X238551Y357141D01*
X238571Y357060D01*
X238546Y356980D01*
X238685Y355487D01*
X238709Y355442D01*
X238701Y355391D01*
X238822Y355228D01*
X238917Y355048D01*
X238966Y355032D01*
X238996Y354991D01*
X239109Y354924D01*
X239142Y354319D01*
X238609Y353910D01*
X237819Y352880D01*
X237322Y351681D01*
X237153Y350394D01*
X237322Y349107D01*
X237801Y347950D01*
X237684Y347708D01*
X237545Y347503D01*
X236754Y347727D01*
X236581Y347707D01*
X236407Y347729D01*
X234776Y347286D01*
X234482Y347725D01*
X234622Y347907D01*
X235119Y349107D01*
X235288Y350394D01*
X235119Y351681D01*
X234622Y352880D01*
X233832Y353910D01*
X232802Y354701D01*
X231602Y355198D01*
X230315Y355367D01*
X229028Y355198D01*
X227828Y354701D01*
X226798Y353910D01*
X226008Y352880D01*
X225511Y351681D01*
X225342Y350394D01*
X225511Y349107D01*
X226008Y347907D01*
X226798Y346877D01*
X227828Y346087D01*
X229028Y345590D01*
X230315Y345420D01*
X231602Y345590D01*
X232802Y346087D01*
X233105Y346320D01*
X233167Y346299D01*
X233527Y346020D01*
X233564Y345914D01*
X233552Y345803D01*
X233643Y345689D01*
X233692Y345551D01*
X233802Y345428D01*
X233740Y344911D01*
X233692Y344826D01*
X232704Y344068D01*
X231913Y343038D01*
X231417Y341838D01*
X231247Y340551D01*
X231417Y339264D01*
X231913Y338065D01*
X232704Y337035D01*
X233734Y336244D01*
X234710Y335840D01*
X234686Y335309D01*
X233514Y334947D01*
X233453Y334895D01*
X233373Y334884D01*
X233268Y334742D01*
X233132Y334629D01*
X233124Y334549D01*
X233077Y334485D01*
X232971Y334065D01*
X232986Y333963D01*
X232952Y333866D01*
X233020Y333727D01*
X233043Y333574D01*
X233125Y333512D01*
X233171Y333420D01*
X233276Y333326D01*
X233275Y332695D01*
X232704Y332257D01*
X231913Y331227D01*
X231417Y330027D01*
X231247Y328740D01*
X231417Y327453D01*
X231913Y326254D01*
X232704Y325223D01*
X233734Y324433D01*
X234329Y324186D01*
X234338Y324133D01*
X234278Y323667D01*
X234272Y323664D01*
X234130Y323659D01*
X234051Y323574D01*
X233944Y323530D01*
X233889Y323399D01*
X233792Y323294D01*
X233729Y323123D01*
X233139Y322945D01*
X232802Y323205D01*
X231602Y323701D01*
X230315Y323871D01*
X229028Y323701D01*
X227828Y323205D01*
X227467Y322927D01*
X226876Y323104D01*
X226833Y323226D01*
X226765Y323303D01*
X226739Y323403D01*
X226732Y323783D01*
X226807Y323963D01*
X227098Y324084D01*
X228211Y324938D01*
X229066Y326052D01*
X229603Y327349D01*
X229657Y327756D01*
X224409D01*
X219162D01*
X219216Y327349D01*
X219753Y326052D01*
X220607Y324938D01*
X221721Y324084D01*
X223018Y323547D01*
X224409Y323363D01*
X224507Y323376D01*
X224720Y322924D01*
X223272Y321576D01*
X223214Y321552D01*
X222711Y321578D01*
X222635Y321614D01*
X222021Y322414D01*
X220991Y323205D01*
X219791Y323701D01*
X218504Y323871D01*
X217217Y323701D01*
X216160Y323264D01*
X215727Y323408D01*
X215588Y323505D01*
X215532Y323670D01*
X215531Y323671D01*
X215516Y324164D01*
X215614Y324335D01*
X216400Y324938D01*
X217255Y326052D01*
X217792Y327349D01*
X217846Y327756D01*
X212598D01*
X207351D01*
X207405Y327349D01*
X207942Y326052D01*
X208797Y324938D01*
X209583Y324335D01*
X209681Y324164D01*
X209666Y323671D01*
X209665Y323670D01*
X209610Y323505D01*
X209470Y323408D01*
X209037Y323264D01*
X207980Y323701D01*
X206693Y323871D01*
X205406Y323701D01*
X204348Y323263D01*
X203916Y323407D01*
X203776Y323504D01*
X203720Y323669D01*
X203718Y323671D01*
X203704Y324164D01*
X203802Y324334D01*
X204589Y324938D01*
X205444Y326052D01*
X205981Y327349D01*
X206034Y327756D01*
X200787D01*
X195540D01*
X195594Y327349D01*
X196131Y326052D01*
X196985Y324938D01*
X197773Y324334D01*
X197871Y324163D01*
X197857Y323670D01*
X197855Y323669D01*
X197800Y323504D01*
X197659Y323406D01*
X197227Y323263D01*
X196169Y323701D01*
X194882Y323871D01*
X193595Y323701D01*
X192536Y323263D01*
X192105Y323405D01*
X191964Y323504D01*
X191908Y323668D01*
X191906Y323670D01*
X191892Y324163D01*
X191990Y324334D01*
X192778Y324938D01*
X193633Y326052D01*
X194170Y327349D01*
X194223Y327756D01*
X188976D01*
X183729D01*
X183783Y327349D01*
X184320Y326052D01*
X185175Y324938D01*
X185963Y324333D01*
X186061Y324162D01*
X186047Y323670D01*
X186046Y323668D01*
X185990Y323503D01*
X185847Y323405D01*
X185417Y323263D01*
X184358Y323701D01*
X183071Y323871D01*
X181784Y323701D01*
X180584Y323205D01*
X179554Y322414D01*
X178764Y321384D01*
X178267Y320185D01*
X178098Y318898D01*
X178267Y317611D01*
X178509Y317026D01*
X178495Y316937D01*
X178205Y316454D01*
X177931Y316361D01*
X177819Y316262D01*
X177681Y316205D01*
X177639Y316105D01*
X177557Y316033D01*
X177548Y315884D01*
X177490Y315746D01*
Y267214D01*
X174672Y264396D01*
X174129Y264560D01*
X174078Y264817D01*
X173945Y265015D01*
X175379Y266449D01*
X175379Y266449D01*
X175642Y266843D01*
X175735Y267307D01*
X175735Y267307D01*
Y272018D01*
X176028Y272457D01*
X176152Y273081D01*
X176028Y273706D01*
X175674Y274235D01*
X175145Y274588D01*
X174521Y274713D01*
X173897Y274588D01*
X173367Y274235D01*
X173014Y273706D01*
X172889Y273081D01*
X173014Y272457D01*
X173307Y272018D01*
Y267810D01*
X171713Y266216D01*
X171449Y265822D01*
X171357Y265357D01*
X171357Y265357D01*
Y265256D01*
X171064Y264817D01*
X170940Y264193D01*
X171044Y263668D01*
X170776Y263168D01*
X153901D01*
X152313Y263012D01*
X150786Y262548D01*
X149379Y261796D01*
X148146Y260784D01*
X147133Y259551D01*
X146381Y258143D01*
X145918Y256617D01*
X145881Y256243D01*
X145102D01*
X144190Y257155D01*
X144087Y257673D01*
X143733Y258202D01*
X143204Y258556D01*
X142579Y258680D01*
X141955Y258556D01*
X141426Y258202D01*
X141072Y257673D01*
X140948Y257049D01*
X141072Y256425D01*
X141426Y255895D01*
X141955Y255542D01*
X142473Y255439D01*
X143741Y254170D01*
X143741Y254170D01*
X144135Y253907D01*
X144599Y253815D01*
X145881D01*
X145918Y253441D01*
X146381Y251914D01*
X147133Y250507D01*
X148146Y249273D01*
X149379Y248261D01*
X150786Y247509D01*
X152313Y247046D01*
X153901Y246889D01*
X176815D01*
X176815Y246889D01*
X177120Y246919D01*
X177490Y246584D01*
Y223067D01*
X174652Y220229D01*
X166710D01*
X165122Y220072D01*
X163595Y219609D01*
X162188Y218857D01*
X160955Y217845D01*
X159943Y216611D01*
X159190Y215204D01*
X158727Y213677D01*
X158571Y212089D01*
X158727Y210501D01*
X159190Y208975D01*
X159943Y207567D01*
X160955Y206334D01*
X162188Y205322D01*
X163595Y204570D01*
X164701Y204234D01*
Y203552D01*
X164408Y203114D01*
X164284Y202489D01*
X164408Y201865D01*
X164762Y201336D01*
X165291Y200982D01*
X165915Y200858D01*
X166540Y200982D01*
X167069Y201336D01*
X167422Y201865D01*
X167547Y202489D01*
X167422Y203114D01*
X167198Y203450D01*
X167366Y203950D01*
X177490D01*
Y176921D01*
X166710D01*
X165122Y176765D01*
X163595Y176302D01*
X162188Y175550D01*
X160955Y174538D01*
X159943Y173304D01*
X159190Y171897D01*
X158727Y170370D01*
X158571Y168782D01*
X158727Y167194D01*
X159190Y165667D01*
X159943Y164260D01*
X160955Y163027D01*
X162188Y162015D01*
X163595Y161263D01*
X165122Y160799D01*
X165315Y160780D01*
Y159919D01*
X165022Y159480D01*
X164898Y158856D01*
X165022Y158231D01*
X165375Y157702D01*
X165905Y157349D01*
X166529Y157224D01*
X167153Y157349D01*
X167683Y157702D01*
X168036Y158231D01*
X168160Y158856D01*
X168036Y159480D01*
X167743Y159919D01*
Y160643D01*
X177490D01*
Y133614D01*
X166710D01*
X165122Y133458D01*
X163595Y132995D01*
X162188Y132243D01*
X160955Y131230D01*
X159943Y129997D01*
X159190Y128590D01*
X158727Y127063D01*
X158571Y125475D01*
X158727Y123887D01*
X159190Y122360D01*
X159943Y120953D01*
X160955Y119720D01*
X162188Y118708D01*
X163595Y117956D01*
X164637Y117639D01*
X164806Y117169D01*
X164745Y117078D01*
X164621Y116453D01*
X164745Y115829D01*
X165099Y115300D01*
X165628Y114946D01*
X166252Y114822D01*
X166877Y114946D01*
X167406Y115300D01*
X167760Y115829D01*
X167884Y116453D01*
X167858Y116581D01*
X167924Y116911D01*
X168156Y117336D01*
X185715D01*
Y97864D01*
X168679D01*
X163542Y103001D01*
X163005Y103413D01*
X162380Y103672D01*
X161710Y103760D01*
X86015D01*
Y108167D01*
X83600D01*
Y108763D01*
X83807Y108970D01*
X86064D01*
X86115Y108960D01*
X86739Y109084D01*
X87269Y109438D01*
X87622Y109967D01*
X87746Y110591D01*
X87622Y111216D01*
X87269Y111745D01*
X86739Y112099D01*
X86115Y112223D01*
X86004Y112201D01*
X83138D01*
X82520Y112078D01*
X81996Y111727D01*
X80843Y110574D01*
X80492Y110050D01*
X80369Y109432D01*
Y108167D01*
X77531D01*
Y103760D01*
X50237D01*
Y108167D01*
X41753D01*
Y102556D01*
X39323D01*
X39242Y102573D01*
X38618Y102448D01*
X38089Y102095D01*
X37735Y101565D01*
X37611Y100941D01*
X37735Y100317D01*
X38089Y99788D01*
X38618Y99434D01*
X39242Y99310D01*
X39323Y99326D01*
X41753D01*
Y94172D01*
X50237D01*
Y98579D01*
X77531D01*
Y94172D01*
X86015D01*
Y98579D01*
X160637D01*
X165774Y93442D01*
X166310Y93030D01*
X166935Y92771D01*
X167606Y92683D01*
X181398D01*
X181590Y92221D01*
X177200Y87832D01*
X160332D01*
Y89572D01*
X154395D01*
Y87832D01*
X147196D01*
Y88720D01*
X138122D01*
Y81614D01*
X147196D01*
Y82651D01*
X178274D01*
X178944Y82739D01*
X179569Y82998D01*
X180105Y83409D01*
X190138Y93442D01*
X190550Y93978D01*
X190808Y94603D01*
X190897Y95274D01*
Y119021D01*
X191748Y119720D01*
X198453Y126424D01*
X198915Y126233D01*
Y119251D01*
X197659D01*
Y114704D01*
X202599D01*
Y119251D01*
X201343D01*
Y129314D01*
X202193Y130164D01*
X205975Y133236D01*
X209833D01*
X215681Y127388D01*
X218845Y124223D01*
Y94381D01*
X218934Y93710D01*
X219193Y93085D01*
X219604Y92549D01*
X230657Y81497D01*
X231193Y81085D01*
X231818Y80826D01*
X232488Y80738D01*
X266306D01*
Y76331D01*
X274789D01*
Y80738D01*
X299822D01*
Y76327D01*
X308305D01*
Y90322D01*
X306654D01*
Y101680D01*
X322428Y117454D01*
X326671D01*
Y116895D01*
X326763Y116430D01*
X326860Y116286D01*
Y111525D01*
X326983Y110907D01*
X327333Y110383D01*
X330017Y107699D01*
X330541Y107349D01*
X331159Y107226D01*
X370780D01*
X371398Y107349D01*
X371922Y107699D01*
X374617Y110394D01*
X374967Y110918D01*
X375090Y111536D01*
Y116286D01*
X375187Y116430D01*
X375279Y116895D01*
Y123194D01*
X375187Y123659D01*
X374924Y124052D01*
X374530Y124316D01*
X374065Y124408D01*
X372884D01*
X372420Y124316D01*
X372026Y124052D01*
X371763Y123659D01*
X371671Y123194D01*
Y116895D01*
X371763Y116430D01*
X371860Y116286D01*
Y112205D01*
X370111Y110457D01*
X331828D01*
X330090Y112194D01*
Y116286D01*
X330187Y116430D01*
X330279Y116895D01*
Y118192D01*
X330307Y118212D01*
X330719Y118749D01*
X330977Y119374D01*
X331066Y120044D01*
X330977Y120715D01*
X330719Y121340D01*
X330307Y121876D01*
X330279Y121897D01*
Y123194D01*
X330187Y123659D01*
X329924Y124052D01*
X329530Y124316D01*
X329065Y124408D01*
X327885D01*
X327420Y124316D01*
X327026Y124052D01*
X326763Y123659D01*
X326671Y123194D01*
Y122635D01*
X321355D01*
X320685Y122547D01*
X320060Y122288D01*
X319523Y121876D01*
X302232Y104585D01*
X301820Y104048D01*
X301561Y103423D01*
X301473Y102753D01*
Y90322D01*
X299822D01*
Y85919D01*
X274789D01*
Y90326D01*
X266306D01*
Y85919D01*
X233561D01*
X224027Y95454D01*
Y118878D01*
X224456Y119135D01*
X225217Y118728D01*
X226744Y118265D01*
X228332Y118108D01*
X242739D01*
X244327Y118265D01*
X245853Y118728D01*
X247261Y119480D01*
X248494Y120492D01*
X249506Y121726D01*
X250258Y123133D01*
X250722Y124660D01*
X250878Y126248D01*
X250722Y127835D01*
X250258Y129362D01*
X249506Y130769D01*
X248494Y132003D01*
X247261Y133015D01*
X245853Y133767D01*
X244327Y134230D01*
X242739Y134387D01*
X231703D01*
X230691Y135399D01*
Y161415D01*
X242739D01*
X244327Y161572D01*
X245853Y162035D01*
X247261Y162787D01*
X248494Y163799D01*
X249506Y165033D01*
X250258Y166440D01*
X250722Y167967D01*
X250878Y169555D01*
X250722Y171142D01*
X250258Y172669D01*
X249506Y174076D01*
X248494Y175310D01*
X247261Y176322D01*
X245853Y177074D01*
X244327Y177537D01*
X242739Y177694D01*
X230691D01*
Y204722D01*
X242739D01*
X244327Y204879D01*
X245853Y205342D01*
X247261Y206094D01*
X248494Y207106D01*
X249506Y208340D01*
X250258Y209747D01*
X250722Y211274D01*
X250878Y212862D01*
X250722Y214450D01*
X250258Y215976D01*
X249506Y217384D01*
X248494Y218617D01*
X247261Y219629D01*
X245853Y220381D01*
X244327Y220845D01*
X242739Y221001D01*
X233699D01*
X230691Y224009D01*
Y247046D01*
X237947D01*
X239535Y247203D01*
X241062Y247666D01*
X242469Y248418D01*
X243703Y249430D01*
X244715Y250663D01*
X245467Y252071D01*
X245930Y253598D01*
X246087Y255185D01*
X245930Y256773D01*
X245467Y258300D01*
X244715Y259707D01*
X243703Y260941D01*
X242469Y261953D01*
X241062Y262705D01*
X239535Y263168D01*
X237947Y263325D01*
X228299D01*
X226201Y265423D01*
X224967Y266435D01*
X224290Y266798D01*
X223315Y267772D01*
Y314795D01*
X223533Y315241D01*
X223560Y315277D01*
X223774Y315321D01*
X229161Y310789D01*
X229023Y310252D01*
X228748Y310197D01*
X228219Y309843D01*
X227865Y309314D01*
X227741Y308690D01*
X227865Y308066D01*
X228219Y307537D01*
X228748Y307183D01*
X228990Y307135D01*
X229047Y307077D01*
Y306396D01*
X228283D01*
Y300668D01*
X232239D01*
Y305714D01*
X232551Y306132D01*
X232783Y306142D01*
X233283Y305858D01*
Y300668D01*
X237239D01*
Y305684D01*
X237327Y305964D01*
X237850Y306114D01*
X238202Y305944D01*
X238283Y305684D01*
Y300668D01*
X242239D01*
Y305684D01*
X242327Y305964D01*
X242850Y306114D01*
X243202Y305944D01*
X243283Y305684D01*
Y300668D01*
X247239D01*
Y305853D01*
X247739Y306141D01*
X248103Y306124D01*
X248324Y306204D01*
X248548Y306273D01*
X248556Y306287D01*
X248571Y306293D01*
X248671Y306505D01*
X248780Y306713D01*
X249987Y319679D01*
X250210Y319787D01*
X250502Y319818D01*
X251450Y318664D01*
X302129Y267984D01*
Y221994D01*
X298305Y218169D01*
X294410Y218218D01*
X294392Y218211D01*
X294373Y218217D01*
X294163Y218119D01*
X294037Y218069D01*
X293664Y218238D01*
X293549Y218339D01*
X293549Y218507D01*
Y222054D01*
X291899D01*
Y224713D01*
X292488Y225301D01*
X292488Y225301D01*
X292751Y225695D01*
X292843Y226160D01*
X292843Y226160D01*
Y230914D01*
X293137Y231353D01*
X293261Y231977D01*
X293137Y232601D01*
X292783Y233131D01*
X292254Y233484D01*
X291629Y233608D01*
X291005Y233484D01*
X290476Y233131D01*
X290122Y232601D01*
X289998Y231977D01*
X290122Y231353D01*
X290416Y230914D01*
Y226662D01*
X289827Y226074D01*
X289564Y225680D01*
X289472Y225216D01*
X289472Y225216D01*
Y222054D01*
X287822D01*
Y218098D01*
X293149Y218098D01*
X293153D01*
X293153D01*
X293328Y218098D01*
X293548Y217598D01*
X293470Y217513D01*
X293390Y217292D01*
X293300Y217074D01*
Y217054D01*
X287822D01*
Y213098D01*
X292838D01*
X293118Y213011D01*
X293268Y212487D01*
X293098Y212135D01*
X292838Y212054D01*
X287822D01*
Y208098D01*
X292838D01*
X293118Y208011D01*
X293268Y207487D01*
X293098Y207135D01*
X292838Y207054D01*
X287822D01*
Y203098D01*
X293300D01*
X293300Y202698D01*
X293377Y202513D01*
X293423Y202318D01*
X293469Y202289D01*
X293490Y202239D01*
X293675Y202162D01*
X293846Y202057D01*
X294315Y201981D01*
X294368Y201994D01*
X294418Y201973D01*
X300014D01*
X301602Y201817D01*
X303190Y201973D01*
X304717Y202436D01*
X306124Y203188D01*
X307358Y204201D01*
X316024Y212867D01*
X317036Y214100D01*
X317788Y215508D01*
X318251Y217034D01*
X318408Y218622D01*
X318408Y218622D01*
Y271356D01*
X318251Y272943D01*
X317788Y274470D01*
X317036Y275877D01*
X316024Y277111D01*
X316024Y277111D01*
X262960Y330175D01*
X261727Y331187D01*
X261624Y331242D01*
X261534Y331327D01*
X261432Y331479D01*
X261360Y331493D01*
X261307Y331544D01*
X260409Y331891D01*
X260320Y331939D01*
X260161Y331987D01*
X257963Y332837D01*
X257919Y332836D01*
X257884Y332862D01*
X244544Y336138D01*
X244617Y336632D01*
X260709Y335801D01*
X261448Y334901D01*
X322937Y273411D01*
Y186072D01*
X311522Y174656D01*
X302486D01*
X301373Y174547D01*
X300919Y174888D01*
Y175413D01*
X301213Y175852D01*
X301337Y176476D01*
X301213Y177101D01*
X300859Y177630D01*
X300330Y177984D01*
X299706Y178108D01*
X299081Y177984D01*
X298552Y177630D01*
X298198Y177101D01*
X298074Y176476D01*
X298198Y175852D01*
X298492Y175413D01*
Y174660D01*
X294000D01*
X293637Y174953D01*
X293637Y174953D01*
X293637Y174953D01*
X293637Y174953D01*
X293549Y175036D01*
X293549Y175065D01*
Y178747D01*
X291899D01*
Y182646D01*
X291961Y182707D01*
X292478Y182810D01*
X293007Y183163D01*
X293361Y183693D01*
X293485Y184317D01*
X293361Y184941D01*
X293007Y185470D01*
X292478Y185824D01*
X291854Y185948D01*
X291230Y185824D01*
X290701Y185470D01*
X290347Y184941D01*
X290244Y184423D01*
X289827Y184007D01*
X289564Y183613D01*
X289472Y183148D01*
X289472Y183148D01*
Y178747D01*
X287822D01*
Y174791D01*
X293151Y174791D01*
X293153D01*
X293153D01*
X293158Y174791D01*
X293232Y174648D01*
X293232D01*
X293232Y174648D01*
D01*
X293382Y174209D01*
X293300Y174011D01*
Y173747D01*
X287822D01*
Y169791D01*
X292838D01*
X293118Y169704D01*
X293268Y169180D01*
X293098Y168828D01*
X292838Y168747D01*
X287822D01*
Y164791D01*
X292838D01*
X293118Y164704D01*
X293268Y164180D01*
X293098Y163828D01*
X292838Y163747D01*
X287822D01*
Y159791D01*
X293300D01*
Y159756D01*
X293391Y159535D01*
X293476Y159311D01*
X293928Y158830D01*
X293951Y158819D01*
X293962Y158796D01*
X294175Y158719D01*
X294381Y158625D01*
X294405Y158634D01*
X294429Y158626D01*
X299833Y158858D01*
X300898Y158534D01*
X302486Y158378D01*
X314893D01*
X314893Y158378D01*
X316481Y158534D01*
X318008Y158998D01*
X319415Y159750D01*
X320649Y160762D01*
X336832Y176945D01*
X336832Y176945D01*
X337844Y178179D01*
X338596Y179586D01*
X339059Y181113D01*
X339216Y182701D01*
X339216Y182701D01*
Y276782D01*
X339059Y278370D01*
X338596Y279897D01*
X337844Y281304D01*
X336832Y282538D01*
X336832Y282538D01*
X272958Y346411D01*
X271725Y347424D01*
X270318Y348176D01*
X268791Y348639D01*
X268110Y348706D01*
X268094Y348715D01*
X256642Y350121D01*
X256479Y350076D01*
X256310Y350075D01*
X253400Y348843D01*
X253190Y349297D01*
X255999Y350717D01*
X256868Y350631D01*
X271890D01*
X342946Y279575D01*
Y173540D01*
X300720Y131314D01*
X300047D01*
Y132372D01*
X300341Y132811D01*
X300465Y133435D01*
X300341Y134059D01*
X299987Y134588D01*
X299458Y134942D01*
X298834Y135066D01*
X298209Y134942D01*
X297680Y134588D01*
X297326Y134059D01*
X297202Y133435D01*
X297326Y132811D01*
X297620Y132372D01*
Y131314D01*
X294153D01*
X293735Y131516D01*
X293735Y131515D01*
X293735Y131516D01*
X293735Y131516D01*
X293549Y131690D01*
X293549Y131838D01*
Y135440D01*
X291899D01*
Y138637D01*
X295295Y142032D01*
X295813Y142135D01*
X296342Y142489D01*
X296696Y143018D01*
X296820Y143642D01*
X296696Y144267D01*
X296342Y144796D01*
X295813Y145150D01*
X295189Y145274D01*
X294564Y145150D01*
X294035Y144796D01*
X293682Y144267D01*
X293579Y143749D01*
X289827Y139998D01*
X289564Y139604D01*
X289472Y139139D01*
X289472Y139139D01*
Y135440D01*
X287822D01*
Y131484D01*
X293134Y131484D01*
X293197Y131484D01*
X293323Y131216D01*
X293333Y130744D01*
X293300Y130665D01*
Y130440D01*
X287822D01*
Y126484D01*
X292838D01*
X293118Y126397D01*
X293268Y125873D01*
X293098Y125521D01*
X292838Y125440D01*
X287822D01*
Y121484D01*
X292838D01*
X293118Y121397D01*
X293268Y120873D01*
X293098Y120521D01*
X292838Y120440D01*
X287822D01*
Y116484D01*
X293014D01*
X293289Y116131D01*
X293312Y115989D01*
X293309Y115975D01*
X293389Y115508D01*
X293494Y115340D01*
X293570Y115158D01*
X293622Y115136D01*
X293653Y115087D01*
X293846Y115043D01*
X294029Y114967D01*
X302842D01*
X304134Y114840D01*
X305722Y114997D01*
X307248Y115460D01*
X308656Y116212D01*
X309889Y117224D01*
X310901Y118457D01*
X310920Y118493D01*
X356841Y164414D01*
X356841Y164414D01*
X357853Y165647D01*
X358605Y167054D01*
X359068Y168581D01*
X359225Y170169D01*
Y282946D01*
X359225Y282946D01*
X359068Y284534D01*
X358605Y286061D01*
X357853Y287468D01*
X356841Y288702D01*
X356841Y288702D01*
X293777Y351766D01*
X294023Y352226D01*
X294182Y352195D01*
X334567D01*
Y351135D01*
X339507D01*
Y352225D01*
X346844D01*
X346870Y352185D01*
X347459Y351792D01*
X348154Y351653D01*
X351501D01*
X352196Y351792D01*
X352785Y352185D01*
X353179Y352774D01*
X353317Y353469D01*
X353179Y354164D01*
X352785Y354753D01*
X352196Y355147D01*
X351501Y355285D01*
X348154D01*
X347459Y355147D01*
X346870Y354753D01*
X346803Y354653D01*
X339507D01*
Y355682D01*
X334567D01*
Y354623D01*
X294685D01*
X292301Y357006D01*
X292198Y357524D01*
X291844Y358053D01*
X291315Y358407D01*
X290691Y358531D01*
X290067Y358407D01*
X289537Y358053D01*
X289184Y357524D01*
X289108Y357142D01*
X288575Y356968D01*
X281017Y364526D01*
X279784Y365538D01*
X278377Y366290D01*
X276850Y366753D01*
X275262Y366910D01*
X275262Y366910D01*
X256868D01*
X256170Y366841D01*
X256035Y366872D01*
X255826Y366941D01*
D02*
G37*
G36*
X93642Y367172D02*
X93017Y367047D01*
X92578Y366754D01*
X75675D01*
X75674Y366754D01*
X75210Y366662D01*
X74816Y366399D01*
X74816Y366399D01*
X12629Y304212D01*
X12366Y303818D01*
X12274Y303353D01*
X12274Y303353D01*
Y36336D01*
X12274Y36336D01*
X12366Y35871D01*
X12629Y35478D01*
X38688Y9419D01*
X38688Y9419D01*
X39081Y9156D01*
X39546Y9064D01*
X188335D01*
X188335Y9064D01*
X188800Y9156D01*
X189193Y9419D01*
X194301Y14527D01*
X194301Y14527D01*
X194564Y14920D01*
X194656Y15385D01*
Y18878D01*
X204039D01*
Y17705D01*
X204039Y17705D01*
X204132Y17240D01*
X204395Y16846D01*
X211649Y9593D01*
X211649Y9593D01*
X212042Y9330D01*
X212507Y9237D01*
X252231D01*
X256210Y5257D01*
X256604Y4994D01*
X257069Y4902D01*
X257069Y4902D01*
X276948D01*
X276990Y4688D01*
X277344Y4159D01*
X277873Y3805D01*
X278497Y3681D01*
X279122Y3805D01*
X279651Y4159D01*
X280005Y4688D01*
X280129Y5312D01*
X280005Y5937D01*
X279651Y6466D01*
X279351Y6666D01*
X279503Y7166D01*
X282617D01*
X282617Y7166D01*
X283081Y7258D01*
X283475Y7521D01*
X285408Y9454D01*
X285408Y9454D01*
X285671Y9848D01*
X285764Y10312D01*
Y14398D01*
X286260Y14730D01*
X286784Y15514D01*
X286795Y15570D01*
X287304D01*
X287316Y15514D01*
X287840Y14730D01*
X288624Y14206D01*
X289550Y14021D01*
X290475Y14206D01*
X291260Y14730D01*
X291591Y15226D01*
X296034D01*
X296034Y15226D01*
X296499Y15318D01*
X296893Y15581D01*
X297375Y16063D01*
X298957D01*
Y15157D01*
X303504D01*
X303504Y19600D01*
X303790Y19766D01*
X304076Y19600D01*
Y15157D01*
X305135D01*
Y12072D01*
X304781Y11719D01*
X303633Y11719D01*
X303392Y12119D01*
X303322Y12119D01*
X303322Y12119D01*
X301605D01*
Y9150D01*
Y6182D01*
X303322D01*
X303322Y6182D01*
X303392D01*
X303633Y6582D01*
X303892Y6582D01*
X308307D01*
Y11719D01*
X307563D01*
Y15157D01*
X308622D01*
Y20097D01*
X307563D01*
Y21866D01*
X307563Y21866D01*
X307563Y21866D01*
Y23634D01*
X308622D01*
Y28574D01*
X307563D01*
Y32075D01*
X307563Y32075D01*
X307470Y32539D01*
X307207Y32933D01*
X306975Y33165D01*
X306872Y33683D01*
X306519Y34212D01*
X305990Y34566D01*
X305365Y34690D01*
X304741Y34566D01*
X304212Y34212D01*
X303858Y33683D01*
X303734Y33058D01*
X303858Y32434D01*
X304212Y31905D01*
X304741Y31551D01*
X305135Y31473D01*
Y28574D01*
X304076D01*
Y23634D01*
X305135D01*
Y22653D01*
X291921D01*
Y23811D01*
X287178D01*
Y23389D01*
X286678Y23219D01*
X286526Y23416D01*
X285947Y23860D01*
X285534Y24032D01*
Y21440D01*
X283565D01*
Y24032D01*
X283152Y23860D01*
X282573Y23416D01*
X282365Y23145D01*
X281734D01*
X281526Y23416D01*
X280947Y23860D01*
X280534Y24032D01*
Y21440D01*
X278565D01*
Y24032D01*
X278152Y23860D01*
X277573Y23416D01*
X277129Y22837D01*
X277106Y22783D01*
X276542Y22727D01*
X276259Y23149D01*
X275475Y23674D01*
X274550Y23858D01*
X273624Y23674D01*
X272840Y23149D01*
X272316Y22365D01*
X272305Y22309D01*
X271795D01*
X271784Y22365D01*
X271259Y23149D01*
X270475Y23674D01*
X269550Y23858D01*
X268624Y23674D01*
X267840Y23149D01*
X267630Y22835D01*
X267130Y22987D01*
Y23659D01*
X269667Y26196D01*
X295228D01*
X296178Y25246D01*
X296178Y25246D01*
X296572Y24983D01*
X297036Y24890D01*
X297036Y24890D01*
X298957D01*
Y23634D01*
X303504D01*
Y28574D01*
X298957D01*
Y27318D01*
X297539D01*
X296589Y28268D01*
X296195Y28531D01*
X295730Y28624D01*
X295730Y28624D01*
X269164D01*
X269164Y28624D01*
X268699Y28531D01*
X268305Y28268D01*
X268305Y28268D01*
X265058Y25020D01*
X264794Y24626D01*
X264702Y24162D01*
X264702Y24162D01*
Y19895D01*
X264702Y19895D01*
X264794Y19431D01*
X265058Y19037D01*
X265979Y18115D01*
X265788Y17653D01*
X263175D01*
X262907Y18153D01*
X263103Y18446D01*
X263227Y19070D01*
X263103Y19694D01*
X262749Y20223D01*
X262220Y20577D01*
X261595Y20701D01*
X260971Y20577D01*
X260442Y20223D01*
X260408Y20173D01*
X236467D01*
X236467Y20173D01*
X236002Y20080D01*
X235609Y19817D01*
X235609Y19817D01*
X234580Y18789D01*
X218340D01*
X218278Y18851D01*
Y22135D01*
X218255Y22253D01*
Y25393D01*
X186346D01*
Y22253D01*
X186323Y22135D01*
Y17539D01*
X185619Y16835D01*
X42262D01*
X20045Y39052D01*
Y300637D01*
X75934Y356526D01*
X92578D01*
X93017Y356233D01*
X93642Y356109D01*
X94266Y356233D01*
X94795Y356587D01*
X95149Y357116D01*
X95273Y357740D01*
X95149Y358365D01*
X94795Y358894D01*
Y359187D01*
X95149Y359716D01*
X95273Y360340D01*
X95149Y360964D01*
X94795Y361494D01*
Y361787D01*
X95149Y362316D01*
X95273Y362940D01*
X95149Y363564D01*
X94795Y364094D01*
Y364387D01*
X95149Y364916D01*
X95273Y365540D01*
X95149Y366164D01*
X94795Y366694D01*
X94266Y367047D01*
X93642Y367172D01*
D02*
G37*
G36*
X351501Y365285D02*
X348154D01*
X347459Y365147D01*
X346870Y364753D01*
X346477Y364164D01*
X346338Y363469D01*
X346477Y362774D01*
X346870Y362185D01*
X347459Y361791D01*
X348154Y361653D01*
X351501D01*
X352196Y361791D01*
X352785Y362185D01*
X353179Y362774D01*
X353317Y363469D01*
X353179Y364164D01*
X352785Y364753D01*
X352196Y365147D01*
X351501Y365285D01*
D02*
G37*
G36*
X152702Y367172D02*
X152078Y367047D01*
X151549Y366694D01*
X151195Y366164D01*
X151071Y365540D01*
X151195Y364916D01*
X151549Y364387D01*
Y364094D01*
X151195Y363564D01*
X151071Y362940D01*
X151195Y362316D01*
X151549Y361787D01*
Y361494D01*
X151195Y360964D01*
X151071Y360340D01*
X151195Y359716D01*
X151549Y359187D01*
Y358894D01*
X151195Y358365D01*
X151118Y357974D01*
X150592Y357893D01*
X150082Y358823D01*
X149911Y358961D01*
X149753Y359114D01*
X135580Y364772D01*
X134868Y365152D01*
X133862Y365458D01*
X133583Y365569D01*
X133526Y365568D01*
X133479Y365601D01*
X133423Y365591D01*
X133341Y365616D01*
X131754Y365772D01*
X114178D01*
X114178Y365772D01*
X112590Y365616D01*
X111063Y365152D01*
X109656Y364400D01*
X108422Y363388D01*
X40471Y295437D01*
X39459Y294203D01*
X38707Y292796D01*
X38244Y291269D01*
X38087Y289682D01*
X38087Y289682D01*
Y184944D01*
X38087Y184944D01*
X38244Y183356D01*
X38707Y181829D01*
X39459Y180422D01*
X40471Y179189D01*
X99394Y120266D01*
X100627Y119254D01*
X102034Y118502D01*
X103561Y118039D01*
X105149Y117882D01*
X105283Y117895D01*
X106509Y117817D01*
X106748Y117301D01*
X106600Y117080D01*
X106476Y116455D01*
X106600Y115831D01*
X106954Y115302D01*
X107483Y114948D01*
X108107Y114824D01*
X108731Y114948D01*
X109261Y115302D01*
X109614Y115831D01*
X109738Y116455D01*
X109614Y117080D01*
X109588Y117120D01*
X109866Y117603D01*
X114342Y117317D01*
X114326Y116817D01*
X112482D01*
X112017Y116724D01*
X111623Y116461D01*
X111623Y116461D01*
X108431Y113269D01*
X107913Y113166D01*
X107384Y112812D01*
X107030Y112283D01*
X106906Y111659D01*
X107030Y111035D01*
X107384Y110505D01*
X107913Y110152D01*
X108538Y110028D01*
X109162Y110152D01*
X109691Y110505D01*
X110045Y111035D01*
X110148Y111553D01*
X112984Y114389D01*
X115900D01*
Y113625D01*
X121627D01*
Y117581D01*
X116322D01*
X116190Y117758D01*
X116035Y118081D01*
X116068Y118199D01*
X116149Y118395D01*
Y118625D01*
X121627D01*
Y122581D01*
X116611D01*
X116149Y122725D01*
X116149Y122981D01*
X116149Y122981D01*
Y123225D01*
X116149Y123225D01*
Y123625D01*
X121627D01*
Y127581D01*
X116611D01*
X116149Y127725D01*
X116149Y127981D01*
X116149Y127981D01*
Y128225D01*
X116149Y128225D01*
Y128625D01*
X121627D01*
Y132581D01*
X115900D01*
X115900Y132581D01*
X115577Y132714D01*
X115350Y132797D01*
X115124Y132885D01*
X115118Y132882D01*
X115110Y132884D01*
X110016Y132665D01*
X54366Y188315D01*
Y286310D01*
X117549Y349494D01*
X131754D01*
X132546Y349572D01*
X139309Y347488D01*
X139212Y346998D01*
X124281Y348397D01*
X124175Y348365D01*
X124066Y348382D01*
X122829Y348080D01*
X122421Y348040D01*
X121416Y347735D01*
X120748Y347572D01*
X120691Y347529D01*
X120619Y347525D01*
X120496Y347387D01*
X120378Y347301D01*
X119487Y346824D01*
X118254Y345812D01*
X59006Y286564D01*
X57994Y285331D01*
X57242Y283924D01*
X56779Y282397D01*
X56622Y280809D01*
X56622Y280809D01*
Y213192D01*
X56622Y213191D01*
X56779Y211603D01*
X57242Y210077D01*
X57994Y208669D01*
X59006Y207436D01*
X101406Y165037D01*
X102639Y164024D01*
X104046Y163272D01*
X105573Y162809D01*
X107118Y162657D01*
Y160769D01*
X106825Y160330D01*
X106701Y159705D01*
X106825Y159081D01*
X107178Y158552D01*
X107708Y158198D01*
X108332Y158074D01*
X108956Y158198D01*
X109485Y158552D01*
X109839Y159081D01*
X109963Y159705D01*
X109839Y160330D01*
X109546Y160769D01*
Y161983D01*
X109923Y162311D01*
X115032Y161596D01*
X115056Y161602D01*
X115077Y161591D01*
X115293Y161663D01*
X115513Y161721D01*
X115900Y161932D01*
X121627D01*
Y165888D01*
X116611D01*
X116331Y165975D01*
X116181Y166499D01*
X116351Y166851D01*
X116611Y166932D01*
X121627D01*
Y170888D01*
X116611D01*
X116331Y170975D01*
X116181Y171499D01*
X116351Y171851D01*
X116611Y171932D01*
X121627D01*
Y175888D01*
X115985D01*
X115959Y175952D01*
X115951Y175956D01*
X115947Y175964D01*
X115585Y176308D01*
X115576Y176312D01*
X115572Y176320D01*
X115346Y176400D01*
X115121Y176487D01*
X115112Y176483D01*
X115104Y176486D01*
X113052Y176382D01*
X112916Y176547D01*
X72900Y216563D01*
Y277438D01*
X129764Y334301D01*
X130035Y334631D01*
X137232Y334758D01*
X137265Y334259D01*
X132732Y333740D01*
X132670Y333706D01*
X132599Y333711D01*
X132459Y333589D01*
X132297Y333499D01*
X132292Y333482D01*
X130853Y333045D01*
X129446Y332293D01*
X128213Y331281D01*
X78528Y281597D01*
X77516Y280363D01*
X76764Y278956D01*
X76301Y277429D01*
X76145Y275841D01*
X76145Y275841D01*
Y233601D01*
X76145Y233601D01*
X76301Y232013D01*
X76764Y230486D01*
X77516Y229079D01*
X78528Y227846D01*
X99713Y206662D01*
X100946Y205649D01*
X102353Y204897D01*
X103880Y204434D01*
X105468Y204278D01*
X107056Y204434D01*
X108100Y204751D01*
X108502Y204453D01*
Y203220D01*
X108209Y202781D01*
X108084Y202157D01*
X108209Y201533D01*
X108562Y201003D01*
X109091Y200650D01*
X109716Y200525D01*
X110340Y200650D01*
X110869Y201003D01*
X111223Y201533D01*
X111347Y202157D01*
X111223Y202781D01*
X110930Y203220D01*
Y204787D01*
X111299Y205124D01*
X115072Y204782D01*
X115087Y204787D01*
X115101Y204780D01*
X115322Y204860D01*
X115546Y204930D01*
X115568Y204949D01*
X115568Y204949D01*
X115569Y204950D01*
X115900Y205239D01*
X121627D01*
Y209195D01*
X116611D01*
X116331Y209282D01*
X116181Y209806D01*
X116351Y210158D01*
X116611Y210239D01*
X121627D01*
Y214195D01*
X116611D01*
X116331Y214282D01*
X116181Y214806D01*
X116351Y215158D01*
X116611Y215239D01*
X121627D01*
Y219195D01*
X116148D01*
X116058Y219412D01*
X115974Y219636D01*
X115512Y220130D01*
X115497Y220137D01*
X115491Y220151D01*
X115273Y220238D01*
X115059Y220335D01*
X115044Y220330D01*
X115029Y220336D01*
X109133Y220262D01*
X92423Y236972D01*
Y272470D01*
X139723Y319770D01*
X140227Y320384D01*
X140666Y320227D01*
X140727Y320170D01*
X140727Y316150D01*
X140813Y315943D01*
X140881Y315730D01*
X148367Y306888D01*
X148308Y306661D01*
X148049Y306396D01*
X144391D01*
Y304746D01*
X141034D01*
X141034Y304746D01*
X140569Y304654D01*
X140176Y304390D01*
X138616Y302831D01*
X138098Y302728D01*
X137569Y302374D01*
X137215Y301845D01*
X137091Y301220D01*
X137215Y300596D01*
X137569Y300067D01*
X138098Y299713D01*
X138722Y299589D01*
X139347Y299713D01*
X139876Y300067D01*
X140229Y300596D01*
X140332Y301114D01*
X141537Y302318D01*
X144391D01*
Y300668D01*
X148347D01*
Y305952D01*
X148350Y305956D01*
X148847Y306241D01*
X148852Y306239D01*
X149075Y306146D01*
X149391D01*
Y300668D01*
X153347D01*
Y305684D01*
X153491Y306146D01*
X153747Y306147D01*
X153747Y306147D01*
X153991D01*
X153991Y306146D01*
X154391D01*
Y300668D01*
X158347D01*
Y305684D01*
X158492Y306146D01*
X158747Y306147D01*
X158747Y306147D01*
X158991D01*
X158991Y306146D01*
X159391D01*
Y300668D01*
X163098D01*
Y300304D01*
X163192Y300076D01*
X163287Y299846D01*
X163288Y299845D01*
X163288Y299845D01*
X163516Y299750D01*
X163745Y299654D01*
X165568Y299649D01*
X165794Y299742D01*
X166020Y299830D01*
X166022Y299835D01*
X166028Y299838D01*
X166122Y300062D01*
X166219Y300285D01*
X166530Y315484D01*
X167033Y315650D01*
X167458Y315096D01*
X168571Y314241D01*
X169868Y313704D01*
X170276Y313650D01*
Y318898D01*
Y324145D01*
X169868Y324091D01*
X168571Y323554D01*
X167458Y322699D01*
X166604Y321586D01*
X166546Y321448D01*
X166169Y321345D01*
X165969Y321360D01*
X165876Y321473D01*
X165055Y321916D01*
X164910Y321931D01*
X164779Y321993D01*
X164673Y321955D01*
X164560Y321966D01*
X164448Y321875D01*
X164311Y321826D01*
X164154Y321684D01*
X163531Y321698D01*
X163501Y321716D01*
X162965Y322414D01*
X161935Y323205D01*
X160736Y323701D01*
X159449Y323871D01*
X158162Y323701D01*
X157081Y323254D01*
X156685Y323377D01*
X156508Y323487D01*
X156451Y323654D01*
X156351Y323766D01*
X156293Y323905D01*
X156193Y323945D01*
X156184Y323956D01*
X156154Y324048D01*
X156148Y324483D01*
X156150Y324525D01*
X157060Y325223D01*
X157850Y326254D01*
X158347Y327453D01*
X158517Y328740D01*
X158347Y330027D01*
X157850Y331227D01*
X157398Y331816D01*
X157455Y332361D01*
X157807Y332721D01*
X157886Y332918D01*
X157988Y333105D01*
X157976Y333144D01*
X157992Y333182D01*
X157908Y333378D01*
X157848Y333582D01*
X156111Y335737D01*
X156093Y335847D01*
X156224Y336393D01*
X157060Y337035D01*
X157850Y338065D01*
X158347Y339264D01*
X158517Y340551D01*
X158347Y341838D01*
X157850Y343038D01*
X157060Y344068D01*
X156030Y344858D01*
X155680Y345003D01*
X155540Y345602D01*
X155646Y345723D01*
X155700Y345885D01*
X155716Y345909D01*
X156280Y346106D01*
X156761Y345737D01*
X158057Y345200D01*
X158465Y345147D01*
Y349409D01*
X154202D01*
X154255Y349002D01*
X154533Y348332D01*
X154530Y348318D01*
X154475Y348188D01*
X154195Y347841D01*
X152239Y347548D01*
X151990Y348017D01*
X152442Y349107D01*
X152611Y350394D01*
X152442Y351681D01*
X151945Y352880D01*
X151601Y353328D01*
X151588Y353373D01*
X151632Y353879D01*
X152020Y354212D01*
X152104Y354378D01*
X152220Y354523D01*
X152213Y354593D01*
X152245Y354655D01*
X152187Y354832D01*
X152167Y355017D01*
X151687Y355893D01*
X152067Y356241D01*
X152078Y356233D01*
X152702Y356109D01*
X153327Y356233D01*
X153856Y356587D01*
X154210Y357116D01*
X154334Y357740D01*
X154210Y358365D01*
X153856Y358894D01*
Y359187D01*
X154210Y359716D01*
X154334Y360340D01*
X154210Y360964D01*
X153856Y361494D01*
Y361787D01*
X154210Y362316D01*
X154334Y362940D01*
X154210Y363564D01*
X153856Y364094D01*
Y364387D01*
X154210Y364916D01*
X154334Y365540D01*
X154210Y366164D01*
X153856Y366694D01*
X153327Y367047D01*
X152702Y367172D01*
D02*
G37*
G36*
X292253Y363608D02*
X291629Y363484D01*
X291100Y363130D01*
X290746Y362601D01*
X290622Y361977D01*
X290746Y361353D01*
X291100Y360823D01*
X291629Y360470D01*
X292146Y360367D01*
X294845Y357668D01*
X294845Y357668D01*
X295238Y357405D01*
X295703Y357313D01*
X295703Y357313D01*
X334567D01*
Y356254D01*
X339507D01*
Y357284D01*
X346804D01*
X346870Y357185D01*
X347459Y356791D01*
X348154Y356653D01*
X351501D01*
X352196Y356791D01*
X352785Y357185D01*
X353179Y357774D01*
X353317Y358469D01*
X353179Y359164D01*
X352785Y359753D01*
X352196Y360147D01*
X351501Y360285D01*
X348154D01*
X347459Y360147D01*
X346870Y359753D01*
X346843Y359712D01*
X339507D01*
Y360800D01*
X334567D01*
Y359741D01*
X296206D01*
X293863Y362083D01*
X293760Y362601D01*
X293407Y363130D01*
X292877Y363484D01*
X292253Y363608D01*
D02*
G37*
G36*
X372957Y355693D02*
X372269D01*
Y354453D01*
X374923D01*
X374530Y355042D01*
X373809Y355524D01*
X372957Y355693D01*
D02*
G37*
G36*
X370300D02*
X369611D01*
X368760Y355524D01*
X368039Y355042D01*
X367646Y354453D01*
X370300D01*
Y355693D01*
D02*
G37*
G36*
X160433Y355641D02*
Y351378D01*
X164696D01*
X164642Y351785D01*
X164105Y353082D01*
X163251Y354196D01*
X162137Y355050D01*
X160840Y355587D01*
X160433Y355641D01*
D02*
G37*
G36*
X158465D02*
X158057Y355587D01*
X156761Y355050D01*
X155647Y354196D01*
X154792Y353082D01*
X154255Y351785D01*
X154202Y351378D01*
X158465D01*
Y355641D01*
D02*
G37*
G36*
X374923Y352485D02*
X372269D01*
Y351245D01*
X372957D01*
X373809Y351415D01*
X374530Y351897D01*
X374923Y352485D01*
D02*
G37*
G36*
X370300D02*
X367646D01*
X368039Y351897D01*
X368760Y351415D01*
X369611Y351245D01*
X370300D01*
Y352485D01*
D02*
G37*
G36*
X351501Y350693D02*
X350812D01*
Y349453D01*
X353466D01*
X353073Y350042D01*
X352352Y350524D01*
X351501Y350693D01*
D02*
G37*
G36*
X348843D02*
X348154D01*
X347303Y350524D01*
X346582Y350042D01*
X346189Y349453D01*
X348843D01*
Y350693D01*
D02*
G37*
G36*
X372957Y365285D02*
X369611D01*
X368916Y365147D01*
X368327Y364753D01*
X367933Y364164D01*
X367795Y363469D01*
X367933Y362774D01*
X368327Y362185D01*
X368916Y361791D01*
X369611Y361653D01*
X372957D01*
X373652Y361791D01*
X374242Y362185D01*
X374289Y362255D01*
X376769D01*
X378237Y360788D01*
Y348380D01*
X377775Y348188D01*
X376636Y349328D01*
X376242Y349591D01*
X375778Y349683D01*
X375777Y349683D01*
X374289D01*
X374242Y349753D01*
X373652Y350147D01*
X372957Y350285D01*
X369611D01*
X368916Y350147D01*
X368327Y349753D01*
X367933Y349164D01*
X367795Y348469D01*
X367933Y347774D01*
X368327Y347185D01*
X368916Y346792D01*
X369611Y346653D01*
X372957D01*
X373652Y346792D01*
X374242Y347185D01*
X374289Y347255D01*
X375275D01*
X376651Y345879D01*
Y141433D01*
X376651Y141433D01*
X376743Y140968D01*
X377006Y140575D01*
X379696Y137884D01*
Y53507D01*
X370958Y44769D01*
X370391Y44749D01*
X369862Y45102D01*
X369238Y45226D01*
X368894Y45158D01*
X368648Y45619D01*
X372197Y49169D01*
X372197Y49169D01*
X372461Y49562D01*
X372553Y50027D01*
X372553Y50027D01*
Y52052D01*
X373612D01*
Y56992D01*
X372553D01*
Y62604D01*
X372553Y62604D01*
X372461Y63069D01*
X372197Y63463D01*
X372197Y63463D01*
X369689Y65971D01*
Y78478D01*
X369924Y78635D01*
X370187Y79029D01*
X370279Y79493D01*
Y85792D01*
X370187Y86257D01*
X369924Y86651D01*
X369530Y86914D01*
X369065Y87006D01*
X367884D01*
X367420Y86914D01*
X367026Y86651D01*
X366763Y86257D01*
X366671Y85792D01*
Y79493D01*
X366763Y79029D01*
X367026Y78635D01*
X367261Y78478D01*
Y65469D01*
X367261Y65469D01*
X367354Y65004D01*
X367617Y64610D01*
X370125Y62102D01*
Y57345D01*
X369772Y56992D01*
X369135Y56992D01*
X368894Y57392D01*
X368824Y57392D01*
X368824Y57392D01*
X367205D01*
Y54522D01*
Y51652D01*
X368824D01*
X368824Y51652D01*
X368894D01*
X369135Y52052D01*
X369394Y52052D01*
X370125D01*
Y50530D01*
X358266Y38671D01*
X351500D01*
X351308Y39132D01*
X360370Y48194D01*
X360633Y48588D01*
X360726Y49053D01*
X360726Y49053D01*
Y52052D01*
X361785D01*
Y56992D01*
X360726D01*
Y59926D01*
X360726Y59926D01*
X360633Y60391D01*
X360370Y60785D01*
X360370Y60785D01*
X359808Y61347D01*
Y78558D01*
X359924Y78635D01*
X360187Y79029D01*
X360279Y79493D01*
Y85792D01*
X360187Y86257D01*
X359924Y86651D01*
X359530Y86914D01*
X359066Y87006D01*
X357885D01*
X357420Y86914D01*
X357026Y86651D01*
X356763Y86257D01*
X356671Y85792D01*
Y79493D01*
X356763Y79029D01*
X357026Y78635D01*
X357380Y78398D01*
Y60844D01*
X357380Y60844D01*
X357473Y60379D01*
X357736Y59986D01*
X358298Y59424D01*
Y57345D01*
X357944Y56992D01*
X357308Y56992D01*
X357067Y57392D01*
X356997Y57392D01*
X356997Y57392D01*
X355378D01*
Y54522D01*
Y51652D01*
X356997D01*
X356997Y51652D01*
X357067D01*
X357308Y52052D01*
X357567Y52052D01*
X358298D01*
Y49556D01*
X349194Y40452D01*
X340901D01*
X340710Y40914D01*
X348543Y48746D01*
X348806Y49140D01*
X348898Y49605D01*
X348898Y49605D01*
Y52052D01*
X349958D01*
Y56992D01*
X348898D01*
Y60099D01*
X349501Y60702D01*
X349501Y60702D01*
X349764Y61096D01*
X349857Y61560D01*
Y78590D01*
X349924Y78635D01*
X350187Y79029D01*
X350279Y79493D01*
Y85792D01*
X350187Y86257D01*
X349924Y86651D01*
X349530Y86914D01*
X349065Y87006D01*
X347884D01*
X347420Y86914D01*
X347026Y86651D01*
X346763Y86257D01*
X346671Y85792D01*
Y79493D01*
X346763Y79029D01*
X347026Y78635D01*
X347420Y78372D01*
X347429Y78370D01*
Y62063D01*
X346826Y61460D01*
X346563Y61066D01*
X346470Y60602D01*
X346470Y60602D01*
Y57345D01*
X346117Y56992D01*
X345481Y56992D01*
X345239Y57392D01*
X345170Y57392D01*
X345170Y57392D01*
X343550D01*
Y54522D01*
Y51652D01*
X345170D01*
X345170Y51652D01*
X345239D01*
X345481Y52052D01*
X345740Y52052D01*
X346470D01*
Y50108D01*
X338596Y42233D01*
X335229D01*
X335038Y42695D01*
X337380Y45036D01*
X337380Y45037D01*
X337643Y45430D01*
X337735Y45895D01*
X337735Y45895D01*
Y52052D01*
X338130D01*
Y56992D01*
X337071D01*
Y58419D01*
X339333Y60681D01*
X339333Y60681D01*
X339597Y61075D01*
X339689Y61540D01*
Y78478D01*
X339924Y78635D01*
X340187Y79029D01*
X340279Y79493D01*
Y85792D01*
X340187Y86257D01*
X339924Y86651D01*
X339530Y86914D01*
X339066Y87006D01*
X337884D01*
X337420Y86914D01*
X337026Y86651D01*
X336763Y86257D01*
X336671Y85792D01*
Y79493D01*
X336763Y79029D01*
X337026Y78635D01*
X337261Y78478D01*
Y68977D01*
X337072Y68789D01*
X336600Y69024D01*
Y73469D01*
X334689D01*
Y78478D01*
X334924Y78635D01*
X335187Y79029D01*
X335279Y79493D01*
Y85792D01*
X335187Y86257D01*
X334924Y86651D01*
X334530Y86914D01*
X334066Y87006D01*
X332885D01*
X332420Y86914D01*
X332026Y86651D01*
X331763Y86257D01*
X331671Y85792D01*
Y79493D01*
X331763Y79029D01*
X332026Y78635D01*
X332261Y78478D01*
Y73469D01*
X331463D01*
X331463Y68795D01*
X331063Y68554D01*
X331063Y68484D01*
X331063Y68484D01*
Y66766D01*
X334031D01*
Y65782D01*
X335015D01*
Y63010D01*
X336761D01*
X337000Y63010D01*
X337261Y62619D01*
Y62042D01*
X334999Y59780D01*
X334736Y59386D01*
X334643Y58922D01*
X334643Y58922D01*
Y57345D01*
X334290Y56992D01*
X333654Y56992D01*
X333412Y57392D01*
X333342Y57392D01*
X333342Y57392D01*
X331723D01*
Y54522D01*
Y51652D01*
X333342D01*
X333342Y51652D01*
X333412D01*
X333654Y52052D01*
X333912Y52052D01*
X335308D01*
Y48063D01*
X334808Y47958D01*
X334525Y48380D01*
X333996Y48734D01*
X333372Y48858D01*
X332748Y48734D01*
X332218Y48380D01*
X331865Y47851D01*
X331762Y47333D01*
X330224Y45795D01*
X329721D01*
X329501Y46295D01*
X329610Y46843D01*
X329486Y47468D01*
X329132Y47997D01*
X328603Y48351D01*
X327978Y48475D01*
X327354Y48351D01*
X326825Y47997D01*
X326544Y47576D01*
X269943D01*
X269943Y47576D01*
X269478Y47484D01*
X269085Y47221D01*
X257442Y35578D01*
X237912D01*
X235289Y38201D01*
X235608Y38589D01*
X235773Y38479D01*
X236237Y38387D01*
X237582D01*
Y37032D01*
X242255Y37032D01*
X242497Y36632D01*
X242566Y36632D01*
X242566Y36632D01*
X244284D01*
Y39601D01*
Y42569D01*
X242566D01*
X242566Y42569D01*
X242497D01*
X242255Y42169D01*
X241997Y42169D01*
X237582D01*
Y40814D01*
X236740D01*
X234876Y42679D01*
X234587Y42871D01*
X234431Y43423D01*
X236161Y45153D01*
X237582D01*
Y43798D01*
X242255Y43798D01*
X242497Y43398D01*
X242566Y43398D01*
X242566Y43398D01*
X244284D01*
Y46367D01*
Y49335D01*
X242566D01*
X242566Y49335D01*
X242497D01*
X242255Y48935D01*
X241997Y48935D01*
X237582D01*
Y47581D01*
X235659D01*
X235194Y47488D01*
X234800Y47225D01*
X234800Y47225D01*
X232578Y45003D01*
X232018D01*
X231826Y45465D01*
X234494Y48133D01*
X234494Y48133D01*
X234758Y48526D01*
X234850Y48991D01*
X234850Y48991D01*
Y50743D01*
X236027Y51919D01*
X237582D01*
Y50565D01*
X242255Y50565D01*
X242497Y50165D01*
X242566Y50165D01*
X242566Y50165D01*
X244284D01*
Y53133D01*
Y56102D01*
X242566D01*
X242566Y56102D01*
X242497D01*
X242255Y55702D01*
X241997Y55702D01*
X241167D01*
Y58794D01*
X247435D01*
X256463Y49766D01*
X256463Y49766D01*
X256857Y49503D01*
X257321Y49411D01*
X302650D01*
X303089Y49117D01*
X303714Y48993D01*
X304338Y49117D01*
X304867Y49471D01*
X305221Y50000D01*
X305345Y50625D01*
X305221Y51249D01*
X304867Y51778D01*
X304338Y52132D01*
X303714Y52256D01*
X303089Y52132D01*
X302650Y51838D01*
X257824D01*
X248796Y60866D01*
X248402Y61129D01*
X247938Y61222D01*
X247938Y61222D01*
X240645D01*
X240645Y61222D01*
X240181Y61129D01*
X239787Y60866D01*
X239787Y60866D01*
X239095Y60175D01*
X238832Y59781D01*
X238739Y59316D01*
X238740Y59316D01*
Y55702D01*
X237582D01*
Y54347D01*
X235524D01*
X235059Y54255D01*
X234666Y53992D01*
X234665Y53992D01*
X232778Y52104D01*
X232515Y51710D01*
X232422Y51245D01*
X232422Y51245D01*
Y49494D01*
X229900Y46971D01*
X228596D01*
Y49316D01*
X228196D01*
Y52441D01*
Y56378D01*
Y60727D01*
X221681D01*
Y58346D01*
Y54409D01*
Y49316D01*
X221281D01*
Y46971D01*
X219343D01*
X218879Y46879D01*
X218485Y46616D01*
X218485Y46616D01*
X216872Y45003D01*
X183320D01*
Y47348D01*
X182920D01*
Y52441D01*
Y56378D01*
Y60727D01*
X179780D01*
X179663Y60751D01*
X175878D01*
X175550Y60685D01*
X173121D01*
X173044Y60762D01*
X172996Y61003D01*
X172642Y61532D01*
X172113Y61886D01*
X171489Y62010D01*
X170865Y61886D01*
X170335Y61532D01*
X169982Y61003D01*
X169877Y60477D01*
X169809Y60349D01*
X169403Y60100D01*
X169027Y60175D01*
X168402Y60051D01*
X167873Y59697D01*
X167645Y59356D01*
X167623Y59348D01*
X167087Y59360D01*
X166846Y59720D01*
X166316Y60074D01*
X165692Y60198D01*
X165068Y60074D01*
X164539Y59720D01*
X164185Y59191D01*
X164061Y58567D01*
X164185Y57942D01*
X164539Y57413D01*
X165068Y57060D01*
X165586Y56957D01*
X167137Y55406D01*
X166945Y54944D01*
X165612D01*
X165612Y54944D01*
X165231Y54868D01*
X164952Y54923D01*
X164328Y54799D01*
X163799Y54445D01*
X163445Y53916D01*
X163321Y53292D01*
X163445Y52668D01*
X163799Y52138D01*
X164328Y51785D01*
X164952Y51661D01*
X165089Y51688D01*
X165515Y51263D01*
X165487Y51122D01*
X165582Y50647D01*
X165311Y50302D01*
X165282Y50283D01*
X165104Y50323D01*
X164750Y50852D01*
X164221Y51206D01*
X163596Y51330D01*
X162972Y51206D01*
X162443Y50852D01*
X162089Y50323D01*
X161965Y49698D01*
X162089Y49074D01*
X162443Y48545D01*
X162972Y48191D01*
X163596Y48067D01*
X163710Y48090D01*
X164052Y47748D01*
X164052Y47748D01*
X164445Y47485D01*
X164910Y47393D01*
X169384D01*
X169385Y47393D01*
X169741Y47464D01*
X169779Y47460D01*
X170116Y47283D01*
X170272Y47166D01*
X170347Y46788D01*
X170701Y46258D01*
X171230Y45905D01*
X171854Y45781D01*
X172478Y45905D01*
X172917Y46198D01*
X175609D01*
X175609Y46198D01*
X175619Y46200D01*
X176005Y45883D01*
Y45003D01*
X174125D01*
X173660Y44910D01*
X173266Y44647D01*
X173266Y44647D01*
X172688Y44069D01*
X170015D01*
Y45424D01*
X165342Y45424D01*
X165100Y45824D01*
X165030Y45824D01*
X165030Y45824D01*
X163313D01*
Y42855D01*
Y39887D01*
X165030D01*
X165030Y39887D01*
X165100D01*
X165342Y40287D01*
X165600Y40287D01*
X166430D01*
Y38222D01*
X156462D01*
X151887Y42796D01*
Y72739D01*
X154937D01*
Y70999D01*
X157905D01*
X160874D01*
Y72786D01*
X160474Y72958D01*
Y75161D01*
X160496Y75330D01*
X160474Y75498D01*
Y77701D01*
X158891D01*
X158576Y77832D01*
X157905Y77920D01*
X147196D01*
Y79664D01*
X138122D01*
Y78702D01*
X132073D01*
Y88021D01*
X135968Y91916D01*
X136362Y92505D01*
X136500Y93200D01*
X136362Y93895D01*
X135968Y94484D01*
X135379Y94877D01*
X134684Y95016D01*
X133989Y94877D01*
X133400Y94484D01*
X128973Y90057D01*
X128580Y89468D01*
X128442Y88773D01*
Y78702D01*
X122393D01*
Y84192D01*
X113319D01*
Y68032D01*
X122393D01*
Y73521D01*
X138122D01*
Y72559D01*
X147196D01*
Y72739D01*
X149459D01*
Y42294D01*
X149459Y42294D01*
X149552Y41829D01*
X149815Y41435D01*
X154347Y36903D01*
X154156Y36441D01*
X122850D01*
X122353Y36938D01*
X122250Y37456D01*
X121896Y37985D01*
X121367Y38339D01*
X120742Y38463D01*
X120118Y38339D01*
X119589Y37985D01*
X119235Y37456D01*
X119150Y37025D01*
X118908Y36963D01*
X118629Y36972D01*
X118322Y37433D01*
X117792Y37787D01*
X117168Y37911D01*
X116544Y37787D01*
X116015Y37433D01*
X115661Y36904D01*
X115560Y36397D01*
X115215Y36241D01*
X115204Y36237D01*
X115053Y36218D01*
X114569Y36542D01*
X113945Y36666D01*
X113321Y36542D01*
X112792Y36188D01*
X112438Y35659D01*
X112314Y35034D01*
X112358Y34812D01*
X112267Y34356D01*
X111995Y34269D01*
X111636Y34198D01*
X111107Y33844D01*
X110753Y33315D01*
X110629Y32690D01*
X110753Y32066D01*
X111107Y31537D01*
X111636Y31183D01*
X112154Y31080D01*
X114209Y29025D01*
X114209Y29025D01*
X114603Y28762D01*
X115067Y28670D01*
X172288D01*
X172288Y28670D01*
X172752Y28762D01*
X173146Y29025D01*
X174885Y30764D01*
X176405D01*
Y28819D01*
X182920D01*
Y30787D01*
Y34724D01*
Y38661D01*
Y42575D01*
X216872D01*
X218485Y40962D01*
X218879Y40699D01*
X219343Y40606D01*
X219343Y40606D01*
X221681D01*
Y36693D01*
Y32756D01*
Y28819D01*
X224821D01*
X224938Y28795D01*
X228667D01*
X232862Y24601D01*
X233256Y24338D01*
X233720Y24245D01*
X233720Y24245D01*
X261634D01*
X261634Y24245D01*
X262098Y24338D01*
X262492Y24601D01*
X274134Y36243D01*
X358769D01*
X358769Y36243D01*
X359233Y36335D01*
X359627Y36598D01*
X367214Y44185D01*
X367675Y43939D01*
X367606Y43595D01*
X367707Y43088D01*
X367484Y42767D01*
X367343Y42650D01*
X367337Y42652D01*
X366713Y42527D01*
X366184Y42174D01*
X365830Y41645D01*
X365706Y41020D01*
X365830Y40396D01*
X366184Y39867D01*
X366713Y39513D01*
X367337Y39389D01*
X367962Y39513D01*
X368262Y39714D01*
X371353D01*
X371353Y39714D01*
X371818Y39807D01*
X372212Y40070D01*
X383550Y51408D01*
X383550Y51408D01*
X383813Y51802D01*
X383905Y52266D01*
X383905Y52266D01*
Y139125D01*
X383905Y139125D01*
X383813Y139590D01*
X383550Y139983D01*
X383550Y139983D01*
X380860Y142673D01*
Y347120D01*
X380767Y347584D01*
X380665Y347738D01*
Y361290D01*
X380665Y361290D01*
X380572Y361755D01*
X380309Y362149D01*
X378130Y364328D01*
X377736Y364591D01*
X377272Y364683D01*
X377272Y364683D01*
X374289D01*
X374242Y364753D01*
X373652Y365147D01*
X372957Y365285D01*
D02*
G37*
G36*
X353466Y347485D02*
X350812D01*
Y346245D01*
X351501D01*
X352352Y346415D01*
X353073Y346897D01*
X353466Y347485D01*
D02*
G37*
G36*
X348843D02*
X346189D01*
X346582Y346897D01*
X347303Y346415D01*
X348154Y346245D01*
X348843D01*
Y347485D01*
D02*
G37*
G36*
X218504Y355367D02*
X217217Y355198D01*
X216017Y354701D01*
X214987Y353910D01*
X214197Y352880D01*
X213700Y351681D01*
X213531Y350394D01*
X213700Y349107D01*
X214197Y347907D01*
X214987Y346877D01*
X216017Y346087D01*
X217217Y345590D01*
X218504Y345420D01*
X219791Y345590D01*
X220991Y346087D01*
X222021Y346877D01*
X222811Y347907D01*
X223308Y349107D01*
X223477Y350394D01*
X223308Y351681D01*
X222811Y352880D01*
X222021Y353910D01*
X220991Y354701D01*
X219791Y355198D01*
X218504Y355367D01*
D02*
G37*
G36*
X206693D02*
X205406Y355198D01*
X204206Y354701D01*
X203176Y353910D01*
X202386Y352880D01*
X201889Y351681D01*
X201720Y350394D01*
X201889Y349107D01*
X202386Y347907D01*
X203176Y346877D01*
X204206Y346087D01*
X205406Y345590D01*
X206693Y345420D01*
X207980Y345590D01*
X209179Y346087D01*
X210209Y346877D01*
X211000Y347907D01*
X211497Y349107D01*
X211666Y350394D01*
X211497Y351681D01*
X211000Y352880D01*
X210209Y353910D01*
X209179Y354701D01*
X207980Y355198D01*
X206693Y355367D01*
D02*
G37*
G36*
X194882D02*
X193595Y355198D01*
X192395Y354701D01*
X191365Y353910D01*
X190575Y352880D01*
X190078Y351681D01*
X189909Y350394D01*
X190078Y349107D01*
X190575Y347907D01*
X191365Y346877D01*
X192395Y346087D01*
X193595Y345590D01*
X194882Y345420D01*
X196169Y345590D01*
X197369Y346087D01*
X198398Y346877D01*
X199189Y347907D01*
X199686Y349107D01*
X199855Y350394D01*
X199686Y351681D01*
X199189Y352880D01*
X198398Y353910D01*
X197369Y354701D01*
X196169Y355198D01*
X194882Y355367D01*
D02*
G37*
G36*
X183071D02*
X181784Y355198D01*
X180584Y354701D01*
X179554Y353910D01*
X178764Y352880D01*
X178267Y351681D01*
X178098Y350394D01*
X178267Y349107D01*
X178764Y347907D01*
X179554Y346877D01*
X180584Y346087D01*
X181784Y345590D01*
X183071Y345420D01*
X184358Y345590D01*
X185557Y346087D01*
X186588Y346877D01*
X187378Y347907D01*
X187875Y349107D01*
X188044Y350394D01*
X187875Y351681D01*
X187378Y352880D01*
X186588Y353910D01*
X185557Y354701D01*
X184358Y355198D01*
X183071Y355367D01*
D02*
G37*
G36*
X171260D02*
X169973Y355198D01*
X168773Y354701D01*
X167743Y353910D01*
X166953Y352880D01*
X166456Y351681D01*
X166287Y350394D01*
X166456Y349107D01*
X166953Y347907D01*
X167743Y346877D01*
X168773Y346087D01*
X169973Y345590D01*
X171260Y345420D01*
X172547Y345590D01*
X173747Y346087D01*
X174776Y346877D01*
X175567Y347907D01*
X176064Y349107D01*
X176233Y350394D01*
X176064Y351681D01*
X175567Y352880D01*
X174776Y353910D01*
X173747Y354701D01*
X172547Y355198D01*
X171260Y355367D01*
D02*
G37*
G36*
X164696Y349409D02*
X160433D01*
Y345147D01*
X160840Y345200D01*
X162137Y345737D01*
X163251Y346592D01*
X164105Y347705D01*
X164642Y349002D01*
X164696Y349409D01*
D02*
G37*
G36*
X201772Y345798D02*
Y341535D01*
X206034D01*
X205981Y341943D01*
X205444Y343239D01*
X204589Y344353D01*
X203476Y345208D01*
X202179Y345745D01*
X201772Y345798D01*
D02*
G37*
G36*
X178150D02*
Y341535D01*
X182413D01*
X182359Y341943D01*
X181822Y343239D01*
X180967Y344353D01*
X179854Y345208D01*
X178557Y345745D01*
X178150Y345798D01*
D02*
G37*
G36*
X225394D02*
Y341535D01*
X229657D01*
X229603Y341943D01*
X229066Y343239D01*
X228211Y344353D01*
X227098Y345208D01*
X225801Y345745D01*
X225394Y345798D01*
D02*
G37*
G36*
X166339D02*
Y341535D01*
X170601D01*
X170548Y341943D01*
X170011Y343239D01*
X169156Y344353D01*
X168043Y345208D01*
X166746Y345745D01*
X166339Y345798D01*
D02*
G37*
G36*
X189961D02*
Y341535D01*
X194223D01*
X194170Y341943D01*
X193633Y343239D01*
X192778Y344353D01*
X191665Y345208D01*
X190368Y345745D01*
X189961Y345798D01*
D02*
G37*
G36*
X213583D02*
Y341535D01*
X217846D01*
X217792Y341943D01*
X217255Y343239D01*
X216400Y344353D01*
X215287Y345208D01*
X213990Y345745D01*
X213583Y345798D01*
D02*
G37*
G36*
X187992D02*
X187585Y345745D01*
X186288Y345208D01*
X185175Y344353D01*
X184320Y343239D01*
X183783Y341943D01*
X183729Y341535D01*
X187992D01*
Y345798D01*
D02*
G37*
G36*
X211614D02*
X211207Y345745D01*
X209910Y345208D01*
X208797Y344353D01*
X207942Y343239D01*
X207405Y341943D01*
X207351Y341535D01*
X211614D01*
Y345798D01*
D02*
G37*
G36*
X176181D02*
X175774Y345745D01*
X174477Y345208D01*
X173363Y344353D01*
X172509Y343239D01*
X171972Y341943D01*
X171918Y341535D01*
X176181D01*
Y345798D01*
D02*
G37*
G36*
X223425D02*
X223018Y345745D01*
X221721Y345208D01*
X220607Y344353D01*
X219753Y343239D01*
X219216Y341943D01*
X219162Y341535D01*
X223425D01*
Y345798D01*
D02*
G37*
G36*
X164370D02*
X163963Y345745D01*
X162666Y345208D01*
X161552Y344353D01*
X160698Y343239D01*
X160161Y341943D01*
X160107Y341535D01*
X164370D01*
Y345798D01*
D02*
G37*
G36*
X199803D02*
X199396Y345745D01*
X198099Y345208D01*
X196985Y344353D01*
X196131Y343239D01*
X195594Y341943D01*
X195540Y341535D01*
X199803D01*
Y345798D01*
D02*
G37*
G36*
X206034Y339567D02*
X201772D01*
Y335304D01*
X202179Y335358D01*
X203476Y335895D01*
X204589Y336749D01*
X205444Y337863D01*
X205981Y339160D01*
X206034Y339567D01*
D02*
G37*
G36*
X211614D02*
X207351D01*
X207405Y339160D01*
X207942Y337863D01*
X208797Y336749D01*
X209910Y335895D01*
X211207Y335358D01*
X211614Y335304D01*
Y339567D01*
D02*
G37*
G36*
X187992D02*
X183729D01*
X183783Y339160D01*
X184320Y337863D01*
X185175Y336749D01*
X186288Y335895D01*
X187585Y335358D01*
X187992Y335304D01*
Y339567D01*
D02*
G37*
G36*
X229657D02*
X225394D01*
Y335304D01*
X225801Y335358D01*
X227098Y335895D01*
X228211Y336749D01*
X229066Y337863D01*
X229603Y339160D01*
X229657Y339567D01*
D02*
G37*
G36*
X182413D02*
X178150D01*
Y335304D01*
X178557Y335358D01*
X179854Y335895D01*
X180967Y336749D01*
X181822Y337863D01*
X182359Y339160D01*
X182413Y339567D01*
D02*
G37*
G36*
X170601D02*
X166339D01*
Y335304D01*
X166746Y335358D01*
X168043Y335895D01*
X169156Y336749D01*
X170011Y337863D01*
X170548Y339160D01*
X170601Y339567D01*
D02*
G37*
G36*
X223425D02*
X219162D01*
X219216Y339160D01*
X219753Y337863D01*
X220607Y336749D01*
X221721Y335895D01*
X223018Y335358D01*
X223425Y335304D01*
Y339567D01*
D02*
G37*
G36*
X176181D02*
X171918D01*
X171972Y339160D01*
X172509Y337863D01*
X173363Y336749D01*
X174477Y335895D01*
X175774Y335358D01*
X176181Y335304D01*
Y339567D01*
D02*
G37*
G36*
X164370D02*
X160107D01*
X160161Y339160D01*
X160698Y337863D01*
X161552Y336749D01*
X162666Y335895D01*
X163963Y335358D01*
X164370Y335304D01*
Y339567D01*
D02*
G37*
G36*
X217846D02*
X213583D01*
Y335304D01*
X213990Y335358D01*
X215287Y335895D01*
X216400Y336749D01*
X217255Y337863D01*
X217792Y339160D01*
X217846Y339567D01*
D02*
G37*
G36*
X194223D02*
X189961D01*
Y335304D01*
X190368Y335358D01*
X191665Y335895D01*
X192778Y336749D01*
X193633Y337863D01*
X194170Y339160D01*
X194223Y339567D01*
D02*
G37*
G36*
X199803D02*
X195540D01*
X195594Y339160D01*
X196131Y337863D01*
X196985Y336749D01*
X198099Y335895D01*
X199396Y335358D01*
X199803Y335304D01*
Y339567D01*
D02*
G37*
G36*
X201772Y333987D02*
Y329724D01*
X206034D01*
X205981Y330132D01*
X205444Y331429D01*
X204589Y332542D01*
X203476Y333397D01*
X202179Y333934D01*
X201772Y333987D01*
D02*
G37*
G36*
X178150D02*
Y329724D01*
X182413D01*
X182359Y330132D01*
X181822Y331429D01*
X180967Y332542D01*
X179854Y333397D01*
X178557Y333934D01*
X178150Y333987D01*
D02*
G37*
G36*
X225394D02*
Y329724D01*
X229657D01*
X229603Y330132D01*
X229066Y331429D01*
X228211Y332542D01*
X227098Y333397D01*
X225801Y333934D01*
X225394Y333987D01*
D02*
G37*
G36*
X166339D02*
Y329724D01*
X170601D01*
X170548Y330132D01*
X170011Y331429D01*
X169156Y332542D01*
X168043Y333397D01*
X166746Y333934D01*
X166339Y333987D01*
D02*
G37*
G36*
X189961D02*
Y329724D01*
X194223D01*
X194170Y330132D01*
X193633Y331429D01*
X192778Y332542D01*
X191665Y333397D01*
X190368Y333934D01*
X189961Y333987D01*
D02*
G37*
G36*
X213583D02*
Y329724D01*
X217846D01*
X217792Y330132D01*
X217255Y331429D01*
X216400Y332542D01*
X215287Y333397D01*
X213990Y333934D01*
X213583Y333987D01*
D02*
G37*
G36*
X187992D02*
X187585Y333934D01*
X186288Y333397D01*
X185175Y332542D01*
X184320Y331429D01*
X183783Y330132D01*
X183729Y329724D01*
X187992D01*
Y333987D01*
D02*
G37*
G36*
X211614D02*
X211207Y333934D01*
X209910Y333397D01*
X208797Y332542D01*
X207942Y331429D01*
X207405Y330132D01*
X207351Y329724D01*
X211614D01*
Y333987D01*
D02*
G37*
G36*
X176181D02*
X175774Y333934D01*
X174477Y333397D01*
X173363Y332542D01*
X172509Y331429D01*
X171972Y330132D01*
X171918Y329724D01*
X176181D01*
Y333987D01*
D02*
G37*
G36*
X223425D02*
X223018Y333934D01*
X221721Y333397D01*
X220607Y332542D01*
X219753Y331429D01*
X219216Y330132D01*
X219162Y329724D01*
X223425D01*
Y333987D01*
D02*
G37*
G36*
X164370D02*
X163963Y333934D01*
X162666Y333397D01*
X161552Y332542D01*
X160698Y331429D01*
X160161Y330132D01*
X160107Y329724D01*
X164370D01*
Y333987D01*
D02*
G37*
G36*
X199803D02*
X199396Y333934D01*
X198099Y333397D01*
X196985Y332542D01*
X196131Y331429D01*
X195594Y330132D01*
X195540Y329724D01*
X199803D01*
Y333987D01*
D02*
G37*
G36*
X182413Y327756D02*
X178150D01*
Y323493D01*
X178557Y323547D01*
X179854Y324084D01*
X180967Y324938D01*
X181822Y326052D01*
X182359Y327349D01*
X182413Y327756D01*
D02*
G37*
G36*
X170601D02*
X166339D01*
Y323493D01*
X166746Y323547D01*
X168043Y324084D01*
X169156Y324938D01*
X170011Y326052D01*
X170548Y327349D01*
X170601Y327756D01*
D02*
G37*
G36*
X176181D02*
X171918D01*
X171972Y327349D01*
X172509Y326052D01*
X173363Y324938D01*
X174477Y324084D01*
X175774Y323547D01*
X176181Y323493D01*
Y327756D01*
D02*
G37*
G36*
X164370D02*
X160107D01*
X160161Y327349D01*
X160698Y326052D01*
X161552Y324938D01*
X162666Y324084D01*
X163963Y323547D01*
X164370Y323493D01*
Y327756D01*
D02*
G37*
G36*
X172244Y324145D02*
Y319882D01*
X176507D01*
X176453Y320289D01*
X175916Y321586D01*
X175062Y322699D01*
X173948Y323554D01*
X172651Y324091D01*
X172244Y324145D01*
D02*
G37*
G36*
X176507Y317913D02*
X172244D01*
Y313650D01*
X172651Y313704D01*
X173948Y314241D01*
X175062Y315096D01*
X175916Y316209D01*
X176453Y317506D01*
X176507Y317913D01*
D02*
G37*
G36*
X163721Y297439D02*
X144017D01*
Y278129D01*
X149309D01*
Y275314D01*
X148183D01*
Y273565D01*
X145319D01*
X145168Y273791D01*
X144639Y274145D01*
X144014Y274269D01*
X143390Y274145D01*
X142861Y273791D01*
X142507Y273262D01*
X142383Y272638D01*
X142507Y272013D01*
X142861Y271484D01*
X143390Y271130D01*
X144014Y271006D01*
X144639Y271130D01*
X144649Y271138D01*
X148183D01*
Y269389D01*
X150451D01*
X150649Y269131D01*
X150665Y269116D01*
X151613Y268389D01*
X152717Y267931D01*
X153901Y267775D01*
X155085Y267931D01*
X156189Y268389D01*
X157137Y269116D01*
X157347Y269389D01*
X159619D01*
Y275314D01*
X158461D01*
Y278129D01*
X163721D01*
Y297439D01*
D02*
G37*
G36*
X247613D02*
X227909D01*
Y278129D01*
X228055D01*
X228176Y277952D01*
X228276Y277629D01*
X227982Y277188D01*
X227858Y276564D01*
X227982Y275939D01*
X228335Y275410D01*
X228865Y275056D01*
X229489Y274932D01*
X230113Y275056D01*
X230318Y275193D01*
X230790D01*
X232229Y273754D01*
Y269546D01*
X234502D01*
X234712Y269272D01*
X235659Y268545D01*
X236763Y268088D01*
X237947Y267932D01*
X239132Y268088D01*
X240235Y268545D01*
X241183Y269272D01*
X241393Y269546D01*
X243666D01*
Y275470D01*
X242524D01*
Y278129D01*
X247613D01*
Y297439D01*
D02*
G37*
G36*
X287803Y277818D02*
X287691Y277796D01*
X287637D01*
X287018Y277673D01*
X286494Y277323D01*
X268993Y259822D01*
X268984Y259820D01*
X268455Y259466D01*
X268101Y258937D01*
X267977Y258313D01*
X268101Y257688D01*
X268455Y257159D01*
X268984Y256805D01*
X269608Y256681D01*
X269689Y256697D01*
X269768D01*
X270386Y256820D01*
X270910Y257170D01*
X288418Y274678D01*
X288427Y274680D01*
X288956Y275034D01*
X289310Y275563D01*
X289434Y276187D01*
X289310Y276811D01*
X288956Y277341D01*
X288427Y277694D01*
X287803Y277818D01*
D02*
G37*
G36*
X264624Y279360D02*
X264000Y279235D01*
X263471Y278882D01*
X263117Y278352D01*
X263014Y277835D01*
X250024Y264845D01*
X249761Y264451D01*
X249669Y263987D01*
X249669Y263987D01*
Y254644D01*
X249376Y254206D01*
X249251Y253581D01*
X249376Y252957D01*
X249729Y252428D01*
X250258Y252074D01*
X250883Y251950D01*
X251507Y252074D01*
X252036Y252428D01*
X252390Y252957D01*
X252514Y253581D01*
X252390Y254206D01*
X252097Y254644D01*
Y263484D01*
X264731Y276118D01*
X265248Y276221D01*
X265778Y276575D01*
X266131Y277104D01*
X266255Y277728D01*
X266131Y278352D01*
X265778Y278882D01*
X265248Y279235D01*
X264624Y279360D01*
D02*
G37*
G36*
X284593Y222428D02*
X265282D01*
Y217438D01*
X263024D01*
Y218580D01*
X261328D01*
Y219492D01*
X261621Y219931D01*
X261745Y220555D01*
X261621Y221180D01*
X261267Y221709D01*
X260738Y222062D01*
X260114Y222186D01*
X259489Y222062D01*
X258960Y221709D01*
X258607Y221180D01*
X258482Y220555D01*
X258607Y219931D01*
X258900Y219492D01*
Y218580D01*
X257099D01*
Y216307D01*
X256826Y216097D01*
X256099Y215150D01*
X255641Y214046D01*
X255485Y212862D01*
X255641Y211677D01*
X256099Y210574D01*
X256826Y209626D01*
X257099Y209416D01*
Y207144D01*
X263024D01*
Y208285D01*
X265282D01*
Y202724D01*
X284593D01*
Y222428D01*
D02*
G37*
G36*
X121627Y204195D02*
X115900D01*
Y200239D01*
X117549D01*
Y194644D01*
X116021Y193115D01*
X115503Y193012D01*
X114974Y192658D01*
X114620Y192129D01*
X114496Y191505D01*
X114620Y190880D01*
X114974Y190351D01*
X115503Y189997D01*
X116127Y189873D01*
X116751Y189997D01*
X117281Y190351D01*
X117634Y190880D01*
X117737Y191398D01*
X119622Y193282D01*
X119885Y193676D01*
X119977Y194141D01*
X119977Y194141D01*
Y200239D01*
X121627D01*
Y204195D01*
D02*
G37*
G36*
X144166Y219569D02*
X124856D01*
Y199865D01*
X144166D01*
Y207513D01*
X146425D01*
Y206371D01*
X148101D01*
Y203552D01*
X147808Y203113D01*
X147684Y202488D01*
X147808Y201864D01*
X148101Y201425D01*
Y195435D01*
X143263Y190597D01*
X142745Y190494D01*
X142216Y190140D01*
X141862Y189611D01*
X141738Y188987D01*
X141862Y188363D01*
X142216Y187833D01*
X142745Y187480D01*
X143369Y187355D01*
X143994Y187480D01*
X144523Y187833D01*
X144877Y188363D01*
X144980Y188880D01*
X150173Y194074D01*
X150173Y194074D01*
X150436Y194468D01*
X150529Y194932D01*
X150529Y194932D01*
Y201425D01*
X150822Y201864D01*
X150946Y202488D01*
X150822Y203113D01*
X150529Y203552D01*
Y206371D01*
X152349D01*
Y208644D01*
X152623Y208853D01*
X153350Y209801D01*
X153807Y210905D01*
X153963Y212089D01*
X153807Y213274D01*
X153350Y214377D01*
X152623Y215325D01*
X152349Y215535D01*
Y217807D01*
X146425D01*
Y216665D01*
X144166D01*
Y219569D01*
D02*
G37*
G36*
X253365Y193567D02*
X252670Y193429D01*
X252081Y193035D01*
X251687Y192446D01*
X251549Y191751D01*
Y186112D01*
X251687Y185418D01*
X252081Y184828D01*
X252176Y184734D01*
X252765Y184340D01*
X253460Y184202D01*
X254155Y184340D01*
X254744Y184734D01*
X255138Y185323D01*
X255276Y186018D01*
X255181Y186494D01*
Y191751D01*
X255043Y192446D01*
X254649Y193035D01*
X254060Y193429D01*
X253365Y193567D01*
D02*
G37*
G36*
X157055Y192417D02*
X156360Y192279D01*
X155771Y191885D01*
X155619Y191734D01*
X155226Y191145D01*
X155087Y190450D01*
Y182562D01*
X155226Y181867D01*
X155619Y181278D01*
X156208Y180884D01*
X156903Y180746D01*
X157598Y180884D01*
X158187Y181278D01*
X158581Y181867D01*
X158719Y182562D01*
Y189886D01*
X158733Y189906D01*
X158871Y190601D01*
X158733Y191296D01*
X158339Y191885D01*
X157750Y192279D01*
X157055Y192417D01*
D02*
G37*
G36*
X284593Y179121D02*
X265282D01*
Y173845D01*
X263024D01*
Y175273D01*
X261275D01*
Y176235D01*
X261275Y176235D01*
X261183Y176700D01*
X261044Y176908D01*
X261077Y177073D01*
X260952Y177697D01*
X260599Y178227D01*
X260070Y178580D01*
X259445Y178704D01*
X258821Y178580D01*
X258292Y178227D01*
X257938Y177697D01*
X257814Y177073D01*
X257938Y176449D01*
X258292Y175919D01*
X258511Y175773D01*
X258360Y175273D01*
X257099D01*
Y172715D01*
X256826Y172505D01*
X256099Y171557D01*
X255641Y170453D01*
X255485Y169269D01*
X255641Y168085D01*
X256099Y166981D01*
X256826Y166033D01*
X257099Y165823D01*
Y163837D01*
X263024D01*
Y164693D01*
X265282D01*
Y159417D01*
X284593D01*
Y179121D01*
D02*
G37*
G36*
X144166Y176262D02*
X124856D01*
Y156558D01*
X144166D01*
Y164631D01*
X146425D01*
Y163064D01*
X148083D01*
Y161639D01*
X147790Y161200D01*
X147666Y160575D01*
X147790Y159951D01*
X148144Y159422D01*
X148673Y159068D01*
X149297Y158944D01*
X149922Y159068D01*
X150451Y159422D01*
X150804Y159951D01*
X150929Y160575D01*
X150804Y161200D01*
X150511Y161639D01*
Y163064D01*
X152349D01*
Y165336D01*
X152623Y165546D01*
X153350Y166494D01*
X153807Y167598D01*
X153963Y168782D01*
X153807Y169967D01*
X153350Y171070D01*
X152623Y172018D01*
X152349Y172292D01*
Y174500D01*
X146425D01*
Y173784D01*
X144166D01*
Y176262D01*
D02*
G37*
G36*
X121627Y160888D02*
X115900D01*
Y156932D01*
X117216D01*
Y154988D01*
X116923Y154549D01*
X116799Y153925D01*
X116923Y153301D01*
X117277Y152771D01*
X117806Y152418D01*
X118430Y152294D01*
X119055Y152418D01*
X119584Y152771D01*
X119938Y153301D01*
X120062Y153925D01*
X119938Y154549D01*
X119644Y154988D01*
Y156932D01*
X121627D01*
Y160888D01*
D02*
G37*
G36*
X107544Y156879D02*
X106920Y156755D01*
X106390Y156401D01*
X106037Y155872D01*
X105912Y155248D01*
X106037Y154623D01*
X106390Y154094D01*
X106920Y153740D01*
X107247Y153675D01*
Y147343D01*
X106954Y146904D01*
X106830Y146279D01*
X106954Y145655D01*
X107308Y145126D01*
X107837Y144772D01*
X108461Y144648D01*
X109085Y144772D01*
X109615Y145126D01*
X109968Y145655D01*
X110092Y146279D01*
X109968Y146904D01*
X109675Y147343D01*
Y154330D01*
X109675Y154330D01*
X109582Y154795D01*
X109319Y155189D01*
X109319Y155189D01*
X109154Y155354D01*
X109051Y155872D01*
X108697Y156401D01*
X108168Y156755D01*
X107544Y156879D01*
D02*
G37*
G36*
X154220Y145872D02*
X153595Y145748D01*
X153066Y145395D01*
X152713Y144865D01*
X152588Y144241D01*
X152713Y143617D01*
X153066Y143087D01*
X153595Y142734D01*
X154220Y142610D01*
X154844Y142734D01*
X155131Y142925D01*
X159373D01*
X159812Y142632D01*
X160436Y142508D01*
X161061Y142632D01*
X161590Y142986D01*
X161944Y143515D01*
X162068Y144139D01*
X161944Y144763D01*
X161590Y145293D01*
X161061Y145646D01*
X160436Y145771D01*
X159812Y145646D01*
X159373Y145353D01*
X155401D01*
X155373Y145395D01*
X154844Y145748D01*
X154220Y145872D01*
D02*
G37*
G36*
X240251Y138722D02*
Y137959D01*
X241014D01*
X240708Y138416D01*
X240251Y138722D01*
D02*
G37*
G36*
X238282D02*
X237825Y138416D01*
X237519Y137959D01*
X238282D01*
Y138722D01*
D02*
G37*
G36*
X253460Y150960D02*
X252765Y150822D01*
X252176Y150428D01*
X251782Y149839D01*
X251644Y149144D01*
X251645Y149140D01*
Y139302D01*
X251783Y138607D01*
X252177Y138017D01*
X252766Y137624D01*
X253461Y137486D01*
X254156Y137624D01*
X254745Y138017D01*
X255138Y138607D01*
X255277Y139302D01*
Y149143D01*
X255138Y149838D01*
X254745Y150427D01*
X254744Y150428D01*
X254155Y150822D01*
X253460Y150960D01*
D02*
G37*
G36*
X241014Y135990D02*
X240251D01*
Y135227D01*
X240708Y135532D01*
X241014Y135990D01*
D02*
G37*
G36*
X238282D02*
X237519D01*
X237825Y135532D01*
X238282Y135227D01*
Y135990D01*
D02*
G37*
G36*
X284593Y135814D02*
X265282D01*
Y130538D01*
X263024D01*
Y131966D01*
X261378D01*
X261284Y132466D01*
X261568Y132891D01*
X261692Y133515D01*
X261568Y134139D01*
X261214Y134669D01*
X260685Y135022D01*
X260061Y135146D01*
X259436Y135022D01*
X258907Y134669D01*
X258554Y134139D01*
X258429Y133515D01*
X258554Y132891D01*
X258838Y132466D01*
X258743Y131966D01*
X257099D01*
Y129693D01*
X256826Y129483D01*
X256099Y128536D01*
X255641Y127432D01*
X255485Y126248D01*
Y125962D01*
X255641Y124777D01*
X256099Y123674D01*
X256826Y122726D01*
X257099Y122516D01*
Y120529D01*
X263024D01*
Y121386D01*
X265282D01*
Y116110D01*
X284593D01*
Y135814D01*
D02*
G37*
G36*
X210546Y119650D02*
X208660D01*
Y117962D01*
X210546D01*
Y119650D01*
D02*
G37*
G36*
X206692D02*
X204806D01*
Y117962D01*
X206692D01*
Y119650D01*
D02*
G37*
G36*
X368594Y130299D02*
X367969Y130175D01*
X367440Y129821D01*
X367087Y129292D01*
X366962Y128668D01*
X367087Y128043D01*
X367320Y127693D01*
Y124249D01*
X367026Y124052D01*
X366763Y123659D01*
X366671Y123194D01*
Y116895D01*
X366763Y116430D01*
X367026Y116036D01*
X367420Y115773D01*
X367884Y115681D01*
X369065D01*
X369530Y115773D01*
X369924Y116036D01*
X370187Y116430D01*
X370279Y116895D01*
Y123194D01*
X370187Y123659D01*
X369924Y124052D01*
X369748Y124170D01*
Y127516D01*
X370101Y128043D01*
X370225Y128668D01*
X370101Y129292D01*
X369747Y129821D01*
X369218Y130175D01*
X368594Y130299D01*
D02*
G37*
G36*
X363542Y130164D02*
X362918Y130040D01*
X362389Y129686D01*
X362035Y129157D01*
X361911Y128533D01*
X362035Y127908D01*
X362295Y127520D01*
Y124232D01*
X362026Y124052D01*
X361763Y123659D01*
X361671Y123194D01*
Y116895D01*
X361763Y116430D01*
X362026Y116036D01*
X362420Y115773D01*
X362884Y115681D01*
X364066D01*
X364530Y115773D01*
X364924Y116036D01*
X365187Y116430D01*
X365279Y116895D01*
Y123194D01*
X365187Y123659D01*
X364924Y124052D01*
X364722Y124187D01*
Y127419D01*
X365050Y127908D01*
X365174Y128533D01*
X365050Y129157D01*
X364696Y129686D01*
X364167Y130040D01*
X363542Y130164D01*
D02*
G37*
G36*
X358360Y130383D02*
X357736Y130259D01*
X357207Y129905D01*
X356853Y129376D01*
X356729Y128752D01*
X356853Y128127D01*
X357204Y127602D01*
Y124171D01*
X357026Y124052D01*
X356763Y123659D01*
X356671Y123194D01*
Y116895D01*
X356763Y116430D01*
X357026Y116036D01*
X357420Y115773D01*
X357885Y115681D01*
X359066D01*
X359530Y115773D01*
X359924Y116036D01*
X360187Y116430D01*
X360279Y116895D01*
Y123194D01*
X360187Y123659D01*
X359924Y124052D01*
X359631Y124248D01*
Y127774D01*
X359867Y128127D01*
X359992Y128752D01*
X359867Y129376D01*
X359514Y129905D01*
X358984Y130259D01*
X358360Y130383D01*
D02*
G37*
G36*
X353274Y130430D02*
X352650Y130306D01*
X352121Y129952D01*
X351767Y129423D01*
X351643Y128798D01*
X351767Y128174D01*
X352121Y127645D01*
X352161Y127618D01*
Y124142D01*
X352026Y124052D01*
X351763Y123659D01*
X351671Y123194D01*
Y116895D01*
X351763Y116430D01*
X352026Y116036D01*
X352420Y115773D01*
X352885Y115681D01*
X354065D01*
X354530Y115773D01*
X354924Y116036D01*
X355187Y116430D01*
X355279Y116895D01*
Y123194D01*
X355187Y123659D01*
X354924Y124052D01*
X354588Y124276D01*
Y127885D01*
X354781Y128174D01*
X354906Y128798D01*
X354781Y129423D01*
X354428Y129952D01*
X353898Y130306D01*
X353274Y130430D01*
D02*
G37*
G36*
X348348Y130364D02*
X347724Y130240D01*
X347195Y129886D01*
X346841Y129357D01*
X346717Y128733D01*
X346841Y128108D01*
X347195Y127579D01*
X347198Y127577D01*
Y124167D01*
X347026Y124052D01*
X346763Y123659D01*
X346671Y123194D01*
Y116895D01*
X346763Y116430D01*
X347026Y116036D01*
X347420Y115773D01*
X347884Y115681D01*
X349065D01*
X349530Y115773D01*
X349924Y116036D01*
X350187Y116430D01*
X350279Y116895D01*
Y123194D01*
X350187Y123659D01*
X349924Y124052D01*
X349625Y124252D01*
Y127764D01*
X349855Y128108D01*
X349980Y128733D01*
X349855Y129357D01*
X349502Y129886D01*
X348973Y130240D01*
X348348Y130364D01*
D02*
G37*
G36*
X343744Y130426D02*
X343120Y130302D01*
X342591Y129948D01*
X342237Y129419D01*
X342113Y128795D01*
X342237Y128170D01*
X342396Y127933D01*
Y124299D01*
X342026Y124052D01*
X341763Y123659D01*
X341671Y123194D01*
Y116895D01*
X341763Y116430D01*
X342026Y116036D01*
X342420Y115773D01*
X342884Y115681D01*
X344065D01*
X344530Y115773D01*
X344924Y116036D01*
X345187Y116430D01*
X345279Y116895D01*
Y123194D01*
X345187Y123659D01*
X344924Y124052D01*
X344823Y124119D01*
Y127592D01*
X344898Y127641D01*
X345251Y128170D01*
X345375Y128795D01*
X345251Y129419D01*
X344898Y129948D01*
X344368Y130302D01*
X343744Y130426D01*
D02*
G37*
G36*
X339142Y129922D02*
X338518Y129798D01*
X337988Y129445D01*
X337635Y128915D01*
X337511Y128291D01*
X337540Y128146D01*
X337353Y127867D01*
X337261Y127403D01*
X337261Y127402D01*
Y124209D01*
X337026Y124052D01*
X336763Y123659D01*
X336671Y123194D01*
Y116895D01*
X336763Y116430D01*
X337026Y116036D01*
X337420Y115773D01*
X337884Y115681D01*
X339066D01*
X339530Y115773D01*
X339924Y116036D01*
X340187Y116430D01*
X340279Y116895D01*
Y123194D01*
X340187Y123659D01*
X339924Y124052D01*
X339689Y124209D01*
Y126769D01*
X339766Y126784D01*
X340295Y127138D01*
X340649Y127667D01*
X340773Y128291D01*
X340649Y128915D01*
X340295Y129445D01*
X339766Y129798D01*
X339142Y129922D01*
D02*
G37*
G36*
X333467Y129355D02*
X332842Y129231D01*
X332313Y128877D01*
X331960Y128348D01*
X331835Y127724D01*
X331960Y127099D01*
X332257Y126654D01*
Y124207D01*
X332026Y124052D01*
X331763Y123659D01*
X331671Y123194D01*
Y116895D01*
X331763Y116430D01*
X332026Y116036D01*
X332420Y115773D01*
X332885Y115681D01*
X334066D01*
X334530Y115773D01*
X334924Y116036D01*
X335187Y116430D01*
X335279Y116895D01*
Y123194D01*
X335187Y123659D01*
X334924Y124052D01*
X334685Y124212D01*
Y126667D01*
X334974Y127099D01*
X335098Y127724D01*
X334974Y128348D01*
X334620Y128877D01*
X334091Y129231D01*
X333467Y129355D01*
D02*
G37*
G36*
X144166Y132955D02*
X124856D01*
Y113251D01*
X144166D01*
Y120899D01*
X146425D01*
Y119757D01*
X148091D01*
Y116236D01*
X147798Y115797D01*
X147674Y115173D01*
X147798Y114549D01*
X148152Y114019D01*
X148681Y113666D01*
X149305Y113541D01*
X149930Y113666D01*
X150459Y114019D01*
X150813Y114549D01*
X150937Y115173D01*
X150813Y115797D01*
X150519Y116236D01*
Y119757D01*
X152349D01*
Y122029D01*
X152623Y122239D01*
X153350Y123187D01*
X153807Y124291D01*
X153963Y125475D01*
X153807Y126660D01*
X153350Y127763D01*
X152623Y128711D01*
X152349Y128921D01*
Y131193D01*
X146425D01*
Y130051D01*
X144166D01*
Y132955D01*
D02*
G37*
G36*
X210546Y115993D02*
X204806D01*
Y114374D01*
X204806Y114374D01*
Y114304D01*
X205206Y114063D01*
X205206Y113804D01*
Y113073D01*
X202599D01*
Y114132D01*
X197659D01*
Y109586D01*
X198915D01*
Y96347D01*
X186738Y84170D01*
X186475Y83777D01*
X186382Y83312D01*
X186382Y83312D01*
Y71681D01*
X186323Y71381D01*
X186323Y71381D01*
Y67411D01*
X186346Y67294D01*
Y64153D01*
X218255D01*
Y70668D01*
X212719D01*
X212410Y71168D01*
X212428Y71259D01*
X212428Y71259D01*
Y71418D01*
X215524Y74515D01*
X215788Y74908D01*
X215880Y75373D01*
X215880Y75373D01*
Y77167D01*
X216173Y77606D01*
X216297Y78230D01*
X216173Y78855D01*
X215820Y79384D01*
X215290Y79738D01*
X214666Y79862D01*
X214042Y79738D01*
X213513Y79384D01*
X213159Y78855D01*
X213035Y78230D01*
X213099Y77909D01*
X212628Y77714D01*
X212482Y77932D01*
X211953Y78286D01*
X211329Y78410D01*
X210704Y78286D01*
X210175Y77932D01*
X209821Y77403D01*
X209697Y76779D01*
X209821Y76154D01*
X210115Y75715D01*
Y75057D01*
X209464Y74406D01*
X209003Y74652D01*
X209039Y74834D01*
X208915Y75458D01*
X208561Y75987D01*
X208162Y76254D01*
X208027Y76450D01*
X208009Y76856D01*
X208233Y77192D01*
X208358Y77816D01*
X208233Y78440D01*
X207880Y78970D01*
X207350Y79323D01*
X206726Y79448D01*
X206102Y79323D01*
X205573Y78970D01*
X205219Y78440D01*
X204693Y78360D01*
X204472Y78691D01*
X204319Y78793D01*
X204270Y79290D01*
X205222Y80243D01*
X205222Y80243D01*
X205485Y80636D01*
X205577Y81101D01*
X205577Y81101D01*
Y81177D01*
X206143Y81743D01*
X206661Y81846D01*
X207190Y82199D01*
X207543Y82728D01*
X207668Y83353D01*
X207543Y83977D01*
X207190Y84506D01*
X206661Y84860D01*
X206036Y84984D01*
X205412Y84860D01*
X204883Y84506D01*
X204529Y83977D01*
X204426Y83459D01*
X203926Y82960D01*
X203429Y83008D01*
X203326Y83162D01*
X202797Y83515D01*
X202173Y83640D01*
X201549Y83515D01*
X201019Y83162D01*
X200726Y82723D01*
X200359Y82653D01*
X200162Y82666D01*
X199990Y82923D01*
X199461Y83277D01*
X198837Y83401D01*
X198212Y83277D01*
X197683Y82923D01*
X197376D01*
X197182Y83213D01*
X196653Y83567D01*
X196028Y83691D01*
X195404Y83567D01*
X194875Y83213D01*
X194521Y82684D01*
X194418Y82166D01*
X189272Y77020D01*
X188810Y77211D01*
Y82809D01*
X200987Y94986D01*
X200987Y94986D01*
X201250Y95380D01*
X201343Y95844D01*
X201343Y95844D01*
Y109586D01*
X202599D01*
Y110645D01*
X205206D01*
Y109586D01*
X210146D01*
X210146Y114063D01*
X210546Y114304D01*
X210546Y114374D01*
X210546Y114374D01*
Y115993D01*
D02*
G37*
G36*
X141113Y111297D02*
X140489Y111173D01*
X139959Y110819D01*
X139606Y110290D01*
X139481Y109666D01*
X139606Y109041D01*
X139959Y108512D01*
X140489Y108158D01*
X141113Y108034D01*
X141737Y108158D01*
X142176Y108452D01*
X154645D01*
X155935Y107161D01*
X155935Y107161D01*
X156329Y106898D01*
X156794Y106806D01*
X157950D01*
X158389Y106512D01*
X159013Y106388D01*
X159638Y106512D01*
X160167Y106866D01*
X160521Y107395D01*
X160645Y108020D01*
X160521Y108644D01*
X160167Y109173D01*
X159638Y109527D01*
X159013Y109651D01*
X158389Y109527D01*
X157950Y109234D01*
X157297D01*
X156006Y110524D01*
X155612Y110787D01*
X155148Y110879D01*
X155148Y110879D01*
X142176D01*
X141737Y111173D01*
X141113Y111297D01*
D02*
G37*
G36*
X160332Y93328D02*
X158348D01*
Y91540D01*
X160332D01*
Y93328D01*
D02*
G37*
G36*
X156379D02*
X154395D01*
Y91540D01*
X156379D01*
Y93328D01*
D02*
G37*
G36*
X374459Y87336D02*
Y83627D01*
X375687D01*
Y85792D01*
X375564Y86413D01*
X375212Y86939D01*
X374686Y87291D01*
X374459Y87336D01*
D02*
G37*
G36*
X329459D02*
Y83627D01*
X330687D01*
Y85792D01*
X330564Y86413D01*
X330212Y86939D01*
X329686Y87291D01*
X329459Y87336D01*
D02*
G37*
G36*
X372491Y87336D02*
X372264Y87291D01*
X371738Y86939D01*
X371386Y86413D01*
X371263Y85792D01*
Y83627D01*
X372491D01*
Y87336D01*
D02*
G37*
G36*
X327491D02*
X327264Y87291D01*
X326738Y86939D01*
X326386Y86413D01*
X326263Y85792D01*
Y83627D01*
X327491D01*
Y87336D01*
D02*
G37*
G36*
X86415Y89276D02*
X82757D01*
Y82862D01*
X86415D01*
Y89276D01*
D02*
G37*
G36*
X80789D02*
X77131D01*
Y82862D01*
X80789D01*
Y89276D01*
D02*
G37*
G36*
X50637D02*
X46979D01*
Y82862D01*
X50637D01*
Y89276D01*
D02*
G37*
G36*
X45011D02*
X41353D01*
Y82862D01*
X45011D01*
Y89276D01*
D02*
G37*
G36*
X375687Y81659D02*
X374459D01*
Y77950D01*
X374686Y77995D01*
X375212Y78347D01*
X375564Y78873D01*
X375687Y79493D01*
Y81659D01*
D02*
G37*
G36*
X330687D02*
X329459D01*
Y77950D01*
X329686Y77995D01*
X330212Y78347D01*
X330564Y78873D01*
X330687Y79493D01*
Y81659D01*
D02*
G37*
G36*
X327491D02*
X326263D01*
Y79493D01*
X326386Y78873D01*
X326738Y78347D01*
X327264Y77995D01*
X327491Y77950D01*
Y81659D01*
D02*
G37*
G36*
X372491D02*
X371263D01*
Y79493D01*
X371386Y78873D01*
X371738Y78347D01*
X372264Y77995D01*
X372491Y77950D01*
Y81659D01*
D02*
G37*
G36*
X86415Y80894D02*
X82757D01*
Y74480D01*
X86415D01*
Y80894D01*
D02*
G37*
G36*
X80789D02*
X77131D01*
Y74480D01*
X80789D01*
Y80894D01*
D02*
G37*
G36*
X50637D02*
X46979D01*
Y74480D01*
X50637D01*
Y80894D01*
D02*
G37*
G36*
X45011D02*
X41353D01*
Y74480D01*
X45011D01*
Y80894D01*
D02*
G37*
G36*
X147596Y71009D02*
X143643D01*
Y68041D01*
X147596D01*
Y71009D01*
D02*
G37*
G36*
X141675D02*
X137722D01*
Y68041D01*
X141675D01*
Y71009D01*
D02*
G37*
G36*
X160874Y69031D02*
X158890D01*
Y67243D01*
X160874D01*
Y69031D01*
D02*
G37*
G36*
X156921D02*
X154937D01*
Y67243D01*
X156921D01*
Y69031D01*
D02*
G37*
G36*
X364066Y87006D02*
X362884D01*
X362420Y86914D01*
X362026Y86651D01*
X361763Y86257D01*
X361671Y85792D01*
Y79493D01*
X361763Y79029D01*
X362026Y78635D01*
X362261Y78478D01*
Y73469D01*
X360939D01*
X360939Y68795D01*
X360539Y68554D01*
X360539Y68484D01*
X360539Y68484D01*
Y66766D01*
X363508D01*
X366476D01*
Y68484D01*
X366476Y68484D01*
Y68554D01*
X366076Y68795D01*
X366076Y69054D01*
Y73469D01*
X364689D01*
Y78478D01*
X364924Y78635D01*
X365187Y79029D01*
X365279Y79493D01*
Y85792D01*
X365187Y86257D01*
X364924Y86651D01*
X364530Y86914D01*
X364066Y87006D01*
D02*
G37*
G36*
X354065D02*
X352885D01*
X352420Y86914D01*
X352026Y86651D01*
X351763Y86257D01*
X351671Y85792D01*
Y79493D01*
X351763Y79029D01*
X352026Y78635D01*
X352261Y78478D01*
Y73469D01*
X351114D01*
X351114Y68795D01*
X350714Y68554D01*
X350714Y68484D01*
X350714Y68484D01*
Y66766D01*
X353682D01*
X356651D01*
Y68484D01*
X356651Y68484D01*
Y68554D01*
X356251Y68795D01*
X356251Y69054D01*
Y73469D01*
X354689D01*
Y78478D01*
X354924Y78635D01*
X355187Y79029D01*
X355279Y79493D01*
Y85792D01*
X355187Y86257D01*
X354924Y86651D01*
X354530Y86914D01*
X354065Y87006D01*
D02*
G37*
G36*
X344065D02*
X342884D01*
X342420Y86914D01*
X342026Y86651D01*
X341763Y86257D01*
X341671Y85792D01*
Y79493D01*
X341763Y79029D01*
X342026Y78635D01*
X342261Y78478D01*
Y73469D01*
X341288D01*
X341288Y68795D01*
X340888Y68554D01*
X340888Y68484D01*
X340888Y68484D01*
Y66766D01*
X343857D01*
X346825D01*
Y68484D01*
X346825Y68484D01*
Y68554D01*
X346425Y68795D01*
X346425Y69054D01*
Y73469D01*
X344689D01*
Y78478D01*
X344924Y78635D01*
X345187Y79029D01*
X345279Y79493D01*
Y85792D01*
X345187Y86257D01*
X344924Y86651D01*
X344530Y86914D01*
X344065Y87006D01*
D02*
G37*
G36*
X275189Y71435D02*
X271532D01*
Y65021D01*
X275189D01*
Y71435D01*
D02*
G37*
G36*
X269563D02*
X265906D01*
Y65021D01*
X269563D01*
Y71435D01*
D02*
G37*
G36*
X308705Y71431D02*
X305048D01*
Y65017D01*
X308705D01*
Y71431D01*
D02*
G37*
G36*
X303079D02*
X299422D01*
Y65017D01*
X303079D01*
Y71431D01*
D02*
G37*
G36*
X147596Y66072D02*
X143643D01*
Y63104D01*
X147596D01*
Y66072D01*
D02*
G37*
G36*
X141675D02*
X137722D01*
Y63104D01*
X141675D01*
Y66072D01*
D02*
G37*
G36*
X366476Y64798D02*
X364492D01*
Y63010D01*
X366476D01*
Y64798D01*
D02*
G37*
G36*
X362524D02*
X360539D01*
Y63010D01*
X362524D01*
Y64798D01*
D02*
G37*
G36*
X356651D02*
X354666D01*
Y63010D01*
X356651D01*
Y64798D01*
D02*
G37*
G36*
X352698D02*
X350714D01*
Y63010D01*
X352698D01*
Y64798D01*
D02*
G37*
G36*
X346825D02*
X344841D01*
Y63010D01*
X346825D01*
Y64798D01*
D02*
G37*
G36*
X342872D02*
X340888D01*
Y63010D01*
X342872D01*
Y64798D01*
D02*
G37*
G36*
X333047D02*
X331063D01*
Y63010D01*
X333047D01*
Y64798D01*
D02*
G37*
G36*
X275189Y63053D02*
X271532D01*
Y56639D01*
X275189D01*
Y63053D01*
D02*
G37*
G36*
X269563D02*
X265906D01*
Y56639D01*
X269563D01*
Y63053D01*
D02*
G37*
G36*
X308705Y63049D02*
X305048D01*
Y56635D01*
X308705D01*
Y63049D01*
D02*
G37*
G36*
X303079D02*
X299422D01*
Y56635D01*
X303079D01*
Y63049D01*
D02*
G37*
G36*
X365237Y57392D02*
X363548D01*
Y55506D01*
X365237D01*
Y57392D01*
D02*
G37*
G36*
X329755D02*
X328066D01*
Y55506D01*
X329755D01*
Y57392D01*
D02*
G37*
G36*
X341582D02*
X339893D01*
Y55506D01*
X341582D01*
Y57392D01*
D02*
G37*
G36*
X353409D02*
X351720D01*
Y55506D01*
X353409D01*
Y57392D01*
D02*
G37*
G36*
X248040Y56102D02*
X246253D01*
Y54118D01*
X248040D01*
Y56102D01*
D02*
G37*
G36*
X365237Y53538D02*
X363548D01*
Y51652D01*
X365237D01*
Y53538D01*
D02*
G37*
G36*
X353409Y53537D02*
X351720D01*
Y51652D01*
X353409D01*
Y53537D01*
D02*
G37*
G36*
X341582Y53537D02*
X339893D01*
Y51652D01*
X341582D01*
Y53537D01*
D02*
G37*
G36*
X329755Y53537D02*
X328066D01*
Y51652D01*
X329755D01*
Y53537D01*
D02*
G37*
G36*
X248040Y52149D02*
X246253D01*
Y50165D01*
X248040D01*
Y52149D01*
D02*
G37*
G36*
Y49335D02*
X246253D01*
Y47351D01*
X248040D01*
Y49335D01*
D02*
G37*
G36*
X161344Y45824D02*
X159557D01*
Y43839D01*
X161344D01*
Y45824D01*
D02*
G37*
G36*
X248040Y45383D02*
X246253D01*
Y43398D01*
X248040D01*
Y45383D01*
D02*
G37*
G36*
Y42569D02*
X246253D01*
Y40585D01*
X248040D01*
Y42569D01*
D02*
G37*
G36*
X161344Y41871D02*
X159557D01*
Y39887D01*
X161344D01*
Y41871D01*
D02*
G37*
G36*
X248040Y38616D02*
X246253D01*
Y36632D01*
X248040D01*
Y38616D01*
D02*
G37*
G36*
X378341Y31496D02*
X377565D01*
X376804Y31345D01*
X376088Y31048D01*
X375443Y30617D01*
X374895Y30069D01*
X374464Y29424D01*
X374167Y28707D01*
X374016Y27947D01*
Y27171D01*
X374167Y26411D01*
X374464Y25694D01*
X374895Y25049D01*
X375443Y24501D01*
X376088Y24070D01*
X376804Y23773D01*
X377565Y23622D01*
X378341D01*
X379101Y23773D01*
X379818Y24070D01*
X380462Y24501D01*
X381011Y25049D01*
X381442Y25694D01*
X381738Y26411D01*
X381890Y27171D01*
Y27947D01*
X381738Y28707D01*
X381442Y29424D01*
X381011Y30069D01*
X380462Y30617D01*
X379818Y31048D01*
X379101Y31345D01*
X378341Y31496D01*
D02*
G37*
G36*
X335033D02*
X334258D01*
X333497Y31345D01*
X332781Y31048D01*
X332136Y30617D01*
X331588Y30069D01*
X331157Y29424D01*
X330860Y28707D01*
X330709Y27947D01*
Y27171D01*
X330860Y26411D01*
X331157Y25694D01*
X331588Y25049D01*
X332136Y24501D01*
X332781Y24070D01*
X333497Y23773D01*
X334258Y23622D01*
X335033D01*
X335794Y23773D01*
X336510Y24070D01*
X337155Y24501D01*
X337704Y25049D01*
X338135Y25694D01*
X338431Y26411D01*
X338583Y27171D01*
Y27947D01*
X338431Y28707D01*
X338135Y29424D01*
X337704Y30069D01*
X337155Y30617D01*
X336510Y31048D01*
X335794Y31345D01*
X335033Y31496D01*
D02*
G37*
G36*
X366917Y27559D02*
X365366D01*
X363845Y27257D01*
X362412Y26663D01*
X361122Y25801D01*
X360026Y24704D01*
X359164Y23415D01*
X358570Y21982D01*
X358268Y20461D01*
Y18910D01*
X358570Y17388D01*
X359164Y15955D01*
X360026Y14666D01*
X361122Y13569D01*
X362412Y12707D01*
X363845Y12114D01*
X365366Y11811D01*
X366917D01*
X368439Y12114D01*
X369871Y12707D01*
X371161Y13569D01*
X372258Y14666D01*
X373120Y15955D01*
X373713Y17388D01*
X374016Y18910D01*
Y20461D01*
X373713Y21982D01*
X373120Y23415D01*
X372258Y24704D01*
X371161Y25801D01*
X369871Y26663D01*
X368439Y27257D01*
X366917Y27559D01*
D02*
G37*
G36*
X347232D02*
X345681D01*
X344160Y27257D01*
X342727Y26663D01*
X341437Y25801D01*
X340340Y24704D01*
X339479Y23415D01*
X338885Y21982D01*
X338583Y20461D01*
Y18910D01*
X338885Y17388D01*
X339479Y15955D01*
X340340Y14666D01*
X341437Y13569D01*
X342727Y12707D01*
X344160Y12114D01*
X345681Y11811D01*
X347232D01*
X348753Y12114D01*
X350186Y12707D01*
X351476Y13569D01*
X352573Y14666D01*
X353434Y15955D01*
X354028Y17388D01*
X354331Y18910D01*
Y20461D01*
X354028Y21982D01*
X353434Y23415D01*
X352573Y24704D01*
X351476Y25801D01*
X350186Y26663D01*
X348753Y27257D01*
X347232Y27559D01*
D02*
G37*
G36*
X299636Y12119D02*
X297849D01*
Y10135D01*
X299636D01*
Y12119D01*
D02*
G37*
G36*
Y8166D02*
X297849D01*
Y6182D01*
X299636D01*
Y8166D01*
D02*
G37*
%LPD*%
G36*
X256253Y365967D02*
X256009Y351449D01*
X246659Y346724D01*
X246332Y347118D01*
X246782Y347705D01*
X247320Y349002D01*
X247373Y349409D01*
X242126D01*
Y350394D01*
X241142D01*
Y355641D01*
X240734Y355587D01*
X239864Y355227D01*
X239332Y355547D01*
X239193Y357041D01*
X250685Y365419D01*
X255874Y366293D01*
X256253Y365967D01*
D02*
G37*
G36*
X268015Y348070D02*
X268230Y347619D01*
X261197Y336426D01*
X241376Y337450D01*
X241052Y337292D01*
X240736Y337680D01*
X240877Y337863D01*
X241414Y339160D01*
X241468Y339567D01*
X236221D01*
Y340551D01*
X235236D01*
Y345798D01*
X234829Y345745D01*
X234509Y345612D01*
X234175Y345985D01*
X234475Y346532D01*
X236577Y347102D01*
X239335Y346320D01*
X239639Y346087D01*
X240839Y345590D01*
X242126Y345420D01*
X242386Y345455D01*
X243377Y345174D01*
X246401D01*
X256563Y349477D01*
X268015Y348070D01*
D02*
G37*
G36*
X257729Y332231D02*
X261073Y330938D01*
X261172Y330448D01*
X250929Y320546D01*
X242922Y324777D01*
X240441Y324663D01*
X240186Y325152D01*
X240877Y326052D01*
X241414Y327349D01*
X241468Y327756D01*
X236221D01*
Y328740D01*
X235236D01*
Y333987D01*
X234829Y333934D01*
X233972Y333579D01*
X233600Y333907D01*
X233706Y334326D01*
X236304Y335129D01*
X241116Y336311D01*
X257729Y332231D01*
D02*
G37*
G36*
X215077Y322988D02*
X214702Y322699D01*
X213848Y321586D01*
X213310Y320289D01*
X213257Y319882D01*
X218504D01*
Y318898D01*
X219488D01*
Y313650D01*
X219896Y313704D01*
X221192Y314241D01*
X222165Y314988D01*
X222666Y314795D01*
Y267503D01*
X230042Y260127D01*
Y133885D01*
X205744D01*
X197885Y127502D01*
X189871Y119488D01*
X178140Y131220D01*
Y315746D01*
X178640Y315915D01*
X179269Y315096D01*
X180383Y314241D01*
X181679Y313704D01*
X182087Y313650D01*
Y318898D01*
X183071D01*
Y319882D01*
X188318D01*
X188264Y320289D01*
X187727Y321586D01*
X186873Y322699D01*
X186500Y322986D01*
X186660Y323459D01*
X191293Y323460D01*
X191453Y322986D01*
X191080Y322699D01*
X190226Y321586D01*
X189688Y320289D01*
X189635Y319882D01*
X194882D01*
X200129D01*
X200075Y320289D01*
X199538Y321586D01*
X198684Y322699D01*
X198310Y322987D01*
X198470Y323460D01*
X203105Y323460D01*
X203266Y322987D01*
X202891Y322699D01*
X202036Y321586D01*
X201499Y320289D01*
X201446Y319882D01*
X206693D01*
X211940D01*
X211886Y320289D01*
X211349Y321586D01*
X210495Y322699D01*
X210120Y322987D01*
X210280Y323461D01*
X214917Y323461D01*
X215077Y322988D01*
D02*
G37*
G36*
X238009Y323051D02*
X238209Y322550D01*
X237470Y321586D01*
X236932Y320289D01*
X236879Y319882D01*
X242126D01*
X247373D01*
X247320Y320289D01*
X247109Y320798D01*
X247477Y321136D01*
X249379Y320149D01*
X248133Y306773D01*
X247639Y306796D01*
Y306796D01*
X246246D01*
Y303532D01*
X244277D01*
Y306796D01*
X243139D01*
X242883Y306796D01*
X242383Y306796D01*
X241246D01*
Y303532D01*
X239277D01*
Y306796D01*
X238139D01*
X237883Y306796D01*
X237383Y306796D01*
X236246D01*
Y303532D01*
X234277D01*
Y306796D01*
X232884D01*
Y306796D01*
X232524Y306781D01*
X232340Y308964D01*
X223530Y316374D01*
X223529Y320928D01*
X225828Y323068D01*
X226220Y323013D01*
X226387Y322535D01*
X225659Y321586D01*
X225121Y320289D01*
X225068Y319882D01*
X230315D01*
X235562D01*
X235508Y320289D01*
X234971Y321586D01*
X234216Y322570D01*
X234401Y323069D01*
X238009Y323051D01*
D02*
G37*
G36*
X299233Y217508D02*
X299498Y217005D01*
X299431Y216904D01*
X302926D01*
X302887Y216963D01*
X303156Y217459D01*
X303776Y217452D01*
X304114Y217083D01*
X303052Y202623D01*
X294418D01*
X293949Y202698D01*
X293949Y203123D01*
Y204092D01*
X290686D01*
Y206060D01*
X293949D01*
Y207198D01*
X293949Y207454D01*
X293949Y207954D01*
Y209092D01*
X290686D01*
Y211060D01*
X293949D01*
Y212198D01*
X293949Y212454D01*
X293949Y212954D01*
Y214092D01*
X290686D01*
Y216060D01*
X293949D01*
Y217074D01*
X294402Y217568D01*
X299233Y217508D01*
D02*
G37*
G36*
X301500Y159579D02*
X294401Y159274D01*
X293949Y159756D01*
Y160785D01*
X290686D01*
Y162753D01*
X293949D01*
Y163891D01*
X293949Y164147D01*
X293949Y164647D01*
Y165785D01*
X290686D01*
Y167753D01*
X293949D01*
Y168891D01*
X293949Y169147D01*
X293949Y169647D01*
Y170785D01*
X290686D01*
Y172753D01*
X293949D01*
Y174011D01*
X300918D01*
X301500Y159579D01*
D02*
G37*
G36*
X303748Y115996D02*
X303422Y115617D01*
X294029D01*
X293949Y116084D01*
X293949Y116117D01*
Y117478D01*
X290686D01*
Y119446D01*
X293949D01*
Y120584D01*
X293949Y120840D01*
X293949Y121340D01*
Y122478D01*
X290686D01*
Y124446D01*
X293949D01*
Y125584D01*
X293949Y125840D01*
X293949Y126340D01*
Y127478D01*
X290686D01*
Y129446D01*
X293949D01*
Y130665D01*
X301500D01*
X303748Y115996D01*
D02*
G37*
%LPC*%
G36*
X243110Y355641D02*
Y351378D01*
X247373D01*
X247320Y351785D01*
X246782Y353082D01*
X245928Y354196D01*
X244814Y355050D01*
X243518Y355587D01*
X243110Y355641D01*
D02*
G37*
G36*
X237205Y345798D02*
Y341535D01*
X241468D01*
X241414Y341943D01*
X240877Y343239D01*
X240022Y344353D01*
X238909Y345208D01*
X237612Y345745D01*
X237205Y345798D01*
D02*
G37*
G36*
Y333987D02*
Y329724D01*
X241468D01*
X241414Y330132D01*
X240877Y331429D01*
X240022Y332542D01*
X238909Y333397D01*
X237612Y333934D01*
X237205Y333987D01*
D02*
G37*
G36*
X217520Y317913D02*
X213257D01*
X213310Y317506D01*
X213848Y316209D01*
X214702Y315096D01*
X215816Y314241D01*
X217112Y313704D01*
X217520Y313650D01*
Y317913D01*
D02*
G37*
G36*
X211940D02*
X207677D01*
Y313650D01*
X208085Y313704D01*
X209381Y314241D01*
X210495Y315096D01*
X211349Y316209D01*
X211886Y317506D01*
X211940Y317913D01*
D02*
G37*
G36*
X200129D02*
X195866D01*
Y313650D01*
X196274Y313704D01*
X197570Y314241D01*
X198684Y315096D01*
X199538Y316209D01*
X200075Y317506D01*
X200129Y317913D01*
D02*
G37*
G36*
X205709D02*
X201446D01*
X201499Y317506D01*
X202036Y316209D01*
X202891Y315096D01*
X204005Y314241D01*
X205301Y313704D01*
X205709Y313650D01*
Y317913D01*
D02*
G37*
G36*
X193898D02*
X189635D01*
X189688Y317506D01*
X190226Y316209D01*
X191080Y315096D01*
X192193Y314241D01*
X193490Y313704D01*
X193898Y313650D01*
Y317913D01*
D02*
G37*
G36*
X188318D02*
X184055D01*
Y313650D01*
X184462Y313704D01*
X185759Y314241D01*
X186873Y315096D01*
X187727Y316209D01*
X188264Y317506D01*
X188318Y317913D01*
D02*
G37*
G36*
X224569Y258935D02*
Y258171D01*
X225332D01*
X225026Y258629D01*
X224569Y258935D01*
D02*
G37*
G36*
X222600D02*
X222143Y258629D01*
X221837Y258171D01*
X222600D01*
Y258935D01*
D02*
G37*
G36*
X225332Y256203D02*
X224569D01*
Y255439D01*
X225026Y255745D01*
X225332Y256203D01*
D02*
G37*
G36*
X222600D02*
X221837D01*
X222143Y255745D01*
X222600Y255439D01*
Y256203D01*
D02*
G37*
G36*
X235562Y317913D02*
X231299D01*
Y313650D01*
X231707Y313704D01*
X233003Y314241D01*
X234117Y315096D01*
X234971Y316209D01*
X235508Y317506D01*
X235562Y317913D01*
D02*
G37*
G36*
X241142D02*
X236879D01*
X236932Y317506D01*
X237470Y316209D01*
X238324Y315096D01*
X239438Y314241D01*
X240734Y313704D01*
X241142Y313650D01*
Y317913D01*
D02*
G37*
G36*
X247373D02*
X243110D01*
Y313650D01*
X243518Y313704D01*
X244814Y314241D01*
X245928Y315096D01*
X246782Y316209D01*
X247320Y317506D01*
X247373Y317913D01*
D02*
G37*
G36*
X229331D02*
X225068D01*
X225121Y317506D01*
X225659Y316209D01*
X226513Y315096D01*
X227627Y314241D01*
X228923Y313704D01*
X229331Y313650D01*
Y317913D01*
D02*
G37*
G36*
X302926Y214935D02*
X302163D01*
Y214172D01*
X302620Y214478D01*
X302926Y214935D01*
D02*
G37*
G36*
X300194D02*
X299431D01*
X299736Y214478D01*
X300194Y214172D01*
Y214935D01*
D02*
G37*
%LPD*%
G36*
X262101Y14726D02*
X262001Y14225D01*
X262125Y13601D01*
X262479Y13072D01*
X263008Y12718D01*
X263632Y12594D01*
X264257Y12718D01*
X264696Y13011D01*
X267072D01*
X268533Y11550D01*
X268533Y11550D01*
X268927Y11287D01*
X269391Y11195D01*
X279944D01*
X280070Y11068D01*
X280173Y10550D01*
X280478Y10094D01*
X280396Y9806D01*
X280266Y9594D01*
X263993D01*
X258860Y14726D01*
X259067Y15226D01*
X261821D01*
X262101Y14726D01*
D02*
G37*
G36*
X149513Y358511D02*
X151597Y354705D01*
X151209Y354373D01*
X150326Y355050D01*
X149029Y355587D01*
X148622Y355641D01*
Y350394D01*
X147638D01*
Y349409D01*
X142391D01*
X142444Y349002D01*
X142981Y347705D01*
X143153Y347482D01*
X142868Y347071D01*
X132276Y350334D01*
X132922Y364695D01*
X133342Y364966D01*
X149513Y358511D01*
D02*
G37*
G36*
X144978Y345805D02*
X145605Y345899D01*
X146351Y345590D01*
X147638Y345420D01*
X148925Y345590D01*
X150124Y346087D01*
X150915Y346693D01*
X154432Y347220D01*
X155157Y346150D01*
X154817Y345760D01*
X154527Y345798D01*
Y340551D01*
X153543D01*
Y339567D01*
X148296D01*
X148350Y339160D01*
X148887Y337863D01*
X149741Y336749D01*
X150377Y336262D01*
X150233Y335742D01*
X149137Y335617D01*
X129518Y335272D01*
X120739Y346468D01*
X120903Y346941D01*
X124220Y347751D01*
X144978Y345805D01*
D02*
G37*
G36*
X157342Y333174D02*
X156991Y332814D01*
X156232Y333397D01*
X154935Y333934D01*
X154527Y333987D01*
Y328740D01*
X153543D01*
Y327756D01*
X148296D01*
X148350Y327349D01*
X148887Y326052D01*
X149741Y324938D01*
X149887Y324827D01*
X149722Y324355D01*
X145888Y324424D01*
X143275Y322939D01*
X143202Y323007D01*
X143104Y323004D01*
X143015Y323047D01*
X142909Y323053D01*
X142847Y323032D01*
X142785Y323049D01*
X142619Y322954D01*
X142439Y322892D01*
X142410Y322834D01*
X142354Y322801D01*
X141828Y322117D01*
X139567Y320833D01*
X132583Y332647D01*
X132806Y333095D01*
X155330Y335671D01*
X157342Y333174D01*
D02*
G37*
G36*
X155999Y322970D02*
X155647Y322699D01*
X154792Y321586D01*
X154255Y320289D01*
X154202Y319882D01*
X159449D01*
X164696D01*
X164642Y320289D01*
X164353Y320988D01*
X164747Y321344D01*
X165569Y320901D01*
X165970Y319913D01*
X165570Y300298D01*
X163747Y300304D01*
Y302548D01*
X161369D01*
Y303532D01*
X160385D01*
Y306796D01*
X158991D01*
X158991Y306796D01*
X158747D01*
Y306796D01*
X158491Y306796D01*
X157354D01*
Y303532D01*
X155385D01*
Y306796D01*
X153991D01*
X153991Y306796D01*
X153747D01*
Y306796D01*
X153491Y306796D01*
X152354D01*
Y303532D01*
X150385D01*
Y306796D01*
X149075D01*
X149069Y307064D01*
X141377Y316150D01*
X141377Y320465D01*
X142869Y322405D01*
X142975Y322399D01*
X143209Y321883D01*
X142981Y321586D01*
X142444Y320289D01*
X142391Y319882D01*
X147638D01*
X152885D01*
X152831Y320289D01*
X152294Y321586D01*
X151440Y322699D01*
X151128Y322939D01*
X151287Y323413D01*
X155837Y323443D01*
X155999Y322970D01*
D02*
G37*
G36*
X115499Y219192D02*
Y218201D01*
X118763D01*
Y216233D01*
X115499D01*
Y215095D01*
X115499Y214839D01*
X115499Y214339D01*
Y213201D01*
X118763D01*
Y211233D01*
X115499D01*
Y210095D01*
X115499Y209839D01*
X115499Y209339D01*
Y208201D01*
X118763D01*
Y206233D01*
X115499D01*
Y205766D01*
X115130Y205429D01*
X101968Y206623D01*
X101681Y207032D01*
X104939Y219561D01*
X115037Y219686D01*
X115499Y219192D01*
D02*
G37*
G36*
Y175493D02*
Y174894D01*
X118763D01*
Y172926D01*
X115499D01*
Y171788D01*
X115499Y171532D01*
X115499Y171032D01*
Y169894D01*
X118763D01*
Y167926D01*
X115499D01*
Y166788D01*
X115499Y166532D01*
X115499Y166032D01*
Y164894D01*
X118763D01*
Y162926D01*
X115499D01*
Y162567D01*
X115122Y162239D01*
X107110Y163360D01*
X106818Y163767D01*
X109061Y175529D01*
X115137Y175838D01*
X115499Y175493D01*
D02*
G37*
G36*
Y131890D02*
Y131587D01*
X118763D01*
Y129619D01*
X115499D01*
Y128225D01*
X115499Y128225D01*
Y127981D01*
X115499D01*
X115499Y127725D01*
Y126587D01*
X118763D01*
Y124619D01*
X115499D01*
Y123225D01*
X115499Y123225D01*
Y122981D01*
X115499D01*
X115499Y122725D01*
Y121587D01*
X118763D01*
Y119619D01*
X115499D01*
Y118395D01*
X115127Y117917D01*
X108926Y118314D01*
X108888Y118340D01*
X108107Y118495D01*
X107617Y118397D01*
X105161Y118554D01*
X104889Y118974D01*
X109736Y132003D01*
X115138Y132236D01*
X115499Y131890D01*
D02*
G37*
%LPC*%
G36*
X146653Y355641D02*
X146246Y355587D01*
X144949Y355050D01*
X143836Y354196D01*
X142981Y353082D01*
X142444Y351785D01*
X142391Y351378D01*
X146653D01*
Y355641D01*
D02*
G37*
G36*
X152559Y345798D02*
X152152Y345745D01*
X150855Y345208D01*
X149741Y344353D01*
X148887Y343239D01*
X148350Y341943D01*
X148296Y341535D01*
X152559D01*
Y345798D01*
D02*
G37*
G36*
Y333987D02*
X152152Y333934D01*
X150855Y333397D01*
X149741Y332542D01*
X148887Y331429D01*
X148350Y330132D01*
X148296Y329724D01*
X152559D01*
Y333987D01*
D02*
G37*
G36*
X164696Y317913D02*
X160433D01*
Y313650D01*
X160840Y313704D01*
X162137Y314241D01*
X163251Y315096D01*
X164105Y316209D01*
X164642Y317506D01*
X164696Y317913D01*
D02*
G37*
G36*
X152885D02*
X148622D01*
Y313650D01*
X149029Y313704D01*
X150326Y314241D01*
X151440Y315096D01*
X152294Y316209D01*
X152831Y317506D01*
X152885Y317913D01*
D02*
G37*
G36*
X158465D02*
X154202D01*
X154255Y317506D01*
X154792Y316209D01*
X155647Y315096D01*
X156761Y314241D01*
X158057Y313704D01*
X158465Y313650D01*
Y317913D01*
D02*
G37*
G36*
X146653D02*
X142391D01*
X142444Y317506D01*
X142981Y316209D01*
X143836Y315096D01*
X144949Y314241D01*
X146246Y313704D01*
X146653Y313650D01*
Y317913D01*
D02*
G37*
G36*
X163747Y306796D02*
X162354D01*
Y304516D01*
X163747D01*
Y306796D01*
D02*
G37*
%LPD*%
D11*
X253461Y139302D02*
Y149143D01*
X253460Y149144D02*
X253461Y149143D01*
X253365Y186112D02*
Y191751D01*
Y186112D02*
X253460Y186018D01*
X130257Y88773D02*
X134684Y93200D01*
X130257Y76112D02*
Y88773D01*
X156903Y182562D02*
Y190450D01*
X157055Y190601D01*
D15*
X328475Y82643D02*
D03*
X333475D02*
D03*
X338475D02*
D03*
X343475D02*
D03*
X348475D02*
D03*
X353475D02*
D03*
X358475D02*
D03*
X363475D02*
D03*
X368475D02*
D03*
X373475D02*
D03*
X328475Y120044D02*
D03*
X333475D02*
D03*
X338475D02*
D03*
X343475D02*
D03*
X348475D02*
D03*
X353475D02*
D03*
X358475D02*
D03*
X363475D02*
D03*
X368475D02*
D03*
X373475D02*
D03*
D16*
X166710Y168782D02*
D03*
X149387D02*
D03*
X166710Y125475D02*
D03*
X149387D02*
D03*
X242739Y126248D02*
D03*
X260062D02*
D03*
X242739Y169555D02*
D03*
X260062D02*
D03*
X242739Y212862D02*
D03*
X260062D02*
D03*
X166710Y212089D02*
D03*
X149387D02*
D03*
D17*
X118763Y173910D02*
D03*
Y168910D02*
D03*
Y163910D02*
D03*
Y158910D02*
D03*
Y130603D02*
D03*
Y125603D02*
D03*
Y120603D02*
D03*
Y115603D02*
D03*
X290686Y118462D02*
D03*
Y123462D02*
D03*
Y128462D02*
D03*
Y133462D02*
D03*
Y161769D02*
D03*
Y166769D02*
D03*
Y171769D02*
D03*
Y176769D02*
D03*
Y205076D02*
D03*
Y210076D02*
D03*
Y215076D02*
D03*
Y220076D02*
D03*
X118763Y217217D02*
D03*
Y212217D02*
D03*
Y207217D02*
D03*
Y202217D02*
D03*
D18*
X134511Y166410D02*
D03*
Y123103D02*
D03*
X274938Y125962D02*
D03*
Y169269D02*
D03*
Y212576D02*
D03*
X134511Y209717D02*
D03*
D19*
X200129Y116977D02*
D03*
Y111859D02*
D03*
X207676Y111859D02*
D03*
Y116977D02*
D03*
X337037Y358527D02*
D03*
Y353409D02*
D03*
D20*
X157364Y90556D02*
D03*
Y85241D02*
D03*
X157905Y70015D02*
D03*
Y75330D02*
D03*
X363508Y71097D02*
D03*
Y65782D02*
D03*
X353682Y71097D02*
D03*
Y65782D02*
D03*
X343857Y71097D02*
D03*
Y65782D02*
D03*
X334031Y71097D02*
D03*
Y65782D02*
D03*
D21*
X162329Y42855D02*
D03*
X167643D02*
D03*
X245268Y53133D02*
D03*
X239953D02*
D03*
X245268Y46367D02*
D03*
X239953D02*
D03*
X245268Y39601D02*
D03*
X239953D02*
D03*
X300620Y9150D02*
D03*
X305935D02*
D03*
X364798Y371545D02*
D03*
X370113D02*
D03*
D22*
X301231Y26104D02*
D03*
X306349D02*
D03*
X301231Y17627D02*
D03*
X306349D02*
D03*
X371339Y54522D02*
D03*
X366221D02*
D03*
X359512D02*
D03*
X354394D02*
D03*
X347684D02*
D03*
X342566D02*
D03*
X335857D02*
D03*
X330739D02*
D03*
D23*
X270547Y64037D02*
D03*
Y83328D02*
D03*
X45995Y101169D02*
D03*
Y81878D02*
D03*
X81773Y101169D02*
D03*
Y81878D02*
D03*
X304063Y83324D02*
D03*
Y64033D02*
D03*
D24*
X245261Y303532D02*
D03*
X240261D02*
D03*
X235261D02*
D03*
X230261D02*
D03*
X161369D02*
D03*
X156369D02*
D03*
X151369D02*
D03*
X146369D02*
D03*
D25*
X237761Y287784D02*
D03*
X153869D02*
D03*
D26*
X237947Y255185D02*
D03*
Y272508D02*
D03*
X153901Y255029D02*
D03*
Y272352D02*
D03*
D27*
X224938Y30009D02*
D03*
Y31978D02*
D03*
Y33946D02*
D03*
Y35915D02*
D03*
Y37883D02*
D03*
Y39852D02*
D03*
Y41820D02*
D03*
Y43789D02*
D03*
Y45757D02*
D03*
Y47726D02*
D03*
Y49694D02*
D03*
Y51663D02*
D03*
Y53631D02*
D03*
Y55600D02*
D03*
Y57568D02*
D03*
Y59537D02*
D03*
X179663D02*
D03*
Y57568D02*
D03*
Y55600D02*
D03*
Y53631D02*
D03*
Y51663D02*
D03*
Y49694D02*
D03*
Y47726D02*
D03*
Y45757D02*
D03*
Y43789D02*
D03*
Y41820D02*
D03*
Y39852D02*
D03*
Y37883D02*
D03*
Y35915D02*
D03*
Y33946D02*
D03*
Y31978D02*
D03*
Y30009D02*
D03*
D28*
X217064Y67411D02*
D03*
X215096D02*
D03*
X213127D02*
D03*
X211159D02*
D03*
X209190D02*
D03*
X207222D02*
D03*
X205253D02*
D03*
X203285D02*
D03*
X201316D02*
D03*
X199348D02*
D03*
X197379D02*
D03*
X195411D02*
D03*
X193442D02*
D03*
X191474D02*
D03*
X189505D02*
D03*
X187537D02*
D03*
Y22135D02*
D03*
X189505D02*
D03*
X191474D02*
D03*
X193442D02*
D03*
X195411D02*
D03*
X197379D02*
D03*
X199348D02*
D03*
X201316D02*
D03*
X203285D02*
D03*
X205253D02*
D03*
X207222D02*
D03*
X209190D02*
D03*
X211159D02*
D03*
X213127D02*
D03*
X215096D02*
D03*
X217064D02*
D03*
D29*
X349828Y363469D02*
D03*
Y358469D02*
D03*
Y353469D02*
D03*
Y348469D02*
D03*
X371284Y363469D02*
D03*
Y358469D02*
D03*
Y353469D02*
D03*
Y348469D02*
D03*
D30*
X142659Y67057D02*
D03*
Y76112D02*
D03*
Y85167D02*
D03*
D31*
X117856Y76112D02*
D03*
D53*
X156794Y108020D02*
X159013D01*
X155148Y109666D02*
X156794Y108020D01*
X138993Y350394D02*
X147638D01*
X131754Y357633D02*
X138993Y350394D01*
X124009Y340057D02*
X153049D01*
X153543Y340551D01*
X137183Y328740D02*
X153543D01*
X133968Y325525D02*
X137183Y328740D01*
X242126Y350394D02*
X250503Y358770D01*
X256868D01*
X236221Y340551D02*
X236325Y340656D01*
X267203D01*
X236221Y328740D02*
X252884D01*
X257205Y324419D01*
X250883Y263987D02*
X264624Y277728D01*
X250883Y253581D02*
Y263987D01*
X172571Y264193D02*
Y265357D01*
X174521Y267307D01*
Y273081D01*
X215163Y47726D02*
X224938D01*
X215037Y47851D02*
X215163Y47726D01*
X179663Y45757D02*
X185921D01*
X186006Y45842D01*
X197379Y67411D02*
Y73335D01*
X198570Y74526D01*
X199348Y71627D02*
X202880Y75159D01*
X199348Y67411D02*
Y71627D01*
X198570Y74526D02*
X199728D01*
X195411Y73885D02*
X197832Y76307D01*
X195411Y67411D02*
Y73885D01*
X201316Y67411D02*
Y71057D01*
X209190Y67411D02*
Y71272D01*
X209213Y71294D01*
X211159Y67411D02*
Y71204D01*
X211214Y71259D01*
X193442Y67411D02*
Y71786D01*
X193453Y71796D01*
X191474Y67411D02*
Y71216D01*
X191517Y71259D01*
X189505Y67411D02*
Y71394D01*
X189529Y71418D01*
X187537Y67411D02*
Y71381D01*
X187596Y71441D01*
X175609Y47412D02*
X175923Y47726D01*
X179663D01*
X175754Y49694D02*
X179663D01*
X175720Y49659D02*
X175754Y49694D01*
X175952Y51663D02*
X179663D01*
X175815Y51800D02*
X175952Y51663D01*
X175901Y53631D02*
X179663D01*
X175802Y53730D02*
X175901Y53631D01*
X175837Y55600D02*
X179663D01*
X175815Y55577D02*
X175837Y55600D01*
X175831Y57568D02*
X179663D01*
X175815Y57585D02*
X175831Y57568D01*
X175878Y59537D02*
X179663D01*
X175813Y59471D02*
X175878Y59537D01*
X174382Y31978D02*
X179663D01*
X172288Y29884D02*
X174382Y31978D01*
X115067Y29884D02*
X172288D01*
X173832Y33946D02*
X179663D01*
X171550Y31665D02*
X173832Y33946D01*
X119264Y31665D02*
X171550D01*
X113945Y35034D02*
X117152Y31828D01*
X119101D01*
X119264Y31665D01*
X170896Y35915D02*
X179663D01*
X168427Y33446D02*
X170896Y35915D01*
X120002Y33446D02*
X168427D01*
X117168Y36279D02*
X120002Y33446D01*
X120742Y36831D02*
X122347Y35227D01*
X170346Y37883D02*
X179663D01*
X167689Y35227D02*
X170346Y37883D01*
X122347Y35227D02*
X167689D01*
X263490Y8380D02*
X282617D01*
X216362Y14013D02*
X257856D01*
X263490Y8380D01*
X18831Y38549D02*
X41759Y15621D01*
X75674Y365540D02*
X93642D01*
X13488Y303353D02*
X75674Y365540D01*
X75593Y362940D02*
X93642D01*
X15269Y302615D02*
X75593Y362940D01*
X75512Y360340D02*
X93642D01*
X17050Y301878D02*
X75512Y360340D01*
X75431Y357740D02*
X93642D01*
X18831Y301140D02*
X75431Y357740D01*
X13488Y36336D02*
Y303353D01*
X15269Y37074D02*
Y302615D01*
X17050Y37811D02*
Y301878D01*
X18831Y38549D02*
Y301140D01*
X39546Y10278D02*
X188335D01*
X13488Y36336D02*
X39546Y10278D01*
X40284Y12059D02*
X187597D01*
X15269Y37074D02*
X40284Y12059D01*
X41021Y13840D02*
X186859D01*
X17050Y37811D02*
X41021Y13840D01*
X188335Y10278D02*
X193442Y15385D01*
Y22135D01*
X187597Y12059D02*
X191474Y15935D01*
Y22135D01*
X186859Y13840D02*
X189505Y16486D01*
Y22135D01*
X41759Y15621D02*
X186122D01*
X187537Y17036D02*
Y22135D01*
X186122Y15621D02*
X187537Y17036D01*
X187596Y83312D02*
X200129Y95844D01*
X187596Y71441D02*
Y83312D01*
X200129Y95844D02*
Y111859D01*
X189529Y75560D02*
X196028Y82060D01*
X189529Y71418D02*
Y75560D01*
X191517Y75029D02*
X196357Y79869D01*
X191517Y71259D02*
Y75029D01*
X193453Y74446D02*
X197095Y78088D01*
X193453Y71796D02*
Y74446D01*
X197095Y78088D02*
X198253D01*
X112260Y32690D02*
X115067Y29884D01*
X150673Y42294D02*
X155959Y37008D01*
X167643Y37700D02*
Y42855D01*
X166952Y37008D02*
X167643Y37700D01*
X155959Y37008D02*
X166952D01*
X150673Y42294D02*
Y75330D01*
X240645Y60008D02*
X247938D01*
X239953Y53133D02*
Y59316D01*
X240645Y60008D01*
X247938D02*
X257321Y50625D01*
X303714D01*
X306349Y26104D02*
Y32075D01*
X305365Y33058D02*
X306349Y32075D01*
Y21866D02*
Y26104D01*
Y17627D02*
Y21866D01*
X289550Y21440D02*
X305923D01*
X306349Y21866D01*
X305935Y9150D02*
X306349Y9564D01*
Y17627D01*
X263632Y14225D02*
X267575D01*
X269391Y12408D01*
X277694Y6116D02*
X278497Y5312D01*
X257069Y6116D02*
X277694D01*
X269391Y12408D02*
X280446D01*
X252733Y10451D02*
X257069Y6116D01*
X245191Y16440D02*
X268910D01*
X244545Y15794D02*
X245191Y16440D01*
X217099Y15794D02*
X244545D01*
X265916Y19895D02*
Y24162D01*
X297036Y26104D02*
X301231D01*
X269164Y27410D02*
X295730D01*
X297036Y26104D01*
X265916Y24162D02*
X269164Y27410D01*
X296034Y16440D02*
X296872Y17277D01*
X300881D01*
X289550Y16440D02*
X296034D01*
X300881Y17277D02*
X301231Y17627D01*
X282617Y8380D02*
X284550Y10312D01*
Y16440D01*
X268910D02*
X269550D01*
X269372D02*
X269550D01*
X265916Y19895D02*
X269372Y16440D01*
X213127Y17247D02*
X216362Y14013D01*
X213127Y17247D02*
Y22135D01*
X215096Y17798D02*
Y22135D01*
Y17798D02*
X217099Y15794D01*
X280446Y12408D02*
X281680Y11174D01*
X261484Y18959D02*
X261595Y19070D01*
X236467Y18959D02*
X261484D01*
X217837Y17575D02*
X235083D01*
X236467Y18959D01*
X212507Y10451D02*
X252733D01*
X205253Y17705D02*
X212507Y10451D01*
X205253Y17705D02*
Y22135D01*
X215624Y12232D02*
X255720D01*
X256130Y11823D01*
X205952Y73378D02*
X207408Y74834D01*
X201316Y71057D02*
X203637Y73378D01*
X205952D01*
X224938Y30009D02*
X229170D01*
X233720Y25459D01*
X224938Y31978D02*
X229720D01*
X234458Y27240D01*
X224938Y33946D02*
X230271D01*
X235195Y29021D01*
X224938Y35915D02*
X230821D01*
X235933Y30802D01*
X219343Y41820D02*
X224938D01*
X217375Y43789D02*
X219343Y41820D01*
X217375Y43789D02*
X224938D01*
X219343Y45757D02*
X224938D01*
X217375Y43789D02*
X219343Y45757D01*
X179663Y43789D02*
X217375D01*
X235524Y53133D02*
X239953D01*
X233636Y51245D02*
X235524Y53133D01*
X233636Y48991D02*
Y51245D01*
X230402Y45757D02*
X233636Y48991D01*
X224938Y45757D02*
X230402D01*
X235659Y46367D02*
X239953D01*
X233081Y43789D02*
X235659Y46367D01*
X224938Y43789D02*
X233081D01*
X236237Y39601D02*
X239953D01*
X234017Y41820D02*
X236237Y39601D01*
X224938Y41820D02*
X234017D01*
X233720Y25459D02*
X261634D01*
X273632Y37457D02*
X358769D01*
X261634Y25459D02*
X273632Y37457D01*
X234458Y27240D02*
X260896D01*
X272894Y39238D01*
X235195Y29021D02*
X260158D01*
X272156Y41019D01*
X235933Y30802D02*
X259421D01*
X271418Y42800D01*
X258683Y32583D02*
X270680Y44581D01*
X236671Y32583D02*
X258683D01*
X257945Y34365D02*
X269943Y46362D01*
X237409Y34365D02*
X257945D01*
X330727Y44581D02*
X333372Y47226D01*
X270680Y44581D02*
X330727D01*
X333427Y42800D02*
X336522Y45895D01*
Y53857D01*
X335857Y54522D02*
X336522Y53857D01*
X269943Y46362D02*
X327610D01*
X327978Y46730D02*
Y46843D01*
X327610Y46362D02*
X327978Y46730D01*
X369511Y43322D02*
X371228D01*
X369238Y43595D02*
X369511Y43322D01*
X367337Y41020D02*
X367430Y40928D01*
X371353D01*
X371228Y43322D02*
X380910Y53004D01*
X224938Y37883D02*
X231371D01*
X236671Y32583D01*
X224938Y39852D02*
X231922D01*
X237409Y34365D01*
X204038Y75159D02*
X206695Y77816D01*
X206726D01*
X294182Y353409D02*
X337037D01*
X290691Y356900D02*
X294182Y353409D01*
X295703Y358527D02*
X337037D01*
X292253Y361977D02*
X295703Y358527D01*
X349797Y353439D02*
X349828Y353469D01*
X337067Y353439D02*
X349797D01*
X337037Y353409D02*
X337067Y353439D01*
X349799Y358498D02*
X349828Y358469D01*
X337066Y358498D02*
X349799D01*
X337037Y358527D02*
X337066Y358498D01*
X379646Y142171D02*
Y347120D01*
Y142171D02*
X382691Y139125D01*
Y52266D02*
Y139125D01*
X371353Y40928D02*
X382691Y52266D01*
X379451Y347315D02*
X379646Y347120D01*
X379451Y347315D02*
Y361290D01*
X371284Y363469D02*
X377272D01*
X379451Y361290D01*
X380910Y53004D02*
Y138387D01*
X377865Y141433D02*
X380910Y138387D01*
X377865Y141433D02*
Y346382D01*
X371284Y348469D02*
X375778D01*
X377865Y346382D01*
X211214Y71259D02*
Y71921D01*
X214666Y75373D02*
Y78230D01*
X211214Y71921D02*
X214666Y75373D01*
X209213Y72439D02*
X211329Y74554D01*
X209213Y71294D02*
Y72439D01*
X211329Y74554D02*
Y76779D01*
X202880Y75159D02*
X204038D01*
X199728Y74526D02*
X202330Y77128D01*
X202687D01*
X203097Y77537D02*
X203318D01*
X202687Y77128D02*
X203097Y77537D01*
X198990Y76307D02*
X202501Y79818D01*
X201027Y80862D02*
Y80907D01*
X198253Y78088D02*
X201027Y80862D01*
X202501Y79818D02*
X203080D01*
X197832Y76307D02*
X198990D01*
X203080Y79818D02*
X204363Y81101D01*
Y81680D01*
X206036Y83353D01*
X202129Y82008D02*
X202173D01*
X201027Y80907D02*
X202129Y82008D01*
X196936Y79869D02*
X198837Y81770D01*
X196357Y79869D02*
X196936D01*
X171854Y47412D02*
X175609D01*
X167643Y42855D02*
X173191D01*
X174125Y43789D02*
X179663D01*
X173191Y42855D02*
X174125Y43789D01*
X170438Y49659D02*
X175720D01*
X169385Y48607D02*
X170438Y49659D01*
X163818Y49698D02*
X164910Y48607D01*
X169385D01*
X163596Y49698D02*
X163818D01*
X167340Y51122D02*
X168018Y51800D01*
X175815D01*
X167118Y51122D02*
X167340D01*
X165612Y53730D02*
X175802D01*
X165174Y53292D02*
X165612Y53730D01*
X164952Y53292D02*
X165174D01*
X165692Y58567D02*
X168682Y55577D01*
X175815D01*
X172618Y59471D02*
X175813D01*
X175815Y59470D01*
X171489Y60379D02*
X171711D01*
X172618Y59471D01*
X169027Y58544D02*
X169248D01*
X170207Y57585D01*
X175815D01*
X339098Y41019D02*
X347684Y49605D01*
X272156Y41019D02*
X339098D01*
X349697Y39238D02*
X359512Y49053D01*
X272894Y39238D02*
X349697D01*
X358769Y37457D02*
X371339Y50027D01*
X271418Y42800D02*
X333427D01*
X229489Y276564D02*
X229646Y276407D01*
X231293D01*
X235191Y272508D01*
X237947D01*
X371339Y50027D02*
Y54522D01*
X347684Y49605D02*
Y54522D01*
Y60602D01*
X359512Y49053D02*
Y54522D01*
X166529Y168601D02*
X166710Y168782D01*
X166529Y158856D02*
Y168601D01*
X141113Y109666D02*
X155148D01*
X108107Y116455D02*
Y123063D01*
X105149Y126022D02*
X108107Y123063D01*
X154220Y144241D02*
X154322Y144139D01*
X160436D01*
X108461Y146279D02*
Y154330D01*
X107544Y155248D02*
X108461Y154330D01*
X368475Y120044D02*
X368534Y120104D01*
Y128608D01*
X368594Y128668D01*
X363475Y120044D02*
X363509Y120078D01*
Y128499D01*
X363542Y128533D01*
X358418Y120102D02*
X358475Y120044D01*
X358418Y120102D02*
Y128694D01*
X358360Y128752D02*
X358418Y128694D01*
X353375Y120145D02*
X353475Y120044D01*
X353375Y120145D02*
Y128698D01*
X353274Y128798D02*
X353375Y128698D01*
X348412Y120108D02*
X348475Y120044D01*
X348412Y120108D02*
Y128669D01*
X348348Y128733D02*
X348412Y128669D01*
X343475Y120044D02*
X343609Y120179D01*
Y128660D01*
X343744Y128795D01*
X338475Y120044D02*
Y127403D01*
X339142Y128069D01*
Y128291D01*
X333471Y120049D02*
X333475Y120044D01*
X333471Y120049D02*
Y127719D01*
X333467Y127724D02*
X333471Y127719D01*
X200129Y111859D02*
X200129Y111859D01*
X207676D01*
X200129Y116977D02*
Y138581D01*
X199614Y139095D02*
X200129Y138581D01*
X116127Y191505D02*
X118763Y194141D01*
Y202217D01*
X143369Y188987D02*
X149315Y194932D01*
Y202488D01*
X118430Y158577D02*
X118763Y158910D01*
X118430Y153925D02*
Y158577D01*
X149297Y168692D02*
X149387Y168782D01*
X149297Y160575D02*
Y168692D01*
X112482Y115603D02*
X118763D01*
X108538Y111659D02*
X112482Y115603D01*
X290686Y139139D02*
X295189Y143642D01*
X290686Y133462D02*
Y139139D01*
Y176769D02*
Y183148D01*
X291854Y184317D01*
X291629Y226160D02*
Y231977D01*
X290686Y225216D02*
X291629Y226160D01*
X333475Y71653D02*
Y82643D01*
Y71653D02*
X334031Y71097D01*
X338475Y61540D02*
Y82643D01*
X343475Y71479D02*
Y82643D01*
X348643Y61560D02*
Y82475D01*
X353475Y71304D02*
Y82643D01*
X363475Y71130D02*
Y82643D01*
X358594Y60844D02*
Y82524D01*
X368475Y65469D02*
Y82643D01*
X335857Y54522D02*
Y58922D01*
X359512Y54522D02*
Y59926D01*
X371339Y54522D02*
Y62604D01*
X368475Y65469D02*
X371339Y62604D01*
X335857Y58922D02*
X338475Y61540D01*
X348475Y82643D02*
X348643Y82475D01*
X343475Y71479D02*
X343857Y71097D01*
X347684Y60602D02*
X348643Y61560D01*
X353475Y71304D02*
X353682Y71097D01*
X358475Y82643D02*
X358594Y82524D01*
X363475Y71130D02*
X363508Y71097D01*
X358594Y60844D02*
X359512Y59926D01*
X260061Y126248D02*
X260062Y126248D01*
X260061Y126248D02*
Y133515D01*
X298834Y128279D02*
Y133435D01*
Y128279D02*
X304134Y122979D01*
X299706Y169298D02*
Y176476D01*
Y169298D02*
X302486Y166517D01*
X290686Y220076D02*
Y225216D01*
X260062Y169555D02*
Y176235D01*
Y169269D02*
Y169555D01*
X259445Y176851D02*
X260062Y176235D01*
X259445Y176851D02*
Y177073D01*
X109716Y202157D02*
Y208169D01*
X105468Y212417D02*
X109716Y208169D01*
X108332Y159705D02*
Y169621D01*
X107161Y170792D02*
X108332Y169621D01*
X165915Y211295D02*
X166710Y212089D01*
X165915Y202489D02*
Y211295D01*
X149315Y212017D02*
X149387Y212089D01*
X149315Y202488D02*
Y212017D01*
X230261Y303532D02*
Y307580D01*
X229373Y308468D02*
X230261Y307580D01*
X229373Y308468D02*
Y308690D01*
X260062Y212862D02*
X260114Y212914D01*
Y220555D01*
X144599Y255029D02*
X153901D01*
X142579Y257049D02*
X144599Y255029D01*
X141034Y303532D02*
X146369D01*
X138722Y301220D02*
X141034Y303532D01*
X144522Y272352D02*
X153901D01*
X144236Y272638D02*
X144522Y272352D01*
X144014Y272638D02*
X144236D01*
X166710Y116911D02*
Y125475D01*
X166252Y116453D02*
X166710Y116911D01*
X149305Y125393D02*
X149387Y125475D01*
X149305Y115173D02*
Y125393D01*
X211159Y16697D02*
Y22135D01*
Y16697D02*
X215624Y12232D01*
X217064Y18348D02*
X217837Y17575D01*
X217064Y18348D02*
Y22135D01*
D54*
X269608Y258313D02*
X269768D01*
X287637Y276181D01*
X287796D01*
X287803Y276187D01*
X364014Y370761D02*
X364798Y371545D01*
X364014Y358469D02*
Y370761D01*
Y358469D02*
X371284D01*
X363158Y357613D02*
X364014Y358469D01*
X363150Y357613D02*
X363158D01*
X81773Y101169D02*
X81985Y101381D01*
Y109432D01*
X86109Y110585D02*
X86115Y110591D01*
X83138Y110585D02*
X86109D01*
X81985Y109432D02*
X83138Y110585D01*
X45767Y100941D02*
X45995Y101169D01*
X39242Y100941D02*
X45767D01*
X373475Y111536D02*
Y120044D01*
X370780Y108841D02*
X373475Y111536D01*
X331159Y108841D02*
X370780D01*
X328475Y111525D02*
Y120044D01*
Y111525D02*
X331159Y108841D01*
D55*
X150673Y75330D02*
X157905D01*
X143441D02*
X150673D01*
X45995Y101169D02*
X81773D01*
X161710D01*
X167606Y95274D01*
X188306D01*
X130257Y76112D02*
X142659D01*
X117856D02*
X130257D01*
X142659D02*
X143441Y75330D01*
X142733Y85241D02*
X157364D01*
X142659Y85167D02*
X142733Y85241D01*
X157364D02*
X178274D01*
X188306Y95274D01*
Y123162D01*
X185993Y125475D02*
X188306Y123162D01*
X321355Y120044D02*
X328475D01*
X304063Y102753D02*
X321355Y120044D01*
X304063Y83324D02*
Y102753D01*
X270547Y83328D02*
X304060D01*
X304063Y83324D01*
X232488Y83328D02*
X270547D01*
X221436Y94381D02*
X232488Y83328D01*
X221436Y94381D02*
Y133143D01*
D56*
X220445Y259668D02*
X224928Y255185D01*
X213077Y259668D02*
X220445D01*
X206998Y273115D02*
X211480Y268633D01*
Y261265D02*
Y268633D01*
X221436Y133143D02*
X228332Y126248D01*
X214540Y140039D02*
X221436Y133143D01*
X301602Y209956D02*
X310269Y218622D01*
X211480Y261265D02*
X213077Y259668D01*
X228332Y126248D02*
X242739D01*
X166710Y125475D02*
X185993D01*
X199614Y139095D01*
X224775Y169555D02*
X242739D01*
X212655Y181674D02*
X224775Y169555D01*
X166710Y168782D02*
X184837D01*
X196785Y180731D01*
X230328Y212862D02*
X242739D01*
X213911Y229279D02*
X230328Y212862D01*
X166710Y212089D02*
X178023D01*
X193957Y228024D01*
X224928Y255185D02*
X237947D01*
X153901Y255029D02*
X176815D01*
X193958Y272172D01*
X84284Y233601D02*
X105468Y212417D01*
X84284Y275841D02*
X133968Y325525D01*
X84284Y233601D02*
Y275841D01*
X275262Y358770D02*
X351086Y282946D01*
X256868Y358770D02*
X275262D01*
X351086Y170169D02*
Y282946D01*
X331077Y182701D02*
Y276782D01*
X267203Y340656D02*
X331077Y276782D01*
X257205Y324419D02*
X310269Y271356D01*
Y218622D02*
Y271356D01*
X304134Y123217D02*
X351086Y170169D01*
X304134Y122979D02*
Y123217D01*
X302486Y166517D02*
X314893D01*
X331077Y182701D01*
X46226Y184944D02*
X105149Y126022D01*
X46226Y184944D02*
Y289682D01*
X114178Y357633D01*
X131754D01*
X64761Y280809D02*
X124009Y340057D01*
X64761Y213191D02*
Y280809D01*
Y213191D02*
X107161Y170792D01*
D57*
X237947Y272508D02*
Y287784D01*
X134511Y166410D02*
X137309Y169208D01*
X148962D02*
X149387Y168782D01*
X137309Y169208D02*
X148962D01*
X260062Y212862D02*
X274938D01*
X260062Y125962D02*
X274938D01*
X260062Y169269D02*
X274938D01*
X134511Y212089D02*
X149387D01*
X134511Y125475D02*
X149387D01*
X134511Y123103D02*
Y125475D01*
X260062Y125962D02*
Y126248D01*
X274938Y212576D02*
Y212862D01*
X153885Y272367D02*
X153901Y272352D01*
X153885Y272367D02*
Y287768D01*
X153869Y287784D02*
X153885Y287768D01*
X134511Y209717D02*
Y212089D01*
X237761Y287784D02*
X237947D01*
D58*
X119095Y375984D02*
D03*
X270669D02*
D03*
D59*
X242126Y350394D02*
D03*
X230315D02*
D03*
X218504D02*
D03*
X206693D02*
D03*
X194882D02*
D03*
X183071D02*
D03*
X171260D02*
D03*
X159449D02*
D03*
X147638D02*
D03*
X236221Y340551D02*
D03*
X224409D02*
D03*
X212598D02*
D03*
X200787D02*
D03*
X188976D02*
D03*
X177165D02*
D03*
X165354D02*
D03*
X153543D02*
D03*
X236221Y328740D02*
D03*
X224409D02*
D03*
X212598D02*
D03*
X200787D02*
D03*
X188976D02*
D03*
X177165D02*
D03*
X165354D02*
D03*
X153543D02*
D03*
X242126Y318898D02*
D03*
X230315D02*
D03*
X218504D02*
D03*
X206693D02*
D03*
X194882D02*
D03*
X183071D02*
D03*
X171260D02*
D03*
X159449D02*
D03*
X147638D02*
D03*
D60*
X269550Y21440D02*
D03*
Y16440D02*
D03*
X274550Y21440D02*
D03*
Y16440D02*
D03*
X279550Y21440D02*
D03*
Y16440D02*
D03*
X284550Y21440D02*
D03*
Y16440D02*
D03*
X289550D02*
D03*
D61*
Y21440D02*
D03*
D62*
X253460Y149144D02*
D03*
X253461Y139302D02*
D03*
X239267Y136974D02*
D03*
X159013Y108020D02*
D03*
X269608Y258313D02*
D03*
X250883Y253581D02*
D03*
X172571Y264193D02*
D03*
X152702Y365540D02*
D03*
Y362940D02*
D03*
Y357740D02*
D03*
Y360340D02*
D03*
X93642Y365540D02*
D03*
Y362940D02*
D03*
Y360340D02*
D03*
Y357740D02*
D03*
X363150Y357613D02*
D03*
X287803Y276187D02*
D03*
X112260Y32690D02*
D03*
X113945Y35034D02*
D03*
X117168Y36279D02*
D03*
X120742Y36831D02*
D03*
X303714Y50625D02*
D03*
X305365Y33058D02*
D03*
X281680Y11174D02*
D03*
X263632Y14225D02*
D03*
X261595Y19070D02*
D03*
X278497Y5312D02*
D03*
X256130Y11823D02*
D03*
X333372Y47226D02*
D03*
X369238Y43595D02*
D03*
X327978Y46843D02*
D03*
X367337Y41020D02*
D03*
X290691Y356900D02*
D03*
X292253Y361977D02*
D03*
X214666Y78230D02*
D03*
X207408Y74834D02*
D03*
X206726Y77816D02*
D03*
X203318Y77537D02*
D03*
X211329Y76779D02*
D03*
X196028Y82060D02*
D03*
X206036Y83353D02*
D03*
X202173Y82008D02*
D03*
X198837Y81770D02*
D03*
X171854Y47412D02*
D03*
X163596Y49698D02*
D03*
X167118Y51122D02*
D03*
X164952Y53292D02*
D03*
X165692Y58567D02*
D03*
X169027Y58544D02*
D03*
X171489Y60379D02*
D03*
X166529Y158856D02*
D03*
X141113Y109666D02*
D03*
X108107Y116455D02*
D03*
X160436Y144139D02*
D03*
X154220Y144241D02*
D03*
X108461Y146279D02*
D03*
X107544Y155248D02*
D03*
X174521Y273081D02*
D03*
X264624Y277728D02*
D03*
X253460Y186018D02*
D03*
X253365Y191751D02*
D03*
X229489Y276564D02*
D03*
X86115Y110591D02*
D03*
X39242Y100941D02*
D03*
X134684Y93200D02*
D03*
X157055Y190601D02*
D03*
X156903Y182562D02*
D03*
X368594Y128668D02*
D03*
X363542Y128533D02*
D03*
X358360Y128752D02*
D03*
X353274Y128798D02*
D03*
X348348Y128733D02*
D03*
X343744Y128795D02*
D03*
X339142Y128291D02*
D03*
X333467Y127724D02*
D03*
X116127Y191505D02*
D03*
X143369Y188987D02*
D03*
X118430Y153925D02*
D03*
X149297Y160575D02*
D03*
X108538Y111659D02*
D03*
X295189Y143642D02*
D03*
X291854Y184317D02*
D03*
X291629Y231977D02*
D03*
X260061Y133515D02*
D03*
X242832Y131584D02*
D03*
X298834Y133435D02*
D03*
X299706Y176476D02*
D03*
X259445Y177073D02*
D03*
X243336Y173681D02*
D03*
X109716Y202157D02*
D03*
X108332Y159705D02*
D03*
X301178Y215920D02*
D03*
X243450Y217259D02*
D03*
X165915Y202489D02*
D03*
X149315Y202488D02*
D03*
X229373Y308690D02*
D03*
X260114Y220555D02*
D03*
X223585Y257187D02*
D03*
X142579Y257049D02*
D03*
X138722Y301220D02*
D03*
X144014Y272638D02*
D03*
X166252Y116453D02*
D03*
X149305Y115173D02*
D03*
M02*
