M48
;Layer_Color=9474304
;FILE_FORMAT=2:5
INCH,TZ
;TYPE=PLATED
T1F00S00C0.01000
T2F00S00C0.02795
T3F00S00C0.05118
;TYPE=NON_PLATED
T4F00S00C0.12992
%
T01
X39242Y100941
X86115Y110591
X108538Y111659
X108107Y116455
X108461Y146279
X107544Y155248
X118430Y153925
X154220Y144241
X149305Y115173
X141113Y109666
X134684Y93200
X120742Y36831
X117168Y36279
X113945Y35034
X112260Y32690
X163596Y49698
X167118Y51122
X164952Y53292
X165692Y58567
X169027Y58544
X171489Y60379
X171854Y47412
X196028Y82060
X198837Y81770
X202173Y82008
X206036Y83353
X206726Y77816
X207408Y74834
X211329Y76779
X214666Y78230
X203318Y77537
X159013Y108020
X166252Y116453
X160436Y144139
X239267Y136974
X242832Y131584
X253461Y139302
X253460Y149144
X260061Y133515
X298834Y133435
X295189Y143642
X303714Y50625
X305365Y33058
X281680Y11174
X278497Y5312
X263632Y14225
X261595Y19070
X256130Y11823
X327978Y46843
X333372Y47226
X369238Y43595
X367337Y41020
X368594Y128668
X363542Y128533
X358360Y128752
X353274Y128798
X348348Y128733
X343744Y128795
X339142Y128291
X333467Y127724
X299706Y176476
X291854Y184317
X259445Y177073
X253460Y186018
X253365Y191751
X243336Y173681
X243450Y217259
X260114Y220555
X250883Y253581
X269608Y258313
X264624Y277728
X287803Y276187
X291629Y231977
X301178Y215920
X223585Y257187
X229489Y276564
X229373Y308690
X174521Y273081
X172571Y264193
X165915Y202489
X157055Y190601
X156903Y182562
X166529Y158856
X149297Y160575
X143369Y188987
X149315Y202488
X109716Y202157
X116127Y191505
X108332Y159705
X142579Y257049
X144014Y272638
X138722Y301220
X152702Y357740
Y360340
Y362940
Y365540
X93642
Y362940
Y360340
Y357740
X290691Y356900
X292253Y361977
X363150Y357613
T02
X269550Y16440
Y21440
X274550
Y16440
X279550
Y21440
X284550
Y16440
X289550
Y21440
T03
X147638Y318898
X153543Y328740
Y340551
X147638Y350394
X159449
X171260
X183071
X194882
X206693
X218504
X230315
X242126
X236221Y340551
X224409
Y328740
X236221
X242126Y318898
X230315
X218504
X206693
X194882
X183071
X171260
X159449
X165354Y328740
Y340551
X177165
Y328740
X188976
Y340551
X200787
X212598
Y328740
X200787
T04
X119095Y375984
X270669
M30
