G04*
G04 #@! TF.GenerationSoftware,Altium Limited,Altium Designer,20.0.11 (256)*
G04*
G04 Layer_Physical_Order=2*
G04 Layer_Color=16711680*
%FSLAX25Y25*%
%MOIN*%
G70*
G01*
G75*
%ADD13C,0.01000*%
%ADD26C,0.05118*%
%ADD27C,0.06299*%
%ADD28C,0.02284*%
D13*
X347539Y113681D02*
X367028D01*
X291240Y198130D02*
X325886Y163484D01*
X383268Y173228D02*
Y240354D01*
Y173228D02*
X386516Y169980D01*
X390846Y155906D02*
Y237119D01*
Y155906D02*
X398425Y148327D01*
X390846Y237119D02*
X393268Y239540D01*
X394094Y177559D02*
Y194882D01*
X402756Y203543D01*
X393268Y239540D02*
Y240354D01*
X402756Y203543D02*
X435236D01*
X474213Y242520D01*
X399167Y164567D02*
X399660Y164074D01*
X398425Y164567D02*
X399167D01*
X398425Y191634D02*
X407087Y200295D01*
X398425Y164567D02*
Y191634D01*
X450394Y200295D02*
X477461Y227362D01*
X407087Y200295D02*
X450394D01*
X300984Y207874D02*
X339961Y168898D01*
X251181Y207874D02*
X300984D01*
X227106Y231949D02*
Y240354D01*
Y231949D02*
X251181Y207874D01*
X74705Y232776D02*
X141831D01*
X151575Y242520D02*
Y242520D01*
X70425Y240354D02*
X71063Y239716D01*
Y236417D02*
Y239716D01*
X151575Y242520D02*
X155905Y246850D01*
X71063Y236417D02*
X74705Y232776D01*
X141831D02*
X151575Y242520D01*
X163740Y246850D02*
X170236Y240354D01*
X155905Y246850D02*
X163740D01*
X383268Y136417D02*
X393012D01*
X251181Y214370D02*
X305315D01*
X383268Y136417D01*
X284744Y193799D02*
X355118Y123425D01*
X233858Y193799D02*
X284744D01*
X355118Y123425D02*
X389764D01*
X346457Y118012D02*
X388681D01*
X225197Y186221D02*
X278248D01*
X346457Y118012D01*
X398425Y148327D02*
Y148327D01*
X387598Y164567D02*
X387598D01*
X358366Y193799D02*
X387598Y164567D01*
X244685Y198130D02*
X291240D01*
X217618Y225197D02*
X244685Y198130D01*
X197047Y225197D02*
X217618D01*
X251181Y201378D02*
X294488D01*
X165650Y228445D02*
X224114D01*
X251181Y201378D01*
X249016Y16240D02*
X249016D01*
X243602Y10827D02*
X249016Y16240D01*
X233858Y10827D02*
X243602D01*
X148327Y18406D02*
X226279D01*
X233858Y10827D01*
X139665Y9744D02*
X148327Y18406D01*
X128839Y9744D02*
X139665D01*
X126673Y16240D02*
X126992Y15921D01*
Y11591D02*
Y15921D01*
Y11591D02*
X128839Y9744D01*
X165650Y66043D02*
X299902D01*
X133169Y33563D02*
X165650Y66043D01*
X299902D02*
X347539Y113681D01*
X296988Y16240D02*
X366280Y85532D01*
X371358D01*
X390846Y54134D02*
X407087Y37894D01*
X390846Y54134D02*
Y85532D01*
X358366Y193799D02*
Y228445D01*
X474213Y242520D02*
X478543Y246850D01*
X474213Y242520D02*
X474213D01*
X488091Y246850D02*
X494587Y240354D01*
X478543Y246850D02*
X488091D01*
X152657Y225197D02*
X197047D01*
X160236Y233858D02*
X165650Y228445D01*
X81201Y229528D02*
X148327D01*
X152657Y225197D01*
X76870D02*
X81201Y229528D01*
X56299Y225197D02*
X76870D01*
X138583Y214370D02*
X150492Y202461D01*
X32480Y214370D02*
X138583D01*
X14902Y231949D02*
X32480Y214370D01*
X462047Y16240D02*
X462303Y16496D01*
Y87697D01*
X443898Y57382D02*
Y98524D01*
X402756Y16240D02*
X443898Y57382D01*
X214370Y28150D02*
X245768Y59547D01*
X349705Y108268D02*
X389764D01*
X245768Y59547D02*
X300984D01*
X349705Y108268D01*
X218701Y23819D02*
X243602Y48720D01*
X360531Y101772D02*
X391929D01*
X243602Y48720D02*
X307480D01*
X360531Y101772D01*
X239016Y16240D02*
X261880Y39104D01*
X369193Y96358D02*
X396260D01*
X261880Y39104D02*
X311939D01*
X369193Y96358D01*
X306988Y16240D02*
Y16240D01*
X380610Y89862D02*
X398425D01*
X306988Y16240D02*
X380610Y89862D01*
X103937Y33563D02*
X133169D01*
X67126Y25984D02*
X69291Y28150D01*
X214370D01*
X136673Y23172D02*
X137320Y23819D01*
X218701D01*
X67126Y16240D02*
Y25984D01*
X136673Y16240D02*
Y23172D01*
X454724Y105020D02*
X472047Y87697D01*
Y16240D02*
Y87697D01*
X14902Y231949D02*
Y240354D01*
X87697Y225197D02*
X139665D01*
X160236Y233858D02*
Y240354D01*
X237106Y228445D02*
Y240354D01*
Y228445D02*
X251181Y214370D01*
X320472Y219783D02*
Y223031D01*
Y240354D01*
X508492Y220866D02*
X534197D01*
X537445Y224114D02*
X537445D01*
X534197Y220866D02*
X537445Y224114D01*
X484587Y230157D02*
Y240354D01*
X468799Y214370D02*
X484587Y230157D01*
X537445Y224114D02*
X553685Y240354D01*
X443898Y136417D02*
X447146D01*
X468799Y158071D01*
Y214370D01*
X443898Y129921D02*
X453642D01*
X483957Y160236D02*
Y196330D01*
X453642Y129921D02*
X483957Y160236D01*
Y196330D02*
X508492Y220866D01*
X150492Y202461D02*
X208957D01*
X139665Y225197D02*
X151575Y213287D01*
X214370D01*
X208957Y202461D02*
X225197Y186221D01*
X388681Y118012D02*
X395177Y111516D01*
X214370Y213287D02*
X233858Y193799D01*
X389764Y123425D02*
X396260Y116929D01*
X394094Y129921D02*
X400591Y123425D01*
X365945Y129921D02*
X394094D01*
X294488Y201378D02*
X365945Y129921D01*
X400591Y123425D02*
X443898D01*
X396260Y116929D02*
X443898D01*
X395177Y111516D02*
X443898D01*
X320472Y219783D02*
X397342Y142913D01*
X443898Y105020D02*
X454724D01*
D26*
X426024Y84646D02*
D03*
Y171260D02*
D03*
X234685Y84646D02*
D03*
Y171260D02*
D03*
D27*
X296988Y16240D02*
D03*
X306988D02*
D03*
X462047D02*
D03*
X472047D02*
D03*
X249016Y16240D02*
D03*
X239016D02*
D03*
X24902Y240354D02*
D03*
X14902D02*
D03*
X494587Y240354D02*
D03*
X484587D02*
D03*
X126673Y16240D02*
D03*
X136673D02*
D03*
X70425Y240354D02*
D03*
X80425D02*
D03*
X227106D02*
D03*
X237106D02*
D03*
X543685Y240354D02*
D03*
X553685D02*
D03*
X412756Y16240D02*
D03*
X402756D02*
D03*
X383268Y240354D02*
D03*
X393268D02*
D03*
X330472Y240354D02*
D03*
X320472D02*
D03*
X170236Y240354D02*
D03*
X160236D02*
D03*
X77126Y16240D02*
D03*
X67126D02*
D03*
D28*
X367028Y113681D02*
D03*
X325886Y163484D02*
D03*
X386516Y169980D02*
D03*
X394094Y177559D02*
D03*
X399660Y164074D02*
D03*
X339961Y168898D02*
D03*
X398425Y148327D02*
D03*
X387598Y164567D02*
D03*
X371358Y85532D02*
D03*
X390846D02*
D03*
X462303Y87697D02*
D03*
X358366Y228445D02*
D03*
X477461Y227362D02*
D03*
X197047Y225197D02*
D03*
X87697D02*
D03*
X56299D02*
D03*
X407087Y37894D02*
D03*
X299902Y66043D02*
D03*
X103937Y33563D02*
D03*
X393012Y136417D02*
D03*
X397342Y142913D02*
D03*
X398425Y89862D02*
D03*
X389764Y108268D02*
D03*
X391929Y101772D02*
D03*
X396260Y96358D02*
D03*
X443898Y98524D02*
D03*
Y105020D02*
D03*
Y111516D02*
D03*
Y116929D02*
D03*
Y123425D02*
D03*
Y129921D02*
D03*
Y136417D02*
D03*
M02*
