G04*
G04 #@! TF.GenerationSoftware,Altium Limited,Altium Designer,20.0.11 (256)*
G04*
G04 Layer_Color=16711935*
%FSLAX25Y25*%
%MOIN*%
G70*
G01*
G75*
%ADD30C,0.00394*%
D30*
X201378Y124902D02*
Y130610D01*
X210039Y124902D02*
Y130610D01*
X201378D02*
X210039D01*
X201378Y124902D02*
X210039D01*
X201378Y111909D02*
Y117618D01*
X210039Y111909D02*
Y117618D01*
X201378D02*
X210039D01*
X201378Y111909D02*
X210039D01*
X201378Y100000D02*
Y105709D01*
X210039Y100000D02*
Y105709D01*
X201378D02*
X210039D01*
X201378Y100000D02*
X210039D01*
X201378Y88090D02*
Y93799D01*
X210039Y88090D02*
Y93799D01*
X201378D02*
X210039D01*
X201378Y88090D02*
X210039D01*
X271752Y134646D02*
Y140354D01*
X263090Y134646D02*
Y140354D01*
Y134646D02*
X271752D01*
X263090Y140354D02*
X271752D01*
Y121653D02*
Y127362D01*
X263090Y121653D02*
Y127362D01*
Y121653D02*
X271752D01*
X263090Y127362D02*
X271752D01*
X278543Y12795D02*
X282283D01*
X278543Y19685D02*
X282283D01*
X278543Y12795D02*
Y19685D01*
X282283Y12795D02*
Y19685D01*
X443110Y12795D02*
X446850D01*
X443110Y19685D02*
X446850D01*
X443110Y12795D02*
Y19685D01*
X446850Y12795D02*
Y19685D01*
X264764Y12795D02*
X268504D01*
X264764Y19685D02*
X268504D01*
X264764Y12795D02*
Y19685D01*
X268504Y12795D02*
Y19685D01*
X40354Y243799D02*
X44094D01*
X40354Y236910D02*
X44094D01*
Y243799D01*
X40354Y236910D02*
Y243799D01*
X510236Y244193D02*
X513976D01*
X510236Y237303D02*
X513976D01*
Y244193D01*
X510236Y237303D02*
Y244193D01*
X107480Y12795D02*
X111221D01*
X107480Y19685D02*
X111221D01*
X107480Y12795D02*
Y19685D01*
X111221Y12795D02*
Y19685D01*
X51181Y243799D02*
X54921D01*
X51181Y236910D02*
X54921D01*
Y243799D01*
X51181Y236910D02*
Y243799D01*
X208169D02*
X211910D01*
X208169Y236910D02*
X211910D01*
Y243799D01*
X208169Y236910D02*
Y243799D01*
X524311Y244193D02*
X528051D01*
X524311Y237303D02*
X528051D01*
Y244193D01*
X524311Y237303D02*
Y244193D01*
X427953Y12795D02*
X431693D01*
X427953Y19685D02*
X431693D01*
X427953Y12795D02*
Y19685D01*
X431693Y12795D02*
Y19685D01*
X364075Y243799D02*
X367815D01*
X364075Y236910D02*
X367815D01*
Y243799D01*
X364075Y236910D02*
Y243799D01*
X346752D02*
X350492D01*
X346752Y236910D02*
X350492D01*
Y243799D01*
X346752Y236910D02*
Y243799D01*
X185433D02*
X189173D01*
X185433Y236910D02*
X189173D01*
Y243799D01*
X185433Y236910D02*
Y243799D01*
X92323Y12795D02*
X96063D01*
X92323Y19685D02*
X96063D01*
X92323Y12795D02*
Y19685D01*
X96063Y12795D02*
Y19685D01*
X286122Y12795D02*
X289862D01*
X286122Y19685D02*
X289862D01*
X286122Y12795D02*
Y19685D01*
X289862Y12795D02*
Y19685D01*
X450689Y12795D02*
X454429D01*
X450689Y19685D02*
X454429D01*
X450689Y12795D02*
Y19685D01*
X454429Y12795D02*
Y19685D01*
X257185Y12795D02*
X260925D01*
X257185Y19685D02*
X260925D01*
X257185Y12795D02*
Y19685D01*
X260925Y12795D02*
Y19685D01*
X32776Y243799D02*
X36516D01*
X32776Y236910D02*
X36516D01*
Y243799D01*
X32776Y236910D02*
Y243799D01*
X502658Y244193D02*
X506398D01*
X502658Y237303D02*
X506398D01*
Y244193D01*
X502658Y237303D02*
Y244193D01*
X115059Y12795D02*
X118799D01*
X115059Y19685D02*
X118799D01*
X115059Y12795D02*
Y19685D01*
X118799Y12795D02*
Y19685D01*
X58760Y243799D02*
X62500D01*
X58760Y236910D02*
X62500D01*
Y243799D01*
X58760Y236910D02*
Y243799D01*
X215748D02*
X219488D01*
X215748Y236910D02*
X219488D01*
Y243799D01*
X215748Y236910D02*
Y243799D01*
X531890Y244193D02*
X535630D01*
X531890Y237303D02*
X535630D01*
Y244193D01*
X531890Y237303D02*
Y244193D01*
X420374Y12795D02*
X424114D01*
X420374Y19685D02*
X424114D01*
X420374Y12795D02*
Y19685D01*
X424114Y12795D02*
Y19685D01*
X371654Y243799D02*
X375394D01*
X371654Y236910D02*
X375394D01*
Y243799D01*
X371654Y236910D02*
Y243799D01*
X339173D02*
X342913D01*
X339173Y236910D02*
X342913D01*
Y243799D01*
X339173Y236910D02*
Y243799D01*
X177854D02*
X181595D01*
X177854Y236910D02*
X181595D01*
Y243799D01*
X177854Y236910D02*
Y243799D01*
X84744Y12795D02*
X88484D01*
X84744Y19685D02*
X88484D01*
X84744Y12795D02*
Y19685D01*
X88484Y12795D02*
Y19685D01*
X271752Y109744D02*
Y115453D01*
X263090Y109744D02*
Y115453D01*
Y109744D02*
X271752D01*
X263090Y115453D02*
X271752D01*
X271752Y97835D02*
Y103543D01*
X263091Y97835D02*
Y103543D01*
Y97835D02*
X271752D01*
X263091Y103543D02*
X271752D01*
X271752Y85925D02*
Y91634D01*
X263090Y85925D02*
Y91634D01*
Y85925D02*
X271752D01*
X263090Y91634D02*
X271752D01*
M02*
