%TF.GenerationSoftware,Altium Limited,Altium Designer,19.1.8 (144)*%
G04 Layer_Physical_Order=2*
G04 Layer_Color=16711680*
%FSLAX26Y26*%
%MOIN*%
%TF.FileFunction,Copper,L2,Bot,Signal*%
%TF.Part,Single*%
G01*
G75*
%TA.AperFunction,Conductor*%
%ADD14C,0.010000*%
%TA.AperFunction,ComponentPad*%
%ADD16C,0.047244*%
%ADD17C,0.051181*%
%TA.AperFunction,ViaPad*%
%ADD18C,0.050000*%
D14*
X1710728Y422244D02*
X2593671Y1305187D01*
X995394Y422244D02*
X1710728D01*
X770000Y196850D02*
X995394Y422244D01*
X1508741Y400591D02*
X1717359D01*
X1305000Y196850D02*
X1508741Y400591D01*
X1717359D02*
X2269760Y952991D01*
X3339756Y1522828D02*
X3343503Y1519081D01*
X2699613Y1522828D02*
X3339756D01*
X2695866Y1526575D02*
X2699613Y1522828D01*
X4262438Y1266732D02*
X4471457D01*
X4254921Y1259216D02*
X4262438Y1266732D01*
X5164370Y2327756D02*
X5199566Y2362952D01*
X4807087Y2327756D02*
X5164370D01*
X4608898Y2129567D02*
X4807087Y2327756D01*
X4568898Y1112723D02*
X4608898Y1152723D01*
X4568898Y1028543D02*
Y1112723D01*
X4608898Y1152723D02*
Y2129567D01*
X5025998Y2362952D02*
X5064620Y2401574D01*
X5110000D01*
X4809802Y2362952D02*
X5025998D01*
X4568898Y2122047D02*
X4809802Y2362952D01*
X4568898Y1169291D02*
Y2122047D01*
X2793307Y1450787D02*
X3340499D01*
X3343503Y1447783D01*
X1322835Y2401574D02*
X2273622Y1450787D01*
X785433Y2401574D02*
X1322835D01*
X2273622Y1450787D02*
X2316929D01*
Y1104331D02*
Y1331693D01*
X1285670Y2362952D02*
X2316929Y1331693D01*
X669435Y2362952D02*
X1285670D01*
X630813Y2401574D02*
X669435Y2362952D01*
X372047Y2401574D02*
X630813D01*
X3094803Y548077D02*
X3217987Y671262D01*
X3254664Y736222D02*
X3345481D01*
X3074803Y556361D02*
X3254664Y736222D01*
X3296260Y806102D02*
X3343503D01*
X3054803Y564646D02*
X3296260Y806102D01*
X3054803Y326457D02*
Y564646D01*
X2925196Y196850D02*
X3054803Y326457D01*
X2485000Y196850D02*
X2925196D01*
X3094803Y201653D02*
Y548077D01*
X3217987Y671262D02*
X3345481D01*
X3074803Y281653D02*
Y556361D01*
X3090000Y196850D02*
X3094803Y201653D01*
X2990000Y196850D02*
X3074803Y281653D01*
X2540236Y948701D02*
X3343503D01*
X2488937Y897402D02*
X2540236Y948701D01*
X3260000Y2401574D02*
X3345472Y2316102D01*
Y1927165D02*
Y2316102D01*
Y1862205D02*
X3353126Y1869858D01*
X3378284D01*
X3910000Y2401574D01*
X2858268Y1234252D02*
X2858449Y1234071D01*
X3343322D01*
X3343503Y1233889D01*
X3160000Y1982716D02*
X3345472Y1797244D01*
X4471457Y1093504D02*
X4503937Y1061024D01*
X4417323Y1093504D02*
X4471457D01*
X4384985Y1061166D02*
X4417323Y1093504D01*
X3160000Y1982716D02*
Y2401574D01*
X4503937Y1006890D02*
Y1061024D01*
X4449803Y952756D02*
X4503937Y1006890D01*
X4449803Y941929D02*
Y952756D01*
X5650000Y2391142D02*
Y2401574D01*
X5621810Y2362952D02*
X5650000Y2391142D01*
X5199566Y2362952D02*
X5621810D01*
X4265887Y1061166D02*
X4384985D01*
X4244092Y1039370D02*
X4265887Y1061166D01*
X4233268Y1039370D02*
X4244092D01*
X4273924Y1085984D02*
X4289835Y1101895D01*
X4032644Y1085984D02*
X4273924D01*
X4249836Y1118465D02*
X4300663Y1169292D01*
X4216699Y1118465D02*
X4249836D01*
X4300663Y1169292D02*
X4449803D01*
X4528898Y392952D02*
Y1306732D01*
Y392952D02*
X4725000Y196850D01*
X4482283Y1353347D02*
X4528898Y1306732D01*
X2768600Y1732974D02*
X3343503D01*
X2100000Y2401574D02*
X2768600Y1732974D01*
X2411666Y1590378D02*
X3343503D01*
X2308895Y1693149D02*
X2411666Y1590378D01*
X2283425Y1693149D02*
X2308895D01*
X1575000Y2401574D02*
X2283425Y1693149D01*
X2456130Y897402D02*
X2488937D01*
X2449831Y891102D02*
X2456130Y897402D01*
X2426073Y891102D02*
X2449831D01*
X2387441Y852470D02*
X2426073Y891102D01*
X2401301Y931102D02*
X2433262D01*
X2457679Y844490D02*
X2490591Y877402D01*
X2436030Y844490D02*
X2457679D01*
X2387441Y829643D02*
Y852470D01*
X2363663Y805865D02*
X2387441Y829643D01*
X2312245Y805865D02*
X2363663D01*
X2379412Y952991D02*
X2401301Y931102D01*
X2295276Y822835D02*
X2312245Y805865D01*
X2284449Y822835D02*
X2295276D01*
X2360236Y1375000D02*
X3342018D01*
X3343503Y1376485D01*
X2490591Y877402D02*
X3343503D01*
X2269760Y952991D02*
X2379412D01*
X2593671Y1305187D02*
X3343503D01*
X4287402Y1353347D02*
X4482283D01*
X4208304Y1259216D02*
X4254921D01*
X4070866Y225984D02*
Y898622D01*
Y225984D02*
X4100000Y196850D01*
X5066103Y2457677D02*
X5493897D01*
X5550000Y2401574D01*
X5010000D02*
X5066103Y2457677D01*
X4953897D02*
X5010000Y2401574D01*
X3866103Y2457677D02*
X4953897D01*
X3810000Y2401574D02*
X3866103Y2457677D01*
X3216103D02*
X3753897D01*
X3810000Y2401574D01*
X3160000D02*
X3216103Y2457677D01*
X2056103D02*
X3103897D01*
X3160000Y2401574D01*
X2000000D02*
X2056103Y2457677D01*
X1531103D02*
X1943897D01*
X2000000Y2401574D01*
X1475000D02*
X1531103Y2457677D01*
X747047D02*
X1418897D01*
X1475000Y2401574D01*
X690944D02*
X747047Y2457677D01*
X685433Y2401574D02*
X690944D01*
X324803Y2457677D02*
X629330D01*
X685433Y2401574D01*
X272047Y2404921D02*
X324803Y2457677D01*
X272047Y2401574D02*
Y2404921D01*
X4056102Y140748D02*
X4568898D01*
X4625000Y196850D01*
X4000000D02*
X4056102Y140748D01*
X3046102D02*
X3943898D01*
X4000000Y196850D01*
X2990000D02*
X3046102Y140748D01*
X2933898D02*
X2990000Y196850D01*
X2441102Y140748D02*
X2933898D01*
X2385000Y196850D02*
X2441102Y140748D01*
X2328898D02*
X2385000Y196850D01*
X1261102Y140748D02*
X2328898D01*
X1205000Y196850D02*
X1261102Y140748D01*
X725394Y141456D02*
X1149606D01*
X1205000Y196850D01*
X670000D02*
X725394Y141456D01*
X3884376Y1234252D02*
X4032644Y1085984D01*
X4024360Y1065984D02*
X4206654D01*
X4037710Y996066D02*
X4070877D01*
X3864485Y1169291D02*
X4037710Y996066D01*
X3857854Y1147638D02*
X4049426Y956066D01*
X4087445D01*
X4105792Y974412D01*
X4016076Y1045984D02*
X4170085D01*
X4105792Y974412D02*
X4287413D01*
X3877746Y1212598D02*
X4024360Y1065984D01*
X3871115Y1190945D02*
X4016076Y1045984D01*
X4170085D02*
X4216699Y999370D01*
X4206654Y1065984D02*
X4233268Y1039370D01*
X4016732Y1255906D02*
X4060039D01*
X3919291Y1353347D02*
X4016732Y1255906D01*
X3746063Y1353347D02*
X3919291D01*
X3908465Y1331693D02*
X4024252Y1215906D01*
X3735236Y1331693D02*
X3908465D01*
X3902490Y1305187D02*
X4016732Y1190945D01*
X3343503Y1305187D02*
X3902490D01*
X4016732Y1190945D02*
X4200787D01*
X4024252Y1215906D02*
X4284109D01*
X4020928Y1125984D02*
X4060039D01*
X3891007Y1255906D02*
X4020928Y1125984D01*
X3746063Y1255906D02*
X3891007D01*
X4004252Y1170945D02*
X4164219D01*
X3897638Y1277559D02*
X4004252Y1170945D01*
X3735236Y1277559D02*
X3897638D01*
X3756890Y1234252D02*
X3884376D01*
X3767716Y1212598D02*
X3877746D01*
X3778543Y1190945D02*
X3871115D01*
X3789370Y1169291D02*
X3864485D01*
X3800197Y1147638D02*
X3857854D01*
X3458662Y806102D02*
X3800197Y1147638D01*
X4200787Y1190945D02*
X4233268Y1158465D01*
X3343503Y806102D02*
X3458662D01*
X3497480Y877402D02*
X3789370Y1169291D01*
X3343503Y877402D02*
X3497480D01*
X3536299Y948701D02*
X3778543Y1190945D01*
X3343503Y948701D02*
X3536299D01*
X3575114Y1019996D02*
X3767716Y1212598D01*
X3343503Y1019996D02*
X3575114D01*
X3613932Y1091294D02*
X3756890Y1234252D01*
X3343503Y1091294D02*
X3613932D01*
X3652749Y1162591D02*
X3746063Y1255906D01*
X3343503Y1162591D02*
X3652749D01*
X3691566Y1233889D02*
X3735236Y1277559D01*
X3343503Y1233889D02*
X3691566D01*
X3332677Y1661676D02*
X3343503D01*
X4216699Y999370D02*
X4249836D01*
X4290821Y1040355D01*
X4448819D01*
X4164219Y1170945D02*
X4216699Y1118465D01*
X3343503Y1732974D02*
X3496357D01*
X3789370Y1439961D01*
X3962598D01*
X4005905Y1396654D01*
X3343503Y1661676D02*
X3535174D01*
X3778543Y1418307D01*
X3951772D01*
X4024252Y1345827D01*
X3573992Y1590378D02*
X3767716Y1396653D01*
X3343503Y1590378D02*
X3573992D01*
X3612809Y1519081D02*
X3756890Y1375000D01*
X3343503Y1519081D02*
X3612809D01*
X3940945Y1396653D02*
X4011772Y1325827D01*
X3767716Y1396653D02*
X3940945D01*
X3934314Y1375000D02*
X4003488Y1305827D01*
X3756890Y1375000D02*
X3934314D01*
X3651627Y1447783D02*
X3746063Y1353347D01*
X3343503Y1447783D02*
X3651627D01*
X3690444Y1376485D02*
X3735236Y1331693D01*
X3343503Y1376485D02*
X3690444D01*
X4284109Y1215906D02*
X4287413Y1212602D01*
X4003488Y1305827D02*
X4161693D01*
X4011772Y1325827D02*
X4176077D01*
X4024252Y1345827D02*
X4170331D01*
X4049213Y1396654D02*
X4060039Y1385827D01*
X4005905Y1396654D02*
X4049213D01*
X4170331Y1345827D02*
X4177851Y1353347D01*
X4287402D01*
X4161693Y1305827D02*
X4208304Y1259216D01*
X4176077Y1325827D02*
X4202687Y1299216D01*
X4233279D01*
X3332677Y1019996D02*
X3343503D01*
X3332677Y1091294D02*
X3343503D01*
X3332677Y1162591D02*
X3343503D01*
D16*
X4725000Y196850D02*
D03*
X4625000D02*
D03*
X4100000D02*
D03*
X4000000D02*
D03*
X2990000D02*
D03*
X3090000D02*
D03*
X2485000D02*
D03*
X2385000D02*
D03*
X1305000D02*
D03*
X1205000D02*
D03*
X372047Y2401574D02*
D03*
X272047D02*
D03*
X785433D02*
D03*
X685433D02*
D03*
X1575000D02*
D03*
X1475000D02*
D03*
X2100000D02*
D03*
X2000000D02*
D03*
X3260000D02*
D03*
X3160000D02*
D03*
X3910000D02*
D03*
X3810000D02*
D03*
X5110000D02*
D03*
X5010000D02*
D03*
X5650000D02*
D03*
X5550000D02*
D03*
X770000Y196850D02*
D03*
X670000D02*
D03*
D17*
X2346850Y846456D02*
D03*
Y1712598D02*
D03*
X4260236Y846456D02*
D03*
Y1712598D02*
D03*
D18*
X4471457Y1266732D02*
D03*
X2793307Y1450787D02*
D03*
X2695866Y1526575D02*
D03*
X3345481Y671262D02*
D03*
X3345472Y1927165D02*
D03*
Y1862205D02*
D03*
X2858268Y1234252D02*
D03*
X3345472Y1797244D02*
D03*
X4568898Y1169291D02*
D03*
X4289835Y1101895D02*
D03*
X4449803Y941929D02*
D03*
X4568898Y1028543D02*
D03*
X3345481Y736222D02*
D03*
X2433262Y931102D02*
D03*
X2436030Y844490D02*
D03*
X2284449Y822835D02*
D03*
X2360236Y1375000D02*
D03*
X2316929Y1450787D02*
D03*
Y1104331D02*
D03*
X4070866Y898622D02*
D03*
X4070877Y996066D02*
D03*
X4448819Y1040355D02*
D03*
X4449803Y1169292D02*
D03*
X4060039Y1125984D02*
D03*
X4233268Y1039370D02*
D03*
X4060039Y1255906D02*
D03*
Y1385827D02*
D03*
X3343503Y806102D02*
D03*
X4287413Y974412D02*
D03*
X4233268Y1158465D02*
D03*
X4287413Y1212602D02*
D03*
X4233279Y1299216D02*
D03*
X4287402Y1353347D02*
D03*
X3343503Y877402D02*
D03*
Y948701D02*
D03*
Y1019996D02*
D03*
Y1091294D02*
D03*
Y1162591D02*
D03*
Y1233889D02*
D03*
Y1305187D02*
D03*
Y1376485D02*
D03*
Y1447783D02*
D03*
Y1519081D02*
D03*
Y1590378D02*
D03*
Y1661676D02*
D03*
Y1732974D02*
D03*
%TF.MD5,8889b9cdefaf0e3a785e7260373ad8cf*%
M02*
