G04*
G04 #@! TF.GenerationSoftware,Altium Limited,Altium Designer,20.0.11 (256)*
G04*
G04 Layer_Physical_Order=1*
G04 Layer_Color=255*
%FSLAX25Y25*%
%MOIN*%
G70*
G01*
G75*
%ADD13C,0.01000*%
%ADD14R,0.03937X0.05709*%
%ADD15R,0.04331X0.01968*%
%ADD16R,0.03740X0.03347*%
G04:AMPARAMS|DCode=17|XSize=196.85mil|YSize=196.85mil|CornerRadius=49.21mil|HoleSize=0mil|Usage=FLASHONLY|Rotation=0.000|XOffset=0mil|YOffset=0mil|HoleType=Round|Shape=RoundedRectangle|*
%AMROUNDEDRECTD17*
21,1,0.19685,0.09843,0,0,0.0*
21,1,0.09843,0.19685,0,0,0.0*
1,1,0.09843,0.04921,-0.04921*
1,1,0.09843,-0.04921,-0.04921*
1,1,0.09843,-0.04921,0.04921*
1,1,0.09843,0.04921,0.04921*
%
%ADD17ROUNDEDRECTD17*%
%ADD25C,0.01968*%
%ADD26C,0.05118*%
%ADD27C,0.06299*%
%ADD28C,0.02284*%
D13*
X367028Y135335D02*
X388681Y156988D01*
X367028Y109350D02*
X390846Y85532D01*
X367028Y113681D02*
Y135335D01*
Y109350D02*
Y113681D01*
X332382Y156988D02*
X388681D01*
X325886Y163484D02*
X332382Y156988D01*
X386516Y169980D02*
X394094Y177559D01*
Y177559D01*
X341043Y169980D02*
X386516D01*
X395177D01*
X407087Y181890D01*
X339961Y168898D02*
X341043Y169980D01*
X434924Y148425D02*
Y157874D01*
X407087Y181890D02*
X442815D01*
X401240Y163918D02*
X404921Y160236D01*
X417123Y148425D02*
Y154724D01*
X399816Y163918D02*
X401240D01*
X399660Y164074D02*
X399816Y163918D01*
X80425Y232469D02*
Y240354D01*
Y232469D02*
X87697Y225197D01*
X72846Y232776D02*
X80425Y240354D01*
X62795Y232776D02*
X72846D01*
X60630Y234941D02*
X62795Y232776D01*
X66432Y242913D02*
X68991Y240354D01*
X60630Y242913D02*
X66432D01*
X68991Y240354D02*
X70425D01*
X60630Y234941D02*
Y237795D01*
X398425Y148327D02*
X398425D01*
X407776Y138976D02*
X417123D01*
X398425Y148327D02*
X407776Y138976D01*
X434924Y157874D02*
X441536D01*
X446063Y162402D02*
Y178642D01*
X441536Y157874D02*
X446063Y162402D01*
X442815Y181890D02*
X446063Y178642D01*
X416926Y158071D02*
X417123Y157874D01*
X407087Y158071D02*
X416926D01*
X391929Y160236D02*
X404921D01*
X407087Y158071D01*
X387598Y164567D02*
X391929Y160236D01*
X417123Y154724D02*
Y157874D01*
X405020Y154724D02*
X417123D01*
X402756Y156988D02*
X405020Y154724D01*
X388681Y156988D02*
X402756D01*
X375689Y81201D02*
X404921D01*
X411417Y74705D02*
X436319D01*
X404921Y81201D02*
X411417Y74705D01*
X436319D02*
X449311Y87697D01*
X462303D01*
X371358Y85532D02*
X375689Y81201D01*
X434924Y148425D02*
X451378D01*
X462303Y87697D02*
Y137500D01*
X451378Y148425D02*
X462303Y137500D01*
X373524Y242913D02*
Y246850D01*
X342126Y247933D02*
X372441D01*
X373524Y246850D01*
X341043Y242913D02*
Y246850D01*
X342126Y247933D01*
X357283Y242913D02*
X365945D01*
X348622D02*
X357283D01*
Y229528D02*
Y242913D01*
Y229528D02*
X358366Y228445D01*
X519144Y243307D02*
X526181D01*
X512106D02*
X519144D01*
X477461Y227362D02*
X512106D01*
X519144Y234400D02*
Y243307D01*
X512106Y227362D02*
X519144Y234400D01*
X504528Y243307D02*
Y246850D01*
X505610Y247933D01*
X532677D01*
X533760Y243307D02*
Y246850D01*
X532677Y247933D02*
X533760Y246850D01*
X198671Y242913D02*
X210039D01*
X187303D02*
X198671D01*
Y226821D02*
Y242913D01*
X197047Y225197D02*
X198671Y226821D01*
X47638Y233858D02*
X56299Y225197D01*
X47638Y233858D02*
Y242913D01*
X53051D01*
X42224D02*
X47638D01*
X179724D02*
Y246850D01*
X180807Y247933D01*
X215453D01*
X217618Y242913D02*
Y245768D01*
X215453Y247933D02*
X217618Y245768D01*
X34646Y242913D02*
Y245768D01*
X36811Y247933D02*
X58465D01*
X34646Y245768D02*
X36811Y247933D01*
X60630Y242913D02*
Y245768D01*
X58465Y247933D02*
X60630Y245768D01*
X126673Y10827D02*
Y16240D01*
X124508Y8661D02*
X126673Y10827D01*
X87697Y8661D02*
X124508D01*
X86614Y9744D02*
X87697Y8661D01*
X86614Y9744D02*
Y13681D01*
X287992Y10925D02*
Y13681D01*
X259842Y9744D02*
X286811D01*
X287992Y10925D01*
X259055Y10531D02*
Y13681D01*
Y10531D02*
X259842Y9744D01*
X422244D02*
Y13681D01*
X423327Y8661D02*
X451476D01*
X422244Y9744D02*
X423327Y8661D01*
X452559Y9744D02*
Y13681D01*
X451476Y8661D02*
X452559Y9744D01*
X437402Y13681D02*
X444980D01*
X429823D02*
X437402D01*
X407087Y37894D02*
X428740D01*
X437402Y13681D02*
Y29232D01*
X428740Y37894D02*
X437402Y29232D01*
X273524Y13681D02*
X280413D01*
X266634D02*
X273524D01*
Y39665D01*
X299902Y66043D01*
X280413Y13681D02*
X280413Y13681D01*
X101772D02*
X109350D01*
X94193D02*
X101772D01*
Y31398D01*
X103937Y33563D01*
X416749Y13681D02*
X422244D01*
X414190Y16240D02*
X416749Y13681D01*
X412756Y16240D02*
X414190D01*
X452559Y13681D02*
X458054D01*
X460613Y16240D01*
X462047D01*
X444980Y18799D02*
X452559D01*
Y22736D01*
X453642Y23819D01*
X464468D02*
X472047Y16240D01*
X453642Y23819D02*
X464468D01*
X422244Y18799D02*
Y22736D01*
X421161Y23819D02*
X422244Y22736D01*
X410335Y23819D02*
X421161D01*
X402756Y16240D02*
X410335Y23819D01*
X422244Y18799D02*
X429823D01*
X287992Y13681D02*
X294094D01*
X296654Y16240D02*
X296988D01*
X294094Y13681D02*
X296654Y16240D01*
X280413Y18799D02*
X287992D01*
Y22736D01*
X289075Y23819D01*
X299410D02*
X306988Y16240D01*
X289075Y23819D02*
X299410D01*
X249016Y16240D02*
X250450D01*
X253009Y13681D01*
X259055D01*
Y18799D02*
Y22441D01*
X257677Y23819D02*
X259055Y22441D01*
X246595Y23819D02*
X257677D01*
X239016Y16240D02*
X246595Y23819D01*
X259055Y18799D02*
X266634D01*
X116929Y18799D02*
Y22736D01*
X118012Y23819D01*
X129095D01*
X136673Y16240D01*
X109350Y18799D02*
X116929D01*
X116929Y18799D01*
Y13681D02*
X122680D01*
X125239Y16240D01*
X126673D01*
X81119Y13681D02*
X86614D01*
X78560Y16240D02*
X81119Y13681D01*
X77126Y16240D02*
X78560D01*
X86614Y18799D02*
Y21654D01*
X84449Y23819D02*
X86614Y21654D01*
X67126Y16240D02*
X74705Y23819D01*
X84449D01*
X86614Y18799D02*
X94193D01*
X533760Y234941D02*
Y238189D01*
Y234941D02*
X534842Y233858D01*
X547189D02*
X553685Y240354D01*
X534842Y233858D02*
X547189D01*
X526181Y238189D02*
X533760D01*
Y243307D02*
X540062D01*
X543015Y240354D01*
X543685D01*
X494587Y240354D02*
X495257D01*
X498209Y243307D01*
X504528D01*
Y234941D02*
Y238189D01*
X503445Y233858D02*
X504528Y234941D01*
X484587Y240354D02*
X491083Y233858D01*
X503445D01*
X504528Y238189D02*
X512106D01*
X373524Y233858D02*
Y237795D01*
Y233858D02*
X374606Y232776D01*
X385689D02*
X393268Y240354D01*
X374606Y232776D02*
X385689D01*
X365945Y237795D02*
X373524D01*
Y242913D02*
X379275D01*
X381834Y240354D01*
X383268D01*
X341043Y237795D02*
X348622D01*
X338779Y232776D02*
X341043Y235039D01*
Y237795D01*
X328051Y232776D02*
X338779D01*
X320472Y240354D02*
X328051Y232776D01*
X330472Y240354D02*
X331906D01*
X334466Y242913D01*
X341043D01*
X217618D02*
X223113D01*
X225672Y240354D01*
X227106D01*
X217618Y234941D02*
Y237795D01*
Y234941D02*
X219783Y232776D01*
X229527D02*
X237106Y240354D01*
X219783Y232776D02*
X229527D01*
X210039Y237795D02*
X217618D01*
X179724D02*
X187303D01*
X179724Y234941D02*
Y237795D01*
X177559Y232776D02*
X179724Y234941D01*
X160236Y240354D02*
X167815Y232776D01*
X177559D01*
X170236Y240354D02*
X171670D01*
X174229Y242913D01*
X179724D01*
X53051Y237795D02*
X60630D01*
X24902Y240354D02*
X26335D01*
X28895Y242913D01*
X34646D01*
Y237795D02*
X42224D01*
X34646Y233858D02*
Y237795D01*
X33563Y232776D02*
X34646Y233858D01*
X22480Y232776D02*
X33563D01*
X14902Y240354D02*
X22480Y232776D01*
X397342Y142913D02*
X407579Y132677D01*
X417123D01*
X393012Y136417D02*
X403051Y126378D01*
X417123D01*
X409744Y101181D02*
X417123D01*
X398425Y89862D02*
X409744Y101181D01*
X389764Y108268D02*
X398425D01*
X410236Y120079D01*
X391929Y101772D02*
X397342D01*
X409350Y113780D01*
X417123D01*
X396260Y96358D02*
X398425D01*
X409547Y107480D01*
X417123D01*
X410236Y120079D02*
X417123D01*
X434924Y98031D02*
X443058D01*
X443550Y98524D01*
X443898D01*
X434924Y104331D02*
X443209D01*
X443898Y105020D01*
X443012Y110630D02*
X443898Y111516D01*
X434924Y110630D02*
X443012D01*
X443898Y116929D02*
X443898Y116929D01*
X434924Y116929D02*
X443898D01*
X443701Y123228D02*
X443898Y123425D01*
X434924Y123228D02*
X443701D01*
X434924Y129528D02*
X443504D01*
X443898Y129921D01*
X434924Y135827D02*
X442960D01*
X443550Y136417D01*
X443898D01*
D14*
X202461Y127756D02*
D03*
X208957D02*
D03*
X202461Y114764D02*
D03*
X208957D02*
D03*
X202461Y102854D02*
D03*
X208957D02*
D03*
X202461Y90945D02*
D03*
X208957D02*
D03*
X270669Y137500D02*
D03*
X264173D02*
D03*
X270669Y124508D02*
D03*
X264173D02*
D03*
X270669Y112598D02*
D03*
X264173D02*
D03*
X270669Y100689D02*
D03*
X264173D02*
D03*
X270669Y88779D02*
D03*
X264173D02*
D03*
D15*
X417123Y157874D02*
D03*
X434924D02*
D03*
X417123Y154724D02*
D03*
X434924D02*
D03*
X417123Y151575D02*
D03*
X434924D02*
D03*
X417123Y148425D02*
D03*
X434924D02*
D03*
X417123Y145276D02*
D03*
X434924D02*
D03*
X417123Y142126D02*
D03*
X434924D02*
D03*
X417123Y138976D02*
D03*
X434924D02*
D03*
X417123Y135827D02*
D03*
X434924D02*
D03*
X417123Y132677D02*
D03*
X434924D02*
D03*
X417123Y129528D02*
D03*
X434924D02*
D03*
X417123Y126378D02*
D03*
X434924D02*
D03*
X417123Y123228D02*
D03*
X434924D02*
D03*
X417123Y120079D02*
D03*
X434924D02*
D03*
X417123Y116929D02*
D03*
X434924D02*
D03*
X417123Y113780D02*
D03*
X434924D02*
D03*
X417123Y110630D02*
D03*
X434924D02*
D03*
X417123Y107480D02*
D03*
X434924D02*
D03*
X417123Y104331D02*
D03*
X434924D02*
D03*
X417123Y101181D02*
D03*
X434924D02*
D03*
X417123Y98032D02*
D03*
X434924D02*
D03*
X225785Y157874D02*
D03*
X243585D02*
D03*
X225785Y154724D02*
D03*
X243585D02*
D03*
X225785Y151575D02*
D03*
X243585D02*
D03*
X225785Y148425D02*
D03*
X243585D02*
D03*
X225785Y145276D02*
D03*
X243585D02*
D03*
X225785Y142126D02*
D03*
X243585D02*
D03*
X225785Y138976D02*
D03*
X243585D02*
D03*
X225785Y135827D02*
D03*
X243585D02*
D03*
X225785Y132677D02*
D03*
X243585D02*
D03*
X225785Y129528D02*
D03*
X243585D02*
D03*
X225785Y126378D02*
D03*
X243585D02*
D03*
X225785Y123228D02*
D03*
X243585D02*
D03*
X225785Y120079D02*
D03*
X243585D02*
D03*
X225785Y116929D02*
D03*
X243585D02*
D03*
X225785Y113780D02*
D03*
X243585D02*
D03*
X225785Y110630D02*
D03*
X243585D02*
D03*
X225785Y107480D02*
D03*
X243585D02*
D03*
X225785Y104331D02*
D03*
X243585D02*
D03*
X225785Y101181D02*
D03*
X243585D02*
D03*
X225785Y98032D02*
D03*
X243585D02*
D03*
D16*
X280413Y13681D02*
D03*
Y18799D02*
D03*
X444980Y13681D02*
D03*
Y18799D02*
D03*
X266634Y13681D02*
D03*
Y18799D02*
D03*
X42224Y242913D02*
D03*
Y237795D02*
D03*
X512106Y243307D02*
D03*
Y238189D02*
D03*
X109350Y13681D02*
D03*
Y18799D02*
D03*
X53051Y242913D02*
D03*
Y237795D02*
D03*
X210039Y242913D02*
D03*
Y237795D02*
D03*
X526181Y243307D02*
D03*
Y238189D02*
D03*
X429823Y13681D02*
D03*
Y18799D02*
D03*
X365945Y242913D02*
D03*
Y237795D02*
D03*
X348622Y242913D02*
D03*
Y237795D02*
D03*
X187303Y242913D02*
D03*
Y237795D02*
D03*
X94193Y13681D02*
D03*
Y18799D02*
D03*
X287992Y13681D02*
D03*
Y18799D02*
D03*
X452559Y13681D02*
D03*
Y18799D02*
D03*
X259055Y13681D02*
D03*
Y18799D02*
D03*
X34646Y242913D02*
D03*
Y237795D02*
D03*
X504528Y243307D02*
D03*
Y238189D02*
D03*
X116929Y13681D02*
D03*
Y18799D02*
D03*
X60630Y242913D02*
D03*
Y237795D02*
D03*
X217618Y242913D02*
D03*
Y237795D02*
D03*
X533760Y243307D02*
D03*
Y238189D02*
D03*
X422244Y13681D02*
D03*
Y18799D02*
D03*
X373524Y242913D02*
D03*
Y237795D02*
D03*
X341043Y242913D02*
D03*
Y237795D02*
D03*
X179724Y242913D02*
D03*
Y237795D02*
D03*
X86614Y13681D02*
D03*
Y18799D02*
D03*
D17*
X590925Y19673D02*
D03*
Y241721D02*
D03*
X508248Y19673D02*
D03*
X430500Y241721D02*
D03*
X348799Y19673D02*
D03*
X272028Y241721D02*
D03*
X189350Y19673D02*
D03*
X112579Y241721D02*
D03*
X29902Y19673D02*
D03*
D25*
X208957Y90945D02*
X209477Y91465D01*
X212725D01*
X222441Y101181D01*
X225785D01*
X243585Y138976D02*
X254035D01*
X255512Y137500D02*
X264173D01*
X254035Y138976D02*
X255512Y137500D01*
X225785Y132677D02*
Y135827D01*
Y126378D02*
X228150D01*
X228543Y132677D02*
X229534Y131686D01*
Y127763D02*
Y131686D01*
X228150Y126378D02*
X229534Y127763D01*
X225785Y135827D02*
X241345D01*
X225785Y132677D02*
X228543D01*
X375689Y62795D02*
X481791D01*
X270669Y137500D02*
X300984D01*
X375689Y62795D01*
X481791D02*
X503445Y41142D01*
X569457D02*
X590925Y19673D01*
X503445Y41142D02*
X569457D01*
X270669Y124508D02*
X295571D01*
X368110Y51968D01*
X348799Y19673D02*
Y53957D01*
X290157Y112599D02*
X348799Y53957D01*
X270669Y112599D02*
X290157D01*
X270669Y100689D02*
X281496D01*
X287992Y73622D02*
Y94193D01*
X281496Y100689D02*
X287992Y94193D01*
X272835Y58465D02*
X287992Y73622D01*
X228142Y58465D02*
X272835D01*
X189350Y19673D02*
X228142Y58465D01*
X270669Y88780D02*
X275000D01*
X278248Y85532D01*
Y76870D02*
Y85532D01*
X270669Y69291D02*
X278248Y76870D01*
X182973Y42224D02*
X210039Y69291D01*
X270669D01*
X208957Y127756D02*
X213878D01*
X221555Y120079D01*
X225785D01*
X208957Y114764D02*
X216780D01*
X217764Y113780D01*
X225785D01*
X208957Y102854D02*
X214959D01*
X219585Y107480D01*
X225785D01*
X243585Y98031D02*
X249508D01*
X258760Y88780D01*
X264173D01*
X255799Y100689D02*
X264173D01*
X252157Y104331D02*
X255799Y100689D01*
X243585Y104331D02*
X252157D01*
X254962Y112599D02*
X264173D01*
X252993Y110630D02*
X254962Y112599D01*
X243585Y110630D02*
X252993D01*
X257767Y124508D02*
X264173D01*
X250188Y116929D02*
X257767Y124508D01*
X243585Y116929D02*
X250188D01*
X239836Y124381D02*
Y128018D01*
X240989Y123228D02*
X243585D01*
X239836Y124381D02*
X240989Y123228D01*
X241345Y129528D02*
X243585D01*
X239836Y128018D02*
X241345Y129528D01*
X239836Y131037D02*
X241345Y129528D01*
X239836Y131037D02*
Y134318D01*
X241345Y135827D01*
X243585D01*
Y138976D01*
Y98031D02*
Y101181D01*
X225785Y98031D02*
X243585D01*
X179724Y90945D02*
X202461D01*
X162402Y108268D02*
X179724Y90945D01*
X187303Y102854D02*
X202461D01*
X175394Y114764D02*
X187303Y102854D01*
X175394Y114764D02*
Y199213D01*
X192121Y215940D01*
X263577D01*
X272028Y224390D01*
Y241720D01*
X112579D02*
X162402Y191898D01*
Y108268D02*
Y191898D01*
X193799Y114764D02*
X202461D01*
X188386Y120177D02*
X193799Y114764D01*
X188386Y120177D02*
Y186221D01*
X205709Y203543D02*
X392323D01*
X188386Y186221D02*
X205709Y203543D01*
X202461Y127756D02*
Y184055D01*
X211122Y192717D01*
X52453Y42224D02*
X182973D01*
X392323Y203543D02*
X430500Y241720D01*
X211122Y192717D02*
X470965D01*
X475953Y51968D02*
X491110Y36811D01*
X368110Y51968D02*
X475953D01*
X29902Y19673D02*
X52453Y42224D01*
X491110Y36811D02*
X508248Y19673D01*
X495866Y217618D02*
X583563D01*
X470965Y192717D02*
X495866Y217618D01*
X590925Y224980D02*
Y241720D01*
X583563Y217618D02*
X590925Y224980D01*
D26*
X426024Y84646D02*
D03*
Y171260D02*
D03*
X234685Y84646D02*
D03*
Y171260D02*
D03*
D27*
X296988Y16240D02*
D03*
X306988D02*
D03*
X462047D02*
D03*
X472047D02*
D03*
X249016Y16240D02*
D03*
X239016D02*
D03*
X24902Y240354D02*
D03*
X14902D02*
D03*
X494587Y240354D02*
D03*
X484587D02*
D03*
X126673Y16240D02*
D03*
X136673D02*
D03*
X70425Y240354D02*
D03*
X80425D02*
D03*
X227106D02*
D03*
X237106D02*
D03*
X543685Y240354D02*
D03*
X553685D02*
D03*
X412756Y16240D02*
D03*
X402756D02*
D03*
X383268Y240354D02*
D03*
X393268D02*
D03*
X330472Y240354D02*
D03*
X320472D02*
D03*
X170236Y240354D02*
D03*
X160236D02*
D03*
X77126Y16240D02*
D03*
X67126D02*
D03*
D28*
X367028Y113681D02*
D03*
X325886Y163484D02*
D03*
X386516Y169980D02*
D03*
X394094Y177559D02*
D03*
X399660Y164074D02*
D03*
X339961Y168898D02*
D03*
X398425Y148327D02*
D03*
X387598Y164567D02*
D03*
X371358Y85532D02*
D03*
X390846D02*
D03*
X462303Y87697D02*
D03*
X358366Y228445D02*
D03*
X477461Y227362D02*
D03*
X197047Y225197D02*
D03*
X87697D02*
D03*
X56299D02*
D03*
X407087Y37894D02*
D03*
X299902Y66043D02*
D03*
X103937Y33563D02*
D03*
X393012Y136417D02*
D03*
X397342Y142913D02*
D03*
X398425Y89862D02*
D03*
X389764Y108268D02*
D03*
X391929Y101772D02*
D03*
X396260Y96358D02*
D03*
X443898Y98524D02*
D03*
Y105020D02*
D03*
Y111516D02*
D03*
Y116929D02*
D03*
Y123425D02*
D03*
Y129921D02*
D03*
Y136417D02*
D03*
M02*
