%TF.GenerationSoftware,Altium Limited,Altium Designer,19.1.8 (144)*%
G04 Layer_Color=128*
%FSLAX26Y26*%
%MOIN*%
%TF.FileFunction,Drillmap*%
%TF.Part,Single*%
G01*
G75*
%TA.AperFunction,NonConductor*%
%ADD32C,0.005000*%
D32*
X4719095Y196850D02*
X4730905D01*
X4725000Y190945D02*
Y202756D01*
X4619095Y196850D02*
X4630905D01*
X4625000Y190945D02*
Y202756D01*
X4094095Y196850D02*
X4105905D01*
X4100000Y190945D02*
Y202756D01*
X3994095Y196850D02*
X4005905D01*
X4000000Y190945D02*
Y202756D01*
X2984095Y196850D02*
X2995905D01*
X2990000Y190945D02*
Y202756D01*
X3084095Y196850D02*
X3095905D01*
X3090000Y190945D02*
Y202756D01*
X2479095Y196850D02*
X2490905D01*
X2485000Y190945D02*
Y202756D01*
X2379095Y196850D02*
X2390905D01*
X2385000Y190945D02*
Y202756D01*
X1299094Y196850D02*
X1310906D01*
X1305000Y190945D02*
Y202756D01*
X1199094Y196850D02*
X1210906D01*
X1205000Y190945D02*
Y202756D01*
X366142Y2401574D02*
X377953D01*
X372047Y2395669D02*
Y2407479D01*
X266142Y2401574D02*
X277953D01*
X272047Y2395669D02*
Y2407479D01*
X779528Y2401574D02*
X791339D01*
X785433Y2395669D02*
Y2407479D01*
X679528Y2401574D02*
X691339D01*
X685433Y2395669D02*
Y2407479D01*
X1569094Y2401574D02*
X1580906D01*
X1575000Y2395669D02*
Y2407479D01*
X1469094Y2401574D02*
X1480906D01*
X1475000Y2395669D02*
Y2407479D01*
X2094095Y2401574D02*
X2105905D01*
X2100000Y2395669D02*
Y2407479D01*
X1994094Y2401574D02*
X2005906D01*
X2000000Y2395669D02*
Y2407479D01*
X3254095Y2401574D02*
X3265905D01*
X3260000Y2395669D02*
Y2407479D01*
X3154095Y2401574D02*
X3165905D01*
X3160000Y2395669D02*
Y2407479D01*
X3904095Y2401574D02*
X3915905D01*
X3910000Y2395669D02*
Y2407479D01*
X3804095Y2401574D02*
X3815905D01*
X3810000Y2395669D02*
Y2407479D01*
X5104095Y2401574D02*
X5115905D01*
X5110000Y2395669D02*
Y2407479D01*
X5004095Y2401574D02*
X5015905D01*
X5010000Y2395669D02*
Y2407479D01*
X5644095Y2401574D02*
X5655905D01*
X5650000Y2395669D02*
Y2407479D01*
X5544095Y2401574D02*
X5555905D01*
X5550000Y2395669D02*
Y2407479D01*
X764095Y196850D02*
X775905D01*
X770000Y190945D02*
Y202756D01*
X664095Y196850D02*
X675905D01*
X670000Y190945D02*
Y202756D01*
X2330350Y846456D02*
X2363350D01*
X2346850Y829956D02*
Y862956D01*
X2330350Y1712598D02*
X2363350D01*
X2346850Y1696098D02*
Y1729098D01*
X2259253Y909448D02*
X2316339D01*
X2287796Y880905D02*
Y937991D01*
X2259253Y1649606D02*
X2316339D01*
X2287796Y1621063D02*
Y1678149D01*
X4243736Y846456D02*
X4276736D01*
X4260236Y829956D02*
Y862956D01*
X4243736Y1712598D02*
X4276736D01*
X4260236Y1696098D02*
Y1729098D01*
X4172639Y909448D02*
X4229725D01*
X4201182Y880905D02*
Y937991D01*
X4172639Y1649606D02*
X4229725D01*
X4201182Y1621063D02*
Y1678149D01*
X4457457Y1266732D02*
X4485457D01*
X4471457Y1252732D02*
Y1280732D01*
X2779307Y1450787D02*
X2807307D01*
X2793307Y1436787D02*
Y1464787D01*
X2681866Y1526575D02*
X2709866D01*
X2695866Y1512575D02*
Y1540575D01*
X3331481Y671262D02*
X3359481D01*
X3345481Y657262D02*
Y685262D01*
X3331472Y1927165D02*
X3359472D01*
X3345472Y1913165D02*
Y1941165D01*
X3331472Y1862205D02*
X3359472D01*
X3345472Y1848205D02*
Y1876205D01*
X2844268Y1234252D02*
X2872268D01*
X2858268Y1220252D02*
Y1248252D01*
X3331472Y1797244D02*
X3359472D01*
X3345472Y1783244D02*
Y1811244D01*
X4554898Y1169291D02*
X4582898D01*
X4568898Y1155291D02*
Y1183291D01*
X4275835Y1101895D02*
X4303835D01*
X4289835Y1087895D02*
Y1115895D01*
X4435803Y941929D02*
X4463803D01*
X4449803Y927929D02*
Y955929D01*
X4554898Y1028543D02*
X4582898D01*
X4568898Y1014543D02*
Y1042543D01*
X3331481Y736222D02*
X3359481D01*
X3345481Y722222D02*
Y750222D01*
X2419262Y931102D02*
X2447262D01*
X2433262Y917102D02*
Y945102D01*
X2422030Y844490D02*
X2450030D01*
X2436030Y830490D02*
Y858490D01*
X2270449Y822835D02*
X2298449D01*
X2284449Y808835D02*
Y836835D01*
X2346236Y1375000D02*
X2374236D01*
X2360236Y1361000D02*
Y1389000D01*
X2302929Y1450787D02*
X2330929D01*
X2316929Y1436787D02*
Y1464787D01*
X2302929Y1104331D02*
X2330929D01*
X2316929Y1090331D02*
Y1118331D01*
X4056866Y898622D02*
X4084866D01*
X4070866Y884622D02*
Y912622D01*
X4056877Y996066D02*
X4084877D01*
X4070877Y982066D02*
Y1010066D01*
X4434819Y1040355D02*
X4462819D01*
X4448819Y1026355D02*
Y1054355D01*
X4435803Y1169292D02*
X4463803D01*
X4449803Y1155292D02*
Y1183292D01*
X4046039Y1125984D02*
X4074039D01*
X4060039Y1111984D02*
Y1139984D01*
X4219268Y1039370D02*
X4247268D01*
X4233268Y1025370D02*
Y1053370D01*
X4046039Y1255906D02*
X4074039D01*
X4060039Y1241906D02*
Y1269906D01*
X4046039Y1385827D02*
X4074039D01*
X4060039Y1371827D02*
Y1399827D01*
X3329503Y806102D02*
X3357503D01*
X3343503Y792102D02*
Y820102D01*
X4273413Y974412D02*
X4301413D01*
X4287413Y960412D02*
Y988412D01*
X4219268Y1158465D02*
X4247268D01*
X4233268Y1144465D02*
Y1172465D01*
X4273413Y1212602D02*
X4301413D01*
X4287413Y1198602D02*
Y1226602D01*
X4219279Y1299216D02*
X4247279D01*
X4233279Y1285216D02*
Y1313216D01*
X4273402Y1353347D02*
X4301402D01*
X4287402Y1339347D02*
Y1367347D01*
X3329503Y877402D02*
X3357503D01*
X3343503Y863402D02*
Y891402D01*
X3329503Y948701D02*
X3357503D01*
X3343503Y934701D02*
Y962701D01*
X3329503Y1019996D02*
X3357503D01*
X3343503Y1005996D02*
Y1033996D01*
X3329503Y1091294D02*
X3357503D01*
X3343503Y1077294D02*
Y1105294D01*
X3329503Y1162591D02*
X3357503D01*
X3343503Y1148591D02*
Y1176591D01*
X3329503Y1233889D02*
X3357503D01*
X3343503Y1219889D02*
Y1247889D01*
X3329503Y1305187D02*
X3357503D01*
X3343503Y1291187D02*
Y1319187D01*
X3329503Y1376485D02*
X3357503D01*
X3343503Y1362485D02*
Y1390485D01*
X3329503Y1447783D02*
X3357503D01*
X3343503Y1433783D02*
Y1461783D01*
X3329503Y1519081D02*
X3357503D01*
X3343503Y1505081D02*
Y1533081D01*
X3329503Y1590378D02*
X3357503D01*
X3343503Y1576378D02*
Y1604378D01*
X3329503Y1661676D02*
X3357503D01*
X3343503Y1647676D02*
Y1675676D01*
X3329503Y1732974D02*
X3357503D01*
X3343503Y1718974D02*
Y1746974D01*
%TF.MD5,feba32f9ba433a617924082ce94c5c97*%
M02*
