M48
;Layer_Color=9474304
;FILE_FORMAT=2:5
INCH,TZ
;TYPE=PLATED
T1F00S00C0.01024
T2F00S00C0.03300
T3F00S00C0.04016
;TYPE=NON_PLATED
T4F00S00C0.05709
%
T01
X462303Y87697
X443898Y98524
Y105020
X391929Y101772
X396260Y96358
X398425Y89862
X390846Y85532
X371358
X407087Y37894
X299902Y66043
X103937Y33563
X87697Y225197
X56299
X197047
X358366Y228445
X339961Y168898
X325886Y163484
X387598Y164567
X386516Y169980
X394094Y177559
X399660Y164074
X398425Y148327
X397342Y142913
X393012Y136417
X389764Y108268
X367028Y113681
X443898Y111516
Y116929
Y123425
Y129921
Y136417
X477461Y227362
T02
X426024Y84646
X234685
Y171260
X426024
T03
X462047Y16240
X472047
X412756Y16240
X402756
X306988Y16240
X296988
X249016Y16240
X239016
X136673Y16240
X126673
X77126Y16240
X67126
X70425Y240354
X80425
X24902Y240354
X14902
X160236Y240354
X170236
X227106Y240354
X237106
X320472Y240354
X330472
X383268Y240354
X393268
X484587Y240354
X494587
X543685Y240354
X553685
T04
X420118Y90945
X228780
Y164961
X420118
M30
