%TF.GenerationSoftware,Altium Limited,Altium Designer,19.1.8 (144)*%
G04 Layer_Color=16711935*
%FSLAX26Y26*%
%MOIN*%
%TF.FileFunction,Other,Mechanical_1*%
%TF.Part,Single*%
G01*
G75*
%TA.AperFunction,NonConductor*%
%ADD25C,0.009842*%
%ADD32C,0.005000*%
D25*
X2222414Y1771654D02*
X2471286D01*
X2222414Y787402D02*
Y1771654D01*
Y787402D02*
X2398032D01*
X2471286Y846456D02*
Y1771654D01*
X2398032Y787402D02*
X2471286Y846456D01*
X4135800Y1771654D02*
X4384672D01*
X4135800Y787402D02*
Y1771654D01*
Y787402D02*
X4311418D01*
X4384672Y846456D02*
Y1771654D01*
X4311418Y787402D02*
X4384672Y846456D01*
D32*
X2356611Y1284809D02*
X2334119D01*
X2329901Y1286215D01*
X2328496Y1287620D01*
X2327090Y1290432D01*
Y1293243D01*
X2328496Y1296055D01*
X2329901Y1297461D01*
X2334119Y1298867D01*
X2336930D01*
X2350988Y1277218D02*
X2352394Y1274406D01*
X2356611Y1270189D01*
X2327090D01*
X4269997Y1284809D02*
X4247505D01*
X4243287Y1286215D01*
X4241881Y1287620D01*
X4240476Y1290432D01*
Y1293243D01*
X4241881Y1296055D01*
X4243287Y1297461D01*
X4247505Y1298867D01*
X4250316D01*
X4264374Y1277218D02*
X4265780Y1274406D01*
X4269997Y1270189D01*
X4240476D01*
%TF.MD5,a9320de3d3fe834a47e93ddb3cfaa914*%
M02*
