G04*
G04 #@! TF.GenerationSoftware,Altium Limited,Altium Designer,20.0.11 (256)*
G04*
G04 Layer_Color=255*
%FSLAX25Y25*%
%MOIN*%
G70*
G01*
G75*
%ADD14R,0.03937X0.05709*%
%ADD15R,0.04331X0.01968*%
%ADD16R,0.03740X0.03347*%
G04:AMPARAMS|DCode=17|XSize=196.85mil|YSize=196.85mil|CornerRadius=49.21mil|HoleSize=0mil|Usage=FLASHONLY|Rotation=0.000|XOffset=0mil|YOffset=0mil|HoleType=Round|Shape=RoundedRectangle|*
%AMROUNDEDRECTD17*
21,1,0.19685,0.09843,0,0,0.0*
21,1,0.09843,0.19685,0,0,0.0*
1,1,0.09843,0.04921,-0.04921*
1,1,0.09843,-0.04921,-0.04921*
1,1,0.09843,-0.04921,0.04921*
1,1,0.09843,0.04921,0.04921*
%
%ADD17ROUNDEDRECTD17*%
%ADD26C,0.05118*%
%ADD27C,0.06299*%
D14*
X202461Y127756D02*
D03*
X208957D02*
D03*
X202461Y114764D02*
D03*
X208957D02*
D03*
X202461Y102854D02*
D03*
X208957D02*
D03*
X202461Y90945D02*
D03*
X208957D02*
D03*
X270669Y137500D02*
D03*
X264173D02*
D03*
X270669Y124508D02*
D03*
X264173D02*
D03*
X270669Y112598D02*
D03*
X264173D02*
D03*
X270669Y100689D02*
D03*
X264173D02*
D03*
X270669Y88779D02*
D03*
X264173D02*
D03*
D15*
X417123Y157874D02*
D03*
X434924D02*
D03*
X417123Y154724D02*
D03*
X434924D02*
D03*
X417123Y151575D02*
D03*
X434924D02*
D03*
X417123Y148425D02*
D03*
X434924D02*
D03*
X417123Y145276D02*
D03*
X434924D02*
D03*
X417123Y142126D02*
D03*
X434924D02*
D03*
X417123Y138976D02*
D03*
X434924D02*
D03*
X417123Y135827D02*
D03*
X434924D02*
D03*
X417123Y132677D02*
D03*
X434924D02*
D03*
X417123Y129528D02*
D03*
X434924D02*
D03*
X417123Y126378D02*
D03*
X434924D02*
D03*
X417123Y123228D02*
D03*
X434924D02*
D03*
X417123Y120079D02*
D03*
X434924D02*
D03*
X417123Y116929D02*
D03*
X434924D02*
D03*
X417123Y113780D02*
D03*
X434924D02*
D03*
X417123Y110630D02*
D03*
X434924D02*
D03*
X417123Y107480D02*
D03*
X434924D02*
D03*
X417123Y104331D02*
D03*
X434924D02*
D03*
X417123Y101181D02*
D03*
X434924D02*
D03*
X417123Y98032D02*
D03*
X434924D02*
D03*
X225785Y157874D02*
D03*
X243585D02*
D03*
X225785Y154724D02*
D03*
X243585D02*
D03*
X225785Y151575D02*
D03*
X243585D02*
D03*
X225785Y148425D02*
D03*
X243585D02*
D03*
X225785Y145276D02*
D03*
X243585D02*
D03*
X225785Y142126D02*
D03*
X243585D02*
D03*
X225785Y138976D02*
D03*
X243585D02*
D03*
X225785Y135827D02*
D03*
X243585D02*
D03*
X225785Y132677D02*
D03*
X243585D02*
D03*
X225785Y129528D02*
D03*
X243585D02*
D03*
X225785Y126378D02*
D03*
X243585D02*
D03*
X225785Y123228D02*
D03*
X243585D02*
D03*
X225785Y120079D02*
D03*
X243585D02*
D03*
X225785Y116929D02*
D03*
X243585D02*
D03*
X225785Y113780D02*
D03*
X243585D02*
D03*
X225785Y110630D02*
D03*
X243585D02*
D03*
X225785Y107480D02*
D03*
X243585D02*
D03*
X225785Y104331D02*
D03*
X243585D02*
D03*
X225785Y101181D02*
D03*
X243585D02*
D03*
X225785Y98032D02*
D03*
X243585D02*
D03*
D16*
X280413Y13681D02*
D03*
Y18799D02*
D03*
X444980Y13681D02*
D03*
Y18799D02*
D03*
X266634Y13681D02*
D03*
Y18799D02*
D03*
X42224Y242913D02*
D03*
Y237795D02*
D03*
X512106Y243307D02*
D03*
Y238189D02*
D03*
X109350Y13681D02*
D03*
Y18799D02*
D03*
X53051Y242913D02*
D03*
Y237795D02*
D03*
X210039Y242913D02*
D03*
Y237795D02*
D03*
X526181Y243307D02*
D03*
Y238189D02*
D03*
X429823Y13681D02*
D03*
Y18799D02*
D03*
X365945Y242913D02*
D03*
Y237795D02*
D03*
X348622Y242913D02*
D03*
Y237795D02*
D03*
X187303Y242913D02*
D03*
Y237795D02*
D03*
X94193Y13681D02*
D03*
Y18799D02*
D03*
X287992Y13681D02*
D03*
Y18799D02*
D03*
X452559Y13681D02*
D03*
Y18799D02*
D03*
X259055Y13681D02*
D03*
Y18799D02*
D03*
X34646Y242913D02*
D03*
Y237795D02*
D03*
X504528Y243307D02*
D03*
Y238189D02*
D03*
X116929Y13681D02*
D03*
Y18799D02*
D03*
X60630Y242913D02*
D03*
Y237795D02*
D03*
X217618Y242913D02*
D03*
Y237795D02*
D03*
X533760Y243307D02*
D03*
Y238189D02*
D03*
X422244Y13681D02*
D03*
Y18799D02*
D03*
X373524Y242913D02*
D03*
Y237795D02*
D03*
X341043Y242913D02*
D03*
Y237795D02*
D03*
X179724Y242913D02*
D03*
Y237795D02*
D03*
X86614Y13681D02*
D03*
Y18799D02*
D03*
D17*
X590925Y19673D02*
D03*
Y241721D02*
D03*
X508248Y19673D02*
D03*
X430500Y241721D02*
D03*
X348799Y19673D02*
D03*
X272028Y241721D02*
D03*
X189350Y19673D02*
D03*
X112579Y241721D02*
D03*
X29902Y19673D02*
D03*
D26*
X426024Y84646D02*
D03*
Y171260D02*
D03*
X234685Y84646D02*
D03*
Y171260D02*
D03*
D27*
X296988Y16240D02*
D03*
X306988D02*
D03*
X462047D02*
D03*
X472047D02*
D03*
X249016Y16240D02*
D03*
X239016D02*
D03*
X24902Y240354D02*
D03*
X14902D02*
D03*
X494587Y240354D02*
D03*
X484587D02*
D03*
X126673Y16240D02*
D03*
X136673D02*
D03*
X70425Y240354D02*
D03*
X80425D02*
D03*
X227106D02*
D03*
X237106D02*
D03*
X543685Y240354D02*
D03*
X553685D02*
D03*
X412756Y16240D02*
D03*
X402756D02*
D03*
X383268Y240354D02*
D03*
X393268D02*
D03*
X330472Y240354D02*
D03*
X320472D02*
D03*
X170236Y240354D02*
D03*
X160236D02*
D03*
X77126Y16240D02*
D03*
X67126D02*
D03*
M02*
