%TF.GenerationSoftware,Altium Limited,Altium Designer,19.1.8 (144)*%
G04 Layer_Color=16711935*
%FSLAX26Y26*%
%MOIN*%
%TF.FileFunction,Soldermask,Bot*%
%TF.Part,Single*%
G01*
G75*
%TA.AperFunction,ComponentPad*%
%ADD20C,0.055244*%
%ADD21C,0.057087*%
%ADD22C,0.008000*%
D20*
X4725000Y196850D02*
D03*
X4625000D02*
D03*
X4100000D02*
D03*
X4000000D02*
D03*
X2990000D02*
D03*
X3090000D02*
D03*
X2485000D02*
D03*
X2385000D02*
D03*
X1305000D02*
D03*
X1205000D02*
D03*
X372047Y2401574D02*
D03*
X272047D02*
D03*
X785433D02*
D03*
X685433D02*
D03*
X1575000D02*
D03*
X1475000D02*
D03*
X2100000D02*
D03*
X2000000D02*
D03*
X3260000D02*
D03*
X3160000D02*
D03*
X3910000D02*
D03*
X3810000D02*
D03*
X5110000D02*
D03*
X5010000D02*
D03*
X5650000D02*
D03*
X5550000D02*
D03*
X770000Y196850D02*
D03*
X670000D02*
D03*
D21*
X2346850Y846456D02*
D03*
Y1712598D02*
D03*
X4260236Y846456D02*
D03*
Y1712598D02*
D03*
D22*
X2287796Y909448D02*
D03*
Y1649606D02*
D03*
X4201182Y909448D02*
D03*
Y1649606D02*
D03*
%TF.MD5,5cc852dd5c8633cad3f8fa92cb394b81*%
M02*
