%TF.GenerationSoftware,Altium Limited,Altium Designer,19.1.8 (144)*%
G04 Layer_Physical_Order=1*
G04 Layer_Color=255*
%FSLAX26Y26*%
%MOIN*%
%TF.FileFunction,Copper,L1,Top,Signal*%
%TF.Part,Single*%
G01*
G75*
%TA.AperFunction,SMDPad,CuDef*%
G04:AMPARAMS|DCode=10|XSize=196.85mil|YSize=196.85mil|CornerRadius=49.213mil|HoleSize=0mil|Usage=FLASHONLY|Rotation=0.000|XOffset=0mil|YOffset=0mil|HoleType=Round|Shape=RoundedRectangle|*
%AMROUNDEDRECTD10*
21,1,0.196850,0.098425,0,0,0.0*
21,1,0.098425,0.196850,0,0,0.0*
1,1,0.098425,0.049213,-0.049213*
1,1,0.098425,-0.049213,-0.049213*
1,1,0.098425,-0.049213,0.049213*
1,1,0.098425,0.049213,0.049213*
%
%ADD10ROUNDEDRECTD10*%
%ADD11R,0.039370X0.057087*%
%ADD12R,0.033465X0.037402*%
%ADD13R,0.043307X0.019685*%
%TA.AperFunction,Conductor*%
%ADD14C,0.010000*%
%ADD15C,0.015748*%
%TA.AperFunction,ComponentPad*%
%ADD16C,0.047244*%
%ADD17C,0.051181*%
%TA.AperFunction,ViaPad*%
%ADD18C,0.050000*%
D10*
X1125788Y2417204D02*
D03*
X5909252Y196732D02*
D03*
X5082480D02*
D03*
X3487992D02*
D03*
X1893504D02*
D03*
X299016D02*
D03*
X5909252Y2417204D02*
D03*
X2720276D02*
D03*
X4305000D02*
D03*
D11*
X2617480Y1565000D02*
D03*
X2552519D02*
D03*
X2147479Y1360001D02*
D03*
X2082519D02*
D03*
X2552520Y1175000D02*
D03*
X2617480D02*
D03*
X2555000Y990000D02*
D03*
X2619960D02*
D03*
X2555040Y820000D02*
D03*
X2620000D02*
D03*
X2082519D02*
D03*
X2147481D02*
D03*
X2082519Y990000D02*
D03*
X2147481D02*
D03*
X2082519Y1175000D02*
D03*
X2147479D02*
D03*
X2617480Y1360001D02*
D03*
X2552520D02*
D03*
D12*
X2977364Y1233889D02*
D03*
X2926182D02*
D03*
X2977362Y1376485D02*
D03*
X2926182D02*
D03*
X2977362Y806102D02*
D03*
X2926182D02*
D03*
X2977362Y1519081D02*
D03*
X2926182D02*
D03*
X2977362Y1162591D02*
D03*
X2926180D02*
D03*
X2977362Y1661676D02*
D03*
X2926182D02*
D03*
X2977362Y948701D02*
D03*
X2926182D02*
D03*
X2977364Y877402D02*
D03*
X2926182D02*
D03*
X2977362Y1305187D02*
D03*
X2926180D02*
D03*
X2977362Y1590378D02*
D03*
X2926180D02*
D03*
X2977364Y1447783D02*
D03*
X2926182D02*
D03*
X2977362Y1732974D02*
D03*
X2926182D02*
D03*
X2977364Y1091294D02*
D03*
X2926182D02*
D03*
X2977362Y1019996D02*
D03*
X2926182D02*
D03*
X3687993Y1732974D02*
D03*
X3739175D02*
D03*
X3687993Y1590378D02*
D03*
X3739175D02*
D03*
X3687993Y877402D02*
D03*
X3739173D02*
D03*
X3687991Y948701D02*
D03*
X3739173D02*
D03*
X3687993Y1519081D02*
D03*
X3739173D02*
D03*
X3687993Y806102D02*
D03*
X3739173D02*
D03*
X3687993Y1305187D02*
D03*
X3739173D02*
D03*
X3687993Y1019996D02*
D03*
X3739175D02*
D03*
X3687993Y1447783D02*
D03*
X3739175D02*
D03*
X3687993Y1233889D02*
D03*
X3739175D02*
D03*
X3687993Y1091294D02*
D03*
X3739175D02*
D03*
X3687993Y1376485D02*
D03*
X3739173D02*
D03*
X3687993Y1162591D02*
D03*
X3739173D02*
D03*
X3687991Y1661676D02*
D03*
X3739173D02*
D03*
D13*
X2257848Y1578740D02*
D03*
X2435854D02*
D03*
X2257848Y1547244D02*
D03*
X2435854D02*
D03*
X2257848Y1515748D02*
D03*
X2435854D02*
D03*
X2257848Y1484252D02*
D03*
X2435854D02*
D03*
X2257848Y1452756D02*
D03*
X2435854D02*
D03*
X2257848Y1421260D02*
D03*
X2435854D02*
D03*
X2257848Y1389764D02*
D03*
X2435854D02*
D03*
X2257848Y1358268D02*
D03*
X2435854D02*
D03*
X2257848Y1326772D02*
D03*
X2435854D02*
D03*
X2257848Y1295276D02*
D03*
X2435854D02*
D03*
X2257848Y1263780D02*
D03*
X2435854D02*
D03*
X2257848Y1232284D02*
D03*
X2435854D02*
D03*
X2257848Y1200788D02*
D03*
X2435854D02*
D03*
X2257848Y1169292D02*
D03*
X2435854D02*
D03*
X2257848Y1137796D02*
D03*
X2435854D02*
D03*
X2257848Y1106300D02*
D03*
X2435854D02*
D03*
X2257848Y1074804D02*
D03*
X2435854D02*
D03*
X2257848Y1043308D02*
D03*
X2435854D02*
D03*
X2257848Y1011812D02*
D03*
X2435854D02*
D03*
X2257848Y980314D02*
D03*
X2435854D02*
D03*
X4171234Y1578740D02*
D03*
X4349240D02*
D03*
X4171234Y1547244D02*
D03*
X4349240D02*
D03*
X4171234Y1515748D02*
D03*
X4349240D02*
D03*
X4171234Y1484252D02*
D03*
X4349240D02*
D03*
X4171234Y1452756D02*
D03*
X4349240D02*
D03*
X4171234Y1421260D02*
D03*
X4349240D02*
D03*
X4171234Y1389764D02*
D03*
X4349240D02*
D03*
X4171234Y1358268D02*
D03*
X4349240D02*
D03*
X4171234Y1326772D02*
D03*
X4349240D02*
D03*
X4171234Y1295276D02*
D03*
X4349240D02*
D03*
X4171234Y1263780D02*
D03*
X4349240D02*
D03*
X4171234Y1232284D02*
D03*
X4349240D02*
D03*
X4171234Y1200788D02*
D03*
X4349240D02*
D03*
X4171234Y1169292D02*
D03*
X4349240D02*
D03*
X4171234Y1137796D02*
D03*
X4349240D02*
D03*
X4171234Y1106300D02*
D03*
X4349240D02*
D03*
X4171234Y1074804D02*
D03*
X4349240D02*
D03*
X4171234Y1043308D02*
D03*
X4349240D02*
D03*
X4171234Y1011812D02*
D03*
X4349240D02*
D03*
X4171234Y980314D02*
D03*
X4349240D02*
D03*
D14*
X4060039Y1255906D02*
X4067914Y1263780D01*
X4171234D01*
X4442913Y1295276D02*
X4471457Y1266732D01*
X4349240Y1295276D02*
X4442913D01*
X2620000Y820000D02*
X2630905Y809095D01*
Y671260D02*
Y809095D01*
X2358583Y398937D02*
X2630905Y671260D01*
X2654685Y666755D02*
Y946417D01*
X2674685Y670787D02*
X3148740Y196732D01*
X2674685Y670787D02*
Y1108937D01*
X2695866Y682087D02*
Y1272757D01*
Y682087D02*
X3067796Y310157D01*
X2717520Y692913D02*
X3020669Y389764D01*
X2717520Y692913D02*
Y1364173D01*
X2366867Y378937D02*
X2654685Y666755D01*
X2617480Y1464213D02*
X2717520Y1364173D01*
X2617480Y1351142D02*
X2695866Y1272757D01*
X3148740Y196732D02*
X3487992D01*
X2617480Y1166142D02*
X2674685Y1108937D01*
X2619960Y981142D02*
X2654685Y946417D01*
X2075709Y378937D02*
X2366867D01*
X501221Y398937D02*
X2358583D01*
X2955707Y736222D02*
X3345481D01*
X2934055Y757874D02*
X2955707Y736222D01*
X2934055Y757874D02*
Y796261D01*
X2938251Y714567D02*
X3302176D01*
X2804134Y848684D02*
X2938251Y714567D01*
X2804134Y848684D02*
Y1375000D01*
X3302176Y714567D02*
X3345481Y671262D01*
X299016Y196732D02*
X501221Y398937D01*
X1893504Y196732D02*
X2075709Y378937D01*
X2695866Y1483268D02*
X2804134Y1375000D01*
X2695866Y1483268D02*
Y1526575D01*
X2874448Y1531928D02*
Y1766170D01*
X2793307Y1450787D02*
X2874448Y1531928D01*
X2617480Y1464213D02*
Y1565000D01*
X4298173Y2221142D02*
X4439983Y2362952D01*
X2437677Y2221142D02*
X4298173D01*
X2024606Y1808071D02*
X2437677Y2221142D01*
X4128938Y2241142D02*
X4305000Y2417204D01*
X2425197Y2241142D02*
X4128938D01*
X2002953Y1818898D02*
X2425197Y2241142D01*
X1959646Y951732D02*
Y1829724D01*
X1372166Y2417204D02*
X1959646Y1829724D01*
X1125788Y2417204D02*
X1372166D01*
X1959646Y951732D02*
X2082519Y828858D01*
X1981299Y1100079D02*
X2082519Y998858D01*
X1981299Y1100079D02*
Y1829724D01*
X2002953Y1223425D02*
Y1818898D01*
Y1223425D02*
X2051378Y1175000D01*
X2024606Y1417914D02*
X2082519Y1360001D01*
X2024606Y1417914D02*
Y1808071D01*
X1981299Y1829724D02*
X2568779Y2417204D01*
X2720276D01*
X3020669Y389764D02*
X5629921D01*
X3067796Y310157D02*
X4969055D01*
X2619960Y981142D02*
Y990000D01*
X3035443Y1927165D02*
X3345472D01*
X2874448Y1766170D02*
X3035443Y1927165D01*
X2998767Y1862205D02*
X3345472D01*
X2894448Y1757886D02*
X2998767Y1862205D01*
X2894448Y1270432D02*
Y1757886D01*
X2858268Y1234252D02*
X2894448Y1270432D01*
X2984986Y1797244D02*
X3345472D01*
X4115123D01*
X2945630Y1757888D02*
X2984986Y1797244D01*
X4115123D02*
X4240360Y1672007D01*
X4504922Y1105315D02*
X4568898Y1169291D01*
X4350225Y1105315D02*
X4504922D01*
X4289835Y1101895D02*
X4344835D01*
X4349240Y1106300D01*
X4449803Y941929D02*
X4460630Y952756D01*
X4493110D01*
X4568898Y1028543D01*
X4349240Y1106300D02*
X4350225Y1105315D01*
X4240360Y1672007D02*
X4244162D01*
X4337429Y1578740D01*
X4349240D01*
X2926182Y1734942D02*
X2945630Y1754390D01*
X2926182Y1732974D02*
Y1734942D01*
X2945630Y1754390D02*
Y1757888D01*
X2926182Y804134D02*
X2934055Y796261D01*
X2926182Y804134D02*
Y806102D01*
X2316929Y1160899D02*
X2358583Y1119246D01*
Y921938D02*
Y1119246D01*
Y921938D02*
X2436030Y844490D01*
X2316929Y1104331D02*
X2338583Y1082677D01*
Y934728D02*
Y1082677D01*
X2331339Y927484D02*
X2338583Y934728D01*
X2360236Y1201772D02*
X2381890Y1180118D01*
Y981569D02*
Y1180118D01*
Y981569D02*
X2432356Y931102D01*
X2433262D01*
X2486850Y869449D02*
Y947671D01*
X2454207Y980314D02*
X2486850Y947671D01*
Y869449D02*
X2521614Y834685D01*
X2435854Y980314D02*
X2454207D01*
X2284449Y844521D02*
X2331339Y891412D01*
X2284449Y822835D02*
Y844521D01*
X2331339Y891412D02*
Y927484D01*
X2360236Y1201772D02*
Y1375000D01*
X2316929Y1160899D02*
Y1450787D01*
X4016732Y952756D02*
Y1082677D01*
X4060039Y1125984D01*
X4016732Y952756D02*
X4070866Y898622D01*
X5629921Y389764D02*
X5822953Y196732D01*
X5909252D01*
X2617480Y1351142D02*
Y1360001D01*
X4969055Y310157D02*
X5082480Y196732D01*
X2617480Y1166142D02*
Y1175000D01*
X4439983Y2362952D02*
X5855000D01*
X5909252Y2417204D01*
X2051378Y1175000D02*
X2082519D01*
Y990000D02*
Y998858D01*
Y820000D02*
Y828858D01*
X3739173Y1519081D02*
X3742505Y1515748D01*
X2926182Y1661676D02*
Y1732974D01*
X2926180Y1590378D02*
X2926182Y1590380D01*
Y1661676D01*
X2926180Y1519082D02*
X2926182Y1519081D01*
X2926180Y1519082D02*
Y1590378D01*
X2926182Y1447783D02*
Y1519081D01*
Y1376485D02*
Y1447783D01*
X2926180Y1305187D02*
X2926182Y1305189D01*
Y1376485D01*
X2926180Y1233891D02*
X2926182Y1233889D01*
X2926180Y1233891D02*
Y1305187D01*
Y1162591D02*
X2926182Y1162593D01*
Y1233889D01*
Y1091294D02*
Y1162590D01*
X2926180Y1162591D02*
X2926182Y1162590D01*
Y1019996D02*
Y1091294D01*
Y948701D02*
Y1019996D01*
Y877402D02*
Y948701D01*
Y806102D02*
Y877402D01*
X3739173Y806102D02*
Y877402D01*
Y948701D01*
X3739175Y948703D01*
Y1019996D01*
Y1091294D01*
X3739173Y1091296D02*
X3739175Y1091294D01*
X3739173Y1091296D02*
Y1162591D01*
X3739175Y1162593D01*
Y1233889D01*
X3739173Y1233891D02*
X3739175Y1233889D01*
X3739173Y1233891D02*
Y1305187D01*
Y1376485D01*
X3739175Y1376487D01*
Y1447783D01*
X3739173Y1447785D02*
X3739175Y1447783D01*
X3739173Y1447785D02*
Y1519081D01*
X3739175Y1590378D02*
Y1661674D01*
X3739173Y1661676D02*
X3739175Y1661674D01*
X3739173Y1519081D02*
X3739175Y1519082D01*
Y1590378D01*
X3739173Y1661676D02*
X3739175Y1661678D01*
Y1732974D01*
X4070877Y996066D02*
X4081701Y1006890D01*
X4166312D01*
X4171234Y1011812D01*
X2533465Y1245689D02*
Y1332087D01*
X2461910Y1174134D02*
X2533465Y1245689D01*
X2440697Y1174134D02*
X2461910D01*
X2533465Y1332087D02*
X2552520Y1351142D01*
X2147479Y1166142D02*
X2161456Y1180118D01*
X2176181D02*
X2218503Y1137796D01*
X2161456Y1180118D02*
X2176181D01*
X2219488Y1217935D02*
Y1310039D01*
X2169527Y1360001D02*
X2219488Y1310039D01*
X2147479Y1360001D02*
X2169527D01*
X2219488Y1217935D02*
X2231792Y1205630D01*
X2218503Y1137796D02*
X2257848D01*
X2220209Y1072571D02*
X2255615D01*
X2147481Y999844D02*
X2220209Y1072571D01*
X2147481Y990000D02*
Y999844D01*
X2219488Y855315D02*
Y994663D01*
X2184173Y820000D02*
X2219488Y855315D01*
X2147481Y820000D02*
X2184173D01*
X2219488Y994663D02*
X2231794Y1006970D01*
X2479331Y1491812D02*
X2552519Y1565000D01*
X2479331Y1254547D02*
Y1491812D01*
X2461910Y1237127D02*
X2479331Y1254547D01*
X2539173Y1175000D02*
X2552520D01*
X2470473Y1106300D02*
X2539173Y1175000D01*
X2435854Y1106300D02*
X2470473D01*
X2475393Y1043308D02*
X2505157Y1013543D01*
X2435854Y1043308D02*
X2475393D01*
X2505157Y1013543D02*
X2540315D01*
X2521614Y834685D02*
X2540355D01*
X2555040Y820000D01*
X2540315Y1013543D02*
X2555000Y998858D01*
Y990000D02*
Y998858D01*
X2435854Y1169292D02*
X2440697Y1174134D01*
X2552520Y1351142D02*
Y1360001D01*
X2435854Y1232284D02*
X2440697Y1237127D01*
X2461910D01*
X2253006Y1205630D02*
X2257848Y1200788D01*
X2231792Y1205630D02*
X2253006D01*
X2147479Y1166142D02*
Y1175000D01*
X2255615Y1072571D02*
X2257848Y1074804D01*
X2253006Y1006970D02*
X2257848Y1011812D01*
X2231794Y1006970D02*
X2253006D01*
X4447834Y1041339D02*
X4448819Y1040355D01*
X4351209Y1041339D02*
X4447834D01*
X4349240Y1043308D02*
X4351209Y1041339D01*
X4349240Y1169292D02*
X4449803D01*
X4067009Y1132954D02*
X4166391D01*
X4060039Y1125984D02*
X4067009Y1132954D01*
X4202676Y1069961D02*
X4233268Y1039370D01*
X4060039Y1385827D02*
X4062008Y1387795D01*
X3343503Y1019996D02*
X3687993D01*
X2977362D02*
X3343503D01*
Y1091294D02*
X3687993D01*
X2977364D02*
X3343503D01*
Y1376485D02*
X3687993D01*
X2977362D02*
X3343503D01*
Y877402D02*
X3687993D01*
X2977364D02*
X3343503D01*
Y806102D02*
X3687993D01*
X2977362D02*
X3343503D01*
Y1233889D02*
X3687993D01*
X2977364D02*
X3343503D01*
Y1305187D02*
X3687993D01*
X2977362D02*
X3343503D01*
Y1447783D02*
X3687993D01*
X2977364D02*
X3343503D01*
Y1732974D02*
X3687993D01*
X2977362D02*
X3343503D01*
Y1661676D02*
X3687991D01*
X2977362D02*
X3343503D01*
Y1590378D02*
X3687993D01*
X2977362D02*
X3343503D01*
Y1519081D02*
X3687993D01*
X2977362D02*
X3343503D01*
Y1162591D02*
X3687993D01*
X2977362D02*
X3343503D01*
X2977362Y948701D02*
X3343503D01*
X3687991D01*
X4287413Y974412D02*
X4290364Y977363D01*
X4346289D01*
X4349240Y980314D01*
X4203353Y1195946D02*
X4233268Y1166031D01*
Y1158465D02*
Y1166031D01*
X4176077Y1195946D02*
X4203353D01*
X4176077Y1069961D02*
X4202676D01*
X4171234Y1074804D02*
X4176077Y1069961D01*
X4287402Y1353347D02*
X4289862Y1355807D01*
X4346779D01*
X4349240Y1358268D01*
X4166391Y1132954D02*
X4171234Y1137796D01*
X4349240Y1169292D02*
X4349240Y1169292D01*
X4171234Y1200788D02*
X4176077Y1195946D01*
X4292904Y1212602D02*
X4312586Y1232284D01*
X4287413Y1212602D02*
X4292904D01*
X4312586Y1232284D02*
X4349240D01*
X4062008Y1387795D02*
X4169265D01*
X4222455Y1299216D02*
X4233279D01*
X4199741Y1321929D02*
X4222455Y1299216D01*
X4176077Y1321929D02*
X4199741D01*
X4171234Y1326772D02*
X4176077Y1321929D01*
X4169265Y1387795D02*
X4171234Y1389764D01*
D15*
X4349240Y1547244D02*
Y1578740D01*
Y1515748D02*
Y1547244D01*
Y1484252D02*
Y1515748D01*
Y1452756D02*
Y1484252D01*
X3742505Y1515748D02*
X4171234D01*
Y1484252D02*
Y1515748D01*
Y1547244D01*
Y1578740D01*
Y1452756D02*
Y1484252D01*
D16*
X4725000Y196850D02*
D03*
X4625000D02*
D03*
X4100000D02*
D03*
X4000000D02*
D03*
X2990000D02*
D03*
X3090000D02*
D03*
X2485000D02*
D03*
X2385000D02*
D03*
X1305000D02*
D03*
X1205000D02*
D03*
X372047Y2401574D02*
D03*
X272047D02*
D03*
X785433D02*
D03*
X685433D02*
D03*
X1575000D02*
D03*
X1475000D02*
D03*
X2100000D02*
D03*
X2000000D02*
D03*
X3260000D02*
D03*
X3160000D02*
D03*
X3910000D02*
D03*
X3810000D02*
D03*
X5110000D02*
D03*
X5010000D02*
D03*
X5650000D02*
D03*
X5550000D02*
D03*
X770000Y196850D02*
D03*
X670000D02*
D03*
D17*
X2346850Y846456D02*
D03*
Y1712598D02*
D03*
X4260236Y846456D02*
D03*
Y1712598D02*
D03*
D18*
X4471457Y1266732D02*
D03*
X2793307Y1450787D02*
D03*
X2695866Y1526575D02*
D03*
X3345481Y671262D02*
D03*
X3345472Y1927165D02*
D03*
Y1862205D02*
D03*
X2858268Y1234252D02*
D03*
X3345472Y1797244D02*
D03*
X4568898Y1169291D02*
D03*
X4289835Y1101895D02*
D03*
X4449803Y941929D02*
D03*
X4568898Y1028543D02*
D03*
X3345481Y736222D02*
D03*
X2433262Y931102D02*
D03*
X2436030Y844490D02*
D03*
X2284449Y822835D02*
D03*
X2360236Y1375000D02*
D03*
X2316929Y1450787D02*
D03*
Y1104331D02*
D03*
X4070866Y898622D02*
D03*
X4070877Y996066D02*
D03*
X4448819Y1040355D02*
D03*
X4449803Y1169292D02*
D03*
X4060039Y1125984D02*
D03*
X4233268Y1039370D02*
D03*
X4060039Y1255906D02*
D03*
Y1385827D02*
D03*
X3343503Y806102D02*
D03*
X4287413Y974412D02*
D03*
X4233268Y1158465D02*
D03*
X4287413Y1212602D02*
D03*
X4233279Y1299216D02*
D03*
X4287402Y1353347D02*
D03*
X3343503Y877402D02*
D03*
Y948701D02*
D03*
Y1019996D02*
D03*
Y1091294D02*
D03*
Y1162591D02*
D03*
Y1233889D02*
D03*
Y1305187D02*
D03*
Y1376485D02*
D03*
Y1447783D02*
D03*
Y1519081D02*
D03*
Y1590378D02*
D03*
Y1661676D02*
D03*
Y1732974D02*
D03*
%TF.MD5,e3b6e2ce7c46dfa488737f94f57d3fcd*%
M02*
