%TF.GenerationSoftware,Altium Limited,Altium Designer,19.0.10 (269)*%
G04 Layer_Color=65535*
%FSLAX26Y26*%
%MOIN*%
%TF.FileFunction,Legend,Top*%
%TF.Part,Single*%
G01*
G75*
%TA.AperFunction,NonConductor*%
%ADD22C,0.009842*%
%ADD23C,0.005906*%
%ADD24C,0.007874*%
%ADD35C,0.019685*%
%ADD36C,0.010000*%
%ADD37C,0.015748*%
G36*
X594178Y147450D02*
X594861D01*
X595625Y147395D01*
X596417Y147340D01*
X597182Y147286D01*
X597536Y147231D01*
X597864Y147177D01*
X597891D01*
X597973Y147149D01*
X598082Y147122D01*
X598246Y147095D01*
X598437Y147040D01*
X598683Y146986D01*
X599229Y146849D01*
X599830Y146631D01*
X600485Y146385D01*
X601140Y146057D01*
X601741Y145675D01*
X601768D01*
X601822Y145620D01*
X601904Y145566D01*
X602014Y145484D01*
X602287Y145238D01*
X602641Y144911D01*
X603051Y144474D01*
X603488Y143955D01*
X603897Y143327D01*
X604279Y142645D01*
Y142618D01*
X604334Y142563D01*
X604361Y142454D01*
X604443Y142317D01*
X604498Y142126D01*
X604580Y141908D01*
X604689Y141662D01*
X604771Y141389D01*
X604853Y141089D01*
X604962Y140761D01*
X605098Y140024D01*
X605208Y139205D01*
X605262Y138359D01*
Y138304D01*
Y138195D01*
X605235Y137976D01*
Y137676D01*
X605180Y137349D01*
X605126Y136939D01*
X605044Y136502D01*
X604935Y136011D01*
X604798Y135492D01*
X604634Y134946D01*
X604416Y134373D01*
X604170Y133800D01*
X603897Y133226D01*
X603542Y132653D01*
X603160Y132107D01*
X602696Y131561D01*
X602669Y131534D01*
X602587Y131452D01*
X602423Y131315D01*
X602205Y131124D01*
X601904Y130933D01*
X601522Y130687D01*
X601085Y130442D01*
X600567Y130196D01*
X599993Y129923D01*
X599311Y129677D01*
X598547Y129432D01*
X597700Y129240D01*
X596772Y129049D01*
X595762Y128913D01*
X594643Y128831D01*
X593441Y128804D01*
X585388D01*
Y116000D01*
X581211D01*
Y147477D01*
X593878D01*
X594178Y147450D01*
D02*
G37*
G36*
X576980Y143764D02*
X566551D01*
Y116000D01*
X562374D01*
Y143764D01*
X552000D01*
Y147477D01*
X576980D01*
Y143764D01*
D02*
G37*
G36*
X619649Y147559D02*
X619922D01*
X620277Y147504D01*
X620687Y147450D01*
X621124Y147395D01*
X621615Y147286D01*
X622134Y147149D01*
X622680Y147013D01*
X623226Y146794D01*
X623772Y146576D01*
X624318Y146303D01*
X624864Y145975D01*
X625382Y145620D01*
X625874Y145184D01*
X625901Y145156D01*
X625983Y145075D01*
X626120Y144938D01*
X626283Y144747D01*
X626474Y144529D01*
X626665Y144256D01*
X626911Y143928D01*
X627157Y143546D01*
X627375Y143163D01*
X627621Y142699D01*
X627812Y142235D01*
X628030Y141717D01*
X628167Y141171D01*
X628303Y140597D01*
X628385Y139997D01*
X628413Y139369D01*
Y139341D01*
Y139260D01*
Y139150D01*
X628385Y139014D01*
Y138823D01*
X628358Y138604D01*
X628276Y138086D01*
X628140Y137485D01*
X627921Y136830D01*
X627621Y136175D01*
X627457Y135847D01*
X627239Y135547D01*
Y135519D01*
X627184Y135465D01*
X627130Y135383D01*
X627020Y135274D01*
X626911Y135137D01*
X626747Y135001D01*
X626584Y134810D01*
X626365Y134646D01*
X626147Y134428D01*
X625874Y134236D01*
X625601Y134018D01*
X625273Y133827D01*
X624946Y133608D01*
X624563Y133417D01*
X624181Y133226D01*
X623744Y133062D01*
X623772D01*
X623881Y133008D01*
X624017Y132953D01*
X624208Y132871D01*
X624454Y132790D01*
X624755Y132653D01*
X625055Y132489D01*
X625382Y132325D01*
X626092Y131889D01*
X626829Y131370D01*
X627539Y130742D01*
X627867Y130387D01*
X628167Y130005D01*
X628194Y129978D01*
X628222Y129923D01*
X628303Y129786D01*
X628413Y129623D01*
X628522Y129432D01*
X628658Y129186D01*
X628795Y128913D01*
X628931Y128585D01*
X629068Y128230D01*
X629204Y127876D01*
X629341Y127439D01*
X629450Y127002D01*
X629641Y126046D01*
X629668Y125555D01*
X629696Y125009D01*
Y124954D01*
Y124818D01*
X629668Y124627D01*
X629641Y124326D01*
X629614Y123999D01*
X629532Y123589D01*
X629450Y123125D01*
X629341Y122634D01*
X629177Y122115D01*
X628986Y121569D01*
X628768Y121023D01*
X628495Y120450D01*
X628167Y119877D01*
X627785Y119303D01*
X627348Y118730D01*
X626829Y118211D01*
X626802Y118184D01*
X626693Y118102D01*
X626529Y117966D01*
X626311Y117775D01*
X626010Y117583D01*
X625683Y117338D01*
X625273Y117092D01*
X624809Y116846D01*
X624290Y116601D01*
X623744Y116355D01*
X623116Y116109D01*
X622461Y115918D01*
X621751Y115727D01*
X620987Y115591D01*
X620168Y115509D01*
X619322Y115481D01*
X619103D01*
X618885Y115509D01*
X618557Y115536D01*
X618148Y115563D01*
X617684Y115618D01*
X617192Y115700D01*
X616619Y115836D01*
X616046Y115973D01*
X615445Y116164D01*
X614817Y116382D01*
X614162Y116655D01*
X613534Y116956D01*
X612934Y117338D01*
X612333Y117747D01*
X611787Y118239D01*
X611760Y118266D01*
X611678Y118375D01*
X611514Y118512D01*
X611350Y118730D01*
X611132Y119003D01*
X610886Y119331D01*
X610640Y119713D01*
X610367Y120122D01*
X610094Y120614D01*
X609849Y121132D01*
X609603Y121678D01*
X609385Y122306D01*
X609221Y122934D01*
X609084Y123617D01*
X608975Y124326D01*
X608948Y125091D01*
Y125118D01*
Y125227D01*
Y125391D01*
X608975Y125610D01*
X609002Y125883D01*
X609030Y126183D01*
X609084Y126510D01*
X609139Y126893D01*
X609330Y127712D01*
X609466Y128149D01*
X609603Y128558D01*
X609794Y128995D01*
X609985Y129432D01*
X610231Y129841D01*
X610504Y130251D01*
X610531Y130278D01*
X610586Y130333D01*
X610668Y130442D01*
X610804Y130578D01*
X610941Y130742D01*
X611159Y130960D01*
X611378Y131151D01*
X611650Y131370D01*
X611951Y131616D01*
X612278Y131861D01*
X612633Y132080D01*
X613043Y132325D01*
X613480Y132517D01*
X613944Y132735D01*
X614435Y132899D01*
X614954Y133062D01*
X614927D01*
X614845Y133117D01*
X614735Y133144D01*
X614544Y133226D01*
X614353Y133308D01*
X614135Y133417D01*
X613589Y133718D01*
X613015Y134073D01*
X612415Y134482D01*
X611842Y135001D01*
X611596Y135274D01*
X611350Y135574D01*
Y135601D01*
X611296Y135656D01*
X611241Y135738D01*
X611159Y135874D01*
X611077Y136011D01*
X610995Y136202D01*
X610886Y136420D01*
X610777Y136666D01*
X610558Y137239D01*
X610395Y137922D01*
X610258Y138659D01*
X610204Y139478D01*
Y139505D01*
Y139642D01*
X610231Y139806D01*
Y140051D01*
X610285Y140352D01*
X610340Y140679D01*
X610422Y141061D01*
X610504Y141471D01*
X610640Y141908D01*
X610804Y142372D01*
X610995Y142863D01*
X611241Y143355D01*
X611514Y143846D01*
X611842Y144310D01*
X612224Y144774D01*
X612661Y145238D01*
X612688Y145266D01*
X612770Y145347D01*
X612906Y145457D01*
X613125Y145593D01*
X613370Y145784D01*
X613671Y145975D01*
X614026Y146194D01*
X614408Y146412D01*
X614872Y146631D01*
X615363Y146849D01*
X615909Y147040D01*
X616483Y147231D01*
X617111Y147368D01*
X617793Y147477D01*
X618503Y147559D01*
X619240Y147586D01*
X619431D01*
X619649Y147559D01*
D02*
G37*
G36*
X403553Y226000D02*
X399677D01*
Y250597D01*
X399649Y250570D01*
X399622Y250543D01*
X399540Y250461D01*
X399431Y250379D01*
X399267Y250242D01*
X399103Y250106D01*
X398912Y249942D01*
X398694Y249751D01*
X398148Y249369D01*
X397520Y248905D01*
X396810Y248413D01*
X395991Y247922D01*
X395964Y247895D01*
X395882Y247867D01*
X395773Y247785D01*
X395609Y247703D01*
X395418Y247594D01*
X395200Y247485D01*
X394926Y247321D01*
X394654Y247185D01*
X394026Y246857D01*
X393343Y246530D01*
X392633Y246202D01*
X391951Y245929D01*
Y249669D01*
X391978Y249696D01*
X392087Y249751D01*
X392278Y249833D01*
X392497Y249942D01*
X392770Y250079D01*
X393097Y250270D01*
X393452Y250461D01*
X393862Y250707D01*
X394299Y250952D01*
X394735Y251252D01*
X395691Y251880D01*
X396674Y252590D01*
X397602Y253355D01*
X397629Y253382D01*
X397711Y253464D01*
X397820Y253573D01*
X398011Y253737D01*
X398202Y253928D01*
X398421Y254146D01*
X398667Y254419D01*
X398940Y254692D01*
X399513Y255347D01*
X400086Y256057D01*
X400605Y256822D01*
X400851Y257204D01*
X401042Y257586D01*
X403553D01*
Y226000D01*
D02*
G37*
G36*
X374178Y257450D02*
X374861D01*
X375625Y257395D01*
X376417Y257340D01*
X377182Y257286D01*
X377536Y257231D01*
X377864Y257177D01*
X377891D01*
X377973Y257149D01*
X378082Y257122D01*
X378246Y257095D01*
X378437Y257040D01*
X378683Y256986D01*
X379229Y256849D01*
X379830Y256631D01*
X380485Y256385D01*
X381140Y256057D01*
X381741Y255675D01*
X381768D01*
X381822Y255620D01*
X381904Y255566D01*
X382014Y255484D01*
X382287Y255238D01*
X382642Y254911D01*
X383051Y254474D01*
X383488Y253955D01*
X383897Y253327D01*
X384279Y252645D01*
Y252618D01*
X384334Y252563D01*
X384361Y252454D01*
X384443Y252317D01*
X384498Y252126D01*
X384580Y251908D01*
X384689Y251662D01*
X384771Y251389D01*
X384853Y251089D01*
X384962Y250761D01*
X385099Y250024D01*
X385208Y249205D01*
X385262Y248359D01*
Y248304D01*
Y248195D01*
X385235Y247976D01*
Y247676D01*
X385180Y247349D01*
X385126Y246939D01*
X385044Y246502D01*
X384935Y246011D01*
X384798Y245492D01*
X384634Y244946D01*
X384416Y244373D01*
X384170Y243800D01*
X383897Y243226D01*
X383542Y242653D01*
X383160Y242107D01*
X382696Y241561D01*
X382669Y241534D01*
X382587Y241452D01*
X382423Y241315D01*
X382205Y241124D01*
X381904Y240933D01*
X381522Y240687D01*
X381085Y240442D01*
X380567Y240196D01*
X379993Y239923D01*
X379311Y239677D01*
X378546Y239432D01*
X377700Y239240D01*
X376772Y239049D01*
X375762Y238913D01*
X374643Y238831D01*
X373441Y238804D01*
X365388D01*
Y226000D01*
X361211D01*
Y257477D01*
X373878D01*
X374178Y257450D01*
D02*
G37*
G36*
X356979Y253764D02*
X346551D01*
Y226000D01*
X342374D01*
Y253764D01*
X332000D01*
Y257477D01*
X356979D01*
Y253764D01*
D02*
G37*
G36*
X424165Y257559D02*
X424383D01*
X424629Y257531D01*
X424902Y257504D01*
X425229Y257450D01*
X425912Y257340D01*
X426649Y257149D01*
X427413Y256904D01*
X428151Y256549D01*
X428178D01*
X428233Y256494D01*
X428342Y256440D01*
X428478Y256358D01*
X428642Y256248D01*
X428833Y256139D01*
X429270Y255812D01*
X429789Y255375D01*
X430307Y254883D01*
X430826Y254283D01*
X431317Y253600D01*
X431345Y253573D01*
X431372Y253518D01*
X431427Y253409D01*
X431536Y253273D01*
X431618Y253082D01*
X431754Y252863D01*
X431891Y252590D01*
X432027Y252290D01*
X432191Y251990D01*
X432355Y251635D01*
X432519Y251225D01*
X432682Y250816D01*
X432983Y249915D01*
X433283Y248932D01*
Y248905D01*
X433310Y248796D01*
X433338Y248659D01*
X433392Y248441D01*
X433447Y248140D01*
X433501Y247813D01*
X433583Y247430D01*
X433638Y246966D01*
X433692Y246475D01*
X433774Y245902D01*
X433829Y245301D01*
X433884Y244646D01*
X433938Y243936D01*
X433966Y243172D01*
X433993Y242353D01*
Y241506D01*
Y241479D01*
Y241452D01*
Y241370D01*
Y241261D01*
Y240960D01*
X433966Y240578D01*
Y240114D01*
X433938Y239568D01*
X433911Y238968D01*
X433856Y238312D01*
X433802Y237602D01*
X433720Y236893D01*
X433501Y235391D01*
X433392Y234654D01*
X433228Y233917D01*
X433037Y233207D01*
X432846Y232552D01*
Y232525D01*
X432792Y232416D01*
X432737Y232224D01*
X432628Y232006D01*
X432519Y231706D01*
X432355Y231378D01*
X432191Y231023D01*
X432000Y230641D01*
X431509Y229795D01*
X430935Y228921D01*
X430225Y228075D01*
X429843Y227665D01*
X429434Y227310D01*
X429406Y227283D01*
X429325Y227228D01*
X429215Y227147D01*
X429024Y227037D01*
X428806Y226874D01*
X428533Y226737D01*
X428233Y226573D01*
X427878Y226410D01*
X427468Y226218D01*
X427059Y226055D01*
X426567Y225918D01*
X426076Y225782D01*
X425530Y225645D01*
X424957Y225563D01*
X424356Y225509D01*
X423728Y225481D01*
X423537D01*
X423291Y225509D01*
X422964Y225536D01*
X422581Y225590D01*
X422145Y225645D01*
X421653Y225754D01*
X421135Y225891D01*
X420561Y226055D01*
X419988Y226273D01*
X419387Y226519D01*
X418787Y226846D01*
X418186Y227201D01*
X417640Y227638D01*
X417094Y228129D01*
X416575Y228703D01*
X416548Y228757D01*
X416439Y228894D01*
X416302Y229139D01*
X416084Y229467D01*
X415866Y229904D01*
X415593Y230423D01*
X415320Y231050D01*
X415019Y231788D01*
X414719Y232634D01*
X414446Y233562D01*
X414173Y234627D01*
X413955Y235773D01*
X413845Y236401D01*
X413764Y237029D01*
X413682Y237712D01*
X413600Y238422D01*
X413545Y239159D01*
X413490Y239896D01*
X413463Y240687D01*
Y241506D01*
Y241534D01*
Y241561D01*
Y241643D01*
Y241752D01*
Y242052D01*
X413490Y242435D01*
Y242899D01*
X413518Y243445D01*
X413572Y244045D01*
X413600Y244728D01*
X413682Y245410D01*
X413736Y246147D01*
X413955Y247649D01*
X414091Y248386D01*
X414228Y249123D01*
X414419Y249833D01*
X414610Y250488D01*
X414637Y250515D01*
X414664Y250652D01*
X414719Y250816D01*
X414828Y251061D01*
X414937Y251334D01*
X415101Y251662D01*
X415265Y252017D01*
X415456Y252426D01*
X415947Y253273D01*
X416521Y254146D01*
X417231Y254993D01*
X417613Y255375D01*
X418022Y255730D01*
X418050Y255757D01*
X418132Y255812D01*
X418268Y255893D01*
X418432Y256030D01*
X418650Y256166D01*
X418923Y256330D01*
X419224Y256494D01*
X419578Y256658D01*
X419988Y256822D01*
X420425Y257013D01*
X420889Y257149D01*
X421380Y257286D01*
X421926Y257422D01*
X422500Y257504D01*
X423100Y257559D01*
X423728Y257586D01*
X423974D01*
X424165Y257559D01*
D02*
G37*
G36*
X585404Y533559D02*
X585677Y533532D01*
X585977Y533504D01*
X586332Y533450D01*
X586741Y533368D01*
X587151Y533286D01*
X587588Y533177D01*
X588052Y533040D01*
X588543Y532876D01*
X589035Y532685D01*
X589526Y532467D01*
X589990Y532221D01*
X590481Y531921D01*
X590509Y531894D01*
X590591Y531839D01*
X590727Y531757D01*
X590891Y531620D01*
X591109Y531457D01*
X591355Y531238D01*
X591628Y530993D01*
X591928Y530720D01*
X592229Y530419D01*
X592556Y530064D01*
X592884Y529682D01*
X593212Y529245D01*
X593512Y528781D01*
X593812Y528317D01*
X594112Y527771D01*
X594358Y527225D01*
X594385Y527198D01*
X594413Y527089D01*
X594495Y526898D01*
X594577Y526652D01*
X594658Y526352D01*
X594795Y525942D01*
X594904Y525505D01*
X595041Y524987D01*
X595150Y524386D01*
X595286Y523731D01*
X595395Y522994D01*
X595477Y522202D01*
X595587Y521356D01*
X595641Y520428D01*
X595668Y519445D01*
X595696Y518380D01*
Y518353D01*
Y518325D01*
Y518216D01*
Y518107D01*
Y517971D01*
Y517807D01*
X595668Y517370D01*
Y516879D01*
X595641Y516278D01*
X595587Y515623D01*
X595532Y514913D01*
X595450Y514176D01*
X595368Y513384D01*
X595150Y511773D01*
X594986Y510982D01*
X594822Y510217D01*
X594604Y509480D01*
X594385Y508770D01*
X594358Y508743D01*
X594331Y508607D01*
X594249Y508416D01*
X594140Y508197D01*
X594003Y507897D01*
X593839Y507542D01*
X593648Y507160D01*
X593403Y506750D01*
X593157Y506313D01*
X592857Y505877D01*
X592529Y505413D01*
X592174Y504976D01*
X591819Y504539D01*
X591382Y504102D01*
X590946Y503693D01*
X590481Y503338D01*
X590454Y503310D01*
X590372Y503256D01*
X590208Y503174D01*
X590017Y503037D01*
X589772Y502901D01*
X589471Y502764D01*
X589144Y502573D01*
X588762Y502409D01*
X588325Y502246D01*
X587861Y502082D01*
X587369Y501918D01*
X586823Y501782D01*
X586277Y501645D01*
X585677Y501563D01*
X585049Y501509D01*
X584421Y501481D01*
X584257D01*
X584066Y501509D01*
X583793D01*
X583493Y501536D01*
X583111Y501591D01*
X582728Y501645D01*
X582264Y501727D01*
X581800Y501836D01*
X581309Y501973D01*
X580817Y502137D01*
X580299Y502355D01*
X579780Y502573D01*
X579288Y502846D01*
X578824Y503174D01*
X578360Y503529D01*
X578333Y503556D01*
X578251Y503638D01*
X578142Y503747D01*
X577978Y503911D01*
X577814Y504129D01*
X577596Y504375D01*
X577378Y504675D01*
X577132Y505030D01*
X576913Y505413D01*
X576668Y505849D01*
X576422Y506313D01*
X576204Y506832D01*
X576013Y507378D01*
X575821Y507979D01*
X575685Y508607D01*
X575576Y509289D01*
X579288Y509644D01*
Y509617D01*
X579316Y509535D01*
X579343Y509398D01*
X579370Y509207D01*
X579425Y508989D01*
X579507Y508743D01*
X579698Y508170D01*
X579916Y507542D01*
X580244Y506914D01*
X580599Y506313D01*
X580817Y506068D01*
X581063Y505822D01*
X581090D01*
X581118Y505767D01*
X581199Y505713D01*
X581309Y505631D01*
X581445Y505549D01*
X581609Y505440D01*
X581991Y505249D01*
X582483Y505030D01*
X583056Y504839D01*
X583738Y504703D01*
X584093Y504675D01*
X584476Y504648D01*
X584776D01*
X584940Y504675D01*
X585103Y504703D01*
X585540Y504757D01*
X586032Y504839D01*
X586550Y504976D01*
X587096Y505167D01*
X587615Y505440D01*
X587642D01*
X587670Y505467D01*
X587833Y505604D01*
X588079Y505767D01*
X588379Y506013D01*
X588734Y506341D01*
X589089Y506696D01*
X589471Y507132D01*
X589799Y507624D01*
Y507651D01*
X589826Y507678D01*
X589881Y507760D01*
X589936Y507870D01*
X590017Y508006D01*
X590099Y508170D01*
X590208Y508361D01*
X590318Y508607D01*
X590536Y509125D01*
X590782Y509753D01*
X591028Y510490D01*
X591246Y511309D01*
Y511337D01*
X591273Y511418D01*
X591301Y511528D01*
X591328Y511719D01*
X591382Y511910D01*
X591437Y512183D01*
X591492Y512456D01*
X591546Y512784D01*
X591573Y513111D01*
X591628Y513493D01*
X591737Y514285D01*
X591792Y515131D01*
X591819Y516032D01*
Y516087D01*
Y516223D01*
Y516469D01*
Y516769D01*
X591765Y516715D01*
X591710Y516633D01*
X591601Y516496D01*
X591492Y516332D01*
X591355Y516169D01*
X590973Y515732D01*
X590536Y515268D01*
X589990Y514776D01*
X589335Y514285D01*
X588625Y513821D01*
X588598D01*
X588543Y513766D01*
X588434Y513712D01*
X588270Y513630D01*
X588106Y513548D01*
X587861Y513466D01*
X587615Y513357D01*
X587342Y513248D01*
X586687Y513029D01*
X585977Y512865D01*
X585158Y512729D01*
X584312Y512674D01*
X584148D01*
X583929Y512702D01*
X583657Y512729D01*
X583329Y512756D01*
X582947Y512811D01*
X582510Y512920D01*
X582019Y513029D01*
X581527Y513166D01*
X580981Y513357D01*
X580435Y513602D01*
X579889Y513848D01*
X579316Y514176D01*
X578770Y514558D01*
X578224Y514995D01*
X577705Y515486D01*
X577678Y515514D01*
X577596Y515623D01*
X577459Y515787D01*
X577296Y516005D01*
X577077Y516278D01*
X576859Y516633D01*
X576613Y517042D01*
X576367Y517479D01*
X576094Y517998D01*
X575849Y518571D01*
X575630Y519172D01*
X575439Y519854D01*
X575248Y520564D01*
X575112Y521301D01*
X575030Y522120D01*
X575002Y522966D01*
Y522994D01*
Y523021D01*
Y523185D01*
X575030Y523431D01*
X575057Y523758D01*
X575084Y524168D01*
X575139Y524632D01*
X575248Y525150D01*
X575357Y525724D01*
X575494Y526324D01*
X575685Y526952D01*
X575931Y527580D01*
X576176Y528235D01*
X576504Y528863D01*
X576886Y529491D01*
X577323Y530092D01*
X577814Y530665D01*
X577842Y530692D01*
X577951Y530802D01*
X578115Y530938D01*
X578333Y531129D01*
X578606Y531347D01*
X578934Y531593D01*
X579316Y531866D01*
X579753Y532139D01*
X580244Y532412D01*
X580790Y532658D01*
X581363Y532904D01*
X581991Y533122D01*
X582646Y533313D01*
X583356Y533450D01*
X584093Y533559D01*
X584885Y533586D01*
X585185D01*
X585404Y533559D01*
D02*
G37*
G36*
X560178Y533450D02*
X560861D01*
X561625Y533395D01*
X562417Y533340D01*
X563182Y533286D01*
X563536Y533231D01*
X563864Y533177D01*
X563891D01*
X563973Y533149D01*
X564082Y533122D01*
X564246Y533095D01*
X564437Y533040D01*
X564683Y532986D01*
X565229Y532849D01*
X565830Y532631D01*
X566485Y532385D01*
X567140Y532057D01*
X567741Y531675D01*
X567768D01*
X567822Y531620D01*
X567904Y531566D01*
X568014Y531484D01*
X568287Y531238D01*
X568641Y530911D01*
X569051Y530474D01*
X569488Y529955D01*
X569897Y529327D01*
X570279Y528645D01*
Y528617D01*
X570334Y528563D01*
X570361Y528454D01*
X570443Y528317D01*
X570498Y528126D01*
X570580Y527908D01*
X570689Y527662D01*
X570771Y527389D01*
X570853Y527089D01*
X570962Y526761D01*
X571098Y526024D01*
X571208Y525205D01*
X571262Y524359D01*
Y524304D01*
Y524195D01*
X571235Y523976D01*
Y523676D01*
X571180Y523349D01*
X571126Y522939D01*
X571044Y522502D01*
X570935Y522011D01*
X570798Y521492D01*
X570634Y520946D01*
X570416Y520373D01*
X570170Y519800D01*
X569897Y519226D01*
X569542Y518653D01*
X569160Y518107D01*
X568696Y517561D01*
X568669Y517534D01*
X568587Y517452D01*
X568423Y517315D01*
X568205Y517124D01*
X567904Y516933D01*
X567522Y516687D01*
X567085Y516442D01*
X566567Y516196D01*
X565993Y515923D01*
X565311Y515677D01*
X564547Y515432D01*
X563700Y515240D01*
X562772Y515049D01*
X561762Y514913D01*
X560643Y514831D01*
X559441Y514804D01*
X551388D01*
Y502000D01*
X547211D01*
Y533477D01*
X559878D01*
X560178Y533450D01*
D02*
G37*
G36*
X542980Y529764D02*
X532551D01*
Y502000D01*
X528374D01*
Y529764D01*
X518000D01*
Y533477D01*
X542980D01*
Y529764D01*
D02*
G37*
G36*
X144734Y1250713D02*
X147796Y1250275D01*
X152170Y1249838D01*
X155231Y1249400D01*
X158293Y1248963D01*
X162230Y1248526D01*
X166604Y1248088D01*
X167041D01*
X167479D01*
X170540Y1247651D01*
X174040Y1247213D01*
X178851Y1246776D01*
X183225Y1245901D01*
X187162Y1245464D01*
X189786Y1245026D01*
X190661D01*
X191098D01*
Y1241090D01*
X191536Y1239340D01*
Y1195163D01*
X191098Y1189039D01*
Y1179416D01*
X190661Y1178104D01*
Y1176792D01*
X190223Y1175917D01*
X189349Y1174605D01*
X188474Y1172855D01*
X186724Y1171543D01*
X184537Y1169794D01*
X181913Y1168044D01*
X178851Y1167169D01*
X178414D01*
X177976D01*
X176227D01*
X173602D01*
X169666D01*
X164417Y1167607D01*
X161355Y1168044D01*
X157856Y1168481D01*
X153482Y1168919D01*
X149108Y1169356D01*
X148670D01*
X148233D01*
X145609Y1169794D01*
X141672Y1170231D01*
X137298Y1171106D01*
X132924Y1171543D01*
X128987Y1171981D01*
X126363Y1172418D01*
X125051D01*
X124613D01*
X124176D01*
X122864Y1172855D01*
X121114Y1173730D01*
X118927Y1174605D01*
X114116Y1177667D01*
X111929Y1179416D01*
X109742Y1182041D01*
X109304Y1182478D01*
X108867Y1183790D01*
X108430Y1185977D01*
X107992Y1188164D01*
X107555Y1188602D01*
Y1189914D01*
X107117Y1192538D01*
Y1199099D01*
X106680Y1202161D01*
Y1251150D01*
X107992D01*
X108867D01*
X109742Y1250713D01*
X110617D01*
X112366Y1250275D01*
X114553Y1249838D01*
X120677Y1248963D01*
Y1205660D01*
X121552Y1204786D01*
Y1204348D01*
X122426Y1203473D01*
X123301Y1202599D01*
X124613Y1201724D01*
X125051D01*
X125926D01*
X128113Y1201286D01*
X131174Y1200849D01*
X135111Y1200412D01*
X138173Y1199974D01*
X141235Y1199537D01*
X144734Y1199099D01*
X149108Y1198662D01*
X149545D01*
X149983D01*
X152607Y1198225D01*
X156544Y1197787D01*
X160918Y1197350D01*
X165292Y1196912D01*
X169228Y1196475D01*
X172290Y1196038D01*
X173165D01*
X173602D01*
X174477Y1196475D01*
X175352Y1196912D01*
X176664Y1197787D01*
X177539Y1198662D01*
Y1209160D01*
X177101Y1211784D01*
Y1213096D01*
X176664Y1213534D01*
Y1213971D01*
X175789Y1214846D01*
X174914Y1215721D01*
X173602Y1216595D01*
X173165D01*
X172727Y1217033D01*
X171415Y1217470D01*
X169666Y1218345D01*
X167041Y1218782D01*
X163979Y1219220D01*
X160043Y1219657D01*
X155231D01*
Y1203911D01*
X153919D01*
X153044D01*
X152170Y1204348D01*
X151295D01*
X149545D01*
X147358Y1204786D01*
X141235Y1205660D01*
Y1247651D01*
X141672Y1250275D01*
Y1251150D01*
X142109D01*
X142984D01*
X144734Y1250713D01*
D02*
G37*
G36*
X266331Y1234966D02*
X266768Y1234091D01*
X267643Y1232779D01*
X268955Y1229717D01*
X270705Y1225781D01*
X272017Y1223156D01*
X273767Y1220095D01*
X275516Y1216595D01*
X277266Y1212659D01*
X287764Y1189039D01*
Y1178542D01*
X287326Y1177229D01*
Y1175042D01*
X286889Y1171106D01*
Y1167607D01*
X286451Y1168481D01*
X285577Y1169794D01*
X284264Y1172418D01*
X282077Y1176355D01*
X281203Y1178979D01*
X279453Y1182041D01*
X277703Y1185103D01*
X275954Y1189039D01*
X265456Y1211784D01*
Y1233654D01*
X265894Y1234966D01*
Y1235404D01*
X266331Y1234966D01*
D02*
G37*
G36*
Y1186852D02*
X267206Y1185540D01*
X268518Y1182916D01*
X270268Y1178979D01*
X271580Y1176355D01*
X272892Y1173730D01*
X274204Y1170231D01*
X275954Y1166294D01*
X286889Y1144862D01*
Y1131302D01*
X286451Y1129553D01*
Y1125616D01*
X286014Y1123867D01*
Y1122117D01*
X285577Y1122992D01*
X284702Y1124741D01*
X283827Y1126054D01*
X282952Y1127803D01*
Y1128241D01*
X282515Y1129115D01*
X281640Y1130428D01*
X280765Y1132177D01*
X278578Y1136551D01*
X275954Y1142675D01*
X265456Y1164545D01*
Y1186415D01*
X265894Y1187727D01*
X266331Y1186852D01*
D02*
G37*
G36*
X111491Y1153172D02*
X113241D01*
X113678D01*
X114116D01*
X115428D01*
X117178Y1152735D01*
X119365D01*
X121989Y1152298D01*
X125488Y1151860D01*
X128987Y1151423D01*
X129425D01*
X130737D01*
X132924Y1150985D01*
X135548D01*
X138610Y1150548D01*
X141672Y1150111D01*
X149108Y1148798D01*
X190661Y1143550D01*
Y1105496D01*
X156106Y1093686D01*
X155669D01*
X154794Y1093249D01*
X153044Y1092374D01*
X150857Y1091936D01*
X145171Y1089749D01*
X139485Y1087562D01*
X139048D01*
X138173Y1087125D01*
X136861Y1086688D01*
X135111Y1085813D01*
X130737Y1084501D01*
X126800Y1083188D01*
X126363D01*
X125926D01*
X124176Y1082751D01*
X122426Y1082314D01*
X121552Y1081876D01*
X122426D01*
X123739D01*
X126800Y1081439D01*
X128550Y1081001D01*
X130737D01*
X133799Y1080564D01*
X136861Y1080127D01*
X140797Y1079689D01*
X145171Y1079252D01*
X150420Y1078814D01*
X156106Y1077940D01*
X156544D01*
X157418D01*
X159168Y1077502D01*
X161355D01*
X166604Y1076627D01*
X172727Y1075753D01*
X178851Y1074878D01*
X184537Y1074003D01*
X186724Y1073566D01*
X188474Y1073128D01*
X189786D01*
X190661Y1072691D01*
X191536D01*
Y1060006D01*
X190661D01*
X189786D01*
X188036Y1060444D01*
X186724D01*
X184975D01*
X182788Y1060881D01*
X179726Y1061318D01*
X176664Y1061756D01*
X172727Y1062193D01*
X167916Y1062631D01*
X162230Y1063068D01*
X156106Y1063943D01*
X149108Y1064818D01*
X148670D01*
X147358Y1065255D01*
X145171D01*
X142547Y1065692D01*
X139485Y1066130D01*
X135986Y1066567D01*
X128550Y1067442D01*
X121114Y1068317D01*
X117615Y1068754D01*
X114553Y1069192D01*
X111929Y1069629D01*
X109742Y1070066D01*
X108430D01*
X107992D01*
X106680Y1070941D01*
Y1109432D01*
X112804Y1111182D01*
X113678D01*
X115865Y1111619D01*
X118927Y1112494D01*
X119802Y1112932D01*
X122426Y1113806D01*
X126363Y1115119D01*
X131612Y1116868D01*
X132049D01*
X132924Y1117306D01*
X134236Y1118180D01*
X136423Y1118618D01*
X140797Y1120367D01*
X146046Y1122117D01*
X146483D01*
X147358Y1122554D01*
X148670Y1123429D01*
X150857Y1123867D01*
X155231Y1125616D01*
X160480Y1127366D01*
X160918D01*
X161355Y1127803D01*
X164417Y1128678D01*
X167479Y1129990D01*
X170978Y1130865D01*
X171415D01*
X172727Y1131302D01*
X174477Y1131740D01*
X174914Y1132177D01*
X174477D01*
X173165Y1132615D01*
X170540Y1133052D01*
X168791Y1133489D01*
X166604Y1133927D01*
X163979D01*
X160918Y1134802D01*
X156981Y1135239D01*
X152607Y1135676D01*
X147358Y1136114D01*
X141672Y1136989D01*
X141235D01*
X140360D01*
X138610Y1137426D01*
X136423D01*
X131174Y1138301D01*
X124613Y1139176D01*
X118490Y1139613D01*
X113241Y1140488D01*
X111054D01*
X109304Y1140925D01*
X107992D01*
X107555D01*
X107117Y1141800D01*
X106680Y1143550D01*
Y1150548D01*
X107117Y1152735D01*
X107555Y1153172D01*
X107992Y1153610D01*
X108430D01*
X110179D01*
X111491Y1153172D01*
D02*
G37*
G36*
X110179Y1047759D02*
X111491D01*
X113241D01*
X115428Y1047322D01*
X118052Y1046884D01*
X121552Y1046447D01*
X125488Y1046009D01*
X130300Y1045572D01*
X135986Y1045135D01*
X142109Y1044260D01*
X149545Y1043385D01*
X149983D01*
X151295D01*
X153482Y1042948D01*
X156106Y1042510D01*
X159168Y1042073D01*
X162667D01*
X170103Y1041198D01*
X177539Y1040323D01*
X181038Y1039886D01*
X184537Y1039448D01*
X187162Y1039011D01*
X189349D01*
X190661Y1038574D01*
X191098D01*
Y1036824D01*
X191536Y1035074D01*
Y1007956D01*
X190661D01*
X189786Y1008393D01*
X188036D01*
X186287Y1008830D01*
X184537D01*
X182350Y1009268D01*
X179288Y1009705D01*
X175789Y1010143D01*
X171853Y1010580D01*
X167041Y1011455D01*
X161792Y1011892D01*
X155231Y1012767D01*
X148233Y1013642D01*
X106680Y1018891D01*
Y1048196D01*
X107992D01*
X108430D01*
X110179Y1047759D01*
D02*
G37*
G36*
X115428Y996583D02*
X120677Y996146D01*
Y967715D01*
X121114Y964653D01*
Y962466D01*
X121552Y961591D01*
Y961154D01*
X122426Y960716D01*
X123301Y960279D01*
X124613Y959842D01*
X125051Y959404D01*
X125926D01*
X127675Y958967D01*
X130737Y958529D01*
X135111Y957655D01*
X137735Y957217D01*
X140797Y956780D01*
X144734Y956342D01*
X149108Y955905D01*
X173602Y952843D01*
X174914Y953718D01*
X175352D01*
X176664Y954593D01*
Y990022D01*
X177539D01*
X177976D01*
X178851D01*
X181038Y989585D01*
X184537Y989147D01*
X191536Y988273D01*
Y953718D01*
X191098Y948032D01*
Y942783D01*
X190661Y937534D01*
X190223Y933598D01*
X189786Y931848D01*
X189349Y930973D01*
X188911Y930536D01*
X187599Y928349D01*
X186724Y927911D01*
X184537Y926162D01*
X181038Y924412D01*
X175789Y923100D01*
X174914D01*
X173602D01*
X171415Y923537D01*
X167916Y923975D01*
X163542Y924412D01*
X157418Y925287D01*
X153919Y925724D01*
X149983Y926162D01*
X149545D01*
X148670D01*
X147796Y926599D01*
X146046D01*
X141672Y927037D01*
X136861Y927911D01*
X132049Y928349D01*
X127238Y929224D01*
X123739Y929661D01*
X122426Y930098D01*
X121552D01*
X121114D01*
X119802Y930973D01*
X117615Y931848D01*
X115428Y933598D01*
X112804Y935347D01*
X110179Y937972D01*
X107992Y941033D01*
X106680Y944970D01*
Y997021D01*
X107992D01*
X108867D01*
X111491D01*
X115428Y996583D01*
D02*
G37*
G36*
X191536Y881984D02*
X180601Y878923D01*
X180163D01*
X178851Y878485D01*
X177101Y878048D01*
X174914Y877610D01*
X173165Y876736D01*
X171415Y876298D01*
X170103Y875861D01*
X169666D01*
X168791D01*
Y841744D01*
X180601Y835620D01*
X191536Y828622D01*
Y815062D01*
X191098D01*
X190661Y815500D01*
X189786Y815937D01*
X188474Y816374D01*
X186724Y817687D01*
X184100Y818999D01*
X180163Y820748D01*
X175789Y823373D01*
X170540Y826435D01*
X163542Y829934D01*
X155669Y834745D01*
X146483Y839994D01*
X135548Y846118D01*
X122864Y853116D01*
X116303Y857053D01*
X108867Y861427D01*
X106680Y862301D01*
Y891607D01*
X143422Y900793D01*
X143859D01*
X144734Y901230D01*
X146483Y901667D01*
X148670Y902542D01*
X151295Y903417D01*
X154357Y904292D01*
X161792Y906041D01*
X162230D01*
X163542Y906479D01*
X165292Y906916D01*
X167479Y907354D01*
X172727Y908666D01*
X177976Y909978D01*
X178414D01*
X178851Y910415D01*
X181038Y910853D01*
X183225Y911290D01*
X184100D01*
X184537D01*
X191536Y913477D01*
Y881984D01*
D02*
G37*
G36*
X128113Y809376D02*
X133361Y808939D01*
X133799D01*
X135548D01*
X137735Y808501D01*
X140360D01*
X143422Y808064D01*
X146046D01*
X147796Y807626D01*
X149108Y807189D01*
X149983Y806752D01*
X151732Y805002D01*
X153919Y801503D01*
X155231Y797129D01*
Y795379D01*
X155669D01*
X156106Y795817D01*
X157418Y796254D01*
X159605Y796691D01*
X163105Y798004D01*
X167479Y799316D01*
X173602Y801065D01*
X174477Y801503D01*
X176227Y801940D01*
X179288Y802815D01*
X182350Y804127D01*
X185849Y805439D01*
X188911Y806314D01*
X190661Y806752D01*
X191536Y807189D01*
Y774821D01*
X189349Y773509D01*
X188911D01*
X188474D01*
X187162Y773072D01*
X186724D01*
X185412Y772634D01*
X182788Y772197D01*
X179726Y770885D01*
X179288D01*
X178851D01*
X177101Y770447D01*
X174477Y770010D01*
X171853Y769573D01*
X155231Y764761D01*
Y756888D01*
X155669Y756451D01*
Y756013D01*
X156106D01*
X156544D01*
X157856Y755576D01*
X160043D01*
X163542Y755138D01*
X167916Y754701D01*
X173602Y753826D01*
X174477D01*
X176227Y753389D01*
X178851Y752951D01*
X182350Y752514D01*
X183225D01*
X184975Y752077D01*
X187162D01*
X189349Y751639D01*
X189786D01*
X190223D01*
X191098Y751202D01*
X191536D01*
Y721459D01*
X190661D01*
X189786D01*
X188474Y721896D01*
X187162D01*
X185412D01*
X183225Y722333D01*
X180601Y722771D01*
X177101Y723208D01*
X173165Y723646D01*
X168353Y724083D01*
X162667Y724520D01*
X156544Y725395D01*
X149108Y726270D01*
X148670D01*
X147358Y726707D01*
X145171D01*
X142984Y727145D01*
X139922Y727582D01*
X136423Y728020D01*
X128987Y728894D01*
X121552Y730207D01*
X118052Y730644D01*
X114553Y731081D01*
X111929Y731519D01*
X110179Y731956D01*
X108430Y732394D01*
X107992D01*
X106680D01*
X107992Y765636D01*
Y802815D01*
X108430Y803252D01*
X109304Y805002D01*
X111054Y807189D01*
X113678Y808939D01*
X114553Y809376D01*
X115865D01*
X117615Y809813D01*
X120239D01*
X123739D01*
X128113Y809376D01*
D02*
G37*
G36*
X206845Y1242839D02*
X211656Y1242402D01*
X214280D01*
X217780Y1241965D01*
X221716Y1241090D01*
X226090Y1240652D01*
X230902Y1240215D01*
X236150Y1239340D01*
X241837Y1238028D01*
X248398Y1237153D01*
X249710D01*
Y714460D01*
X248398D01*
X247960D01*
X246211D01*
X243149Y714898D01*
X241399D01*
X238775Y715335D01*
X236150Y715772D01*
X232651D01*
X228715Y716647D01*
X224341Y717085D01*
X219529Y717959D01*
X213843Y718397D01*
X207719Y719709D01*
X201158Y720584D01*
X200284D01*
Y1160608D01*
X200721Y1171543D01*
Y1236716D01*
X201158Y1240215D01*
Y1243277D01*
X201596D01*
X203345D01*
X206845Y1242839D01*
D02*
G37*
G36*
X207282Y708337D02*
X207719D01*
X209032D01*
X210781Y707899D01*
X212968D01*
X224778Y705712D01*
Y682093D01*
X225215D01*
X226090D01*
X227840Y681655D01*
X229589Y681218D01*
X232651Y680780D01*
X236588Y680343D01*
X237025D01*
X238337D01*
X240524Y679906D01*
X242711D01*
X244898Y679468D01*
X247085D01*
X248398Y679031D01*
X249272D01*
Y677281D01*
X249710Y675969D01*
Y654536D01*
X248398D01*
X247960D01*
X247523D01*
X246648D01*
X244898Y654974D01*
X243149D01*
X240087D01*
X236588Y655411D01*
X236150D01*
X234838Y655849D01*
X233089Y656286D01*
X231339Y656723D01*
X226965Y657161D01*
X225653Y657598D01*
X224778D01*
Y633979D01*
X236588Y631792D01*
X237025D01*
X238337D01*
X240524Y631354D01*
X242711D01*
X244898D01*
X247085Y630917D01*
X248398D01*
X249272D01*
Y629167D01*
X249710Y627855D01*
Y606422D01*
X248398D01*
X247960D01*
X247523D01*
X246648D01*
X245336Y606860D01*
X243149D01*
X240524Y607297D01*
X237025Y607735D01*
X236588D01*
X235276Y608172D01*
X233526D01*
X231339Y608609D01*
X227402Y609047D01*
X225653Y609484D01*
X224778D01*
Y585865D01*
X236588Y583678D01*
X237025D01*
X238337D01*
X240087Y583240D01*
X242274D01*
X244461D01*
X246211Y582803D01*
X247523D01*
X248398D01*
X249710D01*
Y558308D01*
X248398D01*
X247960D01*
X247523D01*
X245773D01*
X243586Y558746D01*
X240962D01*
X237025Y559621D01*
X232214Y560058D01*
X226090Y560933D01*
X224778D01*
Y537313D01*
X225215D01*
X225653D01*
X226528D01*
X228277Y536876D01*
X230464Y536438D01*
X233089Y536001D01*
X236588Y535564D01*
X237025D01*
X238337D01*
X239650Y535126D01*
X241837D01*
X245773Y534689D01*
X247523D01*
X248398D01*
X249710D01*
Y511507D01*
X249272Y510194D01*
Y509757D01*
X248835D01*
X248398D01*
X247523D01*
X245773Y510194D01*
X243586D01*
X240524Y510632D01*
X236588Y511069D01*
X236150D01*
X234838Y511507D01*
X232651D01*
X230464Y511944D01*
X228715Y512381D01*
X226528D01*
X225215Y512819D01*
X224778D01*
Y489199D01*
X223903D01*
X223028D01*
X220841Y489637D01*
X218217Y490074D01*
X214280Y490949D01*
X206407Y491824D01*
X202908Y492261D01*
X200284D01*
Y515881D01*
X201158D01*
X202033D01*
X203783Y515443D01*
X206407Y515006D01*
X209906Y514568D01*
X217342Y513256D01*
X220841Y512819D01*
X223903D01*
X224341Y513694D01*
Y515881D01*
X224778Y518068D01*
Y535564D01*
X224341Y536876D01*
Y537313D01*
X223903D01*
X223466D01*
X222591D01*
X221279Y537751D01*
X219092D01*
X216030Y538188D01*
X212093Y538625D01*
X211656D01*
X210344Y539063D01*
X208157D01*
X205970Y539500D01*
X204220Y539938D01*
X202033D01*
X200721Y540375D01*
X200284D01*
Y563995D01*
X201158D01*
X201596D01*
X202471D01*
X203783D01*
X205970Y563557D01*
X208594D01*
X212093Y563120D01*
X212531D01*
X213843D01*
X216030Y562682D01*
X217780D01*
X219967Y562245D01*
X222154Y561808D01*
X223466Y561370D01*
X223903Y560933D01*
X224778D01*
Y585865D01*
X212968Y586739D01*
X212531D01*
X211219D01*
X209032Y587177D01*
X206845D01*
X205095Y587614D01*
X202908Y588052D01*
X201596D01*
X201158Y588489D01*
X200284D01*
Y612109D01*
X200721D01*
X201596D01*
X203345D01*
X205970Y611671D01*
X209032D01*
X212968Y611234D01*
X218217Y610359D01*
X223903Y609484D01*
X224778D01*
Y633104D01*
X223903Y633979D01*
X223466D01*
X222591D01*
X221716D01*
X220404Y634416D01*
X218217D01*
X215593D01*
X212093Y634853D01*
X211656D01*
X210344D01*
X208594Y635291D01*
X206407D01*
X204220D01*
X202471Y635728D01*
X201158D01*
X200284D01*
Y660660D01*
X200721D01*
X201596D01*
X203345Y660223D01*
X205095Y659785D01*
X208157Y659348D01*
X212093Y658910D01*
X212531D01*
X213843D01*
X216030Y658473D01*
X218217D01*
X220404Y658036D01*
X222154D01*
X223466Y657598D01*
X224341D01*
Y658910D01*
X224778Y660660D01*
Y681218D01*
X223903Y682093D01*
X223466D01*
X222591D01*
X220841Y682530D01*
X219092D01*
X216030D01*
X212093Y682967D01*
X200284Y685154D01*
Y708774D01*
X201158D01*
X202033D01*
X202908D01*
X203345D01*
X203783D01*
X205095D01*
X207282Y708337D01*
D02*
G37*
G36*
X228715Y488762D02*
X230902Y488324D01*
X233963Y487887D01*
X237900Y487450D01*
X249710Y486137D01*
Y463393D01*
X249272Y462080D01*
Y461643D01*
X248835D01*
X248398D01*
X247523D01*
X245773Y462080D01*
X244024D01*
X240962Y462518D01*
X237463Y462955D01*
X237025D01*
X235713Y463393D01*
X233963D01*
X231776Y463830D01*
X229589Y464267D01*
X227840D01*
X226090Y464705D01*
X225653D01*
X225215Y464267D01*
Y461643D01*
X224778Y459893D01*
Y441085D01*
X223903D01*
X223466D01*
X222591D01*
X220841Y441523D01*
X219092D01*
X216030D01*
X212093Y441960D01*
X200284Y444147D01*
Y467767D01*
X201158D01*
X201596D01*
X202033D01*
X204658Y467329D01*
X207719Y466892D01*
X211656Y466454D01*
X216030Y465580D01*
X219529Y465142D01*
X222591Y464705D01*
X223466D01*
X223903D01*
X224341Y465580D01*
Y467767D01*
X224778Y469954D01*
Y489199D01*
X225215D01*
X225653D01*
X226965D01*
X228715Y488762D01*
D02*
G37*
G36*
X227402Y440648D02*
X229152D01*
X230902Y440210D01*
X233963Y439773D01*
X237900Y438898D01*
X249710Y438023D01*
Y413529D01*
X248398D01*
X247523D01*
X245336Y413966D01*
X242711Y414404D01*
X238775Y415279D01*
X230902Y416153D01*
X227402Y416591D01*
X224778D01*
Y396908D01*
X225215Y394721D01*
Y393409D01*
X225653Y392971D01*
X226090D01*
X226528D01*
X227402D01*
X228715Y392534D01*
X230902Y392096D01*
X233526Y391659D01*
X237463Y391222D01*
X237900D01*
X239212D01*
X240962Y390784D01*
X243149D01*
X245336Y390347D01*
X247085D01*
X248398Y389909D01*
X249272D01*
Y388597D01*
X249710Y386848D01*
Y367165D01*
X249272Y365852D01*
Y365415D01*
X248835D01*
X248398D01*
X247523D01*
X245773Y365852D01*
X243586D01*
X240524Y366290D01*
X236588Y366727D01*
X236150D01*
X234838Y367165D01*
X232651D01*
X230464Y367602D01*
X228715D01*
X226528Y368039D01*
X225215D01*
X224778D01*
Y344420D01*
X225215D01*
X226090D01*
X227840Y343982D01*
X229589Y343545D01*
X232651Y343108D01*
X236588Y342670D01*
X249710Y341795D01*
Y319051D01*
X249272Y317301D01*
Y316864D01*
X248835D01*
X248398D01*
X247523D01*
X245773Y317301D01*
X244024D01*
X240962Y317738D01*
X237463Y318176D01*
X237025D01*
X235713Y318613D01*
X233963D01*
X231776Y319051D01*
X229589Y319488D01*
X227840D01*
X226090Y319925D01*
X225653D01*
X225215Y319488D01*
Y316864D01*
X224778Y315114D01*
Y296306D01*
X223903D01*
X223466D01*
X223028D01*
X222154D01*
X220404Y296743D01*
X218654D01*
X215593D01*
X212093Y297181D01*
X200284Y299368D01*
Y323862D01*
X201158Y322987D01*
X202033D01*
X203783Y322550D01*
X206845Y322112D01*
X210344D01*
X217780Y321238D01*
X221279Y320800D01*
X223903D01*
X224341Y321238D01*
Y323862D01*
X224778Y325612D01*
Y342670D01*
X224341Y343982D01*
Y344420D01*
X223903D01*
X223466D01*
X222591D01*
X221279Y344857D01*
X219092D01*
X216030Y345295D01*
X212093Y345732D01*
X211656D01*
X210344Y346169D01*
X208157D01*
X205970Y346607D01*
X204220Y347044D01*
X202033D01*
X200721Y347482D01*
X200284D01*
Y371976D01*
X201158Y371101D01*
X201596D01*
X202471D01*
X204220D01*
X205970Y370664D01*
X209032D01*
X212968Y370226D01*
X224778Y369352D01*
X223903Y381161D01*
Y392971D01*
X212093Y393846D01*
X211656D01*
X210344Y394283D01*
X208157D01*
X205970Y394721D01*
X204220Y395158D01*
X202033D01*
X200721Y395596D01*
X200284D01*
Y417466D01*
X200721Y418778D01*
Y419215D01*
X201158D01*
X201596D01*
X202471D01*
X203783Y418778D01*
X205970D01*
X208594Y418340D01*
X212531Y417903D01*
X212968D01*
X214280D01*
X216030Y417466D01*
X218217D01*
X220404Y417028D01*
X222154D01*
X223903Y416591D01*
X224341D01*
Y417903D01*
X224778Y419653D01*
Y441085D01*
X226090D01*
X226528D01*
X227402Y440648D01*
D02*
G37*
G36*
X107992Y720584D02*
X108867D01*
X110617Y720146D01*
X111929D01*
X113678D01*
X115865Y719709D01*
X118490Y719272D01*
X121989Y718834D01*
X125926Y718397D01*
X130737Y717959D01*
X136423Y717522D01*
X142547Y716647D01*
X149983Y715772D01*
X191536Y710524D01*
Y276623D01*
X190661D01*
X189786D01*
X188036Y277060D01*
X186287D01*
X184537D01*
X182350Y277498D01*
X179726Y277935D01*
X176227Y278372D01*
X172290Y278810D01*
X167479Y279247D01*
X162230Y279685D01*
X156106Y280559D01*
X149108Y281434D01*
X148670D01*
X147358Y281872D01*
X145171D01*
X142547Y282309D01*
X139485Y282746D01*
X135986Y283184D01*
X128550Y284059D01*
X121114Y284933D01*
X117615Y285371D01*
X114553Y285808D01*
X111929Y286246D01*
X109742Y286683D01*
X108430D01*
X107992D01*
X106680D01*
Y721459D01*
X107992Y720584D01*
D02*
G37*
G36*
X266331Y1140050D02*
X267206Y1138301D01*
X268518Y1135676D01*
X270268Y1132177D01*
X272892Y1126928D01*
X274204Y1123429D01*
X275954Y1119930D01*
X286014Y1099372D01*
X275954Y682967D01*
Y675969D01*
X275516Y672907D01*
Y655849D01*
X275079Y644476D01*
X274642Y631792D01*
Y617795D01*
X274204Y602923D01*
X273767Y586302D01*
X273329Y569243D01*
X272892Y551310D01*
X272455Y532939D01*
X272017Y513694D01*
X271142Y475202D01*
X270268Y436274D01*
X269830Y417028D01*
X269393Y398657D01*
X268955Y380724D01*
X268518Y363665D01*
X268081Y347044D01*
X267643Y332173D01*
X267206Y318176D01*
X266768Y305491D01*
Y289307D01*
X266331Y284933D01*
Y274436D01*
X265894Y271811D01*
Y312052D01*
X265456Y321675D01*
Y1087562D01*
X265894Y1100684D01*
Y1140488D01*
X266331Y1140050D01*
D02*
G37*
G36*
X227402Y295868D02*
X229152D01*
X233526Y295431D01*
X237900Y294556D01*
X249710Y293244D01*
Y268750D01*
X247523D01*
X247085D01*
X246211Y269187D01*
X245773D01*
X244898Y269624D01*
X243586D01*
X241399Y270062D01*
X240962D01*
X239212Y270499D01*
X237463Y270937D01*
X235713D01*
X224778Y271811D01*
Y296306D01*
X225215D01*
X226090D01*
X227402Y295868D01*
D02*
G37*
G36*
X1088204Y687190D02*
X1099998Y670701D01*
X1094865D01*
X1086894Y681921D01*
X1086867Y681976D01*
X1086785Y682085D01*
X1086648Y682276D01*
X1086484Y682522D01*
X1086293Y682822D01*
X1086075Y683122D01*
X1085611Y683832D01*
Y683805D01*
X1085556Y683750D01*
X1085502Y683696D01*
X1085447Y683586D01*
X1085256Y683286D01*
X1085037Y682958D01*
X1084792Y682604D01*
X1084546Y682221D01*
X1084300Y681894D01*
X1084109Y681621D01*
X1076138Y670701D01*
X1071142D01*
X1083290Y686999D01*
X1072561Y702178D01*
X1077503D01*
X1083263Y694097D01*
X1083290Y694070D01*
X1083345Y693988D01*
X1083427Y693851D01*
X1083563Y693687D01*
X1083700Y693469D01*
X1083863Y693251D01*
X1084246Y692677D01*
X1084682Y692049D01*
X1085092Y691422D01*
X1085474Y690794D01*
X1085802Y690220D01*
Y690248D01*
X1085856Y690302D01*
X1085911Y690384D01*
X1085993Y690521D01*
X1086102Y690684D01*
X1086211Y690875D01*
X1086512Y691312D01*
X1086867Y691858D01*
X1087303Y692459D01*
X1087767Y693114D01*
X1088286Y693797D01*
X1094592Y702178D01*
X1099124D01*
X1088204Y687190D01*
D02*
G37*
G36*
X1112419Y702260D02*
X1112638D01*
X1112911Y702232D01*
X1113211Y702205D01*
X1113539Y702150D01*
X1114276Y702014D01*
X1115095Y701823D01*
X1115914Y701550D01*
X1116733Y701168D01*
X1116760D01*
X1116842Y701113D01*
X1116951Y701058D01*
X1117088Y700976D01*
X1117279Y700867D01*
X1117470Y700731D01*
X1117961Y700376D01*
X1118480Y699966D01*
X1119026Y699448D01*
X1119572Y698847D01*
X1120036Y698165D01*
X1120063Y698137D01*
X1120091Y698083D01*
X1120145Y697973D01*
X1120227Y697837D01*
X1120309Y697646D01*
X1120418Y697455D01*
X1120527Y697209D01*
X1120637Y696936D01*
X1120828Y696336D01*
X1121019Y695653D01*
X1121155Y694889D01*
X1121210Y694506D01*
Y694097D01*
Y694070D01*
Y694015D01*
Y693906D01*
X1121183Y693769D01*
Y693578D01*
X1121155Y693360D01*
X1121073Y692868D01*
X1120937Y692295D01*
X1120746Y691667D01*
X1120473Y691039D01*
X1120091Y690384D01*
Y690357D01*
X1120036Y690302D01*
X1119981Y690220D01*
X1119899Y690111D01*
X1119627Y689811D01*
X1119272Y689429D01*
X1118835Y689019D01*
X1118262Y688555D01*
X1117606Y688145D01*
X1116869Y687736D01*
X1116897D01*
X1117006Y687709D01*
X1117142Y687654D01*
X1117333Y687600D01*
X1117552Y687518D01*
X1117825Y687436D01*
X1118125Y687299D01*
X1118453Y687163D01*
X1119162Y686808D01*
X1119517Y686589D01*
X1119872Y686344D01*
X1120227Y686071D01*
X1120582Y685743D01*
X1120910Y685415D01*
X1121210Y685061D01*
X1121237Y685033D01*
X1121264Y684979D01*
X1121346Y684842D01*
X1121456Y684706D01*
X1121565Y684487D01*
X1121701Y684269D01*
X1121838Y683996D01*
X1122002Y683668D01*
X1122138Y683313D01*
X1122275Y682931D01*
X1122411Y682522D01*
X1122520Y682058D01*
X1122630Y681593D01*
X1122711Y681075D01*
X1122739Y680556D01*
X1122766Y679983D01*
Y679928D01*
Y679792D01*
X1122739Y679573D01*
X1122711Y679300D01*
X1122684Y678945D01*
X1122602Y678536D01*
X1122520Y678072D01*
X1122384Y677553D01*
X1122220Y677034D01*
X1122029Y676461D01*
X1121783Y675888D01*
X1121483Y675287D01*
X1121128Y674714D01*
X1120746Y674113D01*
X1120282Y673540D01*
X1119736Y672994D01*
X1119708Y672967D01*
X1119599Y672885D01*
X1119435Y672721D01*
X1119190Y672557D01*
X1118889Y672339D01*
X1118534Y672093D01*
X1118125Y671847D01*
X1117661Y671574D01*
X1117142Y671301D01*
X1116569Y671056D01*
X1115941Y670810D01*
X1115258Y670592D01*
X1114549Y670428D01*
X1113784Y670291D01*
X1112993Y670182D01*
X1112146Y670155D01*
X1111955D01*
X1111737Y670182D01*
X1111464D01*
X1111109Y670237D01*
X1110699Y670291D01*
X1110235Y670373D01*
X1109744Y670455D01*
X1109198Y670592D01*
X1108652Y670755D01*
X1108079Y670947D01*
X1107505Y671192D01*
X1106905Y671465D01*
X1106359Y671793D01*
X1105785Y672175D01*
X1105267Y672612D01*
X1105239Y672639D01*
X1105158Y672721D01*
X1105021Y672857D01*
X1104830Y673076D01*
X1104611Y673322D01*
X1104393Y673595D01*
X1104120Y673949D01*
X1103847Y674359D01*
X1103574Y674796D01*
X1103301Y675260D01*
X1103055Y675806D01*
X1102810Y676379D01*
X1102591Y676980D01*
X1102400Y677635D01*
X1102264Y678317D01*
X1102155Y679027D01*
X1106031Y679546D01*
Y679519D01*
X1106058Y679409D01*
X1106113Y679246D01*
X1106168Y679000D01*
X1106222Y678727D01*
X1106331Y678427D01*
X1106441Y678072D01*
X1106550Y677717D01*
X1106877Y676925D01*
X1107260Y676161D01*
X1107478Y675779D01*
X1107724Y675424D01*
X1107997Y675096D01*
X1108270Y674796D01*
X1108297Y674769D01*
X1108352Y674741D01*
X1108434Y674659D01*
X1108570Y674577D01*
X1108707Y674468D01*
X1108898Y674332D01*
X1109116Y674195D01*
X1109362Y674086D01*
X1109935Y673813D01*
X1110590Y673567D01*
X1111355Y673404D01*
X1111764Y673376D01*
X1112174Y673349D01*
X1112447D01*
X1112638Y673376D01*
X1112856Y673404D01*
X1113129Y673458D01*
X1113429Y673513D01*
X1113784Y673595D01*
X1114139Y673677D01*
X1114494Y673813D01*
X1114876Y673949D01*
X1115286Y674141D01*
X1115668Y674359D01*
X1116050Y674605D01*
X1116432Y674905D01*
X1116787Y675233D01*
X1116815Y675260D01*
X1116869Y675314D01*
X1116951Y675424D01*
X1117088Y675560D01*
X1117224Y675751D01*
X1117388Y675970D01*
X1117552Y676243D01*
X1117743Y676516D01*
X1117907Y676843D01*
X1118070Y677198D01*
X1118234Y677580D01*
X1118371Y677990D01*
X1118507Y678427D01*
X1118589Y678891D01*
X1118644Y679382D01*
X1118671Y679901D01*
Y679928D01*
Y680010D01*
Y680147D01*
X1118644Y680338D01*
X1118616Y680583D01*
X1118589Y680829D01*
X1118534Y681129D01*
X1118453Y681457D01*
X1118234Y682139D01*
X1118098Y682522D01*
X1117934Y682877D01*
X1117743Y683259D01*
X1117497Y683614D01*
X1117224Y683969D01*
X1116924Y684296D01*
X1116897Y684323D01*
X1116842Y684378D01*
X1116733Y684460D01*
X1116623Y684569D01*
X1116432Y684706D01*
X1116241Y684842D01*
X1115996Y685006D01*
X1115723Y685170D01*
X1115422Y685306D01*
X1115067Y685470D01*
X1114713Y685607D01*
X1114330Y685743D01*
X1113893Y685852D01*
X1113457Y685934D01*
X1112993Y685989D01*
X1112501Y686016D01*
X1112310D01*
X1112064Y685989D01*
X1111764Y685962D01*
X1111355Y685907D01*
X1110890Y685852D01*
X1110372Y685743D01*
X1109771Y685607D01*
X1110208Y688992D01*
X1110263D01*
X1110426Y688965D01*
X1110645Y688937D01*
X1111082D01*
X1111245Y688965D01*
X1111464D01*
X1111709Y689019D01*
X1112010Y689046D01*
X1112310Y689101D01*
X1112993Y689265D01*
X1113730Y689483D01*
X1114494Y689811D01*
X1114876Y690002D01*
X1115258Y690220D01*
X1115286Y690248D01*
X1115340Y690275D01*
X1115450Y690357D01*
X1115559Y690466D01*
X1115723Y690602D01*
X1115886Y690766D01*
X1116050Y690957D01*
X1116241Y691203D01*
X1116432Y691476D01*
X1116596Y691749D01*
X1116760Y692077D01*
X1116924Y692432D01*
X1117033Y692841D01*
X1117142Y693251D01*
X1117197Y693715D01*
X1117224Y694206D01*
Y694233D01*
Y694288D01*
Y694397D01*
X1117197Y694561D01*
X1117169Y694725D01*
X1117142Y694943D01*
X1117033Y695435D01*
X1116869Y695981D01*
X1116623Y696581D01*
X1116460Y696854D01*
X1116269Y697154D01*
X1116023Y697428D01*
X1115777Y697701D01*
X1115750Y697728D01*
X1115723Y697755D01*
X1115641Y697837D01*
X1115504Y697919D01*
X1115368Y698028D01*
X1115204Y698137D01*
X1115013Y698274D01*
X1114767Y698410D01*
X1114248Y698683D01*
X1113593Y698902D01*
X1112883Y699066D01*
X1112474Y699093D01*
X1112064Y699120D01*
X1111846D01*
X1111682Y699093D01*
X1111491Y699066D01*
X1111273Y699038D01*
X1110754Y698956D01*
X1110181Y698765D01*
X1109553Y698519D01*
X1109225Y698356D01*
X1108925Y698165D01*
X1108625Y697946D01*
X1108324Y697701D01*
X1108297Y697673D01*
X1108270Y697646D01*
X1108188Y697564D01*
X1108079Y697428D01*
X1107969Y697291D01*
X1107833Y697100D01*
X1107669Y696881D01*
X1107533Y696636D01*
X1107369Y696363D01*
X1107205Y696035D01*
X1107041Y695680D01*
X1106877Y695298D01*
X1106741Y694889D01*
X1106604Y694452D01*
X1106495Y693960D01*
X1106413Y693442D01*
X1102537Y694124D01*
Y694179D01*
X1102564Y694288D01*
X1102619Y694506D01*
X1102673Y694752D01*
X1102782Y695080D01*
X1102892Y695462D01*
X1103028Y695871D01*
X1103192Y696336D01*
X1103383Y696800D01*
X1103629Y697291D01*
X1103874Y697782D01*
X1104175Y698301D01*
X1104502Y698793D01*
X1104884Y699257D01*
X1105294Y699721D01*
X1105731Y700130D01*
X1105758Y700158D01*
X1105840Y700212D01*
X1105976Y700321D01*
X1106195Y700458D01*
X1106441Y700622D01*
X1106714Y700813D01*
X1107069Y701004D01*
X1107451Y701222D01*
X1107888Y701413D01*
X1108352Y701604D01*
X1108870Y701795D01*
X1109416Y701959D01*
X1110017Y702096D01*
X1110645Y702205D01*
X1111300Y702260D01*
X1111983Y702287D01*
X1112228D01*
X1112419Y702260D01*
D02*
G37*
G36*
X452734Y401295D02*
Y401240D01*
Y401077D01*
Y400831D01*
X452707Y400503D01*
Y400121D01*
X452679Y399657D01*
X452652Y399138D01*
X452597Y398565D01*
X452543Y397992D01*
X452461Y397364D01*
X452270Y396108D01*
X451997Y394880D01*
X451833Y394306D01*
X451642Y393760D01*
Y393733D01*
X451587Y393651D01*
X451533Y393487D01*
X451423Y393296D01*
X451314Y393050D01*
X451150Y392777D01*
X450987Y392477D01*
X450768Y392150D01*
X450522Y391795D01*
X450222Y391440D01*
X449922Y391058D01*
X449567Y390675D01*
X449158Y390293D01*
X448748Y389938D01*
X448284Y389556D01*
X447765Y389228D01*
X447738Y389201D01*
X447629Y389147D01*
X447492Y389065D01*
X447247Y388955D01*
X446974Y388819D01*
X446646Y388683D01*
X446264Y388519D01*
X445800Y388355D01*
X445308Y388191D01*
X444762Y388027D01*
X444134Y387891D01*
X443506Y387754D01*
X442797Y387645D01*
X442060Y387563D01*
X441268Y387509D01*
X440421Y387481D01*
X439985D01*
X439684Y387509D01*
X439302Y387536D01*
X438865Y387563D01*
X438401Y387618D01*
X437855Y387672D01*
X437309Y387754D01*
X436709Y387836D01*
X435507Y388109D01*
X434907Y388300D01*
X434306Y388491D01*
X433733Y388710D01*
X433187Y388983D01*
X433160Y389010D01*
X433078Y389065D01*
X432914Y389147D01*
X432723Y389256D01*
X432505Y389420D01*
X432231Y389611D01*
X431959Y389856D01*
X431658Y390102D01*
X431331Y390402D01*
X431003Y390730D01*
X430648Y391085D01*
X430320Y391494D01*
X430020Y391931D01*
X429720Y392395D01*
X429447Y392887D01*
X429201Y393405D01*
Y393433D01*
X429147Y393542D01*
X429092Y393706D01*
X429010Y393924D01*
X428928Y394224D01*
X428819Y394579D01*
X428710Y394989D01*
X428601Y395480D01*
X428491Y395999D01*
X428382Y396599D01*
X428273Y397255D01*
X428191Y397964D01*
X428109Y398702D01*
X428055Y399521D01*
X428027Y400394D01*
X428000Y401295D01*
Y419477D01*
X432177D01*
Y401322D01*
Y401268D01*
Y401131D01*
Y400940D01*
Y400640D01*
X432204Y400312D01*
Y399930D01*
X432231Y399493D01*
X432259Y399029D01*
X432368Y398046D01*
X432477Y397064D01*
X432586Y396572D01*
X432668Y396108D01*
X432777Y395671D01*
X432914Y395289D01*
Y395262D01*
X432941Y395207D01*
X432996Y395098D01*
X433050Y394962D01*
X433160Y394798D01*
X433242Y394634D01*
X433542Y394197D01*
X433897Y393706D01*
X434334Y393214D01*
X434880Y392723D01*
X435535Y392286D01*
X435562D01*
X435617Y392231D01*
X435726Y392204D01*
X435862Y392122D01*
X436053Y392040D01*
X436272Y391959D01*
X436518Y391877D01*
X436791Y391767D01*
X437118Y391658D01*
X437446Y391576D01*
X437828Y391494D01*
X438238Y391413D01*
X439111Y391303D01*
X440067Y391249D01*
X440258D01*
X440503Y391276D01*
X440804D01*
X441186Y391303D01*
X441623Y391358D01*
X442087Y391413D01*
X442606Y391522D01*
X443124Y391631D01*
X443670Y391767D01*
X444216Y391931D01*
X444762Y392122D01*
X445281Y392368D01*
X445745Y392641D01*
X446209Y392969D01*
X446591Y393324D01*
X446619Y393351D01*
X446673Y393433D01*
X446782Y393542D01*
X446892Y393733D01*
X447055Y393979D01*
X447219Y394306D01*
X447383Y394661D01*
X447574Y395098D01*
X447765Y395617D01*
X447929Y396190D01*
X448093Y396845D01*
X448257Y397582D01*
X448366Y398374D01*
X448475Y399275D01*
X448530Y400258D01*
X448557Y401322D01*
Y419477D01*
X452734D01*
Y401295D01*
D02*
G37*
G36*
X472663Y388000D02*
X468786D01*
Y412597D01*
X468759Y412570D01*
X468732Y412543D01*
X468650Y412461D01*
X468541Y412379D01*
X468377Y412242D01*
X468213Y412106D01*
X468022Y411942D01*
X467803Y411751D01*
X467257Y411369D01*
X466630Y410905D01*
X465920Y410413D01*
X465101Y409922D01*
X465073Y409895D01*
X464991Y409867D01*
X464882Y409785D01*
X464719Y409704D01*
X464527Y409594D01*
X464309Y409485D01*
X464036Y409321D01*
X463763Y409185D01*
X463135Y408857D01*
X462453Y408530D01*
X461743Y408202D01*
X461060Y407929D01*
Y411669D01*
X461088Y411696D01*
X461197Y411751D01*
X461388Y411833D01*
X461606Y411942D01*
X461879Y412079D01*
X462207Y412270D01*
X462562Y412461D01*
X462971Y412707D01*
X463408Y412952D01*
X463845Y413252D01*
X464800Y413880D01*
X465783Y414590D01*
X466711Y415355D01*
X466739Y415382D01*
X466821Y415464D01*
X466930Y415573D01*
X467121Y415737D01*
X467312Y415928D01*
X467530Y416146D01*
X467776Y416419D01*
X468049Y416692D01*
X468622Y417348D01*
X469196Y418057D01*
X469714Y418822D01*
X469960Y419204D01*
X470151Y419586D01*
X472663D01*
Y388000D01*
D02*
G37*
G36*
X760311Y685221D02*
X772104Y668732D01*
X766972D01*
X759000Y679953D01*
X758973Y680007D01*
X758891Y680116D01*
X758754Y680308D01*
X758591Y680553D01*
X758399Y680854D01*
X758181Y681154D01*
X757717Y681864D01*
Y681836D01*
X757662Y681782D01*
X757608Y681727D01*
X757553Y681618D01*
X757362Y681318D01*
X757144Y680990D01*
X756898Y680635D01*
X756652Y680253D01*
X756407Y679925D01*
X756216Y679652D01*
X748244Y668732D01*
X743248D01*
X755396Y685030D01*
X744668Y700209D01*
X749609D01*
X755369Y692128D01*
X755396Y692101D01*
X755451Y692019D01*
X755533Y691883D01*
X755669Y691719D01*
X755806Y691500D01*
X755970Y691282D01*
X756352Y690709D01*
X756789Y690081D01*
X757198Y689453D01*
X757581Y688825D01*
X757908Y688252D01*
Y688279D01*
X757963Y688334D01*
X758017Y688416D01*
X758099Y688552D01*
X758208Y688716D01*
X758318Y688907D01*
X758618Y689344D01*
X758973Y689890D01*
X759410Y690490D01*
X759874Y691146D01*
X760392Y691828D01*
X766699Y700209D01*
X771231D01*
X760311Y685221D01*
D02*
G37*
G36*
X785099Y700291D02*
X785399D01*
X785781Y700236D01*
X786245Y700182D01*
X786737Y700100D01*
X787256Y700018D01*
X787829Y699882D01*
X788402Y699718D01*
X789003Y699499D01*
X789603Y699254D01*
X790204Y698981D01*
X790777Y698626D01*
X791323Y698244D01*
X791842Y697807D01*
X791869Y697779D01*
X791951Y697698D01*
X792088Y697561D01*
X792251Y697370D01*
X792470Y697124D01*
X792688Y696824D01*
X792907Y696469D01*
X793180Y696087D01*
X793425Y695650D01*
X793644Y695186D01*
X793889Y694667D01*
X794081Y694121D01*
X794244Y693548D01*
X794381Y692920D01*
X794463Y692265D01*
X794490Y691582D01*
Y691555D01*
Y691500D01*
Y691391D01*
Y691255D01*
X794463Y691091D01*
Y690873D01*
X794381Y690409D01*
X794299Y689835D01*
X794163Y689207D01*
X793971Y688525D01*
X793698Y687842D01*
Y687815D01*
X793671Y687760D01*
X793616Y687651D01*
X793562Y687542D01*
X793480Y687351D01*
X793371Y687160D01*
X793234Y686941D01*
X793098Y686696D01*
X792743Y686122D01*
X792306Y685467D01*
X791760Y684757D01*
X791132Y684020D01*
X791105Y683993D01*
X791050Y683938D01*
X790941Y683802D01*
X790805Y683638D01*
X790586Y683447D01*
X790341Y683201D01*
X790067Y682901D01*
X789740Y682573D01*
X789330Y682191D01*
X788894Y681782D01*
X788429Y681318D01*
X787884Y680826D01*
X787310Y680308D01*
X786655Y679734D01*
X785972Y679134D01*
X785208Y678478D01*
X785181Y678451D01*
X785044Y678342D01*
X784880Y678205D01*
X784635Y678014D01*
X784362Y677769D01*
X784062Y677496D01*
X783707Y677195D01*
X783352Y676895D01*
X782587Y676240D01*
X781850Y675585D01*
X781523Y675284D01*
X781195Y674984D01*
X780949Y674738D01*
X780731Y674520D01*
X780676Y674465D01*
X780567Y674356D01*
X780376Y674138D01*
X780158Y673865D01*
X779912Y673564D01*
X779639Y673210D01*
X779366Y672827D01*
X779120Y672445D01*
X794545D01*
Y668732D01*
X773742D01*
Y668760D01*
Y668787D01*
Y668869D01*
Y668978D01*
Y669251D01*
X773769Y669579D01*
X773824Y669988D01*
X773906Y670452D01*
X774015Y670916D01*
X774179Y671408D01*
Y671435D01*
X774206Y671517D01*
X774261Y671626D01*
X774343Y671763D01*
X774425Y671954D01*
X774534Y672199D01*
X774643Y672445D01*
X774807Y672718D01*
X775134Y673373D01*
X775598Y674056D01*
X776117Y674820D01*
X776718Y675585D01*
X776745Y675612D01*
X776800Y675667D01*
X776909Y675803D01*
X777045Y675939D01*
X777236Y676131D01*
X777455Y676376D01*
X777701Y676649D01*
X778001Y676950D01*
X778356Y677277D01*
X778711Y677632D01*
X779148Y678042D01*
X779584Y678451D01*
X780076Y678888D01*
X780594Y679352D01*
X781168Y679843D01*
X781768Y680335D01*
X781796D01*
X781823Y680389D01*
X781987Y680526D01*
X782260Y680744D01*
X782587Y681045D01*
X783024Y681399D01*
X783488Y681809D01*
X784007Y682273D01*
X784553Y682764D01*
X785126Y683283D01*
X785727Y683829D01*
X786300Y684375D01*
X786873Y684948D01*
X787392Y685495D01*
X787884Y686040D01*
X788320Y686532D01*
X788702Y687023D01*
X788730Y687051D01*
X788784Y687133D01*
X788866Y687269D01*
X788976Y687433D01*
X789112Y687651D01*
X789276Y687924D01*
X789440Y688197D01*
X789603Y688525D01*
X789931Y689235D01*
X790231Y690026D01*
X790341Y690436D01*
X790422Y690845D01*
X790477Y691255D01*
X790504Y691664D01*
Y691692D01*
Y691774D01*
Y691883D01*
X790477Y692047D01*
X790450Y692238D01*
X790422Y692483D01*
X790368Y692729D01*
X790313Y693002D01*
X790095Y693630D01*
X789986Y693930D01*
X789822Y694258D01*
X789631Y694585D01*
X789412Y694913D01*
X789167Y695241D01*
X788866Y695541D01*
X788839Y695568D01*
X788784Y695623D01*
X788702Y695677D01*
X788566Y695787D01*
X788402Y695896D01*
X788211Y696032D01*
X787993Y696196D01*
X787720Y696333D01*
X787419Y696469D01*
X787092Y696633D01*
X786737Y696769D01*
X786355Y696879D01*
X785972Y696988D01*
X785536Y697070D01*
X785072Y697097D01*
X784580Y697124D01*
X784307D01*
X784116Y697097D01*
X783898Y697070D01*
X783625Y697042D01*
X783297Y696988D01*
X782970Y696906D01*
X782260Y696715D01*
X781905Y696578D01*
X781523Y696414D01*
X781168Y696223D01*
X780813Y695978D01*
X780458Y695732D01*
X780130Y695432D01*
X780103Y695404D01*
X780048Y695350D01*
X779966Y695268D01*
X779885Y695131D01*
X779748Y694940D01*
X779612Y694749D01*
X779448Y694504D01*
X779311Y694231D01*
X779148Y693903D01*
X778984Y693548D01*
X778847Y693166D01*
X778738Y692756D01*
X778629Y692319D01*
X778547Y691828D01*
X778492Y691337D01*
X778465Y690791D01*
X774479Y691200D01*
Y691255D01*
X774506Y691391D01*
X774534Y691637D01*
X774588Y691937D01*
X774643Y692292D01*
X774752Y692729D01*
X774861Y693193D01*
X774998Y693712D01*
X775189Y694258D01*
X775380Y694804D01*
X775626Y695377D01*
X775926Y695923D01*
X776254Y696496D01*
X776609Y697015D01*
X777045Y697506D01*
X777510Y697971D01*
X777537Y697998D01*
X777646Y698080D01*
X777783Y698189D01*
X778001Y698326D01*
X778274Y698517D01*
X778601Y698708D01*
X778984Y698926D01*
X779420Y699144D01*
X779885Y699363D01*
X780431Y699581D01*
X781031Y699772D01*
X781659Y699963D01*
X782342Y700100D01*
X783079Y700209D01*
X783843Y700291D01*
X784662Y700318D01*
X784853D01*
X785099Y700291D01*
D02*
G37*
G36*
X490598Y957227D02*
X466000D01*
X466028Y957199D01*
X466055Y957172D01*
X466137Y957090D01*
X466219Y956981D01*
X466355Y956817D01*
X466492Y956653D01*
X466656Y956462D01*
X466847Y956244D01*
X467229Y955698D01*
X467693Y955070D01*
X468185Y954360D01*
X468676Y953541D01*
X468703Y953514D01*
X468731Y953432D01*
X468812Y953323D01*
X468894Y953159D01*
X469003Y952968D01*
X469113Y952750D01*
X469276Y952476D01*
X469413Y952203D01*
X469741Y951576D01*
X470068Y950893D01*
X470396Y950183D01*
X470669Y949501D01*
X466929D01*
X466901Y949528D01*
X466847Y949637D01*
X466765Y949828D01*
X466656Y950047D01*
X466519Y950320D01*
X466328Y950647D01*
X466137Y951002D01*
X465891Y951412D01*
X465646Y951849D01*
X465345Y952285D01*
X464717Y953241D01*
X464008Y954224D01*
X463243Y955152D01*
X463216Y955179D01*
X463134Y955261D01*
X463025Y955370D01*
X462861Y955561D01*
X462670Y955753D01*
X462452Y955971D01*
X462178Y956217D01*
X461906Y956490D01*
X461250Y957063D01*
X460541Y957636D01*
X459776Y958155D01*
X459394Y958401D01*
X459012Y958592D01*
Y961103D01*
X490598D01*
Y957227D01*
D02*
G37*
G36*
Y939291D02*
X479377Y931319D01*
X479323Y931292D01*
X479214Y931210D01*
X479023Y931073D01*
X478777Y930909D01*
X478477Y930718D01*
X478176Y930500D01*
X477466Y930036D01*
X477494D01*
X477548Y929981D01*
X477603Y929927D01*
X477712Y929872D01*
X478012Y929681D01*
X478340Y929463D01*
X478695Y929217D01*
X479077Y928971D01*
X479405Y928726D01*
X479678Y928534D01*
X490598Y920563D01*
Y915567D01*
X474300Y927715D01*
X459121Y916986D01*
Y921928D01*
X467202Y927688D01*
X467229Y927715D01*
X467311Y927770D01*
X467447Y927852D01*
X467611Y927988D01*
X467830Y928125D01*
X468048Y928289D01*
X468621Y928671D01*
X469249Y929108D01*
X469877Y929517D01*
X470505Y929899D01*
X471078Y930227D01*
X471051D01*
X470996Y930282D01*
X470914Y930336D01*
X470778Y930418D01*
X470614Y930527D01*
X470423Y930636D01*
X469986Y930937D01*
X469440Y931292D01*
X468840Y931729D01*
X468185Y932193D01*
X467502Y932711D01*
X459121Y939018D01*
Y943549D01*
X474109Y932629D01*
X490598Y944423D01*
Y939291D01*
D02*
G37*
G36*
X444288Y148996D02*
X444616D01*
X445025Y148941D01*
X445489Y148886D01*
X446008Y148832D01*
X446581Y148723D01*
X447209Y148586D01*
X447837Y148422D01*
X448492Y148231D01*
X449175Y147986D01*
X449830Y147713D01*
X450512Y147385D01*
X451140Y147030D01*
X451768Y146593D01*
X451796Y146566D01*
X451905Y146484D01*
X452068Y146347D01*
X452287Y146156D01*
X452560Y145911D01*
X452860Y145610D01*
X453188Y145256D01*
X453543Y144846D01*
X453898Y144382D01*
X454280Y143891D01*
X454662Y143317D01*
X455017Y142717D01*
X455372Y142061D01*
X455699Y141379D01*
X456000Y140614D01*
X456273Y139823D01*
X452178Y138867D01*
Y138895D01*
X452123Y139031D01*
X452068Y139195D01*
X451959Y139441D01*
X451850Y139714D01*
X451714Y140041D01*
X451550Y140396D01*
X451359Y140778D01*
X450895Y141597D01*
X450349Y142416D01*
X450048Y142826D01*
X449721Y143208D01*
X449366Y143563D01*
X448984Y143863D01*
X448956Y143891D01*
X448902Y143945D01*
X448765Y144000D01*
X448601Y144109D01*
X448410Y144218D01*
X448165Y144355D01*
X447864Y144518D01*
X447564Y144655D01*
X447182Y144791D01*
X446800Y144955D01*
X446363Y145092D01*
X445899Y145201D01*
X445407Y145310D01*
X444889Y145392D01*
X444315Y145419D01*
X443742Y145447D01*
X443387D01*
X443141Y145419D01*
X442814Y145392D01*
X442459Y145365D01*
X442049Y145310D01*
X441613Y145228D01*
X441149Y145146D01*
X440657Y145010D01*
X440166Y144873D01*
X439647Y144709D01*
X439156Y144518D01*
X438637Y144273D01*
X438146Y144000D01*
X437681Y143699D01*
X437654Y143672D01*
X437572Y143618D01*
X437463Y143508D01*
X437299Y143372D01*
X437081Y143208D01*
X436862Y142990D01*
X436617Y142744D01*
X436344Y142471D01*
X436071Y142143D01*
X435770Y141788D01*
X435497Y141406D01*
X435224Y140997D01*
X434951Y140560D01*
X434706Y140069D01*
X434460Y139577D01*
X434269Y139031D01*
Y139004D01*
X434214Y138895D01*
X434187Y138731D01*
X434105Y138540D01*
X434050Y138267D01*
X433969Y137939D01*
X433859Y137584D01*
X433777Y137175D01*
X433696Y136738D01*
X433586Y136274D01*
X433505Y135782D01*
X433450Y135264D01*
X433341Y134144D01*
X433286Y132998D01*
Y132943D01*
Y132834D01*
Y132616D01*
X433313Y132315D01*
Y131988D01*
X433341Y131578D01*
X433395Y131114D01*
X433423Y130623D01*
X433505Y130077D01*
X433559Y129531D01*
X433777Y128357D01*
X434050Y127156D01*
X434433Y125982D01*
X434460Y125954D01*
X434487Y125845D01*
X434569Y125709D01*
X434651Y125490D01*
X434788Y125245D01*
X434924Y124972D01*
X435115Y124644D01*
X435334Y124316D01*
X435579Y123962D01*
X435825Y123579D01*
X436125Y123224D01*
X436453Y122842D01*
X436808Y122487D01*
X437190Y122160D01*
X437627Y121832D01*
X438064Y121532D01*
X438091Y121504D01*
X438173Y121477D01*
X438309Y121395D01*
X438500Y121313D01*
X438719Y121204D01*
X438992Y121068D01*
X439319Y120931D01*
X439674Y120795D01*
X440057Y120658D01*
X440466Y120522D01*
X440903Y120412D01*
X441367Y120276D01*
X442350Y120112D01*
X442896Y120085D01*
X443414Y120058D01*
X443578D01*
X443742Y120085D01*
X443988D01*
X444288Y120112D01*
X444643Y120167D01*
X445052Y120221D01*
X445462Y120303D01*
X445926Y120412D01*
X446390Y120549D01*
X446882Y120713D01*
X447400Y120904D01*
X447892Y121122D01*
X448383Y121395D01*
X448874Y121696D01*
X449339Y122050D01*
X449366Y122078D01*
X449448Y122132D01*
X449557Y122269D01*
X449721Y122433D01*
X449939Y122651D01*
X450158Y122897D01*
X450403Y123197D01*
X450676Y123552D01*
X450949Y123962D01*
X451222Y124398D01*
X451495Y124890D01*
X451768Y125436D01*
X452014Y126009D01*
X452260Y126637D01*
X452451Y127319D01*
X452642Y128029D01*
X456819Y126992D01*
Y126965D01*
X456791Y126937D01*
Y126855D01*
X456764Y126773D01*
X456682Y126500D01*
X456573Y126145D01*
X456409Y125709D01*
X456218Y125217D01*
X456000Y124671D01*
X455727Y124098D01*
X455426Y123470D01*
X455099Y122815D01*
X454717Y122160D01*
X454280Y121532D01*
X453788Y120877D01*
X453270Y120276D01*
X452724Y119703D01*
X452096Y119157D01*
X452068Y119129D01*
X451932Y119047D01*
X451741Y118911D01*
X451495Y118747D01*
X451168Y118529D01*
X450758Y118310D01*
X450294Y118065D01*
X449775Y117819D01*
X449202Y117573D01*
X448574Y117328D01*
X447892Y117109D01*
X447154Y116891D01*
X446363Y116727D01*
X445544Y116591D01*
X444670Y116509D01*
X443769Y116481D01*
X443551D01*
X443278Y116509D01*
X442923D01*
X442486Y116536D01*
X441995Y116591D01*
X441449Y116645D01*
X440821Y116727D01*
X440193Y116836D01*
X439510Y116973D01*
X438828Y117136D01*
X438146Y117355D01*
X437436Y117573D01*
X436781Y117846D01*
X436125Y118174D01*
X435497Y118529D01*
X435470Y118556D01*
X435361Y118638D01*
X435197Y118747D01*
X434979Y118911D01*
X434706Y119129D01*
X434405Y119402D01*
X434050Y119703D01*
X433696Y120058D01*
X433313Y120467D01*
X432904Y120904D01*
X432494Y121395D01*
X432112Y121941D01*
X431703Y122515D01*
X431320Y123142D01*
X430966Y123825D01*
X430638Y124535D01*
X430611Y124589D01*
X430556Y124726D01*
X430474Y124917D01*
X430392Y125217D01*
X430256Y125572D01*
X430119Y126009D01*
X429983Y126500D01*
X429819Y127074D01*
X429655Y127674D01*
X429519Y128329D01*
X429382Y129012D01*
X429246Y129749D01*
X429164Y130513D01*
X429082Y131305D01*
X429027Y132124D01*
X429000Y132970D01*
Y132998D01*
Y133025D01*
Y133189D01*
Y133462D01*
X429027Y133790D01*
X429055Y134226D01*
X429109Y134718D01*
X429164Y135264D01*
X429246Y135892D01*
X429328Y136547D01*
X429464Y137229D01*
X429601Y137939D01*
X429792Y138649D01*
X430010Y139386D01*
X430256Y140123D01*
X430529Y140833D01*
X430856Y141543D01*
X430884Y141597D01*
X430938Y141707D01*
X431048Y141898D01*
X431211Y142143D01*
X431402Y142444D01*
X431648Y142798D01*
X431921Y143181D01*
X432221Y143618D01*
X432604Y144054D01*
X432986Y144518D01*
X433423Y144982D01*
X433914Y145447D01*
X434433Y145883D01*
X434979Y146320D01*
X435579Y146730D01*
X436207Y147112D01*
X436235Y147139D01*
X436371Y147194D01*
X436562Y147276D01*
X436808Y147412D01*
X437135Y147549D01*
X437518Y147713D01*
X437954Y147904D01*
X438473Y148067D01*
X438992Y148258D01*
X439592Y148422D01*
X440220Y148586D01*
X440875Y148723D01*
X441585Y148859D01*
X442295Y148941D01*
X443060Y148996D01*
X443824Y149023D01*
X444042D01*
X444288Y148996D01*
D02*
G37*
G36*
X474946Y117000D02*
X471069D01*
Y141597D01*
X471042Y141570D01*
X471015Y141543D01*
X470933Y141461D01*
X470824Y141379D01*
X470660Y141242D01*
X470496Y141106D01*
X470305Y140942D01*
X470087Y140751D01*
X469541Y140369D01*
X468913Y139905D01*
X468203Y139413D01*
X467384Y138922D01*
X467356Y138895D01*
X467275Y138867D01*
X467165Y138785D01*
X467002Y138703D01*
X466810Y138594D01*
X466592Y138485D01*
X466319Y138321D01*
X466046Y138185D01*
X465418Y137857D01*
X464736Y137530D01*
X464026Y137202D01*
X463343Y136929D01*
Y140669D01*
X463371Y140696D01*
X463480Y140751D01*
X463671Y140833D01*
X463889Y140942D01*
X464162Y141079D01*
X464490Y141270D01*
X464845Y141461D01*
X465254Y141707D01*
X465691Y141952D01*
X466128Y142252D01*
X467084Y142880D01*
X468066Y143590D01*
X468995Y144355D01*
X469022Y144382D01*
X469104Y144464D01*
X469213Y144573D01*
X469404Y144737D01*
X469595Y144928D01*
X469813Y145146D01*
X470059Y145419D01*
X470332Y145692D01*
X470906Y146347D01*
X471479Y147057D01*
X471998Y147822D01*
X472243Y148204D01*
X472434Y148586D01*
X474946D01*
Y117000D01*
D02*
G37*
%LPC*%
G36*
X594424Y143764D02*
X585388D01*
Y132517D01*
X593905D01*
X594178Y132544D01*
X594506Y132571D01*
X594888Y132598D01*
X595298Y132653D01*
X595762Y132708D01*
X596690Y132871D01*
X597646Y133144D01*
X598110Y133335D01*
X598519Y133527D01*
X598901Y133745D01*
X599256Y134018D01*
X599284Y134045D01*
X599338Y134100D01*
X599420Y134182D01*
X599529Y134291D01*
X599666Y134455D01*
X599802Y134646D01*
X599966Y134864D01*
X600130Y135110D01*
X600266Y135383D01*
X600430Y135711D01*
X600567Y136038D01*
X600703Y136420D01*
X600812Y136830D01*
X600894Y137267D01*
X600949Y137731D01*
X600976Y138222D01*
Y138250D01*
Y138304D01*
Y138413D01*
X600949Y138550D01*
Y138741D01*
X600922Y138932D01*
X600840Y139396D01*
X600731Y139915D01*
X600539Y140488D01*
X600294Y141061D01*
X599966Y141607D01*
Y141635D01*
X599912Y141662D01*
X599775Y141826D01*
X599557Y142071D01*
X599256Y142372D01*
X598874Y142672D01*
X598437Y143000D01*
X597891Y143273D01*
X597318Y143464D01*
X597263Y143491D01*
X597209D01*
X597100Y143518D01*
X596990Y143546D01*
X596854Y143573D01*
X596663Y143600D01*
X596444Y143628D01*
X596199Y143655D01*
X595926Y143682D01*
X595598D01*
X595243Y143709D01*
X594861Y143737D01*
X594424Y143764D01*
D02*
G37*
G36*
X619294Y144419D02*
X619076D01*
X618940Y144392D01*
X618749Y144365D01*
X618530Y144337D01*
X618011Y144256D01*
X617438Y144064D01*
X616810Y143819D01*
X616510Y143655D01*
X616210Y143464D01*
X615909Y143245D01*
X615636Y143000D01*
X615609Y142972D01*
X615582Y142945D01*
X615500Y142863D01*
X615418Y142754D01*
X615309Y142618D01*
X615172Y142454D01*
X614927Y142044D01*
X614654Y141553D01*
X614408Y140980D01*
X614244Y140324D01*
X614217Y139969D01*
X614189Y139614D01*
Y139587D01*
Y139505D01*
Y139396D01*
X614217Y139232D01*
X614244Y139041D01*
X614271Y138823D01*
X614380Y138331D01*
X614544Y137731D01*
X614790Y137130D01*
X614954Y136830D01*
X615145Y136530D01*
X615363Y136229D01*
X615609Y135956D01*
X615636Y135929D01*
X615664Y135902D01*
X615745Y135820D01*
X615855Y135738D01*
X616019Y135629D01*
X616182Y135519D01*
X616373Y135383D01*
X616619Y135274D01*
X617138Y135001D01*
X617793Y134782D01*
X618530Y134619D01*
X618912Y134591D01*
X619349Y134564D01*
X619567D01*
X619731Y134591D01*
X619922Y134619D01*
X620141Y134646D01*
X620659Y134728D01*
X621233Y134892D01*
X621833Y135165D01*
X622134Y135301D01*
X622434Y135492D01*
X622734Y135711D01*
X623007Y135956D01*
X623035Y135984D01*
X623062Y136011D01*
X623144Y136093D01*
X623226Y136202D01*
X623335Y136339D01*
X623444Y136502D01*
X623717Y136912D01*
X623990Y137403D01*
X624208Y138004D01*
X624372Y138659D01*
X624400Y139014D01*
X624427Y139396D01*
Y139423D01*
Y139478D01*
Y139614D01*
X624400Y139751D01*
X624372Y139942D01*
X624345Y140161D01*
X624236Y140652D01*
X624072Y141198D01*
X623799Y141798D01*
X623635Y142099D01*
X623444Y142399D01*
X623226Y142699D01*
X622953Y142972D01*
X622925Y143000D01*
X622898Y143027D01*
X622816Y143109D01*
X622680Y143191D01*
X622543Y143300D01*
X622379Y143436D01*
X622188Y143573D01*
X621943Y143709D01*
X621424Y143955D01*
X620796Y144201D01*
X620086Y144365D01*
X619704Y144392D01*
X619294Y144419D01*
D02*
G37*
G36*
X619213Y131397D02*
X618940D01*
X618749Y131370D01*
X618530Y131343D01*
X618257Y131288D01*
X617957Y131233D01*
X617629Y131179D01*
X616919Y130960D01*
X616537Y130797D01*
X616155Y130633D01*
X615773Y130414D01*
X615418Y130169D01*
X615063Y129896D01*
X614708Y129568D01*
X614681Y129541D01*
X614626Y129486D01*
X614544Y129377D01*
X614435Y129240D01*
X614299Y129077D01*
X614135Y128858D01*
X613998Y128613D01*
X613835Y128340D01*
X613643Y128012D01*
X613507Y127684D01*
X613343Y127302D01*
X613207Y126920D01*
X613097Y126483D01*
X613015Y126046D01*
X612961Y125555D01*
X612934Y125064D01*
Y125036D01*
Y124982D01*
Y124900D01*
Y124791D01*
X612961Y124627D01*
X612988Y124463D01*
X613043Y124053D01*
X613125Y123562D01*
X613261Y123016D01*
X613452Y122443D01*
X613698Y121870D01*
Y121842D01*
X613725Y121815D01*
X613780Y121733D01*
X613835Y121624D01*
X614026Y121351D01*
X614271Y120996D01*
X614599Y120614D01*
X615008Y120231D01*
X615472Y119849D01*
X616019Y119494D01*
X616046D01*
X616100Y119467D01*
X616182Y119412D01*
X616292Y119358D01*
X616428Y119303D01*
X616592Y119221D01*
X617029Y119085D01*
X617520Y118921D01*
X618093Y118785D01*
X618694Y118675D01*
X619349Y118648D01*
X619622D01*
X619813Y118675D01*
X620032Y118703D01*
X620305Y118730D01*
X620632Y118785D01*
X620960Y118867D01*
X621670Y119085D01*
X622052Y119221D01*
X622434Y119385D01*
X622816Y119604D01*
X623198Y119849D01*
X623553Y120122D01*
X623908Y120423D01*
X623936Y120450D01*
X623990Y120504D01*
X624072Y120614D01*
X624181Y120750D01*
X624318Y120914D01*
X624481Y121132D01*
X624645Y121378D01*
X624809Y121651D01*
X624973Y121979D01*
X625137Y122306D01*
X625301Y122689D01*
X625437Y123071D01*
X625546Y123507D01*
X625628Y123972D01*
X625683Y124463D01*
X625710Y124954D01*
Y124982D01*
Y125091D01*
Y125227D01*
X625683Y125418D01*
X625655Y125664D01*
X625601Y125937D01*
X625546Y126237D01*
X625492Y126565D01*
X625246Y127302D01*
X625109Y127684D01*
X624918Y128067D01*
X624727Y128476D01*
X624454Y128858D01*
X624181Y129213D01*
X623854Y129568D01*
X623826Y129595D01*
X623772Y129650D01*
X623663Y129732D01*
X623526Y129868D01*
X623335Y130005D01*
X623116Y130141D01*
X622871Y130305D01*
X622571Y130496D01*
X622270Y130660D01*
X621915Y130824D01*
X621533Y130960D01*
X621124Y131124D01*
X620687Y131233D01*
X620223Y131315D01*
X619731Y131370D01*
X619213Y131397D01*
D02*
G37*
G36*
X374424Y253764D02*
X365388D01*
Y242517D01*
X373906D01*
X374178Y242544D01*
X374506Y242571D01*
X374888Y242598D01*
X375298Y242653D01*
X375762Y242708D01*
X376690Y242871D01*
X377646Y243144D01*
X378110Y243335D01*
X378519Y243527D01*
X378901Y243745D01*
X379256Y244018D01*
X379284Y244045D01*
X379338Y244100D01*
X379420Y244182D01*
X379529Y244291D01*
X379666Y244455D01*
X379802Y244646D01*
X379966Y244864D01*
X380130Y245110D01*
X380266Y245383D01*
X380430Y245711D01*
X380567Y246038D01*
X380703Y246420D01*
X380812Y246830D01*
X380894Y247267D01*
X380949Y247731D01*
X380976Y248222D01*
Y248250D01*
Y248304D01*
Y248413D01*
X380949Y248550D01*
Y248741D01*
X380922Y248932D01*
X380840Y249396D01*
X380731Y249915D01*
X380539Y250488D01*
X380294Y251061D01*
X379966Y251607D01*
Y251635D01*
X379911Y251662D01*
X379775Y251826D01*
X379557Y252071D01*
X379256Y252372D01*
X378874Y252672D01*
X378437Y253000D01*
X377891Y253273D01*
X377318Y253464D01*
X377263Y253491D01*
X377209D01*
X377100Y253518D01*
X376990Y253546D01*
X376854Y253573D01*
X376663Y253600D01*
X376444Y253628D01*
X376199Y253655D01*
X375926Y253682D01*
X375598D01*
X375243Y253709D01*
X374861Y253737D01*
X374424Y253764D01*
D02*
G37*
G36*
X423673Y254392D02*
X423564D01*
X423428Y254365D01*
X423237D01*
X423018Y254310D01*
X422745Y254283D01*
X422472Y254201D01*
X422145Y254119D01*
X421817Y253982D01*
X421462Y253846D01*
X421107Y253655D01*
X420752Y253436D01*
X420397Y253191D01*
X420070Y252863D01*
X419742Y252536D01*
X419415Y252126D01*
X419387Y252099D01*
X419333Y251990D01*
X419224Y251798D01*
X419114Y251553D01*
X418950Y251225D01*
X418787Y250816D01*
X418623Y250324D01*
X418432Y249724D01*
X418241Y249041D01*
X418077Y248277D01*
X417913Y247403D01*
X417749Y246448D01*
X417640Y245356D01*
X417531Y244182D01*
X417504Y243554D01*
X417476Y242899D01*
X417449Y242216D01*
Y241506D01*
Y241479D01*
Y241424D01*
Y241315D01*
Y241179D01*
Y240988D01*
Y240769D01*
X417476Y240524D01*
Y240251D01*
X417504Y239623D01*
X417558Y238913D01*
X417613Y238149D01*
X417667Y237302D01*
X417777Y236456D01*
X417886Y235582D01*
X418022Y234709D01*
X418213Y233890D01*
X418404Y233098D01*
X418650Y232361D01*
X418923Y231733D01*
X419087Y231433D01*
X419251Y231187D01*
X419278Y231160D01*
X419333Y231078D01*
X419442Y230941D01*
X419578Y230805D01*
X419742Y230586D01*
X419961Y230395D01*
X420206Y230150D01*
X420479Y229931D01*
X420807Y229685D01*
X421135Y229440D01*
X421517Y229249D01*
X421899Y229058D01*
X422336Y228894D01*
X422772Y228757D01*
X423237Y228675D01*
X423728Y228648D01*
X423837D01*
X423974Y228675D01*
X424165Y228703D01*
X424411Y228730D01*
X424656Y228785D01*
X424957Y228867D01*
X425284Y228976D01*
X425612Y229112D01*
X425967Y229276D01*
X426349Y229494D01*
X426731Y229740D01*
X427086Y230013D01*
X427468Y230368D01*
X427823Y230750D01*
X428178Y231214D01*
X428205Y231242D01*
X428260Y231351D01*
X428342Y231515D01*
X428478Y231733D01*
X428615Y232033D01*
X428751Y232443D01*
X428915Y232907D01*
X429106Y233453D01*
X429270Y234108D01*
X429434Y234845D01*
X429570Y235691D01*
X429734Y236647D01*
X429789Y237138D01*
X429843Y237684D01*
X429898Y238258D01*
X429925Y238858D01*
X429952Y239459D01*
X429980Y240114D01*
X430007Y240797D01*
Y241506D01*
Y241534D01*
Y241588D01*
Y241697D01*
Y241834D01*
Y242025D01*
Y242244D01*
X429980Y242489D01*
Y242762D01*
X429952Y243390D01*
X429898Y244100D01*
X429843Y244864D01*
X429789Y245711D01*
X429679Y246557D01*
X429570Y247430D01*
X429406Y248304D01*
X429243Y249123D01*
X429024Y249915D01*
X428779Y250652D01*
X428505Y251280D01*
X428342Y251580D01*
X428178Y251826D01*
X428151Y251853D01*
X428096Y251935D01*
X427987Y252071D01*
X427850Y252235D01*
X427687Y252426D01*
X427468Y252645D01*
X427222Y252863D01*
X426949Y253109D01*
X426622Y253355D01*
X426294Y253573D01*
X425912Y253791D01*
X425530Y253982D01*
X425093Y254146D01*
X424656Y254283D01*
X424165Y254365D01*
X423673Y254392D01*
D02*
G37*
G36*
X585376Y530392D02*
X585131D01*
X584940Y530365D01*
X584721Y530337D01*
X584448Y530283D01*
X584175Y530228D01*
X583848Y530119D01*
X583493Y530010D01*
X583138Y529873D01*
X582756Y529710D01*
X582373Y529518D01*
X581991Y529273D01*
X581609Y528972D01*
X581227Y528672D01*
X580872Y528290D01*
X580845Y528263D01*
X580790Y528181D01*
X580708Y528072D01*
X580572Y527908D01*
X580435Y527689D01*
X580271Y527444D01*
X580107Y527143D01*
X579944Y526816D01*
X579753Y526433D01*
X579589Y526024D01*
X579425Y525587D01*
X579288Y525096D01*
X579152Y524577D01*
X579070Y524031D01*
X579015Y523458D01*
X578988Y522830D01*
Y522803D01*
Y522693D01*
Y522530D01*
X579015Y522338D01*
X579043Y522066D01*
X579097Y521793D01*
X579152Y521465D01*
X579207Y521083D01*
X579425Y520318D01*
X579562Y519909D01*
X579753Y519499D01*
X579944Y519090D01*
X580189Y518708D01*
X580462Y518298D01*
X580790Y517943D01*
X580817Y517916D01*
X580872Y517861D01*
X580981Y517779D01*
X581118Y517643D01*
X581281Y517506D01*
X581500Y517370D01*
X581745Y517179D01*
X582019Y517015D01*
X582346Y516851D01*
X582674Y516687D01*
X583056Y516524D01*
X583438Y516387D01*
X583875Y516251D01*
X584312Y516169D01*
X584776Y516114D01*
X585267Y516087D01*
X585513D01*
X585704Y516114D01*
X585950Y516141D01*
X586195Y516196D01*
X586496Y516251D01*
X586823Y516332D01*
X587506Y516551D01*
X587888Y516687D01*
X588243Y516879D01*
X588625Y517097D01*
X588980Y517343D01*
X589335Y517616D01*
X589663Y517943D01*
X589690Y517971D01*
X589744Y518025D01*
X589826Y518134D01*
X589936Y518298D01*
X590072Y518489D01*
X590208Y518708D01*
X590372Y518981D01*
X590536Y519308D01*
X590700Y519663D01*
X590864Y520045D01*
X591000Y520482D01*
X591137Y520946D01*
X591246Y521438D01*
X591328Y521984D01*
X591382Y522557D01*
X591410Y523158D01*
Y523185D01*
Y523294D01*
Y523485D01*
X591382Y523703D01*
X591355Y523976D01*
X591328Y524304D01*
X591273Y524686D01*
X591191Y525068D01*
X590973Y525915D01*
X590836Y526352D01*
X590673Y526788D01*
X590454Y527225D01*
X590208Y527635D01*
X589936Y528044D01*
X589635Y528426D01*
X589608Y528454D01*
X589553Y528508D01*
X589444Y528617D01*
X589308Y528727D01*
X589144Y528890D01*
X588953Y529054D01*
X588707Y529218D01*
X588434Y529409D01*
X588134Y529600D01*
X587806Y529764D01*
X587096Y530092D01*
X586687Y530201D01*
X586277Y530310D01*
X585841Y530365D01*
X585376Y530392D01*
D02*
G37*
G36*
X560424Y529764D02*
X551388D01*
Y518516D01*
X559905D01*
X560178Y518544D01*
X560506Y518571D01*
X560888Y518598D01*
X561298Y518653D01*
X561762Y518708D01*
X562690Y518871D01*
X563646Y519144D01*
X564110Y519336D01*
X564519Y519527D01*
X564901Y519745D01*
X565256Y520018D01*
X565284Y520045D01*
X565338Y520100D01*
X565420Y520182D01*
X565529Y520291D01*
X565666Y520455D01*
X565802Y520646D01*
X565966Y520864D01*
X566130Y521110D01*
X566266Y521383D01*
X566430Y521711D01*
X566567Y522038D01*
X566703Y522420D01*
X566812Y522830D01*
X566894Y523267D01*
X566949Y523731D01*
X566976Y524222D01*
Y524250D01*
Y524304D01*
Y524413D01*
X566949Y524550D01*
Y524741D01*
X566922Y524932D01*
X566840Y525396D01*
X566731Y525915D01*
X566539Y526488D01*
X566294Y527061D01*
X565966Y527607D01*
Y527635D01*
X565912Y527662D01*
X565775Y527826D01*
X565557Y528072D01*
X565256Y528372D01*
X564874Y528672D01*
X564437Y529000D01*
X563891Y529273D01*
X563318Y529464D01*
X563263Y529491D01*
X563209D01*
X563100Y529518D01*
X562990Y529546D01*
X562854Y529573D01*
X562663Y529600D01*
X562444Y529628D01*
X562199Y529655D01*
X561926Y529682D01*
X561598D01*
X561243Y529710D01*
X560861Y529737D01*
X560424Y529764D01*
D02*
G37*
G36*
X153919Y871924D02*
X153482D01*
X153044D01*
X152170Y871487D01*
X151732D01*
X150857Y871049D01*
X149108Y870612D01*
X146921Y870175D01*
X146483D01*
X144734Y869737D01*
X142547Y869300D01*
X140360D01*
X139922D01*
X138173Y868862D01*
X135986Y867988D01*
X133361Y867550D01*
X130737Y866675D01*
X128550Y865801D01*
X126800Y865363D01*
X126363D01*
X127238Y864926D01*
X128113Y864488D01*
X129425Y863614D01*
X131174Y862739D01*
X133361Y861427D01*
X133799D01*
X134674Y860989D01*
X135986Y860114D01*
X137735Y859240D01*
X142547Y856615D01*
X147796Y853991D01*
X148233D01*
X149108Y853553D01*
X151295Y852241D01*
X153919Y850929D01*
X154794Y850492D01*
X155231D01*
Y861427D01*
X153919Y871924D01*
D02*
G37*
G36*
X126363Y780945D02*
X123301Y780508D01*
X121989Y780070D01*
X121552Y779633D01*
Y759950D01*
X130300Y759075D01*
X130737D01*
X132049D01*
X133361Y758638D01*
X135548D01*
X137298Y758200D01*
X139048D01*
X140360Y757763D01*
X140797D01*
Y759075D01*
X141235Y759950D01*
Y771760D01*
X140797Y775259D01*
Y776571D01*
X140360Y777446D01*
X139922Y777883D01*
X138610Y778321D01*
X137298Y778758D01*
X135548Y779195D01*
X133361Y780070D01*
X130300Y780508D01*
X129862D01*
X128987D01*
X126363Y780945D01*
D02*
G37*
G36*
X216030Y1215721D02*
X214280D01*
X212968D01*
X212531D01*
X212093Y1215283D01*
X211219Y1214846D01*
X210344Y1213096D01*
Y1212659D01*
X209906Y1211347D01*
Y1209597D01*
X210344Y1207847D01*
Y1207410D01*
X211219Y1205660D01*
X212531Y1203911D01*
X215155Y1202599D01*
X215593D01*
X216905D01*
X217780D01*
X219967Y1202161D01*
X222154D01*
X225215Y1201724D01*
X225653D01*
X226528D01*
X229589Y1201286D01*
X233089Y1200849D01*
X233963D01*
X234838D01*
X235713Y1201286D01*
X237025Y1202161D01*
X238337Y1204348D01*
X238775Y1205660D01*
Y1208285D01*
X238337Y1209160D01*
X237900Y1210034D01*
X237025Y1211347D01*
X236588Y1211784D01*
X234838Y1212659D01*
X233526Y1213096D01*
X231339Y1213534D01*
X229152Y1213971D01*
X226090Y1214408D01*
X225653D01*
X224341Y1214846D01*
X222591Y1215283D01*
X220404D01*
X216030Y1215721D01*
D02*
G37*
G36*
X219092Y1180291D02*
X218654D01*
X217342D01*
X215593D01*
X214280D01*
X213843D01*
X212531Y1179854D01*
X210781Y1178542D01*
X209032Y1176355D01*
Y1167169D01*
X223028Y1166294D01*
X223466D01*
X225215Y1165857D01*
X227402D01*
X230027Y1165420D01*
X232651Y1164982D01*
X234838D01*
X237025Y1164545D01*
X237900D01*
X238775D01*
Y1168481D01*
X237900D01*
X236150Y1168919D01*
X234838D01*
X232651Y1169356D01*
X227840D01*
Y1171981D01*
X227402Y1173293D01*
X226965Y1175042D01*
X225653Y1176792D01*
X225215Y1177229D01*
X223903Y1178104D01*
X221716Y1179416D01*
X219092Y1180291D01*
D02*
G37*
G36*
X215155Y1143550D02*
X214718D01*
X213843D01*
X211219Y1142675D01*
X210781Y1142237D01*
X209906Y1140488D01*
X209469Y1140050D01*
X209032Y1137863D01*
Y1137426D01*
X209469Y1136114D01*
X209906Y1134364D01*
X211219Y1133052D01*
X212093Y1132177D01*
X214280Y1130865D01*
X216030Y1130428D01*
X217780Y1129990D01*
X219967D01*
X222154Y1130865D01*
X223028Y1131740D01*
X224341Y1133052D01*
X226090Y1134802D01*
X226528Y1135239D01*
X227840Y1136551D01*
X229152Y1137426D01*
X230902Y1137863D01*
X231339D01*
X232651Y1137426D01*
X234401Y1136551D01*
X234838Y1134802D01*
X235276Y1134364D01*
Y1133489D01*
X234838Y1132615D01*
X233963Y1132177D01*
X233089Y1131740D01*
X231776D01*
X230902D01*
Y1127803D01*
X231339D01*
X231776D01*
X233089Y1128241D01*
X233526D01*
X233963Y1128678D01*
X235713Y1129115D01*
X236150D01*
X237025Y1129990D01*
X238775Y1131740D01*
X239212Y1133489D01*
Y1135239D01*
X238337Y1137426D01*
X236588Y1139613D01*
X236150Y1140050D01*
X234838Y1140925D01*
X232651Y1141800D01*
X230027D01*
X229589D01*
X227840Y1141363D01*
X225653Y1140488D01*
X223028Y1138301D01*
X222154Y1137863D01*
X220841Y1136551D01*
X218654Y1135239D01*
X216905Y1134802D01*
X216467D01*
X214718Y1135239D01*
X213406Y1135676D01*
X212968Y1136989D01*
Y1138301D01*
X213843Y1139176D01*
X214718Y1139613D01*
X216030D01*
Y1142675D01*
X215593Y1143112D01*
X215155Y1143550D01*
D02*
G37*
G36*
X209032Y1108120D02*
Y1103309D01*
X209469D01*
X210344D01*
X211219D01*
X213406D01*
X216030Y1102871D01*
X219529D01*
X223903Y1102434D01*
X224341D01*
X226090Y1101997D01*
X228277Y1101559D01*
X230902D01*
X233526Y1101122D01*
X235713Y1100684D01*
X237463Y1100247D01*
X238337D01*
Y1100684D01*
X238775Y1101122D01*
Y1104184D01*
X238337D01*
X237463D01*
X235713Y1104621D01*
X235276D01*
X233526Y1105058D01*
X231339Y1105496D01*
X228277Y1105933D01*
X227402D01*
X225653Y1106371D01*
X223028D01*
X219967Y1106808D01*
X219092D01*
X217780Y1107245D01*
X215593D01*
X213406D01*
X212968D01*
X211656D01*
X210781D01*
X210344D01*
X209032Y1108120D01*
D02*
G37*
G36*
X217342Y1079689D02*
X215155D01*
X213406Y1079252D01*
X211219Y1077940D01*
Y1077502D01*
X210781Y1077065D01*
X210344Y1075753D01*
X209032Y1074878D01*
Y1068317D01*
X209469Y1066567D01*
X209906Y1066130D01*
X210344D01*
X210781D01*
X211656Y1065692D01*
X213406D01*
X216030Y1065255D01*
X219529Y1064818D01*
X223903Y1063943D01*
X224341D01*
X226090D01*
X228277Y1063505D01*
X230902D01*
X233526D01*
X235713Y1063068D01*
X237463D01*
X238337D01*
Y1063505D01*
X238775Y1064818D01*
Y1069629D01*
X238337Y1071379D01*
X237900Y1072691D01*
Y1073128D01*
X237463Y1074003D01*
X236588Y1075315D01*
X235276Y1076190D01*
X234838Y1076627D01*
X233526Y1077065D01*
X231339Y1077940D01*
X228715Y1078814D01*
X228277D01*
X227840D01*
X226090Y1077940D01*
X225653D01*
X224778Y1077065D01*
X224341Y1076627D01*
X223903Y1075753D01*
X223028D01*
Y1076190D01*
X222154Y1077940D01*
X221716D01*
X221279Y1078377D01*
X218654Y1079252D01*
X217342Y1079689D01*
D02*
G37*
G36*
X216030Y1042510D02*
X214718D01*
X214280D01*
X213843D01*
X212531Y1042073D01*
X210781Y1040761D01*
X209032Y1038574D01*
Y1035512D01*
X209469Y1033762D01*
X211219Y1031575D01*
X212531Y1030263D01*
X214280Y1029388D01*
X214718D01*
X215593Y1028951D01*
X216905Y1028513D01*
X218654D01*
X220841Y1028076D01*
X223903Y1027639D01*
X224341D01*
X225215D01*
X226528Y1027201D01*
X228277D01*
X231776Y1026764D01*
X233089D01*
X233963D01*
X234401D01*
X235713Y1027639D01*
X237025Y1028951D01*
X238775Y1030700D01*
Y1031138D01*
X239212Y1031575D01*
Y1034200D01*
X238775Y1035949D01*
X237900Y1037699D01*
X236588Y1039011D01*
X233963Y1040323D01*
X233526D01*
X232214D01*
X230902Y1040761D01*
X229152D01*
X226965D01*
X223903Y1041198D01*
X223466D01*
X222591Y1041635D01*
X219529Y1042073D01*
X216030Y1042510D01*
D02*
G37*
G36*
X215155Y985211D02*
X214718D01*
X213843D01*
X212531Y984336D01*
X211219Y983461D01*
X210781Y982586D01*
X209906Y981274D01*
X209469Y980399D01*
X209032Y979525D01*
Y977775D01*
X209469Y976463D01*
X209906Y975151D01*
X211219Y973401D01*
X212093Y972526D01*
X214280Y971651D01*
X216030Y971214D01*
X217780D01*
X219967Y971651D01*
X222154Y972526D01*
X223028Y973401D01*
X224341Y974276D01*
X226090Y975588D01*
X226528Y976025D01*
X227840Y976900D01*
X229152Y977775D01*
X230902Y978212D01*
X231339D01*
X232651D01*
X234401Y977338D01*
X234838Y976463D01*
Y976025D01*
X235276Y975151D01*
Y974276D01*
X234838Y973838D01*
X233963Y973401D01*
X233089Y972964D01*
X231776Y972526D01*
X230902D01*
Y968590D01*
X231339D01*
X231776D01*
X233089Y969027D01*
X233526D01*
X233963Y969464D01*
X235713D01*
X236150Y969902D01*
X237025Y970339D01*
X238775Y972526D01*
X239212Y974276D01*
Y976025D01*
X238337Y978212D01*
X236588Y980399D01*
X236150Y980837D01*
X234838Y982149D01*
X232651Y983024D01*
X230027Y983461D01*
X229589Y983024D01*
X227840Y982586D01*
X225653Y980837D01*
X223028Y978650D01*
X222154Y978212D01*
X220841Y977338D01*
X218654Y976025D01*
X216905Y975588D01*
X216467D01*
X214718Y976025D01*
X213406Y976463D01*
X212968Y977338D01*
Y979087D01*
X213843Y979962D01*
X214718Y980399D01*
X216030D01*
Y983899D01*
X215593Y984773D01*
X215155Y985211D01*
D02*
G37*
G36*
X211656Y948907D02*
X210781D01*
X210344D01*
X209032D01*
Y944970D01*
X209469D01*
X210344D01*
X211219Y944533D01*
X213406D01*
X216030Y944095D01*
X219529Y943658D01*
X223903Y942783D01*
X224341D01*
X226090Y942346D01*
X228277D01*
X230902Y941908D01*
X233526Y941471D01*
X235713D01*
X237463Y941033D01*
X238337D01*
Y941471D01*
X238775Y941908D01*
Y944970D01*
X238337D01*
X237463D01*
X235713Y945407D01*
X235276D01*
X233526Y945845D01*
X231339D01*
X228277Y946282D01*
X227402D01*
X225653Y946720D01*
X223028D01*
X219967Y947157D01*
X219092D01*
X217780Y947594D01*
X215593Y948032D01*
X213406Y948469D01*
X212968D01*
X211656Y948907D01*
D02*
G37*
G36*
X212093Y921350D02*
X210781D01*
X210344D01*
X209032D01*
Y918289D01*
X209469Y917851D01*
X209906Y917414D01*
X210344D01*
X210781D01*
X211656D01*
X212968Y916976D01*
X215155Y916539D01*
X217780Y916102D01*
X221716Y915664D01*
X222154D01*
X223466D01*
X225215Y915227D01*
X226965D01*
X229152Y914789D01*
X230902D01*
X232214Y914352D01*
X232651D01*
X233089D01*
X233526Y913477D01*
X234401Y912602D01*
X234838Y911290D01*
Y910853D01*
X233963Y909978D01*
X233526D01*
X233089D01*
X232214Y909541D01*
X231776D01*
X231339D01*
X230464D01*
X229152Y909978D01*
X227402D01*
X224341D01*
X220841Y910415D01*
X220404D01*
X219092D01*
X217342Y910853D01*
X215593D01*
X213406D01*
X211656Y911290D01*
X210344D01*
X209906D01*
X209469Y910853D01*
X209032Y910415D01*
Y907354D01*
X209469D01*
X210781Y906916D01*
X212531D01*
X215593Y906479D01*
X218654Y906041D01*
X223028D01*
X227402Y905604D01*
X232651D01*
X233526D01*
X235276Y906041D01*
X237463Y907354D01*
X238775Y909541D01*
Y912165D01*
X237900Y914352D01*
X237463Y914789D01*
X237025Y916102D01*
X235713Y917414D01*
X233963Y918289D01*
X233526D01*
X233089D01*
X231776Y918726D01*
X230464D01*
X228277Y919163D01*
X225653Y919601D01*
X222154Y920476D01*
X221716D01*
X220404D01*
X218217Y920913D01*
X216030D01*
X214280D01*
X212093Y921350D01*
D02*
G37*
G36*
X235713Y882859D02*
X235276D01*
X234838D01*
X233963D01*
Y874986D01*
X233526D01*
X233089D01*
X231776Y875423D01*
X230464D01*
X228277Y875861D01*
X225653Y876298D01*
X222154Y877173D01*
X221716D01*
X220404D01*
X218654Y877610D01*
X216905D01*
X212968Y878048D01*
X211219D01*
X210344D01*
X209032D01*
Y874111D01*
X209469D01*
X210344D01*
X211656Y873674D01*
X213406D01*
X216030Y873236D01*
X219092Y872799D01*
X223028Y871924D01*
X223466D01*
X225215D01*
X226965Y871487D01*
X229589D01*
X232214D01*
X234838Y871049D01*
X236588D01*
X237900D01*
X238775Y870175D01*
Y881984D01*
X236588D01*
Y882422D01*
X235713Y882859D01*
D02*
G37*
G36*
X212968Y829934D02*
X211219D01*
X210344D01*
X209032D01*
Y825997D01*
X209469D01*
X210781Y825560D01*
X212968Y825122D01*
X216030D01*
X222154Y824248D01*
X228715Y823810D01*
X228277Y823373D01*
X227402D01*
X226528Y822935D01*
X224778D01*
X222154Y822498D01*
X219092Y822061D01*
X209032Y819874D01*
Y816812D01*
X209469Y815500D01*
X209906Y815062D01*
X210344D01*
X210781D01*
X211656Y814625D01*
X213406D01*
X215593Y814187D01*
X218654Y813750D01*
X223028Y812875D01*
X223466D01*
X225215D01*
X226965Y812438D01*
X229589D01*
X232214D01*
X234838Y812000D01*
X236588D01*
X237900D01*
X238775D01*
Y815062D01*
X238337Y815500D01*
X237900Y815937D01*
X237463D01*
X236150D01*
X235276Y816374D01*
X233526D01*
X231339D01*
X228715Y816812D01*
X228277D01*
X227402Y817249D01*
X224341Y817687D01*
X221279Y818124D01*
X220404D01*
X219967D01*
X220841Y818561D01*
X222154D01*
X223466Y818999D01*
X225653Y819436D01*
X228715Y819874D01*
X238775Y822061D01*
Y826435D01*
X238337Y826872D01*
X237900D01*
X237463D01*
X236150Y827309D01*
X234401D01*
X232214Y827747D01*
X228715Y828184D01*
X223903Y828622D01*
X223466D01*
X221716Y829059D01*
X219967D01*
X217342Y829496D01*
X215155D01*
X212968Y829934D01*
D02*
G37*
G36*
X237900Y788381D02*
X237025D01*
X236150D01*
X234838D01*
X232651D01*
X229589Y787943D01*
X225215D01*
X224778D01*
X223028D01*
X220841D01*
X218217D01*
X215593Y787506D01*
X213406D01*
X211656D01*
X210344D01*
X209032D01*
Y781382D01*
X209469D01*
X210344D01*
X212093Y780945D01*
X214718Y780508D01*
X218217Y779633D01*
X223466Y777883D01*
X230027Y776134D01*
X237900Y773509D01*
X238337Y773947D01*
X238775Y774384D01*
Y777446D01*
X237900D01*
X237463D01*
X237025D01*
X235713Y777883D01*
X233963Y778758D01*
X231776Y779633D01*
Y784444D01*
X232651D01*
X233089D01*
X233963D01*
X236588D01*
X238775D01*
Y787506D01*
X238337Y787943D01*
X237900Y788381D01*
D02*
G37*
G36*
X216030Y753826D02*
X215155D01*
X214718D01*
X212968D01*
X211656Y752951D01*
X210344Y752077D01*
X209906Y751639D01*
X209469Y750764D01*
X209032Y749452D01*
Y746828D01*
X209469Y745953D01*
X210344Y745078D01*
X210781Y744203D01*
X212093Y742891D01*
X214280Y741142D01*
X216030Y740704D01*
X218217Y740267D01*
X218654D01*
X219967Y740704D01*
X222591Y742454D01*
X224341Y743329D01*
X226090Y745078D01*
X226528Y745516D01*
X226965Y746390D01*
X227840Y747265D01*
X228715Y748140D01*
X229152D01*
X230027Y748577D01*
X231339D01*
X232651Y748140D01*
X233089D01*
X233526Y747265D01*
X234401Y746390D01*
X234838Y745078D01*
Y744641D01*
X234401Y743766D01*
X233526Y742454D01*
X231776Y742016D01*
X231339Y741579D01*
X230902Y741142D01*
Y738080D01*
X232651D01*
X233089D01*
X234838Y738517D01*
X237025Y739829D01*
X238775Y742016D01*
Y745953D01*
X237900Y748140D01*
X236150Y750764D01*
X234838Y751639D01*
X232651Y752077D01*
X232214D01*
X231776D01*
X229589D01*
X226528Y750764D01*
X224778Y749890D01*
X223028Y748140D01*
X222591Y747703D01*
X221279Y746828D01*
X219529Y745516D01*
X218217Y745078D01*
X217780D01*
X217342D01*
X215593D01*
X213843Y745953D01*
X212968Y746828D01*
Y748577D01*
X213406Y749015D01*
X213843Y749452D01*
X215155Y749890D01*
X216030D01*
Y753826D01*
D02*
G37*
%LPD*%
G36*
X218654Y1211347D02*
X219967D01*
X222154Y1210909D01*
X224778Y1210472D01*
X225215D01*
X226090D01*
X227840Y1210034D01*
X229589D01*
X232651Y1209160D01*
X233963Y1208285D01*
X234401Y1207847D01*
Y1206098D01*
X233963Y1204786D01*
X233526D01*
X232651D01*
X232214D01*
X230464D01*
X228277D01*
X225215Y1205223D01*
X219529Y1205660D01*
X216905Y1206098D01*
X215155Y1206535D01*
Y1206973D01*
X214718Y1207410D01*
X213843Y1208285D01*
X213406Y1208722D01*
X212968Y1209597D01*
Y1210034D01*
X213406Y1210909D01*
X214280Y1211347D01*
X216030Y1211784D01*
X216467D01*
X217342D01*
X218654Y1211347D01*
D02*
G37*
G36*
X219529Y1175917D02*
X220841Y1175480D01*
X222591Y1174168D01*
X223028Y1172418D01*
Y1170231D01*
X222591D01*
X222154D01*
X219967D01*
X217342Y1170668D01*
X214280Y1171106D01*
Y1175480D01*
X215155Y1175917D01*
X216467Y1176355D01*
X219092D01*
X219529Y1175917D01*
D02*
G37*
G36*
X218654Y1074440D02*
X219967Y1074003D01*
X220841Y1072691D01*
X221279Y1072253D01*
X221716Y1071379D01*
X222154Y1070066D01*
Y1068754D01*
X221716D01*
X220404D01*
X217780Y1069192D01*
X214280Y1070066D01*
Y1072253D01*
X214718Y1073566D01*
Y1074003D01*
X215155Y1074440D01*
X215593Y1074878D01*
X216905D01*
X217342D01*
X218654Y1074440D01*
D02*
G37*
G36*
X232651Y1072691D02*
Y1072253D01*
X233089Y1071379D01*
X233526Y1070504D01*
X233963Y1068754D01*
Y1067879D01*
X233526D01*
X232651D01*
X230027D01*
X229589D01*
X228277Y1068317D01*
X226965Y1068754D01*
X226090D01*
X225653D01*
X225215D01*
X224778Y1069192D01*
Y1070504D01*
X225215Y1071379D01*
X225653Y1072691D01*
X226965Y1074003D01*
X227402D01*
X229152D01*
X230902D01*
X232651Y1072691D01*
D02*
G37*
G36*
X218654Y1037699D02*
X220841D01*
X223903Y1037261D01*
X224341D01*
X225215D01*
X228277Y1036824D01*
X231339Y1036387D01*
X232214Y1035949D01*
X232651Y1035512D01*
X233089D01*
X233526Y1035074D01*
X234401Y1034637D01*
X234838Y1033325D01*
Y1032450D01*
X234401Y1032013D01*
X233963Y1031575D01*
X233526D01*
X232214Y1031138D01*
X230902D01*
X229152D01*
X226965D01*
X224341Y1031575D01*
X223903D01*
X223028D01*
X219967Y1032013D01*
X217342Y1032450D01*
X216467D01*
X216030D01*
X215593D01*
X215155Y1032887D01*
X214280Y1033762D01*
X213843Y1034637D01*
Y1035074D01*
X213406Y1035512D01*
X213843Y1036387D01*
X214280Y1037261D01*
X214718Y1037699D01*
X216030Y1038136D01*
X217342D01*
X218654Y1037699D01*
D02*
G37*
G36*
X227840Y780508D02*
X226965D01*
X225215Y780945D01*
X223903Y781382D01*
X222154Y781820D01*
X221716D01*
X221279Y782257D01*
X219092Y782695D01*
X217342Y783569D01*
X216467Y784007D01*
X217342Y784444D01*
X219529D01*
X220841D01*
X223028D01*
X227840D01*
Y780508D01*
D02*
G37*
%LPC*%
G36*
X172727Y696527D02*
X171415D01*
X169666Y696089D01*
X168791Y695215D01*
X167916Y693902D01*
Y693465D01*
X167479Y692590D01*
Y691715D01*
X167916Y689966D01*
X168353Y689528D01*
X169228Y688216D01*
X170978Y686467D01*
X173165Y686029D01*
X173602D01*
X174914Y686467D01*
X176664Y687341D01*
X177539Y689091D01*
Y691715D01*
X176227Y693902D01*
X175352Y695215D01*
X173602Y696089D01*
X172727Y696527D01*
D02*
G37*
G36*
X123739Y705712D02*
Y696089D01*
X135548Y688216D01*
X135986Y687779D01*
X137298Y686904D01*
X139048Y685592D01*
X140797Y684280D01*
X142547Y682967D01*
X144296Y681655D01*
X145609Y680780D01*
X146046Y680343D01*
X145609Y679906D01*
X144734D01*
X143422Y679031D01*
X141672Y678156D01*
X139048Y676844D01*
X135548Y675094D01*
X123739Y669408D01*
Y647538D01*
X124613D01*
X125051D01*
X125488Y647975D01*
X126800Y648413D01*
X128987Y649288D01*
X132049Y651037D01*
X135986Y652787D01*
X141235Y655411D01*
X156981Y663284D01*
X167916Y661535D01*
X168353D01*
X169228D01*
X170978Y661097D01*
X172727D01*
X174477D01*
X176227Y660660D01*
X177101D01*
X177539D01*
Y679031D01*
X167916Y680343D01*
X157856Y682093D01*
X142109Y693028D01*
X141235Y693465D01*
X139485Y694340D01*
X137298Y695652D01*
X134236Y697839D01*
X133361Y698276D01*
X132049Y699589D01*
X129862Y700901D01*
X128113Y702213D01*
X127675Y702650D01*
X126800Y703088D01*
X125926Y703963D01*
X125488Y704837D01*
X123739Y705712D01*
D02*
G37*
G36*
X170978Y645788D02*
X169666D01*
X168791D01*
Y623044D01*
X168353D01*
X166604D01*
X163979Y623481D01*
X159605Y623918D01*
X156981Y624356D01*
X153919D01*
X149983Y625231D01*
X146046Y625668D01*
X141672Y626543D01*
X136423Y626980D01*
X130737Y628292D01*
X124613Y629167D01*
X123739D01*
Y610796D01*
X124176Y609922D01*
Y609484D01*
X124613D01*
X125926D01*
X127675Y609047D01*
X131174Y608609D01*
X133361D01*
X135986Y608172D01*
X139048Y607735D01*
X142547Y607297D01*
X146483Y606860D01*
X151295Y606422D01*
X151732D01*
X152607D01*
X153919Y605985D01*
X155231D01*
X159605Y605548D01*
X164417Y605110D01*
X169228Y604235D01*
X173602Y603798D01*
X174914D01*
X176227Y603361D01*
X177101D01*
X177539D01*
Y644914D01*
X174914D01*
X174477D01*
X172727Y645351D01*
X170978Y645788D01*
D02*
G37*
G36*
X141235Y597237D02*
X137298D01*
X133799D01*
X130737Y596800D01*
X128550Y596362D01*
X128113D01*
X126800Y595487D01*
X125488Y594175D01*
X124613Y592426D01*
X123739Y591551D01*
Y562682D01*
X124176Y558746D01*
X124613Y555247D01*
X125051Y552622D01*
X125488Y551310D01*
X125926Y550435D01*
X127238Y548686D01*
X129862Y546499D01*
X133361Y545186D01*
X134236D01*
X135986Y544749D01*
X139048Y543874D01*
X142984Y543437D01*
X148233Y542562D01*
X153919Y541687D01*
X160043Y541250D01*
X167041D01*
X167479D01*
X169666D01*
X170540Y541687D01*
X172290Y542562D01*
X174914Y543874D01*
X176664Y546499D01*
Y547373D01*
X177101Y548248D01*
Y552622D01*
X177539Y556121D01*
Y575367D01*
X177101Y578866D01*
Y584990D01*
X176664Y586739D01*
Y587177D01*
X176227Y587614D01*
X174040Y589801D01*
X170540Y592426D01*
X168353Y593738D01*
X165729Y594613D01*
X165292D01*
X164417D01*
X163105Y595050D01*
X161355D01*
X158731Y595487D01*
X155669Y595925D01*
X151295Y596362D01*
X150857D01*
X150420D01*
X148233Y596800D01*
X145171D01*
X141235Y597237D01*
D02*
G37*
G36*
X132924Y536001D02*
X130300D01*
X128550Y535564D01*
X128113Y535126D01*
X126800Y533814D01*
X125488Y532064D01*
X124613Y529440D01*
Y529003D01*
X124176Y528128D01*
Y523754D01*
X123739Y519817D01*
Y489637D01*
X124176Y487012D01*
Y486137D01*
X124613D01*
X125926D01*
X127675Y485700D01*
X131174Y485263D01*
X133361Y484825D01*
X135986D01*
X139048Y484388D01*
X142547Y483950D01*
X146483Y483076D01*
X151295Y482638D01*
X151732D01*
X152607D01*
X153919Y482201D01*
X155231D01*
X159605Y481763D01*
X164417Y481326D01*
X169228Y480451D01*
X173602Y480014D01*
X174914D01*
X176227Y479576D01*
X177101D01*
X177539D01*
Y497947D01*
X176664D01*
X176227D01*
X175352D01*
X174040Y498385D01*
X172727D01*
X170540Y498822D01*
X167916Y499259D01*
X167479D01*
X166604D01*
X164854Y499697D01*
X163542D01*
X160043Y500134D01*
X158731D01*
X157856D01*
Y525941D01*
X157418Y526378D01*
X156106Y529003D01*
X153919Y531627D01*
X149983Y533377D01*
X149545Y533814D01*
X149108D01*
X147796Y534251D01*
X146483Y534689D01*
X143859D01*
X140797Y535126D01*
X136423Y535564D01*
X135986D01*
X135548D01*
X132924Y536001D01*
D02*
G37*
G36*
X174914Y449833D02*
X174477D01*
X174040D01*
X171853D01*
X171415D01*
X170540D01*
X170103D01*
X169666D01*
X168791D01*
Y427088D01*
X168353D01*
X166604D01*
X163542Y427526D01*
X159168Y427963D01*
X153044Y428401D01*
X149545Y429275D01*
X145609Y429713D01*
X141235Y430588D01*
X135986Y431025D01*
X130737Y432337D01*
X124613Y433212D01*
X123739D01*
Y414404D01*
X149983Y410467D01*
X150420D01*
X151295D01*
X152607Y410030D01*
X154357D01*
X158293Y409592D01*
X163542Y409155D01*
X168353Y408280D01*
X172727Y407843D01*
X174477D01*
X176227Y407405D01*
X177101D01*
X177539D01*
Y448958D01*
X174914Y449833D01*
D02*
G37*
G36*
X177539Y402594D02*
X177101D01*
X176227Y402157D01*
X174040Y401719D01*
X170978Y400844D01*
X168791Y400407D01*
X166166Y399532D01*
X163105Y398657D01*
X159605Y397783D01*
X155669Y396470D01*
X150857Y395158D01*
X150420D01*
X149545Y394721D01*
X148233Y394283D01*
X146483Y393846D01*
X142109Y392971D01*
X137298Y391659D01*
X132487Y389909D01*
X128113Y389035D01*
X126363Y388597D01*
X125051Y388160D01*
X124176Y387722D01*
X123739D01*
Y369352D01*
X124613D01*
X125051Y368914D01*
X126363Y368039D01*
X128113Y366727D01*
X131612Y364978D01*
X133799Y363665D01*
X136423Y362353D01*
X139048Y360604D01*
X142547Y358417D01*
X146921Y356230D01*
X151295Y353605D01*
X151732D01*
X152607Y353168D01*
X153919Y352293D01*
X155231Y351418D01*
X159605Y348794D01*
X164417Y346169D01*
X169228Y343545D01*
X173602Y340921D01*
X174914Y340046D01*
X176227Y339171D01*
X177101Y338734D01*
X177539D01*
Y347482D01*
X170978Y351418D01*
X163105Y355355D01*
Y378100D01*
X170978Y379849D01*
X177539Y382036D01*
Y402594D01*
D02*
G37*
G36*
X126363Y338734D02*
X125051D01*
X124176D01*
Y337859D01*
X123739Y336547D01*
Y309428D01*
X124176Y306366D01*
Y304179D01*
X124613Y303304D01*
Y302867D01*
X125488Y301117D01*
X127238Y298930D01*
X130300Y297181D01*
X131174Y296743D01*
X132049D01*
X133799Y295868D01*
X136423Y295431D01*
X139922Y294994D01*
X144296Y294119D01*
X149983Y293244D01*
X150857D01*
X153044Y292807D01*
X156106Y292369D01*
X159605D01*
X163542Y291932D01*
X167041D01*
X170103D01*
X171853Y292369D01*
X172290Y292807D01*
X174040Y293681D01*
X175789Y295431D01*
X177539Y298493D01*
Y332610D01*
X177101D01*
X175789D01*
X173602Y333047D01*
X173165D01*
X171415Y333485D01*
X170103Y333922D01*
X168791D01*
Y312052D01*
X167916Y311177D01*
X167479Y310740D01*
X167041Y310303D01*
X166604D01*
X165729D01*
X164417Y310740D01*
X162230D01*
X159168Y311177D01*
X155231Y311615D01*
X149983Y312052D01*
X149108D01*
X147358Y312490D01*
X145171Y312927D01*
X142109Y313364D01*
X139048D01*
X136861Y313802D01*
X135111Y314239D01*
X134236D01*
X133799D01*
X132487Y315114D01*
Y336109D01*
X132049Y337421D01*
Y337859D01*
X131174D01*
X130300D01*
X128113Y338296D01*
X127675D01*
X126363Y338734D01*
D02*
G37*
%LPD*%
G36*
X174914Y693902D02*
X175352Y693465D01*
X175789Y692590D01*
X176227Y691278D01*
Y689091D01*
X175789Y688216D01*
X174477Y687341D01*
X172727Y686904D01*
X172290D01*
X170978Y687341D01*
X169666Y688654D01*
X168791Y690841D01*
Y691278D01*
X168353Y691715D01*
Y693028D01*
X168791Y693465D01*
X170103Y694340D01*
X170540Y694777D01*
X171853D01*
X172290D01*
X172727D01*
X174914Y693902D01*
D02*
G37*
%LPC*%
G36*
X171853Y693465D02*
X171415D01*
X170540D01*
X170103Y693028D01*
X169666Y692590D01*
Y691278D01*
X170103Y690403D01*
X170540Y689966D01*
X172290Y689528D01*
X172727D01*
X173602D01*
X174477D01*
X174914D01*
X174477Y689966D01*
X174040D01*
X172727D01*
X172290D01*
X171853Y690403D01*
Y690841D01*
X172727D01*
X173602Y691278D01*
X174040Y691715D01*
X174477Y692153D01*
X174914Y692590D01*
Y693028D01*
X174477D01*
X173602D01*
X172727D01*
X171853Y693465D01*
D02*
G37*
%LPD*%
G36*
Y690841D02*
X170978D01*
Y692153D01*
X171415D01*
X171853D01*
Y690841D01*
D02*
G37*
G36*
X136861Y579304D02*
X139048D01*
X142109Y578866D01*
X146046Y578429D01*
X151295Y577554D01*
X152170D01*
X153919Y577117D01*
X156106D01*
X159168Y576679D01*
X162230Y576242D01*
X164854Y575804D01*
X166604D01*
X167479Y575367D01*
X167916Y574930D01*
X168353Y574492D01*
Y573617D01*
X168791Y572743D01*
Y560933D01*
X168353Y560495D01*
X167479D01*
X166166D01*
X163979Y560058D01*
X160918D01*
X156981Y560495D01*
X151295Y560933D01*
X150420D01*
X148670Y561370D01*
X146046Y561808D01*
X143422Y562245D01*
X140360D01*
X137298Y562682D01*
X135548Y563120D01*
X134236D01*
X133799Y563995D01*
X132924Y564869D01*
X132487Y566182D01*
Y578866D01*
X132924Y579304D01*
X134674Y579741D01*
X135111D01*
X135548D01*
X136861Y579304D01*
D02*
G37*
G36*
X138610Y516318D02*
X140797D01*
X141235D01*
X141672D01*
X144296Y515881D01*
X146483D01*
X147358Y515443D01*
X147796D01*
X148233D01*
X149108Y515006D01*
X149983Y513694D01*
Y501884D01*
X149108D01*
X148670D01*
X147796D01*
X146483D01*
X145171D01*
X143422Y502321D01*
X140797D01*
X140360D01*
X139485D01*
X136861Y502759D01*
X134236Y503633D01*
X132924D01*
X132487Y504071D01*
Y516755D01*
X132924D01*
X133799D01*
X134674D01*
X135548D01*
X136861D01*
X138610Y516318D01*
D02*
G37*
G36*
X154794Y372413D02*
X154357Y370664D01*
X153919Y368039D01*
Y361478D01*
X145171Y366290D01*
X144734Y366727D01*
X143859Y367165D01*
X140797Y368914D01*
X137735Y370226D01*
X136861Y371101D01*
X136423D01*
X137298Y371539D01*
X138610D01*
X139922Y371976D01*
X142109Y372413D01*
X145171Y373288D01*
X145609D01*
X146483Y373726D01*
X149545Y374600D01*
X153044Y375475D01*
X153919Y375913D01*
X154794D01*
Y372413D01*
D02*
G37*
D22*
X602228Y353894D02*
G03*
X602228Y353894I-4921J0D01*
G01*
D23*
X436000Y50441D02*
Y105559D01*
X491118Y50441D02*
Y62252D01*
X380882Y50441D02*
X491118D01*
X380882D02*
Y62252D01*
Y93748D02*
Y105559D01*
X491118D01*
Y93748D02*
Y105559D01*
D24*
X467976Y225724D02*
Y316276D01*
X590024Y225724D02*
Y316276D01*
X467976Y225724D02*
X590024D01*
X467976Y316276D02*
X590024D01*
X1852291Y259874D02*
X1881809D01*
Y274633D01*
X1876889Y279553D01*
X1857210D01*
X1852291Y274633D01*
Y259874D01*
X1881809Y304151D02*
Y294312D01*
X1876889Y289392D01*
X1867050D01*
X1862130Y294312D01*
Y304151D01*
X1867050Y309071D01*
X1871969D01*
Y289392D01*
X1881809Y318910D02*
Y333669D01*
X1876889Y338589D01*
X1871969Y333669D01*
Y323830D01*
X1867050Y318910D01*
X1862130Y323830D01*
Y338589D01*
X1881809Y348428D02*
Y358268D01*
Y353348D01*
X1862130D01*
Y348428D01*
X1891648Y382866D02*
Y387786D01*
X1886728Y392705D01*
X1862130D01*
Y377946D01*
X1867050Y373027D01*
X1876889D01*
X1881809Y377946D01*
Y392705D01*
Y402545D02*
X1862130D01*
Y417304D01*
X1867050Y422224D01*
X1881809D01*
X1862130Y466501D02*
Y476340D01*
X1867050Y481260D01*
X1881809D01*
Y466501D01*
X1876889Y461581D01*
X1871969Y466501D01*
Y481260D01*
X1881809Y491099D02*
X1862130D01*
Y505858D01*
X1867050Y510778D01*
X1881809D01*
X1852291Y540296D02*
X1881809D01*
Y525537D01*
X1876889Y520617D01*
X1867050D01*
X1862130Y525537D01*
Y540296D01*
X1881809Y579653D02*
Y589493D01*
Y584573D01*
X1852291D01*
Y579653D01*
X1862130Y609172D02*
Y619011D01*
X1867050Y623931D01*
X1881809D01*
Y609172D01*
X1876889Y604252D01*
X1871969Y609172D01*
Y623931D01*
X1862130Y633770D02*
X1876889D01*
X1881809Y638690D01*
Y653449D01*
X1886728D01*
X1891648Y648529D01*
Y643609D01*
X1881809Y653449D02*
X1862130D01*
X1881809Y668208D02*
Y678047D01*
X1876889Y682967D01*
X1867050D01*
X1862130Y678047D01*
Y668208D01*
X1867050Y663288D01*
X1876889D01*
X1881809Y668208D01*
X1862130Y692806D02*
X1876889D01*
X1881809Y697726D01*
Y712485D01*
X1862130D01*
X1857210Y727244D02*
X1862130D01*
Y722324D01*
Y732164D01*
Y727244D01*
X1876889D01*
X1881809Y732164D01*
X1852291Y776441D02*
X1881809D01*
Y791200D01*
X1876889Y796119D01*
X1871969D01*
X1867050D01*
X1862130Y791200D01*
Y776441D01*
Y805959D02*
X1876889D01*
X1881809Y810879D01*
Y825638D01*
X1886728D01*
X1891648Y820718D01*
Y815798D01*
X1881809Y825638D02*
X1862130D01*
Y835477D02*
Y840397D01*
X1867050D01*
Y835477D01*
X1862130D01*
X1876889D02*
Y840397D01*
X1881809D01*
Y835477D01*
X1876889D01*
X1916449Y259874D02*
X1945967D01*
Y274633D01*
X1941048Y279553D01*
X1921369D01*
X1916449Y274633D01*
Y259874D01*
X1926289Y294312D02*
Y304151D01*
X1931208Y309071D01*
X1945967D01*
Y294312D01*
X1941048Y289392D01*
X1936128Y294312D01*
Y309071D01*
X1945967Y318910D02*
X1926289D01*
Y333669D01*
X1931208Y338589D01*
X1945967D01*
X1921369Y397625D02*
X1916449Y392705D01*
Y382866D01*
X1921369Y377946D01*
X1941048D01*
X1945967Y382866D01*
Y392705D01*
X1941048Y397625D01*
X1931208D01*
Y387786D01*
X1926289Y407464D02*
X1941048D01*
X1945967Y412384D01*
Y427143D01*
X1926289D01*
X1921369Y441902D02*
X1926289D01*
Y436983D01*
Y446822D01*
Y441902D01*
X1941048D01*
X1945967Y446822D01*
Y461581D02*
X1926289D01*
Y466501D01*
X1931208Y471420D01*
X1945967D01*
X1931208D01*
X1926289Y476340D01*
X1931208Y481260D01*
X1945967D01*
X1926289Y496019D02*
Y505858D01*
X1931208Y510778D01*
X1945967D01*
Y496019D01*
X1941048Y491099D01*
X1936128Y496019D01*
Y510778D01*
X1945967Y520617D02*
X1926289D01*
Y535376D01*
X1931208Y540296D01*
X1945967D01*
Y550135D02*
X1926289D01*
Y564894D01*
X1931208Y569814D01*
X1945967D01*
X1970768Y259874D02*
X2000287D01*
X1990447D01*
X1970768Y279553D01*
X1985528Y264794D01*
X2000287Y279553D01*
X1980608Y289392D02*
X1995367D01*
X2000287Y294312D01*
Y309071D01*
X2005206D01*
X2010126Y304151D01*
Y299231D01*
X2000287Y309071D02*
X1980608D01*
X2000287Y318910D02*
Y328750D01*
Y323830D01*
X1970768D01*
Y318910D01*
X2000287Y358268D02*
Y348428D01*
X1995367Y343509D01*
X1985528D01*
X1980608Y348428D01*
Y358268D01*
X1985528Y363187D01*
X1990447D01*
Y343509D01*
X1975688Y422224D02*
X1970768Y417304D01*
Y407464D01*
X1975688Y402545D01*
X1995367D01*
X2000287Y407464D01*
Y417304D01*
X1995367Y422224D01*
X1970768Y432063D02*
X2000287D01*
X1985528D01*
X1980608Y436983D01*
Y446822D01*
X1985528Y451742D01*
X2000287D01*
X1980608Y466501D02*
Y476340D01*
X1985528Y481260D01*
X2000287D01*
Y466501D01*
X1995367Y461581D01*
X1990447Y466501D01*
Y481260D01*
X2000287Y491099D02*
X1980608D01*
Y505858D01*
X1985528Y510778D01*
X2000287D01*
X2010126Y530457D02*
Y535376D01*
X2005206Y540296D01*
X1980608D01*
Y525537D01*
X1985528Y520617D01*
X1995367D01*
X2000287Y525537D01*
Y540296D01*
X1628000Y143000D02*
X1604386D01*
Y154807D01*
X1608321Y158743D01*
X1616193D01*
X1620129Y154807D01*
Y143000D01*
Y150871D02*
X1628000Y158743D01*
X1604386Y182357D02*
Y166614D01*
X1628000D01*
Y182357D01*
X1616193Y166614D02*
Y174486D01*
X1604386Y190229D02*
X1620129D01*
X1628000Y198100D01*
X1620129Y205972D01*
X1604386D01*
X1628000Y237458D02*
Y245329D01*
Y241393D01*
X1604386D01*
X1608321Y237458D01*
X1628000Y257136D02*
X1624064D01*
Y261072D01*
X1628000D01*
Y257136D01*
X1608321Y276815D02*
X1604386Y280750D01*
Y288622D01*
X1608321Y292558D01*
X1624064D01*
X1628000Y288622D01*
Y280750D01*
X1624064Y276815D01*
X1608321D01*
X1628000Y331915D02*
X1620129Y324044D01*
X1612257D01*
X1604386Y331915D01*
X1628000Y343722D02*
Y351594D01*
Y347658D01*
X1604386D01*
X1608321Y343722D01*
X1628000Y363401D02*
Y371272D01*
Y367337D01*
X1604386D01*
X1608321Y363401D01*
X1628000Y383079D02*
X1612257Y398822D01*
X1628000Y422437D02*
Y406694D01*
X1612257Y422437D01*
X1608321D01*
X1604386Y418501D01*
Y410630D01*
X1608321Y406694D01*
Y430308D02*
X1604386Y434244D01*
Y442115D01*
X1608321Y446051D01*
X1624064D01*
X1628000Y442115D01*
Y434244D01*
X1624064Y430308D01*
X1608321D01*
X1628000Y453923D02*
Y461794D01*
Y457858D01*
X1604386D01*
X1608321Y453923D01*
X1624064Y473601D02*
X1628000Y477537D01*
Y485408D01*
X1624064Y489344D01*
X1608321D01*
X1604386Y485408D01*
Y477537D01*
X1608321Y473601D01*
X1612257D01*
X1616193Y477537D01*
Y489344D01*
X1628000Y497216D02*
X1620129Y505087D01*
X1612257D01*
X1604386Y497216D01*
D35*
X887882Y688480D02*
G03*
X887882Y688480I-9842J0D01*
G01*
D36*
X747500Y-350000D02*
X1062500D01*
Y650000D01*
X747500D02*
X1062500D01*
X747500Y-350000D02*
Y650000D01*
X1583551Y728638D02*
Y2045961D01*
X513472D02*
X1583551D01*
X513472Y728638D02*
Y2045961D01*
Y728638D02*
X1583551D01*
X1072500Y-350000D02*
X1387500D01*
Y650000D01*
X1072500D02*
X1387500D01*
X1072500Y-350000D02*
Y650000D01*
D37*
X1509964Y132357D02*
Y93000D01*
X1569000D01*
Y132357D01*
X1539482Y93000D02*
Y112679D01*
X1519803Y191393D02*
X1509964Y181554D01*
Y161875D01*
X1519803Y152036D01*
X1559161D01*
X1569000Y161875D01*
Y181554D01*
X1559161Y191393D01*
X1539482D01*
Y171715D01*
X1509964Y211072D02*
Y250429D01*
Y230751D01*
X1569000D01*
X1509964Y329144D02*
X1569000D01*
Y358662D01*
X1559161Y368501D01*
X1549321D01*
X1539482Y358662D01*
Y329144D01*
Y358662D01*
X1529643Y368501D01*
X1519803D01*
X1509964Y358662D01*
Y329144D01*
X1569000Y398019D02*
Y417698D01*
X1559161Y427537D01*
X1539482D01*
X1529643Y417698D01*
Y398019D01*
X1539482Y388180D01*
X1559161D01*
X1569000Y398019D01*
X1529643Y457055D02*
Y476734D01*
X1539482Y486573D01*
X1569000D01*
Y457055D01*
X1559161Y447216D01*
X1549321Y457055D01*
Y486573D01*
X1529643Y506252D02*
X1569000D01*
X1549321D01*
X1539482Y516091D01*
X1529643Y525931D01*
Y535770D01*
X1509964Y604645D02*
X1569000D01*
Y575127D01*
X1559161Y565288D01*
X1539482D01*
X1529643Y575127D01*
Y604645D01*
%TF.MD5,89712d69a96f4985127c3dcdc03ead51*%
M02*
