M48
;Layer_Color=9474304
;FILE_FORMAT=2:5
INCH,TZ
;TYPE=PLATED
T1F00S00C0.02800
T2F00S00C0.06000
T3F00S00C0.06929
;TYPE=NON_PLATED
T4F00S00C0.08504
%
T01
X27500Y6900
X69700Y24000
X69500Y34700
X101200Y22200
X113400Y22500
X112200Y50200
X101400Y50500
X175600Y30000
X175100Y8500
X176700Y60200
X168000Y88500
X107900Y82900
X107000Y101700
X69900Y73700
T02
X90500Y19300
Y35800
X123000
Y19300
T03
X86895Y86080
Y103600
X122800
Y86080
T04
X63847Y94832
X145855
M30
