%TF.GenerationSoftware,Altium Limited,Altium Designer,19.0.10 (269)*%
G04 Layer_Color=2752767*
%FSLAX26Y26*%
%MOIN*%
%TF.FileFunction,Drawing*%
%TF.Part,Single*%
G01*
G75*
%TA.AperFunction,NonConductor*%
%ADD45C,0.005000*%
%ADD46C,0.006667*%
D45*
X885000Y338000D02*
Y378000D01*
X925000D01*
Y338000D01*
X885000D01*
Y173000D02*
Y213000D01*
X925000D01*
Y173000D01*
X885000D01*
X638472Y928323D02*
X618472Y968323D01*
X658472D01*
X638472Y928323D01*
X1458551D02*
X1438551Y968323D01*
X1478551D01*
X1458551Y928323D01*
X1210000Y338000D02*
Y378000D01*
X1250000D01*
Y338000D01*
X1210000D01*
Y173000D02*
Y213000D01*
X1250000D01*
Y173000D01*
X1210000D01*
X699000Y717000D02*
X709000Y727000D01*
X719000D01*
X709000Y737000D01*
X719000Y747000D01*
X709000D01*
X699000Y757000D01*
X689000Y747000D01*
X679000D01*
X689000Y737000D01*
X679000Y727000D01*
X689000D01*
X699000Y717000D01*
X1680000Y865000D02*
X1690000Y875000D01*
X1700000D01*
X1690000Y885000D01*
X1700000Y895000D01*
X1690000D01*
X1680000Y905000D01*
X1670000Y895000D01*
X1660000D01*
X1670000Y885000D01*
X1660000Y875000D01*
X1670000D01*
X1680000Y865000D01*
X1070000Y997000D02*
X1080000Y1007000D01*
X1090000D01*
X1080000Y1017000D01*
X1090000Y1027000D01*
X1080000D01*
X1070000Y1037000D01*
X1060000Y1027000D01*
X1050000D01*
X1060000Y1017000D01*
X1050000Y1007000D01*
X1060000D01*
X1070000Y997000D01*
X1079000Y809000D02*
X1089000Y819000D01*
X1099000D01*
X1089000Y829000D01*
X1099000Y839000D01*
X1089000D01*
X1079000Y849000D01*
X1069000Y839000D01*
X1059000D01*
X1069000Y829000D01*
X1059000Y819000D01*
X1069000D01*
X1079000Y809000D01*
X1122000Y482000D02*
X1132000Y492000D01*
X1142000D01*
X1132000Y502000D01*
X1142000Y512000D01*
X1132000D01*
X1122000Y522000D01*
X1112000Y512000D01*
X1102000D01*
X1112000Y502000D01*
X1102000Y492000D01*
X1112000D01*
X1122000Y482000D01*
X1012000Y202000D02*
X1022000Y212000D01*
X1032000D01*
X1022000Y222000D01*
X1032000Y232000D01*
X1022000D01*
X1012000Y242000D01*
X1002000Y232000D01*
X992000D01*
X1002000Y222000D01*
X992000Y212000D01*
X1002000D01*
X1012000Y202000D01*
X1134000Y205000D02*
X1144000Y215000D01*
X1154000D01*
X1144000Y225000D01*
X1154000Y235000D01*
X1144000D01*
X1134000Y245000D01*
X1124000Y235000D01*
X1114000D01*
X1124000Y225000D01*
X1114000Y215000D01*
X1124000D01*
X1134000Y205000D01*
X1014000Y485000D02*
X1024000Y495000D01*
X1034000D01*
X1024000Y505000D01*
X1034000Y515000D01*
X1024000D01*
X1014000Y525000D01*
X1004000Y515000D01*
X994000D01*
X1004000Y505000D01*
X994000Y495000D01*
X1004000D01*
X1014000Y485000D01*
X1767000Y582000D02*
X1777000Y592000D01*
X1787000D01*
X1777000Y602000D01*
X1787000Y612000D01*
X1777000D01*
X1767000Y622000D01*
X1757000Y612000D01*
X1747000D01*
X1757000Y602000D01*
X1747000Y592000D01*
X1757000D01*
X1767000Y582000D01*
X695000Y327000D02*
X705000Y337000D01*
X715000D01*
X705000Y347000D01*
X715000Y357000D01*
X705000D01*
X695000Y367000D01*
X685000Y357000D01*
X675000D01*
X685000Y347000D01*
X675000Y337000D01*
X685000D01*
X695000Y327000D01*
X275000Y49000D02*
X285000Y59000D01*
X295000D01*
X285000Y69000D01*
X295000Y79000D01*
X285000D01*
X275000Y89000D01*
X265000Y79000D01*
X255000D01*
X265000Y69000D01*
X255000Y59000D01*
X265000D01*
X275000Y49000D01*
X697000Y220000D02*
X707000Y230000D01*
X717000D01*
X707000Y240000D01*
X717000Y250000D01*
X707000D01*
X697000Y260000D01*
X687000Y250000D01*
X677000D01*
X687000Y240000D01*
X677000Y230000D01*
X687000D01*
X697000Y220000D01*
X1756000Y280000D02*
X1766000Y290000D01*
X1776000D01*
X1766000Y300000D01*
X1776000Y310000D01*
X1766000D01*
X1756000Y320000D01*
X1746000Y310000D01*
X1736000D01*
X1746000Y300000D01*
X1736000Y290000D01*
X1746000D01*
X1756000Y280000D01*
X1751000Y65000D02*
X1761000Y75000D01*
X1771000D01*
X1761000Y85000D01*
X1771000Y95000D01*
X1761000D01*
X1751000Y105000D01*
X1741000Y95000D01*
X1731000D01*
X1741000Y85000D01*
X1731000Y75000D01*
X1741000D01*
X1751000Y65000D01*
D46*
X888945Y1036000D02*
G03*
X888945Y1036000I-20000J0D01*
G01*
X1248000D02*
G03*
X1248000Y1036000I-20000J0D01*
G01*
X888945Y860803D02*
G03*
X888945Y860803I-20000J0D01*
G01*
X1248000D02*
G03*
X1248000Y860803I-20000J0D01*
G01*
%TF.MD5,0e4aa597009004d30a72936f63dbb1d4*%
M02*
