G04*
G04 #@! TF.GenerationSoftware,Altium Limited,Altium Designer,19.1.8 (144)*
G04*
G04 Layer_Color=16711935*
%FSLAX25Y25*%
%MOIN*%
G70*
G01*
G75*
%ADD19R,0.08871X0.05328*%
%ADD21R,0.02454X0.04300*%
%ADD22C,0.09800*%
%ADD23C,0.11194*%
%ADD24C,0.09304*%
%ADD25R,0.11194X0.11194*%
%ADD26C,0.05800*%
%ADD35R,0.05328X0.08871*%
%ADD36R,0.04540X0.04147*%
%ADD37R,0.04737X0.04343*%
D19*
X122900Y7500D02*
D03*
X175500Y18800D02*
D03*
X92600Y6300D02*
D03*
D21*
X161039Y20211D02*
D03*
X158479D02*
D03*
X155921D02*
D03*
X153361D02*
D03*
X161039Y36789D02*
D03*
X158479D02*
D03*
X155921D02*
D03*
X153361D02*
D03*
D22*
X90500Y35800D02*
D03*
Y19300D02*
D03*
X123000Y35800D02*
D03*
Y19300D02*
D03*
D23*
X86895Y103600D02*
D03*
X122800D02*
D03*
Y86080D02*
D03*
D24*
X63847Y94832D02*
D03*
X145855D02*
D03*
D25*
X86895Y86080D02*
D03*
D26*
X69900Y73700D02*
D03*
X168000Y88500D02*
D03*
X107000Y101700D02*
D03*
X107900Y82900D02*
D03*
X112200Y50200D02*
D03*
X101200Y22200D02*
D03*
X113400Y22500D02*
D03*
X101400Y50500D02*
D03*
X176700Y60200D02*
D03*
X69500Y34700D02*
D03*
X27500Y6900D02*
D03*
X69700Y24000D02*
D03*
X175600Y30000D02*
D03*
X175100Y8500D02*
D03*
D35*
X101600Y35600D02*
D03*
X113500Y35433D02*
D03*
X153100Y8200D02*
D03*
X154200Y45600D02*
D03*
D36*
X134400Y11741D02*
D03*
Y16859D02*
D03*
Y41541D02*
D03*
Y46659D02*
D03*
X122600Y53359D02*
D03*
Y48241D02*
D03*
X90600Y53659D02*
D03*
Y48541D02*
D03*
X79800Y17059D02*
D03*
Y11941D02*
D03*
X79900Y45859D02*
D03*
Y40741D02*
D03*
D37*
X144700Y41543D02*
D03*
Y46858D02*
D03*
X134400Y25842D02*
D03*
Y31157D02*
D03*
X144800Y11242D02*
D03*
Y16557D02*
D03*
X163600Y6842D02*
D03*
Y12157D02*
D03*
X69800Y13715D02*
D03*
Y8400D02*
D03*
X69200Y48458D02*
D03*
Y43143D02*
D03*
X79700Y30957D02*
D03*
Y25642D02*
D03*
M02*
