G04*
G04 #@! TF.GenerationSoftware,Altium Limited,Altium Designer,19.1.8 (144)*
G04*
G04 Layer_Color=32768*
%FSLAX25Y25*%
%MOIN*%
G70*
G01*
G75*
%ADD14C,0.01000*%
%ADD38C,0.00394*%
%ADD39C,0.00197*%
D14*
X19685Y0D02*
X190315D01*
X0Y19685D02*
Y135315D01*
X19685Y155000D02*
X190315D01*
X210000Y19685D02*
Y135315D01*
D38*
X43600Y5930D02*
Y9670D01*
X41730Y7800D02*
X45470D01*
X50932Y27100D02*
X54869D01*
X52900Y25131D02*
Y29068D01*
X132530Y14300D02*
X136270D01*
X134400Y12430D02*
Y16170D01*
X155231Y28500D02*
X159169D01*
X157200Y26531D02*
Y30468D01*
X142830Y44200D02*
X146570D01*
X144700Y42330D02*
Y46070D01*
X132530Y44100D02*
X136270D01*
X134400Y42230D02*
Y45970D01*
X132530Y28500D02*
X136270D01*
X134400Y26630D02*
Y30370D01*
X142930Y13900D02*
X146670D01*
X144800Y12030D02*
Y15770D01*
X122600Y48930D02*
Y52670D01*
X120730Y50800D02*
X124470D01*
X90600Y49230D02*
Y52970D01*
X88730Y51100D02*
X92470D01*
X79800Y12630D02*
Y16370D01*
X77930Y14500D02*
X81670D01*
X79900Y41430D02*
Y45170D01*
X78030Y43300D02*
X81770D01*
X163600Y7630D02*
Y11370D01*
X161730Y9500D02*
X165470D01*
X69800Y9187D02*
Y12928D01*
X67930Y11057D02*
X71670D01*
X69200Y43930D02*
Y47670D01*
X67330Y45800D02*
X71070D01*
X79700Y26430D02*
Y30170D01*
X77830Y28300D02*
X81570D01*
D39*
X38285Y10753D02*
X48915D01*
X38285Y4847D02*
X48915D01*
X38285D02*
Y10753D01*
X48915Y4847D02*
Y10753D01*
X45616Y14698D02*
Y39502D01*
X60184Y14698D02*
Y39502D01*
X45616Y14698D02*
X60184D01*
X45616Y39502D02*
X60184D01*
X137353Y8985D02*
Y19615D01*
X131447Y8985D02*
Y19615D01*
Y8985D02*
X137353D01*
X131447Y19615D02*
X137353D01*
X164483Y16098D02*
Y40902D01*
X149917Y16098D02*
Y40902D01*
Y16098D02*
X164483D01*
X149917Y40902D02*
X164483D01*
X147653Y38885D02*
Y49515D01*
X141747Y38885D02*
Y49515D01*
Y38885D02*
X147653D01*
X141747Y49515D02*
X147653D01*
X137353Y38785D02*
Y49415D01*
X131447Y38785D02*
Y49415D01*
Y38785D02*
X137353D01*
X131447Y49415D02*
X137353D01*
X137353Y23185D02*
Y33815D01*
X131447Y23185D02*
Y33815D01*
Y23185D02*
X137353D01*
X131447Y33815D02*
X137353D01*
X147753Y8585D02*
Y19215D01*
X141847Y8585D02*
Y19215D01*
Y8585D02*
X147753D01*
X141847Y19215D02*
X147753D01*
X119647Y56115D02*
X125553D01*
X119647Y45485D02*
X125553D01*
X119647D02*
Y56115D01*
X125553Y45485D02*
Y56115D01*
X87647Y56415D02*
X93553D01*
X87647Y45785D02*
X93553D01*
X87647D02*
Y56415D01*
X93553Y45785D02*
Y56415D01*
X76847Y19815D02*
X82753D01*
X76847Y9185D02*
X82753D01*
X76847D02*
Y19815D01*
X82753Y9185D02*
Y19815D01*
X76947Y48615D02*
X82853D01*
X76947Y37985D02*
X82853D01*
X76947D02*
Y48615D01*
X82853Y37985D02*
Y48615D01*
X160647Y4185D02*
X166553D01*
X160647Y14815D02*
X166553D01*
Y4185D02*
Y14815D01*
X160647Y4185D02*
Y14815D01*
X66847Y16372D02*
X72753D01*
X66847Y5742D02*
X72753D01*
X66847D02*
Y16372D01*
X72753Y5742D02*
Y16372D01*
X66247Y51115D02*
X72153D01*
X66247Y40485D02*
X72153D01*
X66247D02*
Y51115D01*
X72153Y40485D02*
Y51115D01*
X76747Y33615D02*
X82653D01*
X76747Y22985D02*
X82653D01*
X76747D02*
Y33615D01*
X82653Y22985D02*
Y33615D01*
M02*
