G04*
G04 #@! TF.GenerationSoftware,Altium Limited,Altium Designer,19.1.8 (144)*
G04*
G04 Layer_Color=65280*
%FSLAX25Y25*%
%MOIN*%
G70*
G01*
G75*
%ADD10C,0.00984*%
%ADD12C,0.00591*%
%ADD13C,0.00787*%
G36*
X160528Y43158D02*
X160605Y43153D01*
X160678Y43139D01*
X160746Y43126D01*
X160810Y43108D01*
X160869Y43089D01*
X160924Y43067D01*
X160974Y43044D01*
X161019Y43021D01*
X161056Y42998D01*
X161088Y42980D01*
X161115Y42962D01*
X161138Y42948D01*
X161151Y42935D01*
X161160Y42930D01*
X161165Y42926D01*
X161210Y42880D01*
X161251Y42830D01*
X161292Y42775D01*
X161324Y42721D01*
X161379Y42612D01*
X161415Y42502D01*
X161429Y42452D01*
X161442Y42402D01*
X161451Y42362D01*
X161461Y42325D01*
X161465Y42293D01*
Y42270D01*
X161470Y42257D01*
Y42252D01*
X161074Y42211D01*
X161065Y42316D01*
X161047Y42407D01*
X161019Y42489D01*
X160987Y42553D01*
X160960Y42607D01*
X160933Y42643D01*
X160915Y42666D01*
X160906Y42675D01*
X160837Y42730D01*
X160765Y42771D01*
X160687Y42803D01*
X160619Y42821D01*
X160555Y42835D01*
X160501Y42839D01*
X160482Y42844D01*
X160455D01*
X160360Y42839D01*
X160273Y42821D01*
X160200Y42794D01*
X160137Y42766D01*
X160087Y42735D01*
X160055Y42712D01*
X160032Y42694D01*
X160023Y42685D01*
X159968Y42621D01*
X159927Y42557D01*
X159895Y42493D01*
X159877Y42430D01*
X159864Y42380D01*
X159859Y42334D01*
X159854Y42307D01*
Y42302D01*
Y42298D01*
X159864Y42216D01*
X159882Y42129D01*
X159914Y42052D01*
X159945Y41979D01*
X159982Y41920D01*
X160014Y41870D01*
X160023Y41852D01*
X160032Y41838D01*
X160041Y41834D01*
Y41829D01*
X160077Y41779D01*
X160123Y41729D01*
X160173Y41674D01*
X160228Y41620D01*
X160341Y41511D01*
X160455Y41401D01*
X160514Y41351D01*
X160564Y41306D01*
X160614Y41265D01*
X160655Y41229D01*
X160687Y41201D01*
X160714Y41178D01*
X160733Y41165D01*
X160737Y41160D01*
X160851Y41065D01*
X160956Y40974D01*
X161042Y40892D01*
X161110Y40824D01*
X161169Y40764D01*
X161210Y40723D01*
X161233Y40696D01*
X161242Y40692D01*
Y40687D01*
X161306Y40610D01*
X161356Y40537D01*
X161401Y40464D01*
X161438Y40400D01*
X161465Y40346D01*
X161483Y40305D01*
X161493Y40278D01*
X161497Y40273D01*
Y40268D01*
X161515Y40218D01*
X161524Y40173D01*
X161533Y40127D01*
X161538Y40086D01*
X161542Y40050D01*
Y40023D01*
Y40005D01*
Y40000D01*
X159454D01*
Y40373D01*
X161006D01*
X160951Y40451D01*
X160924Y40482D01*
X160901Y40514D01*
X160878Y40541D01*
X160860Y40560D01*
X160846Y40573D01*
X160842Y40578D01*
X160819Y40601D01*
X160792Y40623D01*
X160728Y40683D01*
X160655Y40751D01*
X160578Y40819D01*
X160505Y40878D01*
X160473Y40905D01*
X160446Y40933D01*
X160423Y40951D01*
X160405Y40965D01*
X160396Y40974D01*
X160391Y40978D01*
X160319Y41042D01*
X160246Y41101D01*
X160182Y41160D01*
X160123Y41210D01*
X160068Y41260D01*
X160023Y41306D01*
X159977Y41347D01*
X159941Y41383D01*
X159905Y41420D01*
X159877Y41447D01*
X159854Y41470D01*
X159832Y41492D01*
X159809Y41520D01*
X159800Y41529D01*
X159736Y41606D01*
X159681Y41674D01*
X159636Y41743D01*
X159600Y41797D01*
X159572Y41847D01*
X159554Y41884D01*
X159545Y41906D01*
X159540Y41916D01*
X159513Y41984D01*
X159495Y42052D01*
X159477Y42116D01*
X159468Y42170D01*
X159463Y42220D01*
X159459Y42257D01*
Y42280D01*
Y42289D01*
X159463Y42357D01*
X159472Y42421D01*
X159481Y42484D01*
X159500Y42539D01*
X159545Y42648D01*
X159591Y42735D01*
X159618Y42775D01*
X159641Y42807D01*
X159663Y42839D01*
X159686Y42862D01*
X159704Y42880D01*
X159713Y42898D01*
X159722Y42903D01*
X159727Y42908D01*
X159777Y42953D01*
X159832Y42994D01*
X159891Y43026D01*
X159950Y43053D01*
X160068Y43099D01*
X160187Y43130D01*
X160237Y43139D01*
X160287Y43149D01*
X160332Y43153D01*
X160369Y43158D01*
X160400Y43162D01*
X160446D01*
X160528Y43158D01*
D02*
G37*
G36*
X164500Y41329D02*
Y41238D01*
X164496Y41151D01*
X164491Y41069D01*
X164482Y40992D01*
X164473Y40924D01*
X164464Y40860D01*
X164450Y40801D01*
X164441Y40746D01*
X164432Y40696D01*
X164418Y40655D01*
X164409Y40619D01*
X164400Y40591D01*
X164391Y40569D01*
X164386Y40551D01*
X164382Y40541D01*
Y40537D01*
X164332Y40437D01*
X164268Y40346D01*
X164204Y40273D01*
X164136Y40209D01*
X164077Y40159D01*
X164027Y40123D01*
X164009Y40114D01*
X163995Y40105D01*
X163986Y40095D01*
X163981D01*
X163868Y40045D01*
X163749Y40009D01*
X163626Y39982D01*
X163513Y39964D01*
X163463Y39959D01*
X163413Y39955D01*
X163367Y39950D01*
X163331D01*
X163299Y39945D01*
X163258D01*
X163094Y39955D01*
X163021Y39964D01*
X162953Y39973D01*
X162885Y39986D01*
X162826Y40000D01*
X162771Y40014D01*
X162721Y40032D01*
X162675Y40050D01*
X162639Y40064D01*
X162603Y40077D01*
X162575Y40091D01*
X162553Y40105D01*
X162539Y40109D01*
X162530Y40118D01*
X162525D01*
X162425Y40187D01*
X162343Y40264D01*
X162280Y40337D01*
X162225Y40409D01*
X162184Y40473D01*
X162157Y40523D01*
X162148Y40541D01*
X162139Y40555D01*
X162134Y40564D01*
Y40569D01*
X162116Y40623D01*
X162098Y40683D01*
X162070Y40805D01*
X162052Y40933D01*
X162038Y41056D01*
X162034Y41110D01*
X162029Y41165D01*
Y41210D01*
X162025Y41251D01*
Y41283D01*
Y41306D01*
Y41324D01*
Y41329D01*
Y43149D01*
X162443D01*
Y41329D01*
Y41224D01*
X162452Y41124D01*
X162462Y41037D01*
X162475Y40955D01*
X162489Y40883D01*
X162507Y40814D01*
X162521Y40755D01*
X162539Y40705D01*
X162557Y40664D01*
X162575Y40623D01*
X162594Y40596D01*
X162607Y40569D01*
X162621Y40551D01*
X162630Y40537D01*
X162635Y40532D01*
X162639Y40528D01*
X162680Y40491D01*
X162725Y40460D01*
X162826Y40409D01*
X162930Y40373D01*
X163040Y40350D01*
X163140Y40332D01*
X163180Y40328D01*
X163222D01*
X163249Y40323D01*
X163294D01*
X163390Y40328D01*
X163476Y40341D01*
X163558Y40355D01*
X163622Y40378D01*
X163676Y40396D01*
X163717Y40409D01*
X163740Y40423D01*
X163749Y40428D01*
X163813Y40469D01*
X163868Y40519D01*
X163913Y40569D01*
X163945Y40614D01*
X163972Y40660D01*
X163995Y40692D01*
X164004Y40714D01*
X164009Y40723D01*
X164022Y40764D01*
X164031Y40805D01*
X164049Y40901D01*
X164063Y41001D01*
X164072Y41101D01*
X164077Y41188D01*
Y41229D01*
X164081Y41260D01*
Y41288D01*
Y41310D01*
Y41324D01*
Y41329D01*
Y43149D01*
X164500D01*
Y41329D01*
D02*
G37*
G36*
X111331Y42388D02*
X110967Y42338D01*
X110935Y42388D01*
X110894Y42429D01*
X110857Y42470D01*
X110821Y42502D01*
X110785Y42524D01*
X110757Y42547D01*
X110739Y42556D01*
X110734Y42561D01*
X110675Y42588D01*
X110616Y42611D01*
X110562Y42625D01*
X110507Y42638D01*
X110462Y42643D01*
X110425Y42647D01*
X110339D01*
X110284Y42638D01*
X110189Y42615D01*
X110107Y42584D01*
X110034Y42552D01*
X109979Y42515D01*
X109938Y42483D01*
X109916Y42461D01*
X109906Y42456D01*
Y42452D01*
X109843Y42374D01*
X109797Y42292D01*
X109765Y42206D01*
X109743Y42119D01*
X109729Y42047D01*
X109724Y42015D01*
Y41987D01*
X109720Y41965D01*
Y41947D01*
Y41937D01*
Y41933D01*
Y41869D01*
X109729Y41810D01*
X109752Y41696D01*
X109784Y41601D01*
X109816Y41523D01*
X109852Y41460D01*
X109884Y41410D01*
X109897Y41396D01*
X109906Y41382D01*
X109911Y41378D01*
X109916Y41373D01*
X109952Y41337D01*
X109988Y41305D01*
X110070Y41250D01*
X110148Y41214D01*
X110225Y41191D01*
X110289Y41173D01*
X110343Y41168D01*
X110361Y41164D01*
X110389D01*
X110475Y41168D01*
X110553Y41187D01*
X110621Y41209D01*
X110675Y41237D01*
X110725Y41264D01*
X110762Y41287D01*
X110780Y41305D01*
X110789Y41309D01*
X110844Y41373D01*
X110889Y41441D01*
X110926Y41519D01*
X110953Y41587D01*
X110971Y41655D01*
X110985Y41705D01*
X110989Y41728D01*
X110994Y41742D01*
Y41751D01*
Y41755D01*
X111399Y41724D01*
X111390Y41651D01*
X111376Y41583D01*
X111335Y41455D01*
X111285Y41346D01*
X111258Y41296D01*
X111231Y41255D01*
X111208Y41214D01*
X111180Y41178D01*
X111158Y41150D01*
X111135Y41127D01*
X111117Y41109D01*
X111108Y41091D01*
X111099Y41087D01*
X111094Y41082D01*
X111039Y41041D01*
X110985Y41005D01*
X110926Y40973D01*
X110866Y40946D01*
X110753Y40905D01*
X110639Y40877D01*
X110589Y40864D01*
X110539Y40859D01*
X110498Y40854D01*
X110462Y40850D01*
X110430Y40845D01*
X110389D01*
X110293Y40850D01*
X110202Y40864D01*
X110116Y40882D01*
X110038Y40905D01*
X109966Y40936D01*
X109897Y40968D01*
X109834Y41000D01*
X109779Y41036D01*
X109729Y41073D01*
X109684Y41105D01*
X109647Y41141D01*
X109615Y41168D01*
X109592Y41191D01*
X109574Y41209D01*
X109565Y41223D01*
X109561Y41228D01*
X109515Y41287D01*
X109479Y41350D01*
X109442Y41410D01*
X109415Y41473D01*
X109370Y41596D01*
X109342Y41714D01*
X109333Y41765D01*
X109324Y41815D01*
X109319Y41855D01*
X109315Y41892D01*
X109310Y41924D01*
Y41947D01*
Y41960D01*
Y41965D01*
X109315Y42047D01*
X109324Y42124D01*
X109338Y42201D01*
X109356Y42270D01*
X109379Y42333D01*
X109401Y42397D01*
X109429Y42452D01*
X109451Y42502D01*
X109479Y42547D01*
X109506Y42588D01*
X109529Y42620D01*
X109552Y42652D01*
X109570Y42674D01*
X109583Y42688D01*
X109592Y42697D01*
X109597Y42702D01*
X109652Y42752D01*
X109706Y42797D01*
X109765Y42834D01*
X109825Y42866D01*
X109884Y42897D01*
X109943Y42920D01*
X110052Y42952D01*
X110102Y42966D01*
X110148Y42975D01*
X110189Y42979D01*
X110225Y42984D01*
X110252Y42988D01*
X110352D01*
X110407Y42979D01*
X110516Y42957D01*
X110616Y42925D01*
X110707Y42888D01*
X110780Y42852D01*
X110812Y42834D01*
X110839Y42820D01*
X110862Y42807D01*
X110876Y42797D01*
X110885Y42793D01*
X110889Y42788D01*
X110721Y43639D01*
X109460D01*
Y44008D01*
X111026D01*
X111331Y42388D01*
D02*
G37*
G36*
X117100Y43676D02*
X116063D01*
Y40900D01*
X115644D01*
Y43676D01*
X114607D01*
Y44049D01*
X117100D01*
Y43676D01*
D02*
G37*
G36*
X114174Y40900D02*
X113756D01*
Y42179D01*
X112950D01*
X112832Y42183D01*
X112718Y42192D01*
X112618Y42206D01*
X112527Y42224D01*
X112441Y42242D01*
X112368Y42265D01*
X112300Y42292D01*
X112241Y42320D01*
X112191Y42342D01*
X112145Y42370D01*
X112109Y42392D01*
X112081Y42415D01*
X112059Y42429D01*
X112045Y42443D01*
X112036Y42452D01*
X112031Y42456D01*
X111986Y42511D01*
X111945Y42565D01*
X111913Y42620D01*
X111881Y42679D01*
X111854Y42738D01*
X111836Y42793D01*
X111804Y42897D01*
X111795Y42948D01*
X111786Y42993D01*
X111781Y43034D01*
X111776Y43066D01*
X111772Y43098D01*
Y43116D01*
Y43130D01*
Y43134D01*
X111776Y43220D01*
X111786Y43302D01*
X111804Y43375D01*
X111818Y43439D01*
X111836Y43494D01*
X111854Y43534D01*
X111863Y43557D01*
X111867Y43566D01*
X111904Y43635D01*
X111949Y43694D01*
X111990Y43748D01*
X112031Y43789D01*
X112068Y43821D01*
X112095Y43848D01*
X112113Y43862D01*
X112122Y43867D01*
X112181Y43903D01*
X112250Y43935D01*
X112313Y43962D01*
X112373Y43985D01*
X112427Y43999D01*
X112468Y44008D01*
X112500Y44017D01*
X112509D01*
X112577Y44026D01*
X112655Y44035D01*
X112737Y44039D01*
X112814Y44044D01*
X112882Y44049D01*
X114174D01*
Y40900D01*
D02*
G37*
G36*
X89286Y39296D02*
X92061D01*
Y38878D01*
X89286D01*
Y37841D01*
X88913D01*
Y40334D01*
X89286D01*
Y39296D01*
D02*
G37*
G36*
X92061Y36990D02*
X90783D01*
Y36184D01*
X90778Y36066D01*
X90769Y35952D01*
X90756Y35852D01*
X90737Y35761D01*
X90719Y35675D01*
X90696Y35602D01*
X90669Y35534D01*
X90642Y35475D01*
X90619Y35424D01*
X90592Y35379D01*
X90569Y35342D01*
X90546Y35315D01*
X90533Y35293D01*
X90519Y35279D01*
X90510Y35270D01*
X90505Y35265D01*
X90451Y35220D01*
X90396Y35179D01*
X90342Y35147D01*
X90282Y35115D01*
X90223Y35088D01*
X90169Y35070D01*
X90064Y35038D01*
X90014Y35029D01*
X89968Y35019D01*
X89928Y35015D01*
X89896Y35010D01*
X89864Y35006D01*
X89846D01*
X89832D01*
X89827D01*
X89741Y35010D01*
X89659Y35019D01*
X89586Y35038D01*
X89522Y35051D01*
X89468Y35070D01*
X89427Y35088D01*
X89404Y35097D01*
X89395Y35101D01*
X89327Y35138D01*
X89268Y35183D01*
X89213Y35224D01*
X89172Y35265D01*
X89140Y35302D01*
X89113Y35329D01*
X89099Y35347D01*
X89095Y35356D01*
X89058Y35415D01*
X89027Y35484D01*
X88999Y35547D01*
X88977Y35606D01*
X88963Y35661D01*
X88954Y35702D01*
X88945Y35734D01*
Y35743D01*
X88936Y35811D01*
X88927Y35888D01*
X88922Y35970D01*
X88917Y36048D01*
X88913Y36116D01*
Y37408D01*
X92061D01*
Y36990D01*
D02*
G37*
G36*
X90737Y34646D02*
X90874Y34637D01*
X91001Y34624D01*
X91120Y34601D01*
X91224Y34578D01*
X91320Y34555D01*
X91406Y34528D01*
X91484Y34496D01*
X91547Y34469D01*
X91606Y34442D01*
X91652Y34419D01*
X91693Y34392D01*
X91725Y34373D01*
X91743Y34360D01*
X91757Y34351D01*
X91761Y34346D01*
X91825Y34287D01*
X91879Y34223D01*
X91925Y34159D01*
X91966Y34096D01*
X92002Y34028D01*
X92030Y33964D01*
X92052Y33900D01*
X92071Y33836D01*
X92084Y33782D01*
X92098Y33727D01*
X92107Y33682D01*
X92111Y33641D01*
Y33604D01*
X92116Y33582D01*
Y33559D01*
X92111Y33454D01*
X92093Y33359D01*
X92075Y33272D01*
X92048Y33195D01*
X92025Y33136D01*
X92002Y33090D01*
X91998Y33072D01*
X91989Y33058D01*
X91984Y33054D01*
Y33049D01*
X91930Y32972D01*
X91866Y32899D01*
X91802Y32840D01*
X91738Y32790D01*
X91679Y32749D01*
X91634Y32722D01*
X91615Y32713D01*
X91602Y32704D01*
X91597Y32699D01*
X91593D01*
X91497Y32653D01*
X91397Y32622D01*
X91306Y32599D01*
X91220Y32585D01*
X91147Y32572D01*
X91120D01*
X91092Y32567D01*
X91070D01*
X91056D01*
X91047D01*
X91042D01*
X90960Y32572D01*
X90883Y32581D01*
X90806Y32594D01*
X90737Y32608D01*
X90674Y32631D01*
X90610Y32653D01*
X90555Y32676D01*
X90505Y32704D01*
X90460Y32731D01*
X90419Y32754D01*
X90387Y32776D01*
X90355Y32799D01*
X90332Y32813D01*
X90319Y32826D01*
X90310Y32836D01*
X90305Y32840D01*
X90255Y32890D01*
X90210Y32945D01*
X90173Y33004D01*
X90141Y33058D01*
X90109Y33113D01*
X90087Y33168D01*
X90055Y33272D01*
X90041Y33318D01*
X90032Y33363D01*
X90028Y33400D01*
X90023Y33436D01*
X90018Y33463D01*
Y33500D01*
X90023Y33582D01*
X90037Y33659D01*
X90050Y33732D01*
X90069Y33795D01*
X90091Y33850D01*
X90105Y33891D01*
X90119Y33918D01*
X90123Y33923D01*
Y33928D01*
X90169Y34000D01*
X90219Y34064D01*
X90269Y34123D01*
X90323Y34169D01*
X90369Y34210D01*
X90405Y34241D01*
X90433Y34260D01*
X90437Y34264D01*
X90355D01*
X90273Y34260D01*
X90201Y34255D01*
X90128Y34246D01*
X90064Y34241D01*
X90005Y34232D01*
X89950Y34223D01*
X89900Y34210D01*
X89855Y34201D01*
X89818Y34191D01*
X89786Y34182D01*
X89759Y34178D01*
X89741Y34169D01*
X89727Y34164D01*
X89718Y34159D01*
X89714D01*
X89623Y34114D01*
X89541Y34069D01*
X89477Y34018D01*
X89422Y33973D01*
X89377Y33932D01*
X89345Y33900D01*
X89327Y33877D01*
X89322Y33868D01*
X89286Y33814D01*
X89263Y33759D01*
X89245Y33705D01*
X89231Y33650D01*
X89222Y33609D01*
X89218Y33573D01*
Y33541D01*
X89227Y33459D01*
X89245Y33382D01*
X89272Y33318D01*
X89300Y33259D01*
X89331Y33213D01*
X89359Y33181D01*
X89377Y33163D01*
X89386Y33154D01*
X89427Y33122D01*
X89477Y33090D01*
X89532Y33063D01*
X89586Y33045D01*
X89636Y33027D01*
X89677Y33013D01*
X89705Y33008D01*
X89709Y33004D01*
X89714D01*
X89682Y32617D01*
X89554Y32644D01*
X89441Y32685D01*
X89341Y32731D01*
X89259Y32781D01*
X89195Y32831D01*
X89168Y32849D01*
X89145Y32872D01*
X89131Y32886D01*
X89118Y32899D01*
X89113Y32904D01*
X89109Y32908D01*
X89072Y32954D01*
X89040Y33004D01*
X88986Y33104D01*
X88949Y33204D01*
X88927Y33300D01*
X88908Y33386D01*
X88904Y33422D01*
Y33454D01*
X88899Y33482D01*
Y33518D01*
X88904Y33609D01*
X88913Y33695D01*
X88931Y33777D01*
X88954Y33855D01*
X88986Y33923D01*
X89013Y33991D01*
X89049Y34050D01*
X89081Y34105D01*
X89113Y34150D01*
X89149Y34196D01*
X89177Y34232D01*
X89204Y34260D01*
X89231Y34282D01*
X89249Y34301D01*
X89259Y34310D01*
X89263Y34314D01*
X89345Y34373D01*
X89441Y34423D01*
X89541Y34469D01*
X89645Y34510D01*
X89755Y34542D01*
X89864Y34569D01*
X89978Y34592D01*
X90082Y34610D01*
X90187Y34624D01*
X90282Y34633D01*
X90369Y34642D01*
X90442Y34646D01*
X90505D01*
X90551Y34651D01*
X90569D01*
X90583D01*
X90587D01*
X90592D01*
X90737Y34646D01*
D02*
G37*
G36*
X150443Y17153D02*
X150566Y17130D01*
X150671Y17094D01*
X150762Y17058D01*
X150803Y17035D01*
X150835Y17017D01*
X150867Y16998D01*
X150889Y16980D01*
X150908Y16967D01*
X150921Y16958D01*
X150930Y16953D01*
X150935Y16948D01*
X151021Y16862D01*
X151090Y16766D01*
X151144Y16666D01*
X151190Y16566D01*
X151217Y16480D01*
X151231Y16443D01*
X151240Y16411D01*
X151244Y16384D01*
X151249Y16366D01*
X151253Y16352D01*
Y16348D01*
X150867Y16280D01*
X150848Y16380D01*
X150821Y16466D01*
X150789Y16539D01*
X150757Y16598D01*
X150725Y16644D01*
X150698Y16675D01*
X150680Y16698D01*
X150675Y16703D01*
X150616Y16748D01*
X150553Y16785D01*
X150494Y16807D01*
X150434Y16826D01*
X150380Y16835D01*
X150339Y16844D01*
X150302D01*
X150221Y16839D01*
X150148Y16821D01*
X150084Y16798D01*
X150029Y16775D01*
X149988Y16748D01*
X149957Y16725D01*
X149934Y16707D01*
X149929Y16703D01*
X149879Y16648D01*
X149843Y16589D01*
X149820Y16530D01*
X149802Y16475D01*
X149793Y16425D01*
X149784Y16389D01*
Y16361D01*
Y16357D01*
Y16352D01*
Y16302D01*
X149793Y16257D01*
X149816Y16179D01*
X149847Y16111D01*
X149884Y16052D01*
X149920Y16011D01*
X149952Y15979D01*
X149975Y15961D01*
X149979Y15957D01*
X149984D01*
X150061Y15915D01*
X150134Y15884D01*
X150211Y15861D01*
X150280Y15847D01*
X150339Y15838D01*
X150389Y15829D01*
X150448D01*
X150466Y15834D01*
X150489D01*
X150534Y15492D01*
X150475Y15506D01*
X150421Y15515D01*
X150375Y15524D01*
X150334Y15529D01*
X150302Y15533D01*
X150261D01*
X150166Y15524D01*
X150079Y15506D01*
X150002Y15479D01*
X149938Y15447D01*
X149888Y15415D01*
X149852Y15388D01*
X149829Y15370D01*
X149820Y15360D01*
X149761Y15292D01*
X149715Y15219D01*
X149684Y15147D01*
X149665Y15074D01*
X149652Y15015D01*
X149647Y14965D01*
X149643Y14946D01*
Y14933D01*
Y14924D01*
Y14919D01*
X149652Y14819D01*
X149674Y14728D01*
X149702Y14651D01*
X149738Y14582D01*
X149775Y14528D01*
X149802Y14487D01*
X149825Y14459D01*
X149834Y14450D01*
X149907Y14387D01*
X149984Y14341D01*
X150061Y14309D01*
X150134Y14287D01*
X150198Y14273D01*
X150248Y14268D01*
X150266Y14264D01*
X150293D01*
X150375Y14268D01*
X150452Y14287D01*
X150521Y14309D01*
X150575Y14337D01*
X150621Y14359D01*
X150657Y14382D01*
X150675Y14400D01*
X150685Y14405D01*
X150739Y14469D01*
X150785Y14541D01*
X150826Y14619D01*
X150857Y14701D01*
X150880Y14769D01*
X150889Y14801D01*
X150894Y14828D01*
X150899Y14851D01*
X150903Y14869D01*
X150908Y14878D01*
Y14883D01*
X151294Y14833D01*
X151285Y14760D01*
X151272Y14692D01*
X151231Y14564D01*
X151181Y14455D01*
X151153Y14410D01*
X151126Y14364D01*
X151099Y14323D01*
X151071Y14291D01*
X151049Y14259D01*
X151026Y14237D01*
X151012Y14218D01*
X150999Y14205D01*
X150989Y14196D01*
X150985Y14191D01*
X150930Y14150D01*
X150876Y14109D01*
X150821Y14077D01*
X150762Y14050D01*
X150648Y14005D01*
X150539Y13977D01*
X150489Y13968D01*
X150443Y13959D01*
X150402Y13954D01*
X150366Y13950D01*
X150339Y13945D01*
X150298D01*
X150211Y13950D01*
X150134Y13959D01*
X150057Y13973D01*
X149984Y13991D01*
X149916Y14014D01*
X149856Y14036D01*
X149797Y14064D01*
X149747Y14091D01*
X149697Y14114D01*
X149656Y14141D01*
X149620Y14164D01*
X149593Y14187D01*
X149570Y14205D01*
X149552Y14218D01*
X149543Y14228D01*
X149538Y14232D01*
X149483Y14287D01*
X149438Y14346D01*
X149397Y14405D01*
X149361Y14464D01*
X149333Y14519D01*
X149306Y14578D01*
X149270Y14687D01*
X149260Y14737D01*
X149251Y14783D01*
X149242Y14824D01*
X149238Y14860D01*
X149233Y14887D01*
Y14910D01*
Y14924D01*
Y14928D01*
X149238Y15037D01*
X149256Y15137D01*
X149283Y15224D01*
X149311Y15297D01*
X149338Y15356D01*
X149365Y15401D01*
X149383Y15429D01*
X149388Y15438D01*
X149451Y15506D01*
X149520Y15565D01*
X149593Y15611D01*
X149665Y15647D01*
X149729Y15674D01*
X149779Y15693D01*
X149797Y15697D01*
X149811Y15702D01*
X149820Y15706D01*
X149825D01*
X149747Y15747D01*
X149684Y15788D01*
X149629Y15834D01*
X149583Y15875D01*
X149547Y15911D01*
X149520Y15943D01*
X149506Y15961D01*
X149502Y15970D01*
X149465Y16034D01*
X149438Y16098D01*
X149415Y16161D01*
X149401Y16220D01*
X149392Y16270D01*
X149388Y16307D01*
Y16334D01*
Y16343D01*
X149392Y16421D01*
X149406Y16498D01*
X149424Y16566D01*
X149447Y16625D01*
X149470Y16675D01*
X149488Y16716D01*
X149502Y16739D01*
X149506Y16748D01*
X149552Y16816D01*
X149606Y16876D01*
X149661Y16926D01*
X149715Y16971D01*
X149761Y17003D01*
X149802Y17030D01*
X149829Y17044D01*
X149834Y17049D01*
X149838D01*
X149920Y17085D01*
X150002Y17112D01*
X150084Y17135D01*
X150157Y17149D01*
X150216Y17158D01*
X150266Y17162D01*
X150380D01*
X150443Y17153D01*
D02*
G37*
G36*
X157000Y16775D02*
X155963D01*
Y14000D01*
X155544D01*
Y16775D01*
X154507D01*
Y17149D01*
X157000D01*
Y16775D01*
D02*
G37*
G36*
X154074Y14000D02*
X153656D01*
Y15279D01*
X152850D01*
X152732Y15283D01*
X152618Y15292D01*
X152518Y15306D01*
X152427Y15324D01*
X152341Y15342D01*
X152268Y15365D01*
X152200Y15392D01*
X152141Y15420D01*
X152091Y15442D01*
X152045Y15470D01*
X152009Y15492D01*
X151981Y15515D01*
X151959Y15529D01*
X151945Y15542D01*
X151936Y15552D01*
X151931Y15556D01*
X151886Y15611D01*
X151845Y15665D01*
X151813Y15720D01*
X151781Y15779D01*
X151754Y15838D01*
X151736Y15893D01*
X151704Y15998D01*
X151695Y16048D01*
X151686Y16093D01*
X151681Y16134D01*
X151676Y16166D01*
X151672Y16198D01*
Y16216D01*
Y16229D01*
Y16234D01*
X151676Y16320D01*
X151686Y16402D01*
X151704Y16475D01*
X151717Y16539D01*
X151736Y16593D01*
X151754Y16635D01*
X151763Y16657D01*
X151768Y16666D01*
X151804Y16735D01*
X151849Y16794D01*
X151890Y16848D01*
X151931Y16889D01*
X151968Y16921D01*
X151995Y16948D01*
X152013Y16962D01*
X152022Y16967D01*
X152081Y17003D01*
X152150Y17035D01*
X152213Y17062D01*
X152273Y17085D01*
X152327Y17099D01*
X152368Y17108D01*
X152400Y17117D01*
X152409D01*
X152477Y17126D01*
X152555Y17135D01*
X152637Y17140D01*
X152714Y17144D01*
X152782Y17149D01*
X154074D01*
Y14000D01*
D02*
G37*
G36*
X172739Y25385D02*
X172789Y25312D01*
X172848Y25239D01*
X172902Y25176D01*
X172957Y25121D01*
X172998Y25076D01*
X173016Y25062D01*
X173030Y25048D01*
X173034Y25044D01*
X173039Y25039D01*
X173134Y24962D01*
X173230Y24889D01*
X173321Y24825D01*
X173412Y24775D01*
X173489Y24730D01*
X173521Y24712D01*
X173548Y24698D01*
X173571Y24684D01*
X173590Y24680D01*
X173599Y24671D01*
X173603D01*
Y24297D01*
X173535Y24325D01*
X173467Y24357D01*
X173398Y24388D01*
X173335Y24420D01*
X173280Y24448D01*
X173234Y24470D01*
X173207Y24489D01*
X173203Y24493D01*
X173198D01*
X173116Y24543D01*
X173044Y24593D01*
X172980Y24639D01*
X172930Y24680D01*
X172884Y24712D01*
X172857Y24739D01*
X172834Y24757D01*
X172830Y24761D01*
Y22300D01*
X172443D01*
Y25462D01*
X172693D01*
X172739Y25385D01*
D02*
G37*
G36*
X179600Y25076D02*
X178563D01*
Y22300D01*
X178144D01*
Y25076D01*
X177107D01*
Y25449D01*
X179600D01*
Y25076D01*
D02*
G37*
G36*
X176674Y22300D02*
X176256D01*
Y23579D01*
X175450D01*
X175332Y23583D01*
X175218Y23592D01*
X175118Y23606D01*
X175027Y23624D01*
X174941Y23642D01*
X174868Y23665D01*
X174800Y23692D01*
X174741Y23720D01*
X174691Y23742D01*
X174645Y23770D01*
X174609Y23792D01*
X174581Y23815D01*
X174559Y23829D01*
X174545Y23842D01*
X174536Y23852D01*
X174531Y23856D01*
X174486Y23911D01*
X174445Y23965D01*
X174413Y24020D01*
X174381Y24079D01*
X174354Y24138D01*
X174336Y24193D01*
X174304Y24297D01*
X174295Y24348D01*
X174286Y24393D01*
X174281Y24434D01*
X174276Y24466D01*
X174272Y24498D01*
Y24516D01*
Y24530D01*
Y24534D01*
X174276Y24621D01*
X174286Y24702D01*
X174304Y24775D01*
X174318Y24839D01*
X174336Y24893D01*
X174354Y24935D01*
X174363Y24957D01*
X174367Y24966D01*
X174404Y25034D01*
X174449Y25094D01*
X174490Y25148D01*
X174531Y25189D01*
X174568Y25221D01*
X174595Y25248D01*
X174613Y25262D01*
X174622Y25267D01*
X174681Y25303D01*
X174750Y25335D01*
X174813Y25362D01*
X174873Y25385D01*
X174927Y25399D01*
X174968Y25408D01*
X175000Y25417D01*
X175009D01*
X175077Y25426D01*
X175155Y25435D01*
X175237Y25440D01*
X175314Y25444D01*
X175382Y25449D01*
X176674D01*
Y22300D01*
D02*
G37*
G36*
X151639Y54558D02*
X151716Y54553D01*
X151789Y54540D01*
X151857Y54526D01*
X151921Y54508D01*
X151980Y54489D01*
X152035Y54467D01*
X152085Y54444D01*
X152130Y54421D01*
X152167Y54399D01*
X152199Y54380D01*
X152226Y54362D01*
X152249Y54348D01*
X152262Y54335D01*
X152271Y54330D01*
X152276Y54326D01*
X152321Y54280D01*
X152362Y54230D01*
X152403Y54176D01*
X152435Y54121D01*
X152490Y54012D01*
X152526Y53903D01*
X152540Y53852D01*
X152553Y53802D01*
X152562Y53762D01*
X152572Y53725D01*
X152576Y53693D01*
Y53671D01*
X152581Y53657D01*
Y53652D01*
X152185Y53611D01*
X152176Y53716D01*
X152157Y53807D01*
X152130Y53889D01*
X152098Y53952D01*
X152071Y54007D01*
X152044Y54044D01*
X152025Y54066D01*
X152016Y54075D01*
X151948Y54130D01*
X151875Y54171D01*
X151798Y54203D01*
X151730Y54221D01*
X151666Y54235D01*
X151611Y54239D01*
X151593Y54244D01*
X151566D01*
X151470Y54239D01*
X151384Y54221D01*
X151311Y54194D01*
X151248Y54166D01*
X151198Y54135D01*
X151166Y54112D01*
X151143Y54094D01*
X151134Y54084D01*
X151079Y54021D01*
X151038Y53957D01*
X151006Y53893D01*
X150988Y53830D01*
X150975Y53780D01*
X150970Y53734D01*
X150965Y53707D01*
Y53702D01*
Y53698D01*
X150975Y53616D01*
X150993Y53529D01*
X151024Y53452D01*
X151056Y53379D01*
X151093Y53320D01*
X151125Y53270D01*
X151134Y53252D01*
X151143Y53238D01*
X151152Y53234D01*
Y53229D01*
X151188Y53179D01*
X151234Y53129D01*
X151284Y53074D01*
X151339Y53020D01*
X151452Y52911D01*
X151566Y52801D01*
X151625Y52751D01*
X151675Y52706D01*
X151725Y52665D01*
X151766Y52628D01*
X151798Y52601D01*
X151825Y52578D01*
X151844Y52565D01*
X151848Y52560D01*
X151962Y52465D01*
X152067Y52374D01*
X152153Y52292D01*
X152221Y52224D01*
X152280Y52164D01*
X152321Y52123D01*
X152344Y52096D01*
X152353Y52092D01*
Y52087D01*
X152417Y52010D01*
X152467Y51937D01*
X152512Y51864D01*
X152549Y51800D01*
X152576Y51746D01*
X152594Y51705D01*
X152603Y51678D01*
X152608Y51673D01*
Y51668D01*
X152626Y51618D01*
X152635Y51573D01*
X152644Y51527D01*
X152649Y51486D01*
X152653Y51450D01*
Y51423D01*
Y51405D01*
Y51400D01*
X150565D01*
Y51773D01*
X152117D01*
X152062Y51850D01*
X152035Y51882D01*
X152012Y51914D01*
X151989Y51941D01*
X151971Y51960D01*
X151957Y51973D01*
X151953Y51978D01*
X151930Y52001D01*
X151903Y52023D01*
X151839Y52083D01*
X151766Y52151D01*
X151689Y52219D01*
X151616Y52278D01*
X151584Y52305D01*
X151557Y52333D01*
X151534Y52351D01*
X151516Y52365D01*
X151507Y52374D01*
X151502Y52378D01*
X151429Y52442D01*
X151357Y52501D01*
X151293Y52560D01*
X151234Y52610D01*
X151179Y52660D01*
X151134Y52706D01*
X151088Y52747D01*
X151052Y52783D01*
X151015Y52820D01*
X150988Y52847D01*
X150965Y52870D01*
X150943Y52892D01*
X150920Y52920D01*
X150911Y52929D01*
X150847Y53006D01*
X150793Y53074D01*
X150747Y53143D01*
X150711Y53197D01*
X150683Y53247D01*
X150665Y53284D01*
X150656Y53306D01*
X150651Y53316D01*
X150624Y53384D01*
X150606Y53452D01*
X150588Y53516D01*
X150579Y53570D01*
X150574Y53620D01*
X150570Y53657D01*
Y53680D01*
Y53689D01*
X150574Y53757D01*
X150583Y53821D01*
X150592Y53884D01*
X150610Y53939D01*
X150656Y54048D01*
X150701Y54135D01*
X150729Y54176D01*
X150751Y54207D01*
X150774Y54239D01*
X150797Y54262D01*
X150815Y54280D01*
X150824Y54298D01*
X150833Y54303D01*
X150838Y54307D01*
X150888Y54353D01*
X150943Y54394D01*
X151002Y54426D01*
X151061Y54453D01*
X151179Y54499D01*
X151298Y54530D01*
X151348Y54540D01*
X151398Y54549D01*
X151443Y54553D01*
X151479Y54558D01*
X151511Y54562D01*
X151557D01*
X151639Y54558D01*
D02*
G37*
G36*
X158300Y54176D02*
X157263D01*
Y51400D01*
X156844D01*
Y54176D01*
X155807D01*
Y54549D01*
X158300D01*
Y54176D01*
D02*
G37*
G36*
X155374Y51400D02*
X154956D01*
Y52679D01*
X154150D01*
X154032Y52683D01*
X153918Y52692D01*
X153818Y52706D01*
X153727Y52724D01*
X153641Y52742D01*
X153568Y52765D01*
X153500Y52792D01*
X153441Y52820D01*
X153391Y52842D01*
X153345Y52870D01*
X153309Y52892D01*
X153281Y52915D01*
X153259Y52929D01*
X153245Y52942D01*
X153236Y52952D01*
X153231Y52956D01*
X153186Y53011D01*
X153145Y53065D01*
X153113Y53120D01*
X153081Y53179D01*
X153054Y53238D01*
X153036Y53293D01*
X153004Y53398D01*
X152995Y53448D01*
X152986Y53493D01*
X152981Y53534D01*
X152977Y53566D01*
X152972Y53598D01*
Y53616D01*
Y53629D01*
Y53634D01*
X152977Y53720D01*
X152986Y53802D01*
X153004Y53875D01*
X153017Y53939D01*
X153036Y53993D01*
X153054Y54035D01*
X153063Y54057D01*
X153068Y54066D01*
X153104Y54135D01*
X153149Y54194D01*
X153190Y54248D01*
X153231Y54289D01*
X153268Y54321D01*
X153295Y54348D01*
X153313Y54362D01*
X153322Y54367D01*
X153381Y54403D01*
X153450Y54435D01*
X153513Y54462D01*
X153573Y54485D01*
X153627Y54499D01*
X153668Y54508D01*
X153700Y54517D01*
X153709D01*
X153777Y54526D01*
X153855Y54535D01*
X153937Y54540D01*
X154014Y54544D01*
X154082Y54549D01*
X155374D01*
Y51400D01*
D02*
G37*
G36*
X126400Y13275D02*
X125363D01*
Y10500D01*
X124944D01*
Y13275D01*
X123907D01*
Y13649D01*
X126400D01*
Y13275D01*
D02*
G37*
G36*
X123474Y10500D02*
X123056D01*
Y11778D01*
X122250D01*
X122132Y11783D01*
X122018Y11792D01*
X121918Y11806D01*
X121827Y11824D01*
X121741Y11842D01*
X121668Y11865D01*
X121600Y11892D01*
X121541Y11920D01*
X121491Y11942D01*
X121445Y11970D01*
X121409Y11992D01*
X121381Y12015D01*
X121359Y12029D01*
X121345Y12042D01*
X121336Y12052D01*
X121331Y12056D01*
X121286Y12111D01*
X121245Y12165D01*
X121213Y12220D01*
X121181Y12279D01*
X121154Y12338D01*
X121136Y12393D01*
X121104Y12498D01*
X121095Y12548D01*
X121086Y12593D01*
X121081Y12634D01*
X121077Y12666D01*
X121072Y12698D01*
Y12716D01*
Y12730D01*
Y12734D01*
X121077Y12821D01*
X121086Y12902D01*
X121104Y12975D01*
X121117Y13039D01*
X121136Y13093D01*
X121154Y13135D01*
X121163Y13157D01*
X121168Y13166D01*
X121204Y13235D01*
X121249Y13294D01*
X121290Y13348D01*
X121331Y13389D01*
X121368Y13421D01*
X121395Y13448D01*
X121413Y13462D01*
X121422Y13467D01*
X121481Y13503D01*
X121550Y13535D01*
X121613Y13562D01*
X121673Y13585D01*
X121727Y13599D01*
X121768Y13608D01*
X121800Y13617D01*
X121809D01*
X121877Y13626D01*
X121955Y13635D01*
X122037Y13640D01*
X122114Y13644D01*
X122182Y13649D01*
X123474D01*
Y10500D01*
D02*
G37*
G36*
X120831Y11610D02*
Y11255D01*
X119461D01*
Y10500D01*
X119074D01*
Y11255D01*
X118647D01*
Y11610D01*
X119074D01*
Y13649D01*
X119388D01*
X120831Y11610D01*
D02*
G37*
G36*
X98800Y12675D02*
X97763D01*
Y9900D01*
X97344D01*
Y12675D01*
X96307D01*
Y13049D01*
X98800D01*
Y12675D01*
D02*
G37*
G36*
X95874Y9900D02*
X95456D01*
Y11179D01*
X94650D01*
X94532Y11183D01*
X94418Y11192D01*
X94318Y11206D01*
X94227Y11224D01*
X94141Y11242D01*
X94068Y11265D01*
X94000Y11292D01*
X93941Y11320D01*
X93891Y11342D01*
X93845Y11370D01*
X93809Y11392D01*
X93781Y11415D01*
X93759Y11429D01*
X93745Y11442D01*
X93736Y11452D01*
X93731Y11456D01*
X93686Y11511D01*
X93645Y11565D01*
X93613Y11620D01*
X93581Y11679D01*
X93554Y11738D01*
X93536Y11793D01*
X93504Y11897D01*
X93495Y11947D01*
X93486Y11993D01*
X93481Y12034D01*
X93476Y12066D01*
X93472Y12098D01*
Y12116D01*
Y12129D01*
Y12134D01*
X93476Y12220D01*
X93486Y12302D01*
X93504Y12375D01*
X93517Y12439D01*
X93536Y12494D01*
X93554Y12534D01*
X93563Y12557D01*
X93568Y12566D01*
X93604Y12635D01*
X93649Y12694D01*
X93690Y12748D01*
X93731Y12789D01*
X93768Y12821D01*
X93795Y12848D01*
X93813Y12862D01*
X93822Y12867D01*
X93881Y12903D01*
X93950Y12935D01*
X94013Y12962D01*
X94073Y12985D01*
X94127Y12999D01*
X94168Y13008D01*
X94200Y13017D01*
X94209D01*
X94277Y13026D01*
X94355Y13035D01*
X94437Y13039D01*
X94514Y13044D01*
X94582Y13049D01*
X95874D01*
Y9900D01*
D02*
G37*
G36*
X93072Y12635D02*
X91529D01*
X91638Y12503D01*
X91743Y12361D01*
X91834Y12225D01*
X91920Y12093D01*
X91957Y12034D01*
X91989Y11979D01*
X92020Y11929D01*
X92043Y11888D01*
X92062Y11852D01*
X92075Y11829D01*
X92084Y11811D01*
X92089Y11806D01*
X92180Y11625D01*
X92262Y11442D01*
X92330Y11270D01*
X92357Y11192D01*
X92384Y11115D01*
X92412Y11047D01*
X92430Y10983D01*
X92448Y10928D01*
X92462Y10883D01*
X92475Y10842D01*
X92485Y10814D01*
X92489Y10796D01*
Y10792D01*
X92535Y10605D01*
X92553Y10514D01*
X92567Y10432D01*
X92580Y10355D01*
X92594Y10278D01*
X92603Y10214D01*
X92612Y10150D01*
X92616Y10096D01*
X92621Y10046D01*
X92626Y10000D01*
Y9964D01*
X92630Y9936D01*
Y9918D01*
Y9905D01*
Y9900D01*
X92234D01*
X92221Y10073D01*
X92198Y10232D01*
X92175Y10378D01*
X92162Y10446D01*
X92148Y10510D01*
X92139Y10564D01*
X92125Y10614D01*
X92116Y10660D01*
X92107Y10696D01*
X92098Y10724D01*
X92093Y10746D01*
X92089Y10760D01*
Y10764D01*
X92020Y10974D01*
X91948Y11169D01*
X91911Y11265D01*
X91875Y11356D01*
X91834Y11438D01*
X91798Y11520D01*
X91766Y11593D01*
X91734Y11656D01*
X91707Y11711D01*
X91684Y11761D01*
X91661Y11802D01*
X91647Y11829D01*
X91638Y11847D01*
X91634Y11852D01*
X91579Y11947D01*
X91524Y12043D01*
X91470Y12129D01*
X91415Y12211D01*
X91365Y12284D01*
X91315Y12357D01*
X91265Y12421D01*
X91224Y12475D01*
X91183Y12530D01*
X91147Y12575D01*
X91110Y12612D01*
X91083Y12644D01*
X91065Y12671D01*
X91047Y12689D01*
X91038Y12698D01*
X91033Y12703D01*
Y13008D01*
X93072D01*
Y12635D01*
D02*
G37*
G36*
X132828Y53058D02*
X132905Y53053D01*
X132978Y53039D01*
X133046Y53026D01*
X133110Y53008D01*
X133169Y52989D01*
X133224Y52967D01*
X133274Y52944D01*
X133319Y52921D01*
X133356Y52899D01*
X133387Y52880D01*
X133415Y52862D01*
X133438Y52848D01*
X133451Y52835D01*
X133460Y52830D01*
X133465Y52826D01*
X133510Y52780D01*
X133551Y52730D01*
X133592Y52675D01*
X133624Y52621D01*
X133679Y52512D01*
X133715Y52403D01*
X133729Y52352D01*
X133742Y52302D01*
X133751Y52262D01*
X133761Y52225D01*
X133765Y52193D01*
Y52170D01*
X133770Y52157D01*
Y52152D01*
X133374Y52111D01*
X133365Y52216D01*
X133347Y52307D01*
X133319Y52389D01*
X133287Y52452D01*
X133260Y52507D01*
X133233Y52544D01*
X133215Y52566D01*
X133205Y52575D01*
X133137Y52630D01*
X133064Y52671D01*
X132987Y52703D01*
X132919Y52721D01*
X132855Y52735D01*
X132800Y52739D01*
X132782Y52744D01*
X132755D01*
X132659Y52739D01*
X132573Y52721D01*
X132500Y52694D01*
X132437Y52666D01*
X132387Y52635D01*
X132355Y52612D01*
X132332Y52594D01*
X132323Y52584D01*
X132268Y52521D01*
X132227Y52457D01*
X132195Y52393D01*
X132177Y52330D01*
X132164Y52280D01*
X132159Y52234D01*
X132154Y52207D01*
Y52202D01*
Y52198D01*
X132164Y52116D01*
X132182Y52029D01*
X132214Y51952D01*
X132246Y51879D01*
X132282Y51820D01*
X132314Y51770D01*
X132323Y51752D01*
X132332Y51738D01*
X132341Y51734D01*
Y51729D01*
X132377Y51679D01*
X132423Y51629D01*
X132473Y51574D01*
X132527Y51520D01*
X132641Y51411D01*
X132755Y51301D01*
X132814Y51251D01*
X132864Y51206D01*
X132914Y51165D01*
X132955Y51129D01*
X132987Y51101D01*
X133014Y51078D01*
X133033Y51065D01*
X133037Y51060D01*
X133151Y50965D01*
X133256Y50874D01*
X133342Y50792D01*
X133410Y50724D01*
X133469Y50664D01*
X133510Y50624D01*
X133533Y50596D01*
X133542Y50592D01*
Y50587D01*
X133606Y50510D01*
X133656Y50437D01*
X133701Y50364D01*
X133738Y50300D01*
X133765Y50246D01*
X133783Y50205D01*
X133792Y50178D01*
X133797Y50173D01*
Y50169D01*
X133815Y50118D01*
X133824Y50073D01*
X133833Y50027D01*
X133838Y49986D01*
X133843Y49950D01*
Y49923D01*
Y49905D01*
Y49900D01*
X131754D01*
Y50273D01*
X133306D01*
X133251Y50350D01*
X133224Y50382D01*
X133201Y50414D01*
X133178Y50441D01*
X133160Y50460D01*
X133146Y50473D01*
X133142Y50478D01*
X133119Y50501D01*
X133092Y50523D01*
X133028Y50582D01*
X132955Y50651D01*
X132878Y50719D01*
X132805Y50778D01*
X132773Y50805D01*
X132746Y50833D01*
X132723Y50851D01*
X132705Y50865D01*
X132696Y50874D01*
X132691Y50878D01*
X132619Y50942D01*
X132546Y51001D01*
X132482Y51060D01*
X132423Y51110D01*
X132368Y51160D01*
X132323Y51206D01*
X132277Y51247D01*
X132241Y51283D01*
X132204Y51320D01*
X132177Y51347D01*
X132154Y51370D01*
X132132Y51392D01*
X132109Y51420D01*
X132100Y51429D01*
X132036Y51506D01*
X131982Y51574D01*
X131936Y51643D01*
X131900Y51697D01*
X131872Y51747D01*
X131854Y51784D01*
X131845Y51806D01*
X131841Y51815D01*
X131813Y51884D01*
X131795Y51952D01*
X131777Y52016D01*
X131768Y52070D01*
X131763Y52120D01*
X131759Y52157D01*
Y52179D01*
Y52189D01*
X131763Y52257D01*
X131772Y52321D01*
X131781Y52384D01*
X131799Y52439D01*
X131845Y52548D01*
X131891Y52635D01*
X131918Y52675D01*
X131941Y52707D01*
X131963Y52739D01*
X131986Y52762D01*
X132004Y52780D01*
X132013Y52798D01*
X132023Y52803D01*
X132027Y52807D01*
X132077Y52853D01*
X132132Y52894D01*
X132191Y52926D01*
X132250Y52953D01*
X132368Y52999D01*
X132487Y53030D01*
X132537Y53039D01*
X132587Y53049D01*
X132632Y53053D01*
X132669Y53058D01*
X132701Y53062D01*
X132746D01*
X132828Y53058D01*
D02*
G37*
G36*
X136800Y49900D02*
X136381D01*
Y51297D01*
X135845D01*
X135794Y51292D01*
X135758D01*
X135726Y51288D01*
X135703Y51283D01*
X135685D01*
X135676Y51279D01*
X135672D01*
X135599Y51256D01*
X135567Y51242D01*
X135540Y51229D01*
X135512Y51215D01*
X135494Y51206D01*
X135485Y51201D01*
X135480Y51197D01*
X135444Y51170D01*
X135408Y51138D01*
X135339Y51069D01*
X135308Y51038D01*
X135285Y51010D01*
X135271Y50992D01*
X135267Y50987D01*
X135221Y50924D01*
X135171Y50855D01*
X135121Y50783D01*
X135071Y50714D01*
X135030Y50651D01*
X134998Y50601D01*
X134985Y50582D01*
X134976Y50569D01*
X134966Y50560D01*
Y50555D01*
X134552Y49900D01*
X134034D01*
X134575Y50755D01*
X134639Y50846D01*
X134698Y50928D01*
X134757Y50997D01*
X134807Y51060D01*
X134853Y51106D01*
X134889Y51142D01*
X134912Y51165D01*
X134921Y51174D01*
X134957Y51201D01*
X134998Y51233D01*
X135080Y51283D01*
X135117Y51301D01*
X135144Y51320D01*
X135162Y51329D01*
X135171Y51333D01*
X135089Y51347D01*
X135012Y51361D01*
X134944Y51383D01*
X134875Y51402D01*
X134816Y51424D01*
X134762Y51451D01*
X134712Y51474D01*
X134666Y51497D01*
X134630Y51524D01*
X134593Y51547D01*
X134566Y51565D01*
X134543Y51583D01*
X134525Y51597D01*
X134511Y51611D01*
X134507Y51615D01*
X134502Y51620D01*
X134466Y51665D01*
X134429Y51711D01*
X134375Y51806D01*
X134338Y51902D01*
X134311Y51993D01*
X134293Y52070D01*
X134288Y52102D01*
Y52134D01*
X134284Y52157D01*
Y52175D01*
Y52184D01*
Y52189D01*
X134288Y52284D01*
X134302Y52371D01*
X134325Y52452D01*
X134348Y52521D01*
X134375Y52580D01*
X134393Y52626D01*
X134411Y52653D01*
X134416Y52657D01*
Y52662D01*
X134470Y52735D01*
X134525Y52798D01*
X134584Y52853D01*
X134639Y52894D01*
X134689Y52926D01*
X134730Y52944D01*
X134757Y52958D01*
X134762Y52962D01*
X134766D01*
X134807Y52976D01*
X134857Y52989D01*
X134957Y53012D01*
X135066Y53026D01*
X135167Y53039D01*
X135262Y53044D01*
X135303D01*
X135339Y53049D01*
X136800D01*
Y49900D01*
D02*
G37*
G36*
X79120Y50788D02*
X78756Y50738D01*
X78724Y50788D01*
X78683Y50829D01*
X78646Y50870D01*
X78610Y50902D01*
X78574Y50924D01*
X78546Y50947D01*
X78528Y50956D01*
X78524Y50961D01*
X78464Y50988D01*
X78405Y51011D01*
X78351Y51025D01*
X78296Y51038D01*
X78251Y51043D01*
X78214Y51047D01*
X78128D01*
X78073Y51038D01*
X77978Y51015D01*
X77896Y50984D01*
X77823Y50952D01*
X77768Y50915D01*
X77727Y50883D01*
X77705Y50861D01*
X77696Y50856D01*
Y50852D01*
X77632Y50774D01*
X77586Y50692D01*
X77554Y50606D01*
X77532Y50519D01*
X77518Y50447D01*
X77513Y50415D01*
Y50388D01*
X77509Y50365D01*
Y50346D01*
Y50337D01*
Y50333D01*
Y50269D01*
X77518Y50210D01*
X77541Y50096D01*
X77573Y50001D01*
X77605Y49923D01*
X77641Y49860D01*
X77673Y49810D01*
X77686Y49796D01*
X77696Y49782D01*
X77700Y49778D01*
X77705Y49773D01*
X77741Y49737D01*
X77777Y49705D01*
X77859Y49650D01*
X77937Y49614D01*
X78014Y49591D01*
X78078Y49573D01*
X78132Y49569D01*
X78150Y49564D01*
X78178D01*
X78264Y49569D01*
X78342Y49587D01*
X78410Y49609D01*
X78464Y49637D01*
X78514Y49664D01*
X78551Y49687D01*
X78569Y49705D01*
X78578Y49709D01*
X78633Y49773D01*
X78678Y49841D01*
X78715Y49919D01*
X78742Y49987D01*
X78760Y50055D01*
X78774Y50105D01*
X78778Y50128D01*
X78783Y50142D01*
Y50151D01*
Y50155D01*
X79188Y50124D01*
X79179Y50051D01*
X79165Y49983D01*
X79124Y49855D01*
X79074Y49746D01*
X79047Y49696D01*
X79020Y49655D01*
X78997Y49614D01*
X78970Y49578D01*
X78947Y49550D01*
X78924Y49527D01*
X78906Y49509D01*
X78897Y49491D01*
X78888Y49487D01*
X78883Y49482D01*
X78828Y49441D01*
X78774Y49405D01*
X78715Y49373D01*
X78656Y49345D01*
X78542Y49305D01*
X78428Y49277D01*
X78378Y49264D01*
X78328Y49259D01*
X78287Y49255D01*
X78251Y49250D01*
X78219Y49245D01*
X78178D01*
X78082Y49250D01*
X77991Y49264D01*
X77905Y49282D01*
X77827Y49305D01*
X77755Y49336D01*
X77686Y49368D01*
X77623Y49400D01*
X77568Y49437D01*
X77518Y49473D01*
X77473Y49505D01*
X77436Y49541D01*
X77404Y49569D01*
X77382Y49591D01*
X77363Y49609D01*
X77354Y49623D01*
X77350Y49628D01*
X77304Y49687D01*
X77268Y49751D01*
X77231Y49810D01*
X77204Y49873D01*
X77159Y49996D01*
X77131Y50114D01*
X77122Y50165D01*
X77113Y50215D01*
X77109Y50256D01*
X77104Y50292D01*
X77100Y50324D01*
Y50346D01*
Y50360D01*
Y50365D01*
X77104Y50447D01*
X77113Y50524D01*
X77127Y50601D01*
X77145Y50669D01*
X77168Y50733D01*
X77190Y50797D01*
X77218Y50852D01*
X77241Y50902D01*
X77268Y50947D01*
X77295Y50988D01*
X77318Y51020D01*
X77341Y51052D01*
X77359Y51074D01*
X77372Y51088D01*
X77382Y51097D01*
X77386Y51102D01*
X77441Y51152D01*
X77495Y51197D01*
X77554Y51234D01*
X77614Y51266D01*
X77673Y51297D01*
X77732Y51320D01*
X77841Y51352D01*
X77891Y51366D01*
X77937Y51375D01*
X77978Y51379D01*
X78014Y51384D01*
X78041Y51389D01*
X78141D01*
X78196Y51379D01*
X78305Y51357D01*
X78405Y51325D01*
X78496Y51288D01*
X78569Y51252D01*
X78601Y51234D01*
X78628Y51220D01*
X78651Y51206D01*
X78665Y51197D01*
X78674Y51193D01*
X78678Y51188D01*
X78510Y52039D01*
X77250D01*
Y52408D01*
X78815D01*
X79120Y50788D01*
D02*
G37*
G36*
X82200Y49300D02*
X81781D01*
Y50697D01*
X81244D01*
X81194Y50692D01*
X81158D01*
X81126Y50688D01*
X81103Y50683D01*
X81085D01*
X81076Y50679D01*
X81072D01*
X80999Y50656D01*
X80967Y50642D01*
X80940Y50629D01*
X80912Y50615D01*
X80894Y50606D01*
X80885Y50601D01*
X80880Y50597D01*
X80844Y50569D01*
X80808Y50538D01*
X80739Y50469D01*
X80708Y50437D01*
X80685Y50410D01*
X80671Y50392D01*
X80667Y50388D01*
X80621Y50324D01*
X80571Y50256D01*
X80521Y50183D01*
X80471Y50114D01*
X80430Y50051D01*
X80398Y50001D01*
X80385Y49983D01*
X80375Y49969D01*
X80366Y49960D01*
Y49955D01*
X79952Y49300D01*
X79434D01*
X79975Y50155D01*
X80039Y50246D01*
X80098Y50328D01*
X80157Y50397D01*
X80207Y50460D01*
X80253Y50506D01*
X80289Y50542D01*
X80312Y50565D01*
X80321Y50574D01*
X80357Y50601D01*
X80398Y50633D01*
X80480Y50683D01*
X80516Y50701D01*
X80544Y50720D01*
X80562Y50729D01*
X80571Y50733D01*
X80489Y50747D01*
X80412Y50761D01*
X80344Y50783D01*
X80275Y50801D01*
X80216Y50824D01*
X80162Y50852D01*
X80111Y50874D01*
X80066Y50897D01*
X80030Y50924D01*
X79993Y50947D01*
X79966Y50965D01*
X79943Y50984D01*
X79925Y50997D01*
X79911Y51011D01*
X79907Y51015D01*
X79902Y51020D01*
X79866Y51065D01*
X79829Y51111D01*
X79775Y51206D01*
X79738Y51302D01*
X79711Y51393D01*
X79693Y51470D01*
X79688Y51502D01*
Y51534D01*
X79684Y51557D01*
Y51575D01*
Y51584D01*
Y51589D01*
X79688Y51684D01*
X79702Y51771D01*
X79725Y51853D01*
X79748Y51921D01*
X79775Y51980D01*
X79793Y52026D01*
X79811Y52053D01*
X79816Y52057D01*
Y52062D01*
X79870Y52135D01*
X79925Y52198D01*
X79984Y52253D01*
X80039Y52294D01*
X80089Y52326D01*
X80130Y52344D01*
X80157Y52358D01*
X80162Y52362D01*
X80166D01*
X80207Y52376D01*
X80257Y52389D01*
X80357Y52412D01*
X80466Y52426D01*
X80567Y52439D01*
X80662Y52444D01*
X80703D01*
X80739Y52449D01*
X82200D01*
Y49300D01*
D02*
G37*
G36*
X140962Y18518D02*
X140885Y18472D01*
X140812Y18422D01*
X140739Y18363D01*
X140676Y18308D01*
X140621Y18254D01*
X140576Y18213D01*
X140562Y18195D01*
X140548Y18181D01*
X140544Y18177D01*
X140539Y18172D01*
X140462Y18077D01*
X140389Y17981D01*
X140325Y17890D01*
X140275Y17799D01*
X140230Y17722D01*
X140211Y17690D01*
X140198Y17662D01*
X140184Y17640D01*
X140180Y17621D01*
X140171Y17612D01*
Y17608D01*
X139797D01*
X139825Y17676D01*
X139857Y17744D01*
X139888Y17813D01*
X139920Y17876D01*
X139948Y17931D01*
X139970Y17976D01*
X139989Y18004D01*
X139993Y18008D01*
Y18013D01*
X140043Y18095D01*
X140093Y18168D01*
X140139Y18231D01*
X140180Y18281D01*
X140211Y18327D01*
X140239Y18354D01*
X140257Y18377D01*
X140262Y18381D01*
X137800D01*
Y18768D01*
X140962D01*
Y18518D01*
D02*
G37*
G36*
X138655Y16525D02*
X138746Y16461D01*
X138828Y16402D01*
X138897Y16343D01*
X138960Y16293D01*
X139006Y16247D01*
X139042Y16211D01*
X139065Y16188D01*
X139074Y16179D01*
X139101Y16143D01*
X139133Y16102D01*
X139183Y16020D01*
X139201Y15983D01*
X139220Y15956D01*
X139229Y15938D01*
X139233Y15929D01*
X139247Y16011D01*
X139260Y16088D01*
X139283Y16156D01*
X139302Y16225D01*
X139324Y16284D01*
X139351Y16338D01*
X139374Y16388D01*
X139397Y16434D01*
X139424Y16470D01*
X139447Y16507D01*
X139465Y16534D01*
X139483Y16557D01*
X139497Y16575D01*
X139511Y16589D01*
X139515Y16593D01*
X139520Y16598D01*
X139565Y16634D01*
X139611Y16671D01*
X139706Y16725D01*
X139802Y16761D01*
X139893Y16789D01*
X139970Y16807D01*
X140002Y16812D01*
X140034D01*
X140057Y16816D01*
X140075D01*
X140084D01*
X140089D01*
X140184Y16812D01*
X140271Y16798D01*
X140352Y16775D01*
X140421Y16752D01*
X140480Y16725D01*
X140525Y16707D01*
X140553Y16689D01*
X140557Y16684D01*
X140562D01*
X140635Y16630D01*
X140698Y16575D01*
X140753Y16516D01*
X140794Y16461D01*
X140826Y16411D01*
X140844Y16370D01*
X140858Y16343D01*
X140862Y16338D01*
Y16334D01*
X140876Y16293D01*
X140890Y16243D01*
X140912Y16143D01*
X140926Y16034D01*
X140939Y15933D01*
X140944Y15838D01*
Y15797D01*
X140949Y15761D01*
Y14300D01*
X137800D01*
Y14719D01*
X139197D01*
Y15256D01*
X139192Y15305D01*
Y15342D01*
X139188Y15374D01*
X139183Y15396D01*
Y15415D01*
X139179Y15424D01*
Y15428D01*
X139156Y15501D01*
X139142Y15533D01*
X139129Y15560D01*
X139115Y15588D01*
X139106Y15606D01*
X139101Y15615D01*
X139097Y15619D01*
X139069Y15656D01*
X139038Y15692D01*
X138969Y15761D01*
X138937Y15792D01*
X138910Y15815D01*
X138892Y15829D01*
X138887Y15833D01*
X138824Y15879D01*
X138756Y15929D01*
X138683Y15979D01*
X138614Y16029D01*
X138551Y16070D01*
X138501Y16102D01*
X138482Y16116D01*
X138469Y16125D01*
X138460Y16134D01*
X138455D01*
X137800Y16548D01*
Y17066D01*
X138655Y16525D01*
D02*
G37*
G36*
X84101Y22673D02*
X84178Y22664D01*
X84256Y22650D01*
X84324Y22637D01*
X84388Y22614D01*
X84451Y22591D01*
X84506Y22569D01*
X84556Y22541D01*
X84602Y22514D01*
X84643Y22491D01*
X84674Y22468D01*
X84706Y22446D01*
X84729Y22432D01*
X84743Y22419D01*
X84752Y22409D01*
X84756Y22405D01*
X84806Y22355D01*
X84852Y22300D01*
X84888Y22241D01*
X84920Y22186D01*
X84952Y22132D01*
X84975Y22077D01*
X85007Y21973D01*
X85020Y21927D01*
X85029Y21881D01*
X85034Y21845D01*
X85038Y21809D01*
X85043Y21781D01*
Y21745D01*
X85038Y21663D01*
X85025Y21586D01*
X85011Y21513D01*
X84993Y21449D01*
X84970Y21395D01*
X84957Y21354D01*
X84943Y21326D01*
X84938Y21322D01*
Y21317D01*
X84893Y21245D01*
X84843Y21181D01*
X84793Y21122D01*
X84738Y21076D01*
X84693Y21035D01*
X84656Y21003D01*
X84629Y20985D01*
X84624Y20981D01*
X84706D01*
X84788Y20985D01*
X84861Y20990D01*
X84934Y20999D01*
X84997Y21003D01*
X85057Y21012D01*
X85111Y21022D01*
X85161Y21035D01*
X85207Y21044D01*
X85243Y21054D01*
X85275Y21062D01*
X85302Y21067D01*
X85321Y21076D01*
X85334Y21081D01*
X85343Y21085D01*
X85348D01*
X85439Y21131D01*
X85521Y21176D01*
X85584Y21226D01*
X85639Y21272D01*
X85685Y21313D01*
X85716Y21345D01*
X85735Y21367D01*
X85739Y21376D01*
X85776Y21431D01*
X85798Y21486D01*
X85816Y21540D01*
X85830Y21595D01*
X85839Y21636D01*
X85844Y21672D01*
Y21704D01*
X85835Y21786D01*
X85816Y21863D01*
X85789Y21927D01*
X85762Y21986D01*
X85730Y22032D01*
X85703Y22064D01*
X85685Y22082D01*
X85675Y22091D01*
X85634Y22123D01*
X85584Y22155D01*
X85530Y22182D01*
X85475Y22200D01*
X85425Y22218D01*
X85384Y22232D01*
X85357Y22236D01*
X85352Y22241D01*
X85348D01*
X85380Y22628D01*
X85507Y22601D01*
X85621Y22559D01*
X85721Y22514D01*
X85803Y22464D01*
X85866Y22414D01*
X85894Y22396D01*
X85917Y22373D01*
X85930Y22359D01*
X85944Y22346D01*
X85948Y22341D01*
X85953Y22336D01*
X85989Y22291D01*
X86021Y22241D01*
X86076Y22141D01*
X86112Y22041D01*
X86135Y21945D01*
X86153Y21859D01*
X86158Y21822D01*
Y21790D01*
X86162Y21763D01*
Y21727D01*
X86158Y21636D01*
X86149Y21549D01*
X86130Y21467D01*
X86108Y21390D01*
X86076Y21322D01*
X86049Y21254D01*
X86012Y21194D01*
X85980Y21140D01*
X85948Y21094D01*
X85912Y21049D01*
X85885Y21012D01*
X85857Y20985D01*
X85830Y20963D01*
X85812Y20944D01*
X85803Y20935D01*
X85798Y20931D01*
X85716Y20871D01*
X85621Y20821D01*
X85521Y20776D01*
X85416Y20735D01*
X85307Y20703D01*
X85198Y20676D01*
X85084Y20653D01*
X84979Y20635D01*
X84875Y20621D01*
X84779Y20612D01*
X84693Y20603D01*
X84620Y20598D01*
X84556D01*
X84511Y20594D01*
X84492D01*
X84479D01*
X84474D01*
X84470D01*
X84324Y20598D01*
X84188Y20608D01*
X84060Y20621D01*
X83942Y20644D01*
X83837Y20667D01*
X83742Y20689D01*
X83655Y20717D01*
X83578Y20749D01*
X83514Y20776D01*
X83455Y20803D01*
X83410Y20826D01*
X83369Y20853D01*
X83337Y20871D01*
X83319Y20885D01*
X83305Y20894D01*
X83300Y20899D01*
X83237Y20958D01*
X83182Y21022D01*
X83136Y21085D01*
X83096Y21149D01*
X83059Y21217D01*
X83032Y21281D01*
X83009Y21345D01*
X82991Y21408D01*
X82977Y21463D01*
X82964Y21518D01*
X82955Y21563D01*
X82950Y21604D01*
Y21640D01*
X82945Y21663D01*
Y21686D01*
X82950Y21790D01*
X82968Y21886D01*
X82986Y21973D01*
X83014Y22050D01*
X83036Y22109D01*
X83059Y22155D01*
X83064Y22173D01*
X83073Y22186D01*
X83077Y22191D01*
Y22196D01*
X83132Y22273D01*
X83196Y22346D01*
X83259Y22405D01*
X83323Y22455D01*
X83382Y22496D01*
X83428Y22523D01*
X83446Y22532D01*
X83460Y22541D01*
X83464Y22546D01*
X83469D01*
X83564Y22591D01*
X83664Y22623D01*
X83755Y22646D01*
X83842Y22660D01*
X83915Y22673D01*
X83942D01*
X83969Y22678D01*
X83992D01*
X84006D01*
X84015D01*
X84019D01*
X84101Y22673D01*
D02*
G37*
G36*
X83855Y19825D02*
X83946Y19761D01*
X84028Y19702D01*
X84097Y19643D01*
X84160Y19593D01*
X84206Y19547D01*
X84242Y19511D01*
X84265Y19488D01*
X84274Y19479D01*
X84301Y19443D01*
X84333Y19402D01*
X84383Y19320D01*
X84401Y19284D01*
X84420Y19256D01*
X84429Y19238D01*
X84433Y19229D01*
X84447Y19311D01*
X84461Y19388D01*
X84483Y19456D01*
X84501Y19525D01*
X84524Y19584D01*
X84552Y19638D01*
X84574Y19689D01*
X84597Y19734D01*
X84624Y19770D01*
X84647Y19807D01*
X84665Y19834D01*
X84684Y19857D01*
X84697Y19875D01*
X84711Y19889D01*
X84715Y19893D01*
X84720Y19898D01*
X84765Y19934D01*
X84811Y19971D01*
X84906Y20025D01*
X85002Y20062D01*
X85093Y20089D01*
X85170Y20107D01*
X85202Y20112D01*
X85234D01*
X85257Y20116D01*
X85275D01*
X85284D01*
X85289D01*
X85384Y20112D01*
X85471Y20098D01*
X85553Y20075D01*
X85621Y20052D01*
X85680Y20025D01*
X85725Y20007D01*
X85753Y19989D01*
X85757Y19984D01*
X85762D01*
X85835Y19930D01*
X85898Y19875D01*
X85953Y19816D01*
X85994Y19761D01*
X86026Y19711D01*
X86044Y19670D01*
X86058Y19643D01*
X86062Y19638D01*
Y19634D01*
X86076Y19593D01*
X86089Y19543D01*
X86112Y19443D01*
X86126Y19333D01*
X86140Y19233D01*
X86144Y19138D01*
Y19097D01*
X86149Y19061D01*
Y17600D01*
X83000D01*
Y18019D01*
X84397D01*
Y18555D01*
X84392Y18606D01*
Y18642D01*
X84388Y18674D01*
X84383Y18697D01*
Y18715D01*
X84379Y18724D01*
Y18728D01*
X84356Y18801D01*
X84342Y18833D01*
X84329Y18860D01*
X84315Y18888D01*
X84306Y18906D01*
X84301Y18915D01*
X84297Y18920D01*
X84269Y18956D01*
X84238Y18992D01*
X84169Y19061D01*
X84137Y19092D01*
X84110Y19115D01*
X84092Y19129D01*
X84088Y19133D01*
X84024Y19179D01*
X83956Y19229D01*
X83883Y19279D01*
X83814Y19329D01*
X83751Y19370D01*
X83701Y19402D01*
X83683Y19415D01*
X83669Y19424D01*
X83660Y19434D01*
X83655D01*
X83000Y19848D01*
Y20366D01*
X83855Y19825D01*
D02*
G37*
G36*
X121033Y59653D02*
X121155Y59630D01*
X121260Y59594D01*
X121351Y59558D01*
X121392Y59535D01*
X121424Y59517D01*
X121456Y59499D01*
X121478Y59480D01*
X121497Y59467D01*
X121510Y59457D01*
X121519Y59453D01*
X121524Y59448D01*
X121610Y59362D01*
X121679Y59266D01*
X121733Y59166D01*
X121779Y59066D01*
X121806Y58980D01*
X121820Y58943D01*
X121829Y58912D01*
X121833Y58884D01*
X121838Y58866D01*
X121842Y58852D01*
Y58848D01*
X121456Y58780D01*
X121437Y58880D01*
X121410Y58966D01*
X121378Y59039D01*
X121346Y59098D01*
X121315Y59144D01*
X121287Y59175D01*
X121269Y59198D01*
X121265Y59203D01*
X121205Y59248D01*
X121142Y59285D01*
X121082Y59307D01*
X121023Y59325D01*
X120969Y59335D01*
X120928Y59344D01*
X120891D01*
X120809Y59339D01*
X120737Y59321D01*
X120673Y59298D01*
X120618Y59276D01*
X120578Y59248D01*
X120546Y59225D01*
X120523Y59207D01*
X120518Y59203D01*
X120468Y59148D01*
X120432Y59089D01*
X120409Y59030D01*
X120391Y58975D01*
X120382Y58925D01*
X120373Y58889D01*
Y58862D01*
Y58857D01*
Y58852D01*
Y58802D01*
X120382Y58757D01*
X120405Y58679D01*
X120436Y58611D01*
X120473Y58552D01*
X120509Y58511D01*
X120541Y58479D01*
X120564Y58461D01*
X120568Y58456D01*
X120573D01*
X120650Y58416D01*
X120723Y58384D01*
X120800Y58361D01*
X120869Y58347D01*
X120928Y58338D01*
X120978Y58329D01*
X121037D01*
X121055Y58334D01*
X121078D01*
X121124Y57992D01*
X121064Y58006D01*
X121010Y58015D01*
X120964Y58024D01*
X120923Y58029D01*
X120891Y58033D01*
X120851D01*
X120755Y58024D01*
X120668Y58006D01*
X120591Y57979D01*
X120527Y57947D01*
X120477Y57915D01*
X120441Y57888D01*
X120418Y57870D01*
X120409Y57860D01*
X120350Y57792D01*
X120305Y57719D01*
X120273Y57647D01*
X120254Y57574D01*
X120241Y57515D01*
X120236Y57465D01*
X120232Y57446D01*
Y57433D01*
Y57424D01*
Y57419D01*
X120241Y57319D01*
X120264Y57228D01*
X120291Y57151D01*
X120327Y57082D01*
X120364Y57028D01*
X120391Y56987D01*
X120414Y56960D01*
X120423Y56950D01*
X120496Y56887D01*
X120573Y56841D01*
X120650Y56809D01*
X120723Y56787D01*
X120787Y56773D01*
X120837Y56768D01*
X120855Y56764D01*
X120882D01*
X120964Y56768D01*
X121042Y56787D01*
X121110Y56809D01*
X121165Y56837D01*
X121210Y56859D01*
X121246Y56882D01*
X121265Y56900D01*
X121274Y56905D01*
X121328Y56969D01*
X121374Y57041D01*
X121415Y57119D01*
X121447Y57201D01*
X121469Y57269D01*
X121478Y57301D01*
X121483Y57328D01*
X121487Y57351D01*
X121492Y57369D01*
X121497Y57378D01*
Y57383D01*
X121883Y57333D01*
X121874Y57260D01*
X121861Y57192D01*
X121820Y57064D01*
X121770Y56955D01*
X121742Y56910D01*
X121715Y56864D01*
X121688Y56823D01*
X121660Y56791D01*
X121638Y56759D01*
X121615Y56737D01*
X121601Y56718D01*
X121588Y56705D01*
X121579Y56696D01*
X121574Y56691D01*
X121519Y56650D01*
X121465Y56609D01*
X121410Y56577D01*
X121351Y56550D01*
X121237Y56504D01*
X121128Y56477D01*
X121078Y56468D01*
X121033Y56459D01*
X120992Y56454D01*
X120955Y56450D01*
X120928Y56445D01*
X120887D01*
X120800Y56450D01*
X120723Y56459D01*
X120646Y56473D01*
X120573Y56491D01*
X120505Y56514D01*
X120446Y56536D01*
X120386Y56564D01*
X120336Y56591D01*
X120286Y56614D01*
X120245Y56641D01*
X120209Y56664D01*
X120182Y56687D01*
X120159Y56705D01*
X120141Y56718D01*
X120132Y56727D01*
X120127Y56732D01*
X120072Y56787D01*
X120027Y56846D01*
X119986Y56905D01*
X119950Y56964D01*
X119922Y57019D01*
X119895Y57078D01*
X119859Y57187D01*
X119850Y57237D01*
X119840Y57283D01*
X119831Y57324D01*
X119827Y57360D01*
X119822Y57387D01*
Y57410D01*
Y57424D01*
Y57428D01*
X119827Y57537D01*
X119845Y57638D01*
X119872Y57724D01*
X119899Y57797D01*
X119927Y57856D01*
X119954Y57901D01*
X119972Y57929D01*
X119977Y57938D01*
X120041Y58006D01*
X120109Y58065D01*
X120182Y58111D01*
X120254Y58147D01*
X120318Y58174D01*
X120368Y58193D01*
X120386Y58197D01*
X120400Y58202D01*
X120409Y58206D01*
X120414D01*
X120336Y58247D01*
X120273Y58288D01*
X120218Y58334D01*
X120173Y58375D01*
X120136Y58411D01*
X120109Y58443D01*
X120095Y58461D01*
X120091Y58470D01*
X120054Y58534D01*
X120027Y58598D01*
X120004Y58661D01*
X119991Y58720D01*
X119981Y58771D01*
X119977Y58807D01*
Y58834D01*
Y58843D01*
X119981Y58921D01*
X119995Y58998D01*
X120013Y59066D01*
X120036Y59125D01*
X120059Y59175D01*
X120077Y59216D01*
X120091Y59239D01*
X120095Y59248D01*
X120141Y59316D01*
X120195Y59376D01*
X120250Y59426D01*
X120305Y59471D01*
X120350Y59503D01*
X120391Y59530D01*
X120418Y59544D01*
X120423Y59548D01*
X120427D01*
X120509Y59585D01*
X120591Y59612D01*
X120673Y59635D01*
X120746Y59649D01*
X120805Y59658D01*
X120855Y59662D01*
X120969D01*
X121033Y59653D01*
D02*
G37*
G36*
X124900Y56500D02*
X124481D01*
Y57897D01*
X123944D01*
X123895Y57892D01*
X123858D01*
X123826Y57888D01*
X123803Y57883D01*
X123785D01*
X123776Y57879D01*
X123772D01*
X123699Y57856D01*
X123667Y57842D01*
X123640Y57829D01*
X123612Y57815D01*
X123594Y57806D01*
X123585Y57801D01*
X123581Y57797D01*
X123544Y57769D01*
X123508Y57738D01*
X123440Y57669D01*
X123408Y57638D01*
X123385Y57610D01*
X123371Y57592D01*
X123367Y57587D01*
X123321Y57524D01*
X123271Y57455D01*
X123221Y57383D01*
X123171Y57314D01*
X123130Y57251D01*
X123098Y57201D01*
X123084Y57183D01*
X123075Y57169D01*
X123066Y57160D01*
Y57155D01*
X122652Y56500D01*
X122134D01*
X122675Y57355D01*
X122739Y57446D01*
X122798Y57528D01*
X122857Y57597D01*
X122907Y57660D01*
X122953Y57706D01*
X122989Y57742D01*
X123012Y57765D01*
X123021Y57774D01*
X123057Y57801D01*
X123098Y57833D01*
X123180Y57883D01*
X123216Y57901D01*
X123244Y57920D01*
X123262Y57929D01*
X123271Y57933D01*
X123189Y57947D01*
X123112Y57961D01*
X123044Y57983D01*
X122975Y58002D01*
X122916Y58024D01*
X122862Y58052D01*
X122812Y58074D01*
X122766Y58097D01*
X122730Y58124D01*
X122693Y58147D01*
X122666Y58165D01*
X122643Y58183D01*
X122625Y58197D01*
X122611Y58211D01*
X122607Y58215D01*
X122602Y58220D01*
X122566Y58265D01*
X122529Y58311D01*
X122475Y58406D01*
X122438Y58502D01*
X122411Y58593D01*
X122393Y58670D01*
X122388Y58702D01*
Y58734D01*
X122384Y58757D01*
Y58775D01*
Y58784D01*
Y58789D01*
X122388Y58884D01*
X122402Y58971D01*
X122425Y59052D01*
X122448Y59121D01*
X122475Y59180D01*
X122493Y59225D01*
X122511Y59253D01*
X122516Y59257D01*
Y59262D01*
X122570Y59335D01*
X122625Y59398D01*
X122684Y59453D01*
X122739Y59494D01*
X122789Y59526D01*
X122830Y59544D01*
X122857Y59558D01*
X122862Y59562D01*
X122866D01*
X122907Y59576D01*
X122957Y59589D01*
X123057Y59612D01*
X123167Y59626D01*
X123267Y59640D01*
X123362Y59644D01*
X123403D01*
X123440Y59649D01*
X124900D01*
Y56500D01*
D02*
G37*
G36*
X93000Y57100D02*
X92581D01*
Y58497D01*
X92045D01*
X91994Y58492D01*
X91958D01*
X91926Y58488D01*
X91903Y58483D01*
X91885D01*
X91876Y58479D01*
X91872D01*
X91799Y58456D01*
X91767Y58442D01*
X91740Y58429D01*
X91712Y58415D01*
X91694Y58406D01*
X91685Y58401D01*
X91681Y58397D01*
X91644Y58369D01*
X91608Y58338D01*
X91539Y58269D01*
X91508Y58237D01*
X91485Y58210D01*
X91471Y58192D01*
X91467Y58188D01*
X91421Y58124D01*
X91371Y58056D01*
X91321Y57983D01*
X91271Y57914D01*
X91230Y57851D01*
X91198Y57801D01*
X91185Y57783D01*
X91176Y57769D01*
X91166Y57760D01*
Y57755D01*
X90752Y57100D01*
X90234D01*
X90775Y57955D01*
X90839Y58046D01*
X90898Y58128D01*
X90957Y58197D01*
X91007Y58260D01*
X91053Y58306D01*
X91089Y58342D01*
X91112Y58365D01*
X91121Y58374D01*
X91157Y58401D01*
X91198Y58433D01*
X91280Y58483D01*
X91316Y58501D01*
X91344Y58520D01*
X91362Y58529D01*
X91371Y58533D01*
X91289Y58547D01*
X91212Y58561D01*
X91144Y58583D01*
X91075Y58601D01*
X91016Y58624D01*
X90962Y58652D01*
X90912Y58674D01*
X90866Y58697D01*
X90830Y58724D01*
X90793Y58747D01*
X90766Y58765D01*
X90743Y58784D01*
X90725Y58797D01*
X90711Y58811D01*
X90707Y58815D01*
X90702Y58820D01*
X90666Y58865D01*
X90629Y58911D01*
X90575Y59006D01*
X90539Y59102D01*
X90511Y59193D01*
X90493Y59270D01*
X90488Y59302D01*
Y59334D01*
X90484Y59357D01*
Y59375D01*
Y59384D01*
Y59389D01*
X90488Y59484D01*
X90502Y59571D01*
X90525Y59653D01*
X90548Y59721D01*
X90575Y59780D01*
X90593Y59825D01*
X90611Y59853D01*
X90616Y59857D01*
Y59862D01*
X90670Y59935D01*
X90725Y59998D01*
X90784Y60053D01*
X90839Y60094D01*
X90889Y60126D01*
X90930Y60144D01*
X90957Y60158D01*
X90962Y60162D01*
X90966D01*
X91007Y60176D01*
X91057Y60189D01*
X91157Y60212D01*
X91266Y60226D01*
X91366Y60239D01*
X91462Y60244D01*
X91503D01*
X91539Y60249D01*
X93000D01*
Y57100D01*
D02*
G37*
G36*
X90120Y58210D02*
Y57855D01*
X88750D01*
Y57100D01*
X88363D01*
Y57855D01*
X87936D01*
Y58210D01*
X88363D01*
Y60249D01*
X88678D01*
X90120Y58210D01*
D02*
G37*
G36*
X143505Y23553D02*
X143628Y23530D01*
X143733Y23494D01*
X143824Y23458D01*
X143865Y23435D01*
X143896Y23417D01*
X143928Y23398D01*
X143951Y23380D01*
X143969Y23367D01*
X143983Y23358D01*
X143992Y23353D01*
X143997Y23348D01*
X144083Y23262D01*
X144151Y23166D01*
X144206Y23066D01*
X144251Y22966D01*
X144279Y22880D01*
X144292Y22843D01*
X144301Y22812D01*
X144306Y22784D01*
X144310Y22766D01*
X144315Y22752D01*
Y22748D01*
X143928Y22680D01*
X143910Y22780D01*
X143883Y22866D01*
X143851Y22939D01*
X143819Y22998D01*
X143787Y23043D01*
X143760Y23075D01*
X143742Y23098D01*
X143737Y23103D01*
X143678Y23148D01*
X143614Y23185D01*
X143555Y23207D01*
X143496Y23226D01*
X143441Y23235D01*
X143401Y23244D01*
X143364D01*
X143282Y23239D01*
X143209Y23221D01*
X143146Y23198D01*
X143091Y23176D01*
X143050Y23148D01*
X143018Y23125D01*
X142996Y23107D01*
X142991Y23103D01*
X142941Y23048D01*
X142904Y22989D01*
X142882Y22930D01*
X142864Y22875D01*
X142854Y22825D01*
X142845Y22789D01*
Y22761D01*
Y22757D01*
Y22752D01*
Y22702D01*
X142854Y22657D01*
X142877Y22579D01*
X142909Y22511D01*
X142946Y22452D01*
X142982Y22411D01*
X143014Y22379D01*
X143036Y22361D01*
X143041Y22356D01*
X143046D01*
X143123Y22316D01*
X143196Y22284D01*
X143273Y22261D01*
X143341Y22247D01*
X143401Y22238D01*
X143450Y22229D01*
X143510D01*
X143528Y22234D01*
X143551D01*
X143596Y21892D01*
X143537Y21906D01*
X143482Y21915D01*
X143437Y21924D01*
X143396Y21929D01*
X143364Y21933D01*
X143323D01*
X143228Y21924D01*
X143141Y21906D01*
X143064Y21879D01*
X143000Y21847D01*
X142950Y21815D01*
X142914Y21788D01*
X142891Y21770D01*
X142882Y21760D01*
X142823Y21692D01*
X142777Y21619D01*
X142745Y21547D01*
X142727Y21474D01*
X142713Y21415D01*
X142709Y21365D01*
X142704Y21346D01*
Y21333D01*
Y21324D01*
Y21319D01*
X142713Y21219D01*
X142736Y21128D01*
X142763Y21051D01*
X142800Y20982D01*
X142836Y20928D01*
X142864Y20887D01*
X142886Y20859D01*
X142895Y20851D01*
X142968Y20787D01*
X143046Y20741D01*
X143123Y20709D01*
X143196Y20687D01*
X143259Y20673D01*
X143309Y20669D01*
X143328Y20664D01*
X143355D01*
X143437Y20669D01*
X143514Y20687D01*
X143582Y20709D01*
X143637Y20737D01*
X143683Y20760D01*
X143719Y20782D01*
X143737Y20800D01*
X143746Y20805D01*
X143801Y20869D01*
X143846Y20942D01*
X143887Y21019D01*
X143919Y21101D01*
X143942Y21169D01*
X143951Y21201D01*
X143956Y21228D01*
X143960Y21251D01*
X143965Y21269D01*
X143969Y21278D01*
Y21283D01*
X144356Y21233D01*
X144347Y21160D01*
X144333Y21092D01*
X144292Y20964D01*
X144242Y20855D01*
X144215Y20809D01*
X144188Y20764D01*
X144160Y20723D01*
X144133Y20691D01*
X144110Y20659D01*
X144088Y20637D01*
X144074Y20618D01*
X144060Y20605D01*
X144051Y20596D01*
X144047Y20591D01*
X143992Y20550D01*
X143937Y20509D01*
X143883Y20477D01*
X143824Y20450D01*
X143710Y20405D01*
X143601Y20377D01*
X143551Y20368D01*
X143505Y20359D01*
X143464Y20355D01*
X143428Y20350D01*
X143401Y20345D01*
X143359D01*
X143273Y20350D01*
X143196Y20359D01*
X143118Y20373D01*
X143046Y20391D01*
X142977Y20414D01*
X142918Y20436D01*
X142859Y20464D01*
X142809Y20491D01*
X142759Y20514D01*
X142718Y20541D01*
X142682Y20564D01*
X142654Y20586D01*
X142631Y20605D01*
X142613Y20618D01*
X142604Y20628D01*
X142600Y20632D01*
X142545Y20687D01*
X142499Y20746D01*
X142459Y20805D01*
X142422Y20864D01*
X142395Y20919D01*
X142368Y20978D01*
X142331Y21087D01*
X142322Y21137D01*
X142313Y21183D01*
X142304Y21224D01*
X142299Y21260D01*
X142295Y21287D01*
Y21310D01*
Y21324D01*
Y21328D01*
X142299Y21437D01*
X142318Y21538D01*
X142345Y21624D01*
X142372Y21697D01*
X142400Y21756D01*
X142427Y21801D01*
X142445Y21829D01*
X142449Y21838D01*
X142513Y21906D01*
X142581Y21965D01*
X142654Y22011D01*
X142727Y22047D01*
X142791Y22074D01*
X142841Y22093D01*
X142859Y22097D01*
X142873Y22102D01*
X142882Y22106D01*
X142886D01*
X142809Y22147D01*
X142745Y22188D01*
X142691Y22234D01*
X142645Y22275D01*
X142609Y22311D01*
X142581Y22343D01*
X142568Y22361D01*
X142563Y22370D01*
X142527Y22434D01*
X142499Y22498D01*
X142477Y22561D01*
X142463Y22620D01*
X142454Y22670D01*
X142449Y22707D01*
Y22734D01*
Y22743D01*
X142454Y22821D01*
X142468Y22898D01*
X142486Y22966D01*
X142509Y23025D01*
X142531Y23075D01*
X142550Y23116D01*
X142563Y23139D01*
X142568Y23148D01*
X142613Y23216D01*
X142668Y23276D01*
X142722Y23326D01*
X142777Y23371D01*
X142823Y23403D01*
X142864Y23430D01*
X142891Y23444D01*
X142895Y23449D01*
X142900D01*
X142982Y23485D01*
X143064Y23512D01*
X143146Y23535D01*
X143219Y23549D01*
X143278Y23558D01*
X143328Y23562D01*
X143441D01*
X143505Y23553D01*
D02*
G37*
G36*
X146167Y23594D02*
X146312Y23571D01*
X146440Y23544D01*
X146499Y23526D01*
X146554Y23508D01*
X146604Y23489D01*
X146649Y23471D01*
X146686Y23458D01*
X146722Y23444D01*
X146745Y23430D01*
X146763Y23421D01*
X146776Y23417D01*
X146781Y23412D01*
X146904Y23335D01*
X147009Y23244D01*
X147100Y23153D01*
X147177Y23062D01*
X147236Y22980D01*
X147259Y22943D01*
X147277Y22912D01*
X147295Y22889D01*
X147304Y22871D01*
X147309Y22857D01*
X147313Y22852D01*
X147377Y22711D01*
X147423Y22566D01*
X147455Y22420D01*
X147477Y22288D01*
X147486Y22229D01*
X147491Y22170D01*
X147495Y22124D01*
Y22079D01*
X147500Y22047D01*
Y22020D01*
Y22002D01*
Y21997D01*
X147491Y21833D01*
X147473Y21674D01*
X147450Y21533D01*
X147432Y21465D01*
X147418Y21406D01*
X147404Y21351D01*
X147386Y21301D01*
X147373Y21255D01*
X147363Y21219D01*
X147350Y21192D01*
X147345Y21169D01*
X147336Y21155D01*
Y21151D01*
X147268Y21014D01*
X147191Y20891D01*
X147109Y20787D01*
X147068Y20746D01*
X147031Y20705D01*
X146995Y20669D01*
X146958Y20637D01*
X146927Y20609D01*
X146899Y20591D01*
X146881Y20573D01*
X146863Y20559D01*
X146854Y20555D01*
X146849Y20550D01*
X146786Y20514D01*
X146722Y20482D01*
X146585Y20432D01*
X146449Y20395D01*
X146317Y20373D01*
X146253Y20364D01*
X146199Y20355D01*
X146149Y20350D01*
X146108D01*
X146071Y20345D01*
X146021D01*
X145930Y20350D01*
X145844Y20359D01*
X145762Y20368D01*
X145685Y20386D01*
X145612Y20409D01*
X145544Y20432D01*
X145480Y20455D01*
X145421Y20482D01*
X145371Y20505D01*
X145321Y20527D01*
X145284Y20550D01*
X145248Y20573D01*
X145225Y20591D01*
X145202Y20600D01*
X145193Y20609D01*
X145189Y20614D01*
X145125Y20669D01*
X145070Y20723D01*
X145020Y20787D01*
X144970Y20851D01*
X144888Y20978D01*
X144825Y21105D01*
X144797Y21164D01*
X144774Y21219D01*
X144756Y21269D01*
X144743Y21310D01*
X144729Y21346D01*
X144720Y21374D01*
X144715Y21392D01*
Y21396D01*
X145134Y21501D01*
X145152Y21428D01*
X145175Y21360D01*
X145198Y21296D01*
X145220Y21237D01*
X145248Y21183D01*
X145275Y21137D01*
X145307Y21092D01*
X145334Y21051D01*
X145357Y21014D01*
X145384Y20987D01*
X145407Y20960D01*
X145425Y20937D01*
X145443Y20923D01*
X145457Y20910D01*
X145462Y20905D01*
X145466Y20900D01*
X145512Y20864D01*
X145562Y20837D01*
X145662Y20787D01*
X145757Y20750D01*
X145853Y20728D01*
X145935Y20709D01*
X145967Y20705D01*
X145999D01*
X146026Y20700D01*
X146058D01*
X146162Y20705D01*
X146262Y20723D01*
X146353Y20746D01*
X146435Y20773D01*
X146499Y20800D01*
X146526Y20814D01*
X146549Y20823D01*
X146567Y20832D01*
X146581Y20841D01*
X146590Y20846D01*
X146595D01*
X146681Y20910D01*
X146754Y20978D01*
X146818Y21055D01*
X146868Y21128D01*
X146908Y21192D01*
X146936Y21246D01*
X146945Y21269D01*
X146954Y21283D01*
X146958Y21292D01*
Y21296D01*
X146995Y21415D01*
X147022Y21533D01*
X147045Y21651D01*
X147059Y21760D01*
X147063Y21811D01*
X147068Y21856D01*
Y21897D01*
X147072Y21929D01*
Y21956D01*
Y21979D01*
Y21993D01*
Y21997D01*
X147068Y22115D01*
X147059Y22224D01*
X147040Y22325D01*
X147022Y22416D01*
X147009Y22493D01*
X147000Y22525D01*
X146990Y22552D01*
X146986Y22575D01*
X146981Y22589D01*
X146977Y22598D01*
Y22602D01*
X146931Y22707D01*
X146881Y22802D01*
X146827Y22880D01*
X146767Y22948D01*
X146717Y23003D01*
X146676Y23039D01*
X146645Y23062D01*
X146640Y23071D01*
X146635D01*
X146540Y23130D01*
X146435Y23176D01*
X146335Y23207D01*
X146240Y23226D01*
X146153Y23239D01*
X146117Y23244D01*
X146085D01*
X146062Y23248D01*
X146026D01*
X145912Y23244D01*
X145807Y23226D01*
X145721Y23198D01*
X145644Y23171D01*
X145584Y23139D01*
X145539Y23116D01*
X145512Y23098D01*
X145502Y23089D01*
X145430Y23021D01*
X145361Y22943D01*
X145307Y22862D01*
X145261Y22780D01*
X145225Y22707D01*
X145211Y22670D01*
X145202Y22643D01*
X145193Y22620D01*
X145184Y22602D01*
X145179Y22593D01*
Y22589D01*
X144770Y22684D01*
X144797Y22766D01*
X144825Y22839D01*
X144861Y22907D01*
X144893Y22975D01*
X144929Y23034D01*
X144970Y23089D01*
X145007Y23144D01*
X145043Y23189D01*
X145079Y23226D01*
X145111Y23262D01*
X145143Y23294D01*
X145166Y23317D01*
X145189Y23339D01*
X145207Y23353D01*
X145216Y23358D01*
X145220Y23362D01*
X145284Y23403D01*
X145348Y23444D01*
X145412Y23476D01*
X145480Y23503D01*
X145616Y23544D01*
X145739Y23571D01*
X145798Y23585D01*
X145848Y23589D01*
X145898Y23594D01*
X145939Y23599D01*
X145971Y23603D01*
X146017D01*
X146167Y23594D01*
D02*
G37*
G36*
X70767Y20294D02*
X70912Y20271D01*
X71040Y20244D01*
X71099Y20226D01*
X71154Y20208D01*
X71204Y20189D01*
X71249Y20171D01*
X71286Y20158D01*
X71322Y20144D01*
X71345Y20130D01*
X71363Y20121D01*
X71377Y20117D01*
X71381Y20112D01*
X71504Y20035D01*
X71609Y19944D01*
X71700Y19853D01*
X71777Y19762D01*
X71836Y19680D01*
X71859Y19644D01*
X71877Y19612D01*
X71895Y19589D01*
X71904Y19571D01*
X71909Y19557D01*
X71913Y19552D01*
X71977Y19411D01*
X72023Y19266D01*
X72054Y19120D01*
X72077Y18988D01*
X72086Y18929D01*
X72091Y18870D01*
X72096Y18824D01*
Y18779D01*
X72100Y18747D01*
Y18720D01*
Y18702D01*
Y18697D01*
X72091Y18533D01*
X72073Y18374D01*
X72050Y18233D01*
X72032Y18165D01*
X72018Y18105D01*
X72004Y18051D01*
X71986Y18001D01*
X71973Y17955D01*
X71964Y17919D01*
X71950Y17892D01*
X71945Y17869D01*
X71936Y17855D01*
Y17851D01*
X71868Y17714D01*
X71791Y17591D01*
X71709Y17487D01*
X71668Y17446D01*
X71631Y17405D01*
X71595Y17368D01*
X71559Y17337D01*
X71527Y17309D01*
X71499Y17291D01*
X71481Y17273D01*
X71463Y17259D01*
X71454Y17255D01*
X71449Y17250D01*
X71386Y17214D01*
X71322Y17182D01*
X71185Y17132D01*
X71049Y17095D01*
X70917Y17073D01*
X70853Y17064D01*
X70799Y17054D01*
X70749Y17050D01*
X70708D01*
X70671Y17045D01*
X70621D01*
X70530Y17050D01*
X70444Y17059D01*
X70362Y17068D01*
X70285Y17086D01*
X70212Y17109D01*
X70144Y17132D01*
X70080Y17155D01*
X70021Y17182D01*
X69971Y17205D01*
X69921Y17227D01*
X69884Y17250D01*
X69848Y17273D01*
X69825Y17291D01*
X69802Y17300D01*
X69793Y17309D01*
X69789Y17314D01*
X69725Y17368D01*
X69670Y17423D01*
X69620Y17487D01*
X69570Y17550D01*
X69488Y17678D01*
X69425Y17805D01*
X69397Y17864D01*
X69375Y17919D01*
X69356Y17969D01*
X69343Y18010D01*
X69329Y18046D01*
X69320Y18074D01*
X69315Y18092D01*
Y18096D01*
X69734Y18201D01*
X69752Y18128D01*
X69775Y18060D01*
X69798Y17996D01*
X69820Y17937D01*
X69848Y17883D01*
X69875Y17837D01*
X69907Y17792D01*
X69934Y17751D01*
X69957Y17714D01*
X69984Y17687D01*
X70007Y17660D01*
X70025Y17637D01*
X70043Y17623D01*
X70057Y17610D01*
X70062Y17605D01*
X70066Y17601D01*
X70112Y17564D01*
X70162Y17537D01*
X70262Y17487D01*
X70357Y17450D01*
X70453Y17428D01*
X70535Y17409D01*
X70567Y17405D01*
X70599D01*
X70626Y17400D01*
X70658D01*
X70762Y17405D01*
X70862Y17423D01*
X70953Y17446D01*
X71035Y17473D01*
X71099Y17500D01*
X71126Y17514D01*
X71149Y17523D01*
X71167Y17532D01*
X71181Y17541D01*
X71190Y17546D01*
X71195D01*
X71281Y17610D01*
X71354Y17678D01*
X71417Y17755D01*
X71468Y17828D01*
X71509Y17892D01*
X71536Y17946D01*
X71545Y17969D01*
X71554Y17983D01*
X71559Y17992D01*
Y17996D01*
X71595Y18115D01*
X71622Y18233D01*
X71645Y18351D01*
X71659Y18461D01*
X71663Y18510D01*
X71668Y18556D01*
Y18597D01*
X71672Y18629D01*
Y18656D01*
Y18679D01*
Y18692D01*
Y18697D01*
X71668Y18815D01*
X71659Y18925D01*
X71640Y19025D01*
X71622Y19116D01*
X71609Y19193D01*
X71600Y19225D01*
X71590Y19252D01*
X71586Y19275D01*
X71581Y19289D01*
X71577Y19298D01*
Y19302D01*
X71531Y19407D01*
X71481Y19502D01*
X71427Y19580D01*
X71367Y19648D01*
X71317Y19703D01*
X71276Y19739D01*
X71245Y19762D01*
X71240Y19771D01*
X71236D01*
X71140Y19830D01*
X71035Y19875D01*
X70935Y19907D01*
X70840Y19926D01*
X70753Y19939D01*
X70717Y19944D01*
X70685D01*
X70662Y19948D01*
X70626D01*
X70512Y19944D01*
X70407Y19926D01*
X70321Y19898D01*
X70244Y19871D01*
X70184Y19839D01*
X70139Y19816D01*
X70112Y19798D01*
X70103Y19789D01*
X70030Y19721D01*
X69962Y19644D01*
X69907Y19561D01*
X69861Y19480D01*
X69825Y19407D01*
X69811Y19370D01*
X69802Y19343D01*
X69793Y19320D01*
X69784Y19302D01*
X69779Y19293D01*
Y19289D01*
X69370Y19384D01*
X69397Y19466D01*
X69425Y19539D01*
X69461Y19607D01*
X69493Y19675D01*
X69529Y19735D01*
X69570Y19789D01*
X69607Y19844D01*
X69643Y19889D01*
X69679Y19926D01*
X69711Y19962D01*
X69743Y19994D01*
X69766Y20017D01*
X69789Y20039D01*
X69807Y20053D01*
X69816Y20057D01*
X69820Y20062D01*
X69884Y20103D01*
X69948Y20144D01*
X70012Y20176D01*
X70080Y20203D01*
X70216Y20244D01*
X70339Y20271D01*
X70398Y20285D01*
X70448Y20290D01*
X70498Y20294D01*
X70539Y20299D01*
X70571Y20303D01*
X70617D01*
X70767Y20294D01*
D02*
G37*
G36*
X68933Y19835D02*
X67391D01*
X67500Y19703D01*
X67605Y19561D01*
X67696Y19425D01*
X67782Y19293D01*
X67818Y19234D01*
X67850Y19179D01*
X67882Y19129D01*
X67905Y19088D01*
X67923Y19052D01*
X67937Y19029D01*
X67946Y19011D01*
X67950Y19006D01*
X68041Y18824D01*
X68123Y18642D01*
X68191Y18470D01*
X68219Y18392D01*
X68246Y18315D01*
X68274Y18247D01*
X68292Y18183D01*
X68310Y18128D01*
X68323Y18083D01*
X68337Y18042D01*
X68346Y18014D01*
X68351Y17996D01*
Y17992D01*
X68396Y17805D01*
X68414Y17714D01*
X68428Y17632D01*
X68442Y17555D01*
X68455Y17478D01*
X68464Y17414D01*
X68474Y17350D01*
X68478Y17296D01*
X68483Y17246D01*
X68487Y17200D01*
Y17164D01*
X68492Y17136D01*
Y17118D01*
Y17105D01*
Y17100D01*
X68096D01*
X68082Y17273D01*
X68060Y17432D01*
X68037Y17578D01*
X68023Y17646D01*
X68010Y17710D01*
X68001Y17764D01*
X67987Y17814D01*
X67978Y17860D01*
X67969Y17896D01*
X67959Y17924D01*
X67955Y17946D01*
X67950Y17960D01*
Y17965D01*
X67882Y18174D01*
X67809Y18370D01*
X67773Y18465D01*
X67737Y18556D01*
X67696Y18638D01*
X67659Y18720D01*
X67627Y18793D01*
X67595Y18856D01*
X67568Y18911D01*
X67545Y18961D01*
X67523Y19002D01*
X67509Y19029D01*
X67500Y19047D01*
X67495Y19052D01*
X67441Y19148D01*
X67386Y19243D01*
X67332Y19330D01*
X67277Y19411D01*
X67227Y19484D01*
X67177Y19557D01*
X67127Y19621D01*
X67086Y19675D01*
X67045Y19730D01*
X67009Y19775D01*
X66972Y19812D01*
X66945Y19844D01*
X66927Y19871D01*
X66909Y19889D01*
X66899Y19898D01*
X66895Y19903D01*
Y20208D01*
X68933D01*
Y19835D01*
D02*
G37*
G36*
X145867Y53594D02*
X146012Y53571D01*
X146140Y53544D01*
X146199Y53526D01*
X146254Y53508D01*
X146304Y53489D01*
X146349Y53471D01*
X146386Y53458D01*
X146422Y53444D01*
X146445Y53430D01*
X146463Y53421D01*
X146476Y53417D01*
X146481Y53412D01*
X146604Y53335D01*
X146709Y53244D01*
X146800Y53153D01*
X146877Y53062D01*
X146936Y52980D01*
X146959Y52943D01*
X146977Y52912D01*
X146995Y52889D01*
X147004Y52871D01*
X147009Y52857D01*
X147013Y52852D01*
X147077Y52711D01*
X147123Y52566D01*
X147154Y52420D01*
X147177Y52288D01*
X147186Y52229D01*
X147191Y52170D01*
X147195Y52125D01*
Y52079D01*
X147200Y52047D01*
Y52020D01*
Y52002D01*
Y51997D01*
X147191Y51833D01*
X147173Y51674D01*
X147150Y51533D01*
X147132Y51465D01*
X147118Y51406D01*
X147104Y51351D01*
X147086Y51301D01*
X147073Y51255D01*
X147064Y51219D01*
X147050Y51192D01*
X147045Y51169D01*
X147036Y51155D01*
Y51151D01*
X146968Y51014D01*
X146891Y50891D01*
X146809Y50787D01*
X146768Y50746D01*
X146731Y50705D01*
X146695Y50669D01*
X146659Y50637D01*
X146627Y50609D01*
X146599Y50591D01*
X146581Y50573D01*
X146563Y50559D01*
X146554Y50555D01*
X146549Y50550D01*
X146486Y50514D01*
X146422Y50482D01*
X146285Y50432D01*
X146149Y50395D01*
X146017Y50373D01*
X145953Y50364D01*
X145899Y50354D01*
X145849Y50350D01*
X145808D01*
X145771Y50345D01*
X145721D01*
X145630Y50350D01*
X145544Y50359D01*
X145462Y50368D01*
X145385Y50386D01*
X145312Y50409D01*
X145244Y50432D01*
X145180Y50455D01*
X145121Y50482D01*
X145071Y50505D01*
X145021Y50527D01*
X144984Y50550D01*
X144948Y50573D01*
X144925Y50591D01*
X144902Y50600D01*
X144893Y50609D01*
X144889Y50614D01*
X144825Y50669D01*
X144770Y50723D01*
X144720Y50787D01*
X144670Y50850D01*
X144588Y50978D01*
X144525Y51105D01*
X144497Y51164D01*
X144474Y51219D01*
X144456Y51269D01*
X144443Y51310D01*
X144429Y51346D01*
X144420Y51374D01*
X144415Y51392D01*
Y51397D01*
X144834Y51501D01*
X144852Y51428D01*
X144875Y51360D01*
X144898Y51296D01*
X144921Y51237D01*
X144948Y51183D01*
X144975Y51137D01*
X145007Y51092D01*
X145034Y51051D01*
X145057Y51014D01*
X145084Y50987D01*
X145107Y50960D01*
X145125Y50937D01*
X145143Y50923D01*
X145157Y50910D01*
X145162Y50905D01*
X145166Y50901D01*
X145212Y50864D01*
X145262Y50837D01*
X145362Y50787D01*
X145457Y50750D01*
X145553Y50728D01*
X145635Y50709D01*
X145667Y50705D01*
X145698D01*
X145726Y50700D01*
X145758D01*
X145862Y50705D01*
X145962Y50723D01*
X146053Y50746D01*
X146135Y50773D01*
X146199Y50800D01*
X146226Y50814D01*
X146249Y50823D01*
X146267Y50832D01*
X146281Y50841D01*
X146290Y50846D01*
X146295D01*
X146381Y50910D01*
X146454Y50978D01*
X146518Y51055D01*
X146568Y51128D01*
X146608Y51192D01*
X146636Y51246D01*
X146645Y51269D01*
X146654Y51283D01*
X146659Y51292D01*
Y51296D01*
X146695Y51415D01*
X146722Y51533D01*
X146745Y51651D01*
X146759Y51761D01*
X146763Y51810D01*
X146768Y51856D01*
Y51897D01*
X146772Y51929D01*
Y51956D01*
Y51979D01*
Y51992D01*
Y51997D01*
X146768Y52115D01*
X146759Y52224D01*
X146740Y52325D01*
X146722Y52416D01*
X146709Y52493D01*
X146700Y52525D01*
X146690Y52552D01*
X146686Y52575D01*
X146681Y52588D01*
X146677Y52598D01*
Y52602D01*
X146631Y52707D01*
X146581Y52802D01*
X146527Y52880D01*
X146467Y52948D01*
X146417Y53003D01*
X146376Y53039D01*
X146345Y53062D01*
X146340Y53071D01*
X146335D01*
X146240Y53130D01*
X146135Y53175D01*
X146035Y53207D01*
X145940Y53225D01*
X145853Y53239D01*
X145817Y53244D01*
X145785D01*
X145762Y53248D01*
X145726D01*
X145612Y53244D01*
X145507Y53225D01*
X145421Y53198D01*
X145344Y53171D01*
X145284Y53139D01*
X145239Y53116D01*
X145212Y53098D01*
X145203Y53089D01*
X145130Y53021D01*
X145062Y52943D01*
X145007Y52861D01*
X144961Y52780D01*
X144925Y52707D01*
X144911Y52671D01*
X144902Y52643D01*
X144893Y52620D01*
X144884Y52602D01*
X144879Y52593D01*
Y52588D01*
X144470Y52684D01*
X144497Y52766D01*
X144525Y52839D01*
X144561Y52907D01*
X144593Y52975D01*
X144629Y53035D01*
X144670Y53089D01*
X144707Y53144D01*
X144743Y53189D01*
X144779Y53225D01*
X144811Y53262D01*
X144843Y53294D01*
X144866Y53316D01*
X144889Y53339D01*
X144907Y53353D01*
X144916Y53357D01*
X144921Y53362D01*
X144984Y53403D01*
X145048Y53444D01*
X145112Y53476D01*
X145180Y53503D01*
X145316Y53544D01*
X145439Y53571D01*
X145498Y53585D01*
X145548Y53589D01*
X145598Y53594D01*
X145639Y53599D01*
X145671Y53603D01*
X145717D01*
X145867Y53594D01*
D02*
G37*
G36*
X144193Y51510D02*
Y51155D01*
X142823D01*
Y50400D01*
X142436D01*
Y51155D01*
X142008D01*
Y51510D01*
X142436D01*
Y53549D01*
X142750D01*
X144193Y51510D01*
D02*
G37*
G36*
X70267Y55394D02*
X70412Y55371D01*
X70540Y55344D01*
X70599Y55326D01*
X70654Y55308D01*
X70704Y55289D01*
X70749Y55271D01*
X70786Y55258D01*
X70822Y55244D01*
X70845Y55230D01*
X70863Y55221D01*
X70876Y55217D01*
X70881Y55212D01*
X71004Y55135D01*
X71109Y55044D01*
X71200Y54953D01*
X71277Y54862D01*
X71336Y54780D01*
X71359Y54743D01*
X71377Y54712D01*
X71395Y54689D01*
X71404Y54671D01*
X71409Y54657D01*
X71413Y54652D01*
X71477Y54511D01*
X71523Y54366D01*
X71554Y54220D01*
X71577Y54088D01*
X71586Y54029D01*
X71591Y53970D01*
X71596Y53925D01*
Y53879D01*
X71600Y53847D01*
Y53820D01*
Y53802D01*
Y53797D01*
X71591Y53633D01*
X71573Y53474D01*
X71550Y53333D01*
X71532Y53265D01*
X71518Y53206D01*
X71504Y53151D01*
X71486Y53101D01*
X71473Y53055D01*
X71464Y53019D01*
X71450Y52992D01*
X71445Y52969D01*
X71436Y52955D01*
Y52951D01*
X71368Y52814D01*
X71291Y52691D01*
X71209Y52587D01*
X71168Y52546D01*
X71131Y52505D01*
X71095Y52468D01*
X71059Y52437D01*
X71027Y52409D01*
X70999Y52391D01*
X70981Y52373D01*
X70963Y52359D01*
X70954Y52355D01*
X70949Y52350D01*
X70886Y52314D01*
X70822Y52282D01*
X70685Y52232D01*
X70549Y52196D01*
X70417Y52173D01*
X70353Y52164D01*
X70299Y52154D01*
X70249Y52150D01*
X70208D01*
X70171Y52145D01*
X70121D01*
X70030Y52150D01*
X69944Y52159D01*
X69862Y52168D01*
X69785Y52186D01*
X69712Y52209D01*
X69643Y52232D01*
X69580Y52255D01*
X69521Y52282D01*
X69471Y52305D01*
X69421Y52327D01*
X69384Y52350D01*
X69348Y52373D01*
X69325Y52391D01*
X69302Y52400D01*
X69293Y52409D01*
X69289Y52414D01*
X69225Y52468D01*
X69170Y52523D01*
X69120Y52587D01*
X69070Y52650D01*
X68988Y52778D01*
X68925Y52905D01*
X68897Y52964D01*
X68875Y53019D01*
X68856Y53069D01*
X68843Y53110D01*
X68829Y53146D01*
X68820Y53174D01*
X68815Y53192D01*
Y53197D01*
X69234Y53301D01*
X69252Y53228D01*
X69275Y53160D01*
X69298Y53096D01*
X69320Y53037D01*
X69348Y52983D01*
X69375Y52937D01*
X69407Y52892D01*
X69434Y52851D01*
X69457Y52814D01*
X69484Y52787D01*
X69507Y52760D01*
X69525Y52737D01*
X69543Y52723D01*
X69557Y52710D01*
X69562Y52705D01*
X69566Y52701D01*
X69612Y52664D01*
X69662Y52637D01*
X69762Y52587D01*
X69857Y52550D01*
X69953Y52528D01*
X70035Y52509D01*
X70067Y52505D01*
X70099D01*
X70126Y52500D01*
X70158D01*
X70262Y52505D01*
X70362Y52523D01*
X70453Y52546D01*
X70535Y52573D01*
X70599Y52600D01*
X70626Y52614D01*
X70649Y52623D01*
X70667Y52632D01*
X70681Y52641D01*
X70690Y52646D01*
X70695D01*
X70781Y52710D01*
X70854Y52778D01*
X70917Y52855D01*
X70968Y52928D01*
X71008Y52992D01*
X71036Y53046D01*
X71045Y53069D01*
X71054Y53083D01*
X71059Y53092D01*
Y53096D01*
X71095Y53215D01*
X71122Y53333D01*
X71145Y53451D01*
X71159Y53561D01*
X71163Y53610D01*
X71168Y53656D01*
Y53697D01*
X71172Y53729D01*
Y53756D01*
Y53779D01*
Y53793D01*
Y53797D01*
X71168Y53915D01*
X71159Y54024D01*
X71140Y54125D01*
X71122Y54216D01*
X71109Y54293D01*
X71100Y54325D01*
X71090Y54352D01*
X71086Y54375D01*
X71081Y54388D01*
X71077Y54398D01*
Y54402D01*
X71031Y54507D01*
X70981Y54602D01*
X70927Y54680D01*
X70867Y54748D01*
X70817Y54803D01*
X70776Y54839D01*
X70745Y54862D01*
X70740Y54871D01*
X70736D01*
X70640Y54930D01*
X70535Y54975D01*
X70435Y55007D01*
X70340Y55026D01*
X70253Y55039D01*
X70217Y55044D01*
X70185D01*
X70162Y55048D01*
X70126D01*
X70012Y55044D01*
X69907Y55026D01*
X69821Y54998D01*
X69744Y54971D01*
X69684Y54939D01*
X69639Y54916D01*
X69612Y54898D01*
X69603Y54889D01*
X69530Y54821D01*
X69462Y54743D01*
X69407Y54662D01*
X69361Y54580D01*
X69325Y54507D01*
X69311Y54470D01*
X69302Y54443D01*
X69293Y54420D01*
X69284Y54402D01*
X69279Y54393D01*
Y54388D01*
X68870Y54484D01*
X68897Y54566D01*
X68925Y54639D01*
X68961Y54707D01*
X68993Y54775D01*
X69029Y54835D01*
X69070Y54889D01*
X69107Y54944D01*
X69143Y54989D01*
X69179Y55026D01*
X69211Y55062D01*
X69243Y55094D01*
X69266Y55116D01*
X69289Y55139D01*
X69307Y55153D01*
X69316Y55158D01*
X69320Y55162D01*
X69384Y55203D01*
X69448Y55244D01*
X69511Y55276D01*
X69580Y55303D01*
X69716Y55344D01*
X69839Y55371D01*
X69898Y55385D01*
X69948Y55389D01*
X69998Y55394D01*
X70039Y55399D01*
X70071Y55403D01*
X70117D01*
X70267Y55394D01*
D02*
G37*
G36*
X67510Y55358D02*
X67582Y55353D01*
X67710Y55326D01*
X67769Y55308D01*
X67823Y55289D01*
X67874Y55267D01*
X67919Y55244D01*
X67955Y55221D01*
X67992Y55199D01*
X68024Y55180D01*
X68046Y55162D01*
X68065Y55148D01*
X68078Y55135D01*
X68087Y55130D01*
X68092Y55126D01*
X68133Y55080D01*
X68174Y55035D01*
X68206Y54985D01*
X68233Y54935D01*
X68278Y54839D01*
X68306Y54748D01*
X68324Y54671D01*
X68328Y54634D01*
X68333Y54607D01*
X68338Y54580D01*
Y54562D01*
Y54552D01*
Y54548D01*
X68333Y54466D01*
X68319Y54388D01*
X68301Y54320D01*
X68278Y54261D01*
X68260Y54216D01*
X68242Y54179D01*
X68228Y54161D01*
X68224Y54152D01*
X68174Y54097D01*
X68119Y54047D01*
X68060Y54002D01*
X68001Y53965D01*
X67946Y53938D01*
X67905Y53920D01*
X67887Y53911D01*
X67874Y53906D01*
X67869Y53902D01*
X67864D01*
X67969Y53870D01*
X68056Y53829D01*
X68133Y53779D01*
X68197Y53733D01*
X68247Y53688D01*
X68283Y53651D01*
X68301Y53629D01*
X68310Y53624D01*
Y53620D01*
X68360Y53538D01*
X68401Y53451D01*
X68429Y53369D01*
X68447Y53288D01*
X68456Y53215D01*
X68461Y53183D01*
Y53155D01*
X68465Y53137D01*
Y53119D01*
Y53110D01*
Y53105D01*
X68461Y53033D01*
X68451Y52960D01*
X68438Y52892D01*
X68420Y52823D01*
X68374Y52710D01*
X68351Y52655D01*
X68324Y52609D01*
X68297Y52564D01*
X68274Y52528D01*
X68247Y52496D01*
X68228Y52468D01*
X68210Y52446D01*
X68197Y52432D01*
X68187Y52423D01*
X68183Y52418D01*
X68128Y52368D01*
X68069Y52327D01*
X68006Y52291D01*
X67942Y52259D01*
X67883Y52236D01*
X67819Y52214D01*
X67696Y52182D01*
X67642Y52168D01*
X67591Y52159D01*
X67546Y52154D01*
X67505Y52150D01*
X67473Y52145D01*
X67428D01*
X67341Y52150D01*
X67264Y52159D01*
X67186Y52173D01*
X67114Y52186D01*
X67050Y52209D01*
X66986Y52232D01*
X66927Y52255D01*
X66877Y52282D01*
X66832Y52309D01*
X66791Y52332D01*
X66759Y52355D01*
X66727Y52377D01*
X66704Y52391D01*
X66690Y52405D01*
X66681Y52414D01*
X66677Y52418D01*
X66627Y52473D01*
X66581Y52528D01*
X66545Y52582D01*
X66513Y52641D01*
X66481Y52696D01*
X66458Y52755D01*
X66427Y52860D01*
X66413Y52910D01*
X66404Y52955D01*
X66399Y52996D01*
X66395Y53028D01*
X66390Y53055D01*
Y53078D01*
Y53092D01*
Y53096D01*
X66395Y53201D01*
X66413Y53297D01*
X66440Y53383D01*
X66468Y53456D01*
X66495Y53515D01*
X66522Y53561D01*
X66540Y53588D01*
X66545Y53592D01*
Y53597D01*
X66609Y53670D01*
X66677Y53733D01*
X66750Y53783D01*
X66818Y53829D01*
X66882Y53861D01*
X66936Y53883D01*
X66954Y53893D01*
X66968Y53897D01*
X66977Y53902D01*
X66982D01*
X66900Y53938D01*
X66832Y53979D01*
X66773Y54020D01*
X66722Y54061D01*
X66686Y54097D01*
X66659Y54125D01*
X66641Y54143D01*
X66636Y54152D01*
X66595Y54216D01*
X66568Y54279D01*
X66545Y54343D01*
X66531Y54407D01*
X66522Y54457D01*
X66518Y54498D01*
Y54525D01*
Y54530D01*
Y54534D01*
X66522Y54598D01*
X66527Y54657D01*
X66559Y54771D01*
X66600Y54871D01*
X66645Y54957D01*
X66690Y55026D01*
X66713Y55053D01*
X66732Y55080D01*
X66750Y55098D01*
X66763Y55112D01*
X66768Y55116D01*
X66773Y55121D01*
X66822Y55162D01*
X66873Y55203D01*
X66927Y55235D01*
X66982Y55262D01*
X67091Y55303D01*
X67200Y55330D01*
X67246Y55344D01*
X67291Y55349D01*
X67332Y55353D01*
X67369Y55358D01*
X67396Y55362D01*
X67437D01*
X67510Y55358D01*
D02*
G37*
G36*
X133792Y36088D02*
X133428Y36038D01*
X133396Y36088D01*
X133355Y36129D01*
X133319Y36170D01*
X133283Y36202D01*
X133246Y36224D01*
X133219Y36247D01*
X133201Y36256D01*
X133196Y36261D01*
X133137Y36288D01*
X133078Y36311D01*
X133023Y36325D01*
X132969Y36338D01*
X132923Y36343D01*
X132887Y36347D01*
X132800D01*
X132746Y36338D01*
X132650Y36315D01*
X132568Y36283D01*
X132495Y36252D01*
X132441Y36215D01*
X132400Y36183D01*
X132377Y36161D01*
X132368Y36156D01*
Y36151D01*
X132304Y36074D01*
X132259Y35992D01*
X132227Y35906D01*
X132204Y35819D01*
X132191Y35747D01*
X132186Y35715D01*
Y35688D01*
X132182Y35665D01*
Y35647D01*
Y35637D01*
Y35633D01*
Y35569D01*
X132191Y35510D01*
X132213Y35396D01*
X132245Y35301D01*
X132277Y35223D01*
X132314Y35160D01*
X132345Y35110D01*
X132359Y35096D01*
X132368Y35082D01*
X132373Y35078D01*
X132377Y35073D01*
X132414Y35037D01*
X132450Y35005D01*
X132532Y34950D01*
X132609Y34914D01*
X132687Y34891D01*
X132750Y34873D01*
X132805Y34868D01*
X132823Y34864D01*
X132850D01*
X132937Y34868D01*
X133014Y34887D01*
X133082Y34909D01*
X133137Y34937D01*
X133187Y34964D01*
X133223Y34987D01*
X133242Y35005D01*
X133251Y35010D01*
X133305Y35073D01*
X133351Y35141D01*
X133387Y35219D01*
X133415Y35287D01*
X133433Y35355D01*
X133447Y35405D01*
X133451Y35428D01*
X133456Y35442D01*
Y35451D01*
Y35455D01*
X133861Y35424D01*
X133851Y35351D01*
X133838Y35282D01*
X133797Y35155D01*
X133747Y35046D01*
X133720Y34996D01*
X133692Y34955D01*
X133669Y34914D01*
X133642Y34878D01*
X133619Y34850D01*
X133597Y34828D01*
X133578Y34809D01*
X133569Y34791D01*
X133560Y34786D01*
X133556Y34782D01*
X133501Y34741D01*
X133447Y34705D01*
X133387Y34673D01*
X133328Y34646D01*
X133214Y34605D01*
X133101Y34577D01*
X133051Y34564D01*
X133001Y34559D01*
X132960Y34554D01*
X132923Y34550D01*
X132891Y34545D01*
X132850D01*
X132755Y34550D01*
X132664Y34564D01*
X132577Y34582D01*
X132500Y34605D01*
X132427Y34636D01*
X132359Y34668D01*
X132295Y34700D01*
X132241Y34736D01*
X132191Y34773D01*
X132145Y34805D01*
X132109Y34841D01*
X132077Y34868D01*
X132054Y34891D01*
X132036Y34909D01*
X132027Y34923D01*
X132022Y34928D01*
X131977Y34987D01*
X131940Y35050D01*
X131904Y35110D01*
X131877Y35173D01*
X131831Y35296D01*
X131804Y35414D01*
X131795Y35465D01*
X131786Y35515D01*
X131781Y35555D01*
X131777Y35592D01*
X131772Y35624D01*
Y35647D01*
Y35660D01*
Y35665D01*
X131777Y35747D01*
X131786Y35824D01*
X131799Y35901D01*
X131818Y35969D01*
X131840Y36033D01*
X131863Y36097D01*
X131890Y36151D01*
X131913Y36202D01*
X131940Y36247D01*
X131968Y36288D01*
X131991Y36320D01*
X132013Y36352D01*
X132031Y36375D01*
X132045Y36388D01*
X132054Y36397D01*
X132059Y36402D01*
X132113Y36452D01*
X132168Y36497D01*
X132227Y36534D01*
X132286Y36566D01*
X132345Y36597D01*
X132404Y36620D01*
X132514Y36652D01*
X132564Y36666D01*
X132609Y36675D01*
X132650Y36679D01*
X132687Y36684D01*
X132714Y36689D01*
X132814D01*
X132869Y36679D01*
X132978Y36657D01*
X133078Y36625D01*
X133169Y36588D01*
X133242Y36552D01*
X133274Y36534D01*
X133301Y36520D01*
X133324Y36507D01*
X133337Y36497D01*
X133346Y36493D01*
X133351Y36488D01*
X133183Y37339D01*
X131922D01*
Y37708D01*
X133487D01*
X133792Y36088D01*
D02*
G37*
G36*
X135667Y37794D02*
X135812Y37771D01*
X135940Y37744D01*
X135999Y37726D01*
X136054Y37708D01*
X136104Y37689D01*
X136149Y37671D01*
X136186Y37658D01*
X136222Y37644D01*
X136245Y37630D01*
X136263Y37621D01*
X136276Y37617D01*
X136281Y37612D01*
X136404Y37535D01*
X136509Y37444D01*
X136600Y37353D01*
X136677Y37262D01*
X136736Y37180D01*
X136759Y37143D01*
X136777Y37112D01*
X136795Y37089D01*
X136804Y37071D01*
X136809Y37057D01*
X136813Y37052D01*
X136877Y36911D01*
X136923Y36766D01*
X136954Y36620D01*
X136977Y36488D01*
X136986Y36429D01*
X136991Y36370D01*
X136995Y36325D01*
Y36279D01*
X137000Y36247D01*
Y36220D01*
Y36202D01*
Y36197D01*
X136991Y36033D01*
X136973Y35874D01*
X136950Y35733D01*
X136932Y35665D01*
X136918Y35605D01*
X136904Y35551D01*
X136886Y35501D01*
X136873Y35455D01*
X136864Y35419D01*
X136850Y35392D01*
X136845Y35369D01*
X136836Y35355D01*
Y35351D01*
X136768Y35214D01*
X136691Y35091D01*
X136609Y34987D01*
X136568Y34946D01*
X136531Y34905D01*
X136495Y34868D01*
X136459Y34837D01*
X136427Y34809D01*
X136399Y34791D01*
X136381Y34773D01*
X136363Y34759D01*
X136354Y34755D01*
X136349Y34750D01*
X136286Y34714D01*
X136222Y34682D01*
X136085Y34632D01*
X135949Y34595D01*
X135817Y34573D01*
X135753Y34564D01*
X135699Y34554D01*
X135649Y34550D01*
X135608D01*
X135571Y34545D01*
X135521D01*
X135430Y34550D01*
X135344Y34559D01*
X135262Y34568D01*
X135185Y34586D01*
X135112Y34609D01*
X135044Y34632D01*
X134980Y34655D01*
X134921Y34682D01*
X134871Y34705D01*
X134821Y34727D01*
X134784Y34750D01*
X134748Y34773D01*
X134725Y34791D01*
X134702Y34800D01*
X134693Y34809D01*
X134689Y34814D01*
X134625Y34868D01*
X134570Y34923D01*
X134520Y34987D01*
X134470Y35050D01*
X134388Y35178D01*
X134325Y35305D01*
X134297Y35364D01*
X134274Y35419D01*
X134256Y35469D01*
X134243Y35510D01*
X134229Y35546D01*
X134220Y35574D01*
X134215Y35592D01*
Y35596D01*
X134634Y35701D01*
X134652Y35628D01*
X134675Y35560D01*
X134698Y35496D01*
X134721Y35437D01*
X134748Y35383D01*
X134775Y35337D01*
X134807Y35292D01*
X134834Y35251D01*
X134857Y35214D01*
X134884Y35187D01*
X134907Y35160D01*
X134925Y35137D01*
X134943Y35123D01*
X134957Y35110D01*
X134962Y35105D01*
X134966Y35100D01*
X135012Y35064D01*
X135062Y35037D01*
X135162Y34987D01*
X135257Y34950D01*
X135353Y34928D01*
X135435Y34909D01*
X135467Y34905D01*
X135498D01*
X135526Y34900D01*
X135558D01*
X135662Y34905D01*
X135762Y34923D01*
X135853Y34946D01*
X135935Y34973D01*
X135999Y35000D01*
X136026Y35014D01*
X136049Y35023D01*
X136067Y35032D01*
X136081Y35041D01*
X136090Y35046D01*
X136095D01*
X136181Y35110D01*
X136254Y35178D01*
X136318Y35255D01*
X136368Y35328D01*
X136408Y35392D01*
X136436Y35446D01*
X136445Y35469D01*
X136454Y35483D01*
X136459Y35492D01*
Y35496D01*
X136495Y35615D01*
X136522Y35733D01*
X136545Y35851D01*
X136559Y35960D01*
X136563Y36011D01*
X136568Y36056D01*
Y36097D01*
X136572Y36129D01*
Y36156D01*
Y36179D01*
Y36193D01*
Y36197D01*
X136568Y36315D01*
X136559Y36424D01*
X136540Y36525D01*
X136522Y36616D01*
X136509Y36693D01*
X136500Y36725D01*
X136490Y36752D01*
X136486Y36775D01*
X136481Y36788D01*
X136477Y36798D01*
Y36802D01*
X136431Y36907D01*
X136381Y37002D01*
X136327Y37080D01*
X136267Y37148D01*
X136217Y37203D01*
X136176Y37239D01*
X136145Y37262D01*
X136140Y37271D01*
X136135D01*
X136040Y37330D01*
X135935Y37376D01*
X135835Y37407D01*
X135740Y37426D01*
X135653Y37439D01*
X135617Y37444D01*
X135585D01*
X135562Y37448D01*
X135526D01*
X135412Y37444D01*
X135307Y37426D01*
X135221Y37398D01*
X135144Y37371D01*
X135084Y37339D01*
X135039Y37316D01*
X135012Y37298D01*
X135003Y37289D01*
X134930Y37221D01*
X134862Y37143D01*
X134807Y37062D01*
X134761Y36980D01*
X134725Y36907D01*
X134711Y36870D01*
X134702Y36843D01*
X134693Y36820D01*
X134684Y36802D01*
X134679Y36793D01*
Y36788D01*
X134270Y36884D01*
X134297Y36966D01*
X134325Y37039D01*
X134361Y37107D01*
X134393Y37175D01*
X134429Y37234D01*
X134470Y37289D01*
X134507Y37344D01*
X134543Y37389D01*
X134579Y37426D01*
X134611Y37462D01*
X134643Y37494D01*
X134666Y37517D01*
X134689Y37539D01*
X134707Y37553D01*
X134716Y37558D01*
X134721Y37562D01*
X134784Y37603D01*
X134848Y37644D01*
X134912Y37676D01*
X134980Y37703D01*
X135116Y37744D01*
X135239Y37771D01*
X135298Y37785D01*
X135348Y37790D01*
X135398Y37794D01*
X135439Y37799D01*
X135471Y37803D01*
X135517D01*
X135667Y37794D01*
D02*
G37*
G36*
X78137Y37758D02*
X78223Y37749D01*
X78305Y37730D01*
X78382Y37708D01*
X78451Y37676D01*
X78519Y37648D01*
X78578Y37612D01*
X78633Y37580D01*
X78678Y37548D01*
X78724Y37512D01*
X78760Y37485D01*
X78787Y37457D01*
X78810Y37430D01*
X78828Y37412D01*
X78838Y37403D01*
X78842Y37398D01*
X78901Y37316D01*
X78951Y37221D01*
X78997Y37121D01*
X79038Y37016D01*
X79070Y36907D01*
X79097Y36798D01*
X79120Y36684D01*
X79138Y36579D01*
X79151Y36475D01*
X79160Y36379D01*
X79170Y36293D01*
X79174Y36220D01*
Y36156D01*
X79179Y36111D01*
Y36092D01*
Y36079D01*
Y36074D01*
Y36070D01*
X79174Y35924D01*
X79165Y35787D01*
X79151Y35660D01*
X79129Y35542D01*
X79106Y35437D01*
X79083Y35342D01*
X79056Y35255D01*
X79024Y35178D01*
X78997Y35114D01*
X78969Y35055D01*
X78947Y35010D01*
X78919Y34969D01*
X78901Y34937D01*
X78887Y34918D01*
X78878Y34905D01*
X78874Y34900D01*
X78815Y34837D01*
X78751Y34782D01*
X78687Y34736D01*
X78624Y34696D01*
X78555Y34659D01*
X78492Y34632D01*
X78428Y34609D01*
X78364Y34591D01*
X78310Y34577D01*
X78255Y34564D01*
X78210Y34554D01*
X78169Y34550D01*
X78132D01*
X78110Y34545D01*
X78087D01*
X77982Y34550D01*
X77886Y34568D01*
X77800Y34586D01*
X77723Y34614D01*
X77663Y34636D01*
X77618Y34659D01*
X77600Y34664D01*
X77586Y34673D01*
X77582Y34677D01*
X77577D01*
X77500Y34732D01*
X77427Y34796D01*
X77368Y34859D01*
X77318Y34923D01*
X77277Y34982D01*
X77249Y35028D01*
X77240Y35046D01*
X77231Y35060D01*
X77227Y35064D01*
Y35069D01*
X77181Y35164D01*
X77149Y35264D01*
X77127Y35355D01*
X77113Y35442D01*
X77099Y35515D01*
Y35542D01*
X77095Y35569D01*
Y35592D01*
Y35605D01*
Y35615D01*
Y35619D01*
X77099Y35701D01*
X77109Y35778D01*
X77122Y35856D01*
X77136Y35924D01*
X77158Y35988D01*
X77181Y36051D01*
X77204Y36106D01*
X77231Y36156D01*
X77259Y36202D01*
X77281Y36242D01*
X77304Y36274D01*
X77327Y36306D01*
X77341Y36329D01*
X77354Y36343D01*
X77363Y36352D01*
X77368Y36356D01*
X77418Y36406D01*
X77473Y36452D01*
X77532Y36488D01*
X77586Y36520D01*
X77641Y36552D01*
X77695Y36575D01*
X77800Y36606D01*
X77846Y36620D01*
X77891Y36629D01*
X77927Y36634D01*
X77964Y36638D01*
X77991Y36643D01*
X78027D01*
X78110Y36638D01*
X78187Y36625D01*
X78260Y36611D01*
X78323Y36593D01*
X78378Y36570D01*
X78419Y36557D01*
X78446Y36543D01*
X78451Y36538D01*
X78455D01*
X78528Y36493D01*
X78592Y36443D01*
X78651Y36393D01*
X78696Y36338D01*
X78737Y36293D01*
X78769Y36256D01*
X78787Y36229D01*
X78792Y36224D01*
Y36306D01*
X78787Y36388D01*
X78783Y36461D01*
X78774Y36534D01*
X78769Y36597D01*
X78760Y36657D01*
X78751Y36711D01*
X78737Y36761D01*
X78728Y36807D01*
X78719Y36843D01*
X78710Y36875D01*
X78706Y36902D01*
X78696Y36920D01*
X78692Y36934D01*
X78687Y36943D01*
Y36948D01*
X78642Y37039D01*
X78596Y37121D01*
X78546Y37184D01*
X78501Y37239D01*
X78460Y37284D01*
X78428Y37316D01*
X78405Y37335D01*
X78396Y37339D01*
X78342Y37376D01*
X78287Y37398D01*
X78232Y37416D01*
X78178Y37430D01*
X78137Y37439D01*
X78100Y37444D01*
X78069D01*
X77987Y37435D01*
X77909Y37416D01*
X77846Y37389D01*
X77786Y37362D01*
X77741Y37330D01*
X77709Y37303D01*
X77691Y37284D01*
X77682Y37275D01*
X77650Y37234D01*
X77618Y37184D01*
X77591Y37130D01*
X77573Y37075D01*
X77554Y37025D01*
X77541Y36984D01*
X77536Y36957D01*
X77532Y36952D01*
Y36948D01*
X77145Y36980D01*
X77172Y37107D01*
X77213Y37221D01*
X77259Y37321D01*
X77309Y37403D01*
X77359Y37466D01*
X77377Y37494D01*
X77400Y37517D01*
X77413Y37530D01*
X77427Y37544D01*
X77431Y37548D01*
X77436Y37553D01*
X77482Y37589D01*
X77532Y37621D01*
X77632Y37676D01*
X77732Y37712D01*
X77827Y37735D01*
X77914Y37753D01*
X77950Y37758D01*
X77982D01*
X78009Y37762D01*
X78046D01*
X78137Y37758D01*
D02*
G37*
G36*
X80967Y37794D02*
X81112Y37771D01*
X81240Y37744D01*
X81299Y37726D01*
X81354Y37708D01*
X81404Y37689D01*
X81449Y37671D01*
X81486Y37658D01*
X81522Y37644D01*
X81545Y37630D01*
X81563Y37621D01*
X81577Y37617D01*
X81581Y37612D01*
X81704Y37535D01*
X81809Y37444D01*
X81900Y37353D01*
X81977Y37262D01*
X82036Y37180D01*
X82059Y37143D01*
X82077Y37112D01*
X82095Y37089D01*
X82104Y37071D01*
X82109Y37057D01*
X82113Y37052D01*
X82177Y36911D01*
X82223Y36766D01*
X82254Y36620D01*
X82277Y36488D01*
X82286Y36429D01*
X82291Y36370D01*
X82296Y36325D01*
Y36279D01*
X82300Y36247D01*
Y36220D01*
Y36202D01*
Y36197D01*
X82291Y36033D01*
X82273Y35874D01*
X82250Y35733D01*
X82232Y35665D01*
X82218Y35605D01*
X82204Y35551D01*
X82186Y35501D01*
X82173Y35455D01*
X82164Y35419D01*
X82150Y35392D01*
X82145Y35369D01*
X82136Y35355D01*
Y35351D01*
X82068Y35214D01*
X81991Y35091D01*
X81909Y34987D01*
X81868Y34946D01*
X81831Y34905D01*
X81795Y34868D01*
X81759Y34837D01*
X81727Y34809D01*
X81699Y34791D01*
X81681Y34773D01*
X81663Y34759D01*
X81654Y34755D01*
X81649Y34750D01*
X81586Y34714D01*
X81522Y34682D01*
X81385Y34632D01*
X81249Y34595D01*
X81117Y34573D01*
X81053Y34564D01*
X80999Y34554D01*
X80949Y34550D01*
X80908D01*
X80871Y34545D01*
X80821D01*
X80730Y34550D01*
X80644Y34559D01*
X80562Y34568D01*
X80485Y34586D01*
X80412Y34609D01*
X80344Y34632D01*
X80280Y34655D01*
X80221Y34682D01*
X80171Y34705D01*
X80121Y34727D01*
X80084Y34750D01*
X80048Y34773D01*
X80025Y34791D01*
X80002Y34800D01*
X79993Y34809D01*
X79989Y34814D01*
X79925Y34868D01*
X79870Y34923D01*
X79820Y34987D01*
X79770Y35050D01*
X79688Y35178D01*
X79625Y35305D01*
X79597Y35364D01*
X79575Y35419D01*
X79556Y35469D01*
X79543Y35510D01*
X79529Y35546D01*
X79520Y35574D01*
X79515Y35592D01*
Y35596D01*
X79934Y35701D01*
X79952Y35628D01*
X79975Y35560D01*
X79998Y35496D01*
X80020Y35437D01*
X80048Y35383D01*
X80075Y35337D01*
X80107Y35292D01*
X80134Y35251D01*
X80157Y35214D01*
X80184Y35187D01*
X80207Y35160D01*
X80225Y35137D01*
X80243Y35123D01*
X80257Y35110D01*
X80262Y35105D01*
X80266Y35100D01*
X80312Y35064D01*
X80362Y35037D01*
X80462Y34987D01*
X80557Y34950D01*
X80653Y34928D01*
X80735Y34909D01*
X80767Y34905D01*
X80799D01*
X80826Y34900D01*
X80858D01*
X80962Y34905D01*
X81062Y34923D01*
X81153Y34946D01*
X81235Y34973D01*
X81299Y35000D01*
X81326Y35014D01*
X81349Y35023D01*
X81367Y35032D01*
X81381Y35041D01*
X81390Y35046D01*
X81395D01*
X81481Y35110D01*
X81554Y35178D01*
X81617Y35255D01*
X81668Y35328D01*
X81709Y35392D01*
X81736Y35446D01*
X81745Y35469D01*
X81754Y35483D01*
X81759Y35492D01*
Y35496D01*
X81795Y35615D01*
X81822Y35733D01*
X81845Y35851D01*
X81859Y35960D01*
X81863Y36011D01*
X81868Y36056D01*
Y36097D01*
X81872Y36129D01*
Y36156D01*
Y36179D01*
Y36193D01*
Y36197D01*
X81868Y36315D01*
X81859Y36424D01*
X81840Y36525D01*
X81822Y36616D01*
X81809Y36693D01*
X81800Y36725D01*
X81790Y36752D01*
X81786Y36775D01*
X81781Y36788D01*
X81777Y36798D01*
Y36802D01*
X81731Y36907D01*
X81681Y37002D01*
X81627Y37080D01*
X81567Y37148D01*
X81517Y37203D01*
X81476Y37239D01*
X81445Y37262D01*
X81440Y37271D01*
X81436D01*
X81340Y37330D01*
X81235Y37376D01*
X81135Y37407D01*
X81040Y37426D01*
X80953Y37439D01*
X80917Y37444D01*
X80885D01*
X80862Y37448D01*
X80826D01*
X80712Y37444D01*
X80607Y37426D01*
X80521Y37398D01*
X80444Y37371D01*
X80384Y37339D01*
X80339Y37316D01*
X80312Y37298D01*
X80303Y37289D01*
X80230Y37221D01*
X80161Y37143D01*
X80107Y37062D01*
X80061Y36980D01*
X80025Y36907D01*
X80011Y36870D01*
X80002Y36843D01*
X79993Y36820D01*
X79984Y36802D01*
X79979Y36793D01*
Y36788D01*
X79570Y36884D01*
X79597Y36966D01*
X79625Y37039D01*
X79661Y37107D01*
X79693Y37175D01*
X79729Y37234D01*
X79770Y37289D01*
X79807Y37344D01*
X79843Y37389D01*
X79879Y37426D01*
X79911Y37462D01*
X79943Y37494D01*
X79966Y37517D01*
X79989Y37539D01*
X80007Y37553D01*
X80016Y37558D01*
X80020Y37562D01*
X80084Y37603D01*
X80148Y37644D01*
X80212Y37676D01*
X80280Y37703D01*
X80416Y37744D01*
X80539Y37771D01*
X80598Y37785D01*
X80648Y37790D01*
X80698Y37794D01*
X80739Y37799D01*
X80771Y37803D01*
X80817D01*
X80967Y37794D01*
D02*
G37*
G36*
X163700Y18958D02*
X163778Y18953D01*
X163851Y18939D01*
X163919Y18926D01*
X163982Y18908D01*
X164042Y18889D01*
X164096Y18867D01*
X164146Y18844D01*
X164192Y18821D01*
X164228Y18798D01*
X164260Y18780D01*
X164287Y18762D01*
X164310Y18748D01*
X164324Y18735D01*
X164333Y18730D01*
X164337Y18726D01*
X164383Y18680D01*
X164424Y18630D01*
X164465Y18575D01*
X164497Y18521D01*
X164551Y18412D01*
X164588Y18303D01*
X164601Y18252D01*
X164615Y18202D01*
X164624Y18161D01*
X164633Y18125D01*
X164638Y18093D01*
Y18070D01*
X164642Y18057D01*
Y18052D01*
X164246Y18011D01*
X164237Y18116D01*
X164219Y18207D01*
X164192Y18289D01*
X164160Y18352D01*
X164133Y18407D01*
X164105Y18443D01*
X164087Y18466D01*
X164078Y18475D01*
X164010Y18530D01*
X163937Y18571D01*
X163860Y18603D01*
X163792Y18621D01*
X163728Y18635D01*
X163673Y18639D01*
X163655Y18644D01*
X163628D01*
X163532Y18639D01*
X163446Y18621D01*
X163373Y18594D01*
X163309Y18566D01*
X163259Y18534D01*
X163227Y18512D01*
X163205Y18494D01*
X163195Y18485D01*
X163141Y18421D01*
X163100Y18357D01*
X163068Y18293D01*
X163050Y18230D01*
X163036Y18180D01*
X163032Y18134D01*
X163027Y18107D01*
Y18102D01*
Y18098D01*
X163036Y18016D01*
X163054Y17929D01*
X163086Y17852D01*
X163118Y17779D01*
X163154Y17720D01*
X163186Y17670D01*
X163195Y17652D01*
X163205Y17638D01*
X163214Y17634D01*
Y17629D01*
X163250Y17579D01*
X163295Y17529D01*
X163346Y17474D01*
X163400Y17420D01*
X163514Y17311D01*
X163628Y17201D01*
X163687Y17151D01*
X163737Y17106D01*
X163787Y17065D01*
X163828Y17029D01*
X163860Y17001D01*
X163887Y16978D01*
X163905Y16965D01*
X163910Y16960D01*
X164023Y16865D01*
X164128Y16774D01*
X164215Y16692D01*
X164283Y16624D01*
X164342Y16564D01*
X164383Y16523D01*
X164406Y16496D01*
X164415Y16492D01*
Y16487D01*
X164479Y16410D01*
X164529Y16337D01*
X164574Y16264D01*
X164610Y16200D01*
X164638Y16146D01*
X164656Y16105D01*
X164665Y16078D01*
X164670Y16073D01*
Y16069D01*
X164688Y16018D01*
X164697Y15973D01*
X164706Y15927D01*
X164710Y15886D01*
X164715Y15850D01*
Y15823D01*
Y15805D01*
Y15800D01*
X162627D01*
Y16173D01*
X164178D01*
X164124Y16251D01*
X164096Y16282D01*
X164074Y16314D01*
X164051Y16341D01*
X164033Y16360D01*
X164019Y16373D01*
X164014Y16378D01*
X163992Y16401D01*
X163964Y16423D01*
X163901Y16483D01*
X163828Y16551D01*
X163751Y16619D01*
X163678Y16678D01*
X163646Y16705D01*
X163619Y16733D01*
X163596Y16751D01*
X163578Y16765D01*
X163568Y16774D01*
X163564Y16778D01*
X163491Y16842D01*
X163418Y16901D01*
X163355Y16960D01*
X163295Y17010D01*
X163241Y17060D01*
X163195Y17106D01*
X163150Y17147D01*
X163113Y17183D01*
X163077Y17220D01*
X163050Y17247D01*
X163027Y17270D01*
X163004Y17292D01*
X162981Y17320D01*
X162972Y17329D01*
X162909Y17406D01*
X162854Y17474D01*
X162809Y17543D01*
X162772Y17597D01*
X162745Y17647D01*
X162727Y17684D01*
X162718Y17706D01*
X162713Y17716D01*
X162686Y17784D01*
X162668Y17852D01*
X162649Y17916D01*
X162640Y17970D01*
X162636Y18020D01*
X162631Y18057D01*
Y18080D01*
Y18089D01*
X162636Y18157D01*
X162645Y18221D01*
X162654Y18284D01*
X162672Y18339D01*
X162718Y18448D01*
X162763Y18534D01*
X162791Y18575D01*
X162813Y18607D01*
X162836Y18639D01*
X162859Y18662D01*
X162877Y18680D01*
X162886Y18698D01*
X162895Y18703D01*
X162900Y18708D01*
X162950Y18753D01*
X163004Y18794D01*
X163063Y18826D01*
X163123Y18853D01*
X163241Y18899D01*
X163359Y18930D01*
X163409Y18939D01*
X163459Y18949D01*
X163505Y18953D01*
X163541Y18958D01*
X163573Y18962D01*
X163619D01*
X163700Y18958D01*
D02*
G37*
G36*
X166467Y18994D02*
X166612Y18971D01*
X166740Y18944D01*
X166799Y18926D01*
X166854Y18908D01*
X166904Y18889D01*
X166949Y18871D01*
X166985Y18858D01*
X167022Y18844D01*
X167045Y18830D01*
X167063Y18821D01*
X167077Y18817D01*
X167081Y18812D01*
X167204Y18735D01*
X167309Y18644D01*
X167400Y18553D01*
X167477Y18462D01*
X167536Y18380D01*
X167559Y18343D01*
X167577Y18312D01*
X167595Y18289D01*
X167604Y18271D01*
X167609Y18257D01*
X167613Y18252D01*
X167677Y18111D01*
X167723Y17966D01*
X167754Y17820D01*
X167777Y17688D01*
X167786Y17629D01*
X167791Y17570D01*
X167796Y17524D01*
Y17479D01*
X167800Y17447D01*
Y17420D01*
Y17402D01*
Y17397D01*
X167791Y17233D01*
X167773Y17074D01*
X167750Y16933D01*
X167732Y16865D01*
X167718Y16805D01*
X167704Y16751D01*
X167686Y16701D01*
X167673Y16655D01*
X167664Y16619D01*
X167650Y16592D01*
X167645Y16569D01*
X167636Y16555D01*
Y16551D01*
X167568Y16414D01*
X167491Y16291D01*
X167409Y16187D01*
X167368Y16146D01*
X167331Y16105D01*
X167295Y16069D01*
X167259Y16037D01*
X167227Y16009D01*
X167199Y15991D01*
X167181Y15973D01*
X167163Y15959D01*
X167154Y15955D01*
X167149Y15950D01*
X167086Y15914D01*
X167022Y15882D01*
X166885Y15832D01*
X166749Y15795D01*
X166617Y15773D01*
X166553Y15764D01*
X166499Y15755D01*
X166449Y15750D01*
X166408D01*
X166371Y15745D01*
X166321D01*
X166230Y15750D01*
X166144Y15759D01*
X166062Y15768D01*
X165984Y15786D01*
X165912Y15809D01*
X165843Y15832D01*
X165780Y15855D01*
X165721Y15882D01*
X165671Y15905D01*
X165621Y15927D01*
X165584Y15950D01*
X165548Y15973D01*
X165525Y15991D01*
X165502Y16000D01*
X165493Y16009D01*
X165489Y16014D01*
X165425Y16069D01*
X165370Y16123D01*
X165320Y16187D01*
X165270Y16251D01*
X165188Y16378D01*
X165125Y16505D01*
X165097Y16564D01*
X165075Y16619D01*
X165056Y16669D01*
X165043Y16710D01*
X165029Y16746D01*
X165020Y16774D01*
X165015Y16792D01*
Y16796D01*
X165434Y16901D01*
X165452Y16828D01*
X165475Y16760D01*
X165498Y16696D01*
X165521Y16637D01*
X165548Y16583D01*
X165575Y16537D01*
X165607Y16492D01*
X165634Y16451D01*
X165657Y16414D01*
X165684Y16387D01*
X165707Y16360D01*
X165725Y16337D01*
X165743Y16323D01*
X165757Y16310D01*
X165762Y16305D01*
X165766Y16300D01*
X165812Y16264D01*
X165862Y16237D01*
X165962Y16187D01*
X166057Y16150D01*
X166153Y16128D01*
X166235Y16109D01*
X166267Y16105D01*
X166298D01*
X166326Y16100D01*
X166358D01*
X166462Y16105D01*
X166562Y16123D01*
X166653Y16146D01*
X166735Y16173D01*
X166799Y16200D01*
X166826Y16214D01*
X166849Y16223D01*
X166867Y16232D01*
X166881Y16241D01*
X166890Y16246D01*
X166895D01*
X166981Y16310D01*
X167054Y16378D01*
X167118Y16455D01*
X167168Y16528D01*
X167209Y16592D01*
X167236Y16646D01*
X167245Y16669D01*
X167254Y16683D01*
X167259Y16692D01*
Y16696D01*
X167295Y16815D01*
X167322Y16933D01*
X167345Y17051D01*
X167359Y17161D01*
X167363Y17210D01*
X167368Y17256D01*
Y17297D01*
X167372Y17329D01*
Y17356D01*
Y17379D01*
Y17392D01*
Y17397D01*
X167368Y17515D01*
X167359Y17625D01*
X167341Y17725D01*
X167322Y17816D01*
X167309Y17893D01*
X167299Y17925D01*
X167290Y17952D01*
X167286Y17975D01*
X167281Y17989D01*
X167277Y17998D01*
Y18002D01*
X167231Y18107D01*
X167181Y18202D01*
X167127Y18280D01*
X167068Y18348D01*
X167017Y18403D01*
X166976Y18439D01*
X166945Y18462D01*
X166940Y18471D01*
X166936D01*
X166840Y18530D01*
X166735Y18575D01*
X166635Y18607D01*
X166540Y18626D01*
X166453Y18639D01*
X166417Y18644D01*
X166385D01*
X166362Y18648D01*
X166326D01*
X166212Y18644D01*
X166107Y18626D01*
X166021Y18598D01*
X165944Y18571D01*
X165884Y18539D01*
X165839Y18516D01*
X165812Y18498D01*
X165803Y18489D01*
X165730Y18421D01*
X165662Y18343D01*
X165607Y18261D01*
X165561Y18180D01*
X165525Y18107D01*
X165511Y18070D01*
X165502Y18043D01*
X165493Y18020D01*
X165484Y18002D01*
X165480Y17993D01*
Y17989D01*
X165070Y18084D01*
X165097Y18166D01*
X165125Y18239D01*
X165161Y18307D01*
X165193Y18375D01*
X165229Y18435D01*
X165270Y18489D01*
X165307Y18544D01*
X165343Y18589D01*
X165379Y18626D01*
X165411Y18662D01*
X165443Y18694D01*
X165466Y18717D01*
X165489Y18739D01*
X165507Y18753D01*
X165516Y18757D01*
X165521Y18762D01*
X165584Y18803D01*
X165648Y18844D01*
X165712Y18876D01*
X165780Y18903D01*
X165916Y18944D01*
X166039Y18971D01*
X166098Y18985D01*
X166148Y18990D01*
X166198Y18994D01*
X166239Y18999D01*
X166271Y19003D01*
X166317D01*
X166467Y18994D01*
D02*
G37*
%LPC*%
G36*
X113756Y43676D02*
X112855D01*
X112773Y43671D01*
X112705Y43666D01*
X112650Y43662D01*
X112614Y43653D01*
X112586Y43648D01*
X112568Y43644D01*
X112564D01*
X112504Y43621D01*
X112454Y43594D01*
X112409Y43566D01*
X112368Y43534D01*
X112341Y43503D01*
X112318Y43480D01*
X112304Y43462D01*
X112300Y43457D01*
X112268Y43402D01*
X112241Y43348D01*
X112222Y43289D01*
X112213Y43239D01*
X112204Y43193D01*
X112200Y43152D01*
Y43130D01*
Y43125D01*
Y43120D01*
X112209Y43025D01*
X112227Y42943D01*
X112254Y42870D01*
X112286Y42811D01*
X112318Y42766D01*
X112345Y42729D01*
X112363Y42711D01*
X112373Y42702D01*
X112404Y42674D01*
X112445Y42652D01*
X112532Y42615D01*
X112627Y42588D01*
X112723Y42570D01*
X112809Y42561D01*
X112846Y42556D01*
X112878D01*
X112909Y42552D01*
X113756D01*
Y43676D01*
D02*
G37*
G36*
X90410Y36990D02*
X89286D01*
Y36089D01*
X89290Y36007D01*
X89295Y35939D01*
X89300Y35884D01*
X89309Y35848D01*
X89313Y35820D01*
X89318Y35802D01*
Y35798D01*
X89341Y35738D01*
X89368Y35688D01*
X89395Y35643D01*
X89427Y35602D01*
X89459Y35575D01*
X89482Y35552D01*
X89500Y35538D01*
X89504Y35534D01*
X89559Y35502D01*
X89613Y35475D01*
X89673Y35456D01*
X89723Y35447D01*
X89768Y35438D01*
X89809Y35434D01*
X89832D01*
X89837D01*
X89841D01*
X89937Y35443D01*
X90018Y35461D01*
X90091Y35488D01*
X90150Y35520D01*
X90196Y35552D01*
X90232Y35579D01*
X90250Y35597D01*
X90260Y35606D01*
X90287Y35638D01*
X90310Y35679D01*
X90346Y35766D01*
X90373Y35861D01*
X90392Y35957D01*
X90401Y36043D01*
X90405Y36080D01*
Y36112D01*
X90410Y36143D01*
Y36990D01*
D02*
G37*
G36*
X91074Y34205D02*
X91051D01*
X91042D01*
X90933Y34196D01*
X90838Y34178D01*
X90751Y34146D01*
X90683Y34114D01*
X90624Y34082D01*
X90583Y34050D01*
X90560Y34032D01*
X90551Y34023D01*
X90487Y33950D01*
X90442Y33877D01*
X90405Y33800D01*
X90382Y33732D01*
X90369Y33668D01*
X90364Y33623D01*
X90360Y33604D01*
Y33577D01*
X90369Y33482D01*
X90392Y33395D01*
X90419Y33322D01*
X90455Y33259D01*
X90492Y33209D01*
X90519Y33172D01*
X90542Y33149D01*
X90551Y33140D01*
X90628Y33081D01*
X90710Y33036D01*
X90797Y33004D01*
X90878Y32986D01*
X90951Y32972D01*
X90983Y32967D01*
X91010D01*
X91033Y32963D01*
X91051D01*
X91060D01*
X91065D01*
X91188Y32972D01*
X91293Y32990D01*
X91383Y33018D01*
X91461Y33049D01*
X91520Y33086D01*
X91566Y33113D01*
X91593Y33131D01*
X91597Y33140D01*
X91602D01*
X91638Y33172D01*
X91666Y33209D01*
X91716Y33281D01*
X91747Y33354D01*
X91775Y33418D01*
X91788Y33477D01*
X91793Y33522D01*
X91798Y33541D01*
Y33564D01*
X91793Y33627D01*
X91784Y33686D01*
X91766Y33741D01*
X91747Y33786D01*
X91734Y33827D01*
X91716Y33859D01*
X91707Y33877D01*
X91702Y33887D01*
X91661Y33941D01*
X91620Y33987D01*
X91570Y34028D01*
X91529Y34059D01*
X91488Y34087D01*
X91456Y34105D01*
X91434Y34119D01*
X91424Y34123D01*
X91356Y34150D01*
X91288Y34169D01*
X91224Y34187D01*
X91165Y34196D01*
X91115Y34201D01*
X91074Y34205D01*
D02*
G37*
G36*
X153656Y16775D02*
X152755D01*
X152673Y16771D01*
X152605Y16766D01*
X152550Y16762D01*
X152514Y16753D01*
X152486Y16748D01*
X152468Y16744D01*
X152464D01*
X152404Y16721D01*
X152354Y16694D01*
X152309Y16666D01*
X152268Y16635D01*
X152241Y16603D01*
X152218Y16580D01*
X152204Y16562D01*
X152200Y16557D01*
X152168Y16502D01*
X152141Y16448D01*
X152122Y16389D01*
X152113Y16339D01*
X152104Y16293D01*
X152100Y16252D01*
Y16229D01*
Y16225D01*
Y16220D01*
X152109Y16125D01*
X152127Y16043D01*
X152154Y15970D01*
X152186Y15911D01*
X152218Y15866D01*
X152245Y15829D01*
X152263Y15811D01*
X152273Y15802D01*
X152304Y15775D01*
X152345Y15752D01*
X152432Y15715D01*
X152527Y15688D01*
X152623Y15670D01*
X152709Y15661D01*
X152746Y15656D01*
X152778D01*
X152809Y15652D01*
X153656D01*
Y16775D01*
D02*
G37*
G36*
X176256Y25076D02*
X175355D01*
X175273Y25071D01*
X175205Y25066D01*
X175150Y25062D01*
X175114Y25053D01*
X175086Y25048D01*
X175068Y25044D01*
X175064D01*
X175004Y25021D01*
X174954Y24994D01*
X174909Y24966D01*
X174868Y24935D01*
X174841Y24903D01*
X174818Y24880D01*
X174804Y24862D01*
X174800Y24857D01*
X174768Y24803D01*
X174741Y24748D01*
X174722Y24689D01*
X174713Y24639D01*
X174704Y24593D01*
X174700Y24552D01*
Y24530D01*
Y24525D01*
Y24520D01*
X174709Y24425D01*
X174727Y24343D01*
X174754Y24270D01*
X174786Y24211D01*
X174818Y24166D01*
X174845Y24129D01*
X174863Y24111D01*
X174873Y24102D01*
X174904Y24074D01*
X174945Y24052D01*
X175032Y24015D01*
X175127Y23988D01*
X175223Y23970D01*
X175309Y23961D01*
X175346Y23956D01*
X175378D01*
X175409Y23952D01*
X176256D01*
Y25076D01*
D02*
G37*
G36*
X154956Y54176D02*
X154055D01*
X153973Y54171D01*
X153905Y54166D01*
X153850Y54162D01*
X153814Y54153D01*
X153786Y54148D01*
X153768Y54144D01*
X153764D01*
X153705Y54121D01*
X153654Y54094D01*
X153609Y54066D01*
X153568Y54035D01*
X153541Y54003D01*
X153518Y53980D01*
X153504Y53962D01*
X153500Y53957D01*
X153468Y53903D01*
X153441Y53848D01*
X153422Y53789D01*
X153413Y53739D01*
X153404Y53693D01*
X153400Y53652D01*
Y53629D01*
Y53625D01*
Y53620D01*
X153409Y53525D01*
X153427Y53443D01*
X153454Y53370D01*
X153486Y53311D01*
X153518Y53266D01*
X153545Y53229D01*
X153563Y53211D01*
X153573Y53202D01*
X153604Y53175D01*
X153645Y53152D01*
X153732Y53115D01*
X153827Y53088D01*
X153923Y53070D01*
X154009Y53061D01*
X154046Y53056D01*
X154078D01*
X154109Y53052D01*
X154956D01*
Y54176D01*
D02*
G37*
G36*
X123056Y13275D02*
X122155D01*
X122073Y13271D01*
X122005Y13266D01*
X121950Y13262D01*
X121914Y13253D01*
X121886Y13248D01*
X121868Y13244D01*
X121864D01*
X121804Y13221D01*
X121754Y13194D01*
X121709Y13166D01*
X121668Y13135D01*
X121641Y13103D01*
X121618Y13080D01*
X121604Y13062D01*
X121600Y13057D01*
X121568Y13002D01*
X121541Y12948D01*
X121522Y12889D01*
X121513Y12839D01*
X121504Y12793D01*
X121500Y12752D01*
Y12730D01*
Y12725D01*
Y12720D01*
X121509Y12625D01*
X121527Y12543D01*
X121554Y12470D01*
X121586Y12411D01*
X121618Y12365D01*
X121645Y12329D01*
X121663Y12311D01*
X121673Y12302D01*
X121704Y12274D01*
X121745Y12252D01*
X121832Y12215D01*
X121927Y12188D01*
X122023Y12170D01*
X122109Y12161D01*
X122146Y12156D01*
X122178D01*
X122209Y12152D01*
X123056D01*
Y13275D01*
D02*
G37*
G36*
X119461Y13021D02*
Y11610D01*
X120453D01*
X119461Y13021D01*
D02*
G37*
G36*
X95456Y12675D02*
X94555D01*
X94473Y12671D01*
X94405Y12666D01*
X94350Y12662D01*
X94314Y12653D01*
X94286Y12648D01*
X94268Y12644D01*
X94264D01*
X94204Y12621D01*
X94154Y12594D01*
X94109Y12566D01*
X94068Y12534D01*
X94041Y12503D01*
X94018Y12480D01*
X94004Y12462D01*
X94000Y12457D01*
X93968Y12403D01*
X93941Y12348D01*
X93922Y12289D01*
X93913Y12239D01*
X93904Y12193D01*
X93900Y12152D01*
Y12129D01*
Y12125D01*
Y12120D01*
X93909Y12025D01*
X93927Y11943D01*
X93954Y11870D01*
X93986Y11811D01*
X94018Y11766D01*
X94045Y11729D01*
X94064Y11711D01*
X94073Y11702D01*
X94104Y11675D01*
X94145Y11652D01*
X94232Y11615D01*
X94327Y11588D01*
X94423Y11570D01*
X94509Y11561D01*
X94546Y11556D01*
X94578D01*
X94609Y11552D01*
X95456D01*
Y12675D01*
D02*
G37*
G36*
X136381Y52698D02*
X135389D01*
X135267Y52694D01*
X135162Y52675D01*
X135071Y52653D01*
X135003Y52626D01*
X134944Y52598D01*
X134907Y52575D01*
X134884Y52557D01*
X134875Y52553D01*
X134821Y52494D01*
X134780Y52434D01*
X134753Y52371D01*
X134730Y52316D01*
X134721Y52262D01*
X134716Y52220D01*
X134712Y52193D01*
Y52189D01*
Y52184D01*
X134716Y52130D01*
X134725Y52075D01*
X134739Y52029D01*
X134753Y51989D01*
X134771Y51952D01*
X134784Y51925D01*
X134793Y51907D01*
X134798Y51902D01*
X134830Y51856D01*
X134871Y51815D01*
X134912Y51784D01*
X134953Y51756D01*
X134989Y51738D01*
X135016Y51724D01*
X135035Y51715D01*
X135044Y51711D01*
X135107Y51693D01*
X135180Y51679D01*
X135253Y51670D01*
X135326Y51665D01*
X135389Y51661D01*
X135444Y51656D01*
X136381D01*
Y52698D01*
D02*
G37*
G36*
X81781Y52098D02*
X80790D01*
X80667Y52094D01*
X80562Y52075D01*
X80471Y52053D01*
X80403Y52026D01*
X80344Y51998D01*
X80307Y51975D01*
X80285Y51957D01*
X80275Y51953D01*
X80221Y51894D01*
X80180Y51834D01*
X80152Y51771D01*
X80130Y51716D01*
X80121Y51661D01*
X80116Y51621D01*
X80111Y51593D01*
Y51589D01*
Y51584D01*
X80116Y51530D01*
X80125Y51475D01*
X80139Y51429D01*
X80152Y51389D01*
X80171Y51352D01*
X80184Y51325D01*
X80193Y51307D01*
X80198Y51302D01*
X80230Y51257D01*
X80271Y51215D01*
X80312Y51184D01*
X80353Y51156D01*
X80389Y51138D01*
X80416Y51125D01*
X80435Y51115D01*
X80444Y51111D01*
X80507Y51093D01*
X80580Y51079D01*
X80653Y51070D01*
X80726Y51065D01*
X80790Y51061D01*
X80844Y51056D01*
X81781D01*
Y52098D01*
D02*
G37*
G36*
X140093Y16388D02*
X140089D01*
X140084D01*
X140030Y16384D01*
X139975Y16375D01*
X139929Y16361D01*
X139888Y16348D01*
X139852Y16329D01*
X139825Y16316D01*
X139806Y16307D01*
X139802Y16302D01*
X139757Y16270D01*
X139716Y16229D01*
X139684Y16188D01*
X139656Y16147D01*
X139638Y16111D01*
X139625Y16084D01*
X139615Y16065D01*
X139611Y16056D01*
X139593Y15993D01*
X139579Y15920D01*
X139570Y15847D01*
X139565Y15774D01*
X139561Y15710D01*
X139556Y15656D01*
Y14719D01*
X140598D01*
Y15710D01*
X140594Y15833D01*
X140576Y15938D01*
X140553Y16029D01*
X140525Y16097D01*
X140498Y16156D01*
X140475Y16193D01*
X140457Y16216D01*
X140453Y16225D01*
X140393Y16279D01*
X140334Y16320D01*
X140271Y16348D01*
X140216Y16370D01*
X140161Y16379D01*
X140120Y16384D01*
X140093Y16388D01*
D02*
G37*
G36*
X84028Y22282D02*
X84010D01*
X84001D01*
X83996D01*
X83874Y22273D01*
X83769Y22255D01*
X83678Y22227D01*
X83601Y22196D01*
X83541Y22159D01*
X83496Y22132D01*
X83469Y22114D01*
X83464Y22105D01*
X83460D01*
X83423Y22073D01*
X83396Y22036D01*
X83346Y21963D01*
X83314Y21891D01*
X83287Y21827D01*
X83273Y21768D01*
X83268Y21722D01*
X83264Y21704D01*
Y21681D01*
X83268Y21618D01*
X83277Y21558D01*
X83296Y21504D01*
X83314Y21458D01*
X83328Y21417D01*
X83346Y21386D01*
X83355Y21367D01*
X83359Y21358D01*
X83400Y21304D01*
X83441Y21258D01*
X83491Y21217D01*
X83532Y21185D01*
X83573Y21158D01*
X83605Y21140D01*
X83628Y21126D01*
X83637Y21122D01*
X83705Y21094D01*
X83773Y21076D01*
X83837Y21058D01*
X83896Y21049D01*
X83946Y21044D01*
X83987Y21040D01*
X84010D01*
X84019D01*
X84128Y21049D01*
X84224Y21067D01*
X84310Y21099D01*
X84379Y21131D01*
X84438Y21163D01*
X84479Y21194D01*
X84501Y21213D01*
X84511Y21222D01*
X84574Y21295D01*
X84620Y21367D01*
X84656Y21445D01*
X84679Y21513D01*
X84693Y21577D01*
X84697Y21622D01*
X84702Y21640D01*
Y21668D01*
X84693Y21763D01*
X84670Y21850D01*
X84643Y21923D01*
X84606Y21986D01*
X84570Y22036D01*
X84542Y22073D01*
X84520Y22095D01*
X84511Y22105D01*
X84433Y22164D01*
X84351Y22209D01*
X84265Y22241D01*
X84183Y22259D01*
X84110Y22273D01*
X84078Y22277D01*
X84051D01*
X84028Y22282D01*
D02*
G37*
G36*
X85293Y19689D02*
X85289D01*
X85284D01*
X85229Y19684D01*
X85175Y19675D01*
X85129Y19661D01*
X85088Y19647D01*
X85052Y19629D01*
X85025Y19616D01*
X85007Y19606D01*
X85002Y19602D01*
X84957Y19570D01*
X84916Y19529D01*
X84884Y19488D01*
X84856Y19447D01*
X84838Y19411D01*
X84825Y19384D01*
X84815Y19365D01*
X84811Y19356D01*
X84793Y19293D01*
X84779Y19220D01*
X84770Y19147D01*
X84765Y19074D01*
X84761Y19011D01*
X84756Y18956D01*
Y18019D01*
X85798D01*
Y19011D01*
X85794Y19133D01*
X85776Y19238D01*
X85753Y19329D01*
X85725Y19397D01*
X85698Y19456D01*
X85675Y19493D01*
X85657Y19515D01*
X85653Y19525D01*
X85593Y19579D01*
X85534Y19620D01*
X85471Y19647D01*
X85416Y19670D01*
X85361Y19679D01*
X85321Y19684D01*
X85293Y19689D01*
D02*
G37*
G36*
X124481Y59298D02*
X123489D01*
X123367Y59294D01*
X123262Y59276D01*
X123171Y59253D01*
X123103Y59225D01*
X123044Y59198D01*
X123007Y59175D01*
X122984Y59157D01*
X122975Y59153D01*
X122921Y59093D01*
X122880Y59034D01*
X122853Y58971D01*
X122830Y58916D01*
X122821Y58862D01*
X122816Y58820D01*
X122812Y58793D01*
Y58789D01*
Y58784D01*
X122816Y58729D01*
X122825Y58675D01*
X122839Y58629D01*
X122853Y58588D01*
X122871Y58552D01*
X122884Y58525D01*
X122894Y58507D01*
X122898Y58502D01*
X122930Y58456D01*
X122971Y58416D01*
X123012Y58384D01*
X123053Y58356D01*
X123089Y58338D01*
X123116Y58324D01*
X123135Y58315D01*
X123144Y58311D01*
X123207Y58293D01*
X123280Y58279D01*
X123353Y58270D01*
X123426Y58265D01*
X123489Y58261D01*
X123544Y58256D01*
X124481D01*
Y59298D01*
D02*
G37*
G36*
X92581Y59898D02*
X91589D01*
X91467Y59894D01*
X91362Y59876D01*
X91271Y59853D01*
X91203Y59825D01*
X91144Y59798D01*
X91107Y59775D01*
X91084Y59757D01*
X91075Y59753D01*
X91021Y59693D01*
X90980Y59634D01*
X90952Y59571D01*
X90930Y59516D01*
X90921Y59461D01*
X90916Y59421D01*
X90912Y59393D01*
Y59389D01*
Y59384D01*
X90916Y59329D01*
X90925Y59275D01*
X90939Y59229D01*
X90952Y59188D01*
X90971Y59152D01*
X90984Y59125D01*
X90993Y59107D01*
X90998Y59102D01*
X91030Y59057D01*
X91071Y59016D01*
X91112Y58984D01*
X91153Y58956D01*
X91189Y58938D01*
X91216Y58925D01*
X91235Y58915D01*
X91244Y58911D01*
X91307Y58893D01*
X91380Y58879D01*
X91453Y58870D01*
X91526Y58865D01*
X91589Y58861D01*
X91644Y58856D01*
X92581D01*
Y59898D01*
D02*
G37*
G36*
X88750Y59621D02*
Y58210D01*
X89742D01*
X88750Y59621D01*
D02*
G37*
G36*
X142823Y52921D02*
Y51510D01*
X143815D01*
X142823Y52921D01*
D02*
G37*
G36*
X67464Y55044D02*
X67428D01*
X67350Y55039D01*
X67277Y55021D01*
X67218Y54998D01*
X67164Y54971D01*
X67123Y54944D01*
X67091Y54921D01*
X67068Y54903D01*
X67064Y54898D01*
X67014Y54839D01*
X66977Y54780D01*
X66950Y54721D01*
X66932Y54666D01*
X66923Y54616D01*
X66913Y54575D01*
Y54548D01*
Y54543D01*
Y54539D01*
X66918Y54466D01*
X66936Y54398D01*
X66959Y54339D01*
X66986Y54289D01*
X67014Y54247D01*
X67036Y54220D01*
X67054Y54198D01*
X67059Y54193D01*
X67114Y54147D01*
X67177Y54111D01*
X67237Y54088D01*
X67296Y54070D01*
X67350Y54061D01*
X67391Y54056D01*
X67419Y54052D01*
X67428D01*
X67510Y54056D01*
X67582Y54075D01*
X67646Y54097D01*
X67701Y54125D01*
X67742Y54147D01*
X67773Y54170D01*
X67796Y54188D01*
X67801Y54193D01*
X67846Y54247D01*
X67883Y54311D01*
X67905Y54370D01*
X67924Y54430D01*
X67933Y54479D01*
X67937Y54520D01*
X67942Y54548D01*
Y54552D01*
Y54557D01*
X67937Y54630D01*
X67919Y54693D01*
X67896Y54752D01*
X67869Y54803D01*
X67846Y54844D01*
X67823Y54875D01*
X67805Y54894D01*
X67801Y54898D01*
X67742Y54948D01*
X67682Y54985D01*
X67619Y55007D01*
X67560Y55026D01*
X67505Y55035D01*
X67464Y55044D01*
D02*
G37*
G36*
X67469Y53738D02*
X67441D01*
X67341Y53729D01*
X67250Y53711D01*
X67168Y53679D01*
X67100Y53647D01*
X67045Y53610D01*
X67005Y53579D01*
X66982Y53561D01*
X66973Y53551D01*
X66909Y53478D01*
X66864Y53401D01*
X66832Y53324D01*
X66809Y53256D01*
X66795Y53187D01*
X66791Y53137D01*
X66786Y53119D01*
Y53105D01*
Y53096D01*
Y53092D01*
X66795Y52996D01*
X66813Y52905D01*
X66845Y52828D01*
X66877Y52764D01*
X66909Y52714D01*
X66941Y52673D01*
X66959Y52650D01*
X66968Y52641D01*
X67041Y52582D01*
X67114Y52537D01*
X67191Y52509D01*
X67264Y52487D01*
X67327Y52473D01*
X67382Y52468D01*
X67400Y52464D01*
X67428D01*
X67491Y52468D01*
X67555Y52478D01*
X67614Y52491D01*
X67664Y52505D01*
X67705Y52518D01*
X67737Y52532D01*
X67755Y52541D01*
X67764Y52546D01*
X67819Y52582D01*
X67864Y52619D01*
X67905Y52660D01*
X67937Y52701D01*
X67965Y52732D01*
X67983Y52760D01*
X67992Y52782D01*
X67996Y52787D01*
X68019Y52846D01*
X68037Y52901D01*
X68051Y52955D01*
X68060Y53005D01*
X68065Y53046D01*
X68069Y53078D01*
Y53096D01*
Y53105D01*
X68060Y53201D01*
X68042Y53288D01*
X68015Y53365D01*
X67978Y53433D01*
X67946Y53483D01*
X67919Y53524D01*
X67901Y53547D01*
X67892Y53556D01*
X67823Y53615D01*
X67746Y53661D01*
X67673Y53692D01*
X67601Y53715D01*
X67537Y53729D01*
X67487Y53733D01*
X67469Y53738D01*
D02*
G37*
G36*
X78132Y36302D02*
X78105D01*
X78009Y36293D01*
X77923Y36270D01*
X77850Y36242D01*
X77786Y36206D01*
X77736Y36170D01*
X77700Y36143D01*
X77677Y36120D01*
X77668Y36111D01*
X77609Y36033D01*
X77564Y35951D01*
X77532Y35865D01*
X77513Y35783D01*
X77500Y35710D01*
X77495Y35678D01*
Y35651D01*
X77491Y35628D01*
Y35610D01*
Y35601D01*
Y35596D01*
X77500Y35474D01*
X77518Y35369D01*
X77545Y35278D01*
X77577Y35201D01*
X77614Y35141D01*
X77641Y35096D01*
X77659Y35069D01*
X77668Y35064D01*
Y35060D01*
X77700Y35023D01*
X77736Y34996D01*
X77809Y34946D01*
X77882Y34914D01*
X77946Y34887D01*
X78005Y34873D01*
X78050Y34868D01*
X78069Y34864D01*
X78091D01*
X78155Y34868D01*
X78214Y34878D01*
X78269Y34896D01*
X78314Y34914D01*
X78355Y34928D01*
X78387Y34946D01*
X78405Y34955D01*
X78414Y34959D01*
X78469Y35000D01*
X78514Y35041D01*
X78555Y35091D01*
X78587Y35132D01*
X78614Y35173D01*
X78633Y35205D01*
X78646Y35228D01*
X78651Y35237D01*
X78678Y35305D01*
X78696Y35373D01*
X78715Y35437D01*
X78724Y35496D01*
X78728Y35546D01*
X78733Y35587D01*
Y35610D01*
Y35619D01*
X78724Y35728D01*
X78706Y35824D01*
X78674Y35910D01*
X78642Y35979D01*
X78610Y36038D01*
X78578Y36079D01*
X78560Y36101D01*
X78551Y36111D01*
X78478Y36174D01*
X78405Y36220D01*
X78328Y36256D01*
X78260Y36279D01*
X78196Y36293D01*
X78150Y36297D01*
X78132Y36302D01*
D02*
G37*
%LPD*%
D10*
X150861Y36789D02*
G03*
X150861Y36789I-492J0D01*
G01*
D12*
X136400Y19300D02*
X137156D01*
Y9300D02*
Y19300D01*
X136400Y9300D02*
X137156D01*
X131644D02*
X132400D01*
X131644D02*
Y19300D01*
X132400D01*
X131644Y14300D02*
X137156D01*
X141944Y44200D02*
X147456D01*
X141944Y49712D02*
X143125D01*
X141944Y38688D02*
Y49712D01*
Y38688D02*
X143125D01*
X146275D02*
X147456D01*
Y49712D01*
X146275D02*
X147456D01*
X136400Y49100D02*
X137156D01*
Y39100D02*
Y49100D01*
X136400Y39100D02*
X137156D01*
X131644D02*
X132400D01*
X131644D02*
Y49100D01*
X132400D01*
X131644Y44100D02*
X137156D01*
X131644Y28500D02*
X137156D01*
X131644Y34012D02*
X132825D01*
X131644Y22988D02*
Y34012D01*
Y22988D02*
X132825D01*
X135975D02*
X137156D01*
Y34012D01*
X135975D02*
X137156D01*
X142044Y13900D02*
X147556D01*
X142044Y19412D02*
X143225D01*
X142044Y8388D02*
Y19412D01*
Y8388D02*
X143225D01*
X146375D02*
X147556D01*
Y19412D01*
X146375D02*
X147556D01*
X119844Y50800D02*
X125356D01*
X119844Y55800D02*
X120600D01*
X119844Y45800D02*
Y55800D01*
Y45800D02*
X120600D01*
X124600D02*
X125356D01*
Y55800D01*
X124600D02*
X125356D01*
X87844Y51100D02*
X93356D01*
X87844Y56100D02*
X88600D01*
X87844Y46100D02*
Y56100D01*
Y46100D02*
X88600D01*
X92600D02*
X93356D01*
Y56100D01*
X92600D02*
X93356D01*
X77044Y14500D02*
X82556D01*
X77044Y19500D02*
X77800D01*
X77044Y9500D02*
Y19500D01*
Y9500D02*
X77800D01*
X81800D02*
X82556D01*
Y19500D01*
X81800D02*
X82556D01*
X77144Y43300D02*
X82656D01*
X77144Y48300D02*
X77900D01*
X77144Y38300D02*
Y48300D01*
Y38300D02*
X77900D01*
X81900D02*
X82656D01*
Y48300D01*
X81900D02*
X82656D01*
X160844Y3988D02*
X162025D01*
X160844D02*
Y15012D01*
X162025D01*
X165175D02*
X166356D01*
Y3988D02*
Y15012D01*
X165175Y3988D02*
X166356D01*
X160844Y9500D02*
X166356D01*
X71375Y16569D02*
X72556D01*
Y5546D02*
Y16569D01*
X71375Y5546D02*
X72556D01*
X67044D02*
X68225D01*
X67044D02*
Y16569D01*
X68225D01*
X67044Y11057D02*
X72556D01*
X70775Y51312D02*
X71956D01*
Y40288D02*
Y51312D01*
X70775Y40288D02*
X71956D01*
X66444D02*
X67625D01*
X66444D02*
Y51312D01*
X67625D01*
X66444Y45800D02*
X71956D01*
X81275Y33812D02*
X82456D01*
Y22788D02*
Y33812D01*
X81275Y22788D02*
X82456D01*
X76944D02*
X78125D01*
X76944D02*
Y33812D01*
X78125D01*
X76944Y28300D02*
X82456D01*
D13*
X163302Y23972D02*
Y33028D01*
X151098Y23972D02*
Y33028D01*
Y23972D02*
X163302D01*
X151098Y33028D02*
X163302D01*
M02*
