%TF.GenerationSoftware,Altium Limited,Altium Designer,19.0.10 (269)*%
G04 Layer_Color=128*
%FSLAX26Y26*%
%MOIN*%
%TF.FileFunction,Drillmap*%
%TF.Part,Single*%
G01*
G75*
%TA.AperFunction,NonConductor*%
%ADD45C,0.005000*%
D45*
X875000Y358000D02*
X935000D01*
X905000Y328000D02*
Y388000D01*
X875000Y193000D02*
X935000D01*
X905000Y163000D02*
Y223000D01*
X834299Y1036000D02*
X903591D01*
X868945Y1001354D02*
Y1070646D01*
X1193354Y1036000D02*
X1262646D01*
X1228000Y1001354D02*
Y1070646D01*
X595953Y948323D02*
X680992D01*
X638472Y905803D02*
Y990842D01*
X1416032Y948323D02*
X1501071D01*
X1458551Y905803D02*
Y990842D01*
X834299Y860803D02*
X903591D01*
X868945Y826158D02*
Y895449D01*
X1193354Y860803D02*
X1262646D01*
X1228000Y826158D02*
Y895449D01*
X1200000Y358000D02*
X1260000D01*
X1230000Y328000D02*
Y388000D01*
X1200000Y193000D02*
X1260000D01*
X1230000Y163000D02*
Y223000D01*
X685000Y737000D02*
X713000D01*
X699000Y723000D02*
Y751000D01*
X1666000Y885000D02*
X1694000D01*
X1680000Y871000D02*
Y899000D01*
X1056000Y1017000D02*
X1084000D01*
X1070000Y1003000D02*
Y1031000D01*
X1065000Y829000D02*
X1093000D01*
X1079000Y815000D02*
Y843000D01*
X1108000Y502000D02*
X1136000D01*
X1122000Y488000D02*
Y516000D01*
X998000Y222000D02*
X1026000D01*
X1012000Y208000D02*
Y236000D01*
X1120000Y225000D02*
X1148000D01*
X1134000Y211000D02*
Y239000D01*
X1000000Y505000D02*
X1028000D01*
X1014000Y491000D02*
Y519000D01*
X1753000Y602000D02*
X1781000D01*
X1767000Y588000D02*
Y616000D01*
X681000Y347000D02*
X709000D01*
X695000Y333000D02*
Y361000D01*
X261000Y69000D02*
X289000D01*
X275000Y55000D02*
Y83000D01*
X683000Y240000D02*
X711000D01*
X697000Y226000D02*
Y254000D01*
X1742000Y300000D02*
X1770000D01*
X1756000Y286000D02*
Y314000D01*
X1737000Y85000D02*
X1765000D01*
X1751000Y71000D02*
Y99000D01*
%TF.MD5,c6ee6c041713bea362659778b4a155ea*%
M02*
