%TF.GenerationSoftware,Altium Limited,Altium Designer,19.0.10 (269)*%
G04 Layer_Color=255*
%FSLAX26Y26*%
%MOIN*%
%TF.FileFunction,Pads,Bot*%
%TF.Part,Single*%
G01*
G75*
%TA.AperFunction,SMDPad,CuDef*%
%ADD10R,0.080709X0.045276*%
%ADD12R,0.016535X0.035000*%
%TA.AperFunction,ComponentPad*%
%ADD14C,0.090000*%
%ADD15C,0.103937*%
%ADD16C,0.085039*%
%ADD17R,0.103937X0.103937*%
%TA.AperFunction,SMDPad,CuDef*%
%ADD19R,0.045276X0.080709*%
%ADD20R,0.037402X0.033465*%
%ADD21R,0.039370X0.035433*%
D10*
X1229000Y75000D02*
D03*
X1755000Y188000D02*
D03*
X926000Y63000D02*
D03*
D12*
X1610386Y202106D02*
D03*
X1584795D02*
D03*
X1559205D02*
D03*
X1533614D02*
D03*
X1610386Y367894D02*
D03*
X1584795D02*
D03*
X1559205D02*
D03*
X1533614D02*
D03*
D14*
X905000Y358000D02*
D03*
Y193000D02*
D03*
X1230000Y358000D02*
D03*
Y193000D02*
D03*
D15*
X868945Y1036000D02*
D03*
X1228000D02*
D03*
Y860803D02*
D03*
D16*
X638472Y948323D02*
D03*
X1458551D02*
D03*
D17*
X868945Y860803D02*
D03*
D19*
X1016000Y356000D02*
D03*
X1135000Y354331D02*
D03*
X1531000Y82000D02*
D03*
X1542000Y456000D02*
D03*
D20*
X1344000Y117409D02*
D03*
Y168591D02*
D03*
Y415409D02*
D03*
Y466591D02*
D03*
X1226000Y533591D02*
D03*
Y482409D02*
D03*
X906000Y536591D02*
D03*
Y485409D02*
D03*
X798000Y170591D02*
D03*
Y119409D02*
D03*
X799000Y458591D02*
D03*
Y407409D02*
D03*
D21*
X1447000Y415425D02*
D03*
Y468575D02*
D03*
X1344000Y258425D02*
D03*
Y311575D02*
D03*
X1448000Y112425D02*
D03*
Y165575D02*
D03*
X1636000Y68425D02*
D03*
Y121575D02*
D03*
X698000Y137150D02*
D03*
Y84000D02*
D03*
X692000Y484575D02*
D03*
Y431425D02*
D03*
X797000Y309575D02*
D03*
Y256425D02*
D03*
%TF.MD5,2e7216a5d6d6e864089a666705dd7d1c*%
M02*
