G04*
G04 #@! TF.GenerationSoftware,Altium Limited,Altium Designer,19.1.8 (144)*
G04*
G04 Layer_Color=32768*
%FSLAX25Y25*%
%MOIN*%
G70*
G01*
G75*
%ADD16C,0.00394*%
%ADD79C,0.00197*%
D16*
X258280Y311241D02*
X262217D01*
X260249Y309273D02*
Y313210D01*
X262263Y239300D02*
X266200D01*
X264232Y237332D02*
Y241268D01*
X150060Y177500D02*
X153997D01*
X152029Y175532D02*
Y179469D01*
X152355Y287082D02*
X156292D01*
X154323Y285114D02*
Y289051D01*
X202756Y258661D02*
X206693D01*
X204724Y256693D02*
Y260630D01*
X202869Y222158D02*
X206806D01*
X204838Y220190D02*
Y224127D01*
X117201Y288632D02*
Y292568D01*
X115232Y290600D02*
X119169D01*
X117200Y221431D02*
Y225368D01*
X115232Y223400D02*
X119168D01*
X82400Y377532D02*
Y381469D01*
X80431Y379500D02*
X84368D01*
X307480Y257972D02*
Y261713D01*
X305610Y259842D02*
X309350D01*
X197244Y368596D02*
X200984D01*
X199114Y366726D02*
Y370466D01*
X214961Y368596D02*
X218701D01*
X216831Y366726D02*
Y370466D01*
X296000Y215689D02*
Y219429D01*
X294130Y217559D02*
X297870D01*
X277756Y368596D02*
X281496D01*
X279626Y366726D02*
Y370466D01*
X295177Y368596D02*
X298917D01*
X297047Y366726D02*
Y370466D01*
X307500Y241689D02*
Y245429D01*
X305630Y243559D02*
X309370D01*
X235925Y368596D02*
X239665D01*
X237795Y366726D02*
Y370466D01*
X253543Y368596D02*
X257283D01*
X255413Y366726D02*
Y370466D01*
X130217Y368596D02*
X133957D01*
X132087Y366726D02*
Y370466D01*
X147835Y368602D02*
X151575D01*
X149705Y366732D02*
Y370472D01*
X172638Y368504D02*
X176378D01*
X174508Y366634D02*
Y370374D01*
X181693Y263189D02*
X185433D01*
X183563Y261319D02*
Y265059D01*
X197539Y276083D02*
Y279823D01*
X195669Y277953D02*
X199409D01*
X159547Y218898D02*
X163287D01*
X161417Y217028D02*
Y220768D01*
X159547Y233071D02*
X163287D01*
X161417Y231201D02*
Y234941D01*
X97229Y294000D02*
Y297741D01*
X95359Y295870D02*
X99100D01*
X98700Y226530D02*
Y230270D01*
X96830Y228400D02*
X100570D01*
X271260Y352658D02*
X275197D01*
X273228Y350689D02*
Y354626D01*
X229528Y352406D02*
X233465D01*
X231496Y350438D02*
Y354375D01*
X190945Y352658D02*
X194882D01*
X192913Y350689D02*
Y354626D01*
X148425Y352362D02*
X152362D01*
X150394Y350394D02*
Y354331D01*
X183071Y247539D02*
Y251476D01*
X181102Y249508D02*
X185039D01*
X155260Y61078D02*
Y65015D01*
X153292Y63047D02*
X157229D01*
X192563Y61078D02*
Y65015D01*
X190595Y63047D02*
X194532D01*
X111953Y61078D02*
Y65015D01*
X109985Y63047D02*
X113922D01*
X230063Y61571D02*
Y65508D01*
X228095Y63539D02*
X232032D01*
X63500Y350746D02*
Y354683D01*
X61532Y352714D02*
X65469D01*
X183071Y221555D02*
Y225492D01*
X181102Y223524D02*
X185039D01*
X54330Y337651D02*
X58070D01*
X56200Y335781D02*
Y339521D01*
X211910Y248720D02*
X215650D01*
X213780Y246850D02*
Y250590D01*
X266030Y330700D02*
X269770D01*
X267900Y328830D02*
Y332570D01*
X222146Y228346D02*
X225886D01*
X224016Y226476D02*
Y230217D01*
X221260Y237992D02*
X225000D01*
X223130Y236122D02*
Y239862D01*
X296457Y234646D02*
Y238386D01*
X294587Y236516D02*
X298327D01*
X142330Y144882D02*
X146070D01*
X144200Y143012D02*
Y146752D01*
X157284Y144882D02*
X161024D01*
X159154Y143012D02*
Y146752D01*
X121063Y275787D02*
Y279528D01*
X119193Y277658D02*
X122933D01*
X107900Y275672D02*
Y279413D01*
X106030Y277542D02*
X109770D01*
X222539Y263779D02*
X226279D01*
X224410Y261910D02*
Y265650D01*
X222539Y216535D02*
X226279D01*
X224410Y214665D02*
Y218406D01*
X106299Y310138D02*
Y313878D01*
X104429Y312008D02*
X108169D01*
X140500Y289030D02*
Y292770D01*
X138630Y290900D02*
X142370D01*
X107087Y243307D02*
X110827D01*
X108957Y241437D02*
Y245177D01*
X136100Y221730D02*
Y225470D01*
X134230Y223600D02*
X137970D01*
X112303Y352600D02*
X116043D01*
X114173Y350730D02*
Y354470D01*
X80807Y353000D02*
X84547D01*
X82677Y351130D02*
Y354870D01*
X99130Y160500D02*
X102870D01*
X101000Y158630D02*
Y162370D01*
X101422Y112358D02*
Y116098D01*
X99551Y114228D02*
X103292D01*
X178882Y112358D02*
Y116098D01*
X177012Y114228D02*
X180752D01*
X185039Y168012D02*
Y171752D01*
X183169Y169882D02*
X186909D01*
X184600Y177930D02*
Y181670D01*
X182730Y179800D02*
X186470D01*
X92323Y279429D02*
X96063D01*
X94193Y277559D02*
Y281299D01*
X121752Y243307D02*
X125492D01*
X123622Y241437D02*
Y245177D01*
X161417Y245374D02*
Y249114D01*
X159547Y247244D02*
X163287D01*
X178230Y277100D02*
X181970D01*
X180100Y275230D02*
Y278970D01*
X82643Y335532D02*
Y339272D01*
X80772Y337402D02*
X84513D01*
X98425Y350886D02*
Y354626D01*
X96555Y352756D02*
X100295D01*
X96930Y217400D02*
X100670D01*
X98800Y215530D02*
Y219270D01*
X123917Y290354D02*
Y294094D01*
X122047Y292225D02*
X125787D01*
X124200Y299930D02*
Y303670D01*
X122330Y301800D02*
X126070D01*
X124902Y309547D02*
Y313287D01*
X123031Y311417D02*
X126772D01*
X182442Y302630D02*
Y306370D01*
X180572Y304500D02*
X184313D01*
X182642Y292730D02*
Y296470D01*
X180772Y294600D02*
X184512D01*
X188780Y278150D02*
Y281890D01*
X186909Y280020D02*
X190650D01*
X56200Y363830D02*
Y367570D01*
X54330Y365700D02*
X58070D01*
X97539Y265748D02*
Y269488D01*
X95669Y267618D02*
X99409D01*
X100394Y171358D02*
Y175098D01*
X98524Y173228D02*
X102264D01*
X100197Y187992D02*
Y191732D01*
X98327Y189862D02*
X102067D01*
X109400Y205130D02*
Y208870D01*
X107530Y207000D02*
X111270D01*
X185236Y192618D02*
Y196358D01*
X183366Y194488D02*
X187106D01*
X161417Y259547D02*
Y263287D01*
X159547Y261417D02*
X163287D01*
X283330Y306299D02*
X287070D01*
X285200Y304429D02*
Y308169D01*
X213930Y306299D02*
X217670D01*
X215800Y304429D02*
Y308169D01*
X145615Y112456D02*
Y116196D01*
X143745Y114326D02*
X147485D01*
X218252Y112358D02*
Y116098D01*
X216383Y114228D02*
X220123D01*
D79*
X273142Y298446D02*
Y324036D01*
X247355D02*
X273142D01*
X247355Y298446D02*
Y324036D01*
Y298446D02*
X273142D01*
X238051Y213119D02*
Y265481D01*
X290413Y213119D02*
Y265481D01*
X238051D02*
X290413D01*
X238051Y213119D02*
X290413D01*
X166595Y156831D02*
Y198169D01*
X137462Y156831D02*
Y198169D01*
Y156831D02*
X166595D01*
X137462Y198169D02*
X166595D01*
X139756Y266413D02*
Y307751D01*
X168890Y266413D02*
Y307751D01*
X139756Y266413D02*
X168890D01*
X139756Y307751D02*
X168890D01*
X196457Y251575D02*
Y265748D01*
X212992Y251575D02*
Y265748D01*
X196457D02*
X212992D01*
X196457Y251575D02*
X212992D01*
X196570Y215072D02*
Y229245D01*
X213106Y215072D02*
Y229245D01*
X196570D02*
X213106D01*
X196570Y215072D02*
X213106D01*
X102634Y301427D02*
X131768D01*
X102634Y279773D02*
X131768D01*
X102634D02*
Y301427D01*
X131768Y279773D02*
Y301427D01*
X102633Y234227D02*
X131767D01*
X102633Y212573D02*
X131767D01*
X102633D02*
Y234227D01*
X131767Y212573D02*
Y234227D01*
X68424Y362768D02*
X96376D01*
X68424Y396232D02*
X96376D01*
X68424Y362768D02*
Y396232D01*
X96376Y362768D02*
Y396232D01*
X304528Y254528D02*
X310433D01*
X304528Y265158D02*
X310433D01*
X304528Y254528D02*
Y265158D01*
X310433Y254528D02*
Y265158D01*
X193799Y365643D02*
Y371549D01*
X204429Y365643D02*
Y371549D01*
X193799D02*
X204429D01*
X193799Y365643D02*
X204429D01*
X211516D02*
Y371549D01*
X222146Y365643D02*
Y371549D01*
X211516D02*
X222146D01*
X211516Y365643D02*
X222146D01*
X293047Y212244D02*
X298953D01*
X293047Y222874D02*
X298953D01*
X293047Y212244D02*
Y222874D01*
X298953Y212244D02*
Y222874D01*
X274311Y365643D02*
Y371549D01*
X284941Y365643D02*
Y371549D01*
X274311D02*
X284941D01*
X274311Y365643D02*
X284941D01*
X291732D02*
Y371549D01*
X302362Y365643D02*
Y371549D01*
X291732D02*
X302362D01*
X291732Y365643D02*
X302362D01*
X304547Y238244D02*
X310453D01*
X304547Y248874D02*
X310453D01*
X304547Y238244D02*
Y248874D01*
X310453Y238244D02*
Y248874D01*
X232480Y365643D02*
Y371549D01*
X243110Y365643D02*
Y371549D01*
X232480D02*
X243110D01*
X232480Y365643D02*
X243110D01*
X250098D02*
Y371549D01*
X260728Y365643D02*
Y371549D01*
X250098D02*
X260728D01*
X250098Y365643D02*
X260728D01*
X126772D02*
Y371549D01*
X137402Y365643D02*
Y371549D01*
X126772D02*
X137402D01*
X126772Y365643D02*
X137402D01*
X155020Y365650D02*
Y371555D01*
X144390Y365650D02*
Y371555D01*
Y365650D02*
X155020D01*
X144390Y371555D02*
X155020D01*
X169193Y365551D02*
Y371457D01*
X179823Y365551D02*
Y371457D01*
X169193D02*
X179823D01*
X169193Y365551D02*
X179823D01*
X178248Y260236D02*
Y266142D01*
X188878Y260236D02*
Y266142D01*
X178248D02*
X188878D01*
X178248Y260236D02*
X188878D01*
X194587Y272638D02*
X200492D01*
X194587Y283268D02*
X200492D01*
X194587Y272638D02*
Y283268D01*
X200492Y272638D02*
Y283268D01*
X156102Y215945D02*
Y221850D01*
X166732Y215945D02*
Y221850D01*
X156102D02*
X166732D01*
X156102Y215945D02*
X166732D01*
X156102Y230118D02*
Y236023D01*
X166732Y230118D02*
Y236023D01*
X156102D02*
X166732D01*
X156102Y230118D02*
X166732D01*
X94277Y301185D02*
X100182D01*
X94277Y290556D02*
X100182D01*
Y301185D01*
X94277Y290556D02*
Y301185D01*
X95747Y233715D02*
X101653D01*
X95747Y223085D02*
X101653D01*
Y233715D01*
X95747Y223085D02*
Y233715D01*
X266339Y345079D02*
Y360236D01*
X280118Y345079D02*
Y360236D01*
X266339Y345079D02*
X280118D01*
X266339Y360236D02*
X280118D01*
X224606Y344828D02*
Y359985D01*
X238386Y344828D02*
Y359985D01*
X224606Y344828D02*
X238386D01*
X224606Y359985D02*
X238386D01*
X186024Y345079D02*
Y360236D01*
X199803Y345079D02*
Y360236D01*
X186024Y345079D02*
X199803D01*
X186024Y360236D02*
X199803D01*
X143504Y344783D02*
Y359941D01*
X157283Y344783D02*
Y359941D01*
X143504Y344783D02*
X157283D01*
X143504Y359941D02*
X157283D01*
X175492Y256398D02*
X190650D01*
X175492Y242618D02*
X190650D01*
X175492D02*
Y256398D01*
X190650Y242618D02*
Y256398D01*
X146008Y58519D02*
X164512D01*
X146008Y67575D02*
X164512D01*
X146008Y58519D02*
Y67575D01*
X164512Y58519D02*
Y67575D01*
X183311Y58519D02*
X201815D01*
X183311Y67575D02*
X201815D01*
X183311Y58519D02*
Y67575D01*
X201815Y58519D02*
Y67575D01*
X102701Y58519D02*
X121205D01*
X102701Y67575D02*
X121205D01*
X102701Y58519D02*
Y67575D01*
X121205Y58519D02*
Y67575D01*
X220811Y59012D02*
X239315D01*
X220811Y68067D02*
X239315D01*
X220811Y59012D02*
Y68067D01*
X239315Y59012D02*
Y68067D01*
X54248Y348187D02*
X72752D01*
X54248Y357242D02*
X72752D01*
Y348187D02*
Y357242D01*
X54248Y348187D02*
Y357242D01*
X175492Y230413D02*
X190650D01*
X175492Y216634D02*
X190650D01*
X175492D02*
Y230413D01*
X190650Y216634D02*
Y230413D01*
X61515Y334698D02*
Y340604D01*
X50885Y334698D02*
Y340604D01*
Y334698D02*
X61515D01*
X50885Y340604D02*
X61515D01*
X208465Y245768D02*
Y251673D01*
X219095Y245768D02*
Y251673D01*
X208465D02*
X219095D01*
X208465Y245768D02*
X219095D01*
X262585Y327747D02*
Y333653D01*
X273215Y327747D02*
Y333653D01*
X262585D02*
X273215D01*
X262585Y327747D02*
X273215D01*
X218701Y225394D02*
Y231299D01*
X229331Y225394D02*
Y231299D01*
X218701D02*
X229331D01*
X218701Y225394D02*
X229331D01*
X217815Y235039D02*
Y240945D01*
X228445Y235039D02*
Y240945D01*
X217815D02*
X228445D01*
X217815Y235039D02*
X228445D01*
X293504Y231201D02*
X299410D01*
X293504Y241831D02*
X299410D01*
X293504Y231201D02*
Y241831D01*
X299410Y231201D02*
Y241831D01*
X149515Y141929D02*
Y147835D01*
X138885Y141929D02*
Y147835D01*
Y141929D02*
X149515D01*
X138885Y147835D02*
X149515D01*
X153839Y141929D02*
Y147835D01*
X164469Y141929D02*
Y147835D01*
X153839D02*
X164469D01*
X153839Y141929D02*
X164469D01*
X118110Y272342D02*
X124016D01*
X118110Y282972D02*
X124016D01*
Y272342D02*
Y282972D01*
X118110Y272342D02*
Y282972D01*
X104947Y272227D02*
X110853D01*
X104947Y282857D02*
X110853D01*
Y272227D02*
Y282857D01*
X104947Y272227D02*
Y282857D01*
X229724Y260827D02*
Y266732D01*
X219094Y260827D02*
Y266732D01*
Y260827D02*
X229724D01*
X219094Y266732D02*
X229724D01*
Y213583D02*
Y219488D01*
X219094Y213583D02*
Y219488D01*
Y213583D02*
X229724D01*
X219094Y219488D02*
X229724D01*
X103347Y306693D02*
X109252D01*
X103347Y317323D02*
X109252D01*
X103347Y306693D02*
Y317323D01*
X109252Y306693D02*
Y317323D01*
X137547Y285585D02*
X143453D01*
X137547Y296215D02*
X143453D01*
X137547Y285585D02*
Y296215D01*
X143453Y285585D02*
Y296215D01*
X103642Y240354D02*
Y246260D01*
X114272Y240354D02*
Y246260D01*
X103642D02*
X114272D01*
X103642Y240354D02*
X114272D01*
X133147Y218285D02*
X139053D01*
X133147Y228915D02*
X139053D01*
X133147Y218285D02*
Y228915D01*
X139053Y218285D02*
Y228915D01*
X108858Y349647D02*
Y355553D01*
X119488Y349647D02*
Y355553D01*
X108858D02*
X119488D01*
X108858Y349647D02*
X119488D01*
X87992Y350047D02*
Y355953D01*
X77362Y350047D02*
Y355953D01*
Y350047D02*
X87992D01*
X77362Y355953D02*
X87992D01*
X103953Y155185D02*
Y165815D01*
X98047Y155185D02*
Y165815D01*
X103953D01*
X98047Y155185D02*
X103953D01*
X96107Y117181D02*
X106737D01*
X96107Y111275D02*
X106737D01*
X96107D02*
Y117181D01*
X106737Y111275D02*
Y117181D01*
X173567Y111275D02*
X184197D01*
X173567Y117181D02*
X184197D01*
Y111275D02*
Y117181D01*
X173567Y111275D02*
Y117181D01*
X179724Y172835D02*
X190354D01*
X179724Y166929D02*
X190354D01*
X179724D02*
Y172835D01*
X190354Y166929D02*
Y172835D01*
X179285Y182753D02*
X189915D01*
X179285Y176847D02*
X189915D01*
X179285D02*
Y182753D01*
X189915Y176847D02*
Y182753D01*
X97146Y274114D02*
Y284744D01*
X91240Y274114D02*
Y284744D01*
X97146D01*
X91240Y274114D02*
X97146D01*
X128937Y240354D02*
Y246260D01*
X118307Y240354D02*
Y246260D01*
X128937D01*
X118307Y240354D02*
X128937D01*
X156102Y244291D02*
X166732D01*
X156102Y250197D02*
X166732D01*
Y244291D02*
Y250197D01*
X156102Y244291D02*
Y250197D01*
X177147Y271785D02*
Y282415D01*
X183053Y271785D02*
Y282415D01*
X177147Y271785D02*
X183053D01*
X177147Y282415D02*
X183053D01*
X77328Y340354D02*
X87957D01*
X77328Y334449D02*
X87957D01*
X77328D02*
Y340354D01*
X87957Y334449D02*
Y340354D01*
X93110Y355709D02*
X103740D01*
X93110Y349803D02*
X103740D01*
X93110D02*
Y355709D01*
X103740Y349803D02*
Y355709D01*
X101753Y212085D02*
Y222715D01*
X95847Y212085D02*
Y222715D01*
X101753D01*
X95847Y212085D02*
X101753D01*
X118603Y295177D02*
X129233D01*
X118603Y289272D02*
X129233D01*
Y295177D01*
X118603Y289272D02*
Y295177D01*
X118885Y304753D02*
X129515D01*
X118885Y298847D02*
X129515D01*
Y304753D01*
X118885Y298847D02*
Y304753D01*
X119587Y314370D02*
X130217D01*
X119587Y308465D02*
X130217D01*
Y314370D01*
X119587Y308465D02*
Y314370D01*
X177128Y301547D02*
X187758D01*
X177128Y307453D02*
X187758D01*
X177128Y301547D02*
Y307453D01*
X187758Y301547D02*
Y307453D01*
X177328Y291647D02*
X187958D01*
X177328Y297553D02*
X187958D01*
X177328Y291647D02*
Y297553D01*
X187958Y291647D02*
Y297553D01*
X183465Y277067D02*
X194094D01*
X183465Y282972D02*
X194094D01*
X183465Y277067D02*
Y282972D01*
X194094Y277067D02*
Y282972D01*
X50885Y368653D02*
X61515D01*
X50885Y362747D02*
X61515D01*
X50885D02*
Y368653D01*
X61515Y362747D02*
Y368653D01*
X92224Y270571D02*
X102854D01*
X92224Y264665D02*
X102854D01*
X92224D02*
Y270571D01*
X102854Y264665D02*
Y270571D01*
X95079Y170276D02*
X105709D01*
X95079Y176181D02*
X105709D01*
Y170276D02*
Y176181D01*
X95079Y170276D02*
Y176181D01*
X94882Y186909D02*
X105512D01*
X94882Y192815D02*
X105512D01*
Y186909D02*
Y192815D01*
X94882Y186909D02*
Y192815D01*
X104085Y204047D02*
X114715D01*
X104085Y209953D02*
X114715D01*
Y204047D02*
Y209953D01*
X104085Y204047D02*
Y209953D01*
X179921Y197441D02*
X190551D01*
X179921Y191535D02*
X190551D01*
X179921D02*
Y197441D01*
X190551Y191535D02*
Y197441D01*
X156102Y258464D02*
X166732D01*
X156102Y264370D02*
X166732D01*
Y258464D02*
Y264370D01*
X156102Y258464D02*
Y264370D01*
X288153Y300984D02*
Y311614D01*
X282247Y300984D02*
Y311614D01*
X288153D01*
X282247Y300984D02*
X288153D01*
X218753Y300984D02*
Y311614D01*
X212847Y300984D02*
Y311614D01*
X218753D01*
X212847Y300984D02*
X218753D01*
X140300Y111373D02*
X150930D01*
X140300Y117279D02*
X150930D01*
Y111373D02*
Y117279D01*
X140300Y111373D02*
Y117279D01*
X212937Y111275D02*
X223568D01*
X212937Y117181D02*
X223568D01*
Y111275D02*
Y117181D01*
X212937Y111275D02*
Y117181D01*
M02*
