G04*
G04 #@! TF.GenerationSoftware,Altium Limited,Altium Designer,19.1.8 (144)*
G04*
G04 Layer_Color=128*
%FSLAX25Y25*%
%MOIN*%
G70*
G01*
G75*
%ADD21O,0.05709X0.02362*%
%ADD33R,0.05315X0.05709*%
%ADD34R,0.03543X0.03937*%
%ADD35R,0.03937X0.03543*%
%ADD75R,0.04724X0.05906*%
%ADD76R,0.12992X0.05906*%
D21*
X143595Y269582D02*
D03*
Y274582D02*
D03*
Y279582D02*
D03*
Y284582D02*
D03*
Y289582D02*
D03*
Y294582D02*
D03*
Y299582D02*
D03*
Y304582D02*
D03*
X165051Y269582D02*
D03*
Y274582D02*
D03*
Y279582D02*
D03*
Y284582D02*
D03*
Y289582D02*
D03*
Y294582D02*
D03*
Y299582D02*
D03*
Y304582D02*
D03*
D33*
X149453Y63047D02*
D03*
X161067D02*
D03*
X186756Y63047D02*
D03*
X198370D02*
D03*
X106146Y63047D02*
D03*
X117760D02*
D03*
X224256Y63539D02*
D03*
X235871D02*
D03*
D34*
X126279Y243307D02*
D03*
X120965D02*
D03*
X126575Y292225D02*
D03*
X121260D02*
D03*
X126857Y301800D02*
D03*
X121543D02*
D03*
X127559Y311417D02*
D03*
X122244D02*
D03*
X179785Y304500D02*
D03*
X185100D02*
D03*
X179985Y294600D02*
D03*
X185300D02*
D03*
X186122Y280020D02*
D03*
X191437D02*
D03*
D35*
X121063Y275000D02*
D03*
Y280315D02*
D03*
X107900Y274885D02*
D03*
Y280200D02*
D03*
D75*
X103055Y106803D02*
D03*
X94000D02*
D03*
X84945D02*
D03*
D76*
X94000Y132000D02*
D03*
M02*
