G04*
G04 #@! TF.GenerationSoftware,Altium Limited,Altium Designer,19.1.8 (144)*
G04*
G04 Layer_Color=8388736*
%FSLAX25Y25*%
%MOIN*%
G70*
G01*
G75*
%ADD36R,0.03792X0.10249*%
%ADD37R,0.06115X0.01981*%
%ADD38R,0.01981X0.06115*%
%ADD39O,0.06509X0.03162*%
%ADD40O,0.04737X0.02769*%
%ADD41R,0.03162X0.09068*%
%ADD42R,0.13398X0.09068*%
%ADD43R,0.08871X0.05328*%
%ADD44R,0.04540X0.04147*%
%ADD45R,0.04147X0.04540*%
%ADD46R,0.04737X0.12611*%
%ADD47R,0.22650X0.25997*%
%ADD48R,0.03950X0.04343*%
%ADD49R,0.05918X0.05131*%
%ADD50R,0.04343X0.03950*%
%ADD51R,0.06115X0.06509*%
%ADD52R,0.04343X0.04737*%
%ADD53R,0.04737X0.04343*%
%ADD54C,0.06312*%
%ADD55C,0.09461*%
%ADD56C,0.13792*%
%ADD57C,0.10642*%
%ADD58C,0.08674*%
%ADD59C,0.09855*%
%ADD60C,0.05800*%
%ADD61C,0.03875*%
D36*
X250249Y303564D02*
D03*
Y318918D02*
D03*
X255249Y303564D02*
D03*
Y318918D02*
D03*
X260249Y303564D02*
D03*
Y318918D02*
D03*
X265249Y303564D02*
D03*
Y318918D02*
D03*
X270249Y303564D02*
D03*
Y318918D02*
D03*
D37*
X241594Y254064D02*
D03*
Y252095D02*
D03*
Y250127D02*
D03*
Y248158D02*
D03*
Y246190D02*
D03*
Y244221D02*
D03*
Y242253D02*
D03*
Y240284D02*
D03*
Y238316D02*
D03*
Y236347D02*
D03*
Y234379D02*
D03*
Y232410D02*
D03*
Y230442D02*
D03*
Y228473D02*
D03*
Y226505D02*
D03*
Y224536D02*
D03*
X286870D02*
D03*
Y226505D02*
D03*
Y228473D02*
D03*
Y230442D02*
D03*
Y232410D02*
D03*
Y234379D02*
D03*
Y236347D02*
D03*
Y238316D02*
D03*
Y240284D02*
D03*
Y242253D02*
D03*
Y244221D02*
D03*
Y246190D02*
D03*
Y248158D02*
D03*
Y250127D02*
D03*
Y252095D02*
D03*
Y254064D02*
D03*
D38*
X249468Y216662D02*
D03*
X251436D02*
D03*
X253405D02*
D03*
X255374D02*
D03*
X257342D02*
D03*
X259311D02*
D03*
X261279D02*
D03*
X263248D02*
D03*
X265216D02*
D03*
X267185D02*
D03*
X269153D02*
D03*
X271122D02*
D03*
X273090D02*
D03*
X275059D02*
D03*
X277027D02*
D03*
X278996D02*
D03*
Y261938D02*
D03*
X277027D02*
D03*
X275059D02*
D03*
X273090D02*
D03*
X271122D02*
D03*
X269153D02*
D03*
X267185D02*
D03*
X265216D02*
D03*
X263248D02*
D03*
X261279D02*
D03*
X259311D02*
D03*
X257342D02*
D03*
X255374D02*
D03*
X253405D02*
D03*
X251436D02*
D03*
X249468D02*
D03*
D39*
X162757Y160000D02*
D03*
Y165000D02*
D03*
Y170000D02*
D03*
Y175000D02*
D03*
Y180000D02*
D03*
Y185000D02*
D03*
Y190000D02*
D03*
Y195000D02*
D03*
X141300Y160000D02*
D03*
Y165000D02*
D03*
Y170000D02*
D03*
Y175000D02*
D03*
Y180000D02*
D03*
Y185000D02*
D03*
Y190000D02*
D03*
Y195000D02*
D03*
X106473Y298100D02*
D03*
Y293100D02*
D03*
Y288100D02*
D03*
Y283100D02*
D03*
X127929Y298100D02*
D03*
Y293100D02*
D03*
Y288100D02*
D03*
Y283100D02*
D03*
X106472Y230900D02*
D03*
Y225900D02*
D03*
Y220900D02*
D03*
Y215900D02*
D03*
X127928Y230900D02*
D03*
Y225900D02*
D03*
Y220900D02*
D03*
Y215900D02*
D03*
D40*
X199409Y262402D02*
D03*
Y258661D02*
D03*
Y254921D02*
D03*
X210039Y262402D02*
D03*
Y258661D02*
D03*
Y254921D02*
D03*
X199523Y225898D02*
D03*
Y222158D02*
D03*
Y218418D02*
D03*
X210153Y225898D02*
D03*
Y222158D02*
D03*
Y218418D02*
D03*
D41*
X72400Y367787D02*
D03*
X77400D02*
D03*
X82400D02*
D03*
X87400D02*
D03*
X92400D02*
D03*
D42*
X82400Y391213D02*
D03*
D43*
X112802Y368209D02*
D03*
X97053Y337264D02*
D03*
D44*
X307480Y257283D02*
D03*
Y262402D02*
D03*
X296000Y215000D02*
D03*
Y220118D02*
D03*
X307500Y241000D02*
D03*
Y246118D02*
D03*
X197539Y275394D02*
D03*
Y280512D02*
D03*
X97229Y298429D02*
D03*
Y293311D02*
D03*
X98700Y230959D02*
D03*
Y225841D02*
D03*
D45*
X196555Y368596D02*
D03*
X201673D02*
D03*
X214272D02*
D03*
X219390D02*
D03*
X277067D02*
D03*
X282185D02*
D03*
X294488D02*
D03*
X299606D02*
D03*
X235236D02*
D03*
X240354D02*
D03*
X252854D02*
D03*
X257972D02*
D03*
X129527D02*
D03*
X134646D02*
D03*
X152264Y368602D02*
D03*
X147146D02*
D03*
X171949Y368504D02*
D03*
X177067D02*
D03*
X181004Y263189D02*
D03*
X186122D02*
D03*
X158858Y218898D02*
D03*
X163976D02*
D03*
X158858Y233071D02*
D03*
X163976D02*
D03*
D46*
X41616Y365494D02*
D03*
X23584D02*
D03*
D47*
X32600Y340100D02*
D03*
D48*
X273228Y348721D02*
D03*
X269488Y356595D02*
D03*
X276969D02*
D03*
X231496Y348469D02*
D03*
X227756Y356343D02*
D03*
X235236D02*
D03*
X192913Y348721D02*
D03*
X189173Y356594D02*
D03*
X196653D02*
D03*
X150394Y348425D02*
D03*
X146653Y356299D02*
D03*
X154134D02*
D03*
D49*
X214173Y348819D02*
D03*
Y357874D02*
D03*
X233500Y108445D02*
D03*
Y117500D02*
D03*
X159197Y110291D02*
D03*
Y119346D02*
D03*
X119827Y109701D02*
D03*
Y118756D02*
D03*
X198567Y109701D02*
D03*
Y118756D02*
D03*
X294488Y348178D02*
D03*
Y357233D02*
D03*
X252756Y348178D02*
D03*
Y357233D02*
D03*
X171936Y347378D02*
D03*
Y356433D02*
D03*
D50*
X179134Y249508D02*
D03*
X187008Y253248D02*
D03*
Y245768D02*
D03*
X179134Y223524D02*
D03*
X187008Y227264D02*
D03*
Y219783D02*
D03*
D51*
X69307Y352714D02*
D03*
X57693D02*
D03*
D52*
X58857Y337651D02*
D03*
X53542D02*
D03*
X211122Y248720D02*
D03*
X216437D02*
D03*
X265243Y330700D02*
D03*
X270557D02*
D03*
X221358Y228346D02*
D03*
X226673D02*
D03*
X220472Y237992D02*
D03*
X225787D02*
D03*
X146858Y144882D02*
D03*
X141542D02*
D03*
X156496Y144882D02*
D03*
X161811D02*
D03*
X227067Y263779D02*
D03*
X221752D02*
D03*
X227067Y216535D02*
D03*
X221752D02*
D03*
X106299Y243307D02*
D03*
X111614D02*
D03*
X111516Y352600D02*
D03*
X116831D02*
D03*
X85335Y353000D02*
D03*
X80020D02*
D03*
X98764Y114228D02*
D03*
X104079D02*
D03*
X181540Y114228D02*
D03*
X176225D02*
D03*
X182382Y169882D02*
D03*
X187697D02*
D03*
X181943Y179800D02*
D03*
X187258D02*
D03*
X164075Y247244D02*
D03*
X158760D02*
D03*
X79985Y337402D02*
D03*
X85300D02*
D03*
X95767Y352756D02*
D03*
X101082D02*
D03*
X53543Y365700D02*
D03*
X58857D02*
D03*
X94882Y267618D02*
D03*
X100197D02*
D03*
X103051Y173228D02*
D03*
X97736D02*
D03*
X102854Y189862D02*
D03*
X97539D02*
D03*
X112057Y207000D02*
D03*
X106743D02*
D03*
X182579Y194488D02*
D03*
X187893D02*
D03*
X164075Y261417D02*
D03*
X158760D02*
D03*
X148272Y114326D02*
D03*
X142957D02*
D03*
X220910Y114228D02*
D03*
X215595D02*
D03*
D53*
X296457Y233858D02*
D03*
Y239173D02*
D03*
X106299Y309350D02*
D03*
Y314665D02*
D03*
X140500Y288243D02*
D03*
Y293558D02*
D03*
X136100Y220942D02*
D03*
Y226257D02*
D03*
X101000Y163157D02*
D03*
Y157843D02*
D03*
X94193Y282086D02*
D03*
Y276772D02*
D03*
X180100Y274443D02*
D03*
Y279757D02*
D03*
X98800Y220057D02*
D03*
Y214743D02*
D03*
X285200Y308957D02*
D03*
Y303642D02*
D03*
X215800Y308957D02*
D03*
Y303642D02*
D03*
D54*
X119827Y94543D02*
D03*
X109827D02*
D03*
X99827D02*
D03*
X237937Y94543D02*
D03*
X227938D02*
D03*
X217937D02*
D03*
X159197Y94543D02*
D03*
X149197D02*
D03*
X139197D02*
D03*
X194630Y94543D02*
D03*
X184630D02*
D03*
X174630D02*
D03*
D55*
X72677Y179807D02*
D03*
Y191618D02*
D03*
Y203429D02*
D03*
Y215240D02*
D03*
Y227051D02*
D03*
Y238862D02*
D03*
Y250673D02*
D03*
Y262484D02*
D03*
Y274295D02*
D03*
X62835Y185713D02*
D03*
Y197524D02*
D03*
Y209335D02*
D03*
Y221146D02*
D03*
Y232957D02*
D03*
Y244768D02*
D03*
Y256579D02*
D03*
Y268390D02*
D03*
X51024Y185713D02*
D03*
Y197524D02*
D03*
Y209335D02*
D03*
Y221146D02*
D03*
Y232957D02*
D03*
Y244768D02*
D03*
Y256579D02*
D03*
Y268390D02*
D03*
X41181Y179807D02*
D03*
Y191618D02*
D03*
Y203429D02*
D03*
Y215240D02*
D03*
Y227051D02*
D03*
Y238862D02*
D03*
Y250673D02*
D03*
Y262484D02*
D03*
Y274295D02*
D03*
D56*
X15590Y302839D02*
D03*
Y151264D02*
D03*
D57*
X141048Y15803D02*
D03*
X138489Y53204D02*
D03*
X153449Y39425D02*
D03*
X180418Y15803D02*
D03*
X177859Y53204D02*
D03*
X192819Y39425D02*
D03*
X101678Y15803D02*
D03*
X99119Y53204D02*
D03*
X114079Y39425D02*
D03*
X222288Y16196D02*
D03*
X219729Y53598D02*
D03*
X234689Y39819D02*
D03*
D58*
X157977Y74858D02*
D03*
X141048D02*
D03*
X197347D02*
D03*
X180418D02*
D03*
X118607D02*
D03*
X101678D02*
D03*
X239217Y75252D02*
D03*
X222288D02*
D03*
D59*
X32480Y115929D02*
D03*
X62008D02*
D03*
X32480Y76559D02*
D03*
Y96244D02*
D03*
X62008Y76559D02*
D03*
Y96244D02*
D03*
Y17504D02*
D03*
X32480D02*
D03*
D60*
X94000Y100000D02*
D03*
D61*
X177500Y160000D02*
D03*
X205500Y276500D02*
D03*
X210500Y288000D02*
D03*
X151500Y152500D02*
D03*
X135500Y273000D02*
D03*
X186000Y163500D02*
D03*
X89283Y172402D02*
D03*
X225000Y249000D02*
D03*
X243000Y271000D02*
D03*
X265216Y268716D02*
D03*
X248500Y274500D02*
D03*
X253405Y279094D02*
D03*
X232677Y246007D02*
D03*
X150098Y363189D02*
D03*
X82400Y362768D02*
D03*
X200591Y170768D02*
D03*
X201969Y180217D02*
D03*
X215158Y228740D02*
D03*
X226500Y211000D02*
D03*
X118012Y181693D02*
D03*
X110000Y173000D02*
D03*
X77165Y163484D02*
D03*
X122441Y155905D02*
D03*
X126279Y181988D02*
D03*
X150787Y252264D02*
D03*
X278839Y275000D02*
D03*
X268406Y279232D02*
D03*
X267126Y284449D02*
D03*
X287013Y363572D02*
D03*
X294094Y257972D02*
D03*
X244783Y362205D02*
D03*
X201673Y362697D02*
D03*
X214567Y240650D02*
D03*
X234252Y221260D02*
D03*
X206398Y305807D02*
D03*
X149114Y225197D02*
D03*
X143110Y243898D02*
D03*
X166437Y226279D02*
D03*
X150401Y258084D02*
D03*
X156890Y213090D02*
D03*
X139117Y247300D02*
D03*
X131791Y255217D02*
D03*
X238878Y221161D02*
D03*
X122343Y171752D02*
D03*
X116088Y177396D02*
D03*
X87106Y286122D02*
D03*
X200702Y294662D02*
D03*
X172343Y275000D02*
D03*
X233760Y258169D02*
D03*
X165318Y206263D02*
D03*
X241732Y325787D02*
D03*
X86000Y270000D02*
D03*
X117600Y340800D02*
D03*
X169000Y179800D02*
D03*
X170000Y269700D02*
D03*
X133500Y204400D02*
D03*
X264100Y289500D02*
D03*
X78093Y168792D02*
D03*
X131300Y189700D02*
D03*
X206540Y81551D02*
D03*
M02*
