%TF.GenerationSoftware,Altium Limited,Altium Designer,19.1.8 (144)*%
G04 Layer_Physical_Order=1*
G04 Layer_Color=255*
%FSLAX26Y26*%
%MOIN*%
%TF.FileFunction,Copper,L1,Top,Signal*%
%TF.Part,Single*%
G01*
G75*
%TA.AperFunction,Conductor*%
%ADD10C,0.010000*%
%TA.AperFunction,SMDPad,CuDef*%
%ADD11R,0.039370X0.035433*%
%ADD12R,0.035433X0.039370*%
%ADD13R,0.043307X0.051181*%
%ADD14R,0.035433X0.031496*%
%ADD15R,0.031496X0.035433*%
%ADD16R,0.129921X0.059055*%
%ADD17R,0.047244X0.059055*%
%ADD18R,0.251969X0.218504*%
%ADD19R,0.118110X0.039370*%
%ADD20R,0.037402X0.033465*%
%ADD21R,0.033465X0.037402*%
%ADD22R,0.011811X0.053150*%
%ADD23R,0.053150X0.011811*%
%ADD24O,0.057087X0.023622*%
%ADD25O,0.039370X0.019685*%
%ADD26R,0.149606X0.078740*%
%ADD27R,0.059055X0.078740*%
%ADD28R,0.094488X0.029921*%
%TA.AperFunction,Conductor*%
%ADD29C,0.015748*%
%ADD30C,0.011811*%
%ADD31C,0.019685*%
%ADD32C,0.050000*%
%ADD33C,0.023622*%
%ADD34C,0.039370*%
%TA.AperFunction,ComponentPad*%
%ADD35C,0.078740*%
%ADD36C,0.098425*%
%ADD37C,0.090551*%
%ADD38C,0.055118*%
%ADD39C,0.129921*%
%ADD40C,0.086614*%
%TA.AperFunction,ViaPad*%
%ADD41C,0.177165*%
%ADD42C,0.027559*%
%ADD43C,0.027559*%
%ADD44C,0.050000*%
G36*
X2859063Y3234706D02*
X2877037Y3232340D01*
X2894547Y3227648D01*
X2911294Y3220711D01*
X2926994Y3211647D01*
X2941376Y3200612D01*
X2954194Y3187794D01*
X2965230Y3173412D01*
X2974294Y3157713D01*
X2981231Y3140964D01*
X2985923Y3123455D01*
X2988289Y3105481D01*
X2988289Y3096418D01*
X2988289Y153583D01*
X2988288Y144518D01*
X2985922Y126545D01*
X2981230Y109035D01*
X2974293Y92287D01*
X2965229Y76588D01*
X2954193Y62206D01*
X2941375Y49388D01*
X2926994Y38352D01*
X2911295Y29289D01*
X2894547Y22352D01*
X2877037Y17660D01*
X2859064Y15293D01*
X2850000Y15293D01*
X150000Y15293D01*
X141171Y15293D01*
X123663Y17598D01*
X106607Y22168D01*
X90292Y28926D01*
X75000Y37755D01*
X60991Y48505D01*
X48505Y60991D01*
X37755Y75000D01*
X28926Y90293D01*
X22168Y106607D01*
X17598Y123663D01*
X15293Y141171D01*
X15293Y150000D01*
Y3100000D01*
X15293Y3108828D01*
X17598Y3126336D01*
X22168Y3143392D01*
X28926Y3159707D01*
X37755Y3174999D01*
X48505Y3189009D01*
X60990Y3201494D01*
X75000Y3212244D01*
X90292Y3221073D01*
X106607Y3227831D01*
X123663Y3232401D01*
X141171Y3234706D01*
X149999Y3234706D01*
X2849999Y3234707D01*
X2859063Y3234706D01*
D02*
G37*
%LPC*%
G36*
X2855000Y3196557D02*
Y3105000D01*
X2946557D01*
X2945185Y3118934D01*
X2939662Y3137139D01*
X2930694Y3153918D01*
X2918625Y3168625D01*
X2903918Y3180694D01*
X2887139Y3189662D01*
X2868934Y3195185D01*
X2855000Y3196557D01*
D02*
G37*
G36*
X2845000D02*
X2831066Y3195185D01*
X2812861Y3189662D01*
X2796082Y3180694D01*
X2781375Y3168625D01*
X2769306Y3153918D01*
X2760338Y3137139D01*
X2754815Y3118934D01*
X2753443Y3105000D01*
X2845000D01*
Y3196557D01*
D02*
G37*
G36*
X1538694Y3151342D02*
X1530245Y3149662D01*
X1523083Y3144876D01*
X1518297Y3137713D01*
X1516617Y3129265D01*
X1518297Y3120816D01*
X1523083Y3113653D01*
X1528944Y3109737D01*
Y3098543D01*
X1507599D01*
Y3079096D01*
X1438541D01*
X1400541Y3117096D01*
X1394784Y3121514D01*
X1388080Y3124291D01*
X1380886Y3125238D01*
X1246968D01*
X1245162Y3125000D01*
X1180039D01*
Y3069882D01*
X1245162D01*
X1246968Y3069644D01*
X1369372D01*
X1407372Y3031644D01*
X1413129Y3027227D01*
X1419833Y3024450D01*
X1427027Y3023502D01*
X1507599D01*
Y3004055D01*
X1526936D01*
Y2950110D01*
X1528311Y2943197D01*
X1532227Y2937337D01*
X1584016Y2885548D01*
X1589877Y2881632D01*
X1596789Y2880257D01*
X1757383D01*
X1802048Y2835592D01*
Y2736355D01*
X1792048Y2731010D01*
X1790475Y2732061D01*
X1782026Y2733741D01*
X1773577Y2732061D01*
X1766415Y2727275D01*
X1765371Y2725713D01*
X1501329D01*
X1495953Y2724644D01*
X1491395Y2721598D01*
X1287574Y2517778D01*
X1284529Y2513220D01*
X1283459Y2507843D01*
Y2471398D01*
X1274774Y2468223D01*
X1274118Y2468159D01*
X1272893Y2470941D01*
X1268821Y2477035D01*
X1268470Y2477755D01*
X1266975Y2487828D01*
X1270890Y2493688D01*
X1272265Y2500601D01*
X1270890Y2507513D01*
X1266975Y2513374D01*
X1261114Y2517289D01*
X1254202Y2518664D01*
X1234517D01*
X1227604Y2517289D01*
X1221744Y2513374D01*
X1221590Y2513144D01*
X1127304D01*
Y2520286D01*
X1076123D01*
Y2510713D01*
X1050436D01*
Y2528494D01*
X1009255D01*
X1001223Y2528494D01*
X991223Y2528494D01*
X950042D01*
Y2514266D01*
X929721D01*
Y2524665D01*
X931847D01*
Y2546398D01*
X874445D01*
Y2525093D01*
X769696D01*
X768712Y2535081D01*
X765336Y2546213D01*
X759852Y2556472D01*
X752472Y2565464D01*
X743480Y2572844D01*
X735592Y2577060D01*
X734517Y2581470D01*
Y2583648D01*
X735592Y2588058D01*
X743480Y2592274D01*
X752472Y2599654D01*
X759852Y2608646D01*
X765336Y2618905D01*
X768712Y2630037D01*
X769853Y2641614D01*
X768712Y2653191D01*
X765336Y2664323D01*
X763047Y2668604D01*
X771612Y2677169D01*
X1247583D01*
X1251075Y2674835D01*
X1259524Y2673155D01*
X1267973Y2674835D01*
X1275136Y2679621D01*
X1279921Y2686784D01*
X1281602Y2695233D01*
X1279921Y2703681D01*
X1275136Y2710844D01*
X1267973Y2715630D01*
X1259524Y2717310D01*
X1251075Y2715630D01*
X1247583Y2713296D01*
X782486D01*
X763047Y2732735D01*
X765336Y2737016D01*
X768712Y2748148D01*
X769853Y2759724D01*
X768712Y2771301D01*
X765336Y2782433D01*
X759852Y2792692D01*
X752472Y2801685D01*
X743480Y2809064D01*
X733221Y2814548D01*
X722089Y2817925D01*
X710512Y2819065D01*
X698935Y2817925D01*
X687803Y2814548D01*
X677544Y2809064D01*
X668552Y2801685D01*
X661172Y2792692D01*
X655688Y2782433D01*
X652311Y2771301D01*
X651171Y2759724D01*
X651365Y2757750D01*
X649874Y2755920D01*
X641914Y2751688D01*
X634795Y2755493D01*
X623663Y2758870D01*
X612087Y2760010D01*
X600510Y2758870D01*
X589378Y2755493D01*
X579119Y2750009D01*
X570126Y2742630D01*
X562746Y2733637D01*
X558531Y2725750D01*
X554120Y2724675D01*
X551943D01*
X547532Y2725750D01*
X543317Y2733637D01*
X535937Y2742630D01*
X527134Y2749854D01*
Y2844415D01*
X542777Y2860058D01*
X542777Y2860058D01*
X656845Y2974126D01*
X859173D01*
Y2890158D01*
X1126890D01*
Y3124409D01*
X859173D01*
Y3040441D01*
X643110D01*
X634529Y3039311D01*
X626531Y3035999D01*
X619664Y3030729D01*
X495885Y2906950D01*
X495885Y2906950D01*
X470531Y2881596D01*
X470530Y2881596D01*
X406884Y2817949D01*
X395551Y2819065D01*
X383974Y2817925D01*
X372842Y2814548D01*
X362583Y2809064D01*
X353591Y2801685D01*
X346211Y2792692D01*
X340727Y2782433D01*
X337351Y2771301D01*
X336210Y2759724D01*
X337351Y2748148D01*
X340727Y2737016D01*
X346211Y2726756D01*
X353591Y2717764D01*
X362583Y2710384D01*
X372842Y2704901D01*
X383974Y2701524D01*
X382786Y2691683D01*
X382157Y2691601D01*
X369676Y2686431D01*
X358959Y2678207D01*
X350735Y2667489D01*
X345565Y2655008D01*
X344460Y2646614D01*
X395551D01*
X446643D01*
X446116Y2650615D01*
X455515Y2655838D01*
X461008Y2651329D01*
X471268Y2645845D01*
X482399Y2642469D01*
X481211Y2632628D01*
X480583Y2632546D01*
X468101Y2627376D01*
X457384Y2619152D01*
X449160Y2608434D01*
X443990Y2595953D01*
X442885Y2587559D01*
X493976D01*
X545068D01*
X543963Y2595953D01*
X538793Y2608434D01*
X530569Y2619152D01*
X519851Y2627376D01*
X507370Y2632546D01*
X506742Y2632628D01*
X505553Y2642469D01*
X516685Y2645845D01*
X526944Y2651329D01*
X535937Y2658709D01*
X543317Y2667701D01*
X547532Y2675589D01*
X551943Y2676664D01*
X554120D01*
X558531Y2675589D01*
X562746Y2667701D01*
X570126Y2658709D01*
X579119Y2651329D01*
X589378Y2645845D01*
X600510Y2642469D01*
X599321Y2632628D01*
X598693Y2632546D01*
X586212Y2627376D01*
X575494Y2619152D01*
X567270Y2608434D01*
X562100Y2595953D01*
X560995Y2587559D01*
X612087D01*
Y2582559D01*
X617087D01*
Y2531468D01*
X625480Y2532573D01*
X637962Y2537742D01*
X644097Y2542450D01*
X652733Y2536473D01*
X652311Y2535081D01*
X651171Y2523504D01*
X652311Y2511927D01*
X652733Y2510535D01*
X644097Y2504558D01*
X637962Y2509265D01*
X625480Y2514435D01*
X617087Y2515540D01*
Y2464449D01*
Y2413357D01*
X625480Y2414462D01*
X637962Y2419632D01*
X644097Y2424340D01*
X652733Y2418362D01*
X652311Y2416970D01*
X651171Y2405394D01*
X652311Y2393817D01*
X652733Y2392425D01*
X644097Y2386448D01*
X637962Y2391155D01*
X625480Y2396325D01*
X617087Y2397430D01*
Y2346339D01*
Y2295247D01*
X625480Y2296352D01*
X637962Y2301522D01*
X644097Y2306230D01*
X652733Y2300252D01*
X652311Y2298860D01*
X651171Y2287284D01*
X652311Y2275707D01*
X652733Y2274315D01*
X644097Y2268337D01*
X637962Y2273045D01*
X625480Y2278215D01*
X617087Y2279320D01*
Y2228228D01*
X612087D01*
Y2223228D01*
X560995D01*
X562100Y2214835D01*
X567270Y2202354D01*
X575494Y2191636D01*
X586212Y2183412D01*
X598693Y2178242D01*
X599321Y2178159D01*
X600510Y2168319D01*
X589378Y2164942D01*
X579119Y2159458D01*
X570126Y2152078D01*
X562746Y2143086D01*
X557263Y2132827D01*
X553886Y2121695D01*
X544046Y2122884D01*
X543963Y2123512D01*
X538793Y2135993D01*
X530569Y2146711D01*
X519851Y2154935D01*
X507370Y2160105D01*
X498976Y2161210D01*
Y2110118D01*
Y2059027D01*
X507370Y2060132D01*
X519851Y2065302D01*
X530569Y2073526D01*
X538793Y2084243D01*
X543963Y2096724D01*
X544046Y2097352D01*
X553886Y2098541D01*
X557263Y2087409D01*
X562746Y2077150D01*
X570126Y2068158D01*
X579119Y2060778D01*
X587006Y2056562D01*
X588081Y2052152D01*
Y2049974D01*
X587006Y2045564D01*
X579119Y2041348D01*
X570126Y2033968D01*
X562746Y2024976D01*
X557263Y2014717D01*
X553886Y2003585D01*
X544046Y2004774D01*
X543963Y2005402D01*
X538793Y2017883D01*
X530569Y2028601D01*
X519851Y2036824D01*
X507370Y2041994D01*
X498976Y2043099D01*
Y1992008D01*
X488976D01*
Y2043099D01*
X480583Y2041994D01*
X468101Y2036824D01*
X461966Y2032117D01*
X453330Y2038094D01*
X453752Y2039486D01*
X454892Y2051063D01*
X453752Y2062640D01*
X453330Y2064032D01*
X461966Y2070009D01*
X468101Y2065302D01*
X480583Y2060132D01*
X488976Y2059027D01*
Y2110118D01*
Y2161210D01*
X480583Y2160105D01*
X468101Y2154935D01*
X461966Y2150227D01*
X453330Y2156205D01*
X453752Y2157596D01*
X454892Y2169173D01*
X453752Y2180750D01*
X453330Y2182142D01*
X461966Y2188119D01*
X468101Y2183412D01*
X480583Y2178242D01*
X488976Y2177137D01*
Y2228228D01*
X493976D01*
Y2233228D01*
X545068D01*
X543963Y2241622D01*
X538793Y2254103D01*
X530569Y2264821D01*
X519851Y2273045D01*
X507370Y2278215D01*
X506742Y2278298D01*
X505553Y2288138D01*
X516685Y2291515D01*
X526944Y2296999D01*
X535937Y2304378D01*
X543317Y2313371D01*
X548800Y2323630D01*
X552177Y2334762D01*
X562017Y2333573D01*
X562100Y2332945D01*
X567270Y2320464D01*
X575494Y2309746D01*
X586212Y2301522D01*
X598693Y2296352D01*
X607087Y2295247D01*
Y2346339D01*
Y2397430D01*
X598693Y2396325D01*
X586212Y2391155D01*
X575494Y2382931D01*
X567270Y2372213D01*
X562100Y2359732D01*
X562017Y2359104D01*
X552177Y2357916D01*
X548800Y2369047D01*
X543317Y2379307D01*
X535937Y2388299D01*
X526944Y2395679D01*
X516685Y2401162D01*
X505553Y2404539D01*
X506742Y2414380D01*
X507370Y2414462D01*
X519851Y2419632D01*
X530569Y2427856D01*
X538793Y2438574D01*
X543963Y2451055D01*
X545068Y2459449D01*
X493976D01*
X442885D01*
X443411Y2455448D01*
X434013Y2450225D01*
X428519Y2454734D01*
X418260Y2460218D01*
X407128Y2463594D01*
X408317Y2473435D01*
X408945Y2473517D01*
X421426Y2478687D01*
X432144Y2486911D01*
X440368Y2497629D01*
X445538Y2510110D01*
X446643Y2518504D01*
X395551D01*
X344460D01*
X345565Y2510110D01*
X350735Y2497629D01*
X358959Y2486911D01*
X369676Y2478687D01*
X382157Y2473517D01*
X382786Y2473435D01*
X383974Y2463594D01*
X372842Y2460218D01*
X362583Y2454734D01*
X353591Y2447354D01*
X346211Y2438362D01*
X340727Y2428102D01*
X337351Y2416970D01*
X336210Y2405394D01*
X337327Y2394061D01*
X253798Y2310533D01*
X253798Y2310533D01*
X205288Y2262023D01*
X200019Y2255156D01*
X196706Y2247159D01*
X195577Y2238577D01*
Y1743589D01*
X196706Y1735007D01*
X200019Y1727010D01*
X205288Y1720142D01*
X721319Y1204111D01*
Y932304D01*
X722449Y923723D01*
X725762Y915726D01*
X731031Y908859D01*
X804058Y835832D01*
X810925Y830563D01*
X818922Y827250D01*
X827504Y826120D01*
X920137D01*
X976954Y769303D01*
X975942Y761614D01*
X977836Y747226D01*
X983390Y733817D01*
X992225Y722303D01*
X1003739Y713469D01*
X1017147Y707915D01*
X1031535Y706020D01*
X1045924Y707915D01*
X1059332Y713469D01*
X1070846Y722303D01*
X1079681Y733817D01*
X1085235Y747226D01*
X1087129Y761614D01*
X1086117Y769304D01*
X1131088Y814275D01*
X1162487D01*
X1165882Y804275D01*
X1161516Y800925D01*
X1152681Y789411D01*
X1147127Y776003D01*
X1145233Y761614D01*
X1147127Y747226D01*
X1152681Y733817D01*
X1161516Y722303D01*
X1173030Y713469D01*
X1186438Y707915D01*
X1200827Y706020D01*
X1215216Y707915D01*
X1228624Y713469D01*
X1240138Y722303D01*
X1248972Y733817D01*
X1254526Y747226D01*
X1256420Y761614D01*
X1254526Y776003D01*
X1248972Y789411D01*
X1240138Y800925D01*
X1235772Y804275D01*
X1239167Y814275D01*
X1391077D01*
X1399659Y815405D01*
X1407656Y818717D01*
X1414523Y823986D01*
X1445996Y855459D01*
X1448168Y858290D01*
X1459577Y869699D01*
X1503080Y826196D01*
X1498409Y816725D01*
X1494738Y817208D01*
X1480349Y815314D01*
X1466941Y809760D01*
X1455427Y800925D01*
X1446592Y789411D01*
X1441038Y776003D01*
X1439144Y761614D01*
X1441038Y747226D01*
X1446592Y733817D01*
X1455427Y722303D01*
X1466941Y713469D01*
X1480349Y707915D01*
X1494738Y706020D01*
X1509126Y707915D01*
X1522534Y713469D01*
X1534048Y722303D01*
X1542883Y733817D01*
X1548437Y747226D01*
X1550331Y761614D01*
X1548437Y776003D01*
X1542883Y789411D01*
X1534048Y800925D01*
X1533161Y801606D01*
X1536556Y811606D01*
X1635687D01*
X1637049Y808971D01*
X1638333Y801606D01*
X1630244Y795399D01*
X1622651Y785504D01*
X1617878Y773980D01*
X1616908Y766614D01*
X1664029D01*
X1711149D01*
X1710180Y773980D01*
X1705407Y785504D01*
X1697814Y795399D01*
X1689725Y801606D01*
X1691009Y808971D01*
X1692370Y811606D01*
X1849697D01*
X1858279Y812735D01*
X1866276Y816048D01*
X1873143Y821317D01*
X1922910Y871084D01*
X1967335Y826659D01*
X1968282Y825933D01*
X1964320Y816368D01*
X1957940Y817208D01*
X1943551Y815314D01*
X1930143Y809760D01*
X1918629Y800925D01*
X1909794Y789411D01*
X1904240Y776003D01*
X1902346Y761614D01*
X1904240Y747226D01*
X1909794Y733817D01*
X1918629Y722303D01*
X1930143Y713469D01*
X1943551Y707915D01*
X1957940Y706020D01*
X1972328Y707915D01*
X1985737Y713469D01*
X1997250Y722303D01*
X2006085Y733817D01*
X2011639Y747226D01*
X2013533Y761614D01*
X2011639Y776003D01*
X2006085Y789411D01*
X1997250Y800925D01*
X1989251Y807063D01*
X1990034Y812123D01*
X1992796Y816948D01*
X2110903D01*
X2112892Y806948D01*
X2103341Y802992D01*
X2093446Y795399D01*
X2085853Y785504D01*
X2081080Y773980D01*
X2080110Y766614D01*
X2127231D01*
X2174352D01*
X2173382Y773980D01*
X2168609Y785504D01*
X2161016Y795399D01*
X2151120Y802992D01*
X2141570Y806948D01*
X2143559Y816948D01*
X2233796D01*
Y325251D01*
X2234926Y316669D01*
X2238239Y308672D01*
X2243508Y301805D01*
X2358144Y187169D01*
X2357121Y183798D01*
X2355867Y171063D01*
X2357121Y158328D01*
X2360836Y146083D01*
X2366868Y134798D01*
X2374985Y124907D01*
X2384877Y116789D01*
X2396162Y110757D01*
X2408407Y107042D01*
X2421142Y105788D01*
X2433876Y107042D01*
X2446121Y110757D01*
X2457407Y116789D01*
X2467298Y124907D01*
X2475416Y134798D01*
X2481448Y146083D01*
X2485162Y158328D01*
X2486417Y171063D01*
X2485162Y183798D01*
X2481448Y196043D01*
X2475416Y207328D01*
X2467298Y217219D01*
X2457407Y225337D01*
X2446121Y231369D01*
X2433876Y235084D01*
X2421142Y236338D01*
X2408407Y235084D01*
X2405036Y234061D01*
X2300112Y338985D01*
Y816948D01*
X2316988D01*
X2325570Y818078D01*
X2333567Y821390D01*
X2340434Y826659D01*
X2387654Y873880D01*
X2396856Y875091D01*
X2407391Y879455D01*
X2416438Y886397D01*
X2423380Y895443D01*
X2427743Y905978D01*
X2429232Y917284D01*
X2427743Y928589D01*
X2423380Y939124D01*
X2416438Y948170D01*
X2415130Y949174D01*
X2417911Y959645D01*
X2423822Y960450D01*
X2446968Y937303D01*
X2443359Y928589D01*
X2441870Y917284D01*
X2443359Y905978D01*
X2447722Y895443D01*
X2454664Y886397D01*
X2463711Y879455D01*
X2474246Y875091D01*
X2485551Y873603D01*
X2496856Y875091D01*
X2507391Y879455D01*
X2516438Y886397D01*
X2523380Y895443D01*
X2527743Y905978D01*
X2529232Y917284D01*
X2527743Y928589D01*
X2523380Y939124D01*
X2516438Y948170D01*
X2507391Y955112D01*
X2496856Y959476D01*
X2485551Y960964D01*
X2474246Y959476D01*
X2465532Y955866D01*
X2436683Y984715D01*
X2432424Y987561D01*
X2427401Y988560D01*
X2388906D01*
X2387470Y990709D01*
X2392815Y1000709D01*
X2425748D01*
Y1053858D01*
X2417198D01*
Y1069098D01*
X2417223Y1069122D01*
X2453570D01*
Y1136051D01*
X2394515D01*
Y1091829D01*
X2389788Y1087102D01*
X2386307Y1081893D01*
X2385085Y1075748D01*
X2385085Y1075748D01*
Y1060929D01*
X2378014Y1053858D01*
X2366535Y1053858D01*
X2325354D01*
Y1000709D01*
X2342972D01*
Y995019D01*
X2343971Y989996D01*
X2346817Y985738D01*
X2365767Y966788D01*
X2365933Y963557D01*
X2364461Y955423D01*
X2363711Y955112D01*
X2354664Y948170D01*
X2347722Y939124D01*
X2343359Y928589D01*
X2342567Y922577D01*
X2303254Y883263D01*
X2163305D01*
X2158374Y893263D01*
X2160046Y895443D01*
X2164410Y905978D01*
X2165898Y917284D01*
X2164410Y928589D01*
X2160046Y939124D01*
X2153105Y948170D01*
X2144058Y955112D01*
X2133523Y959476D01*
X2122218Y960964D01*
X2110912Y959476D01*
X2100377Y955112D01*
X2091331Y948170D01*
X2084389Y939124D01*
X2080026Y928589D01*
X2078537Y917284D01*
X2080026Y905978D01*
X2084389Y895443D01*
X2086062Y893263D01*
X2081130Y883263D01*
X2063305D01*
X2058374Y893263D01*
X2060046Y895443D01*
X2064410Y905978D01*
X2065898Y917284D01*
X2064410Y928589D01*
X2060046Y939124D01*
X2053105Y948170D01*
X2044058Y955112D01*
X2033523Y959476D01*
X2022218Y960964D01*
X2010912Y959476D01*
X2005129Y957080D01*
X1979182Y983026D01*
X1973973Y986507D01*
X1967829Y987729D01*
X1967828Y987729D01*
X1918902D01*
X1916014Y991060D01*
X1916204Y994564D01*
X1919710Y1000709D01*
X1924567Y1000709D01*
X1965748D01*
Y1053858D01*
X1965748D01*
X1965825Y1063827D01*
X1967847Y1066092D01*
X1997062D01*
Y1133021D01*
X1938007D01*
Y1088799D01*
X1930168Y1080960D01*
X1926687Y1075751D01*
X1925465Y1069606D01*
X1925465Y1069606D01*
Y1060929D01*
X1918394Y1053858D01*
X1906535Y1053858D01*
X1865354D01*
Y1000709D01*
X1875968D01*
Y984961D01*
X1875968Y984961D01*
X1877191Y978816D01*
X1880671Y973607D01*
X1892560Y961718D01*
X1893538Y955516D01*
X1893046Y949923D01*
X1892639Y949174D01*
X1891331Y948170D01*
X1884389Y939124D01*
X1880025Y928589D01*
X1879024Y920982D01*
X1835963Y877921D01*
X1695152D01*
X1692450Y882177D01*
X1690941Y887921D01*
X1696713Y895443D01*
X1701077Y905978D01*
X1702565Y917284D01*
X1701077Y928589D01*
X1696713Y939124D01*
X1689771Y948170D01*
X1680725Y955112D01*
X1670190Y959476D01*
X1658884Y960964D01*
X1647579Y959476D01*
X1637044Y955112D01*
X1627998Y948170D01*
X1621056Y939124D01*
X1616692Y928589D01*
X1615204Y917284D01*
X1616692Y905978D01*
X1621056Y895443D01*
X1626828Y887921D01*
X1625319Y882177D01*
X1622617Y877921D01*
X1595152D01*
X1592450Y882177D01*
X1590941Y887921D01*
X1596713Y895443D01*
X1601077Y905978D01*
X1602565Y917284D01*
X1601077Y928589D01*
X1596713Y939124D01*
X1589771Y948170D01*
X1580725Y955112D01*
X1570190Y959476D01*
X1558884Y960964D01*
X1547579Y959476D01*
X1541795Y957080D01*
X1510588Y988288D01*
X1514730Y998288D01*
X1557343D01*
Y1032170D01*
X1557652Y1033721D01*
Y1055428D01*
X1558590Y1056366D01*
X1594937D01*
Y1123295D01*
X1535882D01*
Y1079073D01*
X1530242Y1073433D01*
X1526761Y1068224D01*
X1525539Y1062079D01*
X1525539Y1062079D01*
Y1051437D01*
X1515351D01*
X1507711Y1053860D01*
X1506512Y1060767D01*
Y1084831D01*
X1474858D01*
X1443205D01*
Y1054240D01*
X1448111D01*
X1456950Y1051437D01*
X1456950Y1044240D01*
Y998288D01*
X1474358D01*
Y985754D01*
X1474358Y985754D01*
X1475580Y979609D01*
X1479061Y974400D01*
X1519088Y934373D01*
X1516692Y928589D01*
X1516637Y928168D01*
X1505905Y923266D01*
X1501385Y926246D01*
X1501077Y928589D01*
X1496713Y939124D01*
X1489771Y948170D01*
X1480725Y955112D01*
X1470190Y959476D01*
X1458884Y960964D01*
X1447579Y959476D01*
X1437044Y955112D01*
X1427998Y948170D01*
X1421056Y939124D01*
X1416692Y928589D01*
X1415481Y919387D01*
X1399104Y903010D01*
X1396932Y900179D01*
X1377343Y880590D01*
X1234588D01*
X1229656Y890590D01*
X1233380Y895443D01*
X1237744Y905978D01*
X1239232Y917284D01*
X1237744Y928589D01*
X1234516Y936380D01*
X1332279Y1034142D01*
X1335324Y1038700D01*
X1336394Y1044076D01*
Y1255208D01*
X1337956Y1256251D01*
X1342741Y1263414D01*
X1344422Y1271862D01*
X1342741Y1280311D01*
X1337956Y1287474D01*
X1330793Y1292260D01*
X1322344Y1293940D01*
X1313895Y1292260D01*
X1306733Y1287474D01*
X1301947Y1280311D01*
X1300266Y1271862D01*
X1301947Y1263414D01*
X1306733Y1256251D01*
X1308295Y1255208D01*
Y1049896D01*
X1214648Y956249D01*
X1206857Y959476D01*
X1195551Y960964D01*
X1184246Y959476D01*
X1173711Y955112D01*
X1164664Y948170D01*
X1157723Y939124D01*
X1153359Y928589D01*
X1151870Y917284D01*
X1153359Y905978D01*
X1157723Y895443D01*
X1161446Y890590D01*
X1156515Y880590D01*
X1134588D01*
X1129656Y890590D01*
X1133380Y895443D01*
X1137744Y905978D01*
X1139232Y917284D01*
X1137744Y928589D01*
X1133380Y939124D01*
X1126438Y948170D01*
X1117392Y955112D01*
X1115622Y955845D01*
Y1130802D01*
X1140741Y1155921D01*
X1140741Y1155921D01*
X1160558Y1175738D01*
X1181229D01*
Y1173612D01*
X1202961D01*
Y1202312D01*
Y1231013D01*
X1181229D01*
Y1228887D01*
X1132174D01*
Y1207014D01*
X1123057Y1201988D01*
X1076378Y1248668D01*
Y1267914D01*
X1076496D01*
Y1342716D01*
X1013504D01*
Y1267914D01*
X1036237D01*
Y1240354D01*
X1037764Y1232674D01*
X1042115Y1226162D01*
X1098165Y1170113D01*
X1081359Y1153307D01*
X1077008Y1146796D01*
X1075480Y1139115D01*
Y1135105D01*
X1021807D01*
Y1090883D01*
X1011884Y1080960D01*
X1008403Y1075751D01*
X1007181Y1069606D01*
X1007181Y1069606D01*
Y1053858D01*
X996536D01*
Y1053859D01*
X994567D01*
Y1053858D01*
X945354D01*
Y1000709D01*
X953904D01*
Y953528D01*
X953904Y953528D01*
X955126Y947383D01*
X958607Y942174D01*
X959431Y941350D01*
X957723Y939124D01*
X953359Y928589D01*
X952147Y919387D01*
X925196Y892436D01*
X895745D01*
X892350Y902436D01*
X895614Y904941D01*
X900884Y911808D01*
X904196Y919805D01*
X905326Y928386D01*
X904196Y936968D01*
X900884Y944965D01*
X895614Y951832D01*
X892239Y954423D01*
Y1061798D01*
X912011Y1081570D01*
X931256D01*
Y1068176D01*
X990311D01*
Y1135105D01*
X980854D01*
Y1333681D01*
X1006420Y1359247D01*
X1100954D01*
X1107203Y1351824D01*
X1104055Y1342716D01*
X1104055D01*
Y1267914D01*
X1167047D01*
Y1342716D01*
X1155622D01*
Y1353061D01*
X1154094Y1360741D01*
X1149743Y1367253D01*
X1123486Y1393510D01*
X1116975Y1397860D01*
X1109294Y1399388D01*
X998106D01*
X990425Y1397860D01*
X983914Y1393510D01*
X946591Y1356187D01*
X942241Y1349676D01*
X940713Y1341995D01*
Y1135105D01*
X931256D01*
Y1121711D01*
X903697D01*
X896016Y1120183D01*
X889505Y1115833D01*
X857976Y1084304D01*
X853625Y1077792D01*
X852097Y1070112D01*
Y954423D01*
X848722Y951832D01*
X843453Y944965D01*
X840140Y936968D01*
X839010Y928386D01*
X840140Y919805D01*
X843453Y911808D01*
X848060Y905803D01*
X847494Y901830D01*
X844901Y895268D01*
X839200Y894474D01*
X787635Y946039D01*
Y1217845D01*
X786505Y1226427D01*
X783193Y1234424D01*
X777923Y1241292D01*
X442201Y1577014D01*
X446472Y1586885D01*
X897617D01*
X897617Y1586885D01*
X903762Y1588107D01*
X908971Y1591588D01*
X991236Y1673853D01*
X996315Y1672485D01*
X1001222Y1669697D01*
X1002594Y1662799D01*
X1007380Y1655636D01*
X1008942Y1654593D01*
Y1521915D01*
X1007380Y1520872D01*
X1002594Y1513709D01*
X1000913Y1505261D01*
X1002594Y1496812D01*
X1007380Y1489649D01*
X1014542Y1484863D01*
X1022991Y1483183D01*
X1031440Y1484863D01*
X1038602Y1489649D01*
X1043388Y1496812D01*
X1045069Y1505261D01*
X1043388Y1513709D01*
X1038602Y1520872D01*
X1037041Y1521915D01*
Y1654593D01*
X1038602Y1655636D01*
X1043388Y1662799D01*
X1045069Y1671247D01*
X1043388Y1679696D01*
X1038602Y1686859D01*
X1034626Y1689516D01*
X1037659Y1699516D01*
X1430005D01*
X1688557Y1440964D01*
X1693767Y1437483D01*
X1699911Y1436261D01*
X1699912Y1436261D01*
X1896671D01*
X1903167Y1431920D01*
X1911616Y1430240D01*
X1920065Y1431920D01*
X1927227Y1436706D01*
X1932013Y1443869D01*
X1933694Y1452318D01*
X1932013Y1460766D01*
X1927227Y1467929D01*
X1920065Y1472715D01*
X1911616Y1474395D01*
X1903167Y1472715D01*
X1896671Y1468374D01*
X1706562D01*
X1650582Y1524354D01*
X1654725Y1534353D01*
X1655698Y1534354D01*
X1655698Y1534354D01*
X1656174Y1534354D01*
X1670410D01*
Y1558055D01*
X1648678D01*
X1648678Y1541849D01*
Y1541373D01*
Y1541373D01*
X1648678Y1540400D01*
X1638678Y1536258D01*
X1512656Y1662280D01*
X1516798Y1672280D01*
X1542851D01*
X1542991Y1671575D01*
X1547777Y1664412D01*
X1554939Y1659626D01*
X1563388Y1657946D01*
X1571837Y1659626D01*
X1578999Y1664412D01*
X1582166Y1669151D01*
X1592110Y1670868D01*
X1599042Y1664160D01*
Y1640907D01*
X1599042Y1640907D01*
X1600264Y1634762D01*
X1603745Y1629553D01*
X1639274Y1594024D01*
X1639274Y1594024D01*
X1644483Y1590543D01*
X1648678Y1589708D01*
Y1568055D01*
X1675410D01*
Y1563055D01*
X1680410D01*
Y1534354D01*
X1702143D01*
Y1536480D01*
X1751198D01*
Y1547689D01*
X1818532D01*
X1822253Y1545203D01*
X1823638Y1544927D01*
Y1534731D01*
X1821424Y1534291D01*
X1814209Y1529470D01*
X1809389Y1522256D01*
X1808690Y1518745D01*
X1846666D01*
X1884642D01*
X1883944Y1522256D01*
X1879123Y1529470D01*
X1871909Y1534291D01*
X1869695Y1534731D01*
Y1544927D01*
X1871079Y1545203D01*
X1877591Y1549553D01*
X1881941Y1556065D01*
X1883469Y1563745D01*
X1881941Y1571426D01*
X1877591Y1577938D01*
X1871079Y1582288D01*
X1863399Y1583816D01*
Y1593675D01*
X1871079Y1595203D01*
X1877591Y1599553D01*
X1879196Y1601956D01*
X1889791D01*
X1895168Y1603025D01*
X1899726Y1606071D01*
X1921058Y1627403D01*
X1924103Y1631961D01*
X1925173Y1637338D01*
Y1655384D01*
X1935173Y1658187D01*
X1938339Y1653449D01*
X1945501Y1648663D01*
X1953950Y1646983D01*
X1962399Y1648663D01*
X1969561Y1653449D01*
X1974347Y1660612D01*
X1976027Y1669061D01*
X1974347Y1677509D01*
X1969561Y1684672D01*
X1967999Y1685715D01*
Y1714158D01*
X2003538Y1749696D01*
X2030214D01*
X2030309Y1749553D01*
X2036820Y1745203D01*
X2038204Y1744927D01*
Y1734731D01*
X2035991Y1734291D01*
X2028776Y1729470D01*
X2023955Y1722256D01*
X2023257Y1718745D01*
X2061233D01*
X2099209D01*
X2098511Y1722256D01*
X2093690Y1729470D01*
X2086476Y1734291D01*
X2084262Y1734731D01*
Y1744927D01*
X2085646Y1745203D01*
X2089367Y1747689D01*
X2149673D01*
Y1737171D01*
X2198729D01*
Y1735045D01*
X2220461D01*
Y1763745D01*
X2225461D01*
Y1768745D01*
X2252193D01*
Y1792446D01*
X2252193D01*
X2249836Y1802446D01*
X2251879Y1803811D01*
X2272770Y1824702D01*
X2282009Y1820875D01*
Y1719665D01*
X2240139Y1677795D01*
X2092253D01*
X2092158Y1677938D01*
X2085646Y1682288D01*
X2084262Y1682564D01*
Y1692760D01*
X2086476Y1693200D01*
X2093690Y1698021D01*
X2098511Y1705235D01*
X2099209Y1708745D01*
X2061233D01*
X2023257D01*
X2023955Y1705235D01*
X2028776Y1698021D01*
X2035991Y1693200D01*
X2038204Y1692760D01*
Y1682564D01*
X2036820Y1682288D01*
X2030309Y1677938D01*
X2025958Y1671426D01*
X2024430Y1663745D01*
X2025958Y1656065D01*
X2030309Y1649553D01*
X2036820Y1645203D01*
X2044501Y1643675D01*
Y1633816D01*
X2036820Y1632288D01*
X2033099Y1629802D01*
X2009068D01*
X2009068Y1629802D01*
X2002923Y1628580D01*
X1997714Y1625099D01*
X1997714Y1625099D01*
X1957150Y1584535D01*
X1953670Y1579326D01*
X1952447Y1573181D01*
X1952447Y1573181D01*
Y1353232D01*
X1762706Y1163490D01*
X1759225Y1158281D01*
X1758003Y1152137D01*
X1758003Y1152136D01*
Y1036791D01*
X1757480Y1036575D01*
X1750613Y1031305D01*
X1745344Y1024438D01*
X1742031Y1016441D01*
X1740901Y1007860D01*
X1742031Y999278D01*
X1745344Y991281D01*
X1750613Y984413D01*
X1757480Y979144D01*
X1765477Y975832D01*
X1774059Y974702D01*
X1782641Y975832D01*
X1790638Y979144D01*
X1797505Y984413D01*
X1802775Y991281D01*
X1806087Y999278D01*
X1807217Y1007860D01*
X1806087Y1016441D01*
X1802775Y1024438D01*
X1797505Y1031305D01*
X1790638Y1036575D01*
X1790116Y1036791D01*
Y1145486D01*
X1979857Y1335227D01*
X1979858Y1335227D01*
X1983338Y1340437D01*
X1984560Y1346581D01*
Y1425543D01*
X1989651Y1429383D01*
X1994561Y1431613D01*
X2001464Y1430240D01*
X2009913Y1431920D01*
X2017075Y1436706D01*
X2021861Y1443869D01*
X2023542Y1452318D01*
X2021861Y1460766D01*
X2018804Y1465341D01*
X2047138Y1493675D01*
X2077965D01*
X2085646Y1495203D01*
X2089367Y1497689D01*
X2149673D01*
Y1487892D01*
X2198729D01*
Y1485766D01*
X2220461D01*
Y1514466D01*
X2225461D01*
Y1519466D01*
X2252193D01*
Y1539696D01*
X2252193Y1543167D01*
X2259489Y1549696D01*
X2261875D01*
X2267252Y1550765D01*
X2271810Y1553811D01*
X2333517Y1615518D01*
X2336562Y1620076D01*
X2337632Y1625453D01*
Y2343798D01*
X2356271Y2362437D01*
X2408939D01*
X2411242Y2359113D01*
X2413369Y2352437D01*
X2409810Y2347111D01*
X2408130Y2338662D01*
X2409810Y2330214D01*
X2414596Y2323051D01*
X2421758Y2318265D01*
X2430207Y2316585D01*
X2438656Y2318265D01*
X2445818Y2323051D01*
X2450419Y2323007D01*
X2459485Y2313834D01*
X2459413Y2310940D01*
X2459245Y2310828D01*
X2454459Y2303665D01*
X2452778Y2295216D01*
X2454459Y2286768D01*
X2459245Y2279605D01*
X2466407Y2274819D01*
X2474856Y2273139D01*
X2483305Y2274819D01*
X2490468Y2279605D01*
X2495253Y2286768D01*
X2496934Y2295216D01*
X2495253Y2303665D01*
X2490468Y2310828D01*
X2489604Y2311404D01*
X2489053Y2321262D01*
X2497839Y2330048D01*
X2500885Y2334606D01*
X2501954Y2339983D01*
Y2352718D01*
X2511954Y2358063D01*
X2514104Y2356626D01*
X2522553Y2354946D01*
X2526011Y2355634D01*
X2530108Y2350778D01*
X2532535Y2346735D01*
X2531043Y2339231D01*
X2532723Y2330782D01*
X2537509Y2323619D01*
X2544671Y2318833D01*
X2553120Y2317153D01*
X2561569Y2318833D01*
X2568731Y2323619D01*
X2569775Y2325181D01*
X2622683D01*
X2623727Y2323619D01*
X2630889Y2318833D01*
X2639338Y2317153D01*
X2647787Y2318833D01*
X2654950Y2323619D01*
X2659735Y2330782D01*
X2661416Y2339231D01*
X2659735Y2347679D01*
X2661609Y2356626D01*
X2663863Y2358132D01*
X2668771Y2361412D01*
X2673557Y2368575D01*
X2675238Y2377023D01*
X2673557Y2385472D01*
X2668771Y2392635D01*
X2661609Y2397421D01*
X2653160Y2399101D01*
X2644711Y2397421D01*
X2637549Y2392635D01*
X2636505Y2391073D01*
X2539208D01*
X2538164Y2392635D01*
X2531002Y2397421D01*
X2522553Y2399101D01*
X2514104Y2397421D01*
X2511954Y2395984D01*
X2501954Y2401329D01*
Y2427406D01*
X2670705D01*
Y2412851D01*
X2671775Y2407474D01*
X2674820Y2402916D01*
X2705229Y2372508D01*
X2709787Y2369463D01*
X2715163Y2368393D01*
X2743067D01*
X2763835Y2347625D01*
Y2254603D01*
X2748475Y2239243D01*
X2732188D01*
Y2249642D01*
X2734314D01*
Y2271375D01*
X2676912D01*
Y2249642D01*
X2669753Y2242785D01*
X2641732D01*
Y2263780D01*
X2600551D01*
X2592520Y2263780D01*
X2582520Y2263780D01*
X2541339D01*
Y2242266D01*
X2508124D01*
Y2249745D01*
X2460880D01*
Y2198564D01*
X2508124D01*
Y2210153D01*
X2565470D01*
X2565471Y2210153D01*
X2567868Y2210630D01*
X2590551Y2210630D01*
X2600551Y2210630D01*
X2641732D01*
Y2210673D01*
X2679038D01*
Y2200587D01*
X2732188D01*
Y2211144D01*
X2754294D01*
X2759671Y2212213D01*
X2764229Y2215259D01*
X2787819Y2238849D01*
X2787964Y2239066D01*
X2797964Y2236032D01*
Y2005793D01*
X2760343Y1968172D01*
X2726479D01*
Y1978571D01*
X2728605D01*
Y2000303D01*
X2671203D01*
Y1978571D01*
X2662628Y1975131D01*
X2643313D01*
Y1990602D01*
X2602132D01*
X2594100Y1990602D01*
X2584100Y1990602D01*
X2542919D01*
Y1978359D01*
X2508124D01*
Y1986168D01*
X2460880D01*
Y1934987D01*
X2508124D01*
Y1946246D01*
X2542919D01*
Y1937453D01*
X2584100D01*
X2592132Y1937453D01*
X2602132Y1937453D01*
X2643313D01*
Y1943018D01*
X2673329D01*
Y1929516D01*
X2726479D01*
Y1940073D01*
X2766162D01*
X2771539Y1941142D01*
X2776097Y1944188D01*
X2813179Y1981270D01*
X2823179Y1977128D01*
Y1788100D01*
X2747966Y1712887D01*
X2722245D01*
Y1723286D01*
X2724371D01*
Y1745019D01*
X2666969D01*
Y1723286D01*
X2663088Y1714894D01*
X2643313D01*
Y1725412D01*
X2602132D01*
X2594100Y1725412D01*
X2584100Y1725412D01*
X2542919D01*
Y1712742D01*
X2508124D01*
Y1720123D01*
X2460880D01*
Y1668942D01*
X2508124D01*
Y1680629D01*
X2542919D01*
Y1672263D01*
X2584100D01*
X2592132Y1672263D01*
X2602132Y1672263D01*
X2643313D01*
Y1682781D01*
X2669095D01*
Y1674231D01*
X2722245D01*
Y1684788D01*
X2753785D01*
X2759162Y1685858D01*
X2763720Y1688903D01*
X2835815Y1760998D01*
X2845054Y1757171D01*
Y1512405D01*
X2758123Y1425475D01*
X2720226D01*
Y1435874D01*
X2722352D01*
Y1457606D01*
X2664950D01*
Y1435874D01*
X2657596Y1429487D01*
X2643313D01*
Y1442010D01*
X2602132D01*
X2594100Y1442010D01*
X2584100Y1442010D01*
X2542919D01*
Y1428257D01*
X2508124D01*
Y1434556D01*
X2460880D01*
Y1383375D01*
X2508124D01*
Y1396144D01*
X2542919D01*
Y1388861D01*
X2584100D01*
X2592132Y1388861D01*
X2602132Y1388861D01*
X2643313D01*
Y1397374D01*
X2667076D01*
Y1386819D01*
X2720226D01*
Y1397376D01*
X2763943D01*
X2769319Y1398445D01*
X2773877Y1401491D01*
X2869038Y1496651D01*
X2872083Y1501209D01*
X2873153Y1506585D01*
Y2540034D01*
X2872083Y2545410D01*
X2869038Y2549968D01*
X2848791Y2570214D01*
X2844233Y2573260D01*
X2838857Y2574329D01*
X2817629D01*
Y2625240D01*
Y2662485D01*
X2819755D01*
Y2673390D01*
X2783180D01*
X2746605D01*
Y2662485D01*
X2748731D01*
Y2644925D01*
Y2605555D01*
Y2566185D01*
Y2526815D01*
X2781823D01*
X2783180Y2526545D01*
X2815528D01*
X2823179Y2518895D01*
Y2404731D01*
X2813179Y2400589D01*
X2797484Y2416284D01*
X2792926Y2419329D01*
X2787549Y2420399D01*
X2724914D01*
X2718489Y2426824D01*
Y2461855D01*
X2718219Y2463212D01*
Y2496303D01*
X2395385D01*
Y2463212D01*
X2395115Y2461855D01*
Y2432111D01*
X2392910Y2429906D01*
X2330741D01*
X2325365Y2428836D01*
X2320807Y2425791D01*
X2263608Y2368592D01*
X2260562Y2364034D01*
X2259493Y2358657D01*
Y1851163D01*
X2236125Y1827795D01*
X2092253D01*
X2092158Y1827938D01*
X2085646Y1832288D01*
X2077966Y1833816D01*
Y1843675D01*
X2085646Y1845203D01*
X2092158Y1849553D01*
X2096508Y1856065D01*
X2096941Y1858241D01*
X2101075Y1862374D01*
X2104990Y1868235D01*
X2106365Y1875147D01*
Y1924535D01*
X2113892D01*
Y1930266D01*
X2133855D01*
X2139602Y1926426D01*
X2148051Y1924746D01*
X2156500Y1926426D01*
X2163662Y1931212D01*
X2168448Y1938375D01*
X2170129Y1946823D01*
X2168448Y1955272D01*
X2163662Y1962435D01*
X2156500Y1967221D01*
X2148051Y1968901D01*
X2139602Y1967221D01*
X2138365Y1966394D01*
X2113892D01*
Y1979653D01*
X2062869D01*
Y1981780D01*
X2040152D01*
Y1952095D01*
Y1922409D01*
X2062869D01*
X2070238Y1916059D01*
Y1883816D01*
X2044501D01*
X2036820Y1882288D01*
X2030309Y1877938D01*
X2025958Y1871426D01*
X2024430Y1863745D01*
X2025958Y1856065D01*
X2030309Y1849553D01*
X2036820Y1845203D01*
X2044501Y1843675D01*
Y1833816D01*
X2036820Y1832288D01*
X2030309Y1827938D01*
X2025958Y1821426D01*
X2024430Y1813745D01*
X2025958Y1806065D01*
X2030309Y1799553D01*
X2036820Y1795203D01*
X2044501Y1793675D01*
Y1783816D01*
X2036820Y1782288D01*
X2030309Y1777938D01*
X2030214Y1777795D01*
X1997718D01*
X1995424Y1777339D01*
X1987320Y1782100D01*
X1985424Y1784130D01*
Y2245377D01*
X2040980Y2300933D01*
X2066090D01*
X2071467Y2302003D01*
X2076025Y2305048D01*
X2297522Y2526545D01*
X2330424D01*
X2331782Y2526815D01*
X2364873D01*
Y2566185D01*
Y2605555D01*
Y2642800D01*
X2366999D01*
Y2653705D01*
X2330424D01*
X2293849D01*
Y2642800D01*
X2293849D01*
X2292437Y2633384D01*
X2255830D01*
X2243752Y2645462D01*
X2244119Y2647305D01*
X2242438Y2655753D01*
X2237653Y2662916D01*
X2230490Y2667702D01*
X2222041Y2669382D01*
X2213592Y2667702D01*
X2206430Y2662916D01*
X2201644Y2655753D01*
X2199963Y2647305D01*
X2201644Y2638856D01*
X2205476Y2633121D01*
X2205916Y2629550D01*
X2203945Y2621327D01*
X2199541Y2618384D01*
X2194755Y2611221D01*
X2193075Y2602773D01*
X2194755Y2594324D01*
X2199541Y2587161D01*
X2206703Y2582375D01*
X2215152Y2580695D01*
X2223601Y2582375D01*
X2228591Y2585710D01*
X2239200D01*
X2243477Y2579149D01*
X2244299Y2576666D01*
X2088867Y2421234D01*
X2025947D01*
X2020571Y2420164D01*
X2016013Y2417119D01*
X1920210Y2321316D01*
X1917164Y2316758D01*
X1916095Y2311381D01*
Y1856166D01*
X1887724Y1827795D01*
X1877686D01*
X1877591Y1827938D01*
X1871079Y1832288D01*
X1863399Y1833816D01*
Y1843675D01*
X1871079Y1845203D01*
X1877591Y1849553D01*
X1881941Y1856065D01*
X1883469Y1863745D01*
X1881941Y1871426D01*
X1877591Y1877938D01*
X1871079Y1882288D01*
X1863399Y1883816D01*
X1844120D01*
X1843262Y1888129D01*
X1839781Y1893338D01*
X1837048Y1896071D01*
Y1913976D01*
X1846425Y1915481D01*
Y1915482D01*
X1869141D01*
Y1945166D01*
Y1974851D01*
X1846425D01*
Y1974852D01*
X1837048Y1976357D01*
Y2190794D01*
X1840508Y2195973D01*
X1842189Y2204421D01*
X1840508Y2212870D01*
X1838175Y2216363D01*
Y2843075D01*
X1836800Y2849987D01*
X1832884Y2855847D01*
X1777638Y2911093D01*
X1771778Y2915009D01*
X1764865Y2916384D01*
X1604271D01*
X1563064Y2957592D01*
Y3004055D01*
X1582401D01*
Y3098543D01*
X1561056D01*
Y3119763D01*
X1559969Y3125229D01*
X1560772Y3129265D01*
X1559091Y3137713D01*
X1554305Y3144876D01*
X1547143Y3149662D01*
X1538694Y3151342D01*
D02*
G37*
G36*
X1765630Y3100669D02*
X1731102D01*
Y3056299D01*
X1765630D01*
Y3100669D01*
D02*
G37*
G36*
X1721102D02*
X1686575D01*
Y3056299D01*
X1721102D01*
Y3100669D01*
D02*
G37*
G36*
X2073537Y3165538D02*
X2020387D01*
Y3152105D01*
X2017734D01*
X2010821Y3150730D01*
X2004961Y3146815D01*
X1961470Y3103324D01*
X1957554Y3097464D01*
X1956179Y3090551D01*
Y3048619D01*
X1923057D01*
X1914229Y3051686D01*
D01*
X1904734Y3052904D01*
Y3075706D01*
X1903359Y3082618D01*
X1899443Y3088478D01*
X1841887Y3146034D01*
X1836027Y3149950D01*
X1829114Y3151325D01*
X1666754D01*
X1663262Y3153659D01*
X1654813Y3155339D01*
X1646364Y3153659D01*
X1639202Y3148873D01*
X1634416Y3141710D01*
X1633597Y3137591D01*
X1622778Y3126772D01*
X1618863Y3120912D01*
X1617488Y3113999D01*
Y3098543D01*
X1598150D01*
Y3004055D01*
X1617488D01*
Y2988967D01*
X1615417Y2985869D01*
X1614042Y2978956D01*
Y2971267D01*
X1610202Y2965519D01*
X1608522Y2957070D01*
X1610202Y2948622D01*
X1614988Y2941459D01*
X1622150Y2936673D01*
X1630599Y2934993D01*
X1639048Y2936673D01*
X1646210Y2941459D01*
X1650996Y2948622D01*
X1652677Y2957070D01*
X1650996Y2965519D01*
X1650169Y2966757D01*
Y2972390D01*
X1652240Y2975489D01*
X1653615Y2982402D01*
Y3004055D01*
X1672953D01*
Y3098543D01*
X1666220D01*
X1660617Y3108543D01*
X1663262Y3112865D01*
X1666754Y3115198D01*
X1821632D01*
X1868607Y3068223D01*
Y3051686D01*
X1859111D01*
Y3044159D01*
X1844467D01*
X1837554Y3042784D01*
X1831694Y3038868D01*
X1820163Y3027337D01*
X1816247Y3021477D01*
X1814872Y3014564D01*
Y2918215D01*
X1816247Y2911302D01*
X1820163Y2905442D01*
X1869083Y2856522D01*
Y2791655D01*
X1870458Y2784743D01*
X1874373Y2778883D01*
X1966512Y2686744D01*
X1972372Y2682828D01*
X1979285Y2681453D01*
X2234557D01*
X2238049Y2679119D01*
X2246498Y2677439D01*
X2254947Y2679119D01*
X2258439Y2681453D01*
X2260781D01*
X2273778Y2668456D01*
X2278336Y2665410D01*
X2283713Y2664340D01*
X2293849D01*
Y2663705D01*
X2330424D01*
X2366999D01*
Y2674610D01*
X2366999D01*
X2368411Y2684026D01*
X2746605D01*
Y2683390D01*
X2783180D01*
X2819755D01*
Y2684026D01*
X2887712D01*
X2888916Y2682223D01*
X2896079Y2677438D01*
X2904528Y2675757D01*
X2912977Y2677438D01*
X2920139Y2682223D01*
X2924925Y2689386D01*
X2926605Y2697835D01*
X2924925Y2706284D01*
X2920139Y2713446D01*
X2912977Y2718232D01*
X2904528Y2719912D01*
X2896079Y2718232D01*
X2888916Y2713446D01*
X2888033Y2712124D01*
X2817629D01*
Y2763036D01*
Y2802406D01*
Y2849650D01*
X2748731D01*
Y2802406D01*
Y2763036D01*
Y2712125D01*
X2364873D01*
Y2723396D01*
X2466206D01*
X2471582Y2724465D01*
X2476140Y2727511D01*
X2500726Y2752096D01*
X2502405Y2750973D01*
X2510854Y2749293D01*
X2519303Y2750973D01*
X2526465Y2755759D01*
X2531251Y2762922D01*
X2532932Y2771370D01*
X2531251Y2779819D01*
X2528517Y2783912D01*
X2534089Y2792999D01*
X2536143Y2792591D01*
X2544592Y2794271D01*
X2551755Y2799057D01*
X2556540Y2806220D01*
X2558221Y2814669D01*
X2556540Y2823117D01*
X2551755Y2830280D01*
X2544592Y2835066D01*
X2536143Y2836746D01*
X2527694Y2835066D01*
X2520532Y2830280D01*
X2519488Y2828718D01*
X2489780D01*
X2484404Y2827648D01*
X2479846Y2824603D01*
X2426422Y2771180D01*
X2364873D01*
Y2802406D01*
Y2849650D01*
X2295975D01*
Y2810550D01*
X2243597D01*
X2239454Y2820550D01*
X2287014Y2868109D01*
X2287827Y2868029D01*
X2294989Y2863243D01*
X2303438Y2861563D01*
X2311887Y2863243D01*
X2319050Y2868029D01*
X2323835Y2875192D01*
X2325516Y2883640D01*
X2323835Y2892089D01*
X2319050Y2899252D01*
X2311887Y2904038D01*
X2303438Y2905718D01*
X2294989Y2904038D01*
X2287827Y2899252D01*
X2286783Y2897690D01*
X2282676D01*
X2277300Y2896620D01*
X2272742Y2893575D01*
X2267647Y2888480D01*
X2260954Y2891179D01*
X2258059Y2893035D01*
X2256527Y2900736D01*
X2251742Y2907898D01*
X2247311Y2910859D01*
X2246839Y2915870D01*
X2247299Y2920661D01*
X2247665Y2921733D01*
X2253532Y2925653D01*
X2258317Y2932816D01*
X2259998Y2941265D01*
X2258317Y2949713D01*
X2253532Y2956876D01*
X2246369Y2961662D01*
X2240390Y2962851D01*
X2238292Y2972836D01*
X2239567Y2973847D01*
X2240620Y2974551D01*
X2246729Y2978633D01*
X2250893Y2984864D01*
X2252803Y2986038D01*
X2262108Y2987791D01*
X2345224Y2904676D01*
X2349782Y2901631D01*
X2355158Y2900561D01*
X2395385D01*
Y2880162D01*
X2718219D01*
Y2949059D01*
X2600379D01*
Y2970798D01*
X2599310Y2976174D01*
X2597430Y2978987D01*
X2598600Y2984867D01*
X2596919Y2993315D01*
X2592133Y3000478D01*
X2584971Y3005264D01*
X2576522Y3006944D01*
X2568073Y3005264D01*
X2560911Y3000478D01*
X2558894Y2997459D01*
X2549474Y3001361D01*
X2550117Y3004593D01*
X2548436Y3013041D01*
X2543651Y3020204D01*
X2536488Y3024990D01*
X2528039Y3026670D01*
X2519590Y3024990D01*
X2512428Y3020204D01*
X2507642Y3013041D01*
X2505961Y3004593D01*
X2506333Y3002726D01*
X2497117Y2997800D01*
X2420608Y3074308D01*
X2416050Y3077354D01*
X2410674Y3078423D01*
X2388389D01*
X2387345Y3079985D01*
X2380183Y3084771D01*
X2371734Y3086451D01*
X2363285Y3084771D01*
X2356123Y3079985D01*
X2351337Y3072822D01*
X2350235Y3067281D01*
X2343877Y3063749D01*
X2340030Y3063334D01*
X2339119Y3064558D01*
X2340654Y3072273D01*
X2338973Y3080721D01*
X2334188Y3087884D01*
X2327025Y3092670D01*
X2318576Y3094350D01*
X2310127Y3092670D01*
X2302965Y3087884D01*
X2298179Y3080721D01*
X2296499Y3072273D01*
X2298179Y3063824D01*
X2302965Y3056661D01*
X2307729Y3053478D01*
X2308609Y3049054D01*
X2311655Y3044496D01*
X2356276Y2999876D01*
X2351350Y2990659D01*
X2349978Y2990932D01*
X2341529Y2989252D01*
X2334367Y2984466D01*
X2329581Y2977303D01*
X2329066Y2974714D01*
X2318215Y2971422D01*
X2253919Y3035719D01*
X2249361Y3038765D01*
X2243984Y3039834D01*
X2182904D01*
Y3048619D01*
X2124724D01*
Y3064286D01*
X2136823D01*
Y3105467D01*
X2136823Y3113498D01*
X2136823Y3123498D01*
Y3164679D01*
X2083673D01*
Y3158566D01*
X2073537D01*
Y3165538D01*
D02*
G37*
G36*
X2946557Y3095000D02*
X2855000D01*
Y3003443D01*
X2868934Y3004815D01*
X2887139Y3010338D01*
X2903918Y3019306D01*
X2918625Y3031375D01*
X2930694Y3046082D01*
X2939662Y3062861D01*
X2945185Y3081066D01*
X2946557Y3095000D01*
D02*
G37*
G36*
X2845000D02*
X2753443D01*
X2754815Y3081066D01*
X2760338Y3062861D01*
X2769306Y3046082D01*
X2781375Y3031375D01*
X2796082Y3019306D01*
X2812861Y3010338D01*
X2831066Y3004815D01*
X2845000Y3003443D01*
Y3095000D01*
D02*
G37*
G36*
X1765630Y3046299D02*
X1731102D01*
Y3001929D01*
X1765630D01*
Y3046299D01*
D02*
G37*
G36*
X1721102D02*
X1686575D01*
Y3001929D01*
X1721102D01*
Y3046299D01*
D02*
G37*
G36*
X139646Y3126257D02*
X123824Y3124698D01*
X108610Y3120083D01*
X94590Y3112589D01*
X82300Y3102503D01*
X72214Y3090214D01*
X64720Y3076193D01*
X60105Y3060979D01*
X58547Y3045157D01*
X60105Y3029336D01*
X64720Y3014122D01*
X72214Y3000101D01*
X82300Y2987812D01*
X94590Y2977726D01*
X108610Y2970232D01*
X123824Y2965617D01*
X139646Y2964058D01*
X155467Y2965617D01*
X170681Y2970232D01*
X184702Y2977726D01*
X196991Y2987812D01*
X207077Y3000101D01*
X214571Y3014122D01*
X219186Y3029336D01*
X220745Y3045157D01*
X219186Y3060979D01*
X214571Y3076193D01*
X207077Y3090214D01*
X196991Y3102503D01*
X184702Y3112589D01*
X170681Y3120083D01*
X155467Y3124698D01*
X139646Y3126257D01*
D02*
G37*
G36*
X1167912Y2852879D02*
X1146179D01*
Y2829179D01*
X1167912D01*
Y2852879D01*
D02*
G37*
G36*
X1313898Y2944685D02*
X1180039D01*
Y2889567D01*
X1208036D01*
Y2856761D01*
X1199644Y2852879D01*
X1177912D01*
Y2824179D01*
Y2795478D01*
X1199644D01*
Y2797604D01*
X1248699D01*
Y2850753D01*
X1240149D01*
Y2889567D01*
X1313898D01*
Y2944685D01*
D02*
G37*
G36*
X1167912Y2819179D02*
X1146179D01*
Y2795478D01*
X1167912D01*
Y2819179D01*
D02*
G37*
G36*
X1718228Y2850512D02*
X1552874D01*
Y2756024D01*
X1718228D01*
Y2850512D01*
D02*
G37*
G36*
X390551Y2636614D02*
X344460D01*
X345565Y2628220D01*
X350735Y2615739D01*
X358959Y2605022D01*
X369676Y2596798D01*
X382157Y2591628D01*
X390551Y2590523D01*
Y2636614D01*
D02*
G37*
G36*
X446643D02*
X400551D01*
Y2590523D01*
X408945Y2591628D01*
X421426Y2596798D01*
X432144Y2605022D01*
X440368Y2615739D01*
X445538Y2628220D01*
X446643Y2636614D01*
D02*
G37*
G36*
X931847Y2578130D02*
X908146D01*
Y2556398D01*
X931847D01*
Y2578130D01*
D02*
G37*
G36*
X898146D02*
X874445D01*
Y2556398D01*
X898146D01*
Y2578130D01*
D02*
G37*
G36*
X545068Y2577559D02*
X498976D01*
Y2531468D01*
X507370Y2532573D01*
X519851Y2537742D01*
X530569Y2545966D01*
X538793Y2556684D01*
X543963Y2569165D01*
X545068Y2577559D01*
D02*
G37*
G36*
X607087D02*
X560995D01*
X562100Y2569165D01*
X567270Y2556684D01*
X575494Y2545966D01*
X586212Y2537742D01*
X598693Y2532573D01*
X607087Y2531468D01*
Y2577559D01*
D02*
G37*
G36*
X488976D02*
X442885D01*
X443990Y2569165D01*
X449160Y2556684D01*
X457384Y2545966D01*
X468101Y2537742D01*
X480583Y2532573D01*
X488976Y2531468D01*
Y2577559D01*
D02*
G37*
G36*
X400551Y2574595D02*
Y2528504D01*
X446643D01*
X445538Y2536898D01*
X440368Y2549379D01*
X432144Y2560097D01*
X421426Y2568321D01*
X408945Y2573490D01*
X400551Y2574595D01*
D02*
G37*
G36*
X390551Y2574596D02*
X382157Y2573490D01*
X369676Y2568321D01*
X358959Y2560097D01*
X350735Y2549379D01*
X345565Y2536898D01*
X344460Y2528504D01*
X390551D01*
Y2574596D01*
D02*
G37*
G36*
X498976Y2515540D02*
Y2469449D01*
X545068D01*
X543963Y2477843D01*
X538793Y2490324D01*
X530569Y2501041D01*
X519851Y2509265D01*
X507370Y2514435D01*
X498976Y2515540D01*
D02*
G37*
G36*
X607087Y2515540D02*
X598693Y2514435D01*
X586212Y2509265D01*
X575494Y2501041D01*
X567270Y2490324D01*
X562100Y2477843D01*
X560995Y2469449D01*
X607087D01*
Y2515540D01*
D02*
G37*
G36*
X488976D02*
X480583Y2514435D01*
X468101Y2509265D01*
X457384Y2501041D01*
X449160Y2490324D01*
X443990Y2477843D01*
X442885Y2469449D01*
X488976D01*
Y2515540D01*
D02*
G37*
G36*
X607087Y2459449D02*
X560995D01*
X562100Y2451055D01*
X567270Y2438574D01*
X575494Y2427856D01*
X586212Y2419632D01*
X598693Y2414462D01*
X607087Y2413357D01*
Y2459449D01*
D02*
G37*
G36*
X2734314Y2303107D02*
X2710613D01*
Y2281375D01*
X2734314D01*
Y2303107D01*
D02*
G37*
G36*
X2700613D02*
X2676912D01*
Y2281375D01*
X2700613D01*
Y2303107D01*
D02*
G37*
G36*
X607087Y2279320D02*
X598693Y2278215D01*
X586212Y2273045D01*
X575494Y2264821D01*
X567270Y2254103D01*
X562100Y2241622D01*
X560995Y2233228D01*
X607087D01*
Y2279320D01*
D02*
G37*
G36*
X2435447Y2251871D02*
X2414699D01*
Y2229155D01*
X2435447D01*
Y2251871D01*
D02*
G37*
G36*
X2404699D02*
X2383951D01*
Y2229155D01*
X2404699D01*
Y2251871D01*
D02*
G37*
G36*
X2435447Y2219155D02*
X2414699D01*
Y2196438D01*
X2435447D01*
Y2219155D01*
D02*
G37*
G36*
X2404699D02*
X2383951D01*
Y2196438D01*
X2404699D01*
Y2219155D01*
D02*
G37*
G36*
X545068Y2223228D02*
X498976D01*
Y2177137D01*
X507370Y2178242D01*
X519851Y2183412D01*
X530569Y2191636D01*
X538793Y2202354D01*
X543963Y2214835D01*
X545068Y2223228D01*
D02*
G37*
G36*
X2470722Y2171005D02*
X2423478D01*
Y2119824D01*
X2470722D01*
Y2129358D01*
X2555838D01*
Y2100970D01*
X2614893D01*
Y2167899D01*
X2555838D01*
Y2161471D01*
X2470722D01*
Y2171005D01*
D02*
G37*
G36*
X2705444Y2167899D02*
X2646389D01*
Y2100970D01*
X2672929D01*
X2675962Y2090970D01*
X2675953Y2090964D01*
X2671167Y2083801D01*
X2669486Y2075352D01*
X2671167Y2066904D01*
X2675953Y2059741D01*
X2683115Y2054955D01*
X2691564Y2053275D01*
X2700013Y2054955D01*
X2707175Y2059741D01*
X2708126Y2061163D01*
X2733341D01*
Y2054621D01*
X2786491D01*
Y2095802D01*
X2786491Y2103833D01*
X2786491Y2113833D01*
Y2155014D01*
X2733341D01*
Y2146465D01*
X2705444D01*
Y2167899D01*
D02*
G37*
G36*
X2728605Y2032036D02*
X2704904D01*
Y2010303D01*
X2728605D01*
Y2032036D01*
D02*
G37*
G36*
X2694904D02*
X2671203D01*
Y2010303D01*
X2694904D01*
Y2032036D01*
D02*
G37*
G36*
X2435447Y1988294D02*
X2414699D01*
Y1965578D01*
X2435447D01*
Y1988294D01*
D02*
G37*
G36*
X2404699D02*
X2383951D01*
Y1965578D01*
X2404699D01*
Y1988294D01*
D02*
G37*
G36*
X2030152Y1981780D02*
X2007436D01*
Y1957095D01*
X2030152D01*
Y1981780D01*
D02*
G37*
G36*
X1901858Y1974851D02*
X1879141D01*
Y1950166D01*
X1901858D01*
Y1974851D01*
D02*
G37*
G36*
X2435447Y1955578D02*
X2414699D01*
Y1932861D01*
X2435447D01*
Y1955578D01*
D02*
G37*
G36*
X2404699D02*
X2383951D01*
Y1932861D01*
X2404699D01*
Y1955578D01*
D02*
G37*
G36*
X2030152Y1947095D02*
X2007436D01*
Y1922409D01*
X2030152D01*
Y1947095D01*
D02*
G37*
G36*
X1901858Y1940166D02*
X1879141D01*
Y1915482D01*
X1901858D01*
Y1940166D01*
D02*
G37*
G36*
X2614893Y1916124D02*
X2555838D01*
Y1897894D01*
X2470722D01*
Y1907428D01*
X2423478D01*
Y1856247D01*
X2470722D01*
Y1865781D01*
X2555838D01*
Y1849195D01*
X2614893D01*
Y1916124D01*
D02*
G37*
G36*
X2705444D02*
X2646389D01*
Y1849195D01*
X2669133D01*
X2671974Y1842320D01*
X2672643Y1839195D01*
X2668242Y1832608D01*
X2666561Y1824159D01*
X2668242Y1815711D01*
X2673028Y1808548D01*
X2680190Y1803762D01*
X2688639Y1802082D01*
X2697088Y1803762D01*
X2702835Y1807602D01*
X2703928D01*
X2710840Y1808977D01*
X2716701Y1812893D01*
X2718452Y1814645D01*
X2733341D01*
Y1808102D01*
X2786491D01*
Y1857314D01*
X2786491D01*
Y1859283D01*
X2786491D01*
Y1908496D01*
X2733341D01*
Y1899946D01*
X2705444D01*
Y1916124D01*
D02*
G37*
G36*
X2724371Y1776751D02*
X2700670D01*
Y1755019D01*
X2724371D01*
Y1776751D01*
D02*
G37*
G36*
X2690670D02*
X2666969D01*
Y1755019D01*
X2690670D01*
Y1776751D01*
D02*
G37*
G36*
X2252193Y1758745D02*
X2230461D01*
Y1735045D01*
X2252193D01*
Y1758745D01*
D02*
G37*
G36*
X2435447Y1722249D02*
X2414699D01*
Y1699533D01*
X2435447D01*
Y1722249D01*
D02*
G37*
G36*
X2404699D02*
X2383951D01*
Y1699533D01*
X2404699D01*
Y1722249D01*
D02*
G37*
G36*
X2435447Y1689533D02*
X2414699D01*
Y1666816D01*
X2435447D01*
Y1689533D01*
D02*
G37*
G36*
X2404699D02*
X2383951D01*
Y1666816D01*
X2404699D01*
Y1689533D01*
D02*
G37*
G36*
X2470722Y1641383D02*
X2423478D01*
Y1590202D01*
X2470722D01*
Y1599736D01*
X2555838D01*
Y1571623D01*
X2614893D01*
Y1638552D01*
X2555838D01*
Y1631849D01*
X2470722D01*
Y1641383D01*
D02*
G37*
G36*
X2705444Y1638552D02*
X2646389D01*
Y1571623D01*
X2678791D01*
X2681825Y1561623D01*
X2678704Y1559538D01*
X2673918Y1552375D01*
X2672238Y1543927D01*
X2673918Y1535478D01*
X2678704Y1528315D01*
X2685866Y1523529D01*
X2694315Y1521849D01*
X2702764Y1523529D01*
X2709927Y1528315D01*
X2714712Y1535478D01*
X2715532Y1539597D01*
X2719170Y1543236D01*
X2733341D01*
Y1536975D01*
X2786491D01*
Y1586187D01*
X2786491D01*
Y1588156D01*
X2786491D01*
Y1637368D01*
X2733341D01*
Y1628819D01*
X2705444D01*
Y1638552D01*
D02*
G37*
G36*
X1208386Y1594685D02*
X1062717D01*
Y1519882D01*
X1208386D01*
Y1594685D01*
D02*
G37*
G36*
X1884642Y1508745D02*
X1851666D01*
Y1491507D01*
X1863399D01*
X1871909Y1493200D01*
X1879123Y1498021D01*
X1883944Y1505235D01*
X1884642Y1508745D01*
D02*
G37*
G36*
X1841666D02*
X1808690D01*
X1809389Y1505235D01*
X1814209Y1498021D01*
X1821424Y1493200D01*
X1829934Y1491507D01*
X1841666D01*
Y1508745D01*
D02*
G37*
G36*
X2252193Y1509466D02*
X2230461D01*
Y1485766D01*
X2252193D01*
Y1509466D01*
D02*
G37*
G36*
X2722352Y1489338D02*
X2698651D01*
Y1467606D01*
X2722352D01*
Y1489338D01*
D02*
G37*
G36*
X2688651D02*
X2664950D01*
Y1467606D01*
X2688651D01*
Y1489338D01*
D02*
G37*
G36*
X139646Y1610509D02*
X123824Y1608950D01*
X108610Y1604335D01*
X94590Y1596841D01*
X82300Y1586755D01*
X72214Y1574466D01*
X64720Y1560445D01*
X60105Y1545231D01*
X58547Y1529409D01*
X60105Y1513588D01*
X64720Y1498374D01*
X72214Y1484353D01*
X82300Y1472064D01*
X94590Y1461978D01*
X108610Y1454484D01*
X123824Y1449869D01*
X139646Y1448310D01*
X155467Y1449869D01*
X170681Y1454484D01*
X184702Y1461978D01*
X196991Y1472064D01*
X207077Y1484353D01*
X214571Y1498374D01*
X219186Y1513588D01*
X220745Y1529409D01*
X219186Y1545231D01*
X214571Y1560445D01*
X207077Y1574466D01*
X196991Y1586755D01*
X184702Y1596841D01*
X170681Y1604335D01*
X155467Y1608950D01*
X139646Y1610509D01*
D02*
G37*
G36*
X2435447Y1436682D02*
X2414699D01*
Y1413966D01*
X2435447D01*
Y1436682D01*
D02*
G37*
G36*
X2404699D02*
X2383951D01*
Y1413966D01*
X2404699D01*
Y1436682D01*
D02*
G37*
G36*
X2435447Y1403966D02*
X2414699D01*
Y1381249D01*
X2435447D01*
Y1403966D01*
D02*
G37*
G36*
X2404699D02*
X2383951D01*
Y1381249D01*
X2404699D01*
Y1403966D01*
D02*
G37*
G36*
X1259724Y1344842D02*
X1231102D01*
Y1310315D01*
X1259724D01*
Y1344842D01*
D02*
G37*
G36*
X1221102D02*
X1192480D01*
Y1310315D01*
X1221102D01*
Y1344842D01*
D02*
G37*
G36*
X2470722Y1355816D02*
X2423478D01*
Y1304635D01*
X2470722D01*
Y1314169D01*
X2482910D01*
X2502177Y1294902D01*
X2502177Y1294902D01*
X2507387Y1291421D01*
X2513531Y1290199D01*
X2513532Y1290199D01*
X2555838D01*
Y1272791D01*
X2614893D01*
Y1339720D01*
X2555838D01*
Y1322312D01*
X2520182D01*
X2500915Y1341579D01*
X2495706Y1345060D01*
X2489561Y1346282D01*
X2489561Y1346282D01*
X2470722D01*
Y1355816D01*
D02*
G37*
G36*
X1259724Y1300315D02*
X1231102D01*
Y1265787D01*
X1259724D01*
Y1300315D01*
D02*
G37*
G36*
X1221102D02*
X1192480D01*
Y1265787D01*
X1221102D01*
Y1300315D01*
D02*
G37*
G36*
X2705444Y1339720D02*
X2646389D01*
Y1272791D01*
X2675782D01*
X2676767Y1262791D01*
X2676413Y1262720D01*
X2669250Y1257935D01*
X2664464Y1250772D01*
X2662784Y1242323D01*
X2664464Y1233874D01*
X2669250Y1226712D01*
X2676413Y1221926D01*
X2684861Y1220246D01*
X2693310Y1221926D01*
X2699057Y1225766D01*
X2733341D01*
Y1223065D01*
X2786491D01*
Y1264246D01*
X2786491Y1272278D01*
X2786491Y1282278D01*
Y1323459D01*
X2733341D01*
Y1314909D01*
X2705444D01*
Y1339720D01*
D02*
G37*
G36*
X1234694Y1231013D02*
X1212961D01*
Y1207312D01*
X1234694D01*
Y1231013D01*
D02*
G37*
G36*
Y1197312D02*
X1212961D01*
Y1173612D01*
X1234694D01*
Y1197312D01*
D02*
G37*
G36*
X655827Y1180912D02*
Y1132835D01*
X703904D01*
X702731Y1141742D01*
X697363Y1154702D01*
X688823Y1165831D01*
X677694Y1174371D01*
X664735Y1179739D01*
X655827Y1180912D01*
D02*
G37*
G36*
X645827D02*
X636919Y1179739D01*
X623959Y1174371D01*
X612830Y1165831D01*
X604291Y1154702D01*
X598923Y1141742D01*
X597750Y1132835D01*
X645827D01*
Y1180912D01*
D02*
G37*
G36*
X2365145Y1138177D02*
X2338492D01*
Y1107586D01*
X2365145D01*
Y1138177D01*
D02*
G37*
G36*
X2328492D02*
X2301838D01*
Y1107586D01*
X2328492D01*
Y1138177D01*
D02*
G37*
G36*
X1908637Y1135147D02*
X1881984D01*
Y1104556D01*
X1908637D01*
Y1135147D01*
D02*
G37*
G36*
X1871984D02*
X1845330D01*
Y1104556D01*
X1871984D01*
Y1135147D01*
D02*
G37*
G36*
X1506512Y1125421D02*
X1479858D01*
Y1094831D01*
X1506512D01*
Y1125421D01*
D02*
G37*
G36*
X1469858D02*
X1443205D01*
Y1094831D01*
X1469858D01*
Y1125421D01*
D02*
G37*
G36*
X703904Y1122835D02*
X655827D01*
Y1074758D01*
X664735Y1075930D01*
X677694Y1081299D01*
X688823Y1089838D01*
X697363Y1100967D01*
X702731Y1113927D01*
X703904Y1122835D01*
D02*
G37*
G36*
X645827D02*
X597750D01*
X598923Y1113927D01*
X604291Y1100967D01*
X612830Y1089838D01*
X623959Y1081299D01*
X636919Y1075930D01*
X645827Y1074758D01*
Y1122835D01*
D02*
G37*
G36*
X2365145Y1097586D02*
X2338492D01*
Y1066996D01*
X2365145D01*
Y1097586D01*
D02*
G37*
G36*
X2328492D02*
X2301838D01*
Y1066996D01*
X2328492D01*
Y1097586D01*
D02*
G37*
G36*
X1908637Y1094556D02*
X1881984D01*
Y1063966D01*
X1908637D01*
Y1094556D01*
D02*
G37*
G36*
X1871984D02*
X1845330D01*
Y1063966D01*
X1871984D01*
Y1094556D01*
D02*
G37*
G36*
X2585551Y960964D02*
X2574246Y959476D01*
X2563711Y955112D01*
X2554664Y948170D01*
X2547722Y939124D01*
X2543359Y928589D01*
X2541870Y917284D01*
X2543359Y905978D01*
X2547722Y895443D01*
X2554664Y886397D01*
X2563711Y879455D01*
X2574246Y875091D01*
X2585551Y873603D01*
X2596856Y875091D01*
X2607391Y879455D01*
X2616438Y886397D01*
X2623380Y895443D01*
X2627743Y905978D01*
X2629232Y917284D01*
X2627743Y928589D01*
X2623380Y939124D01*
X2616438Y948170D01*
X2607391Y955112D01*
X2596856Y959476D01*
X2585551Y960964D01*
D02*
G37*
G36*
X2595433Y808735D02*
Y766614D01*
X2637554D01*
X2636584Y773980D01*
X2631811Y785504D01*
X2624218Y795399D01*
X2614323Y802992D01*
X2602799Y807765D01*
X2595433Y808735D01*
D02*
G37*
G36*
X2585433Y808735D02*
X2578067Y807765D01*
X2566544Y802992D01*
X2556648Y795399D01*
X2549055Y785504D01*
X2544282Y773980D01*
X2543312Y766614D01*
X2585433D01*
Y808735D01*
D02*
G37*
G36*
X2174352Y756614D02*
X2132231D01*
Y714494D01*
X2139597Y715463D01*
X2151120Y720236D01*
X2161016Y727829D01*
X2168609Y737725D01*
X2173382Y749248D01*
X2174352Y756614D01*
D02*
G37*
G36*
X2637554Y756614D02*
X2595433D01*
Y714494D01*
X2602799Y715463D01*
X2614323Y720236D01*
X2624218Y727829D01*
X2631811Y737725D01*
X2636584Y749248D01*
X2637554Y756614D01*
D02*
G37*
G36*
X1711150Y756614D02*
X1669029D01*
Y714494D01*
X1676395Y715463D01*
X1687918Y720236D01*
X1697814Y727829D01*
X1705407Y737725D01*
X1710180Y749248D01*
X1711150Y756614D01*
D02*
G37*
G36*
X1659029D02*
X1616908D01*
X1617878Y749248D01*
X1622651Y737725D01*
X1630244Y727829D01*
X1640139Y720236D01*
X1651663Y715463D01*
X1659029Y714494D01*
Y756614D01*
D02*
G37*
G36*
X2585433Y756614D02*
X2543312D01*
X2544282Y749248D01*
X2549055Y737725D01*
X2556648Y727829D01*
X2566544Y720236D01*
X2578067Y715463D01*
X2585433Y714494D01*
Y756614D01*
D02*
G37*
G36*
X2122231Y756614D02*
X2080110D01*
X2081080Y749248D01*
X2085853Y737725D01*
X2093446Y727829D01*
X2103341Y720236D01*
X2114865Y715463D01*
X2122231Y714494D01*
Y756614D01*
D02*
G37*
G36*
X2421142Y817208D02*
X2406753Y815314D01*
X2393345Y809760D01*
X2381831Y800925D01*
X2372996Y789411D01*
X2367442Y776003D01*
X2365548Y761614D01*
X2367442Y747226D01*
X2372996Y733817D01*
X2381831Y722303D01*
X2393345Y713469D01*
X2406753Y707915D01*
X2421142Y706020D01*
X2435530Y707915D01*
X2448939Y713469D01*
X2460452Y722303D01*
X2469287Y733817D01*
X2474841Y747226D01*
X2476735Y761614D01*
X2474841Y776003D01*
X2469287Y789411D01*
X2460452Y800925D01*
X2448939Y809760D01*
X2435530Y815314D01*
X2421142Y817208D01*
D02*
G37*
G36*
X2395551Y610354D02*
X2382817Y609099D01*
X2370572Y605385D01*
X2359286Y599353D01*
X2349395Y591235D01*
X2341277Y581343D01*
X2335245Y570058D01*
X2331530Y557813D01*
X2330276Y545079D01*
X2331530Y532344D01*
X2335245Y520099D01*
X2341277Y508814D01*
X2349395Y498922D01*
X2359286Y490805D01*
X2370572Y484773D01*
X2382817Y481058D01*
X2395551Y479804D01*
X2408286Y481058D01*
X2420531Y484773D01*
X2431816Y490805D01*
X2441707Y498922D01*
X2449825Y508814D01*
X2455857Y520099D01*
X2459572Y532344D01*
X2460826Y545079D01*
X2459572Y557813D01*
X2455857Y570058D01*
X2449825Y581343D01*
X2441707Y591235D01*
X2431816Y599353D01*
X2420531Y605385D01*
X2408286Y609099D01*
X2395551Y610354D01*
D02*
G37*
G36*
X1932349D02*
X1919615Y609099D01*
X1907370Y605385D01*
X1896084Y599353D01*
X1886193Y591235D01*
X1878075Y581343D01*
X1872043Y570058D01*
X1868328Y557813D01*
X1867074Y545079D01*
X1868328Y532344D01*
X1872043Y520099D01*
X1878075Y508814D01*
X1886193Y498922D01*
X1896084Y490805D01*
X1907370Y484773D01*
X1919615Y481058D01*
X1932349Y479804D01*
X1945084Y481058D01*
X1957329Y484773D01*
X1968614Y490805D01*
X1978505Y498922D01*
X1986623Y508814D01*
X1992655Y520099D01*
X1996370Y532344D01*
X1997624Y545079D01*
X1996370Y557813D01*
X1992655Y570058D01*
X1986623Y581343D01*
X1978505Y591235D01*
X1968614Y599353D01*
X1957329Y605385D01*
X1945084Y609099D01*
X1932349Y610354D01*
D02*
G37*
G36*
X1469147D02*
X1456412Y609099D01*
X1444167Y605385D01*
X1432882Y599353D01*
X1422991Y591235D01*
X1414873Y581343D01*
X1408841Y570058D01*
X1405126Y557813D01*
X1403872Y545079D01*
X1405126Y532344D01*
X1408841Y520099D01*
X1414873Y508814D01*
X1422991Y498922D01*
X1432882Y490805D01*
X1444167Y484773D01*
X1456412Y481058D01*
X1469147Y479804D01*
X1481881Y481058D01*
X1494127Y484773D01*
X1505412Y490805D01*
X1515303Y498922D01*
X1523421Y508814D01*
X1529453Y520099D01*
X1533168Y532344D01*
X1534422Y545079D01*
X1533168Y557813D01*
X1529453Y570058D01*
X1523421Y581343D01*
X1515303Y591235D01*
X1505412Y599353D01*
X1494127Y605385D01*
X1481881Y609099D01*
X1469147Y610354D01*
D02*
G37*
G36*
X1005945D02*
X993210Y609099D01*
X980965Y605385D01*
X969680Y599353D01*
X959789Y591235D01*
X951671Y581343D01*
X945639Y570058D01*
X941924Y557813D01*
X940670Y545079D01*
X941924Y532344D01*
X945639Y520099D01*
X951671Y508814D01*
X959789Y498922D01*
X969680Y490805D01*
X980965Y484773D01*
X993210Y481058D01*
X1005945Y479804D01*
X1018679Y481058D01*
X1030925Y484773D01*
X1042210Y490805D01*
X1052101Y498922D01*
X1060219Y508814D01*
X1066251Y520099D01*
X1069966Y532344D01*
X1071220Y545079D01*
X1069966Y557813D01*
X1066251Y570058D01*
X1060219Y581343D01*
X1052101Y591235D01*
X1042210Y599353D01*
X1030925Y605385D01*
X1018679Y609099D01*
X1005945Y610354D01*
D02*
G37*
G36*
X650827Y598602D02*
X638864Y597424D01*
X627361Y593935D01*
X616760Y588268D01*
X607468Y580643D01*
X599842Y571351D01*
X594176Y560749D01*
X590686Y549246D01*
X589508Y537284D01*
X590686Y525321D01*
X594176Y513818D01*
X599842Y503216D01*
X607468Y493925D01*
X616760Y486299D01*
X627361Y480632D01*
X638864Y477143D01*
X650827Y475965D01*
X662789Y477143D01*
X674293Y480632D01*
X684894Y486299D01*
X694186Y493925D01*
X701812Y503216D01*
X707478Y513818D01*
X710967Y525321D01*
X712146Y537284D01*
X710967Y549246D01*
X707478Y560749D01*
X701812Y571351D01*
X694186Y580643D01*
X684894Y588268D01*
X674293Y593935D01*
X662789Y597424D01*
X650827Y598602D01*
D02*
G37*
G36*
X355551D02*
X343589Y597424D01*
X332086Y593935D01*
X321484Y588268D01*
X312192Y580643D01*
X304566Y571351D01*
X298900Y560749D01*
X295411Y549246D01*
X294232Y537284D01*
X295411Y525321D01*
X298900Y513818D01*
X304566Y503216D01*
X312192Y493925D01*
X321484Y486299D01*
X332086Y480632D01*
X343589Y477143D01*
X355551Y475965D01*
X367514Y477143D01*
X379017Y480632D01*
X389618Y486299D01*
X398910Y493925D01*
X406536Y503216D01*
X412202Y513818D01*
X415692Y525321D01*
X416870Y537284D01*
X415692Y549246D01*
X412202Y560749D01*
X406536Y571351D01*
X398910Y580643D01*
X389618Y588268D01*
X379017Y593935D01*
X367514Y597424D01*
X355551Y598602D01*
D02*
G37*
G36*
X2545157Y472558D02*
X2532423Y471304D01*
X2520178Y467590D01*
X2508893Y461558D01*
X2499001Y453440D01*
X2490883Y443548D01*
X2484851Y432263D01*
X2481137Y420018D01*
X2479883Y407284D01*
X2481137Y394549D01*
X2484851Y382304D01*
X2490883Y371019D01*
X2499001Y361127D01*
X2508893Y353009D01*
X2520178Y346977D01*
X2532423Y343263D01*
X2545157Y342009D01*
X2557892Y343263D01*
X2570137Y346977D01*
X2581422Y353009D01*
X2591314Y361127D01*
X2599432Y371019D01*
X2605464Y382304D01*
X2609178Y394549D01*
X2610432Y407284D01*
X2609178Y420018D01*
X2605464Y432263D01*
X2599432Y443548D01*
X2591314Y453440D01*
X2581422Y461558D01*
X2570137Y467590D01*
X2557892Y471304D01*
X2545157Y472558D01*
D02*
G37*
G36*
X2081955D02*
X2069221Y471304D01*
X2056976Y467590D01*
X2045691Y461558D01*
X2035799Y453440D01*
X2027681Y443548D01*
X2021649Y432263D01*
X2017935Y420018D01*
X2016680Y407284D01*
X2017935Y394549D01*
X2021649Y382304D01*
X2027681Y371019D01*
X2035799Y361127D01*
X2045691Y353009D01*
X2056976Y346977D01*
X2069221Y343263D01*
X2081955Y342009D01*
X2094690Y343263D01*
X2106935Y346977D01*
X2118220Y353009D01*
X2128112Y361127D01*
X2136229Y371019D01*
X2142262Y382304D01*
X2145976Y394549D01*
X2147230Y407284D01*
X2145976Y420018D01*
X2142262Y432263D01*
X2136229Y443548D01*
X2128112Y453440D01*
X2118220Y461558D01*
X2106935Y467590D01*
X2094690Y471304D01*
X2081955Y472558D01*
D02*
G37*
G36*
X1618753D02*
X1606019Y471304D01*
X1593774Y467590D01*
X1582488Y461558D01*
X1572597Y453440D01*
X1564479Y443548D01*
X1558447Y432263D01*
X1554733Y420018D01*
X1553478Y407284D01*
X1554733Y394549D01*
X1558447Y382304D01*
X1564479Y371019D01*
X1572597Y361127D01*
X1582488Y353009D01*
X1593774Y346977D01*
X1606019Y343263D01*
X1618753Y342009D01*
X1631488Y343263D01*
X1643733Y346977D01*
X1655018Y353009D01*
X1664910Y361127D01*
X1673027Y371019D01*
X1679059Y382304D01*
X1682774Y394549D01*
X1684028Y407284D01*
X1682774Y420018D01*
X1679059Y432263D01*
X1673027Y443548D01*
X1664910Y453440D01*
X1655018Y461558D01*
X1643733Y467590D01*
X1631488Y471304D01*
X1618753Y472558D01*
D02*
G37*
G36*
X355551Y1189154D02*
X343589Y1187975D01*
X332086Y1184486D01*
X321484Y1178820D01*
X312192Y1171194D01*
X304566Y1161902D01*
X298900Y1151300D01*
X295411Y1139797D01*
X294232Y1127835D01*
X295411Y1115872D01*
X298900Y1104369D01*
X304566Y1093768D01*
X312192Y1084476D01*
X321484Y1076850D01*
X332086Y1071183D01*
X343589Y1067694D01*
X355551Y1066516D01*
X367514Y1067694D01*
X374317Y1069758D01*
X472881Y971194D01*
Y369905D01*
X471963Y368708D01*
X468650Y360711D01*
X467521Y352130D01*
X468650Y343548D01*
X471963Y335551D01*
X477232Y328683D01*
X484099Y323414D01*
X492096Y320102D01*
X500678Y318972D01*
X509260Y320102D01*
X517257Y323414D01*
X524124Y328683D01*
X529394Y335551D01*
X532706Y343548D01*
X533836Y352130D01*
X532706Y360711D01*
X529394Y368708D01*
X528475Y369905D01*
Y982708D01*
X527528Y989902D01*
X524751Y996606D01*
X520333Y1002363D01*
X413628Y1109068D01*
X415692Y1115872D01*
X416870Y1127835D01*
X415692Y1139797D01*
X412202Y1151300D01*
X406536Y1161902D01*
X398910Y1171194D01*
X389618Y1178820D01*
X379017Y1184486D01*
X367514Y1187975D01*
X355551Y1189154D01*
D02*
G37*
G36*
X1155551Y472558D02*
X1142817Y471304D01*
X1130572Y467590D01*
X1119286Y461558D01*
X1109395Y453440D01*
X1101277Y443548D01*
X1099616Y440441D01*
X980950D01*
X972368Y439311D01*
X964371Y435999D01*
X957504Y430729D01*
X809171Y282396D01*
X692064D01*
X688486Y292396D01*
X694186Y297074D01*
X701812Y306366D01*
X707478Y316967D01*
X710967Y328470D01*
X712146Y340433D01*
X710967Y352396D01*
X707478Y363899D01*
X701812Y374500D01*
X694186Y383792D01*
X684894Y391418D01*
X674293Y397084D01*
X662789Y400574D01*
X650827Y401752D01*
X638864Y400574D01*
X627361Y397084D01*
X616760Y391418D01*
X607468Y383792D01*
X599842Y374500D01*
X594176Y363899D01*
X590686Y352396D01*
X589508Y340433D01*
X590686Y328470D01*
X594176Y316967D01*
X599842Y306366D01*
X607468Y297074D01*
X613168Y292396D01*
X609590Y282396D01*
X461207D01*
X452625Y281266D01*
X444628Y277954D01*
X437761Y272685D01*
X368501Y203424D01*
X367514Y203723D01*
X355551Y204902D01*
X343589Y203723D01*
X332086Y200234D01*
X321484Y194567D01*
X312192Y186942D01*
X304566Y177650D01*
X298900Y167048D01*
X295411Y155545D01*
X294232Y143583D01*
X295411Y131620D01*
X298900Y120117D01*
X304566Y109516D01*
X312192Y100224D01*
X321484Y92598D01*
X332086Y86931D01*
X343589Y83442D01*
X355551Y82264D01*
X367514Y83442D01*
X379017Y86931D01*
X389618Y92598D01*
X398910Y100224D01*
X406536Y109516D01*
X412202Y120117D01*
X415692Y131620D01*
X416870Y143583D01*
X415692Y155545D01*
X415393Y156532D01*
X474941Y216081D01*
X822905D01*
X831487Y217211D01*
X839484Y220523D01*
X846351Y225792D01*
X994684Y374126D01*
X1099616D01*
X1101277Y371019D01*
X1109395Y361127D01*
X1119286Y353009D01*
X1130572Y346977D01*
X1142817Y343263D01*
X1155551Y342009D01*
X1168286Y343263D01*
X1180531Y346977D01*
X1191816Y353009D01*
X1201707Y361127D01*
X1209825Y371019D01*
X1215857Y382304D01*
X1219572Y394549D01*
X1220826Y407284D01*
X1219572Y420018D01*
X1215857Y432263D01*
X1209825Y443548D01*
X1201707Y453440D01*
X1191816Y461558D01*
X1180531Y467590D01*
X1168286Y471304D01*
X1155551Y472558D01*
D02*
G37*
G36*
X355551Y401752D02*
X343589Y400574D01*
X332086Y397084D01*
X321484Y391418D01*
X312192Y383792D01*
X304566Y374500D01*
X298900Y363899D01*
X295411Y352396D01*
X294232Y340433D01*
X295411Y328470D01*
X298900Y316967D01*
X304566Y306366D01*
X312192Y297074D01*
X321484Y289448D01*
X332086Y283782D01*
X343589Y280292D01*
X355551Y279114D01*
X367514Y280292D01*
X379017Y283782D01*
X389618Y289448D01*
X398910Y297074D01*
X406536Y306366D01*
X412202Y316967D01*
X415692Y328470D01*
X416870Y340433D01*
X415692Y352396D01*
X412202Y363899D01*
X406536Y374500D01*
X398910Y383792D01*
X389618Y391418D01*
X379017Y397084D01*
X367514Y400574D01*
X355551Y401752D01*
D02*
G37*
G36*
X1957940Y236338D02*
X1945205Y235084D01*
X1932960Y231369D01*
X1921675Y225337D01*
X1911783Y217219D01*
X1903666Y207328D01*
X1897634Y196043D01*
X1893919Y183798D01*
X1892665Y171063D01*
X1893919Y158328D01*
X1897634Y146083D01*
X1903666Y134798D01*
X1911783Y124907D01*
X1921675Y116789D01*
X1932960Y110757D01*
X1945205Y107042D01*
X1957940Y105788D01*
X1970674Y107042D01*
X1982919Y110757D01*
X1994205Y116789D01*
X2004096Y124907D01*
X2012214Y134798D01*
X2018246Y146083D01*
X2021960Y158328D01*
X2023215Y171063D01*
X2021960Y183798D01*
X2018246Y196043D01*
X2012214Y207328D01*
X2004096Y217219D01*
X1994205Y225337D01*
X1982919Y231369D01*
X1970674Y235084D01*
X1957940Y236338D01*
D02*
G37*
G36*
X1494738D02*
X1482003Y235084D01*
X1469758Y231369D01*
X1458473Y225337D01*
X1448581Y217219D01*
X1440464Y207328D01*
X1434431Y196043D01*
X1430717Y183798D01*
X1429463Y171063D01*
X1430717Y158328D01*
X1434431Y146083D01*
X1440464Y134798D01*
X1448581Y124907D01*
X1458473Y116789D01*
X1469758Y110757D01*
X1482003Y107042D01*
X1494738Y105788D01*
X1507472Y107042D01*
X1519717Y110757D01*
X1531002Y116789D01*
X1540894Y124907D01*
X1549012Y134798D01*
X1555044Y146083D01*
X1558758Y158328D01*
X1560013Y171063D01*
X1558758Y183798D01*
X1555044Y196043D01*
X1549012Y207328D01*
X1540894Y217219D01*
X1531002Y225337D01*
X1519717Y231369D01*
X1507472Y235084D01*
X1494738Y236338D01*
D02*
G37*
G36*
X1031535D02*
X1018801Y235084D01*
X1006556Y231369D01*
X995271Y225337D01*
X985379Y217219D01*
X977261Y207328D01*
X971229Y196043D01*
X967515Y183798D01*
X966261Y171063D01*
X967515Y158328D01*
X971229Y146083D01*
X977261Y134798D01*
X985379Y124907D01*
X995271Y116789D01*
X1006556Y110757D01*
X1018801Y107042D01*
X1031535Y105788D01*
X1044270Y107042D01*
X1056515Y110757D01*
X1067800Y116789D01*
X1077692Y124907D01*
X1085810Y134798D01*
X1091842Y146083D01*
X1095556Y158328D01*
X1096810Y171063D01*
X1095556Y183798D01*
X1091842Y196043D01*
X1085810Y207328D01*
X1077692Y217219D01*
X1067800Y225337D01*
X1056515Y231369D01*
X1044270Y235084D01*
X1031535Y236338D01*
D02*
G37*
G36*
X650827Y204902D02*
X638864Y203723D01*
X627361Y200234D01*
X616760Y194567D01*
X607468Y186942D01*
X599842Y177650D01*
X594176Y167048D01*
X590686Y155545D01*
X589508Y143583D01*
X590686Y131620D01*
X594176Y120117D01*
X599842Y109516D01*
X607468Y100224D01*
X616760Y92598D01*
X627361Y86931D01*
X638864Y83442D01*
X650827Y82264D01*
X662789Y83442D01*
X674293Y86931D01*
X684894Y92598D01*
X694186Y100224D01*
X701812Y109516D01*
X707478Y120117D01*
X710967Y131620D01*
X712146Y143583D01*
X710967Y155545D01*
X707478Y167048D01*
X701812Y177650D01*
X694186Y186942D01*
X684894Y194567D01*
X674293Y200234D01*
X662789Y203723D01*
X650827Y204902D01*
D02*
G37*
G36*
X2850000Y254653D02*
X2833629Y253365D01*
X2817660Y249531D01*
X2802488Y243247D01*
X2788486Y234666D01*
X2775999Y224001D01*
X2765334Y211514D01*
X2756753Y197512D01*
X2750469Y182340D01*
X2746635Y166371D01*
X2745347Y150000D01*
X2746635Y133629D01*
X2750469Y117660D01*
X2756753Y102488D01*
X2765334Y88486D01*
X2775999Y75999D01*
X2788486Y65334D01*
X2802488Y56753D01*
X2817660Y50469D01*
X2833629Y46635D01*
X2850000Y45347D01*
X2866371Y46635D01*
X2882340Y50469D01*
X2897512Y56753D01*
X2911514Y65334D01*
X2924001Y75999D01*
X2934666Y88486D01*
X2943247Y102488D01*
X2949531Y117660D01*
X2953365Y133629D01*
X2954653Y150000D01*
X2953365Y166371D01*
X2949531Y182340D01*
X2943247Y197512D01*
X2934666Y211514D01*
X2924001Y224001D01*
X2911514Y234666D01*
X2897512Y243247D01*
X2882340Y249531D01*
X2866371Y253365D01*
X2850000Y254653D01*
D02*
G37*
%LPD*%
G36*
X1802048Y2686972D02*
Y2216363D01*
X1799714Y2212870D01*
X1798034Y2204421D01*
X1799714Y2195973D01*
X1804500Y2188810D01*
X1804935Y2188519D01*
Y1972726D01*
X1795401D01*
Y1917608D01*
X1804935D01*
Y1889421D01*
X1804935Y1889420D01*
X1806157Y1883276D01*
X1809638Y1878067D01*
X1812371Y1875333D01*
Y1872893D01*
X1811391Y1871426D01*
X1809863Y1863745D01*
X1811391Y1856065D01*
X1815742Y1849553D01*
X1822253Y1845203D01*
X1829934Y1843675D01*
Y1833816D01*
X1822253Y1832288D01*
X1815742Y1827938D01*
X1811391Y1821426D01*
X1809863Y1813745D01*
X1811391Y1806065D01*
X1815742Y1799553D01*
X1822253Y1795203D01*
X1829934Y1793675D01*
Y1783816D01*
X1822253Y1782288D01*
X1818532Y1779802D01*
X1751967D01*
Y1788603D01*
X1742021D01*
Y1797959D01*
X1740951Y1803335D01*
X1737906Y1807893D01*
X1730987Y1814812D01*
X1726429Y1817858D01*
X1721052Y1818927D01*
X1592569D01*
X1587670Y1822201D01*
X1579221Y1823881D01*
X1570772Y1822201D01*
X1563610Y1817415D01*
X1561643Y1814472D01*
X1549789Y1812185D01*
X1521120Y1840853D01*
X1515911Y1844334D01*
X1509766Y1845556D01*
X1509766Y1845556D01*
X789865D01*
X783720Y1844334D01*
X778511Y1840853D01*
X778511Y1840853D01*
X775652Y1837994D01*
X771990Y1837836D01*
X763849Y1840333D01*
X759852Y1847811D01*
X752472Y1856803D01*
X743480Y1864183D01*
X735592Y1868399D01*
X734517Y1872809D01*
Y1874986D01*
X735592Y1879397D01*
X743480Y1883613D01*
X752472Y1890993D01*
X759852Y1899985D01*
X765336Y1910244D01*
X768712Y1921376D01*
X769853Y1932953D01*
X768712Y1944530D01*
X765336Y1955661D01*
X759852Y1965921D01*
X759795Y1965990D01*
X764525Y1975990D01*
X978311D01*
Y1955593D01*
X976185D01*
Y1933861D01*
X1004886D01*
X1033587D01*
Y1955593D01*
X1031461D01*
Y1965992D01*
X1050723D01*
Y1951190D01*
X1091904D01*
X1099935Y1951190D01*
X1109936Y1951190D01*
X1151117D01*
Y1960775D01*
X1170673D01*
Y1954576D01*
X1221854D01*
Y1963735D01*
X1328900D01*
X1333470Y1960681D01*
X1340382Y1959306D01*
X1360068D01*
X1366980Y1960681D01*
X1372840Y1964597D01*
X1376756Y1970457D01*
X1377635Y1974878D01*
X1384706Y1978350D01*
X1387839Y1978817D01*
X1399220Y1967436D01*
X1403778Y1964390D01*
X1409155Y1963321D01*
X1435819D01*
X1439769Y1960681D01*
X1446682Y1959306D01*
X1466367D01*
X1473279Y1960681D01*
X1479140Y1964597D01*
X1483055Y1970457D01*
X1484430Y1977370D01*
X1489539Y1984587D01*
X1493090Y1985095D01*
X1507452D01*
X1508418Y1980241D01*
X1512333Y1974381D01*
X1518661Y1968053D01*
X1518448Y1966983D01*
X1520129Y1958534D01*
X1524915Y1951371D01*
X1532077Y1946585D01*
X1540526Y1944905D01*
X1548975Y1946585D01*
X1552467Y1948919D01*
X1743480D01*
X1750393Y1950294D01*
X1756253Y1954210D01*
X1756339Y1954295D01*
X1760458Y1955114D01*
X1767620Y1959900D01*
X1772406Y1967063D01*
X1774087Y1975512D01*
X1772406Y1983960D01*
X1767620Y1991123D01*
X1760458Y1995909D01*
X1752009Y1997589D01*
X1743560Y1995909D01*
X1736398Y1991123D01*
X1732338Y1985046D01*
X1599044D01*
Y2007655D01*
X1571328D01*
Y2012655D01*
X1566328D01*
Y2042340D01*
X1543611D01*
Y2040214D01*
X1492588D01*
Y2040214D01*
X1491472Y2040217D01*
X1490345Y2040892D01*
X1484046Y2050242D01*
X1484430Y2052173D01*
X1483055Y2059086D01*
X1479140Y2064946D01*
X1473279Y2068862D01*
X1470574Y2069400D01*
Y2089799D01*
X1494445Y2113670D01*
X1710092D01*
X1711374Y2107223D01*
X1716160Y2100060D01*
X1723322Y2095274D01*
X1731771Y2093594D01*
X1740220Y2095274D01*
X1747382Y2100060D01*
X1752168Y2107223D01*
X1753849Y2115671D01*
X1752467Y2122617D01*
X1754443Y2125845D01*
X1755039Y2126513D01*
X1759893Y2130559D01*
X1766054Y2129334D01*
X1774503Y2131014D01*
X1781666Y2135800D01*
X1786451Y2142963D01*
X1788132Y2151412D01*
X1786451Y2159860D01*
X1781666Y2167023D01*
X1774503Y2171809D01*
X1766054Y2173489D01*
X1757605Y2171809D01*
X1750443Y2167023D01*
X1749399Y2165461D01*
X1438197D01*
X1432821Y2164392D01*
X1428263Y2161346D01*
X1377480Y2110563D01*
X1374434Y2106005D01*
X1373365Y2100628D01*
Y2076623D01*
X1371846Y2074777D01*
X1363365Y2069581D01*
X1360068Y2070237D01*
X1340382D01*
X1333470Y2068862D01*
X1329520Y2066223D01*
X1221854D01*
Y2076624D01*
X1170673D01*
Y2072632D01*
X1152559D01*
Y2094488D01*
X1111378D01*
X1103347Y2094488D01*
X1093346Y2094488D01*
X1052165D01*
Y2072548D01*
X1029768D01*
Y2082947D01*
X1031894D01*
Y2104679D01*
X974492D01*
Y2082947D01*
X976618D01*
Y2072548D01*
X854578D01*
X807073Y2120053D01*
X802515Y2123098D01*
X797139Y2124168D01*
X762909D01*
X758180Y2134168D01*
X759852Y2136205D01*
X765336Y2146465D01*
X768712Y2157596D01*
X769853Y2169173D01*
X768712Y2180750D01*
X765336Y2191882D01*
X759852Y2202141D01*
X752472Y2211133D01*
X743480Y2218513D01*
X735592Y2222729D01*
X734517Y2227140D01*
Y2229317D01*
X735592Y2233727D01*
X743480Y2237943D01*
X752472Y2245323D01*
X759852Y2254316D01*
X765336Y2264575D01*
X768712Y2275707D01*
X769853Y2287284D01*
X768712Y2298860D01*
X765336Y2309992D01*
X759852Y2320251D01*
X752472Y2329244D01*
X743480Y2336624D01*
X735592Y2340839D01*
X734517Y2345250D01*
Y2347427D01*
X735592Y2351838D01*
X743480Y2356054D01*
X752472Y2363433D01*
X759852Y2372426D01*
X765336Y2382685D01*
X768712Y2393817D01*
X768949Y2396218D01*
X865874D01*
X873585Y2390692D01*
Y2368960D01*
X902286D01*
X930987D01*
Y2390692D01*
X928861D01*
Y2401091D01*
X944826D01*
Y2386819D01*
X986007D01*
X994038Y2386819D01*
X1004038Y2386819D01*
X1045219D01*
Y2407811D01*
X1076123D01*
Y2398238D01*
X1127304D01*
Y2410241D01*
X1225909D01*
X1227604Y2409109D01*
X1234517Y2407734D01*
X1254202D01*
X1261114Y2409109D01*
X1266975Y2413025D01*
X1270890Y2418885D01*
X1272265Y2425798D01*
X1270890Y2432710D01*
X1266975Y2438570D01*
X1268470Y2448643D01*
X1268821Y2449363D01*
X1272893Y2455457D01*
X1274118Y2458239D01*
X1274774Y2458175D01*
X1283459Y2455000D01*
Y2443514D01*
X1284529Y2438137D01*
X1287574Y2433579D01*
X1303784Y2417370D01*
X1308342Y2414324D01*
X1313719Y2413255D01*
X1327889D01*
X1328043Y2413025D01*
X1333903Y2409109D01*
X1340816Y2407734D01*
X1360501D01*
X1367414Y2409109D01*
X1373274Y2413025D01*
X1377189Y2418885D01*
X1378564Y2425798D01*
X1377189Y2432710D01*
X1375569Y2435135D01*
X1380078Y2445135D01*
X1394156D01*
Y2434970D01*
X1401013D01*
Y2307082D01*
X1402388Y2300169D01*
X1406304Y2294309D01*
X1484316Y2216297D01*
X1485135Y2212178D01*
X1489921Y2205015D01*
X1497083Y2200229D01*
X1505532Y2198549D01*
X1513981Y2200229D01*
X1521143Y2205015D01*
X1525929Y2212178D01*
X1527610Y2220626D01*
X1525929Y2229075D01*
X1521143Y2236238D01*
X1513981Y2241024D01*
X1509861Y2241843D01*
X1437140Y2314564D01*
Y2428110D01*
X1445179Y2432845D01*
X1467896D01*
Y2462530D01*
X1472896D01*
Y2467530D01*
X1500612D01*
Y2490310D01*
X1509030Y2496035D01*
X1531099Y2473966D01*
X1536959Y2470050D01*
X1543872Y2468675D01*
X1679784D01*
X1682109Y2467121D01*
X1690558Y2465441D01*
X1699007Y2467121D01*
X1706169Y2471907D01*
X1710955Y2479070D01*
X1712636Y2487519D01*
X1710955Y2495967D01*
X1706169Y2503130D01*
X1699007Y2507916D01*
X1690558Y2509596D01*
X1682109Y2507916D01*
X1677450Y2504802D01*
X1551354D01*
X1531469Y2524688D01*
Y2549343D01*
X1612203Y2630077D01*
X1616322Y2630896D01*
X1623485Y2635682D01*
X1628270Y2642845D01*
X1629951Y2651294D01*
X1628606Y2658055D01*
X1631964Y2664486D01*
X1634743Y2668055D01*
X1726839D01*
X1729534Y2664021D01*
X1736696Y2659235D01*
X1745145Y2657555D01*
X1753594Y2659235D01*
X1760756Y2664021D01*
X1765542Y2671184D01*
X1767223Y2679633D01*
X1766339Y2684076D01*
X1770335Y2688045D01*
X1774671Y2691049D01*
X1782026Y2689586D01*
X1790475Y2691266D01*
X1792048Y2692317D01*
X1802048Y2686972D01*
D02*
G37*
G36*
X876571Y2475610D02*
X929721D01*
Y2486167D01*
X950042D01*
Y2475345D01*
X991223D01*
X999255Y2475345D01*
X1009255Y2475345D01*
X1050436D01*
Y2482614D01*
X1076123D01*
Y2473042D01*
X1127304D01*
Y2485044D01*
X1142751D01*
X1152737Y2485010D01*
Y2464262D01*
X1180454D01*
Y2454262D01*
X1152737D01*
Y2438340D01*
X1127304D01*
Y2445483D01*
X1076123D01*
Y2435910D01*
X1045219D01*
Y2439968D01*
X1004038D01*
X996007Y2439968D01*
X986007Y2439968D01*
X944826D01*
Y2429191D01*
X928861D01*
Y2439747D01*
X875711D01*
Y2424317D01*
X766484D01*
X765336Y2428102D01*
X759852Y2438362D01*
X752472Y2447354D01*
X743480Y2454734D01*
X735592Y2458950D01*
X734517Y2463361D01*
Y2465537D01*
X735592Y2469948D01*
X743480Y2474164D01*
X752472Y2481544D01*
X759852Y2490536D01*
X763304Y2496994D01*
X876571D01*
Y2475610D01*
D02*
G37*
G36*
X838824Y2048564D02*
X843382Y2045518D01*
X848759Y2044448D01*
X976618D01*
Y2033892D01*
X1029768D01*
Y2044448D01*
X1052165D01*
Y2041339D01*
X1093346D01*
X1101378Y2041339D01*
X1111378Y2041339D01*
X1152559D01*
Y2044533D01*
X1170673D01*
Y2029380D01*
X1221854D01*
Y2038124D01*
X1247287D01*
Y2020600D01*
X1275003D01*
Y2010600D01*
X1247287D01*
Y1991834D01*
X1221854D01*
Y2001821D01*
X1170673D01*
Y1988874D01*
X1151117D01*
Y2004339D01*
X1109936D01*
X1101904Y2004339D01*
X1091904Y2004339D01*
X1050723D01*
Y1994091D01*
X1031461D01*
Y2004648D01*
X978311D01*
Y2004089D01*
X761294D01*
X756564Y2014089D01*
X759852Y2018095D01*
X765336Y2028354D01*
X768712Y2039486D01*
X769853Y2051063D01*
X768712Y2062640D01*
X765336Y2073772D01*
X759852Y2084031D01*
X758180Y2086069D01*
X762909Y2096069D01*
X791319D01*
X838824Y2048564D01*
D02*
G37*
G36*
X1649447Y1790729D02*
Y1767028D01*
X1676180D01*
Y1757028D01*
X1649447D01*
Y1733328D01*
X1641297Y1728863D01*
X1633110D01*
X1589602Y1772371D01*
X1591889Y1784226D01*
X1594832Y1786192D01*
X1597930Y1790828D01*
X1639488D01*
X1649447Y1790729D01*
D02*
G37*
G36*
X2309533Y1693309D02*
Y1631272D01*
X2261916Y1583656D01*
X2252193Y1588075D01*
Y1608024D01*
X2225461D01*
Y1618024D01*
X2252193D01*
Y1640740D01*
X2252193Y1641725D01*
X2252550Y1651578D01*
X2255893Y1653811D01*
X2299533Y1697451D01*
X2309533Y1693309D01*
D02*
G37*
G36*
X1679642Y1637298D02*
X1701375D01*
Y1639424D01*
X1750430D01*
Y1647689D01*
X1818532D01*
X1822253Y1645203D01*
X1829934Y1643675D01*
Y1633816D01*
X1822253Y1632288D01*
X1815742Y1627938D01*
X1811391Y1621426D01*
X1809863Y1613745D01*
X1811391Y1606065D01*
X1815742Y1599553D01*
X1822253Y1595203D01*
X1829934Y1593675D01*
Y1583816D01*
X1822253Y1582288D01*
X1818532Y1579802D01*
X1751198D01*
Y1589629D01*
X1724693D01*
X1723427Y1590895D01*
X1722725Y1594423D01*
X1719245Y1599632D01*
X1719244Y1599632D01*
X1702146Y1616731D01*
X1696937Y1620212D01*
X1690792Y1621434D01*
X1690791Y1621434D01*
X1658616D01*
X1653106Y1628313D01*
X1657004Y1637298D01*
X1669642D01*
Y1665999D01*
X1679642D01*
Y1637298D01*
D02*
G37*
%LPC*%
G36*
X1500612Y2457530D02*
X1477896D01*
Y2432845D01*
X1500612D01*
Y2457530D01*
D02*
G37*
G36*
X930987Y2358960D02*
X907286D01*
Y2337228D01*
X930987D01*
Y2358960D01*
D02*
G37*
G36*
X897286D02*
X873585D01*
Y2337228D01*
X897286D01*
Y2358960D01*
D02*
G37*
G36*
X1031894Y2136411D02*
X1008193D01*
Y2114679D01*
X1031894D01*
Y2136411D01*
D02*
G37*
G36*
X998193D02*
X974492D01*
Y2114679D01*
X998193D01*
Y2136411D01*
D02*
G37*
G36*
X1085523Y2175768D02*
X1077074Y2174088D01*
X1069912Y2169302D01*
X1065126Y2162139D01*
X1063446Y2153691D01*
X1065126Y2145242D01*
X1069912Y2138079D01*
X1077074Y2133293D01*
X1085523Y2131613D01*
X1093972Y2133293D01*
X1101134Y2138079D01*
X1103505Y2138313D01*
X1118773Y2123045D01*
X1123331Y2119999D01*
X1128707Y2118930D01*
X1261449D01*
X1262493Y2117368D01*
X1269655Y2112582D01*
X1278104Y2110902D01*
X1286553Y2112582D01*
X1293716Y2117368D01*
X1298501Y2124531D01*
X1300182Y2132979D01*
X1298501Y2141428D01*
X1293716Y2148591D01*
X1286553Y2153377D01*
X1278104Y2155057D01*
X1269655Y2153377D01*
X1262493Y2148591D01*
X1261449Y2147029D01*
X1134527D01*
X1117931Y2163625D01*
X1113373Y2166671D01*
X1107996Y2167740D01*
X1102178D01*
X1101134Y2169302D01*
X1093972Y2174088D01*
X1085523Y2175768D01*
D02*
G37*
G36*
X1599044Y2042340D02*
X1576328D01*
Y2017655D01*
X1599044D01*
Y2042340D01*
D02*
G37*
G36*
X1033587Y1923861D02*
X1009886D01*
Y1902128D01*
X1033587D01*
Y1923861D01*
D02*
G37*
G36*
X999886D02*
X976185D01*
Y1902128D01*
X999886D01*
Y1923861D01*
D02*
G37*
%LPD*%
G36*
X1891671Y2945229D02*
X1906998D01*
X1916355Y2945229D01*
X1916998Y2935495D01*
Y2930784D01*
X1974243D01*
Y2920784D01*
X1916998D01*
X1916998Y2900824D01*
X1919124Y2891705D01*
Y2858619D01*
X1919124Y2852950D01*
X1919124Y2842950D01*
Y2802950D01*
X2029361D01*
Y2822155D01*
X2030150Y2822771D01*
X2039361Y2825810D01*
X2049321Y2815850D01*
X2053879Y2812805D01*
X2059255Y2811735D01*
X2072668D01*
Y2802950D01*
X2103696D01*
X2105604Y2793134D01*
X2098442Y2788348D01*
X2093656Y2781185D01*
X2091976Y2772736D01*
X2093656Y2764288D01*
X2098442Y2757125D01*
X2105604Y2752339D01*
X2114053Y2750659D01*
X2122502Y2752339D01*
X2123498Y2753005D01*
X2130708Y2745796D01*
X2128333Y2742241D01*
X2126653Y2733793D01*
X2127888Y2727580D01*
X2123915Y2720329D01*
X2121494Y2717580D01*
X1986767D01*
X1905210Y2799138D01*
Y2864005D01*
X1903835Y2870917D01*
X1899919Y2876777D01*
X1850999Y2925697D01*
Y2937708D01*
X1856985Y2945229D01*
X1881671D01*
Y2972945D01*
X1891671D01*
Y2945229D01*
D02*
G37*
D10*
X1184390Y2463199D02*
G03*
X1180453Y2459262I0J-3937D01*
G01*
X1184390Y2463199D02*
X1244359D01*
X1275003Y2015600D02*
X1275832Y2014772D01*
X1350225D01*
X1974243Y2925785D02*
Y2975785D01*
X2356098Y995019D02*
Y1021146D01*
X2349961Y1027284D02*
X2356098Y1021146D01*
Y995019D02*
X2375684Y975433D01*
X2427401D01*
X2485551Y917284D01*
D11*
X1886670Y3026095D02*
D03*
Y2972945D02*
D03*
D12*
X1820991Y1945167D02*
D03*
X1874141D02*
D03*
X2088302Y1952094D02*
D03*
X2035152D02*
D03*
X1419746Y2462530D02*
D03*
X1472896D02*
D03*
X1518178Y2012655D02*
D03*
X1571328D02*
D03*
D13*
X2675917Y1306255D02*
D03*
X2585366D02*
D03*
X2675917Y1605088D02*
D03*
X2585366D02*
D03*
X2675917Y1882659D02*
D03*
X2585366D02*
D03*
X2675917Y2134434D02*
D03*
X2585366D02*
D03*
X1967535Y1099556D02*
D03*
X1876984D02*
D03*
X1565410Y1089831D02*
D03*
X1474859D02*
D03*
X1051335Y1101640D02*
D03*
X960784D02*
D03*
X2424043Y1102586D02*
D03*
X2333492D02*
D03*
D14*
X1101713Y2496664D02*
D03*
Y2421860D02*
D03*
X1180453Y2459262D02*
D03*
X1196263Y2053002D02*
D03*
Y1978198D02*
D03*
X1275003Y2015600D02*
D03*
D15*
X2484502Y1408966D02*
D03*
X2409699D02*
D03*
X2447100Y1330225D02*
D03*
X2484502Y1694533D02*
D03*
X2409699D02*
D03*
X2447100Y1615793D02*
D03*
X2484502Y1960578D02*
D03*
X2409699D02*
D03*
X2447100Y1881837D02*
D03*
X2484502Y2224155D02*
D03*
X2409699D02*
D03*
X2447100Y2145414D02*
D03*
D16*
X1135551Y1557284D02*
D03*
D17*
X1226102Y1305315D02*
D03*
X1135551D02*
D03*
X1045000D02*
D03*
D18*
X993032Y3007284D02*
D03*
D19*
X1246968Y3097441D02*
D03*
Y2917126D02*
D03*
D20*
X2759916Y1247671D02*
D03*
Y1298852D02*
D03*
X2693651Y1411425D02*
D03*
Y1462606D02*
D03*
X2695670Y1698838D02*
D03*
Y1750019D02*
D03*
X2759916Y1561581D02*
D03*
Y1612762D02*
D03*
X2699904Y1954122D02*
D03*
Y2005303D02*
D03*
X2759916Y1832708D02*
D03*
Y1883889D02*
D03*
Y2079227D02*
D03*
Y2130408D02*
D03*
X2705613Y2225193D02*
D03*
Y2276375D02*
D03*
X1004886Y1980042D02*
D03*
Y1928861D02*
D03*
X1003193Y2058498D02*
D03*
Y2109679D02*
D03*
X2110248Y3140073D02*
D03*
Y3088892D02*
D03*
X902286Y2415141D02*
D03*
Y2363960D02*
D03*
X903146Y2500216D02*
D03*
Y2551398D02*
D03*
X2046962Y3140932D02*
D03*
Y3089751D02*
D03*
D21*
X2618707Y1415436D02*
D03*
X2567526D02*
D03*
X2618707Y1698838D02*
D03*
X2567526D02*
D03*
X2618707Y1964027D02*
D03*
X2567526D02*
D03*
X2617126Y2237205D02*
D03*
X2565945D02*
D03*
X1727361Y1762028D02*
D03*
X1676180D02*
D03*
X1025829Y2501919D02*
D03*
X974648D02*
D03*
X1020613Y2413394D02*
D03*
X969432D02*
D03*
X1127953Y2067913D02*
D03*
X1076772D02*
D03*
X1126510Y1977764D02*
D03*
X1075329D02*
D03*
X1224093Y2824178D02*
D03*
X1172912D02*
D03*
X2349961Y1027284D02*
D03*
X2401142D02*
D03*
X1889961D02*
D03*
X1941142D02*
D03*
X969961D02*
D03*
X1021142D02*
D03*
X1725824Y1665998D02*
D03*
X1674643D02*
D03*
X1726592Y1563054D02*
D03*
X1675411D02*
D03*
X2174280Y1514466D02*
D03*
X2225461D02*
D03*
X2174280Y1613024D02*
D03*
X2225461D02*
D03*
X2174280Y1763745D02*
D03*
X2225461D02*
D03*
X1156780Y1202312D02*
D03*
X1207961D02*
D03*
X1481556Y1024862D02*
D03*
X1532737D02*
D03*
D22*
X2409164Y2914610D02*
D03*
X2428849D02*
D03*
X2448534D02*
D03*
X2468220D02*
D03*
X2487905D02*
D03*
X2507590D02*
D03*
X2527275D02*
D03*
X2546960D02*
D03*
X2566645D02*
D03*
X2586330D02*
D03*
X2606015D02*
D03*
X2625700D02*
D03*
X2645385D02*
D03*
X2665070D02*
D03*
X2684755D02*
D03*
X2704440D02*
D03*
Y2461855D02*
D03*
X2684755D02*
D03*
X2665070D02*
D03*
X2645385D02*
D03*
X2625700D02*
D03*
X2606015D02*
D03*
X2586330D02*
D03*
X2566645D02*
D03*
X2546960D02*
D03*
X2527275D02*
D03*
X2507590D02*
D03*
X2487905D02*
D03*
X2468220D02*
D03*
X2448534D02*
D03*
X2428849D02*
D03*
X2409164D02*
D03*
D23*
X2783180Y2835870D02*
D03*
Y2816185D02*
D03*
Y2796500D02*
D03*
Y2776815D02*
D03*
Y2757130D02*
D03*
Y2737445D02*
D03*
Y2717760D02*
D03*
Y2698075D02*
D03*
Y2678390D02*
D03*
Y2658705D02*
D03*
Y2639020D02*
D03*
Y2619335D02*
D03*
Y2599650D02*
D03*
Y2579965D02*
D03*
Y2560280D02*
D03*
Y2540595D02*
D03*
X2330424D02*
D03*
Y2560280D02*
D03*
Y2579965D02*
D03*
Y2599650D02*
D03*
Y2619335D02*
D03*
Y2639020D02*
D03*
Y2658705D02*
D03*
Y2678390D02*
D03*
Y2698075D02*
D03*
Y2717760D02*
D03*
Y2737445D02*
D03*
Y2757130D02*
D03*
Y2776815D02*
D03*
Y2796500D02*
D03*
Y2816185D02*
D03*
Y2835870D02*
D03*
D24*
X2061233Y1513745D02*
D03*
Y1563745D02*
D03*
Y1613745D02*
D03*
Y1663745D02*
D03*
Y1713745D02*
D03*
Y1763745D02*
D03*
Y1813745D02*
D03*
Y1863745D02*
D03*
X1846666Y1513745D02*
D03*
Y1563745D02*
D03*
Y1613745D02*
D03*
Y1663745D02*
D03*
Y1713745D02*
D03*
Y1763745D02*
D03*
Y1813745D02*
D03*
Y1863745D02*
D03*
D25*
X1350658Y2425798D02*
D03*
Y2463199D02*
D03*
Y2500601D02*
D03*
X1244359Y2425798D02*
D03*
Y2463199D02*
D03*
Y2500601D02*
D03*
X1456524Y1977370D02*
D03*
Y2014772D02*
D03*
Y2052173D02*
D03*
X1350225Y1977370D02*
D03*
Y2014772D02*
D03*
Y2052173D02*
D03*
D26*
X1635551Y2803268D02*
D03*
D27*
X1545000Y3051299D02*
D03*
X1635551D02*
D03*
X1726102D02*
D03*
D28*
X2127786Y2825785D02*
D03*
X1974243D02*
D03*
X2127786Y2875785D02*
D03*
X1974243D02*
D03*
X2127786Y2925785D02*
D03*
X1974243D02*
D03*
X2127786Y2975785D02*
D03*
X1974243D02*
D03*
X2127786Y3025785D02*
D03*
X1974243D02*
D03*
D29*
X1968504Y1573181D02*
X2009068Y1613745D01*
X1968504Y1346581D02*
Y1573181D01*
X1774059Y1152137D02*
X1968504Y1346581D01*
X612087Y1788809D02*
Y1873898D01*
X672635Y1728261D02*
X800311D01*
X1615098Y1640907D02*
X1650627Y1605377D01*
X1490975Y1797841D02*
X1615098Y1673717D01*
X869891Y1797841D02*
X1490975D01*
X1650627Y1605377D02*
X1690792D01*
X1707891Y1588278D01*
X1615098Y1640907D02*
Y1673717D01*
X800311Y1728261D02*
X869891Y1797841D01*
X612087Y1788809D02*
X672635Y1728261D01*
X987323Y1746819D02*
X1178347D01*
X1010248Y1715572D02*
X1436656D01*
X1699911Y1452318D01*
X1911616D01*
X1717969Y1673853D02*
X1725824Y1665998D01*
X710512Y1814842D02*
X712745Y1817076D01*
X1509766Y1829499D02*
X1626459Y1712806D01*
X712745Y1817076D02*
X777441D01*
X789865Y1829499D01*
X1509766D01*
X1717969Y1673853D02*
Y1708321D01*
X1713484Y1712806D02*
X1717969Y1708321D01*
X1626459Y1712806D02*
X1713484D01*
X937600Y1771556D02*
X1181449D01*
X856454Y1690410D02*
X937600Y1771556D01*
X610534Y1690410D02*
X856454D01*
X493976Y1806969D02*
X610534Y1690410D01*
X493976Y1806969D02*
Y1873898D01*
X888200Y1647696D02*
X987323Y1746819D01*
X442918Y1647696D02*
X888200D01*
X313345Y1777268D02*
X442918Y1647696D01*
X313345Y1777268D02*
Y1850747D01*
X395551Y1932953D01*
X897617Y1602941D02*
X1010248Y1715572D01*
X442512Y1602941D02*
X897617D01*
X277005Y1768448D02*
X442512Y1602941D01*
X277005Y1768448D02*
Y2050627D01*
X395551Y2169173D01*
X1707891Y1583724D02*
Y1588278D01*
Y1583724D02*
X1726592Y1565023D01*
Y1563054D02*
Y1565023D01*
X1820111Y2204421D02*
X1820991Y2203541D01*
Y1945167D02*
Y2203541D01*
Y1889420D02*
X1828427Y1881984D01*
Y1867383D02*
Y1881984D01*
Y1867383D02*
X1832065Y1863745D01*
X1846666D01*
X1820991Y1889420D02*
Y1945167D01*
X2001464Y1452318D02*
Y1470709D01*
X2044501Y1513745D01*
X2061233D01*
X1774059Y1007860D02*
Y1152137D01*
X2009068Y1613745D02*
X2061233D01*
X1725824Y1665998D02*
X1728077Y1663745D01*
X1538694Y3126068D02*
Y3129265D01*
Y3126068D02*
X1545000Y3119763D01*
Y3051299D02*
Y3119763D01*
X1235904Y2917126D02*
X1246968D01*
X1224093Y2905315D02*
X1235904Y2917126D01*
X1224093Y2824178D02*
Y2905315D01*
X2704078Y2226729D02*
X2705613Y2225193D01*
X2620242Y2226729D02*
X2704078D01*
X2618707Y2228265D02*
X2620242Y2226729D01*
X2565471Y2226210D02*
X2567526Y2228265D01*
X2486557Y2226210D02*
X2565471D01*
X2484502Y2224155D02*
X2486557Y2226210D01*
X2447100Y2145414D02*
X2574386D01*
X2585366Y2134434D01*
X2675917D02*
X2679943Y2130408D01*
X2759916D01*
X2694952Y1959075D02*
X2699904Y1954122D01*
X2623659Y1959075D02*
X2694952D01*
X2618707Y1964027D02*
X2623659Y1959075D01*
X2565801Y1962303D02*
X2567526Y1964027D01*
X2486227Y1962303D02*
X2565801D01*
X2484502Y1960578D02*
X2486227Y1962303D01*
X2447100Y1881837D02*
X2584544D01*
X2585366Y1882659D01*
X2675917D02*
X2677147Y1883889D01*
X2759916D01*
X2618707Y1698838D02*
X2695670D01*
X2565373Y1696685D02*
X2567526Y1698838D01*
X2486654Y1696685D02*
X2565373D01*
X2484502Y1694533D02*
X2486654Y1696685D01*
X2447100Y1615793D02*
X2574661D01*
X2585366Y1605088D01*
X2675917D02*
X2683591Y1612762D01*
X2759916D01*
X2618707Y1415436D02*
X2620712Y1413430D01*
X2691646D01*
X2693651Y1411425D01*
X2683320Y1298852D02*
X2759916D01*
X2675917Y1306255D02*
X2683320Y1298852D01*
X2513531Y1306255D02*
X2585366D01*
X2489561Y1330225D02*
X2513531Y1306255D01*
X2447100Y1330225D02*
X2489561D01*
X2564291Y1412201D02*
X2567526Y1415436D01*
X2487737Y1412201D02*
X2564291D01*
X2484502Y1408966D02*
X2487737Y1412201D01*
X2061233Y1613745D02*
X2173559D01*
X2061233Y1513745D02*
X2167444D01*
X2061233Y1763745D02*
X2161233D01*
X1729078D02*
X1846666D01*
X1728077Y1663745D02*
X1846666D01*
X1727283Y1563745D02*
X1846666D01*
X995551Y917284D02*
Y927937D01*
X969961Y953528D02*
X995551Y927937D01*
X969961Y953528D02*
Y1027284D01*
X1051335Y1097704D02*
Y1101640D01*
X1023238Y1069606D02*
X1051335Y1097704D01*
X1023238Y1029379D02*
Y1069606D01*
X1021142Y1027284D02*
X1023238Y1029379D01*
X2424043Y1098649D02*
Y1102586D01*
X2401142Y1075748D02*
X2424043Y1098649D01*
X2401142Y1027284D02*
Y1075748D01*
X1967535Y1095620D02*
Y1099556D01*
X1941522Y1069606D02*
X1967535Y1095620D01*
X1941522Y1027663D02*
Y1069606D01*
X1941142Y1027284D02*
X1941522Y1027663D01*
X1490414Y985754D02*
X1558884Y917284D01*
X1490414Y985754D02*
Y1016004D01*
X1481556Y1024862D02*
X1490414Y1016004D01*
X1565410Y1085893D02*
Y1089831D01*
X1541595Y1062079D02*
X1565410Y1085893D01*
X1541595Y1033721D02*
Y1062079D01*
X1532737Y1024862D02*
X1541595Y1033721D01*
X1967829Y971673D02*
X2022218Y917284D01*
X1905313Y971673D02*
X1967829D01*
X1892025Y984961D02*
X1905313Y971673D01*
X1892025Y984961D02*
Y1025219D01*
X1889961Y1027284D02*
X1892025Y1025219D01*
D30*
X2783180Y2698075D02*
X2904287D01*
X2904528Y2697835D01*
X2783180Y2698075D02*
X2783180Y2698075D01*
X2638998Y2339231D02*
X2639168Y2339401D01*
X1190682Y2058582D02*
X1196263Y2053002D01*
X1129912Y2058582D02*
X1190682D01*
X1003193Y2058498D02*
X1078647D01*
X2838857Y2560280D02*
X2859103Y2540034D01*
Y1506585D02*
Y2540034D01*
X2763943Y1411425D02*
X2859103Y1506585D01*
X2821348Y2540595D02*
X2837228Y2524715D01*
Y1782281D02*
Y2524715D01*
X2753785Y1698838D02*
X2837228Y1782281D01*
X2787549Y2406349D02*
X2812013Y2381885D01*
Y1999974D02*
Y2381885D01*
X2766162Y1954122D02*
X2812013Y1999974D01*
X2719095Y2406349D02*
X2787549D01*
X2748886Y2382443D02*
X2777884Y2353445D01*
Y2248784D02*
Y2353445D01*
X2754294Y2225193D02*
X2777884Y2248784D01*
X2705613Y2225193D02*
X2754294D01*
X2715163Y2382443D02*
X2748886D01*
X1997718Y1763745D02*
X2061233D01*
X1953950Y1719977D02*
X1997718Y1763745D01*
X1953950Y1669061D02*
Y1719977D01*
X614055Y1990039D02*
X994888D01*
X1004886Y1980042D01*
X897413Y2410267D02*
X902286Y2415141D01*
X715385Y2410267D02*
X897413D01*
X710512Y2405394D02*
X715385Y2410267D01*
X902286Y2415141D02*
X967685D01*
X612087Y2110118D02*
X797139D01*
X848759Y2058498D02*
X1003193D01*
X797139Y2110118D02*
X848759Y2058498D01*
X710512Y2523504D02*
X722972Y2511043D01*
X892319D02*
X903146Y2500216D01*
X722972Y2511043D02*
X892319D01*
X612087Y1992008D02*
X614055Y1990039D01*
X1004886Y1980042D02*
X1073052D01*
X903146Y2500216D02*
X972945D01*
X1073052Y1980042D02*
X1075329Y1977764D01*
X2474856Y2326934D02*
X2487905Y2339983D01*
X2474856Y2295216D02*
Y2326934D01*
X2433220Y2341676D02*
X2451616D01*
X2430207Y2338662D02*
X2433220Y2341676D01*
X2451616D02*
X2468220Y2358279D01*
X2350451Y2376486D02*
X2419358D01*
X2323582Y2349617D02*
X2350451Y2376486D01*
X2342298Y2396171D02*
X2406883D01*
X2296058Y2349932D02*
X2342298Y2396171D01*
X2330741Y2415856D02*
X2398729D01*
X2273542Y2358657D02*
X2330741Y2415856D01*
X2035160Y2314983D02*
X2066090D01*
X2071293Y2348023D02*
X2283549Y2560280D01*
X2025188Y2348023D02*
X2071293D01*
X2094686Y2407184D02*
X2267466Y2579965D01*
X2025947Y2407184D02*
X2094686D01*
X2241748Y2599759D02*
X2241857Y2599650D01*
X2218165Y2599759D02*
X2241748D01*
X2215152Y2602773D02*
X2218165Y2599759D01*
X2222041Y2647305D02*
X2250011Y2619335D01*
X2220617Y2733793D02*
X2263640Y2776815D01*
X2330424D01*
X2783180Y2560280D02*
X2838857D01*
X2783180Y2540595D02*
X2821348D01*
X2704440Y2421005D02*
X2719095Y2406349D01*
X2704440Y2421005D02*
Y2461855D01*
X2684755Y2412851D02*
X2715163Y2382443D01*
X2684755Y2412851D02*
Y2461855D01*
X2566645Y2914610D02*
Y2954709D01*
X2531052Y2990301D02*
X2566645Y2954709D01*
X2531052Y2990301D02*
Y3001579D01*
X2527275Y2914610D02*
Y2947773D01*
X2410674Y3064374D02*
X2527275Y2947773D01*
X2528039Y3004593D02*
X2531052Y3001579D01*
X2576522Y2980605D02*
Y2984867D01*
Y2980605D02*
X2586330Y2970798D01*
Y2914610D02*
Y2970798D01*
X2267466Y2579965D02*
X2330424D01*
X2283549Y2560280D02*
X2330424D01*
X2066090Y2314983D02*
X2291702Y2540595D01*
X2330424D01*
X2241857Y2599650D02*
X2330424D01*
X2250011Y2619335D02*
X2330424D01*
X2273542Y1845343D02*
Y2358657D01*
X2296058Y1713845D02*
Y2349932D01*
X2323582Y1625453D02*
Y2349617D01*
X2419358Y2376486D02*
X2448534Y2405663D01*
Y2461855D01*
X2406883Y2396171D02*
X2428849Y2418138D01*
Y2461855D01*
X2398729Y2415856D02*
X2409164Y2426292D01*
Y2461855D01*
X2468220Y2358279D02*
Y2461855D01*
X2487905Y2339983D02*
Y2461855D01*
X1930144Y2311381D02*
X2025947Y2407184D01*
X1930144Y1850346D02*
Y2311381D01*
X1949829Y2272664D02*
X2025188Y2348023D01*
X1949829Y1818089D02*
Y2272664D01*
X1971374Y2251197D02*
X2035160Y2314983D01*
X1971374Y1765240D02*
Y2251197D01*
X2181869Y2772736D02*
X2205633Y2796500D01*
X2330424D01*
X2148730Y2733793D02*
X2220617D01*
X2114053Y2772736D02*
X2181869D01*
X2432242Y2757130D02*
X2489780Y2814669D01*
X2330424Y2757130D02*
X2432242D01*
X2489780Y2814669D02*
X2536143D01*
X2500131Y2771370D02*
X2510854D01*
X2466206Y2737445D02*
X2500131Y2771370D01*
X2330424Y2737445D02*
X2466206D01*
X2522553Y2377023D02*
X2653160D01*
X2553120Y2339231D02*
X2638998D01*
X2639168Y2339401D02*
X2639338Y2339231D01*
X2330424Y2698075D02*
X2783180D01*
X2246138Y2699517D02*
X2246498D01*
X2264028Y2698075D02*
X2283713Y2678390D01*
X2330424D01*
X2262586Y2699517D02*
X2264028Y2698075D01*
X2330424D01*
X2262586Y2699517D02*
X2264939D01*
X2283183Y2717760D01*
X2330424D01*
X1719723Y2127720D02*
X1731771Y2115671D01*
X1488625Y2127720D02*
X1719723D01*
X1438197Y2151412D02*
X1766054D01*
X2119730Y3025785D02*
X2243984D01*
X2355158Y2914610D01*
X2409164D01*
X1742673Y2682104D02*
X1745145Y2679633D01*
X1542005Y2682104D02*
X1742673D01*
X1501329Y2711664D02*
X1782026D01*
X1387414Y2100628D02*
X1438197Y2151412D01*
X1387414Y1999111D02*
Y2100628D01*
X1456524Y2095619D02*
X1488625Y2127720D01*
X1456524Y2052173D02*
Y2095619D01*
X1387414Y1999111D02*
X1409155Y1977370D01*
X1456524D01*
X2693651Y1411425D02*
X2763943D01*
X2695670Y1698838D02*
X2753785D01*
X2699904Y1954122D02*
X2766162D01*
X1911123Y1704989D02*
X1971374Y1765240D01*
X1949257Y1817517D02*
X1949829Y1818089D01*
X1893543Y1813745D02*
X1930144Y1850346D01*
X1846666Y1813745D02*
X1893543D01*
X1949257Y1774953D02*
Y1817517D01*
X1888050Y1713745D02*
X1949257Y1774953D01*
X1911123Y1637338D02*
Y1704989D01*
X1889791Y1616005D02*
X1911123Y1637338D01*
X1848926Y1616005D02*
X1889791D01*
X1846666Y1613745D02*
X1848926Y1616005D01*
X1846666Y1713745D02*
X1888050D01*
X2241944Y1813745D02*
X2273542Y1845343D01*
X2061233Y1813745D02*
X2241944D01*
X2245958Y1663745D02*
X2296058Y1713845D01*
X2061233Y1663745D02*
X2245958D01*
X2261875Y1563745D02*
X2323582Y1625453D01*
X2061233Y1563745D02*
X2261875D01*
X1557082Y1686330D02*
X1563388Y1680024D01*
X1509153Y1686330D02*
X1557082D01*
X1448664Y1746819D02*
X1509153Y1686330D01*
X1178347Y1746819D02*
X1448664D01*
X1727971Y1764852D02*
X1729078Y1763745D01*
X1721052Y1804878D02*
X1727971Y1797959D01*
Y1764852D02*
Y1797959D01*
X1586557Y1804878D02*
X1721052D01*
X1583483Y1801803D02*
X1586557Y1804878D01*
X1579221Y1801803D02*
X1583483D01*
X1518544Y1728513D02*
Y1729910D01*
X1476898Y1771556D02*
X1518544Y1729910D01*
X1181449Y1771556D02*
X1476898D01*
X1195551Y917284D02*
X1322344Y1044076D01*
Y1271862D01*
X1360501Y2500601D02*
X1542005Y2682104D01*
X1297509Y2507843D02*
X1501329Y2711664D01*
X2046962Y2838077D02*
X2059255Y2825785D01*
X2127786D01*
X2046962Y2838077D02*
Y3089751D01*
X2110248Y3088892D02*
X2110675Y3088466D01*
Y3034840D02*
Y3088466D01*
Y3034840D02*
X2119730Y3025785D01*
X1297509Y2443514D02*
Y2507843D01*
Y2443514D02*
X1313719Y2427304D01*
X1349152D01*
X1350658Y2425798D01*
Y2500601D02*
X1360501D01*
X1085523Y2153691D02*
X1107996D01*
X1128707Y2132979D01*
X1278104D01*
X1022991Y1505261D02*
Y1671247D01*
X1242853Y2424291D02*
X1244359Y2425798D01*
X1104144Y2424291D02*
X1242853D01*
X1101713Y2421860D02*
X1104144Y2424291D01*
X1242853Y2499094D02*
X1244359Y2500601D01*
X1104144Y2499094D02*
X1242853D01*
X1101713Y2496664D02*
X1104144Y2499094D01*
X972945Y2500216D02*
X974648Y2501919D01*
X1025829D02*
X1031085Y2496664D01*
X1101713D01*
X1029080Y2421860D02*
X1101713D01*
X1020613Y2413394D02*
X1029080Y2421860D01*
X967685Y2415141D02*
X969432Y2413394D01*
X1195849Y1977784D02*
X1196263Y1978198D01*
X1192889Y1974825D02*
X1195849Y1977784D01*
X1349811D01*
X1350225Y1977370D01*
X1197092Y2052173D02*
X1350225D01*
X1196263Y2053002D02*
X1197092Y2052173D01*
X1078647Y2058498D02*
X1078731Y2058582D01*
X1126510Y1977764D02*
X1133083Y1971192D01*
X1136715Y1974825D02*
X1192889D01*
X1133083Y1971192D02*
X1136715Y1974825D01*
X2318576Y3072273D02*
X2321589Y3069259D01*
Y3054431D02*
Y3069259D01*
Y3054431D02*
X2382416Y2993604D01*
X2409977D01*
X2448534Y2955047D01*
Y2914610D02*
Y2955047D01*
X2282676Y2883640D02*
X2303438D01*
X2349978Y2968854D02*
X2406888D01*
X2428849Y2946893D01*
Y2914610D02*
Y2946893D01*
X2226857Y2994244D02*
X2231118D01*
X2208397Y2975785D02*
X2226857Y2994244D01*
X2127786Y2975785D02*
X2208397D01*
X2371734Y3064374D02*
X2410674D01*
X2222440Y2925785D02*
X2237920Y2941265D01*
X2127786Y2925785D02*
X2222440D01*
X2219628Y2875785D02*
X2236130Y2892287D01*
X2127786Y2875785D02*
X2219628D01*
X2224820Y2825785D02*
X2282676Y2883640D01*
X2127786Y2825785D02*
X2224820D01*
X2389688Y3025307D02*
X2421902D01*
X2421983Y3025226D01*
X2468220Y2914610D02*
Y2978989D01*
X2421983Y3025226D02*
X2468220Y2978989D01*
D31*
X1419077Y2307082D02*
Y2463199D01*
X775004Y2695233D02*
X1259524D01*
X764130D02*
X775004D01*
X710512Y2641614D02*
X764130Y2695233D01*
X710512Y2759724D02*
X775004Y2695233D01*
X2691564Y2075352D02*
X2695439Y2079227D01*
X2759916D01*
X2688639Y1824159D02*
X2690146Y1825666D01*
X2703928D01*
X2710970Y1832708D01*
X2759916D01*
X2694315Y1543927D02*
X2711688Y1561299D01*
X2759634D01*
X2759916Y1561581D01*
X2684861Y1242323D02*
X2686368Y1243830D01*
X2756075D01*
X2759916Y1247671D01*
X2246498Y2699517D02*
X2262586D01*
X1979285D02*
X2246138D01*
X1887146Y2791655D02*
X1979285Y2699517D01*
X1887146Y2791655D02*
Y2864005D01*
X1832936Y2918215D02*
X1887146Y2864005D01*
X1832936Y2918215D02*
Y3014564D01*
X1844467Y3026095D01*
X1886670D01*
X1545000Y2950110D02*
Y3051299D01*
Y2950110D02*
X1596789Y2898320D01*
X1764865D01*
X1820111Y2843075D01*
Y2204421D02*
Y2843075D01*
X1518178Y2012655D02*
X1525106Y2005726D01*
Y1987154D02*
Y2005726D01*
Y1987154D02*
X1540526Y1971734D01*
Y1966983D02*
Y1971734D01*
Y1966983D02*
X1743480D01*
X2061233Y1863745D02*
X2076900D01*
X2088302Y1875147D01*
Y1952094D01*
X2146545Y1948330D02*
X2148051Y1946823D01*
X2092066Y1948330D02*
X2146545D01*
X2088302Y1952094D02*
X2092066Y1948330D01*
X1743480Y1966983D02*
X1752009Y1975512D01*
X2109819Y3140502D02*
X2110248Y3140073D01*
X2047391Y3140502D02*
X2109819D01*
X2046962Y3140932D02*
X2047391Y3140502D01*
X1974243Y3090551D02*
X2017734Y3134042D01*
X2040072D01*
X2046962Y3140932D01*
X1974243Y3025785D02*
Y3090551D01*
X1974087Y3025940D02*
X1974243Y3025785D01*
X1886825Y3025940D02*
X1974087D01*
X1886670Y3026095D02*
X1886825Y3025940D01*
X1886670Y3026095D02*
Y3075706D01*
X1829114Y3133262D02*
X1886670Y3075706D01*
X1654813Y3133262D02*
X1829114D01*
X1632106Y2978956D02*
X1635551Y2982402D01*
X1632106Y2958577D02*
Y2978956D01*
X1630599Y2957070D02*
X1632106Y2958577D01*
X1635551Y2982402D02*
Y3051299D01*
X1513405Y2556826D02*
X1607873Y2651294D01*
X1513405Y2517205D02*
Y2556826D01*
X1689778Y2486738D02*
X1690558Y2487519D01*
X1543872Y2486738D02*
X1689778D01*
X1513405Y2517205D02*
X1543872Y2486738D01*
X1425604Y2517205D02*
X1513405D01*
X1419746Y2511347D02*
X1425604Y2517205D01*
X1419746Y2462530D02*
Y2511347D01*
X1419077Y2307082D02*
X1505532Y2220626D01*
X1419077Y2463199D02*
X1419746Y2462530D01*
X1350658Y2463199D02*
X1419077D01*
X1516061Y2014772D02*
X1518178Y2012655D01*
X1456524Y2014772D02*
X1516061D01*
X1635551Y3113999D02*
X1654813Y3133262D01*
X1635551Y3051299D02*
Y3113999D01*
D32*
X493976Y2858150D02*
X643110Y3007284D01*
X993032D01*
X493976Y2858150D02*
X519331Y2883504D01*
X228734Y2238577D02*
X277244Y2287087D01*
X395551Y2405394D02*
X402557Y2398388D01*
X827504Y859278D02*
X938931D01*
X754477Y932304D02*
X827504Y859278D01*
X754477Y932304D02*
Y1217845D01*
X228734Y1743589D02*
X754477Y1217845D01*
X228734Y1743589D02*
Y2238577D01*
X277244Y2287087D02*
X395551Y2405394D01*
X277244Y2287087D02*
X395354D01*
X395551Y2287284D01*
X355551Y143583D02*
X461207Y249238D01*
X822905D01*
X980950Y407284D01*
X1155551D01*
X2271230Y850106D02*
X2316988D01*
X1990781D02*
X2271230D01*
X2266954Y845830D02*
X2271230Y850106D01*
X2266954Y325251D02*
Y845830D01*
Y325251D02*
X2421142Y171063D01*
X2316988Y850106D02*
X2384166Y917284D01*
X2385551D01*
X1923603D02*
X1990781Y850106D01*
X1922218Y917284D02*
X1923603D01*
X1531405Y844763D02*
X1849697D01*
X1922218Y917284D01*
X1458884D02*
X1531405Y844763D01*
X1391077Y847433D02*
X1422550Y878905D01*
Y879564D01*
X1458884Y915899D01*
Y917284D01*
X1117354Y847433D02*
X1391077D01*
X1031535Y761614D02*
X1117354Y847433D01*
X938931Y854219D02*
X1031535Y761614D01*
X938931Y859278D02*
X995551Y915899D01*
Y917284D01*
X395551Y2759724D02*
X493976Y2858150D01*
Y2700669D02*
Y2858150D01*
D33*
X998106Y1379318D02*
X1109294D01*
X960784Y1341995D02*
X998106Y1379318D01*
X960784Y1101640D02*
Y1341995D01*
X1135551Y1305315D02*
Y1353061D01*
X1109294Y1379318D02*
X1135551Y1353061D01*
X1045000Y1305315D02*
X1056307Y1294008D01*
Y1240354D02*
X1125565Y1171097D01*
X1056307Y1240354D02*
Y1294008D01*
X1095551Y1139115D02*
X1126549Y1170113D01*
X1156780Y1200344D01*
Y1202312D01*
X1095551Y917284D02*
Y1139115D01*
X2167444Y1513745D02*
X2168165Y1514466D01*
X2173559Y1613745D02*
X2174280Y1613024D01*
X1727361Y1762028D02*
X1729078Y1763745D01*
X1726592Y1563054D02*
X1727283Y1563745D01*
X872168Y928386D02*
Y1070112D01*
X903697Y1101640D01*
X960784D01*
D34*
X355551Y1127835D02*
X500678Y982708D01*
Y352130D02*
Y982708D01*
X1427027Y3051299D02*
X1545000D01*
X1380886Y3097441D02*
X1427027Y3051299D01*
X1246968Y3097441D02*
X1380886D01*
D35*
X2421142Y761614D02*
D03*
X2590433D02*
D03*
X1494738D02*
D03*
X1664029D02*
D03*
X1957940D02*
D03*
X2127231D02*
D03*
X1031535D02*
D03*
X1200827D02*
D03*
D36*
X2545157Y407284D02*
D03*
X2395551Y545079D02*
D03*
X2421142Y171063D02*
D03*
X1618753Y407284D02*
D03*
X1469147Y545079D02*
D03*
X1494738Y171063D02*
D03*
X2081955Y407284D02*
D03*
X1932349Y545079D02*
D03*
X1957940Y171063D02*
D03*
X1155551Y407284D02*
D03*
X1005945Y545079D02*
D03*
X1031535Y171063D02*
D03*
D37*
X650827Y143583D02*
D03*
X355551D02*
D03*
X650827Y537284D02*
D03*
Y340433D02*
D03*
X355551Y537284D02*
D03*
Y340433D02*
D03*
Y1127835D02*
D03*
X650827D02*
D03*
D38*
X1922218Y917284D02*
D03*
X2022218D02*
D03*
X2122218D02*
D03*
X2385551D02*
D03*
X2485551D02*
D03*
X2585551D02*
D03*
X1458884D02*
D03*
X1558884D02*
D03*
X1658884D02*
D03*
X995551D02*
D03*
X1095551D02*
D03*
X1195551D02*
D03*
D39*
X139646Y1529409D02*
D03*
Y3045157D02*
D03*
D40*
X395551Y2759724D02*
D03*
Y2641614D02*
D03*
Y2523504D02*
D03*
Y2405394D02*
D03*
Y2287284D02*
D03*
Y2169173D02*
D03*
Y2051063D02*
D03*
Y1932953D02*
D03*
Y1814842D02*
D03*
X493976Y2700669D02*
D03*
Y2582559D02*
D03*
Y2464449D02*
D03*
Y2346339D02*
D03*
Y2228228D02*
D03*
Y2110118D02*
D03*
Y1992008D02*
D03*
Y1873898D02*
D03*
X612087Y2700669D02*
D03*
Y2582559D02*
D03*
Y2464449D02*
D03*
Y2346339D02*
D03*
Y2228228D02*
D03*
Y2110118D02*
D03*
Y1992008D02*
D03*
Y1873898D02*
D03*
X710512Y2759724D02*
D03*
Y2641614D02*
D03*
Y2523504D02*
D03*
Y2405394D02*
D03*
Y2287284D02*
D03*
Y2169173D02*
D03*
Y2051063D02*
D03*
Y1932953D02*
D03*
Y1814842D02*
D03*
D41*
X2850000Y150000D02*
D03*
Y3100000D02*
D03*
D42*
X787402Y2145669D02*
D03*
X826772Y2460630D02*
D03*
X2283465Y1653543D02*
D03*
X1771653Y1614173D02*
D03*
X1358268Y2362205D02*
D03*
X1476378Y2401575D02*
D03*
X2904528Y2697835D02*
D03*
X2083662Y2550197D02*
D03*
X1259524Y2695233D02*
D03*
X2691564Y2075352D02*
D03*
X2688639Y1824159D02*
D03*
X2694315Y1543927D02*
D03*
X2684861Y1242323D02*
D03*
X2528039Y3004593D02*
D03*
X2576522Y2984867D02*
D03*
X2215152Y2602773D02*
D03*
X2222041Y2647305D02*
D03*
X2430207Y2338662D02*
D03*
X2474856Y2295216D02*
D03*
X2536143Y2814669D02*
D03*
X2510854Y2771370D02*
D03*
X2553120Y2339231D02*
D03*
X2148730Y2733793D02*
D03*
X2114053Y2772736D02*
D03*
X2522553Y2377023D02*
D03*
X2653160D02*
D03*
X2639338Y2339231D02*
D03*
X2246498Y2699517D02*
D03*
X1731771Y2115671D02*
D03*
X1766054Y2151412D02*
D03*
X1745145Y2679633D02*
D03*
X1782026Y2711664D02*
D03*
X1540526Y1966983D02*
D03*
X1820111Y2204421D02*
D03*
X2148051Y1946823D02*
D03*
X1752009Y1975512D02*
D03*
X1630599Y2957070D02*
D03*
X1607873Y2651294D02*
D03*
X1690558Y2487519D02*
D03*
X1505532Y2220626D02*
D03*
X1953950Y1669061D02*
D03*
X1911616Y1452318D02*
D03*
X2001464D02*
D03*
X1563388Y1680024D02*
D03*
X1579221Y1801803D02*
D03*
X1518544Y1728513D02*
D03*
X1322344Y1271862D02*
D03*
X1085523Y2153691D02*
D03*
X1278104Y2132979D02*
D03*
X1022991Y1505261D02*
D03*
Y1671247D02*
D03*
X2303438Y2883640D02*
D03*
X1538694Y3129265D02*
D03*
X1654813Y3133262D02*
D03*
X2231118Y2994244D02*
D03*
X2237920Y2941265D02*
D03*
X2236130Y2892287D02*
D03*
X2389688Y3025307D02*
D03*
X2371734Y3064374D02*
D03*
X2318576Y3072273D02*
D03*
X2349978Y2968854D02*
D03*
D43*
X1886811Y2920276D02*
D03*
X917323Y2026575D02*
D03*
X1630906Y1767716D02*
D03*
X1471457Y1614173D02*
D03*
X1515748Y1894685D02*
D03*
D44*
X1609252Y2034449D02*
D03*
X1774059Y1007860D02*
D03*
X872168Y928386D02*
D03*
X500678Y352130D02*
D03*
%TF.MD5,1b382136e68742d0757bc9e211ee3b6c*%
M02*
