%TF.GenerationSoftware,Altium Limited,Altium Designer,19.1.7 (138)*%
G04 Layer_Color=8421504*
%FSLAX26Y26*%
%MOIN*%
%TF.FileFunction,Paste,Top*%
%TF.Part,Single*%
G01*
G75*
%TA.AperFunction,SMDPad,CuDef*%
%ADD10R,0.029921X0.094488*%
%ADD11R,0.053150X0.011811*%
%ADD12R,0.011811X0.053150*%
%ADD13O,0.057087X0.023622*%
%ADD14O,0.039370X0.019685*%
%ADD15R,0.023622X0.082677*%
%ADD16R,0.125984X0.082677*%
%ADD17R,0.080709X0.045276*%
%ADD18R,0.037402X0.033465*%
%ADD19R,0.033465X0.037402*%
%ADD20R,0.039370X0.118110*%
%ADD21R,0.218504X0.251969*%
%ADD22R,0.031496X0.035433*%
%ADD23R,0.051181X0.043307*%
%ADD24R,0.035433X0.031496*%
%ADD25R,0.053150X0.057087*%
%ADD26R,0.035433X0.039370*%
%ADD27R,0.039370X0.035433*%
D10*
X2502487Y3035638D02*
D03*
Y3189182D02*
D03*
X2552487Y3035638D02*
D03*
Y3189182D02*
D03*
X2602487Y3035638D02*
D03*
Y3189182D02*
D03*
X2652487Y3035638D02*
D03*
Y3189182D02*
D03*
X2702487Y3035638D02*
D03*
Y3189182D02*
D03*
D11*
X2415940Y2540638D02*
D03*
Y2520953D02*
D03*
Y2501268D02*
D03*
Y2481583D02*
D03*
Y2461898D02*
D03*
Y2442213D02*
D03*
Y2422528D02*
D03*
Y2402843D02*
D03*
Y2383157D02*
D03*
Y2363472D02*
D03*
Y2343787D02*
D03*
Y2324102D02*
D03*
Y2304417D02*
D03*
Y2284732D02*
D03*
Y2265047D02*
D03*
Y2245362D02*
D03*
X2868696D02*
D03*
Y2265047D02*
D03*
Y2284732D02*
D03*
Y2304417D02*
D03*
Y2324102D02*
D03*
Y2343787D02*
D03*
Y2363472D02*
D03*
Y2383157D02*
D03*
Y2402843D02*
D03*
Y2422528D02*
D03*
Y2442213D02*
D03*
Y2461898D02*
D03*
Y2481583D02*
D03*
Y2501268D02*
D03*
Y2520953D02*
D03*
Y2540638D02*
D03*
D12*
X2494680Y2166622D02*
D03*
X2514365D02*
D03*
X2534050D02*
D03*
X2553735D02*
D03*
X2573421D02*
D03*
X2593106D02*
D03*
X2612791D02*
D03*
X2632476D02*
D03*
X2652161D02*
D03*
X2671846D02*
D03*
X2691531D02*
D03*
X2711216D02*
D03*
X2730901D02*
D03*
X2750586D02*
D03*
X2770271D02*
D03*
X2789956D02*
D03*
Y2619378D02*
D03*
X2770271D02*
D03*
X2750586D02*
D03*
X2730901D02*
D03*
X2711216D02*
D03*
X2691531D02*
D03*
X2671846D02*
D03*
X2652161D02*
D03*
X2632476D02*
D03*
X2612791D02*
D03*
X2593106D02*
D03*
X2573421D02*
D03*
X2553735D02*
D03*
X2534050D02*
D03*
X2514365D02*
D03*
X2494680D02*
D03*
D13*
X1627569Y1600001D02*
D03*
Y1650001D02*
D03*
Y1700001D02*
D03*
Y1750001D02*
D03*
Y1800001D02*
D03*
Y1850001D02*
D03*
Y1900001D02*
D03*
Y1950001D02*
D03*
X1413002Y1600001D02*
D03*
Y1650001D02*
D03*
Y1700001D02*
D03*
Y1750001D02*
D03*
Y1800001D02*
D03*
Y1850001D02*
D03*
Y1900001D02*
D03*
Y1950001D02*
D03*
X1064725Y2981000D02*
D03*
Y2931000D02*
D03*
Y2881000D02*
D03*
Y2831000D02*
D03*
X1279291Y2981000D02*
D03*
Y2931000D02*
D03*
Y2881000D02*
D03*
Y2831000D02*
D03*
X1064717Y2309000D02*
D03*
Y2259000D02*
D03*
Y2209000D02*
D03*
Y2159000D02*
D03*
X1279284Y2309000D02*
D03*
Y2259000D02*
D03*
Y2209000D02*
D03*
Y2159000D02*
D03*
D14*
X1994094Y2624016D02*
D03*
Y2586614D02*
D03*
Y2549213D02*
D03*
X2100394Y2624016D02*
D03*
Y2586614D02*
D03*
Y2549213D02*
D03*
X1995228Y2258984D02*
D03*
Y2221583D02*
D03*
Y2184181D02*
D03*
X2101528Y2258984D02*
D03*
Y2221583D02*
D03*
Y2184181D02*
D03*
D15*
X724000Y3677874D02*
D03*
X774000D02*
D03*
X824000D02*
D03*
X874000D02*
D03*
X924000D02*
D03*
D16*
X824000Y3912126D02*
D03*
D17*
X1128018Y3682087D02*
D03*
X970534Y3372637D02*
D03*
D18*
X3074803Y2572835D02*
D03*
Y2624016D02*
D03*
X2960000Y2150000D02*
D03*
Y2201181D02*
D03*
X3075000Y2410000D02*
D03*
Y2461181D02*
D03*
X1975394Y2753937D02*
D03*
Y2805118D02*
D03*
X972295Y2984295D02*
D03*
Y2933114D02*
D03*
X987000Y2309591D02*
D03*
Y2258410D02*
D03*
D19*
X1965551Y3685961D02*
D03*
X2016732D02*
D03*
X2142716D02*
D03*
X2193898D02*
D03*
X2770669D02*
D03*
X2821850D02*
D03*
X2944882D02*
D03*
X2996063D02*
D03*
X2352362D02*
D03*
X2403543D02*
D03*
X2528543D02*
D03*
X2579724D02*
D03*
X1295275D02*
D03*
X1346457D02*
D03*
X1522638Y3686024D02*
D03*
X1471457D02*
D03*
X1719488Y3685039D02*
D03*
X1770669D02*
D03*
X1810039Y2631890D02*
D03*
X1861220D02*
D03*
X1588583Y2188976D02*
D03*
X1639764D02*
D03*
X1588583Y2330708D02*
D03*
X1639764D02*
D03*
D20*
X416158Y3654937D02*
D03*
X235843D02*
D03*
D21*
X326000Y3401000D02*
D03*
D22*
X2732284Y3487206D02*
D03*
X2694882Y3565946D02*
D03*
X2769685D02*
D03*
X2314961Y3484693D02*
D03*
X2277559Y3563433D02*
D03*
X2352362D02*
D03*
X1929134Y3487205D02*
D03*
X1891732Y3565945D02*
D03*
X1966535D02*
D03*
X1503937Y3484252D02*
D03*
X1466535Y3562992D02*
D03*
X1541339D02*
D03*
D23*
X2141732Y3488189D02*
D03*
Y3578740D02*
D03*
X2334999Y1084446D02*
D03*
Y1174997D02*
D03*
X1591971Y1102909D02*
D03*
Y1193460D02*
D03*
X1198272Y1097005D02*
D03*
Y1187556D02*
D03*
X1985673Y1097005D02*
D03*
Y1187556D02*
D03*
X2944881Y3481781D02*
D03*
Y3572332D02*
D03*
X2527559Y3481780D02*
D03*
Y3572331D02*
D03*
X1719362Y3473780D02*
D03*
Y3564331D02*
D03*
D24*
X1791339Y2495079D02*
D03*
X1870079Y2532480D02*
D03*
Y2457677D02*
D03*
X1791339Y2235236D02*
D03*
X1870079Y2272638D02*
D03*
Y2197835D02*
D03*
D25*
X693071Y3527145D02*
D03*
X576929D02*
D03*
D26*
X588573Y3376512D02*
D03*
X535423D02*
D03*
X2111221Y2487204D02*
D03*
X2164371D02*
D03*
X2652425Y3307000D02*
D03*
X2705575D02*
D03*
X2213583Y2283465D02*
D03*
X2266732D02*
D03*
X2204724Y2379921D02*
D03*
X2257874D02*
D03*
X1468575Y1448819D02*
D03*
X1415425D02*
D03*
X1564962Y1448822D02*
D03*
X1618112D02*
D03*
X2270669Y2637795D02*
D03*
X2217520D02*
D03*
X2270669Y2165354D02*
D03*
X2217520D02*
D03*
X1062992Y2433071D02*
D03*
X1116142D02*
D03*
X1115158Y3526000D02*
D03*
X1168307D02*
D03*
X853346Y3530001D02*
D03*
X800197D02*
D03*
X987641Y1142280D02*
D03*
X1040791D02*
D03*
X1815397Y1142282D02*
D03*
X1762247D02*
D03*
X1823820Y1698818D02*
D03*
X1876968D02*
D03*
X1819427Y1798000D02*
D03*
X1872575D02*
D03*
X1640746Y2472440D02*
D03*
X1587596D02*
D03*
X799850Y3374017D02*
D03*
X853000D02*
D03*
X957674Y3527561D02*
D03*
X1010824D02*
D03*
X535425Y3656998D02*
D03*
X588573D02*
D03*
X948819Y2676181D02*
D03*
X1001967D02*
D03*
X1030510Y1732284D02*
D03*
X977362D02*
D03*
X1028542Y1898622D02*
D03*
X975394D02*
D03*
X1120574Y2070001D02*
D03*
X1067426D02*
D03*
X1825787Y1944882D02*
D03*
X1878935D02*
D03*
X1640748Y2614171D02*
D03*
X1587598D02*
D03*
X1482720Y1143263D02*
D03*
X1429572D02*
D03*
X2209099Y1142278D02*
D03*
X2155951D02*
D03*
D27*
X2964567Y2338583D02*
D03*
Y2391732D02*
D03*
X1062992Y3093503D02*
D03*
Y3146653D02*
D03*
X1405000Y2882425D02*
D03*
Y2935575D02*
D03*
X1361000Y2209425D02*
D03*
Y2262575D02*
D03*
X1009999Y1631573D02*
D03*
Y1578425D02*
D03*
X941929Y2820865D02*
D03*
Y2767716D02*
D03*
X1801000Y2744425D02*
D03*
Y2797575D02*
D03*
X988001Y2200574D02*
D03*
Y2147426D02*
D03*
X2852000Y3089567D02*
D03*
Y3036419D02*
D03*
X2158000Y3089566D02*
D03*
Y3036416D02*
D03*
%TF.MD5,480097376b487d8c6d3d517b029d556d*%
M02*
