%TF.GenerationSoftware,Altium Limited,Altium Designer,19.1.8 (144)*%
G04 Layer_Color=16711935*
%FSLAX26Y26*%
%MOIN*%
%TF.FileFunction,Soldermask,Bot*%
%TF.Part,Single*%
G01*
G75*
%TA.AperFunction,SMDPad,CuDef*%
%ADD54R,0.043433X0.047370*%
%ADD55R,0.047370X0.043433*%
%ADD56R,0.061150X0.065087*%
%ADD57R,0.065087X0.061150*%
%ADD58R,0.045402X0.041465*%
%ADD59R,0.041465X0.045402*%
%ADD60O,0.065087X0.031622*%
%ADD61O,0.031622X0.065087*%
%TA.AperFunction,ComponentPad*%
%ADD62C,0.086740*%
%ADD63C,0.106425*%
%ADD64C,0.098551*%
%ADD65C,0.063118*%
%ADD66C,0.137921*%
%ADD67C,0.094614*%
%TA.AperFunction,ViaPad*%
%ADD68C,0.185165*%
D54*
X1371057Y1433219D02*
D03*
X1424207D02*
D03*
X1251467Y1444384D02*
D03*
X1198317D02*
D03*
X1414370Y1844488D02*
D03*
X1467520D02*
D03*
X1295861Y1848323D02*
D03*
X1242711D02*
D03*
X2724157Y2699173D02*
D03*
X2671007D02*
D03*
X2401970Y2629421D02*
D03*
X2455119D02*
D03*
X2401576Y2758019D02*
D03*
X2454725D02*
D03*
X2401500Y2694474D02*
D03*
X2454650D02*
D03*
X1489605Y3132861D02*
D03*
X1436455D02*
D03*
X1703107Y3132461D02*
D03*
X1756257D02*
D03*
D55*
X1737584Y2484086D02*
D03*
Y2430936D02*
D03*
X1736712Y2271135D02*
D03*
Y2324284D02*
D03*
D56*
X2603622Y637284D02*
D03*
X2487480D02*
D03*
X1676955D02*
D03*
X1560814D02*
D03*
X2140289D02*
D03*
X2024147D02*
D03*
X1213622D02*
D03*
X1097480D02*
D03*
D57*
X363953Y904724D02*
D03*
Y1020865D02*
D03*
D58*
X1086088Y1685864D02*
D03*
Y1634683D02*
D03*
X1082220Y1555883D02*
D03*
Y1504702D02*
D03*
X1081597Y2100454D02*
D03*
Y2049273D02*
D03*
X1079437Y1984995D02*
D03*
Y1933813D02*
D03*
X2149438Y2586488D02*
D03*
Y2637670D02*
D03*
X2021561Y2590602D02*
D03*
Y2641783D02*
D03*
D59*
X1201880Y1753263D02*
D03*
X1253061D02*
D03*
X1230436Y2181836D02*
D03*
X1281617D02*
D03*
D60*
X1410909Y1669601D02*
D03*
Y1619601D02*
D03*
Y1569601D02*
D03*
Y1519601D02*
D03*
X1196342Y1669601D02*
D03*
Y1619601D02*
D03*
Y1569601D02*
D03*
Y1519601D02*
D03*
X1444502Y2082090D02*
D03*
Y2032091D02*
D03*
Y1982091D02*
D03*
Y1932091D02*
D03*
X1229935Y2082090D02*
D03*
Y2032091D02*
D03*
Y1982091D02*
D03*
Y1932091D02*
D03*
D61*
X2167543Y2264595D02*
D03*
X2117543D02*
D03*
X2067543D02*
D03*
X2017543D02*
D03*
X1967543D02*
D03*
X1917543D02*
D03*
X1867543D02*
D03*
X1817543D02*
D03*
X2167543Y2479162D02*
D03*
X2117543D02*
D03*
X2067543D02*
D03*
X2017543D02*
D03*
X1967543D02*
D03*
X1917543D02*
D03*
X1867543D02*
D03*
X1817543D02*
D03*
D62*
X2421142Y761614D02*
D03*
X2590433D02*
D03*
X1494738D02*
D03*
X1664029D02*
D03*
X1957940D02*
D03*
X2127231D02*
D03*
X1031535D02*
D03*
X1200827D02*
D03*
D63*
X2545157Y407284D02*
D03*
X2395551Y545079D02*
D03*
X2421142Y171063D02*
D03*
X1618753Y407284D02*
D03*
X1469147Y545079D02*
D03*
X1494738Y171063D02*
D03*
X2081955Y407284D02*
D03*
X1932349Y545079D02*
D03*
X1957940Y171063D02*
D03*
X1155551Y407284D02*
D03*
X1005945Y545079D02*
D03*
X1031535Y171063D02*
D03*
D64*
X650827Y143583D02*
D03*
X355551D02*
D03*
X650827Y537284D02*
D03*
Y340433D02*
D03*
X355551Y537284D02*
D03*
Y340433D02*
D03*
Y1127835D02*
D03*
X650827D02*
D03*
D65*
X1922218Y917284D02*
D03*
X2022218D02*
D03*
X2122218D02*
D03*
X2385551D02*
D03*
X2485551D02*
D03*
X2585551D02*
D03*
X1458884D02*
D03*
X1558884D02*
D03*
X1658884D02*
D03*
X995551D02*
D03*
X1095551D02*
D03*
X1195551D02*
D03*
D66*
X139646Y1529409D02*
D03*
Y3045157D02*
D03*
D67*
X395551Y2759724D02*
D03*
Y2641614D02*
D03*
Y2523504D02*
D03*
Y2405394D02*
D03*
Y2287284D02*
D03*
Y2169173D02*
D03*
Y2051063D02*
D03*
Y1932953D02*
D03*
Y1814842D02*
D03*
X493976Y2700669D02*
D03*
Y2582559D02*
D03*
Y2464449D02*
D03*
Y2346339D02*
D03*
Y2228228D02*
D03*
Y2110118D02*
D03*
Y1992008D02*
D03*
Y1873898D02*
D03*
X612087Y2700669D02*
D03*
Y2582559D02*
D03*
Y2464449D02*
D03*
Y2346339D02*
D03*
Y2228228D02*
D03*
Y2110118D02*
D03*
Y1992008D02*
D03*
Y1873898D02*
D03*
X710512Y2759724D02*
D03*
Y2641614D02*
D03*
Y2523504D02*
D03*
Y2405394D02*
D03*
Y2287284D02*
D03*
Y2169173D02*
D03*
Y2051063D02*
D03*
Y1932953D02*
D03*
Y1814842D02*
D03*
D68*
X2850000Y150000D02*
D03*
Y3100000D02*
D03*
%TF.MD5,1057cfcbdfd82faeac6f1bf62b848d7c*%
M02*
