%TF.GenerationSoftware,Altium Limited,Altium Designer,19.1.8 (144)*%
G04 Layer_Color=0*
%FSLAX26Y26*%
%MOIN*%
%TF.FileFunction,Plated,1,2,PTH,Drill*%
%TF.Part,Single*%
G01*
G75*
%TA.AperFunction,ComponentDrill*%
%ADD87C,0.043307*%
%ADD88C,0.055118*%
%ADD89C,0.051181*%
%ADD90C,0.031496*%
%TA.AperFunction,OtherDrill,Pad Free-2 (2850mil,150mil)*%
%ADD91C,0.133858*%
%TA.AperFunction,OtherDrill,Pad Free-2 (2850mil,3100mil)*%
%ADD92C,0.133858*%
%TA.AperFunction,ViaDrill,NotFilled*%
%ADD93C,0.013780*%
%ADD94C,0.028000*%
D87*
X2421142Y761614D02*
D03*
X2590433D02*
D03*
X1494738D02*
D03*
X1664029D02*
D03*
X1957940D02*
D03*
X2127231D02*
D03*
X1031535D02*
D03*
X1200827D02*
D03*
D88*
X2545157Y407284D02*
D03*
X2395551Y545079D02*
D03*
X2421142Y171063D02*
D03*
X1618753Y407284D02*
D03*
X1469147Y545079D02*
D03*
X1494738Y171063D02*
D03*
X2081955Y407284D02*
D03*
X1932349Y545079D02*
D03*
X1957940Y171063D02*
D03*
X1155551Y407284D02*
D03*
X1005945Y545079D02*
D03*
X1031535Y171063D02*
D03*
D89*
X650827Y143583D02*
D03*
X355551D02*
D03*
X650827Y537284D02*
D03*
Y340433D02*
D03*
X355551Y537284D02*
D03*
Y340433D02*
D03*
Y1127835D02*
D03*
X650827D02*
D03*
X395551Y2759724D02*
D03*
Y2641614D02*
D03*
Y2523504D02*
D03*
Y2405394D02*
D03*
Y2287284D02*
D03*
Y2169173D02*
D03*
Y2051063D02*
D03*
Y1932953D02*
D03*
Y1814842D02*
D03*
X493976Y2700669D02*
D03*
Y2582559D02*
D03*
Y2464449D02*
D03*
Y2346339D02*
D03*
Y2228228D02*
D03*
Y2110118D02*
D03*
Y1992008D02*
D03*
Y1873898D02*
D03*
X612087Y2700669D02*
D03*
Y2582559D02*
D03*
Y2464449D02*
D03*
Y2346339D02*
D03*
Y2228228D02*
D03*
Y2110118D02*
D03*
Y1992008D02*
D03*
Y1873898D02*
D03*
X710512Y2759724D02*
D03*
Y2641614D02*
D03*
Y2523504D02*
D03*
Y2405394D02*
D03*
Y2287284D02*
D03*
Y2169173D02*
D03*
Y2051063D02*
D03*
Y1932953D02*
D03*
Y1814842D02*
D03*
D90*
X1922218Y917284D02*
D03*
X2022218D02*
D03*
X2122218D02*
D03*
X2385551D02*
D03*
X2485551D02*
D03*
X2585551D02*
D03*
X1458884D02*
D03*
X1558884D02*
D03*
X1658884D02*
D03*
X995551D02*
D03*
X1095551D02*
D03*
X1195551D02*
D03*
D91*
X2850000Y150000D02*
D03*
D92*
Y3100000D02*
D03*
D93*
X787402Y2145669D02*
D03*
X826772Y2460630D02*
D03*
X2283465Y1653543D02*
D03*
X1771653Y1614173D02*
D03*
X1358268Y2362205D02*
D03*
X1476378Y2401575D02*
D03*
X2904528Y2697835D02*
D03*
X2083662Y2550197D02*
D03*
X1886811Y2920276D02*
D03*
X917323Y2026575D02*
D03*
X1630906Y1767716D02*
D03*
X1471457Y1614173D02*
D03*
X1515748Y1894685D02*
D03*
X1259524Y2695233D02*
D03*
X2691564Y2075352D02*
D03*
X2688639Y1824159D02*
D03*
X2694315Y1543927D02*
D03*
X2684861Y1242323D02*
D03*
X2528039Y3004593D02*
D03*
X2576522Y2984867D02*
D03*
X2215152Y2602773D02*
D03*
X2222041Y2647305D02*
D03*
X2430207Y2338662D02*
D03*
X2474856Y2295216D02*
D03*
X2536143Y2814669D02*
D03*
X2510854Y2771370D02*
D03*
X2553120Y2339231D02*
D03*
X2148730Y2733793D02*
D03*
X2114053Y2772736D02*
D03*
X2522553Y2377023D02*
D03*
X2653160D02*
D03*
X2639338Y2339231D02*
D03*
X2246498Y2699517D02*
D03*
X1731771Y2115671D02*
D03*
X1766054Y2151412D02*
D03*
X1745145Y2679633D02*
D03*
X1782026Y2711664D02*
D03*
X1540526Y1966983D02*
D03*
X1820111Y2204421D02*
D03*
X2148051Y1946823D02*
D03*
X1752009Y1975512D02*
D03*
X1630599Y2957070D02*
D03*
X1607873Y2651294D02*
D03*
X1690558Y2487519D02*
D03*
X1505532Y2220626D02*
D03*
X1953950Y1669061D02*
D03*
X1911616Y1452318D02*
D03*
X2001464D02*
D03*
X1563388Y1680024D02*
D03*
X1579221Y1801803D02*
D03*
X1518544Y1728513D02*
D03*
X1322344Y1271862D02*
D03*
X1085523Y2153691D02*
D03*
X1278104Y2132979D02*
D03*
X1022991Y1505261D02*
D03*
Y1671247D02*
D03*
X2303438Y2883640D02*
D03*
X1538694Y3129265D02*
D03*
X1654813Y3133262D02*
D03*
X2231118Y2994244D02*
D03*
X2237920Y2941265D02*
D03*
X2236130Y2892287D02*
D03*
X2389688Y3025307D02*
D03*
X2371734Y3064374D02*
D03*
X2318576Y3072273D02*
D03*
X2349978Y2968854D02*
D03*
D94*
X1609252Y2034449D02*
D03*
X1774059Y1007860D02*
D03*
X872168Y928386D02*
D03*
X500678Y352130D02*
D03*
%TF.MD5,4425d76a36ef276a4c7149d7360202bb*%
M02*
