%TF.GenerationSoftware,Altium Limited,Altium Designer,19.1.8 (144)*%
G04 Layer_Color=32768*
%FSLAX26Y26*%
%MOIN*%
%TF.FileFunction,Other,Mechanical_15*%
%TF.Part,Single*%
G01*
G75*
%TA.AperFunction,NonConductor*%
%ADD70C,0.003937*%
%ADD84C,0.001968*%
D70*
X1397632Y1414519D02*
Y1451920D01*
X1378931Y1433219D02*
X1416333D01*
X1224892Y1425684D02*
Y1463085D01*
X1206191Y1444384D02*
X1243593D01*
X1440945Y1825787D02*
Y1863189D01*
X1422244Y1844488D02*
X1459646D01*
X1269286Y1829623D02*
Y1867024D01*
X1250585Y1848323D02*
X1287987D01*
X2697582Y2680473D02*
Y2717874D01*
X2678881Y2699173D02*
X2716283D01*
X2428544Y2610720D02*
Y2648121D01*
X2409844Y2629421D02*
X2447245D01*
X2428150Y2739318D02*
Y2776719D01*
X2409450Y2758019D02*
X2446851D01*
X2428075Y2675773D02*
Y2713174D01*
X2409374Y2694474D02*
X2446776D01*
X1718883Y2457511D02*
X1756285D01*
X1737584Y2438811D02*
Y2476212D01*
X1718012Y2297709D02*
X1755413D01*
X1736712Y2279008D02*
Y2316410D01*
X1463030Y3114161D02*
Y3151562D01*
X1444329Y3132861D02*
X1481731D01*
X1729682Y3113760D02*
Y3151161D01*
X1710981Y3132461D02*
X1748383D01*
X2525866Y637284D02*
X2565236D01*
X2545551Y617598D02*
Y656968D01*
X363953Y943109D02*
Y982480D01*
X344268Y962794D02*
X383638D01*
X1599199Y637284D02*
X1638570D01*
X1618884Y617598D02*
Y656968D01*
X2062533Y637284D02*
X2101903D01*
X2082218Y617598D02*
Y656968D01*
X1135866Y637284D02*
X1175236D01*
X1155551Y617598D02*
Y656968D01*
X1067387Y1660274D02*
X1104789D01*
X1086088Y1641573D02*
Y1678974D01*
X1063519Y1530293D02*
X1100921D01*
X1082220Y1511592D02*
Y1548994D01*
X1227470Y1734562D02*
Y1771963D01*
X1208770Y1753263D02*
X1246171D01*
X1256026Y2163135D02*
Y2200536D01*
X1237325Y2181836D02*
X1274727D01*
X1062896Y2074863D02*
X1100298D01*
X1081597Y2056162D02*
Y2093564D01*
X1060736Y1959404D02*
X1098138D01*
X1079437Y1940703D02*
Y1978105D01*
X2130737Y2612079D02*
X2168139D01*
X2149438Y2593378D02*
Y2630780D01*
X2002860Y2616193D02*
X2040262D01*
X2021561Y2597492D02*
Y2634893D01*
X1283940Y1594601D02*
X1323310D01*
X1303625Y1574917D02*
Y1614286D01*
X1317533Y2007091D02*
X1356903D01*
X1337218Y1987406D02*
Y2026775D01*
X1972858Y2371878D02*
X2012228D01*
X1992543Y2352193D02*
Y2391564D01*
X1867969Y2999520D02*
X1905371D01*
X1886670Y2980820D02*
Y3018221D01*
X1847566Y1926466D02*
Y1963867D01*
X1828865Y1945167D02*
X1866267D01*
X2061727Y1933394D02*
Y1970795D01*
X2043026Y1952094D02*
X2080428D01*
X1446321Y2443829D02*
Y2481230D01*
X1427620Y2462530D02*
X1465022D01*
X1544753Y1993954D02*
Y2031355D01*
X1526052Y2012655D02*
X1563454D01*
X1121398Y2459262D02*
X1160768D01*
X1141083Y2439577D02*
Y2478947D01*
X1215948Y2015600D02*
X1255318D01*
X1235633Y1995915D02*
Y2035285D01*
X2447100Y1349910D02*
Y1389281D01*
X2427415Y1369595D02*
X2466785D01*
X2447100Y1635478D02*
Y1674848D01*
X2427415Y1655163D02*
X2466785D01*
X2447100Y1901523D02*
Y1940893D01*
X2427415Y1921207D02*
X2466785D01*
X2447100Y2165099D02*
Y2204470D01*
X2427415Y2184785D02*
X2466785D01*
X2741215Y1273262D02*
X2778617D01*
X2759916Y1254561D02*
Y1291963D01*
X2593116Y1396735D02*
Y1434136D01*
X2574415Y1415436D02*
X2611817D01*
X2674950Y1437015D02*
X2712352D01*
X2693651Y1418315D02*
Y1455716D01*
X2593116Y1680137D02*
Y1717538D01*
X2574415Y1698838D02*
X2611817D01*
X2676969Y1724428D02*
X2714371D01*
X2695670Y1705727D02*
Y1743129D01*
X2741215Y1587171D02*
X2778617D01*
X2759916Y1568471D02*
Y1605872D01*
X2681203Y1979713D02*
X2718605D01*
X2699904Y1961012D02*
Y1998414D01*
X2741215Y1858299D02*
X2778617D01*
X2759916Y1839598D02*
Y1877000D01*
X2593116Y1945327D02*
Y1982728D01*
X2574415Y1964027D02*
X2611817D01*
X2741215Y2104818D02*
X2778617D01*
X2759916Y2086117D02*
Y2123518D01*
X2686912Y2250784D02*
X2724314D01*
X2705613Y2232083D02*
Y2269485D01*
X2591535Y2218504D02*
Y2255905D01*
X2572835Y2237205D02*
X2610236D01*
X1701770Y1743328D02*
Y1780729D01*
X1683069Y1762028D02*
X1720471D01*
X986185Y1954451D02*
X1023587D01*
X1004886Y1935750D02*
Y1973152D01*
X984492Y2084088D02*
X1021894D01*
X1003193Y2065388D02*
Y2102789D01*
X1000239Y2483219D02*
Y2520620D01*
X981538Y2501919D02*
X1018939D01*
X995023Y2394693D02*
Y2432094D01*
X976322Y2413394D02*
X1013723D01*
X1102362Y2049213D02*
Y2086614D01*
X1083661Y2067913D02*
X1121063D01*
X1100920Y1959064D02*
Y1996465D01*
X1082219Y1977764D02*
X1119620D01*
X2556802Y2668548D02*
Y2707918D01*
X2537117Y2688233D02*
X2576487D01*
X1953950Y1669061D02*
Y1708430D01*
X1934265Y1688745D02*
X1973635D01*
X1297509Y2443514D02*
Y2482884D01*
X1277824Y2463199D02*
X1317194D01*
X1403375Y1995086D02*
Y2034457D01*
X1383690Y2014772D02*
X1423060D01*
X1615866Y2927284D02*
X1655236D01*
X1635551Y2907598D02*
Y2946968D01*
X2051014Y2906099D02*
Y2945470D01*
X2031329Y2925785D02*
X2070699D01*
X2091547Y3114483D02*
X2128949D01*
X2110248Y3095782D02*
Y3133183D01*
X1198502Y2805478D02*
Y2842879D01*
X1179801Y2824178D02*
X1217203D01*
X883585Y2389550D02*
X920987D01*
X902286Y2370850D02*
Y2408251D01*
X884445Y2525807D02*
X921847D01*
X903146Y2507106D02*
Y2544508D01*
X2375551Y1008583D02*
Y1045984D01*
X2356851Y1027284D02*
X2394252D01*
X1915551Y1008583D02*
Y1045984D01*
X1896851Y1027284D02*
X1934252D01*
X995551Y1008583D02*
Y1045984D01*
X976851Y1027284D02*
X1014252D01*
X1700233Y1647298D02*
Y1684699D01*
X1681532Y1665998D02*
X1718934D01*
X1701001Y1544354D02*
Y1581755D01*
X1682300Y1563054D02*
X1719702D01*
X2199870Y1495766D02*
Y1533167D01*
X2181169Y1514466D02*
X2218571D01*
X2199870Y1594324D02*
Y1631725D01*
X2181169Y1613024D02*
X2218571D01*
X2199870Y1745045D02*
Y1782446D01*
X2181169Y1763745D02*
X2218571D01*
X1182371Y1183612D02*
Y1221013D01*
X1163670Y1202312D02*
X1201071D01*
X1507147Y1006162D02*
Y1043563D01*
X1488446Y1024862D02*
X1525847D01*
X2028261Y3115341D02*
X2065663D01*
X2046962Y3096640D02*
Y3134042D01*
D84*
X1344483Y1403692D02*
X1450782D01*
X1344483Y1462747D02*
X1450782D01*
X1344483Y1403692D02*
Y1462747D01*
X1450782Y1403692D02*
Y1462747D01*
X1171743Y1473912D02*
X1278042D01*
X1171743Y1414857D02*
X1278042D01*
Y1473912D01*
X1171743Y1414857D02*
Y1473912D01*
X1387795Y1814961D02*
X1494094D01*
X1387795Y1874016D02*
X1494094D01*
X1387795Y1814961D02*
Y1874016D01*
X1494094Y1814961D02*
Y1874016D01*
X1216137Y1877851D02*
X1322436D01*
X1216137Y1818796D02*
X1322436D01*
Y1877851D01*
X1216137Y1818796D02*
Y1877851D01*
X2644433Y2728701D02*
X2750732D01*
X2644433Y2669646D02*
X2750732D01*
Y2728701D01*
X2644433Y2669646D02*
Y2728701D01*
X2375395Y2599893D02*
X2481694D01*
X2375395Y2658948D02*
X2481694D01*
X2375395Y2599893D02*
Y2658948D01*
X2481694Y2599893D02*
Y2658948D01*
X2375001Y2728491D02*
X2481300D01*
X2375001Y2787546D02*
X2481300D01*
X2375001Y2728491D02*
Y2787546D01*
X2481300Y2728491D02*
Y2787546D01*
X2374926Y2664946D02*
X2481225D01*
X2374926Y2724001D02*
X2481225D01*
X2374926Y2664946D02*
Y2724001D01*
X2481225Y2664946D02*
Y2724001D01*
X1708057Y2404362D02*
Y2510661D01*
X1767112Y2404362D02*
Y2510661D01*
X1708057D02*
X1767112D01*
X1708057Y2404362D02*
X1767112D01*
X1766240Y2244560D02*
Y2350859D01*
X1707185Y2244560D02*
Y2350859D01*
Y2244560D02*
X1766240D01*
X1707185Y2350859D02*
X1766240D01*
X1409881Y3162389D02*
X1516180D01*
X1409881Y3103334D02*
X1516180D01*
Y3162389D01*
X1409881Y3103334D02*
Y3162389D01*
X1676533Y3102933D02*
X1782832D01*
X1676533Y3161988D02*
X1782832D01*
X1676533Y3102933D02*
Y3161988D01*
X1782832Y3102933D02*
Y3161988D01*
X2638071Y592008D02*
Y682559D01*
X2453031Y592008D02*
Y682559D01*
X2638071D01*
X2453031Y592008D02*
X2638071D01*
X318678Y870275D02*
X409229D01*
X318678Y1055314D02*
X409229D01*
Y870275D02*
Y1055314D01*
X318678Y870275D02*
Y1055314D01*
X1711404Y592008D02*
Y682559D01*
X1526365Y592008D02*
Y682559D01*
X1711404D01*
X1526365Y592008D02*
X1711404D01*
X2174738D02*
Y682559D01*
X1989698Y592008D02*
Y682559D01*
X2174738D01*
X1989698Y592008D02*
X2174738D01*
X1248071D02*
Y682559D01*
X1063032Y592008D02*
Y682559D01*
X1248071D01*
X1063032Y592008D02*
X1248071D01*
X1056561Y1607124D02*
Y1713423D01*
X1115616Y1607124D02*
Y1713423D01*
X1056561D02*
X1115616D01*
X1056561Y1607124D02*
X1115616D01*
X1052693Y1477143D02*
Y1583443D01*
X1111748Y1477143D02*
Y1583443D01*
X1052693D02*
X1111748D01*
X1052693Y1477143D02*
X1111748D01*
X1174321Y1723735D02*
X1280620D01*
X1174321Y1782790D02*
X1280620D01*
X1174321Y1723735D02*
Y1782790D01*
X1280620Y1723735D02*
Y1782790D01*
X1202877Y2152308D02*
X1309176D01*
X1202877Y2211363D02*
X1309176D01*
X1202877Y2152308D02*
Y2211363D01*
X1309176Y2152308D02*
Y2211363D01*
X1052070Y2021713D02*
Y2128013D01*
X1111125Y2021713D02*
Y2128013D01*
X1052070D02*
X1111125D01*
X1052070Y2021713D02*
X1111125D01*
X1049910Y1906254D02*
Y2012554D01*
X1108965Y1906254D02*
Y2012554D01*
X1049910D02*
X1108965D01*
X1049910Y1906254D02*
X1108965D01*
X2178966Y2558929D02*
Y2665229D01*
X2119911Y2558929D02*
Y2665229D01*
Y2558929D02*
X2178966D01*
X2119911Y2665229D02*
X2178966D01*
X2051089Y2563043D02*
Y2669342D01*
X1992034Y2563043D02*
Y2669342D01*
Y2563043D02*
X2051089D01*
X1992034Y2669342D02*
X2051089D01*
X1449294Y1486334D02*
Y1702869D01*
X1157956Y1486334D02*
Y1702869D01*
X1449294D01*
X1157956Y1486334D02*
X1449294D01*
X1482888Y1898823D02*
Y2115358D01*
X1191549Y1898823D02*
Y2115358D01*
X1482888D01*
X1191549Y1898823D02*
X1482888D01*
X2199236Y2226209D02*
Y2517548D01*
X1785850Y2226209D02*
Y2517548D01*
Y2226209D02*
X2199236D01*
X1785850Y2517548D02*
X2199236D01*
X1916198Y2946371D02*
Y3052670D01*
X1857143Y2946371D02*
Y3052670D01*
X1916198D01*
X1857143Y2946371D02*
X1916198D01*
X1794417Y1974694D02*
X1900716D01*
X1794417Y1915639D02*
X1900716D01*
X1794417D02*
Y1974694D01*
X1900716Y1915639D02*
Y1974694D01*
X2008577Y1922567D02*
X2114877D01*
X2008577Y1981622D02*
X2114877D01*
Y1922567D02*
Y1981622D01*
X2008577Y1922567D02*
Y1981622D01*
X1393171Y2492057D02*
X1499471D01*
X1393171Y2433002D02*
X1499471D01*
X1393171D02*
Y2492057D01*
X1499471Y2433002D02*
Y2492057D01*
X1491603Y2042182D02*
X1597903D01*
X1491603Y1983127D02*
X1597903D01*
X1491603D02*
Y2042182D01*
X1597903Y1983127D02*
Y2042182D01*
X1065296Y2390364D02*
Y2528160D01*
X1216871Y2390364D02*
Y2528160D01*
X1065296D02*
X1216871D01*
X1065296Y2390364D02*
X1216871D01*
X1159846Y1946702D02*
Y2084498D01*
X1311421Y1946702D02*
Y2084498D01*
X1159846D02*
X1311421D01*
X1159846Y1946702D02*
X1311421D01*
X2378203Y1445383D02*
X2515998D01*
X2378203Y1293808D02*
X2515998D01*
Y1445383D01*
X2378203Y1293808D02*
Y1445383D01*
Y1730950D02*
X2515998D01*
X2378203Y1579375D02*
X2515998D01*
Y1730950D01*
X2378203Y1579375D02*
Y1730950D01*
Y1996995D02*
X2515998D01*
X2378203Y1845420D02*
X2515998D01*
Y1996995D01*
X2378203Y1845420D02*
Y1996995D01*
Y2260572D02*
X2515998D01*
X2378203Y2108997D02*
X2515998D01*
Y2260572D01*
X2378203Y2108997D02*
Y2260572D01*
X2730389Y1220112D02*
Y1326412D01*
X2789444Y1220112D02*
Y1326412D01*
X2730389Y1220112D02*
X2789444D01*
X2730389Y1326412D02*
X2789444D01*
X2539966Y1385908D02*
X2646266D01*
X2539966Y1444963D02*
X2646266D01*
Y1385908D02*
Y1444963D01*
X2539966Y1385908D02*
Y1444963D01*
X2664124Y1383866D02*
Y1490165D01*
X2723179Y1383866D02*
Y1490165D01*
X2664124Y1383866D02*
X2723179D01*
X2664124Y1490165D02*
X2723179D01*
X2539966Y1669310D02*
X2646266D01*
X2539966Y1728365D02*
X2646266D01*
Y1669310D02*
Y1728365D01*
X2539966Y1669310D02*
Y1728365D01*
X2666143Y1671278D02*
Y1777578D01*
X2725198Y1671278D02*
Y1777578D01*
X2666143Y1671278D02*
X2725198D01*
X2666143Y1777578D02*
X2725198D01*
X2730389Y1534022D02*
Y1640321D01*
X2789444Y1534022D02*
Y1640321D01*
X2730389Y1534022D02*
X2789444D01*
X2730389Y1640321D02*
X2789444D01*
X2670377Y1926563D02*
Y2032863D01*
X2729432Y1926563D02*
Y2032863D01*
X2670377Y1926563D02*
X2729432D01*
X2670377Y2032863D02*
X2729432D01*
X2730389Y1805149D02*
Y1911449D01*
X2789444Y1805149D02*
Y1911449D01*
X2730389Y1805149D02*
X2789444D01*
X2730389Y1911449D02*
X2789444D01*
X2539966Y1934500D02*
X2646266D01*
X2539966Y1993555D02*
X2646266D01*
Y1934500D02*
Y1993555D01*
X2539966Y1934500D02*
Y1993555D01*
X2730389Y2051668D02*
Y2157967D01*
X2789444Y2051668D02*
Y2157967D01*
X2730389Y2051668D02*
X2789444D01*
X2730389Y2157967D02*
X2789444D01*
X2676086Y2197634D02*
Y2303934D01*
X2735141Y2197634D02*
Y2303934D01*
X2676086Y2197634D02*
X2735141D01*
X2676086Y2303934D02*
X2735141D01*
X2538386Y2207677D02*
X2644685D01*
X2538386Y2266732D02*
X2644685D01*
Y2207677D02*
Y2266732D01*
X2538386Y2207677D02*
Y2266732D01*
X1648620Y1732501D02*
X1754920D01*
X1648620Y1791556D02*
X1754920D01*
Y1732501D02*
Y1791556D01*
X1648620Y1732501D02*
Y1791556D01*
X1034414Y1901301D02*
Y2007601D01*
X975359Y1901301D02*
Y2007601D01*
X1034414D01*
X975359Y1901301D02*
X1034414D01*
X973666Y2030939D02*
Y2137238D01*
X1032721Y2030939D02*
Y2137238D01*
X973666Y2030939D02*
X1032721D01*
X973666Y2137238D02*
X1032721D01*
X947089Y2472392D02*
X1053388D01*
X947089Y2531447D02*
X1053388D01*
Y2472392D02*
Y2531447D01*
X947089Y2472392D02*
Y2531447D01*
X941873Y2383866D02*
X1048172D01*
X941873Y2442921D02*
X1048172D01*
Y2383866D02*
Y2442921D01*
X941873Y2383866D02*
Y2442921D01*
X1049213Y2038386D02*
X1155512D01*
X1049213Y2097441D02*
X1155512D01*
Y2038386D02*
Y2097441D01*
X1049213Y2038386D02*
Y2097441D01*
X1047770Y1948237D02*
X1154069D01*
X1047770Y2007292D02*
X1154069D01*
Y1948237D02*
Y2007292D01*
X1047770Y1948237D02*
Y2007292D01*
X2294991Y2426421D02*
X2818613D01*
X2294991Y2950044D02*
X2818613D01*
Y2426421D02*
Y2950044D01*
X2294991Y2426421D02*
Y2950044D01*
X1808281Y1482053D02*
X2099619D01*
X1808281Y1895438D02*
X2099619D01*
Y1482053D02*
Y1895438D01*
X1808281Y1482053D02*
Y1895438D01*
X1214832Y2392333D02*
X1380186D01*
X1214832Y2534065D02*
X1380186D01*
Y2392333D02*
Y2534065D01*
X1214832Y2392333D02*
Y2534065D01*
X1320697Y1943905D02*
X1486052D01*
X1320697Y2085638D02*
X1486052D01*
Y1943905D02*
Y2085638D01*
X1320697Y1943905D02*
Y2085638D01*
X1493819Y2759961D02*
Y3094606D01*
X1777284Y2759961D02*
Y3094606D01*
X1493819Y2759961D02*
X1777284D01*
X1493819Y3094606D02*
X1777284D01*
X1923061Y3054722D02*
X2178967D01*
X1923061Y2796847D02*
Y3054722D01*
Y2796847D02*
X2178967D01*
Y3054722D01*
X2139776Y3061333D02*
Y3167632D01*
X2080721Y3061333D02*
Y3167632D01*
X2139776D01*
X2080721Y3061333D02*
X2139776D01*
X1145352Y2794651D02*
X1251652D01*
X1145352Y2853706D02*
X1251652D01*
Y2794651D02*
Y2853706D01*
X1145352Y2794651D02*
Y2853706D01*
X931814Y2336401D02*
Y2442700D01*
X872759Y2336401D02*
Y2442700D01*
X931814D01*
X872759Y2336401D02*
X931814D01*
X873619Y2472657D02*
Y2578957D01*
X932674Y2472657D02*
Y2578957D01*
X873619Y2472657D02*
X932674D01*
X873619Y2578957D02*
X932674D01*
X2322402Y1056811D02*
X2428701D01*
X2322402Y997756D02*
X2428701D01*
X2322402D02*
Y1056811D01*
X2428701Y997756D02*
Y1056811D01*
X1862402D02*
X1968701D01*
X1862402Y997756D02*
X1968701D01*
X1862402D02*
Y1056811D01*
X1968701Y997756D02*
Y1056811D01*
X942402D02*
X1048701D01*
X942402Y997756D02*
X1048701D01*
X942402D02*
Y1056811D01*
X1048701Y997756D02*
Y1056811D01*
X1647083Y1636471D02*
X1753383D01*
X1647083Y1695526D02*
X1753383D01*
Y1636471D02*
Y1695526D01*
X1647083Y1636471D02*
Y1695526D01*
X1647851Y1533527D02*
X1754151D01*
X1647851Y1592582D02*
X1754151D01*
Y1533527D02*
Y1592582D01*
X1647851Y1533527D02*
Y1592582D01*
X2146721Y1543994D02*
X2253020D01*
X2146721Y1484939D02*
X2253020D01*
X2146721D02*
Y1543994D01*
X2253020Y1484939D02*
Y1543994D01*
X2146721Y1642552D02*
X2253020D01*
X2146721Y1583497D02*
X2253020D01*
X2146721D02*
Y1642552D01*
X2253020Y1583497D02*
Y1642552D01*
X2146721Y1793273D02*
X2253020D01*
X2146721Y1734218D02*
X2253020D01*
X2146721D02*
Y1793273D01*
X2253020Y1734218D02*
Y1793273D01*
X1129221Y1231840D02*
X1235520D01*
X1129221Y1172785D02*
X1235520D01*
X1129221D02*
Y1231840D01*
X1235520Y1172785D02*
Y1231840D01*
X1453997Y1054390D02*
X1560296D01*
X1453997Y995335D02*
X1560296D01*
X1453997D02*
Y1054390D01*
X1560296Y995335D02*
Y1054390D01*
X2076490Y3062191D02*
Y3168491D01*
X2017435Y3062191D02*
Y3168491D01*
X2076490D01*
X2017435Y3062191D02*
X2076490D01*
%TF.MD5,10bddc4ab2380b30112a2bcb986dcf90*%
M02*
