%TF.GenerationSoftware,Altium Limited,Altium Designer,19.1.7 (138)*%
G04 Layer_Color=16711935*
%FSLAX26Y26*%
%MOIN*%
%TF.FileFunction,Soldermask,Bot*%
%TF.Part,Single*%
G01*
G75*
%TA.AperFunction,SMDPad,CuDef*%
%ADD47O,0.065087X0.031622*%
%ADD48R,0.061150X0.065087*%
%ADD49R,0.047370X0.043433*%
%ADD50R,0.043433X0.047370*%
%TA.AperFunction,ComponentPad*%
%ADD51C,0.063118*%
%ADD52C,0.094614*%
%ADD53C,0.137921*%
%ADD54C,0.106425*%
%ADD55C,0.086740*%
%ADD56C,0.098551*%
%TA.AperFunction,ViaPad*%
%ADD57C,0.038748*%
D47*
X1435948Y2695821D02*
D03*
Y2745821D02*
D03*
Y2795821D02*
D03*
Y2845821D02*
D03*
Y2895821D02*
D03*
Y2945821D02*
D03*
Y2995821D02*
D03*
Y3045821D02*
D03*
X1650515Y2695821D02*
D03*
Y2745821D02*
D03*
Y2795821D02*
D03*
Y2845821D02*
D03*
Y2895821D02*
D03*
Y2945821D02*
D03*
Y2995821D02*
D03*
Y3045821D02*
D03*
D48*
X1494532Y630469D02*
D03*
X1610673D02*
D03*
X1867562Y630469D02*
D03*
X1983704D02*
D03*
X1061461Y630469D02*
D03*
X1177603D02*
D03*
X2242563Y635390D02*
D03*
X2358705D02*
D03*
D49*
X1210630Y2750000D02*
D03*
Y2803150D02*
D03*
X1078999Y2748849D02*
D03*
Y2801999D02*
D03*
D50*
X1262795Y2433072D02*
D03*
X1209645D02*
D03*
X1265749Y2922245D02*
D03*
X1212601D02*
D03*
X1268575Y3017999D02*
D03*
X1215426D02*
D03*
X1275591Y3114173D02*
D03*
X1222441D02*
D03*
X1797851Y3045000D02*
D03*
X1851001D02*
D03*
X1799851Y2946000D02*
D03*
X1852999D02*
D03*
X1861220Y2800197D02*
D03*
X1914370D02*
D03*
D51*
X1198271Y945432D02*
D03*
X1098271D02*
D03*
X998271D02*
D03*
X2379375Y945430D02*
D03*
X2279375D02*
D03*
X2179375D02*
D03*
X1591973Y945430D02*
D03*
X1491973D02*
D03*
X1391973D02*
D03*
X1946301Y945432D02*
D03*
X1846301D02*
D03*
X1746301D02*
D03*
D52*
X726771Y1798072D02*
D03*
Y1916182D02*
D03*
Y2034293D02*
D03*
Y2152403D02*
D03*
Y2270513D02*
D03*
Y2388623D02*
D03*
Y2506734D02*
D03*
Y2624844D02*
D03*
Y2742954D02*
D03*
X628346Y1857127D02*
D03*
Y1975237D02*
D03*
Y2093348D02*
D03*
Y2211458D02*
D03*
Y2329568D02*
D03*
Y2447678D02*
D03*
Y2565789D02*
D03*
Y2683899D02*
D03*
X510236Y1857127D02*
D03*
Y1975237D02*
D03*
Y2093348D02*
D03*
Y2211458D02*
D03*
Y2329568D02*
D03*
Y2447678D02*
D03*
Y2565789D02*
D03*
Y2683899D02*
D03*
X411811Y1798072D02*
D03*
Y1916182D02*
D03*
Y2034293D02*
D03*
Y2152403D02*
D03*
Y2270513D02*
D03*
Y2388623D02*
D03*
Y2506734D02*
D03*
Y2624844D02*
D03*
Y2742954D02*
D03*
D53*
X155905Y3028387D02*
D03*
Y1512639D02*
D03*
D54*
X1410476Y158028D02*
D03*
X1384886Y532044D02*
D03*
X1534492Y394249D02*
D03*
X1804177Y158028D02*
D03*
X1778587Y532044D02*
D03*
X1928193Y394249D02*
D03*
X1016776Y158028D02*
D03*
X991185Y532044D02*
D03*
X1140792Y394249D02*
D03*
X2222877Y161965D02*
D03*
X2197287Y535981D02*
D03*
X2346893Y398186D02*
D03*
D55*
X1579768Y748579D02*
D03*
X1410476D02*
D03*
X1973469D02*
D03*
X1804177D02*
D03*
X1186067D02*
D03*
X1016776D02*
D03*
X2392168Y752516D02*
D03*
X2222877D02*
D03*
D56*
X324804Y1159293D02*
D03*
X620080D02*
D03*
X324804Y765593D02*
D03*
Y962443D02*
D03*
X620080Y765593D02*
D03*
Y962443D02*
D03*
Y175041D02*
D03*
X324804D02*
D03*
D57*
X1775000Y1600000D02*
D03*
X2055000Y2765000D02*
D03*
X2105000Y2880000D02*
D03*
X1515000Y1525000D02*
D03*
X1355000Y2730000D02*
D03*
X1860000Y1635000D02*
D03*
X892825Y1724016D02*
D03*
X2250000Y2490000D02*
D03*
X1545000Y2880000D02*
D03*
X1515000Y2925000D02*
D03*
X2430000Y2710000D02*
D03*
X2652161Y2687161D02*
D03*
X2485000Y2745000D02*
D03*
X2534051Y2790941D02*
D03*
X2326772Y2460072D02*
D03*
X1500984Y3631890D02*
D03*
X824000Y3627677D02*
D03*
X2612791Y2550197D02*
D03*
X2005906Y1707677D02*
D03*
X2019685Y1802165D02*
D03*
X2151575Y2287402D02*
D03*
X2265000Y2110000D02*
D03*
X1150591Y2915354D02*
D03*
X1230000Y2210000D02*
D03*
X1524606Y1894685D02*
D03*
X1505906Y1734252D02*
D03*
X1180118Y1816929D02*
D03*
X1100000Y1730000D02*
D03*
X771654Y1634842D02*
D03*
X1224409Y1559055D02*
D03*
X1262795Y1819882D02*
D03*
X1151575Y2856299D02*
D03*
X1507874Y2522638D02*
D03*
X1512795Y2747047D02*
D03*
X2788386Y2750000D02*
D03*
X2684055Y2792323D02*
D03*
X2671260Y2844488D02*
D03*
X821567Y3261527D02*
D03*
X2870126Y3635716D02*
D03*
X2940945Y2579724D02*
D03*
X2787402Y2350394D02*
D03*
X2447835Y3622047D02*
D03*
X2016732Y3626968D02*
D03*
X2145669Y2406496D02*
D03*
X2342520Y2212598D02*
D03*
X2063976Y3058071D02*
D03*
X1491142Y2251968D02*
D03*
X1431102Y2438976D02*
D03*
X1664370Y2262795D02*
D03*
X1504010Y2580835D02*
D03*
X1568898Y2130905D02*
D03*
X1391170Y2473003D02*
D03*
X1317913Y2552165D02*
D03*
X2388780Y2211614D02*
D03*
X1223425Y1717520D02*
D03*
X1160879Y1773964D02*
D03*
X871063Y2861220D02*
D03*
X2007024Y2946622D02*
D03*
X1723425Y2750000D02*
D03*
X2337598Y2581693D02*
D03*
X1653181Y2062630D02*
D03*
X2417323Y3257874D02*
D03*
X860000Y2700000D02*
D03*
X1176000Y3408000D02*
D03*
X1690000Y1798000D02*
D03*
X1700000Y2697000D02*
D03*
X1335000Y2044000D02*
D03*
X2641000Y2895000D02*
D03*
X780929Y1687924D02*
D03*
X1313000Y1897000D02*
D03*
X2065398Y815508D02*
D03*
%TF.MD5,bdc2616013a8765da2be9790719b514f*%
M02*
