%TF.GenerationSoftware,Altium Limited,Altium Designer,19.1.7 (138)*%
G04 Layer_Color=255*
%FSLAX26Y26*%
%MOIN*%
%TF.FileFunction,Pads,Bot*%
%TF.Part,Single*%
G01*
G75*
%TA.AperFunction,SMDPad,CuDef*%
%ADD13O,0.057087X0.023622*%
%ADD25R,0.053150X0.057087*%
%ADD26R,0.035433X0.039370*%
%ADD27R,0.039370X0.035433*%
%TA.AperFunction,ComponentPad*%
%ADD34C,0.055118*%
%ADD35C,0.086614*%
%ADD36C,0.129921*%
%ADD37C,0.098425*%
%ADD38C,0.078740*%
%ADD39C,0.090551*%
D13*
X1435948Y2695821D02*
D03*
Y2745821D02*
D03*
Y2795821D02*
D03*
Y2845821D02*
D03*
Y2895821D02*
D03*
Y2945821D02*
D03*
Y2995821D02*
D03*
Y3045821D02*
D03*
X1650515Y2695821D02*
D03*
Y2745821D02*
D03*
Y2795821D02*
D03*
Y2845821D02*
D03*
Y2895821D02*
D03*
Y2945821D02*
D03*
Y2995821D02*
D03*
Y3045821D02*
D03*
D25*
X1494532Y630469D02*
D03*
X1610673D02*
D03*
X1867562Y630469D02*
D03*
X1983704D02*
D03*
X1061461Y630469D02*
D03*
X1177603D02*
D03*
X2242563Y635390D02*
D03*
X2358705D02*
D03*
D26*
X1262795Y2433072D02*
D03*
X1209645D02*
D03*
X1265749Y2922245D02*
D03*
X1212601D02*
D03*
X1268575Y3017999D02*
D03*
X1215426D02*
D03*
X1275591Y3114173D02*
D03*
X1222441D02*
D03*
X1797851Y3045000D02*
D03*
X1851001D02*
D03*
X1799851Y2946000D02*
D03*
X1852999D02*
D03*
X1861220Y2800197D02*
D03*
X1914370D02*
D03*
D27*
X1210630Y2750000D02*
D03*
Y2803150D02*
D03*
X1078999Y2748849D02*
D03*
Y2801999D02*
D03*
D34*
X1198271Y945432D02*
D03*
X1098271D02*
D03*
X998271D02*
D03*
X2379375Y945430D02*
D03*
X2279375D02*
D03*
X2179375D02*
D03*
X1591973Y945430D02*
D03*
X1491973D02*
D03*
X1391973D02*
D03*
X1946301Y945432D02*
D03*
X1846301D02*
D03*
X1746301D02*
D03*
D35*
X726771Y1798072D02*
D03*
Y1916182D02*
D03*
Y2034293D02*
D03*
Y2152403D02*
D03*
Y2270513D02*
D03*
Y2388623D02*
D03*
Y2506734D02*
D03*
Y2624844D02*
D03*
Y2742954D02*
D03*
X628346Y1857127D02*
D03*
Y1975237D02*
D03*
Y2093348D02*
D03*
Y2211458D02*
D03*
Y2329568D02*
D03*
Y2447678D02*
D03*
Y2565789D02*
D03*
Y2683899D02*
D03*
X510236Y1857127D02*
D03*
Y1975237D02*
D03*
Y2093348D02*
D03*
Y2211458D02*
D03*
Y2329568D02*
D03*
Y2447678D02*
D03*
Y2565789D02*
D03*
Y2683899D02*
D03*
X411811Y1798072D02*
D03*
Y1916182D02*
D03*
Y2034293D02*
D03*
Y2152403D02*
D03*
Y2270513D02*
D03*
Y2388623D02*
D03*
Y2506734D02*
D03*
Y2624844D02*
D03*
Y2742954D02*
D03*
D36*
X155905Y3028387D02*
D03*
Y1512639D02*
D03*
D37*
X1410476Y158028D02*
D03*
X1384886Y532044D02*
D03*
X1534492Y394249D02*
D03*
X1804177Y158028D02*
D03*
X1778587Y532044D02*
D03*
X1928193Y394249D02*
D03*
X1016776Y158028D02*
D03*
X991185Y532044D02*
D03*
X1140792Y394249D02*
D03*
X2222877Y161965D02*
D03*
X2197287Y535981D02*
D03*
X2346893Y398186D02*
D03*
D38*
X1579768Y748579D02*
D03*
X1410476D02*
D03*
X1973469D02*
D03*
X1804177D02*
D03*
X1186067D02*
D03*
X1016776D02*
D03*
X2392168Y752516D02*
D03*
X2222877D02*
D03*
D39*
X324804Y1159293D02*
D03*
X620080D02*
D03*
X324804Y765593D02*
D03*
Y962443D02*
D03*
X620080Y765593D02*
D03*
Y962443D02*
D03*
Y175041D02*
D03*
X324804D02*
D03*
%TF.MD5,82a23f29472807015cb736c8a732916c*%
M02*
