%TF.GenerationSoftware,Altium Limited,Altium Designer,19.1.8 (144)*%
G04 Layer_Physical_Order=2*
G04 Layer_Color=16711680*
%FSLAX26Y26*%
%MOIN*%
%TF.FileFunction,Copper,L2,Bot,Signal*%
%TF.Part,Single*%
G01*
G75*
%TA.AperFunction,Conductor*%
%ADD10C,0.010000*%
%TA.AperFunction,SMDPad,CuDef*%
%ADD11R,0.039370X0.035433*%
%ADD12R,0.035433X0.039370*%
%ADD20R,0.037402X0.033465*%
%ADD21R,0.033465X0.037402*%
%ADD24O,0.057087X0.023622*%
%TA.AperFunction,Conductor*%
%ADD29C,0.015748*%
%ADD30C,0.011811*%
%ADD31C,0.019685*%
%ADD32C,0.050000*%
%ADD33C,0.023622*%
%ADD34C,0.039370*%
%TA.AperFunction,ComponentPad*%
%ADD35C,0.078740*%
%ADD36C,0.098425*%
%ADD37C,0.090551*%
%ADD38C,0.055118*%
%ADD39C,0.129921*%
%ADD40C,0.086614*%
%TA.AperFunction,ViaPad*%
%ADD41C,0.177165*%
%ADD42C,0.027559*%
%ADD43C,0.027559*%
%ADD44C,0.050000*%
%TA.AperFunction,SMDPad,CuDef*%
%ADD45R,0.053150X0.057087*%
%ADD46R,0.057087X0.053150*%
%ADD47O,0.023622X0.057087*%
G36*
X2859063Y3234706D02*
X2877037Y3232340D01*
X2894547Y3227648D01*
X2911294Y3220711D01*
X2926994Y3211647D01*
X2941376Y3200612D01*
X2954194Y3187794D01*
X2965230Y3173412D01*
X2974294Y3157713D01*
X2981231Y3140964D01*
X2985923Y3123455D01*
X2988289Y3105481D01*
X2988289Y3096418D01*
X2988289Y153583D01*
X2988288Y144518D01*
X2985922Y126545D01*
X2981230Y109035D01*
X2974293Y92287D01*
X2965229Y76588D01*
X2954193Y62206D01*
X2941375Y49388D01*
X2926994Y38352D01*
X2911295Y29289D01*
X2894547Y22352D01*
X2877037Y17660D01*
X2859064Y15293D01*
X2850000Y15293D01*
X150000Y15293D01*
X141171Y15293D01*
X123663Y17598D01*
X106607Y22168D01*
X90292Y28926D01*
X75000Y37755D01*
X60991Y48505D01*
X48505Y60991D01*
X37755Y75000D01*
X28926Y90293D01*
X22168Y106607D01*
X17598Y123663D01*
X15293Y141171D01*
X15293Y150000D01*
Y3100000D01*
X15293Y3108828D01*
X17598Y3126336D01*
X22168Y3143392D01*
X28926Y3159707D01*
X37755Y3174999D01*
X48505Y3189009D01*
X60990Y3201494D01*
X75000Y3212244D01*
X90292Y3221073D01*
X106607Y3227831D01*
X123663Y3232401D01*
X141171Y3234706D01*
X149999Y3234706D01*
X2849999Y3234707D01*
X2859063Y3234706D01*
D02*
G37*
%LPC*%
G36*
X1751257Y3162146D02*
X1728541D01*
Y3160019D01*
X1677517D01*
Y3151325D01*
X1666754D01*
X1663262Y3153659D01*
X1654813Y3155339D01*
X1646364Y3153659D01*
X1639202Y3148873D01*
X1634416Y3141710D01*
X1632736Y3133262D01*
X1634416Y3124813D01*
X1639202Y3117650D01*
X1646364Y3112864D01*
X1654813Y3111184D01*
X1663262Y3112864D01*
X1666754Y3115198D01*
X1677517D01*
Y3104901D01*
X1728541D01*
Y3102776D01*
X1751257D01*
Y3132461D01*
Y3162146D01*
D02*
G37*
G36*
X1431455Y3162546D02*
X1408739D01*
Y3137861D01*
X1431455D01*
Y3162546D01*
D02*
G37*
G36*
X1783974Y3162146D02*
X1761257D01*
Y3137461D01*
X1783974D01*
Y3162146D01*
D02*
G37*
G36*
X1464172Y3162546D02*
X1441455D01*
Y3132861D01*
Y3103177D01*
X1464172D01*
Y3105302D01*
X1515196D01*
Y3107812D01*
X1517741Y3109697D01*
X1525196Y3112242D01*
X1530245Y3108867D01*
X1538694Y3107187D01*
X1547143Y3108867D01*
X1554305Y3113653D01*
X1559091Y3120816D01*
X1560772Y3129265D01*
X1559091Y3137713D01*
X1554305Y3144876D01*
X1547143Y3149662D01*
X1538694Y3151342D01*
X1530245Y3149662D01*
X1529132Y3148918D01*
X1515196D01*
Y3160421D01*
X1464172D01*
Y3162546D01*
D02*
G37*
G36*
X2855000Y3196557D02*
Y3105000D01*
X2946557D01*
X2945185Y3118934D01*
X2939662Y3137139D01*
X2930694Y3153918D01*
X2918625Y3168625D01*
X2903918Y3180694D01*
X2887139Y3189662D01*
X2868934Y3195185D01*
X2855000Y3196557D01*
D02*
G37*
G36*
X2845000D02*
X2831066Y3195185D01*
X2812861Y3189662D01*
X2796082Y3180694D01*
X2781375Y3168625D01*
X2769306Y3153918D01*
X2760338Y3137139D01*
X2754815Y3118934D01*
X2753443Y3105000D01*
X2845000D01*
Y3196557D01*
D02*
G37*
G36*
X1431455Y3127861D02*
X1408739D01*
Y3103177D01*
X1431455D01*
Y3127861D01*
D02*
G37*
G36*
X1783974Y3127461D02*
X1761257D01*
Y3102776D01*
X1783974D01*
Y3127461D01*
D02*
G37*
G36*
X2598252Y3031155D02*
X2540552D01*
X2535176Y3030086D01*
X2530618Y3027040D01*
X2529881Y3026304D01*
X2528039Y3026670D01*
X2519590Y3024990D01*
X2512428Y3020204D01*
X2507642Y3013041D01*
X2505961Y3004593D01*
X2507642Y2996144D01*
X2512428Y2988981D01*
X2519590Y2984195D01*
X2528039Y2982515D01*
X2536488Y2984195D01*
X2543651Y2988981D01*
X2545668Y2992000D01*
X2555087Y2988098D01*
X2554445Y2984867D01*
X2556125Y2976418D01*
X2560911Y2969255D01*
X2568073Y2964469D01*
X2570380Y2964011D01*
Y2822913D01*
X2560380Y2817626D01*
X2557202Y2819791D01*
X2556540Y2823117D01*
X2551755Y2830280D01*
X2544592Y2835066D01*
X2536143Y2836746D01*
X2527694Y2835066D01*
X2520532Y2830280D01*
X2515746Y2823117D01*
X2514066Y2814669D01*
X2515746Y2806220D01*
X2518481Y2802127D01*
X2512909Y2793040D01*
X2510854Y2793448D01*
X2502405Y2791768D01*
X2495243Y2786982D01*
X2492442Y2782789D01*
X2482442Y2785823D01*
Y2787704D01*
X2459725D01*
Y2758019D01*
X2449725D01*
Y2787704D01*
X2427009D01*
Y2785577D01*
X2375985D01*
Y2730460D01*
X2375985D01*
X2375910Y2722032D01*
X2372207Y2713566D01*
X2263153D01*
X2262110Y2715128D01*
X2254947Y2719914D01*
X2246498Y2721594D01*
X2238049Y2719914D01*
X2230887Y2715128D01*
X2226101Y2707965D01*
X2224421Y2699517D01*
X2226101Y2691068D01*
X2230887Y2683905D01*
X2238049Y2679119D01*
X2246498Y2677439D01*
X2254947Y2679119D01*
X2262110Y2683905D01*
X2263153Y2685467D01*
X2375910D01*
Y2666914D01*
X2376222D01*
X2376379Y2656979D01*
X2376379D01*
Y2601861D01*
X2427403D01*
Y2599735D01*
X2450119D01*
Y2629420D01*
X2455119D01*
Y2634420D01*
X2482836D01*
Y2654983D01*
X2482836Y2659105D01*
X2482836D01*
X2482367Y2664789D01*
X2482367D01*
Y2689474D01*
X2454650D01*
Y2699474D01*
X2482367D01*
Y2724158D01*
X2482367D01*
X2482442Y2728334D01*
X2482442D01*
X2482442Y2734127D01*
Y2750747D01*
X2492442Y2755335D01*
X2496805Y2751580D01*
Y2388722D01*
X2497874Y2383346D01*
X2500848Y2378896D01*
X2500476Y2377023D01*
X2502156Y2368575D01*
X2506942Y2361412D01*
X2514104Y2356626D01*
X2522553Y2354946D01*
X2526011Y2355634D01*
X2530108Y2350778D01*
X2532535Y2346735D01*
X2531043Y2339231D01*
X2532723Y2330782D01*
X2537509Y2323619D01*
X2544671Y2318833D01*
X2553120Y2317153D01*
X2560380Y2318597D01*
X2562951Y2317870D01*
X2570380Y2312694D01*
Y2226017D01*
X2440503Y2096140D01*
X2191613D01*
X2188478Y2104414D01*
X2188380Y2106140D01*
X2363407Y2281167D01*
X2458201D01*
X2459245Y2279605D01*
X2466407Y2274819D01*
X2474856Y2273139D01*
X2483305Y2274819D01*
X2490468Y2279605D01*
X2495253Y2286768D01*
X2496934Y2295216D01*
X2495253Y2303665D01*
X2490468Y2310828D01*
X2483305Y2315614D01*
X2474856Y2317294D01*
X2466407Y2315614D01*
X2459245Y2310828D01*
X2458201Y2309266D01*
X2441817D01*
X2440547Y2312882D01*
X2440154Y2319266D01*
X2445818Y2323051D01*
X2450604Y2330214D01*
X2452285Y2338662D01*
X2450604Y2347111D01*
X2445818Y2354274D01*
X2438656Y2359060D01*
X2430207Y2360740D01*
X2421758Y2359060D01*
X2414596Y2354274D01*
X2413552Y2352712D01*
X2362839D01*
X2357463Y2351642D01*
X2352905Y2348597D01*
X2169769Y2165461D01*
X1782709D01*
X1781666Y2167023D01*
X1774503Y2171809D01*
X1766054Y2173489D01*
X1757605Y2171809D01*
X1750443Y2167023D01*
X1745657Y2159860D01*
X1743976Y2151412D01*
X1745358Y2144466D01*
X1743383Y2141238D01*
X1742786Y2140570D01*
X1737933Y2136524D01*
X1731771Y2137749D01*
X1723322Y2136069D01*
X1716160Y2131283D01*
X1711374Y2124120D01*
X1709694Y2115671D01*
X1711374Y2107223D01*
X1712098Y2106140D01*
X1706752Y2096140D01*
X1475521D01*
X1475426Y2096283D01*
X1468915Y2100633D01*
X1461234Y2102161D01*
X1427769D01*
X1426503Y2101909D01*
X1421577Y2111125D01*
X1509861Y2199410D01*
X1513981Y2200229D01*
X1521143Y2205015D01*
X1525929Y2212178D01*
X1527610Y2220626D01*
X1525929Y2229075D01*
X1521143Y2236238D01*
X1513981Y2241024D01*
X1506862Y2242440D01*
X1504261Y2246867D01*
X1502597Y2252316D01*
X1610016Y2359735D01*
X1701557D01*
X1707027Y2352001D01*
X1707027Y2349735D01*
Y2329285D01*
X1736712D01*
X1766397D01*
Y2349735D01*
X1766397Y2352001D01*
X1771867Y2359735D01*
X1823969D01*
X1829346Y2360805D01*
X1833904Y2363850D01*
X1877478Y2407424D01*
X1880523Y2411982D01*
X1881593Y2417358D01*
Y2448142D01*
X1881735Y2448238D01*
X1886086Y2454749D01*
X1887614Y2462430D01*
X1897473D01*
X1899000Y2454749D01*
X1903351Y2448238D01*
X1903494Y2448142D01*
Y2419550D01*
X1904563Y2414173D01*
X1907609Y2409615D01*
X1942240Y2374984D01*
X1946798Y2371939D01*
X1952174Y2370869D01*
X2190572D01*
X2195949Y2371939D01*
X2200507Y2374984D01*
X2233331Y2407808D01*
X2236376Y2412366D01*
X2237446Y2417742D01*
Y2535894D01*
X2236376Y2541271D01*
X2233331Y2545829D01*
X2217562Y2561598D01*
Y2564372D01*
X2225087Y2571897D01*
X2228132Y2576455D01*
X2229202Y2581831D01*
Y2586118D01*
X2230764Y2587161D01*
X2235549Y2594324D01*
X2237230Y2602773D01*
X2235549Y2611221D01*
X2231718Y2616956D01*
X2231277Y2620527D01*
X2233248Y2628750D01*
X2237653Y2631693D01*
X2242438Y2638856D01*
X2244119Y2647305D01*
X2242438Y2655753D01*
X2237653Y2662916D01*
X2230490Y2667702D01*
X2222041Y2669382D01*
X2219580Y2668893D01*
X2197263Y2691210D01*
X2192705Y2694256D01*
X2187328Y2695325D01*
X2095018D01*
X2089642Y2694256D01*
X2085084Y2691210D01*
X2070216Y2676342D01*
X2067170Y2671784D01*
X2066101Y2666407D01*
Y2607971D01*
X2062781Y2604651D01*
X2048136D01*
Y2615051D01*
X2050262D01*
Y2636783D01*
X2021561D01*
X1992860D01*
Y2615051D01*
X1994986D01*
Y2565996D01*
X2002993D01*
Y2509551D01*
X1999000Y2503575D01*
X1997473Y2495894D01*
X1987614D01*
X1986086Y2503575D01*
X1981735Y2510086D01*
X1981593Y2510182D01*
Y2540122D01*
X1980523Y2545499D01*
X1977478Y2550057D01*
X1915510Y2612025D01*
X1910952Y2615070D01*
X1905575Y2616140D01*
X1275878D01*
X1124566Y2767452D01*
X1120008Y2770497D01*
X1114631Y2771567D01*
X842274D01*
X779939Y2833902D01*
X775381Y2836948D01*
X770004Y2838017D01*
X648371D01*
X642995Y2836948D01*
X638437Y2833902D01*
X602152Y2797617D01*
X599107Y2793059D01*
X598037Y2787683D01*
Y2758120D01*
X589378Y2755493D01*
X579119Y2750009D01*
X570126Y2742630D01*
X562746Y2733637D01*
X558531Y2725750D01*
X554120Y2724675D01*
X551943D01*
X547532Y2725750D01*
X543317Y2733637D01*
X535937Y2742630D01*
X526944Y2750009D01*
X516685Y2755493D01*
X505553Y2758870D01*
X493976Y2760010D01*
X482400Y2758870D01*
X471268Y2755493D01*
X464149Y2751688D01*
X456189Y2755920D01*
X454697Y2757750D01*
X454892Y2759724D01*
X453752Y2771301D01*
X450375Y2782433D01*
X444891Y2792692D01*
X437512Y2801685D01*
X428519Y2809064D01*
X418260Y2814548D01*
X407128Y2817925D01*
X395551Y2819065D01*
X383974Y2817925D01*
X372842Y2814548D01*
X362583Y2809064D01*
X353591Y2801685D01*
X346211Y2792692D01*
X340727Y2782433D01*
X337351Y2771301D01*
X336210Y2759724D01*
X337351Y2748148D01*
X340727Y2737016D01*
X346211Y2726756D01*
X353591Y2717764D01*
X362583Y2710384D01*
X372842Y2704901D01*
X383974Y2701524D01*
X382786Y2691683D01*
X382157Y2691601D01*
X369676Y2686431D01*
X358959Y2678207D01*
X350735Y2667489D01*
X345565Y2655008D01*
X344460Y2646614D01*
X395551D01*
X446643D01*
X446116Y2650615D01*
X455515Y2655838D01*
X461008Y2651329D01*
X471268Y2645845D01*
X482399Y2642469D01*
X481211Y2632628D01*
X480583Y2632546D01*
X468101Y2627376D01*
X457384Y2619152D01*
X449160Y2608434D01*
X443990Y2595953D01*
X442885Y2587559D01*
X493976D01*
X545068D01*
X543963Y2595953D01*
X538793Y2608434D01*
X530569Y2619152D01*
X519851Y2627376D01*
X507370Y2632546D01*
X506742Y2632628D01*
X505553Y2642469D01*
X516685Y2645845D01*
X526944Y2651329D01*
X535937Y2658709D01*
X543317Y2667701D01*
X547532Y2675589D01*
X551943Y2676664D01*
X554120D01*
X558531Y2675589D01*
X562746Y2667701D01*
X570126Y2658709D01*
X579119Y2651329D01*
X589378Y2645845D01*
X600510Y2642469D01*
X599321Y2632628D01*
X598693Y2632546D01*
X586212Y2627376D01*
X575494Y2619152D01*
X567270Y2608434D01*
X562100Y2595953D01*
X560995Y2587559D01*
X612087D01*
Y2582559D01*
X617087D01*
Y2531468D01*
X625480Y2532573D01*
X637962Y2537742D01*
X644097Y2542450D01*
X652733Y2536473D01*
X652311Y2535081D01*
X651171Y2523504D01*
X652311Y2511927D01*
X652733Y2510535D01*
X644097Y2504558D01*
X637962Y2509265D01*
X625480Y2514435D01*
X617087Y2515540D01*
Y2464449D01*
Y2413357D01*
X625480Y2414462D01*
X637962Y2419632D01*
X644097Y2424340D01*
X652733Y2418362D01*
X652311Y2416970D01*
X651171Y2405394D01*
X652311Y2393817D01*
X652733Y2392425D01*
X644097Y2386448D01*
X637962Y2391155D01*
X625480Y2396325D01*
X617087Y2397430D01*
Y2346339D01*
Y2295247D01*
X625480Y2296352D01*
X637962Y2301522D01*
X644097Y2306230D01*
X652733Y2300252D01*
X652311Y2298860D01*
X651171Y2287284D01*
X652311Y2275707D01*
X652733Y2274315D01*
X644097Y2268337D01*
X637962Y2273045D01*
X625480Y2278215D01*
X617087Y2279320D01*
Y2228228D01*
X612087D01*
Y2223228D01*
X560995D01*
X562100Y2214835D01*
X567270Y2202354D01*
X575494Y2191636D01*
X586212Y2183412D01*
X598693Y2178242D01*
X599321Y2178159D01*
X600510Y2168319D01*
X589378Y2164942D01*
X579119Y2159458D01*
X570126Y2152078D01*
X562746Y2143086D01*
X557263Y2132827D01*
X553886Y2121695D01*
X544046Y2122884D01*
X543963Y2123512D01*
X538793Y2135993D01*
X530569Y2146711D01*
X519851Y2154935D01*
X507370Y2160105D01*
X498976Y2161210D01*
Y2110118D01*
Y2059027D01*
X507370Y2060132D01*
X519851Y2065302D01*
X530569Y2073526D01*
X538793Y2084243D01*
X543963Y2096724D01*
X544046Y2097352D01*
X553886Y2098541D01*
X557263Y2087409D01*
X562746Y2077150D01*
X570126Y2068158D01*
X579119Y2060778D01*
X587006Y2056562D01*
X588081Y2052152D01*
Y2049974D01*
X587006Y2045564D01*
X579119Y2041348D01*
X570126Y2033968D01*
X562746Y2024976D01*
X557263Y2014717D01*
X553886Y2003585D01*
X544046Y2004774D01*
X543963Y2005402D01*
X538793Y2017883D01*
X530569Y2028601D01*
X519851Y2036824D01*
X507370Y2041994D01*
X498976Y2043099D01*
Y1992008D01*
X488976D01*
Y2043099D01*
X480583Y2041994D01*
X468101Y2036824D01*
X461966Y2032117D01*
X453330Y2038094D01*
X453752Y2039486D01*
X454892Y2051063D01*
X453752Y2062640D01*
X453330Y2064032D01*
X461966Y2070009D01*
X468101Y2065302D01*
X480583Y2060132D01*
X488976Y2059027D01*
Y2110118D01*
Y2161210D01*
X480583Y2160105D01*
X468101Y2154935D01*
X461966Y2150227D01*
X453330Y2156205D01*
X453752Y2157596D01*
X454892Y2169173D01*
X453752Y2180750D01*
X453330Y2182142D01*
X461966Y2188119D01*
X468101Y2183412D01*
X480583Y2178242D01*
X488976Y2177137D01*
Y2228228D01*
X493976D01*
Y2233228D01*
X545068D01*
X543963Y2241622D01*
X538793Y2254103D01*
X530569Y2264821D01*
X519851Y2273045D01*
X507370Y2278215D01*
X506742Y2278298D01*
X505553Y2288138D01*
X516685Y2291515D01*
X526944Y2296999D01*
X535937Y2304378D01*
X543317Y2313371D01*
X548800Y2323630D01*
X552177Y2334762D01*
X562017Y2333573D01*
X562100Y2332945D01*
X567270Y2320464D01*
X575494Y2309746D01*
X586212Y2301522D01*
X598693Y2296352D01*
X607087Y2295247D01*
Y2346339D01*
Y2397430D01*
X598693Y2396325D01*
X586212Y2391155D01*
X575494Y2382931D01*
X567270Y2372213D01*
X562100Y2359732D01*
X562017Y2359104D01*
X552177Y2357916D01*
X548800Y2369047D01*
X543317Y2379307D01*
X535937Y2388299D01*
X526944Y2395679D01*
X516685Y2401162D01*
X505553Y2404539D01*
X506742Y2414380D01*
X507370Y2414462D01*
X519851Y2419632D01*
X530569Y2427856D01*
X538793Y2438574D01*
X543963Y2451055D01*
X545068Y2459449D01*
X493976D01*
X442885D01*
X443411Y2455448D01*
X434013Y2450225D01*
X428519Y2454734D01*
X418260Y2460218D01*
X407128Y2463594D01*
X408317Y2473435D01*
X408945Y2473517D01*
X421426Y2478687D01*
X432144Y2486911D01*
X440368Y2497629D01*
X445538Y2510110D01*
X446643Y2518504D01*
X395551D01*
X344460D01*
X345565Y2510110D01*
X350735Y2497629D01*
X358959Y2486911D01*
X369676Y2478687D01*
X382157Y2473517D01*
X382786Y2473435D01*
X383974Y2463594D01*
X372842Y2460218D01*
X362583Y2454734D01*
X353591Y2447354D01*
X346211Y2438362D01*
X340727Y2428102D01*
X337351Y2416970D01*
X336210Y2405394D01*
X337351Y2393817D01*
X340727Y2382685D01*
X346211Y2372426D01*
X353591Y2363433D01*
X362583Y2356054D01*
X370471Y2351838D01*
X371546Y2347427D01*
Y2345250D01*
X370471Y2340839D01*
X362583Y2336624D01*
X353591Y2329244D01*
X346211Y2320251D01*
X340727Y2309992D01*
X337351Y2298860D01*
X336210Y2287284D01*
X337351Y2275707D01*
X340727Y2264575D01*
X346211Y2254316D01*
X353591Y2245323D01*
X362583Y2237943D01*
X370471Y2233727D01*
X371546Y2229317D01*
Y2227140D01*
X370471Y2222729D01*
X362583Y2218513D01*
X353591Y2211133D01*
X346211Y2202141D01*
X340727Y2191882D01*
X337351Y2180750D01*
X336210Y2169173D01*
X337351Y2157596D01*
X339053Y2151985D01*
X159945Y1972878D01*
X155528Y1967121D01*
X152751Y1960417D01*
X151803Y1953222D01*
Y1706879D01*
X152751Y1699685D01*
X155528Y1692981D01*
X159945Y1687224D01*
X223364Y1623804D01*
Y1565208D01*
X213364Y1562703D01*
X207077Y1574466D01*
X196991Y1586755D01*
X184702Y1596841D01*
X170681Y1604335D01*
X155467Y1608950D01*
X139646Y1610509D01*
X123824Y1608950D01*
X108610Y1604335D01*
X94590Y1596841D01*
X82300Y1586755D01*
X72214Y1574466D01*
X64720Y1560445D01*
X60105Y1545231D01*
X58547Y1529409D01*
X60105Y1513588D01*
X64720Y1498374D01*
X72214Y1484353D01*
X82300Y1472064D01*
X94590Y1461978D01*
X108610Y1454484D01*
X123824Y1449869D01*
X139646Y1448310D01*
X155467Y1449869D01*
X170681Y1454484D01*
X184702Y1461978D01*
X196991Y1472064D01*
X207077Y1484353D01*
X213364Y1496116D01*
X223364Y1493611D01*
Y1436460D01*
X184737Y1397833D01*
X180320Y1392076D01*
X177543Y1385372D01*
X176595Y1378178D01*
Y491592D01*
X177543Y484398D01*
X180320Y477694D01*
X184737Y471937D01*
X297474Y359199D01*
X295411Y352396D01*
X294232Y340433D01*
X295411Y328470D01*
X298900Y316967D01*
X304566Y306366D01*
X312192Y297074D01*
X321484Y289448D01*
X332086Y283782D01*
X343589Y280292D01*
X355551Y279114D01*
X367514Y280292D01*
X379017Y283782D01*
X389618Y289448D01*
X398910Y297074D01*
X406536Y306366D01*
X412202Y316967D01*
X415692Y328470D01*
X416870Y340433D01*
X415692Y352396D01*
X412202Y363899D01*
X406536Y374500D01*
X398910Y383792D01*
X389618Y391418D01*
X379017Y397084D01*
X367514Y400574D01*
X355551Y401752D01*
X343589Y400574D01*
X336785Y398510D01*
X232189Y503106D01*
Y843128D01*
X235368Y845342D01*
X242189Y847064D01*
X438590Y650663D01*
Y524873D01*
X439538Y517678D01*
X442315Y510974D01*
X446732Y505217D01*
X592750Y359199D01*
X590686Y352396D01*
X589508Y340433D01*
X590686Y328470D01*
X594176Y316967D01*
X599842Y306366D01*
X607468Y297074D01*
X616760Y289448D01*
X627361Y283782D01*
X638864Y280292D01*
X650827Y279114D01*
X662789Y280292D01*
X674293Y283782D01*
X684894Y289448D01*
X694186Y297074D01*
X696190Y299516D01*
X743201D01*
X771560Y271158D01*
X778427Y265888D01*
X786424Y262576D01*
X795006Y261446D01*
X1347527D01*
X1356109Y262576D01*
X1364106Y265888D01*
X1370973Y271158D01*
X1473941Y374126D01*
X1562818D01*
X1564479Y371019D01*
X1572597Y361127D01*
X1582488Y353009D01*
X1593774Y346977D01*
X1606019Y343263D01*
X1618753Y342009D01*
X1631488Y343263D01*
X1643733Y346977D01*
X1655018Y353009D01*
X1664910Y361127D01*
X1673027Y371019D01*
X1679059Y382304D01*
X1682774Y394549D01*
X1684028Y407284D01*
X1682774Y420018D01*
X1679059Y432263D01*
X1676641Y436787D01*
X1788251Y548397D01*
X1792602Y554909D01*
X1794130Y562589D01*
Y981823D01*
X1797505Y984413D01*
X1802775Y991281D01*
X1806087Y999278D01*
X1807217Y1007860D01*
X1806087Y1016441D01*
X1802775Y1024438D01*
X1797505Y1031305D01*
X1790638Y1036575D01*
X1782641Y1039887D01*
X1774059Y1041017D01*
X1765477Y1039887D01*
X1757480Y1036575D01*
X1750613Y1031305D01*
X1745344Y1024438D01*
X1742031Y1016441D01*
X1740901Y1007860D01*
X1742031Y999278D01*
X1745344Y991281D01*
X1750613Y984413D01*
X1753988Y981823D01*
Y570903D01*
X1648257Y465171D01*
X1643733Y467590D01*
X1631488Y471304D01*
X1618753Y472558D01*
X1606019Y471304D01*
X1593774Y467590D01*
X1582488Y461558D01*
X1572597Y453440D01*
X1564479Y443548D01*
X1562818Y440441D01*
X1460207D01*
X1451625Y439311D01*
X1443628Y435999D01*
X1436761Y430729D01*
X1333793Y327761D01*
X808740D01*
X780382Y356120D01*
X773515Y361389D01*
X765518Y364702D01*
X756936Y365832D01*
X706445D01*
X701812Y374500D01*
X694186Y383792D01*
X684894Y391418D01*
X674293Y397084D01*
X662789Y400574D01*
X650827Y401752D01*
X638864Y400574D01*
X632061Y398510D01*
X494184Y536386D01*
Y662177D01*
X493237Y669371D01*
X490460Y676075D01*
X486043Y681832D01*
X287856Y880018D01*
Y1106327D01*
X297856Y1107811D01*
X298900Y1104369D01*
X304566Y1093768D01*
X312192Y1084476D01*
X321484Y1076850D01*
X331955Y1071253D01*
Y1055314D01*
X327536D01*
Y986417D01*
X400370D01*
Y1055314D01*
X387549D01*
Y1075744D01*
X389618Y1076850D01*
X398910Y1084476D01*
X404781Y1091629D01*
X413356Y1089478D01*
X414781Y1088582D01*
Y1066000D01*
X415728Y1058806D01*
X418505Y1052101D01*
X422923Y1046345D01*
X549257Y920010D01*
Y611056D01*
X550204Y603862D01*
X552981Y597158D01*
X557399Y591401D01*
X592750Y556050D01*
X590686Y549246D01*
X589508Y537284D01*
X590686Y525321D01*
X594176Y513818D01*
X599842Y503216D01*
X607468Y493925D01*
X616760Y486299D01*
X627361Y480632D01*
X638864Y477143D01*
X650827Y475965D01*
X662789Y477143D01*
X674293Y480632D01*
X684894Y486299D01*
X694186Y493925D01*
X701812Y503216D01*
X707478Y513818D01*
X710967Y525321D01*
X712146Y537284D01*
X710967Y549246D01*
X707478Y560749D01*
X701812Y571351D01*
X694186Y580643D01*
X684894Y588268D01*
X674293Y593935D01*
X662789Y597424D01*
X650827Y598602D01*
X638864Y597424D01*
X632061Y595360D01*
X604851Y622570D01*
Y931524D01*
X603904Y938718D01*
X601127Y945422D01*
X596709Y951179D01*
X470375Y1077514D01*
Y1116073D01*
X480375Y1120216D01*
X632017Y968573D01*
X637774Y964156D01*
X644478Y961379D01*
X651672Y960432D01*
X843502D01*
X846292Y955837D01*
X847647Y950432D01*
X843453Y944965D01*
X840140Y936968D01*
X839010Y928386D01*
X840140Y919805D01*
X843453Y911808D01*
X848722Y904941D01*
X855589Y899671D01*
X863586Y896359D01*
X872168Y895229D01*
X876386Y895784D01*
X937643Y834527D01*
X944154Y830177D01*
X951835Y828649D01*
X1105408D01*
X1150328Y783729D01*
X1147127Y776003D01*
X1145233Y761614D01*
X1147127Y747226D01*
X1152681Y733817D01*
X1161516Y722303D01*
X1173030Y713469D01*
X1186438Y707915D01*
X1200827Y706020D01*
X1215216Y707915D01*
X1228624Y713469D01*
X1240138Y722303D01*
X1248972Y733817D01*
X1254526Y747226D01*
X1256420Y761614D01*
X1254526Y776003D01*
X1248972Y789411D01*
X1240138Y800925D01*
X1228624Y809760D01*
X1215216Y815314D01*
X1200827Y817208D01*
X1186438Y815314D01*
X1178712Y812113D01*
X1127914Y862912D01*
X1121402Y867262D01*
X1116461Y868245D01*
X1115000Y878464D01*
X1117392Y879455D01*
X1126438Y886397D01*
X1133380Y895443D01*
X1137744Y905978D01*
X1139232Y917284D01*
X1137744Y928589D01*
X1133380Y939124D01*
X1126438Y948170D01*
X1123491Y950432D01*
X1126886Y960432D01*
X1164217D01*
X1167611Y950432D01*
X1164664Y948170D01*
X1157723Y939124D01*
X1153359Y928589D01*
X1151870Y917284D01*
X1153359Y905978D01*
X1157723Y895443D01*
X1164664Y886397D01*
X1173711Y879455D01*
X1184246Y875091D01*
X1195551Y873603D01*
X1206857Y875091D01*
X1217392Y879455D01*
X1226438Y886397D01*
X1233380Y895443D01*
X1237744Y905978D01*
X1239232Y917284D01*
X1237744Y928589D01*
X1233380Y939124D01*
X1226438Y948170D01*
X1223491Y950432D01*
X1226886Y960432D01*
X1427550D01*
X1430945Y950432D01*
X1427998Y948170D01*
X1421056Y939124D01*
X1416692Y928589D01*
X1415204Y917284D01*
X1416692Y905978D01*
X1421056Y895443D01*
X1427998Y886397D01*
X1437044Y879455D01*
X1447579Y875091D01*
X1458884Y873603D01*
X1470190Y875091D01*
X1480725Y879455D01*
X1489771Y886397D01*
X1496713Y895443D01*
X1501077Y905978D01*
X1502565Y917284D01*
X1501077Y928589D01*
X1496713Y939124D01*
X1489771Y948170D01*
X1486824Y950432D01*
X1490219Y960432D01*
X1527550D01*
X1530945Y950432D01*
X1527998Y948170D01*
X1521056Y939124D01*
X1516692Y928589D01*
X1515204Y917284D01*
X1516692Y905978D01*
X1521056Y895443D01*
X1527998Y886397D01*
X1537044Y879455D01*
X1542828Y877059D01*
Y832412D01*
X1520867Y810451D01*
X1509126Y815314D01*
X1494738Y817208D01*
X1480349Y815314D01*
X1466941Y809760D01*
X1455427Y800925D01*
X1446592Y789411D01*
X1441038Y776003D01*
X1439144Y761614D01*
X1441038Y747226D01*
X1446592Y733817D01*
X1455427Y722303D01*
X1466941Y713469D01*
X1480349Y707915D01*
X1494738Y706020D01*
X1509126Y707915D01*
X1520867Y712778D01*
X1544757Y688887D01*
Y673701D01*
X1526365D01*
Y600866D01*
X1595263D01*
Y673701D01*
X1576870D01*
Y695538D01*
X1575648Y701683D01*
X1572167Y706892D01*
X1572167Y706892D01*
X1543574Y735485D01*
X1548437Y747226D01*
X1550331Y761614D01*
X1548437Y776003D01*
X1543574Y787743D01*
X1570238Y814407D01*
X1570238Y814407D01*
X1573719Y819616D01*
X1574941Y825761D01*
Y877059D01*
X1580725Y879455D01*
X1589771Y886397D01*
X1596713Y895443D01*
X1601077Y905978D01*
X1601812Y911558D01*
X1603642Y913589D01*
X1612229Y916914D01*
X1615587Y914372D01*
X1616692Y905978D01*
X1621056Y895443D01*
X1627998Y886397D01*
X1637044Y879455D01*
X1647579Y875091D01*
X1658884Y873603D01*
X1670190Y875091D01*
X1680725Y879455D01*
X1689771Y886397D01*
X1696713Y895443D01*
X1701077Y905978D01*
X1702565Y917284D01*
X1701077Y928589D01*
X1696713Y939124D01*
X1689771Y948170D01*
X1680725Y955112D01*
X1670190Y959476D01*
X1658884Y960964D01*
X1653799Y960295D01*
X1606210Y1007884D01*
X1600453Y1012301D01*
X1593749Y1015078D01*
X1586554Y1016025D01*
X663186D01*
X521773Y1157438D01*
Y1821793D01*
X526944Y1824558D01*
X535937Y1831937D01*
X543317Y1840930D01*
X547532Y1848817D01*
X551943Y1849892D01*
X554120D01*
X558531Y1848817D01*
X562746Y1840930D01*
X570126Y1831937D01*
X579119Y1824558D01*
X584290Y1821793D01*
Y1381796D01*
X585237Y1374602D01*
X588014Y1367898D01*
X592431Y1362141D01*
X876974Y1077598D01*
X882731Y1073181D01*
X889435Y1070404D01*
X896629Y1069457D01*
X1930734D01*
X2030190Y970001D01*
X2025519Y960530D01*
X2022218Y960964D01*
X2010912Y959476D01*
X2000377Y955112D01*
X1991331Y948170D01*
X1984389Y939124D01*
X1980025Y928589D01*
X1978537Y917284D01*
X1980025Y905978D01*
X1984389Y895443D01*
X1991331Y886397D01*
X2000377Y879455D01*
X2006161Y877059D01*
Y832543D01*
X1984069Y810451D01*
X1972328Y815314D01*
X1957940Y817208D01*
X1943551Y815314D01*
X1930143Y809760D01*
X1918629Y800925D01*
X1909794Y789411D01*
X1904240Y776003D01*
X1902346Y761614D01*
X1904240Y747226D01*
X1909794Y733817D01*
X1918629Y722303D01*
X1930143Y713469D01*
X1943551Y707915D01*
X1957940Y706020D01*
X1972328Y707915D01*
X1984069Y712778D01*
X2008091Y688756D01*
Y673701D01*
X1989698D01*
Y600866D01*
X2058596D01*
Y673701D01*
X2040204D01*
Y695406D01*
X2040204Y695407D01*
X2038981Y701552D01*
X2035501Y706761D01*
X2035500Y706761D01*
X2006776Y735485D01*
X2011639Y747226D01*
X2013533Y761614D01*
X2011639Y776003D01*
X2006776Y787743D01*
X2033571Y814538D01*
X2033572Y814539D01*
X2037052Y819748D01*
X2038274Y825892D01*
X2038274Y825893D01*
Y877059D01*
X2044058Y879455D01*
X2053105Y886397D01*
X2060046Y895443D01*
X2064410Y905978D01*
X2065343Y913063D01*
X2073335Y918202D01*
X2075791Y918505D01*
X2078710Y915967D01*
X2080026Y905978D01*
X2084389Y895443D01*
X2091331Y886397D01*
X2100377Y879455D01*
X2110912Y875091D01*
X2122218Y873603D01*
X2133523Y875091D01*
X2144058Y879455D01*
X2153105Y886397D01*
X2160046Y895443D01*
X2164410Y905978D01*
X2165898Y917284D01*
X2164410Y928589D01*
X2160046Y939124D01*
X2153105Y948170D01*
X2144058Y955112D01*
X2133523Y959476D01*
X2122218Y960964D01*
X2118356Y960456D01*
X1961903Y1116909D01*
X1958637Y1119415D01*
X1961656Y1129415D01*
X2334109D01*
X2493523Y970001D01*
X2488852Y960530D01*
X2485551Y960964D01*
X2474246Y959476D01*
X2463711Y955112D01*
X2454664Y948170D01*
X2447722Y939124D01*
X2443359Y928589D01*
X2441870Y917284D01*
X2443359Y905978D01*
X2447722Y895443D01*
X2454664Y886397D01*
X2463711Y879455D01*
X2472425Y875845D01*
Y831461D01*
X2449949Y808985D01*
X2448939Y809760D01*
X2435530Y815314D01*
X2421142Y817208D01*
X2406753Y815314D01*
X2393345Y809760D01*
X2381831Y800925D01*
X2372996Y789411D01*
X2367442Y776003D01*
X2365548Y761614D01*
X2367442Y747226D01*
X2372996Y733817D01*
X2381831Y722303D01*
X2393345Y713469D01*
X2406753Y707915D01*
X2421142Y706020D01*
X2435530Y707915D01*
X2448939Y713469D01*
X2451761Y715634D01*
X2474354Y693041D01*
Y673701D01*
X2453032D01*
Y600866D01*
X2521929D01*
Y673701D01*
X2500606D01*
Y698478D01*
X2499607Y703502D01*
X2496762Y707760D01*
X2469702Y734819D01*
X2474841Y747226D01*
X2476735Y761614D01*
X2474841Y776003D01*
X2469287Y789411D01*
X2468512Y790421D01*
X2494833Y816742D01*
X2497678Y821000D01*
X2498677Y826024D01*
Y875845D01*
X2507391Y879455D01*
X2516438Y886397D01*
X2523380Y895443D01*
X2527743Y905978D01*
X2528676Y913063D01*
X2536669Y918202D01*
X2539124Y918505D01*
X2542044Y915967D01*
X2543359Y905978D01*
X2547722Y895443D01*
X2554664Y886397D01*
X2563711Y879455D01*
X2574246Y875091D01*
X2585551Y873603D01*
X2596856Y875091D01*
X2607391Y879455D01*
X2616438Y886397D01*
X2623380Y895443D01*
X2627743Y905978D01*
X2629232Y917284D01*
X2627743Y928589D01*
X2623380Y939124D01*
X2616438Y948170D01*
X2607391Y955112D01*
X2596856Y959476D01*
X2585551Y960964D01*
X2581689Y960456D01*
X2365278Y1176867D01*
X2359521Y1181284D01*
X2352817Y1184061D01*
X2345623Y1185008D01*
X953830D01*
X738309Y1400530D01*
Y1762738D01*
X743480Y1765502D01*
X752472Y1772882D01*
X759852Y1781874D01*
X765336Y1792134D01*
X768712Y1803266D01*
X769853Y1814842D01*
X768712Y1826419D01*
X765336Y1837551D01*
X759852Y1847811D01*
X752472Y1856803D01*
X743480Y1864183D01*
X739732Y1866186D01*
X740646Y1877036D01*
X745077Y1878518D01*
X831808Y1791788D01*
Y1607524D01*
X832877Y1602148D01*
X835923Y1597590D01*
X887564Y1545949D01*
X892122Y1542903D01*
X897498Y1541834D01*
X1048574D01*
X1055645Y1534763D01*
Y1525823D01*
X1049295Y1519473D01*
X1039127Y1520087D01*
X1038602Y1520872D01*
X1031440Y1525658D01*
X1022991Y1527338D01*
X1014542Y1525658D01*
X1007380Y1520872D01*
X1002594Y1513709D01*
X1000913Y1505261D01*
X1002594Y1496812D01*
X1007380Y1489649D01*
X1014542Y1484863D01*
X1022991Y1483183D01*
X1031440Y1484863D01*
X1038602Y1489649D01*
X1039273Y1490653D01*
X1055645D01*
Y1480096D01*
X1108795D01*
Y1490653D01*
X1161514D01*
X1166891Y1491722D01*
X1171449Y1494768D01*
X1172292Y1495611D01*
X1182292Y1491469D01*
Y1471944D01*
X1172727D01*
Y1416825D01*
X1223751D01*
Y1414699D01*
X1246467D01*
Y1444385D01*
Y1474070D01*
X1223751D01*
Y1471944D01*
X1210391D01*
Y1499531D01*
X1213074D01*
X1220755Y1501059D01*
X1227266Y1505409D01*
X1231617Y1511921D01*
X1233145Y1519601D01*
X1231617Y1527282D01*
X1227266Y1533794D01*
X1220755Y1538144D01*
X1213074Y1539672D01*
Y1549531D01*
X1220755Y1551059D01*
X1227266Y1555409D01*
X1231617Y1561921D01*
X1233145Y1569601D01*
X1231617Y1577282D01*
X1227266Y1583794D01*
X1220755Y1588144D01*
X1213074Y1589672D01*
Y1599531D01*
X1220755Y1601059D01*
X1227266Y1605409D01*
X1231617Y1611921D01*
X1233145Y1619601D01*
X1231617Y1627282D01*
X1227266Y1633794D01*
X1220755Y1638144D01*
X1213074Y1639672D01*
Y1649531D01*
X1220755Y1651059D01*
X1227266Y1655409D01*
X1231617Y1661921D01*
X1233145Y1669601D01*
X1231617Y1677282D01*
X1227266Y1683794D01*
X1220755Y1688144D01*
X1213160Y1689655D01*
Y1726688D01*
X1226329D01*
Y1724562D01*
X1248061D01*
Y1753263D01*
Y1781963D01*
X1226329D01*
Y1779837D01*
X1177273D01*
Y1726688D01*
X1185061D01*
Y1689672D01*
X1179610D01*
X1171929Y1688144D01*
X1165417Y1683794D01*
X1161067Y1677282D01*
X1159539Y1669601D01*
X1161067Y1661921D01*
X1165417Y1655409D01*
X1171929Y1651059D01*
X1179609Y1649531D01*
Y1639672D01*
X1171929Y1638144D01*
X1165417Y1633794D01*
X1165322Y1633651D01*
X1112663D01*
X1112663Y1659289D01*
X1112663Y1669289D01*
Y1710470D01*
X1059513D01*
Y1699914D01*
X1037608D01*
X1032231Y1698844D01*
X1027673Y1695799D01*
X1024833Y1692959D01*
X1022991Y1693325D01*
X1014542Y1691645D01*
X1007380Y1686859D01*
X1002594Y1679696D01*
X1000913Y1671247D01*
X1002594Y1662799D01*
X1005311Y1658732D01*
X1001247Y1649121D01*
X1000881Y1648732D01*
X917147D01*
X891102Y1674778D01*
Y1884523D01*
X890032Y1889899D01*
X886987Y1894457D01*
X761070Y2020374D01*
X765336Y2028354D01*
X768712Y2039486D01*
X769853Y2051063D01*
X768712Y2062640D01*
X765336Y2073772D01*
X759852Y2084031D01*
X752472Y2093023D01*
X743480Y2100403D01*
X739732Y2102406D01*
X740646Y2113256D01*
X745077Y2114738D01*
X884756Y1975060D01*
X889314Y1972014D01*
X894691Y1970945D01*
X1045791D01*
X1052862Y1963874D01*
Y1960388D01*
X1052862Y1950388D01*
Y1909207D01*
X1106012D01*
Y1918902D01*
X1198340D01*
X1199010Y1917898D01*
X1205522Y1913548D01*
X1213203Y1912020D01*
X1228662D01*
Y1875882D01*
X1217121D01*
Y1820764D01*
X1268145D01*
Y1818639D01*
X1290861D01*
Y1848323D01*
Y1878008D01*
X1268145D01*
Y1875882D01*
X1256761D01*
Y1915160D01*
X1260859Y1917898D01*
X1260955Y1918041D01*
X1276195D01*
X1281571Y1919111D01*
X1286129Y1922156D01*
X1302571Y1938598D01*
X1305616Y1943156D01*
X1306686Y1948532D01*
Y2118448D01*
X1305616Y2123824D01*
X1302571Y2128382D01*
X1299815Y2131137D01*
X1300182Y2132979D01*
X1298501Y2141428D01*
X1297361Y2143135D01*
X1302706Y2153135D01*
X1308349D01*
Y2176836D01*
X1281617D01*
Y2181836D01*
X1276617D01*
Y2210536D01*
X1254884D01*
Y2208410D01*
X1205829D01*
Y2155261D01*
X1216136D01*
Y2102161D01*
X1213203D01*
X1205522Y2100633D01*
X1199010Y2096283D01*
X1194660Y2089771D01*
X1193132Y2082090D01*
X1194660Y2074410D01*
X1199010Y2067898D01*
X1205522Y2063548D01*
X1213202Y2062020D01*
Y2052161D01*
X1205522Y2050633D01*
X1199010Y2046283D01*
X1198915Y2046140D01*
X1108172D01*
X1108172Y2073879D01*
X1108172Y2083879D01*
Y2125060D01*
X1099573D01*
Y2137036D01*
X1101134Y2138079D01*
X1105920Y2145242D01*
X1107601Y2153691D01*
X1105920Y2162139D01*
X1101134Y2169302D01*
X1093972Y2174088D01*
X1085523Y2175768D01*
X1077074Y2174088D01*
X1069912Y2169302D01*
X1065126Y2162139D01*
X1063446Y2153691D01*
X1065126Y2145242D01*
X1069912Y2138079D01*
X1071474Y2137036D01*
Y2125060D01*
X1055022D01*
Y2083879D01*
X1055022Y2075847D01*
Y2070393D01*
X1047951Y2063322D01*
X954342D01*
X761070Y2256594D01*
X765336Y2264575D01*
X768712Y2275707D01*
X769853Y2287284D01*
X768712Y2298860D01*
X765336Y2309992D01*
X759852Y2320251D01*
X752472Y2329244D01*
X743480Y2336624D01*
X735592Y2340839D01*
X734517Y2345250D01*
Y2347427D01*
X735592Y2351838D01*
X743480Y2356054D01*
X752472Y2363433D01*
X759852Y2372426D01*
X765336Y2382685D01*
X768712Y2393817D01*
X769853Y2405394D01*
X768712Y2416970D01*
X765336Y2428102D01*
X759852Y2438362D01*
X752472Y2447354D01*
X743480Y2454734D01*
X735592Y2458950D01*
X734517Y2463361D01*
Y2465537D01*
X735592Y2469948D01*
X743480Y2474164D01*
X752472Y2481544D01*
X759852Y2490536D01*
X765336Y2500795D01*
X768712Y2511927D01*
X769853Y2523504D01*
X768712Y2535081D01*
X765336Y2546213D01*
X759852Y2556472D01*
X752472Y2565464D01*
X743480Y2572844D01*
X735592Y2577060D01*
X734517Y2581470D01*
Y2583648D01*
X735592Y2588058D01*
X743480Y2592274D01*
X752472Y2599654D01*
X759852Y2608646D01*
X765336Y2618905D01*
X768712Y2630037D01*
X769853Y2641614D01*
X768712Y2653191D01*
X765336Y2664323D01*
X759852Y2674582D01*
X752472Y2683575D01*
X743480Y2690954D01*
X735592Y2695170D01*
X734517Y2699581D01*
Y2701758D01*
X735592Y2706169D01*
X743480Y2710384D01*
X752472Y2717764D01*
X759852Y2726756D01*
X765336Y2737016D01*
X768712Y2748148D01*
X769853Y2759724D01*
X768712Y2771301D01*
X765336Y2782433D01*
X759852Y2792692D01*
X756846Y2796354D01*
X760921Y2806653D01*
X767036Y2807066D01*
X826520Y2747583D01*
X831078Y2744537D01*
X836454Y2743468D01*
X1108812D01*
X1260124Y2592156D01*
X1264682Y2589110D01*
X1270058Y2588041D01*
X1899756D01*
X1953494Y2534303D01*
Y2510182D01*
X1953351Y2510086D01*
X1949000Y2503575D01*
X1947473Y2495894D01*
X1937614D01*
X1936086Y2503575D01*
X1931735Y2510086D01*
X1925224Y2514437D01*
X1917543Y2515965D01*
X1909862Y2514437D01*
X1903351Y2510086D01*
X1899000Y2503575D01*
X1897473Y2495894D01*
X1887614D01*
X1886086Y2503575D01*
X1881735Y2510086D01*
X1875224Y2514437D01*
X1867543Y2515965D01*
X1859862Y2514437D01*
X1853351Y2510086D01*
X1849000Y2503575D01*
X1847473Y2495894D01*
X1837614D01*
X1836086Y2503575D01*
X1831735Y2510086D01*
X1825224Y2514437D01*
X1817543Y2515965D01*
X1809862Y2514437D01*
X1803351Y2510086D01*
X1799000Y2503575D01*
X1798717Y2502150D01*
X1765143D01*
Y2509677D01*
X1710025D01*
Y2509677D01*
X1700025Y2507235D01*
X1699007Y2507916D01*
X1690558Y2509596D01*
X1682109Y2507916D01*
X1674947Y2503130D01*
X1670161Y2495967D01*
X1668480Y2487519D01*
X1670161Y2479070D01*
X1674947Y2471907D01*
X1682109Y2467121D01*
X1690558Y2465441D01*
X1699007Y2467121D01*
X1706539Y2460920D01*
X1707899Y2458653D01*
Y2435936D01*
X1767269D01*
Y2458653D01*
X1773620Y2466023D01*
X1797473D01*
Y2462430D01*
X1799000Y2454749D01*
X1803351Y2448238D01*
X1809862Y2443887D01*
X1817543Y2442359D01*
X1825224Y2443887D01*
X1831735Y2448238D01*
X1836086Y2454749D01*
X1837614Y2462430D01*
X1847473D01*
X1849000Y2454749D01*
X1853351Y2448238D01*
X1853494Y2448142D01*
Y2423178D01*
X1818150Y2387834D01*
X1604196D01*
X1598820Y2386765D01*
X1594262Y2383719D01*
X1323323Y2112780D01*
X1320277Y2108222D01*
X1319208Y2102845D01*
Y1878008D01*
X1300861D01*
Y1848323D01*
Y1818639D01*
X1319208D01*
Y1610368D01*
X1300348Y1591508D01*
X1297302Y1586950D01*
X1296233Y1581573D01*
Y1278781D01*
X1297302Y1273405D01*
X1300348Y1268847D01*
X1300995Y1268199D01*
X1301947Y1263414D01*
X1306733Y1256251D01*
X1313895Y1251465D01*
X1322344Y1249785D01*
X1330793Y1251465D01*
X1337956Y1256251D01*
X1342741Y1263414D01*
X1344422Y1271862D01*
X1342741Y1280311D01*
X1337956Y1287474D01*
X1330793Y1292260D01*
X1324332Y1293545D01*
Y1574356D01*
X1329810Y1578739D01*
X1339405Y1574503D01*
Y1446809D01*
X1340780Y1439896D01*
X1344695Y1434036D01*
X1345467Y1433264D01*
Y1405660D01*
X1396491D01*
Y1403534D01*
X1419207D01*
Y1433219D01*
Y1462905D01*
X1396491D01*
Y1460778D01*
X1375532D01*
Y1496358D01*
X1385532Y1501703D01*
X1386496Y1501059D01*
X1394176Y1499531D01*
X1427641D01*
X1435322Y1501059D01*
X1441833Y1505409D01*
X1441928Y1505552D01*
X1478986D01*
X1484363Y1506621D01*
X1488921Y1509667D01*
X1519837Y1540583D01*
X1522882Y1545141D01*
X1523952Y1550517D01*
Y1689158D01*
X1522882Y1694534D01*
X1521368Y1696801D01*
X1523149Y1704363D01*
X1525293Y1707777D01*
X1526993Y1708115D01*
X1534156Y1712901D01*
X1538941Y1720064D01*
X1540622Y1728513D01*
X1540255Y1730355D01*
X1586142Y1776242D01*
X1589188Y1780800D01*
X1589560Y1782669D01*
X1594832Y1786192D01*
X1599618Y1793355D01*
X1601299Y1801803D01*
X1599618Y1810252D01*
X1594832Y1817415D01*
X1587670Y1822201D01*
X1584740Y1822783D01*
X1581449Y1833634D01*
X1720331Y1972517D01*
X1731182Y1969225D01*
X1731612Y1967063D01*
X1736398Y1959900D01*
X1743560Y1955114D01*
X1752009Y1953434D01*
X1760458Y1955114D01*
X1763950Y1957448D01*
X2111881D01*
X2126835Y1942494D01*
X2127654Y1938375D01*
X2132440Y1931212D01*
X2139602Y1926426D01*
X2148051Y1924746D01*
X2156500Y1926426D01*
X2163662Y1931212D01*
X2168448Y1938375D01*
X2170129Y1946823D01*
X2168448Y1955272D01*
X2163662Y1962435D01*
X2156500Y1967221D01*
X2152381Y1968040D01*
X2137548Y1982873D01*
X2141690Y1992873D01*
X2493058D01*
X2498435Y1993943D01*
X2502993Y1996988D01*
X2685497Y2179492D01*
X2688542Y2184050D01*
X2689612Y2189427D01*
Y2354622D01*
X2688542Y2359998D01*
X2685497Y2364556D01*
X2674871Y2375181D01*
X2675238Y2377023D01*
X2673557Y2385472D01*
X2668771Y2392635D01*
X2661609Y2397421D01*
X2653160Y2399101D01*
X2644711Y2397421D01*
X2637549Y2392635D01*
X2635829Y2390060D01*
X2625829Y2393094D01*
Y3003579D01*
X2624759Y3008955D01*
X2621714Y3013513D01*
X2608187Y3027040D01*
X2603629Y3030086D01*
X2598252Y3031155D01*
D02*
G37*
G36*
X2318576Y3094350D02*
X2310127Y3092670D01*
X2302965Y3087884D01*
X2298179Y3080721D01*
X2298132Y3080486D01*
X2296198Y3079194D01*
X2232960Y3015956D01*
X2231118Y3016322D01*
X2222669Y3014642D01*
X2215507Y3009856D01*
X2210721Y3002693D01*
X2209041Y2994244D01*
X2210721Y2985796D01*
X2215507Y2978633D01*
X2222669Y2973847D01*
X2231118Y2972167D01*
X2233023Y2962368D01*
X2229471Y2961662D01*
X2222309Y2956876D01*
X2217523Y2949713D01*
X2215843Y2941265D01*
X2217523Y2932816D01*
X2222309Y2925653D01*
X2226740Y2922693D01*
X2227211Y2917682D01*
X2226751Y2912891D01*
X2226385Y2911818D01*
X2220519Y2907898D01*
X2215733Y2900736D01*
X2214052Y2892287D01*
X2215733Y2883838D01*
X2220519Y2876675D01*
X2227681Y2871890D01*
X2236130Y2870209D01*
X2244579Y2871890D01*
X2251742Y2876675D01*
X2256527Y2883838D01*
X2258208Y2892287D01*
X2257560Y2895542D01*
X2279389Y2917370D01*
X2289389Y2913228D01*
Y2900295D01*
X2287827Y2899252D01*
X2283041Y2892089D01*
X2281360Y2883640D01*
X2283041Y2875192D01*
X2287827Y2868029D01*
X2294989Y2863243D01*
X2303438Y2861563D01*
X2311887Y2863243D01*
X2319050Y2868029D01*
X2323835Y2875192D01*
X2325516Y2883640D01*
X2323835Y2892089D01*
X2319050Y2899252D01*
X2317488Y2900295D01*
Y2916495D01*
X2348136Y2947143D01*
X2349978Y2946777D01*
X2358427Y2948457D01*
X2365590Y2953243D01*
X2370375Y2960406D01*
X2372056Y2968854D01*
X2370375Y2977303D01*
X2365590Y2984466D01*
X2362614Y2986454D01*
X2360314Y2998296D01*
X2370262Y3008244D01*
X2376249D01*
X2381239Y3004909D01*
X2389688Y3003229D01*
X2398137Y3004909D01*
X2405300Y3009695D01*
X2410085Y3016858D01*
X2411766Y3025307D01*
X2410085Y3033755D01*
X2405300Y3040918D01*
X2398137Y3045704D01*
X2397424Y3045845D01*
X2392131Y3055925D01*
X2393812Y3064374D01*
X2392131Y3072822D01*
X2387345Y3079985D01*
X2380183Y3084771D01*
X2371734Y3086451D01*
X2363285Y3084771D01*
X2356123Y3079985D01*
X2352119Y3073992D01*
X2350155Y3072680D01*
X2342852Y3074892D01*
X2339702Y3077058D01*
X2338973Y3080721D01*
X2334188Y3087884D01*
X2327025Y3092670D01*
X2318576Y3094350D01*
D02*
G37*
G36*
X2946557Y3095000D02*
X2855000D01*
Y3003443D01*
X2868934Y3004815D01*
X2887139Y3010338D01*
X2903918Y3019306D01*
X2918625Y3031375D01*
X2930694Y3046082D01*
X2939662Y3062861D01*
X2945185Y3081066D01*
X2946557Y3095000D01*
D02*
G37*
G36*
X2845000D02*
X2753443D01*
X2754815Y3081066D01*
X2760338Y3062861D01*
X2769306Y3046082D01*
X2781375Y3031375D01*
X2796082Y3019306D01*
X2812861Y3010338D01*
X2831066Y3004815D01*
X2845000Y3003443D01*
Y3095000D01*
D02*
G37*
G36*
X139646Y3126257D02*
X123824Y3124698D01*
X108610Y3120083D01*
X94590Y3112589D01*
X82300Y3102503D01*
X72214Y3090214D01*
X64720Y3076193D01*
X60105Y3060979D01*
X58547Y3045157D01*
X60105Y3029336D01*
X64720Y3014122D01*
X72214Y3000101D01*
X82300Y2987812D01*
X94590Y2977726D01*
X108610Y2970232D01*
X123824Y2965617D01*
X139646Y2964058D01*
X155467Y2965617D01*
X170681Y2970232D01*
X184702Y2977726D01*
X196991Y2987812D01*
X207077Y3000101D01*
X214571Y3014122D01*
X219186Y3029336D01*
X220745Y3045157D01*
X219186Y3060979D01*
X214571Y3076193D01*
X207077Y3090214D01*
X196991Y3102503D01*
X184702Y3112589D01*
X170681Y3120083D01*
X155467Y3124698D01*
X139646Y3126257D01*
D02*
G37*
G36*
X1630599Y2979148D02*
X1622150Y2977468D01*
X1618658Y2975134D01*
X1592711D01*
X1585799Y2973759D01*
X1579938Y2969843D01*
X1502862Y2892767D01*
X1323391Y2713296D01*
X1271465D01*
X1267973Y2715630D01*
X1259524Y2717310D01*
X1251075Y2715630D01*
X1243913Y2710844D01*
X1239127Y2703681D01*
X1237447Y2695233D01*
X1239127Y2686784D01*
X1243913Y2679621D01*
X1251075Y2674835D01*
X1259524Y2673155D01*
X1267973Y2674835D01*
X1271465Y2677169D01*
X1330873D01*
X1337786Y2678544D01*
X1343646Y2682460D01*
X1488333Y2827146D01*
X1497572Y2823319D01*
Y2743532D01*
X1498947Y2736619D01*
X1502862Y2730759D01*
X1586657Y2646964D01*
X1587476Y2642845D01*
X1592262Y2635682D01*
X1599424Y2630896D01*
X1607873Y2629216D01*
X1616322Y2630896D01*
X1623485Y2635682D01*
X1628270Y2642845D01*
X1629951Y2651294D01*
X1628270Y2659742D01*
X1623485Y2666905D01*
X1616322Y2671691D01*
X1612203Y2672510D01*
X1533699Y2751014D01*
Y2872512D01*
X1600193Y2939007D01*
X1618658D01*
X1622150Y2936673D01*
X1630599Y2934993D01*
X1639048Y2936673D01*
X1646210Y2941459D01*
X1650996Y2948622D01*
X1652677Y2957070D01*
X1650996Y2965519D01*
X1646210Y2972682D01*
X1639048Y2977468D01*
X1630599Y2979148D01*
D02*
G37*
G36*
X2114053Y2794814D02*
X2105604Y2793134D01*
X2098442Y2788348D01*
X2097398Y2786786D01*
X1918294D01*
X1912918Y2785716D01*
X1908360Y2782671D01*
X1851402Y2725713D01*
X1798681D01*
X1797638Y2727275D01*
X1790475Y2732061D01*
X1782026Y2733741D01*
X1773577Y2732061D01*
X1766415Y2727275D01*
X1761629Y2720112D01*
X1759948Y2711664D01*
X1760832Y2707220D01*
X1756837Y2703251D01*
X1752501Y2700247D01*
X1745145Y2701710D01*
X1736696Y2700030D01*
X1729534Y2695244D01*
X1724748Y2688081D01*
X1723068Y2679633D01*
X1724748Y2671184D01*
X1729534Y2664021D01*
X1736696Y2659235D01*
X1745145Y2657555D01*
X1753594Y2659235D01*
X1760756Y2664021D01*
X1761800Y2665583D01*
X1885225D01*
X1890602Y2666653D01*
X1895160Y2669698D01*
X1953010Y2727548D01*
X2036107D01*
X2039797Y2723858D01*
X2044355Y2720812D01*
X2049732Y2719743D01*
X2132075D01*
X2133119Y2718181D01*
X2140281Y2713395D01*
X2148730Y2711715D01*
X2157179Y2713395D01*
X2164341Y2718181D01*
X2169127Y2725344D01*
X2170808Y2733793D01*
X2169127Y2742241D01*
X2164341Y2749404D01*
X2157179Y2754190D01*
X2148730Y2755870D01*
X2140281Y2754190D01*
X2139285Y2753524D01*
X2132075Y2760733D01*
X2134450Y2764288D01*
X2136131Y2772736D01*
X2134450Y2781185D01*
X2129664Y2788348D01*
X2122502Y2793134D01*
X2114053Y2794814D01*
D02*
G37*
G36*
X2666007Y2728858D02*
X2643291D01*
Y2704173D01*
X2666007D01*
Y2728858D01*
D02*
G37*
G36*
X2698724D02*
X2676007D01*
Y2699173D01*
Y2669488D01*
X2698724D01*
X2706093Y2663138D01*
Y2103714D01*
X2704753Y2101958D01*
X2696093Y2096529D01*
X2691564Y2097430D01*
X2683115Y2095750D01*
X2675953Y2090964D01*
X2671167Y2083801D01*
X2669486Y2075352D01*
X2671167Y2066904D01*
X2675953Y2059741D01*
X2683115Y2054955D01*
X2691564Y2053275D01*
X2696093Y2054176D01*
X2704753Y2048747D01*
X2706093Y2046991D01*
Y1850566D01*
X2697893Y1845094D01*
X2696093Y1844755D01*
X2688639Y1846237D01*
X2680190Y1844557D01*
X2673028Y1839771D01*
X2668242Y1832608D01*
X2666561Y1824159D01*
X2668242Y1815711D01*
X2673028Y1808548D01*
X2680190Y1803762D01*
X2688639Y1802082D01*
X2696093Y1803564D01*
X2698488Y1803113D01*
X2706093Y1799585D01*
Y1573210D01*
X2696093Y1565650D01*
X2694315Y1566004D01*
X2685866Y1564324D01*
X2678704Y1559538D01*
X2673918Y1552375D01*
X2672238Y1543927D01*
X2673918Y1535478D01*
X2678704Y1528315D01*
X2685866Y1523529D01*
X2694315Y1521849D01*
X2696093Y1522203D01*
X2706093Y1514643D01*
Y1263112D01*
X2696093Y1260861D01*
X2693310Y1262720D01*
X2684861Y1264401D01*
X2676413Y1262720D01*
X2669250Y1257935D01*
X2664464Y1250772D01*
X2662784Y1242323D01*
X2664464Y1233874D01*
X2669250Y1226712D01*
X2676413Y1221926D01*
X2684861Y1220246D01*
X2693310Y1221926D01*
X2696803Y1224260D01*
X2724157D01*
X2731070Y1225635D01*
X2736930Y1229550D01*
X2740846Y1235411D01*
X2742221Y1242323D01*
Y1547972D01*
Y1822530D01*
Y2078336D01*
Y2671615D01*
X2749747D01*
Y2685124D01*
X2886978D01*
X2888916Y2682223D01*
X2896079Y2677438D01*
X2904528Y2675757D01*
X2912977Y2677438D01*
X2920139Y2682223D01*
X2924925Y2689386D01*
X2926605Y2697835D01*
X2924925Y2706284D01*
X2920139Y2713446D01*
X2912977Y2718232D01*
X2904528Y2719912D01*
X2896079Y2718232D01*
X2888916Y2713446D01*
X2888767Y2713223D01*
X2749747D01*
Y2726733D01*
X2698724D01*
Y2728858D01*
D02*
G37*
G36*
X2666007Y2694173D02*
X2643291D01*
Y2669488D01*
X2666007D01*
Y2694173D01*
D02*
G37*
G36*
X2050262Y2668515D02*
X2026561D01*
Y2646783D01*
X2050262D01*
Y2668515D01*
D02*
G37*
G36*
X2016561D02*
X1992860D01*
Y2646783D01*
X2016561D01*
Y2668515D01*
D02*
G37*
G36*
X2482836Y2624420D02*
X2460119D01*
Y2599735D01*
X2482836D01*
Y2624420D01*
D02*
G37*
G36*
X390551Y2636614D02*
X344460D01*
X345565Y2628220D01*
X350735Y2615739D01*
X358959Y2605022D01*
X369676Y2596798D01*
X382157Y2591628D01*
X390551Y2590523D01*
Y2636614D01*
D02*
G37*
G36*
X446643D02*
X400551D01*
Y2590523D01*
X408945Y2591628D01*
X421426Y2596798D01*
X432144Y2605022D01*
X440368Y2615739D01*
X445538Y2628220D01*
X446643Y2636614D01*
D02*
G37*
G36*
X545068Y2577559D02*
X498976D01*
Y2531468D01*
X507370Y2532573D01*
X519851Y2537742D01*
X530569Y2545966D01*
X538793Y2556684D01*
X543963Y2569165D01*
X545068Y2577559D01*
D02*
G37*
G36*
X607087D02*
X560995D01*
X562100Y2569165D01*
X567270Y2556684D01*
X575494Y2545966D01*
X586212Y2537742D01*
X598693Y2532573D01*
X607087Y2531468D01*
Y2577559D01*
D02*
G37*
G36*
X488976D02*
X442885D01*
X443990Y2569165D01*
X449160Y2556684D01*
X457384Y2545966D01*
X468101Y2537742D01*
X480583Y2532573D01*
X488976Y2531468D01*
Y2577559D01*
D02*
G37*
G36*
X400551Y2574595D02*
Y2528504D01*
X446643D01*
X445538Y2536898D01*
X440368Y2549379D01*
X432144Y2560097D01*
X421426Y2568321D01*
X408945Y2573490D01*
X400551Y2574595D01*
D02*
G37*
G36*
X390551Y2574596D02*
X382157Y2573490D01*
X369676Y2568321D01*
X358959Y2560097D01*
X350735Y2549379D01*
X345565Y2536898D01*
X344460Y2528504D01*
X390551D01*
Y2574596D01*
D02*
G37*
G36*
X498976Y2515540D02*
Y2469449D01*
X545068D01*
X543963Y2477843D01*
X538793Y2490324D01*
X530569Y2501041D01*
X519851Y2509265D01*
X507370Y2514435D01*
X498976Y2515540D01*
D02*
G37*
G36*
X607087Y2515540D02*
X598693Y2514435D01*
X586212Y2509265D01*
X575494Y2501041D01*
X567270Y2490324D01*
X562100Y2477843D01*
X560995Y2469449D01*
X607087D01*
Y2515540D01*
D02*
G37*
G36*
X488976D02*
X480583Y2514435D01*
X468101Y2509265D01*
X457384Y2501041D01*
X449160Y2490324D01*
X443990Y2477843D01*
X442885Y2469449D01*
X488976D01*
Y2515540D01*
D02*
G37*
G36*
X607087Y2459449D02*
X560995D01*
X562100Y2451055D01*
X567270Y2438574D01*
X575494Y2427856D01*
X586212Y2419632D01*
X598693Y2414462D01*
X607087Y2413357D01*
Y2459449D01*
D02*
G37*
G36*
X1767269Y2425936D02*
X1742584D01*
Y2403220D01*
X1767269D01*
Y2425936D01*
D02*
G37*
G36*
X1732584D02*
X1707899D01*
Y2403220D01*
X1732584D01*
Y2425936D01*
D02*
G37*
G36*
X607087Y2279320D02*
X598693Y2278215D01*
X586212Y2273045D01*
X575494Y2264821D01*
X567270Y2254103D01*
X562100Y2241622D01*
X560995Y2233228D01*
X607087D01*
Y2279320D01*
D02*
G37*
G36*
X1972543Y2302571D02*
Y2264595D01*
Y2226619D01*
X1976053Y2227317D01*
X1983268Y2232138D01*
X1988089Y2239353D01*
X1988529Y2241566D01*
X1998725D01*
X1999000Y2240182D01*
X2003351Y2233671D01*
X2009862Y2229320D01*
X2017543Y2227792D01*
X2025224Y2229320D01*
X2031735Y2233671D01*
X2036086Y2240182D01*
X2037614Y2247863D01*
X2047473D01*
X2049000Y2240182D01*
X2053351Y2233671D01*
X2059863Y2229320D01*
X2067543Y2227792D01*
X2075224Y2229320D01*
X2081735Y2233671D01*
X2086086Y2240182D01*
X2087614Y2247863D01*
X2097472D01*
X2099000Y2240182D01*
X2103351Y2233671D01*
X2109863Y2229320D01*
X2117543Y2227792D01*
X2125224Y2229320D01*
X2131735Y2233671D01*
X2136086Y2240182D01*
X2137614Y2247863D01*
X2147472D01*
X2149000Y2240182D01*
X2153351Y2233671D01*
X2159863Y2229320D01*
X2167543Y2227792D01*
X2175224Y2229320D01*
X2181735Y2233671D01*
X2186086Y2240182D01*
X2187614Y2247863D01*
Y2281327D01*
X2186086Y2289008D01*
X2181735Y2295519D01*
X2175224Y2299870D01*
X2167543Y2301398D01*
X2159863Y2299870D01*
X2153351Y2295519D01*
X2149000Y2289008D01*
X2147472Y2281327D01*
X2137614D01*
X2136086Y2289008D01*
X2131735Y2295519D01*
X2125224Y2299870D01*
X2117543Y2301398D01*
X2109863Y2299870D01*
X2103351Y2295519D01*
X2099000Y2289008D01*
X2097472Y2281327D01*
X2087614D01*
X2086086Y2289008D01*
X2081735Y2295519D01*
X2075224Y2299870D01*
X2067543Y2301398D01*
X2059863Y2299870D01*
X2053351Y2295519D01*
X2049000Y2289008D01*
X2047473Y2281327D01*
X2037614D01*
X2036086Y2289008D01*
X2031735Y2295519D01*
X2025224Y2299870D01*
X2017543Y2301398D01*
X2009862Y2299870D01*
X2003351Y2295519D01*
X1999000Y2289008D01*
X1998725Y2287624D01*
X1988529D01*
X1988089Y2289838D01*
X1983268Y2297052D01*
X1976053Y2301873D01*
X1972543Y2302571D01*
D02*
G37*
G36*
X1766397Y2319285D02*
X1736712D01*
X1707027D01*
Y2296568D01*
X1709153D01*
Y2245544D01*
X1764271D01*
Y2251808D01*
X1797473D01*
Y2247863D01*
X1799000Y2240182D01*
X1802771Y2234539D01*
Y2217445D01*
X1799714Y2212870D01*
X1798034Y2204421D01*
X1799714Y2195973D01*
X1804500Y2188810D01*
X1811662Y2184024D01*
X1820111Y2182344D01*
X1828560Y2184024D01*
X1835723Y2188810D01*
X1840508Y2195973D01*
X1842189Y2204421D01*
X1840508Y2212870D01*
X1835723Y2220033D01*
X1834884Y2220593D01*
Y2238383D01*
X1836086Y2240182D01*
X1837614Y2247863D01*
X1847473D01*
X1849000Y2240182D01*
X1853351Y2233671D01*
X1859862Y2229320D01*
X1867543Y2227792D01*
X1875224Y2229320D01*
X1881735Y2233671D01*
X1886086Y2240182D01*
X1887614Y2247863D01*
X1897473D01*
X1899000Y2240182D01*
X1903351Y2233671D01*
X1909862Y2229320D01*
X1917543Y2227792D01*
X1925224Y2229320D01*
X1931735Y2233671D01*
X1936086Y2240182D01*
X1936361Y2241566D01*
X1946557D01*
X1946998Y2239353D01*
X1951818Y2232138D01*
X1959033Y2227317D01*
X1962543Y2226619D01*
Y2264595D01*
Y2302571D01*
X1959033Y2301873D01*
X1951818Y2297052D01*
X1946998Y2289838D01*
X1946557Y2287624D01*
X1936361D01*
X1936086Y2289008D01*
X1931735Y2295519D01*
X1925224Y2299870D01*
X1917543Y2301398D01*
X1909862Y2299870D01*
X1903351Y2295519D01*
X1899000Y2289008D01*
X1897473Y2281327D01*
X1887614D01*
X1886086Y2289008D01*
X1881735Y2295519D01*
X1875224Y2299870D01*
X1867543Y2301398D01*
X1859862Y2299870D01*
X1853351Y2295519D01*
X1849000Y2289008D01*
X1847473Y2281327D01*
X1837614D01*
X1836086Y2289008D01*
X1831735Y2295519D01*
X1825224Y2299870D01*
X1817543Y2301398D01*
X1809862Y2299870D01*
X1803351Y2295519D01*
X1799000Y2289008D01*
X1797988Y2283921D01*
X1764271D01*
Y2296568D01*
X1766397D01*
Y2319285D01*
D02*
G37*
G36*
X1308349Y2210536D02*
X1286617D01*
Y2186836D01*
X1308349D01*
Y2210536D01*
D02*
G37*
G36*
X545068Y2223228D02*
X498976D01*
Y2177137D01*
X507370Y2178242D01*
X519851Y2183412D01*
X530569Y2191636D01*
X538793Y2202354D01*
X543963Y2214835D01*
X545068Y2223228D01*
D02*
G37*
G36*
X1279793Y1781963D02*
X1258061D01*
Y1758263D01*
X1279793D01*
Y1781963D01*
D02*
G37*
G36*
Y1748263D02*
X1258061D01*
Y1724562D01*
X1279793D01*
Y1748263D01*
D02*
G37*
G36*
X1563388Y1702101D02*
X1554939Y1700421D01*
X1547777Y1695635D01*
X1542991Y1688472D01*
X1541311Y1680024D01*
X1542991Y1671575D01*
X1547777Y1664412D01*
X1554939Y1659626D01*
X1563388Y1657946D01*
X1571837Y1659626D01*
X1578999Y1664412D01*
X1580043Y1665974D01*
X1932486D01*
X1933553Y1660612D01*
X1938339Y1653449D01*
X1945501Y1648663D01*
X1953950Y1646983D01*
X1962399Y1648663D01*
X1969561Y1653449D01*
X1974347Y1660612D01*
X1976027Y1669061D01*
X1974347Y1677509D01*
X1969561Y1684672D01*
X1962399Y1689458D01*
X1953950Y1691138D01*
X1948512Y1690057D01*
X1944102Y1693004D01*
X1938725Y1694073D01*
X1580043D01*
X1578999Y1695635D01*
X1571837Y1700421D01*
X1563388Y1702101D01*
D02*
G37*
G36*
X2001464Y1474395D02*
X1993015Y1472715D01*
X1986519Y1468374D01*
X1926561D01*
X1920065Y1472715D01*
X1911616Y1474395D01*
X1903167Y1472715D01*
X1896005Y1467929D01*
X1891219Y1460766D01*
X1889539Y1452318D01*
X1891219Y1443869D01*
X1896005Y1436706D01*
X1903167Y1431920D01*
X1911616Y1430240D01*
X1920065Y1431920D01*
X1926561Y1436261D01*
X1986519D01*
X1993015Y1431920D01*
X2001464Y1430240D01*
X2009913Y1431920D01*
X2017075Y1436706D01*
X2021861Y1443869D01*
X2023542Y1452318D01*
X2021861Y1460766D01*
X2017075Y1467929D01*
X2009913Y1472715D01*
X2001464Y1474395D01*
D02*
G37*
G36*
X1279184Y1474070D02*
X1256467D01*
Y1449385D01*
X1279184D01*
Y1474070D01*
D02*
G37*
G36*
X1451924Y1462905D02*
X1429207D01*
Y1438219D01*
X1451924D01*
Y1462905D01*
D02*
G37*
G36*
X1279184Y1439385D02*
X1256467D01*
Y1414699D01*
X1279184D01*
Y1439385D01*
D02*
G37*
G36*
X1451924Y1428219D02*
X1429207D01*
Y1403534D01*
X1451924D01*
Y1428219D01*
D02*
G37*
G36*
X655827Y1180912D02*
Y1132835D01*
X703904D01*
X702731Y1141742D01*
X697363Y1154702D01*
X688823Y1165831D01*
X677694Y1174371D01*
X664735Y1179739D01*
X655827Y1180912D01*
D02*
G37*
G36*
X645827D02*
X636919Y1179739D01*
X623959Y1174371D01*
X612830Y1165831D01*
X604291Y1154702D01*
X598923Y1141742D01*
X597750Y1132835D01*
X645827D01*
Y1180912D01*
D02*
G37*
G36*
X703904Y1122835D02*
X655827D01*
Y1074758D01*
X664735Y1075930D01*
X677694Y1081299D01*
X688823Y1089838D01*
X697363Y1100967D01*
X702731Y1113927D01*
X703904Y1122835D01*
D02*
G37*
G36*
X645827D02*
X597750D01*
X598923Y1113927D01*
X604291Y1100967D01*
X612830Y1089838D01*
X623959Y1081299D01*
X636919Y1075930D01*
X645827Y1074758D01*
Y1122835D01*
D02*
G37*
G36*
X402497Y941298D02*
X368953D01*
Y909724D01*
X402497D01*
Y941298D01*
D02*
G37*
G36*
X358953D02*
X325410D01*
Y909724D01*
X358953D01*
Y941298D01*
D02*
G37*
G36*
X2385551Y960964D02*
X2374246Y959476D01*
X2363711Y955112D01*
X2354664Y948170D01*
X2347722Y939124D01*
X2343359Y928589D01*
X2341870Y917284D01*
X2343359Y905978D01*
X2347722Y895443D01*
X2354664Y886397D01*
X2363711Y879455D01*
X2374246Y875091D01*
X2385551Y873603D01*
X2396856Y875091D01*
X2407391Y879455D01*
X2416438Y886397D01*
X2423380Y895443D01*
X2427743Y905978D01*
X2429232Y917284D01*
X2427743Y928589D01*
X2423380Y939124D01*
X2416438Y948170D01*
X2407391Y955112D01*
X2396856Y959476D01*
X2385551Y960964D01*
D02*
G37*
G36*
X1922218D02*
X1910912Y959476D01*
X1900377Y955112D01*
X1891331Y948170D01*
X1884389Y939124D01*
X1880025Y928589D01*
X1878537Y917284D01*
X1880025Y905978D01*
X1884389Y895443D01*
X1891331Y886397D01*
X1900377Y879455D01*
X1910912Y875091D01*
X1922218Y873603D01*
X1933523Y875091D01*
X1944058Y879455D01*
X1953105Y886397D01*
X1960046Y895443D01*
X1964410Y905978D01*
X1965899Y917284D01*
X1964410Y928589D01*
X1960046Y939124D01*
X1953105Y948170D01*
X1944058Y955112D01*
X1933523Y959476D01*
X1922218Y960964D01*
D02*
G37*
G36*
X402497Y899724D02*
X368953D01*
Y868149D01*
X402497D01*
Y899724D01*
D02*
G37*
G36*
X358953D02*
X325410D01*
Y868149D01*
X358953D01*
Y899724D01*
D02*
G37*
G36*
X909427Y807087D02*
X901596D01*
X894361Y804090D01*
X888824Y798552D01*
X885827Y791317D01*
Y783486D01*
X888824Y776251D01*
X894361Y770713D01*
X901596Y767716D01*
X909427D01*
X916663Y770713D01*
X922200Y776251D01*
X925197Y783486D01*
Y791317D01*
X922200Y798552D01*
X916663Y804090D01*
X909427Y807087D01*
D02*
G37*
G36*
X653522D02*
X645691D01*
X638456Y804090D01*
X632918Y798552D01*
X629921Y791317D01*
Y783486D01*
X632918Y776251D01*
X638456Y770713D01*
X645691Y767716D01*
X653522D01*
X660757Y770713D01*
X666294Y776251D01*
X669291Y783486D01*
Y791317D01*
X666294Y798552D01*
X660757Y804090D01*
X653522Y807087D01*
D02*
G37*
G36*
X1669029Y808735D02*
Y766614D01*
X1711149D01*
X1710180Y773980D01*
X1705407Y785504D01*
X1697814Y795399D01*
X1687918Y802992D01*
X1676395Y807765D01*
X1669029Y808735D01*
D02*
G37*
G36*
X1659029D02*
X1651663Y807765D01*
X1640139Y802992D01*
X1630244Y795399D01*
X1622651Y785504D01*
X1617878Y773980D01*
X1616908Y766614D01*
X1659029D01*
Y808735D01*
D02*
G37*
G36*
X2595433D02*
Y766614D01*
X2637554D01*
X2636584Y773980D01*
X2631811Y785504D01*
X2624218Y795399D01*
X2614323Y802992D01*
X2602799Y807765D01*
X2595433Y808735D01*
D02*
G37*
G36*
X2585433Y808735D02*
X2578067Y807765D01*
X2566544Y802992D01*
X2556648Y795399D01*
X2549055Y785504D01*
X2544282Y773980D01*
X2543312Y766614D01*
X2585433D01*
Y808735D01*
D02*
G37*
G36*
X2132231Y808735D02*
Y766614D01*
X2174352D01*
X2173382Y773980D01*
X2168609Y785504D01*
X2161016Y795399D01*
X2151120Y802992D01*
X2139597Y807765D01*
X2132231Y808735D01*
D02*
G37*
G36*
X2122231Y808735D02*
X2114865Y807765D01*
X2103341Y802992D01*
X2093446Y795399D01*
X2085853Y785504D01*
X2081080Y773980D01*
X2080110Y766614D01*
X2122231D01*
Y808735D01*
D02*
G37*
G36*
X2174352Y756614D02*
X2132231D01*
Y714494D01*
X2139597Y715463D01*
X2151120Y720236D01*
X2161016Y727829D01*
X2168609Y737725D01*
X2173382Y749248D01*
X2174352Y756614D01*
D02*
G37*
G36*
X2637554Y756614D02*
X2595433D01*
Y714494D01*
X2602799Y715463D01*
X2614323Y720236D01*
X2624218Y727829D01*
X2631811Y737725D01*
X2636584Y749248D01*
X2637554Y756614D01*
D02*
G37*
G36*
X1711150Y756614D02*
X1669029D01*
Y714494D01*
X1676395Y715463D01*
X1687918Y720236D01*
X1697814Y727829D01*
X1705407Y737725D01*
X1710180Y749248D01*
X1711150Y756614D01*
D02*
G37*
G36*
X1659029D02*
X1616908D01*
X1617878Y749248D01*
X1622651Y737725D01*
X1630244Y727829D01*
X1640139Y720236D01*
X1651663Y715463D01*
X1659029Y714494D01*
Y756614D01*
D02*
G37*
G36*
X2585433Y756614D02*
X2543312D01*
X2544282Y749248D01*
X2549055Y737725D01*
X2556648Y727829D01*
X2566544Y720236D01*
X2578067Y715463D01*
X2585433Y714494D01*
Y756614D01*
D02*
G37*
G36*
X2122231Y756614D02*
X2080110D01*
X2081080Y749248D01*
X2085853Y737725D01*
X2093446Y727829D01*
X2103341Y720236D01*
X2114865Y715463D01*
X2122231Y714494D01*
Y756614D01*
D02*
G37*
G36*
X830649Y787402D02*
X822894D01*
X815288Y785889D01*
X808123Y782921D01*
X801675Y778612D01*
X796191Y773128D01*
X791882Y766680D01*
X788914Y759515D01*
X787402Y751909D01*
Y744154D01*
X788914Y736548D01*
X791882Y729383D01*
X796191Y722934D01*
X801675Y717451D01*
X808123Y713142D01*
X815288Y710174D01*
X822894Y708661D01*
X830649D01*
X838255Y710174D01*
X845420Y713142D01*
X851869Y717451D01*
X857352Y722934D01*
X861661Y729383D01*
X864629Y736548D01*
X866142Y744154D01*
Y751909D01*
X864629Y759515D01*
X861661Y766680D01*
X857352Y773129D01*
X851869Y778612D01*
X845420Y782921D01*
X838255Y785889D01*
X830649Y787402D01*
D02*
G37*
G36*
X732224D02*
X724469D01*
X716863Y785889D01*
X709698Y782921D01*
X703250Y778612D01*
X697766Y773128D01*
X693457Y766680D01*
X690489Y759515D01*
X688976Y751909D01*
Y744154D01*
X690489Y736548D01*
X693457Y729383D01*
X697766Y722934D01*
X703250Y717451D01*
X709698Y713142D01*
X716863Y710174D01*
X724469Y708661D01*
X732224D01*
X739830Y710174D01*
X746995Y713142D01*
X753443Y717451D01*
X758927Y722934D01*
X763236Y729383D01*
X766203Y736548D01*
X767716Y744154D01*
Y751909D01*
X766203Y759515D01*
X763236Y766680D01*
X758927Y773129D01*
X753443Y778612D01*
X746995Y782921D01*
X739830Y785889D01*
X732224Y787402D01*
D02*
G37*
G36*
X1713530Y675827D02*
X1681955D01*
Y642284D01*
X1713530D01*
Y675827D01*
D02*
G37*
G36*
X1671955D02*
X1640381D01*
Y642284D01*
X1671955D01*
Y675827D01*
D02*
G37*
G36*
X1250197D02*
X1218622D01*
Y642284D01*
X1250197D01*
Y675827D01*
D02*
G37*
G36*
X1208622D02*
X1177047D01*
Y642284D01*
X1208622D01*
Y675827D01*
D02*
G37*
G36*
X2640197D02*
X2608622D01*
Y642284D01*
X2640197D01*
Y675827D01*
D02*
G37*
G36*
X2598622D02*
X2567047D01*
Y642284D01*
X2598622D01*
Y675827D01*
D02*
G37*
G36*
X2176863D02*
X2145289D01*
Y642283D01*
X2176863D01*
Y675827D01*
D02*
G37*
G36*
X2135289D02*
X2103714D01*
Y642283D01*
X2135289D01*
Y675827D01*
D02*
G37*
G36*
X1031535Y817208D02*
X1017147Y815314D01*
X1003739Y809760D01*
X992225Y800925D01*
X983390Y789411D01*
X977836Y776003D01*
X975942Y761614D01*
X977836Y747226D01*
X983390Y733817D01*
X992225Y722303D01*
X1003739Y713469D01*
X1017147Y707915D01*
X1031535Y706020D01*
X1045924Y707915D01*
X1053650Y711115D01*
X1064359Y700407D01*
Y673701D01*
X1063032D01*
Y600866D01*
X1131929D01*
Y673701D01*
X1104500D01*
Y708721D01*
X1102972Y716401D01*
X1098621Y722913D01*
X1082035Y739499D01*
X1085235Y747226D01*
X1087129Y761614D01*
X1085235Y776003D01*
X1079681Y789411D01*
X1070846Y800925D01*
X1059332Y809760D01*
X1045924Y815314D01*
X1031535Y817208D01*
D02*
G37*
G36*
X2640197Y632284D02*
X2608622D01*
Y598740D01*
X2640197D01*
Y632284D01*
D02*
G37*
G36*
X2598622D02*
X2567047D01*
Y598740D01*
X2598622D01*
Y632284D01*
D02*
G37*
G36*
X2176863Y632283D02*
X2145289D01*
Y598740D01*
X2176863D01*
Y632283D01*
D02*
G37*
G36*
X2135289D02*
X2103714D01*
Y598740D01*
X2135289D01*
Y632283D01*
D02*
G37*
G36*
X1713530Y632284D02*
X1681955D01*
Y598740D01*
X1713530D01*
Y632284D01*
D02*
G37*
G36*
X1671955D02*
X1640381D01*
Y598740D01*
X1671955D01*
Y632284D01*
D02*
G37*
G36*
X1250197Y632284D02*
X1218622D01*
Y598740D01*
X1250197D01*
Y632284D01*
D02*
G37*
G36*
X1208622D02*
X1177047D01*
Y598740D01*
X1208622D01*
Y632284D01*
D02*
G37*
G36*
X2395551Y610354D02*
X2382817Y609099D01*
X2370572Y605385D01*
X2359286Y599353D01*
X2349395Y591235D01*
X2341277Y581343D01*
X2335245Y570058D01*
X2331530Y557813D01*
X2330276Y545079D01*
X2331530Y532344D01*
X2335245Y520099D01*
X2341277Y508814D01*
X2349395Y498922D01*
X2359286Y490805D01*
X2370572Y484773D01*
X2382817Y481058D01*
X2395551Y479804D01*
X2408286Y481058D01*
X2420531Y484773D01*
X2431816Y490805D01*
X2441707Y498922D01*
X2449825Y508814D01*
X2455857Y520099D01*
X2459572Y532344D01*
X2460826Y545079D01*
X2459572Y557813D01*
X2455857Y570058D01*
X2449825Y581343D01*
X2441707Y591235D01*
X2431816Y599353D01*
X2420531Y605385D01*
X2408286Y609099D01*
X2395551Y610354D01*
D02*
G37*
G36*
X1932349D02*
X1919615Y609099D01*
X1907370Y605385D01*
X1896084Y599353D01*
X1886193Y591235D01*
X1878075Y581343D01*
X1872043Y570058D01*
X1868328Y557813D01*
X1867074Y545079D01*
X1868328Y532344D01*
X1872043Y520099D01*
X1878075Y508814D01*
X1886193Y498922D01*
X1896084Y490805D01*
X1907370Y484773D01*
X1919615Y481058D01*
X1932349Y479804D01*
X1945084Y481058D01*
X1957329Y484773D01*
X1968614Y490805D01*
X1978505Y498922D01*
X1986623Y508814D01*
X1992655Y520099D01*
X1996370Y532344D01*
X1997624Y545079D01*
X1996370Y557813D01*
X1992655Y570058D01*
X1986623Y581343D01*
X1978505Y591235D01*
X1968614Y599353D01*
X1957329Y605385D01*
X1945084Y609099D01*
X1932349Y610354D01*
D02*
G37*
G36*
X1469147D02*
X1456412Y609099D01*
X1444167Y605385D01*
X1432882Y599353D01*
X1422991Y591235D01*
X1414873Y581343D01*
X1408841Y570058D01*
X1405126Y557813D01*
X1403872Y545079D01*
X1405126Y532344D01*
X1408841Y520099D01*
X1414873Y508814D01*
X1422991Y498922D01*
X1432882Y490805D01*
X1444167Y484773D01*
X1456412Y481058D01*
X1469147Y479804D01*
X1481881Y481058D01*
X1494127Y484773D01*
X1505412Y490805D01*
X1515303Y498922D01*
X1523421Y508814D01*
X1529453Y520099D01*
X1533168Y532344D01*
X1534422Y545079D01*
X1533168Y557813D01*
X1529453Y570058D01*
X1523421Y581343D01*
X1515303Y591235D01*
X1505412Y599353D01*
X1494127Y605385D01*
X1481881Y609099D01*
X1469147Y610354D01*
D02*
G37*
G36*
X1005945D02*
X993210Y609099D01*
X980965Y605385D01*
X969680Y599353D01*
X959789Y591235D01*
X951671Y581343D01*
X945639Y570058D01*
X941924Y557813D01*
X940670Y545079D01*
X941924Y532344D01*
X945639Y520099D01*
X951671Y508814D01*
X959789Y498922D01*
X969680Y490805D01*
X980965Y484773D01*
X993210Y481058D01*
X1005945Y479804D01*
X1018679Y481058D01*
X1030925Y484773D01*
X1042210Y490805D01*
X1052101Y498922D01*
X1060219Y508814D01*
X1066251Y520099D01*
X1069966Y532344D01*
X1071220Y545079D01*
X1069966Y557813D01*
X1066251Y570058D01*
X1060219Y581343D01*
X1052101Y591235D01*
X1042210Y599353D01*
X1030925Y605385D01*
X1018679Y609099D01*
X1005945Y610354D01*
D02*
G37*
G36*
X355551Y598602D02*
X343589Y597424D01*
X332086Y593935D01*
X321484Y588268D01*
X312192Y580643D01*
X304566Y571351D01*
X298900Y560749D01*
X295411Y549246D01*
X294232Y537284D01*
X295411Y525321D01*
X298900Y513818D01*
X304566Y503216D01*
X312192Y493925D01*
X321484Y486299D01*
X332086Y480632D01*
X343589Y477143D01*
X355551Y475965D01*
X367514Y477143D01*
X379017Y480632D01*
X389618Y486299D01*
X398910Y493925D01*
X406536Y503216D01*
X412202Y513818D01*
X415692Y525321D01*
X416870Y537284D01*
X415692Y549246D01*
X412202Y560749D01*
X406536Y571351D01*
X398910Y580643D01*
X389618Y588268D01*
X379017Y593935D01*
X367514Y597424D01*
X355551Y598602D01*
D02*
G37*
G36*
X2545157Y472558D02*
X2532423Y471304D01*
X2520178Y467590D01*
X2508893Y461558D01*
X2499001Y453440D01*
X2490883Y443548D01*
X2489223Y440441D01*
X2419205D01*
X2410623Y439311D01*
X2402626Y435999D01*
X2395759Y430730D01*
X2264904Y299874D01*
X2053593D01*
X2045011Y298744D01*
X2037014Y295432D01*
X2030147Y290163D01*
X1974046Y234061D01*
X1970674Y235084D01*
X1957940Y236338D01*
X1945205Y235084D01*
X1932960Y231369D01*
X1921675Y225337D01*
X1911783Y217219D01*
X1903666Y207328D01*
X1897634Y196043D01*
X1893919Y183798D01*
X1892665Y171063D01*
X1893919Y158328D01*
X1897634Y146083D01*
X1903666Y134798D01*
X1911783Y124907D01*
X1921675Y116789D01*
X1932960Y110757D01*
X1945205Y107042D01*
X1957940Y105788D01*
X1970674Y107042D01*
X1982919Y110757D01*
X1994205Y116789D01*
X2004096Y124907D01*
X2012214Y134798D01*
X2018246Y146083D01*
X2021960Y158328D01*
X2023215Y171063D01*
X2021960Y183798D01*
X2020938Y187169D01*
X2067328Y233559D01*
X2278638D01*
X2287220Y234689D01*
X2295217Y238001D01*
X2302084Y243270D01*
X2432940Y374126D01*
X2489223D01*
X2490883Y371019D01*
X2499001Y361127D01*
X2508893Y353009D01*
X2520178Y346977D01*
X2532423Y343263D01*
X2545157Y342009D01*
X2557892Y343263D01*
X2570137Y346977D01*
X2581422Y353009D01*
X2591314Y361127D01*
X2599432Y371019D01*
X2605464Y382304D01*
X2609178Y394549D01*
X2610432Y407284D01*
X2609178Y420018D01*
X2605464Y432263D01*
X2599432Y443548D01*
X2591314Y453440D01*
X2581422Y461558D01*
X2570137Y467590D01*
X2557892Y471304D01*
X2545157Y472558D01*
D02*
G37*
G36*
X2081955D02*
X2069221Y471304D01*
X2056976Y467590D01*
X2045691Y461558D01*
X2035799Y453440D01*
X2027681Y443548D01*
X2026021Y440441D01*
X1939400D01*
X1930818Y439311D01*
X1922821Y435999D01*
X1915954Y430729D01*
X1777055Y291830D01*
X1582791D01*
X1574209Y290700D01*
X1566212Y287388D01*
X1559345Y282118D01*
X1511184Y233958D01*
X1507472Y235084D01*
X1494738Y236338D01*
X1482003Y235084D01*
X1469758Y231369D01*
X1458473Y225337D01*
X1448581Y217219D01*
X1440464Y207328D01*
X1434431Y196043D01*
X1430717Y183798D01*
X1429463Y171063D01*
X1430717Y158328D01*
X1434431Y146083D01*
X1440464Y134798D01*
X1448581Y124907D01*
X1458473Y116789D01*
X1469758Y110757D01*
X1482003Y107042D01*
X1494738Y105788D01*
X1507472Y107042D01*
X1519717Y110757D01*
X1531002Y116789D01*
X1540894Y124907D01*
X1549012Y134798D01*
X1555044Y146083D01*
X1558758Y158328D01*
X1560013Y171063D01*
X1558758Y183798D01*
X1557839Y186828D01*
X1596525Y225515D01*
X1790789D01*
X1799371Y226645D01*
X1807368Y229957D01*
X1814235Y235226D01*
X1953134Y374126D01*
X2026021D01*
X2027681Y371019D01*
X2035799Y361127D01*
X2045691Y353009D01*
X2056976Y346977D01*
X2069221Y343263D01*
X2081955Y342009D01*
X2094690Y343263D01*
X2106935Y346977D01*
X2118220Y353009D01*
X2128112Y361127D01*
X2136229Y371019D01*
X2142262Y382304D01*
X2145976Y394549D01*
X2147230Y407284D01*
X2145976Y420018D01*
X2142262Y432263D01*
X2136229Y443548D01*
X2128112Y453440D01*
X2118220Y461558D01*
X2106935Y467590D01*
X2094690Y471304D01*
X2081955Y472558D01*
D02*
G37*
G36*
X1155551D02*
X1142817Y471304D01*
X1130572Y467590D01*
X1119286Y461558D01*
X1109395Y453440D01*
X1101277Y443548D01*
X1095245Y432263D01*
X1091531Y420018D01*
X1090276Y407284D01*
X1091531Y394549D01*
X1095245Y382304D01*
X1101277Y371019D01*
X1109395Y361127D01*
X1119286Y353009D01*
X1130572Y346977D01*
X1142817Y343263D01*
X1155551Y342009D01*
X1168286Y343263D01*
X1180531Y346977D01*
X1191816Y353009D01*
X1201707Y361127D01*
X1209825Y371019D01*
X1215857Y382304D01*
X1219572Y394549D01*
X1220826Y407284D01*
X1219572Y420018D01*
X1215857Y432263D01*
X1209825Y443548D01*
X1201707Y453440D01*
X1191816Y461558D01*
X1180531Y467590D01*
X1168286Y471304D01*
X1155551Y472558D01*
D02*
G37*
G36*
X2421142Y236338D02*
X2408407Y235084D01*
X2396162Y231369D01*
X2384877Y225337D01*
X2374985Y217219D01*
X2366868Y207328D01*
X2360836Y196043D01*
X2357121Y183798D01*
X2355867Y171063D01*
X2357121Y158328D01*
X2360836Y146083D01*
X2366868Y134798D01*
X2374985Y124907D01*
X2384877Y116789D01*
X2396162Y110757D01*
X2408407Y107042D01*
X2421142Y105788D01*
X2433876Y107042D01*
X2446121Y110757D01*
X2457407Y116789D01*
X2467298Y124907D01*
X2475416Y134798D01*
X2481448Y146083D01*
X2485162Y158328D01*
X2486417Y171063D01*
X2485162Y183798D01*
X2481448Y196043D01*
X2475416Y207328D01*
X2467298Y217219D01*
X2457407Y225337D01*
X2446121Y231369D01*
X2433876Y235084D01*
X2421142Y236338D01*
D02*
G37*
G36*
X500678Y385287D02*
X492096Y384157D01*
X484099Y380845D01*
X477232Y375575D01*
X471963Y368708D01*
X468650Y360711D01*
X467521Y352130D01*
X468650Y343548D01*
X471963Y335551D01*
X477232Y328683D01*
X484099Y323414D01*
X492096Y320102D01*
X492306Y320074D01*
Y274306D01*
X493254Y267112D01*
X496031Y260408D01*
X500448Y254651D01*
X592750Y162349D01*
X590686Y155545D01*
X589508Y143583D01*
X590686Y131620D01*
X594176Y120117D01*
X599842Y109516D01*
X607468Y100224D01*
X616760Y92598D01*
X627361Y86931D01*
X638864Y83442D01*
X650827Y82264D01*
X662789Y83442D01*
X674293Y86931D01*
X684894Y92598D01*
X694186Y100224D01*
X701812Y109516D01*
X707478Y120117D01*
X710967Y131620D01*
X712115Y143266D01*
X972735D01*
X977261Y134798D01*
X985379Y124907D01*
X995271Y116789D01*
X1006556Y110757D01*
X1018801Y107042D01*
X1031535Y105788D01*
X1044270Y107042D01*
X1056515Y110757D01*
X1067800Y116789D01*
X1077692Y124907D01*
X1085810Y134798D01*
X1091842Y146083D01*
X1095556Y158328D01*
X1096810Y171063D01*
X1095556Y183798D01*
X1091842Y196043D01*
X1085810Y207328D01*
X1077692Y217219D01*
X1067800Y225337D01*
X1056515Y231369D01*
X1044270Y235084D01*
X1031535Y236338D01*
X1018801Y235084D01*
X1006556Y231369D01*
X995271Y225337D01*
X985379Y217219D01*
X977261Y207328D01*
X972735Y198860D01*
X689280D01*
X682086Y197913D01*
X680142Y197107D01*
X674293Y200234D01*
X662789Y203723D01*
X650827Y204902D01*
X638864Y203723D01*
X632061Y201660D01*
X547900Y285820D01*
Y332704D01*
X546953Y339899D01*
X544176Y346603D01*
X539759Y352360D01*
X532903Y359215D01*
X532706Y360711D01*
X529394Y368708D01*
X524124Y375575D01*
X517257Y380845D01*
X509260Y384157D01*
X500678Y385287D01*
D02*
G37*
G36*
X355551Y204902D02*
X343589Y203723D01*
X332086Y200234D01*
X321484Y194567D01*
X312192Y186942D01*
X304566Y177650D01*
X298900Y167048D01*
X295411Y155545D01*
X294232Y143583D01*
X295411Y131620D01*
X298900Y120117D01*
X304566Y109516D01*
X312192Y100224D01*
X321484Y92598D01*
X332086Y86931D01*
X343589Y83442D01*
X355551Y82264D01*
X367514Y83442D01*
X379017Y86931D01*
X389618Y92598D01*
X398910Y100224D01*
X406536Y109516D01*
X412202Y120117D01*
X415692Y131620D01*
X416870Y143583D01*
X415692Y155545D01*
X412202Y167048D01*
X406536Y177650D01*
X398910Y186942D01*
X389618Y194567D01*
X379017Y200234D01*
X367514Y203723D01*
X355551Y204902D01*
D02*
G37*
G36*
X2850000Y254653D02*
X2833629Y253365D01*
X2817660Y249531D01*
X2802488Y243247D01*
X2788486Y234666D01*
X2775999Y224001D01*
X2765334Y211514D01*
X2756753Y197512D01*
X2750469Y182340D01*
X2746635Y166371D01*
X2745347Y150000D01*
X2746635Y133629D01*
X2750469Y117660D01*
X2756753Y102488D01*
X2765334Y88486D01*
X2775999Y75999D01*
X2788486Y65334D01*
X2802488Y56753D01*
X2817660Y50469D01*
X2833629Y46635D01*
X2850000Y45347D01*
X2866371Y46635D01*
X2882340Y50469D01*
X2897512Y56753D01*
X2911514Y65334D01*
X2924001Y75999D01*
X2934666Y88486D01*
X2943247Y102488D01*
X2949531Y117660D01*
X2953365Y133629D01*
X2954653Y150000D01*
X2953365Y166371D01*
X2949531Y182340D01*
X2943247Y197512D01*
X2934666Y211514D01*
X2924001Y224001D01*
X2911514Y234666D01*
X2897512Y243247D01*
X2882340Y249531D01*
X2866371Y253365D01*
X2850000Y254653D01*
D02*
G37*
%LPD*%
G36*
X2120737Y2664402D02*
X2120737Y2657226D01*
Y2642669D01*
X2149439D01*
Y2632669D01*
X2120737D01*
Y2610937D01*
X2122863D01*
Y2561882D01*
X2156144D01*
X2172183Y2545844D01*
X2176741Y2542798D01*
X2182117Y2541729D01*
X2197693D01*
X2209347Y2530075D01*
Y2423562D01*
X2184753Y2398968D01*
X1957994D01*
X1931593Y2425369D01*
Y2448142D01*
X1931735Y2448238D01*
X1936086Y2454749D01*
X1937614Y2462430D01*
X1947473D01*
X1949000Y2454749D01*
X1953351Y2448238D01*
X1959862Y2443887D01*
X1967543Y2442359D01*
X1975224Y2443887D01*
X1981735Y2448238D01*
X1986086Y2454749D01*
X1987614Y2462430D01*
X1997473D01*
X1999000Y2454749D01*
X2003351Y2448238D01*
X2009862Y2443887D01*
X2017543Y2442359D01*
X2025224Y2443887D01*
X2031735Y2448238D01*
X2036086Y2454749D01*
X2037614Y2462430D01*
X2047473D01*
X2049000Y2454749D01*
X2053351Y2448238D01*
X2059863Y2443887D01*
X2067543Y2442359D01*
X2075224Y2443887D01*
X2081735Y2448238D01*
X2086086Y2454749D01*
X2087614Y2462430D01*
X2097472D01*
X2099000Y2454749D01*
X2103351Y2448238D01*
X2109863Y2443887D01*
X2117543Y2442359D01*
X2125224Y2443887D01*
X2131735Y2448238D01*
X2136086Y2454749D01*
X2136361Y2456133D01*
X2146557D01*
X2146998Y2453919D01*
X2151818Y2446705D01*
X2159033Y2441884D01*
X2162543Y2441186D01*
Y2479162D01*
Y2517138D01*
X2159033Y2516440D01*
X2151818Y2511619D01*
X2146998Y2504405D01*
X2146557Y2502191D01*
X2136361D01*
X2136086Y2503575D01*
X2131735Y2510086D01*
X2125224Y2514437D01*
X2117543Y2515965D01*
X2109863Y2514437D01*
X2103351Y2510086D01*
X2099000Y2503575D01*
X2097472Y2495894D01*
X2087614D01*
X2086086Y2503575D01*
X2081735Y2510086D01*
X2075224Y2514437D01*
X2067543Y2515965D01*
X2059863Y2514437D01*
X2053351Y2510086D01*
X2049000Y2503575D01*
X2047473Y2495894D01*
X2037614D01*
X2036086Y2503575D01*
X2035106Y2505041D01*
Y2565996D01*
X2048136D01*
Y2576552D01*
X2068601D01*
X2073977Y2577622D01*
X2078535Y2580668D01*
X2090085Y2592217D01*
X2093130Y2596775D01*
X2094200Y2602151D01*
Y2660588D01*
X2100838Y2667226D01*
X2111907D01*
X2120737Y2664402D01*
D02*
G37*
G36*
X938588Y2039338D02*
X943146Y2036293D01*
X948523Y2035223D01*
X1055022D01*
Y2024666D01*
X1086805D01*
X1093323Y2016746D01*
X1088629Y2009601D01*
X1052862D01*
Y1999044D01*
X900510D01*
X761070Y2138484D01*
X765336Y2146465D01*
X768712Y2157596D01*
X769853Y2169173D01*
X768712Y2180750D01*
X765336Y2191882D01*
X759852Y2202141D01*
X752472Y2211133D01*
X743480Y2218513D01*
X739732Y2220516D01*
X740646Y2231367D01*
X745077Y2232849D01*
X938588Y2039338D01*
D02*
G37*
G36*
X1686816Y2058802D02*
X1574154Y1946140D01*
X1564669D01*
X1559324Y1956140D01*
X1560923Y1958534D01*
X1562604Y1966983D01*
X1560923Y1975431D01*
X1556138Y1982594D01*
X1548975Y1987380D01*
X1544855Y1988199D01*
X1538191Y1994863D01*
X1532331Y1998779D01*
X1525418Y2000154D01*
X1469632D01*
X1468915Y2000633D01*
X1467531Y2000909D01*
Y2011105D01*
X1469744Y2011545D01*
X1476959Y2016366D01*
X1481780Y2023580D01*
X1482478Y2027091D01*
X1444502D01*
Y2037091D01*
X1482478D01*
X1481780Y2040601D01*
X1476959Y2047815D01*
X1469744Y2052636D01*
X1467531Y2053076D01*
Y2063272D01*
X1468915Y2063548D01*
X1475426Y2067898D01*
X1475521Y2068041D01*
X1682989D01*
X1686816Y2058802D01*
D02*
G37*
G36*
X1575840Y1908041D02*
X1504475Y1836676D01*
X1497686Y1839488D01*
X1467520D01*
Y1844488D01*
X1462520D01*
Y1874173D01*
X1439803D01*
Y1872047D01*
X1424230D01*
Y1896519D01*
X1422855Y1903432D01*
X1425283Y1907675D01*
X1429144Y1912020D01*
X1461234D01*
X1468915Y1913548D01*
X1475426Y1917898D01*
X1475521Y1918041D01*
X1571697D01*
X1575840Y1908041D01*
D02*
G37*
G36*
X1469241Y1747562D02*
Y1715770D01*
X1470310Y1710393D01*
X1473356Y1705835D01*
X1495853Y1683338D01*
Y1556337D01*
X1473167Y1533651D01*
X1441928D01*
X1441833Y1533794D01*
X1435322Y1538144D01*
X1427641Y1539672D01*
Y1549531D01*
X1435322Y1551059D01*
X1441833Y1555409D01*
X1446184Y1561921D01*
X1447712Y1569601D01*
X1446184Y1577282D01*
X1441833Y1583794D01*
X1435322Y1588144D01*
X1433938Y1588420D01*
Y1598616D01*
X1436151Y1599056D01*
X1443366Y1603877D01*
X1448187Y1611091D01*
X1448885Y1614601D01*
X1410909D01*
Y1624601D01*
X1448885D01*
X1448187Y1628112D01*
X1443366Y1635326D01*
X1436151Y1640147D01*
X1433938Y1640587D01*
Y1650783D01*
X1435322Y1651059D01*
X1441833Y1655409D01*
X1446184Y1661921D01*
X1447712Y1669601D01*
X1446184Y1677282D01*
X1441833Y1683794D01*
X1435322Y1688144D01*
X1427641Y1689672D01*
X1424958D01*
Y1717421D01*
X1459241Y1751704D01*
X1469241Y1747562D01*
D02*
G37*
%LPC*%
G36*
X2172543Y2517138D02*
Y2484162D01*
X2189782D01*
Y2495894D01*
X2188089Y2504405D01*
X2183268Y2511619D01*
X2176053Y2516440D01*
X2172543Y2517138D01*
D02*
G37*
G36*
X2189782Y2474162D02*
X2172543D01*
Y2441186D01*
X2176053Y2441884D01*
X2183268Y2446705D01*
X2188089Y2453919D01*
X2189782Y2462430D01*
Y2474162D01*
D02*
G37*
G36*
X1495236Y1874173D02*
X1472520D01*
Y1849488D01*
X1495236D01*
Y1874173D01*
D02*
G37*
%LPD*%
D10*
X2485551Y826024D02*
Y917284D01*
X2421142Y761614D02*
X2485551Y826024D01*
X2424345Y761614D02*
X2487480Y698478D01*
X2421142Y761614D02*
X2424345D01*
X2487480Y637284D02*
Y698478D01*
D11*
X1737584Y2484086D02*
D03*
Y2430936D02*
D03*
X1736712Y2271135D02*
D03*
Y2324284D02*
D03*
D12*
X1371057Y1433219D02*
D03*
X1424207D02*
D03*
X1251467Y1444384D02*
D03*
X1198317D02*
D03*
X1414370Y1844488D02*
D03*
X1467520D02*
D03*
X1295861Y1848323D02*
D03*
X1242711D02*
D03*
X2724157Y2699173D02*
D03*
X2671007D02*
D03*
X2401970Y2629421D02*
D03*
X2455119D02*
D03*
X2401576Y2758019D02*
D03*
X2454725D02*
D03*
X2401500Y2694474D02*
D03*
X2454650D02*
D03*
X1489605Y3132861D02*
D03*
X1436455D02*
D03*
X1703107Y3132461D02*
D03*
X1756257D02*
D03*
D20*
X1086088Y1685864D02*
D03*
Y1634683D02*
D03*
X1082220Y1555883D02*
D03*
Y1504702D02*
D03*
X1081597Y2100454D02*
D03*
Y2049273D02*
D03*
X1079437Y1984995D02*
D03*
Y1933813D02*
D03*
X2149438Y2586488D02*
D03*
Y2637670D02*
D03*
X2021561Y2590602D02*
D03*
Y2641783D02*
D03*
D21*
X1201880Y1753263D02*
D03*
X1253061D02*
D03*
X1230436Y2181836D02*
D03*
X1281617D02*
D03*
D24*
X1410909Y1669601D02*
D03*
Y1619601D02*
D03*
Y1569601D02*
D03*
Y1519601D02*
D03*
X1196342Y1669601D02*
D03*
Y1619601D02*
D03*
Y1569601D02*
D03*
Y1519601D02*
D03*
X1444502Y2082090D02*
D03*
Y2032091D02*
D03*
Y1982091D02*
D03*
Y1932091D02*
D03*
X1229935Y2082090D02*
D03*
Y2032091D02*
D03*
Y1982091D02*
D03*
Y1932091D02*
D03*
D29*
X1736712Y2271135D02*
X1739982Y2267865D01*
X1814274D01*
X1817543Y2264595D01*
X1818827Y2205706D02*
X1820111Y2204421D01*
X1818827Y2205706D02*
Y2263311D01*
X1817543Y2264595D02*
X1818827Y2263311D01*
X1911616Y1452318D02*
X2001464D01*
X2019050Y2480669D02*
Y2588091D01*
X2017543Y2479162D02*
X2019050Y2480669D01*
Y2588091D02*
X2021561Y2590602D01*
X1531901Y3132861D02*
X1535498Y3129265D01*
X1538694D01*
X1489605Y3132861D02*
X1531901D01*
X1560814Y637284D02*
Y695538D01*
X1494738Y761614D02*
X1560814Y695538D01*
X1558884Y825761D02*
Y917284D01*
X1494738Y761614D02*
X1558884Y825761D01*
X2022218Y825892D02*
Y917284D01*
X1957940Y761614D02*
X2022218Y825892D01*
X1957940Y761614D02*
X2024147Y695407D01*
Y637284D02*
Y695407D01*
D30*
X2724157Y2699173D02*
X2903189D01*
X2904528Y2697835D01*
X1410909Y1723241D02*
X1723296Y2035629D01*
X1410909Y1669601D02*
Y1723241D01*
X1723296Y2035629D02*
X2474178D01*
X2215152Y2581831D02*
Y2602773D01*
X2203513Y2570192D02*
X2215152Y2581831D01*
X2203513Y2555778D02*
Y2570192D01*
X710512Y2051063D02*
X877052Y1884523D01*
X1766054Y2151412D02*
X2175588D01*
X2362839Y2338662D01*
X2430207D01*
X911328Y1634683D02*
X1086088D01*
X877052Y1668958D02*
X911328Y1634683D01*
X877052Y1668958D02*
Y1884523D01*
X612087Y2700669D02*
Y2787683D01*
X1905575Y2602090D02*
X1967543Y2540122D01*
Y2479162D02*
Y2540122D01*
X1270058Y2602090D02*
X1905575D01*
X1114631Y2757517D02*
X1270058Y2602090D01*
X836454Y2757517D02*
X1114631D01*
X612087Y2787683D02*
X648371Y2823968D01*
X770004D02*
X836454Y2757517D01*
X648371Y2823968D02*
X770004D01*
X710512Y2169173D02*
X894691Y1984995D01*
X1079437D01*
X897498Y1555883D02*
X1082220D01*
X1084189D01*
X710512Y2287284D02*
X948523Y2049273D01*
X1081597D01*
X1083566D01*
X710512Y1932953D02*
X845857Y1797607D01*
Y1607524D02*
Y1797607D01*
Y1607524D02*
X897498Y1555883D01*
X1310282Y1278781D02*
Y1581573D01*
X1097907Y1569601D02*
X1196342D01*
X1084189Y1555883D02*
X1097907Y1569601D01*
X1483290Y1755344D02*
X1734868Y2006922D01*
X2528039Y3004593D02*
X2540552Y3017106D01*
X2598252D01*
X2611779Y3003579D01*
Y2217517D02*
Y3003579D01*
X2576522Y2984867D02*
X2584429Y2976959D01*
X2221299Y2647305D02*
X2222041D01*
X2187328Y2681276D02*
X2221299Y2647305D01*
X2095018Y2681276D02*
X2187328D01*
X2357587Y2295216D02*
X2474856D01*
X2178042Y2115671D02*
X2357587Y2295216D01*
X1857221Y2711664D02*
X1918294Y2772736D01*
X2114053D01*
X1947190Y2741597D02*
X2041927D01*
X2049732Y2733793D01*
X2536143Y2814669D02*
X2553120Y2797691D01*
Y2339231D02*
Y2797691D01*
X2510854Y2388722D02*
Y2771370D01*
Y2388722D02*
X2522553Y2377023D01*
X2049732Y2733793D02*
X2148730D01*
X1885225Y2679633D02*
X1947190Y2741597D01*
X1731771Y2115671D02*
X2178042D01*
X2653160Y2377023D02*
X2675562Y2354622D01*
Y2189427D02*
Y2354622D01*
X2634968Y2334860D02*
X2639338Y2339231D01*
X2634968Y2196419D02*
Y2334860D01*
X2474178Y2035629D02*
X2634968Y2196419D01*
X2493058Y2006922D02*
X2675562Y2189427D01*
X1734868Y2006922D02*
X2493058D01*
X2584429Y2220198D02*
Y2976959D01*
X2446322Y2082090D02*
X2584429Y2220198D01*
X1444502Y2082090D02*
X2446322D01*
X2452848Y2058586D02*
X2611779Y2217517D01*
X1706468Y2058586D02*
X2452848D01*
X2401500Y2629890D02*
X2401970Y2629421D01*
X2401500Y2629890D02*
Y2694474D01*
Y2757943D02*
X2401576Y2758019D01*
X2401500Y2694474D02*
Y2757943D01*
X2396457Y2699517D02*
X2401500Y2694474D01*
X2246498Y2699517D02*
X2396457D01*
X2303438Y2883640D02*
Y2922314D01*
X2349978Y2968854D01*
X2236130Y2892287D02*
Y2893981D01*
X2364443Y3022293D01*
X2386675D01*
X2389688Y3025307D01*
X2231118Y2994244D02*
X2306133Y3069259D01*
X2315563D01*
X2318576Y3072273D01*
X2237920Y2941265D02*
X2358016Y3061360D01*
X2368721D01*
X2371734Y3064374D01*
X1949688Y1669061D02*
X1953950D01*
X1938725Y1680024D02*
X1949688Y1669061D01*
X1563388Y1680024D02*
X1938725D01*
X1745145Y2679633D02*
X1885225D01*
X1782026Y2711664D02*
X1857221D01*
X1444502Y1932091D02*
X1579973D01*
X1706468Y2058586D01*
X1604196Y2373785D02*
X1823969D01*
X1333257Y2102845D02*
X1604196Y2373785D01*
X1333257Y1604548D02*
Y2102845D01*
X1310282Y1581573D02*
X1333257Y1604548D01*
X1483290Y1715770D02*
Y1755344D01*
Y1715770D02*
X1509902Y1689158D01*
Y1550517D02*
Y1689158D01*
X1478986Y1519601D02*
X1509902Y1550517D01*
X1576208Y1798790D02*
X1579221Y1801803D01*
X1576208Y1786176D02*
Y1798790D01*
X1518544Y1728513D02*
X1576208Y1786176D01*
X1317201Y1271862D02*
X1322344D01*
X1310282Y1278781D02*
X1317201Y1271862D01*
X2203513Y2555778D02*
X2223396Y2535894D01*
X2182117Y2555778D02*
X2203513D01*
X2151407Y2586488D02*
X2182117Y2555778D01*
X2149438Y2586488D02*
X2151407D01*
X2223396Y2417742D02*
Y2535894D01*
X2190572Y2384919D02*
X2223396Y2417742D01*
X1952174Y2384919D02*
X2190572D01*
X1917543Y2419550D02*
X1952174Y2384919D01*
X1917543Y2419550D02*
Y2479162D01*
X1823969Y2373785D02*
X1867543Y2417358D01*
Y2479162D01*
X2080150Y2666407D02*
X2095018Y2681276D01*
X2080150Y2602151D02*
Y2666407D01*
X2068601Y2590602D02*
X2080150Y2602151D01*
X2021561Y2590602D02*
X2068601D01*
X1237255Y1932091D02*
X1276195D01*
X1242711Y1848323D02*
Y1926635D01*
X1237255Y1932091D02*
X1242711Y1926635D01*
X1229935Y1932091D02*
X1237255D01*
X1229073Y1932952D02*
X1229935Y1932091D01*
X1080299Y1932952D02*
X1229073D01*
X1079437Y1933813D02*
X1080299Y1932952D01*
X1081597Y2100454D02*
X1085523Y2104380D01*
Y2153691D01*
X1278104Y2132979D02*
X1292636Y2118448D01*
Y1948532D02*
Y2118448D01*
X1276195Y1932091D02*
X1292636Y1948532D01*
X1023549Y1504702D02*
X1082220D01*
X1022991Y1505261D02*
X1023549Y1504702D01*
X1022991Y1671247D02*
X1037608Y1685864D01*
X1086088D01*
X1101170Y1619601D02*
X1196342D01*
X1086088Y1634683D02*
X1101170Y1619601D01*
X1176414Y1519601D02*
X1196342D01*
X1161514Y1504702D02*
X1176414Y1519601D01*
X1082220Y1504702D02*
X1161514D01*
X1196342Y1446360D02*
Y1519601D01*
Y1446360D02*
X1198317Y1444384D01*
X1199111Y1750494D02*
X1201880Y1753263D01*
X1199111Y1672370D02*
Y1750494D01*
X1196342Y1669601D02*
X1199111Y1672370D01*
X1229935Y2082090D02*
X1230185Y2082341D01*
Y2181585D01*
X1230436Y2181836D01*
X1083566Y2049273D02*
X1100748Y2032091D01*
X1229935D01*
X1228483Y1983543D02*
X1229935Y1982091D01*
X1080889Y1983543D02*
X1228483D01*
X1079437Y1984995D02*
X1080889Y1983543D01*
X1410909Y1519601D02*
X1478986D01*
D31*
X1357468Y1809240D02*
X1406166Y1857938D01*
Y1896519D01*
X1357468Y1446809D02*
Y1809240D01*
X1259524Y2695233D02*
X1330873D01*
X1515635Y2879994D01*
X2724157Y2078336D02*
Y2699173D01*
Y1822530D02*
Y2078336D01*
X2722681Y2076859D02*
X2724157Y2078336D01*
X2693071Y2076859D02*
X2722681D01*
X2691564Y2075352D02*
X2693071Y2076859D01*
X2724157Y1547972D02*
Y1822530D01*
X2724034Y1822653D02*
X2724157Y1822530D01*
X2690146Y1822653D02*
X2724034D01*
X2688639Y1824159D02*
X2690146Y1822653D01*
X2724157Y1242323D02*
Y1547972D01*
X2721619Y1545433D02*
X2724157Y1547972D01*
X2695822Y1545433D02*
X2721619D01*
X2694315Y1543927D02*
X2695822Y1545433D01*
X2684861Y1242323D02*
X2724157D01*
X1371138Y1569601D02*
X1410909D01*
X1371039Y1569503D02*
X1371138Y1569601D01*
X1359648Y1569503D02*
X1371039D01*
X1525418Y1982091D02*
X1540526Y1966983D01*
X1444502Y1982091D02*
X1525418D01*
X2119363Y1975512D02*
X2148051Y1946823D01*
X1752009Y1975512D02*
X2119363D01*
X1592711Y2957070D02*
X1630599D01*
X1515635Y2879994D02*
X1592711Y2957070D01*
X1515635Y2743532D02*
Y2879994D01*
Y2743532D02*
X1607873Y2651294D01*
X1357468Y1446809D02*
X1371057Y1433219D01*
X1383848Y1981085D02*
Y2098943D01*
Y1918838D02*
Y1981085D01*
X1384518Y1981756D01*
X1444167D01*
X1383848Y2098943D02*
X1505532Y2220626D01*
X1812619Y2484086D02*
X1817543Y2479162D01*
X1737584Y2484086D02*
X1812619D01*
X1734152Y2487519D02*
X1737584Y2484086D01*
X1690558Y2487519D02*
X1734152D01*
X1383848Y1918838D02*
X1406166Y1896519D01*
X1444167Y1981756D02*
X1444502Y1982091D01*
X1702306Y3133262D02*
X1703107Y3132461D01*
X1654813Y3133262D02*
X1702306D01*
D32*
X658586Y332674D02*
X756936D01*
X795006Y294603D01*
X650827Y340433D02*
X658586Y332674D01*
X795006Y294603D02*
X1347527D01*
X1460207Y407284D01*
X1618753D01*
X1939400D02*
X2081955D01*
X1790789Y258673D02*
X1939400Y407284D01*
X1582791Y258673D02*
X1790789D01*
X1495182Y171063D02*
X1582791Y258673D01*
X1494738Y171063D02*
X1495182D01*
X2419205Y407284D02*
X2545157D01*
X2278638Y266716D02*
X2419205Y407284D01*
X2053593Y266716D02*
X2278638D01*
X1957940Y171063D02*
X2053593Y266716D01*
D33*
X1084429Y650335D02*
Y708721D01*
Y650335D02*
X1097480Y637284D01*
X1031535Y761614D02*
X1084429Y708721D01*
X1774059Y562589D02*
Y1007860D01*
X1618753Y407284D02*
X1774059Y562589D01*
X951835Y848720D02*
X1113722D01*
X1200827Y761614D01*
X872168Y928386D02*
X951835Y848720D01*
D34*
X373024Y1932953D02*
X395551D01*
X307303Y1867232D02*
X373024Y1932953D01*
X307303Y1723762D02*
Y1867232D01*
X301063Y1312556D02*
Y1652229D01*
X260059Y1271552D02*
X301063Y1312556D01*
X260059Y868505D02*
Y1271552D01*
X251161Y1424947D02*
Y1635318D01*
X204392Y1378178D02*
X251161Y1424947D01*
X204392Y491592D02*
Y1378178D01*
X179600Y1706879D02*
X251161Y1635318D01*
X179600Y1706879D02*
Y1953222D01*
X348307Y1135079D02*
Y1682758D01*
X395551Y1306020D02*
Y1814842D01*
Y1306020D02*
X442578Y1258993D01*
Y1066000D02*
Y1258993D01*
X260059Y1693233D02*
X301063Y1652229D01*
X260059Y1693233D02*
Y1915571D01*
X307303Y1723762D02*
X348307Y1682758D01*
X204392Y491592D02*
X355551Y340433D01*
X348307Y1135079D02*
X355551Y1127835D01*
X466387Y524873D02*
Y662177D01*
X260059Y868505D02*
X466387Y662177D01*
X260059Y1915571D02*
X395551Y2051063D01*
X442578Y1066000D02*
X577054Y931524D01*
X493976Y1145924D02*
Y1873898D01*
Y1145924D02*
X651672Y988229D01*
X577054Y611056D02*
Y931524D01*
X710512Y1389016D02*
Y1814842D01*
Y1389016D02*
X942316Y1157211D01*
X359752Y1025066D02*
X363953Y1020865D01*
X359752Y1025066D02*
Y1123634D01*
X355551Y1127835D02*
X359752Y1123634D01*
X612087Y1381796D02*
Y1873898D01*
Y1381796D02*
X896629Y1097254D01*
X1942248D02*
X2122218Y917284D01*
X896629Y1097254D02*
X1942248D01*
X577054Y611056D02*
X650827Y537284D01*
X466387Y524873D02*
X650827Y340433D01*
X651672Y988229D02*
X1586554D01*
X1657499Y917284D02*
X1658884D01*
X1586554Y988229D02*
X1657499Y917284D01*
X179600Y1953222D02*
X395551Y2169173D01*
X942316Y1157211D02*
X2345623D01*
X2585551Y917284D01*
X500678Y352130D02*
X520103Y332704D01*
Y274306D02*
Y332704D01*
Y274306D02*
X650827Y143583D01*
X661800D01*
X689280Y171063D01*
X1031535D01*
D35*
X2421142Y761614D02*
D03*
X2590433D02*
D03*
X1494738D02*
D03*
X1664029D02*
D03*
X1957940D02*
D03*
X2127231D02*
D03*
X1031535D02*
D03*
X1200827D02*
D03*
D36*
X2545157Y407284D02*
D03*
X2395551Y545079D02*
D03*
X2421142Y171063D02*
D03*
X1618753Y407284D02*
D03*
X1469147Y545079D02*
D03*
X1494738Y171063D02*
D03*
X2081955Y407284D02*
D03*
X1932349Y545079D02*
D03*
X1957940Y171063D02*
D03*
X1155551Y407284D02*
D03*
X1005945Y545079D02*
D03*
X1031535Y171063D02*
D03*
D37*
X650827Y143583D02*
D03*
X355551D02*
D03*
X650827Y537284D02*
D03*
Y340433D02*
D03*
X355551Y537284D02*
D03*
Y340433D02*
D03*
Y1127835D02*
D03*
X650827D02*
D03*
D38*
X1922218Y917284D02*
D03*
X2022218D02*
D03*
X2122218D02*
D03*
X2385551D02*
D03*
X2485551D02*
D03*
X2585551D02*
D03*
X1458884D02*
D03*
X1558884D02*
D03*
X1658884D02*
D03*
X995551D02*
D03*
X1095551D02*
D03*
X1195551D02*
D03*
D39*
X139646Y1529409D02*
D03*
Y3045157D02*
D03*
D40*
X395551Y2759724D02*
D03*
Y2641614D02*
D03*
Y2523504D02*
D03*
Y2405394D02*
D03*
Y2287284D02*
D03*
Y2169173D02*
D03*
Y2051063D02*
D03*
Y1932953D02*
D03*
Y1814842D02*
D03*
X493976Y2700669D02*
D03*
Y2582559D02*
D03*
Y2464449D02*
D03*
Y2346339D02*
D03*
Y2228228D02*
D03*
Y2110118D02*
D03*
Y1992008D02*
D03*
Y1873898D02*
D03*
X612087Y2700669D02*
D03*
Y2582559D02*
D03*
Y2464449D02*
D03*
Y2346339D02*
D03*
Y2228228D02*
D03*
Y2110118D02*
D03*
Y1992008D02*
D03*
Y1873898D02*
D03*
X710512Y2759724D02*
D03*
Y2641614D02*
D03*
Y2523504D02*
D03*
Y2405394D02*
D03*
Y2287284D02*
D03*
Y2169173D02*
D03*
Y2051063D02*
D03*
Y1932953D02*
D03*
Y1814842D02*
D03*
D41*
X2850000Y150000D02*
D03*
Y3100000D02*
D03*
D42*
X787402Y2145669D02*
D03*
X826772Y2460630D02*
D03*
X2283465Y1653543D02*
D03*
X1771653Y1614173D02*
D03*
X1358268Y2362205D02*
D03*
X1476378Y2401575D02*
D03*
X2904528Y2697835D02*
D03*
X2083662Y2550197D02*
D03*
X1259524Y2695233D02*
D03*
X2691564Y2075352D02*
D03*
X2688639Y1824159D02*
D03*
X2694315Y1543927D02*
D03*
X2684861Y1242323D02*
D03*
X2528039Y3004593D02*
D03*
X2576522Y2984867D02*
D03*
X2215152Y2602773D02*
D03*
X2222041Y2647305D02*
D03*
X2430207Y2338662D02*
D03*
X2474856Y2295216D02*
D03*
X2536143Y2814669D02*
D03*
X2510854Y2771370D02*
D03*
X2553120Y2339231D02*
D03*
X2148730Y2733793D02*
D03*
X2114053Y2772736D02*
D03*
X2522553Y2377023D02*
D03*
X2653160D02*
D03*
X2639338Y2339231D02*
D03*
X2246498Y2699517D02*
D03*
X1731771Y2115671D02*
D03*
X1766054Y2151412D02*
D03*
X1745145Y2679633D02*
D03*
X1782026Y2711664D02*
D03*
X1540526Y1966983D02*
D03*
X1820111Y2204421D02*
D03*
X2148051Y1946823D02*
D03*
X1752009Y1975512D02*
D03*
X1630599Y2957070D02*
D03*
X1607873Y2651294D02*
D03*
X1690558Y2487519D02*
D03*
X1505532Y2220626D02*
D03*
X1953950Y1669061D02*
D03*
X1911616Y1452318D02*
D03*
X2001464D02*
D03*
X1563388Y1680024D02*
D03*
X1579221Y1801803D02*
D03*
X1518544Y1728513D02*
D03*
X1322344Y1271862D02*
D03*
X1085523Y2153691D02*
D03*
X1278104Y2132979D02*
D03*
X1022991Y1505261D02*
D03*
Y1671247D02*
D03*
X2303438Y2883640D02*
D03*
X1538694Y3129265D02*
D03*
X1654813Y3133262D02*
D03*
X2231118Y2994244D02*
D03*
X2237920Y2941265D02*
D03*
X2236130Y2892287D02*
D03*
X2389688Y3025307D02*
D03*
X2371734Y3064374D02*
D03*
X2318576Y3072273D02*
D03*
X2349978Y2968854D02*
D03*
D43*
X1886811Y2920276D02*
D03*
X917323Y2026575D02*
D03*
X1630906Y1767716D02*
D03*
X1471457Y1614173D02*
D03*
X1515748Y1894685D02*
D03*
D44*
X1609252Y2034449D02*
D03*
X1774059Y1007860D02*
D03*
X872168Y928386D02*
D03*
X500678Y352130D02*
D03*
D45*
X2603622Y637284D02*
D03*
X2487480D02*
D03*
X1676955D02*
D03*
X1560814D02*
D03*
X2140289D02*
D03*
X2024147D02*
D03*
X1213622D02*
D03*
X1097480D02*
D03*
D46*
X363953Y904724D02*
D03*
Y1020865D02*
D03*
D47*
X2167543Y2264595D02*
D03*
X2117543D02*
D03*
X2067543D02*
D03*
X2017543D02*
D03*
X1967543D02*
D03*
X1917543D02*
D03*
X1867543D02*
D03*
X1817543D02*
D03*
X2167543Y2479162D02*
D03*
X2117543D02*
D03*
X2067543D02*
D03*
X2017543D02*
D03*
X1967543D02*
D03*
X1917543D02*
D03*
X1867543D02*
D03*
X1817543D02*
D03*
%TF.MD5,e26e62eabff1a1e2408f999c48fd587e*%
M02*
