%TF.GenerationSoftware,Altium Limited,Altium Designer,19.1.7 (138)*%
G04 Layer_Physical_Order=1*
G04 Layer_Color=255*
%FSLAX26Y26*%
%MOIN*%
%TF.FileFunction,Copper,L1,Top,Signal*%
%TF.Part,Single*%
G01*
G75*
%TA.AperFunction,SMDPad,CuDef*%
%ADD10R,0.029921X0.094488*%
%ADD11R,0.053150X0.011811*%
%ADD12R,0.011811X0.053150*%
%ADD13O,0.057087X0.023622*%
%ADD14O,0.039370X0.019685*%
%ADD15R,0.023622X0.082677*%
%ADD16R,0.125984X0.082677*%
%ADD17R,0.080709X0.045276*%
%ADD18R,0.037402X0.033465*%
%ADD19R,0.033465X0.037402*%
%ADD20R,0.039370X0.118110*%
%ADD21R,0.218504X0.251969*%
%ADD22R,0.031496X0.035433*%
%ADD23R,0.051181X0.043307*%
%ADD24R,0.035433X0.031496*%
%ADD25R,0.053150X0.057087*%
%ADD26R,0.035433X0.039370*%
%ADD27R,0.039370X0.035433*%
%TA.AperFunction,Conductor*%
%ADD28C,0.050000*%
%ADD29C,0.010000*%
%ADD30C,0.020000*%
%ADD31C,0.015000*%
%ADD32C,0.011811*%
%ADD33C,0.008000*%
%TA.AperFunction,ComponentPad*%
%ADD34C,0.055118*%
%ADD35C,0.086614*%
%ADD36C,0.129921*%
%ADD37C,0.098425*%
%ADD38C,0.078740*%
%ADD39C,0.090551*%
%TA.AperFunction,ViaPad*%
%ADD40C,0.030748*%
D10*
X2502487Y3035638D02*
D03*
Y3189182D02*
D03*
X2552487Y3035638D02*
D03*
Y3189182D02*
D03*
X2602487Y3035638D02*
D03*
Y3189182D02*
D03*
X2652487Y3035638D02*
D03*
Y3189182D02*
D03*
X2702487Y3035638D02*
D03*
Y3189182D02*
D03*
D11*
X2415940Y2540638D02*
D03*
Y2520953D02*
D03*
Y2501268D02*
D03*
Y2481583D02*
D03*
Y2461898D02*
D03*
Y2442213D02*
D03*
Y2422528D02*
D03*
Y2402843D02*
D03*
Y2383157D02*
D03*
Y2363472D02*
D03*
Y2343787D02*
D03*
Y2324102D02*
D03*
Y2304417D02*
D03*
Y2284732D02*
D03*
Y2265047D02*
D03*
Y2245362D02*
D03*
X2868696D02*
D03*
Y2265047D02*
D03*
Y2284732D02*
D03*
Y2304417D02*
D03*
Y2324102D02*
D03*
Y2343787D02*
D03*
Y2363472D02*
D03*
Y2383157D02*
D03*
Y2402843D02*
D03*
Y2422528D02*
D03*
Y2442213D02*
D03*
Y2461898D02*
D03*
Y2481583D02*
D03*
Y2501268D02*
D03*
Y2520953D02*
D03*
Y2540638D02*
D03*
D12*
X2494680Y2166622D02*
D03*
X2514365D02*
D03*
X2534050D02*
D03*
X2553735D02*
D03*
X2573421D02*
D03*
X2593106D02*
D03*
X2612791D02*
D03*
X2632476D02*
D03*
X2652161D02*
D03*
X2671846D02*
D03*
X2691531D02*
D03*
X2711216D02*
D03*
X2730901D02*
D03*
X2750586D02*
D03*
X2770271D02*
D03*
X2789956D02*
D03*
Y2619378D02*
D03*
X2770271D02*
D03*
X2750586D02*
D03*
X2730901D02*
D03*
X2711216D02*
D03*
X2691531D02*
D03*
X2671846D02*
D03*
X2652161D02*
D03*
X2632476D02*
D03*
X2612791D02*
D03*
X2593106D02*
D03*
X2573421D02*
D03*
X2553735D02*
D03*
X2534050D02*
D03*
X2514365D02*
D03*
X2494680D02*
D03*
D13*
X1627569Y1600001D02*
D03*
Y1650001D02*
D03*
Y1700001D02*
D03*
Y1750001D02*
D03*
Y1800001D02*
D03*
Y1850001D02*
D03*
Y1900001D02*
D03*
Y1950001D02*
D03*
X1413002Y1600001D02*
D03*
Y1650001D02*
D03*
Y1700001D02*
D03*
Y1750001D02*
D03*
Y1800001D02*
D03*
Y1850001D02*
D03*
Y1900001D02*
D03*
Y1950001D02*
D03*
X1064725Y2981000D02*
D03*
Y2931000D02*
D03*
Y2881000D02*
D03*
Y2831000D02*
D03*
X1279291Y2981000D02*
D03*
Y2931000D02*
D03*
Y2881000D02*
D03*
Y2831000D02*
D03*
X1064717Y2309000D02*
D03*
Y2259000D02*
D03*
Y2209000D02*
D03*
Y2159000D02*
D03*
X1279284Y2309000D02*
D03*
Y2259000D02*
D03*
Y2209000D02*
D03*
Y2159000D02*
D03*
D14*
X1994094Y2624016D02*
D03*
Y2586614D02*
D03*
Y2549213D02*
D03*
X2100394Y2624016D02*
D03*
Y2586614D02*
D03*
Y2549213D02*
D03*
X1995228Y2258984D02*
D03*
Y2221583D02*
D03*
Y2184181D02*
D03*
X2101528Y2258984D02*
D03*
Y2221583D02*
D03*
Y2184181D02*
D03*
D15*
X724000Y3677874D02*
D03*
X774000D02*
D03*
X824000D02*
D03*
X874000D02*
D03*
X924000D02*
D03*
D16*
X824000Y3912126D02*
D03*
D17*
X1128018Y3682087D02*
D03*
X970534Y3372637D02*
D03*
D18*
X3074803Y2572835D02*
D03*
Y2624016D02*
D03*
X2960000Y2150000D02*
D03*
Y2201181D02*
D03*
X3075000Y2410000D02*
D03*
Y2461181D02*
D03*
X1975394Y2753937D02*
D03*
Y2805118D02*
D03*
X972295Y2984295D02*
D03*
Y2933114D02*
D03*
X987000Y2309591D02*
D03*
Y2258410D02*
D03*
D19*
X1965551Y3685961D02*
D03*
X2016732D02*
D03*
X2142716D02*
D03*
X2193898D02*
D03*
X2770669D02*
D03*
X2821850D02*
D03*
X2944882D02*
D03*
X2996063D02*
D03*
X2352362D02*
D03*
X2403543D02*
D03*
X2528543D02*
D03*
X2579724D02*
D03*
X1295275D02*
D03*
X1346457D02*
D03*
X1522638Y3686024D02*
D03*
X1471457D02*
D03*
X1719488Y3685039D02*
D03*
X1770669D02*
D03*
X1810039Y2631890D02*
D03*
X1861220D02*
D03*
X1588583Y2188976D02*
D03*
X1639764D02*
D03*
X1588583Y2330708D02*
D03*
X1639764D02*
D03*
D20*
X416158Y3654937D02*
D03*
X235843D02*
D03*
D21*
X326000Y3401000D02*
D03*
D22*
X2732284Y3487206D02*
D03*
X2694882Y3565946D02*
D03*
X2769685D02*
D03*
X2314961Y3484693D02*
D03*
X2277559Y3563433D02*
D03*
X2352362D02*
D03*
X1929134Y3487205D02*
D03*
X1891732Y3565945D02*
D03*
X1966535D02*
D03*
X1503937Y3484252D02*
D03*
X1466535Y3562992D02*
D03*
X1541339D02*
D03*
D23*
X2141732Y3488189D02*
D03*
Y3578740D02*
D03*
X2334999Y1084446D02*
D03*
Y1174997D02*
D03*
X1591971Y1102909D02*
D03*
Y1193460D02*
D03*
X1198272Y1097005D02*
D03*
Y1187556D02*
D03*
X1985673Y1097005D02*
D03*
Y1187556D02*
D03*
X2944881Y3481781D02*
D03*
Y3572332D02*
D03*
X2527559Y3481780D02*
D03*
Y3572331D02*
D03*
X1719362Y3473780D02*
D03*
Y3564331D02*
D03*
D24*
X1791339Y2495079D02*
D03*
X1870079Y2532480D02*
D03*
Y2457677D02*
D03*
X1791339Y2235236D02*
D03*
X1870079Y2272638D02*
D03*
Y2197835D02*
D03*
D25*
X693071Y3527145D02*
D03*
X576929D02*
D03*
D26*
X588573Y3376512D02*
D03*
X535423D02*
D03*
X2111221Y2487204D02*
D03*
X2164371D02*
D03*
X2652425Y3307000D02*
D03*
X2705575D02*
D03*
X2213583Y2283465D02*
D03*
X2266732D02*
D03*
X2204724Y2379921D02*
D03*
X2257874D02*
D03*
X1468575Y1448819D02*
D03*
X1415425D02*
D03*
X1564962Y1448822D02*
D03*
X1618112D02*
D03*
X2270669Y2637795D02*
D03*
X2217520D02*
D03*
X2270669Y2165354D02*
D03*
X2217520D02*
D03*
X1062992Y2433071D02*
D03*
X1116142D02*
D03*
X1115158Y3526000D02*
D03*
X1168307D02*
D03*
X853346Y3530001D02*
D03*
X800197D02*
D03*
X987641Y1142280D02*
D03*
X1040791D02*
D03*
X1815397Y1142282D02*
D03*
X1762247D02*
D03*
X1823820Y1698818D02*
D03*
X1876968D02*
D03*
X1819427Y1798000D02*
D03*
X1872575D02*
D03*
X1640746Y2472440D02*
D03*
X1587596D02*
D03*
X799850Y3374017D02*
D03*
X853000D02*
D03*
X957674Y3527561D02*
D03*
X1010824D02*
D03*
X535425Y3656998D02*
D03*
X588573D02*
D03*
X948819Y2676181D02*
D03*
X1001967D02*
D03*
X1030510Y1732284D02*
D03*
X977362D02*
D03*
X1028542Y1898622D02*
D03*
X975394D02*
D03*
X1120574Y2070001D02*
D03*
X1067426D02*
D03*
X1825787Y1944882D02*
D03*
X1878935D02*
D03*
X1640748Y2614171D02*
D03*
X1587598D02*
D03*
X1482720Y1143263D02*
D03*
X1429572D02*
D03*
X2209099Y1142278D02*
D03*
X2155951D02*
D03*
D27*
X2964567Y2338583D02*
D03*
Y2391732D02*
D03*
X1062992Y3093503D02*
D03*
Y3146653D02*
D03*
X1405000Y2882425D02*
D03*
Y2935575D02*
D03*
X1361000Y2209425D02*
D03*
Y2262575D02*
D03*
X1009999Y1631573D02*
D03*
Y1578425D02*
D03*
X941929Y2820865D02*
D03*
Y2767716D02*
D03*
X1801000Y2744425D02*
D03*
Y2797575D02*
D03*
X988001Y2200574D02*
D03*
Y2147426D02*
D03*
X2852000Y3089567D02*
D03*
Y3036419D02*
D03*
X2158000Y3089566D02*
D03*
Y3036416D02*
D03*
D28*
X188781Y1370627D02*
X320000Y1501846D01*
X188781Y791096D02*
Y1370627D01*
X320000Y1501846D02*
Y1672693D01*
X277755Y2254569D02*
X403187Y2380000D01*
X277755Y1714937D02*
Y2254569D01*
Y1714937D02*
X320000Y1672693D01*
X380000Y1480000D02*
Y1694539D01*
X246655Y1346655D02*
X380000Y1480000D01*
X335630Y1738909D02*
Y1840003D01*
Y1738909D02*
X380000Y1694539D01*
X335630Y1840003D02*
X411810Y1916183D01*
X246655Y1051565D02*
Y1346655D01*
X403187Y2380000D02*
X410000D01*
X405000Y2515000D02*
Y2523450D01*
X311000Y3386000D02*
X335629Y3361371D01*
Y2592822D02*
X405000Y2523450D01*
X335629Y2592822D02*
Y3361371D01*
X246655Y1051565D02*
X324804Y973416D01*
Y962443D02*
X541931Y745316D01*
X324804Y962443D02*
Y973416D01*
X944531Y713741D02*
Y834842D01*
X620080Y1159293D02*
X944531Y834842D01*
X903937Y75940D02*
X2133241D01*
X2219267Y161966D01*
X2222878D01*
X188781Y791096D02*
X903937Y75940D01*
X1650581Y394246D02*
X1928193D01*
X1410477Y158026D02*
X1414361D01*
X1650581Y394246D01*
X541931Y733222D02*
Y745316D01*
Y733222D02*
X962991Y312162D01*
X1522999Y394246D02*
X1534493D01*
X944531Y713741D02*
X1139811Y518461D01*
Y395229D02*
X1140791Y394248D01*
X1139811Y395229D02*
Y518461D01*
X962991Y312162D02*
X1440915D01*
X1522999Y394246D01*
X2044283Y394248D02*
X2321895D01*
X1808061Y158026D02*
X2044283Y394248D01*
X1804177Y158026D02*
X1808061D01*
D29*
X1982765Y2258984D02*
X1995229D01*
X1979860Y2261890D02*
X1982765Y2258984D01*
X1515000Y2925000D02*
X1880101D01*
X1737988Y2834724D02*
X2172541D01*
X2323606Y2284731D02*
X2415941D01*
X1942772Y2507732D02*
X1984252Y2549212D01*
X1922102Y2507732D02*
X1942772D01*
X2331063Y1175000D02*
X2335000D01*
X2313026Y1156964D02*
X2331063Y1175000D01*
X2155951Y1142278D02*
X2168668Y1129562D01*
X1575319Y1176809D02*
X1591973Y1193462D01*
X1429572Y1143263D02*
X1442289Y1130546D01*
X1664245Y1666259D02*
X2070283D01*
X1507874Y2522638D02*
X1543387Y2487125D01*
X2328360Y2394606D02*
X2336595Y2402841D01*
X2270589Y2394606D02*
X2328360D01*
X2063968Y2333411D02*
X2213822D01*
X2235315Y2354904D01*
X2962598Y2205748D02*
Y2210630D01*
X311000Y3386000D02*
X525937D01*
X2257872Y2377953D02*
Y2381890D01*
X2235315Y2355395D02*
X2257872Y2377953D01*
X2235315Y2354904D02*
Y2355395D01*
X1413000Y1448428D02*
X1415427Y1446001D01*
X1413000Y1448428D02*
Y1600000D01*
X2938573Y2181723D02*
X2962598Y2205748D01*
X2790862Y2181723D02*
X2938573D01*
X2940945Y2461895D02*
X3077756D01*
X2868697D02*
X2940945D01*
Y2579724D01*
X1014683Y2688898D02*
Y2797692D01*
X1586614Y2332676D02*
Y2485000D01*
X2088755Y2586614D02*
X2110235D01*
X2336595Y2402841D02*
X2415941D01*
X1230000Y2210000D02*
X1230500Y2209500D01*
X1278786D01*
X1279285Y2209001D01*
X1845563Y1416261D02*
X2553737Y2124435D01*
X1371583Y1437056D02*
X1392377Y1416261D01*
X1845563D01*
X1664210Y1635000D02*
X1860000D01*
X1455047Y1625315D02*
X1654525D01*
X1664210Y1635000D01*
X1429732Y1600000D02*
X1455047Y1625315D01*
X1627568Y1600000D02*
X1775000D01*
X2110235Y2586614D02*
X2146731Y2623110D01*
X2204802D01*
X2217519Y2635827D01*
Y2637796D01*
X2293718Y2670355D02*
X2394366Y2569707D01*
X2156574Y2670355D02*
X2293718D01*
X2110235Y2624016D02*
X2156574Y2670355D01*
X2226765Y2422841D02*
X2399050D01*
X2164370Y2485236D02*
Y2487205D01*
X2364453Y2383155D02*
X2399366D01*
X2266731Y2285433D02*
X2364453Y2383155D01*
X2266731Y2283465D02*
Y2285433D01*
X2101527Y2221582D02*
X2163258D01*
X1545000Y2880000D02*
X2105000D01*
X1194334Y1187558D02*
X1198271D01*
X1163741Y1156966D02*
X1194334Y1187558D01*
X1053507Y1156966D02*
X1163741D01*
X1981736Y1187558D02*
X1985673D01*
X1951145Y1156967D02*
X1981736Y1187558D01*
X1828113Y1156967D02*
X1951145D01*
X1647986Y1650000D02*
X1664245Y1666259D01*
X1627568Y1650000D02*
X1647986D01*
X2070283Y1666259D02*
X2533146Y2129122D01*
X987641Y1142280D02*
X1000357Y1129564D01*
Y1043344D02*
X1098272Y945430D01*
X1000357Y1043344D02*
Y1129564D01*
X1442289Y1067950D02*
Y1130546D01*
X1491973Y945430D02*
Y1018267D01*
X1514298Y1176809D02*
X1575319D01*
X1482720Y1145231D02*
X1514298Y1176809D01*
X2168668Y1056138D02*
Y1129562D01*
Y1056138D02*
X2279375Y945430D01*
X2209099Y1144247D02*
X2221816Y1156964D01*
X2313026D01*
X1146258Y1850000D02*
X1413000D01*
X1030510Y1734253D02*
X1146258Y1850000D01*
X1030510Y1730315D02*
Y1734253D01*
X917116Y1699725D02*
X1000412D01*
X892825Y1724016D02*
X917116Y1699725D01*
X1584489Y2487125D02*
X1586614Y2485000D01*
X1543387Y2487125D02*
X1584489D01*
X1872047Y2457677D02*
X1922102Y2507732D01*
X1870079Y2457677D02*
X1872047D01*
X2289781Y2250906D02*
X2323606Y2284731D01*
X2190534Y2250906D02*
X2289781D01*
X2250000Y2490000D02*
X2336792D01*
X2364897Y2461895D01*
X2172541Y2834724D02*
X2485316Y2521949D01*
X1734263Y2831000D02*
X1737988Y2834724D01*
X1279292Y2831000D02*
X1734263D01*
X1880101Y2925000D02*
X1886727Y2918374D01*
X2114168D01*
X2452614Y2579928D01*
X2159000Y2981000D02*
X2430000Y2710000D01*
X2652161Y2619377D02*
Y2687161D01*
X2611886Y2620282D02*
Y3026239D01*
X2485000Y2739386D02*
X2494681Y2729705D01*
X2485000Y2739386D02*
Y2745000D01*
X2502488Y2782555D02*
Y3029367D01*
Y2782555D02*
X2514367Y2770676D01*
Y2619377D02*
Y2770676D01*
X2534051Y2619377D02*
Y2790941D01*
X2501280Y3030576D02*
X2502488Y3029367D01*
X2209099Y1142278D02*
Y1144247D01*
X2452855Y2206070D02*
X2564975D01*
X2328537Y2081752D02*
X2452855Y2206070D01*
X2213797Y2081752D02*
X2328537D01*
X2641000Y2795429D02*
X2770271Y2666158D01*
Y2619377D02*
Y2666158D01*
X1279292Y2981000D02*
X2159000D01*
X2182456Y2258984D02*
X2190534Y2250906D01*
X1037760Y2183686D02*
X1091044D01*
X1012527Y2169983D02*
X1024057D01*
X1037760Y2183686D01*
X989969Y2147426D02*
X1012527Y2169983D01*
X988001Y2147426D02*
X989969D01*
X1007953Y1707758D02*
X1030510Y1730315D01*
X1007953Y1707266D02*
Y1707758D01*
X1000412Y1699725D02*
X1007953Y1707266D01*
X2953457Y2402841D02*
X2964567Y2391731D01*
X2885272Y2402841D02*
X2953457D01*
X576929Y3526971D02*
Y3529116D01*
X548142Y3557904D02*
Y3644281D01*
Y3557904D02*
X576929Y3529116D01*
X941929Y2767716D02*
X943898D01*
X966455Y2790274D02*
X972356D01*
X943898Y2767716D02*
X966455Y2790274D01*
X1228673Y2643622D02*
X1369910Y2784859D01*
X1788283D01*
X1627568Y1900000D02*
X1644300D01*
X1674497Y1930197D01*
X1813071D01*
X1825787Y1942913D01*
Y1944882D01*
X1963661Y2765669D02*
X1975394Y2753937D01*
X1898284Y2765669D02*
X1963661D01*
X1813717Y2784859D02*
X1879094D01*
X1898284Y2765669D01*
X1801000Y2797575D02*
X1813717Y2784859D01*
X1062992Y3093506D02*
X1064724Y3091774D01*
Y2981000D02*
Y3091774D01*
X1064717Y2309296D02*
X1081155D01*
X2415941Y2402841D02*
X2852122D01*
X2342520Y2212598D02*
X2346490Y2216568D01*
Y2226597D01*
X1262795Y1819882D02*
X1265987D01*
X2388780Y2211614D02*
Y2217229D01*
X2101527Y2258984D02*
X2182456D01*
X1823741Y2317007D02*
X1870079Y2270669D01*
X1651496Y2317007D02*
X1823741D01*
X1982765Y2184180D02*
X1995229D01*
X1459646Y3666913D02*
Y3681055D01*
Y3666913D02*
X1475172Y3651386D01*
X1371583Y1437056D02*
Y1625315D01*
X2671847Y2569304D02*
Y2619377D01*
X874000Y3648346D02*
Y3677874D01*
X2443865Y3626017D02*
X2447835Y3622047D01*
X2443865Y3626017D02*
Y3643671D01*
X2790862Y2616142D02*
X3066929D01*
X535425Y3656998D02*
X548142Y3644281D01*
X1870079Y2196850D02*
X1879843Y2187086D01*
X2364897Y2461895D02*
X2415941D01*
X2257872Y2381890D02*
X2270589Y2394606D01*
X2326772Y2460072D02*
X2332386D01*
X2164370Y2485236D02*
X2226765Y2422841D01*
X2332386Y2460072D02*
X2350247Y2442211D01*
X2399050Y2422841D02*
X2399366Y2422525D01*
X2100393Y2549212D02*
X2302858D01*
X2350803Y2501267D01*
X2350247Y2442211D02*
X2415941D01*
X2350803Y2501267D02*
X2415941D01*
X1279285Y2309001D02*
X1284725D01*
X1291017Y2315293D01*
X1915276Y2618189D02*
X1984252Y2549212D01*
X1994095D01*
X1872500Y2618642D02*
X1872953Y2618189D01*
X1915276D01*
X1459646Y3681055D02*
X1474772D01*
X1497022Y3631890D02*
X1500984D01*
X1477526Y3651386D02*
X1497022Y3631890D01*
X1475172Y3651386D02*
X1477526D01*
X1530591Y3573740D02*
Y3678008D01*
X1522638Y3685961D02*
X1530591Y3678008D01*
X2611886Y2620282D02*
X2612791Y2619377D01*
X2602488Y3035638D02*
X2611886Y3026239D01*
X2624492Y2521949D02*
X2671847Y2569304D01*
X2111369Y2184180D02*
X2213797Y2081752D01*
X2572516Y2167526D02*
X2573421Y2166621D01*
X2485316Y2521949D02*
X2624492D01*
X2612791Y2550197D02*
Y2553780D01*
X2632477Y2573466D01*
X2584659Y2579928D02*
X2592201Y2587471D01*
X2452614Y2579928D02*
X2584659D01*
X2564975Y2206070D02*
X2572516Y2198528D01*
Y2167526D02*
Y2198528D01*
X2101527Y2184180D02*
X2111369D01*
X1536151Y1774685D02*
X1610836Y1700000D01*
X1161600Y1774685D02*
X1536151D01*
X1442289Y1067950D02*
X1491973Y1018267D01*
X1285869Y1800000D02*
X1413000D01*
X1265987Y1819882D02*
X1285869Y1800000D01*
X1639444Y2184798D02*
X1651496Y2196850D01*
X1870079D01*
X1979859Y2187086D02*
X1982765Y2184180D01*
X1879843Y2187086D02*
X1979859D01*
X2789957Y2180817D02*
X2790862Y2181723D01*
X2789957Y2166621D02*
Y2180817D01*
X1106134Y2198776D02*
Y2284316D01*
X1081155Y2309296D02*
X1106134Y2284316D01*
X1091044Y2183686D02*
X1106134Y2198776D01*
X2788386Y2750000D02*
X2789171Y2749215D01*
Y2620163D02*
Y2749215D01*
X2684055Y2792323D02*
Y2797937D01*
X2702488Y2816370D01*
Y3035638D01*
X2671260Y2844488D02*
Y2918322D01*
X2652488Y2937093D02*
X2671260Y2918322D01*
X2652488Y2937093D02*
Y3035638D01*
X2592201Y2587471D02*
Y2618472D01*
X2494681Y2619377D02*
Y2729705D01*
X2562299Y2779240D02*
Y3025827D01*
X2553737Y2619377D02*
Y2770678D01*
X2552488Y3035638D02*
X2562299Y3025827D01*
X2553737Y2770678D02*
X2562299Y2779240D01*
X2403543Y3683992D02*
X2443865Y3643671D01*
X2403543Y3683992D02*
Y3685961D01*
X1349953Y3681055D02*
X1459646D01*
X2821850Y3683992D02*
X2870126Y3635716D01*
X1929134Y3487205D02*
X1930118Y3488189D01*
X2141732D01*
X2314961Y3484692D02*
X2317873Y3481780D01*
X2527558D01*
X2939457Y3487205D02*
X2944880Y3481782D01*
X2732285Y3487205D02*
X2939457D01*
X2789957Y2617047D02*
X2790862Y2616142D01*
X2789051Y2187291D02*
Y2348744D01*
X2821850Y3683992D02*
Y3685961D01*
X2787402Y2350394D02*
X2789051Y2348744D01*
X2984331Y3697693D02*
X2996063Y3685961D01*
X2984331Y3697693D02*
Y3700152D01*
X2966947Y3717536D02*
X2984331Y3700152D01*
X2609331Y3717536D02*
X2966947D01*
X2579724Y3687929D02*
X2609331Y3717536D01*
X2579724Y3685961D02*
Y3687929D01*
X2944880Y3572332D02*
X2944882Y3572334D01*
Y3685961D01*
X2769685Y3565945D02*
X2770669Y3566929D01*
Y3685961D01*
X2567992Y3697693D02*
Y3700152D01*
Y3697693D02*
X2579724Y3685961D01*
X2203661Y3697693D02*
X2223504Y3717536D01*
X2550608D01*
X2527558Y3572332D02*
X2528543Y3573317D01*
Y3685961D01*
X2352362Y3563432D02*
X2352363Y3563432D01*
X2352362Y3563432D02*
Y3685961D01*
X2137803Y3577252D02*
X2141732Y3581181D01*
Y3682008D01*
X1770669Y3685039D02*
Y3687008D01*
X1801197Y3717536D02*
X2164781D01*
X2182165Y3699662D02*
Y3700152D01*
X2164781Y3717536D02*
X2182165Y3700152D01*
X1719362Y3564333D02*
Y3665480D01*
X1965551Y3566929D02*
X1966535Y3565945D01*
X1965551Y3566929D02*
Y3685961D01*
X2016732Y3626968D02*
Y3673228D01*
X2184134Y3697693D02*
X2203661D01*
X2550608Y3717536D02*
X2567992Y3700152D01*
X2182165Y3699662D02*
X2184134Y3697693D01*
X1770669Y3687008D02*
X1801197Y3717536D01*
X1530591Y3573740D02*
X1541339Y3562992D01*
X1503937Y3484686D02*
X1708458D01*
X525937Y3386000D02*
X535425Y3376512D01*
X944957Y3517926D02*
X957032Y3530000D01*
X853347D02*
X957032D01*
X853347D02*
X866063Y3542717D01*
Y3640409D02*
X874000Y3648346D01*
X944957Y3475957D02*
Y3517926D01*
X860000Y3391000D02*
X944957Y3475957D01*
X1168309Y3525998D02*
X1176000Y3518307D01*
X3066929Y2616142D02*
X3074803Y2624016D01*
X2789171Y2620163D02*
X2789957Y2619377D01*
X2501280Y3030576D02*
Y3034429D01*
X2641000Y2795429D02*
Y2895000D01*
X1586614Y2332676D02*
X1588583Y2330708D01*
X1640748Y2612203D02*
Y2615156D01*
X1618189Y2589154D02*
Y2589644D01*
X1504010Y2580835D02*
X1609870D01*
X1618189Y2589154D01*
X1640748Y2615156D02*
X1642719Y2617126D01*
X1618189Y2589644D02*
X1640748Y2612203D01*
X1642719Y2617126D02*
X1805118D01*
X2394366Y2541543D02*
Y2569707D01*
X1291017Y2525269D02*
X1317913Y2552165D01*
X1291017Y2315293D02*
Y2525269D01*
X2163258Y2221582D02*
X2217519Y2167322D01*
X2100393Y2624016D02*
X2110235D01*
X2384034Y2264141D02*
X2415036D01*
X2346490Y2226597D02*
X2384034Y2264141D01*
X1870079Y2270669D02*
X1874016D01*
X1645395Y2323108D02*
X1651496Y2317007D01*
X1491142Y2251968D02*
X1540433Y2202677D01*
X1577050D01*
X1586616Y2193111D01*
X2388780Y2217229D02*
X2394366Y2222815D01*
Y2244456D01*
X2395272Y2245361D01*
X1462894Y2579667D02*
X1580227Y2697000D01*
X1462894Y2236909D02*
Y2579667D01*
X1874016Y2270669D02*
X1882795Y2261890D01*
X1580227Y2697000D02*
X1700000D01*
X1393561Y2186376D02*
Y2470612D01*
X1391170Y2473003D02*
X1393561Y2470612D01*
X1462894Y2236909D02*
X1568898Y2130905D01*
X1279285Y2159001D02*
X1366186D01*
X2415036Y2264141D02*
X2415941Y2265045D01*
X1822638Y1700000D02*
X1823820Y1698818D01*
X1610836Y1700000D02*
X1822638D01*
X1160879Y1773964D02*
X1161600Y1774685D01*
X1882795Y2261890D02*
X1979860D01*
X765587Y2861220D02*
X871063D01*
X628346Y2683899D02*
X670591Y2726144D01*
X1064717Y2072710D02*
Y2159001D01*
X2394366Y2541543D02*
X2395272Y2540637D01*
X2415941D01*
X1627568Y1750000D02*
X2128747D01*
X2513461Y2134715D01*
X726772Y2742953D02*
X826102Y2643622D01*
X2501280Y3034429D02*
X2502488Y3035638D01*
X533364Y3654937D02*
X535425Y3656998D01*
X416158Y3654937D02*
X533364D01*
X1788283Y2784859D02*
X1801000Y2797575D01*
X1047991Y2831000D02*
X1064724D01*
X1014683Y2797692D02*
X1047991Y2831000D01*
X1001967Y2676181D02*
X1014683Y2688898D01*
X826102Y2643622D02*
X1228673D01*
X1037767Y2855685D02*
X1091051D01*
X1106141Y2870775D02*
Y2956315D01*
X1091051Y2855685D02*
X1106141Y2870775D01*
X1081456Y2981000D02*
X1106141Y2956315D01*
X1064724Y2981000D02*
X1081456D01*
X975591D02*
X1064724D01*
X972356Y2790274D02*
X1037767Y2855685D01*
X1064717Y2072710D02*
X1067426Y2070001D01*
X1366186Y2159001D02*
X1393561Y2186376D01*
X1689000Y1799000D02*
X1690000Y1798000D01*
X1628568Y1799000D02*
X1689000D01*
X1627568Y1800000D02*
X1628568Y1799000D01*
X1690000Y1798000D02*
X1819427D01*
X670591Y2726144D02*
Y2766224D01*
X765587Y2861220D01*
X2632477Y2573466D02*
Y2619377D01*
X2592201Y2618472D02*
X2593107Y2619377D01*
X2158000Y3037424D02*
X2164849Y3030576D01*
X2501280D01*
X1708458Y3484686D02*
X1719362Y3473781D01*
X2415941Y2402841D02*
Y2422525D01*
Y2383155D02*
Y2402841D01*
X1627568Y1457716D02*
Y1600000D01*
X2533146Y2129122D02*
Y2165717D01*
X2553737Y2124435D02*
Y2166303D01*
X866063Y3542717D02*
Y3640409D01*
X1403573Y2881000D02*
X1405000Y2882427D01*
X1279292Y2881000D02*
X1403573D01*
X1618852Y1449000D02*
X1627568Y1457716D01*
X2198729Y1850000D02*
X2494363Y2145634D01*
X1627568Y1850000D02*
X2198729D01*
X1360578Y2209001D02*
X1361002Y2209425D01*
X1279285Y2209001D02*
X1360578D01*
X2652488Y3189182D02*
Y3306938D01*
X2652426Y3307000D02*
X2652488Y3306938D01*
X2513461Y2134715D02*
Y2165716D01*
X2514367Y2166621D01*
X2494363Y2145634D02*
Y2166621D01*
X2533146Y2165717D02*
X2534051Y2166621D01*
X2395272Y2245361D02*
X2415623D01*
X1413000Y1600000D02*
X1429732D01*
X1396268Y1650000D02*
X1413000D01*
X1371583Y1625315D02*
X1396268Y1650000D01*
X1313000Y1897000D02*
X1314500Y1898500D01*
X1411500D01*
X1413000Y1900000D01*
X1482720Y1143263D02*
Y1145231D01*
X1815397Y1142282D02*
Y1144251D01*
X1828113Y1156967D01*
X1774964Y1016770D02*
X1846303Y945430D01*
X1774964Y1016770D02*
Y1129566D01*
X1762247Y1142282D02*
X1774964Y1129566D01*
X1040791Y1144249D02*
X1053507Y1156966D01*
X1040791Y1142280D02*
Y1144249D01*
D30*
X2065398Y815508D02*
X2128389Y752518D01*
X2195744D01*
X800024Y3529480D02*
X800197Y3529653D01*
X800024Y3374190D02*
Y3529480D01*
X799850Y3286152D02*
X821567Y3264436D01*
X800024Y3374190D02*
X800197Y3374017D01*
X2062834Y2334545D02*
Y2560693D01*
X2063968Y2247503D02*
Y2333411D01*
X797571Y3532279D02*
X800197Y3529653D01*
X799850Y3286152D02*
Y3373670D01*
X924000Y3680826D02*
X1097299D01*
X2063968Y2247503D02*
X2089889Y2221582D01*
X2062834Y2334545D02*
X2063968Y2333411D01*
X2096649Y3089566D02*
X2159969D01*
X1297650Y3058071D02*
X2065154D01*
X1278592Y2258308D02*
X1279978Y2259694D01*
X2704031Y3305457D02*
X2705574Y3307000D01*
X1401118Y2931693D02*
X1405000Y2935575D01*
X1196752Y2182821D02*
X1281915Y2097657D01*
X1151575Y2856299D02*
X1153631Y2858356D01*
X2159969Y3089566D02*
X2414961Y3344559D01*
X799850Y3373670D02*
X800197Y3374017D01*
X821567Y3261527D02*
Y3264436D01*
X797571Y3532279D02*
Y3579685D01*
X2062834Y2560693D02*
X2088755Y2586614D01*
X2055000Y2620370D02*
X2088755Y2586614D01*
X2697857Y3314716D02*
X2705574Y3307000D01*
X2677546Y3344559D02*
X2697857Y3324248D01*
Y3314716D02*
Y3324248D01*
X2414961Y3344559D02*
X2677546D01*
X2089889Y2221582D02*
X2091684D01*
X2055000Y2620370D02*
Y2765000D01*
X2091999Y2221582D02*
X2101527D01*
X1653181Y2062630D02*
X1922718D01*
X2071985Y2211896D02*
X2082314D01*
X1358120Y2259694D02*
X1361002Y2262575D01*
X1618153Y2097657D02*
X1653181Y2062630D01*
X1281915Y2097657D02*
X1618153D01*
X1231288Y2258308D02*
X1278592D01*
X1196752Y2223772D02*
X1231288Y2258308D01*
X1196752Y2182821D02*
Y2223772D01*
X1232874Y2993296D02*
X1297650Y3058071D01*
X1232874Y2960685D02*
Y2993296D01*
X1791736Y899997D02*
X2133942D01*
X2179375Y945430D01*
X1746303D02*
X1791736Y899997D01*
X1209653Y1750768D02*
X1345500D01*
X769597Y1636899D02*
X773288Y1633208D01*
X1011634D02*
X1013268Y1631573D01*
X773288Y1633208D02*
X1011634D01*
X1431102Y2665354D02*
X1512795Y2747047D01*
X1431102Y2438976D02*
Y2665354D01*
X2197879Y748580D02*
Y750382D01*
X2195744Y752518D02*
X2197879Y750382D01*
X724000Y3648346D02*
Y3707401D01*
X1013268Y1631573D02*
X1090459D01*
X1209653Y1750768D01*
X2702488Y3189182D02*
X2704031Y3190725D01*
X2702488Y3156898D02*
Y3189182D01*
X1279292Y2931000D02*
X1279985Y2931693D01*
X1262559Y2931000D02*
X1279292D01*
X1232874Y2960685D02*
X1262559Y2931000D01*
X2065154Y3058071D02*
X2096649Y3089566D01*
X1189915Y2858356D02*
X1262559Y2931000D01*
X1153631Y2858356D02*
X1189915D01*
X2082314Y2211896D02*
X2091999Y2221582D01*
X1077951Y1950000D02*
X1413000D01*
X873762Y1780757D02*
X920208D01*
X1010984Y1871533D01*
Y1879096D01*
X1030510Y1898622D01*
X781006Y1688000D02*
X873762Y1780757D01*
X2704031Y3190725D02*
Y3305457D01*
X821567Y3261527D02*
X878653D01*
X975645Y3358519D01*
X665591Y1772729D02*
X748339Y1689980D01*
X665591Y1772729D02*
Y1801856D01*
X1173944Y3410057D02*
X1176000Y3408000D01*
X1173944Y3410057D02*
Y3516313D01*
X1175938Y3518307D01*
X1223917Y1559547D02*
X1224409Y1559055D01*
X1223917Y1559547D02*
Y1717028D01*
X1223425Y1717520D02*
X1223917Y1717028D01*
X411810Y1798071D02*
X806746Y1403135D01*
X510236Y1857127D02*
X730463Y1636899D01*
X769597D01*
X824000Y3627677D02*
Y3677874D01*
X693069Y3527148D02*
Y3617415D01*
X1150353Y3661362D02*
X1168309Y3643407D01*
Y3525998D02*
Y3643407D01*
X699535Y3731866D02*
X724000Y3707401D01*
X389069Y3731866D02*
X699535D01*
X693069Y3617415D02*
X724000Y3648346D01*
X753685Y3737086D02*
X894315D01*
X924000Y3707401D01*
X724000D02*
X753685Y3737086D01*
X924000Y3680826D02*
Y3707401D01*
X235843Y3694307D02*
X245528Y3703992D01*
X361195D01*
X389069Y3731866D01*
X1175938Y3518307D02*
X1176000D01*
X2769819Y3089567D02*
X2852000D01*
X2217519Y2165353D02*
Y2167322D01*
X748339Y1689980D02*
X778873D01*
X628346Y1839101D02*
X665591Y1801856D01*
X1345500Y1750768D02*
X1396268Y1700000D01*
X1030510Y1902559D02*
X1077951Y1950000D01*
X1030510Y1898622D02*
Y1902559D01*
X780929Y1688000D02*
X781006D01*
X1396268Y1700000D02*
X1413000D01*
X1922718Y2062630D02*
X2071985Y2211896D01*
X235843Y3654937D02*
Y3694307D01*
X1437406Y935745D02*
Y1020945D01*
X806746Y1403135D02*
X1055216D01*
X2702488Y3156898D02*
X2769819Y3089567D01*
X774000Y3603256D02*
Y3677874D01*
Y3603256D02*
X797571Y3579685D01*
X1279985Y2931693D02*
X1401118D01*
X1279978Y2259694D02*
X1358120D01*
X778873Y1689980D02*
X780929Y1687924D01*
X628346Y1839101D02*
Y1857127D01*
X1546540Y899997D02*
X1591543Y945000D01*
X1473154Y899997D02*
X1546540D01*
X1055216Y1403135D02*
X1437406Y1020945D01*
Y935745D02*
X1473154Y899997D01*
X1410477Y748578D02*
X1511163Y849264D01*
X2183209D01*
X2279375Y945430D01*
X1016775Y863933D02*
X1098272Y945430D01*
X1016775Y748580D02*
Y863933D01*
D31*
X643050Y2918500D02*
X1034894D01*
X945000Y2893500D02*
X1034894D01*
X653405D02*
X945000D01*
Y2823935D02*
Y2893500D01*
X941929Y2820865D02*
X945000Y2823935D01*
X411810Y2742953D02*
X413137Y2744280D01*
X468830D01*
X643050Y2918500D01*
X1034894D02*
X1047394Y2931000D01*
X1064724D01*
X500825Y2693310D02*
X510236Y2683899D01*
X500825Y2693310D02*
Y2740919D01*
X653405Y2893500D01*
X1034894D02*
X1047394Y2881000D01*
X1064724D01*
X985032Y2258410D02*
X987000D01*
X968406Y2241784D02*
X985032Y2258410D01*
X773327Y2105848D02*
X789163D01*
X925099Y2241784D02*
X968406D01*
X789163Y2105848D02*
X925099Y2241784D01*
X726772Y2152403D02*
X773327Y2105848D01*
X799518Y2080848D02*
X935455Y2216784D01*
X969822D01*
X773327Y2080848D02*
X799518D01*
X726772Y2034293D02*
X773327Y2080848D01*
X969822Y2216784D02*
X986032Y2200574D01*
X987000Y2258410D02*
X996232Y2249177D01*
X1004311D01*
X1006988Y2246501D01*
X1034887D01*
X1047387Y2259001D01*
X1064717D01*
X986032Y2200574D02*
X989969D01*
X1010897Y2221501D01*
X1034887D01*
X1047387Y2209001D01*
X1064717D01*
D32*
X1062995Y2433069D02*
X1064717Y2431347D01*
Y2309296D02*
Y2431347D01*
X987295Y2309296D02*
X1064717D01*
X987000Y2309591D02*
X987295Y2309296D01*
D33*
X2702488Y3035638D02*
X2703269Y3036419D01*
X2852000D01*
X1335000Y2044000D02*
X1466836D01*
X1610836Y1900000D01*
X1627568D01*
D34*
X1198271Y945432D02*
D03*
X1098271D02*
D03*
X998271D02*
D03*
X2379375Y945430D02*
D03*
X2279375D02*
D03*
X2179375D02*
D03*
X1591973Y945430D02*
D03*
X1491973D02*
D03*
X1391973D02*
D03*
X1946301Y945432D02*
D03*
X1846301D02*
D03*
X1746301D02*
D03*
D35*
X726771Y1798072D02*
D03*
Y1916182D02*
D03*
Y2034293D02*
D03*
Y2152403D02*
D03*
Y2270513D02*
D03*
Y2388623D02*
D03*
Y2506734D02*
D03*
Y2624844D02*
D03*
Y2742954D02*
D03*
X628346Y1857127D02*
D03*
Y1975237D02*
D03*
Y2093348D02*
D03*
Y2211458D02*
D03*
Y2329568D02*
D03*
Y2447678D02*
D03*
Y2565789D02*
D03*
Y2683899D02*
D03*
X510236Y1857127D02*
D03*
Y1975237D02*
D03*
Y2093348D02*
D03*
Y2211458D02*
D03*
Y2329568D02*
D03*
Y2447678D02*
D03*
Y2565789D02*
D03*
Y2683899D02*
D03*
X411811Y1798072D02*
D03*
Y1916182D02*
D03*
Y2034293D02*
D03*
Y2152403D02*
D03*
Y2270513D02*
D03*
Y2388623D02*
D03*
Y2506734D02*
D03*
Y2624844D02*
D03*
Y2742954D02*
D03*
D36*
X155905Y3028387D02*
D03*
Y1512639D02*
D03*
D37*
X1410476Y158028D02*
D03*
X1384886Y532044D02*
D03*
X1534492Y394249D02*
D03*
X1804177Y158028D02*
D03*
X1778587Y532044D02*
D03*
X1928193Y394249D02*
D03*
X1016776Y158028D02*
D03*
X991185Y532044D02*
D03*
X1140792Y394249D02*
D03*
X2222877Y161965D02*
D03*
X2197287Y535981D02*
D03*
X2346893Y398186D02*
D03*
D38*
X1579768Y748579D02*
D03*
X1410476D02*
D03*
X1973469D02*
D03*
X1804177D02*
D03*
X1186067D02*
D03*
X1016776D02*
D03*
X2392168Y752516D02*
D03*
X2222877D02*
D03*
D39*
X324804Y1159293D02*
D03*
X620080D02*
D03*
X324804Y765593D02*
D03*
Y962443D02*
D03*
X620080Y765593D02*
D03*
Y962443D02*
D03*
Y175041D02*
D03*
X324804D02*
D03*
D40*
X1775000Y1600000D02*
D03*
X2055000Y2765000D02*
D03*
X2105000Y2880000D02*
D03*
X1515000Y1525000D02*
D03*
X1355000Y2730000D02*
D03*
X1860000Y1635000D02*
D03*
X892825Y1724016D02*
D03*
X2250000Y2490000D02*
D03*
X1545000Y2880000D02*
D03*
X1515000Y2925000D02*
D03*
X2430000Y2710000D02*
D03*
X2652161Y2687161D02*
D03*
X2485000Y2745000D02*
D03*
X2534051Y2790941D02*
D03*
X2326772Y2460072D02*
D03*
X1500984Y3631890D02*
D03*
X824000Y3627677D02*
D03*
X2612791Y2550197D02*
D03*
X2005906Y1707677D02*
D03*
X2019685Y1802165D02*
D03*
X2151575Y2287402D02*
D03*
X2265000Y2110000D02*
D03*
X1150591Y2915354D02*
D03*
X1230000Y2210000D02*
D03*
X1524606Y1894685D02*
D03*
X1505906Y1734252D02*
D03*
X1180118Y1816929D02*
D03*
X1100000Y1730000D02*
D03*
X771654Y1634842D02*
D03*
X1224409Y1559055D02*
D03*
X1262795Y1819882D02*
D03*
X1151575Y2856299D02*
D03*
X1507874Y2522638D02*
D03*
X1512795Y2747047D02*
D03*
X2788386Y2750000D02*
D03*
X2684055Y2792323D02*
D03*
X2671260Y2844488D02*
D03*
X821567Y3261527D02*
D03*
X2870126Y3635716D02*
D03*
X2940945Y2579724D02*
D03*
X2787402Y2350394D02*
D03*
X2447835Y3622047D02*
D03*
X2016732Y3626968D02*
D03*
X2145669Y2406496D02*
D03*
X2342520Y2212598D02*
D03*
X2063976Y3058071D02*
D03*
X1491142Y2251968D02*
D03*
X1431102Y2438976D02*
D03*
X1664370Y2262795D02*
D03*
X1504010Y2580835D02*
D03*
X1568898Y2130905D02*
D03*
X1391170Y2473003D02*
D03*
X1317913Y2552165D02*
D03*
X2388780Y2211614D02*
D03*
X1223425Y1717520D02*
D03*
X1160879Y1773964D02*
D03*
X871063Y2861220D02*
D03*
X2007024Y2946622D02*
D03*
X1723425Y2750000D02*
D03*
X2337598Y2581693D02*
D03*
X1653181Y2062630D02*
D03*
X2417323Y3257874D02*
D03*
X860000Y2700000D02*
D03*
X1176000Y3408000D02*
D03*
X1690000Y1798000D02*
D03*
X1700000Y2697000D02*
D03*
X1335000Y2044000D02*
D03*
X2641000Y2895000D02*
D03*
X780929Y1687924D02*
D03*
X1313000Y1897000D02*
D03*
X2065398Y815508D02*
D03*
%TF.MD5,bd378b2da928aae2abd2eef547759c03*%
M02*
