%TF.GenerationSoftware,Altium Limited,Altium Designer,19.1.8 (144)*%
G04 Layer_Color=128*
%FSLAX26Y26*%
%MOIN*%
%TF.FileFunction,Drillmap*%
%TF.Part,Single*%
G01*
G75*
%TA.AperFunction,NonConductor*%
%ADD96C,0.005000*%
D96*
X2399488Y761614D02*
X2442795D01*
X2421142Y739961D02*
Y783268D01*
X2568780Y761614D02*
X2612087D01*
X2590433Y739961D02*
Y783268D01*
X2517599Y407284D02*
X2572716D01*
X2545157Y379724D02*
Y434842D01*
X2367992Y545079D02*
X2423110D01*
X2395551Y517520D02*
Y572638D01*
X2393583Y171063D02*
X2448701D01*
X2421142Y143504D02*
Y198622D01*
X1473084Y761614D02*
X1516391D01*
X1494738Y739961D02*
Y783268D01*
X1642375Y761614D02*
X1685682D01*
X1664029Y739961D02*
Y783268D01*
X1591194Y407284D02*
X1646312D01*
X1618753Y379724D02*
Y434842D01*
X1441588Y545079D02*
X1496706D01*
X1469147Y517520D02*
Y572638D01*
X1467179Y171063D02*
X1522297D01*
X1494738Y143504D02*
Y198622D01*
X1936286Y761614D02*
X1979593D01*
X1957940Y739961D02*
Y783268D01*
X2105577Y761614D02*
X2148885D01*
X2127231Y739961D02*
Y783268D01*
X2054396Y407284D02*
X2109514D01*
X2081955Y379724D02*
Y434842D01*
X1904790Y545079D02*
X1959908D01*
X1932349Y517520D02*
Y572638D01*
X1930381Y171063D02*
X1985499D01*
X1957940Y143504D02*
Y198622D01*
X1009882Y761614D02*
X1053189D01*
X1031535Y739961D02*
Y783268D01*
X1179173Y761614D02*
X1222480D01*
X1200827Y739961D02*
Y783268D01*
X1127992Y407284D02*
X1183110D01*
X1155551Y379724D02*
Y434842D01*
X978386Y545079D02*
X1033504D01*
X1005945Y517520D02*
Y572638D01*
X1003976Y171063D02*
X1059094D01*
X1031535Y143504D02*
Y198622D01*
X625236Y143583D02*
X676417D01*
X650827Y117992D02*
Y169173D01*
X329961Y143583D02*
X381142D01*
X355551Y117992D02*
Y169173D01*
X625236Y537284D02*
X676417D01*
X650827Y511693D02*
Y562874D01*
X625236Y340433D02*
X676417D01*
X650827Y314843D02*
Y366024D01*
X329961Y537284D02*
X381142D01*
X355551Y511693D02*
Y562874D01*
X329961Y340433D02*
X381142D01*
X355551Y314843D02*
Y366024D01*
X329961Y1127835D02*
X381142D01*
X355551Y1102244D02*
Y1153425D01*
X625236Y1127835D02*
X676417D01*
X650827Y1102244D02*
Y1153425D01*
X1906470Y917284D02*
X1937966D01*
X1922218Y901535D02*
Y933032D01*
X2006470Y917284D02*
X2037966D01*
X2022218Y901535D02*
Y933032D01*
X2106470Y917284D02*
X2137966D01*
X2122218Y901535D02*
Y933032D01*
X2369803Y917284D02*
X2401299D01*
X2385551Y901535D02*
Y933032D01*
X2469803Y917284D02*
X2501299D01*
X2485551Y901535D02*
Y933032D01*
X2569803Y917284D02*
X2601299D01*
X2585551Y901535D02*
Y933032D01*
X1443137Y917284D02*
X1474632D01*
X1458884Y901535D02*
Y933032D01*
X1543137Y917284D02*
X1574632D01*
X1558884Y901535D02*
Y933032D01*
X1643137Y917284D02*
X1674632D01*
X1658884Y901535D02*
Y933032D01*
X979803Y917284D02*
X1011299D01*
X995551Y901535D02*
Y933032D01*
X1079803Y917284D02*
X1111299D01*
X1095551Y901535D02*
Y933032D01*
X1179803Y917284D02*
X1211299D01*
X1195551Y901535D02*
Y933032D01*
X74685Y1529409D02*
X204606D01*
X139646Y1464449D02*
Y1594370D01*
X74685Y3045157D02*
X204606D01*
X139646Y2980197D02*
Y3110118D01*
X369961Y2759724D02*
X421142D01*
X395551Y2734134D02*
Y2785315D01*
X369961Y2641614D02*
X421142D01*
X395551Y2616024D02*
Y2667205D01*
X369961Y2523504D02*
X421142D01*
X395551Y2497914D02*
Y2549095D01*
X369961Y2405394D02*
X421142D01*
X395551Y2379803D02*
Y2430984D01*
X369961Y2287284D02*
X421142D01*
X395551Y2261693D02*
Y2312874D01*
X369961Y2169173D02*
X421142D01*
X395551Y2143583D02*
Y2194764D01*
X369961Y2051063D02*
X421142D01*
X395551Y2025473D02*
Y2076653D01*
X369961Y1932953D02*
X421142D01*
X395551Y1907362D02*
Y1958543D01*
X369961Y1814842D02*
X421142D01*
X395551Y1789252D02*
Y1840433D01*
X468386Y2700669D02*
X519567D01*
X493976Y2675079D02*
Y2726260D01*
X468386Y2582559D02*
X519567D01*
X493976Y2556969D02*
Y2608150D01*
X468386Y2464449D02*
X519567D01*
X493976Y2438858D02*
Y2490039D01*
X468386Y2346339D02*
X519567D01*
X493976Y2320748D02*
Y2371929D01*
X468386Y2228228D02*
X519567D01*
X493976Y2202638D02*
Y2253819D01*
X468386Y2110118D02*
X519567D01*
X493976Y2084528D02*
Y2135709D01*
X468386Y1992008D02*
X519567D01*
X493976Y1966417D02*
Y2017598D01*
X468386Y1873898D02*
X519567D01*
X493976Y1848307D02*
Y1899488D01*
X586496Y2700669D02*
X637677D01*
X612087Y2675079D02*
Y2726260D01*
X586496Y2582559D02*
X637677D01*
X612087Y2556969D02*
Y2608150D01*
X586496Y2464449D02*
X637677D01*
X612087Y2438858D02*
Y2490039D01*
X586496Y2346339D02*
X637677D01*
X612087Y2320748D02*
Y2371929D01*
X586496Y2228228D02*
X637677D01*
X612087Y2202638D02*
Y2253819D01*
X586496Y2110118D02*
X637677D01*
X612087Y2084528D02*
Y2135709D01*
X586496Y1992008D02*
X637677D01*
X612087Y1966417D02*
Y2017598D01*
X586496Y1873898D02*
X637677D01*
X612087Y1848307D02*
Y1899488D01*
X684921Y2759724D02*
X736102D01*
X710512Y2734134D02*
Y2785315D01*
X684921Y2641614D02*
X736102D01*
X710512Y2616024D02*
Y2667205D01*
X684921Y2523504D02*
X736102D01*
X710512Y2497914D02*
Y2549095D01*
X684921Y2405394D02*
X736102D01*
X710512Y2379803D02*
Y2430984D01*
X684921Y2287284D02*
X736102D01*
X710512Y2261693D02*
Y2312874D01*
X684921Y2169173D02*
X736102D01*
X710512Y2143583D02*
Y2194764D01*
X684921Y2051063D02*
X736102D01*
X710512Y2025473D02*
Y2076653D01*
X684921Y1932953D02*
X736102D01*
X710512Y1907362D02*
Y1958543D01*
X684921Y1814842D02*
X736102D01*
X710512Y1789252D02*
Y1840433D01*
X2783071Y150000D02*
X2916929D01*
X2850000Y83071D02*
Y216929D01*
X2783071Y3100000D02*
X2916929D01*
X2850000Y3033071D02*
Y3166929D01*
X780512Y2145669D02*
X794291D01*
X787402Y2138780D02*
Y2152559D01*
X819882Y2460630D02*
X833661D01*
X826772Y2453740D02*
Y2467520D01*
X2276575Y1653543D02*
X2290354D01*
X2283465Y1646654D02*
Y1660433D01*
X1764764Y1614173D02*
X1778543D01*
X1771653Y1607284D02*
Y1621063D01*
X1351378Y2362205D02*
X1365157D01*
X1358268Y2355315D02*
Y2369094D01*
X1469488Y2401575D02*
X1483268D01*
X1476378Y2394685D02*
Y2408465D01*
X2897638Y2697835D02*
X2911417D01*
X2904528Y2690945D02*
Y2704724D01*
X2076772Y2550197D02*
X2090551D01*
X2083662Y2543307D02*
Y2557087D01*
X1879921Y2920276D02*
X1893701D01*
X1886811Y2913386D02*
Y2927165D01*
X910433Y2026575D02*
X924212D01*
X917323Y2019685D02*
Y2033465D01*
X1624016Y1767716D02*
X1637795D01*
X1630906Y1760827D02*
Y1774606D01*
X1464567Y1614173D02*
X1478346D01*
X1471457Y1607284D02*
Y1621063D01*
X1595252Y2034449D02*
X1623252D01*
X1609252Y2020449D02*
Y2048449D01*
X1508858Y1894685D02*
X1522638D01*
X1515748Y1887795D02*
Y1901575D01*
X1252634Y2695233D02*
X1266414D01*
X1259524Y2688343D02*
Y2702122D01*
X2684675Y2075352D02*
X2698454D01*
X2691564Y2068463D02*
Y2082242D01*
X2681749Y1824159D02*
X2695529D01*
X2688639Y1817270D02*
Y1831049D01*
X2687425Y1543927D02*
X2701205D01*
X2694315Y1537037D02*
Y1550816D01*
X2677972Y1242323D02*
X2691751D01*
X2684861Y1235434D02*
Y1249213D01*
X2521149Y3004593D02*
X2534929D01*
X2528039Y2997703D02*
Y3011482D01*
X2569633Y2984867D02*
X2583412D01*
X2576522Y2977977D02*
Y2991756D01*
X2208262Y2602773D02*
X2222042D01*
X2215152Y2595883D02*
Y2609662D01*
X2215151Y2647305D02*
X2228931D01*
X2222041Y2640415D02*
Y2654194D01*
X2423318Y2338662D02*
X2437097D01*
X2430207Y2331773D02*
Y2345552D01*
X2467966Y2295216D02*
X2481746D01*
X2474856Y2288327D02*
Y2302106D01*
X2529253Y2814669D02*
X2543033D01*
X2536143Y2807779D02*
Y2821558D01*
X2503965Y2771370D02*
X2517744D01*
X2510854Y2764481D02*
Y2778260D01*
X2546231Y2339231D02*
X2560010D01*
X2553120Y2332341D02*
Y2346120D01*
X2141840Y2733793D02*
X2155620D01*
X2148730Y2726903D02*
Y2740682D01*
X2107164Y2772736D02*
X2120943D01*
X2114053Y2765847D02*
Y2779626D01*
X2515664Y2377023D02*
X2529443D01*
X2522553Y2370134D02*
Y2383913D01*
X2646271Y2377023D02*
X2660050D01*
X2653160Y2370134D02*
Y2383913D01*
X2632448Y2339231D02*
X2646228D01*
X2639338Y2332341D02*
Y2346120D01*
X2239608Y2699517D02*
X2253388D01*
X2246498Y2692627D02*
Y2706406D01*
X1724881Y2115671D02*
X1738661D01*
X1731771Y2108782D02*
Y2122561D01*
X1759165Y2151412D02*
X1772944D01*
X1766054Y2144522D02*
Y2158301D01*
X1738255Y2679633D02*
X1752035D01*
X1745145Y2672743D02*
Y2686522D01*
X1775137Y2711664D02*
X1788916D01*
X1782026Y2704774D02*
Y2718553D01*
X1533637Y1966983D02*
X1547416D01*
X1540526Y1960093D02*
Y1973872D01*
X1813222Y2204421D02*
X1827001D01*
X1820111Y2197532D02*
Y2211311D01*
X2141162Y1946823D02*
X2154941D01*
X2148051Y1939934D02*
Y1953713D01*
X1745120Y1975512D02*
X1758899D01*
X1752009Y1968622D02*
Y1982401D01*
X1623709Y2957070D02*
X1637489D01*
X1630599Y2950181D02*
Y2963960D01*
X1600984Y2651294D02*
X1614763D01*
X1607873Y2644404D02*
Y2658183D01*
X1683668Y2487519D02*
X1697448D01*
X1690558Y2480629D02*
Y2494408D01*
X1498642Y2220626D02*
X1512422D01*
X1505532Y2213737D02*
Y2227516D01*
X1947060Y1669061D02*
X1960840D01*
X1953950Y1662171D02*
Y1675950D01*
X1904726Y1452318D02*
X1918506D01*
X1911616Y1445428D02*
Y1459207D01*
X1994574Y1452318D02*
X2008354D01*
X2001464Y1445428D02*
Y1459207D01*
X1556498Y1680024D02*
X1570278D01*
X1563388Y1673134D02*
Y1686913D01*
X1572332Y1801803D02*
X1586111D01*
X1579221Y1794914D02*
Y1808693D01*
X1511655Y1728513D02*
X1525434D01*
X1518544Y1721623D02*
Y1735402D01*
X1315455Y1271862D02*
X1329234D01*
X1322344Y1264973D02*
Y1278752D01*
X1078633Y2153691D02*
X1092413D01*
X1085523Y2146801D02*
Y2160580D01*
X1271215Y2132979D02*
X1284994D01*
X1278104Y2126090D02*
Y2139869D01*
X1016101Y1505261D02*
X1029881D01*
X1022991Y1498371D02*
Y1512150D01*
X1016101Y1671247D02*
X1029881D01*
X1022991Y1664358D02*
Y1678137D01*
X2296548Y2883640D02*
X2310328D01*
X2303438Y2876751D02*
Y2890530D01*
X1531804Y3129265D02*
X1545584D01*
X1538694Y3122375D02*
Y3136154D01*
X1647924Y3133262D02*
X1661703D01*
X1654813Y3126372D02*
Y3140151D01*
X2224229Y2994244D02*
X2238008D01*
X2231118Y2987355D02*
Y3001134D01*
X2231030Y2941265D02*
X2244810D01*
X2237920Y2934375D02*
Y2948154D01*
X2229240Y2892287D02*
X2243020D01*
X2236130Y2885397D02*
Y2899177D01*
X2382798Y3025307D02*
X2396578D01*
X2389688Y3018417D02*
Y3032196D01*
X2364845Y3064374D02*
X2378624D01*
X2371734Y3057484D02*
Y3071263D01*
X2311686Y3072273D02*
X2325466D01*
X2318576Y3065383D02*
Y3079162D01*
X2343088Y2968854D02*
X2356868D01*
X2349978Y2961965D02*
Y2975744D01*
X1760059Y1007860D02*
X1788059D01*
X1774059Y993860D02*
Y1021860D01*
X858168Y928386D02*
X886168D01*
X872168Y914386D02*
Y942386D01*
X486678Y352130D02*
X514678D01*
X500678Y338130D02*
Y366130D01*
%TF.MD5,3a8a5a4901240766deae18d1f1ca444f*%
M02*
