M48
;Layer_Color=9474304
;FILE_FORMAT=2:5
INCH,TZ
;TYPE=PLATED
T1F00S00C0.04331
T2F00S00C0.05512
T3F00S00C0.06693
T4F00S00C0.06929
T5F00S00C0.09200
;TYPE=NON_PLATED
T6F00S00C0.08504
%
T01
X206890Y152264
X223819
X210433Y185738
X193504
Y262116
X210433
T02
X206890Y93209
X219291Y116831
X204331Y130610
X212992Y207391
X198031Y221171
X210433Y244793
X212992Y283769
X198031Y297549
X210433Y321171
T03
X235563Y305671
X274618
Y319057
X235563
T04
X154520Y103441
Y139347
X172039
Y103441
X171843Y251411
Y287316
X154323
Y251411
T05
X317618Y227264
X300570Y237106
Y217421
T06
X163287Y80394
Y162402
X163091Y228364
Y310372
M30
