%TF.GenerationSoftware,Altium Limited,Altium Designer,19.1.8 (144)*%
G04 Layer_Color=255*
%FSLAX26Y26*%
%MOIN*%
%TF.FileFunction,Pads,Top*%
%TF.Part,Single*%
G01*
G75*
%TA.AperFunction,SMDPad,CuDef*%
%ADD10R,0.118000X0.181000*%
%ADD11R,0.122000X0.181000*%
%ADD12R,0.053150X0.057087*%
%TA.AperFunction,ComponentPad*%
%ADD14C,0.165354*%
%ADD15C,0.103937*%
%ADD16R,0.103937X0.103937*%
%ADD17C,0.085039*%
%ADD18C,0.098425*%
%ADD19C,0.078740*%
%ADD20C,0.094488*%
D10*
X2344614Y2343354D02*
D03*
Y2737354D02*
D03*
D11*
X3328614Y2540354D02*
D03*
D12*
X2083661Y1713583D02*
D03*
X1967520D02*
D03*
D14*
X2926181Y1484252D02*
D03*
X3096659Y1582677D02*
D03*
X2926181Y1681102D02*
D03*
D15*
X1720394Y1393465D02*
D03*
X1545197D02*
D03*
Y1034409D02*
D03*
X1543228Y2514110D02*
D03*
Y2873165D02*
D03*
X1718425D02*
D03*
D16*
X1720394Y1034409D02*
D03*
X1718425Y2514110D02*
D03*
D17*
X1632874Y1624016D02*
D03*
Y803937D02*
D03*
X1630906Y2283637D02*
D03*
Y3103716D02*
D03*
D18*
X2068898Y932087D02*
D03*
X2043307Y1306102D02*
D03*
X2192913Y1168307D02*
D03*
X1980315Y2211708D02*
D03*
X2129921Y2073913D02*
D03*
X2104331Y2447928D02*
D03*
X1980315Y2975487D02*
D03*
X2129921Y2837692D02*
D03*
X2104331Y3211708D02*
D03*
D19*
X2238189Y1522638D02*
D03*
X2068898D02*
D03*
X2104331Y1857377D02*
D03*
X1935039D02*
D03*
X2104331Y2621157D02*
D03*
X1935039D02*
D03*
D20*
X2355630Y3190566D02*
D03*
X2746181D02*
D03*
X2355630Y3056708D02*
D03*
X2746181D02*
D03*
%TF.MD5,f5c38ef841dee03aa40ca5d26d5136d9*%
M02*
