%TF.GenerationSoftware,Altium Limited,Altium Designer,19.1.8 (144)*%
G04 Layer_Physical_Order=2*
G04 Layer_Color=16711680*
%FSLAX26Y26*%
%MOIN*%
%TF.FileFunction,Copper,L2,Bot,Signal*%
%TF.Part,Single*%
G01*
G75*
%TA.AperFunction,SMDPad,CuDef*%
%ADD12R,0.053150X0.057087*%
%TA.AperFunction,Conductor*%
%ADD13C,0.010000*%
%TA.AperFunction,ComponentPad*%
%ADD14C,0.165354*%
%ADD15C,0.103937*%
%ADD16R,0.103937X0.103937*%
%ADD17C,0.085039*%
%ADD18C,0.098425*%
%ADD19C,0.078740*%
%ADD20C,0.094488*%
%TA.AperFunction,ViaPad*%
%ADD21C,0.050000*%
%TA.AperFunction,SMDPad,CuDef*%
%ADD22R,0.057087X0.053150*%
G36*
X2490157Y3246063D02*
Y2988189D01*
X2433071Y2931102D01*
X2300197D01*
X2170276Y3061024D01*
X1918307D01*
X1859252Y3001969D01*
Y2859252D01*
X1801181Y2801181D01*
X1671260D01*
X1620079Y2852362D01*
Y3007874D01*
X1694882Y3082677D01*
Y3138780D01*
X1858268Y3302165D01*
X2434055D01*
X2490157Y3246063D01*
D02*
G37*
G36*
X3025591Y2180118D02*
Y1664370D01*
X2954724Y1593504D01*
X2803150D01*
X2699803Y1696851D01*
Y2033465D01*
X2205709Y2527559D01*
Y2620079D01*
X2116142Y2709646D01*
X2042323D01*
X1888780Y2863189D01*
Y2996063D01*
X1934055Y3041338D01*
X2164370D01*
X3025591Y2180118D01*
D02*
G37*
G36*
X2343504Y1567913D02*
Y1489173D01*
X2281496Y1427165D01*
X1927165D01*
X1802165Y1302165D01*
X1489173Y1302165D01*
X1453740Y1337598D01*
Y1482284D01*
X1501968Y1530512D01*
X1697835D01*
X1787401Y1620079D01*
X2291339D01*
X2343504Y1567913D01*
D02*
G37*
G36*
X2654528Y1889764D02*
Y1713583D01*
X2796260Y1571850D01*
X2962598D01*
X3011811Y1522638D01*
Y1347441D01*
X2949803Y1285433D01*
X2553150Y1285433D01*
X2352988Y1485595D01*
X2353700Y1489173D01*
Y1567913D01*
X2352924Y1571815D01*
X2350713Y1575123D01*
X2298548Y1627288D01*
X2298228Y1627502D01*
X2298228Y1794291D01*
X2162402Y1930118D01*
X1980315D01*
X1801181Y2109252D01*
Y2310039D01*
X1870079Y2378937D01*
X2165354D01*
X2654528Y1889764D01*
D02*
G37*
G36*
X2327756Y1240158D02*
Y1129921D01*
X2248032Y1050197D01*
X1967520D01*
X1852362Y935039D01*
X1671260D01*
X1633858Y972441D01*
Y1111220D01*
X1751968Y1229331D01*
X2062992D01*
X2123032Y1289370D01*
X2278543D01*
X2327756Y1240158D01*
D02*
G37*
%LPC*%
G36*
X2104331Y3271207D02*
X2092723Y3270064D01*
X2081561Y3266678D01*
X2071275Y3261180D01*
X2062258Y3253780D01*
X2054859Y3244764D01*
X2049361Y3234477D01*
X2045975Y3223316D01*
X2044832Y3211708D01*
X2045975Y3200100D01*
X2049361Y3188939D01*
X2054859Y3178652D01*
X2062258Y3169636D01*
X2071275Y3162236D01*
X2081561Y3156738D01*
X2092723Y3153352D01*
X2104331Y3152209D01*
X2115938Y3153352D01*
X2127100Y3156738D01*
X2137387Y3162236D01*
X2146403Y3169636D01*
X2153802Y3178652D01*
X2159301Y3188939D01*
X2162686Y3200100D01*
X2163830Y3211708D01*
X2162686Y3223316D01*
X2159301Y3234477D01*
X2153802Y3244764D01*
X2146403Y3253780D01*
X2137387Y3261180D01*
X2127100Y3266678D01*
X2115938Y3270064D01*
X2104331Y3271207D01*
D02*
G37*
G36*
X2129921Y2897191D02*
X2118314Y2896048D01*
X2107152Y2892662D01*
X2096865Y2887164D01*
X2087849Y2879764D01*
X2080450Y2870748D01*
X2074951Y2860461D01*
X2071566Y2849300D01*
X2070422Y2837692D01*
X2071566Y2826084D01*
X2074951Y2814923D01*
X2080450Y2804636D01*
X2087849Y2795620D01*
X2096865Y2788220D01*
X2107152Y2782722D01*
X2118314Y2779336D01*
X2129921Y2778193D01*
X2141529Y2779336D01*
X2152691Y2782722D01*
X2162977Y2788220D01*
X2171994Y2795620D01*
X2179393Y2804636D01*
X2184891Y2814923D01*
X2188277Y2826084D01*
X2189420Y2837692D01*
X2188277Y2849300D01*
X2184891Y2860461D01*
X2179393Y2870748D01*
X2171994Y2879764D01*
X2162977Y2887164D01*
X2152691Y2892662D01*
X2141529Y2896048D01*
X2129921Y2897191D01*
D02*
G37*
G36*
X2068898Y1572434D02*
X2056010Y1570737D01*
X2044000Y1565763D01*
X2033687Y1557849D01*
X2025773Y1547536D01*
X2020798Y1535526D01*
X2019102Y1522638D01*
X2020798Y1509750D01*
X2025773Y1497740D01*
X2033687Y1487427D01*
X2044000Y1479513D01*
X2056010Y1474539D01*
X2068898Y1472842D01*
X2081786Y1474539D01*
X2093796Y1479513D01*
X2104109Y1487427D01*
X2112022Y1497740D01*
X2116997Y1509750D01*
X2118694Y1522638D01*
X2116997Y1535526D01*
X2112022Y1547536D01*
X2104109Y1557849D01*
X2093796Y1565763D01*
X2081786Y1570737D01*
X2068898Y1572434D01*
D02*
G37*
G36*
X1720394Y1455733D02*
X1708246Y1454536D01*
X1696565Y1450993D01*
X1685799Y1445239D01*
X1676363Y1437495D01*
X1668620Y1428059D01*
X1662865Y1417293D01*
X1659322Y1405612D01*
X1658125Y1393465D01*
X1659322Y1381317D01*
X1662865Y1369636D01*
X1668620Y1358870D01*
X1676363Y1349434D01*
X1685799Y1341690D01*
X1696565Y1335936D01*
X1708246Y1332393D01*
X1720394Y1331196D01*
X1732542Y1332393D01*
X1744223Y1335936D01*
X1754988Y1341690D01*
X1764424Y1349434D01*
X1772168Y1358870D01*
X1777922Y1369636D01*
X1781466Y1381317D01*
X1782662Y1393465D01*
X1781466Y1405612D01*
X1777922Y1417293D01*
X1772168Y1428059D01*
X1764424Y1437495D01*
X1754988Y1445239D01*
X1744223Y1450993D01*
X1732542Y1454536D01*
X1720394Y1455733D01*
D02*
G37*
G36*
X2129921Y2133412D02*
X2118314Y2132268D01*
X2107152Y2128883D01*
X2096865Y2123384D01*
X2087849Y2115985D01*
X2080450Y2106968D01*
X2074951Y2096682D01*
X2071566Y2085520D01*
X2070422Y2073913D01*
X2071566Y2062305D01*
X2074951Y2051143D01*
X2080450Y2040857D01*
X2087849Y2031840D01*
X2096865Y2024441D01*
X2107152Y2018943D01*
X2118314Y2015557D01*
X2129921Y2014414D01*
X2141529Y2015557D01*
X2152691Y2018943D01*
X2162977Y2024441D01*
X2171994Y2031840D01*
X2179393Y2040857D01*
X2184891Y2051143D01*
X2188277Y2062305D01*
X2189420Y2073913D01*
X2188277Y2085520D01*
X2184891Y2096682D01*
X2179393Y2106968D01*
X2171994Y2115985D01*
X2162977Y2123384D01*
X2152691Y2128883D01*
X2141529Y2132268D01*
X2129921Y2133412D01*
D02*
G37*
G36*
X2197913Y1227314D02*
Y1173307D01*
X2251920D01*
X2251269Y1179915D01*
X2247883Y1191076D01*
X2242385Y1201363D01*
X2234986Y1210379D01*
X2225969Y1217779D01*
X2215683Y1223277D01*
X2204521Y1226663D01*
X2197913Y1227314D01*
D02*
G37*
G36*
X2187913D02*
X2181306Y1226663D01*
X2170144Y1223277D01*
X2159858Y1217779D01*
X2150841Y1210379D01*
X2143442Y1201363D01*
X2137943Y1191076D01*
X2134558Y1179915D01*
X2133907Y1173307D01*
X2187913D01*
Y1227314D01*
D02*
G37*
G36*
X2251920Y1163307D02*
X2197913D01*
Y1109301D01*
X2204521Y1109951D01*
X2215683Y1113337D01*
X2225969Y1118835D01*
X2234986Y1126235D01*
X2242385Y1135251D01*
X2247883Y1145538D01*
X2251269Y1156699D01*
X2251920Y1163307D01*
D02*
G37*
G36*
X2187913D02*
X2133907D01*
X2134558Y1156699D01*
X2137943Y1145538D01*
X2143442Y1135251D01*
X2150841Y1126235D01*
X2159858Y1118835D01*
X2170144Y1113337D01*
X2181306Y1109951D01*
X2187913Y1109301D01*
Y1163307D01*
D02*
G37*
%LPD*%
D12*
X1750000Y2687992D02*
D03*
X1633858D02*
D03*
D13*
X2023622Y1857284D02*
X2104237D01*
X1741142Y2139764D02*
X2023622Y1857284D01*
X1741142Y2139764D02*
Y2201772D01*
X1718425Y2514110D02*
X1750000Y2545684D01*
Y2687992D01*
X1561202Y2760648D02*
X1563171D01*
X1633858Y2689961D01*
Y2687992D02*
Y2689961D01*
X1633125Y2423961D02*
Y2424213D01*
Y2423961D02*
X1739173Y2317913D01*
X1741142D01*
X1469488Y2363709D02*
X1607080Y2226117D01*
X1469488Y2363709D02*
Y2799425D01*
X1607544Y2226117D02*
X1935039Y1898622D01*
X1607080Y2226117D02*
X1607544D01*
X1935039Y1857377D02*
Y1898622D01*
X1543228Y2511890D02*
Y2514110D01*
X2104237Y1857284D02*
X2104331Y1857377D01*
X1543228Y2873165D02*
X1561202Y2855191D01*
Y2760648D02*
Y2855191D01*
X1795276Y2424213D02*
X1935039Y2563976D01*
Y2621157D01*
X1633125Y2424213D02*
X1795276D01*
X1543228Y2514110D02*
X1633125Y2424213D01*
X1469488Y2799425D02*
X1543228Y2873165D01*
X2088410Y2621157D02*
X2104331D01*
D14*
X2926181Y1484252D02*
D03*
X3096659Y1582677D02*
D03*
X2926181Y1681102D02*
D03*
D15*
X1720394Y1393465D02*
D03*
X1545197D02*
D03*
Y1034409D02*
D03*
X1543228Y2514110D02*
D03*
Y2873165D02*
D03*
X1718425D02*
D03*
D16*
X1720394Y1034409D02*
D03*
X1718425Y2514110D02*
D03*
D17*
X1632874Y1624016D02*
D03*
Y803937D02*
D03*
X1630906Y2283637D02*
D03*
Y3103716D02*
D03*
D18*
X2068898Y932087D02*
D03*
X2043307Y1306102D02*
D03*
X2192913Y1168307D02*
D03*
X1980315Y2211708D02*
D03*
X2129921Y2073913D02*
D03*
X2104331Y2447928D02*
D03*
X1980315Y2975487D02*
D03*
X2129921Y2837692D02*
D03*
X2104331Y3211708D02*
D03*
D19*
X2238189Y1522638D02*
D03*
X2068898D02*
D03*
X2104331Y1857377D02*
D03*
X1935039D02*
D03*
X2104331Y2621157D02*
D03*
X1935039D02*
D03*
D20*
X2355630Y3190566D02*
D03*
X2746181D02*
D03*
X2355630Y3056708D02*
D03*
X2746181D02*
D03*
D21*
X2160433Y1749016D02*
D03*
D22*
X1741142Y2201772D02*
D03*
Y2317913D02*
D03*
%TF.MD5,1a2f474d9b188663d5f22312d8349345*%
M02*
