%TF.GenerationSoftware,Altium Limited,Altium Designer,19.1.8 (144)*%
G04 Layer_Color=255*
%FSLAX26Y26*%
%MOIN*%
%TF.FileFunction,Pads,Bot*%
%TF.Part,Single*%
G01*
G75*
%TA.AperFunction,SMDPad,CuDef*%
%ADD12R,0.053150X0.057087*%
%TA.AperFunction,ComponentPad*%
%ADD14C,0.165354*%
%ADD15C,0.103937*%
%ADD16R,0.103937X0.103937*%
%ADD17C,0.085039*%
%ADD18C,0.098425*%
%ADD19C,0.078740*%
%ADD20C,0.094488*%
%TA.AperFunction,SMDPad,CuDef*%
%ADD22R,0.057087X0.053150*%
D12*
X1750000Y2687992D02*
D03*
X1633858D02*
D03*
D14*
X2926181Y1484252D02*
D03*
X3096659Y1582677D02*
D03*
X2926181Y1681102D02*
D03*
D15*
X1720394Y1393465D02*
D03*
X1545197D02*
D03*
Y1034409D02*
D03*
X1543228Y2514110D02*
D03*
Y2873165D02*
D03*
X1718425D02*
D03*
D16*
X1720394Y1034409D02*
D03*
X1718425Y2514110D02*
D03*
D17*
X1632874Y1624016D02*
D03*
Y803937D02*
D03*
X1630906Y2283637D02*
D03*
Y3103716D02*
D03*
D18*
X2068898Y932087D02*
D03*
X2043307Y1306102D02*
D03*
X2192913Y1168307D02*
D03*
X1980315Y2211708D02*
D03*
X2129921Y2073913D02*
D03*
X2104331Y2447928D02*
D03*
X1980315Y2975487D02*
D03*
X2129921Y2837692D02*
D03*
X2104331Y3211708D02*
D03*
D19*
X2238189Y1522638D02*
D03*
X2068898D02*
D03*
X2104331Y1857377D02*
D03*
X1935039D02*
D03*
X2104331Y2621157D02*
D03*
X1935039D02*
D03*
D20*
X2355630Y3190566D02*
D03*
X2746181D02*
D03*
X2355630Y3056708D02*
D03*
X2746181D02*
D03*
D22*
X1741142Y2201772D02*
D03*
Y2317913D02*
D03*
%TF.MD5,1468d22dd05b25325d25a10d6848e4db*%
M02*
