%TF.GenerationSoftware,Altium Limited,Altium Designer,19.1.8 (144)*%
G04 Layer_Color=65535*
%FSLAX26Y26*%
%MOIN*%
%TF.FileFunction,Legend,Top*%
%TF.Part,Single*%
G01*
G75*
%TA.AperFunction,NonConductor*%
%ADD23C,0.019685*%
%ADD24C,0.010000*%
%ADD35C,0.006000*%
%ADD36C,0.003937*%
%ADD37C,0.012126*%
G36*
X3272068Y1245162D02*
X3272800Y1244436D01*
X3272803Y1243707D01*
X3272809Y1242249D01*
X3272096Y1238601D01*
X3272099Y1237872D01*
X3272112Y1234956D01*
X3271405Y1229850D01*
X3270705Y1223286D01*
X3270708Y1222557D01*
X3270711Y1221828D01*
X3270004Y1216722D01*
X3269304Y1210158D01*
X3267878Y1202861D01*
X3262952Y1162015D01*
X3225045Y1161851D01*
X3213232Y1196062D01*
X3213229Y1196792D01*
X3212496Y1197517D01*
X3211023Y1201156D01*
X3208810Y1206978D01*
X3206598Y1212801D01*
X3206595Y1213530D01*
X3205863Y1214256D01*
X3205121Y1217168D01*
X3203644Y1221536D01*
X3202170Y1225175D01*
X3202167Y1225904D01*
X3201428Y1228087D01*
X3200693Y1229542D01*
X3200699Y1228084D01*
X3199983Y1225165D01*
X3199999Y1221520D01*
X3199298Y1214956D01*
X3198604Y1206934D01*
X3197898Y1201828D01*
X3197194Y1195993D01*
X3197200Y1194535D01*
X3196487Y1190887D01*
X3195780Y1185781D01*
X3195080Y1179216D01*
X3194376Y1173381D01*
X3193673Y1167546D01*
X3192959Y1163898D01*
X3192237Y1162437D01*
X3192240Y1161708D01*
X3192246Y1160250D01*
X3179854Y1160196D01*
X3179847Y1161654D01*
X3179844Y1162383D01*
X3179838Y1163841D01*
X3180554Y1166760D01*
X3180532Y1171863D01*
X3181958Y1179159D01*
X3181939Y1183533D01*
X3182643Y1189368D01*
X3183346Y1195204D01*
X3184044Y1202497D01*
X3184040Y1203226D01*
X3184037Y1203955D01*
X3184757Y1206145D01*
X3184744Y1209061D01*
X3185444Y1215625D01*
X3186867Y1223650D01*
X3187565Y1230943D01*
X3188265Y1237507D01*
X3188253Y1240423D01*
X3188972Y1242613D01*
X3188969Y1243342D01*
X3188966Y1244071D01*
X3189688Y1245533D01*
X3228325Y1245701D01*
X3230540Y1239149D01*
X3230544Y1238420D01*
X3231282Y1236236D01*
X3232024Y1233324D01*
X3232027Y1232595D01*
X3233494Y1230414D01*
X3234242Y1226043D01*
X3236452Y1220950D01*
X3237187Y1219495D01*
X3237932Y1215853D01*
X3240138Y1211489D01*
X3241618Y1206392D01*
X3242353Y1204937D01*
X3243098Y1201295D01*
X3245304Y1196931D01*
X3246785Y1191834D01*
X3247517Y1191109D01*
X3248258Y1188196D01*
X3249003Y1184554D01*
X3249748Y1180912D01*
X3249751Y1180183D01*
X3250483Y1179457D01*
X3251219Y1178003D01*
X3251951Y1177277D01*
X3251948Y1178006D01*
X3252673Y1178738D01*
X3252661Y1181654D01*
X3253374Y1185302D01*
X3254078Y1191137D01*
X3254769Y1199888D01*
X3255475Y1204994D01*
X3256179Y1210830D01*
X3256176Y1211559D01*
X3256173Y1212287D01*
X3256886Y1215936D01*
X3257589Y1221771D01*
X3258293Y1227606D01*
X3258264Y1234167D01*
X3258971Y1239273D01*
X3259681Y1243650D01*
X3259678Y1244379D01*
X3259675Y1245108D01*
X3260401Y1245840D01*
X3269878Y1245881D01*
X3272068Y1245162D01*
D02*
G37*
G36*
X3370485Y1244861D02*
X3370488Y1244132D01*
X3369769Y1241942D01*
X3369055Y1238294D01*
X3368352Y1232459D01*
X3324612Y1232268D01*
X3323890Y1230807D01*
X3322435Y1230072D01*
X3320986Y1227879D01*
X3320990Y1227150D01*
X3320993Y1226421D01*
X3321002Y1224234D01*
X3320286Y1221315D01*
X3319576Y1216937D01*
X3318872Y1211102D01*
X3318178Y1203080D01*
X3318181Y1202351D01*
X3317465Y1199432D01*
X3317481Y1195787D01*
X3316771Y1191410D01*
X3316061Y1187033D01*
X3316077Y1183388D01*
X3315361Y1180469D01*
X3315367Y1179011D01*
X3315370Y1178282D01*
X3316102Y1177556D01*
X3317567Y1176104D01*
X3318302Y1174649D01*
X3328508Y1174694D01*
X3331421Y1175436D01*
X3332875Y1176171D01*
X3333604Y1176174D01*
X3334330Y1176906D01*
X3335779Y1179100D01*
X3336505Y1179832D01*
X3337221Y1182751D01*
X3337937Y1185670D01*
X3337925Y1188586D01*
X3338634Y1192963D01*
X3338615Y1197337D01*
X3323307Y1197271D01*
X3323300Y1198728D01*
X3323297Y1199457D01*
X3323287Y1201644D01*
X3324001Y1205293D01*
X3324704Y1211128D01*
X3366986Y1211312D01*
X3369905Y1210595D01*
X3370634Y1210599D01*
X3370640Y1209140D01*
X3369918Y1207679D01*
X3369930Y1204763D01*
X3369220Y1200386D01*
X3368517Y1194551D01*
X3367094Y1186526D01*
X3367097Y1185797D01*
X3366381Y1182878D01*
X3366396Y1179233D01*
X3365690Y1174127D01*
X3364980Y1169749D01*
X3364995Y1166105D01*
X3364279Y1163185D01*
X3364286Y1161727D01*
X3359912Y1161708D01*
X3356270Y1160964D01*
X3314717Y1160783D01*
X3308882Y1161486D01*
X3298676Y1161442D01*
X3296486Y1162161D01*
X3295025Y1162884D01*
X3292103Y1164329D01*
X3289171Y1167962D01*
X3287703Y1170142D01*
X3286958Y1173784D01*
X3286955Y1174513D01*
X3286949Y1175971D01*
X3286936Y1178887D01*
X3286920Y1182532D01*
X3286898Y1187635D01*
X3287599Y1194199D01*
X3288289Y1202950D01*
X3288286Y1203679D01*
X3289003Y1206598D01*
X3289716Y1210246D01*
X3290426Y1214624D01*
X3290407Y1218997D01*
X3291117Y1223375D01*
X3291833Y1226294D01*
X3291827Y1227752D01*
X3291823Y1228481D01*
X3292549Y1229213D01*
X3293988Y1233593D01*
X3296885Y1237980D01*
X3301240Y1242373D01*
X3301966Y1243105D01*
X3303421Y1243840D01*
X3304876Y1244576D01*
X3307791Y1244588D01*
X3309246Y1245324D01*
X3315078Y1245349D01*
X3320907Y1246103D01*
X3370479Y1246319D01*
X3370485Y1244861D01*
D02*
G37*
G36*
X3167096Y1243976D02*
X3167099Y1243247D01*
X3167105Y1241789D01*
X3166389Y1238870D01*
X3165682Y1233764D01*
X3165695Y1230848D01*
X3164985Y1226471D01*
X3164278Y1221365D01*
X3163571Y1216259D01*
X3162871Y1209695D01*
X3162174Y1202401D01*
X3162177Y1201672D01*
X3162180Y1200943D01*
X3161473Y1195837D01*
X3160773Y1189273D01*
X3160075Y1181980D01*
X3159378Y1174687D01*
X3158681Y1167394D01*
X3157971Y1163017D01*
X3157977Y1161559D01*
X3157981Y1160830D01*
X3156523Y1160823D01*
X3154339Y1160085D01*
X3127366Y1159967D01*
X3127360Y1161426D01*
X3127356Y1162155D01*
X3128076Y1164345D01*
X3128063Y1167261D01*
X3128770Y1172367D01*
X3130196Y1179663D01*
X3130903Y1184769D01*
X3131610Y1189875D01*
X3132310Y1196439D01*
X3133008Y1203733D01*
X3137930Y1245307D01*
X3167090Y1245434D01*
X3167096Y1243976D01*
D02*
G37*
G36*
X3116066Y1243754D02*
X3116070Y1243025D01*
X3116082Y1240109D01*
X3116098Y1236464D01*
X3115391Y1231358D01*
X3086961Y1231234D01*
X3084048Y1230493D01*
X3081861Y1230483D01*
X3081135Y1229751D01*
X3080409Y1229019D01*
X3079683Y1228287D01*
X3078961Y1226826D01*
X3078967Y1225368D01*
X3078244Y1223906D01*
X3077528Y1220987D01*
X3077547Y1216613D01*
X3076118Y1210046D01*
X3075423Y1202024D01*
X3071883Y1177951D01*
X3073348Y1176500D01*
X3073351Y1175771D01*
X3074083Y1175045D01*
X3109804Y1175200D01*
X3109810Y1173742D01*
X3109813Y1173013D01*
X3109094Y1170823D01*
X3108381Y1167175D01*
X3107683Y1159882D01*
X3067589Y1159707D01*
X3062482Y1160414D01*
X3057380Y1160392D01*
X3053002Y1161102D01*
X3050812Y1161822D01*
X3050080Y1162547D01*
X3047887Y1163996D01*
X3047155Y1164722D01*
X3045687Y1166902D01*
X3044213Y1170541D01*
X3042733Y1175637D01*
X3042730Y1176366D01*
X3042724Y1177824D01*
X3043443Y1180015D01*
X3043430Y1182930D01*
X3044140Y1187308D01*
X3044841Y1193872D01*
X3045538Y1201165D01*
X3045532Y1202623D01*
X3046248Y1205542D01*
X3046232Y1209187D01*
X3046939Y1214293D01*
X3047646Y1219399D01*
X3048356Y1223776D01*
X3049069Y1227425D01*
X3049059Y1229611D01*
X3049056Y1230341D01*
X3049779Y1231802D01*
X3052676Y1236188D01*
X3057027Y1241310D01*
X3060663Y1243513D01*
X3064302Y1244987D01*
X3116060Y1245212D01*
X3116066Y1243754D01*
D02*
G37*
G36*
X3019992Y1208344D02*
X3020727Y1206889D01*
X3021472Y1203247D01*
X3023687Y1196696D01*
X3025177Y1189412D01*
X3025180Y1188683D01*
X3025912Y1187957D01*
X3026660Y1183587D01*
X3028140Y1178490D01*
X3029621Y1173393D01*
X3029624Y1172664D01*
X3030362Y1170481D01*
X3031101Y1168297D01*
X3031107Y1166839D01*
X3032597Y1159555D01*
X3001250Y1159419D01*
X2998287Y1170341D01*
X2998284Y1171070D01*
X2997551Y1171796D01*
X2996803Y1176167D01*
X2996058Y1179808D01*
X2995326Y1180534D01*
X2995323Y1181263D01*
X2995320Y1181992D01*
X2961057Y1181843D01*
X2955276Y1170154D01*
X2948034Y1159187D01*
X2934183Y1159127D01*
X2934905Y1160588D01*
X2936348Y1164239D01*
X2937793Y1167162D01*
X2939967Y1170087D01*
X2942132Y1175200D01*
X2945755Y1180319D01*
X2949371Y1186895D01*
X2953710Y1194933D01*
X2958772Y1204432D01*
X2965285Y1215396D01*
X2972521Y1227820D01*
X2980477Y1242435D01*
X2981196Y1244625D01*
X3011085Y1244755D01*
X3019992Y1208344D01*
D02*
G37*
G36*
X2884976Y1242749D02*
X2921425Y1242907D01*
X2922157Y1242181D01*
X2924347Y1241462D01*
X2926544Y1239284D01*
X2928012Y1237104D01*
X2928015Y1236375D01*
X2928750Y1234920D01*
X2928756Y1233462D01*
X2928769Y1230546D01*
X2928782Y1227630D01*
X2928801Y1223256D01*
X2928097Y1217421D01*
X2928100Y1216692D01*
X2928107Y1215234D01*
X2927400Y1210128D01*
X2927422Y1205025D01*
X2926703Y1202835D01*
X2926709Y1201377D01*
X2925983Y1200645D01*
X2924532Y1199180D01*
X2920896Y1196977D01*
X2916528Y1195501D01*
X2914341Y1195491D01*
X2914345Y1194762D01*
X2915080Y1193307D01*
X2915818Y1191123D01*
X2916563Y1187482D01*
X2918040Y1183114D01*
X2920253Y1177292D01*
X2920256Y1176562D01*
X2920994Y1174379D01*
X2922465Y1171469D01*
X2923936Y1168560D01*
X2924680Y1164918D01*
X2926151Y1162008D01*
X2926890Y1159824D01*
X2926893Y1159095D01*
X2894088Y1158953D01*
X2893350Y1161136D01*
X2893347Y1161865D01*
X2892611Y1163320D01*
X2892608Y1164049D01*
X2891873Y1165504D01*
X2891134Y1167688D01*
X2890392Y1170601D01*
X2890389Y1171330D01*
X2889651Y1173513D01*
X2888909Y1176426D01*
X2888900Y1178613D01*
X2884453Y1195361D01*
X2875705Y1195323D01*
X2874979Y1194591D01*
X2874982Y1193862D01*
X2874988Y1192404D01*
X2874998Y1190217D01*
X2874282Y1187298D01*
X2874301Y1182924D01*
X2873597Y1177089D01*
X2873600Y1176360D01*
X2872881Y1174169D01*
X2872164Y1171250D01*
X2871448Y1168331D01*
X2871451Y1167602D01*
X2871458Y1166144D01*
X2870751Y1161038D01*
X2870754Y1160309D01*
X2870757Y1159580D01*
X2870760Y1158851D01*
X2840872Y1158721D01*
X2840865Y1160179D01*
X2840862Y1160908D01*
X2840856Y1162366D01*
X2841572Y1165285D01*
X2842279Y1170391D01*
X2842976Y1177684D01*
X2843686Y1182061D01*
X2844390Y1187897D01*
X2845093Y1193732D01*
X2845791Y1201025D01*
X2845787Y1201754D01*
X2845784Y1202483D01*
X2846491Y1207589D01*
X2847192Y1214153D01*
X2848618Y1221449D01*
X2849312Y1229471D01*
X2850012Y1236035D01*
X2850722Y1240413D01*
X2851445Y1241874D01*
X2851442Y1242603D01*
X2851436Y1244061D01*
X2884976Y1242749D01*
D02*
G37*
G36*
X2839778Y1242552D02*
X2839781Y1241823D01*
X2839787Y1240365D01*
X2839074Y1236717D01*
X2838367Y1231611D01*
X2837670Y1224318D01*
X2836960Y1219940D01*
X2836257Y1214105D01*
X2835556Y1207541D01*
X2834859Y1200248D01*
X2829937Y1158673D01*
X2396186Y1156786D01*
X2396180Y1158244D01*
X2396176Y1158973D01*
X2396167Y1161160D01*
X2396883Y1164079D01*
X2397590Y1169185D01*
X2398287Y1176478D01*
X2398997Y1180855D01*
X2399704Y1185962D01*
X2400405Y1192526D01*
X2401105Y1199090D01*
X2401102Y1199819D01*
X2401099Y1200548D01*
X2401818Y1202738D01*
X2401805Y1205654D01*
X2402506Y1212218D01*
X2403929Y1220243D01*
X2404626Y1227536D01*
X2405327Y1234101D01*
X2405314Y1237016D01*
X2406033Y1239207D01*
X2406030Y1239936D01*
X2406027Y1240665D01*
X2406021Y1242123D01*
X2840501Y1244013D01*
X2839778Y1242552D01*
D02*
G37*
G36*
X2683450Y1148559D02*
X2683457Y1147101D01*
X2683463Y1145643D01*
X2683470Y1144185D01*
X2682753Y1141266D01*
X2682769Y1137621D01*
X2682772Y1136892D01*
X2682775Y1136163D01*
X2682065Y1131786D01*
X2681352Y1128138D01*
X2681359Y1126679D01*
X2680633Y1125947D01*
X2680636Y1125218D01*
X2657308Y1125117D01*
X2657311Y1124388D01*
X2657318Y1122930D01*
X2656605Y1119282D01*
X2655888Y1116363D01*
X2655175Y1112715D01*
X2655178Y1111986D01*
X2655182Y1111256D01*
X2655197Y1107611D01*
X2654484Y1103963D01*
X2654497Y1101047D01*
X2654500Y1100318D01*
X2629714Y1100211D01*
X2629705Y1102398D01*
X2630427Y1103859D01*
X2630418Y1106046D01*
X2630405Y1108962D01*
X2631118Y1112610D01*
X2631115Y1113339D01*
X2631109Y1114797D01*
X2631819Y1119174D01*
X2632532Y1122822D01*
X2632526Y1124280D01*
X2632522Y1125009D01*
X2609195Y1124908D01*
X2609198Y1124178D01*
X2609204Y1122721D01*
X2608481Y1121259D01*
X2608491Y1119072D01*
X2607778Y1115424D01*
X2607065Y1111776D01*
X2606387Y1100109D01*
X2581601Y1100001D01*
X2581594Y1101459D01*
X2582317Y1102920D01*
X2582308Y1105107D01*
X2582295Y1108023D01*
X2583008Y1111671D01*
X2583005Y1112400D01*
X2582999Y1113858D01*
X2583712Y1117507D01*
X2584422Y1121884D01*
X2584415Y1123342D01*
X2584412Y1124071D01*
X2582951Y1124793D01*
X2560352Y1124695D01*
X2560358Y1123237D01*
X2560365Y1121779D01*
X2560371Y1120321D01*
X2559652Y1118131D01*
X2559664Y1115215D01*
X2558951Y1111567D01*
X2557544Y1099897D01*
X2533487Y1099792D01*
X2533484Y1100521D01*
X2533481Y1101250D01*
X2534200Y1103440D01*
X2534188Y1106356D01*
X2534901Y1110004D01*
X2535595Y1118026D01*
X2536308Y1121674D01*
X2536295Y1124590D01*
X2560352Y1124695D01*
X2560349Y1125424D01*
X2560343Y1126882D01*
X2561065Y1128343D01*
X2561056Y1130530D01*
X2561043Y1133446D01*
X2561756Y1137094D01*
X2563892Y1148768D01*
X2587220Y1148869D01*
X2587223Y1148140D01*
X2587227Y1147411D01*
X2586507Y1145221D01*
X2586523Y1141576D01*
X2585810Y1137928D01*
X2585100Y1133551D01*
X2585116Y1129906D01*
X2584399Y1126987D01*
X2584406Y1125529D01*
X2585864Y1125535D01*
X2587325Y1124812D01*
X2609195Y1124908D01*
X2609191Y1125637D01*
X2609188Y1126366D01*
X2609908Y1128556D01*
X2609895Y1131472D01*
X2610608Y1135120D01*
X2611302Y1143142D01*
X2612019Y1146061D01*
X2612006Y1148977D01*
X2635334Y1149079D01*
X2635337Y1148350D01*
X2635340Y1147620D01*
X2634621Y1145430D01*
X2634630Y1143243D01*
X2633917Y1139595D01*
X2633220Y1132302D01*
X2632507Y1128654D01*
X2632519Y1125738D01*
X2633977Y1125744D01*
X2635438Y1125022D01*
X2657308Y1125117D01*
X2657299Y1127304D01*
X2658021Y1128765D01*
X2658012Y1130952D01*
X2657999Y1133868D01*
X2658712Y1137516D01*
X2658709Y1138245D01*
X2658703Y1139703D01*
X2659416Y1143351D01*
X2660126Y1147728D01*
X2660123Y1148457D01*
X2660119Y1149186D01*
X2683447Y1149288D01*
X2683450Y1148559D01*
D02*
G37*
G36*
X2538381Y1147928D02*
X2539110Y1147931D01*
X2539116Y1146473D01*
X2539122Y1145015D01*
X2538403Y1142825D01*
X2538416Y1139909D01*
X2537703Y1136261D01*
X2537706Y1135532D01*
X2537709Y1134803D01*
X2536999Y1130425D01*
X2536286Y1126777D01*
X2536292Y1125319D01*
X2536295Y1124590D01*
X2514426Y1124495D01*
X2512971Y1123760D01*
X2512242Y1123757D01*
X2512248Y1122299D01*
X2512258Y1120112D01*
X2511538Y1117921D01*
X2511551Y1115006D01*
X2510838Y1111357D01*
X2510841Y1110628D01*
X2510844Y1109899D01*
X2510134Y1105522D01*
X2509421Y1101874D01*
X2509427Y1100416D01*
X2509430Y1099687D01*
X2485374Y1099582D01*
X2485364Y1101770D01*
X2486087Y1103231D01*
X2486077Y1105418D01*
X2486065Y1108334D01*
X2486778Y1111982D01*
X2486775Y1112711D01*
X2486768Y1114169D01*
X2487478Y1118546D01*
X2488191Y1122194D01*
X2488185Y1123652D01*
X2488182Y1124381D01*
X2464125Y1124276D01*
X2464131Y1122818D01*
X2463409Y1121357D01*
X2463418Y1119170D01*
X2462702Y1116251D01*
X2461992Y1111874D01*
X2461317Y1099478D01*
X2436531Y1099370D01*
X2436525Y1100828D01*
X2437247Y1102289D01*
X2437238Y1104476D01*
X2437225Y1107392D01*
X2437938Y1111040D01*
X2437935Y1111769D01*
X2437929Y1113227D01*
X2438642Y1116875D01*
X2439352Y1121253D01*
X2439346Y1122710D01*
X2439342Y1123439D01*
X2437881Y1124162D01*
X2416012Y1124067D01*
X2416018Y1122609D01*
X2415302Y1119690D01*
X2414592Y1115313D01*
X2413882Y1110936D01*
X2413203Y1099268D01*
X2388418Y1099161D01*
X2388411Y1100619D01*
X2389134Y1102080D01*
X2389131Y1102809D01*
X2389857Y1103541D01*
X2389841Y1107186D01*
X2389838Y1107915D01*
X2390560Y1109376D01*
X2390544Y1113021D01*
X2391226Y1123959D01*
X2416012Y1124067D01*
X2416008Y1124796D01*
X2416002Y1126254D01*
X2415996Y1127712D01*
X2415986Y1129899D01*
X2416702Y1132818D01*
X2416687Y1136463D01*
X2418823Y1148136D01*
X2443608Y1148244D01*
X2442154Y1147509D01*
X2442157Y1146780D01*
X2442166Y1144593D01*
X2441450Y1141674D01*
X2441463Y1138758D01*
X2440769Y1130736D01*
X2440781Y1127820D01*
X2440794Y1124904D01*
X2442252Y1124910D01*
X2443713Y1124188D01*
X2464125Y1124276D01*
X2464115Y1126463D01*
X2464838Y1127924D01*
X2464829Y1130111D01*
X2464816Y1133027D01*
X2465529Y1136676D01*
X2465526Y1137405D01*
X2465520Y1138862D01*
X2466233Y1142511D01*
X2466943Y1146888D01*
X2466939Y1147617D01*
X2466936Y1148346D01*
X2491722Y1148454D01*
X2490996Y1147721D01*
X2491003Y1146264D01*
X2491009Y1144805D01*
X2490289Y1142615D01*
X2490302Y1139699D01*
X2489589Y1136051D01*
X2488911Y1124384D01*
X2500572Y1125164D01*
X2512235Y1125215D01*
X2513643Y1136885D01*
X2513640Y1137614D01*
X2513633Y1139072D01*
X2514346Y1142720D01*
X2515056Y1147097D01*
X2515053Y1147826D01*
X2515050Y1148555D01*
X2536920Y1148650D01*
X2538381Y1147928D01*
D02*
G37*
G36*
X3338815Y1151410D02*
X3362872Y1151515D01*
X3362875Y1150786D01*
X3362881Y1149328D01*
X3362897Y1145683D01*
X3362187Y1141306D01*
X3361487Y1134742D01*
X3360793Y1126720D01*
X3359379Y1116508D01*
X3357246Y1104105D01*
X3357249Y1103376D01*
X2834561Y1101102D01*
X2834558Y1101831D01*
X2834555Y1102560D01*
X2834549Y1104018D01*
X2834536Y1106934D01*
X2835246Y1111311D01*
X2835946Y1117875D01*
X2836640Y1125897D01*
X2838051Y1136838D01*
X2840184Y1149241D01*
X2840181Y1149970D01*
X3330793Y1152105D01*
X3338815Y1151410D01*
D02*
G37*
G36*
X2828520Y1149190D02*
X2828526Y1147732D01*
X2828530Y1147003D01*
X2827816Y1143355D01*
X2827820Y1142626D01*
X2827823Y1141897D01*
X2827113Y1137520D01*
X2825706Y1125850D01*
X2801649Y1125745D01*
X2801655Y1124287D01*
X2801662Y1122829D01*
X2800942Y1120639D01*
X2800955Y1117723D01*
X2800245Y1113346D01*
X2800248Y1112617D01*
X2800251Y1111888D01*
X2799541Y1107511D01*
X2798831Y1103133D01*
X2798838Y1101676D01*
X2798841Y1100947D01*
X2774055Y1100839D01*
X2774052Y1101568D01*
X2774045Y1103026D01*
X2774768Y1104487D01*
X2774759Y1106674D01*
X2774746Y1109590D01*
X2775459Y1113238D01*
X2775456Y1113967D01*
X2775453Y1114696D01*
X2776163Y1119073D01*
X2776873Y1123450D01*
X2776866Y1124908D01*
X2776863Y1125637D01*
X2800920Y1125742D01*
X2801646Y1126474D01*
X2801639Y1127932D01*
X2802362Y1129393D01*
X2802352Y1131580D01*
X2802340Y1134496D01*
X2803053Y1138144D01*
X2804460Y1149814D01*
X2828517Y1149919D01*
X2828520Y1149190D01*
D02*
G37*
G36*
X2780410Y1148252D02*
X2779687Y1146791D01*
X2779697Y1144604D01*
X2778980Y1141685D01*
X2778267Y1138036D01*
X2778270Y1137307D01*
X2778273Y1136578D01*
X2777564Y1132201D01*
X2776854Y1127824D01*
X2776860Y1126366D01*
X2776863Y1125637D01*
X2753535Y1125536D01*
X2751402Y1113133D01*
X2751405Y1112404D01*
X2751409Y1111675D01*
X2751428Y1107301D01*
X2750718Y1102924D01*
X2750724Y1101466D01*
X2750727Y1100737D01*
X2725941Y1100629D01*
X2725938Y1101358D01*
X2725932Y1102816D01*
X2726655Y1104277D01*
X2726645Y1106464D01*
X2726632Y1109380D01*
X2727345Y1113028D01*
X2727342Y1113757D01*
X2727339Y1114486D01*
X2728049Y1118864D01*
X2728759Y1123241D01*
X2728753Y1124699D01*
X2728749Y1125428D01*
X2752806Y1125532D01*
X2753532Y1126265D01*
X2753529Y1126994D01*
X2753523Y1128452D01*
X2753507Y1132097D01*
X2754210Y1137932D01*
X2754207Y1138661D01*
X2754204Y1139390D01*
X2754914Y1143767D01*
X2755627Y1147415D01*
X2755621Y1148873D01*
X2755618Y1149602D01*
X2780403Y1149710D01*
X2780410Y1148252D01*
D02*
G37*
G36*
X2731567Y1148039D02*
X2731573Y1146581D01*
X2731583Y1144394D01*
X2730870Y1140746D01*
X2730157Y1137098D01*
X2729450Y1131992D01*
X2728746Y1126157D01*
X2728749Y1125428D01*
X2705422Y1125326D01*
X2703289Y1112924D01*
X2703292Y1112195D01*
X2703295Y1111466D01*
X2703314Y1107092D01*
X2702601Y1103444D01*
X2702607Y1101986D01*
X2702610Y1101257D01*
X2702614Y1100528D01*
X2677828Y1100420D01*
X2677825Y1101149D01*
X2677818Y1102607D01*
X2677812Y1104065D01*
X2678532Y1106255D01*
X2678519Y1109171D01*
X2679232Y1112819D01*
X2679939Y1117925D01*
X2680642Y1123760D01*
X2680636Y1125218D01*
X2705422Y1125326D01*
X2706100Y1136993D01*
X2706097Y1137722D01*
X2706090Y1139180D01*
X2706804Y1142828D01*
X2707514Y1147206D01*
X2708239Y1147938D01*
X2708236Y1148667D01*
X2708233Y1149396D01*
X2731561Y1149497D01*
X2731567Y1148039D01*
D02*
G37*
G36*
X3220272Y1086013D02*
X3260366Y1086188D01*
X3259640Y1085455D01*
X3258186Y1084720D01*
X3255273Y1083978D01*
X3251637Y1081775D01*
X3246544Y1079566D01*
X3239999Y1075893D01*
X3219628Y1066327D01*
X2803332Y1073993D01*
X2793126Y1073948D01*
X2785104Y1074642D01*
X2764692Y1074554D01*
X2752296Y1075229D01*
X2738445Y1075168D01*
X2723133Y1075831D01*
X2707095Y1075761D01*
X2689596Y1076414D01*
X2671372Y1076335D01*
X2634187Y1077631D01*
X2595547Y1078192D01*
X2556178Y1078749D01*
X2518993Y1080046D01*
X2500768Y1079966D01*
X2483269Y1080619D01*
X2467231Y1080549D01*
X2451919Y1081212D01*
X2438068Y1081151D01*
X2425672Y1081827D01*
X2405261Y1081738D01*
X2397238Y1082432D01*
X2432230Y1082584D01*
X2441704Y1083354D01*
X3207147Y1086685D01*
X3220272Y1086013D01*
D02*
G37*
G36*
X3307022Y1086391D02*
X3307751Y1086394D01*
X3306296Y1085658D01*
X3304841Y1084923D01*
X3302657Y1084185D01*
X3298293Y1081978D01*
X3293200Y1079769D01*
X3285925Y1076093D01*
X3264832Y1065066D01*
X3251710Y1065009D01*
X3248062Y1065722D01*
X3243685Y1066432D01*
X3242227Y1066425D01*
X3242953Y1067158D01*
X3244408Y1067893D01*
X3248046Y1069367D01*
X3248772Y1070099D01*
X3252411Y1071573D01*
X3256775Y1073779D01*
X3262598Y1075991D01*
X3284420Y1087021D01*
X3306290Y1087116D01*
X3307022Y1086391D01*
D02*
G37*
G36*
X3354406Y1086597D02*
X3355135Y1086600D01*
X3353681Y1085865D01*
X3352226Y1085129D01*
X3349316Y1083659D01*
X3345677Y1082185D01*
X3339858Y1079243D01*
X3332584Y1075567D01*
X3308575Y1064527D01*
X3298369Y1064483D01*
X3294721Y1065196D01*
X3287431Y1065164D01*
X3288886Y1065899D01*
X3290341Y1066635D01*
X3292521Y1068102D01*
X3296160Y1069576D01*
X3301250Y1072514D01*
X3308524Y1076191D01*
X3331804Y1087227D01*
X3353674Y1087323D01*
X3354406Y1086597D01*
D02*
G37*
%LPC*%
G36*
X2984198Y1224955D02*
X2983472Y1224223D01*
X2982753Y1222033D01*
X2980585Y1217649D01*
X2979862Y1216188D01*
X2978417Y1213266D01*
X2976249Y1208882D01*
X2973358Y1203038D01*
X2972635Y1201577D01*
X2971916Y1199387D01*
X2970468Y1197193D01*
X2969745Y1195732D01*
X2980680Y1195780D01*
X2991608Y1197285D01*
X2990873Y1198740D01*
X2990870Y1199469D01*
X2990138Y1200195D01*
X2989390Y1204566D01*
X2989387Y1205295D01*
X2989380Y1206753D01*
X2988632Y1211123D01*
X2988629Y1211852D01*
X2987894Y1213307D01*
X2986413Y1218404D01*
X2984936Y1222771D01*
X2984201Y1224226D01*
X2984198Y1224955D01*
D02*
G37*
G36*
X2898887Y1228958D02*
X2879204Y1228872D01*
X2878513Y1220121D01*
X2878516Y1219392D01*
X2878519Y1218663D01*
X2877806Y1215015D01*
X2877090Y1212096D01*
X2877096Y1210638D01*
X2877099Y1209909D01*
X2878557Y1209915D01*
X2881477Y1209199D01*
X2891682Y1209244D01*
X2894595Y1209985D01*
X2896053Y1209992D01*
X2896779Y1210724D01*
X2897502Y1212185D01*
X2898947Y1215107D01*
X2898937Y1217294D01*
X2899654Y1220213D01*
X2899651Y1220942D01*
X2899647Y1221671D01*
X2900364Y1224590D01*
X2899622Y1227503D01*
X2898887Y1228958D01*
D02*
G37*
G36*
X2825265Y1227180D02*
X2815059Y1227135D01*
X2807094Y1214707D01*
X2807097Y1213978D01*
X2805642Y1213243D01*
X2803471Y1209589D01*
X2801300Y1205934D01*
X2799845Y1205199D01*
X2799848Y1204470D01*
X2799113Y1205925D01*
X2797642Y1208834D01*
X2796175Y1211015D01*
X2794701Y1214654D01*
X2788815Y1227021D01*
X2766945Y1226926D01*
X2766952Y1225468D01*
X2767684Y1224742D01*
X2767690Y1223284D01*
X2769158Y1221103D01*
X2770628Y1218194D01*
X2772105Y1213826D01*
X2775044Y1208736D01*
X2783129Y1193462D01*
X2780990Y1182518D01*
X2780993Y1181789D01*
X2780996Y1181060D01*
X2781012Y1177415D01*
X2780299Y1173766D01*
X2780302Y1173037D01*
X2780305Y1172309D01*
X2798530Y1172388D01*
X2799943Y1182600D01*
X2801360Y1192083D01*
X2812225Y1208169D01*
X2812951Y1208901D01*
X2813674Y1210362D01*
X2817296Y1215481D01*
X2818022Y1216213D01*
X2818745Y1217674D01*
X2820193Y1219868D01*
X2821642Y1222061D01*
X2821639Y1222790D01*
X2822365Y1223522D01*
X2823090Y1224254D01*
X2823816Y1224986D01*
X2825265Y1227180D01*
D02*
G37*
G36*
X2813065Y1182657D02*
X2809420Y1182641D01*
X2808695Y1181909D01*
X2807969Y1181177D01*
X2806520Y1178984D01*
X2805801Y1176793D01*
X2805804Y1176064D01*
X2806536Y1175339D01*
X2807271Y1173884D01*
X2808736Y1172432D01*
X2810923Y1172442D01*
X2813103Y1173909D01*
X2815278Y1176835D01*
X2815274Y1177564D01*
X2815997Y1179025D01*
X2815259Y1181209D01*
X2813065Y1182657D01*
D02*
G37*
G36*
X2747991Y1226843D02*
X2729767Y1226764D01*
X2729041Y1226032D01*
X2728312Y1226029D01*
X2728315Y1225300D01*
X2728318Y1224571D01*
X2728328Y1222384D01*
X2727615Y1218736D01*
X2726905Y1214359D01*
X2726207Y1207065D01*
X2725516Y1198314D01*
X2725523Y1196856D01*
X2724806Y1193937D01*
X2724822Y1190292D01*
X2724115Y1185186D01*
X2723409Y1180080D01*
X2723425Y1176435D01*
X2722708Y1173516D01*
X2722715Y1172058D01*
X2764267Y1172239D01*
X2764255Y1175155D01*
X2764251Y1175884D01*
X2764974Y1177345D01*
X2764964Y1179532D01*
X2764961Y1180261D01*
X2764958Y1180990D01*
X2742359Y1180891D01*
X2742356Y1181620D01*
X2742350Y1183079D01*
X2742337Y1185994D01*
X2743047Y1190372D01*
X2743751Y1196207D01*
X2744445Y1204229D01*
X2745861Y1213712D01*
X2747998Y1225385D01*
X2747991Y1226843D01*
D02*
G37*
G36*
X2710813Y1226682D02*
X2681653Y1226555D01*
X2678011Y1225810D01*
X2674366Y1225794D01*
X2672182Y1225056D01*
X2670728Y1224320D01*
X2670002Y1223588D01*
X2667818Y1222850D01*
X2666373Y1219927D01*
X2664931Y1216276D01*
X2664934Y1215547D01*
X2664211Y1214086D01*
X2663498Y1210438D01*
X2662785Y1206790D01*
X2662078Y1201683D01*
X2661374Y1195848D01*
X2660703Y1182723D01*
X2660706Y1181994D01*
X2660715Y1179807D01*
X2660718Y1179078D01*
X2662186Y1176898D01*
X2663653Y1174717D01*
X2665847Y1173268D01*
X2666576Y1173272D01*
X2668037Y1172549D01*
X2671682Y1172565D01*
X2675330Y1171852D01*
X2695013Y1171937D01*
X2701571Y1172695D01*
X2704487Y1172708D01*
X2705941Y1173443D01*
X2706667Y1174175D01*
X2708848Y1175643D01*
X2711748Y1179300D01*
X2713913Y1184413D01*
X2713910Y1185142D01*
X2713903Y1186600D01*
X2714623Y1188790D01*
X2714613Y1190977D01*
X2715326Y1194625D01*
X2716036Y1199002D01*
X2716033Y1199731D01*
X2716024Y1201918D01*
X2716740Y1204837D01*
X2716724Y1208482D01*
X2716689Y1216501D01*
X2716676Y1219417D01*
X2715938Y1221601D01*
X2715935Y1222330D01*
X2715203Y1223056D01*
X2713738Y1224507D01*
X2711548Y1225227D01*
X2710813Y1226682D01*
D02*
G37*
G36*
X2639372Y1226371D02*
X2609483Y1226241D01*
X2606570Y1225499D01*
X2605841Y1225496D01*
X2605844Y1224767D01*
X2605847Y1224038D01*
X2605128Y1221848D01*
X2605144Y1218203D01*
X2604434Y1213826D01*
X2603736Y1206533D01*
X2602316Y1197778D01*
X2602323Y1196320D01*
X2601607Y1193401D01*
X2600893Y1189753D01*
X2600916Y1184650D01*
X2600209Y1179544D01*
X2599496Y1175896D01*
X2598779Y1172977D01*
X2598786Y1171519D01*
X2617740Y1171601D01*
X2617733Y1173059D01*
X2617727Y1174517D01*
X2617714Y1177433D01*
X2618424Y1181810D01*
X2618421Y1182539D01*
X2618418Y1183268D01*
X2619134Y1186187D01*
X2619118Y1189832D01*
X2619115Y1190561D01*
X2619112Y1191290D01*
X2645356Y1191405D01*
X2646081Y1192137D01*
X2648262Y1193604D01*
X2651169Y1195804D01*
X2652611Y1199455D01*
X2653330Y1201645D01*
X2654053Y1203107D01*
X2654043Y1205293D01*
X2654756Y1208942D01*
X2654737Y1213315D01*
X2654734Y1214044D01*
X2654725Y1216232D01*
X2654712Y1219148D01*
X2654702Y1221334D01*
X2653970Y1222060D01*
X2653238Y1222786D01*
X2651045Y1224235D01*
X2648855Y1224954D01*
X2648126Y1224951D01*
X2647394Y1225677D01*
X2643020Y1225658D01*
X2639372Y1226371D01*
D02*
G37*
G36*
X2552621Y1225993D02*
X2533668Y1225911D01*
X2530140Y1198922D01*
X2530146Y1197464D01*
X2529430Y1194545D01*
X2529446Y1190900D01*
X2528739Y1185794D01*
X2528032Y1180688D01*
X2528051Y1176314D01*
X2527338Y1172666D01*
X2527344Y1171208D01*
X2568168Y1171386D01*
X2569613Y1174308D01*
X2569610Y1175037D01*
X2569601Y1177224D01*
X2569597Y1177953D01*
X2569594Y1178682D01*
X2569591Y1179411D01*
X2569588Y1180140D01*
X2546989Y1180041D01*
X2546986Y1180770D01*
X2546980Y1182228D01*
X2546967Y1185144D01*
X2547677Y1189522D01*
X2548377Y1196086D01*
X2549075Y1203379D01*
X2550491Y1212862D01*
X2552628Y1224535D01*
X2552621Y1225993D01*
D02*
G37*
G36*
X2507424Y1225797D02*
X2488470Y1225714D01*
X2488476Y1224256D01*
X2488479Y1223527D01*
X2487754Y1222795D01*
X2486305Y1220602D01*
X2484131Y1217676D01*
X2481237Y1212561D01*
X2477617Y1206713D01*
X2472553Y1197943D01*
X2471830Y1196482D01*
X2470385Y1193559D01*
X2468217Y1189176D01*
X2465320Y1184789D01*
X2462426Y1179673D01*
X2460258Y1175290D01*
X2458813Y1172368D01*
X2458090Y1170907D01*
X2466838Y1170945D01*
X2471180Y1178254D01*
X2474790Y1186288D01*
X2497389Y1186387D01*
X2499611Y1178377D01*
X2501101Y1171094D01*
X2522242Y1171186D01*
X2522238Y1171915D01*
X2522235Y1172644D01*
X2521497Y1174827D01*
X2520755Y1177740D01*
X2519275Y1182837D01*
X2517059Y1189388D01*
X2514834Y1198127D01*
X2514828Y1199585D01*
X2513357Y1202494D01*
X2512609Y1206865D01*
X2511129Y1211962D01*
X2509649Y1217058D01*
X2508901Y1221429D01*
X2507430Y1224339D01*
X2507424Y1225797D01*
D02*
G37*
G36*
X2455665Y1225571D02*
X2431608Y1225467D01*
X2425780Y1224712D01*
X2423593Y1224703D01*
X2422138Y1223967D01*
X2421409Y1223964D01*
X2419954Y1223229D01*
X2418506Y1221036D01*
X2416331Y1218110D01*
X2416334Y1217381D01*
X2415609Y1216649D01*
X2415618Y1214462D01*
X2414899Y1212272D01*
X2414186Y1208624D01*
X2413476Y1204247D01*
X2412772Y1198411D01*
X2412775Y1197683D01*
X2412056Y1195492D01*
X2412068Y1192576D01*
X2411355Y1188928D01*
X2411390Y1180909D01*
X2411403Y1177993D01*
X2412138Y1176539D01*
X2412141Y1175810D01*
X2412877Y1174355D01*
X2415070Y1172906D01*
X2417995Y1170732D01*
X2452258Y1170881D01*
X2452255Y1171610D01*
X2452252Y1172339D01*
X2452242Y1174526D01*
X2452239Y1175255D01*
X2452962Y1176716D01*
X2452952Y1178903D01*
X2452949Y1179632D01*
X2431808Y1179540D01*
X2430344Y1180992D01*
X2430341Y1181721D01*
X2429612Y1181718D01*
X2429609Y1182447D01*
X2429599Y1184634D01*
X2430319Y1186824D01*
X2430306Y1189740D01*
X2430290Y1193385D01*
X2430997Y1198491D01*
X2430994Y1199220D01*
X2431716Y1200681D01*
X2431704Y1203597D01*
X2432420Y1206516D01*
X2432407Y1209432D01*
X2433124Y1212351D01*
X2433117Y1213809D01*
X2433114Y1214538D01*
X2433111Y1215267D01*
X2434566Y1216003D01*
X2455706Y1216094D01*
X2456432Y1216827D01*
X2457161Y1216830D01*
X2457158Y1217559D01*
X2457152Y1219017D01*
X2457145Y1220475D01*
X2457142Y1221204D01*
X2457865Y1222665D01*
X2457858Y1224123D01*
X2457855Y1224852D01*
X2457126Y1224849D01*
X2455665Y1225571D01*
D02*
G37*
%LPD*%
G36*
X2813072Y1181199D02*
X2813804Y1180473D01*
X2814536Y1179747D01*
X2814542Y1178290D01*
X2814546Y1177561D01*
X2813097Y1175367D01*
X2812371Y1174635D01*
X2808729Y1173890D01*
X2807997Y1174616D01*
X2807262Y1176071D01*
X2806527Y1177526D01*
X2806523Y1178255D01*
X2807249Y1178987D01*
X2807972Y1180448D01*
X2810156Y1181187D01*
X2810881Y1181919D01*
X2812340Y1181925D01*
X2813072Y1181199D01*
D02*
G37*
%LPC*%
G36*
X2812346Y1180467D02*
X2810159Y1180457D01*
X2809436Y1178996D01*
X2808713Y1177535D01*
X2808717Y1176806D01*
X2808720Y1176077D01*
X2808723Y1175348D01*
X2809452Y1175351D01*
X2809449Y1176080D01*
X2809443Y1177538D01*
X2809439Y1178267D01*
X2810168Y1178271D01*
X2810162Y1179728D01*
X2811620Y1179735D01*
X2811623Y1179006D01*
X2810897Y1178274D01*
X2810168Y1178271D01*
X2810904Y1176816D01*
X2811636Y1176090D01*
X2811639Y1175361D01*
X2812368Y1175364D01*
X2812362Y1176822D01*
X2812358Y1177551D01*
X2813084Y1178283D01*
X2813081Y1179012D01*
X2812349Y1179738D01*
X2812346Y1180467D01*
D02*
G37*
%LPD*%
G36*
X2698464Y1216422D02*
X2699200Y1214967D01*
X2699203Y1214238D01*
X2699209Y1212780D01*
X2698490Y1210590D01*
X2698502Y1207674D01*
X2697792Y1203297D01*
X2697086Y1198191D01*
X2697089Y1197462D01*
X2697095Y1196004D01*
X2696379Y1193084D01*
X2695662Y1190165D01*
X2694956Y1185059D01*
X2694236Y1182869D01*
X2694239Y1182140D01*
X2693514Y1181408D01*
X2692785Y1181405D01*
X2690601Y1180666D01*
X2680395Y1180622D01*
X2680392Y1181351D01*
X2679660Y1182077D01*
X2679653Y1183535D01*
X2679644Y1185722D01*
X2679631Y1188638D01*
X2679612Y1193012D01*
X2680316Y1198847D01*
X2680312Y1199576D01*
X2681035Y1201037D01*
X2681022Y1203953D01*
X2681739Y1206872D01*
X2682442Y1212707D01*
X2682436Y1214165D01*
X2682430Y1215623D01*
X2683155Y1216355D01*
X2685339Y1217094D01*
X2697732Y1217148D01*
X2698464Y1216422D01*
D02*
G37*
G36*
X2635771Y1216149D02*
X2635774Y1215420D01*
X2635777Y1214691D01*
X2635787Y1212504D01*
X2635074Y1208856D01*
X2635077Y1208127D01*
X2635090Y1205211D01*
X2635099Y1203024D01*
X2634376Y1201563D01*
X2634383Y1200105D01*
X2632928Y1199370D01*
X2621264Y1199319D01*
X2621261Y1200048D01*
X2621258Y1200777D01*
X2621255Y1201506D01*
X2621242Y1204422D01*
X2621952Y1208799D01*
X2621945Y1210257D01*
X2622665Y1212447D01*
X2622652Y1215363D01*
X2623375Y1216824D01*
X2635768Y1216878D01*
X2635771Y1216149D01*
D02*
G37*
G36*
X2490717Y1211873D02*
X2491459Y1208960D01*
X2492197Y1206776D01*
X2492939Y1203863D01*
X2493674Y1202409D01*
X2494416Y1199496D01*
X2495161Y1195854D01*
X2495164Y1195125D01*
X2495167Y1194396D01*
X2492251Y1194383D01*
X2487874Y1195093D01*
X2480584Y1195062D01*
X2485649Y1203832D01*
X2485646Y1204561D01*
X2486372Y1205293D01*
X2488546Y1208218D01*
X2489991Y1211141D01*
X2490714Y1212602D01*
X2490717Y1211873D01*
D02*
G37*
%LPC*%
G36*
X3259390Y1143046D02*
X3255745Y1143030D01*
X3254290Y1142295D01*
X3252838Y1140830D01*
X3252113Y1140098D01*
X3250664Y1137905D01*
X3249948Y1134986D01*
X3249957Y1132799D01*
X3250696Y1130615D01*
X3251428Y1129889D01*
X3252892Y1128437D01*
X3254360Y1126257D01*
X3255092Y1125531D01*
X3255824Y1124805D01*
X3256563Y1122621D01*
X3257298Y1121167D01*
X3257301Y1120438D01*
X3257304Y1119709D01*
X3255853Y1118244D01*
X3254398Y1117509D01*
X3252211Y1117499D01*
X3252208Y1118228D01*
X3251469Y1120412D01*
X3251466Y1121141D01*
X3247821Y1121125D01*
X3247824Y1120396D01*
X3247831Y1118938D01*
X3248563Y1118213D01*
X3248569Y1116755D01*
X3249305Y1115300D01*
X3251498Y1113851D01*
X3252959Y1113129D01*
X3255146Y1113138D01*
X3257330Y1113877D01*
X3259510Y1115344D01*
X3260236Y1116076D01*
X3260959Y1117537D01*
X3261678Y1119728D01*
X3261666Y1122644D01*
X3261662Y1123373D01*
X3260927Y1124827D01*
X3260189Y1127011D01*
X3257992Y1129189D01*
X3257260Y1129915D01*
X3256525Y1131369D01*
X3255057Y1133550D01*
X3254322Y1135005D01*
X3254319Y1135734D01*
X3254312Y1137192D01*
X3255035Y1138653D01*
X3256490Y1139388D01*
X3257948Y1139395D01*
X3258680Y1138669D01*
X3259418Y1136485D01*
X3263063Y1136501D01*
X3263060Y1137230D01*
X3263057Y1137959D01*
X3263054Y1138688D01*
X3262315Y1140872D01*
X3261583Y1141597D01*
X3260122Y1142320D01*
X3259390Y1143046D01*
D02*
G37*
G36*
X3099740Y1142351D02*
X3096824Y1142339D01*
X3094641Y1141600D01*
X3093189Y1140136D01*
X3092463Y1139403D01*
X3091015Y1137210D01*
X3090298Y1134291D01*
X3091037Y1132107D01*
X3091775Y1129923D01*
X3092508Y1129198D01*
X3095439Y1125565D01*
X3096172Y1124840D01*
X3096904Y1124114D01*
X3097642Y1121930D01*
X3098378Y1120475D01*
X3098381Y1119746D01*
X3098384Y1119017D01*
X3097661Y1117556D01*
X3096206Y1116821D01*
X3093291Y1116808D01*
X3093287Y1117537D01*
X3091820Y1119717D01*
X3091817Y1120447D01*
X3088172Y1120431D01*
X3088175Y1119702D01*
X3088181Y1118244D01*
X3088913Y1117518D01*
X3088920Y1116060D01*
X3089655Y1114605D01*
X3092577Y1113160D01*
X3094039Y1112437D01*
X3095497Y1112443D01*
X3097680Y1113182D01*
X3099861Y1114649D01*
X3100587Y1115382D01*
X3101309Y1116843D01*
X3102029Y1119033D01*
X3102745Y1121952D01*
X3102742Y1122681D01*
X3102007Y1124136D01*
X3100539Y1126316D01*
X3098343Y1128494D01*
X3097610Y1129220D01*
X3096875Y1130675D01*
X3096137Y1132858D01*
X3095401Y1134313D01*
X3095398Y1135042D01*
X3095392Y1136500D01*
X3096115Y1137961D01*
X3096840Y1138694D01*
X3098298Y1138700D01*
X3099030Y1137974D01*
X3099769Y1135790D01*
X3104143Y1135809D01*
X3104869Y1136541D01*
X3104866Y1137270D01*
X3104862Y1137999D01*
X3104130Y1138725D01*
X3102666Y1140177D01*
X3101934Y1140903D01*
X3100473Y1141625D01*
X3099740Y1142351D01*
D02*
G37*
G36*
X2870108Y1141352D02*
X2866463Y1141336D01*
X2865008Y1140601D01*
X2864282Y1139869D01*
X2862827Y1139133D01*
X2860653Y1136208D01*
X2859940Y1132560D01*
X2859943Y1131831D01*
X2860678Y1130376D01*
X2862146Y1128195D01*
X2865078Y1124563D01*
X2865813Y1123108D01*
X2868006Y1121660D01*
X2868013Y1120202D01*
X2868022Y1118015D01*
X2867296Y1117283D01*
X2866570Y1116550D01*
X2865116Y1115815D01*
X2864387Y1115812D01*
X2863655Y1116538D01*
X2862922Y1117264D01*
X2862187Y1118718D01*
X2862184Y1119447D01*
X2857810Y1119428D01*
X2857816Y1117970D01*
X2857819Y1117241D01*
X2858555Y1115786D01*
X2860022Y1113606D01*
X2862215Y1112157D01*
X2865860Y1112173D01*
X2868044Y1112912D01*
X2870225Y1114379D01*
X2871667Y1118031D01*
X2871664Y1118759D01*
X2871654Y1120947D01*
X2870184Y1123856D01*
X2867981Y1127492D01*
X2867249Y1128217D01*
X2866517Y1128943D01*
X2865778Y1131127D01*
X2865043Y1132582D01*
X2865039Y1133311D01*
X2865030Y1135498D01*
X2865753Y1136959D01*
X2867936Y1137697D01*
X2868665Y1137701D01*
X2869398Y1136975D01*
X2869404Y1135517D01*
X2869407Y1134788D01*
X2873781Y1134807D01*
X2873778Y1135536D01*
X2873775Y1136265D01*
X2873768Y1137723D01*
X2873033Y1139178D01*
X2871569Y1140629D01*
X2870108Y1141352D01*
D02*
G37*
G36*
X2949568Y1141698D02*
X2945194Y1141679D01*
X2945197Y1140950D01*
X2945203Y1139492D01*
X2944484Y1137302D01*
X2944493Y1135115D01*
X2943793Y1128551D01*
X2943822Y1121989D01*
X2943086Y1123444D01*
X2942345Y1126357D01*
X2941606Y1128541D01*
X2941590Y1132186D01*
X2939362Y1141653D01*
X2934988Y1141634D01*
X2934262Y1140902D01*
X2934269Y1139444D01*
X2934275Y1137986D01*
X2933559Y1135067D01*
X2933571Y1132151D01*
X2932861Y1127774D01*
X2932864Y1127045D01*
X2932871Y1125587D01*
X2932161Y1121210D01*
X2931454Y1116104D01*
X2931460Y1114646D01*
X2931467Y1113188D01*
X2931470Y1112459D01*
X2935844Y1112478D01*
X2935841Y1113207D01*
X2935834Y1114665D01*
X2935822Y1117581D01*
X2936532Y1121958D01*
X2936528Y1122687D01*
X2936525Y1123416D01*
X2937242Y1126335D01*
X2937958Y1129254D01*
X2937955Y1129983D01*
X2938696Y1127070D01*
X2938706Y1124883D01*
X2939448Y1121970D01*
X2941676Y1112503D01*
X2946779Y1112525D01*
X2946769Y1114712D01*
X2947492Y1116174D01*
X2947479Y1119089D01*
X2947463Y1122734D01*
X2948173Y1127111D01*
X2948170Y1127841D01*
X2948164Y1129299D01*
X2948874Y1133676D01*
X2949584Y1138053D01*
X2949574Y1140240D01*
X2949571Y1140969D01*
X2949568Y1141698D01*
D02*
G37*
G36*
X3040692Y1142094D02*
X3037776Y1142082D01*
X3037050Y1141349D01*
X3037057Y1139891D01*
X3037063Y1138433D01*
X3036343Y1136243D01*
X3036356Y1133327D01*
X3035643Y1129679D01*
X3035646Y1128950D01*
X3035649Y1128221D01*
X3034936Y1124573D01*
X3034226Y1120196D01*
X3034229Y1119467D01*
X3034233Y1118738D01*
X3033507Y1118006D01*
X3032781Y1117274D01*
X3031326Y1116538D01*
X3030597Y1116535D01*
X3029136Y1117258D01*
X3029133Y1117987D01*
X3029130Y1118716D01*
X3029123Y1120174D01*
X3029117Y1121632D01*
X3029107Y1123819D01*
X3029824Y1126738D01*
X3029808Y1130383D01*
X3029805Y1131112D01*
X3029802Y1131841D01*
X3030511Y1136218D01*
X3031225Y1139866D01*
X3031221Y1140595D01*
X3031218Y1141324D01*
X3031215Y1142053D01*
X3026841Y1142034D01*
X3026844Y1141305D01*
X3026847Y1140576D01*
X3026128Y1138386D01*
X3026137Y1136199D01*
X3025443Y1128177D01*
X3025485Y1118700D01*
X3025488Y1117971D01*
X3026226Y1115787D01*
X3026962Y1114332D01*
X3029155Y1112884D01*
X3029884Y1112887D01*
X3030616Y1112161D01*
X3032071Y1112896D01*
X3034255Y1113635D01*
X3034984Y1113638D01*
X3035709Y1114370D01*
X3037161Y1115835D01*
X3037884Y1117296D01*
X3037881Y1118025D01*
X3037874Y1119483D01*
X3038587Y1123131D01*
X3039304Y1126050D01*
X3040017Y1129698D01*
X3040014Y1130427D01*
X3040007Y1131885D01*
X3040720Y1135533D01*
X3040702Y1139907D01*
X3040698Y1140636D01*
X3040695Y1141365D01*
X3040692Y1142094D01*
D02*
G37*
G36*
X3330834Y1142628D02*
X3326460Y1142609D01*
X3325009Y1141144D01*
X3323557Y1139680D01*
X3322109Y1137487D01*
X3322115Y1136029D01*
X3322128Y1133113D01*
X3321411Y1130194D01*
X3321424Y1127278D01*
X3321430Y1125820D01*
X3321443Y1122904D01*
X3320730Y1119255D01*
X3320733Y1118526D01*
X3320736Y1117797D01*
X3320740Y1117069D01*
X3322204Y1115617D01*
X3323668Y1114165D01*
X3328771Y1114188D01*
X3330952Y1115655D01*
X3331678Y1116387D01*
X3332400Y1117848D01*
X3333113Y1121496D01*
X3334549Y1126606D01*
X3334546Y1127335D01*
X3334543Y1128064D01*
X3335253Y1132441D01*
X3335234Y1136815D01*
X3335227Y1138273D01*
X3335221Y1139731D01*
X3335218Y1140460D01*
X3333757Y1141182D01*
X3332296Y1141905D01*
X3330834Y1142628D01*
D02*
G37*
G36*
X3295840Y1143205D02*
X3287092Y1143166D01*
X3285694Y1129309D01*
X3285697Y1128580D01*
X3285703Y1127122D01*
X3284997Y1122016D01*
X3284287Y1117639D01*
X3284296Y1115452D01*
X3284299Y1114723D01*
X3284302Y1113994D01*
X3287948Y1114010D01*
X3287944Y1114739D01*
X3287938Y1116197D01*
X3288651Y1119845D01*
X3288632Y1124219D01*
X3293006Y1124238D01*
X3295190Y1124976D01*
X3296642Y1126441D01*
X3297367Y1127173D01*
X3298090Y1128634D01*
X3298809Y1130824D01*
X3299526Y1133743D01*
X3299523Y1134472D01*
X3299519Y1135201D01*
X3299507Y1138117D01*
X3299503Y1138846D01*
X3298771Y1139572D01*
X3298033Y1141756D01*
X3295840Y1143205D01*
D02*
G37*
G36*
X3228043Y1142909D02*
X3222940Y1142887D01*
X3222950Y1140700D01*
X3222956Y1139242D01*
X3222969Y1136326D01*
X3222256Y1132678D01*
X3222275Y1128304D01*
X3222278Y1127575D01*
X3222284Y1126117D01*
X3221577Y1121011D01*
X3220867Y1116634D01*
X3220148Y1114444D01*
X3220151Y1113715D01*
X3223796Y1113731D01*
X3223793Y1114460D01*
X3223790Y1115189D01*
X3224512Y1116650D01*
X3224509Y1117379D01*
X3225232Y1118840D01*
X3225222Y1121027D01*
X3225210Y1123943D01*
X3225206Y1124672D01*
X3225926Y1126862D01*
X3225904Y1131965D01*
X3225901Y1132694D01*
X3226620Y1134884D01*
X3226601Y1139258D01*
X3226598Y1139987D01*
X3226595Y1140716D01*
X3226591Y1141445D01*
X3226588Y1142174D01*
X3228043Y1142909D01*
D02*
G37*
G36*
X3194510Y1142764D02*
X3186491Y1142729D01*
X3185765Y1141996D01*
X3185771Y1140539D01*
X3185052Y1138348D01*
X3185061Y1136161D01*
X3184348Y1132513D01*
X3183638Y1128136D01*
X3183641Y1127407D01*
X3183648Y1125949D01*
X3183670Y1120846D01*
X3182960Y1116469D01*
X3182969Y1114282D01*
X3182972Y1113553D01*
X3191720Y1113591D01*
X3192446Y1114323D01*
X3193904Y1114330D01*
X3194630Y1115062D01*
X3196082Y1116526D01*
X3196079Y1117255D01*
X3196801Y1118716D01*
X3198240Y1123097D01*
X3198237Y1123826D01*
X3198234Y1124555D01*
X3197498Y1126009D01*
X3197495Y1126738D01*
X3196763Y1127464D01*
X3196031Y1128190D01*
X3195302Y1128187D01*
X3195299Y1128916D01*
X3196028Y1128919D01*
X3197479Y1130383D01*
X3198205Y1131116D01*
X3198925Y1133306D01*
X3198912Y1136222D01*
X3197435Y1140589D01*
X3196703Y1141315D01*
X3195242Y1142038D01*
X3194510Y1142764D01*
D02*
G37*
G36*
X3068394Y1142215D02*
X3064749Y1142199D01*
X3064758Y1140012D01*
X3064036Y1138551D01*
X3064048Y1135635D01*
X3063335Y1131987D01*
X3062625Y1127610D01*
X3062628Y1126880D01*
X3062635Y1125423D01*
X3061928Y1120316D01*
X3061218Y1115939D01*
X3060499Y1113749D01*
X3060502Y1113020D01*
X3064876Y1113039D01*
X3064872Y1113768D01*
X3064869Y1114497D01*
X3064863Y1115955D01*
X3064860Y1116684D01*
X3065582Y1118145D01*
X3065573Y1120332D01*
X3065560Y1123248D01*
X3065557Y1123977D01*
X3066276Y1126167D01*
X3066983Y1131274D01*
X3066980Y1132003D01*
X3067700Y1134193D01*
X3067681Y1138567D01*
X3067677Y1139296D01*
X3068403Y1140028D01*
X3068400Y1140757D01*
X3068397Y1141486D01*
X3068394Y1142215D01*
D02*
G37*
G36*
X2997681Y1141907D02*
X2993307Y1141888D01*
X2993311Y1141159D01*
X2993317Y1139701D01*
X2992607Y1135324D01*
X2992623Y1131679D01*
X2991910Y1128031D01*
X2991913Y1127302D01*
X2991919Y1125844D01*
X2991209Y1121467D01*
X2990503Y1116361D01*
X2990509Y1114903D01*
X2990515Y1113445D01*
X2989789Y1112713D01*
X3001453Y1112763D01*
X3001447Y1114221D01*
X3002176Y1114224D01*
X3002902Y1114957D01*
X3002898Y1115686D01*
X3002895Y1116415D01*
X3002892Y1117143D01*
X2994873Y1117109D01*
X2994870Y1117838D01*
X2994864Y1119296D01*
X2995577Y1122944D01*
X2996293Y1125863D01*
X2997006Y1129511D01*
X2997003Y1130240D01*
X2997000Y1130969D01*
X2997713Y1134617D01*
X2997697Y1138262D01*
X2997684Y1141178D01*
X2997681Y1141907D01*
D02*
G37*
G36*
X3158060Y1142605D02*
X3155144Y1142592D01*
X3152960Y1141854D01*
X3150779Y1140386D01*
X3149334Y1137464D01*
X3148611Y1136003D01*
X3147895Y1133084D01*
X3147176Y1130893D01*
X3147188Y1127977D01*
X3147195Y1126520D01*
X3147207Y1123603D01*
X3146494Y1119955D01*
X3146504Y1117768D01*
X3146507Y1117039D01*
X3147239Y1116314D01*
X3148704Y1114862D01*
X3150168Y1113410D01*
X3151626Y1113417D01*
X3154545Y1112700D01*
X3157455Y1114171D01*
X3158906Y1115635D01*
X3160355Y1117829D01*
X3160352Y1118558D01*
X3160345Y1120016D01*
X3160332Y1122932D01*
X3161039Y1128038D01*
X3161036Y1128767D01*
X3161033Y1129496D01*
X3161749Y1132415D01*
X3161733Y1136060D01*
X3161730Y1136789D01*
X3161727Y1137518D01*
X3161724Y1138247D01*
X3160992Y1138973D01*
X3160253Y1141157D01*
X3158060Y1142605D01*
D02*
G37*
G36*
X2907286Y1141514D02*
X2901454Y1141488D01*
X2901461Y1140030D01*
X2900738Y1138569D01*
X2900747Y1136382D01*
X2899309Y1132002D01*
X2897870Y1127622D01*
X2896440Y1121054D01*
X2893559Y1113023D01*
X2895020Y1112300D01*
X2897207Y1112310D01*
X2897204Y1113039D01*
X2897201Y1113768D01*
X2897923Y1115229D01*
X2898646Y1116690D01*
X2899366Y1118880D01*
X2904469Y1118902D01*
X2904472Y1118173D01*
X2904478Y1116715D01*
X2904491Y1113799D01*
X2904497Y1112341D01*
X2908142Y1112357D01*
X2908139Y1113086D01*
X2908133Y1114544D01*
X2908126Y1116002D01*
X2908117Y1118189D01*
X2907375Y1121102D01*
X2907356Y1125476D01*
X2907353Y1126205D01*
X2907347Y1127663D01*
X2907327Y1132037D01*
X2907305Y1137140D01*
X2907296Y1139327D01*
X2907289Y1140785D01*
X2907286Y1141514D01*
D02*
G37*
%LPD*%
G36*
X3331582Y1138257D02*
X3331589Y1136799D01*
X3331595Y1135341D01*
X3330879Y1132422D01*
X3330169Y1128045D01*
X3330172Y1127316D01*
X3330175Y1126587D01*
X3329462Y1122939D01*
X3328746Y1120019D01*
X3328752Y1118561D01*
X3328026Y1117829D01*
X3327297Y1117826D01*
X3324378Y1118542D01*
X3324372Y1120000D01*
X3324369Y1120729D01*
X3324362Y1122187D01*
X3324353Y1124374D01*
X3324340Y1127290D01*
X3325044Y1133125D01*
X3325760Y1136045D01*
X3326483Y1137506D01*
X3327208Y1138238D01*
X3327205Y1138967D01*
X3327931Y1139699D01*
X3330847Y1139712D01*
X3331582Y1138257D01*
D02*
G37*
G36*
X3295865Y1137372D02*
X3295871Y1135915D01*
X3295881Y1133727D01*
X3295884Y1132998D01*
X3295161Y1131537D01*
X3294439Y1130076D01*
X3292255Y1129338D01*
X3290068Y1129328D01*
X3290065Y1130057D01*
X3290055Y1132244D01*
X3290759Y1138079D01*
X3295133Y1138098D01*
X3295865Y1137372D01*
D02*
G37*
G36*
X3193077Y1136925D02*
X3193806Y1136928D01*
X3194538Y1136203D01*
X3194544Y1134745D01*
X3194548Y1134016D01*
X3194551Y1133287D01*
X3193828Y1131825D01*
X3192373Y1131090D01*
X3191644Y1131087D01*
X3190189Y1130352D01*
X3188731Y1130345D01*
X3188725Y1131803D01*
X3188716Y1133990D01*
X3189429Y1137638D01*
X3192345Y1137651D01*
X3193077Y1136925D01*
D02*
G37*
G36*
X3192392Y1126716D02*
X3193857Y1125264D01*
X3193860Y1124535D01*
X3193866Y1123078D01*
X3193876Y1120891D01*
X3192424Y1119426D01*
X3190969Y1118691D01*
X3188785Y1117952D01*
X3187327Y1117946D01*
X3187324Y1118675D01*
X3187321Y1119404D01*
X3187308Y1122320D01*
X3187305Y1123049D01*
X3188031Y1123781D01*
X3188754Y1125242D01*
X3188751Y1125971D01*
X3188747Y1126700D01*
X3189473Y1127432D01*
X3190931Y1127439D01*
X3192392Y1126716D01*
D02*
G37*
G36*
X3157353Y1137499D02*
X3157356Y1136770D01*
X3157359Y1136041D01*
X3157372Y1133125D01*
X3157382Y1130938D01*
X3156665Y1128019D01*
X3156672Y1126561D01*
X3155955Y1123642D01*
X3155968Y1120726D01*
X3155242Y1119994D01*
X3155245Y1119264D01*
X3155249Y1118535D01*
X3154523Y1117803D01*
X3153068Y1117068D01*
X3151610Y1117062D01*
X3150878Y1117787D01*
X3150875Y1118516D01*
X3150871Y1119245D01*
X3150859Y1122161D01*
X3150836Y1127264D01*
X3150833Y1127993D01*
X3150830Y1128722D01*
X3151546Y1131641D01*
X3152263Y1134561D01*
X3152256Y1136019D01*
X3152982Y1136751D01*
X3154434Y1138215D01*
X3156621Y1138225D01*
X3157353Y1137499D01*
D02*
G37*
G36*
X2904405Y1133482D02*
X2904415Y1131295D01*
X2904430Y1127650D01*
X2904453Y1122547D01*
X2900079Y1122528D01*
X2900076Y1123257D01*
X2900798Y1124718D01*
X2901511Y1128367D01*
X2901508Y1129095D01*
X2902228Y1131286D01*
X2902947Y1133476D01*
X2903673Y1134208D01*
X2904405Y1133482D01*
D02*
G37*
D23*
X2094528Y1768583D02*
G03*
X2094528Y1768583I-3937J0D01*
G01*
X1902559Y1043504D02*
G03*
X1902559Y1043504I-9842J0D01*
G01*
X1900591Y2523204D02*
G03*
X1900591Y2523204I-9842J0D01*
G01*
D24*
X3271659Y1582677D02*
G03*
X3271659Y1582677I-290000J0D01*
G01*
X2010591Y1738583D02*
Y1743583D01*
X2040591Y1713583D01*
X2010591Y1683583D02*
X2040591Y1713583D01*
X2010591Y1683583D02*
Y1738583D01*
X1852559Y678937D02*
Y1749016D01*
X535236Y678937D02*
X1852559D01*
X535236D02*
Y1749016D01*
X1852559D01*
X533268Y3228716D02*
X1850591D01*
X533268Y2158637D02*
Y3228716D01*
Y2158637D02*
X1850591D01*
Y3228716D01*
X3082310Y2205496D02*
X3072313Y2215492D01*
X3052320D01*
X3042323Y2205496D01*
Y2165509D01*
X3052320Y2155512D01*
X3072313D01*
X3082310Y2165509D01*
X3102303Y2155512D02*
X3122297D01*
X3112300D01*
Y2215492D01*
X3102303Y2205496D01*
X1982284Y1654469D02*
Y1594488D01*
X2012274D01*
X2022271Y1604485D01*
Y1644472D01*
X2012274Y1654469D01*
X1982284D01*
X2042264Y1644472D02*
X2052261Y1654469D01*
X2072254D01*
X2082251Y1644472D01*
Y1634475D01*
X2072254Y1624478D01*
X2062258D01*
X2072254D01*
X2082251Y1614482D01*
Y1604485D01*
X2072254Y1594488D01*
X2052261D01*
X2042264Y1604485D01*
X3414370Y1445807D02*
X3454357Y1385827D01*
Y1445807D02*
X3414370Y1385827D01*
X3514338D02*
X3474351D01*
X3514338Y1425814D01*
Y1435811D01*
X3504341Y1445807D01*
X3484347D01*
X3474351Y1435811D01*
X1881890Y752894D02*
X1921877Y692913D01*
Y752894D02*
X1881890Y692913D01*
X1941870Y742897D02*
X1951867Y752894D01*
X1971861D01*
X1981858Y742897D01*
Y732900D01*
X1971861Y722904D01*
X1961864D01*
X1971861D01*
X1981858Y712907D01*
Y702910D01*
X1971861Y692913D01*
X1951867D01*
X1941870Y702910D01*
X2206693Y867067D02*
Y807087D01*
Y827080D01*
X2246680Y867067D01*
X2216690Y837077D01*
X2246680Y807087D01*
X2266673Y857070D02*
X2276670Y867067D01*
X2296664D01*
X2306661Y857070D01*
Y847074D01*
X2296664Y837077D01*
X2286667D01*
X2296664D01*
X2306661Y827080D01*
Y817083D01*
X2296664Y807087D01*
X2276670D01*
X2266673Y817083D01*
X1771654Y2133893D02*
X1811641Y2073913D01*
Y2133893D02*
X1771654Y2073913D01*
X1831634D02*
X1851628D01*
X1841631D01*
Y2133893D01*
X1831634Y2123896D01*
X2204724Y1885862D02*
Y1825881D01*
Y1845875D01*
X2244712Y1885862D01*
X2214721Y1855871D01*
X2244712Y1825881D01*
X2304692D02*
X2264705D01*
X2304692Y1865868D01*
Y1875865D01*
X2294695Y1885862D01*
X2274702D01*
X2264705Y1875865D01*
X1975394Y2567855D02*
Y2507874D01*
Y2527867D01*
X2015381Y2567855D01*
X1985390Y2537864D01*
X2015381Y2507874D01*
X2035374D02*
X2055368D01*
X2045371D01*
Y2567855D01*
X2035374Y2557858D01*
X2487822Y2971398D02*
X2447835D01*
Y2941408D01*
X2467828D01*
X2447835D01*
Y2911417D01*
X2507815D02*
X2527809D01*
X2517812D01*
Y2971398D01*
X2507815Y2961401D01*
D35*
X2848614Y2244854D02*
G03*
X2824614Y2244854I-12000J0D01*
G01*
X2157082Y2342955D02*
G03*
X2157082Y2342955I-3000J0D01*
G01*
X3230114Y2244854D02*
Y2835854D01*
X2443114Y2244854D02*
X3230114D01*
X2443114D02*
Y2835854D01*
X3230114D01*
D36*
X2010433Y1567087D02*
X2293898D01*
X2010433Y882047D02*
Y1567087D01*
Y882047D02*
X2293898D01*
Y1567087D01*
X1879331Y1812928D02*
Y2497968D01*
X2162795D01*
Y1812928D02*
Y2497968D01*
X1879331Y1812928D02*
X2162795D01*
X1879331Y2576708D02*
Y3261747D01*
X2162795D01*
Y2576708D02*
Y3261747D01*
X1879331Y2576708D02*
X2162795D01*
X2235952Y3263637D02*
X2870905D01*
X2225905D02*
X2235952D01*
X2225905Y2983637D02*
Y3263637D01*
Y2983637D02*
X2870905D01*
Y3263637D01*
D37*
X2423533Y1041088D02*
X2415662Y1048959D01*
X2399919D01*
X2392047Y1041088D01*
Y1033216D01*
X2399919Y1025344D01*
X2415662D01*
X2423533Y1017473D01*
Y1009602D01*
X2415662Y1001730D01*
X2399919D01*
X2392047Y1009602D01*
X2439276Y1048959D02*
Y1001730D01*
Y1025344D01*
X2447148Y1033216D01*
X2462890D01*
X2470762Y1025344D01*
Y1001730D01*
X2486505D02*
X2502248D01*
X2494376D01*
Y1033216D01*
X2486505D01*
X2533734Y1001730D02*
Y1041088D01*
Y1025344D01*
X2525862D01*
X2541605D01*
X2533734D01*
Y1041088D01*
X2541605Y1048959D01*
X2573091Y1041088D02*
Y1033216D01*
X2565220D01*
X2580963D01*
X2573091D01*
Y1009602D01*
X2580963Y1001730D01*
X2651806D02*
Y1048959D01*
X2675420D01*
X2683292Y1041088D01*
Y1025344D01*
X2675420Y1017473D01*
X2651806D01*
X2667549D02*
X2683292Y1001730D01*
X2722649D02*
X2706906D01*
X2699035Y1009602D01*
Y1025344D01*
X2706906Y1033216D01*
X2722649D01*
X2730521Y1025344D01*
Y1017473D01*
X2699035D01*
X2746263Y1001730D02*
X2762006D01*
X2754135D01*
Y1048959D01*
X2746263D01*
X2793492Y1033216D02*
X2809235D01*
X2817107Y1025344D01*
Y1001730D01*
X2793492D01*
X2785621Y1009602D01*
X2793492Y1017473D01*
X2817107D01*
X2832850Y1033216D02*
Y1009602D01*
X2840721Y1001730D01*
X2864336D01*
Y993859D01*
X2856464Y985987D01*
X2848593D01*
X2864336Y1001730D02*
Y1033216D01*
X2880078Y1001730D02*
X2903693D01*
X2911564Y1009602D01*
X2903693Y1017473D01*
X2887950D01*
X2880078Y1025344D01*
X2887950Y1033216D01*
X2911564D01*
X2935179Y993859D02*
X2943050Y1001730D01*
Y1009602D01*
X2935179D01*
Y1001730D01*
X2943050D01*
X2935179Y993859D01*
X2927307Y985987D01*
X3021765Y1001730D02*
Y1048959D01*
X3045379D01*
X3053251Y1041088D01*
Y1025344D01*
X3045379Y1017473D01*
X3021765D01*
X3037508D02*
X3053251Y1001730D01*
X3092608D02*
X3076865D01*
X3068994Y1009602D01*
Y1025344D01*
X3076865Y1033216D01*
X3092608D01*
X3100479Y1025344D01*
Y1017473D01*
X3068994D01*
X3116222Y1033216D02*
X3131965Y1001730D01*
X3147708Y1033216D01*
X3242166Y1001730D02*
X3210680D01*
X3242166Y1033216D01*
Y1041088D01*
X3234294Y1048959D01*
X3218552D01*
X3210680Y1041088D01*
X2423533Y947439D02*
X2407790D01*
X2415662D01*
Y908082D01*
X2407790Y900210D01*
X2399919D01*
X2392047Y908082D01*
X2447148Y931696D02*
X2462890D01*
X2470762Y923825D01*
Y900210D01*
X2447148D01*
X2439276Y908082D01*
X2447148Y915953D01*
X2470762D01*
X2486505Y900210D02*
Y931696D01*
X2510119D01*
X2517991Y923825D01*
Y900210D01*
X2533734Y931696D02*
Y908082D01*
X2541605Y900210D01*
X2565220D01*
Y931696D01*
X2588834D02*
X2604577D01*
X2612448Y923825D01*
Y900210D01*
X2588834D01*
X2580962Y908082D01*
X2588834Y915953D01*
X2612448D01*
X2628191Y931696D02*
Y900210D01*
Y915953D01*
X2636063Y923825D01*
X2643934Y931696D01*
X2651806D01*
X2675420D02*
Y908082D01*
X2683291Y900210D01*
X2706906D01*
Y892339D01*
X2699034Y884467D01*
X2691163D01*
X2706906Y900210D02*
Y931696D01*
X2801363Y900210D02*
X2769878D01*
X2801363Y931696D01*
Y939568D01*
X2793492Y947439D01*
X2777749D01*
X2769878Y939568D01*
X2817106D02*
X2824978Y947439D01*
X2840721D01*
X2848592Y939568D01*
Y908082D01*
X2840721Y900210D01*
X2824978D01*
X2817106Y908082D01*
Y939568D01*
X2895821Y900210D02*
X2864335D01*
X2895821Y931696D01*
Y939568D01*
X2887950Y947439D01*
X2872207D01*
X2864335Y939568D01*
X2911564D02*
X2919436Y947439D01*
X2935178D01*
X2943050Y939568D01*
Y908082D01*
X2935178Y900210D01*
X2919436D01*
X2911564Y908082D01*
Y939568D01*
X2392047Y798690D02*
Y845919D01*
X2415662D01*
X2423533Y838048D01*
Y822305D01*
X2415662Y814433D01*
X2392047D01*
X2439276Y798690D02*
Y830176D01*
X2455019Y845919D01*
X2470762Y830176D01*
Y798690D01*
Y822305D01*
X2439276D01*
X2486505Y845919D02*
X2517991D01*
X2502248D01*
Y798690D01*
X2533734D02*
Y845919D01*
X2557348D01*
X2565220Y838048D01*
Y822305D01*
X2557348Y814433D01*
X2533734D01*
X2549477D02*
X2565220Y798690D01*
X2580962Y845919D02*
X2596705D01*
X2588834D01*
Y798690D01*
X2580962D01*
X2596705D01*
X2651806Y838048D02*
X2643934Y845919D01*
X2628191D01*
X2620320Y838048D01*
Y806562D01*
X2628191Y798690D01*
X2643934D01*
X2651806Y806562D01*
X2667549Y845919D02*
Y798690D01*
Y814433D01*
X2699035Y845919D01*
X2675420Y822305D01*
X2699035Y798690D01*
X2762006D02*
Y845919D01*
X2785621D01*
X2793492Y838048D01*
Y822305D01*
X2785621Y814433D01*
X2762006D01*
X2777749D02*
X2793492Y798690D01*
X2840721Y845919D02*
X2809235D01*
Y798690D01*
X2840721D01*
X2809235Y822305D02*
X2824978D01*
X2887950Y845919D02*
X2856464D01*
Y798690D01*
X2887950D01*
X2856464Y822305D02*
X2872207D01*
X2903693Y845919D02*
Y798690D01*
X2927307D01*
X2935178Y806562D01*
Y838048D01*
X2927307Y845919D01*
X2903693D01*
X2950921D02*
Y838048D01*
X2966664Y822305D01*
X2982407Y838048D01*
Y845919D01*
X2966664Y822305D02*
Y798690D01*
X2392047Y760142D02*
Y712913D01*
X2415662D01*
X2423533Y720785D01*
Y752271D01*
X2415662Y760142D01*
X2392047D01*
X2439276Y712913D02*
Y744399D01*
X2455019Y760142D01*
X2470762Y744399D01*
Y712913D01*
Y736528D01*
X2439276D01*
X2486505Y712913D02*
Y760142D01*
X2517991Y712913D01*
Y760142D01*
X2612448Y752271D02*
X2604577Y760142D01*
X2588834D01*
X2580962Y752271D01*
Y720785D01*
X2588834Y712913D01*
X2604577D01*
X2612448Y720785D01*
Y736528D01*
X2596705D01*
X2628191Y760142D02*
Y720785D01*
X2636063Y712913D01*
X2651806D01*
X2659677Y720785D01*
Y760142D01*
X2675420D02*
X2706906D01*
X2691163D01*
Y712913D01*
X2722649D02*
Y760142D01*
X2738392Y744399D01*
X2754135Y760142D01*
Y712913D01*
X2769878D02*
Y744399D01*
X2785620Y760142D01*
X2801363Y744399D01*
Y712913D01*
Y736528D01*
X2769878D01*
X2817106Y712913D02*
Y760142D01*
X2848592Y712913D01*
Y760142D01*
X2864335Y712913D02*
Y760142D01*
X2895821Y712913D01*
Y760142D01*
%TF.MD5,dce143aee29859a5b31521a23cb30356*%
M02*
