%FSLAX23Y23*%
%MOIN*%
%SFA1B1*%

%IPPOS*%
%ADD13C,0.010000*%
%ADD17R,0.051180X0.043310*%
%ADD18R,0.039370X0.035430*%
%ADD19R,0.037400X0.033470*%
%ADD23O,0.057090X0.023620*%
%ADD24R,0.035430X0.039370*%
%ADD25R,0.035430X0.031500*%
%ADD28R,0.080710X0.045280*%
%ADD29R,0.045280X0.080710*%
%ADD32R,0.023620X0.082680*%
%ADD33R,0.125980X0.082680*%
%ADD58C,0.030000*%
%ADD59C,0.015000*%
%ADD62C,0.129920*%
%ADD63C,0.086610*%
%ADD64R,0.035430X0.011810*%
%LNpedalbox-1*%
%LPD*%
G36*
X1271Y1595D02*
D01*
Y1593*
Y1581*
X1228*
Y1587*
X1173*
Y1575*
X1130*
Y1587*
X1100*
X1097Y1594*
X1111Y1607*
X1138*
X1140Y1604*
X1148Y1599*
X1157Y1597*
X1166Y1599*
X1174Y1604*
X1176Y1607*
X1271*
Y1595*
G37*
G36*
X1586D02*
D01*
Y1593*
Y1581*
X1543*
Y1587*
X1488*
Y1575*
X1445*
Y1587*
X1389*
Y1536*
X1387*
Y1513*
X1447*
Y1536*
X1445*
Y1548*
X1488*
Y1536*
X1486*
Y1513*
X1515*
X1545*
Y1536*
X1543*
Y1554*
X1586*
Y1542*
X1615*
Y1371*
X1616Y1366*
X1619Y1361*
X1674Y1307*
X1673Y1303*
X1675Y1294*
X1680Y1286*
X1688Y1281*
X1697Y1279*
X1700Y1280*
X1783Y1198*
X1782Y1197*
X1784Y1189*
X1788Y1182*
X1795Y1178*
X1803Y1176*
X1831*
X1832Y1176*
X1829Y1169*
X1828Y1169*
X1824*
Y1147*
Y1124*
X1828*
X1829Y1124*
X1832Y1117*
X1831Y1117*
X1803*
X1795Y1115*
X1788Y1111*
X1784Y1104*
X1782Y1097*
X1784Y1089*
X1788Y1082*
X1795Y1078*
X1803Y1076*
X1835*
X1838Y1074*
X1837Y1071*
X1834Y1067*
X1803*
X1795Y1065*
X1788Y1061*
X1784Y1054*
X1782Y1047*
X1784Y1039*
X1787Y1035*
Y1028*
X1756Y998*
X1724*
Y1000*
X1704*
X1701Y1007*
X1722Y1028*
X1725Y1032*
X1726Y1037*
Y1157*
X1725Y1162*
X1722Y1166*
X1682Y1206*
X1678Y1209*
X1673Y1210*
X1637*
X1636Y1211*
X1629Y1215*
X1622Y1217*
X1588*
X1580Y1215*
X1574Y1211*
X1569Y1204*
X1568Y1197*
X1569Y1189*
X1574Y1182*
X1580Y1178*
X1588Y1176*
X1622*
X1629Y1178*
X1636Y1182*
X1637Y1183*
X1667*
X1677Y1174*
X1675Y1166*
X1668Y1162*
X1666Y1159*
X1637*
X1636Y1161*
X1629Y1165*
X1622Y1167*
X1588*
X1580Y1165*
X1574Y1161*
X1569Y1154*
X1568Y1147*
X1568Y1145*
X1519Y1096*
X1515Y1097*
X1512Y1099*
Y1300*
X1516Y1304*
X1519Y1309*
X1520Y1314*
Y1387*
X1519Y1392*
X1516Y1396*
X1492Y1420*
Y1433*
X1495Y1436*
X1501Y1443*
X1502Y1452*
X1501Y1461*
X1495Y1469*
X1488Y1474*
X1488Y1474*
X1492Y1481*
X1510*
Y1503*
X1486*
Y1482*
X1482Y1475*
X1479Y1476*
X1470Y1474*
X1462Y1469*
X1457Y1461*
X1455Y1452*
X1457Y1443*
X1462Y1436*
X1466Y1433*
Y1415*
X1467Y1410*
X1469Y1405*
X1494Y1381*
Y1351*
X1487Y1347*
X1479Y1349*
X1470Y1347*
X1462Y1342*
X1457Y1334*
X1455Y1325*
X1457Y1316*
X1462Y1309*
X1466Y1306*
Y925*
X1303Y762*
X1299Y763*
X1290Y761*
X1282Y756*
X1277Y749*
X1275Y740*
X1277Y731*
X1282Y723*
X1290Y718*
X1299Y716*
X1308Y718*
X1315Y723*
X1320Y731*
X1322Y740*
X1321Y744*
X1479Y901*
X1485Y898*
Y853*
X1482Y851*
X1477Y843*
X1475Y834*
X1477Y825*
X1482Y818*
X1490Y812*
X1499Y811*
X1507Y812*
X1509Y812*
X1514Y809*
Y613*
X1299*
X1296Y613*
X1293Y611*
X1285Y610*
X1251Y644*
X1252Y648*
X1250Y657*
X1245Y665*
X1237Y670*
X1228Y671*
X1219Y670*
X1212Y665*
X1206Y657*
X1205Y648*
X1206Y639*
X1212Y631*
X1219Y626*
X1228Y624*
X1232Y625*
X1238Y620*
X1235Y613*
X1169*
Y629*
X1110*
Y613*
X1038*
X1035Y620*
X1075Y660*
X1078Y664*
X1079Y669*
Y808*
X1150Y879*
X1162*
X1222Y819*
X1226Y816*
X1232Y815*
X1268*
X1270Y812*
X1278Y807*
X1287Y805*
X1296Y807*
X1303Y812*
X1309Y819*
X1310Y828*
X1310Y832*
X1324Y847*
X1327Y851*
X1328Y856*
Y1044*
X1331Y1046*
X1336Y1054*
X1338Y1062*
X1336Y1071*
X1331Y1079*
X1328Y1081*
Y1155*
X1335Y1157*
X1336Y1155*
X1344Y1150*
X1353Y1148*
X1362Y1150*
X1369Y1155*
X1375Y1163*
X1376Y1172*
X1375Y1181*
X1369Y1188*
X1366Y1191*
Y1515*
X1365Y1520*
X1362Y1525*
X1326Y1560*
Y1593*
Y1595*
Y1607*
X1586*
Y1595*
G37*
G36*
X1889D02*
D01*
Y1593*
Y1568*
X1870*
X1865Y1567*
X1860Y1564*
X1858Y1562*
X1846*
Y1587*
X1791*
Y1575*
X1748*
Y1587*
X1692*
Y1536*
X1690*
Y1513*
X1750*
Y1536*
X1748*
Y1548*
X1791*
Y1536*
X1789*
Y1513*
X1818*
X1848*
Y1536*
X1864*
X1869Y1537*
X1873Y1539*
X1875Y1541*
X1904*
Y1057*
X1903Y1057*
X1897Y1055*
X1856Y1095*
X1856Y1097*
X1856Y1098*
X1870Y1112*
X1873Y1116*
X1874Y1121*
Y1172*
X1873Y1177*
X1870Y1181*
X1856Y1195*
X1856Y1197*
X1855Y1204*
X1850Y1211*
X1844Y1215*
X1836Y1217*
X1803*
X1801Y1217*
X1719Y1299*
X1720Y1303*
X1718Y1312*
X1713Y1319*
X1705Y1324*
X1697Y1326*
X1693Y1325*
X1642Y1376*
Y1555*
X1641Y1556*
Y1593*
Y1595*
Y1607*
X1889*
Y1595*
G37*
G36*
X1271Y1542D02*
X1308D01*
X1340Y1510*
Y1191*
X1336Y1188*
X1335Y1186*
X1328Y1188*
Y1296*
X1327Y1302*
X1324Y1306*
X1286Y1344*
X1284Y1345*
X1279Y1350*
Y1383*
X1240*
X1239Y1383*
X1190*
X1099Y1474*
X1102Y1481*
X1132*
Y1503*
X1102*
Y1513*
X1132*
Y1536*
X1130*
Y1548*
X1173*
Y1536*
X1171*
Y1513*
X1200*
X1230*
Y1536*
X1228*
Y1554*
X1271*
Y1542*
G37*
G36*
X3428Y1620D02*
X2740D01*
X2735Y1619*
X2731Y1616*
X2553Y1439*
X2552Y1439*
X2546Y1447*
X2547Y1448*
X2545Y1457*
X2540Y1465*
X2532Y1470*
X2532Y1470*
X2535Y1477*
X2543*
Y1523*
Y1528*
Y1535*
Y1563*
X2621Y1641*
X3428*
Y1620*
G37*
G36*
X2507Y1432D02*
X2514Y1427D01*
X2523Y1425*
X2525Y1425*
X2533Y1420*
X2533Y1418*
X2521Y1406*
X2518Y1402*
X2517Y1397*
Y1352*
X2488*
Y1306*
Y1301*
Y1294*
Y1282*
X2430*
Y1284*
X2417*
Y1311*
X2430*
Y1363*
Y1367*
X2435Y1371*
X2438Y1372*
X2445Y1377*
X2450Y1384*
X2452Y1393*
X2451Y1399*
X2457Y1403*
X2463Y1399*
X2472Y1397*
X2481Y1399*
X2489Y1404*
X2494Y1412*
X2495Y1421*
X2494Y1429*
X2497Y1435*
X2504Y1436*
X2507Y1432*
G37*
G36*
X3270Y1573D02*
X3109D01*
X3104Y1572*
X3100Y1569*
X3048Y1517*
X3045Y1513*
X3044Y1510*
X3000Y1465*
X2963*
Y1419*
Y1414*
Y1407*
Y1396*
X2905*
Y1397*
X2893*
Y1425*
X2905*
Y1480*
X2854*
Y1482*
X2831*
Y1452*
Y1423*
X2854*
Y1425*
X2866*
Y1402*
X2861Y1397*
X2854*
X2847*
X2801*
Y1383*
X2739*
Y1408*
X2741*
Y1431*
X2711*
X2681*
Y1408*
X2596*
X2596Y1410*
X2591Y1418*
X2584Y1422*
X2582Y1430*
X2746Y1594*
X3270*
Y1573*
G37*
G36*
X3106Y1529D02*
Y1499D01*
X3119*
Y1472*
X3106*
Y1417*
X3118*
Y1393*
X3106*
Y1354*
X3105Y1353*
Y1342*
X3001Y1237*
X2964*
Y1191*
Y1185*
Y1178*
Y1167*
X2906*
Y1169*
X2894*
Y1196*
X2906*
Y1252*
X2855*
Y1254*
X2832*
Y1224*
Y1194*
X2855*
Y1196*
X2867*
Y1169*
X2855*
X2853*
X2802*
Y1155*
X2740*
Y1179*
X2742*
Y1202*
X2712*
X2682*
Y1180*
X2471*
X2449Y1202*
X2445Y1205*
X2440Y1206*
X2208*
X2203Y1205*
X2199Y1202*
X2072Y1075*
X2069Y1071*
X2068Y1066*
Y631*
X2062Y627*
X2057Y631*
Y1073*
X2227Y1243*
X2247*
X2248Y1243*
X2325*
Y1229*
X2371*
X2377*
X2384*
X2430*
Y1256*
X2488*
Y1247*
X2543*
Y1294*
Y1299*
Y1306*
Y1338*
X2543Y1339*
Y1387*
X2547Y1390*
X2555Y1388*
X2558Y1384*
X2565Y1379*
X2574Y1378*
X2583Y1379*
X2587Y1382*
X2683*
Y1357*
X2721*
X2722Y1356*
X2801*
Y1342*
X2847*
X2852*
X2859*
X2905*
Y1369*
X2963*
Y1361*
X3018*
Y1407*
Y1412*
Y1419*
Y1446*
X3067Y1495*
X3069Y1499*
X3070Y1502*
X3100Y1532*
X3106Y1529*
G37*
G36*
X2175Y1379D02*
X2180Y1373D01*
X2187Y1368*
X2196Y1366*
X2205Y1368*
X2213Y1373*
X2215Y1376*
X2277*
X2280Y1376*
X2323*
X2323Y1369*
Y1369*
Y1344*
X2351*
Y1339*
X2356*
Y1309*
X2379*
Y1311*
X2391*
Y1289*
X2386Y1284*
X2378*
X2371*
X2325*
Y1270*
X2263*
Y1295*
X2265*
Y1317*
X2236*
X2206*
Y1295*
X2208*
Y1262*
X2034Y1088*
X2031Y1084*
X2030Y1079*
Y631*
X2024Y627*
X2019Y631*
Y1233*
X2168Y1382*
X2175Y1379*
G37*
G36*
X944Y1739D02*
X3989D01*
Y10*
X3082*
Y40*
X3088Y44*
X3090Y44*
X3099Y46*
X3107Y51*
X3112Y58*
X3114Y67*
X3112Y76*
X3107Y84*
X3103Y86*
Y214*
X3102Y219*
X3099Y223*
X3070Y252*
X3071Y256*
X3070Y261*
X3077Y263*
X3077Y263*
X3077Y263*
X3078Y264*
X3079Y264*
X3080Y265*
X3080Y265*
X3081Y266*
X3082Y267*
X3082Y267*
X3082Y267*
X3082Y269*
X3082Y270*
X3082Y270*
X3082Y271*
Y321*
X3091*
Y321*
X3317*
Y311*
X3356*
Y410*
X3317*
Y353*
X3245*
Y405*
X3194*
Y407*
X3171*
Y377*
X3166*
Y372*
X3138*
Y353*
X3091*
Y418*
X3082*
Y542*
X3082Y546*
X3080Y548*
X3079Y556*
X3192Y670*
X3196Y669*
X3205Y671*
X3213Y676*
X3218Y683*
X3220Y692*
X3218Y701*
X3213Y709*
X3205Y714*
X3196Y716*
X3187Y714*
X3186Y713*
X3180Y717*
X3181Y723*
X3179Y732*
X3176Y736*
X3180Y743*
X3237*
X3237Y743*
X3242Y731*
X3250Y720*
X3261Y712*
X3274Y706*
X3287Y705*
X3300Y706*
X3313Y712*
X3323Y720*
X3332Y731*
X3337Y743*
X3339Y756*
X3337Y770*
X3332Y782*
X3323Y793*
X3313Y801*
X3300Y806*
X3287Y808*
X3274Y806*
X3261Y801*
X3250Y793*
X3242Y782*
X3237Y770*
X3237Y770*
X3018*
Y779*
X2963*
Y733*
Y728*
Y721*
Y710*
X2905*
Y711*
X2893*
Y739*
X2905*
Y794*
X2854*
Y796*
X2831*
Y766*
Y737*
X2854*
Y739*
X2866*
Y716*
X2861Y711*
X2854*
X2847*
X2801*
Y697*
X2739*
Y722*
X2741*
Y745*
X2711*
X2681*
Y722*
X2644*
X2642Y724*
X2637Y725*
X2414*
X2409Y724*
X2406Y722*
X2397Y724*
X2388Y722*
X2381Y717*
X2378Y714*
X2363*
X2361Y716*
X2360Y721*
X2364Y727*
X2365Y736*
X2364Y745*
X2359Y752*
X2355Y755*
Y766*
X2377*
X2378*
X2430*
Y785*
X2503*
X2504Y785*
X2543*
Y836*
Y838*
Y860*
X3237*
X3242Y849*
X3250Y838*
X3261Y830*
X3274Y825*
X3287Y823*
X3300Y825*
X3313Y830*
X3323Y838*
X3332Y849*
X3337Y861*
X3339Y875*
X3337Y888*
X3332Y900*
X3323Y911*
X3313Y919*
X3300Y924*
X3287Y926*
X3274Y924*
X3261Y919*
X3250Y911*
X3242Y900*
X3237Y888*
X3237Y886*
X3194*
X3191Y893*
X3192Y901*
X3190Y910*
X3185Y918*
X3182Y920*
Y945*
X3185Y947*
X3190Y955*
X3192Y964*
X3191Y972*
X3191Y974*
X3194Y979*
X3237*
X3237Y979*
X3242Y967*
X3250Y956*
X3261Y948*
X3274Y943*
X3287Y941*
X3300Y943*
X3313Y948*
X3323Y956*
X3332Y967*
X3337Y979*
X3339Y993*
X3337Y1006*
X3332Y1018*
X3323Y1029*
X3313Y1037*
X3300Y1043*
X3287Y1044*
X3274Y1043*
X3261Y1037*
X3250Y1029*
X3242Y1018*
X3237Y1006*
X3237Y1006*
X3018*
Y1008*
X2963*
Y957*
Y955*
Y939*
X2905*
Y941*
X2893*
Y968*
X2905*
Y1023*
X2854*
Y1025*
X2831*
Y996*
Y966*
X2854*
Y968*
X2866*
Y941*
X2854*
X2852*
X2801*
Y926*
X2739*
Y951*
X2741*
Y974*
X2711*
X2681*
Y951*
X2683*
Y926*
X2616*
X2611Y933*
X2612Y937*
X2610Y946*
X2605Y954*
X2597Y959*
X2588Y961*
X2579Y959*
X2572Y954*
X2571Y953*
X2282*
X2279Y958*
X2271Y963*
X2262Y965*
X2253Y963*
X2246Y958*
X2241Y950*
X2239Y941*
X2240Y933*
X2240Y931*
X2237Y926*
X2233*
X2228Y925*
X2224Y922*
X2140Y838*
X2138Y838*
X2133Y841*
Y922*
X2227Y1016*
X2247*
X2248Y1016*
X2325*
Y1001*
X2371*
X2380*
X2383Y994*
X2382Y993*
X2380Y984*
X2382Y975*
X2387Y967*
X2395Y962*
X2404Y960*
X2413Y962*
X2420Y967*
X2424Y972*
X2478*
X2479Y971*
X2487Y966*
X2496Y964*
X2505Y966*
X2512Y971*
X2517Y979*
X2519Y988*
X2517Y997*
X2512Y1004*
X2505Y1009*
X2496Y1011*
X2487Y1009*
X2479Y1004*
X2476Y999*
X2436*
X2430Y1001*
Y1028*
X2488*
Y1020*
X2543*
Y1071*
X2549Y1073*
X2730*
X2738Y1064*
X2743Y1062*
X2748Y1061*
X3241*
X3246Y1062*
X3251Y1064*
X3256Y1070*
X3261Y1066*
X3274Y1061*
X3287Y1059*
X3300Y1061*
X3313Y1066*
X3323Y1074*
X3332Y1085*
X3337Y1097*
X3339Y1111*
X3337Y1124*
X3332Y1137*
X3323Y1147*
X3313Y1156*
X3300Y1161*
X3287Y1162*
X3274Y1161*
X3261Y1156*
X3250Y1147*
X3242Y1137*
X3237Y1124*
X3235Y1111*
X3237Y1097*
X3239Y1093*
X3234Y1087*
X3037*
X3033Y1094*
X3035Y1102*
X3033Y1111*
X3028Y1118*
X3020Y1124*
X3011Y1125*
X3002Y1124*
X2995Y1118*
X2994Y1117*
X2906*
Y1141*
X2964*
Y1132*
X3019*
Y1178*
Y1184*
Y1191*
Y1218*
X3128Y1327*
X3131Y1331*
X3132Y1336*
Y1338*
X3157*
X3164*
X3192*
X3254Y1275*
X3254Y1268*
X3250Y1265*
X3242Y1255*
X3237Y1242*
X3235Y1229*
X3237Y1215*
X3242Y1203*
X3250Y1192*
X3261Y1184*
X3274Y1179*
X3287Y1177*
X3300Y1179*
X3313Y1184*
X3323Y1192*
X3332Y1203*
X3337Y1215*
X3339Y1229*
X3337Y1242*
X3332Y1255*
X3323Y1265*
X3313Y1274*
X3300Y1279*
X3287Y1281*
X3285Y1280*
X3284Y1281*
X3282Y1285*
X3210Y1357*
Y1393*
X3164*
X3159*
X3152*
X3145*
Y1417*
X3157*
Y1415*
X3180*
Y1444*
Y1474*
X3157*
Y1472*
X3145*
Y1499*
X3158*
X3159*
X3211*
Y1514*
X3225*
X3227Y1510*
X3235Y1505*
X3244Y1504*
X3253Y1505*
X3259Y1510*
X3261*
X3270Y1501*
Y1464*
X3315*
X3317Y1457*
X3309Y1448*
X3306Y1444*
X3306Y1444*
X3303Y1441*
X3270*
Y1385*
X3316*
X3321*
X3323*
X3348*
Y1214*
X3349Y1209*
X3350Y1208*
X3349Y1206*
X3341Y1196*
X3335Y1183*
X3334Y1170*
X3335Y1156*
X3341Y1144*
X3349Y1133*
X3359Y1125*
X3372Y1120*
X3385Y1118*
X3399Y1120*
X3411Y1125*
X3422Y1133*
X3430Y1144*
X3435Y1156*
X3437Y1170*
X3435Y1183*
X3430Y1196*
X3422Y1206*
X3411Y1215*
X3399Y1220*
X3385Y1222*
X3380Y1221*
X3375Y1225*
Y1400*
X3375Y1401*
Y1441*
X3348*
X3345Y1447*
X3346Y1448*
X3348Y1452*
X3349Y1457*
Y1464*
X3375*
Y1519*
X3349*
Y1526*
X3348Y1531*
X3347Y1534*
X3350Y1541*
X3377*
Y1565*
X3349*
Y1575*
X3377*
Y1594*
X3440*
Y1567*
X3428*
Y1511*
X3440*
Y1488*
X3428*
Y1432*
X3474*
X3479*
X3485*
X3490Y1427*
Y1220*
X3490Y1220*
X3478Y1215*
X3467Y1206*
X3459Y1196*
X3453Y1183*
X3452Y1170*
X3453Y1156*
X3459Y1144*
X3467Y1133*
X3478Y1125*
X3490Y1120*
X3503Y1118*
X3517Y1120*
X3529Y1125*
X3540Y1133*
X3548Y1144*
X3553Y1156*
X3555Y1170*
X3553Y1183*
X3548Y1196*
X3540Y1206*
X3529Y1215*
X3517Y1220*
X3517Y1220*
Y1432*
X3532*
Y1488*
X3486*
X3481*
X3474*
X3467*
Y1511*
X3479*
Y1509*
X3501*
Y1539*
Y1569*
X3479*
Y1567*
X3467*
Y1594*
X3479*
X3481*
X3532*
Y1608*
X3540*
X3542Y1605*
X3550Y1600*
X3559Y1598*
X3568Y1600*
X3574Y1604*
X3581*
X3590Y1595*
Y1558*
X3634*
X3637Y1551*
X3629Y1543*
X3626Y1539*
X3626Y1538*
X3623Y1535*
X3590*
Y1480*
X3641*
X3643Y1473*
Y1289*
X3628Y1274*
X3628Y1274*
X3615Y1279*
X3602Y1281*
X3588Y1279*
X3576Y1274*
X3565Y1265*
X3557Y1255*
X3552Y1242*
X3550Y1229*
X3552Y1215*
X3557Y1203*
X3565Y1192*
X3576Y1184*
X3588Y1179*
X3602Y1177*
X3615Y1179*
X3628Y1184*
X3638Y1192*
X3647Y1203*
X3652Y1215*
X3654Y1229*
X3652Y1242*
X3647Y1255*
X3647Y1255*
X3665Y1274*
X3668Y1278*
X3669Y1283*
Y1480*
X3695*
Y1535*
X3668*
X3665Y1542*
X3665Y1542*
X3668Y1546*
X3669Y1551*
Y1558*
X3695*
Y1614*
X3669*
Y1621*
X3668Y1626*
X3667Y1628*
X3670Y1635*
X3697*
Y1660*
X3669*
Y1665*
X3664*
Y1695*
X3641*
Y1693*
X3590*
Y1667*
X2616*
X2611Y1666*
X2606Y1664*
X2524Y1581*
X2488*
Y1535*
Y1530*
Y1523*
Y1503*
X2430*
Y1513*
X2417*
Y1541*
X2430*
Y1596*
X2379*
Y1598*
X2356*
Y1568*
Y1539*
X2379*
Y1541*
X2391*
Y1513*
X2378*
X2377*
X2325*
Y1499*
X2263*
Y1524*
X2265*
Y1547*
X2236*
X2206*
Y1524*
X2208*
Y1512*
X2163*
X2158Y1511*
X2154Y1508*
X1960Y1314*
X1957Y1310*
X1956Y1305*
Y953*
X1949Y950*
X1939Y960*
X1940Y964*
X1938Y973*
X1933Y981*
X1930Y983*
Y1542*
X1945*
Y1593*
Y1595*
Y1610*
X2102*
X2104Y1607*
X2112Y1602*
X2121Y1600*
X2130Y1602*
X2137Y1607*
X2142Y1615*
X2144Y1624*
X2142Y1632*
X2137Y1640*
X2130Y1645*
X2121Y1647*
X2112Y1645*
X2104Y1640*
X2102Y1637*
X1945*
Y1646*
X1889*
Y1634*
X1641*
Y1646*
X1586*
Y1634*
X1326*
Y1646*
X1271*
Y1634*
X1176*
X1174Y1637*
X1166Y1642*
X1157Y1644*
X1148Y1642*
X1140Y1637*
X1138Y1634*
X1105*
X1100Y1633*
X1096Y1630*
X1060Y1594*
X1057Y1590*
X1056Y1585*
Y1485*
X1057Y1480*
X1060Y1476*
X1176Y1360*
X1180Y1357*
X1185Y1356*
X1224*
Y1336*
Y1331*
Y1329*
Y1317*
X1181*
Y1323*
X1125*
Y1311*
X1082*
Y1323*
X1027*
Y1272*
X1025*
Y1250*
X1084*
Y1272*
X1082*
Y1284*
X1125*
Y1272*
X1123*
Y1250*
X1153*
X1183*
Y1272*
X1181*
Y1290*
X1224*
Y1278*
X1253*
Y1067*
X1251Y1065*
X1246Y1058*
X1244Y1049*
X1246Y1040*
X1251Y1032*
X1258Y1027*
X1267Y1025*
X1276Y1027*
X1284Y1032*
X1289Y1040*
X1290Y1043*
X1297Y1045*
X1301Y1041*
Y862*
X1291Y851*
X1287Y852*
X1278Y850*
X1270Y845*
X1268Y842*
X1237*
X1183Y896*
Y927*
X1156*
X1154Y934*
X1157Y937*
X1158Y942*
Y954*
X1183*
Y1002*
X1170*
Y1039*
X1185*
Y1090*
X1187*
Y1113*
X1157*
X1127*
Y1090*
X1129*
Y1039*
X1144*
Y1002*
X1131*
Y968*
X1131Y967*
Y948*
X1110Y927*
X1104Y930*
Y964*
X1079*
Y986*
X1078Y991*
X1075Y995*
X1028Y1042*
Y1078*
X982*
X977*
X970*
X942*
X926Y1095*
X922Y1097*
X917Y1098*
X872*
Y1120*
X846*
X843Y1126*
X861Y1144*
X862Y1144*
X871Y1142*
X880Y1144*
X887Y1149*
X892Y1157*
X894Y1166*
X892Y1175*
X887Y1182*
X880Y1188*
X871Y1189*
X862Y1188*
X854Y1182*
X849Y1175*
X848Y1168*
X806Y1126*
X803Y1122*
X802Y1117*
Y948*
X803Y943*
X806Y938*
X810Y934*
Y790*
X804Y786*
X800Y779*
X798Y771*
X800Y764*
X804Y757*
X811Y753*
X818Y751*
X852*
X860Y753*
X866Y757*
X871Y764*
X872Y771*
X871Y779*
X866Y786*
X860Y790*
X852Y792*
X837*
Y939*
X836Y945*
X833Y949*
X828Y953*
Y995*
X841*
Y1021*
Y1047*
X828*
Y1072*
X855*
X857Y1072*
X911*
X924Y1060*
Y1023*
X970*
X975*
X982*
X1009*
X1052Y980*
Y951*
X1053Y950*
Y917*
X1091*
X1094Y910*
X989Y806*
X987Y802*
X986Y801*
X979Y801*
Y935*
X986Y940*
X991Y947*
X992Y956*
X991Y965*
X986Y973*
X978Y978*
X969Y980*
X960Y978*
X952Y973*
X947Y965*
X946Y956*
X947Y947*
X952Y940*
X953Y939*
Y760*
X947Y756*
X941Y749*
X940Y740*
X941Y731*
X947Y723*
X954Y718*
X963Y716*
X972Y718*
X979Y722*
X983Y721*
X986Y719*
Y673*
X960*
X959*
X907*
Y660*
X876*
X871Y667*
X872Y671*
X871Y679*
X866Y686*
X860Y690*
X852Y692*
X818*
X811Y690*
X804Y686*
X800Y679*
X798Y671*
X799Y667*
X795Y660*
X777*
X745Y692*
X748Y699*
X748*
X753Y700*
X758Y703*
X764Y710*
X771Y708*
X780Y710*
X788Y715*
X790Y718*
X797Y717*
X798Y713*
X803Y706*
X810Y701*
X818Y699*
X830*
Y721*
Y744*
X818*
X810Y742*
X803Y737*
X801Y735*
X794Y736*
X793Y741*
X788Y748*
X780Y753*
X771Y755*
X762Y753*
X755Y748*
X749Y741*
X748Y732*
X748Y731*
X743Y726*
X737*
X732Y724*
X728Y722*
X716Y710*
X661*
X657Y717*
X657Y721*
X657Y723*
X736Y801*
X742Y797*
X751Y795*
X760Y797*
X768Y802*
X773Y809*
X775Y818*
X773Y827*
X768Y835*
X760Y840*
X751Y842*
X742Y840*
X735Y835*
X730Y828*
X725Y827*
X721Y824*
X668Y771*
X661Y774*
X661Y776*
X692Y807*
X695Y812*
X696Y817*
Y989*
X695Y994*
X692Y999*
X678Y1013*
Y1023*
X743*
X748Y1024*
X753Y1027*
X760Y1035*
X793*
Y1082*
X742*
Y1054*
X738Y1050*
X665*
Y1126*
X680*
Y1177*
X682*
Y1200*
X652*
X622*
Y1177*
X624*
Y1126*
X639*
Y1050*
X626*
X625*
X619*
X573*
Y994*
X598*
Y981*
X599Y976*
X602Y972*
X626Y948*
Y947*
X625Y940*
X573*
Y901*
X573Y900*
Y814*
X570Y810*
X567Y806*
X566Y801*
Y711*
X567Y706*
X570Y702*
X584Y687*
X585Y679*
X584Y671*
X585Y664*
X590Y657*
X596Y653*
X604Y651*
X636*
X639Y648*
X638Y646*
X635Y642*
X604*
X596Y640*
X590Y636*
X585Y629*
X584Y621*
X585Y614*
X587Y611*
X587Y611*
X489Y512*
X482Y515*
X482Y1734*
X487Y1739*
X944Y1739*
G37*
G36*
X2342Y1148D02*
X2338Y1141D01*
X2323*
Y1117*
X2351*
Y1112*
X2356*
Y1082*
X2379*
Y1084*
X2391*
Y1062*
X2386Y1057*
X2378*
X2371*
X2325*
Y1042*
X2263*
Y1067*
X2265*
Y1090*
X2236*
X2206*
Y1067*
X2208*
Y1035*
X2110Y937*
X2107Y933*
X2106Y928*
Y631*
X2100Y627*
X2095Y631*
Y1060*
X2164Y1130*
X2171Y1127*
X2176Y1121*
X2183Y1116*
X2192Y1114*
X2199Y1115*
X2206Y1111*
Y1100*
X2231*
Y1123*
X2218*
X2214Y1130*
X2216Y1137*
X2215Y1141*
X2225Y1152*
X2339*
X2342Y1148*
G37*
G36*
X2457Y1157D02*
X2461Y1155D01*
X2466Y1153*
X2684*
Y1128*
X2724*
X2725Y1128*
X2735*
X2736Y1126*
X2738Y1121*
X2734Y1115*
X2732Y1106*
X2732Y1105*
X2728Y1099*
X2543*
Y1125*
X2488*
Y1078*
Y1073*
Y1066*
Y1055*
X2430*
Y1057*
X2417*
Y1084*
X2430*
Y1139*
X2381*
X2379Y1141*
X2378Y1148*
X2383Y1156*
X2385Y1165*
X2384Y1173*
X2387Y1180*
X2434*
X2457Y1157*
G37*
G36*
X1301Y1291D02*
Y1081D01*
X1298Y1079*
X1293Y1071*
X1292Y1066*
X1285Y1065*
X1279Y1069*
Y1291*
X1279Y1292*
Y1304*
X1286Y1307*
X1301Y1291*
G37*
G36*
X1568Y1098D02*
X1568Y1097D01*
X1569Y1089*
X1574Y1082*
X1580Y1078*
X1588Y1076*
X1622*
X1629Y1078*
X1636Y1082*
X1637Y1084*
X1666*
X1668Y1081*
X1674Y1077*
X1675Y1074*
Y1073*
X1674Y1069*
X1668Y1065*
X1665Y1061*
X1636*
X1629Y1065*
X1622Y1067*
X1588*
X1580Y1065*
X1574Y1061*
X1569Y1054*
X1568Y1047*
X1568Y1045*
X1547Y1024*
X1541Y1027*
Y1080*
X1562Y1101*
X1568Y1098*
G37*
G36*
X1666Y1030D02*
X1665Y1022D01*
X1642Y999*
X1639Y994*
X1638Y989*
Y959*
X1631Y955*
X1627Y958*
X1618Y960*
X1609Y958*
X1601Y953*
X1598Y949*
X1591Y951*
Y965*
X1595Y967*
X1600Y975*
X1601Y984*
X1600Y993*
X1595Y1000*
X1587Y1005*
X1578Y1007*
X1577Y1007*
X1574Y1014*
X1587Y1027*
X1588Y1026*
X1622*
X1629Y1028*
X1636Y1032*
X1637Y1034*
X1663*
X1666Y1030*
G37*
G36*
X1708Y863D02*
X1705Y856D01*
X1691*
Y826*
Y797*
X1713*
Y799*
X1746*
X1792Y752*
X1791Y744*
X1788Y742*
X1784Y736*
X1782Y728*
X1784Y720*
X1788Y714*
X1795Y709*
X1803Y708*
X1836*
X1844Y709*
X1850Y714*
X1851Y715*
X1862*
X1865Y711*
X1872Y706*
X1881Y705*
X1889Y706*
X1892Y706*
X1896Y703*
Y683*
X1893Y681*
X1888Y674*
X1886Y665*
X1887Y661*
X1868Y641*
X1851*
X1850Y642*
X1844Y647*
X1836Y648*
X1803*
X1795Y647*
X1794Y646*
X1784Y656*
X1789Y661*
X1791Y660*
X1794Y658*
X1803Y656*
X1814*
Y673*
X1781*
X1782Y670*
X1784Y666*
X1786Y664*
X1780Y660*
X1591Y849*
Y922*
X1598Y924*
X1601Y920*
X1609Y915*
X1618Y913*
X1627Y915*
X1634Y920*
X1638Y926*
X1645*
X1708Y863*
G37*
G36*
X1876Y1038D02*
Y952D01*
X1877Y947*
X1879Y943*
X1908Y914*
X1906Y909*
X1905Y908*
X1898Y907*
X1883Y922*
X1879Y925*
X1874Y926*
X1774*
X1772Y929*
X1764Y935*
X1761Y935*
X1762Y942*
X1775*
Y979*
X1809Y1013*
X1812Y1017*
X1813Y1022*
Y1026*
X1836*
X1844Y1028*
X1850Y1032*
X1855Y1039*
X1856Y1047*
X1856Y1048*
X1862Y1051*
X1876Y1038*
G37*
G36*
X3147Y974D02*
X3147Y972D01*
X3145Y964*
X3147Y955*
X3152Y947*
X3156Y945*
Y920*
X3152Y918*
X3147Y910*
X3145Y901*
X3147Y893*
X3143Y886*
X2905*
Y912*
X2963*
Y904*
X3018*
Y955*
Y957*
Y979*
X3144*
X3147Y974*
G37*
G36*
X2724Y900D02*
X2801D01*
Y886*
X2543*
Y889*
X2488*
Y838*
Y836*
Y811*
X2430*
Y821*
X2417*
Y849*
X2430*
Y900*
X2568*
X2571Y897*
X2576Y896*
X2600*
X2605Y897*
X2608Y900*
X2698*
X2700Y900*
X2723*
X2724Y900*
G37*
G36*
X670Y822D02*
X639Y791D01*
X637Y792*
X604*
X603Y791*
X597Y797*
X597Y801*
X598Y803*
X599Y808*
Y885*
X625*
X626*
X632*
X670*
Y822*
G37*
G36*
X2323Y881D02*
X2351D01*
Y876*
X2356*
Y847*
X2379*
Y849*
X2391*
Y821*
X2378*
X2377*
X2325*
Y807*
X2263*
Y832*
X2265*
Y855*
X2236*
Y865*
X2265*
Y887*
X2236*
X2233Y894*
X2239Y900*
X2323*
Y881*
G37*
G36*
X1882Y886D02*
X1882Y884D01*
X1883Y875*
X1889Y868*
X1896Y863*
X1905Y861*
X1913Y862*
X1920Y859*
Y817*
X1913Y810*
X1909Y810*
X1900Y809*
X1892Y803*
X1887Y796*
X1886Y791*
X1879Y789*
X1844Y824*
X1839Y827*
X1834Y828*
X1820*
X1763Y884*
X1765Y892*
X1772Y896*
X1774Y900*
X1868*
X1882Y886*
G37*
G36*
X1805Y805D02*
X1809Y802D01*
X1814Y801*
X1829*
X1874Y757*
X1871Y749*
X1865Y745*
X1862Y741*
X1851*
X1850Y742*
X1844Y747*
X1836Y748*
X1821*
Y755*
X1820Y760*
X1817Y765*
X1764Y817*
Y836*
X1771Y839*
X1805Y805*
G37*
G36*
X1566Y838D02*
X1569Y834D01*
X1655Y748*
X1652Y741*
X1637*
X1636Y742*
X1629Y747*
X1622Y748*
X1588*
X1580Y747*
X1574Y742*
X1569Y736*
X1568Y728*
X1569Y720*
X1574Y714*
X1580Y709*
X1588Y708*
X1622*
X1629Y709*
X1636Y714*
X1637Y715*
X1661*
X1669Y707*
X1667Y699*
X1660Y695*
X1658Y691*
X1637*
X1636Y692*
X1629Y697*
X1622Y698*
X1588*
X1580Y697*
X1574Y692*
X1569Y686*
X1568Y680*
X1566Y678*
X1560Y680*
X1559Y681*
Y838*
X1566Y839*
X1566Y838*
G37*
G36*
X3174Y698D02*
X3173Y692D01*
X3174Y688*
X3089Y604*
X3082Y607*
X3082Y608*
X3080Y611*
X3077Y613*
X3076Y613*
X3073Y620*
X3153Y700*
X3157Y699*
X3166Y701*
X3168Y702*
X3174Y698*
G37*
G36*
X2437Y698D02*
X2439Y691D01*
X2371Y623*
X2364Y625*
X2364Y627*
X2359Y634*
X2351Y639*
X2342Y641*
X2333Y639*
X2325Y634*
X2317Y635*
X2315Y638*
X2309Y643*
X2306Y650*
X2343Y687*
X2378*
X2381Y684*
X2388Y679*
X2397Y677*
X2406Y679*
X2414Y684*
X2419Y691*
X2420Y698*
X2436*
X2437Y698*
G37*
G36*
X3078Y736D02*
X3076Y733D01*
X3074Y724*
X3075Y720*
X2965Y610*
X2957Y611*
X2956Y612*
X2954Y613*
X2951Y613*
X2407*
X2405Y620*
X2455Y670*
X2607*
X2609Y667*
X2617Y662*
X2625Y660*
X2634Y662*
X2642Y667*
X2647Y675*
X2649Y684*
X2648Y689*
X2653Y696*
X2683*
Y671*
X2723*
X2724Y670*
X2801*
Y656*
X2847*
X2852*
X2859*
X2905*
Y683*
X2963*
Y675*
X3018*
Y721*
Y726*
Y733*
Y743*
X3075*
X3078Y736*
G37*
G36*
X2206Y858D02*
Y832D01*
X2208*
Y781*
X2247*
X2248Y781*
X2325*
Y766*
X2329*
Y755*
X2325Y752*
X2320Y745*
X2319Y736*
X2319Y732*
X2250Y663*
X2243Y663*
X2241Y666*
X2234Y671*
X2225Y673*
X2221Y672*
X2190Y703*
X2191Y710*
X2193Y711*
X2198Y719*
X2200Y728*
X2198Y737*
X2193Y744*
X2186Y750*
X2177Y751*
X2169Y750*
X2162Y753*
Y823*
X2200Y861*
X2206Y858*
G37*
G36*
X1128Y897D02*
X1128Y895D01*
X1057Y823*
X1054Y819*
X1053Y814*
Y675*
X1018Y640*
X1012Y643*
Y657*
X1012Y658*
Y791*
X1120Y899*
X1128Y897*
G37*
G36*
X2208Y1473D02*
X2247D01*
X2248Y1473*
X2325*
Y1462*
X2216*
X2211Y1461*
X2207Y1458*
X1996Y1247*
X1993Y1243*
X1992Y1238*
Y632*
X1987Y630*
X1982Y633*
Y1299*
X2168Y1485*
X2208*
Y1473*
G37*
G36*
X762Y637D02*
X767Y634D01*
X772Y633*
X795*
X799Y626*
X798Y621*
X799Y617*
X795Y610*
X718*
X657Y670*
X657Y671*
X657Y676*
X661Y683*
X716*
X762Y637*
G37*
G36*
X1784Y619D02*
X1786Y617D01*
X1788Y614*
X1795Y609*
X1803Y608*
X1836*
X1844Y609*
X1850Y614*
X1851Y615*
X1871*
X1874Y609*
X1874Y608*
X1858Y592*
X1851Y592*
X1850Y592*
X1844Y597*
X1836Y598*
X1803*
X1795Y597*
X1788Y592*
X1788Y591*
X1757*
X1722Y626*
Y671*
X1729Y674*
X1784Y619*
G37*
G36*
X1287Y570D02*
Y389D01*
X1288Y384*
X1291Y380*
X1424Y248*
X1428Y245*
X1433Y244*
X2092*
X2171Y165*
X2175Y162*
X2178Y162*
Y139*
X2167Y129*
X2107*
Y177*
X2109*
Y188*
X2081*
X2053*
Y177*
X2055*
Y166*
X2048Y163*
X2024Y188*
X2020Y190*
X2015Y191*
X1978*
Y215*
X1925*
Y191*
X1906*
X1901Y190*
X1897Y188*
X1873Y164*
X1862*
Y186*
X1802*
Y163*
X1804*
Y112*
X1860*
Y137*
X1878*
X1883Y138*
X1888Y141*
X1912Y165*
X1918*
X1925Y164*
Y114*
X1962*
X1963Y114*
X2035*
X2043Y106*
X2047Y103*
X2052Y102*
X2173*
X2178Y103*
X2182Y106*
X2196Y120*
X2229*
Y121*
X2473*
X2536Y59*
X2535Y55*
X2537Y46*
X2542Y38*
X2550Y33*
X2559Y31*
X2568Y33*
X2575Y38*
X2577Y41*
X2753*
X2758Y42*
X2762Y45*
X2777Y60*
X2778Y62*
X2783Y66*
X2816*
Y122*
X2803*
Y129*
X2816*
Y185*
X2808*
Y197*
X2811Y199*
X2816Y207*
X2818Y216*
X2816Y225*
X2811Y233*
X2804Y238*
X2795Y239*
X2786Y238*
X2778Y233*
X2773Y225*
X2771Y216*
X2773Y207*
X2778Y199*
X2782Y197*
Y185*
X2764*
X2762*
X2745*
Y197*
X2748Y199*
X2753Y207*
X2755Y216*
X2753Y225*
X2748Y233*
X2741Y238*
X2732Y239*
X2723Y238*
X2715Y233*
X2710Y225*
X2708Y216*
X2710Y207*
X2715Y199*
X2719Y197*
Y185*
X2711*
Y129*
X2723*
Y122*
X2711*
Y68*
X2577*
X2575Y71*
X2568Y76*
X2559Y78*
X2555Y77*
X2488Y144*
X2484Y147*
X2479Y148*
X2247*
X2244Y155*
X2246Y157*
X2247Y162*
Y185*
X2246Y190*
X2243Y194*
X2239Y199*
X2275Y235*
X2337*
X2342Y236*
X2346Y239*
X2402Y295*
X2405Y299*
X2406Y304*
Y454*
X2413Y458*
X2421Y456*
X2430Y458*
X2437Y463*
X2441Y469*
X2986*
X2991Y470*
X2995Y473*
X3068Y545*
X3074Y542*
Y418*
X3030*
Y353*
X3008*
X3002Y351*
X2997Y348*
X2979Y330*
X2961*
X2961Y331*
X2953Y336*
X2944Y338*
X2935Y336*
X2928Y331*
X2923Y323*
X2921Y314*
X2923Y305*
X2928Y298*
X2935Y293*
X2944Y291*
X2953Y293*
X2961Y298*
X2961Y299*
X2986*
X2992Y300*
X2997Y303*
X3015Y321*
X3060*
X3062Y321*
X3074*
Y271*
X3067Y268*
X3064Y273*
X3057Y278*
X3048Y280*
X3039Y278*
X3031Y273*
X3026Y265*
X3024Y256*
X3026Y247*
X3031Y240*
X3039Y235*
X3048Y233*
X3052Y234*
X3074Y211*
Y85*
X3073Y84*
X3068Y76*
X3067Y67*
X3068Y58*
X3073Y51*
X3074Y50*
Y10*
X482*
X482Y472*
Y494*
X593Y605*
X596Y603*
X604Y601*
X637*
X645Y603*
X649Y605*
X685*
X703Y587*
X707Y584*
X712Y583*
X993*
X998Y584*
X1003Y587*
X1021Y605*
X1110*
Y591*
X1169*
Y605*
X1252*
X1287Y570*
G37*
G36*
X2195Y599D02*
X2158Y562D01*
X2140*
X2134Y561*
X2130Y558*
X2051Y479*
X2047Y480*
X2038Y478*
X2030Y473*
X2025Y465*
X2023Y456*
X2025Y448*
X2021Y441*
X1836*
X1699Y578*
X1700Y582*
X1698Y591*
X1694Y598*
X1694Y601*
X1696Y605*
X1706*
X1742Y569*
X1746Y566*
X1751Y565*
X1788*
X1788Y564*
X1795Y559*
X1803Y558*
X1836*
X1844Y559*
X1850Y564*
X1851Y565*
X1863*
X1868Y566*
X1872Y569*
X1909Y605*
X1945*
X1946Y601*
X1951Y593*
X1959Y588*
X1967Y586*
X1976Y588*
X1984Y593*
X1989*
X1997Y588*
X2005Y586*
X2014Y588*
X2022Y593*
X2027*
X2035Y588*
X2043Y586*
X2052Y588*
X2060Y593*
X2065*
X2073Y588*
X2081Y586*
X2090Y588*
X2098Y593*
X2103*
X2111Y588*
X2119Y586*
X2128Y588*
X2136Y593*
X2141*
X2149Y588*
X2157Y586*
X2166Y588*
X2174Y593*
X2179Y601*
X2180Y605*
X2192*
X2195Y599*
G37*
G36*
X2954D02*
X2927Y572D01*
X2414*
X2411Y575*
X2404Y580*
X2395Y582*
X2386Y580*
X2378Y575*
X2373Y568*
X2371Y559*
X2372Y555*
X2354Y537*
X2351Y534*
X2347Y534*
X2344Y535*
Y559*
X2390Y605*
X2951*
X2954Y599*
G37*
G36*
X3014D02*
X2949Y533D01*
X2414*
X2412Y539*
X2414Y545*
X2933*
X2938Y546*
X2942Y549*
X2998Y605*
X3012*
X3014Y599*
G37*
G36*
X3074Y589D02*
X2980Y495D01*
X2438*
X2437Y496*
X2433Y500*
X2435Y507*
X2954*
X2959Y508*
X2964Y511*
X3058Y605*
X3074*
Y589*
G37*
G36*
X2282Y489D02*
X2256Y464D01*
X2249Y466*
X2244Y473*
X2237Y478*
X2228Y480*
X2219Y478*
X2211Y473*
X2203Y473*
X2201Y476*
X2194Y481*
X2185Y482*
X2176Y481*
X2168Y476*
X2163Y468*
X2161Y459*
X2162Y455*
X2144Y438*
X2120*
X2116Y445*
X2117Y452*
X2117Y456*
X2266Y605*
X2282*
Y489*
G37*
G36*
X1660Y566D02*
X1668Y561D01*
X1677Y559*
X1681Y560*
X1810Y430*
X1808Y423*
X1726*
X1598Y551*
X1601Y558*
X1622*
X1629Y559*
X1636Y564*
X1638Y567*
X1659*
X1660Y566*
G37*
G36*
X2347Y463D02*
X2350Y462D01*
Y375*
X2343Y371*
X2339Y374*
X2330Y375*
X2321Y374*
X2314Y368*
X2311Y365*
X2303*
Y384*
X2275*
X2272Y391*
X2341Y460*
X2343Y463*
X2347Y463*
G37*
G36*
X1514Y553D02*
X1515Y548D01*
X1518Y543*
X1701Y361*
X1705Y358*
X1710Y357*
X2060*
X2060*
X2060*
X2205*
X2210Y358*
X2215Y361*
X2223Y369*
X2229Y366*
Y336*
X2230Y331*
X2233Y326*
X2241Y319*
X2243Y317*
X2247Y313*
Y288*
X1929*
X1884Y333*
X1880Y336*
X1875Y337*
X1460*
X1428Y370*
X1428Y374*
X1427Y382*
X1422Y390*
X1414Y395*
X1405Y397*
X1396Y395*
X1388Y390*
X1383Y382*
X1382Y374*
X1383Y365*
X1388Y357*
X1396Y352*
X1405Y350*
X1409Y351*
X1446Y314*
X1450Y311*
X1455Y310*
X1869*
X1903Y277*
X1900Y270*
X1439*
X1314Y395*
Y575*
X1313Y580*
X1310Y585*
X1296Y599*
X1299Y605*
X1514*
Y553*
G37*
G36*
X2258Y255D02*
X2210Y207D01*
X2178*
Y205*
X2171Y202*
X2118Y255*
X2121Y262*
X2255*
X2258Y255*
G37*
%LNpedalbox-2*%
%LPC*%
G36*
X1545Y1503D02*
X1520D01*
Y1481*
X1545*
Y1503*
G37*
G36*
X1447D02*
X1422D01*
Y1481*
X1447*
Y1503*
G37*
G36*
X1412D02*
X1387D01*
Y1481*
X1412*
Y1503*
G37*
G36*
X1814Y1169D02*
X1803D01*
X1794Y1167*
X1787Y1162*
X1782Y1155*
X1781Y1152*
X1814*
Y1169*
G37*
G36*
Y1142D02*
X1781D01*
X1782Y1138*
X1787Y1131*
X1794Y1126*
X1803Y1124*
X1814*
Y1142*
G37*
G36*
X1169Y664D02*
X1147D01*
Y644*
X1169*
Y664*
G37*
G36*
X1132D02*
X1110D01*
Y644*
X1132*
Y664*
G37*
G36*
X1848Y1503D02*
X1823D01*
Y1481*
X1848*
Y1503*
G37*
G36*
X1813D02*
X1789D01*
Y1481*
X1813*
Y1503*
G37*
G36*
X1750D02*
X1725D01*
Y1481*
X1750*
Y1503*
G37*
G36*
X1715D02*
X1690D01*
Y1481*
X1715*
Y1503*
G37*
G36*
X1230D02*
X1205D01*
Y1481*
X1230*
Y1503*
G37*
G36*
X1195D02*
X1171D01*
Y1481*
X1195*
Y1503*
G37*
G36*
X2821Y1482D02*
X2799D01*
Y1457*
X2821*
Y1482*
G37*
G36*
X2741Y1463D02*
X2716D01*
Y1441*
X2741*
Y1463*
G37*
G36*
X2706D02*
X2681D01*
Y1441*
X2706*
Y1463*
G37*
G36*
X2821Y1447D02*
X2799D01*
Y1423*
X2821*
Y1447*
G37*
G36*
X2822Y1254D02*
X2800D01*
Y1229*
X2822*
Y1254*
G37*
G36*
X2742Y1235D02*
X2717D01*
Y1212*
X2742*
Y1235*
G37*
G36*
X2707D02*
X2682D01*
Y1212*
X2707*
Y1235*
G37*
G36*
X2822Y1219D02*
X2800D01*
Y1194*
X2822*
Y1219*
G37*
G36*
X2265Y1350D02*
X2241D01*
Y1327*
X2265*
Y1350*
G37*
G36*
X2231D02*
X2206D01*
Y1327*
X2231*
Y1350*
G37*
G36*
X2346Y1334D02*
X2323D01*
Y1309*
X2346*
Y1334*
G37*
G36*
X3697Y1695D02*
X3674D01*
Y1670*
X3697*
Y1695*
G37*
G36*
X2346Y1598D02*
X2323D01*
Y1573*
X2346*
Y1598*
G37*
G36*
X2265Y1579D02*
X2241D01*
Y1557*
X2265*
Y1579*
G37*
G36*
X2231D02*
X2206D01*
Y1557*
X2231*
Y1579*
G37*
G36*
X3534Y1569D02*
X3511D01*
Y1544*
X3534*
Y1569*
G37*
G36*
X2346Y1563D02*
X2323D01*
Y1539*
X2346*
Y1563*
G37*
G36*
X3534Y1534D02*
X3511D01*
Y1509*
X3534*
Y1534*
G37*
G36*
X3213Y1474D02*
X3190D01*
Y1449*
X3213*
Y1474*
G37*
G36*
X3858Y1588D02*
X3843Y1586D01*
X3830Y1582*
X3817Y1575*
X3806Y1566*
X3797Y1555*
X3790Y1542*
X3786Y1529*
X3784Y1514*
X3786Y1500*
X3790Y1486*
X3797Y1474*
X3806Y1462*
X3817Y1453*
X3830Y1447*
X3843Y1442*
X3858Y1441*
X3872Y1442*
X3886Y1447*
X3899Y1453*
X3910Y1462*
X3919Y1474*
X3926Y1486*
X3930Y1500*
X3931Y1514*
X3930Y1529*
X3926Y1542*
X3919Y1555*
X3910Y1566*
X3899Y1575*
X3886Y1582*
X3872Y1586*
X3858Y1588*
G37*
G36*
X3213Y1439D02*
X3190D01*
Y1415*
X3213*
Y1439*
G37*
G36*
X1183Y1240D02*
X1158D01*
Y1217*
X1183*
Y1240*
G37*
G36*
X1148D02*
X1123D01*
Y1217*
X1148*
Y1240*
G37*
G36*
X1084D02*
X1060D01*
Y1217*
X1084*
Y1240*
G37*
G36*
X1050D02*
X1025D01*
Y1217*
X1050*
Y1240*
G37*
G36*
X682Y1233D02*
X657D01*
Y1210*
X682*
Y1233*
G37*
G36*
X647D02*
X622D01*
Y1210*
X647*
Y1233*
G37*
G36*
X1187Y1146D02*
X1162D01*
Y1123*
X1187*
Y1146*
G37*
G36*
X1152D02*
X1127D01*
Y1123*
X1152*
Y1146*
G37*
G36*
X874Y1047D02*
X851D01*
Y1026*
X874*
Y1047*
G37*
G36*
X2821Y1025D02*
X2799D01*
Y1001*
X2821*
Y1025*
G37*
G36*
X3503Y1103D02*
X3490Y1102D01*
X3478Y1096*
X3467Y1088*
X3459Y1078*
X3453Y1065*
X3452Y1052*
X3453Y1038*
X3459Y1026*
X3467Y1015*
X3478Y1007*
X3490Y1002*
X3503Y1000*
X3517Y1002*
X3529Y1007*
X3540Y1015*
X3548Y1026*
X3553Y1038*
X3555Y1052*
X3553Y1065*
X3548Y1078*
X3540Y1088*
X3529Y1096*
X3517Y1102*
X3503Y1103*
G37*
G36*
X3385D02*
X3372Y1102D01*
X3359Y1096*
X3349Y1088*
X3341Y1078*
X3335Y1065*
X3334Y1052*
X3335Y1038*
X3341Y1026*
X3349Y1015*
X3359Y1007*
X3372Y1002*
X3385Y1000*
X3399Y1002*
X3411Y1007*
X3422Y1015*
X3430Y1026*
X3435Y1038*
X3437Y1052*
X3435Y1065*
X3430Y1078*
X3422Y1088*
X3411Y1096*
X3399Y1102*
X3385Y1103*
G37*
G36*
X874Y1016D02*
X851D01*
Y995*
X874*
Y1016*
G37*
G36*
X2741Y1007D02*
X2716D01*
Y984*
X2741*
Y1007*
G37*
G36*
X2706D02*
X2681D01*
Y984*
X2706*
Y1007*
G37*
G36*
X2821Y991D02*
X2799D01*
Y966*
X2821*
Y991*
G37*
G36*
X3503Y985D02*
X3490Y984D01*
X3478Y978*
X3467Y970*
X3459Y959*
X3453Y947*
X3452Y934*
X3453Y920*
X3459Y908*
X3467Y897*
X3478Y889*
X3490Y884*
X3503Y882*
X3517Y884*
X3529Y889*
X3540Y897*
X3548Y908*
X3553Y920*
X3555Y934*
X3553Y947*
X3548Y959*
X3540Y970*
X3529Y978*
X3517Y984*
X3503Y985*
G37*
G36*
X3385D02*
X3372Y984D01*
X3359Y978*
X3349Y970*
X3341Y959*
X3335Y947*
X3334Y934*
X3335Y920*
X3341Y908*
X3349Y897*
X3359Y889*
X3372Y884*
X3385Y882*
X3399Y884*
X3411Y889*
X3422Y897*
X3430Y908*
X3435Y920*
X3437Y934*
X3435Y947*
X3430Y959*
X3422Y970*
X3411Y978*
X3399Y984*
X3385Y985*
G37*
G36*
X2821Y796D02*
X2799D01*
Y771*
X2821*
Y796*
G37*
G36*
X3503Y867D02*
X3490Y865D01*
X3478Y860*
X3467Y852*
X3459Y841*
X3453Y829*
X3452Y815*
X3453Y802*
X3459Y790*
X3467Y779*
X3478Y771*
X3490Y765*
X3503Y764*
X3517Y765*
X3529Y771*
X3540Y779*
X3548Y790*
X3553Y802*
X3555Y815*
X3553Y829*
X3548Y841*
X3540Y852*
X3529Y860*
X3517Y865*
X3503Y867*
G37*
G36*
X3385D02*
X3372Y865D01*
X3359Y860*
X3349Y852*
X3341Y841*
X3335Y829*
X3334Y815*
X3335Y802*
X3341Y790*
X3349Y779*
X3359Y771*
X3372Y765*
X3385Y764*
X3399Y765*
X3411Y771*
X3422Y779*
X3430Y790*
X3435Y802*
X3437Y815*
X3435Y829*
X3430Y841*
X3422Y852*
X3411Y860*
X3399Y865*
X3385Y867*
G37*
G36*
X2741Y777D02*
X2716D01*
Y755*
X2741*
Y777*
G37*
G36*
X2706D02*
X2681D01*
Y755*
X2706*
Y777*
G37*
G36*
X2821Y761D02*
X2799D01*
Y737*
X2821*
Y761*
G37*
G36*
X852Y744D02*
X840D01*
Y726*
X873*
X872Y730*
X868Y737*
X860Y742*
X852Y744*
G37*
G36*
X3791Y730D02*
X3760D01*
Y703*
X3791*
Y730*
G37*
G36*
X3750D02*
X3720D01*
Y703*
X3750*
Y730*
G37*
G36*
X873Y716D02*
X840D01*
Y699*
X852*
X860Y701*
X868Y706*
X872Y713*
X873Y716*
G37*
G36*
X3791Y693D02*
X3760D01*
Y667*
X3791*
Y693*
G37*
G36*
X3750D02*
X3720D01*
Y667*
X3750*
Y693*
G37*
G36*
X3503Y749D02*
X3490Y747D01*
X3478Y742*
X3467Y734*
X3459Y723*
X3453Y711*
X3452Y697*
X3453Y684*
X3459Y671*
X3467Y661*
X3478Y653*
X3490Y647*
X3503Y646*
X3517Y647*
X3529Y653*
X3540Y661*
X3548Y671*
X3553Y684*
X3555Y697*
X3553Y711*
X3548Y723*
X3540Y734*
X3529Y742*
X3517Y747*
X3503Y749*
G37*
G36*
X3385D02*
X3372Y747D01*
X3359Y742*
X3349Y734*
X3341Y723*
X3335Y711*
X3334Y697*
X3335Y684*
X3341Y671*
X3349Y661*
X3359Y653*
X3372Y647*
X3385Y646*
X3399Y647*
X3411Y653*
X3422Y661*
X3430Y671*
X3435Y684*
X3437Y697*
X3435Y711*
X3430Y723*
X3422Y734*
X3411Y742*
X3399Y747*
X3385Y749*
G37*
G36*
X3602Y1162D02*
X3588Y1161D01*
X3576Y1156*
X3565Y1147*
X3557Y1137*
X3552Y1124*
X3550Y1111*
X3552Y1097*
X3557Y1085*
X3565Y1074*
X3576Y1066*
X3586Y1062*
Y1042*
X3576Y1037*
X3565Y1029*
X3557Y1018*
X3552Y1006*
X3550Y993*
X3552Y979*
X3557Y967*
X3565Y956*
X3576Y948*
X3586Y944*
Y923*
X3576Y919*
X3565Y911*
X3557Y900*
X3552Y888*
X3550Y875*
X3552Y861*
X3557Y849*
X3565Y838*
X3576Y830*
X3586Y826*
Y805*
X3576Y801*
X3565Y793*
X3557Y782*
X3552Y770*
X3550Y756*
X3552Y743*
X3557Y731*
X3565Y720*
X3576Y712*
X3586Y707*
Y687*
X3576Y683*
X3565Y675*
X3557Y664*
X3552Y652*
X3550Y638*
X3552Y625*
X3557Y612*
X3565Y602*
X3576Y593*
X3588Y588*
X3602Y587*
X3615Y588*
X3628Y593*
X3638Y602*
X3647Y612*
X3652Y625*
X3654Y638*
X3652Y652*
X3647Y664*
X3638Y675*
X3628Y683*
X3618Y687*
Y707*
X3628Y712*
X3638Y720*
X3647Y731*
X3652Y743*
X3654Y756*
X3652Y770*
X3647Y782*
X3638Y793*
X3628Y801*
X3618Y805*
Y826*
X3628Y830*
X3638Y838*
X3647Y849*
X3652Y861*
X3654Y875*
X3652Y888*
X3647Y900*
X3638Y911*
X3628Y919*
X3618Y923*
Y944*
X3628Y948*
X3638Y956*
X3647Y967*
X3652Y979*
X3654Y993*
X3652Y1006*
X3647Y1018*
X3638Y1029*
X3628Y1037*
X3618Y1042*
Y1062*
X3628Y1066*
X3638Y1074*
X3647Y1085*
X3652Y1097*
X3654Y1111*
X3652Y1124*
X3647Y1137*
X3638Y1147*
X3628Y1156*
X3615Y1161*
X3602Y1162*
G37*
G36*
X3287Y690D02*
X3274Y688D01*
X3261Y683*
X3250Y675*
X3242Y664*
X3237Y652*
X3235Y638*
X3237Y625*
X3242Y612*
X3250Y602*
X3261Y593*
X3274Y588*
X3287Y587*
X3300Y588*
X3313Y593*
X3323Y602*
X3332Y612*
X3337Y625*
X3339Y638*
X3337Y652*
X3332Y664*
X3323Y675*
X3313Y683*
X3300Y688*
X3287Y690*
G37*
G36*
X3503Y631D02*
X3490Y629D01*
X3478Y624*
X3467Y616*
X3459Y605*
X3453Y593*
X3452Y579*
X3453Y566*
X3459Y553*
X3467Y543*
X3478Y534*
X3490Y529*
X3503Y527*
X3517Y529*
X3529Y534*
X3540Y543*
X3548Y553*
X3553Y566*
X3555Y579*
X3553Y593*
X3548Y605*
X3540Y616*
X3529Y624*
X3517Y629*
X3503Y631*
G37*
G36*
X3385D02*
X3372Y629D01*
X3359Y624*
X3349Y616*
X3341Y605*
X3335Y593*
X3334Y579*
X3335Y566*
X3341Y553*
X3349Y543*
X3359Y534*
X3372Y529*
X3385Y527*
X3399Y529*
X3411Y534*
X3422Y543*
X3430Y553*
X3435Y566*
X3437Y579*
X3435Y593*
X3430Y605*
X3422Y616*
X3411Y624*
X3399Y629*
X3385Y631*
G37*
G36*
X3789Y637D02*
X3722D01*
Y578*
X3759*
Y509*
X3754Y504*
X3748*
X3741*
X3695*
Y467*
X3683Y455*
X3680Y450*
X3679Y445*
Y417*
X3654*
X3647*
X3642Y422*
Y476*
X3641Y482*
X3639Y485*
X3647Y494*
X3652Y507*
X3654Y520*
X3652Y534*
X3647Y546*
X3638Y557*
X3628Y565*
X3615Y570*
X3602Y572*
X3588Y570*
X3576Y565*
X3565Y557*
X3557Y546*
X3552Y534*
X3550Y520*
X3552Y507*
X3557Y494*
X3565Y484*
X3576Y475*
X3588Y470*
X3602Y468*
X3605Y469*
X3611Y464*
Y417*
X3601*
Y362*
X3647*
X3652*
X3659*
X3664Y357*
Y311*
X3654*
X3652*
X3615*
X3614Y311*
X3563*
X3556Y311*
Y410*
X3517*
Y332*
X3510Y329*
X3506Y331*
Y410*
X3467*
Y311*
X3488*
X3511Y288*
X3515Y285*
X3520Y284*
X3601*
Y255*
X3613*
Y216*
X3601*
Y161*
X3626*
Y156*
X3627Y151*
X3630Y147*
X3647Y130*
X3644Y124*
X3631*
Y94*
X3621*
Y124*
X3599*
Y94*
X3592Y91*
X3576Y107*
Y157*
X3575Y163*
X3572Y168*
X3435Y305*
X3438Y311*
X3456*
Y353*
X3437*
Y361*
Y353*
X3417*
Y335*
X3410Y332*
X3406Y335*
Y410*
X3367*
Y311*
X3384*
X3545Y151*
Y104*
X3521Y80*
X3508*
Y176*
X3366*
Y80*
X3252*
X3251Y79*
X3186*
Y18*
X3283*
Y53*
X3526*
X3531Y54*
X3535Y57*
X3559Y80*
X3591Y48*
X3596Y44*
X3602Y43*
X3704*
X3710Y44*
X3715Y48*
X3724Y57*
X3727Y62*
X3729Y68*
Y153*
X3727Y159*
X3724Y164*
X3705Y183*
Y216*
X3695*
Y255*
X3705*
Y311*
X3695*
Y362*
X3705*
Y401*
X3706Y402*
Y440*
X3714Y448*
X3741*
X3747*
X3754*
X3800*
Y504*
X3785*
Y578*
X3789*
Y637*
G37*
G36*
X3287Y572D02*
X3274Y570D01*
X3261Y565*
X3250Y557*
X3242Y546*
X3237Y534*
X3235Y520*
X3237Y507*
X3242Y494*
X3250Y484*
X3261Y475*
X3274Y470*
X3287Y468*
X3300Y470*
X3313Y475*
X3323Y484*
X3332Y494*
X3337Y507*
X3339Y520*
X3337Y534*
X3332Y546*
X3323Y557*
X3313Y565*
X3300Y570*
X3287Y572*
G37*
G36*
X3161Y407D02*
X3138D01*
Y382*
X3161*
Y407*
G37*
G36*
X3456Y410D02*
X3444D01*
Y368*
X3456*
Y410*
G37*
G36*
X3429D02*
X3417D01*
Y368*
X3429*
Y410*
G37*
G36*
X3307Y301D02*
D01*
X3181Y301*
X3179Y301*
X3177Y300*
X3176Y299*
X3175Y299*
X3174Y297*
X3173Y296*
X3173*
X3173Y294*
X3172Y293*
Y129*
X3173Y126*
X3175Y124*
X3177Y122*
X3181Y121*
X3312*
X3315Y122*
X3317Y124*
X3319Y126*
X3320Y129*
Y288*
X3319Y289*
X3319Y291*
Y291*
X3318Y292*
X3317Y294*
X3317*
X3312Y299*
X3311Y299*
X3310Y300*
X3310*
X3308Y301*
X3307Y301*
G37*
G36*
X3858Y308D02*
X3843Y307D01*
X3830Y302*
X3817Y296*
X3806Y287*
X3797Y275*
X3790Y263*
X3786Y249*
X3784Y235*
X3786Y220*
X3790Y207*
X3797Y194*
X3806Y183*
X3817Y174*
X3830Y167*
X3843Y163*
X3858Y161*
X3872Y163*
X3886Y167*
X3899Y174*
X3910Y183*
X3919Y194*
X3926Y207*
X3930Y220*
X3931Y235*
X3930Y249*
X3926Y263*
X3919Y275*
X3910Y287*
X3899Y296*
X3886Y302*
X3872Y307*
X3858Y308*
G37*
G36*
X2265Y1123D02*
X2241D01*
Y1100*
X2265*
Y1123*
G37*
G36*
X2346Y1107D02*
X2323D01*
Y1082*
X2346*
Y1107*
G37*
G36*
X1681Y856D02*
X1658D01*
Y831*
X1681*
Y856*
G37*
G36*
Y821D02*
X1658D01*
Y797*
X1681*
Y821*
G37*
G36*
X1836Y700D02*
X1824D01*
Y683*
X1857*
X1857Y687*
X1852Y694*
X1845Y699*
X1836Y700*
G37*
G36*
X1814D02*
X1803D01*
X1794Y699*
X1787Y694*
X1782Y687*
X1781Y683*
X1814*
Y700*
G37*
G36*
X1857Y673D02*
X1824D01*
Y656*
X1836*
X1845Y658*
X1852Y662*
X1857Y670*
X1857Y673*
G37*
G36*
X2346Y871D02*
X2323D01*
Y847*
X2346*
Y871*
G37*
G36*
X1169Y576D02*
X1147D01*
Y556*
X1169*
Y576*
G37*
G36*
X1132D02*
X1110D01*
Y556*
X1132*
Y576*
G37*
G36*
X1318Y256D02*
X1311Y255D01*
X1304Y252*
X1299Y248*
X1294Y242*
X1291Y235*
X1290Y228*
X1291Y221*
X1294Y214*
X1299Y208*
X1304Y204*
X1311Y201*
X1318Y200*
X1326Y201*
X1332Y204*
X1338Y208*
X1343Y214*
X1345Y221*
X1346Y228*
X1345Y235*
X1343Y242*
X1338Y248*
X1332Y252*
X1326Y255*
X1318Y256*
G37*
G36*
X2109Y209D02*
X2086D01*
Y198*
X2109*
Y209*
G37*
G36*
X2076D02*
X2053D01*
Y198*
X2076*
Y209*
G37*
G36*
X1862Y219D02*
X1837D01*
Y196*
X1862*
Y219*
G37*
G36*
X1827D02*
X1802D01*
Y196*
X1827*
Y219*
G37*
G36*
X1318Y106D02*
X1311Y105D01*
X1304Y102*
X1299Y98*
X1294Y92*
X1291Y85*
X1290Y78*
X1291Y71*
X1294Y65*
X1292Y62*
X1290Y58*
X1162*
X1160Y61*
X1152Y66*
X1143Y68*
X1134Y66*
X1127Y61*
X1122Y54*
X1120Y45*
X1122Y36*
X1127Y28*
X1134Y23*
X1143Y21*
X1152Y23*
X1160Y28*
X1162Y32*
X1486*
X1489Y32*
X1491Y31*
X1500Y30*
X1508Y31*
X1516Y36*
X1521Y44*
X1523Y53*
X1521Y62*
X1516Y70*
X1508Y75*
X1500Y76*
X1491Y75*
X1483Y70*
X1478Y62*
X1477Y58*
X1347*
X1344Y62*
X1343Y65*
X1345Y71*
X1346Y78*
X1345Y85*
X1343Y92*
X1338Y98*
X1332Y102*
X1326Y105*
X1318Y106*
G37*
G36*
X1612Y158D02*
X1603Y156D01*
X1595Y151*
X1590Y143*
X1588Y134*
X1590Y125*
X1595Y118*
X1603Y113*
X1612Y111*
X1616Y112*
X1693Y34*
X1697Y32*
X1702Y31*
X2357*
X2359Y27*
X2367Y22*
X2375Y20*
X2384Y22*
X2392Y27*
X2397Y35*
X2399Y44*
X2397Y53*
X2392Y60*
X2384Y65*
X2375Y67*
X2367Y65*
X2359Y60*
X2357Y57*
X1708*
X1634Y130*
X1635Y134*
X1633Y143*
X1628Y151*
X1621Y156*
X1612Y158*
G37*
%LNpedalbox-3*%
%LPD*%
G36*
X3312Y288D02*
Y129D01*
X3181*
Y293*
X3307Y293*
X3312Y288*
G37*
G54D13*
X722Y697D02*
X737Y712D01*
X748*
X579Y711D02*
Y801D01*
X586Y808*
Y900*
X599Y913*
X683Y817D02*
Y989D01*
X637Y771D02*
X683Y817D01*
X621Y771D02*
X637D01*
X652Y1020D02*
X683Y989D01*
X643Y904D02*
X652Y913D01*
X639Y925D02*
X652Y913D01*
X639Y925D02*
Y953D01*
X612Y981D02*
X639Y953D01*
X612Y981D02*
Y1009D01*
X599Y1022D02*
X612Y1009D01*
X652Y1020D02*
Y1152D01*
X665Y1037D02*
X743D01*
X765Y1059D02*
X767D01*
X743Y1037D02*
X765Y1059D01*
X652Y1024D02*
X665Y1037D01*
X2215Y193D02*
X2226D01*
X1228Y648D02*
X1301Y575D01*
Y389D02*
Y575D01*
X1832Y138D02*
X1845Y151D01*
X1878*
X1906Y178*
X1940*
X1951Y190*
X1963Y127D02*
X2041D01*
X1951Y190D02*
X1963Y178D01*
X2015*
X2058Y135*
X2080*
X2081Y134*
X2041Y127D02*
X2052Y115D01*
X2173D02*
X2191Y134D01*
X2081Y154D02*
Y174D01*
X2052Y115D02*
X2173D01*
X1951Y139D02*
X1963Y127D01*
X2479Y134D02*
X2559Y55D01*
X2191Y134D02*
X2479D01*
X2393Y518D02*
X2395Y520D01*
X2393Y304D02*
Y518D01*
X2337Y248D02*
X2393Y304D01*
X2270Y248D02*
X2337D01*
X2215Y193D02*
X2270Y248D01*
X2203Y193D02*
X2215D01*
X2203Y154D02*
X2204Y155D01*
X2226*
X2234Y162*
Y185*
X2226Y193D02*
X2234Y185D01*
X1301Y389D02*
X1433Y257D01*
X2098*
X2180Y174*
X2202*
X2203Y174*
X1612Y134D02*
X1702Y44D01*
X2375*
X2423Y482D02*
X2986D01*
X2421Y480D02*
X2423Y482D01*
X2233Y913D02*
X2573D01*
X1563Y568D02*
X1721Y410D01*
X2071*
X2075Y406*
X1486Y45D02*
X1494Y53D01*
X1143Y45D02*
X1486D01*
X1494Y53D02*
X1500D01*
X2395Y559D02*
X2933D01*
X2394D02*
X2395D01*
X1924Y275D02*
X2338D01*
X1875Y324D02*
X1924Y275D01*
X2338D02*
X2363Y300D01*
X2251Y328D02*
X2273Y306D01*
X2250Y328D02*
X2251D01*
X2242Y336D02*
X2250Y328D01*
X2242Y336D02*
Y382D01*
X2282Y352D02*
X2330D01*
X2275Y306D02*
X2329D01*
X2363Y300D02*
Y528D01*
X2082Y424D02*
X2150D01*
X1831Y428D02*
X2078D01*
X2082Y424*
X1681Y578D02*
X1831Y428D01*
X2067Y388D02*
X2067Y388D01*
X2053Y388D02*
X2067D01*
X2053Y388D02*
X2053Y388D01*
X2060Y370D02*
X2205D01*
X2067Y388D02*
X2198D01*
X2075Y406D02*
X2178D01*
X2060Y370D02*
X2060Y370D01*
X2060Y370D02*
D01*
X2060Y370D02*
X2060Y370D01*
X1717Y388D02*
X2053D01*
X1710Y370D02*
X2060D01*
X1545Y560D02*
X1717Y388D01*
X1527Y553D02*
X1710Y370D01*
X2150Y424D02*
X2185Y459D01*
X2395Y520D02*
X2954D01*
X3157Y723*
X2933Y559D02*
X3098Y724D01*
X2986Y482D02*
X3196Y692D01*
X1299Y1621D02*
X1917D01*
X1232Y828D02*
X1287D01*
X1157Y903D02*
X1232Y828D01*
X1951Y666D02*
Y930D01*
X1863Y578D02*
X1951Y666D01*
X1820Y578D02*
X1863D01*
X1819Y578D02*
X1820Y578D01*
X966Y953D02*
X969Y956D01*
X966Y743D02*
Y953D01*
X963Y740D02*
X966Y743D01*
X815Y948D02*
Y1117D01*
Y948D02*
X823Y939D01*
Y778D02*
Y939D01*
Y778D02*
X830Y771D01*
X2163Y1499D02*
X2236D01*
X1969Y1305D02*
X2163Y1499D01*
X1969Y611D02*
Y1305D01*
X1967Y610D02*
X1969Y611D01*
X1917Y962D02*
X1919D01*
X1951Y930*
X1889Y952D02*
X1933Y908D01*
Y811D02*
Y908D01*
X1909Y787D02*
X1933Y811D01*
X1755Y913D02*
X1874D01*
X1834Y814D02*
X1910Y739D01*
X1819Y728D02*
X1881D01*
X1902Y884D02*
X1905D01*
X1874Y913D02*
X1902Y884D01*
X2709Y1382D02*
X2722Y1370D01*
X2712Y1154D02*
X2725Y1141D01*
X2699Y1167D02*
X2712Y1154D01*
X1748Y970D02*
X1800Y1022D01*
X1739Y957D02*
Y970D01*
X1726Y837D02*
X1808Y755D01*
X1917Y1621D02*
X1920Y1624D01*
X2121*
X1614Y1567D02*
X1616D01*
X1521D02*
X1614D01*
X1819Y1197D02*
X1836D01*
X1803D02*
X1819D01*
X1301Y1567D02*
X1353Y1515D01*
Y1172D02*
Y1515D01*
X1144Y892D02*
D01*
X1066Y814D02*
X1144Y892D01*
X1066Y669D02*
Y814D01*
X993Y597D02*
X1066Y669D01*
X1479Y1415D02*
X1507Y1387D01*
Y1314D02*
Y1387D01*
X1499Y1305D02*
X1507Y1314D01*
X1499Y834D02*
Y1305D01*
X768Y732D02*
X771D01*
X748Y712D02*
X768Y732D01*
X864Y1166D02*
X871D01*
X815Y1117D02*
X864Y1166D01*
X857Y1085D02*
X917D01*
X949Y1053*
Y1051D02*
Y1053D01*
X846Y1096D02*
X857Y1085D01*
X1910Y665D02*
Y739D01*
X1814Y814D02*
X1834D01*
X1793Y628D02*
X1819D01*
X1578Y843D02*
X1793Y628D01*
X1578Y843D02*
Y984D01*
X2280Y1389D02*
X2349D01*
X2354Y1393*
X2429*
X1819Y628D02*
X1873D01*
X1910Y665*
X1800Y1022D02*
Y1040D01*
X1751Y578D02*
X1819D01*
X1709Y621D02*
X1751Y578D01*
X1709Y621D02*
Y685D01*
X2149Y716D02*
X2157Y707D01*
Y610D02*
Y707D01*
X2149Y828D02*
X2233Y913D01*
X2149Y716D02*
Y828D01*
X2600Y909D02*
X2603Y913D01*
X2576Y909D02*
X2600D01*
X2573Y913D02*
X2576Y909D01*
X1814Y728D02*
X1819D01*
X1651Y989D02*
X1675Y1013D01*
X1651Y939D02*
Y989D01*
X1620Y939D02*
X1651D01*
X1675Y1013D02*
X1689D01*
X2603Y913D02*
X2698D01*
X1618Y937D02*
X1620Y939D01*
X1651D02*
X1726Y864D01*
X1689Y1013D02*
X1713Y1037D01*
X1726Y837D02*
Y864D01*
X1713Y1037D02*
Y1157D01*
X1605Y1197D02*
X1673D01*
X1808Y734D02*
Y755D01*
X2698Y913D02*
X2711Y926D01*
X1673Y1197D02*
X1713Y1157D01*
X1808Y734D02*
X1814Y728D01*
X2826Y913D02*
X2826Y913D01*
X2724Y913D02*
X2826D01*
X2711Y926D02*
X2724Y913D01*
X2338Y732D02*
Y740D01*
X2342Y743*
X2349Y794D02*
X2351D01*
X2494Y986D02*
X2496Y988D01*
X2406Y986D02*
X2494D01*
X2279Y1389D02*
X2280Y1389D01*
X2196Y1389D02*
X2279D01*
X1479Y1415D02*
Y1452D01*
X2697Y709D02*
X2710Y696D01*
X2397Y703D02*
X2405D01*
X2395Y700D02*
X2397Y703D01*
X3048Y256D02*
X3090Y214D01*
Y67D02*
Y214D01*
X2404Y984D02*
X2406Y986D01*
X2177Y698D02*
X2225Y650D01*
X2177Y698D02*
Y728D01*
X2164Y549D02*
X2253Y638D01*
X2140Y549D02*
X2164D01*
X2271Y629D02*
Y633D01*
X2094Y452D02*
X2271Y629D01*
Y633D02*
X2338Y700D01*
X2253Y646D02*
X2338Y732D01*
X2253Y638D02*
Y646D01*
X2047Y456D02*
X2140Y549D01*
X2342Y743D02*
Y785D01*
X2338Y700D02*
X2395D01*
X2313Y589D02*
X2342Y618D01*
X2313Y476D02*
Y589D01*
X2790Y92D02*
Y157D01*
X2732Y162D02*
Y216D01*
X3526Y66D02*
X3560Y101D01*
X3252Y66D02*
X3526D01*
X3235Y49D02*
X3252Y66D01*
X1628Y1371D02*
X1697Y1303D01*
X1628Y1371D02*
Y1555D01*
X1697Y1303D02*
X1803Y1197D01*
X1616Y1567D02*
X1628Y1555D01*
X1836Y1197D02*
X1861Y1172D01*
X1831Y1549D02*
X1864D01*
X1729Y1007D02*
X1733D01*
X1709Y987D02*
X1729Y1007D01*
X1709Y983D02*
Y987D01*
X1696Y970D02*
X1709Y983D01*
X1864Y1549D02*
X1870Y1555D01*
X1917Y964D02*
Y1567D01*
X1720Y1562D02*
X1818D01*
X1870Y1555D02*
X1904D01*
X1917Y1567*
X1417Y1562D02*
X1515D01*
X1521Y1567*
X2405Y703D02*
X2414Y712D01*
X2640Y709D02*
X2697D01*
X2637Y712D02*
X2640Y709D01*
X2450Y684D02*
X2625D01*
X2414Y712D02*
X2637D01*
X2331Y565D02*
X2450Y684D01*
X2273Y306D02*
X2275D01*
X1157Y1621D02*
X1299D01*
X1105D02*
X1157D01*
X1314Y1062D02*
Y1296D01*
Y856D02*
Y1062D01*
X2586Y939D02*
X2588Y937D01*
X3272Y1243D02*
X3287Y1229D01*
X3009Y1104D02*
X3011Y1102D01*
X2740Y1607D02*
X3441D01*
X2530Y1397D02*
X2740Y1607D01*
X1066Y951D02*
X1076Y940D01*
X748Y815D02*
X751Y818D01*
X2574Y1401D02*
X2580D01*
X2081Y610D02*
Y1066D01*
X3692Y445D02*
X3721Y474D01*
X3656Y1495D02*
X3669Y1507D01*
X3605Y1654D02*
X3616Y1665D01*
X2404Y798D02*
Y876D01*
Y1490D02*
Y1568D01*
X2262Y941D02*
X2264Y939D01*
X2586*
X1727Y946D02*
X1739Y957D01*
X1605Y728D02*
X1666D01*
X1675Y578D02*
X1681D01*
X1666Y728D02*
X1709Y685D01*
X1676Y629D02*
X1677Y629D01*
X1588Y678D02*
X1677D01*
X3520Y298D02*
X3614D01*
X3626Y285*
X3487Y331D02*
X3520Y298D01*
X3487Y331D02*
Y361D01*
X2724Y684D02*
X2826D01*
X2248Y794D02*
X2349D01*
X2236Y807D02*
X2248Y794D01*
X2349D02*
X2349Y794D01*
X2192Y1137D02*
X2220Y1165D01*
X2119Y610D02*
Y928D01*
X2440Y1193D02*
X2466Y1167D01*
X2043Y610D02*
Y1079D01*
X2005Y610D02*
Y1238D01*
X2295Y484D02*
Y622D01*
X1455Y324D02*
X1875D01*
X2119Y928D02*
X2234Y1042D01*
X2331Y469D02*
Y565D01*
X2247Y410D02*
X2313Y476D01*
X2239Y428D02*
X2295Y484D01*
X2254Y392D02*
X2331Y469D01*
X2253Y392D02*
X2254D01*
X2242Y382D02*
X2253Y392D01*
X2205Y370D02*
X2245Y410D01*
X2247*
X2198Y388D02*
X2238Y428D01*
X2239*
X2363Y528D02*
X2394Y559D01*
X2275Y359D02*
X2282Y352D01*
X637Y671D02*
X712Y597D01*
X621Y671D02*
X637D01*
X594Y697D02*
X722D01*
X579Y711D02*
X594Y697D01*
X731Y815D02*
X748D01*
X637Y721D02*
X731Y815D01*
X621Y721D02*
X637D01*
X3244Y1527D02*
X3247Y1523D01*
X1266Y1050D02*
X1267Y1049D01*
X1266Y1050D02*
Y1291D01*
X1253Y1304D02*
X1266Y1291D01*
X722Y697D02*
X772Y647D01*
X932D02*
X933Y645D01*
X772Y647D02*
X932D01*
X712Y597D02*
X993D01*
X1144Y892D02*
X1155Y903D01*
X1157*
X1076Y940D02*
X1078D01*
X1066Y951D02*
Y986D01*
X1002Y1049D02*
X1066Y986D01*
X1002Y1049D02*
Y1051D01*
X986Y645D02*
X999Y658D01*
Y797*
X1144Y942*
Y967*
X1155Y978*
X1157*
Y1065*
X830Y771D02*
X835D01*
X1299Y740D02*
X1479Y920D01*
Y1325*
X1287Y828D02*
X1314Y856D01*
X1239Y1370D02*
X1251Y1357D01*
X1277Y1334D02*
X1314Y1296D01*
X1276Y1334D02*
X1277D01*
X1253Y1357D02*
X1276Y1334D01*
X1251Y1357D02*
X1253D01*
X1206Y1567D02*
X1301D01*
X1055Y1298D02*
X1153D01*
X1159Y1304*
X1253*
X1069Y1585D02*
X1105Y1621D01*
X1069Y1485D02*
Y1585D01*
Y1485D02*
X1185Y1370D01*
X1239*
X1102Y1562D02*
X1200D01*
X1206Y1567*
X1299Y1621D02*
D01*
X2178Y406D02*
X2228Y456D01*
X1727Y901D02*
Y946D01*
Y901D02*
X1814Y814D01*
X1684Y1048D02*
X1685Y1049D01*
X1806Y1047D02*
X1819D01*
X1800Y1040D02*
X1806Y1047D01*
X1739Y970D02*
X1748D01*
X1836Y1097D02*
X1889Y1044D01*
Y952D02*
Y1044D01*
X2005Y1238D02*
X2216Y1449D01*
X1675Y580D02*
X1677Y582D01*
X3755Y608D02*
X3772Y591D01*
Y478D02*
Y591D01*
Y478D02*
X3774Y476D01*
X3692Y402D02*
Y445D01*
X3721Y474D02*
Y476D01*
X3680Y389D02*
X3692Y402D01*
X1684Y1097D02*
X1685Y1098D01*
X1684Y1146D02*
X1685Y1145D01*
X1606Y1146D02*
X1684D01*
X1606Y629D02*
X1676D01*
X1605Y628D02*
X1606Y629D01*
X1606Y1048D02*
X1684D01*
X2043Y1079D02*
X2234Y1269D01*
X2081Y1066D02*
X2208Y1193D01*
X2342Y785D02*
X2351Y794D01*
X2234Y1042D02*
X2236D01*
X1819Y1097D02*
X1836D01*
X1605Y1147D02*
X1606Y1146D01*
X1605Y1047D02*
X1606Y1048D01*
X1861Y1121D02*
Y1172D01*
X1836Y1097D02*
X1861Y1121D01*
X1605Y1097D02*
X1606Y1097D01*
X1684*
X1527Y553D02*
Y1086D01*
X1545Y1004D02*
X1588Y1047D01*
X1545Y560D02*
Y1004D01*
X1563Y568D02*
Y653D01*
X1588Y678*
X1527Y1086D02*
X1588Y1147D01*
X1605*
X1607Y580D02*
X1675D01*
X1605Y578D02*
X1607Y580D01*
X2234Y1269D02*
X2236D01*
X2248Y1256*
X2208Y1193D02*
X2440D01*
X2466Y1167D02*
X2699D01*
X2351Y1029D02*
X2351Y1029D01*
X2236Y1042D02*
X2248Y1029D01*
X2351*
X2725Y1141D02*
X2827D01*
X2827Y1141*
X2236Y1499D02*
X2248Y1486D01*
X2351*
X2351Y1486*
X2698Y1395D02*
X2711Y1382D01*
X2586Y1395D02*
X2698D01*
X2722Y1370D02*
X2826D01*
X2580Y1401D02*
X2586Y1395D01*
X2826Y1370D02*
X2826Y1370D01*
X2523Y1449D02*
X2523Y1448D01*
X2216Y1449D02*
X2523D01*
X2248Y1256D02*
X2351D01*
X2351Y1256*
X2711Y696D02*
X2724Y684D01*
X2826D02*
X2826Y684D01*
X2382Y1421D02*
X2471D01*
X2377Y1417D02*
X2382Y1421D01*
X2291Y1417D02*
X2377D01*
X2471Y1421D02*
X2472Y1421D01*
X2517Y1326D02*
X2530Y1339D01*
Y1397*
X3441Y1607D02*
X3453Y1620D01*
Y1622*
X2515Y1326D02*
X2517D01*
X2220Y1165D02*
X2362D01*
X2503Y1490D02*
X2515Y1502D01*
X2408Y1490D02*
X2503D01*
X2404Y1486D02*
X2408Y1490D01*
X2404Y1256D02*
X2417Y1269D01*
X2511*
X2515Y1273*
X2503Y798D02*
X2515Y811D01*
X2408Y798D02*
X2503D01*
X2404Y794D02*
X2408Y798D01*
X2404Y1256D02*
Y1339D01*
Y1029D02*
Y1112D01*
Y1029D02*
X2417Y1042D01*
X2511*
X2515Y1046*
X2879Y913D02*
Y996D01*
Y913D02*
X2892Y926D01*
X2987*
X2991Y930*
X2880Y1141D02*
Y1224D01*
Y1141D02*
X2893Y1154D01*
X2988*
X2992Y1158*
X2879Y1370D02*
X2892Y1382D01*
X2987*
X2991Y1386*
X2879Y1370D02*
Y1452D01*
Y684D02*
Y766D01*
Y684D02*
X2892Y696D01*
X2987*
X2991Y700*
X2757Y1104D02*
X3009D01*
X2755Y1106D02*
X2757Y1104D01*
X2528Y1086D02*
X2735D01*
X2748Y1074D02*
X3241D01*
X3278Y1111D02*
X3287D01*
X3169Y901D02*
Y964D01*
X3285Y873D02*
X3287Y875D01*
X3000Y993D02*
X3287D01*
X2991Y983D02*
X3000Y993D01*
X2994Y756D02*
X3287D01*
X2991Y753D02*
X2994Y756D01*
X3626Y188D02*
X3639Y176D01*
Y156D02*
Y176D01*
Y156D02*
X3667Y129D01*
Y107D02*
Y129D01*
Y107D02*
X3680Y94D01*
X1405Y374D02*
X1455Y324D01*
X3241Y1074D02*
X3278Y1111D01*
X2525Y873D02*
X3285D01*
X2515Y864D02*
X2525Y873D01*
X2515Y1099D02*
X2528Y1086D01*
X2735D02*
X2748Y1074D01*
X2992Y1211D02*
X2994D01*
X3119Y1336*
Y1353D02*
X3131Y1366D01*
X3119Y1336D02*
Y1353D01*
X2991Y1439D02*
X2993D01*
X3057Y1504D02*
Y1508D01*
X2993Y1439D02*
X3057Y1504D01*
Y1508D02*
X3109Y1560D01*
X3285*
X3296Y1570*
X3185Y1527D02*
X3244D01*
X3247Y1523D02*
X3266D01*
X2517Y1556D02*
X2616Y1654D01*
X2515Y1556D02*
X2517D01*
X2616Y1654D02*
X3605D01*
X3626Y188D02*
Y285D01*
X3132Y1444D02*
Y1527D01*
X3131Y1444D02*
X3132Y1444D01*
X3131Y1366D02*
Y1444D01*
X3318Y1437D02*
Y1439D01*
X3296Y1415D02*
X3318Y1437D01*
X3336Y1457D02*
Y1479D01*
X3318Y1439D02*
X3336Y1457D01*
Y1479D02*
X3349Y1492D01*
X3296Y1413D02*
Y1415D01*
X3336Y1504D02*
X3349Y1492D01*
X3336Y1504D02*
Y1526D01*
X3318Y1544D02*
X3336Y1526D01*
X3318Y1544D02*
Y1546D01*
X3296Y1568D02*
X3318Y1546D01*
X3296Y1568D02*
Y1570D01*
X3266Y1523D02*
X3296Y1494D01*
Y1492D02*
Y1494D01*
X3453Y1460D02*
Y1622D01*
X3616Y1507D02*
Y1509D01*
X3638Y1532D02*
Y1533D01*
X3656Y1551*
X3616Y1509D02*
X3638Y1532D01*
X3656Y1551D02*
Y1573D01*
X3669Y1586*
X3616Y1663D02*
X3638Y1640D01*
Y1639D02*
X3656Y1621D01*
X3616Y1663D02*
Y1665D01*
X3656Y1599D02*
Y1621D01*
Y1599D02*
X3669Y1586D01*
X3638Y1639D02*
Y1640D01*
X3506Y1622D02*
X3559D01*
X3586Y1618D02*
X3616Y1588D01*
X3562Y1618D02*
X3586D01*
X3616Y1586D02*
Y1588D01*
X3559Y1622D02*
X3562Y1618D01*
X3185Y1364D02*
Y1366D01*
Y1364D02*
X3272Y1276D01*
Y1243D02*
Y1276D01*
X3385Y1170D02*
Y1191D01*
X3362Y1214D02*
X3385Y1191D01*
X3362Y1214D02*
Y1400D01*
X3349Y1413D02*
X3362Y1400D01*
X3503Y1170D02*
Y1457D01*
X3506Y1460*
X3602Y1229D02*
X3656Y1283D01*
Y1495*
X2559Y55D02*
X2753D01*
X2767Y69*
Y70*
X2790Y92*
X3224Y337D02*
Y371D01*
X2732Y162D02*
X2737Y157D01*
X2795Y162D02*
Y216D01*
X2790Y157D02*
X2795Y162D01*
X2737Y91D02*
Y157D01*
G54D17*
X3755Y698D03*
Y608D03*
G54D18*
X1157Y1118D03*
Y1065D03*
X1832Y191D03*
Y138D03*
X652Y1205D03*
Y1152D03*
X1200Y1562D03*
Y1508D03*
X1153Y1298D03*
Y1245D03*
X1515Y1562D03*
Y1508D03*
X1818Y1562D03*
Y1508D03*
X1299Y1621D03*
Y1567D03*
X1251Y1357D03*
Y1304D03*
X1614Y1621D03*
Y1567D03*
X1917Y1621D03*
Y1567D03*
X1102Y1508D03*
Y1562D03*
X1055Y1245D03*
Y1298D03*
X1417Y1508D03*
Y1562D03*
X1720Y1508D03*
Y1562D03*
X1139Y583D03*
Y636D03*
X2711Y1382D03*
Y1436D03*
X2991Y1386D03*
Y1439D03*
X2711Y696D03*
Y750D03*
X2991Y700D03*
Y753D03*
X2712Y1154D03*
Y1207D03*
X2992Y1158D03*
Y1211D03*
X2236Y807D03*
Y860D03*
X2515Y811D03*
Y864D03*
X2236Y1499D03*
Y1552D03*
X2515Y1502D03*
Y1556D03*
X2236Y1269D03*
Y1322D03*
X2515Y1273D03*
Y1326D03*
X2711Y926D03*
Y979D03*
X2991Y930D03*
Y983D03*
X2236Y1042D03*
Y1095D03*
X2515Y1046D03*
Y1099D03*
X2275Y359D03*
Y306D03*
G54D19*
X1951Y139D03*
Y190D03*
G54D23*
X1605Y1047D03*
Y1097D03*
Y1147D03*
Y1197D03*
X1819Y1047D03*
Y1097D03*
Y1147D03*
Y1197D03*
X621Y621D03*
Y671D03*
Y721D03*
Y771D03*
X835Y621D03*
Y671D03*
Y721D03*
Y771D03*
X1605Y578D03*
Y628D03*
Y678D03*
Y728D03*
X1819Y578D03*
Y628D03*
Y678D03*
Y728D03*
G54D24*
X1696Y970D03*
X1750D03*
X1686Y826D03*
X1739D03*
X1002Y1051D03*
X949D03*
X599Y1022D03*
X652D03*
X599Y913D03*
X652D03*
X933Y645D03*
X986D03*
X3774Y476D03*
X3721D03*
X3296Y1413D03*
X3349D03*
X3296Y1570D03*
X3349D03*
X3296Y1492D03*
X3349D03*
X3131Y1366D03*
X3185D03*
X3185Y1527D03*
X3132D03*
Y1444D03*
X3185D03*
X3506Y1622D03*
X3453D03*
Y1460D03*
X3506D03*
X3453Y1539D03*
X3506D03*
X2879Y1452D03*
X2826D03*
Y1370D03*
X2879D03*
Y766D03*
X2826D03*
Y684D03*
X2879D03*
X2880Y1224D03*
X2827D03*
Y1141D03*
X2880D03*
X2404Y876D03*
X2351D03*
Y794D03*
X2404D03*
Y1568D03*
X2351D03*
Y1486D03*
X2404D03*
Y1339D03*
X2351D03*
Y1256D03*
X2404D03*
X2879Y996D03*
X2826D03*
Y913D03*
X2879D03*
X3616Y1665D03*
X3669D03*
X3616Y1507D03*
X3669D03*
X3616Y1586D03*
X3669D03*
X2404Y1112D03*
X2351D03*
Y1029D03*
X2404D03*
X3626Y389D03*
X3680D03*
X3626Y94D03*
X3680D03*
X3626Y188D03*
X3680D03*
X3626Y283D03*
X3680D03*
X3166Y377D03*
X3219D03*
X2737Y94D03*
X2790D03*
X2737Y157D03*
X2790D03*
G54D25*
X767Y1059D03*
X846Y1021D03*
Y1096D03*
X1078Y940D03*
X1157Y903D03*
Y978D03*
G54D28*
X3235Y49D03*
G54D29*
X3061Y370D03*
G54D32*
X3337Y361D03*
X3387D03*
X3437D03*
X3487D03*
X3537D03*
G54D33*
X3437Y126D03*
G54D58*
X2375Y44D03*
X2421Y480D03*
X1612Y134D03*
X1228Y648D03*
X1684Y146D03*
X1500Y53D03*
X2330Y352D03*
X2329Y306D03*
X2395Y520D03*
Y559D03*
X1302Y682D03*
X2726Y450D03*
X1881Y728D03*
X1905Y884D03*
X1909Y787D03*
X2121Y1624D03*
X1353Y1172D03*
X969Y956D03*
X963Y740D03*
X1499Y834D03*
X1143Y45D03*
X771Y732D03*
X751Y818D03*
X871Y1166D03*
X1910Y665D03*
X2157Y610D03*
X1618Y937D03*
X2496Y988D03*
X2429Y1393D03*
X3245Y233D03*
Y275D03*
X3199D03*
Y233D03*
Y190D03*
Y148D03*
X3245D03*
X3291D03*
Y190D03*
X3245D03*
X3291Y233D03*
Y275D03*
X2838Y442D03*
X3090Y67D03*
X3048Y256D03*
X2404Y984D03*
X2225Y650D03*
X2299Y622D03*
X1416Y1433D03*
X2732Y216D03*
X1697Y1303D03*
X2293Y884D03*
X1036Y1649D03*
X1060Y1385D03*
X3054Y509D03*
X1969Y1445D03*
X2067Y1197D03*
X539Y615D03*
X523Y845D03*
X777Y1177D03*
X2308Y1070D03*
X2539Y1200D03*
X2459Y1579D03*
X3051Y1568D03*
X1624Y839D03*
X2615Y778D03*
X2625Y684D03*
X2531Y769D03*
X2588Y937D03*
X2262Y941D03*
X2836Y587D03*
X2750D03*
X2177Y1043D03*
X1677Y629D03*
Y678D03*
X1308Y1440D03*
X1762Y1446D03*
X929Y810D03*
X889Y689D03*
X2601Y1342D03*
X2767Y1466D03*
X2192Y1137D03*
X2344Y982D03*
X2119Y610D03*
X2081D03*
X2005D03*
X2177Y728D03*
X2397Y700D03*
X2342Y736D03*
X2043Y610D03*
X2342Y618D03*
X1314Y1062D03*
X1267Y1049D03*
X1299Y740D03*
X1287Y828D03*
X1479Y1452D03*
Y1325D03*
X1157Y1621D03*
X2094Y452D03*
X1578Y984D03*
X1755Y913D03*
X1685Y1049D03*
X1677Y582D03*
X2887Y198D03*
X3042Y203D03*
X2968Y365D03*
X2956Y442D03*
X2633Y108D03*
X2623Y438D03*
X1490Y479D03*
X1343Y588D03*
X1137Y531D03*
X988Y417D03*
Y282D03*
Y157D03*
Y35D03*
X1685Y1098D03*
Y1145D03*
X2228Y456D03*
X2185Y459D03*
X2047Y456D03*
X1917Y964D03*
X2574Y1401D03*
X2523Y1448D03*
X1967Y610D03*
X2196Y1389D03*
X2291Y1417D03*
X2472Y1421D03*
X2362Y1165D03*
X3169Y964D03*
X3011Y1102D03*
X2755Y1106D03*
X3196Y692D03*
X3169Y901D03*
X1405Y374D03*
X3098Y724D03*
X3157Y723D03*
X3244Y1527D03*
X3559Y1622D03*
X2559Y55D03*
X2944Y314D03*
X2795Y216D03*
G54D59*
X3224Y337D02*
X3337D01*
X3061D02*
X3224D01*
X3560Y101D02*
X3602Y59D01*
X3680Y188D02*
Y389D01*
Y177D02*
X3689D01*
X3387Y331D02*
X3560Y157D01*
Y101D02*
Y157D01*
X3602Y993D02*
Y1111D01*
Y875D02*
Y993D01*
Y756D02*
Y875D01*
Y638D02*
Y756D01*
Y501D02*
Y520D01*
X2944Y314D02*
X2986D01*
X3008Y337D02*
X3060D01*
X3602Y59D02*
X3704D01*
X3713Y68*
X3689Y177D02*
X3713Y153D01*
Y68D02*
Y153D01*
X3387Y331D02*
Y361D01*
X3602Y501D02*
X3626Y476D01*
Y389D02*
Y476D01*
X3060Y337D02*
X3061Y337D01*
X2986Y314D02*
X3008Y337D01*
G54D62*
X3858Y235D03*
Y1514D03*
G54D63*
X3287Y1229D03*
Y1111D03*
Y993D03*
Y875D03*
Y756D03*
Y638D03*
Y520D03*
X3385Y1170D03*
Y1052D03*
Y934D03*
Y815D03*
Y697D03*
Y579D03*
X3503Y1170D03*
Y1052D03*
Y934D03*
Y815D03*
Y697D03*
Y579D03*
X3602Y1229D03*
Y1111D03*
Y993D03*
Y875D03*
Y756D03*
Y638D03*
Y520D03*
G54D64*
X2081Y134D03*
Y154D03*
Y174D03*
Y193D03*
X2203Y134D03*
Y154D03*
Y174D03*
Y193D03*
M02*