%FSLAX23Y23*%
%MOIN*%
%SFA1B1*%

%IPPOS*%
%ADD36R,0.061150X0.065090*%
%ADD37R,0.059180X0.051310*%
%ADD38R,0.047370X0.043430*%
%ADD39R,0.045400X0.041470*%
%ADD40R,0.126110X0.047370*%
%ADD41R,0.259970X0.226500*%
%ADD42R,0.043000X0.024540*%
%ADD43O,0.065090X0.031620*%
%ADD44R,0.043430X0.047370*%
%ADD45R,0.043430X0.039500*%
%ADD46R,0.039500X0.043430*%
%ADD47R,0.102490X0.037920*%
%ADD48R,0.088710X0.053280*%
%ADD49R,0.053280X0.088710*%
%ADD50R,0.061150X0.019810*%
%ADD51R,0.019810X0.061150*%
%ADD52R,0.031620X0.090680*%
%ADD53R,0.133980X0.090680*%
%ADD54R,0.222570X0.145800*%
%ADD55R,0.031620X0.047370*%
%ADD56C,0.137920*%
%ADD57C,0.094610*%
%ADD58C,0.030000*%
%LNpedalbox-1*%
%LPD*%
G54D36*
X2912Y62D03*
X3028D03*
G54D37*
X2570Y397D03*
Y307D03*
X1216Y521D03*
Y431D03*
X1523Y412D03*
Y322D03*
G54D38*
X1220Y1621D03*
Y1567D03*
X1318Y1562D03*
Y1508D03*
X1417D03*
Y1562D03*
Y1272D03*
Y1325D03*
X1220Y1384D03*
Y1331D03*
X1318Y1325D03*
Y1272D03*
X3113Y912D03*
Y859D03*
Y1076D03*
Y1023D03*
X3114Y1189D03*
Y1243D03*
X2559Y168D03*
Y115D03*
X2618Y609D03*
Y556D03*
X2984Y669D03*
Y616D03*
X1145Y99D03*
Y152D03*
X1771Y170D03*
Y223D03*
X1775Y331D03*
Y384D03*
X1102Y451D03*
Y398D03*
X1854Y325D03*
Y272D03*
X2464Y346D03*
Y293D03*
X2944Y178D03*
Y231D03*
X2663Y942D03*
Y996D03*
G54D39*
X2984Y499D03*
Y550D03*
G54D40*
X3049Y328D03*
Y148D03*
G54D41*
X3303Y238D03*
G54D42*
X2015Y840D03*
Y890D03*
Y940D03*
Y990D03*
Y1040D03*
Y1090D03*
Y1140D03*
X1811Y840D03*
Y890D03*
Y940D03*
Y990D03*
Y1040D03*
Y1090D03*
Y1140D03*
X681Y1027D03*
Y977D03*
Y927D03*
Y877D03*
Y827D03*
Y777D03*
Y727D03*
X885Y1027D03*
Y977D03*
Y927D03*
Y877D03*
Y827D03*
Y777D03*
Y727D03*
G54D43*
X2485Y1133D03*
Y1183D03*
Y1233D03*
Y1283D03*
X2270Y1133D03*
Y1183D03*
Y1233D03*
Y1283D03*
X2485Y696D03*
Y746D03*
Y796D03*
Y846D03*
X2270Y696D03*
Y746D03*
Y796D03*
Y846D03*
X1203Y1137D03*
Y1087D03*
Y1037D03*
Y987D03*
X1418Y1137D03*
Y1087D03*
Y1037D03*
Y987D03*
X1207Y846D03*
Y796D03*
Y746D03*
Y696D03*
X1422Y846D03*
Y796D03*
Y746D03*
Y696D03*
X2914Y507D03*
Y557D03*
Y607D03*
Y657D03*
X2699Y507D03*
Y557D03*
Y607D03*
Y657D03*
G54D44*
X2404Y931D03*
X2351D03*
X2404Y1043D03*
X2351D03*
X2920Y826D03*
X2867D03*
X1504Y549D03*
X1558D03*
X2770Y385D03*
X2717D03*
X2900Y724D03*
X2847D03*
X3016Y401D03*
X3069D03*
X1071Y255D03*
X1125D03*
X1341Y311D03*
X1288D03*
X1634Y230D03*
X1687D03*
X3206Y62D03*
X3153D03*
X3830Y47D03*
X3777D03*
X2864Y1350D03*
X2917D03*
G54D45*
X2763Y1005D03*
Y931D03*
X2842Y968D03*
X2952Y1005D03*
Y931D03*
X3031Y968D03*
X2763Y1261D03*
Y1187D03*
X2842Y1224D03*
X2952Y1261D03*
Y1187D03*
X3031Y1224D03*
G54D46*
X1407Y523D03*
X1332D03*
X1370Y444D03*
X1661Y409D03*
X1698Y330D03*
X1624D03*
G54D47*
X1242Y253D03*
X1395D03*
X1242Y203D03*
X1395D03*
X1242Y153D03*
X1395D03*
X1242Y103D03*
X1395D03*
X1242Y53D03*
X1395D03*
G54D48*
X2893Y385D03*
G54D49*
X3106Y629D03*
Y535D03*
X2472Y98D03*
G54D50*
X2387Y155D03*
Y175D03*
Y194D03*
Y214D03*
Y234D03*
Y253D03*
Y273D03*
Y293D03*
Y312D03*
Y332D03*
Y352D03*
Y372D03*
Y391D03*
Y411D03*
Y431D03*
Y450D03*
X1935D03*
Y431D03*
Y411D03*
Y391D03*
Y372D03*
Y352D03*
Y332D03*
Y312D03*
Y293D03*
Y273D03*
Y253D03*
Y234D03*
Y214D03*
Y194D03*
Y175D03*
Y155D03*
G54D51*
X2309Y529D03*
X2289D03*
X2269D03*
X2250D03*
X2230D03*
X2210D03*
X2190D03*
X2171D03*
X2151D03*
X2131D03*
X2112D03*
X2092D03*
X2072D03*
X2053D03*
X2033D03*
X2013D03*
Y76D03*
X2033D03*
X2053D03*
X2072D03*
X2092D03*
X2112D03*
X2131D03*
X2151D03*
X2171D03*
X2190D03*
X2210D03*
X2230D03*
X2250D03*
X2269D03*
X2289D03*
X2309D03*
G54D52*
X2864Y300D03*
X2814D03*
X2764D03*
X2714D03*
X2664D03*
G54D53*
X2764Y65D03*
G54D54*
X3590Y83D03*
Y290D03*
G54D55*
X1102Y1112D03*
X1064D03*
X1027D03*
Y1003D03*
X1102D03*
X1100Y817D03*
X1062D03*
X1025D03*
Y709D03*
X1100D03*
G54D56*
X3858Y235D03*
Y1514D03*
G54D57*
X3287Y1229D03*
Y1111D03*
Y993D03*
Y875D03*
Y756D03*
Y638D03*
Y520D03*
X3385Y1170D03*
Y1052D03*
Y934D03*
Y815D03*
Y697D03*
Y579D03*
X3503Y1170D03*
Y1052D03*
Y934D03*
Y815D03*
Y697D03*
Y579D03*
X3602Y1229D03*
Y1111D03*
Y993D03*
Y875D03*
Y756D03*
Y638D03*
Y520D03*
G54D58*
X2375Y44D03*
X2421Y480D03*
X1612Y134D03*
X1228Y648D03*
X1684Y146D03*
X1500Y53D03*
X2330Y352D03*
X2329Y306D03*
X2395Y520D03*
Y559D03*
X1302Y682D03*
X2726Y450D03*
X1881Y728D03*
X1905Y884D03*
X1909Y787D03*
X2121Y1624D03*
X1353Y1172D03*
X969Y956D03*
X963Y740D03*
X1499Y834D03*
X1143Y45D03*
X771Y732D03*
X751Y818D03*
X871Y1166D03*
X1910Y665D03*
X2157Y610D03*
X1618Y937D03*
X2496Y988D03*
X2429Y1393D03*
X3245Y233D03*
Y275D03*
X3199D03*
Y233D03*
Y190D03*
Y148D03*
X3245D03*
X3291D03*
Y190D03*
X3245D03*
X3291Y233D03*
Y275D03*
X2838Y442D03*
X3090Y67D03*
X3048Y256D03*
X2404Y984D03*
X2225Y650D03*
X2299Y622D03*
X1416Y1433D03*
X2732Y216D03*
X1697Y1303D03*
X2293Y884D03*
X1036Y1649D03*
X1060Y1385D03*
X3054Y509D03*
X1969Y1445D03*
X2067Y1197D03*
X539Y615D03*
X523Y845D03*
X777Y1177D03*
X2308Y1070D03*
X2539Y1200D03*
X2459Y1579D03*
X3051Y1568D03*
X1624Y839D03*
X2615Y778D03*
X2625Y684D03*
X2531Y769D03*
X2588Y937D03*
X2262Y941D03*
X2836Y587D03*
X2750D03*
X2177Y1043D03*
X1677Y629D03*
Y678D03*
X1308Y1440D03*
X1762Y1446D03*
X929Y810D03*
X889Y689D03*
X2601Y1342D03*
X2767Y1466D03*
X2192Y1137D03*
X2344Y982D03*
X2119Y610D03*
X2081D03*
X2005D03*
X2177Y728D03*
X2397Y700D03*
X2342Y736D03*
X2043Y610D03*
X2342Y618D03*
X1314Y1062D03*
X1267Y1049D03*
X1299Y740D03*
X1287Y828D03*
X1479Y1452D03*
Y1325D03*
X1157Y1621D03*
X2094Y452D03*
X1578Y984D03*
X1755Y913D03*
X1685Y1049D03*
X1677Y582D03*
X2887Y198D03*
X3042Y203D03*
X2968Y365D03*
X2956Y442D03*
X2633Y108D03*
X2623Y438D03*
X1490Y479D03*
X1343Y588D03*
X1137Y531D03*
X988Y417D03*
Y282D03*
Y157D03*
Y35D03*
X1685Y1098D03*
Y1145D03*
X2228Y456D03*
X2185Y459D03*
X2047Y456D03*
X1917Y964D03*
X2574Y1401D03*
X2523Y1448D03*
X1967Y610D03*
X2196Y1389D03*
X2291Y1417D03*
X2472Y1421D03*
X2362Y1165D03*
X3169Y964D03*
X3011Y1102D03*
X2755Y1106D03*
X3196Y692D03*
X3169Y901D03*
X1405Y374D03*
X3098Y724D03*
X3157Y723D03*
X3244Y1527D03*
X3559Y1622D03*
X2559Y55D03*
X2944Y314D03*
X2795Y216D03*
M02*