%FSLAX23Y23*%
%MOIN*%
%SFA1B1*%

%IPPOS*%
%ADD22R,0.045400X0.041470*%
%ADD23R,0.041470X0.045400*%
%ADD24R,0.086740X0.157610*%
%ADD25R,0.086740X0.067060*%
%ADD27C,0.066270*%
%ADD28C,0.047370*%
%ADD29C,0.111940*%
%ADD30R,0.111940X0.111940*%
%ADD31C,0.058000*%
%LNpcb1-1*%
%LPD*%
G54D22*
X1325Y149D03*
Y200D03*
G54D23*
X369Y2393D03*
X420D03*
X369Y1440D03*
X420D03*
X369Y947D03*
X420D03*
X369Y465D03*
X420D03*
X1650Y215D03*
X1599D03*
X420Y1930D03*
X369D03*
G54D24*
X2195Y225D03*
G54D25*
X2444Y134D03*
Y225D03*
Y315D03*
G54D27*
X1157Y1830D03*
X1257D03*
X2310Y2575D03*
X2410D03*
X1663D03*
X1763D03*
X980D03*
X1080D03*
X1885Y1505D03*
X1985D03*
X1885Y1230D03*
X1985D03*
X1157Y720D03*
X1257D03*
X1220Y465D03*
X1320D03*
X925Y1230D03*
X1025D03*
X920Y1505D03*
X1020D03*
X765Y2350D03*
X665D03*
X470Y2575D03*
X370D03*
X2025Y2350D03*
X1925D03*
X2655D03*
X2555D03*
X1435D03*
X1335D03*
X2071Y1915D03*
X1971D03*
X1615Y1830D03*
X1515D03*
X680Y1905D03*
X580D03*
X2353Y2100D03*
X2253D03*
X1790D03*
X1690D03*
X1080D03*
X980D03*
X250D03*
X150D03*
X2353Y1557D03*
X2253D03*
X705Y1470D03*
X605D03*
X2655Y1850D03*
X2555D03*
X250Y1615D03*
X150D03*
X2340Y1015D03*
X2240D03*
X2030Y835D03*
X1930D03*
X925Y830D03*
X825D03*
X660Y1045D03*
X560D03*
X2655Y1250D03*
X2555D03*
X1615Y1005D03*
X1515D03*
X1257D03*
X1157D03*
X250Y1130D03*
X150D03*
X2350Y560D03*
X2250D03*
X1935Y520D03*
X1835D03*
X760Y545D03*
X660D03*
X2655Y750D03*
X2555D03*
X1620Y655D03*
X1520D03*
X250Y645D03*
X150D03*
G54D28*
X1798Y1037D03*
X957D03*
Y1718D03*
X1798D03*
G54D29*
X1198Y1290D03*
X1557D03*
Y1465D03*
G54D30*
X1198Y1465D03*
G54D31*
X1724Y141D03*
X2450Y415D03*
X2720Y315D03*
X1320Y1260D03*
X1450Y1265D03*
X1325Y280D03*
X945Y385D03*
X1250Y55D03*
X835Y65D03*
X680Y150D03*
X420Y2325D03*
X2155Y80D03*
X420Y2010D03*
Y1850D03*
Y1505D03*
Y1360D03*
Y1035D03*
Y865D03*
Y545D03*
X425Y380D03*
X2430Y2350D03*
X2270D03*
M02*