%FSLAX23Y23*%
%MOIN*%
%SFA1B1*%

%IPPOS*%
%ADD16R,0.037400X0.033470*%
%ADD17R,0.033470X0.037400*%
%ADD18R,0.078740X0.149610*%
%ADD19R,0.078740X0.059060*%
%ADD32C,0.020000*%
%ADD33C,0.058270*%
%ADD34C,0.039370*%
%ADD35C,0.103940*%
%ADD36R,0.103940X0.103940*%
%ADD37C,0.050000*%
%LNpcb1-1*%
%LPD*%
G54D16*
X1325Y149D03*
Y200D03*
G54D17*
X369Y2393D03*
X420D03*
X369Y1440D03*
X420D03*
X369Y947D03*
X420D03*
X369Y465D03*
X420D03*
X1650Y215D03*
X1599D03*
X420Y1930D03*
X369D03*
G54D18*
X2195Y225D03*
G54D19*
X2444Y134D03*
Y225D03*
Y315D03*
G54D32*
X1790Y2100D02*
X2253D01*
X2195Y225D02*
X2434D01*
X1324Y149D02*
X1325Y150D01*
Y149D02*
X1326D01*
X1720Y145D02*
X1724Y141D01*
X1331Y145D02*
X1720D01*
X1326Y150D02*
X1331Y145D01*
X1662Y201D02*
X1890D01*
X1315Y1265D02*
X1450D01*
X2379Y80D02*
X2439Y140D01*
X1020Y1505D02*
X1115Y1600D01*
X1790*
X2450Y405D02*
X2455Y410D01*
X2695*
X2720Y385*
Y315D02*
Y385D01*
X1325Y200D02*
Y275D01*
X1250Y125D02*
Y250D01*
Y55D02*
Y125D01*
X1274Y149*
X1324*
X945Y385D02*
X1115D01*
X940D02*
X945D01*
X1115D02*
X1250Y250D01*
X765Y65D02*
X835D01*
X680Y150D02*
X765Y65D01*
X1855Y1205D02*
X1880Y1230D01*
X1050Y1205D02*
X1855D01*
X1025Y1230D02*
X1050Y1205D01*
X369Y2395D02*
X381Y2407D01*
X368Y2395D02*
X369Y2395D01*
Y2393D02*
Y2395D01*
X660Y2355D02*
X665D01*
X660D02*
X665Y2350D01*
X381Y2435D02*
X395Y2450D01*
X381Y2407D02*
Y2435D01*
X365Y2395D02*
X368D01*
X395Y2450D02*
X565D01*
X660Y2355*
X420Y2320D02*
Y2325D01*
Y2393*
X2515Y95D02*
Y254D01*
X2455Y35D02*
X2515Y95D01*
X2056Y35D02*
X2455D01*
X2155Y80D02*
X2379D01*
X420Y1850D02*
Y1930D01*
X420Y1500D02*
X425Y1505D01*
X420Y1360D02*
Y1440D01*
X1505Y1005D02*
X1515Y1015D01*
X1257Y1005D02*
X1505D01*
X2439Y140D02*
X2440D01*
X2460Y309D02*
X2515Y254D01*
X2460Y309D02*
Y315D01*
X1890Y201D02*
X2056Y35D01*
X1650Y213D02*
X1662Y201D01*
X1650Y213D02*
Y215D01*
X1587Y212D02*
X1595Y219D01*
Y220*
X1336Y212D02*
X1587D01*
X1147Y1015D02*
X1160D01*
X1032Y1130D02*
X1147Y1015D01*
X250Y1130D02*
X1032D01*
X1790Y1600D02*
X1875Y1515D01*
Y1510D02*
Y1515D01*
X915Y1505D02*
Y1510D01*
X250Y1615D02*
X810D01*
X915Y1510*
X980Y2100D02*
X985Y2105D01*
X250Y2100D02*
X980D01*
X1965Y1915D02*
X1970Y1910D01*
X1670Y1830D02*
X1755Y1915D01*
X1965*
X1615Y1830D02*
X1670D01*
X1515D02*
X1520Y1835D01*
X1257Y1830D02*
X1515D01*
X1155D02*
X1160Y1835D01*
X755Y1830D02*
X1155D01*
X680Y1905D02*
X755Y1830D01*
X705Y1460D02*
X930Y1235D01*
X705Y1460D02*
Y1470D01*
X1922Y832D02*
X1925Y835D01*
X927Y832D02*
X1922D01*
X925Y830D02*
X927Y832D01*
X830Y830D02*
Y830D01*
X660Y1000D02*
X830Y830D01*
X660Y1000D02*
Y1045D01*
X1257Y720D02*
X1455D01*
X1520Y655*
X1525*
X340Y645D02*
X415Y720D01*
X1155*
X250Y645D02*
X340D01*
X1935Y520D02*
X2210D01*
X2250Y560*
X2255*
X1780Y465D02*
X1835Y520D01*
X1320Y465D02*
X1780D01*
X840D02*
X1220D01*
X760Y545D02*
X840Y465D01*
X415Y950D02*
X420Y945D01*
X420Y469D02*
X425Y465D01*
Y380D02*
Y465D01*
X585Y1910D02*
Y1920D01*
X480Y2065D02*
X580Y1964D01*
Y1910D02*
Y1964D01*
X580Y1910D02*
X580Y1910D01*
X395Y2065D02*
X480D01*
X369Y2039D02*
X395Y2065D01*
X369Y1930D02*
Y2039D01*
Y1930D02*
X370Y1930D01*
X420Y2393D02*
X420Y2393D01*
X600Y1475D02*
X605D01*
X520Y1555D02*
X600Y1475D01*
X395Y1555D02*
X520D01*
X369Y1529D02*
X395Y1555D01*
X369Y1445D02*
Y1529D01*
X420Y1440D02*
Y1500D01*
X420Y947D02*
Y1035D01*
Y947D02*
X420Y947D01*
X420Y865D02*
Y945D01*
X420Y465D02*
Y469D01*
X420Y540D02*
X420Y539D01*
Y469D02*
Y539D01*
X369Y1084D02*
X375Y1090D01*
X515*
X560Y1045*
X565*
X369Y947D02*
Y1084D01*
X610Y595D02*
X660Y545D01*
X375Y595D02*
X610D01*
X369Y589D02*
X375Y595D01*
X369Y465D02*
Y589D01*
X2655Y2345D02*
X2665Y2355D01*
X2075Y1911D02*
Y1915D01*
X2670Y2130D02*
Y2225D01*
X2655Y2240D02*
X2670Y2225D01*
X2655Y2240D02*
Y2345D01*
X2567Y2027D02*
X2670Y2130D01*
X2183Y2027D02*
X2567D01*
X2071Y1915D02*
X2183Y2027D01*
X2353Y1558D02*
X2355Y1560D01*
X2346Y1551D02*
X2353Y1558D01*
Y1557D02*
Y1558D01*
Y1633*
X2075Y1911D02*
X2353Y1633D01*
X2345Y565D02*
Y1015D01*
X2346Y1021D02*
Y1551D01*
X2340Y1015D02*
X2346Y1021D01*
X2345Y565D02*
X2350Y560D01*
Y309D02*
Y560D01*
Y309D02*
X2434Y225D01*
X2444*
X2425Y2350D02*
X2430Y2355D01*
X2270Y2350D02*
X2425D01*
G54D33*
X1157Y1830D03*
X1257D03*
X2310Y2575D03*
X2410D03*
X1663D03*
X1763D03*
X980D03*
X1080D03*
X1885Y1505D03*
X1985D03*
X1885Y1230D03*
X1985D03*
X1157Y720D03*
X1257D03*
X1220Y465D03*
X1320D03*
X925Y1230D03*
X1025D03*
X920Y1505D03*
X1020D03*
X765Y2350D03*
X665D03*
X470Y2575D03*
X370D03*
X2025Y2350D03*
X1925D03*
X2655D03*
X2555D03*
X1435D03*
X1335D03*
X2071Y1915D03*
X1971D03*
X1615Y1830D03*
X1515D03*
X680Y1905D03*
X580D03*
X2353Y2100D03*
X2253D03*
X1790D03*
X1690D03*
X1080D03*
X980D03*
X250D03*
X150D03*
X2353Y1557D03*
X2253D03*
X705Y1470D03*
X605D03*
X2655Y1850D03*
X2555D03*
X250Y1615D03*
X150D03*
X2340Y1015D03*
X2240D03*
X2030Y835D03*
X1930D03*
X925Y830D03*
X825D03*
X660Y1045D03*
X560D03*
X2655Y1250D03*
X2555D03*
X1615Y1005D03*
X1515D03*
X1257D03*
X1157D03*
X250Y1130D03*
X150D03*
X2350Y560D03*
X2250D03*
X1935Y520D03*
X1835D03*
X760Y545D03*
X660D03*
X2655Y750D03*
X2555D03*
X1620Y655D03*
X1520D03*
X250Y645D03*
X150D03*
G54D34*
X1798Y1037D03*
X957D03*
Y1718D03*
X1798D03*
G54D35*
X1198Y1290D03*
X1557D03*
Y1465D03*
G54D36*
X1198Y1465D03*
G54D37*
X1724Y141D03*
X2450Y415D03*
X2720Y315D03*
X1320Y1260D03*
X1450Y1265D03*
X1325Y280D03*
X945Y385D03*
X1250Y55D03*
X835Y65D03*
X680Y150D03*
X420Y2325D03*
X2155Y80D03*
X420Y2010D03*
Y1850D03*
Y1505D03*
Y1360D03*
Y1035D03*
Y865D03*
Y545D03*
X425Y380D03*
X2430Y2350D03*
X2270D03*
M02*