%FSLAX23Y23*%
%MOIN*%
%SFA1B1*%

%IPPOS*%
%ADD9500C,0.028000*%
%ADD9501C,0.038580*%
%ADD9502C,0.069290*%
%ADD9503C,0.135000*%
%LNpcb1-1*%
%LPD*%
G54D9500*
X425Y380D03*
X420Y545D03*
Y865D03*
Y1035D03*
Y1360D03*
Y1505D03*
X1320Y1260D03*
X1450Y1265D03*
X1325Y280D03*
X1250Y55D03*
X835Y65D03*
X680Y150D03*
X945Y385D03*
X1724Y141D03*
X2155Y80D03*
X2450Y415D03*
X2720Y315D03*
X2430Y2350D03*
X2270D03*
X420Y2325D03*
Y2010D03*
Y1850D03*
G54D9501*
X150Y645D03*
X250D03*
Y1130D03*
X150D03*
X560Y1045D03*
X660D03*
X825Y830D03*
X925D03*
X1157Y720D03*
X1257D03*
Y1005D03*
X1157D03*
X1515D03*
X1520Y655D03*
X1320Y465D03*
X1220D03*
X760Y545D03*
X660D03*
X925Y1230D03*
X1025D03*
X1020Y1505D03*
X920D03*
X705Y1470D03*
X605D03*
X1885Y1505D03*
X1985D03*
Y1230D03*
X1885D03*
X1930Y835D03*
X2030D03*
X2240Y1015D03*
X2340D03*
X2555Y1250D03*
X2655D03*
Y750D03*
X2555D03*
X2350Y560D03*
X2250D03*
X1935Y520D03*
X1835D03*
X1620Y655D03*
X1615Y1005D03*
X2253Y1557D03*
X2353D03*
X2555Y1850D03*
X2655D03*
Y2350D03*
X2555D03*
X2410Y2575D03*
X2310D03*
X2025Y2350D03*
X1925D03*
X1790Y2100D03*
X1690D03*
X1615Y1830D03*
X1971Y1915D03*
X2071D03*
X2253Y2100D03*
X2353D03*
X1763Y2575D03*
X1663D03*
X1435Y2350D03*
X1335D03*
X1080Y2575D03*
X980D03*
X765Y2350D03*
X665D03*
X470Y2575D03*
X370D03*
X250Y2100D03*
X150D03*
Y1615D03*
X250D03*
X580Y1905D03*
X680D03*
X980Y2100D03*
X1080D03*
X1157Y1830D03*
X1257D03*
X1515D03*
G54D9502*
X1198Y1290D03*
Y1465D03*
X1557D03*
Y1290D03*
G54D9503*
X957Y1037D03*
X1798D03*
Y1718D03*
X957D03*
M02*