%FSLAX23Y23*%
%MOIN*%
%SFA1B1*%

%IPPOS*%
%ADD15R,0.035430X0.039370*%
%ADD16R,0.037400X0.033470*%
%ADD17R,0.033470X0.037400*%
%ADD18R,0.078740X0.149610*%
%ADD19R,0.078740X0.059060*%
%ADD20O,0.057090X0.023620*%
%ADD32C,0.020000*%
%ADD33C,0.058270*%
%ADD34C,0.039370*%
%ADD35C,0.103940*%
%ADD36R,0.103940X0.103940*%
%ADD37C,0.050000*%
%LNpcb1-1*%
%LPD*%
G54D15*
X613Y295D03*
X666D03*
X821D03*
X768D03*
G54D16*
X1470Y94D03*
Y145D03*
X760Y165D03*
Y114D03*
X605Y109D03*
Y160D03*
G54D17*
X1645Y95D03*
X1594D03*
X420Y295D03*
X369D03*
X420Y791D03*
X369D03*
X420Y1287D03*
X369D03*
X420Y1783D03*
X369D03*
X420Y2250D03*
X369D03*
G54D18*
X2073Y205D03*
G54D19*
X1825Y114D03*
Y205D03*
Y295D03*
G54D20*
X902Y275D03*
Y225D03*
Y175D03*
Y125D03*
X1117Y275D03*
Y225D03*
Y175D03*
Y125D03*
G54D32*
X369Y2574D02*
X370Y2575D01*
X369Y2250D02*
X369Y2250D01*
Y2574*
X2145Y75D02*
Y81D01*
X1450Y655D02*
Y1251D01*
X1723Y143D02*
X1724Y142D01*
Y141D02*
Y381D01*
X1450Y655D02*
X1724Y381D01*
Y141D02*
X1732D01*
X1755Y118*
X1814*
X1471Y143D02*
X1723D01*
X1470Y145D02*
X1471Y143D01*
X770Y290D02*
Y298D01*
X1080Y2100D02*
X1690D01*
X1829Y290D02*
X1854Y315D01*
X1820Y290D02*
X1829D01*
X1854Y315D02*
Y354D01*
X1870Y370*
X2025*
X2070Y415*
X2450*
X2720Y280D02*
Y300D01*
X2684Y244D02*
X2720Y280D01*
X2544Y244D02*
X2684D01*
X2520Y220D02*
X2544Y244D01*
X2520Y95D02*
Y220D01*
X2460Y35D02*
X2520Y95D01*
X1703Y35D02*
X2460D01*
X1645Y93D02*
X1703Y35D01*
X1645Y93D02*
Y95D01*
X1311Y1260D02*
X1320D01*
X1281Y1290D02*
X1311Y1260D01*
X1210Y1290D02*
X1281D01*
X1205Y1285D02*
X1210Y1290D01*
X1100Y1055D02*
Y1293D01*
X1196Y1390*
X1330*
X1010Y965D02*
X1100Y1055D01*
X1446Y1255D02*
X1450Y1251D01*
X1445Y1255D02*
X1446D01*
X1189Y280D02*
X1325D01*
X1134Y225D02*
X1189Y280D01*
X1125Y225D02*
X1134D01*
X845Y385D02*
X945D01*
X783Y322D02*
X845Y385D01*
X783Y312D02*
Y322D01*
X770Y298D02*
X783Y312D01*
X1204Y55D02*
X1240D01*
X1134Y125D02*
X1204Y55D01*
X1117Y125D02*
X1134D01*
X1560Y1295D02*
X1564Y1290D01*
X1010Y470D02*
Y965D01*
X1645Y1290D02*
X1715Y1360D01*
X1564Y1290D02*
X1645D01*
X1715Y1360D02*
Y1460D01*
X1605Y1570D02*
X1715Y1460D01*
X1510Y1570D02*
X1605D01*
X1330Y1390D02*
X1510Y1570D01*
X1010Y470D02*
X1117Y362D01*
Y275D02*
Y362D01*
X1550Y1458D02*
Y1470D01*
X1390Y80D02*
Y1298D01*
X1550Y1458*
X1390Y80D02*
X1445Y25D01*
X1524*
X1585Y86*
X1587*
X1594Y93*
Y95*
X887Y270D02*
X900D01*
X876Y280D02*
X887Y270D01*
X834Y280D02*
X876D01*
X821Y293D02*
X834Y280D01*
X821Y293D02*
Y295D01*
X763Y166D02*
X821Y225D01*
X761Y165D02*
X763Y166D01*
X760Y165D02*
X761D01*
X753Y170D02*
X760D01*
X730Y215D02*
X746Y198D01*
Y177D02*
Y198D01*
Y177D02*
X753Y170D01*
X635Y215D02*
X730D01*
X613Y236D02*
X635Y215D01*
X613Y236D02*
Y295D01*
X763Y166D02*
X765Y165D01*
X613Y226D02*
X615Y225D01*
X740Y95D02*
X760Y115D01*
X619Y95D02*
X740D01*
X605Y109D02*
X619Y95D01*
X902Y225D02*
X919D01*
X969Y175D02*
X1115D01*
X919Y225D02*
X969Y175D01*
X902Y125D02*
X905D01*
X889D02*
X902D01*
X835Y65D02*
Y70D01*
X889Y125*
X664Y160D02*
X680Y145D01*
X553Y160D02*
X605D01*
Y160D02*
X664D01*
X771Y126D02*
X837D01*
X760Y114D02*
X771Y126D01*
X902Y175D02*
X905D01*
X885D02*
X902D01*
X837Y126D02*
X885Y175D01*
X762Y167D02*
X763Y166D01*
X821Y225D02*
X902D01*
X666Y295D02*
X768D01*
X420Y293D02*
X553Y160D01*
X420Y293D02*
Y295D01*
X2545Y1250D02*
X2550Y1255D01*
X1986Y940D02*
X2296Y1250D01*
X1770Y940D02*
X1986D01*
X1705Y1005D02*
X1770Y940D01*
X420Y2245D02*
Y2325D01*
X2116Y110D02*
X2145Y81D01*
X1829Y110D02*
X2116D01*
X1825Y114D02*
X1829Y110D01*
X1615Y1005D02*
X1705D01*
X420Y1505D02*
Y1845D01*
X420Y2010D02*
Y2250D01*
X420Y1845D02*
X425Y1850D01*
X420Y2010D02*
Y2015D01*
Y1850D02*
Y2010D01*
Y1360D02*
X1090D01*
X1148Y1418*
X1151*
X1195Y1462*
Y1465*
X1589Y94D02*
X1590Y95D01*
X1470Y94D02*
X1589D01*
X1715Y750D02*
X2550D01*
X1620Y655D02*
X1715Y750D01*
X420Y2010D02*
X420Y2010D01*
X420Y1850D02*
X420Y1849D01*
X420Y1350D02*
X420Y1349D01*
Y1287D02*
Y1349D01*
X420Y1035D02*
Y1285D01*
Y865D02*
X420Y864D01*
Y791D02*
Y864D01*
X420Y545D02*
Y790D01*
X425Y299D02*
Y380D01*
X420Y295D02*
X425Y299D01*
X145Y645D02*
X150Y640D01*
Y516D02*
Y640D01*
Y516D02*
X369Y296D01*
Y295D02*
Y296D01*
X150Y1130D02*
Y1135D01*
Y1012D02*
Y1130D01*
Y1012D02*
X369Y793D01*
Y791D02*
Y793D01*
X150Y1615D02*
Y1620D01*
Y1508D02*
Y1615D01*
Y1508D02*
X369Y1289D01*
Y1287D02*
Y1289D01*
X145Y2105D02*
X150Y2100D01*
Y2005D02*
Y2100D01*
Y2005D02*
X369Y1785D01*
Y1783D02*
Y1785D01*
X2225Y1005D02*
X2240Y1020D01*
X2200Y1005D02*
X2225D01*
X2030Y835D02*
X2200Y1005D01*
X2296Y1250D02*
X2545D01*
X2253Y1557D02*
X2255Y1559D01*
X1985Y1289D02*
X2253Y1557D01*
X1985Y1230D02*
Y1289D01*
X2255Y1559D02*
Y1565D01*
X2545Y1850D02*
X2555Y1860D01*
X1985Y1505D02*
X2330Y1850D01*
X2545*
X2025Y2350D02*
X2270D01*
X2435D02*
X2555D01*
X1825Y205D02*
X2073D01*
X2603Y274D02*
X2655Y325D01*
X2107Y274D02*
X2603D01*
X2075Y242D02*
X2107Y274D01*
X2075Y215D02*
Y242D01*
X2655Y325D02*
Y750D01*
X2353Y2111D02*
X2365Y2100D01*
X2350Y2115D02*
X2353Y2111D01*
Y2100D02*
Y2111D01*
Y2518*
X2410Y2575*
Y2585*
X2365Y2100D02*
X2405D01*
X2655Y1850*
Y1245D02*
X2660Y1250D01*
X2655D02*
Y1850D01*
Y750D02*
Y1245D01*
X1925Y2350D02*
X1930D01*
X1435D02*
X1925D01*
X1325D02*
X1330Y2355D01*
X765Y2350D02*
X1325D01*
X1763Y2575D02*
X2310D01*
X1660D02*
X1665Y2580D01*
X1080Y2575D02*
X1660D01*
X980D02*
X985D01*
X470D02*
X980D01*
G54D33*
X1157Y1830D03*
X1257D03*
X2310Y2575D03*
X2410D03*
X1663D03*
X1763D03*
X980D03*
X1080D03*
X1885Y1505D03*
X1985D03*
X1885Y1230D03*
X1985D03*
X1157Y720D03*
X1257D03*
X1220Y465D03*
X1320D03*
X925Y1230D03*
X1025D03*
X920Y1505D03*
X1020D03*
X765Y2350D03*
X665D03*
X470Y2575D03*
X370D03*
X2025Y2350D03*
X1925D03*
X2655D03*
X2555D03*
X1435D03*
X1335D03*
X2071Y1915D03*
X1971D03*
X1615Y1830D03*
X1515D03*
X680Y1905D03*
X580D03*
X2353Y2100D03*
X2253D03*
X1790D03*
X1690D03*
X1080D03*
X980D03*
X250D03*
X150D03*
X2353Y1557D03*
X2253D03*
X705Y1470D03*
X605D03*
X2655Y1850D03*
X2555D03*
X250Y1615D03*
X150D03*
X2340Y1015D03*
X2240D03*
X2030Y835D03*
X1930D03*
X925Y830D03*
X825D03*
X660Y1045D03*
X560D03*
X2655Y1250D03*
X2555D03*
X1615Y1005D03*
X1515D03*
X1257D03*
X1157D03*
X250Y1130D03*
X150D03*
X2350Y560D03*
X2250D03*
X1935Y520D03*
X1835D03*
X760Y545D03*
X660D03*
X2655Y750D03*
X2555D03*
X1620Y655D03*
X1520D03*
X250Y645D03*
X150D03*
G54D34*
X1798Y1037D03*
X957D03*
Y1718D03*
X1798D03*
G54D35*
X1198Y1290D03*
X1557D03*
Y1465D03*
G54D36*
X1198Y1465D03*
G54D37*
X1724Y141D03*
X2450Y415D03*
X2720Y315D03*
X1320Y1260D03*
X1450Y1265D03*
X1325Y280D03*
X945Y385D03*
X1250Y55D03*
X835Y65D03*
X680Y150D03*
X420Y2325D03*
X2155Y80D03*
X420Y2010D03*
Y1850D03*
Y1505D03*
Y1360D03*
Y1035D03*
Y865D03*
Y545D03*
X425Y380D03*
X2430Y2350D03*
X2270D03*
M02*