%FSLAX23Y23*%
%MOIN*%
%SFA1B1*%

%IPPOS*%
%ADD40C,0.003940*%
%LNpcb1-1*%
%LPD*%
G54D40*
X1072Y137D02*
D01*
X1072Y138*
X1072Y139*
X1072Y141*
X1072Y142*
X1071Y143*
X1071Y145*
X1070Y146*
X1069Y147*
X1069Y148*
X1068Y149*
X1067Y150*
X1066Y151*
X1065Y152*
X1064Y153*
X1063Y154*
X1061Y154*
X1060Y155*
X1059Y155*
X1058Y156*
X1056Y156*
X1055Y156*
X1053Y156*
X1052*
X1051Y156*
X1049Y156*
X1048Y156*
X1047Y155*
X1045Y155*
X1044Y154*
X1043Y154*
X1042Y153*
X1041Y152*
X1040Y151*
X1039Y150*
X1038Y149*
X1037Y148*
X1036Y147*
X1035Y146*
X1035Y145*
X1034Y143*
X1034Y142*
X1034Y141*
X1033Y139*
X1033Y138*
X1033Y137*
X1033Y135*
X1033Y134*
X1034Y132*
X1034Y131*
X1034Y130*
X1035Y129*
X1035Y127*
X1036Y126*
X1037Y125*
X1038Y124*
X1039Y123*
X1040Y122*
X1041Y121*
X1042Y120*
X1043Y119*
X1044Y119*
X1045Y118*
X1047Y118*
X1048Y117*
X1049Y117*
X1051Y117*
X1052Y117*
X1053*
X1055Y117*
X1056Y117*
X1058Y117*
X1059Y118*
X1060Y118*
X1061Y119*
X1063Y119*
X1064Y120*
X1065Y121*
X1066Y122*
X1067Y123*
X1068Y124*
X1069Y125*
X1069Y126*
X1070Y127*
X1071Y129*
X1071Y130*
X1072Y131*
X1072Y132*
X1072Y134*
X1072Y135*
X1072Y137*
X360Y2375D02*
X429D01*
X360Y2412D02*
X429D01*
X360Y2375D02*
Y2412D01*
X429Y2375D02*
Y2412D01*
X360Y1421D02*
X429D01*
X360Y1458D02*
X429D01*
X360Y1421D02*
Y1458D01*
X429Y1421D02*
Y1458D01*
X360Y928D02*
X429D01*
X360Y965D02*
X429D01*
X360Y928D02*
Y965D01*
X429Y928D02*
Y965D01*
X360Y446D02*
X429D01*
X360Y483D02*
X429D01*
X360Y446D02*
Y483D01*
X429Y446D02*
Y483D01*
X2247Y93D02*
X2392D01*
X2247Y356D02*
X2392D01*
X2247Y93D02*
Y356D01*
X2392Y93D02*
Y356D01*
X605Y313D02*
X674D01*
X605Y276D02*
X674D01*
X605D02*
Y313D01*
X674Y276D02*
Y313D01*
X760Y276D02*
X829D01*
X760Y313D02*
X829D01*
Y276D02*
Y313D01*
X760Y276D02*
Y313D01*
X1451Y85D02*
Y154D01*
X1488Y85D02*
Y154D01*
X1451Y85D02*
X1488D01*
X1451Y154D02*
X1488D01*
X1585Y76D02*
X1654D01*
X1585Y113D02*
X1654D01*
Y76D02*
Y113D01*
X1585Y76D02*
Y113D01*
X1876Y73D02*
X2021D01*
X1876Y336D02*
X2021D01*
Y73D02*
Y336D01*
X1876Y73D02*
Y336D01*
X1590Y233D02*
X1659D01*
X1590Y196D02*
X1659D01*
Y233*
X1590Y196D02*
Y233D01*
X429Y1911D02*
Y1948D01*
X360Y1911D02*
Y1948D01*
X429*
X360Y1911D02*
X429D01*
Y276D02*
Y313D01*
X360Y276D02*
Y313D01*
Y276D02*
X429D01*
X360Y313D02*
X429D01*
Y772D02*
Y809D01*
X360Y772D02*
Y809D01*
Y772D02*
X429D01*
X360Y809D02*
X429D01*
Y1268D02*
Y1306D01*
X360Y1268D02*
Y1306D01*
Y1268D02*
X429D01*
X360Y1306D02*
X429D01*
Y1765D02*
Y1802D01*
X360Y1765D02*
Y1802D01*
Y1765D02*
X429D01*
X360Y1802D02*
X429D01*
X741Y174D02*
X778D01*
X741Y105D02*
X778D01*
Y174*
X741Y105D02*
Y174D01*
X586Y100D02*
X623D01*
X586Y169D02*
X623D01*
X586Y100D02*
Y169D01*
X623Y100D02*
Y169D01*
X931Y298D02*
X1088D01*
X931Y101D02*
X1088D01*
X931D02*
Y298D01*
X1088Y101D02*
Y298D01*
X1306Y140D02*
X1343D01*
X1306Y209D02*
X1343D01*
Y140D02*
Y209D01*
X1306Y140D02*
Y209D01*
X429Y2231D02*
Y2268D01*
X360Y2231D02*
Y2268D01*
Y2231D02*
X429D01*
X360Y2268D02*
X429D01*
M02*