%FSLAX23Y23*%
%MOIN*%
%SFA1B1*%

%IPPOS*%
%ADD16R,0.037400X0.033470*%
%ADD17R,0.033470X0.037400*%
%ADD18R,0.078740X0.149610*%
%ADD19R,0.078740X0.059060*%
%ADD33C,0.058270*%
%ADD34C,0.039370*%
%ADD35C,0.103940*%
%ADD36R,0.103940X0.103940*%
%LNpcb1-1*%
%LPD*%
G54D16*
X1325Y149D03*
Y200D03*
G54D17*
X369Y2393D03*
X420D03*
X369Y1440D03*
X420D03*
X369Y947D03*
X420D03*
X369Y465D03*
X420D03*
X1650Y215D03*
X1599D03*
X420Y1930D03*
X369D03*
G54D18*
X2195Y225D03*
G54D19*
X2444Y134D03*
Y225D03*
Y315D03*
G54D33*
X1157Y1830D03*
X1257D03*
X2310Y2575D03*
X2410D03*
X1663D03*
X1763D03*
X980D03*
X1080D03*
X1885Y1505D03*
X1985D03*
X1885Y1230D03*
X1985D03*
X1157Y720D03*
X1257D03*
X1220Y465D03*
X1320D03*
X925Y1230D03*
X1025D03*
X920Y1505D03*
X1020D03*
X765Y2350D03*
X665D03*
X470Y2575D03*
X370D03*
X2025Y2350D03*
X1925D03*
X2655D03*
X2555D03*
X1435D03*
X1335D03*
X2071Y1915D03*
X1971D03*
X1615Y1830D03*
X1515D03*
X680Y1905D03*
X580D03*
X2353Y2100D03*
X2253D03*
X1790D03*
X1690D03*
X1080D03*
X980D03*
X250D03*
X150D03*
X2353Y1557D03*
X2253D03*
X705Y1470D03*
X605D03*
X2655Y1850D03*
X2555D03*
X250Y1615D03*
X150D03*
X2340Y1015D03*
X2240D03*
X2030Y835D03*
X1930D03*
X925Y830D03*
X825D03*
X660Y1045D03*
X560D03*
X2655Y1250D03*
X2555D03*
X1615Y1005D03*
X1515D03*
X1257D03*
X1157D03*
X250Y1130D03*
X150D03*
X2350Y560D03*
X2250D03*
X1935Y520D03*
X1835D03*
X760Y545D03*
X660D03*
X2655Y750D03*
X2555D03*
X1620Y655D03*
X1520D03*
X250Y645D03*
X150D03*
G54D34*
X1798Y1037D03*
X957D03*
Y1718D03*
X1798D03*
G54D35*
X1198Y1290D03*
X1557D03*
Y1465D03*
G54D36*
X1198Y1465D03*
M02*